#usda 1.0
(
    defaultPrim = "Cube3_2_089_0_004_1_631"
    upAxis = "Z"
)

def Mesh "Cube3_2_089_0_004_1_631"
{
    int[] faceVertexCounts = [3, 3, 3, 3, 3, 3, 3, 3, 3, 3, 3, 3, 3, 3, 3, 3, 3, 3, 3, 3, 3, 3, 3, 3, 3, 3, 3, 3, 3, 3, 3, 3, 3, 3, 3, 3, 3, 3, 3, 3, 3, 3, 3, 3, 3, 3, 3, 3]
    int[] faceVertexIndices = [0, 1, 2, 1, 3, 2, 1, 4, 3, 2, 3, 5, 4, 6, 3, 3, 7, 5, 3, 6, 7, 6, 8, 7, 9, 10, 11, 9, 12, 10, 13, 12, 9, 12, 14, 10, 13, 15, 12, 12, 16, 14, 15, 16, 12, 15, 17, 16, 18, 1, 0, 18, 19, 1, 11, 19, 18, 19, 4, 1, 11, 10, 19, 19, 20, 4, 10, 20, 19, 10, 14, 20, 21, 2, 5, 21, 22, 2, 13, 22, 21, 22, 0, 2, 13, 9, 22, 22, 18, 0, 9, 18, 22, 9, 11, 18, 23, 7, 8, 23, 24, 7, 17, 24, 23, 24, 5, 7, 17, 15, 24, 24, 21, 5, 15, 21, 24, 15, 13, 21, 20, 6, 4, 20, 25, 6, 14, 25, 20, 25, 8, 6, 14, 16, 25, 25, 23, 8, 16, 23, 25, 16, 17, 23]
    normal3f[] normals = [(0, 0, 1), (0, 1, 0), (0, 1, 0), (0, 1, 0), (0, -1, 0), (0, 1, 0), (0, 1, 0), (0, 1, 0), (0, -1, 0), (0, 1, 0), (0, -1, 0), (0, 1, 0), (0, 1, 0), (0, 1, 0), (0, -1, 0), (0, -1, 0), (0, 1, 0), (0, 1, 0), (0, -1, 0), (0, 1, 0), (0, 1, 0), (0, 1, 0), (0, 0, -1), (0, 1, 0), (0, 1, 0), (0, 1, 0), (-1, 0, 0), (0, 1, 0), (0, 1, 0), (0, 1, 0), (0, 1, 0), (0, 1, 0), (0, 1, 0), (0, 1, 0), (0, 1, 0), (0, 1, 0), (0, 1, 0), (0, 1, 0), (0, 1, 0), (0, 1, 0), (0, 1, 0), (0, 1, 0), (0, 1, 0), (0, 1, 0), (0, 1, 0), (0, 1, 0), (1, 0, 0), (0, 1, 0), (0, 1, 0), (0, 1, 0), (0, 0, 1), (0, 1, 0), (-1, 0, 0), (0, 1, 0), (-1, 0, 0), (-1, 0, 0), (0, 1, 0), (-1, 0, 0), (0, 1, 0), (0, 1, 0), (-1, 0, 0), (0, 1, 0), (-1, 0, 0), (-1, 0, 0), (0, 1, 0), (0, 1, 0), (0, 1, 0), (0, 1, 0), (-1, 0, 0), (0, 1, 0), (0, 1, 0), (0, 1, 0), (0, 1, 0), (0, 1, 0), (0, 1, 0), (0, 1, 0), (0, 0, 1), (0, 1, 0), (0, 1, 0), (0, 0, 1), (0, 1, 0), (0, 0, 1), (0, 0, 1), (0, 1, 0), (0, 1, 0), (0, 1, 0), (0, 0, 1), (0, 0, 1), (0, 1, 0), (0, 0, 1), (0, 1, 0), (0, 1, 0), (0, 0, 1), (0, 1, 0), (-1, 0, 0), (0, 1, 0), (0, 1, 0), (0, 1, 0), (0, 0, -1), (0, 1, 0), (1, 0, 0), (0, 1, 0), (1, 0, 0), (1, 0, 0), (0, 1, 0), (1, 0, 0), (0, 1, 0), (0, 1, 0), (1, 0, 0), (0, 1, 0), (1, 0, 0), (1, 0, 0), (0, 1, 0), (0, 1, 0), (0, 1, 0), (0, 1, 0), (1, 0, 0), (0, 1, 0), (0, 1, 0), (0, 1, 0), (0, 1, 0), (0, 1, 0), (0, 1, 0), (0, 1, 0), (0, 0, -1), (0, 1, 0), (0, 1, 0), (0, 0, -1), (0, 1, 0), (0, 0, -1), (0, 0, -1), (0, 1, 0), (0, 1, 0), (0, 1, 0), (0, 0, -1), (0, 0, -1), (0, 1, 0), (0, 0, -1), (0, 1, 0), (0, 1, 0), (0, 0, -1), (0, 1, 0), (1, 0, 0), (0, 1, 0)] (
        interpolation = "faceVarying"
    )
    point3f[] points = [(-0.002, -0.8155, 1.0445), (-0.002, -0.8155, -1.9888309e-17), (-3.8844353e-20, -0.8155, 1.0445), (-3.8844353e-20, -0.8155, -1.9888309e-17), (-0.002, -0.8155, -1.0445), (0.002, -0.8155, 1.0445), (-3.8844353e-20, -0.8155, -1.0445), (0.002, -0.8155, -1.9888309e-17), (0.002, -0.8155, -1.0445), (-5.287031e-19, 0.8155, 1.0445), (-0.002, 0.8155, -1.9888309e-17), (-0.002, 0.8155, 1.0445), (-5.287031e-19, 0.8155, -1.9888309e-17), (0.002, 0.8155, 1.0445), (-0.002, 0.8155, -1.0445), (0.002, 0.8155, -1.9888309e-17), (-5.287031e-19, 0.8155, -1.0445), (0.002, 0.8155, -1.0445), (-0.002, -4.098523e-17, 1.0445), (-0.002, -4.098523e-17, -1.9888309e-17), (-0.002, -4.098523e-17, -1.0445), (0.002, 5.888471e-17, 1.0445), (-2.8377372e-19, 8.949739e-18, 1.0445), (0.002, 5.888471e-17, -1.0445), (0.002, 5.888471e-17, -1.9888309e-17), (-2.8377372e-19, 8.949739e-18, -1.0445)]
}

