#usda 1.0
(
    defaultPrim = "SM_Ceiling_Panel_6"
    upAxis = "Z"
)

def Mesh "SM_Ceiling_Panel_6"
{
    int[] faceVertexCounts = [3, 3, 3, 3, 3, 3, 3, 3, 3, 3, 3, 3, 3, 3, 3, 3, 3, 3, 3, 3, 3, 3, 3, 3, 3, 3, 3, 3, 3, 3, 3, 3, 3, 3, 3, 3, 3, 3, 3, 3, 3, 3, 3, 3, 3, 3, 3, 3, 3, 3, 3, 3, 3, 3, 3, 3, 3, 3, 3, 3, 3, 3, 3, 3, 3, 3, 3, 3, 3, 3, 3, 3, 3, 3, 3, 3, 3, 3, 3, 3, 3, 3, 3, 3, 3, 3, 3, 3, 3, 3, 3, 3, 3, 3, 3, 3, 3, 3, 3, 3, 3, 3, 3, 3, 3, 3, 3, 3, 3, 3, 3, 3, 3, 3, 3, 3, 3, 3, 3, 3, 3, 3, 3, 3, 3, 3, 3, 3, 3, 3, 3, 3, 3, 3, 3, 3, 3, 3, 3, 3, 3, 3, 3, 3, 3, 3, 3, 3, 3, 3, 3, 3, 3, 3, 3, 3, 3, 3, 3, 3, 3, 3, 3, 3, 3, 3, 3, 3, 3, 3, 3, 3, 3, 3, 3, 3, 3, 3, 3, 3, 3, 3, 3, 3, 3, 3, 3, 3, 3, 3, 3, 3, 3, 3, 3, 3, 3, 3, 3, 3, 3, 3, 3, 3, 3, 3, 3, 3, 3, 3, 3, 3, 3, 3, 3, 3, 3, 3, 3, 3, 3, 3, 3, 3, 3, 3, 3, 3, 3, 3, 3, 3, 3, 3, 3, 3, 3, 3, 3, 3, 3, 3, 3, 3, 3, 3, 3, 3, 3, 3, 3, 3, 3, 3, 3, 3, 3, 3, 3, 3, 3, 3, 3, 3, 3, 3, 3, 3, 3, 3, 3, 3, 3, 3, 3, 3, 3, 3, 3, 3, 3, 3, 3, 3, 3, 3, 3, 3, 3, 3, 3, 3, 3, 3, 3, 3, 3, 3, 3, 3]
    int[] faceVertexIndices = [0, 1, 2, 1, 3, 2, 4, 5, 6, 4, 6, 7, 7, 6, 1, 7, 1, 0, 4, 7, 0, 4, 0, 2, 5, 4, 2, 5, 2, 3, 6, 5, 3, 6, 3, 1, 8, 9, 10, 10, 9, 11, 12, 11, 13, 11, 9, 13, 14, 15, 16, 16, 15, 17, 16, 17, 18, 18, 17, 19, 18, 19, 20, 20, 19, 21, 20, 21, 22, 22, 21, 23, 23, 24, 22, 24, 23, 25, 24, 25, 26, 26, 25, 27, 26, 27, 28, 28, 27, 29, 29, 30, 28, 30, 29, 31, 30, 31, 32, 32, 31, 33, 32, 33, 13, 13, 33, 34, 13, 34, 12, 12, 34, 35, 12, 35, 14, 14, 35, 15, 36, 37, 38, 38, 37, 39, 40, 41, 42, 42, 41, 43, 43, 44, 42, 44, 43, 45, 44, 45, 46, 46, 45, 47, 46, 47, 48, 48, 47, 49, 48, 49, 50, 50, 49, 51, 50, 51, 52, 52, 51, 53, 52, 53, 54, 54, 53, 55, 54, 55, 56, 56, 55, 57, 56, 57, 58, 58, 57, 59, 58, 59, 60, 60, 59, 61, 61, 62, 60, 62, 61, 63, 62, 63, 40, 40, 63, 41, 64, 65, 66, 66, 65, 67, 68, 67, 69, 67, 65, 69, 65, 70, 69, 71, 70, 65, 72, 70, 71, 70, 72, 73, 72, 74, 73, 74, 72, 75, 76, 74, 75, 74, 76, 77, 76, 78, 77, 79, 78, 76, 79, 80, 78, 80, 79, 81, 81, 82, 80, 82, 81, 83, 84, 82, 83, 82, 84, 85, 84, 86, 85, 87, 86, 84, 88, 86, 87, 86, 88, 89, 68, 88, 67, 88, 68, 89, 89, 90, 86, 86, 90, 91, 86, 91, 85, 85, 91, 92, 85, 92, 82, 82, 92, 93, 82, 93, 80, 80, 93, 94, 94, 78, 80, 78, 94, 95, 78, 95, 77, 77, 95, 96, 77, 96, 74, 74, 96, 97, 97, 73, 74, 73, 97, 98, 73, 98, 70, 70, 98, 99, 70, 99, 69, 69, 99, 100, 69, 100, 68, 68, 100, 101, 68, 101, 89, 89, 101, 90, 102, 103, 104, 104, 103, 105, 106, 107, 108, 108, 107, 109, 109, 110, 108, 110, 109, 111, 110, 111, 112, 112, 111, 113, 112, 113, 114, 114, 113, 115, 114, 115, 116, 116, 115, 117, 116, 117, 118, 118, 117, 119, 118, 119, 120, 120, 119, 121, 120, 121, 122, 122, 121, 123, 122, 123, 124, 124, 123, 125, 124, 125, 126, 126, 125, 127, 127, 128, 126, 128, 127, 129, 128, 129, 106, 106, 129, 107, 130, 131, 132, 132, 131, 133, 132, 133, 134, 134, 133, 135, 134, 135, 136, 136, 135, 137, 136, 137, 138, 138, 137, 139, 138, 139, 140, 140, 139, 141, 140, 141, 142, 142, 141, 143, 142, 143, 144, 144, 143, 145, 144, 145, 8, 8, 145, 9, 10, 11, 146, 146, 11, 147, 146, 147, 148, 148, 147, 149, 148, 149, 130, 130, 149, 131, 150, 151, 152, 152, 151, 153, 152, 153, 154, 154, 153, 155, 154, 155, 156, 156, 155, 157, 156, 157, 158, 158, 157, 159, 158, 159, 160, 160, 159, 161, 160, 161, 162, 162, 161, 163, 162, 163, 164, 164, 163, 165, 164, 165, 36, 36, 165, 37, 38, 39, 166, 166, 39, 167, 166, 167, 168, 168, 167, 169, 168, 169, 150, 150, 169, 151, 170, 84, 171, 171, 84, 83, 171, 83, 172, 172, 83, 81, 172, 81, 173, 173, 81, 79, 173, 79, 174, 174, 79, 76, 174, 76, 175, 175, 76, 75, 175, 75, 176, 176, 75, 72, 176, 72, 177, 177, 72, 71, 177, 71, 64, 64, 71, 65, 66, 67, 178, 178, 67, 88, 178, 88, 179, 179, 88, 87, 179, 87, 170, 170, 87, 84, 180, 181, 182, 182, 181, 183, 182, 183, 184, 184, 183, 185, 184, 185, 186, 186, 185, 187, 186, 187, 188, 188, 187, 189, 188, 189, 190, 190, 189, 191, 190, 191, 192, 192, 191, 193, 192, 193, 194, 194, 193, 195, 194, 195, 102, 102, 195, 103, 104, 105, 196, 196, 105, 197, 196, 197, 198, 198, 197, 199, 198, 199, 180, 180, 199, 181, 12, 147, 11, 147, 12, 14, 14, 149, 147, 149, 14, 16, 149, 16, 131, 131, 16, 18, 20, 131, 18, 131, 20, 133, 20, 135, 133, 135, 20, 22, 22, 137, 135, 137, 22, 24, 26, 137, 24, 137, 26, 139, 141, 139, 26, 28, 141, 26, 28, 143, 141, 143, 28, 30, 32, 143, 30, 143, 32, 145, 145, 32, 9, 9, 32, 13, 46, 153, 44, 48, 153, 46, 153, 151, 44, 153, 48, 155, 151, 42, 44, 48, 157, 155, 169, 42, 151, 157, 48, 50, 169, 40, 42, 52, 157, 50, 40, 169, 167, 157, 52, 159, 39, 40, 167, 161, 159, 52, 40, 39, 62, 54, 161, 52, 62, 39, 60, 54, 163, 161, 39, 37, 60, 163, 54, 56, 165, 60, 37, 56, 165, 163, 60, 165, 58, 165, 56, 58, 199, 108, 181, 197, 108, 199, 181, 108, 110, 108, 197, 106, 183, 181, 110, 197, 128, 106, 112, 183, 110, 128, 197, 105, 114, 183, 112, 128, 105, 126, 183, 114, 185, 105, 103, 126, 114, 187, 185, 195, 126, 103, 187, 114, 116, 126, 195, 124, 187, 116, 189, 195, 122, 124, 189, 116, 118, 122, 195, 193, 120, 189, 118, 193, 120, 122, 189, 120, 191, 120, 193, 191]
    normal3f[] normals = [(-0.9999997, -0.00033775685, 0.000709936), (-0.9999997, -0.00033775685, 0.000709936), (-0.9999997, -0.00033775685, 0.000709936), (-0.9999997, -0.00033775685, 0.000709936), (-0.9999997, -0.00033775685, 0.000709936), (-0.9999997, -0.00033775685, 0.000709936), (0.9999997, 0.00033775685, -0.000709936), (0.9999997, 0.00033775685, -0.000709936), (0.9999997, 0.00033775685, -0.000709936), (0.9999997, 0.00033775685, -0.000709936), (0.9999997, 0.00033775685, -0.000709936), (0.9999997, 0.00033775685, -0.000709936), (0.9999997, 0.00033775685, -0.000709936), (0.9999997, 0.00033775685, -0.000709936), (-0.9999997, -0.00033775685, 0.000709936), (0.9999997, 0.00033775685, -0.000709936), (-0.9999997, -0.00033775685, 0.000709936), (-0.9999997, -0.00033775685, 0.000709936), (0.9999997, 0.00033775685, -0.000709936), (0.9999997, 0.00033775685, -0.000709936), (-0.9999997, -0.00033775685, 0.000709936), (0.9999997, 0.00033775685, -0.000709936), (-0.9999997, -0.00033775685, 0.000709936), (-0.9999997, -0.00033775685, 0.000709936), (0.9999997, 0.00033775685, -0.000709936), (0.9999997, 0.00033775685, -0.000709936), (-0.9999997, -0.00033775685, 0.000709936), (0.9999997, 0.00033775685, -0.000709936), (-0.9999997, -0.00033775685, 0.000709936), (-0.9999997, -0.00033775685, 0.000709936), (0.9999997, 0.00033775685, -0.000709936), (0.9999997, 0.00033775685, -0.000709936), (-0.9999997, -0.00033775685, 0.000709936), (0.9999997, 0.00033775685, -0.000709936), (-0.9999997, -0.00033775685, 0.000709936), (-0.9999997, -0.00033775685, 0.000709936), (0.00002387719, 0.88954824, 0.4568414), (0.00016275673, 0.7945113, 0.6072495), (0.00041358444, 0.54195786, 0.8404057), (0.00041358444, 0.54195786, 0.8404057), (0.00016275673, 0.7945113, 0.6072495), (0.00052552955, 0.3844411, 0.9231494), (0.00041358668, 0.541955, 0.8404075), (0.00052552955, 0.3844411, 0.9231494), (0.000023879891, 0.8895466, 0.45684445), (0.00052552955, 0.3844411, 0.9231494), (0.00016275673, 0.7945113, 0.6072495), (0.000023879891, 0.8895466, 0.45684445), (0.00069248053, 0.049141474, 0.99879164), (0.000747488, -0.12864578, 0.9916904), (0.0007858235, -0.4568467, 0.88954514), (0.0007858235, -0.4568467, 0.88954514), (0.000747488, -0.12864578, 0.9916904), (0.00076915394, -0.6072537, 0.7945076), (0.0007858235, -0.4568467, 0.88954514), (0.00076915394, -0.6072537, 0.7945076), (0.00066860893, -0.8404047, 0.54195905), (0.00066860893, -0.8404047, 0.54195905), (0.00076915394, -0.6072537, 0.7945076), (0.00058472593, -0.92315143, 0.38443607), (0.00066860893, -0.8404047, 0.54195905), (0.00058472593, -0.92315143, 0.38443607), (0.00037223162, -0.9987921, 0.049134877), (0.00037223162, -0.9987921, 0.049134877), (0.00058472593, -0.92315143, 0.38443607), (0.0002436247, -0.9916914, -0.12863968), (0.00037223162, -0.9987921, 0.049134877), (0.0002436247, -0.9916914, -0.12863968), (-0.000023877421, -0.88954806, -0.45684168), (-0.000023877421, -0.88954806, -0.45684168), (0.0002436247, -0.9916914, -0.12863968), (-0.00016276489, -0.79450476, -0.6072579), (-0.00016276489, -0.79450476, -0.6072579), (-0.0004135857, -0.5419563, -0.8404067), (-0.000023877421, -0.88954806, -0.45684168), (-0.0004135857, -0.5419563, -0.8404067), (-0.00016276489, -0.79450476, -0.6072579), (-0.000525531, -0.38443884, -0.92315036), (-0.0004135857, -0.5419563, -0.8404067), (-0.000525531, -0.38443884, -0.92315036), (-0.0006924827, -0.04913569, -0.99879193), (-0.0006924827, -0.04913569, -0.99879193), (-0.000525531, -0.38443884, -0.92315036), (-0.00074748625, 0.1286389, -0.99169123), (-0.0006924827, -0.04913569, -0.99879193), (-0.00074748625, 0.1286389, -0.99169123), (-0.0007858237, 0.45683914, -0.88954896), (-0.0007858237, 0.45683914, -0.88954896), (-0.00074748625, 0.1286389, -0.99169123), (-0.00076915254, 0.6072608, -0.79450226), (-0.00076915254, 0.6072608, -0.79450226), (-0.0006686052, 0.8404094, -0.5419516), (-0.0007858237, 0.45683914, -0.88954896), (-0.0006686052, 0.8404094, -0.5419516), (-0.00076915254, 0.6072608, -0.79450226), (-0.0005847304, 0.9231482, -0.3844439), (-0.0006686052, 0.8404094, -0.5419516), (-0.0005847304, 0.9231482, -0.3844439), (-0.00037223645, 0.9987918, -0.049141806), (-0.00037223645, 0.9987918, -0.049141806), (-0.0005847304, 0.9231482, -0.3844439), (-0.00024362036, 0.99169064, 0.12864542), (-0.00037223645, 0.9987918, -0.049141806), (-0.00024362036, 0.99169064, 0.12864542), (0.000023879891, 0.8895466, 0.45684445), (0.000023879891, 0.8895466, 0.45684445), (-0.00024362036, 0.99169064, 0.12864542), (0.00016276374, 0.7945058, 0.6072567), (0.000023879891, 0.8895466, 0.45684445), (0.00016276374, 0.7945058, 0.6072567), (0.00041358668, 0.541955, 0.8404075), (0.00041358668, 0.541955, 0.8404075), (0.00016276374, 0.7945058, 0.6072567), (0.00052552915, 0.38444173, 0.9231491), (0.00041358668, 0.541955, 0.8404075), (0.00052552915, 0.38444173, 0.9231491), (0.00069248053, 0.049141474, 0.99879164), (0.00069248053, 0.049141474, 0.99879164), (0.00052552915, 0.38444173, 0.9231491), (0.000747488, -0.12864578, 0.9916904), (0.000023873145, 0.88955057, 0.45683682), (0.00016276025, 0.7945084, 0.6072531), (0.00041358656, 0.5419551, 0.8404074), (0.00041358656, 0.5419551, 0.8404074), (0.00016276025, 0.7945084, 0.6072531), (0.00052552816, 0.38444328, 0.92314845), (0.0006924807, 0.049140908, 0.9987916), (0.00074748765, -0.12864465, 0.99169046), (0.00078582356, -0.45684433, 0.88954633), (0.00078582356, -0.45684433, 0.88954633), (0.00074748765, -0.12864465, 0.99169046), (0.0007691534, -0.60725665, 0.7945055), (0.0007691534, -0.60725665, 0.7945055), (0.0006686024, -0.84041315, 0.5419459), (0.00078582356, -0.45684433, 0.88954633), (0.0006686024, -0.84041315, 0.5419459), (0.0007691534, -0.60725665, 0.7945055), (0.0005847168, -0.9231581, 0.38442004), (0.0006686024, -0.84041315, 0.5419459), (0.0005847168, -0.9231581, 0.38442004), (0.0003722272, -0.99879235, 0.04912851), (0.0003722272, -0.99879235, 0.04912851), (0.0005847168, -0.9231581, 0.38442004), (0.00024362946, -0.99169225, -0.12863335), (0.0003722272, -0.99879235, 0.04912851), (0.00024362946, -0.99169225, -0.12863335), (-0.000023863755, -0.889556, -0.45682618), (-0.000023863755, -0.889556, -0.45682618), (0.00024362946, -0.99169225, -0.12863335), (-0.00016275284, -0.7945143, -0.60724545), (-0.000023863755, -0.889556, -0.45682618), (-0.00016275284, -0.7945143, -0.60724545), (-0.0004135832, -0.54195935, -0.8404047), (-0.0004135832, -0.54195935, -0.8404047), (-0.00016275284, -0.7945143, -0.60724545), (-0.0005255326, -0.38443637, -0.9231513), (-0.0004135832, -0.54195935, -0.8404047), (-0.0005255326, -0.38443637, -0.9231513), (-0.0006924831, -0.04913455, -0.99879193), (-0.0006924831, -0.04913455, -0.99879193), (-0.0005255326, -0.38443637, -0.9231513), (-0.00074748613, 0.12863833, -0.9916913), (-0.0006924831, -0.04913455, -0.99879193), (-0.00074748613, 0.12863833, -0.9916913), (-0.0007858237, 0.45683914, -0.88954896), (-0.0007858237, 0.45683914, -0.88954896), (-0.00074748613, 0.12863833, -0.9916913), (-0.00076915254, 0.6072608, -0.79450226), (-0.0007858237, 0.45683914, -0.88954896), (-0.00076915254, 0.6072608, -0.79450226), (-0.0006686009, 0.8404151, -0.54194283), (-0.0006686009, 0.8404151, -0.54194283), (-0.00076915254, 0.6072608, -0.79450226), (-0.0005847182, 0.9231571, -0.38442248), (-0.0006686009, 0.8404151, -0.54194283), (-0.0005847182, 0.9231571, -0.38442248), (-0.00037222757, 0.9987924, -0.04912907), (-0.00037222757, 0.9987924, -0.04912907), (-0.0005847182, 0.9231571, -0.38442248), (-0.00024362988, 0.99169225, 0.12863278), (-0.00037222757, 0.9987924, -0.04912907), (-0.00024362988, 0.99169225, 0.12863278), (0.00002386166, 0.8895572, 0.45682383), (0.00002386166, 0.8895572, 0.45682383), (-0.00024362988, 0.99169225, 0.12863278), (0.00016275566, 0.79451215, 0.6072484), (0.00016275566, 0.79451215, 0.6072484), (0.00041358668, 0.541955, 0.8404075), (0.00002386166, 0.8895572, 0.45682383), (0.00041358668, 0.541955, 0.8404075), (0.00016275566, 0.79451215, 0.6072484), (0.00052552915, 0.38444173, 0.9231491), (0.00041358668, 0.541955, 0.8404075), (0.00052552915, 0.38444173, 0.9231491), (0.0006924807, 0.049140908, 0.9987916), (0.0006924807, 0.049140908, 0.9987916), (0.00052552915, 0.38444173, 0.9231491), (0.00074748765, -0.12864465, 0.99169046), (0.00002387719, 0.88954824, 0.4568414), (0.00016275673, 0.7945113, 0.6072495), (0.00041358746, 0.541954, 0.8404081), (0.00041358746, 0.541954, 0.8404081), (0.00016275673, 0.7945113, 0.6072495), (0.0005255356, 0.38443166, 0.9231534), (0.00041359363, 0.5419462, 0.8404131), (0.0005255356, 0.38443166, 0.9231534), (0.000023879891, 0.8895466, 0.45684445), (0.0005255356, 0.38443166, 0.9231534), (0.00016275673, 0.7945113, 0.6072495), (0.000023879891, 0.8895466, 0.45684445), (0.00016275673, 0.7945113, 0.6072495), (-0.0003722356, 0.9987918, -0.049140666), (0.000023879891, 0.8895466, 0.45684445), (-0.00024361964, 0.9916906, 0.1286464), (-0.0003722356, 0.9987918, -0.049140666), (0.00016275673, 0.7945113, 0.6072495), (-0.00058473053, 0.9231481, -0.38444412), (-0.0003722356, 0.9987918, -0.049140666), (-0.00024361964, 0.9916906, 0.1286464), (-0.0003722356, 0.9987918, -0.049140666), (-0.00058473053, 0.9231481, -0.38444412), (-0.0006686068, 0.8404075, -0.5419547), (-0.00058473053, 0.9231481, -0.38444412), (-0.0007858241, 0.45682368, -0.88955694), (-0.0006686068, 0.8404075, -0.5419547), (-0.0007858241, 0.45682368, -0.88955694), (-0.00058473053, 0.9231481, -0.38444412), (-0.00076915446, 0.6072512, -0.79450953), (-0.0007474874, 0.12864338, -0.9916907), (-0.0007858241, 0.45682368, -0.88955694), (-0.00076915446, 0.6072512, -0.79450953), (-0.0007858241, 0.45682368, -0.88955694), (-0.0007474874, 0.12864338, -0.9916907), (-0.0006924851, -0.04912932, -0.99879223), (-0.0007474874, 0.12864338, -0.9916907), (-0.00041359608, -0.54194313, -0.84041506), (-0.0006924851, -0.04912932, -0.99879223), (-0.000525532, -0.3844373, -0.92315096), (-0.00041359608, -0.54194313, -0.84041506), (-0.0007474874, 0.12864338, -0.9916907), (-0.000525532, -0.3844373, -0.92315096), (-0.000023875322, -0.88954926, -0.45683926), (-0.00041359608, -0.54194313, -0.84041506), (-0.000023875322, -0.88954926, -0.45683926), (-0.000525532, -0.3844373, -0.92315096), (-0.00016276275, -0.7945065, -0.6072557), (-0.00016276275, -0.7945065, -0.6072557), (0.0003722312, -0.9987921, 0.0491343), (-0.000023875322, -0.88954926, -0.45683926), (0.0003722312, -0.9987921, 0.0491343), (-0.00016276275, -0.7945065, -0.6072557), (0.00024361964, -0.9916906, -0.1286464), (0.0005847285, -0.9231495, 0.38444063), (0.0003722312, -0.9987921, 0.0491343), (0.00024361964, -0.9916906, -0.1286464), (0.0003722312, -0.9987921, 0.0491343), (0.0005847285, -0.9231495, 0.38444063), (0.00066860893, -0.8404047, 0.54195905), (0.0005847285, -0.9231495, 0.38444063), (0.000785824, -0.45682606, 0.8895557), (0.00066860893, -0.8404047, 0.54195905), (0.0007691535, -0.60725564, 0.7945062), (0.000785824, -0.45682606, 0.8895557), (0.0005847285, -0.9231495, 0.38444063), (0.00074748654, -0.12864009, 0.99169105), (0.000785824, -0.45682606, 0.8895557), (0.0007691535, -0.60725564, 0.7945062), (0.000785824, -0.45682606, 0.8895557), (0.00074748654, -0.12864009, 0.99169105), (0.00069248525, 0.049128752, 0.9987922), (0.00041359363, 0.5419462, 0.8404131), (0.00074748654, -0.12864009, 0.99169105), (0.0005255356, 0.38443166, 0.9231534), (0.00074748654, -0.12864009, 0.99169105), (0.00041359363, 0.5419462, 0.8404131), (0.00069248525, 0.049128752, 0.9987922), (0.00069248525, 0.049128752, 0.9987922), (0.00074748485, -0.12863314, 0.991692), (0.000785824, -0.45682606, 0.8895557), (0.000785824, -0.45682606, 0.8895557), (0.00074748485, -0.12863314, 0.991692), (0.0007691556, -0.6072454, 0.794514), (0.000785824, -0.45682606, 0.8895557), (0.0007691556, -0.6072454, 0.794514), (0.00066860893, -0.8404047, 0.54195905), (0.00066860893, -0.8404047, 0.54195905), (0.0007691556, -0.6072454, 0.794514), (0.00058472593, -0.92315143, 0.38443607), (0.00066860893, -0.8404047, 0.54195905), (0.00058472593, -0.92315143, 0.38443607), (0.0003722312, -0.9987921, 0.0491343), (0.0003722312, -0.9987921, 0.0491343), (0.00058472593, -0.92315143, 0.38443607), (0.00024362555, -0.9916915, -0.12863854), (0.0003722312, -0.9987921, 0.0491343), (0.00024362555, -0.9916915, -0.12863854), (-0.000023875322, -0.88954926, -0.45683926), (-0.000023875322, -0.88954926, -0.45683926), (0.00024362555, -0.9916915, -0.12863854), (-0.00016276777, -0.79450256, -0.6072609), (-0.00016276777, -0.79450256, -0.6072609), (-0.00041359608, -0.54194313, -0.84041506), (-0.000023875322, -0.88954926, -0.45683926), (-0.00041359608, -0.54194313, -0.84041506), (-0.00016276777, -0.79450256, -0.6072609), (-0.0005255412, -0.38442278, -0.923157), (-0.00041359608, -0.54194313, -0.84041506), (-0.0005255412, -0.38442278, -0.923157), (-0.0006924851, -0.04912932, -0.99879223), (-0.0006924851, -0.04912932, -0.99879223), (-0.0005255412, -0.38442278, -0.923157), (-0.0007474847, 0.12863258, -0.991692), (-0.0006924851, -0.04912932, -0.99879223), (-0.0007474847, 0.12863258, -0.991692), (-0.0007858241, 0.45682368, -0.88955694), (-0.0007858241, 0.45682368, -0.88955694), (-0.0007474847, 0.12863258, -0.991692), (-0.0007691551, 0.6072483, -0.79451185), (-0.0007691551, 0.6072483, -0.79451185), (-0.0006686068, 0.8404075, -0.5419547), (-0.0007858241, 0.45682368, -0.88955694), (-0.0006686068, 0.8404075, -0.5419547), (-0.0007691551, 0.6072483, -0.79451185), (-0.00058472896, 0.92314917, -0.38444144), (-0.0006686068, 0.8404075, -0.5419547), (-0.00058472896, 0.92314917, -0.38444144), (-0.0003722356, 0.9987918, -0.049140666), (-0.0003722356, 0.9987918, -0.049140666), (-0.00058472896, 0.92314917, -0.38444144), (-0.00024362079, 0.9916907, 0.12864485), (-0.0003722356, 0.9987918, -0.049140666), (-0.00024362079, 0.9916907, 0.12864485), (0.000023879891, 0.8895466, 0.45684445), (0.000023879891, 0.8895466, 0.45684445), (-0.00024362079, 0.9916907, 0.12864485), (0.00016276374, 0.7945058, 0.6072567), (0.000023879891, 0.8895466, 0.45684445), (0.00016276374, 0.7945058, 0.6072567), (0.00041359363, 0.5419462, 0.8404131), (0.00041359363, 0.5419462, 0.8404131), (0.00016276374, 0.7945058, 0.6072567), (0.0005255427, 0.38442034, 0.92315805), (0.00041359363, 0.5419462, 0.8404131), (0.0005255427, 0.38442034, 0.92315805), (0.00069248525, 0.049128752, 0.9987922), (0.00069248525, 0.049128752, 0.9987922), (0.0005255427, 0.38442034, 0.92315805), (0.00074748485, -0.12863314, 0.991692), (0.000023873145, 0.88955057, 0.45683682), (0.00016276025, 0.7945084, 0.6072531), (0.00041358965, 0.5419512, 0.8404098), (0.00041358965, 0.5419512, 0.8404098), (0.00016276025, 0.7945084, 0.6072531), (0.0005255342, 0.3844338, 0.92315245), (0.0006924854, 0.049128186, 0.99879223), (0.00074748456, -0.12863201, 0.9916921), (0.0007858241, -0.45682368, 0.88955694), (0.0007858241, -0.45682368, 0.88955694), (0.00074748456, -0.12863201, 0.9916921), (0.0007691551, -0.6072483, 0.79451185), (0.0007691551, -0.6072483, 0.79451185), (0.0006686024, -0.84041315, 0.5419459), (0.0007858241, -0.45682368, 0.88955694), (0.0006686024, -0.84041315, 0.5419459), (0.0007691551, -0.6072483, 0.79451185), (0.0005847168, -0.9231581, 0.38442004), (0.0006686024, -0.84041315, 0.5419459), (0.0005847168, -0.9231581, 0.38442004), (0.0003722268, -0.9987924, 0.049127936), (0.0003722268, -0.9987924, 0.049127936), (0.0005847168, -0.9231581, 0.38442004), (0.0002436303, -0.9916923, -0.12863222), (0.0003722268, -0.9987924, 0.049127936), (0.0002436303, -0.9916923, -0.12863222), (-0.00002386166, -0.8895572, -0.45682383), (-0.00002386166, -0.8895572, -0.45682383), (0.0002436303, -0.9916923, -0.12863222), (-0.00016275566, -0.79451215, -0.6072484), (-0.00002386166, -0.8895572, -0.45682383), (-0.00016275566, -0.79451215, -0.6072484), (-0.00041359363, -0.5419462, -0.8404131), (-0.00041359363, -0.5419462, -0.8404131), (-0.00016275566, -0.79451215, -0.6072484), (-0.0005255427, -0.38442034, -0.92315805), (-0.00041359363, -0.5419462, -0.8404131), (-0.0005255427, -0.38442034, -0.92315805), (-0.0006924854, -0.049128186, -0.99879223), (-0.0006924854, -0.049128186, -0.99879223), (-0.0005255427, -0.38442034, -0.92315805), (-0.00074748456, 0.12863201, -0.9916921), (-0.0006924854, -0.049128186, -0.99879223), (-0.00074748456, 0.12863201, -0.9916921), (-0.0007858241, 0.45682368, -0.88955694), (-0.0007858241, 0.45682368, -0.88955694), (-0.00074748456, 0.12863201, -0.9916921), (-0.0007691551, 0.6072483, -0.79451185), (-0.0007858241, 0.45682368, -0.88955694), (-0.0007691551, 0.6072483, -0.79451185), (-0.0006686024, 0.84041315, -0.5419459), (-0.0006686024, 0.84041315, -0.5419459), (-0.0007691551, 0.6072483, -0.79451185), (-0.0005847168, 0.9231581, -0.38442004), (-0.0006686024, 0.84041315, -0.5419459), (-0.0005847168, 0.9231581, -0.38442004), (-0.0003722268, 0.9987924, -0.049127936), (-0.0003722268, 0.9987924, -0.049127936), (-0.0005847168, 0.9231581, -0.38442004), (-0.0002436303, 0.9916923, 0.12863222), (-0.0003722268, 0.9987924, -0.049127936), (-0.0002436303, 0.9916923, 0.12863222), (0.00002386166, 0.8895572, 0.45682383), (0.00002386166, 0.8895572, 0.45682383), (-0.0002436303, 0.9916923, 0.12863222), (0.00016275566, 0.79451215, 0.6072484), (0.00016275566, 0.79451215, 0.6072484), (0.00041359363, 0.5419462, 0.8404131), (0.00002386166, 0.8895572, 0.45682383), (0.00041359363, 0.5419462, 0.8404131), (0.00016275566, 0.79451215, 0.6072484), (0.0005255427, 0.38442034, 0.92315805), (0.00041359363, 0.5419462, 0.8404131), (0.0005255427, 0.38442034, 0.92315805), (0.0006924854, 0.049128186, 0.99879223), (0.0006924854, 0.049128186, 0.99879223), (0.0005255427, 0.38442034, 0.92315805), (0.00074748456, -0.12863201, 0.9916921), (0.00066860486, -0.8404099, 0.5419509), (0.0005847285, -0.9231495, 0.38444063), (0.0003722367, -0.9987918, 0.049142193), (0.0003722367, -0.9987918, 0.049142193), (0.0005847285, -0.9231495, 0.38444063), (0.00024361964, -0.9916906, -0.1286464), (0.0003722367, -0.9987918, 0.049142193), (0.00024361964, -0.9916906, -0.1286464), (-0.000023880122, -0.88954645, -0.45684472), (-0.000023880122, -0.88954645, -0.45684472), (0.00024361964, -0.9916906, -0.1286464), (-0.00016276275, -0.7945065, -0.6072557), (-0.000023880122, -0.88954645, -0.45684472), (-0.00016276275, -0.7945065, -0.6072557), (-0.00041358746, -0.54195404, -0.8404081), (-0.00041358746, -0.54195404, -0.8404081), (-0.00016276275, -0.7945065, -0.6072557), (-0.000525529, -0.38444203, -0.923149), (-0.00041358746, -0.54195404, -0.8404081), (-0.000525529, -0.38444203, -0.923149), (-0.0006924802, -0.049142443, -0.99879164), (-0.0006924802, -0.049142443, -0.99879164), (-0.000525529, -0.38444203, -0.923149), (-0.0007474881, 0.12864618, -0.99169034), (-0.0006924802, -0.049142443, -0.99879164), (-0.0007474881, 0.12864618, -0.99169034), (-0.00078582356, 0.45684353, -0.8895467), (-0.00078582356, 0.45684353, -0.8895467), (-0.0007474881, 0.12864618, -0.99169034), (-0.00076915405, 0.607253, -0.7945081), (-0.00078582356, 0.45684353, -0.8895467), (-0.00076915405, 0.607253, -0.7945081), (-0.0006686082, 0.8404056, -0.54195756), (-0.0006686082, 0.8404056, -0.54195756), (-0.00076915405, 0.607253, -0.7945081), (-0.00058473053, 0.9231481, -0.38444412), (-0.0006686082, 0.8404056, -0.54195756), (-0.00058473053, 0.9231481, -0.38444412), (-0.0003722367, 0.9987918, -0.049142193), (-0.0003722367, 0.9987918, -0.049142193), (-0.00058473053, 0.9231481, -0.38444412), (-0.00024361964, 0.9916906, 0.1286464), (-0.0003722367, 0.9987918, -0.049142193), (-0.00024361964, 0.9916906, 0.1286464), (0.00002387719, 0.88954824, 0.4568414), (0.00002387719, 0.88954824, 0.4568414), (-0.00024361964, 0.9916906, 0.1286464), (0.00016275673, 0.7945113, 0.6072495), (0.00041358444, 0.54195786, 0.8404057), (0.00052552955, 0.3844411, 0.9231494), (0.0006924806, 0.049141448, 0.9987917), (0.0006924806, 0.049141448, 0.9987917), (0.00052552955, 0.3844411, 0.9231494), (0.000747488, -0.12864567, 0.9916904), (0.0006924806, 0.049141448, 0.9987917), (0.000747488, -0.12864567, 0.9916904), (0.0007858235, -0.45684686, 0.889545), (0.0007858235, -0.45684686, 0.889545), (0.000747488, -0.12864567, 0.9916904), (0.0007691529, -0.60725933, 0.79450345), (0.0007858235, -0.45684686, 0.889545), (0.0007691529, -0.60725933, 0.79450345), (0.00066860486, -0.8404099, 0.5419509), (0.00066860486, -0.8404099, 0.5419509), (0.0007691529, -0.60725933, 0.79450345), (0.0005847285, -0.9231495, 0.38444063), (0.0006686039, -0.8404111, 0.541949), (0.0005847258, -0.92315155, 0.38443586), (0.00037223476, -0.99879193, 0.049139384), (0.00037223476, -0.99879193, 0.049139384), (0.0005847258, -0.92315155, 0.38443586), (0.00024362175, -0.99169093, -0.12864359), (0.00037223476, -0.99879193, 0.049139384), (0.00024362175, -0.99169093, -0.12864359), (-0.000023876079, -0.88954884, -0.45684016), (-0.000023876079, -0.88954884, -0.45684016), (0.00024362175, -0.99169093, -0.12864359), (-0.00016276099, -0.7945079, -0.6072539), (-0.000023876079, -0.88954884, -0.45684016), (-0.00016276099, -0.7945079, -0.6072539), (-0.00041358746, -0.54195404, -0.8404081), (-0.00041358746, -0.54195404, -0.8404081), (-0.00016276099, -0.7945079, -0.6072539), (-0.000525529, -0.38444203, -0.923149), (-0.00041358746, -0.54195404, -0.8404081), (-0.000525529, -0.38444203, -0.923149), (-0.0006924802, -0.049142443, -0.99879164), (-0.0006924802, -0.049142443, -0.99879164), (-0.000525529, -0.38444203, -0.923149), (-0.0007474881, 0.12864618, -0.99169034), (-0.0006924802, -0.049142443, -0.99879164), (-0.0007474881, 0.12864618, -0.99169034), (-0.00078582356, 0.45684353, -0.8895467), (-0.00078582356, 0.45684353, -0.8895467), (-0.0007474881, 0.12864618, -0.99169034), (-0.00076915405, 0.607253, -0.7945081), (-0.00078582356, 0.45684353, -0.8895467), (-0.00076915405, 0.607253, -0.7945081), (-0.0006686063, 0.84040815, -0.5419537), (-0.0006686063, 0.84040815, -0.5419537), (-0.00076915405, 0.607253, -0.7945081), (-0.0005847251, 0.923152, -0.38443464), (-0.0006686063, 0.84040815, -0.5419537), (-0.0005847251, 0.923152, -0.38443464), (-0.00037223278, 0.99879205, -0.049136568), (-0.00037223278, 0.99879205, -0.049136568), (-0.0005847251, 0.923152, -0.38443464), (-0.00024362386, 0.9916913, 0.1286408), (-0.00037223278, 0.99879205, -0.049136568), (-0.00024362386, 0.9916913, 0.1286408), (0.000023873145, 0.88955057, 0.45683682), (0.000023873145, 0.88955057, 0.45683682), (-0.00024362386, 0.9916913, 0.1286408), (0.00016276025, 0.7945084, 0.6072531), (0.00041358656, 0.5419551, 0.8404074), (0.00052552816, 0.38444328, 0.92314845), (0.0006924802, 0.049142443, 0.99879164), (0.0006924802, 0.049142443, 0.99879164), (0.00052552816, 0.38444328, 0.92314845), (0.0007474881, -0.12864618, 0.99169034), (0.0006924802, 0.049142443, 0.99879164), (0.0007474881, -0.12864618, 0.99169034), (0.0007858235, -0.45684686, 0.889545), (0.0007858235, -0.45684686, 0.889545), (0.0007474881, -0.12864618, 0.99169034), (0.0007691529, -0.60725933, 0.79450345), (0.0007858235, -0.45684686, 0.889545), (0.0007691529, -0.60725933, 0.79450345), (0.0006686039, -0.8404111, 0.541949), (0.0006686039, -0.8404111, 0.541949), (0.0007691529, -0.60725933, 0.79450345), (0.0005847258, -0.92315155, 0.38443586), (0.00066860486, -0.8404099, 0.5419509), (0.0005847285, -0.9231495, 0.38444063), (0.0003722367, -0.9987918, 0.049142193), (0.0003722367, -0.9987918, 0.049142193), (0.0005847285, -0.9231495, 0.38444063), (0.00024361964, -0.9916906, -0.1286464), (0.0003722367, -0.9987918, 0.049142193), (0.00024361964, -0.9916906, -0.1286464), (-0.000023880122, -0.88954645, -0.45684472), (-0.000023880122, -0.88954645, -0.45684472), (0.00024361964, -0.9916906, -0.1286464), (-0.00016276275, -0.7945065, -0.6072557), (-0.000023880122, -0.88954645, -0.45684472), (-0.00016276275, -0.7945065, -0.6072557), (-0.000413589, -0.541952, -0.84040934), (-0.000413589, -0.541952, -0.84040934), (-0.00016276275, -0.7945065, -0.6072557), (-0.000525532, -0.3844373, -0.92315096), (-0.000413589, -0.541952, -0.84040934), (-0.000525532, -0.3844373, -0.92315096), (-0.00069248123, -0.049139634, -0.99879175), (-0.00069248123, -0.049139634, -0.99879175), (-0.000525532, -0.3844373, -0.92315096), (-0.0007474874, 0.12864338, -0.9916907), (-0.00069248123, -0.049139634, -0.99879175), (-0.0007474874, 0.12864338, -0.9916907), (-0.0007858237, 0.45683894, -0.8895491), (-0.0007858237, 0.45683894, -0.8895491), (-0.0007474874, 0.12864338, -0.9916907), (-0.00076915446, 0.6072512, -0.79450953), (-0.0007858237, 0.45683894, -0.8895491), (-0.00076915446, 0.6072512, -0.79450953), (-0.0006686082, 0.8404056, -0.54195756), (-0.0006686082, 0.8404056, -0.54195756), (-0.00076915446, 0.6072512, -0.79450953), (-0.00058473053, 0.9231481, -0.38444412), (-0.0006686082, 0.8404056, -0.54195756), (-0.00058473053, 0.9231481, -0.38444412), (-0.0003722367, 0.9987918, -0.049142193), (-0.0003722367, 0.9987918, -0.049142193), (-0.00058473053, 0.9231481, -0.38444412), (-0.00024361964, 0.9916906, 0.1286464), (-0.0003722367, 0.9987918, -0.049142193), (-0.00024361964, 0.9916906, 0.1286464), (0.00002387719, 0.88954824, 0.4568414), (0.00002387719, 0.88954824, 0.4568414), (-0.00024361964, 0.9916906, 0.1286464), (0.00016275673, 0.7945113, 0.6072495), (0.00041358746, 0.541954, 0.8404081), (0.0005255356, 0.38443166, 0.9231534), (0.00069248263, 0.04913582, 0.9987919), (0.00069248263, 0.04913582, 0.9987919), (0.0005255356, 0.38443166, 0.9231534), (0.00074748654, -0.12864009, 0.99169105), (0.00069248263, 0.04913582, 0.9987919), (0.00074748654, -0.12864009, 0.99169105), (0.00078582374, -0.45683774, 0.88954973), (0.00078582374, -0.45683774, 0.88954973), (0.00074748654, -0.12864009, 0.99169105), (0.0007691535, -0.60725564, 0.7945062), (0.00078582374, -0.45683774, 0.88954973), (0.0007691535, -0.60725564, 0.7945062), (0.00066860486, -0.8404099, 0.5419509), (0.00066860486, -0.8404099, 0.5419509), (0.0007691535, -0.60725564, 0.7945062), (0.0005847285, -0.9231495, 0.38444063), (0.0006686039, -0.8404111, 0.541949), (0.0005847258, -0.92315155, 0.38443586), (0.00037223476, -0.99879193, 0.049139384), (0.00037223476, -0.99879193, 0.049139384), (0.0005847258, -0.92315155, 0.38443586), (0.00024362175, -0.99169093, -0.12864359), (0.00037223476, -0.99879193, 0.049139384), (0.00024362175, -0.99169093, -0.12864359), (-0.000023876079, -0.88954884, -0.45684016), (-0.000023876079, -0.88954884, -0.45684016), (0.00024362175, -0.99169093, -0.12864359), (-0.00016276099, -0.7945079, -0.6072539), (-0.000023876079, -0.88954884, -0.45684016), (-0.00016276099, -0.7945079, -0.6072539), (-0.000413589, -0.541952, -0.84040934), (-0.000413589, -0.541952, -0.84040934), (-0.00016276099, -0.7945079, -0.6072539), (-0.000525532, -0.3844373, -0.92315096), (-0.000413589, -0.541952, -0.84040934), (-0.000525532, -0.3844373, -0.92315096), (-0.00069248123, -0.049139634, -0.99879175), (-0.00069248123, -0.049139634, -0.99879175), (-0.000525532, -0.3844373, -0.92315096), (-0.0007474874, 0.12864338, -0.9916907), (-0.00069248123, -0.049139634, -0.99879175), (-0.0007474874, 0.12864338, -0.9916907), (-0.0007858237, 0.45683894, -0.8895491), (-0.0007858237, 0.45683894, -0.8895491), (-0.0007474874, 0.12864338, -0.9916907), (-0.00076915446, 0.6072512, -0.79450953), (-0.0007858237, 0.45683894, -0.8895491), (-0.00076915446, 0.6072512, -0.79450953), (-0.0006686063, 0.84040815, -0.5419537), (-0.0006686063, 0.84040815, -0.5419537), (-0.00076915446, 0.6072512, -0.79450953), (-0.0005847251, 0.923152, -0.38443464), (-0.0006686063, 0.84040815, -0.5419537), (-0.0005847251, 0.923152, -0.38443464), (-0.00037223278, 0.99879205, -0.049136568), (-0.00037223278, 0.99879205, -0.049136568), (-0.0005847251, 0.923152, -0.38443464), (-0.00024362386, 0.9916913, 0.1286408), (-0.00037223278, 0.99879205, -0.049136568), (-0.00024362386, 0.9916913, 0.1286408), (0.000023873145, 0.88955057, 0.45683682), (0.000023873145, 0.88955057, 0.45683682), (-0.00024362386, 0.9916913, 0.1286408), (0.00016276025, 0.7945084, 0.6072531), (0.00041358965, 0.5419512, 0.8404098), (0.0005255342, 0.3844338, 0.92315245), (0.0006924823, 0.049136817, 0.9987919), (0.0006924823, 0.049136817, 0.9987919), (0.0005255342, 0.3844338, 0.92315245), (0.0007474867, -0.12864058, 0.99169105), (0.0006924823, 0.049136817, 0.9987919), (0.0007474867, -0.12864058, 0.99169105), (0.00078582374, -0.45683774, 0.88954973), (0.00078582374, -0.45683774, 0.88954973), (0.0007474867, -0.12864058, 0.99169105), (0.0007691535, -0.60725564, 0.7945062), (0.00078582374, -0.45683774, 0.88954973), (0.0007691535, -0.60725564, 0.7945062), (0.0006686039, -0.8404111, 0.541949), (0.0006686039, -0.8404111, 0.541949), (0.0007691535, -0.60725564, 0.7945062), (0.0005847258, -0.92315155, 0.38443586), (0.00041358668, 0.541955, 0.8404075), (0.000747488, -0.12864567, 0.9916904), (0.00052552955, 0.3844411, 0.9231494), (0.000747488, -0.12864567, 0.9916904), (0.00041358668, 0.541955, 0.8404075), (0.00069248053, 0.049141474, 0.99879164), (0.00069248053, 0.049141474, 0.99879164), (0.0007691529, -0.60725933, 0.79450345), (0.000747488, -0.12864567, 0.9916904), (0.0007691529, -0.60725933, 0.79450345), (0.00069248053, 0.049141474, 0.99879164), (0.0007858235, -0.4568467, 0.88954514), (0.0007691529, -0.60725933, 0.79450345), (0.0007858235, -0.4568467, 0.88954514), (0.0005847285, -0.9231495, 0.38444063), (0.0005847285, -0.9231495, 0.38444063), (0.0007858235, -0.4568467, 0.88954514), (0.00066860893, -0.8404047, 0.54195905), (0.00037223162, -0.9987921, 0.049134877), (0.0005847285, -0.9231495, 0.38444063), (0.00066860893, -0.8404047, 0.54195905), (0.0005847285, -0.9231495, 0.38444063), (0.00037223162, -0.9987921, 0.049134877), (0.00024361964, -0.9916906, -0.1286464), (0.00037223162, -0.9987921, 0.049134877), (-0.00016276275, -0.7945065, -0.6072557), (0.00024361964, -0.9916906, -0.1286464), (-0.00016276275, -0.7945065, -0.6072557), (0.00037223162, -0.9987921, 0.049134877), (-0.000023877421, -0.88954806, -0.45684168), (-0.000023877421, -0.88954806, -0.45684168), (-0.000525529, -0.38444203, -0.923149), (-0.00016276275, -0.7945065, -0.6072557), (-0.000525529, -0.38444203, -0.923149), (-0.000023877421, -0.88954806, -0.45684168), (-0.0004135857, -0.5419563, -0.8404067), (-0.0006924827, -0.04913569, -0.99879193), (-0.000525529, -0.38444203, -0.923149), (-0.0004135857, -0.5419563, -0.8404067), (-0.000525529, -0.38444203, -0.923149), (-0.0006924827, -0.04913569, -0.99879193), (-0.0007474881, 0.12864618, -0.99169034), (-0.00076915405, 0.607253, -0.7945081), (-0.0007474881, 0.12864618, -0.99169034), (-0.0006924827, -0.04913569, -0.99879193), (-0.0007858237, 0.45683914, -0.88954896), (-0.00076915405, 0.607253, -0.7945081), (-0.0006924827, -0.04913569, -0.99879193), (-0.0007858237, 0.45683914, -0.88954896), (-0.00058473053, 0.9231481, -0.38444412), (-0.00076915405, 0.607253, -0.7945081), (-0.00058473053, 0.9231481, -0.38444412), (-0.0007858237, 0.45683914, -0.88954896), (-0.0006686052, 0.8404094, -0.5419516), (-0.00037223645, 0.9987918, -0.049141806), (-0.00058473053, 0.9231481, -0.38444412), (-0.0006686052, 0.8404094, -0.5419516), (-0.00058473053, 0.9231481, -0.38444412), (-0.00037223645, 0.9987918, -0.049141806), (-0.00024361964, 0.9916906, 0.1286464), (-0.00024361964, 0.9916906, 0.1286464), (-0.00037223645, 0.9987918, -0.049141806), (0.00016275673, 0.7945113, 0.6072495), (0.00016275673, 0.7945113, 0.6072495), (-0.00037223645, 0.9987918, -0.049141806), (0.000023879891, 0.8895466, 0.45684445), (0.0003722272, -0.99879235, 0.04912851), (0.00024362175, -0.99169093, -0.12864359), (0.0006686024, -0.84041315, 0.5419459), (-0.000023863755, -0.889556, -0.45682618), (0.00024362175, -0.99169093, -0.12864359), (0.0003722272, -0.99879235, 0.04912851), (0.00024362175, -0.99169093, -0.12864359), (0.0005847258, -0.92315155, 0.38443586), (0.0006686024, -0.84041315, 0.5419459), (0.00024362175, -0.99169093, -0.12864359), (-0.000023863755, -0.889556, -0.45682618), (-0.00016276099, -0.7945079, -0.6072539), (0.0005847258, -0.92315155, 0.38443586), (0.00078582356, -0.45684433, 0.88954633), (0.0006686024, -0.84041315, 0.5419459), (-0.000023863755, -0.889556, -0.45682618), (-0.000525529, -0.38444203, -0.923149), (-0.00016276099, -0.7945079, -0.6072539), (0.0007691529, -0.60725933, 0.79450345), (0.00078582356, -0.45684433, 0.88954633), (0.0005847258, -0.92315155, 0.38443586), (-0.000525529, -0.38444203, -0.923149), (-0.000023863755, -0.889556, -0.45682618), (-0.0004135832, -0.54195935, -0.8404047), (0.0007691529, -0.60725933, 0.79450345), (0.0006924807, 0.049140908, 0.9987916), (0.00078582356, -0.45684433, 0.88954633), (-0.0006924831, -0.04913455, -0.99879193), (-0.000525529, -0.38444203, -0.923149), (-0.0004135832, -0.54195935, -0.8404047), (0.0006924807, 0.049140908, 0.9987916), (0.0007691529, -0.60725933, 0.79450345), (0.0007474881, -0.12864618, 0.99169034), (-0.000525529, -0.38444203, -0.923149), (-0.0006924831, -0.04913455, -0.99879193), (-0.0007474881, 0.12864618, -0.99169034), (0.00052552816, 0.38444328, 0.92314845), (0.0006924807, 0.049140908, 0.9987916), (0.0007474881, -0.12864618, 0.99169034), (-0.00076915405, 0.607253, -0.7945081), (-0.0007474881, 0.12864618, -0.99169034), (-0.0006924831, -0.04913455, -0.99879193), (0.0006924807, 0.049140908, 0.9987916), (0.00052552816, 0.38444328, 0.92314845), (0.00041358668, 0.541955, 0.8404075), (-0.0007858237, 0.45683914, -0.88954896), (-0.00076915405, 0.607253, -0.7945081), (-0.0006924831, -0.04913455, -0.99879193), (0.00041358668, 0.541955, 0.8404075), (0.00052552816, 0.38444328, 0.92314845), (0.00002386166, 0.8895572, 0.45682383), (-0.0007858237, 0.45683914, -0.88954896), (-0.0005847251, 0.923152, -0.38443464), (-0.00076915405, 0.607253, -0.7945081), (0.00052552816, 0.38444328, 0.92314845), (0.00016276025, 0.7945084, 0.6072531), (0.00002386166, 0.8895572, 0.45682383), (-0.0005847251, 0.923152, -0.38443464), (-0.0007858237, 0.45683914, -0.88954896), (-0.0006686009, 0.8404151, -0.54194283), (-0.00024362386, 0.9916913, 0.1286408), (0.00002386166, 0.8895572, 0.45682383), (0.00016276025, 0.7945084, 0.6072531), (-0.0006686009, 0.8404151, -0.54194283), (-0.00024362386, 0.9916913, 0.1286408), (-0.0005847251, 0.923152, -0.38443464), (0.00002386166, 0.8895572, 0.45682383), (-0.00024362386, 0.9916913, 0.1286408), (-0.00037222757, 0.9987924, -0.04912907), (-0.00024362386, 0.9916913, 0.1286408), (-0.0006686009, 0.8404151, -0.54194283), (-0.00037222757, 0.9987924, -0.04912907), (0.0007691535, -0.60725564, 0.7945062), (0.0007858241, -0.45682368, 0.88955694), (0.0005847258, -0.92315155, 0.38443586), (0.0007474867, -0.12864058, 0.99169105), (0.0007858241, -0.45682368, 0.88955694), (0.0007691535, -0.60725564, 0.7945062), (0.0005847258, -0.92315155, 0.38443586), (0.0007858241, -0.45682368, 0.88955694), (0.0006686024, -0.84041315, 0.5419459), (0.0007858241, -0.45682368, 0.88955694), (0.0007474867, -0.12864058, 0.99169105), (0.0006924854, 0.049128186, 0.99879223), (0.00024362175, -0.99169093, -0.12864359), (0.0005847258, -0.92315155, 0.38443586), (0.0006686024, -0.84041315, 0.5419459), (0.0007474867, -0.12864058, 0.99169105), (0.00041359363, 0.5419462, 0.8404131), (0.0006924854, 0.049128186, 0.99879223), (0.0003722268, -0.9987924, 0.049127936), (0.00024362175, -0.99169093, -0.12864359), (0.0006686024, -0.84041315, 0.5419459), (0.00041359363, 0.5419462, 0.8404131), (0.0007474867, -0.12864058, 0.99169105), (0.0005255342, 0.3844338, 0.92315245), (-0.00002386166, -0.8895572, -0.45682383), (0.00024362175, -0.99169093, -0.12864359), (0.0003722268, -0.9987924, 0.049127936), (0.00041359363, 0.5419462, 0.8404131), (0.0005255342, 0.3844338, 0.92315245), (0.00002386166, 0.8895572, 0.45682383), (0.00024362175, -0.99169093, -0.12864359), (-0.00002386166, -0.8895572, -0.45682383), (-0.00016276099, -0.7945079, -0.6072539), (0.0005255342, 0.3844338, 0.92315245), (0.00016276025, 0.7945084, 0.6072531), (0.00002386166, 0.8895572, 0.45682383), (-0.00002386166, -0.8895572, -0.45682383), (-0.000525532, -0.3844373, -0.92315096), (-0.00016276099, -0.7945079, -0.6072539), (-0.00024362386, 0.9916913, 0.1286408), (0.00002386166, 0.8895572, 0.45682383), (0.00016276025, 0.7945084, 0.6072531), (-0.000525532, -0.3844373, -0.92315096), (-0.00002386166, -0.8895572, -0.45682383), (-0.00041359363, -0.5419462, -0.8404131), (0.00002386166, 0.8895572, 0.45682383), (-0.00024362386, 0.9916913, 0.1286408), (-0.0003722268, 0.9987924, -0.049127936), (-0.000525532, -0.3844373, -0.92315096), (-0.00041359363, -0.5419462, -0.8404131), (-0.0007474874, 0.12864338, -0.9916907), (-0.00024362386, 0.9916913, 0.1286408), (-0.0006686024, 0.84041315, -0.5419459), (-0.0003722268, 0.9987924, -0.049127936), (-0.0007474874, 0.12864338, -0.9916907), (-0.00041359363, -0.5419462, -0.8404131), (-0.0006924854, -0.049128186, -0.99879223), (-0.0006686024, 0.84041315, -0.5419459), (-0.00024362386, 0.9916913, 0.1286408), (-0.0005847251, 0.923152, -0.38443464), (-0.0007858241, 0.45682368, -0.88955694), (-0.0007474874, 0.12864338, -0.9916907), (-0.0006924854, -0.049128186, -0.99879223), (-0.0005847251, 0.923152, -0.38443464), (-0.0007858241, 0.45682368, -0.88955694), (-0.0006686024, 0.84041315, -0.5419459), (-0.0007474874, 0.12864338, -0.9916907), (-0.0007858241, 0.45682368, -0.88955694), (-0.00076915446, 0.6072512, -0.79450953), (-0.0007858241, 0.45682368, -0.88955694), (-0.0005847251, 0.923152, -0.38443464), (-0.00076915446, 0.6072512, -0.79450953)] (
        interpolation = "faceVarying"
    )
    point3f[] points = [(-0.024564303, 0.57889277, 0.6284588), (-0.025437767, 0.62711847, -0.57893616), (-0.02419097, -0.6277485, 0.5802629), (-0.025064431, -0.5795228, -0.62713206), (0.007942169, -0.62773764, 0.5802401), (0.0070687067, -0.57951194, -0.6271549), (0.006695371, 0.6271293, -0.578959), (0.0075688334, 0.5789036, 0.62843597), (0.30091643, 0.44181594, 0.46247232), (0.2786359, 0.44180843, 0.46248814), (0.30091906, 0.43915358, 0.4649302), (0.27863854, 0.43914607, 0.46494603), (0.2786367, 0.43732968, 0.46148828), (0.27863553, 0.43850654, 0.4604018), (0.27863747, 0.43576726, 0.46184075), (0.0074991337, 0.43567568, 0.46203324), (0.27863765, 0.434238, 0.46136478), (0.0074993125, 0.4341464, 0.46155727), (0.27863717, 0.43315148, 0.4601879), (0.007498844, 0.4330599, 0.4603804), (0.2786362, 0.43279904, 0.4586255), (0.0074978536, 0.43270746, 0.458818), (0.27863494, 0.43327495, 0.45709622), (0.0074966075, 0.43318337, 0.4572887), (0.27863377, 0.43445188, 0.45600972), (0.0074954387, 0.4343603, 0.4562022), (0.278633, 0.43601424, 0.45565727), (0.0074946606, 0.43592268, 0.45584974), (0.27863282, 0.43754357, 0.4561332), (0.0074944817, 0.437452, 0.45632568), (0.2786333, 0.43863004, 0.4573101), (0.0074949507, 0.43853846, 0.4575026), (0.27863428, 0.43898252, 0.4588725), (0.0074959407, 0.43889093, 0.45906496), (0.0074971872, 0.43841496, 0.4605943), (0.007498356, 0.4372381, 0.46168077), (0.30119482, -0.4579702, 0.4265329), (0.27891427, -0.45797774, 0.42654872), (0.30119747, -0.46063262, 0.42899078), (0.27891693, -0.46064016, 0.4290066), (0.27891585, -0.46401888, 0.42590132), (0.0077775284, -0.46411046, 0.42609382), (0.27891603, -0.46554822, 0.42542538), (0.0077777067, -0.4656398, 0.42561787), (0.27891558, -0.4666347, 0.4242485), (0.0077772383, -0.46672627, 0.42444098), (0.27891457, -0.4669871, 0.4226861), (0.0077762483, -0.4670787, 0.4228786), (0.27891335, -0.4665112, 0.4211568), (0.0077750017, -0.46660277, 0.4213493), (0.27891216, -0.46533433, 0.4200703), (0.007773833, -0.4654259, 0.42026278), (0.27891138, -0.4637719, 0.41971785), (0.0077730548, -0.4638635, 0.41991034), (0.2789112, -0.4622426, 0.4201938), (0.0077728764, -0.46233416, 0.42038628), (0.27891168, -0.46115613, 0.4213707), (0.007773345, -0.46124768, 0.42156318), (0.27891266, -0.4608037, 0.42293307), (0.007774335, -0.46089527, 0.42312557), (0.27891392, -0.4612796, 0.42446238), (0.0077755814, -0.46137118, 0.42465487), (0.27891508, -0.4624565, 0.42554885), (0.0077767503, -0.46254805, 0.42574134), (0.3002666, 0.47769502, -0.43580806), (0.27798605, 0.47768748, -0.43579224), (0.30026922, 0.47503266, -0.43335018), (0.2779887, 0.47502515, -0.43333435), (0.27798685, 0.47320876, -0.4367921), (0.2779857, 0.47438562, -0.43787858), (0.27798444, 0.4748616, -0.43940789), (0.27798322, 0.47876427, -0.43925202), (0.27798098, 0.47796685, -0.44278663), (0.27798346, 0.47450912, -0.4409703), (0.27798298, 0.47342265, -0.44214717), (0.27797994, 0.47550896, -0.44544902), (0.27798033, 0.4720492, -0.44652578), (0.27798316, 0.4718933, -0.44262308), (0.27798393, 0.47033092, -0.44227067), (0.2779821, 0.46851456, -0.4457284), (0.2779851, 0.46915403, -0.4411842), (0.27798474, 0.4658522, -0.4432705), (0.27798635, 0.4686781, -0.43965486), (0.27798757, 0.4647754, -0.43981075), (0.2779898, 0.46557283, -0.43627614), (0.27798733, 0.46903053, -0.43809247), (0.2779878, 0.47011703, -0.43691558), (0.27799085, 0.4680307, -0.43361372), (0.27799046, 0.47149044, -0.432537), (0.27798763, 0.47164634, -0.4364397), (0.0068492936, 0.47155476, -0.4362472), (0.0068494724, 0.47002545, -0.43672308), (0.0068490035, 0.46893895, -0.43789998), (0.0068480135, 0.4685865, -0.4394624), (0.006846767, 0.46906245, -0.4409917), (0.006845598, 0.47023937, -0.44207817), (0.0068448205, 0.47180173, -0.4424306), (0.0068446416, 0.47333106, -0.44195467), (0.00684511, 0.47441754, -0.4407778), (0.0068461006, 0.47477, -0.4392154), (0.0068473467, 0.47429404, -0.4376861), (0.0068485155, 0.47311717, -0.4365996), (0.30054498, -0.42209116, -0.47174746), (0.27826443, -0.42209867, -0.47173166), (0.30054763, -0.42475355, -0.46928957), (0.2782671, -0.4247611, -0.46927375), (0.278266, -0.42813984, -0.4723791), (0.007127688, -0.4282314, -0.4721866), (0.2782662, -0.42966914, -0.472855), (0.0071278666, -0.42976072, -0.4726625), (0.27826574, -0.43075562, -0.47403187), (0.007127398, -0.4308472, -0.47383937), (0.27826473, -0.43110803, -0.47559428), (0.0071264077, -0.4311996, -0.4754018), (0.2782635, -0.43063214, -0.47712362), (0.0071251616, -0.4307237, -0.47693112), (0.27826232, -0.42945525, -0.4782101), (0.007123993, -0.42954683, -0.4780176), (0.27826154, -0.42789283, -0.4785625), (0.0071232147, -0.42798442, -0.47837), (0.27826136, -0.42636353, -0.4780866), (0.007123036, -0.4264551, -0.4778941), (0.27826184, -0.42527705, -0.4769097), (0.0071235048, -0.42536864, -0.47671723), (0.27826282, -0.42492464, -0.4753473), (0.0071244948, -0.42501622, -0.47515482), (0.27826408, -0.42540053, -0.47381797), (0.0071257413, -0.4254921, -0.47362548), (0.27826524, -0.42657742, -0.4727315), (0.00712691, -0.426669, -0.472539), (0.30092016, 0.42970127, 0.46198842), (0.27863964, 0.42969376, 0.46200424), (0.30091792, 0.42890385, 0.4584538), (0.2786374, 0.42889634, 0.45846963), (0.30091512, 0.42998064, 0.45499402), (0.27863458, 0.42997313, 0.45500985), (0.30091247, 0.43264303, 0.45253617), (0.27863193, 0.43263552, 0.452552), (0.3009107, 0.43617764, 0.45173874), (0.27863017, 0.43617013, 0.45175457), (0.3009103, 0.43963742, 0.45281553), (0.27862978, 0.43962988, 0.45283136), (0.30091137, 0.4420953, 0.45547792), (0.27863082, 0.4420878, 0.45549375), (0.3009136, 0.44289273, 0.45901254), (0.27863306, 0.44288522, 0.45902836), (0.3009208, 0.4356189, 0.46572763), (0.2786403, 0.4356114, 0.46574345), (0.30092123, 0.43215916, 0.46465084), (0.2786407, 0.43215162, 0.46466666), (0.30119857, -0.47008488, 0.42604902), (0.27891803, -0.47009242, 0.42606482), (0.30119634, -0.47088227, 0.42251438), (0.2789158, -0.4708898, 0.4225302), (0.3011935, -0.4698055, 0.41905463), (0.27891296, -0.46981305, 0.41907045), (0.30119085, -0.46714312, 0.41659677), (0.27891034, -0.46715066, 0.41661257), (0.3011891, -0.4636085, 0.41579935), (0.27890858, -0.46361604, 0.41581514), (0.3011887, -0.46014875, 0.41687614), (0.27890816, -0.46015626, 0.41689193), (0.30118975, -0.45769083, 0.4195385), (0.27890924, -0.45769837, 0.41955432), (0.301192, -0.45689347, 0.42307314), (0.27891147, -0.456901, 0.42308894), (0.30119923, -0.46416724, 0.4297882), (0.27891868, -0.46417478, 0.42980403), (0.30119962, -0.46762702, 0.4287114), (0.2789191, -0.46763453, 0.42872724), (0.30027032, 0.46558034, -0.43629193), (0.30026808, 0.46478292, -0.43982658), (0.30026528, 0.4658597, -0.44328633), (0.30026263, 0.4685221, -0.4457442), (0.30026087, 0.47205672, -0.44654158), (0.30026045, 0.4755165, -0.44546482), (0.30026153, 0.47797439, -0.44280246), (0.30026376, 0.4787718, -0.4392678), (0.30027097, 0.47149798, -0.4325528), (0.3002714, 0.4680382, -0.43362954), (0.30054873, -0.4342058, -0.47223136), (0.2782682, -0.43421334, -0.47221553), (0.3005465, -0.4350032, -0.47576597), (0.27826595, -0.43501073, -0.47575018), (0.30054367, -0.43392643, -0.47922575), (0.27826312, -0.43393397, -0.47920993), (0.300541, -0.43126407, -0.4816836), (0.2782605, -0.43127158, -0.4816678), (0.30053926, -0.42772943, -0.482481), (0.2782587, -0.42773697, -0.48246518), (0.30053887, -0.42426968, -0.48140424), (0.27825832, -0.4242772, -0.48138842), (0.3005399, -0.42181176, -0.47874185), (0.27825937, -0.4218193, -0.47872603), (0.30054215, -0.42101443, -0.47520724), (0.27826163, -0.42102194, -0.4751914), (0.3005494, -0.4282882, -0.4684922), (0.27826884, -0.4282957, -0.4684764), (0.30054978, -0.43174794, -0.46956894), (0.27826926, -0.43175548, -0.46955314)]
}

