#usda 1.0
(
    defaultPrim = "SM_Fridge_Shelf2"
    upAxis = "Z"
)

def Mesh "SM_Fridge_Shelf2"
{
    int[] faceVertexCounts = [3, 3, 3, 3, 3, 3, 3, 3, 3, 3, 3, 3, 3, 3, 3, 3, 3, 3, 3, 3, 3, 3, 3, 3, 3, 3, 3, 3, 3, 3, 3, 3, 3, 3, 3, 3, 3, 3, 3, 3, 3, 3, 3, 3, 3, 3, 3, 3, 3, 3, 3, 3, 3, 3, 3, 3, 3, 3, 3, 3, 3, 3, 3, 3, 3, 3, 3, 3, 3, 3, 3, 3, 3, 3, 3, 3, 3, 3, 3, 3, 3, 3, 3, 3, 3, 3, 3, 3, 3, 3, 3, 3, 3, 3, 3, 3, 3, 3, 3, 3, 3, 3, 3, 3, 3, 3, 3, 3, 3, 3, 3, 3, 3, 3, 3, 3, 3, 3, 3, 3, 3, 3, 3, 3, 3, 3, 3, 3, 3, 3, 3, 3, 3, 3, 3, 3, 3, 3, 3, 3, 3, 3, 3, 3, 3, 3, 3, 3, 3, 3, 3, 3, 3, 3, 3, 3, 3, 3, 3, 3, 3, 3, 3, 3, 3, 3, 3, 3, 3, 3, 3, 3, 3, 3, 3, 3, 3, 3, 3, 3, 3, 3, 3, 3, 3, 3, 3, 3, 3, 3, 3, 3, 3, 3, 3, 3, 3, 3, 3, 3, 3, 3, 3, 3, 3, 3, 3, 3, 3, 3, 3, 3, 3, 3, 3, 3, 3, 3, 3, 3, 3, 3, 3, 3, 3, 3, 3, 3, 3, 3, 3, 3, 3, 3, 3, 3, 3, 3, 3, 3, 3, 3, 3, 3, 3, 3, 3, 3, 3, 3, 3, 3, 3, 3, 3, 3, 3, 3, 3, 3, 3, 3, 3, 3, 3, 3, 3, 3, 3, 3, 3, 3, 3, 3, 3, 3, 3, 3, 3, 3, 3, 3, 3, 3, 3, 3, 3, 3, 3, 3, 3, 3, 3, 3, 3, 3, 3, 3, 3, 3, 3, 3, 3, 3, 3, 3, 3, 3, 3, 3, 3, 3, 3, 3, 3, 3, 3, 3, 3, 3, 3, 3, 3, 3, 3, 3, 3, 3, 3, 3, 3, 3, 3, 3, 3, 3, 3, 3, 3, 3, 3, 3, 3, 3, 3, 3, 3, 3, 3, 3, 3, 3, 3, 3, 3, 3, 3, 3, 3, 3, 3, 3, 3, 3, 3, 3, 3, 3, 3, 3, 3, 3, 3, 3, 3, 3, 3, 3, 3, 3, 3, 3, 3, 3, 3, 3, 3, 3, 3, 3, 3, 3, 3, 3, 3, 3, 3, 3, 3, 3, 3, 3, 3, 3, 3, 3, 3, 3, 3, 3, 3, 3, 3, 3, 3, 3, 3, 3, 3, 3, 3, 3]
    int[] faceVertexIndices = [0, 1, 2, 0, 2, 3, 4, 3, 2, 3, 4, 5, 1, 6, 7, 6, 1, 0, 8, 9, 10, 9, 8, 11, 8, 10, 12, 13, 10, 14, 10, 13, 12, 15, 16, 17, 16, 15, 18, 18, 19, 16, 19, 18, 20, 20, 21, 19, 21, 20, 22, 23, 24, 25, 23, 25, 26, 24, 27, 28, 24, 28, 25, 27, 29, 28, 27, 2, 29, 30, 31, 32, 31, 30, 33, 34, 33, 30, 33, 34, 35, 36, 35, 34, 35, 36, 37, 38, 39, 40, 39, 41, 40, 42, 38, 43, 40, 43, 38, 10, 42, 44, 42, 43, 44, 45, 17, 16, 45, 16, 46, 45, 46, 47, 47, 46, 48, 25, 49, 26, 50, 26, 49, 50, 49, 25, 25, 51, 50, 25, 28, 51, 52, 51, 28, 28, 29, 52, 52, 29, 53, 54, 55, 56, 56, 55, 57, 6, 56, 57, 6, 57, 7, 58, 5, 4, 58, 4, 59, 59, 4, 60, 60, 4, 61, 60, 61, 62, 53, 7, 52, 7, 53, 1, 1, 53, 29, 29, 2, 1, 55, 23, 26, 55, 26, 50, 57, 55, 50, 57, 50, 51, 7, 57, 51, 7, 51, 52, 63, 30, 32, 30, 63, 64, 65, 64, 63, 64, 65, 66, 67, 40, 41, 41, 68, 67, 40, 67, 68, 69, 40, 68, 43, 40, 69, 69, 70, 43, 44, 43, 70, 70, 71, 44, 72, 73, 74, 73, 72, 75, 13, 75, 72, 75, 13, 14, 11, 76, 9, 77, 9, 76, 9, 77, 78, 9, 78, 79, 80, 79, 78, 14, 71, 70, 71, 14, 81, 81, 44, 71, 10, 44, 81, 81, 14, 10, 39, 73, 41, 73, 68, 41, 73, 75, 68, 75, 69, 68, 75, 14, 69, 70, 69, 14, 15, 17, 5, 5, 58, 15, 4, 2, 27, 27, 16, 4, 16, 27, 24, 24, 46, 16, 46, 24, 23, 46, 23, 48, 4, 16, 19, 4, 19, 21, 4, 21, 61, 82, 47, 48, 82, 23, 54, 82, 48, 23, 54, 23, 55, 10, 9, 83, 83, 42, 10, 83, 9, 42, 42, 9, 30, 42, 30, 38, 64, 38, 30, 38, 64, 39, 66, 39, 64, 9, 34, 30, 34, 9, 36, 9, 79, 36, 84, 66, 65, 74, 39, 84, 66, 84, 39, 39, 74, 73, 32, 31, 11, 11, 31, 76, 85, 17, 45, 82, 45, 47, 85, 45, 82, 82, 54, 85, 54, 56, 85, 86, 85, 56, 86, 17, 85, 86, 5, 17, 56, 6, 86, 3, 5, 86, 3, 86, 6, 3, 6, 0, 32, 87, 63, 63, 84, 65, 63, 87, 84, 74, 84, 87, 87, 72, 74, 87, 88, 72, 32, 88, 87, 11, 88, 32, 13, 72, 88, 11, 8, 88, 88, 8, 13, 13, 8, 12, 21, 62, 61, 62, 21, 22, 20, 62, 22, 20, 60, 62, 18, 60, 20, 18, 59, 60, 15, 59, 18, 58, 59, 15, 80, 36, 79, 37, 36, 80, 35, 37, 80, 78, 35, 80, 78, 33, 35, 33, 78, 77, 77, 31, 33, 31, 77, 76, 89, 90, 91, 90, 89, 92, 93, 94, 95, 93, 96, 94, 97, 98, 99, 98, 97, 100, 96, 101, 94, 101, 96, 102, 100, 103, 98, 103, 100, 104, 102, 105, 101, 102, 106, 105, 106, 107, 105, 106, 108, 107, 108, 109, 107, 108, 110, 109, 110, 111, 109, 110, 112, 111, 113, 111, 112, 111, 113, 114, 113, 115, 114, 115, 113, 116, 116, 89, 115, 116, 92, 89, 117, 118, 119, 117, 120, 118, 121, 95, 122, 121, 93, 95, 119, 123, 117, 124, 123, 125, 123, 119, 125, 124, 125, 126, 127, 124, 126, 127, 126, 128, 129, 127, 128, 129, 128, 130, 131, 129, 130, 131, 130, 132, 131, 103, 104, 103, 131, 132, 118, 121, 122, 121, 118, 120, 97, 133, 134, 97, 90, 133, 133, 135, 134, 135, 133, 136, 135, 136, 137, 133, 92, 136, 92, 133, 90, 116, 136, 92, 136, 116, 137, 138, 116, 113, 112, 138, 113, 116, 138, 137, 139, 137, 138, 135, 137, 139, 102, 140, 106, 140, 108, 106, 108, 141, 110, 112, 110, 141, 140, 142, 108, 141, 108, 142, 141, 143, 112, 138, 112, 143, 142, 144, 141, 140, 144, 142, 145, 143, 141, 145, 138, 143, 146, 141, 144, 145, 141, 146, 138, 145, 147, 139, 138, 147, 146, 129, 145, 129, 147, 145, 147, 104, 139, 135, 139, 104, 147, 129, 131, 104, 147, 131, 129, 146, 127, 146, 124, 127, 146, 144, 124, 148, 124, 144, 144, 140, 148, 124, 148, 123, 148, 117, 123, 148, 149, 117, 148, 150, 149, 150, 148, 140, 140, 102, 150, 150, 151, 149, 151, 117, 149, 102, 152, 150, 152, 151, 150, 117, 151, 120, 151, 153, 121, 151, 121, 120, 152, 102, 96, 96, 93, 154, 154, 152, 96, 151, 152, 154, 151, 154, 153, 154, 121, 153, 121, 154, 93, 90, 99, 91, 90, 97, 99, 134, 100, 97, 100, 134, 135, 104, 100, 135, 89, 91, 155, 155, 91, 156, 155, 115, 89, 156, 157, 155, 157, 156, 158, 157, 159, 155, 115, 155, 159, 91, 158, 156, 91, 99, 158, 115, 160, 114, 160, 111, 114, 160, 115, 159, 161, 160, 159, 159, 157, 161, 162, 101, 105, 107, 162, 105, 107, 109, 163, 111, 163, 109, 162, 107, 164, 163, 164, 107, 163, 111, 165, 160, 165, 111, 166, 164, 163, 166, 162, 164, 167, 163, 165, 160, 167, 165, 166, 163, 168, 163, 167, 168, 167, 160, 169, 160, 161, 169, 168, 167, 130, 169, 130, 167, 169, 161, 103, 157, 103, 161, 130, 169, 132, 169, 103, 132, 168, 130, 128, 126, 168, 128, 168, 126, 166, 126, 170, 166, 162, 166, 170, 170, 126, 125, 103, 157, 98, 158, 98, 157, 98, 158, 99, 119, 170, 125, 171, 118, 122, 118, 171, 172, 119, 118, 172, 172, 173, 119, 170, 119, 173, 174, 170, 173, 172, 174, 173, 170, 174, 162, 101, 162, 174, 172, 175, 174, 175, 101, 174, 172, 176, 175, 176, 172, 171, 122, 176, 171, 101, 175, 94, 122, 95, 176, 176, 94, 175, 94, 176, 95, 177, 37, 178, 31, 37, 177, 31, 177, 179, 121, 31, 179, 180, 22, 181, 22, 182, 181, 22, 15, 182, 182, 15, 93, 183, 177, 178, 93, 17, 184, 17, 93, 15, 180, 185, 21, 21, 22, 180, 186, 184, 17, 184, 186, 187, 186, 188, 187, 186, 189, 188, 189, 32, 188, 32, 190, 188, 32, 121, 190, 32, 31, 121, 36, 178, 37, 178, 36, 191, 93, 192, 182, 193, 121, 179, 185, 180, 194, 194, 195, 185, 194, 183, 195, 196, 195, 183, 178, 196, 183, 196, 178, 191, 193, 190, 121, 190, 193, 188, 193, 187, 188, 187, 193, 192, 187, 192, 93, 93, 184, 187, 195, 21, 185, 21, 195, 197, 195, 198, 197, 195, 196, 198, 196, 191, 198, 191, 36, 198, 199, 22, 200, 15, 22, 199, 200, 201, 199, 199, 202, 15, 203, 15, 202, 204, 202, 199, 204, 203, 202, 204, 199, 201, 203, 204, 205, 37, 204, 201, 31, 205, 204, 204, 37, 31, 206, 177, 183, 179, 177, 206, 183, 194, 206, 206, 193, 179, 207, 206, 194, 180, 207, 194, 207, 180, 181, 208, 193, 206, 208, 206, 207, 181, 208, 207, 193, 208, 192, 208, 181, 182, 182, 192, 208, 22, 21, 197, 197, 200, 22, 197, 201, 200, 201, 197, 198, 36, 201, 198, 201, 36, 37, 189, 31, 32, 31, 189, 205, 186, 205, 189, 205, 186, 203, 203, 186, 17, 17, 15, 203]
    normal3f[] normals = [(0.00061002036, -0.7362716, -0.67668587), (0.0065927445, -0.9000811, 0.4356725), (-0.019592987, -0.0023807795, -0.9998052), (0.00061002036, -0.7362716, -0.67668587), (-0.019592987, -0.0023807795, -0.9998052), (-0.002618504, -0.0006976185, -0.99999636), (-0.0011409763, -0.0003442849, -0.99999934), (-0.002618504, -0.0006976185, -0.99999636), (-0.019592987, -0.0023807795, -0.9998052), (-0.002618504, -0.0006976185, -0.99999636), (-0.0011409763, -0.0003442849, -0.99999934), (0.013822764, 0.00062238344, -0.9999043), (0.0065927445, -0.9000811, 0.4356725), (0.01661303, -0.64608496, 0.7630848), (-0.0031074143, -0.6475917, 0.76198125), (0.01661303, -0.64608496, 0.7630848), (0.0065927445, -0.9000811, 0.4356725), (0.00061002036, -0.7362716, -0.67668587), (-0.01345951, -0.0007977992, 0.9999091), (-0.00833736, -0.0001775578, 0.9999653), (-0.03616469, 0.018653804, 0.99917185), (-0.00833736, -0.0001775578, 0.9999653), (-0.01345951, -0.0007977992, 0.9999091), (0.013803285, 0.001595462, 0.9999035), (-0.01345951, -0.0007977992, 0.9999091), (-0.03616469, 0.018653804, 0.99917185), (-0.089915946, -0.9951177, 0.04069282), (0.009301724, -0.63186496, -0.7750226), (-0.03616469, 0.018653804, 0.99917185), (-0.003930269, -0.63462305, -0.77281195), (-0.03616469, 0.018653804, 0.99917185), (0.009301724, -0.63186496, -0.7750226), (-0.089915946, -0.9951177, 0.04069282), (0.999995, -0.0031651347, 0.00000999339), (-0.9999054, 0.010963538, 0.008303499), (0.99988914, -0.0012447445, -0.014843529), (-0.9999054, 0.010963538, 0.008303499), (0.999995, -0.0031651347, 0.00000999339), (-0.038218893, 0.009249422, 0.99922657), (-0.038218893, 0.009249422, 0.99922657), (-0.0125605315, -0.0001632626, 0.99992114), (-0.9999054, 0.010963538, 0.008303499), (-0.0125605315, -0.0001632626, 0.99992114), (-0.038218893, 0.009249422, 0.99922657), (0.03250108, -0.0010669789, 0.9994711), (0.03250108, -0.0010669789, 0.9994711), (-0.9993732, 0.008706503, -0.034314573), (-0.0125605315, -0.0001632626, 0.99992114), (-0.9993732, 0.008706503, -0.034314573), (0.03250108, -0.0010669789, 0.9994711), (-0.9977351, 0.010051003, -0.0665123), (0.0010464211, 0.0012793343, 0.9999986), (-0.9999291, 0.011418253, 0.0033826528), (-0.03941881, 0.599, -0.7997782), (0.0010464211, 0.0012793343, 0.9999986), (-0.03941881, 0.599, -0.7997782), (-0.012893019, -0.1572953, 0.98746747), (-0.9999291, 0.011418253, 0.0033826528), (-0.999825, 0.007977644, -0.016928747), (-0.029309295, 0.5883915, -0.8080448), (-0.9999291, 0.011418253, 0.0033826528), (-0.029309295, 0.5883915, -0.8080448), (-0.03941881, 0.599, -0.7997782), (-0.999825, 0.007977644, -0.016928747), (-0.026038723, 0.56315124, -0.8259435), (-0.029309295, 0.5883915, -0.8080448), (-0.999825, 0.007977644, -0.016928747), (-0.019592987, -0.0023807795, -0.9998052), (-0.026038723, 0.56315124, -0.8259435), (-0.9999053, 0.01095545, -0.008331056), (0.999995, -0.0031651347, 0.00000999339), (0.9999508, -0.0012968221, 0.009834117), (0.999995, -0.0031651347, 0.00000999339), (-0.9999053, 0.01095545, -0.008331056), (-0.03559645, 0.008263408, -0.9993321), (-0.012543998, -0.0011377856, -0.99992067), (-0.03559645, 0.008263408, -0.9993321), (-0.9999053, 0.01095545, -0.008331056), (-0.03559645, 0.008263408, -0.9993321), (-0.012543998, -0.0011377856, -0.99992067), (0.032536283, -0.0020431485, -0.99946856), (-0.99912417, 0.009716469, 0.040701997), (0.032536283, -0.0020431485, -0.99946856), (-0.012543998, -0.0011377856, -0.99992067), (0.032536283, -0.0020431485, -0.99946856), (-0.99912417, 0.009716469, 0.040701997), (-0.99979466, 0.011830383, 0.016458124), (-0.999929, 0.011414951, -0.003410656), (0.001065985, 0.00030635658, -0.99999934), (-0.039432894, 0.5997779, 0.79919446), (0.001065985, 0.00030635658, -0.99999934), (-0.012874363, -0.15825842, -0.9873138), (-0.039432894, 0.5997779, 0.79919446), (-0.99992985, 0.007992315, 0.008752349), (-0.999929, 0.011414951, -0.003410656), (-0.029323706, 0.5891778, 0.8074713), (-0.039432894, 0.5997779, 0.79919446), (-0.029323706, 0.5891778, 0.8074713), (-0.999929, 0.011414951, -0.003410656), (-0.03616469, 0.018653804, 0.99917185), (-0.99992985, 0.007992315, 0.008752349), (0.0041823587, 0.5414942, 0.84069425), (-0.99992985, 0.007992315, 0.008752349), (-0.029323706, 0.5891778, 0.8074713), (0.0041823587, 0.5414942, 0.84069425), (0.9995121, 0.0010058028, 0.03121952), (0.99988914, -0.0012447445, -0.014843529), (-0.9999054, 0.010963538, 0.008303499), (0.9995121, 0.0010058028, 0.03121952), (-0.9999054, 0.010963538, 0.008303499), (-0.99976593, 0.013272407, 0.017084649), (0.9995121, 0.0010058028, 0.03121952), (-0.99976593, 0.013272407, 0.017084649), (0.004582652, 0.0017852171, 0.9999879), (0.004582652, 0.0017852171, 0.9999879), (-0.99976593, 0.013272407, 0.017084649), (0.002745633, 0.0015224208, 0.9999951), (-0.03941881, 0.599, -0.7997782), (-0.99754405, -0.0678863, -0.017249089), (-0.012893019, -0.1572953, 0.98746747), (-0.04049981, -0.37906787, 0.9244823), (-0.012893019, -0.1572953, 0.98746747), (-0.99754405, -0.0678863, -0.017249089), (-0.04049981, -0.37906787, 0.9244823), (-0.99754405, -0.0678863, -0.017249089), (-0.03941881, 0.599, -0.7997782), (-0.03941881, 0.599, -0.7997782), (-0.015068368, -0.6004797, 0.7994981), (-0.04049981, -0.37906787, 0.9244823), (-0.03941881, 0.599, -0.7997782), (-0.029309295, 0.5883915, -0.8080448), (-0.015068368, -0.6004797, 0.7994981), (-0.013219319, -0.6151197, 0.788323), (-0.015068368, -0.6004797, 0.7994981), (-0.029309295, 0.5883915, -0.8080448), (-0.029309295, 0.5883915, -0.8080448), (-0.026038723, 0.56315124, -0.8259435), (-0.013219319, -0.6151197, 0.788323), (-0.013219319, -0.6151197, 0.788323), (-0.026038723, 0.56315124, -0.8259435), (-0.023533816, -0.9036125, 0.42770392), (0.014278545, -0.266577, 0.96370786), (0.005036325, -0.33736375, 0.9413609), (0.01909953, -0.5721906, 0.8198982), (0.01909953, -0.5721906, 0.8198982), (0.005036325, -0.33736375, 0.9413609), (0.0059248456, -0.5921888, 0.8057775), (0.01661303, -0.64608496, 0.7630848), (0.01909953, -0.5721906, 0.8198982), (0.0059248456, -0.5921888, 0.8057775), (0.01661303, -0.64608496, 0.7630848), (0.0059248456, -0.5921888, 0.8057775), (-0.0031074143, -0.6475917, 0.76198125), (0.013180105, -0.0002655325, -0.9999132), (0.013822764, 0.00062238344, -0.9999043), (-0.0011409763, -0.0003442849, -0.99999934), (0.013180105, -0.0002655325, -0.9999132), (-0.0011409763, -0.0003442849, -0.99999934), (0.0028111315, 0.00015108987, -0.9999961), (0.0028111315, 0.00015108987, -0.9999961), (-0.0011409763, -0.0003442849, -0.99999934), (-0.013295388, 0.001451562, -0.99991065), (-0.013295388, 0.001451562, -0.99991065), (-0.0011409763, -0.0003442849, -0.99999934), (-0.006937941, 0.0014451027, -0.9999749), (-0.013295388, 0.001451562, -0.99991065), (-0.006937941, 0.0014451027, -0.9999749), (-0.9988869, 0.003137919, -0.047064446), (-0.023533816, -0.9036125, 0.42770392), (-0.0031074143, -0.6475917, 0.76198125), (-0.013219319, -0.6151197, 0.788323), (-0.0031074143, -0.6475917, 0.76198125), (-0.023533816, -0.9036125, 0.42770392), (0.0065927445, -0.9000811, 0.4356725), (0.0065927445, -0.9000811, 0.4356725), (-0.023533816, -0.9036125, 0.42770392), (-0.026038723, 0.56315124, -0.8259435), (-0.026038723, 0.56315124, -0.8259435), (-0.019592987, -0.0023807795, -0.9998052), (0.0065927445, -0.9000811, 0.4356725), (0.005036325, -0.33736375, 0.9413609), (0.0010464211, 0.0012793343, 0.9999986), (-0.012893019, -0.1572953, 0.98746747), (0.005036325, -0.33736375, 0.9413609), (-0.012893019, -0.1572953, 0.98746747), (-0.04049981, -0.37906787, 0.9244823), (0.0059248456, -0.5921888, 0.8057775), (0.005036325, -0.33736375, 0.9413609), (-0.04049981, -0.37906787, 0.9244823), (0.0059248456, -0.5921888, 0.8057775), (-0.04049981, -0.37906787, 0.9244823), (-0.015068368, -0.6004797, 0.7994981), (-0.0031074143, -0.6475917, 0.76198125), (0.0059248456, -0.5921888, 0.8057775), (-0.015068368, -0.6004797, 0.7994981), (-0.0031074143, -0.6475917, 0.76198125), (-0.015068368, -0.6004797, 0.7994981), (-0.013219319, -0.6151197, 0.788323), (0.9994807, 0.0009748939, -0.032207392), (-0.9999053, 0.01095545, -0.008331056), (0.9999508, -0.0012968221, 0.009834117), (-0.9999053, 0.01095545, -0.008331056), (0.9994807, 0.0009748939, -0.032207392), (-0.99976563, 0.013255792, -0.017114466), (0.0046023647, 0.0008122727, -0.9999891), (-0.99976563, 0.013255792, -0.017114466), (0.9994807, 0.0009748939, -0.032207392), (-0.99976563, 0.013255792, -0.017114466), (0.0046023647, 0.0008122727, -0.9999891), (0.0027652679, 0.00054946204, -0.9999961), (-0.99754435, -0.06786933, 0.01729806), (-0.039432894, 0.5997779, 0.79919446), (-0.012874363, -0.15825842, -0.9873138), (-0.012874363, -0.15825842, -0.9873138), (-0.04047875, -0.37996387, -0.9241152), (-0.99754435, -0.06786933, 0.01729806), (-0.039432894, 0.5997779, 0.79919446), (-0.99754435, -0.06786933, 0.01729806), (-0.04047875, -0.37996387, -0.9241152), (-0.015053053, -0.6012579, -0.7989133), (-0.039432894, 0.5997779, 0.79919446), (-0.04047875, -0.37996387, -0.9241152), (-0.029323706, 0.5891778, 0.8074713), (-0.039432894, 0.5997779, 0.79919446), (-0.015053053, -0.6012579, -0.7989133), (-0.015053053, -0.6012579, -0.7989133), (-0.013203446, -0.6158875, -0.7877236), (-0.029323706, 0.5891778, 0.8074713), (0.0041823587, 0.5414942, 0.84069425), (-0.029323706, 0.5891778, 0.8074713), (-0.013203446, -0.6158875, -0.7877236), (-0.013203446, -0.6158875, -0.7877236), (-0.024403345, -0.90301454, -0.42891654), (0.0041823587, 0.5414942, 0.84069425), (0.019114353, -0.5729878, -0.81934106), (0.005051647, -0.33827958, -0.9410321), (0.014292318, -0.26751548, -0.96344763), (0.005051647, -0.33827958, -0.9410321), (0.019114353, -0.5729878, -0.81934106), (0.0059392955, -0.59297246, -0.80520093), (0.009301724, -0.63186496, -0.7750226), (0.0059392955, -0.59297246, -0.80520093), (0.019114353, -0.5729878, -0.81934106), (0.0059392955, -0.59297246, -0.80520093), (0.009301724, -0.63186496, -0.7750226), (-0.003930269, -0.63462305, -0.77281195), (0.013803285, 0.001595462, 0.9999035), (0.013165883, 0.00070632173, 0.9999131), (-0.00833736, -0.0001775578, 0.9999653), (0.0027966541, 0.0011210438, 0.9999955), (-0.00833736, -0.0001775578, 0.9999653), (0.013165883, 0.00070632173, 0.9999131), (-0.00833736, -0.0001775578, 0.9999653), (0.0027966541, 0.0011210438, 0.9999955), (-0.013318525, 0.0024237486, 0.99990845), (-0.00833736, -0.0001775578, 0.9999653), (-0.013318525, 0.0024237486, 0.99990845), (-0.006957111, 0.002417505, 0.9999729), (-0.99888945, 0.0031836596, 0.047009263), (-0.006957111, 0.002417505, 0.9999729), (-0.013318525, 0.0024237486, 0.99990845), (-0.003930269, -0.63462305, -0.77281195), (-0.024403345, -0.90301454, -0.42891654), (-0.013203446, -0.6158875, -0.7877236), (-0.024403345, -0.90301454, -0.42891654), (-0.003930269, -0.63462305, -0.77281195), (-0.013516631, -0.7412732, 0.67106736), (-0.013516631, -0.7412732, 0.67106736), (0.0041823587, 0.5414942, 0.84069425), (-0.024403345, -0.90301454, -0.42891654), (-0.03616469, 0.018653804, 0.99917185), (0.0041823587, 0.5414942, 0.84069425), (-0.013516631, -0.7412732, 0.67106736), (-0.013516631, -0.7412732, 0.67106736), (-0.003930269, -0.63462305, -0.77281195), (-0.03616469, 0.018653804, 0.99917185), (0.001065985, 0.00030635658, -0.99999934), (0.005051647, -0.33827958, -0.9410321), (-0.012874363, -0.15825842, -0.9873138), (0.005051647, -0.33827958, -0.9410321), (-0.04047875, -0.37996387, -0.9241152), (-0.012874363, -0.15825842, -0.9873138), (0.005051647, -0.33827958, -0.9410321), (0.0059392955, -0.59297246, -0.80520093), (-0.04047875, -0.37996387, -0.9241152), (0.0059392955, -0.59297246, -0.80520093), (-0.015053053, -0.6012579, -0.7989133), (-0.04047875, -0.37996387, -0.9241152), (0.0059392955, -0.59297246, -0.80520093), (-0.003930269, -0.63462305, -0.77281195), (-0.015053053, -0.6012579, -0.7989133), (-0.013203446, -0.6158875, -0.7877236), (-0.015053053, -0.6012579, -0.7989133), (-0.003930269, -0.63462305, -0.77281195), (0.999995, -0.0031651347, 0.00000999339), (0.99988914, -0.0012447445, -0.014843529), (0.013822764, 0.00062238344, -0.9999043), (0.013822764, 0.00062238344, -0.9999043), (0.013180105, -0.0002655325, -0.9999132), (0.999995, -0.0031651347, 0.00000999339), (-0.0011409763, -0.0003442849, -0.99999934), (-0.019592987, -0.0023807795, -0.9998052), (-0.999825, 0.007977644, -0.016928747), (-0.999825, 0.007977644, -0.016928747), (-0.9999054, 0.010963538, 0.008303499), (-0.0011409763, -0.0003442849, -0.99999934), (-0.9999054, 0.010963538, 0.008303499), (-0.999825, 0.007977644, -0.016928747), (-0.9999291, 0.011418253, 0.0033826528), (-0.9999291, 0.011418253, 0.0033826528), (-0.99976593, 0.013272407, 0.017084649), (-0.9999054, 0.010963538, 0.008303499), (-0.99976593, 0.013272407, 0.017084649), (-0.9999291, 0.011418253, 0.0033826528), (0.0010464211, 0.0012793343, 0.9999986), (-0.99976593, 0.013272407, 0.017084649), (0.0010464211, 0.0012793343, 0.9999986), (0.002745633, 0.0015224208, 0.9999951), (-0.0011409763, -0.0003442849, -0.99999934), (-0.9999054, 0.010963538, 0.008303499), (-0.0125605315, -0.0001632626, 0.99992114), (-0.0011409763, -0.0003442849, -0.99999934), (-0.0125605315, -0.0001632626, 0.99992114), (-0.9993732, 0.008706503, -0.034314573), (-0.0011409763, -0.0003442849, -0.99999934), (-0.9993732, 0.008706503, -0.034314573), (-0.006937941, 0.0014451027, -0.9999749), (0.0026933409, -0.0073509803, 0.99996936), (0.004582652, 0.0017852171, 0.9999879), (0.002745633, 0.0015224208, 0.9999951), (0.0026933409, -0.0073509803, 0.99996936), (0.0010464211, 0.0012793343, 0.9999986), (0.014278545, -0.266577, 0.96370786), (0.0026933409, -0.0073509803, 0.99996936), (0.002745633, 0.0015224208, 0.9999951), (0.0010464211, 0.0012793343, 0.9999986), (0.014278545, -0.266577, 0.96370786), (0.0010464211, 0.0012793343, 0.9999986), (0.005036325, -0.33736375, 0.9413609), (-0.03616469, 0.018653804, 0.99917185), (-0.00833736, -0.0001775578, 0.9999653), (-0.99554235, 0.00029139442, 0.094316304), (-0.99554235, 0.00029139442, 0.094316304), (-0.99992985, 0.007992315, 0.008752349), (-0.03616469, 0.018653804, 0.99917185), (-0.99554235, 0.00029139442, 0.094316304), (-0.00833736, -0.0001775578, 0.9999653), (-0.99992985, 0.007992315, 0.008752349), (-0.99992985, 0.007992315, 0.008752349), (-0.00833736, -0.0001775578, 0.9999653), (-0.9999053, 0.01095545, -0.008331056), (-0.99992985, 0.007992315, 0.008752349), (-0.9999053, 0.01095545, -0.008331056), (-0.999929, 0.011414951, -0.003410656), (-0.99976563, 0.013255792, -0.017114466), (-0.999929, 0.011414951, -0.003410656), (-0.9999053, 0.01095545, -0.008331056), (-0.999929, 0.011414951, -0.003410656), (-0.99976563, 0.013255792, -0.017114466), (0.001065985, 0.00030635658, -0.99999934), (0.0027652679, 0.00054946204, -0.9999961), (0.001065985, 0.00030635658, -0.99999934), (-0.99976563, 0.013255792, -0.017114466), (-0.00833736, -0.0001775578, 0.9999653), (-0.012543998, -0.0011377856, -0.99992067), (-0.9999053, 0.01095545, -0.008331056), (-0.012543998, -0.0011377856, -0.99992067), (-0.00833736, -0.0001775578, 0.9999653), (-0.99912417, 0.009716469, 0.040701997), (-0.00833736, -0.0001775578, 0.9999653), (-0.006957111, 0.002417505, 0.9999729), (-0.99912417, 0.009716469, 0.040701997), (0.002712944, -0.008323532, -0.99996173), (0.0027652679, 0.00054946204, -0.9999961), (0.0046023647, 0.0008122727, -0.9999891), (0.014292318, -0.26751548, -0.96344763), (0.001065985, 0.00030635658, -0.99999934), (0.002712944, -0.008323532, -0.99996173), (0.0027652679, 0.00054946204, -0.9999961), (0.002712944, -0.008323532, -0.99996173), (0.001065985, 0.00030635658, -0.99999934), (0.001065985, 0.00030635658, -0.99999934), (0.014292318, -0.26751548, -0.96344763), (0.005051647, -0.33827958, -0.9410321), (0.9999508, -0.0012968221, 0.009834117), (0.999995, -0.0031651347, 0.00000999339), (0.013803285, 0.001595462, 0.9999035), (0.013803285, 0.001595462, 0.9999035), (0.999995, -0.0031651347, 0.00000999339), (0.013165883, 0.00070632173, 0.9999131), (0.99982363, -0.0032846266, 0.018493015), (0.99988914, -0.0012447445, -0.014843529), (0.9995121, 0.0010058028, 0.03121952), (0.0026933409, -0.0073509803, 0.99996936), (0.9995121, 0.0010058028, 0.03121952), (0.004582652, 0.0017852171, 0.9999879), (0.99982363, -0.0032846266, 0.018493015), (0.9995121, 0.0010058028, 0.03121952), (0.0026933409, -0.0073509803, 0.99996936), (0.0026933409, -0.0073509803, 0.99996936), (0.014278545, -0.266577, 0.96370786), (0.99982363, -0.0032846266, 0.018493015), (0.014278545, -0.266577, 0.96370786), (0.01909953, -0.5721906, 0.8198982), (0.99982363, -0.0032846266, 0.018493015), (0.99969786, -0.008823513, -0.022945672), (0.99982363, -0.0032846266, 0.018493015), (0.01909953, -0.5721906, 0.8198982), (0.99969786, -0.008823513, -0.022945672), (0.99988914, -0.0012447445, -0.014843529), (0.99982363, -0.0032846266, 0.018493015), (0.99969786, -0.008823513, -0.022945672), (0.013822764, 0.00062238344, -0.9999043), (0.99988914, -0.0012447445, -0.014843529), (0.01909953, -0.5721906, 0.8198982), (0.01661303, -0.64608496, 0.7630848), (0.99969786, -0.008823513, -0.022945672), (-0.002618504, -0.0006976185, -0.99999636), (0.013822764, 0.00062238344, -0.9999043), (0.99969786, -0.008823513, -0.022945672), (-0.002618504, -0.0006976185, -0.99999636), (0.99969786, -0.008823513, -0.022945672), (0.01661303, -0.64608496, 0.7630848), (-0.002618504, -0.0006976185, -0.99999636), (0.01661303, -0.64608496, 0.7630848), (0.00061002036, -0.7362716, -0.67668587), (0.9999508, -0.0012968221, 0.009834117), (0.9998098, -0.0034255458, -0.01919925), (0.9994807, 0.0009748939, -0.032207392), (0.9994807, 0.0009748939, -0.032207392), (0.002712944, -0.008323532, -0.99996173), (0.0046023647, 0.0008122727, -0.9999891), (0.9994807, 0.0009748939, -0.032207392), (0.9998098, -0.0034255458, -0.01919925), (0.002712944, -0.008323532, -0.99996173), (0.014292318, -0.26751548, -0.96344763), (0.002712944, -0.008323532, -0.99996173), (0.9998098, -0.0034255458, -0.01919925), (0.9998098, -0.0034255458, -0.01919925), (0.019114353, -0.5729878, -0.81934106), (0.014292318, -0.26751548, -0.96344763), (0.9998098, -0.0034255458, -0.01919925), (0.9996794, -0.008989815, 0.023674885), (0.019114353, -0.5729878, -0.81934106), (0.9999508, -0.0012968221, 0.009834117), (0.9996794, -0.008989815, 0.023674885), (0.9998098, -0.0034255458, -0.01919925), (0.013803285, 0.001595462, 0.9999035), (0.9996794, -0.008989815, 0.023674885), (0.9999508, -0.0012968221, 0.009834117), (0.009301724, -0.63186496, -0.7750226), (0.019114353, -0.5729878, -0.81934106), (0.9996794, -0.008989815, 0.023674885), (0.013803285, 0.001595462, 0.9999035), (-0.01345951, -0.0007977992, 0.9999091), (0.9996794, -0.008989815, 0.023674885), (0.9996794, -0.008989815, 0.023674885), (-0.01345951, -0.0007977992, 0.9999091), (0.009301724, -0.63186496, -0.7750226), (0.009301724, -0.63186496, -0.7750226), (-0.01345951, -0.0007977992, 0.9999091), (-0.089915946, -0.9951177, 0.04069282), (-0.9993732, 0.008706503, -0.034314573), (-0.9988869, 0.003137919, -0.047064446), (-0.006937941, 0.0014451027, -0.9999749), (-0.9988869, 0.003137919, -0.047064446), (-0.9993732, 0.008706503, -0.034314573), (-0.9977351, 0.010051003, -0.0665123), (0.03250108, -0.0010669789, 0.9994711), (-0.9988869, 0.003137919, -0.047064446), (-0.9977351, 0.010051003, -0.0665123), (0.03250108, -0.0010669789, 0.9994711), (-0.013295388, 0.001451562, -0.99991065), (-0.9988869, 0.003137919, -0.047064446), (-0.038218893, 0.009249422, 0.99922657), (-0.013295388, 0.001451562, -0.99991065), (0.03250108, -0.0010669789, 0.9994711), (-0.038218893, 0.009249422, 0.99922657), (0.0028111315, 0.00015108987, -0.9999961), (-0.013295388, 0.001451562, -0.99991065), (0.999995, -0.0031651347, 0.00000999339), (0.0028111315, 0.00015108987, -0.9999961), (-0.038218893, 0.009249422, 0.99922657), (0.013180105, -0.0002655325, -0.9999132), (0.0028111315, 0.00015108987, -0.9999961), (0.999995, -0.0031651347, 0.00000999339), (-0.99888945, 0.0031836596, 0.047009263), (-0.99912417, 0.009716469, 0.040701997), (-0.006957111, 0.002417505, 0.9999729), (-0.99979466, 0.011830383, 0.016458124), (-0.99912417, 0.009716469, 0.040701997), (-0.99888945, 0.0031836596, 0.047009263), (0.032536283, -0.0020431485, -0.99946856), (-0.99979466, 0.011830383, 0.016458124), (-0.99888945, 0.0031836596, 0.047009263), (-0.013318525, 0.0024237486, 0.99990845), (0.032536283, -0.0020431485, -0.99946856), (-0.99888945, 0.0031836596, 0.047009263), (-0.013318525, 0.0024237486, 0.99990845), (-0.03559645, 0.008263408, -0.9993321), (0.032536283, -0.0020431485, -0.99946856), (-0.03559645, 0.008263408, -0.9993321), (-0.013318525, 0.0024237486, 0.99990845), (0.0027966541, 0.0011210438, 0.9999955), (0.0027966541, 0.0011210438, 0.9999955), (0.999995, -0.0031651347, 0.00000999339), (-0.03559645, 0.008263408, -0.9993321), (0.999995, -0.0031651347, 0.00000999339), (0.0027966541, 0.0011210438, 0.9999955), (0.013165883, 0.00070632173, 0.9999131), (0.0031140007, -0.0007747618, -0.99999493), (0.0022796316, -0.9999974, 0.00046326363), (0.013468944, -0.9999092, 0.00055396627), (0.0022796316, -0.9999974, 0.00046326363), (0.0031140007, -0.0007747618, -0.99999493), (0.0050726756, -0.00072927854, -0.9999869), (-0.029031558, 0.9995784, -0.00049494253), (-0.002076593, -0.0016471505, -0.99999654), (-0.027428458, 0.99962366, -0.0005081355), (-0.029031558, 0.9995784, -0.00049494253), (0.00838374, -0.0023355552, -0.9999622), (-0.002076593, -0.0016471505, -0.99999654), (0.999995, -0.0031651347, 0.00000999339), (0.01397035, 0.00056069373, 0.99990225), (0.0022796316, -0.9999974, 0.00046326363), (0.01397035, 0.00056069373, 0.99990225), (0.999995, -0.0031651347, 0.00000999339), (0.00836901, 0.00043022644, 0.999965), (0.00838374, -0.0023355552, -0.9999622), (0.0097998865, -0.71422327, -0.69984937), (-0.002076593, -0.0016471505, -0.99999654), (0.0097998865, -0.71422327, -0.69984937), (0.00838374, -0.0023355552, -0.9999622), (0.007084193, -0.68363804, -0.7297869), (0.00836901, 0.00043022644, 0.999965), (0.010933374, 0.69788456, 0.7161269), (0.01397035, 0.00056069373, 0.99990225), (0.010933374, 0.69788456, 0.7161269), (0.00836901, 0.00043022644, 0.999965), (0.016608926, 0.6976521, 0.7162442), (0.007084193, -0.68363804, -0.7297869), (0.0026302473, -0.5769643, -0.81676507), (0.0097998865, -0.71422327, -0.69984937), (0.007084193, -0.68363804, -0.7297869), (-0.001578755, -0.50141346, -0.8652065), (0.0026302473, -0.5769643, -0.81676507), (-0.001578755, -0.50141346, -0.8652065), (-0.0010515588, -0.33515728, -0.9421616), (0.0026302473, -0.5769643, -0.81676507), (-0.001578755, -0.50141346, -0.8652065), (-0.0007475559, -0.239249, -0.97095793), (-0.0010515588, -0.33515728, -0.9421616), (-0.0007475559, -0.239249, -0.97095793), (-0.00014561834, -0.049160283, -0.9987909), (-0.0010515588, -0.33515728, -0.9421616), (-0.0007475559, -0.239249, -0.97095793), (0.0001625186, 0.048192583, -0.998838), (-0.00014561834, -0.049160283, -0.9987909), (0.0001625186, 0.048192583, -0.998838), (0.00091551605, 0.28622356, -0.9581624), (-0.00014561834, -0.049160283, -0.9987909), (0.0001625186, 0.048192583, -0.998838), (0.00091551634, 0.28622365, -0.9581624), (0.00091551605, 0.28622356, -0.9581624), (0.0049597407, 0.53768384, -0.84313196), (0.00091551605, 0.28622356, -0.9581624), (0.00091551634, 0.28622365, -0.9581624), (0.00091551605, 0.28622356, -0.9581624), (0.0049597407, 0.53768384, -0.84313196), (0.001717643, 0.540016, -0.841653), (0.0049597407, 0.53768384, -0.84313196), (0.0114152, 0.6837522, -0.7296249), (0.001717643, 0.540016, -0.841653), (0.0114152, 0.6837522, -0.7296249), (0.0049597407, 0.53768384, -0.84313196), (0.01852548, 0.71372855, -0.7001774), (0.01852548, 0.71372855, -0.7001774), (0.0031140007, -0.0007747618, -0.99999493), (0.0114152, 0.6837522, -0.7296249), (0.01852548, 0.71372855, -0.7001774), (0.0050726756, -0.00072927854, -0.9999869), (0.0031140007, -0.0007747618, -0.99999493), (0.0043118363, -0.713674, 0.70046484), (-0.015600528, 0.00044994522, 0.9998782), (0.00707634, -0.68222976, 0.73110366), (0.0043118363, -0.713674, 0.70046484), (-0.00741859, -0.00009146234, 0.9999725), (-0.015600528, 0.00044994522, 0.9998782), (-0.027428437, 0.99962366, -0.0005081479), (-0.027428458, 0.99962366, -0.0005081355), (-0.025845831, 0.9996658, -0.0005211575), (-0.027428437, 0.99962366, -0.0005081479), (-0.029031558, 0.9995784, -0.00049494253), (-0.027428458, 0.99962366, -0.0005081355), (0.00707634, -0.68222976, 0.73110366), (0.002615106, -0.5761704, 0.8173255), (0.0043118363, -0.713674, 0.70046484), (-0.0010682427, -0.33423948, 0.9424876), (0.002615106, -0.5761704, 0.8173255), (-0.0015990378, -0.5020099, 0.8648604), (0.002615106, -0.5761704, 0.8173255), (0.00707634, -0.68222976, 0.73110366), (-0.0015990378, -0.5020099, 0.8648604), (-0.0010682427, -0.33423948, 0.9424876), (-0.0015990378, -0.5020099, 0.8648604), (-0.0007639731, -0.23830386, 0.9711904), (-0.00016250873, -0.04818946, 0.99883825), (-0.0010682427, -0.33423948, 0.9424876), (-0.0007639731, -0.23830386, 0.9711904), (-0.00016250873, -0.04818946, 0.99883825), (-0.0007639731, -0.23830386, 0.9711904), (0.0001456256, 0.049162578, 0.9987908), (0.0007475546, 0.23924859, 0.9709581), (-0.00016250873, -0.04818946, 0.99883825), (0.0001456256, 0.049162578, 0.9987908), (0.0007475546, 0.23924859, 0.9709581), (0.0001456256, 0.049162578, 0.9987908), (0.0010514002, 0.3351549, 0.9421625), (0.0049441727, 0.5385045, 0.8426082), (0.0007475546, 0.23924859, 0.9709581), (0.0010514002, 0.3351549, 0.9421625), (0.0049441727, 0.5385045, 0.8426082), (0.0010514002, 0.3351549, 0.9421625), (0.0017034173, 0.54083467, 0.8411272), (0.0049441727, 0.5385045, 0.8426082), (0.010933374, 0.69788456, 0.7161269), (0.016608926, 0.6976521, 0.7162442), (0.010933374, 0.69788456, 0.7161269), (0.0049441727, 0.5385045, 0.8426082), (0.0017034173, 0.54083467, 0.8411272), (-0.015600528, 0.00044994522, 0.9998782), (-0.027428437, 0.99962366, -0.0005081479), (-0.025845831, 0.9996658, -0.0005211575), (-0.027428437, 0.99962366, -0.0005081479), (-0.015600528, 0.00044994522, 0.9998782), (-0.00741859, -0.00009146234, 0.9999725), (0.999995, -0.0031651347, 0.00000999339), (0.99999064, -0.0043120044, -0.00039800158), (0.99999005, -0.0043905447, 0.00081695954), (0.999995, -0.0031651347, 0.00000999339), (0.0022796316, -0.9999974, 0.00046326363), (0.99999064, -0.0043120044, -0.00039800158), (0.99999064, -0.0043120044, -0.00039800158), (0.99999505, -0.0031475245, 0.00023820881), (0.99999005, -0.0043905447, 0.00081695954), (0.99999505, -0.0031475245, 0.00023820881), (0.99999064, -0.0043120044, -0.00039800158), (0.999995, -0.0031283142, -0.00050596613), (0.99999505, -0.0031475245, 0.00023820881), (0.999995, -0.0031283142, -0.00050596613), (0.99999595, -0.002871658, -0.0003001026), (0.99999064, -0.0043120044, -0.00039800158), (0.0050726756, -0.00072927854, -0.9999869), (0.999995, -0.0031283142, -0.00050596613), (0.0050726756, -0.00072927854, -0.9999869), (0.99999064, -0.0043120044, -0.00039800158), (0.0022796316, -0.9999974, 0.00046326363), (0.01852548, 0.71372855, -0.7001774), (0.999995, -0.0031283142, -0.00050596613), (0.0050726756, -0.00072927854, -0.9999869), (0.999995, -0.0031283142, -0.00050596613), (0.01852548, 0.71372855, -0.7001774), (0.99999595, -0.002871658, -0.0003001026), (0.99999565, -0.0029319418, -0.00035673584), (0.01852548, 0.71372855, -0.7001774), (0.0049597407, 0.53768384, -0.84313196), (0.00091551634, 0.28622365, -0.9581624), (0.99999565, -0.0029319418, -0.00035673584), (0.0049597407, 0.53768384, -0.84313196), (0.01852548, 0.71372855, -0.7001774), (0.99999565, -0.0029319418, -0.00035673584), (0.99999595, -0.002871658, -0.0003001026), (0.9999958, -0.0028973704, 0.0002923704), (0.99999595, -0.002871658, -0.0003001026), (0.99999565, -0.0029319418, -0.00035673584), (0.99999505, -0.0031475245, 0.00023820881), (0.99999595, -0.002871658, -0.0003001026), (0.9999958, -0.0028973704, 0.0002923704), (0.007084193, -0.68363804, -0.7297869), (0.999994, -0.0034648562, -0.00045838562), (-0.001578755, -0.50141346, -0.8652065), (0.999994, -0.0034648562, -0.00045838562), (-0.0007475559, -0.239249, -0.97095793), (-0.001578755, -0.50141346, -0.8652065), (-0.0007475559, -0.239249, -0.97095793), (0.999995, -0.0031653054, -0.00034172236), (0.0001625186, 0.048192583, -0.998838), (0.00091551634, 0.28622365, -0.9581624), (0.0001625186, 0.048192583, -0.998838), (0.999995, -0.0031653054, -0.00034172236), (0.999994, -0.0034648562, -0.00045838562), (0.99999464, -0.0032714948, -0.00034477442), (-0.0007475559, -0.239249, -0.97095793), (0.999995, -0.0031653054, -0.00034172236), (-0.0007475559, -0.239249, -0.97095793), (0.99999464, -0.0032714948, -0.00034477442), (0.999995, -0.0031653054, -0.00034172236), (0.99999535, -0.0030600303, -0.00034487783), (0.00091551634, 0.28622365, -0.9581624), (0.99999565, -0.0029319418, -0.00035673584), (0.00091551634, 0.28622365, -0.9581624), (0.99999535, -0.0030600303, -0.00034487783), (0.99999464, -0.0032714948, -0.00034477442), (0.9999948, -0.0032180483, 0.00018711381), (0.999995, -0.0031653054, -0.00034172236), (0.999994, -0.0034648562, -0.00045838562), (0.9999948, -0.0032180483, 0.00018711381), (0.99999464, -0.0032714948, -0.00034477442), (0.9999952, -0.0031129667, 0.00018706315), (0.99999535, -0.0030600303, -0.00034487783), (0.999995, -0.0031653054, -0.00034172236), (0.9999952, -0.0031129667, 0.00018706315), (0.99999565, -0.0029319418, -0.00035673584), (0.99999535, -0.0030600303, -0.00034487783), (0.9999948, -0.0031647903, 0.0007145354), (0.999995, -0.0031653054, -0.00034172236), (0.9999948, -0.0032180483, 0.00018711381), (0.9999952, -0.0031129667, 0.00018706315), (0.999995, -0.0031653054, -0.00034172236), (0.9999948, -0.0031647903, 0.0007145354), (0.99999565, -0.0029319418, -0.00035673584), (0.9999952, -0.0031129667, 0.00018706315), (0.9999961, -0.0026982508, 0.000740932), (0.9999958, -0.0028973704, 0.0002923704), (0.99999565, -0.0029319418, -0.00035673584), (0.9999961, -0.0026982508, 0.000740932), (0.9999948, -0.0031647903, 0.0007145354), (0.0007475546, 0.23924859, 0.9709581), (0.9999952, -0.0031129667, 0.00018706315), (0.0007475546, 0.23924859, 0.9709581), (0.9999961, -0.0026982508, 0.000740932), (0.9999952, -0.0031129667, 0.00018706315), (0.9999961, -0.0026982508, 0.000740932), (0.016608926, 0.6976521, 0.7162442), (0.9999958, -0.0028973704, 0.0002923704), (0.99999505, -0.0031475245, 0.00023820881), (0.9999958, -0.0028973704, 0.0002923704), (0.016608926, 0.6976521, 0.7162442), (0.9999961, -0.0026982508, 0.000740932), (0.0007475546, 0.23924859, 0.9709581), (0.0049441727, 0.5385045, 0.8426082), (0.016608926, 0.6976521, 0.7162442), (0.9999961, -0.0026982508, 0.000740932), (0.0049441727, 0.5385045, 0.8426082), (0.0007475546, 0.23924859, 0.9709581), (0.9999948, -0.0031647903, 0.0007145354), (-0.00016250873, -0.04818946, 0.99883825), (0.9999948, -0.0031647903, 0.0007145354), (-0.0010682427, -0.33423948, 0.9424876), (-0.00016250873, -0.04818946, 0.99883825), (0.9999948, -0.0031647903, 0.0007145354), (0.9999948, -0.0032180483, 0.00018711381), (-0.0010682427, -0.33423948, 0.9424876), (0.9999938, -0.0034906715, 0.0005201121), (-0.0010682427, -0.33423948, 0.9424876), (0.9999948, -0.0032180483, 0.00018711381), (0.9999948, -0.0032180483, 0.00018711381), (0.999994, -0.0034648562, -0.00045838562), (0.9999938, -0.0034906715, 0.0005201121), (-0.0010682427, -0.33423948, 0.9424876), (0.9999938, -0.0034906715, 0.0005201121), (0.002615106, -0.5761704, 0.8173255), (0.9999938, -0.0034906715, 0.0005201121), (0.0043118363, -0.713674, 0.70046484), (0.002615106, -0.5761704, 0.8173255), (0.9999938, -0.0034906715, 0.0005201121), (0.99999344, -0.0036011012, 0.0004523072), (0.0043118363, -0.713674, 0.70046484), (0.9999938, -0.0034906715, 0.0005201121), (0.9999943, -0.003375884, -0.00021266322), (0.99999344, -0.0036011012, 0.0004523072), (0.9999943, -0.003375884, -0.00021266322), (0.9999938, -0.0034906715, 0.0005201121), (0.999994, -0.0034648562, -0.00045838562), (0.999994, -0.0034648562, -0.00045838562), (0.007084193, -0.68363804, -0.7297869), (0.9999943, -0.003375884, -0.00021266322), (0.9999943, -0.003375884, -0.00021266322), (0.99999475, -0.0032120717, 0.00039143593), (0.99999344, -0.0036011012, 0.0004523072), (0.99999475, -0.0032120717, 0.00039143593), (0.0043118363, -0.713674, 0.70046484), (0.99999344, -0.0036011012, 0.0004523072), (0.007084193, -0.68363804, -0.7297869), (0.9999947, -0.0032438983, -0.0004652961), (0.9999943, -0.003375884, -0.00021266322), (0.9999947, -0.0032438983, -0.0004652961), (0.99999475, -0.0032120717, 0.00039143593), (0.9999943, -0.003375884, -0.00021266322), (0.0043118363, -0.713674, 0.70046484), (0.99999475, -0.0032120717, 0.00039143593), (-0.00741859, -0.00009146234, 0.9999725), (0.99999475, -0.0032120717, 0.00039143593), (0.9999984, -0.0017848853, 0.00018331285), (-0.027428437, 0.99962366, -0.0005081479), (0.99999475, -0.0032120717, 0.00039143593), (-0.027428437, 0.99962366, -0.0005081479), (-0.00741859, -0.00009146234, 0.9999725), (0.9999947, -0.0032438983, -0.0004652961), (0.007084193, -0.68363804, -0.7297869), (0.00838374, -0.0023355552, -0.9999622), (0.00838374, -0.0023355552, -0.9999622), (-0.029031558, 0.9995784, -0.00049494253), (0.99999875, -0.0016064543, -0.00032129168), (0.99999875, -0.0016064543, -0.00032129168), (0.9999947, -0.0032438983, -0.0004652961), (0.00838374, -0.0023355552, -0.9999622), (0.99999475, -0.0032120717, 0.00039143593), (0.9999947, -0.0032438983, -0.0004652961), (0.99999875, -0.0016064543, -0.00032129168), (0.99999475, -0.0032120717, 0.00039143593), (0.99999875, -0.0016064543, -0.00032129168), (0.9999984, -0.0017848853, 0.00018331285), (0.99999875, -0.0016064543, -0.00032129168), (-0.027428437, 0.99962366, -0.0005081479), (0.9999984, -0.0017848853, 0.00018331285), (-0.027428437, 0.99962366, -0.0005081479), (0.99999875, -0.0016064543, -0.00032129168), (-0.029031558, 0.9995784, -0.00049494253), (0.0022796316, -0.9999974, 0.00046326363), (0.0022796316, -0.9999974, 0.00046326363), (0.013468944, -0.9999092, 0.00055396627), (0.0022796316, -0.9999974, 0.00046326363), (0.999995, -0.0031651347, 0.00000999339), (0.0022796316, -0.9999974, 0.00046326363), (0.99999005, -0.0043905447, 0.00081695954), (0.00836901, 0.00043022644, 0.999965), (0.999995, -0.0031651347, 0.00000999339), (0.00836901, 0.00043022644, 0.999965), (0.99999005, -0.0043905447, 0.00081695954), (0.99999505, -0.0031475245, 0.00023820881), (0.016608926, 0.6976521, 0.7162442), (0.00836901, 0.00043022644, 0.999965), (0.99999505, -0.0031475245, 0.00023820881), (0.0031140007, -0.0007747618, -0.99999493), (0.013468944, -0.9999092, 0.00055396627), (-0.99999434, 0.0032132848, -0.0010146856), (-0.99999434, 0.0032132848, -0.0010146856), (0.013468944, -0.9999092, 0.00055396627), (-0.99999684, 0.0025067572, -0.00020604614), (-0.99999434, 0.0032132848, -0.0010146856), (0.0114152, 0.6837522, -0.7296249), (0.0031140007, -0.0007747618, -0.99999493), (-0.99999684, 0.0025067572, -0.00020604614), (-0.99999493, 0.003187689, 0.00026377104), (-0.99999434, 0.0032132848, -0.0010146856), (-0.99999493, 0.003187689, 0.00026377104), (-0.99999684, 0.0025067572, -0.00020604614), (-0.99999946, 0.0004362909, 0.000939925), (-0.99999493, 0.003187689, 0.00026377104), (-0.99999356, 0.0035801441, -0.0004252617), (-0.99999434, 0.0032132848, -0.0010146856), (0.0114152, 0.6837522, -0.7296249), (-0.99999434, 0.0032132848, -0.0010146856), (-0.99999356, 0.0035801441, -0.0004252617), (0.013468944, -0.9999092, 0.00055396627), (-0.99999946, 0.0004362909, 0.000939925), (-0.99999684, 0.0025067572, -0.00020604614), (0.013468944, -0.9999092, 0.00055396627), (0.0022796316, -0.9999974, 0.00046326363), (-0.99999946, 0.0004362909, 0.000939925), (0.0114152, 0.6837522, -0.7296249), (-0.99999404, 0.0034246834, -0.00041189246), (0.001717643, 0.540016, -0.841653), (-0.99999404, 0.0034246834, -0.00041189246), (0.00091551605, 0.28622356, -0.9581624), (0.001717643, 0.540016, -0.841653), (-0.99999404, 0.0034246834, -0.00041189246), (0.0114152, 0.6837522, -0.7296249), (-0.99999356, 0.0035801441, -0.0004252617), (-0.99999374, 0.0035243405, 0.0003693306), (-0.99999404, 0.0034246834, -0.00041189246), (-0.99999356, 0.0035801441, -0.0004252617), (-0.99999356, 0.0035801441, -0.0004252617), (-0.99999493, 0.003187689, 0.00026377104), (-0.99999374, 0.0035243405, 0.0003693306), (-0.9999958, 0.0028338237, -0.00052327826), (0.0097998865, -0.71422327, -0.69984937), (0.0026302473, -0.5769643, -0.81676507), (-0.0010515588, -0.33515728, -0.9421616), (-0.9999958, 0.0028338237, -0.00052327826), (0.0026302473, -0.5769643, -0.81676507), (-0.0010515588, -0.33515728, -0.9421616), (-0.00014561834, -0.049160283, -0.9987909), (-0.999995, 0.003164964, -0.0003617072), (0.00091551605, 0.28622356, -0.9581624), (-0.999995, 0.003164964, -0.0003617072), (-0.00014561834, -0.049160283, -0.9987909), (-0.9999958, 0.0028338237, -0.00052327826), (-0.0010515588, -0.33515728, -0.9421616), (-0.99999535, 0.0030590028, -0.00036475944), (-0.999995, 0.003164964, -0.0003617072), (-0.99999535, 0.0030590028, -0.00036475944), (-0.0010515588, -0.33515728, -0.9421616), (-0.999995, 0.003164964, -0.0003617072), (0.00091551605, 0.28622356, -0.9581624), (-0.99999464, 0.003271832, -0.0003648623), (-0.99999404, 0.0034246834, -0.00041189246), (-0.99999464, 0.003271832, -0.0003648623), (0.00091551605, 0.28622356, -0.9581624), (-0.9999952, 0.003112451, 0.00016712604), (-0.99999535, 0.0030590028, -0.00036475944), (-0.999995, 0.003164964, -0.0003617072), (-0.9999952, 0.003112451, 0.00016712604), (-0.9999958, 0.0028338237, -0.00052327826), (-0.99999535, 0.0030590028, -0.00036475944), (-0.9999948, 0.0032189086, 0.0001670741), (-0.999995, 0.003164964, -0.0003617072), (-0.99999464, 0.003271832, -0.0003648623), (-0.99999404, 0.0034246834, -0.00041189246), (-0.9999948, 0.0032189086, 0.0001670741), (-0.99999464, 0.003271832, -0.0003648623), (-0.9999952, 0.003112451, 0.00016712604), (-0.999995, 0.003164964, -0.0003617072), (-0.9999948, 0.0031654777, 0.00069454487), (-0.999995, 0.003164964, -0.0003617072), (-0.9999948, 0.0032189086, 0.0001670741), (-0.9999948, 0.0031654777, 0.00069454487), (-0.9999948, 0.0032189086, 0.0001670741), (-0.99999404, 0.0034246834, -0.00041189246), (-0.99999297, 0.0036829973, 0.00079101144), (-0.99999404, 0.0034246834, -0.00041189246), (-0.99999374, 0.0035243405, 0.0003693306), (-0.99999297, 0.0036829973, 0.00079101144), (-0.9999948, 0.0031654777, 0.00069454487), (-0.9999948, 0.0032189086, 0.0001670741), (0.0010514002, 0.3351549, 0.9421625), (-0.99999297, 0.0036829973, 0.00079101144), (0.0010514002, 0.3351549, 0.9421625), (-0.9999948, 0.0032189086, 0.0001670741), (-0.99999297, 0.0036829973, 0.00079101144), (-0.99999374, 0.0035243405, 0.0003693306), (0.010933374, 0.69788456, 0.7161269), (-0.99999493, 0.003187689, 0.00026377104), (0.010933374, 0.69788456, 0.7161269), (-0.99999374, 0.0035243405, 0.0003693306), (0.0010514002, 0.3351549, 0.9421625), (-0.99999297, 0.0036829973, 0.00079101144), (0.0017034173, 0.54083467, 0.8411272), (-0.99999297, 0.0036829973, 0.00079101144), (0.010933374, 0.69788456, 0.7161269), (0.0017034173, 0.54083467, 0.8411272), (-0.9999948, 0.0031654777, 0.00069454487), (0.0010514002, 0.3351549, 0.9421625), (0.0001456256, 0.049162578, 0.9987908), (-0.0007639731, -0.23830386, 0.9711904), (-0.9999948, 0.0031654777, 0.00069454487), (0.0001456256, 0.049162578, 0.9987908), (-0.9999948, 0.0031654777, 0.00069454487), (-0.0007639731, -0.23830386, 0.9711904), (-0.9999952, 0.003112451, 0.00016712604), (-0.0007639731, -0.23830386, 0.9711904), (-0.999996, 0.002804674, 0.00054903404), (-0.9999952, 0.003112451, 0.00016712604), (-0.9999958, 0.0028338237, -0.00052327826), (-0.9999952, 0.003112451, 0.00016712604), (-0.999996, 0.002804674, 0.00054903404), (-0.999996, 0.002804674, 0.00054903404), (-0.0007639731, -0.23830386, 0.9711904), (-0.0015990378, -0.5020099, 0.8648604), (0.010933374, 0.69788456, 0.7161269), (-0.99999493, 0.003187689, 0.00026377104), (0.01397035, 0.00056069373, 0.99990225), (-0.99999946, 0.0004362909, 0.000939925), (0.01397035, 0.00056069373, 0.99990225), (-0.99999493, 0.003187689, 0.00026377104), (0.01397035, 0.00056069373, 0.99990225), (-0.99999946, 0.0004362909, 0.000939925), (0.0022796316, -0.9999974, 0.00046326363), (0.00707634, -0.68222976, 0.73110366), (-0.999996, 0.002804674, 0.00054903404), (-0.0015990378, -0.5020099, 0.8648604), (-0.99998033, 0.0062253214, 0.00090320944), (-0.015600528, 0.00044994522, 0.9998782), (-0.025845831, 0.9996658, -0.0005211575), (-0.015600528, 0.00044994522, 0.9998782), (-0.99998033, 0.0062253214, 0.00090320944), (-0.9999952, 0.0031144735, 0.00027751728), (0.00707634, -0.68222976, 0.73110366), (-0.015600528, 0.00044994522, 0.9998782), (-0.9999952, 0.0031144735, 0.00027751728), (-0.9999952, 0.0031144735, 0.00027751728), (-0.99999654, 0.0026024724, 0.0005841497), (0.00707634, -0.68222976, 0.73110366), (-0.999996, 0.002804674, 0.00054903404), (0.00707634, -0.68222976, 0.73110366), (-0.99999654, 0.0026024724, 0.0005841497), (-0.9999958, 0.002882086, -0.0003080979), (-0.999996, 0.002804674, 0.00054903404), (-0.99999654, 0.0026024724, 0.0005841497), (-0.9999952, 0.0031144735, 0.00027751728), (-0.9999958, 0.002882086, -0.0003080979), (-0.99999654, 0.0026024724, 0.0005841497), (-0.999996, 0.002804674, 0.00054903404), (-0.9999958, 0.002882086, -0.0003080979), (-0.9999958, 0.0028338237, -0.00052327826), (0.0097998865, -0.71422327, -0.69984937), (-0.9999958, 0.0028338237, -0.00052327826), (-0.9999958, 0.002882086, -0.0003080979), (-0.9999952, 0.0031144735, 0.00027751728), (-0.9999951, 0.0030637241, -0.00058352994), (-0.9999958, 0.002882086, -0.0003080979), (-0.9999951, 0.0030637241, -0.00058352994), (0.0097998865, -0.71422327, -0.69984937), (-0.9999958, 0.002882086, -0.0003080979), (-0.9999952, 0.0031144735, 0.00027751728), (-0.9999788, 0.0064905775, -0.00050238345), (-0.9999951, 0.0030637241, -0.00058352994), (-0.9999788, 0.0064905775, -0.00050238345), (-0.9999952, 0.0031144735, 0.00027751728), (-0.99998033, 0.0062253214, 0.00090320944), (-0.025845831, 0.9996658, -0.0005211575), (-0.9999788, 0.0064905775, -0.00050238345), (-0.99998033, 0.0062253214, 0.00090320944), (0.0097998865, -0.71422327, -0.69984937), (-0.9999951, 0.0030637241, -0.00058352994), (-0.002076593, -0.0016471505, -0.99999654), (-0.025845831, 0.9996658, -0.0005211575), (-0.027428458, 0.99962366, -0.0005081355), (-0.9999788, 0.0064905775, -0.00050238345), (-0.9999788, 0.0064905775, -0.00050238345), (-0.002076593, -0.0016471505, -0.99999654), (-0.9999951, 0.0030637241, -0.00058352994), (-0.002076593, -0.0016471505, -0.99999654), (-0.9999788, 0.0064905775, -0.00050238345), (-0.027428458, 0.99962366, -0.0005081355), (0.0006433488, -0.059966195, 0.9982002), (-0.99979466, 0.011830383, 0.016458124), (0.064070575, -0.0014838552, 0.9979443), (0.999995, -0.0031651347, 0.00000999339), (-0.99979466, 0.011830383, 0.016458124), (0.0006433488, -0.059966195, 0.9982002), (0.999995, -0.0031651347, 0.00000999339), (0.0006433488, -0.059966195, 0.9982002), (-0.07952988, -0.9658668, 0.24652854), (-0.027428437, 0.99962366, -0.0005081479), (0.999995, -0.0031651347, 0.00000999339), (-0.07952988, -0.9658668, 0.24652854), (0.05948255, -0.0033863736, -0.9982236), (-0.9977351, 0.010051003, -0.0665123), (0.999995, -0.0031651347, 0.00000999339), (-0.9977351, 0.010051003, -0.0665123), (0.009437436, -0.066410765, -0.9977478), (0.999995, -0.0031651347, 0.00000999339), (-0.9977351, 0.010051003, -0.0665123), (0.999995, -0.0031651347, 0.00000999339), (0.009437436, -0.066410765, -0.9977478), (0.009437436, -0.066410765, -0.9977478), (0.999995, -0.0031651347, 0.00000999339), (-0.029031558, 0.9995784, -0.00049494253), (0.999875, -0.01581106, 0.00016570007), (0.0006433488, -0.059966195, 0.9982002), (0.064070575, -0.0014838552, 0.9979443), (-0.029031558, 0.9995784, -0.00049494253), (0.99988914, -0.0012447445, -0.014843529), (0.999995, -0.0031651347, 0.00000999339), (0.99988914, -0.0012447445, -0.014843529), (-0.029031558, 0.9995784, -0.00049494253), (0.999995, -0.0031651347, 0.00000999339), (0.05948255, -0.0033863736, -0.9982236), (0.9995866, -0.014452255, -0.024858959), (-0.9993732, 0.008706503, -0.034314573), (-0.9993732, 0.008706503, -0.034314573), (-0.9977351, 0.010051003, -0.0665123), (0.05948255, -0.0033863736, -0.9982236), (0.9999989, -0.0014308944, -0.00033008927), (0.999995, -0.0031651347, 0.00000999339), (0.99988914, -0.0012447445, -0.014843529), (0.999995, -0.0031651347, 0.00000999339), (0.9999989, -0.0014308944, -0.00033008927), (-0.9998867, -0.015052959, -0.00012253331), (0.9999989, -0.0014308944, -0.00033008927), (-0.9997871, -0.020635702, 0.00003618661), (-0.9998867, -0.015052959, -0.00012253331), (0.9999989, -0.0014308944, -0.00033008927), (0.9999979, -0.0014196631, 0.0014619258), (-0.9997871, -0.020635702, 0.00003618661), (0.9999979, -0.0014196631, 0.0014619258), (0.9999508, -0.0012968221, 0.009834117), (-0.9997871, -0.020635702, 0.00003618661), (0.9999508, -0.0012968221, 0.009834117), (-0.9986605, -0.016843937, 0.04892551), (-0.9997871, -0.020635702, 0.00003618661), (0.9999508, -0.0012968221, 0.009834117), (-0.027428437, 0.99962366, -0.0005081479), (-0.9986605, -0.016843937, 0.04892551), (0.9999508, -0.0012968221, 0.009834117), (0.999995, -0.0031651347, 0.00000999339), (-0.027428437, 0.99962366, -0.0005081479), (-0.99912417, 0.009716469, 0.040701997), (0.064070575, -0.0014838552, 0.9979443), (-0.99979466, 0.011830383, 0.016458124), (0.064070575, -0.0014838552, 0.9979443), (-0.99912417, 0.009716469, 0.040701997), (0.06805951, -0.0009987934, 0.99768084), (-0.029031558, 0.9995784, -0.00049494253), (-0.99995506, -0.00948142, -0.00013938147), (0.009437436, -0.066410765, -0.9977478), (-0.99988616, -0.015090535, -0.000040373325), (-0.027428437, 0.99962366, -0.0005081479), (-0.07952988, -0.9658668, 0.24652854), (0.9995866, -0.014452255, -0.024858959), (0.05948255, -0.0033863736, -0.9982236), (0.99987596, -0.015750786, -0.00011969664), (0.99987596, -0.015750786, -0.00011969664), (0.99987584, -0.015757736, -7.0294976e-7), (0.9995866, -0.014452255, -0.024858959), (0.99987596, -0.015750786, -0.00011969664), (0.999875, -0.01581106, 0.00016570007), (0.99987584, -0.015757736, -7.0294976e-7), (0.99987626, -0.015729953, 0.00035061358), (0.99987584, -0.015757736, -7.0294976e-7), (0.999875, -0.01581106, 0.00016570007), (0.064070575, -0.0014838552, 0.9979443), (0.99987626, -0.015729953, 0.00035061358), (0.999875, -0.01581106, 0.00016570007), (0.99987626, -0.015729953, 0.00035061358), (0.064070575, -0.0014838552, 0.9979443), (0.06805951, -0.0009987934, 0.99768084), (-0.99988616, -0.015090535, -0.000040373325), (-0.9986605, -0.016843937, 0.04892551), (-0.027428437, 0.99962366, -0.0005081479), (-0.9986605, -0.016843937, 0.04892551), (-0.99988616, -0.015090535, -0.000040373325), (-0.9997871, -0.020635702, 0.00003618661), (-0.99988616, -0.015090535, -0.000040373325), (-0.9998867, -0.015052959, -0.00012253331), (-0.9997871, -0.020635702, 0.00003618661), (-0.9998867, -0.015052959, -0.00012253331), (-0.99988616, -0.015090535, -0.000040373325), (-0.99995506, -0.00948142, -0.00013938147), (-0.9998867, -0.015052959, -0.00012253331), (-0.99995506, -0.00948142, -0.00013938147), (-0.029031558, 0.9995784, -0.00049494253), (-0.029031558, 0.9995784, -0.00049494253), (0.999995, -0.0031651347, 0.00000999339), (-0.9998867, -0.015052959, -0.00012253331), (0.99987584, -0.015757736, -7.0294976e-7), (-0.9993732, 0.008706503, -0.034314573), (0.9995866, -0.014452255, -0.024858959), (-0.9993732, 0.008706503, -0.034314573), (0.99987584, -0.015757736, -7.0294976e-7), (-0.9999528, 0.00972313, -0.00025172852), (0.99987584, -0.015757736, -7.0294976e-7), (-0.9998945, 0.014522802, 0.00025876678), (-0.9999528, 0.00972313, -0.00025172852), (0.99987584, -0.015757736, -7.0294976e-7), (0.99987626, -0.015729953, 0.00035061358), (-0.9998945, 0.014522802, 0.00025876678), (0.99987626, -0.015729953, 0.00035061358), (0.06805951, -0.0009987934, 0.99768084), (-0.9998945, 0.014522802, 0.00025876678), (0.06805951, -0.0009987934, 0.99768084), (-0.99912417, 0.009716469, 0.040701997), (-0.9998945, 0.014522802, 0.00025876678), (-0.046543706, 0.99891603, -0.00077054), (-0.9977351, 0.010051003, -0.0665123), (-0.9999881, 0.0048969556, -0.00021104497), (0.999995, -0.0031651347, 0.00000999339), (-0.9977351, 0.010051003, -0.0665123), (-0.046543706, 0.99891603, -0.00077054), (-0.9999881, 0.0048969556, -0.00021104497), (-0.9994451, 0.03331011, 0.00035268246), (-0.046543706, 0.99891603, -0.00077054), (-0.046543706, 0.99891603, -0.00077054), (0.058024347, 0.99831456, -0.0011457092), (0.999995, -0.0031651347, 0.00000999339), (0.999998, -0.0014253164, -0.0014472526), (0.999995, -0.0031651347, 0.00000999339), (0.058024347, 0.99831456, -0.0011457092), (0.035050295, 0.9993856, 0.0002125896), (0.058024347, 0.99831456, -0.0011457092), (-0.046543706, 0.99891603, -0.00077054), (0.035050295, 0.9993856, 0.0002125896), (0.999998, -0.0014253164, -0.0014472526), (0.058024347, 0.99831456, -0.0011457092), (0.035050295, 0.9993856, 0.0002125896), (-0.046543706, 0.99891603, -0.00077054), (-0.9994451, 0.03331011, 0.00035268246), (0.999998, -0.0014253164, -0.0014472526), (0.035050295, 0.9993856, 0.0002125896), (0.999999, -0.0014305325, 0.00040439112), (-0.99979466, 0.011830383, 0.016458124), (0.035050295, 0.9993856, 0.0002125896), (-0.9994451, 0.03331011, 0.00035268246), (0.999995, -0.0031651347, 0.00000999339), (0.999999, -0.0014305325, 0.00040439112), (0.035050295, 0.9993856, 0.0002125896), (0.035050295, 0.9993856, 0.0002125896), (-0.99979466, 0.011830383, 0.016458124), (0.999995, -0.0031651347, 0.00000999339), (0.051444463, -0.99867576, 0.00041550156), (0.0006433488, -0.059966195, 0.9982002), (0.999875, -0.01581106, 0.00016570007), (-0.07952988, -0.9658668, 0.24652854), (0.0006433488, -0.059966195, 0.9982002), (0.051444463, -0.99867576, 0.00041550156), (0.999875, -0.01581106, 0.00016570007), (0.99987596, -0.015750786, -0.00011969664), (0.051444463, -0.99867576, 0.00041550156), (0.051444463, -0.99867576, 0.00041550156), (-0.99988616, -0.015090535, -0.000040373325), (-0.07952988, -0.9658668, 0.24652854), (0.09290792, -0.9956747, 0.00033478625), (0.051444463, -0.99867576, 0.00041550156), (0.99987596, -0.015750786, -0.00011969664), (0.05948255, -0.0033863736, -0.9982236), (0.09290792, -0.9956747, 0.00033478625), (0.99987596, -0.015750786, -0.00011969664), (0.09290792, -0.9956747, 0.00033478625), (0.05948255, -0.0033863736, -0.9982236), (0.999995, -0.0031651347, 0.00000999339), (-0.090563744, -0.99589074, 0.00007921117), (-0.99988616, -0.015090535, -0.000040373325), (0.051444463, -0.99867576, 0.00041550156), (-0.090563744, -0.99589074, 0.00007921117), (0.051444463, -0.99867576, 0.00041550156), (0.09290792, -0.9956747, 0.00033478625), (0.999995, -0.0031651347, 0.00000999339), (-0.090563744, -0.99589074, 0.00007921117), (0.09290792, -0.9956747, 0.00033478625), (-0.99988616, -0.015090535, -0.000040373325), (-0.090563744, -0.99589074, 0.00007921117), (-0.99995506, -0.00948142, -0.00013938147), (-0.090563744, -0.99589074, 0.00007921117), (0.999995, -0.0031651347, 0.00000999339), (0.009437436, -0.066410765, -0.9977478), (0.009437436, -0.066410765, -0.9977478), (-0.99995506, -0.00948142, -0.00013938147), (-0.090563744, -0.99589074, 0.00007921117), (-0.9977351, 0.010051003, -0.0665123), (-0.9993732, 0.008706503, -0.034314573), (-0.9999528, 0.00972313, -0.00025172852), (-0.9999528, 0.00972313, -0.00025172852), (-0.9999881, 0.0048969556, -0.00021104497), (-0.9977351, 0.010051003, -0.0665123), (-0.9999528, 0.00972313, -0.00025172852), (-0.9994451, 0.03331011, 0.00035268246), (-0.9999881, 0.0048969556, -0.00021104497), (-0.9994451, 0.03331011, 0.00035268246), (-0.9999528, 0.00972313, -0.00025172852), (-0.9998945, 0.014522802, 0.00025876678), (-0.99912417, 0.009716469, 0.040701997), (-0.9994451, 0.03331011, 0.00035268246), (-0.9998945, 0.014522802, 0.00025876678), (-0.9994451, 0.03331011, 0.00035268246), (-0.99912417, 0.009716469, 0.040701997), (-0.99979466, 0.011830383, 0.016458124), (0.9999979, -0.0014196631, 0.0014619258), (0.999995, -0.0031651347, 0.00000999339), (0.9999508, -0.0012968221, 0.009834117), (0.999995, -0.0031651347, 0.00000999339), (0.9999979, -0.0014196631, 0.0014619258), (0.999999, -0.0014305325, 0.00040439112), (0.9999989, -0.0014308944, -0.00033008927), (0.999999, -0.0014305325, 0.00040439112), (0.9999979, -0.0014196631, 0.0014619258), (0.999999, -0.0014305325, 0.00040439112), (0.9999989, -0.0014308944, -0.00033008927), (0.999998, -0.0014253164, -0.0014472526), (0.999998, -0.0014253164, -0.0014472526), (0.9999989, -0.0014308944, -0.00033008927), (0.99988914, -0.0012447445, -0.014843529), (0.99988914, -0.0012447445, -0.014843529), (0.999995, -0.0031651347, 0.00000999339), (0.999998, -0.0014253164, -0.0014472526)] (
        interpolation = "faceVarying"
    )
    point3f[] points = [(0.0038210738, 0.013980691, -0.23315182), (-0.0016641419, 0.013858577, -0.23316653), (-0.0016392423, 0.0146920895, -0.23393078), (0.0038275418, 0.014663931, -0.23403785), (-0.0015917158, 0.069313884, -0.23406179), (0.0040524206, 0.06928718, -0.23398378), (0.0038229513, 0.014579123, -0.23190282), (-0.0017103626, 0.014482696, -0.23188482), (0.0038235835, 0.014891711, 0.23420416), (-0.0015956744, 0.06954159, 0.23417482), (-0.0016304797, 0.014726748, 0.23397678), (0.0040484634, 0.06951481, 0.23409694), (0.0038171303, 0.01420761, 0.23331876), (0.0038190288, 0.014804819, 0.2320692), (-0.0017142846, 0.014708389, 0.2320512), (0.0042083487, 0.084226005, -0.23195174), (-0.0014343233, 0.069356605, -0.23187594), (0.0042267893, 0.06940152, -0.23190472), (-0.0013630802, 0.084426336, -0.23203062), (-0.0020324637, 0.06939683, -0.2320609), (-0.0020256375, 0.084428445, -0.23203056), (-0.0051827505, 0.0695757, -0.231931), (-0.0050044735, 0.08425337, -0.23193938), (-0.0017549003, 0.03256485, -0.22082523), (-0.0018859272, 0.029541537, -0.22319333), (-0.005262029, 0.029373439, -0.22319329), (-0.005173708, 0.032427754, -0.22084706), (-0.001923354, 0.017689453, -0.23188637), (-0.005299458, 0.017521353, -0.23188633), (-0.005249458, 0.0145821385, -0.23390017), (-0.0014382448, 0.069582194, 0.23198892), (0.0041923, 0.084438115, 0.23206854), (0.004236051, 0.069640785, 0.23201607), (-0.0013670044, 0.08465205, 0.23212893), (-0.0020363885, 0.06962258, 0.23217386), (-0.0020295617, 0.08465413, 0.23212887), (-0.0051865997, 0.06980134, 0.23204371), (-0.0050131986, 0.08446418, 0.23203759), (-0.0018897022, 0.029758759, 0.22334503), (-0.0017586353, 0.032779757, 0.220974), (-0.005265804, 0.02959066, 0.22334509), (-0.0051774434, 0.032642692, 0.2209959), (-0.0019272759, 0.017915139, 0.23204963), (-0.0053033796, 0.017747032, 0.23204967), (-0.005253414, 0.014809762, 0.23406635), (0.0040518013, 0.069125675, -0.22321254), (-0.0013536806, 0.069220215, -0.22321263), (0.003975321, 0.069127664, -0.22089662), (-0.0012974367, 0.069168575, -0.22087254), (-0.0054452433, 0.03156266, -0.22121368), (-0.005259683, 0.028897332, -0.22145519), (-0.0052697863, 0.025700346, -0.2231915), (-0.0052656527, 0.014559015, -0.23188488), (-0.005306792, 0.013974749, -0.23315585), (0.003868109, 0.028878508, -0.2214836), (-0.0016167976, 0.028855594, -0.22136964), (0.0039112167, 0.025729138, -0.22322737), (-0.001675263, 0.025599577, -0.22319141), (0.0040236264, 0.08435387, -0.23399176), (-0.0013324934, 0.08441782, -0.23405878), (-0.0019848188, 0.08444969, -0.23400864), (-0.005085221, 0.06945812, -0.23400879), (-0.0050379187, 0.08440676, -0.23401606), (0.004048026, 0.06934282, 0.22332583), (-0.0013574559, 0.06943735, 0.22332573), (0.003971585, 0.069342524, 0.22100993), (-0.0013011722, 0.06938346, 0.2209857), (-0.005448985, 0.031777963, 0.22136334), (-0.005263428, 0.029112872, 0.22160746), (-0.005273561, 0.025917567, 0.22334687), (-0.0052695745, 0.014784694, 0.23205112), (-0.0053107357, 0.014201663, 0.23332264), (0.003907441, 0.025946403, 0.22338288), (-0.0016205417, 0.02907105, 0.22152203), (0.003864363, 0.029094076, 0.22163604), (-0.0016790379, 0.025816806, 0.22334695), (0.0040196693, 0.0845815, 0.23409025), (-0.001336452, 0.08464547, 0.23415716), (-0.0019887765, 0.084677316, 0.23410694), (-0.0050891787, 0.06968577, 0.23412162), (-0.0050418763, 0.08463441, 0.23411435), (-0.0019723014, 0.014086481, 0.2333335), (0.0039361212, 0.03258585, -0.2208312), (-0.0017440972, 0.015728611, 0.2339899), (0.003932386, 0.032800756, 0.22098006), (0.004106609, 0.02943317, -0.22319323), (0.004069182, 0.017581094, -0.23188627), (0.004102834, 0.0296504, 0.22334513), (0.0040652603, 0.017806787, 0.23204973), (-0.0015660935, -0.0438662, -0.23150216), (0.0016680375, -0.18316339, -0.23138416), (-0.002102203, -0.18321417, -0.23138884), (0.0020250638, -0.04395861, -0.23148388), (0.0025490604, 0.08125675, -0.2316205), (-0.001393799, 0.021349564, -0.23151365), (-0.0012358285, 0.08114684, -0.23157425), (0.002259478, 0.021344954, -0.231483), (0.0016404843, -0.18299109, 0.2317379), (-0.001604336, -0.043702718, 0.23170513), (-0.0020877852, -0.18295737, 0.23181044), (0.0020488922, -0.043721233, 0.23167455), (-0.0013855542, 0.016026603, -0.22559625), (0.002246298, 0.016054517, -0.22556154), (-0.0015622772, -0.038379893, 0.22578768), (0.0020693247, -0.038430806, 0.22575307), (-0.0015230805, 0.009147994, -0.21958926), (0.0022715135, 0.00913598, -0.21958923), (-0.0015531745, -0.00034445195, -0.21506947), (0.0022414231, -0.00035646243, -0.21506944), (-0.0015878037, -0.011280187, -0.21346521), (0.002206794, -0.011292199, -0.21346518), (-0.0016224058, -0.022217458, -0.21505888), (0.0021721919, -0.022229468, -0.21505885), (0.0021421595, -0.03172632, -0.21956936), (-0.001652436, -0.03171431, -0.21956939), (-0.0015584617, -0.03859949, -0.2255697), (0.0020731397, -0.03865037, -0.22553493), (0.002242483, 0.01627405, 0.22572646), (-0.0013977147, 0.021574872, 0.23167334), (-0.0013893698, 0.016246155, 0.22576112), (0.002204663, 0.021537255, 0.23170006), (0.0025663222, 0.081486665, 0.23170823), (-0.0012693261, 0.08138745, 0.23161893), (0.0022677993, 0.009349724, 0.21976086), (0.0022377854, -0.00014711522, 0.21525033), (-0.0015267946, 0.009361727, 0.2197608), (-0.0015568122, -0.00013510474, 0.21525028), (0.0022031832, -0.011084377, 0.21365671), (-0.0015914143, -0.0110723665, 0.21365666), (0.002168554, -0.022020103, 0.21526098), (-0.0016260436, -0.022008093, 0.21526094), (0.0021384456, -0.031512566, 0.21978073), (-0.00165615, -0.031500556, 0.21978068), (0.0018185328, -0.18215133, -0.23031457), (0.0018146358, -0.18192707, 0.23067231), (0.0022500637, -0.044357743, 0.23063934), (0.0022539613, -0.04458206, -0.23041545), (0.002270192, -0.039436582, -0.22484264), (0.0022928582, -0.03225611, -0.21874997), (0.0022663886, -0.039217684, 0.22506154), (0.002425566, 0.009665604, -0.21877037), (0.0023591686, -0.011292205, -0.21248712), (0.0023946976, -0.000072317955, -0.21413292), (0.0023236673, -0.022513675, -0.21412201), (0.0023910757, 0.00013612537, 0.21431349), (0.0023200454, -0.02230521, 0.21432444), (0.0023555746, -0.011085335, 0.21267863), (0.002289158, -0.032043144, 0.2189619), (0.0024218657, 0.0098785395, 0.21894151), (0.0024445273, 0.017058987, 0.22503416), (0.0024483309, 0.016840149, -0.22487001), (0.0024604853, 0.02211961, 0.23101757), (0.0024646556, 0.021980211, -0.23044729), (0.0026446246, 0.08029977, 0.23054476), (0.002648522, 0.080075614, -0.23044214), (-0.0018450281, -0.04445591, -0.23096335), (-0.002280825, -0.18213835, -0.23031461), (-0.0018492894, -0.044344775, 0.2306393), (-0.0022847222, -0.18191409, 0.23067227), (-0.0018291613, -0.039423607, -0.22484268), (-0.0018064998, -0.032243136, -0.21875001), (-0.0018329646, -0.039204717, 0.2250615), (-0.0016737919, 0.009678579, -0.21877041), (-0.0017401942, -0.01127923, -0.21248715), (-0.001704665, -0.000059342856, -0.21413296), (-0.0017756954, -0.0225007, -0.21412206), (-0.0017082869, 0.00014910047, 0.21431345), (-0.0017793173, -0.022292234, 0.2143244), (-0.0017437882, -0.01107236, 0.21267858), (-0.0018101999, -0.03203017, 0.21896185), (-0.0016774922, 0.009891515, 0.21894147), (-0.0014547334, 0.080312744, 0.23054472), (-0.0016386, 0.022217462, 0.23060639), (-0.0016548306, 0.017071962, 0.22503413), (-0.0016510272, 0.016853124, -0.22487006), (-0.0016347024, 0.021993186, -0.23044734), (-0.0014508361, 0.08008859, -0.23044217), (-0.0029517086, 0.082541406, 0.23193096), (-0.0034388325, 0.08185474, 0.23193656), (0.002256123, 0.082524925, 0.231931), (-0.003338017, 0.08191047, -0.23182987), (-0.0026409382, 0.08243285, -0.23184982), (0.002260044, 0.082299404, -0.23183055), (-0.0032948423, 0.082103826, 0.23066647), (0.0027484177, 0.0696549, -0.23183168), (-0.003498727, 0.06967951, -0.23182803), (0.0045404932, 0.06962735, -0.23055966), (0.0027158775, 0.06961812, -0.23055968), (0.002711978, 0.069842406, 0.23067248), (0.004536594, 0.06985162, 0.2306725), (0.002727103, 0.06988529, 0.23194072), (-0.003503069, 0.06989331, 0.23192896), (0.0026004054, 0.08186091, -0.23056564), (0.002457213, 0.08218561, 0.23066647), (-0.0032909429, 0.081879556, -0.2305657), (-0.003483872, 0.069637746, -0.23055974), (-0.0034877674, 0.06986202, 0.23067242), (-0.005308393, 0.069658525, -0.23055977), (-0.0053122924, 0.069882795, 0.23067239), (-0.0045362585, 0.084579535, -0.23056702), (-0.0052377605, 0.084081784, -0.23056678), (-0.0051013594, 0.084405646, 0.23066533), (0.00386279, 0.08455295, -0.23056693), (0.0045611295, 0.084050775, -0.23056668), (0.0038588906, 0.084777236, 0.23066522), (0.00455723, 0.08427509, 0.23066548), (-0.0025952049, 0.08260156, 0.23066624), (-0.0025913056, 0.08237728, -0.23056594), (0.00190394, 0.08236305, -0.23056589)]
}

