#usda 1.0
(
    defaultPrim = "SM_Handle_Door2"
    upAxis = "Z"
)

def Mesh "SM_Handle_Door2"
{
    int[] faceVertexCounts = [3, 3, 3, 3, 3, 3, 3, 3, 3, 3, 3, 3, 3, 3, 3, 3, 3, 3, 3, 3, 3, 3, 3, 3, 3, 3, 3, 3, 3, 3, 3, 3, 3, 3, 3, 3, 3, 3, 3, 3, 3, 3, 3, 3, 3, 3, 3, 3, 3, 3, 3, 3, 3, 3, 3, 3, 3, 3, 3, 3, 3, 3, 3, 3, 3, 3, 3, 3, 3, 3, 3, 3, 3, 3, 3, 3, 3, 3, 3, 3, 3, 3, 3, 3, 3, 3, 3, 3, 3, 3, 3, 3, 3, 3, 3, 3, 3, 3, 3, 3, 3, 3, 3, 3, 3, 3, 3, 3, 3, 3, 3, 3, 3, 3, 3, 3, 3, 3, 3, 3, 3, 3, 3, 3, 3, 3, 3, 3, 3, 3, 3, 3, 3, 3, 3, 3, 3, 3, 3, 3, 3, 3, 3, 3, 3, 3, 3, 3, 3, 3, 3, 3, 3, 3, 3, 3, 3, 3, 3, 3, 3, 3, 3, 3, 3, 3, 3, 3, 3, 3, 3, 3, 3, 3, 3, 3, 3, 3, 3, 3, 3, 3, 3, 3, 3, 3, 3, 3, 3, 3, 3, 3, 3, 3, 3, 3, 3, 3, 3, 3, 3, 3, 3, 3, 3, 3, 3, 3, 3, 3, 3, 3, 3, 3, 3, 3, 3, 3, 3, 3, 3, 3, 3, 3, 3, 3, 3, 3, 3, 3, 3, 3, 3, 3, 3, 3, 3, 3, 3, 3, 3, 3, 3, 3, 3, 3, 3, 3, 3, 3, 3, 3, 3, 3, 3, 3, 3, 3, 3, 3, 3, 3, 3, 3, 3, 3, 3, 3, 3, 3, 3, 3, 3, 3, 3, 3, 3, 3, 3, 3, 3, 3, 3, 3, 3, 3, 3, 3, 3, 3, 3, 3, 3, 3, 3, 3, 3, 3, 3, 3, 3, 3, 3, 3, 3, 3, 3, 3, 3, 3, 3, 3, 3, 3, 3, 3, 3, 3, 3, 3, 3, 3, 3, 3, 3, 3, 3, 3, 3, 3, 3, 3, 3, 3, 3, 3, 3, 3, 3, 3, 3, 3, 3, 3, 3, 3, 3, 3, 3, 3, 3, 3, 3, 3, 3, 3, 3, 3, 3, 3, 3, 3, 3, 3, 3, 3, 3, 3, 3, 3, 3, 3, 3, 3, 3, 3, 3, 3, 3, 3, 3, 3, 3, 3, 3, 3, 3, 3, 3, 3, 3, 3, 3, 3, 3, 3, 3, 3, 3, 3, 3, 3, 3, 3, 3, 3, 3, 3]
    int[] faceVertexIndices = [0, 1, 2, 1, 0, 3, 4, 5, 6, 5, 4, 7, 8, 9, 10, 9, 8, 11, 12, 13, 14, 13, 12, 15, 16, 17, 18, 17, 16, 19, 20, 21, 22, 23, 22, 21, 24, 25, 26, 25, 24, 27, 28, 29, 30, 29, 31, 30, 32, 33, 34, 33, 32, 35, 36, 37, 38, 37, 36, 39, 40, 41, 42, 41, 40, 43, 44, 45, 46, 46, 45, 47, 48, 49, 50, 50, 49, 51, 52, 53, 54, 54, 53, 55, 55, 56, 54, 56, 55, 57, 58, 56, 57, 56, 58, 59, 60, 59, 58, 59, 60, 61, 62, 63, 64, 64, 63, 65, 64, 65, 66, 66, 65, 67, 68, 69, 70, 71, 70, 69, 70, 71, 72, 73, 72, 71, 74, 72, 73, 72, 74, 75, 76, 77, 78, 77, 79, 78, 78, 79, 80, 79, 81, 80, 80, 81, 82, 79, 83, 81, 81, 84, 82, 81, 85, 84, 85, 81, 83, 85, 86, 84, 83, 87, 85, 87, 83, 88, 85, 89, 86, 89, 85, 87, 86, 90, 91, 90, 86, 89, 89, 92, 90, 92, 89, 93, 87, 93, 89, 93, 87, 94, 88, 94, 87, 94, 95, 93, 94, 88, 96, 96, 97, 94, 95, 94, 97, 97, 96, 98, 99, 97, 98, 100, 95, 97, 97, 99, 100, 95, 100, 101, 102, 100, 99, 103, 101, 100, 100, 102, 103, 101, 103, 104, 103, 105, 104, 102, 106, 103, 105, 103, 106, 106, 102, 107, 108, 106, 107, 109, 105, 106, 106, 108, 109, 105, 109, 110, 108, 111, 109, 109, 111, 112, 110, 109, 112, 111, 113, 112, 110, 112, 114, 110, 114, 115, 115, 114, 116, 112, 117, 114, 113, 117, 112, 117, 118, 114, 117, 119, 118, 113, 120, 117, 119, 117, 120, 120, 113, 121, 120, 122, 119, 121, 123, 120, 122, 120, 123, 123, 121, 124, 125, 123, 124, 126, 123, 125, 126, 122, 123, 127, 122, 126, 128, 129, 130, 129, 128, 131, 132, 131, 128, 131, 132, 133, 134, 133, 132, 133, 134, 135, 136, 137, 138, 137, 136, 139, 136, 140, 139, 139, 140, 141, 142, 140, 143, 140, 142, 144, 140, 144, 141, 144, 145, 141, 144, 146, 145, 146, 144, 147, 147, 148, 146, 148, 147, 149, 150, 148, 149, 151, 148, 150, 152, 153, 154, 153, 152, 155, 155, 156, 153, 156, 155, 157, 157, 158, 156, 158, 157, 159, 160, 159, 157, 159, 160, 161, 159, 162, 158, 163, 158, 162, 162, 164, 163, 164, 165, 163, 164, 166, 165, 166, 164, 167, 168, 169, 170, 169, 168, 171, 171, 172, 169, 172, 171, 173, 172, 174, 175, 174, 172, 176, 173, 176, 172, 176, 173, 177, 177, 178, 176, 179, 176, 178, 178, 180, 179, 180, 181, 179, 180, 182, 181, 182, 180, 183, 184, 185, 186, 185, 184, 187, 188, 187, 184, 187, 188, 189, 190, 189, 188, 189, 191, 187, 189, 190, 192, 192, 193, 189, 191, 189, 193, 193, 192, 194, 193, 195, 191, 195, 196, 191, 194, 197, 193, 197, 195, 193, 198, 199, 194, 199, 197, 194, 199, 200, 197, 197, 200, 201, 195, 197, 201, 195, 202, 196, 195, 201, 202, 196, 202, 203, 204, 202, 201, 205, 203, 202, 202, 204, 205, 203, 205, 206, 205, 207, 206, 204, 208, 205, 207, 205, 208, 208, 204, 209, 210, 207, 208, 209, 210, 208, 210, 209, 211, 207, 210, 212, 213, 210, 211, 214, 212, 210, 210, 213, 214, 212, 214, 215, 214, 216, 215, 213, 217, 214, 216, 214, 217, 217, 213, 218, 217, 219, 216, 218, 220, 217, 219, 217, 220, 220, 218, 221, 220, 222, 219, 221, 223, 220, 222, 220, 223, 223, 221, 224, 225, 223, 224, 223, 226, 222, 225, 226, 223, 227, 222, 226, 225, 228, 226, 226, 229, 227, 228, 229, 226, 229, 230, 227, 229, 231, 230, 231, 229, 232, 228, 232, 229, 232, 228, 233, 234, 235, 236, 235, 234, 237, 238, 237, 234, 237, 238, 239, 239, 240, 237, 240, 239, 241, 239, 242, 241, 242, 239, 243, 238, 243, 239, 243, 238, 244, 244, 245, 243, 245, 244, 246, 247, 248, 249, 249, 248, 250, 248, 251, 250, 251, 248, 252, 252, 253, 251, 253, 252, 254, 255, 253, 256, 253, 254, 256, 256, 254, 257, 254, 258, 257, 259, 260, 261, 260, 259, 262, 262, 263, 260, 263, 264, 260, 263, 262, 265, 266, 265, 262, 264, 263, 267, 267, 268, 264, 265, 266, 269, 270, 269, 266, 268, 267, 271, 271, 272, 268, 272, 271, 273, 271, 274, 273, 274, 271, 275, 267, 275, 271, 275, 267, 276, 263, 276, 267, 276, 263, 277, 263, 278, 277, 278, 263, 265, 278, 279, 277, 279, 278, 280, 265, 281, 278, 281, 265, 269, 269, 282, 281, 282, 269, 283, 269, 270, 283, 283, 284, 282, 285, 283, 270, 284, 283, 286, 283, 285, 286, 287, 288, 289, 288, 287, 290, 287, 291, 290, 291, 287, 292, 292, 293, 291, 293, 292, 294, 294, 295, 293, 295, 294, 296, 296, 297, 295, 298, 295, 297, 299, 300, 301, 300, 299, 302, 299, 303, 302, 303, 299, 304, 305, 306, 307, 306, 305, 308, 309, 306, 308, 306, 309, 310, 311, 312, 313, 312, 311, 314, 315, 312, 314, 312, 315, 316, 317, 316, 315, 318, 316, 317, 318, 317, 319, 320, 318, 319, 319, 321, 320, 321, 319, 322, 323, 324, 325, 324, 323, 326, 323, 327, 326, 327, 323, 328, 329, 330, 331, 330, 329, 332, 332, 329, 333, 329, 334, 333, 335, 336, 337, 336, 335, 338, 338, 339, 336, 340, 338, 335, 339, 338, 341, 338, 340, 342, 342, 341, 338, 341, 342, 343, 344, 345, 346, 346, 345, 347, 346, 347, 348, 345, 349, 347, 348, 347, 350, 347, 349, 351, 347, 351, 350, 350, 351, 352, 353, 354, 355, 356, 355, 354, 357, 358, 355, 355, 356, 359, 359, 357, 355, 360, 356, 361, 362, 357, 359, 357, 362, 363, 364, 359, 356, 356, 360, 364, 359, 364, 362, 365, 364, 360, 365, 362, 364, 366, 365, 360, 367, 362, 365, 362, 367, 368, 369, 370, 371, 372, 371, 370, 373, 374, 371, 371, 372, 375, 375, 373, 371, 376, 375, 372, 377, 375, 376, 378, 373, 375, 375, 377, 378, 373, 378, 379, 380, 378, 377, 378, 380, 381, 382, 383, 384, 383, 385, 386, 383, 382, 387, 385, 383, 387, 388, 387, 382, 387, 389, 385, 387, 388, 390, 389, 387, 390, 391, 390, 388, 390, 392, 389, 390, 391, 393, 392, 390, 393, 394, 395, 396, 396, 397, 398, 395, 399, 396, 397, 396, 399, 395, 400, 399, 399, 401, 397, 400, 402, 399, 401, 399, 402, 400, 403, 402, 402, 404, 401, 403, 405, 402, 404, 402, 405, 406, 407, 408, 406, 409, 410, 407, 406, 411, 411, 406, 410, 411, 412, 407, 411, 410, 413, 412, 411, 414, 414, 411, 413, 415, 416, 417, 417, 418, 419, 416, 420, 417, 418, 417, 420, 416, 421, 420, 420, 422, 418, 421, 423, 420, 422, 420, 423, 424, 425, 426, 424, 427, 428, 425, 424, 429, 429, 424, 428, 429, 430, 425, 429, 428, 431, 430, 429, 432, 432, 429, 431, 433, 434, 435, 436, 433, 437, 434, 433, 438, 433, 436, 438, 438, 439, 434, 440, 438, 436, 439, 438, 441, 438, 440, 441]
    normal3f[] normals = [(0.70709324, -0.6863497, -0.17012759), (0.70709324, -0.6863497, -0.17012759), (0.70709324, -0.6863497, -0.17012759), (0.70709324, -0.6863497, -0.17012759), (0.70709324, -0.6863497, -0.17012759), (0.70709324, -0.6863497, -0.17012759), (0.7070739, 0.7070671, 0.010137329), (0.7070739, 0.7070671, 0.010137329), (0.7070739, 0.7070671, 0.010137329), (0.7070739, 0.7070671, 0.010137329), (0.7070739, 0.7070671, 0.010137329), (0.7070739, 0.7070671, 0.010137329), (0.7070739, -0.7070671, -0.010137329), (0.7070739, -0.7070671, -0.010137329), (0.7070739, -0.7070671, -0.010137329), (0.7070739, -0.7070671, -0.010137329), (0.7070739, -0.7070671, -0.010137329), (0.7070739, -0.7070671, -0.010137329), (-0.7070739, -0.7070671, -0.010137329), (-0.7070739, -0.7070671, -0.010137329), (-0.7070739, -0.7070671, -0.010137329), (-0.7070739, -0.7070671, -0.010137329), (-0.7070739, -0.7070671, -0.010137329), (-0.7070739, -0.7070671, -0.010137329), (-0.7070739, 0.7070671, 0.010137329), (-0.7070739, 0.7070671, 0.010137329), (-0.70707965, 0.7070627, 0.010037923), (-0.7070739, 0.7070671, 0.010137329), (-0.7070739, 0.7070671, 0.010137329), (-0.7070739, 0.7070671, 0.010137329), (0.7071205, -0.3176738, 0.63171524), (0.7071205, -0.3176738, 0.63171524), (0.7071205, -0.3176738, 0.63171524), (0.7071205, -0.3176738, 0.63171524), (0.7071205, -0.3176738, 0.63171524), (0.7071205, -0.3176738, 0.63171524), (-0.7071205, -0.3176738, 0.63171524), (-0.7071205, -0.3176738, 0.63171524), (-0.7071205, -0.3176738, 0.63171524), (-0.7071205, -0.3176738, 0.63171524), (-0.7071205, -0.3176738, 0.63171524), (-0.7071205, -0.3176738, 0.63171524), (0.70709324, -0.17012759, 0.6863497), (0.70709324, -0.17012759, 0.6863497), (0.70709324, -0.17012759, 0.6863497), (0.70709324, -0.17012759, 0.6863497), (0.70709324, -0.17012759, 0.6863497), (0.70709324, -0.17012759, 0.6863497), (-0.70709324, -0.17012759, 0.6863497), (-0.70709324, -0.17012759, 0.6863497), (-0.70709324, -0.17012759, 0.6863497), (-0.70709324, -0.17012759, 0.6863497), (-0.70709324, -0.17012759, 0.6863497), (-0.70709324, -0.17012759, 0.6863497), (0.7070739, 0.010137329, -0.7070671), (0.7071293, 0.010048662, -0.70701295), (0.7070739, 0.010137329, -0.7070671), (0.7071293, 0.010048662, -0.70701295), (0.7070739, 0.010137329, -0.7070671), (0.7071293, 0.010048662, -0.70701295), (0.70707965, -0.010037923, 0.7070627), (0.70707965, -0.010037923, 0.7070627), (0.70707965, -0.010037923, 0.7070627), (0.70707965, -0.010037923, 0.7070627), (0.70707965, -0.010037923, 0.7070627), (0.70707965, -0.010037923, 0.7070627), (-0.7071293, -0.010048662, 0.70701295), (-0.70707965, -0.010037923, 0.7070627), (-0.7071293, -0.010048662, 0.70701295), (-0.7071293, -0.010048662, 0.70701295), (-0.70707965, -0.010037923, 0.7070627), (-0.70707965, -0.010037923, 0.7070627), (-0.7071293, 0.010048662, -0.70701295), (-0.7070739, 0.010137329, -0.7070671), (-0.7071293, 0.010048662, -0.70701295), (-0.7071293, 0.010048662, -0.70701295), (-0.7070739, 0.010137329, -0.7070671), (-0.7070739, 0.010137329, -0.7070671), (0.7071068, 0.07101493, 0.70353174), (0.7071068, 0.07101493, 0.70353174), (0.500011, 0.08697453, 0.8616406), (0.500011, 0.08697453, 0.8616406), (0.7071068, 0.07101493, 0.70353174), (0.49589124, 0.08721211, 0.8639942), (0.49589124, 0.08721211, 0.8639942), (-5.551115e-17, 0.10043027, 0.9949441), (0.500011, 0.08697453, 0.8616406), (-5.551115e-17, 0.10043027, 0.9949441), (0.49589124, 0.08721211, 0.8639942), (-5.551115e-17, 0.10043027, 0.9949441), (-0.49589124, 0.08721211, 0.8639942), (-5.551115e-17, 0.10043027, 0.9949441), (-5.551115e-17, 0.10043027, 0.9949441), (-5.551115e-17, 0.10043027, 0.9949441), (-0.49589124, 0.08721211, 0.8639942), (-0.500011, 0.08697453, 0.8616406), (-0.7071068, 0.07101493, 0.70353174), (-0.500011, 0.08697453, 0.8616406), (-0.49589124, 0.08721211, 0.8639942), (-0.500011, 0.08697453, 0.8616406), (-0.7071068, 0.07101493, 0.70353174), (-0.7071068, 0.07101493, 0.70353174), (0.9659289, -0.025992133, -0.25749925), (0.9659289, -0.025992133, -0.25749925), (1, 0, 0), (1, 0, 0), (0.9659289, -0.025992133, -0.25749925), (0.99995494, 0.0009540445, 0.009451542), (1, 0, 0), (0.99995494, 0.0009540445, 0.009451542), (0.9659289, 0.025992133, 0.25749925), (0.9659289, 0.025992133, 0.25749925), (0.99995494, 0.0009540445, 0.009451542), (0.9659289, 0.025992133, 0.25749925), (0.7071068, -0.07101493, -0.70353174), (0.7071068, -0.07101493, -0.70353174), (0.50407624, -0.08673753, -0.8592926), (0.500011, -0.08697453, -0.8616406), (0.50407624, -0.08673753, -0.8592926), (0.7071068, -0.07101493, -0.70353174), (0.50407624, -0.08673753, -0.8592926), (0.500011, -0.08697453, -0.8616406), (5.551115e-17, -0.10043027, -0.9949441), (5.551115e-17, -0.10043027, -0.9949441), (5.551115e-17, -0.10043027, -0.9949441), (0.500011, -0.08697453, -0.8616406), (-0.25880775, -0.097008504, -0.96104527), (5.551115e-17, -0.10043027, -0.9949441), (5.551115e-17, -0.10043027, -0.9949441), (5.551115e-17, -0.10043027, -0.9949441), (-0.25880775, -0.097008504, -0.96104527), (-0.25880775, -0.097008504, -0.96104527), (0.70709324, 0.17012759, -0.6863497), (0.70709324, 0.17012759, -0.6863497), (0.8576584, 0.12368997, -0.49912223), (0.70709324, 0.17012759, -0.6863497), (0.90155315, 0.12234871, -0.41500938), (0.8576584, 0.12368997, -0.49912223), (0.8576584, 0.12368997, -0.49912223), (0.90155315, 0.12234871, -0.41500938), (0.9998235, 0.0044906377, -0.01824365), (0.90155315, 0.12234871, -0.41500938), (0.9998335, 0.0063127084, -0.017121099), (0.9998235, 0.0044906377, -0.01824365), (0.9998235, 0.0044906377, -0.01824365), (0.9998335, 0.0063127084, -0.017121099), (0.9659211, -0.062285624, 0.25123087), (0.90155315, 0.12234871, -0.41500938), (0.966311, 0.14002118, -0.2159565), (0.9998335, 0.0063127084, -0.017121099), (0.9998335, 0.0063127084, -0.017121099), (0.96633166, -0.08932167, 0.24129814), (0.9659211, -0.062285624, 0.25123087), (0.9998335, 0.0063127084, -0.017121099), (0.99983925, 0.009737732, -0.015054627), (0.96633166, -0.08932167, 0.24129814), (0.99983925, 0.009737732, -0.015054627), (0.9998335, 0.0063127084, -0.017121099), (0.966311, 0.14002118, -0.2159565), (0.99983925, 0.009737732, -0.015054627), (0.91327137, -0.24178971, 0.327831), (0.96633166, -0.08932167, 0.24129814), (0.966311, 0.14002118, -0.2159565), (0.99983925, 0.012804901, -0.01254989), (0.99983925, 0.009737732, -0.015054627), (0.99983925, 0.012804901, -0.01254989), (0.966311, 0.14002118, -0.2159565), (0.966311, 0.18361759, -0.18035443), (0.99983925, 0.009737732, -0.015054627), (0.8749036, -0.34546095, 0.33941203), (0.91327137, -0.24178971, 0.327831), (0.8749036, -0.34546095, 0.33941203), (0.99983925, 0.009737732, -0.015054627), (0.99983925, 0.012804901, -0.01254989), (0.91327137, -0.24178971, 0.327831), (0.7092271, -0.50283915, 0.49411532), (0.70710343, -0.4472591, 0.54768986), (0.7092271, -0.50283915, 0.49411532), (0.91327137, -0.24178971, 0.327831), (0.8749036, -0.34546095, 0.33941203), (0.8749036, -0.34546095, 0.33941203), (0.7071205, -0.55548644, 0.43751067), (0.7092271, -0.50283915, 0.49411532), (0.7071205, -0.55548644, 0.43751067), (0.8749036, -0.34546095, 0.33941203), (0.9133925, -0.332021, 0.23553415), (0.99983925, 0.012804901, -0.01254989), (0.9133925, -0.332021, 0.23553415), (0.8749036, -0.34546095, 0.33941203), (0.9133925, -0.332021, 0.23553415), (0.99983925, 0.012804901, -0.01254989), (0.9998335, 0.0155141605, -0.009606931), (0.966311, 0.18361759, -0.18035443), (0.9998335, 0.0155141605, -0.009606931), (0.99983925, 0.012804901, -0.01254989), (0.9998335, 0.0155141605, -0.009606931), (0.96634436, -0.24336949, 0.08336584), (0.9133925, -0.332021, 0.23553415), (0.9998335, 0.0155141605, -0.009606931), (0.966311, 0.18361759, -0.18035443), (0.96633166, 0.21858007, -0.13574207), (0.96633166, 0.21858007, -0.13574207), (0.9998252, 0.017676579, -0.0061062444), (0.9998335, 0.0155141605, -0.009606931), (0.96634436, -0.24336949, 0.08336584), (0.9998335, 0.0155141605, -0.009606931), (0.9998252, 0.017676579, -0.0061062444), (0.9998252, 0.017676579, -0.0061062444), (0.96633166, 0.21858007, -0.13574207), (0.96634436, 0.24336949, -0.08336584), (0.9660295, 0.255217, -0.040637422), (0.9998252, 0.017676579, -0.0061062444), (0.96634436, 0.24336949, -0.08336584), (0.9999558, 0.009301848, -0.0014414529), (0.96634436, -0.24336949, 0.08336584), (0.9998252, 0.017676579, -0.0061062444), (0.9998252, 0.017676579, -0.0061062444), (0.9660295, 0.255217, -0.040637422), (0.9999558, 0.009301848, -0.0014414529), (0.96634436, -0.24336949, 0.08336584), (0.9999558, 0.009301848, -0.0014414529), (0.9660295, -0.255217, 0.040637422), (0.9660295, 0.2581898, -0.011186177), (0.9999558, 0.009301848, -0.0014414529), (0.9660295, 0.255217, -0.040637422), (0.9999558, 0.009402274, -0.00044655276), (0.9660295, -0.255217, 0.040637422), (0.9999558, 0.009301848, -0.0014414529), (0.9999558, 0.009301848, -0.0014414529), (0.9660295, 0.2581898, -0.011186177), (0.9999558, 0.009402274, -0.00044655276), (0.9660295, -0.255217, 0.040637422), (0.9999558, 0.009402274, -0.00044655276), (0.9660295, -0.2581898, 0.011186177), (0.9999558, 0.009402274, -0.00044655276), (0.96634436, -0.25512037, -0.033047963), (0.9660295, -0.2581898, 0.011186177), (0.9660295, 0.2581898, -0.011186177), (0.9998252, 0.0185403, 0.0024504901), (0.9999558, 0.009402274, -0.00044655276), (0.96634436, -0.25512037, -0.033047963), (0.9999558, 0.009402274, -0.00044655276), (0.9998252, 0.0185403, 0.0024504901), (0.9998252, 0.0185403, 0.0024504901), (0.9660295, 0.2581898, -0.011186177), (0.96634436, 0.25512037, 0.033047963), (0.96633166, 0.24129814, 0.08932167), (0.9998252, 0.0185403, 0.0024504901), (0.96634436, 0.25512037, 0.033047963), (0.9998335, 0.017121099, 0.0063127084), (0.96634436, -0.25512037, -0.033047963), (0.9998252, 0.0185403, 0.0024504901), (0.9998252, 0.0185403, 0.0024504901), (0.96633166, 0.24129814, 0.08932167), (0.9998335, 0.017121099, 0.0063127084), (0.96634436, -0.25512037, -0.033047963), (0.9998335, 0.017121099, 0.0063127084), (0.9133925, -0.37239364, -0.1644301), (0.96633166, 0.24129814, 0.08932167), (0.966311, 0.2159565, 0.14002118), (0.9998335, 0.017121099, 0.0063127084), (0.9998335, 0.017121099, 0.0063127084), (0.966311, 0.2159565, 0.14002118), (0.99983925, 0.015054627, 0.009737732), (0.9133925, -0.37239364, -0.1644301), (0.9998335, 0.017121099, 0.0063127084), (0.99983925, 0.015054627, 0.009737732), (0.966311, 0.2159565, 0.14002118), (0.966311, 0.18035443, 0.18361759), (0.99983925, 0.015054627, 0.009737732), (0.9133925, -0.37239364, -0.1644301), (0.99983925, 0.015054627, 0.009737732), (0.9132821, -0.35444325, -0.20071335), (0.9133925, -0.37239364, -0.1644301), (0.9132821, -0.35444325, -0.20071335), (0.7071205, -0.63171524, -0.3176738), (0.7071205, -0.63171524, -0.3176738), (0.9132821, -0.35444325, -0.20071335), (0.7071205, -0.63171524, -0.3176738), (0.99983925, 0.015054627, 0.009737732), (0.99983925, 0.01254989, 0.012804901), (0.9132821, -0.35444325, -0.20071335), (0.966311, 0.18035443, 0.18361759), (0.99983925, 0.01254989, 0.012804901), (0.99983925, 0.015054627, 0.009737732), (0.99983925, 0.01254989, 0.012804901), (0.966311, -0.18035443, -0.18361759), (0.9132821, -0.35444325, -0.20071335), (0.99983925, 0.01254989, 0.012804901), (0.96633166, -0.13574207, -0.21858007), (0.966311, -0.18035443, -0.18361759), (0.966311, 0.18035443, 0.18361759), (0.9998335, 0.009606931, 0.0155141605), (0.99983925, 0.01254989, 0.012804901), (0.96633166, -0.13574207, -0.21858007), (0.99983925, 0.01254989, 0.012804901), (0.9998335, 0.009606931, 0.0155141605), (0.9998335, 0.009606931, 0.0155141605), (0.966311, 0.18035443, 0.18361759), (0.96633166, 0.13574207, 0.21858007), (0.9998335, 0.009606931, 0.0155141605), (0.96634436, -0.08336584, -0.24336949), (0.96633166, -0.13574207, -0.21858007), (0.96633166, 0.13574207, 0.21858007), (0.9998252, 0.0061062444, 0.017676579), (0.9998335, 0.009606931, 0.0155141605), (0.96634436, -0.08336584, -0.24336949), (0.9998335, 0.009606931, 0.0155141605), (0.9998252, 0.0061062444, 0.017676579), (0.9998252, 0.0061062444, 0.017676579), (0.96633166, 0.13574207, 0.21858007), (0.96634436, 0.08336584, 0.24336949), (0.96592647, 0.05537198, 0.25282428), (0.9998252, 0.0061062444, 0.017676579), (0.96634436, 0.08336584, 0.24336949), (0.9999553, 0.002038392, 0.009241588), (0.9998252, 0.0061062444, 0.017676579), (0.96592647, 0.05537198, 0.25282428), (0.9999553, 0.002038392, 0.009241588), (0.96634436, -0.08336584, -0.24336949), (0.9998252, 0.0061062444, 0.017676579), (0.96592647, -0.05537198, -0.25282428), (0.96634436, -0.08336584, -0.24336949), (0.9999553, 0.002038392, 0.009241588), (-0.86601907, -0.050216243, -0.49748302), (-0.7071068, -0.07101493, -0.70353174), (-0.7071068, -0.07101493, -0.70353174), (-0.7071068, -0.07101493, -0.70353174), (-0.86601907, -0.050216243, -0.49748302), (-0.8700894, -0.049501482, -0.490402), (-1, 0, -0), (-0.8700894, -0.049501482, -0.490402), (-0.86601907, -0.050216243, -0.49748302), (-0.8700894, -0.049501482, -0.490402), (-1, 0, -0), (-0.99995494, 0.0009540445, 0.009451542), (-0.9659289, 0.025992133, 0.25749925), (-0.99995494, 0.0009540445, 0.009451542), (-1, 0, -0), (-0.99995494, 0.0009540445, 0.009451542), (-0.9659289, 0.025992133, 0.25749925), (-0.9659289, 0.025992133, 0.25749925), (0.70929116, 0.66110367, 0.2446382), (0.70709324, 0.6863497, 0.17012759), (0.70709324, 0.6863497, 0.17012759), (0.70709324, 0.6863497, 0.17012759), (0.70929116, 0.66110367, 0.2446382), (0.70929116, 0.66110367, 0.2446382), (0.70929116, 0.66110367, 0.2446382), (0.5702253, 0.66775733, 0.47848016), (0.70929116, 0.66110367, 0.2446382), (0.70929116, 0.66110367, 0.2446382), (0.5702253, 0.66775733, 0.47848016), (0.70918804, 0.59150904, 0.38362667), (0.25880578, 0.7481574, 0.61096656), (0.5702253, 0.66775733, 0.47848016), (0.25880578, 0.7481574, 0.61096656), (0.5702253, 0.66775733, 0.47848016), (0.25880578, 0.7481574, 0.61096656), (0.5702253, 0.602276, 0.55866516), (0.5702253, 0.66775733, 0.47848016), (0.5702253, 0.602276, 0.55866516), (0.70918804, 0.59150904, 0.38362667), (0.5702253, 0.602276, 0.55866516), (0.70918804, 0.49409813, 0.502911), (0.70918804, 0.59150904, 0.38362667), (0.5702253, 0.602276, 0.55866516), (0.70929116, 0.37182152, 0.59887785), (0.70918804, 0.49409813, 0.502911), (0.70929116, 0.37182152, 0.59887785), (0.5702253, 0.602276, 0.55866516), (0.70929116, 0.37182152, 0.59887785), (0.70929116, 0.37182152, 0.59887785), (0.7093797, 0.22831884, 0.66682166), (0.70929116, 0.37182152, 0.59887785), (0.7093797, 0.22831884, 0.66682166), (0.70929116, 0.37182152, 0.59887785), (0.7093797, 0.22831884, 0.66682166), (0.7071293, 0.15113898, 0.69074255), (0.7093797, 0.22831884, 0.66682166), (0.7093797, 0.22831884, 0.66682166), (0.7071293, 0.15113898, 0.69074255), (0.7093797, 0.22831884, 0.66682166), (0.7071293, 0.15113898, 0.69074255), (-0.70709324, -0.6863497, -0.17012759), (-0.70929116, -0.66110367, -0.2446382), (-0.70709324, -0.6863497, -0.17012759), (-0.70929116, -0.66110367, -0.2446382), (-0.70709324, -0.6863497, -0.17012759), (-0.70929116, -0.66110367, -0.2446382), (-0.70929116, -0.66110367, -0.2446382), (-0.70918804, -0.59150904, -0.38362667), (-0.70929116, -0.66110367, -0.2446382), (-0.70918804, -0.59150904, -0.38362667), (-0.70929116, -0.66110367, -0.2446382), (-0.58331823, -0.6619401, -0.47071776), (-0.58331823, -0.6619401, -0.47071776), (-0.70918804, -0.49409813, -0.502911), (-0.70918804, -0.59150904, -0.38362667), (-0.70918804, -0.49409813, -0.502911), (-0.58331823, -0.6619401, -0.47071776), (-0.58331823, -0.59350765, -0.5545165), (-0.25880578, -0.7481574, -0.61096656), (-0.58331823, -0.59350765, -0.5545165), (-0.58331823, -0.6619401, -0.47071776), (-0.58331823, -0.59350765, -0.5545165), (-0.25880578, -0.7481574, -0.61096656), (-0.25880578, -0.7481574, -0.61096656), (-0.58331823, -0.59350765, -0.5545165), (-0.70929116, -0.37182152, -0.59887785), (-0.70918804, -0.49409813, -0.502911), (-0.70929116, -0.37182152, -0.59887785), (-0.70918804, -0.49409813, -0.502911), (-0.70929116, -0.37182152, -0.59887785), (-0.70929116, -0.37182152, -0.59887785), (-0.7093797, -0.22831884, -0.66682166), (-0.70929116, -0.37182152, -0.59887785), (-0.7093797, -0.22831884, -0.66682166), (-0.7093797, -0.22831884, -0.66682166), (-0.70929116, -0.37182152, -0.59887785), (-0.7093797, -0.22831884, -0.66682166), (-0.7071293, -0.15113898, -0.69074255), (-0.7093797, -0.22831884, -0.66682166), (-0.7071293, -0.15113898, -0.69074255), (-0.7093797, -0.22831884, -0.66682166), (-0.7071293, -0.15113898, -0.69074255), (-0.70709324, 0.6863497, 0.17012759), (-0.70929116, 0.66110367, 0.2446382), (-0.70709324, 0.6863497, 0.17012759), (-0.70929116, 0.66110367, 0.2446382), (-0.70709324, 0.6863497, 0.17012759), (-0.70929116, 0.66110367, 0.2446382), (-0.70929116, 0.66110367, 0.2446382), (-0.5702253, 0.66775733, 0.47848016), (-0.70929116, 0.66110367, 0.2446382), (-0.5702253, 0.66775733, 0.47848016), (-0.70929116, 0.66110367, 0.2446382), (-0.70918804, 0.59150904, 0.38362667), (-0.5702253, 0.66775733, 0.47848016), (-0.25880578, 0.7481574, 0.61096656), (-0.25880578, 0.7481574, 0.61096656), (-0.25880578, 0.7481574, 0.61096656), (-0.5702253, 0.66775733, 0.47848016), (-0.5702253, 0.602276, 0.55866516), (-0.70918804, 0.59150904, 0.38362667), (-0.5702253, 0.602276, 0.55866516), (-0.5702253, 0.66775733, 0.47848016), (-0.5702253, 0.602276, 0.55866516), (-0.70918804, 0.59150904, 0.38362667), (-0.70918804, 0.49409813, 0.502911), (-0.70918804, 0.49409813, 0.502911), (-0.70929116, 0.37182152, 0.59887785), (-0.5702253, 0.602276, 0.55866516), (-0.70929116, 0.37182152, 0.59887785), (-0.5702253, 0.602276, 0.55866516), (-0.70929116, 0.37182152, 0.59887785), (-0.70929116, 0.37182152, 0.59887785), (-0.7093797, 0.22831884, 0.66682166), (-0.70929116, 0.37182152, 0.59887785), (-0.7093797, 0.22831884, 0.66682166), (-0.7093797, 0.22831884, 0.66682166), (-0.70929116, 0.37182152, 0.59887785), (-0.7093797, 0.22831884, 0.66682166), (-0.7071293, 0.15113898, 0.69074255), (-0.7093797, 0.22831884, 0.66682166), (-0.7071293, 0.15113898, 0.69074255), (-0.7093797, 0.22831884, 0.66682166), (-0.7071293, 0.15113898, 0.69074255), (-0.8576584, 0.12368997, -0.49912223), (-0.70709324, 0.17012759, -0.6863497), (-0.70709324, 0.17012759, -0.6863497), (-0.70709324, 0.17012759, -0.6863497), (-0.8576584, 0.12368997, -0.49912223), (-0.90155315, 0.12234871, -0.41500938), (-0.9998235, 0.0044906377, -0.01824365), (-0.90155315, 0.12234871, -0.41500938), (-0.8576584, 0.12368997, -0.49912223), (-0.90155315, 0.12234871, -0.41500938), (-0.9998235, 0.0044906377, -0.01824365), (-0.9998335, 0.0063127084, -0.017121099), (-0.9659211, -0.062285624, 0.25123087), (-0.9998335, 0.0063127084, -0.017121099), (-0.9998235, 0.0044906377, -0.01824365), (-0.9998335, 0.0063127084, -0.017121099), (-0.966311, 0.14002118, -0.2159565), (-0.90155315, 0.12234871, -0.41500938), (-0.9998335, 0.0063127084, -0.017121099), (-0.9659211, -0.062285624, 0.25123087), (-0.96633166, -0.08932167, 0.24129814), (-0.96633166, -0.08932167, 0.24129814), (-0.99983925, 0.009737732, -0.015054627), (-0.9998335, 0.0063127084, -0.017121099), (-0.966311, 0.14002118, -0.2159565), (-0.9998335, 0.0063127084, -0.017121099), (-0.99983925, 0.009737732, -0.015054627), (-0.99983925, 0.009737732, -0.015054627), (-0.96633166, -0.08932167, 0.24129814), (-0.91327137, -0.24178971, 0.327831), (-0.99983925, 0.009737732, -0.015054627), (-0.99983925, 0.012804901, -0.01254989), (-0.966311, 0.14002118, -0.2159565), (-0.99983925, 0.012804901, -0.01254989), (-0.966311, 0.18361759, -0.18035443), (-0.966311, 0.14002118, -0.2159565), (-0.91327137, -0.24178971, 0.327831), (-0.8749036, -0.34546095, 0.33941203), (-0.99983925, 0.009737732, -0.015054627), (-0.8749036, -0.34546095, 0.33941203), (-0.99983925, 0.012804901, -0.01254989), (-0.99983925, 0.009737732, -0.015054627), (-0.70710343, -0.4472591, 0.54768986), (-0.7092271, -0.50283915, 0.49411532), (-0.91327137, -0.24178971, 0.327831), (-0.7092271, -0.50283915, 0.49411532), (-0.8749036, -0.34546095, 0.33941203), (-0.91327137, -0.24178971, 0.327831), (-0.7092271, -0.50283915, 0.49411532), (-0.7071205, -0.55548644, 0.43751067), (-0.8749036, -0.34546095, 0.33941203), (-0.8749036, -0.34546095, 0.33941203), (-0.7071205, -0.55548644, 0.43751067), (-0.9133925, -0.332021, 0.23553415), (-0.99983925, 0.012804901, -0.01254989), (-0.8749036, -0.34546095, 0.33941203), (-0.9133925, -0.332021, 0.23553415), (-0.99983925, 0.012804901, -0.01254989), (-0.9998335, 0.0155141605, -0.009606931), (-0.966311, 0.18361759, -0.18035443), (-0.99983925, 0.012804901, -0.01254989), (-0.9133925, -0.332021, 0.23553415), (-0.9998335, 0.0155141605, -0.009606931), (-0.966311, 0.18361759, -0.18035443), (-0.9998335, 0.0155141605, -0.009606931), (-0.96633166, 0.21858007, -0.13574207), (-0.96634436, -0.24336949, 0.08336584), (-0.9998335, 0.0155141605, -0.009606931), (-0.9133925, -0.332021, 0.23553415), (-0.9998252, 0.017676579, -0.0061062444), (-0.96633166, 0.21858007, -0.13574207), (-0.9998335, 0.0155141605, -0.009606931), (-0.9998335, 0.0155141605, -0.009606931), (-0.96634436, -0.24336949, 0.08336584), (-0.9998252, 0.017676579, -0.0061062444), (-0.96633166, 0.21858007, -0.13574207), (-0.9998252, 0.017676579, -0.0061062444), (-0.96634436, 0.24336949, -0.08336584), (-0.9998252, 0.017676579, -0.0061062444), (-0.9660295, 0.255217, -0.040637422), (-0.96634436, 0.24336949, -0.08336584), (-0.96634436, -0.24336949, 0.08336584), (-0.9999558, 0.009301848, -0.0014414529), (-0.9998252, 0.017676579, -0.0061062444), (-0.9660295, 0.255217, -0.040637422), (-0.9998252, 0.017676579, -0.0061062444), (-0.9999558, 0.009301848, -0.0014414529), (-0.9999558, 0.009301848, -0.0014414529), (-0.96634436, -0.24336949, 0.08336584), (-0.9660295, -0.255217, 0.040637422), (-0.9999558, 0.009402274, -0.00044655276), (-0.9660295, 0.255217, -0.040637422), (-0.9999558, 0.009301848, -0.0014414529), (-0.9660295, -0.255217, 0.040637422), (-0.9999558, 0.009402274, -0.00044655276), (-0.9999558, 0.009301848, -0.0014414529), (-0.9999558, 0.009402274, -0.00044655276), (-0.9660295, -0.255217, 0.040637422), (-0.9660295, -0.2581898, 0.011186177), (-0.9660295, 0.255217, -0.040637422), (-0.9999558, 0.009402274, -0.00044655276), (-0.9660295, 0.2581898, -0.011186177), (-0.96634436, -0.25512037, -0.033047963), (-0.9999558, 0.009402274, -0.00044655276), (-0.9660295, -0.2581898, 0.011186177), (-0.9998252, 0.0185403, 0.0024504901), (-0.9660295, 0.2581898, -0.011186177), (-0.9999558, 0.009402274, -0.00044655276), (-0.9999558, 0.009402274, -0.00044655276), (-0.96634436, -0.25512037, -0.033047963), (-0.9998252, 0.0185403, 0.0024504901), (-0.9660295, 0.2581898, -0.011186177), (-0.9998252, 0.0185403, 0.0024504901), (-0.96634436, 0.25512037, 0.033047963), (-0.9998252, 0.0185403, 0.0024504901), (-0.96633166, 0.24129814, 0.08932167), (-0.96634436, 0.25512037, 0.033047963), (-0.96634436, -0.25512037, -0.033047963), (-0.9998335, 0.017121099, 0.0063127084), (-0.9998252, 0.0185403, 0.0024504901), (-0.96633166, 0.24129814, 0.08932167), (-0.9998252, 0.0185403, 0.0024504901), (-0.9998335, 0.017121099, 0.0063127084), (-0.9998335, 0.017121099, 0.0063127084), (-0.96634436, -0.25512037, -0.033047963), (-0.96633166, -0.24129814, -0.08932167), (-0.9998335, 0.017121099, 0.0063127084), (-0.966311, 0.2159565, 0.14002118), (-0.96633166, 0.24129814, 0.08932167), (-0.96633166, -0.24129814, -0.08932167), (-0.99983925, 0.015054627, 0.009737732), (-0.9998335, 0.017121099, 0.0063127084), (-0.966311, 0.2159565, 0.14002118), (-0.9998335, 0.017121099, 0.0063127084), (-0.99983925, 0.015054627, 0.009737732), (-0.99983925, 0.015054627, 0.009737732), (-0.96633166, -0.24129814, -0.08932167), (-0.966311, -0.2159565, -0.14002118), (-0.99983925, 0.015054627, 0.009737732), (-0.966311, 0.18035443, 0.18361759), (-0.966311, 0.2159565, 0.14002118), (-0.966311, -0.2159565, -0.14002118), (-0.99983925, 0.01254989, 0.012804901), (-0.99983925, 0.015054627, 0.009737732), (-0.966311, 0.18035443, 0.18361759), (-0.99983925, 0.015054627, 0.009737732), (-0.99983925, 0.01254989, 0.012804901), (-0.99983925, 0.01254989, 0.012804901), (-0.966311, -0.2159565, -0.14002118), (-0.966311, -0.18035443, -0.18361759), (-0.96633166, -0.13574207, -0.21858007), (-0.99983925, 0.01254989, 0.012804901), (-0.966311, -0.18035443, -0.18361759), (-0.99983925, 0.01254989, 0.012804901), (-0.9998335, 0.009606931, 0.0155141605), (-0.966311, 0.18035443, 0.18361759), (-0.96633166, -0.13574207, -0.21858007), (-0.9998335, 0.009606931, 0.0155141605), (-0.99983925, 0.01254989, 0.012804901), (-0.96633166, 0.13574207, 0.21858007), (-0.966311, 0.18035443, 0.18361759), (-0.9998335, 0.009606931, 0.0155141605), (-0.96633166, -0.13574207, -0.21858007), (-0.96634436, -0.08336584, -0.24336949), (-0.9998335, 0.009606931, 0.0155141605), (-0.9998335, 0.009606931, 0.0155141605), (-0.9998252, 0.0061062444, 0.017676579), (-0.96633166, 0.13574207, 0.21858007), (-0.96634436, -0.08336584, -0.24336949), (-0.9998252, 0.0061062444, 0.017676579), (-0.9998335, 0.009606931, 0.0155141605), (-0.9998252, 0.0061062444, 0.017676579), (-0.96634436, 0.08336584, 0.24336949), (-0.96633166, 0.13574207, 0.21858007), (-0.9998252, 0.0061062444, 0.017676579), (-0.96592647, 0.05537198, 0.25282428), (-0.96634436, 0.08336584, 0.24336949), (-0.96592647, 0.05537198, 0.25282428), (-0.9998252, 0.0061062444, 0.017676579), (-0.9999553, 0.002038392, 0.009241588), (-0.96634436, -0.08336584, -0.24336949), (-0.9999553, 0.002038392, 0.009241588), (-0.9998252, 0.0061062444, 0.017676579), (-0.9999553, 0.002038392, 0.009241588), (-0.96634436, -0.08336584, -0.24336949), (-0.96592647, -0.05537198, -0.25282428), (0.500011, -0.08697453, -0.8616406), (0.7071068, -0.07101493, -0.70353174), (0.7071068, -0.07101493, -0.70353174), (0.7071068, -0.07101493, -0.70353174), (0.500011, -0.08697453, -0.8616406), (0.41768825, -0.052863773, -0.9070513), (5.551115e-17, -0.10043027, -0.9949441), (0.41768825, -0.052863773, -0.9070513), (0.500011, -0.08697453, -0.8616406), (0.41768825, -0.052863773, -0.9070513), (5.551115e-17, -0.10043027, -0.9949441), (5.5419635e-17, -0.04315769, -0.99906826), (5.5419635e-17, -0.04315769, -0.99906826), (0.25879174, 0.013766977, -0.9658351), (0.41768825, -0.052863773, -0.9070513), (0.25879174, 0.013766977, -0.9658351), (5.5419635e-17, -0.04315769, -0.99906826), (5.514542e-17, 0.014253333, -0.99989843), (5.5419635e-17, -0.04315769, -0.99906826), (-0.25879174, 0.013766977, -0.9658351), (5.514542e-17, 0.014253333, -0.99989843), (-0.25879174, 0.013766977, -0.9658351), (5.5419635e-17, -0.04315769, -0.99906826), (-0.41768825, -0.052863773, -0.9070513), (5.551115e-17, -0.10043027, -0.9949441), (-0.41768825, -0.052863773, -0.9070513), (5.5419635e-17, -0.04315769, -0.99906826), (-0.41768825, -0.052863773, -0.9070513), (5.551115e-17, -0.10043027, -0.9949441), (-0.500011, -0.08697453, -0.8616406), (-0.500011, -0.08697453, -0.8616406), (-0.7071068, -0.07101493, -0.70353174), (-0.41768825, -0.052863773, -0.9070513), (-0.7071068, -0.07101493, -0.70353174), (-0.500011, -0.08697453, -0.8616406), (-0.7071068, -0.07101493, -0.70353174), (0.7071293, -0.15113898, -0.69074255), (0.7093797, -0.22831884, -0.66682166), (0.7071293, -0.15113898, -0.69074255), (0.7071293, -0.15113898, -0.69074255), (0.7093797, -0.22831884, -0.66682166), (0.7093797, -0.22831884, -0.66682166), (0.7093797, -0.22831884, -0.66682166), (0.70929116, -0.37182152, -0.59887785), (0.7093797, -0.22831884, -0.66682166), (0.70929116, -0.37182152, -0.59887785), (0.7093797, -0.22831884, -0.66682166), (0.70929116, -0.37182152, -0.59887785), (0.70929116, -0.37182152, -0.59887785), (0.70918804, -0.49409813, -0.502911), (0.70929116, -0.37182152, -0.59887785), (0.70918804, -0.49409813, -0.502911), (0.70929116, -0.37182152, -0.59887785), (0.58331823, -0.59350765, -0.5545165), (0.70710343, -0.54768986, -0.4472591), (0.70918804, -0.49409813, -0.502911), (0.5076978, -0.6672992, -0.54493546), (0.70918804, -0.49409813, -0.502911), (0.58331823, -0.59350765, -0.5545165), (0.5076978, -0.6672992, -0.54493546), (0.5076978, -0.6672992, -0.54493546), (0.58331823, -0.59350765, -0.5545165), (0.25880578, -0.7481574, -0.61096656), (0.58331823, -0.59350765, -0.5545165), (0.25880578, -0.7481574, -0.61096656), (0.25880578, -0.7481574, -0.61096656), (-0.7071068, 0.70353174, -0.07101493), (-0.41768825, 0.89931846, -0.12947232), (-0.7071068, 0.70353174, -0.07101493), (-0.41768825, 0.89931846, -0.12947232), (-0.7071068, 0.70353174, -0.07101493), (-0.41768825, 0.9070513, -0.052863773), (-0.41768825, 0.9070513, -0.052863773), (3.1861852e-18, 0.9875394, -0.15737171), (-0.41768825, 0.89931846, -0.12947232), (3.1861852e-18, 0.9875394, -0.15737171), (-0.26041037, 0.9134484, -0.31272772), (-0.41768825, 0.89931846, -0.12947232), (3.1861852e-18, 0.9875394, -0.15737171), (-0.41768825, 0.9070513, -0.052863773), (-3.1861852e-18, 0.99906826, -0.04315769), (-0.26041037, 0.95751894, 0.123871125), (-3.1861852e-18, 0.99906826, -0.04315769), (-0.41768825, 0.9070513, -0.052863773), (-0.26041037, 0.9134484, -0.31272772), (3.1861852e-18, 0.9875394, -0.15737171), (1.2612724e-17, 0.9461031, -0.32386547), (1.2612724e-17, 0.9461031, -0.32386547), (-0.26031208, 0.82023096, -0.50937104), (-0.26041037, 0.9134484, -0.31272772), (-3.1861852e-18, 0.99906826, -0.04315769), (-0.26041037, 0.95751894, 0.123871125), (-1.2612724e-17, 0.99174076, 0.1282583), (-0.26031208, 0.90548015, 0.33517668), (-1.2612724e-17, 0.99174076, 0.1282583), (-0.26041037, 0.95751894, 0.123871125), (-0.26031208, 0.82023096, -0.50937104), (1.2612724e-17, 0.9461031, -0.32386547), (2.4398088e-17, 0.8495522, -0.5275046), (2.4398088e-17, 0.8495522, -0.5275046), (-0.25880766, 0.75883883, -0.59764737), (-0.26031208, 0.82023096, -0.50937104), (-0.25880766, 0.75883883, -0.59764737), (2.4398088e-17, 0.8495522, -0.5275046), (2.979216e-17, 0.7856151, -0.6187155), (2.4398088e-17, 0.8495522, -0.5275046), (0.25880766, 0.75883883, -0.59764737), (2.979216e-17, 0.7856151, -0.6187155), (0.25880766, 0.75883883, -0.59764737), (2.4398088e-17, 0.8495522, -0.5275046), (0.26031208, 0.82023096, -0.50937104), (1.2612724e-17, 0.9461031, -0.32386547), (0.26031208, 0.82023096, -0.50937104), (2.4398088e-17, 0.8495522, -0.5275046), (0.26031208, 0.82023096, -0.50937104), (1.2612724e-17, 0.9461031, -0.32386547), (0.26041037, 0.9134484, -0.31272772), (3.1861852e-18, 0.9875394, -0.15737171), (0.26041037, 0.9134484, -0.31272772), (1.2612724e-17, 0.9461031, -0.32386547), (0.26041037, 0.9134484, -0.31272772), (3.1861852e-18, 0.9875394, -0.15737171), (0.41768825, 0.89931846, -0.12947232), (3.1861852e-18, 0.9875394, -0.15737171), (0.41768825, 0.9070513, -0.052863773), (0.41768825, 0.89931846, -0.12947232), (0.41768825, 0.9070513, -0.052863773), (3.1861852e-18, 0.9875394, -0.15737171), (-3.1861852e-18, 0.99906826, -0.04315769), (0.41768825, 0.9070513, -0.052863773), (0.7071068, 0.70353174, -0.07101493), (0.41768825, 0.89931846, -0.12947232), (0.7071068, 0.70353174, -0.07101493), (0.41768825, 0.9070513, -0.052863773), (0.7071068, 0.70353174, -0.07101493), (-3.1861852e-18, 0.99906826, -0.04315769), (0.26041037, 0.95751894, 0.123871125), (0.41768825, 0.9070513, -0.052863773), (0.26041037, 0.95751894, 0.123871125), (-3.1861852e-18, 0.99906826, -0.04315769), (-1.2612724e-17, 0.99174076, 0.1282583), (-1.2612724e-17, 0.99174076, 0.1282583), (0.26031208, 0.90548015, 0.33517668), (0.26041037, 0.95751894, 0.123871125), (0.26031208, 0.90548015, 0.33517668), (-1.2612724e-17, 0.99174076, 0.1282583), (-2.4398088e-17, 0.93783385, 0.3470848), (-1.2612724e-17, 0.99174076, 0.1282583), (-0.26031208, 0.90548015, 0.33517668), (-2.4398088e-17, 0.93783385, 0.3470848), (-2.4398088e-17, 0.93783385, 0.3470848), (0.25880766, 0.86296797, 0.4339412), (0.26031208, 0.90548015, 0.33517668), (-0.25880766, 0.86296797, 0.4339412), (-2.4398088e-17, 0.93783385, 0.3470848), (-0.26031208, 0.90548015, 0.33517668), (0.25880766, 0.86296797, 0.4339412), (-2.4398088e-17, 0.93783385, 0.3470848), (-2.979216e-17, 0.8934145, 0.44923326), (-2.4398088e-17, 0.93783385, 0.3470848), (-0.25880766, 0.86296797, 0.4339412), (-2.979216e-17, 0.8934145, 0.44923326), (0.7093797, 0.66682166, -0.22831884), (0.7070739, 0.6907779, -0.15123667), (0.7070739, 0.6907779, -0.15123667), (0.7070739, 0.6907779, -0.15123667), (0.7093797, 0.66682166, -0.22831884), (0.7093797, 0.66682166, -0.22831884), (0.7093797, 0.66682166, -0.22831884), (0.70929116, 0.59887785, -0.37182152), (0.7093797, 0.66682166, -0.22831884), (0.70929116, 0.59887785, -0.37182152), (0.7093797, 0.66682166, -0.22831884), (0.70929116, 0.59887785, -0.37182152), (0.70929116, 0.59887785, -0.37182152), (0.70918804, 0.502911, -0.49409813), (0.70929116, 0.59887785, -0.37182152), (0.70918804, 0.502911, -0.49409813), (0.70929116, 0.59887785, -0.37182152), (0.70918804, 0.502911, -0.49409813), (0.70918804, 0.502911, -0.49409813), (0.70918804, 0.38362667, -0.59150904), (0.70918804, 0.502911, -0.49409813), (0.70918804, 0.38362667, -0.59150904), (0.70918804, 0.502911, -0.49409813), (0.70918804, 0.38362667, -0.59150904), (0.70918804, 0.38362667, -0.59150904), (0.7071205, 0.3176738, -0.63171524), (0.70918804, 0.38362667, -0.59150904), (0.7071205, 0.3176738, -0.63171524), (0.70918804, 0.38362667, -0.59150904), (0.7071205, 0.3176738, -0.63171524), (0.7093797, -0.66682166, 0.22831884), (0.7070739, -0.6907779, 0.15123667), (0.7070739, -0.6907779, 0.15123667), (0.7070739, -0.6907779, 0.15123667), (0.7093797, -0.66682166, 0.22831884), (0.7093797, -0.66682166, 0.22831884), (0.7093797, -0.66682166, 0.22831884), (0.70709324, -0.63850516, 0.30385926), (0.7093797, -0.66682166, 0.22831884), (0.70709324, -0.63850516, 0.30385926), (0.7093797, -0.66682166, 0.22831884), (0.70709324, -0.63850516, 0.30385926), (-0.7070739, -0.6907779, 0.15123667), (-0.7093797, -0.66682166, 0.22831884), (-0.7070739, -0.6907779, 0.15123667), (-0.7093797, -0.66682166, 0.22831884), (-0.7070739, -0.6907779, 0.15123667), (-0.7093797, -0.66682166, 0.22831884), (-0.70709324, -0.63850516, 0.30385926), (-0.7093797, -0.66682166, 0.22831884), (-0.7093797, -0.66682166, 0.22831884), (-0.7093797, -0.66682166, 0.22831884), (-0.70709324, -0.63850516, 0.30385926), (-0.70709324, -0.63850516, 0.30385926), (-0.7070739, 0.6907779, -0.15123667), (-0.7093797, 0.66682166, -0.22831884), (-0.7070739, 0.6907779, -0.15123667), (-0.7093797, 0.66682166, -0.22831884), (-0.7070739, 0.6907779, -0.15123667), (-0.7093797, 0.66682166, -0.22831884), (-0.70929116, 0.59887785, -0.37182152), (-0.7093797, 0.66682166, -0.22831884), (-0.7093797, 0.66682166, -0.22831884), (-0.7093797, 0.66682166, -0.22831884), (-0.70929116, 0.59887785, -0.37182152), (-0.70929116, 0.59887785, -0.37182152), (-0.70918804, 0.502911, -0.49409813), (-0.70929116, 0.59887785, -0.37182152), (-0.70929116, 0.59887785, -0.37182152), (-0.70918804, 0.502911, -0.49409813), (-0.70929116, 0.59887785, -0.37182152), (-0.70918804, 0.502911, -0.49409813), (-0.70918804, 0.502911, -0.49409813), (-0.70918804, 0.502911, -0.49409813), (-0.70918804, 0.38362667, -0.59150904), (-0.70918804, 0.38362667, -0.59150904), (-0.70918804, 0.502911, -0.49409813), (-0.70918804, 0.38362667, -0.59150904), (-0.70918804, 0.38362667, -0.59150904), (-0.7071205, 0.3176738, -0.63171524), (-0.70918804, 0.38362667, -0.59150904), (-0.7071205, 0.3176738, -0.63171524), (-0.70918804, 0.38362667, -0.59150904), (-0.7071205, 0.3176738, -0.63171524), (3.9252314e-17, 0.63251686, -0.7745467), (0.25880578, 0.61096656, -0.7481574), (0.25880578, 0.61096656, -0.7481574), (0.25880578, 0.61096656, -0.7481574), (3.9252314e-17, 0.63251686, -0.7745467), (3.9252314e-17, 0.63251686, -0.7745467), (3.9252314e-17, 0.63251686, -0.7745467), (-0.25880578, 0.61096656, -0.7481574), (3.9252314e-17, 0.63251686, -0.7745467), (-0.25880578, 0.61096656, -0.7481574), (3.9252314e-17, 0.63251686, -0.7745467), (-0.25880578, 0.61096656, -0.7481574), (-3.9252314e-17, -0.63251686, 0.7745467), (0.25880578, -0.61096656, 0.7481574), (0.25880578, -0.61096656, 0.7481574), (0.25880578, -0.61096656, 0.7481574), (-3.9252314e-17, -0.63251686, 0.7745467), (-3.9252314e-17, -0.63251686, 0.7745467), (-3.9252314e-17, -0.63251686, 0.7745467), (-3.9252314e-17, -0.63251686, 0.7745467), (-0.25880578, -0.61096656, 0.7481574), (-3.9252314e-17, -0.63251686, 0.7745467), (-0.25880578, -0.61096656, 0.7481574), (-0.25880578, -0.61096656, 0.7481574), (0.9998228, 0.00031083787, -0.018826831), (0.9660295, -0.011186177, -0.2581898), (0.96592647, 0.0037293185, -0.25879002), (0.9660295, -0.011186177, -0.2581898), (0.9998228, 0.00031083787, -0.018826831), (0.9999558, -0.00044655276, -0.009402274), (0.9999558, -0.00044655276, -0.009402274), (0.9659289, -0.025992133, -0.25749925), (0.9660295, -0.011186177, -0.2581898), (0.96592647, -0.0037293185, 0.25879002), (0.9999558, -0.00044655276, -0.009402274), (0.9998228, 0.00031083787, -0.018826831), (0.9659289, -0.025992133, -0.25749925), (0.9999558, -0.00044655276, -0.009402274), (1, 0, 0), (0.9999558, -0.00044655276, -0.009402274), (0.96592647, -0.0037293185, 0.25879002), (0.9660295, 0.011186177, 0.2581898), (0.9660295, 0.011186177, 0.2581898), (1, 0, 0), (0.9999558, -0.00044655276, -0.009402274), (1, 0, 0), (0.9660295, 0.011186177, 0.2581898), (0.9659289, 0.025992133, 0.25749925), (-0.96592647, 0.0037293185, -0.25879002), (-0.9660295, -0.011186177, -0.2581898), (-0.9998228, 0.00031083787, -0.018826831), (-0.9998228, 0.00031083787, -0.018826831), (-0.9660295, -0.011186177, -0.2581898), (-0.9999558, -0.00044655276, -0.009402274), (-0.9998228, 0.00031083787, -0.018826831), (-0.9999558, -0.00044655276, -0.009402274), (-0.96592647, -0.0037293185, 0.25879002), (-0.9660295, -0.011186177, -0.2581898), (-0.9659289, -0.025992133, -0.25749925), (-0.9999558, -0.00044655276, -0.009402274), (-0.96592647, -0.0037293185, 0.25879002), (-0.9999558, -0.00044655276, -0.009402274), (-0.9660295, 0.011186177, 0.2581898), (-0.9999558, -0.00044655276, -0.009402274), (-0.9659289, -0.025992133, -0.25749925), (-1, 0, -0), (-0.9999558, -0.00044655276, -0.009402274), (-1, 0, -0), (-0.9660295, 0.011186177, 0.2581898), (-0.9660295, 0.011186177, 0.2581898), (-1, 0, -0), (-0.9659289, 0.025992133, 0.25749925), (-0.7071068, -0.70353174, 0.07101493), (-0.7071068, -0.70353174, 0.07101493), (-0.42528728, -0.9034871, 0.053308103), (-0.42528728, -0.8959149, 0.12832464), (-0.42528728, -0.9034871, 0.053308103), (-0.7071068, -0.70353174, 0.07101493), (6.3616525e-18, -0.99989843, -0.014253333), (-0.25879174, -0.9658351, -0.013766977), (-0.42528728, -0.9034871, 0.053308103), (-0.42528728, -0.9034871, 0.053308103), (-0.42528728, -0.8959149, 0.12832464), (3.1861852e-18, -0.99906826, 0.04315769), (3.1861852e-18, -0.99906826, 0.04315769), (6.3616525e-18, -0.99989843, -0.014253333), (-0.42528728, -0.9034871, 0.053308103), (-6.3616525e-18, -0.97687954, 0.21379054), (-0.42528728, -0.8959149, 0.12832464), (-0.25879174, -0.9436006, 0.2065066), (0.42528728, -0.9034871, 0.053308103), (6.3616525e-18, -0.99989843, -0.014253333), (3.1861852e-18, -0.99906826, 0.04315769), (6.3616525e-18, -0.99989843, -0.014253333), (0.42528728, -0.9034871, 0.053308103), (0.25879174, -0.9658351, -0.013766977), (-3.1861852e-18, -0.9875394, 0.15737171), (3.1861852e-18, -0.99906826, 0.04315769), (-0.42528728, -0.8959149, 0.12832464), (-0.42528728, -0.8959149, 0.12832464), (-6.3616525e-18, -0.97687954, 0.21379054), (-3.1861852e-18, -0.9875394, 0.15737171), (3.1861852e-18, -0.99906826, 0.04315769), (-3.1861852e-18, -0.9875394, 0.15737171), (0.42528728, -0.9034871, 0.053308103), (0.42528728, -0.8959149, 0.12832464), (-3.1861852e-18, -0.9875394, 0.15737171), (-6.3616525e-18, -0.97687954, 0.21379054), (0.42528728, -0.8959149, 0.12832464), (0.42528728, -0.9034871, 0.053308103), (-3.1861852e-18, -0.9875394, 0.15737171), (0.25879174, -0.9436006, 0.2065066), (0.42528728, -0.8959149, 0.12832464), (-6.3616525e-18, -0.97687954, 0.21379054), (0.7071068, -0.70353174, 0.07101493), (0.42528728, -0.9034871, 0.053308103), (0.42528728, -0.8959149, 0.12832464), (0.42528728, -0.9034871, 0.053308103), (0.7071068, -0.70353174, 0.07101493), (0.7071068, -0.70353174, 0.07101493), (-0.7071068, 0.07101493, 0.70353174), (-0.7071068, 0.07101493, 0.70353174), (-0.42528728, 0.053308103, 0.9034871), (-0.500011, 0.08697453, 0.8616406), (-0.42528728, 0.053308103, 0.9034871), (-0.7071068, 0.07101493, 0.70353174), (-5.514542e-17, -0.014253333, 0.99989843), (-0.25879174, -0.013766977, 0.9658351), (-0.42528728, 0.053308103, 0.9034871), (-0.42528728, 0.053308103, 0.9034871), (-0.500011, 0.08697453, 0.8616406), (-5.5419635e-17, 0.04315769, 0.99906826), (-5.5419635e-17, 0.04315769, 0.99906826), (-5.514542e-17, -0.014253333, 0.99989843), (-0.42528728, 0.053308103, 0.9034871), (-5.551115e-17, 0.10043027, 0.9949441), (-5.5419635e-17, 0.04315769, 0.99906826), (-0.500011, 0.08697453, 0.8616406), (0.500011, 0.08697453, 0.8616406), (-5.5419635e-17, 0.04315769, 0.99906826), (-5.551115e-17, 0.10043027, 0.9949441), (0.42528728, 0.053308103, 0.9034871), (-5.514542e-17, -0.014253333, 0.99989843), (-5.5419635e-17, 0.04315769, 0.99906826), (-5.5419635e-17, 0.04315769, 0.99906826), (0.500011, 0.08697453, 0.8616406), (0.42528728, 0.053308103, 0.9034871), (-5.514542e-17, -0.014253333, 0.99989843), (0.42528728, 0.053308103, 0.9034871), (0.25879174, -0.013766977, 0.9658351), (0.7071068, 0.07101493, 0.70353174), (0.42528728, 0.053308103, 0.9034871), (0.500011, 0.08697453, 0.8616406), (0.42528728, 0.053308103, 0.9034871), (0.7071068, 0.07101493, 0.70353174), (0.7071068, 0.07101493, 0.70353174), (0.26041037, 0.31272772, 0.9134484), (-5.514542e-17, 0.21379054, 0.97687954), (0.25879174, 0.2065066, 0.9436006), (-5.514542e-17, 0.21379054, 0.97687954), (-0.26041037, 0.31272772, 0.9134484), (-0.25879174, 0.2065066, 0.9436006), (-5.514542e-17, 0.21379054, 0.97687954), (0.26041037, 0.31272772, 0.9134484), (-5.405929e-17, 0.32386547, 0.9461031), (-0.26041037, 0.31272772, 0.9134484), (-5.514542e-17, 0.21379054, 0.97687954), (-5.405929e-17, 0.32386547, 0.9461031), (0.26028952, 0.50933695, 0.82025933), (-5.405929e-17, 0.32386547, 0.9461031), (0.26041037, 0.31272772, 0.9134484), (-5.405929e-17, 0.32386547, 0.9461031), (-0.26028952, 0.50933695, 0.82025933), (-0.26041037, 0.31272772, 0.9134484), (-5.405929e-17, 0.32386547, 0.9461031), (0.26028952, 0.50933695, 0.82025933), (-4.9862027e-17, 0.5275046, 0.8495522), (-0.26028952, 0.50933695, 0.82025933), (-5.405929e-17, 0.32386547, 0.9461031), (-4.9862027e-17, 0.5275046, 0.8495522), (0.25880766, 0.59764737, 0.75883883), (-4.9862027e-17, 0.5275046, 0.8495522), (0.26028952, 0.50933695, 0.82025933), (-4.9862027e-17, 0.5275046, 0.8495522), (-0.25880766, 0.59764737, 0.75883883), (-0.26028952, 0.50933695, 0.82025933), (-4.9862027e-17, 0.5275046, 0.8495522), (0.25880766, 0.59764737, 0.75883883), (-4.6839248e-17, 0.6187155, 0.7856151), (-0.25880766, 0.59764737, 0.75883883), (-4.9862027e-17, 0.5275046, 0.8495522), (-4.6839248e-17, 0.6187155, 0.7856151), (0.25880766, -0.59764737, -0.75883883), (0.26028952, -0.50933695, -0.82025933), (4.6839248e-17, -0.6187155, -0.7856151), (4.6839248e-17, -0.6187155, -0.7856151), (-0.26028952, -0.50933695, -0.82025933), (-0.25880766, -0.59764737, -0.75883883), (0.26028952, -0.50933695, -0.82025933), (4.9862027e-17, -0.5275046, -0.8495522), (4.6839248e-17, -0.6187155, -0.7856151), (-0.26028952, -0.50933695, -0.82025933), (4.6839248e-17, -0.6187155, -0.7856151), (4.9862027e-17, -0.5275046, -0.8495522), (0.26028952, -0.50933695, -0.82025933), (0.26041037, -0.31272772, -0.9134484), (4.9862027e-17, -0.5275046, -0.8495522), (4.9862027e-17, -0.5275046, -0.8495522), (-0.26041037, -0.31272772, -0.9134484), (-0.26028952, -0.50933695, -0.82025933), (0.26041037, -0.31272772, -0.9134484), (5.405929e-17, -0.32386547, -0.9461031), (4.9862027e-17, -0.5275046, -0.8495522), (-0.26041037, -0.31272772, -0.9134484), (4.9862027e-17, -0.5275046, -0.8495522), (5.405929e-17, -0.32386547, -0.9461031), (0.26041037, -0.31272772, -0.9134484), (0.25879174, -0.2065066, -0.9436006), (5.405929e-17, -0.32386547, -0.9461031), (5.405929e-17, -0.32386547, -0.9461031), (-0.25879174, -0.2065066, -0.9436006), (-0.26041037, -0.31272772, -0.9134484), (0.25879174, -0.2065066, -0.9436006), (5.514542e-17, -0.21379054, -0.97687954), (5.405929e-17, -0.32386547, -0.9461031), (-0.25879174, -0.2065066, -0.9436006), (5.405929e-17, -0.32386547, -0.9461031), (5.514542e-17, -0.21379054, -0.97687954), (2.979216e-17, -0.8934145, -0.44923326), (0.26028952, -0.9055011, -0.3351376), (0.25879422, -0.8629333, -0.43401814), (2.979216e-17, -0.8934145, -0.44923326), (-0.25880766, -0.86296797, -0.4339412), (-0.26028952, -0.9055011, -0.3351376), (0.26028952, -0.9055011, -0.3351376), (2.979216e-17, -0.8934145, -0.44923326), (2.4398088e-17, -0.93783385, -0.3470848), (2.4398088e-17, -0.93783385, -0.3470848), (2.979216e-17, -0.8934145, -0.44923326), (-0.26028952, -0.9055011, -0.3351376), (2.4398088e-17, -0.93783385, -0.3470848), (0.25879315, -0.93755686, -0.23240732), (0.26028952, -0.9055011, -0.3351376), (2.4398088e-17, -0.93783385, -0.3470848), (-0.26028952, -0.9055011, -0.3351376), (-0.25879315, -0.93755686, -0.23240732), (0.25879315, -0.93755686, -0.23240732), (2.4398088e-17, -0.93783385, -0.3470848), (1.870242e-17, -0.9706119, -0.24065073), (1.870242e-17, -0.9706119, -0.24065073), (2.4398088e-17, -0.93783385, -0.3470848), (-0.25879315, -0.93755686, -0.23240732), (0.25879422, -0.7587894, 0.59771585), (0.26028952, -0.82025933, 0.50933695), (-2.9794675e-17, -0.7855819, 0.6187577), (-2.9794675e-17, -0.7855819, 0.6187577), (-0.26028952, -0.82025933, 0.50933695), (-0.25879422, -0.7587894, 0.59771585), (0.26028952, -0.82025933, 0.50933695), (-2.4398088e-17, -0.8495522, 0.5275046), (-2.9794675e-17, -0.7855819, 0.6187577), (-0.26028952, -0.82025933, 0.50933695), (-2.9794675e-17, -0.7855819, 0.6187577), (-2.4398088e-17, -0.8495522, 0.5275046), (0.26028952, -0.82025933, 0.50933695), (0.25879315, -0.8721986, 0.41508514), (-2.4398088e-17, -0.8495522, 0.5275046), (-2.4398088e-17, -0.8495522, 0.5275046), (-0.25879315, -0.8721986, 0.41508514), (-0.26028952, -0.82025933, 0.50933695), (0.25879315, -0.8721986, 0.41508514), (-1.870242e-17, -0.9029394, 0.42976815), (-2.4398088e-17, -0.8495522, 0.5275046), (-0.25879315, -0.8721986, 0.41508514), (-2.4398088e-17, -0.8495522, 0.5275046), (-1.870242e-17, -0.9029394, 0.42976815), (-4.6839248e-17, -0.44923326, 0.8934145), (0.26028952, -0.3351376, 0.9055011), (0.25880766, -0.4339412, 0.86296797), (-4.6839248e-17, -0.44923326, 0.8934145), (-0.25880766, -0.4339412, 0.86296797), (-0.26028952, -0.3351376, 0.9055011), (0.26028952, -0.3351376, 0.9055011), (-4.6839248e-17, -0.44923326, 0.8934145), (-4.9862027e-17, -0.3470848, 0.93783385), (-4.9862027e-17, -0.3470848, 0.93783385), (-4.6839248e-17, -0.44923326, 0.8934145), (-0.26028952, -0.3351376, 0.9055011), (-4.9862027e-17, -0.3470848, 0.93783385), (0.25879315, -0.23240732, 0.93755686), (0.26028952, -0.3351376, 0.9055011), (-4.9862027e-17, -0.3470848, 0.93783385), (-0.26028952, -0.3351376, 0.9055011), (-0.25879315, -0.23240732, 0.93755686), (0.25879315, -0.23240732, 0.93755686), (-4.9862027e-17, -0.3470848, 0.93783385), (-5.2265744e-17, -0.24065073, 0.9706119), (-5.2265744e-17, -0.24065073, 0.9706119), (-4.9862027e-17, -0.3470848, 0.93783385), (-0.25879315, -0.23240732, 0.93755686), (5.2265744e-17, 0.24065073, -0.9706119), (0.26028952, 0.3351376, -0.9055011), (0.25879315, 0.23240732, -0.93755686), (-0.26028952, 0.3351376, -0.9055011), (5.2265744e-17, 0.24065073, -0.9706119), (-0.25879315, 0.23240732, -0.93755686), (0.26028952, 0.3351376, -0.9055011), (5.2265744e-17, 0.24065073, -0.9706119), (4.9862027e-17, 0.3470848, -0.93783385), (5.2265744e-17, 0.24065073, -0.9706119), (-0.26028952, 0.3351376, -0.9055011), (4.9862027e-17, 0.3470848, -0.93783385), (4.9862027e-17, 0.3470848, -0.93783385), (0.25880766, 0.4339412, -0.86296797), (0.26028952, 0.3351376, -0.9055011), (-0.25880766, 0.4339412, -0.86296797), (4.9862027e-17, 0.3470848, -0.93783385), (-0.26028952, 0.3351376, -0.9055011), (0.25880766, 0.4339412, -0.86296797), (4.9862027e-17, 0.3470848, -0.93783385), (4.6839248e-17, 0.44923326, -0.8934145), (4.9862027e-17, 0.3470848, -0.93783385), (-0.25880766, 0.4339412, -0.86296797), (4.6839248e-17, 0.44923326, -0.8934145)] (
        interpolation = "faceVarying"
    )
    point3f[] points = [(0.006928, 0.01827561, 0.04347307), (0.004, 0.01673918, 0.037502185), (0.006928, 0.019661963, 0.03788056), (0.004, 0.015511933, 0.042450454), (0.004, 0.030686239, 0.03121469), (0.006928, 0.027648099, 0.038913734), (0.006928, 0.027756074, 0.031340603), (0.004, 0.030570777, 0.039291117), (0.006928, 0.019750321, 0.03168637), (0.004, 0.01673918, 0.037502185), (0.004, 0.016820254, 0.03181328), (0.006928, 0.019661963, 0.03788056), (-0.006928, 0.019750321, 0.03168637), (-0.004, 0.01673918, 0.037502185), (-0.006928, 0.019661963, 0.03788056), (-0.004, 0.016820254, 0.03181328), (-0.004, 0.030686239, 0.03121469), (-0.006928, 0.027648099, 0.038913734), (-0.004, 0.030570777, 0.039291117), (-0.006928, 0.027756074, 0.031340603), (0.004, -0.001577971, -0.0646537), (0.004, -0.006072672, -0.066913724), (0.006928, 0.000024918878, -0.06712519), (0.006928, -0.005050058, -0.0696774), (-0.004, -0.006072672, -0.066913724), (-0.006928, 0.000024918878, -0.06712519), (-0.006928, -0.005050058, -0.0696774), (-0.004, -0.001577971, -0.0646537), (0.006928, -0.010643558, -0.07106366), (0.006928, -0.005050058, -0.0696774), (0.004, -0.011021936, -0.06814087), (0.004, -0.006072672, -0.066913724), (-0.006928, -0.005050058, -0.0696774), (-0.004, -0.011021936, -0.06814087), (-0.004, -0.006072672, -0.066913724), (-0.006928, -0.010643558, -0.07106366), (0.004, -0.017309532, -0.08208894), (0.006928, -0.009610388, -0.0790498), (0.006928, -0.017182525, -0.079157874), (0.004, -0.009232109, -0.08197357), (0.006928, -0.016836757, -0.07115212), (0.004, -0.011021936, -0.06814087), (0.004, -0.01671084, -0.06822195), (0.006928, -0.010643558, -0.07106366), (-0.006928, -0.010643558, -0.07106366), (-0.006928, -0.016836757, -0.07115212), (-0.004, -0.011021936, -0.06814087), (-0.004, -0.01671084, -0.06822195), (-0.004, -0.009232109, -0.08197357), (-0.004, -0.017309532, -0.08208894), (-0.006928, -0.009610388, -0.0790498), (-0.006928, -0.017182525, -0.079157874), (0.006928, -0.039742906, 0.0719388), (0.006928, -0.0023121163, 0.06816051), (0.004, -0.039448746, 0.074852996), (0.004, -0.0018508022, 0.071057834), (-2.056693e-11, -0.039341185, 0.07591858), (-2.056693e-11, -0.001681555, 0.072117195), (-0.004, -0.0018508022, 0.071057834), (-0.004, -0.039448746, 0.074852996), (-0.006928, -0.0023121163, 0.06816051), (-0.006928, -0.039742906, 0.0719388), (0.006928, -0.040546346, 0.06397925), (0.006928, -0.0035732314, 0.06024716), (0.008, -0.040144626, 0.067959026), (0.008, -0.002942674, 0.064203836), (0.006928, -0.039742906, 0.0719388), (0.006928, -0.0023121163, 0.06816051), (0.006928, -0.0035732314, 0.06024716), (0.006928, -0.040546346, 0.06397925), (0.004, -0.0040344414, 0.057350837), (0.004, -0.040840406, 0.061066054), (-2.056693e-11, -0.0042037894, 0.056290485), (-2.056693e-11, -0.040948067, 0.059999473), (-0.004, -0.040840406, 0.061066054), (-0.004, -0.0040344414, 0.057350837), (0.004, -0.009232109, -0.08197357), (0.004, -0.0012334427, -0.07998985), (0.006928, -0.009610388, -0.0790498), (0.006928, -0.002256157, -0.077227175), (0.008, -0.010126973, -0.07505673), (0.008, -0.0036530555, -0.07345179), (0.006928, -0.010643558, -0.07106366), (0.006928, 0.004403964, -0.07387711), (0.006928, -0.005050058, -0.0696774), (0.008, 0.002214941, -0.07050119), (0.006928, 0.000024918878, -0.06712519), (0.008, 0.007278856, -0.06636586), (0.006928, 0.010149103, -0.069186375), (0.006928, 0.004408609, -0.06354534), (0.004, 0.0023073193, -0.061480872), (0.004, -0.001577971, -0.0646537), (0.004, 0.0054199966, -0.057528492), (0.006928, 0.007923557, -0.059082784), (0.008, 0.011342619, -0.061205894), (0.006928, 0.010399581, -0.053880148), (0.006928, 0.014761579, -0.063329995), (0.008, 0.014208858, -0.055184305), (0.006928, 0.018018143, -0.056488466), (0.006928, 0.019637391, -0.04908968), (0.008, 0.015680714, -0.048459124), (0.006928, 0.011724035, -0.047828566), (0.006928, 0.027756074, 0.031340603), (0.008, 0.023753198, 0.031513486), (0.006928, 0.019750321, 0.03168637), (0.006928, 0.019661963, 0.03788056), (0.008, 0.023655027, 0.03839715), (0.006928, 0.027648099, 0.038913734), (0.006928, 0.025824476, 0.046268065), (0.008, 0.022050092, 0.044871066), (0.006928, 0.01827561, 0.04347307), (0.006928, 0.022475412, 0.052928083), (0.008, 0.019099398, 0.050738063), (0.006928, 0.017783586, 0.058672328), (0.006928, 0.015723385, 0.048548046), (0.004, 0.015511933, 0.042450454), (0.004, 0.013251909, 0.04694515), (0.008, 0.014964062, 0.055801984), (0.006928, 0.012143539, 0.052931737), (0.006928, 0.0076809847, 0.05644668), (0.008, 0.009804099, 0.059865743), (0.006928, 0.011927309, 0.063285805), (0.006928, 0.0024773562, 0.058922805), (0.008, 0.003781515, 0.06273208), (0.006928, 0.0050856746, 0.06654137), (0.006928, -0.0023121163, 0.06816051), (0.008, -0.002942674, 0.064203836), (0.006928, -0.0035732314, 0.06024716), (-0.006928, -0.040546346, 0.06397925), (-0.004, -0.0040344414, 0.057350837), (-0.004, -0.040840406, 0.061066054), (-0.006928, -0.0035732314, 0.06024716), (-0.008, -0.040144626, 0.067959026), (-0.008, -0.002942674, 0.064203836), (-0.006928, -0.039742906, 0.0719388), (-0.006928, -0.0023121163, 0.06816051), (0.004, 0.028588148, 0.04729068), (0.006928, 0.027648099, 0.038913734), (0.004, 0.030570777, 0.039291117), (0.006928, 0.025824476, 0.046268065), (0.004, 0.024946883, 0.054530974), (0.006928, 0.022475412, 0.052928083), (-2.056693e-11, 0.020604204, 0.06154357), (-2.056693e-11, 0.02585132, 0.055117108), (0.004, 0.019848058, 0.060773615), (0.006928, 0.017783586, 0.058672328), (0.006928, 0.011927309, 0.063285805), (0.004, 0.013481501, 0.065788366), (0.006928, 0.0050856746, 0.06654137), (0.004, 0.0060406234, 0.06933056), (0.004, -0.0018508022, 0.071057834), (0.006928, -0.0023121163, 0.06816051), (-0.004, 0.01673918, 0.037502185), (-0.006928, 0.01827561, 0.04347307), (-0.006928, 0.019661963, 0.03788056), (-0.004, 0.015511933, 0.042450454), (-0.006928, 0.015723385, 0.048548046), (-0.004, 0.013251909, 0.04694515), (-0.006928, 0.012143539, 0.052931737), (-0.004, 0.01007907, 0.050830446), (-2.056693e-11, 0.012346478, 0.046359126), (-2.056693e-11, 0.009323021, 0.05006149), (-0.004, 0.006126793, 0.05394412), (-0.006928, 0.0076809847, 0.05644668), (-0.004, 0.0015225076, 0.056134604), (-0.006928, 0.0024773562, 0.058922805), (-0.006928, -0.0035732314, 0.06024716), (-0.004, -0.0040344414, 0.057350837), (-0.006928, 0.027648099, 0.038913734), (-0.004, 0.028588148, 0.04729068), (-0.004, 0.030570777, 0.039291117), (-0.006928, 0.025824476, 0.046268065), (-0.004, 0.024946883, 0.054530974), (-0.006928, 0.022475412, 0.052928083), (-2.056693e-11, 0.020604204, 0.06154357), (-2.056693e-11, 0.02585132, 0.055117108), (-0.004, 0.019848058, 0.060773615), (-0.006928, 0.017783586, 0.058672328), (-0.006928, 0.011927309, 0.063285805), (-0.004, 0.013481501, 0.065788366), (-0.006928, 0.0050856746, 0.06654137), (-0.004, 0.0060406234, 0.06933056), (-0.004, -0.0018508022, 0.071057834), (-0.006928, -0.0023121163, 0.06816051), (-0.006928, -0.009610388, -0.0790498), (-0.004, -0.0012334427, -0.07998985), (-0.004, -0.009232109, -0.08197357), (-0.006928, -0.002256157, -0.077227175), (-0.008, -0.010126973, -0.07505673), (-0.008, -0.0036530555, -0.07345179), (-0.006928, -0.010643558, -0.07106366), (-0.006928, 0.004403964, -0.07387711), (-0.006928, -0.005050058, -0.0696774), (-0.008, 0.002214941, -0.07050119), (-0.006928, 0.000024918878, -0.06712519), (-0.008, 0.007278856, -0.06636586), (-0.006928, 0.010149103, -0.069186375), (-0.006928, 0.004408609, -0.06354534), (-0.004, -0.001577971, -0.0646537), (-0.004, 0.0023073193, -0.061480872), (-0.004, 0.0054199966, -0.057528492), (-0.006928, 0.007923557, -0.059082784), (-0.008, 0.011342619, -0.061205894), (-0.006928, 0.014761579, -0.063329995), (-0.006928, 0.010399581, -0.053880148), (-0.008, 0.014208858, -0.055184305), (-0.006928, 0.018018143, -0.056488466), (-0.006928, 0.019637391, -0.04908968), (-0.008, 0.015680714, -0.048459124), (-0.006928, 0.011724035, -0.047828566), (-0.008, 0.023753198, 0.031513486), (-0.006928, 0.019750321, 0.03168637), (-0.006928, 0.027756074, 0.031340603), (-0.006928, 0.019661963, 0.03788056), (-0.008, 0.023655027, 0.03839715), (-0.006928, 0.027648099, 0.038913734), (-0.006928, 0.025824476, 0.046268065), (-0.008, 0.022050092, 0.044871066), (-0.006928, 0.01827561, 0.04347307), (-0.006928, 0.022475412, 0.052928083), (-0.008, 0.019099398, 0.050738063), (-0.006928, 0.015723385, 0.048548046), (-0.006928, 0.017783586, 0.058672328), (-0.008, 0.014964062, 0.055801984), (-0.006928, 0.012143539, 0.052931737), (-0.006928, 0.0076809847, 0.05644668), (-0.008, 0.009804099, 0.059865743), (-0.006928, 0.011927309, 0.063285805), (-0.006928, 0.0024773562, 0.058922805), (-0.008, 0.003781515, 0.06273208), (-0.006928, 0.0050856746, 0.06654137), (-0.006928, -0.0023121163, 0.06816051), (-0.008, -0.002942674, 0.064203836), (-0.006928, -0.0035732314, 0.06024716), (0.004, -0.032737136, -0.080531664), (0.006928, -0.017182525, -0.079157874), (0.006928, -0.032442976, -0.077617474), (0.004, -0.017309532, -0.08208894), (-2.0566921e-11, -0.032844696, -0.08159724), (-2.0566921e-11, -0.017355405, -0.08316074), (0.004, -0.009232109, -0.08197357), (-2.0566921e-11, -0.009093798, -0.08304286), (-0.004, -0.009232109, -0.08197357), (-0.004, -0.017309532, -0.08208894), (-0.004, -0.032737136, -0.080531664), (-0.006928, -0.017182525, -0.079157874), (-0.006928, -0.032442976, -0.077617474), (0.004, -0.0040344414, 0.057350837), (0.004, 0.0015225076, 0.056134604), (0.006928, -0.0035732314, 0.06024716), (0.006928, 0.0024773562, 0.058922805), (0.006928, 0.0076809847, 0.05644668), (0.004, 0.006126793, 0.05394412), (0.006928, 0.012143539, 0.052931737), (0.004, 0.01007907, 0.050830446), (0.006928, 0.015723385, 0.048548046), (0.004, 0.013251909, 0.04694515), (-2.056693e-11, 0.012346478, 0.046359126), (-2.056693e-11, 0.009323021, 0.05006149), (-0.006928, 0.027756074, 0.031340603), (-0.004, 0.02253361, -0.04955189), (-0.006928, 0.019637391, -0.04908968), (-0.004, 0.030686239, 0.03121469), (-2.0566923e-11, 0.02359407, -0.04972024), (-0.004, 0.020806445, -0.057442322), (-2.0566928e-11, 0.03175895, 0.031167718), (-0.004, 0.030570777, 0.039291117), (-2.0566923e-11, 0.021827526, -0.05779163), (-0.004, 0.017265137, -0.06488429), (-2.0566928e-11, 0.03164117, 0.03943032), (-0.004, 0.028588148, 0.04729068), (-2.0566923e-11, 0.018181633, -0.06545322), (-0.004, 0.012250388, -0.071250856), (-2.0566923e-11, 0.013019445, -0.072005905), (0.004, 0.012250388, -0.071250856), (0.004, 0.017265137, -0.06488429), (0.004, 0.020806445, -0.057442322), (0.004, 0.02253361, -0.04955189), (0.004, 0.030686239, 0.03121469), (0.006928, 0.019637391, -0.04908968), (0.006928, 0.027756074, 0.031340603), (0.004, 0.030570777, 0.039291117), (0.004, 0.028588148, 0.04729068), (-2.056693e-11, 0.029599853, 0.047664963), (0.004, 0.024946883, 0.054530974), (-0.004, 0.024946883, 0.054530974), (-2.056693e-11, 0.02585132, 0.055117108), (0.006928, 0.018018143, -0.056488466), (0.004, 0.02253361, -0.04955189), (0.006928, 0.019637391, -0.04908968), (0.004, 0.020806445, -0.057442322), (0.004, 0.017265137, -0.06488429), (0.006928, 0.014761579, -0.063329995), (0.004, 0.012250388, -0.071250856), (0.006928, 0.010149103, -0.069186375), (0.004, 0.0060068592, -0.07634858), (0.006928, 0.004403964, -0.07387711), (0.006928, -0.002256157, -0.077227175), (0.004, -0.0012334427, -0.07998985), (0.004, 0.0076113753, -0.0529253), (0.006928, 0.011724035, -0.047828566), (0.004, 0.0088277105, -0.04736736), (0.006928, 0.010399581, -0.053880148), (0.006928, 0.007923557, -0.059082784), (0.004, 0.0054199966, -0.057528492), (-0.006928, 0.011724035, -0.047828566), (-0.004, 0.0076113753, -0.0529253), (-0.004, 0.0088277105, -0.04736736), (-0.006928, 0.010399581, -0.053880148), (-0.006928, 0.007923557, -0.059082784), (-0.004, 0.0054199966, -0.057528492), (-0.004, 0.02253361, -0.04955189), (-0.006928, 0.018018143, -0.056488466), (-0.006928, 0.019637391, -0.04908968), (-0.004, 0.020806445, -0.057442322), (-0.004, 0.017265137, -0.06488429), (-0.006928, 0.014761579, -0.063329995), (-0.004, 0.012250388, -0.071250856), (-0.006928, 0.010149103, -0.069186375), (-0.004, 0.0060068592, -0.07634858), (-0.006928, 0.004403964, -0.07387711), (-0.006928, -0.002256157, -0.077227175), (-0.004, -0.0012334427, -0.07998985), (-2.0566923e-11, 0.0065939804, -0.077253126), (0.004, 0.012250388, -0.071250856), (0.004, 0.0060068592, -0.07634858), (-2.0566923e-11, 0.013019445, -0.072005905), (-0.004, 0.012250388, -0.071250856), (-0.004, 0.0060068592, -0.07634858), (-2.0566923e-11, 0.0015372685, -0.060725715), (0.004, -0.001577971, -0.0646537), (0.004, 0.0023073193, -0.061480872), (-2.0566923e-11, -0.0021650975, -0.06374917), (-0.004, -0.001577971, -0.0646537), (-0.004, 0.0023073193, -0.061480872), (0.008, -0.010126973, -0.07505673), (0.006928, -0.017182525, -0.079157874), (0.006928, -0.009610388, -0.0790498), (0.008, -0.017009642, -0.075155005), (0.006928, -0.032442976, -0.077617474), (0.006928, -0.010643558, -0.07106366), (0.008, -0.032041255, -0.0736377), (0.006928, -0.016836757, -0.07115212), (0.006928, -0.031639535, -0.069657914), (-0.006928, -0.009610388, -0.0790498), (-0.006928, -0.017182525, -0.079157874), (-0.008, -0.010126973, -0.07505673), (-0.008, -0.017009642, -0.075155005), (-0.006928, -0.010643558, -0.07106366), (-0.006928, -0.032442976, -0.077617474), (-0.006928, -0.016836757, -0.07115212), (-0.008, -0.032041255, -0.0736377), (-0.006928, -0.031639535, -0.069657914), (-0.006928, 0.019750321, 0.03168637), (-0.006928, 0.011724035, -0.047828566), (-0.004, 0.016820254, 0.03181328), (-0.004, 0.0088277105, -0.04736736), (-2.0566928e-11, 0.015668891, 0.037363973), (-0.004, 0.01673918, 0.037502185), (-2.0566928e-11, 0.015747447, 0.031859256), (-2.0566923e-11, 0.0065902965, -0.052575987), (-0.004, 0.0076113753, -0.0529253), (0.004, 0.016820254, 0.03181328), (0.004, 0.01673918, 0.037502185), (-2.0566925e-11, 0.007767357, -0.04719801), (0.004, 0.0088277105, -0.04736736), (0.004, 0.0076113753, -0.0529253), (0.006928, 0.011724035, -0.047828566), (0.006928, 0.019750321, 0.03168637), (-0.006928, -0.016836757, -0.07115212), (-0.006928, -0.031639535, -0.069657914), (-0.004, -0.01671084, -0.06822195), (-0.004, -0.03134547, -0.066744715), (-2.0566923e-11, -0.011160146, -0.06707059), (-0.004, -0.011021936, -0.06814087), (-2.0566923e-11, -0.016663872, -0.06714925), (-2.0566923e-11, -0.031237813, -0.06567815), (0.004, -0.03134547, -0.066744715), (0.004, -0.01671084, -0.06822195), (0.004, -0.011021936, -0.06814087), (0.006928, -0.031639535, -0.069657914), (0.006928, -0.016836757, -0.07115212), (0.004, 0.0060406234, 0.06933056), (-2.056693e-11, -0.001681555, 0.072117195), (0.004, -0.0018508022, 0.071057834), (-0.004, 0.0060406234, 0.06933056), (-0.004, -0.0018508022, 0.071057834), (-2.056693e-11, 0.0063898377, 0.07035065), (0.004, 0.013481501, 0.065788366), (-0.004, 0.013481501, 0.065788366), (-2.056693e-11, 0.01405042, 0.06670486), (0.004, 0.019848058, 0.060773615), (-0.004, 0.019848058, 0.060773615), (-2.056693e-11, 0.020604204, 0.06154357), (0.004, 0.01007907, 0.050830446), (0.004, 0.006126793, 0.05394412), (-2.056693e-11, 0.009323021, 0.05006149), (-0.004, 0.006126793, 0.05394412), (-0.004, 0.01007907, 0.050830446), (-2.056693e-11, 0.005557874, 0.05302762), (0.004, 0.0015225076, 0.056134604), (-0.004, 0.0015225076, 0.056134604), (-2.056693e-11, 0.0011731928, 0.05511352), (0.004, -0.0040344414, 0.057350837), (-0.004, -0.0040344414, 0.057350837), (-2.056693e-11, -0.0042037894, 0.056290485), (-2.056693e-11, 0.012346478, 0.046359126), (0.004, 0.015511933, 0.042450454), (0.004, 0.013251909, 0.04694515), (-0.004, 0.013251909, 0.04694515), (-0.004, 0.015511933, 0.042450454), (-2.0566928e-11, 0.014500228, 0.04207617), (0.004, 0.01673918, 0.037502185), (-0.004, 0.01673918, 0.037502185), (-2.0566928e-11, 0.015668891, 0.037363973), (0.004, 0.0023073193, -0.061480872), (0.004, 0.0054199966, -0.057528492), (-2.0566923e-11, 0.0015372685, -0.060725715), (-0.004, 0.0054199966, -0.057528492), (-0.004, 0.0023073193, -0.061480872), (-2.0566923e-11, 0.0045034993, -0.056959573), (0.004, 0.0076113753, -0.0529253), (-0.004, 0.0076113753, -0.0529253), (-2.0566923e-11, 0.0065902965, -0.052575987), (-2.0566923e-11, -0.0021650975, -0.06374917), (0.004, -0.006072672, -0.066913724), (0.004, -0.001577971, -0.0646537), (-0.004, -0.001577971, -0.0646537), (-0.004, -0.006072672, -0.066913724), (-2.0566923e-11, -0.006447058, -0.06590302), (0.004, -0.011021936, -0.06814087), (-0.004, -0.011021936, -0.06814087), (-2.0566923e-11, -0.011160146, -0.06707059), (-2.0566921e-11, -0.009093798, -0.08304286), (0.004, -0.0012334427, -0.07998985), (0.004, -0.009232109, -0.08197357), (-0.004, -0.0012334427, -0.07998985), (-0.004, -0.009232109, -0.08197357), (-2.0566921e-11, -0.00085915683, -0.08100155), (0.004, 0.0060068592, -0.07634858), (-0.004, 0.0060068592, -0.07634858), (-2.0566923e-11, 0.0065939804, -0.077253126)]
}

