#usda 1.0
(
    defaultPrim = "SM_Hexagon_Sign6_1_315_1_315_1_315"
    upAxis = "Z"
)

def Mesh "SM_Hexagon_Sign6_1_315_1_315_1_315"
{
    int[] faceVertexCounts = [3, 3, 3, 3, 3, 3, 3, 3, 3, 3, 3, 3, 3, 3, 3, 3, 3, 3, 3, 3, 3, 3, 3, 3, 3, 3, 3, 3, 3, 3, 3, 3, 3, 3, 3, 3, 3, 3, 3, 3, 3, 3, 3, 3, 3, 3, 3, 3, 3, 3, 3, 3, 3, 3, 3, 3, 3, 3, 3, 3, 3, 3, 3, 3, 3, 3, 3, 3, 3, 3, 3, 3, 3, 3, 3, 3, 3, 3, 3, 3, 3, 3, 3, 3, 3, 3, 3, 3, 3, 3, 3, 3, 3, 3, 3, 3, 3, 3, 3, 3, 3, 3, 3, 3, 3, 3, 3, 3, 3, 3, 3, 3, 3, 3, 3, 3, 3, 3, 3, 3, 3, 3, 3, 3, 3, 3, 3, 3, 3, 3, 3, 3, 3, 3, 3, 3, 3, 3, 3, 3, 3, 3, 3, 3, 3, 3, 3, 3, 3, 3, 3, 3, 3, 3, 3, 3, 3, 3, 3, 3, 3, 3, 3, 3, 3, 3, 3, 3, 3, 3, 3, 3, 3, 3, 3, 3, 3, 3, 3, 3, 3, 3, 3, 3, 3, 3, 3, 3, 3, 3, 3, 3, 3, 3, 3, 3, 3, 3, 3, 3, 3, 3, 3, 3, 3, 3, 3, 3, 3, 3, 3, 3, 3, 3, 3, 3, 3, 3, 3, 3, 3, 3, 3, 3, 3, 3, 3, 3, 3, 3, 3, 3, 3, 3, 3, 3, 3, 3, 3, 3, 3, 3, 3, 3, 3, 3, 3, 3, 3, 3, 3, 3, 3, 3, 3, 3, 3, 3, 3, 3, 3, 3, 3, 3, 3, 3, 3, 3, 3, 3, 3, 3, 3, 3, 3, 3, 3, 3, 3, 3, 3, 3, 3, 3, 3, 3, 3, 3, 3, 3, 3, 3, 3, 3, 3, 3, 3, 3, 3, 3, 3, 3, 3, 3, 3, 3, 3, 3, 3, 3, 3, 3, 3, 3, 3, 3, 3, 3, 3, 3, 3, 3, 3, 3, 3, 3, 3, 3, 3, 3, 3, 3, 3, 3, 3, 3, 3, 3, 3, 3, 3, 3, 3, 3, 3, 3, 3, 3, 3, 3, 3, 3, 3, 3, 3, 3]
    int[] faceVertexIndices = [0, 1, 2, 2, 3, 0, 4, 5, 6, 6, 7, 4, 8, 9, 10, 10, 11, 8, 12, 13, 14, 14, 15, 12, 16, 17, 18, 18, 19, 16, 20, 21, 22, 22, 23, 20, 24, 25, 26, 26, 27, 24, 28, 29, 30, 30, 31, 28, 32, 33, 34, 34, 35, 32, 36, 37, 38, 38, 39, 36, 40, 41, 11, 11, 10, 40, 31, 40, 10, 10, 28, 31, 42, 29, 28, 43, 28, 10, 28, 43, 42, 44, 42, 43, 10, 9, 43, 43, 45, 44, 45, 43, 9, 46, 44, 45, 9, 8, 47, 47, 48, 9, 9, 48, 45, 48, 47, 49, 45, 50, 46, 50, 45, 48, 49, 51, 48, 48, 51, 50, 51, 49, 52, 46, 50, 53, 53, 54, 46, 50, 51, 55, 52, 55, 51, 55, 53, 50, 55, 52, 15, 15, 14, 55, 53, 55, 14, 54, 53, 56, 14, 56, 53, 56, 57, 54, 35, 57, 56, 56, 32, 35, 32, 56, 14, 14, 13, 32, 33, 32, 13, 13, 58, 33, 59, 58, 13, 13, 12, 59, 60, 61, 23, 23, 22, 60, 39, 60, 22, 22, 36, 39, 62, 37, 36, 63, 36, 22, 36, 63, 62, 64, 62, 63, 22, 21, 63, 63, 65, 64, 65, 63, 21, 66, 64, 65, 21, 20, 67, 67, 68, 21, 21, 68, 65, 68, 67, 69, 65, 70, 66, 70, 65, 68, 69, 71, 68, 68, 71, 70, 71, 69, 72, 66, 70, 73, 73, 74, 66, 70, 71, 75, 72, 75, 71, 75, 73, 70, 75, 72, 3, 3, 2, 75, 73, 75, 2, 74, 73, 76, 2, 76, 73, 76, 77, 74, 27, 77, 76, 76, 24, 27, 24, 76, 2, 2, 1, 24, 25, 24, 1, 1, 78, 25, 79, 78, 1, 1, 0, 79, 80, 81, 82, 80, 82, 83, 84, 80, 83, 82, 85, 83, 23, 61, 20, 61, 86, 87, 61, 87, 20, 69, 67, 20, 87, 69, 20, 87, 16, 19, 19, 88, 89, 87, 19, 89, 89, 59, 12, 87, 89, 52, 89, 12, 52, 12, 15, 52, 87, 52, 69, 52, 49, 47, 3, 72, 69, 52, 47, 11, 47, 8, 11, 79, 3, 69, 79, 0, 3, 52, 4, 69, 4, 79, 69, 52, 11, 4, 90, 91, 79, 4, 90, 79, 4, 7, 90, 11, 92, 4, 11, 41, 92, 92, 93, 4, 94, 26, 25, 25, 95, 94, 95, 25, 78, 78, 79, 91, 91, 96, 78, 78, 96, 95, 96, 91, 90, 90, 97, 96, 95, 96, 97, 97, 90, 7, 7, 6, 97, 97, 98, 95, 94, 95, 98, 98, 97, 6, 98, 99, 94, 99, 98, 100, 6, 100, 98, 100, 101, 99, 102, 101, 100, 103, 100, 6, 100, 103, 102, 104, 102, 103, 6, 5, 103, 103, 105, 104, 105, 103, 5, 106, 104, 105, 5, 4, 93, 31, 30, 106, 93, 107, 5, 5, 107, 105, 107, 93, 92, 105, 108, 106, 106, 108, 31, 108, 105, 107, 40, 31, 108, 92, 109, 107, 107, 109, 108, 108, 109, 40, 109, 92, 41, 41, 40, 109, 110, 34, 33, 33, 111, 110, 111, 33, 58, 58, 59, 89, 89, 112, 58, 58, 112, 111, 112, 89, 88, 88, 113, 112, 111, 112, 113, 113, 88, 19, 19, 18, 113, 113, 114, 111, 110, 111, 114, 114, 113, 18, 114, 115, 110, 115, 114, 116, 18, 116, 114, 116, 117, 115, 118, 117, 116, 119, 116, 18, 116, 119, 118, 120, 118, 119, 18, 17, 119, 119, 121, 120, 121, 119, 17, 122, 120, 121, 17, 16, 87, 39, 38, 122, 87, 123, 17, 17, 123, 121, 123, 87, 86, 121, 124, 122, 122, 124, 39, 124, 121, 123, 60, 39, 124, 86, 125, 123, 123, 125, 124, 124, 125, 60, 125, 86, 61, 61, 60, 125, 126, 120, 122, 122, 38, 126, 120, 126, 127, 127, 118, 120, 117, 118, 127, 128, 126, 38, 38, 37, 128, 84, 127, 126, 126, 128, 84, 127, 129, 117, 129, 127, 84, 115, 117, 129, 80, 84, 128, 84, 83, 129, 129, 130, 115, 130, 129, 83, 110, 115, 130, 130, 34, 110, 34, 130, 131, 83, 131, 130, 131, 35, 34, 57, 35, 131, 132, 131, 83, 131, 132, 57, 54, 57, 132, 83, 85, 132, 132, 133, 54, 133, 132, 85, 46, 54, 133, 133, 44, 46, 44, 133, 134, 85, 134, 133, 134, 42, 44, 29, 42, 134, 135, 134, 85, 134, 135, 29, 30, 29, 135, 85, 82, 135, 135, 136, 30, 136, 135, 82, 106, 30, 136, 136, 104, 106, 104, 136, 137, 82, 137, 136, 137, 102, 104, 101, 102, 137, 138, 137, 82, 137, 138, 101, 99, 101, 138, 82, 81, 138, 138, 139, 99, 139, 138, 81, 94, 99, 139, 139, 26, 94, 26, 139, 140, 81, 140, 139, 140, 27, 26, 77, 27, 140, 141, 140, 81, 140, 141, 77, 81, 80, 141, 74, 77, 141, 141, 142, 74, 142, 141, 80, 66, 74, 142, 142, 64, 66, 80, 143, 142, 64, 142, 143, 128, 143, 80, 143, 62, 64, 143, 128, 37, 37, 62, 143, 144, 145, 146, 146, 147, 144, 148, 144, 147, 147, 149, 148, 150, 148, 149, 149, 151, 150, 152, 150, 151, 151, 153, 152, 154, 146, 145, 145, 155, 154, 156, 154, 155, 155, 157, 156, 158, 156, 157, 157, 159, 158, 160, 158, 159, 159, 161, 160, 162, 160, 161, 161, 163, 162, 164, 162, 163, 163, 165, 164, 166, 164, 165, 165, 167, 166, 168, 166, 167, 167, 169, 168, 170, 168, 169, 169, 171, 170, 172, 170, 171, 171, 173, 172, 174, 172, 173, 173, 175, 174, 176, 174, 175, 175, 177, 176, 178, 176, 177, 177, 179, 178, 153, 178, 179, 179, 152, 153, 180, 181, 182, 182, 183, 180, 184, 180, 183, 183, 185, 184, 186, 184, 185, 185, 187, 186, 188, 186, 187, 187, 189, 188, 190, 182, 181, 181, 191, 190, 192, 190, 191, 191, 193, 192, 194, 192, 193, 193, 195, 194, 196, 194, 195, 195, 197, 196, 198, 196, 197, 197, 199, 198, 200, 198, 199, 199, 201, 200, 202, 200, 201, 201, 203, 202, 204, 202, 203, 203, 205, 204, 206, 204, 205, 205, 207, 206, 208, 206, 207, 207, 209, 208, 210, 208, 209, 209, 211, 210, 212, 210, 211, 211, 213, 212, 214, 212, 213, 213, 215, 214, 189, 214, 215, 215, 188, 189]
    normal3f[] normals = [(-0.00083853316, -0.49987558, 0.8660968), (0.009394245, -0.5007093, 0.8655645), (0.009427753, -0.49926075, 0.86640054), (0.009427753, -0.49926075, 0.86640054), (-0.0008380333, -0.49844775, 0.86691934), (-0.00083853316, -0.49987558, 0.8660968), (-0.9999996, 0.0007036457, -0.00056211115), (0.009530171, -0.9999543, -0.0008360818), (0.00956183, -0.9999539, 0.00083662925), (0.00956183, -0.9999539, 0.00083662925), (-0.00070449023, -0.9999981, 0.0017908341), (-0.9999996, 0.0007036457, -0.00056211115), (0.000134898, -0.5001242, -0.86595374), (0.010368723, -0.49925202, -0.8663947), (0.010400088, -0.5007006, -0.8655581), (0.010400088, -0.5007006, -0.8655581), (0.00013346829, -0.5015505, -0.8651284), (0.000134898, -0.5001242, -0.86595374), (0.0008385323, 0.49987558, -0.8660968), (0.0110724885, 0.500695, -0.865553), (0.011104626, 0.4992463, -0.866389), (0.011104626, 0.4992463, -0.866389), (0.00083802466, 0.49844784, -0.86691934), (0.0008385323, 0.49987558, -0.8660968), (0.00070356, 0.99999976, -0.00014322026), (0.010935297, 0.99993986, 0.00084746955), (0.01096924, 0.9999395, -0.00082515174), (0.01096924, 0.9999395, -0.00082515174), (0.0007044781, 0.9999981, -0.001790895), (0.00070356, 0.99999976, -0.00014322026), (-0.00013490052, 0.5001243, 0.8659536), (0.010097261, 0.49923778, 0.8664062), (0.0101320855, 0.50068617, 0.86556965), (0.0101320855, 0.50068617, 0.86556965), (-0.00013346234, 0.5015504, 0.86512846), (-0.00013490052, 0.5001243, 0.8659536), (0.2541175, -0.48379248, 0.83747786), (0.25856358, -0.66072524, 0.7046892), (0.6426689, -0.5290286, 0.55417097), (0.6426689, -0.5290286, 0.55417097), (0.6455041, -0.38202032, 0.6613509), (0.2541175, -0.48379248, 0.83747786), (0.38075358, -0.46357906, -0.80007577), (0.76336455, -0.32410955, -0.5587731), (0.64328825, -0.5295597, -0.5529437), (0.64328825, -0.5295597, -0.5529437), (0.25934416, -0.6614049, -0.70376426), (0.38075358, -0.46357906, -0.80007577), (0.25573903, 0.48343387, -0.83719134), (0.26028314, 0.66036105, -0.7043976), (0.64403415, 0.5281247, -0.55344766), (0.64403415, 0.5281247, -0.55344766), (0.6467816, 0.38111213, -0.6606263), (0.25573903, 0.48343387, -0.83719134), (0.38050535, 0.46304357, 0.80050385), (0.7631904, 0.32303607, 0.55963224), (0.6434148, 0.5286515, 0.5536651), (0.6434148, 0.5286515, 0.5536651), (0.25949195, 0.66103065, 0.7040614), (0.38050535, 0.46304357, 0.80050385), (0.008467466, -0.6647637, -0.7470057), (-0.00012336716, -0.7253846, -0.68834376), (0.00013346829, -0.5015505, -0.8651284), (0.00013346829, -0.5015505, -0.8651284), (0.010400088, -0.5007006, -0.8655581), (0.008467466, -0.6647637, -0.7470057), (0.25934416, -0.6614049, -0.70376426), (0.008467466, -0.6647637, -0.7470057), (0.010400088, -0.5007006, -0.8655581), (0.010400088, -0.5007006, -0.8655581), (0.38075358, -0.46357906, -0.80007577), (0.25934416, -0.6614049, -0.70376426), (0.646249, -0.38210317, -0.6605751), (0.76336455, -0.32410955, -0.5587731), (0.38075358, -0.46357906, -0.80007577), (0.2550607, -0.4835257, -0.8373452), (0.38075358, -0.46357906, -0.80007577), (0.010400088, -0.5007006, -0.8655581), (0.38075358, -0.46357906, -0.80007577), (0.2550607, -0.4835257, -0.8373452), (0.646249, -0.38210317, -0.6605751), (0.6436166, -0.21576992, -0.7343032), (0.646249, -0.38210317, -0.6605751), (0.2550607, -0.4835257, -0.8373452), (0.010400088, -0.5007006, -0.8655581), (0.010368723, -0.49925202, -0.8663947), (0.2550607, -0.4835257, -0.8373452), (0.2550607, -0.4835257, -0.8373452), (0.2597529, -0.2800562, -0.9241737), (0.6436166, -0.21576992, -0.7343032), (0.2597529, -0.2800562, -0.9241737), (0.2550607, -0.4835257, -0.8373452), (0.010368723, -0.49925202, -0.8663947), (0.5025323, -0.00076166226, -0.8645581), (0.6436166, -0.21576992, -0.7343032), (0.2597529, -0.2800562, -0.9241737), (0.010368723, -0.49925202, -0.8663947), (0.000134898, -0.5001242, -0.86595374), (-0.9999996, 0.00070342346, -0.0005624971), (-0.9999996, 0.00070342346, -0.0005624971), (0.009100865, -0.23536555, -0.9718643), (0.010368723, -0.49925202, -0.8663947), (0.010368723, -0.49925202, -0.8663947), (0.009100865, -0.23536555, -0.9718643), (0.2597529, -0.2800562, -0.9241737), (0.009100865, -0.23536555, -0.9718643), (-0.9999996, 0.00070342346, -0.0005624971), (0.00052701624, -0.048527982, -0.99882174), (0.2597529, -0.2800562, -0.9241737), (0.19796427, -0.00060137926, -0.980209), (0.5025323, -0.00076166226, -0.8645581), (0.19796427, -0.00060137926, -0.980209), (0.2597529, -0.2800562, -0.9241737), (0.009100865, -0.23536555, -0.9718643), (0.00052701624, -0.048527982, -0.99882174), (0.004837219, 0.04572791, -0.9989423), (0.009100865, -0.23536555, -0.9718643), (0.009100865, -0.23536555, -0.9718643), (0.004837219, 0.04572791, -0.9989423), (0.19796427, -0.00060137926, -0.980209), (0.004837219, 0.04572791, -0.9989423), (0.00052701624, -0.048527982, -0.99882174), (-0.9999996, 0.0007036449, -0.0005621115), (0.5025323, -0.00076166226, -0.8645581), (0.19796427, -0.00060137926, -0.980209), (0.26014635, 0.27881217, -0.9244392), (0.26014635, 0.27881217, -0.9244392), (0.64391637, 0.21416561, -0.73450994), (0.5025323, -0.00076166226, -0.8645581), (0.19796427, -0.00060137926, -0.980209), (0.004837219, 0.04572791, -0.9989423), (0.009269932, 0.31453964, -0.94919914), (-0.9999996, 0.0007036449, -0.0005621115), (0.009269932, 0.31453964, -0.94919914), (0.004837219, 0.04572791, -0.9989423), (0.009269932, 0.31453964, -0.94919914), (0.26014635, 0.27881217, -0.9244392), (0.19796427, -0.00060137926, -0.980209), (0.009269932, 0.31453964, -0.94919914), (-0.9999996, 0.0007036449, -0.0005621115), (0.00083802466, 0.49844784, -0.86691934), (0.00083802466, 0.49844784, -0.86691934), (0.011104626, 0.4992463, -0.866389), (0.009269932, 0.31453964, -0.94919914), (0.26014635, 0.27881217, -0.9244392), (0.009269932, 0.31453964, -0.94919914), (0.011104626, 0.4992463, -0.866389), (0.64391637, 0.21416561, -0.73450994), (0.26014635, 0.27881217, -0.9244392), (0.3813992, 0.46114877, -0.8011719), (0.011104626, 0.4992463, -0.866389), (0.3813992, 0.46114877, -0.8011719), (0.26014635, 0.27881217, -0.9244392), (0.3813992, 0.46114877, -0.8011719), (0.76382273, 0.32195795, -0.55939084), (0.64391637, 0.21416561, -0.73450994), (0.6467816, 0.38111213, -0.6606263), (0.76382273, 0.32195795, -0.55939084), (0.3813992, 0.46114877, -0.8011719), (0.3813992, 0.46114877, -0.8011719), (0.25573903, 0.48343387, -0.83719134), (0.6467816, 0.38111213, -0.6606263), (0.25573903, 0.48343387, -0.83719134), (0.3813992, 0.46114877, -0.8011719), (0.011104626, 0.4992463, -0.866389), (0.011104626, 0.4992463, -0.866389), (0.0110724885, 0.500695, -0.865553), (0.25573903, 0.48343387, -0.83719134), (0.26028314, 0.66036105, -0.7043976), (0.25573903, 0.48343387, -0.83719134), (0.0110724885, 0.500695, -0.865553), (0.0110724885, 0.500695, -0.865553), (0.00961846, 0.72397465, -0.6897594), (0.26028314, 0.66036105, -0.7043976), (0.0008875556, 0.6607875, -0.75057256), (0.00961846, 0.72397465, -0.6897594), (0.0110724885, 0.500695, -0.865553), (0.0110724885, 0.500695, -0.865553), (0.0008385323, 0.49987558, -0.8660968), (0.0008875556, 0.6607875, -0.75057256), (0.008563323, 0.66474605, 0.7470204), (-0.9999996, 0.00070313405, -0.00056298403), (-0.00013346234, 0.5015504, 0.86512846), (-0.00013346234, 0.5015504, 0.86512846), (0.0101320855, 0.50068617, 0.86556965), (0.008563323, 0.66474605, 0.7470204), (0.25949195, 0.66103065, 0.7040614), (0.008563323, 0.66474605, 0.7470204), (0.0101320855, 0.50068617, 0.86556965), (0.0101320855, 0.50068617, 0.86556965), (0.38050535, 0.46304357, 0.80050385), (0.25949195, 0.66103065, 0.7040614), (0.6460386, 0.38119587, 0.6613047), (0.7631904, 0.32303607, 0.55963224), (0.38050535, 0.46304357, 0.80050385), (0.25480443, 0.4831664, 0.83763057), (0.38050535, 0.46304357, 0.80050385), (0.0101320855, 0.50068617, 0.86556965), (0.38050535, 0.46304357, 0.80050385), (0.25480443, 0.4831664, 0.83763057), (0.6460386, 0.38119587, 0.6613047), (0.64309347, 0.21486421, 0.7350267), (0.6460386, 0.38119587, 0.6613047), (0.25480443, 0.4831664, 0.83763057), (0.0101320855, 0.50068617, 0.86556965), (0.010097261, 0.49923778, 0.8664062), (0.25480443, 0.4831664, 0.83763057), (0.25480443, 0.4831664, 0.83763057), (0.25910792, 0.27969113, 0.92446524), (0.64309347, 0.21486421, 0.7350267), (0.25910792, 0.27969113, 0.92446524), (0.25480443, 0.4831664, 0.83763057), (0.010097261, 0.49923778, 0.8664062), (0.5015613, 0.000055303473, 0.86512214), (0.64309347, 0.21486421, 0.7350267), (0.25910792, 0.27969113, 0.92446524), (0.010097261, 0.49923778, 0.8664062), (-0.00013490052, 0.5001243, 0.8659536), (-0.0003082697, 0.3196158, 0.9475472), (-0.0003082697, 0.3196158, 0.9475472), (0.008339473, 0.23535328, 0.9718741), (0.010097261, 0.49923778, 0.8664062), (0.010097261, 0.49923778, 0.8664062), (0.008339473, 0.23535328, 0.9718741), (0.25910792, 0.27969113, 0.92446524), (0.008339473, 0.23535328, 0.9718741), (-0.0003082697, 0.3196158, 0.9475472), (-0.9999996, 0.0007036453, -0.00056211004), (0.25910792, 0.27969113, 0.92446524), (0.19686304, 0.0003236227, 0.98043096), (0.5015613, 0.000055303473, 0.86512214), (0.19686304, 0.0003236227, 0.98043096), (0.25910792, 0.27969113, 0.92446524), (0.008339473, 0.23535328, 0.9718741), (-0.9999996, 0.0007036453, -0.00056211004), (0.0036498262, -0.04573388, 0.9989471), (0.008339473, 0.23535328, 0.9718741), (0.008339473, 0.23535328, 0.9718741), (0.0036498262, -0.04573388, 0.9989471), (0.19686304, 0.0003236227, 0.98043096), (0.0036498262, -0.04573388, 0.9989471), (-0.9999996, 0.0007036453, -0.00056211004), (-0.0007113756, -0.23341833, 0.9723761), (0.5015613, 0.000055303473, 0.86512214), (0.19686304, 0.0003236227, 0.98043096), (0.2587146, -0.27917713, 0.9247307), (0.2587146, -0.27917713, 0.9247307), (0.642788, -0.21507029, 0.7352336), (0.5015613, 0.000055303473, 0.86512214), (0.19686304, 0.0003236227, 0.98043096), (0.0036498262, -0.04573388, 0.9989471), (0.0077601587, -0.31455162, 0.9492087), (-0.0007113756, -0.23341833, 0.9723761), (0.0077601587, -0.31455162, 0.9492087), (0.0036498262, -0.04573388, 0.9989471), (0.0077601587, -0.31455162, 0.9492087), (0.2587146, -0.27917713, 0.9247307), (0.19686304, 0.0003236227, 0.98043096), (0.0077601587, -0.31455162, 0.9492087), (-0.0007113756, -0.23341833, 0.9723761), (-0.0008380333, -0.49844775, 0.86691934), (-0.0008380333, -0.49844775, 0.86691934), (0.009427753, -0.49926075, 0.86640054), (0.0077601587, -0.31455162, 0.9492087), (0.2587146, -0.27917713, 0.9247307), (0.0077601587, -0.31455162, 0.9492087), (0.009427753, -0.49926075, 0.86640054), (0.642788, -0.21507029, 0.7352336), (0.2587146, -0.27917713, 0.9247307), (0.3798526, -0.4616836, 0.8015984), (0.009427753, -0.49926075, 0.86640054), (0.3798526, -0.4616836, 0.8015984), (0.2587146, -0.27917713, 0.9247307), (0.3798526, -0.4616836, 0.8015984), (0.76273906, -0.32303232, 0.56024927), (0.642788, -0.21507029, 0.7352336), (0.6455041, -0.38202032, 0.6613509), (0.76273906, -0.32303232, 0.56024927), (0.3798526, -0.4616836, 0.8015984), (0.3798526, -0.4616836, 0.8015984), (0.2541175, -0.48379248, 0.83747786), (0.6455041, -0.38202032, 0.6613509), (0.2541175, -0.48379248, 0.83747786), (0.3798526, -0.4616836, 0.8015984), (0.009427753, -0.49926075, 0.86640054), (0.009427753, -0.49926075, 0.86640054), (0.009394245, -0.5007093, 0.8655645), (0.2541175, -0.48379248, 0.83747786), (0.25856358, -0.66072524, 0.7046892), (0.2541175, -0.48379248, 0.83747786), (0.009394245, -0.5007093, 0.8655645), (0.009394245, -0.5007093, 0.8655645), (0.007824787, -0.72398514, 0.68977123), (0.25856358, -0.66072524, 0.7046892), (-0.9999996, 0.0007036472, -0.0005621042), (0.007824787, -0.72398514, 0.68977123), (0.009394245, -0.5007093, 0.8655645), (0.009394245, -0.5007093, 0.8655645), (-0.00083853316, -0.49987558, 0.8660968), (-0.9999996, 0.0007036472, -0.0005621042), (0.99999934, -0.0006163178, 0.0010192436), (0.99999493, -0.002439216, 0.0020609722), (0.9999993, -0.0011431866, 0.00040916548), (0.99999934, -0.0006163178, 0.0010192436), (0.9999993, -0.0011431866, 0.00040916548), (0.99999994, -0.0003514111, 0.00025792565), (0.9999981, 0.0014621698, 0.0013157239), (0.99999934, -0.0006163178, 0.0010192436), (0.99999994, -0.0003514111, 0.00025792565), (0.9999993, -0.0011431866, 0.00040916548), (0.9999979, -0.0011338958, -0.0016903805), (0.99999994, -0.0003514111, 0.00025792565), (-0.00013346234, 0.5015504, 0.86512846), (-0.9999996, 0.00070313405, -0.00056298403), (-0.00013490052, 0.5001243, 0.8659536), (-0.9999996, 0.00070313405, -0.00056298403), (0.0003681086, 0.88927466, 0.4573734), (-0.9999996, 0.00070364185, -0.00056211423), (-0.9999996, 0.00070313405, -0.00056298403), (-0.9999996, 0.00070364185, -0.00056211423), (-0.00013490052, 0.5001243, 0.8659536), (-0.9999996, 0.0007036453, -0.00056211004), (-0.0003082697, 0.3196158, 0.9475472), (-0.00013490052, 0.5001243, 0.8659536), (-0.9999996, 0.00070364185, -0.00056211423), (-0.9999996, 0.0007036453, -0.00056211004), (-0.00013490052, 0.5001243, 0.8659536), (-0.9999996, 0.00070364185, -0.00056211423), (0.00070356, 0.99999976, -0.00014322026), (0.0007044781, 0.9999981, -0.001790895), (0.0007044781, 0.9999981, -0.001790895), (0.00083344796, 0.95881486, -0.2840305), (-0.9999996, 0.00070364046, -0.00056210574), (-0.9999996, 0.00070364185, -0.00056211423), (0.0007044781, 0.9999981, -0.001790895), (-0.9999996, 0.00070364046, -0.00056210574), (-0.9999996, 0.00070364046, -0.00056210574), (0.0008875556, 0.6607875, -0.75057256), (0.0008385323, 0.49987558, -0.8660968), (-0.9999996, 0.00070364185, -0.00056211423), (-0.9999996, 0.00070364046, -0.00056210574), (-0.9999996, 0.0007036449, -0.0005621115), (-0.9999996, 0.00070364046, -0.00056210574), (0.0008385323, 0.49987558, -0.8660968), (-0.9999996, 0.0007036449, -0.0005621115), (0.0008385323, 0.49987558, -0.8660968), (0.00083802466, 0.49844784, -0.86691934), (-0.9999996, 0.0007036449, -0.0005621115), (-0.9999996, 0.00070364185, -0.00056211423), (-0.9999996, 0.0007036449, -0.0005621115), (-0.9999996, 0.0007036453, -0.00056211004), (-0.9999996, 0.0007036449, -0.0005621115), (0.00052701624, -0.048527982, -0.99882174), (-0.9999996, 0.00070342346, -0.0005624971), (-0.0008380333, -0.49844775, 0.86691934), (-0.0007113756, -0.23341833, 0.9723761), (-0.9999996, 0.0007036453, -0.00056211004), (-0.9999996, 0.0007036449, -0.0005621115), (-0.9999996, 0.00070342346, -0.0005624971), (0.00013346829, -0.5015505, -0.8651284), (-0.9999996, 0.00070342346, -0.0005624971), (0.000134898, -0.5001242, -0.86595374), (0.00013346829, -0.5015505, -0.8651284), (-0.9999996, 0.0007036472, -0.0005621042), (-0.0008380333, -0.49844775, 0.86691934), (-0.9999996, 0.0007036453, -0.00056211004), (-0.9999996, 0.0007036472, -0.0005621042), (-0.00083853316, -0.49987558, 0.8660968), (-0.0008380333, -0.49844775, 0.86691934), (-0.9999996, 0.0007036449, -0.0005621115), (-0.9999996, 0.0007036457, -0.00056211115), (-0.9999996, 0.0007036453, -0.00056211004), (-0.9999996, 0.0007036457, -0.00056211115), (-0.9999996, 0.0007036472, -0.0005621042), (-0.9999996, 0.0007036453, -0.00056211004), (-0.9999996, 0.0007036449, -0.0005621115), (0.00013346829, -0.5015505, -0.8651284), (-0.9999996, 0.0007036457, -0.00056211115), (-0.9999996, 0.0007047579, -0.00056211726), (-0.00089532865, -0.84074116, 0.5414367), (-0.9999996, 0.0007036472, -0.0005621042), (-0.9999996, 0.0007036457, -0.00056211115), (-0.9999996, 0.0007047579, -0.00056211726), (-0.9999996, 0.0007036472, -0.0005621042), (-0.9999996, 0.0007036457, -0.00056211115), (-0.00070449023, -0.9999981, 0.0017908341), (-0.9999996, 0.0007047579, -0.00056211726), (0.00013346829, -0.5015505, -0.8651284), (-0.00036848415, -0.8892705, -0.4573816), (-0.9999996, 0.0007036457, -0.00056211115), (0.00013346829, -0.5015505, -0.8651284), (-0.00012336716, -0.7253846, -0.68834376), (-0.00036848415, -0.8892705, -0.4573816), (-0.00036848415, -0.8892705, -0.4573816), (-0.00057897426, -0.9804081, -0.1969767), (-0.9999996, 0.0007036457, -0.00056211115), (0.5012707, -0.7491223, 0.4330629), (0.6426689, -0.5290286, 0.55417097), (0.25856358, -0.66072524, 0.7046892), (0.25856358, -0.66072524, 0.7046892), (0.19654189, -0.84888464, 0.4906794), (0.5012707, -0.7491223, 0.4330629), (0.19654189, -0.84888464, 0.4906794), (0.25856358, -0.66072524, 0.7046892), (0.007824787, -0.72398514, 0.68977123), (0.007824787, -0.72398514, 0.68977123), (-0.9999996, 0.0007036472, -0.0005621042), (-0.00089532865, -0.84074116, 0.5414367), (-0.00089532865, -0.84074116, 0.5414367), (0.0033609227, -0.8879799, 0.45987004), (0.007824787, -0.72398514, 0.68977123), (0.007824787, -0.72398514, 0.68977123), (0.0033609227, -0.8879799, 0.45987004), (0.19654189, -0.84888464, 0.4906794), (0.0033609227, -0.8879799, 0.45987004), (-0.00089532865, -0.84074116, 0.5414367), (-0.9999996, 0.0007047579, -0.00056211726), (-0.9999996, 0.0007047579, -0.00056211726), (0.00771172, -0.9793156, 0.20219208), (0.0033609227, -0.8879799, 0.45987004), (0.19654189, -0.84888464, 0.4906794), (0.0033609227, -0.8879799, 0.45987004), (0.00771172, -0.9793156, 0.20219208), (0.00771172, -0.9793156, 0.20219208), (-0.9999996, 0.0007047579, -0.00056211726), (-0.00070449023, -0.9999981, 0.0017908341), (-0.00070449023, -0.9999981, 0.0017908341), (0.00956183, -0.9999539, 0.00083662925), (0.00771172, -0.9793156, 0.20219208), (0.00771172, -0.9793156, 0.20219208), (0.25863597, -0.9403965, 0.22082102), (0.19654189, -0.84888464, 0.4906794), (0.5012707, -0.7491223, 0.4330629), (0.19654189, -0.84888464, 0.4906794), (0.25863597, -0.9403965, 0.22082102), (0.25863597, -0.9403965, 0.22082102), (0.00771172, -0.9793156, 0.20219208), (0.00956183, -0.9999539, 0.00083662925), (0.25863597, -0.9403965, 0.22082102), (0.642729, -0.7441783, 0.18192887), (0.5012707, -0.7491223, 0.4330629), (0.642729, -0.7441783, 0.18192887), (0.25863597, -0.9403965, 0.22082102), (0.37997246, -0.9249969, 0.0013080265), (0.00956183, -0.9999539, 0.00083662925), (0.37997246, -0.9249969, 0.0013080265), (0.25863597, -0.9403965, 0.22082102), (0.37997246, -0.9249969, 0.0013080265), (0.7628254, -0.6466037, 0.001049791), (0.642729, -0.7441783, 0.18192887), (0.64560825, -0.7636687, 0.00041115226), (0.7628254, -0.6466037, 0.001049791), (0.37997246, -0.9249969, 0.0013080265), (0.25424567, -0.96713966, -0.000011080358), (0.37997246, -0.9249969, 0.0013080265), (0.00956183, -0.9999539, 0.00083662925), (0.37997246, -0.9249969, 0.0013080265), (0.25424567, -0.96713966, -0.000011080358), (0.64560825, -0.7636687, 0.00041115226), (0.6429297, -0.7443536, -0.18049684), (0.64560825, -0.7636687, 0.00041115226), (0.25424567, -0.96713966, -0.000011080358), (0.00956183, -0.9999539, 0.00083662925), (0.009530171, -0.9999543, -0.0008360818), (0.25424567, -0.96713966, -0.000011080358), (0.25424567, -0.96713966, -0.000011080358), (0.25888443, -0.94060504, -0.21963851), (0.6429297, -0.7443536, -0.18049684), (0.25888443, -0.94060504, -0.21963851), (0.25424567, -0.96713966, -0.000011080358), (0.009530171, -0.9999543, -0.0008360818), (0.5017486, -0.74954206, -0.43178126), (0.6429297, -0.7443536, -0.18049684), (0.25888443, -0.94060504, -0.21963851), (0.009530171, -0.9999543, -0.0008360818), (-0.9999996, 0.0007036457, -0.00056211115), (-0.00057897426, -0.9804081, -0.1969767), (0.25934416, -0.6614049, -0.70376426), (0.64328825, -0.5295597, -0.5529437), (0.5017486, -0.74954206, -0.43178126), (-0.00057897426, -0.9804081, -0.1969767), (0.0082048485, -0.9593507, -0.28209743), (0.009530171, -0.9999543, -0.0008360818), (0.009530171, -0.9999543, -0.0008360818), (0.0082048485, -0.9593507, -0.28209743), (0.25888443, -0.94060504, -0.21963851), (0.0082048485, -0.9593507, -0.28209743), (-0.00057897426, -0.9804081, -0.1969767), (-0.00036848415, -0.8892705, -0.4573816), (0.25888443, -0.94060504, -0.21963851), (0.19708683, -0.84935397, -0.4896475), (0.5017486, -0.74954206, -0.43178126), (0.5017486, -0.74954206, -0.43178126), (0.19708683, -0.84935397, -0.4896475), (0.25934416, -0.6614049, -0.70376426), (0.19708683, -0.84935397, -0.4896475), (0.25888443, -0.94060504, -0.21963851), (0.0082048485, -0.9593507, -0.28209743), (0.008467466, -0.6647637, -0.7470057), (0.25934416, -0.6614049, -0.70376426), (0.19708683, -0.84935397, -0.4896475), (-0.00036848415, -0.8892705, -0.4573816), (0.0039554867, -0.8422454, -0.5390799), (0.0082048485, -0.9593507, -0.28209743), (0.0082048485, -0.9593507, -0.28209743), (0.0039554867, -0.8422454, -0.5390799), (0.19708683, -0.84935397, -0.4896475), (0.19708683, -0.84935397, -0.4896475), (0.0039554867, -0.8422454, -0.5390799), (0.008467466, -0.6647637, -0.7470057), (0.0039554867, -0.8422454, -0.5390799), (-0.00036848415, -0.8892705, -0.4573816), (-0.00012336716, -0.7253846, -0.68834376), (-0.00012336716, -0.7253846, -0.68834376), (0.008467466, -0.6647637, -0.7470057), (0.0039554867, -0.8422454, -0.5390799), (0.50281054, 0.7484154, -0.4324998), (0.64403415, 0.5281247, -0.55344766), (0.26028314, 0.66036105, -0.7043976), (0.26028314, 0.66036105, -0.7043976), (0.1982833, 0.8486075, -0.49045798), (0.50281054, 0.7484154, -0.4324998), (0.1982833, 0.8486075, -0.49045798), (0.26028314, 0.66036105, -0.7043976), (0.00961846, 0.72397465, -0.6897594), (0.00961846, 0.72397465, -0.6897594), (0.0008875556, 0.6607875, -0.75057256), (-0.9999996, 0.00070364046, -0.00056210574), (-0.9999996, 0.00070364046, -0.00056210574), (0.0051271445, 0.8879747, -0.45986384), (0.00961846, 0.72397465, -0.6897594), (0.00961846, 0.72397465, -0.6897594), (0.0051271445, 0.8879747, -0.45986384), (0.1982833, 0.8486075, -0.49045798), (0.0051271445, 0.8879747, -0.45986384), (-0.9999996, 0.00070364046, -0.00056210574), (0.00083344796, 0.95881486, -0.2840305), (0.00083344796, 0.95881486, -0.2840305), (0.009316634, 0.97930336, -0.20218398), (0.0051271445, 0.8879747, -0.45986384), (0.1982833, 0.8486075, -0.49045798), (0.0051271445, 0.8879747, -0.45986384), (0.009316634, 0.97930336, -0.20218398), (0.009316634, 0.97930336, -0.20218398), (0.00083344796, 0.95881486, -0.2840305), (0.0007044781, 0.9999981, -0.001790895), (0.0007044781, 0.9999981, -0.001790895), (0.01096924, 0.9999395, -0.00082515174), (0.009316634, 0.97930336, -0.20218398), (0.009316634, 0.97930336, -0.20218398), (0.2602059, 0.94003177, -0.22052936), (0.1982833, 0.8486075, -0.49045798), (0.50281054, 0.7484154, -0.4324998), (0.1982833, 0.8486075, -0.49045798), (0.2602059, 0.94003177, -0.22052936), (0.2602059, 0.94003177, -0.22052936), (0.009316634, 0.97930336, -0.20218398), (0.01096924, 0.9999395, -0.00082515174), (0.2602059, 0.94003177, -0.22052936), (0.64397925, 0.74327296, -0.18120739), (0.50281054, 0.7484154, -0.4324998), (0.64397925, 0.74327296, -0.18120739), (0.2602059, 0.94003177, -0.22052936), (0.38127512, 0.92446125, -0.0008802404), (0.01096924, 0.9999395, -0.00082515174), (0.38127512, 0.92446125, -0.0008802404), (0.2602059, 0.94003177, -0.22052936), (0.38127512, 0.92446125, -0.0008802404), (0.7637337, 0.6455315, -0.00019178528), (0.64397925, 0.74327296, -0.18120739), (0.6466805, 0.7627609, 0.00031512015), (0.7637337, 0.6455315, -0.00019178528), (0.38127512, 0.92446125, -0.0008802404), (0.25560188, 0.966782, 0.00029758827), (0.38127512, 0.92446125, -0.0008802404), (0.01096924, 0.9999395, -0.00082515174), (0.38127512, 0.92446125, -0.0008802404), (0.25560188, 0.966782, 0.00029758827), (0.6466805, 0.7627609, 0.00031512015), (0.6437716, 0.74344754, 0.18122938), (0.6466805, 0.7627609, 0.00031512015), (0.25560188, 0.966782, 0.00029758827), (0.01096924, 0.9999395, -0.00082515174), (0.010935297, 0.99993986, 0.00084746955), (0.25560188, 0.966782, 0.00029758827), (0.25560188, 0.966782, 0.00029758827), (0.25995848, 0.94024116, 0.21992762), (0.6437716, 0.74344754, 0.18122938), (0.25995848, 0.94024116, 0.21992762), (0.25560188, 0.966782, 0.00029758827), (0.010935297, 0.99993986, 0.00084746955), (0.50232637, 0.74882793, 0.43234807), (0.6437716, 0.74344754, 0.18122938), (0.25995848, 0.94024116, 0.21992762), (0.010935297, 0.99993986, 0.00084746955), (0.00070356, 0.99999976, -0.00014322026), (-0.9999996, 0.00070364185, -0.00056211423), (0.25949195, 0.66103065, 0.7040614), (0.6434148, 0.5286515, 0.5536651), (0.50232637, 0.74882793, 0.43234807), (-0.9999996, 0.00070364185, -0.00056211423), (0.00923712, 0.9593403, 0.28210062), (0.010935297, 0.99993986, 0.00084746955), (0.010935297, 0.99993986, 0.00084746955), (0.00923712, 0.9593403, 0.28210062), (0.25995848, 0.94024116, 0.21992762), (0.00923712, 0.9593403, 0.28210062), (-0.9999996, 0.00070364185, -0.00056211423), (0.0003681086, 0.88927466, 0.4573734), (0.25995848, 0.94024116, 0.21992762), (0.19773692, 0.849076, 0.4898676), (0.50232637, 0.74882793, 0.43234807), (0.50232637, 0.74882793, 0.43234807), (0.19773692, 0.849076, 0.4898676), (0.25949195, 0.66103065, 0.7040614), (0.19773692, 0.849076, 0.4898676), (0.25995848, 0.94024116, 0.21992762), (0.00923712, 0.9593403, 0.28210062), (0.008563323, 0.66474605, 0.7470204), (0.25949195, 0.66103065, 0.7040614), (0.19773692, 0.849076, 0.4898676), (0.0003681086, 0.88927466, 0.4573734), (0.00453428, 0.8422434, 0.5390785), (0.00923712, 0.9593403, 0.28210062), (0.00923712, 0.9593403, 0.28210062), (0.00453428, 0.8422434, 0.5390785), (0.19773692, 0.849076, 0.4898676), (0.19773692, 0.849076, 0.4898676), (0.00453428, 0.8422434, 0.5390785), (0.008563323, 0.66474605, 0.7470204), (0.00453428, 0.8422434, 0.5390785), (0.0003681086, 0.88927466, 0.4573734), (-0.9999996, 0.00070313405, -0.00056298403), (-0.9999996, 0.00070313405, -0.00056298403), (0.008563323, 0.66474605, 0.7470204), (0.00453428, 0.8422434, 0.5390785), (0.88904077, 0.396225, 0.22937351), (0.6437716, 0.74344754, 0.18122938), (0.50232637, 0.74882793, 0.43234807), (0.50232637, 0.74882793, 0.43234807), (0.6434148, 0.5286515, 0.5536651), (0.88904077, 0.396225, 0.22937351), (0.6437716, 0.74344754, 0.18122938), (0.88904077, 0.396225, 0.22937351), (0.9249448, 0.38009995, 0.00096140587), (0.9249448, 0.38009995, 0.00096140587), (0.6466805, 0.7627609, 0.00031512015), (0.6437716, 0.74344754, 0.18122938), (0.7637337, 0.6455315, -0.00019178528), (0.6466805, 0.7627609, 0.00031512015), (0.9249448, 0.38009995, 0.00096140587), (0.9668943, 0.12745115, 0.22106896), (0.88904077, 0.396225, 0.22937351), (0.6434148, 0.5286515, 0.5536651), (0.6434148, 0.5286515, 0.5536651), (0.7631904, 0.32303607, 0.55963224), (0.9668943, 0.12745115, 0.22106896), (0.9999981, 0.0014621698, 0.0013157239), (0.9249448, 0.38009995, 0.00096140587), (0.88904077, 0.396225, 0.22937351), (0.88904077, 0.396225, 0.22937351), (0.9668943, 0.12745115, 0.22106896), (0.9999981, 0.0014621698, 0.0013157239), (0.9249448, 0.38009995, 0.00096140587), (0.9671083, 0.2543649, -0.0001588315), (0.7637337, 0.6455315, -0.00019178528), (0.9671083, 0.2543649, -0.0001588315), (0.9249448, 0.38009995, 0.00096140587), (0.9999981, 0.0014621698, 0.0013157239), (0.64397925, 0.74327296, -0.18120739), (0.7637337, 0.6455315, -0.00019178528), (0.9671083, 0.2543649, -0.0001588315), (0.99999934, -0.0006163178, 0.0010192436), (0.9999981, 0.0014621698, 0.0013157239), (0.9668943, 0.12745115, 0.22106896), (0.9999981, 0.0014621698, 0.0013157239), (0.99999994, -0.0003514111, 0.00025792565), (0.9671083, 0.2543649, -0.0001588315), (0.9671083, 0.2543649, -0.0001588315), (0.88929814, 0.3960072, -0.22875114), (0.64397925, 0.74327296, -0.18120739), (0.88929814, 0.3960072, -0.22875114), (0.9671083, 0.2543649, -0.0001588315), (0.99999994, -0.0003514111, 0.00025792565), (0.50281054, 0.7484154, -0.4324998), (0.64397925, 0.74327296, -0.18120739), (0.88929814, 0.3960072, -0.22875114), (0.88929814, 0.3960072, -0.22875114), (0.64403415, 0.5281247, -0.55344766), (0.50281054, 0.7484154, -0.4324998), (0.64403415, 0.5281247, -0.55344766), (0.88929814, 0.3960072, -0.22875114), (0.9249969, 0.19010673, -0.32899866), (0.99999994, -0.0003514111, 0.00025792565), (0.9249969, 0.19010673, -0.32899866), (0.88929814, 0.3960072, -0.22875114), (0.9249969, 0.19010673, -0.32899866), (0.6467816, 0.38111213, -0.6606263), (0.64403415, 0.5281247, -0.55344766), (0.76382273, 0.32195795, -0.55939084), (0.6467816, 0.38111213, -0.6606263), (0.9249969, 0.19010673, -0.32899866), (0.9671419, 0.12623447, -0.22068428), (0.9249969, 0.19010673, -0.32899866), (0.99999994, -0.0003514111, 0.00025792565), (0.9249969, 0.19010673, -0.32899866), (0.9671419, 0.12623447, -0.22068428), (0.76382273, 0.32195795, -0.55939084), (0.64391637, 0.21416561, -0.73450994), (0.76382273, 0.32195795, -0.55939084), (0.9671419, 0.12623447, -0.22068428), (0.99999994, -0.0003514111, 0.00025792565), (0.9999979, -0.0011338958, -0.0016903805), (0.9671419, 0.12623447, -0.22068428), (0.9671419, 0.12623447, -0.22068428), (0.8891471, -0.0008431205, -0.45762068), (0.64391637, 0.21416561, -0.73450994), (0.8891471, -0.0008431205, -0.45762068), (0.9671419, 0.12623447, -0.22068428), (0.9999979, -0.0011338958, -0.0016903805), (0.5025323, -0.00076166226, -0.8645581), (0.64391637, 0.21416561, -0.73450994), (0.8891471, -0.0008431205, -0.45762068), (0.8891471, -0.0008431205, -0.45762068), (0.6436166, -0.21576992, -0.7343032), (0.5025323, -0.00076166226, -0.8645581), (0.6436166, -0.21576992, -0.7343032), (0.8891471, -0.0008431205, -0.45762068), (0.9247282, -0.19064458, -0.3294425), (0.9999979, -0.0011338958, -0.0016903805), (0.9247282, -0.19064458, -0.3294425), (0.8891471, -0.0008431205, -0.45762068), (0.9247282, -0.19064458, -0.3294425), (0.646249, -0.38210317, -0.6605751), (0.6436166, -0.21576992, -0.7343032), (0.76336455, -0.32410955, -0.5587731), (0.646249, -0.38210317, -0.6605751), (0.9247282, -0.19064458, -0.3294425), (0.96696144, -0.12881295, -0.21998383), (0.9247282, -0.19064458, -0.3294425), (0.9999979, -0.0011338958, -0.0016903805), (0.9247282, -0.19064458, -0.3294425), (0.96696144, -0.12881295, -0.21998383), (0.76336455, -0.32410955, -0.5587731), (0.64328825, -0.5295597, -0.5529437), (0.76336455, -0.32410955, -0.5587731), (0.96696144, -0.12881295, -0.21998383), (0.9999979, -0.0011338958, -0.0016903805), (0.9999993, -0.0011431866, 0.00040916548), (0.96696144, -0.12881295, -0.21998383), (0.96696144, -0.12881295, -0.21998383), (0.8887383, -0.39748213, -0.22836812), (0.64328825, -0.5295597, -0.5529437), (0.8887383, -0.39748213, -0.22836812), (0.96696144, -0.12881295, -0.21998383), (0.9999993, -0.0011431866, 0.00040916548), (0.5017486, -0.74954206, -0.43178126), (0.64328825, -0.5295597, -0.5529437), (0.8887383, -0.39748213, -0.22836812), (0.8887383, -0.39748213, -0.22836812), (0.6429297, -0.7443536, -0.18049684), (0.5017486, -0.74954206, -0.43178126), (0.6429297, -0.7443536, -0.18049684), (0.8887383, -0.39748213, -0.22836812), (0.9244079, -0.38140538, 0.000078103694), (0.9999993, -0.0011431866, 0.00040916548), (0.9244079, -0.38140538, 0.000078103694), (0.8887383, -0.39748213, -0.22836812), (0.9244079, -0.38140538, 0.000078103694), (0.64560825, -0.7636687, 0.00041115226), (0.6429297, -0.7443536, -0.18049684), (0.7628254, -0.6466037, 0.001049791), (0.64560825, -0.7636687, 0.00041115226), (0.9244079, -0.38140538, 0.000078103694), (0.96674746, -0.25573018, 0.0012458323), (0.9244079, -0.38140538, 0.000078103694), (0.9999993, -0.0011431866, 0.00040916548), (0.9244079, -0.38140538, 0.000078103694), (0.96674746, -0.25573018, 0.0012458323), (0.7628254, -0.6466037, 0.001049791), (0.642729, -0.7441783, 0.18192887), (0.7628254, -0.6466037, 0.001049791), (0.96674746, -0.25573018, 0.0012458323), (0.9999993, -0.0011431866, 0.00040916548), (0.99999493, -0.002439216, 0.0020609722), (0.96674746, -0.25573018, 0.0012458323), (0.96674746, -0.25573018, 0.0012458323), (0.88848245, -0.3972583, 0.22974926), (0.642729, -0.7441783, 0.18192887), (0.88848245, -0.3972583, 0.22974926), (0.96674746, -0.25573018, 0.0012458323), (0.99999493, -0.002439216, 0.0020609722), (0.5012707, -0.7491223, 0.4330629), (0.642729, -0.7441783, 0.18192887), (0.88848245, -0.3972583, 0.22974926), (0.88848245, -0.3972583, 0.22974926), (0.6426689, -0.5290286, 0.55417097), (0.5012707, -0.7491223, 0.4330629), (0.6426689, -0.5290286, 0.55417097), (0.88848245, -0.3972583, 0.22974926), (0.9243571, -0.19140919, 0.3300403), (0.99999493, -0.002439216, 0.0020609722), (0.9243571, -0.19140919, 0.3300403), (0.88848245, -0.3972583, 0.22974926), (0.9243571, -0.19140919, 0.3300403), (0.6455041, -0.38202032, 0.6613509), (0.6426689, -0.5290286, 0.55417097), (0.76273906, -0.32303232, 0.56024927), (0.6455041, -0.38202032, 0.6613509), (0.9243571, -0.19140919, 0.3300403), (0.96671426, -0.1275958, 0.22177237), (0.9243571, -0.19140919, 0.3300403), (0.99999493, -0.002439216, 0.0020609722), (0.9243571, -0.19140919, 0.3300403), (0.96671426, -0.1275958, 0.22177237), (0.76273906, -0.32303232, 0.56024927), (0.99999493, -0.002439216, 0.0020609722), (0.99999934, -0.0006163178, 0.0010192436), (0.96671426, -0.1275958, 0.22177237), (0.642788, -0.21507029, 0.7352336), (0.76273906, -0.32303232, 0.56024927), (0.96671426, -0.1275958, 0.22177237), (0.96671426, -0.1275958, 0.22177237), (0.88863146, -0.00040751032, 0.45862156), (0.642788, -0.21507029, 0.7352336), (0.88863146, -0.00040751032, 0.45862156), (0.96671426, -0.1275958, 0.22177237), (0.99999934, -0.0006163178, 0.0010192436), (0.5015613, 0.000055303473, 0.86512214), (0.642788, -0.21507029, 0.7352336), (0.88863146, -0.00040751032, 0.45862156), (0.88863146, -0.00040751032, 0.45862156), (0.64309347, 0.21486421, 0.7350267), (0.5015613, 0.000055303473, 0.86512214), (0.99999934, -0.0006163178, 0.0010192436), (0.92462546, 0.18934223, 0.33048013), (0.88863146, -0.00040751032, 0.45862156), (0.64309347, 0.21486421, 0.7350267), (0.88863146, -0.00040751032, 0.45862156), (0.92462546, 0.18934223, 0.33048013), (0.9668943, 0.12745115, 0.22106896), (0.92462546, 0.18934223, 0.33048013), (0.99999934, -0.0006163178, 0.0010192436), (0.92462546, 0.18934223, 0.33048013), (0.6460386, 0.38119587, 0.6613047), (0.64309347, 0.21486421, 0.7350267), (0.92462546, 0.18934223, 0.33048013), (0.9668943, 0.12745115, 0.22106896), (0.7631904, 0.32303607, 0.55963224), (0.7631904, 0.32303607, 0.55963224), (0.6460386, 0.38119587, 0.6613047), (0.92462546, 0.18934223, 0.33048013), (-0.00079487066, -0.39613116, 0.91819364), (-0.0008917607, -0.68628305, 0.7273341), (-0.000870855, -0.5963532, 0.80272174), (-0.000870855, -0.5963532, 0.80272174), (-0.0007397909, -0.28583863, 0.9582775), (-0.00079487066, -0.39613116, 0.91819364), (-0.0006021087, -0.058195967, 0.998305), (-0.00079487066, -0.39613116, 0.91819364), (-0.0007397909, -0.28583863, 0.9582775), (-0.0007397909, -0.28583863, 0.9582775), (-0.0005195025, 0.059153832, 0.99824876), (-0.0006021087, -0.058195967, 0.998305), (-0.00033672724, 0.28675216, 0.9580048), (-0.0006021087, -0.058195967, 0.998305), (-0.0005195025, 0.059153832, 0.99824876), (-0.0005195025, 0.059153832, 0.99824876), (-0.00023656218, 0.39700153, 0.91781795), (-0.00033672724, 0.28675216, 0.9580048), (-0.000030743384, 0.59711266, 0.80215746), (-0.00033672724, 0.28675216, 0.9580048), (-0.00023656218, 0.39700153, 0.91781795), (-0.00023656218, 0.39700153, 0.91781795), (0.00007490988, 0.686973, 0.72668296), (-0.000030743384, 0.59711266, 0.80215746), (-0.00089687464, -0.8349344, 0.55034864), (-0.000870855, -0.5963532, 0.80272174), (-0.0008917607, -0.68628305, 0.7273341), (-0.0008917607, -0.68628305, 0.7273341), (-0.0008810967, -0.8936568, 0.44875038), (-0.00089687464, -0.8349344, 0.55034864), (-0.0008147433, -0.9728122, 0.23159426), (-0.00089687464, -0.8349344, 0.55034864), (-0.0008810967, -0.8936568, 0.44875038), (-0.0008810967, -0.8936568, 0.44875038), (-0.0007641732, -0.9932446, 0.11603734), (-0.0008147433, -0.9728122, 0.23159426), (-0.0006343237, -0.99335444, -0.11509396), (-0.0008147433, -0.9728122, 0.23159426), (-0.0007641732, -0.9932446, 0.11603734), (-0.0007641732, -0.9932446, 0.11603734), (-0.0005550431, -0.97303194, -0.23066992), (-0.0006343237, -0.99335444, -0.11509396), (-0.00037737307, -0.894083, -0.447901), (-0.0006343237, -0.99335444, -0.11509396), (-0.0005550431, -0.97303194, -0.23066992), (-0.0005550431, -0.97303194, -0.23066992), (-0.00027897372, -0.83545744, -0.54955494), (-0.00037737307, -0.894083, -0.447901), (-0.00007492748, -0.68697435, -0.72668177), (-0.00037737307, -0.894083, -0.447901), (-0.00027897372, -0.83545744, -0.54955494), (-0.00027897372, -0.83545744, -0.54955494), (0.000030728996, -0.5971162, -0.80215484), (-0.00007492748, -0.68697435, -0.72668177), (0.00023655884, -0.3970041, -0.91781676), (-0.00007492748, -0.68697435, -0.72668177), (0.000030728996, -0.5971162, -0.80215484), (0.000030728996, -0.5971162, -0.80215484), (0.00033673382, -0.28674984, -0.95800537), (0.00023655884, -0.3970041, -0.91781676), (0.00051950786, -0.05914815, -0.9982491), (0.00023655884, -0.3970041, -0.91781676), (0.00033673382, -0.28674984, -0.95800537), (0.00033673382, -0.28674984, -0.95800537), (0.00060211215, 0.058198925, -0.99830484), (0.00051950786, -0.05914815, -0.9982491), (0.0007397951, 0.2858387, -0.9582775), (0.00051950786, -0.05914815, -0.9982491), (0.00060211215, 0.058198925, -0.99830484), (0.00060211215, 0.058198925, -0.99830484), (0.0007948721, 0.39613113, -0.91819364), (0.0007397951, 0.2858387, -0.9582775), (0.0008708508, 0.5963532, -0.80272174), (0.0007397951, 0.2858387, -0.9582775), (0.0007948721, 0.39613113, -0.91819364), (0.0007948721, 0.39613113, -0.91819364), (0.0008917558, 0.68628293, -0.72733414), (0.0008708508, 0.5963532, -0.80272174), (0.00089687516, 0.8349345, -0.5503487), (0.0008708508, 0.5963532, -0.80272174), (0.0008917558, 0.68628293, -0.72733414), (0.0008917558, 0.68628293, -0.72733414), (0.00088108086, 0.8936567, -0.44875062), (0.00089687516, 0.8349345, -0.5503487), (0.0008147037, 0.972812, -0.23159501), (0.00089687516, 0.8349345, -0.5503487), (0.00088108086, 0.8936567, -0.44875062), (0.00088108086, 0.8936567, -0.44875062), (0.00076412567, 0.9932444, -0.11603825), (0.0008147037, 0.972812, -0.23159501), (0.0006342915, 0.99335444, 0.1150934), (0.0008147037, 0.972812, -0.23159501), (0.00076412567, 0.9932444, -0.11603825), (0.00076412567, 0.9932444, -0.11603825), (0.00055503054, 0.9730321, 0.23066905), (0.0006342915, 0.99335444, 0.1150934), (0.0003773647, 0.89408386, 0.4478995), (0.0006342915, 0.99335444, 0.1150934), (0.00055503054, 0.9730321, 0.23066905), (0.00055503054, 0.9730321, 0.23066905), (0.00027896167, 0.8354581, 0.549554), (0.0003773647, 0.89408386, 0.4478995), (0.00007490988, 0.686973, 0.72668296), (0.0003773647, 0.89408386, 0.4478995), (0.00027896167, 0.8354581, 0.549554), (0.00027896167, 0.8354581, 0.549554), (-0.000030743384, 0.59711266, 0.80215746), (0.00007490988, 0.686973, 0.72668296), (-0.00079487, -0.39613116, 0.91819364), (-0.0008917586, -0.68628305, 0.7273341), (-0.0008708543, -0.5963532, 0.80272174), (-0.0008708543, -0.5963532, 0.80272174), (-0.0007397902, -0.28583863, 0.9582775), (-0.00079487, -0.39613116, 0.91819364), (-0.0006021116, -0.058200296, 0.9983048), (-0.00079487, -0.39613116, 0.91819364), (-0.0007397902, -0.28583863, 0.9582775), (-0.0007397902, -0.28583863, 0.9582775), (-0.0005195089, 0.059145164, 0.9982493), (-0.0006021116, -0.058200296, 0.9983048), (-0.00033673077, 0.28674814, 0.95800596), (-0.0006021116, -0.058200296, 0.9983048), (-0.0005195089, 0.059145164, 0.9982493), (-0.0005195089, 0.059145164, 0.9982493), (-0.00023655867, 0.39700523, 0.91781634), (-0.00033673077, 0.28674814, 0.95800596), (-0.000030737097, 0.59711826, 0.8021532), (-0.00033673077, 0.28674814, 0.95800596), (-0.00023655867, 0.39700523, 0.91781634), (-0.00023655867, 0.39700523, 0.91781634), (0.00007491268, 0.68697524, 0.7266808), (-0.000030737097, 0.59711826, 0.8021532), (-0.00089687004, -0.8349345, 0.5503487), (-0.0008708543, -0.5963532, 0.80272174), (-0.0008917586, -0.68628305, 0.7273341), (-0.0008917586, -0.68628305, 0.7273341), (-0.0008810919, -0.8936566, 0.4487504), (-0.00089687004, -0.8349345, 0.5503487), (-0.0008147408, -0.9728122, 0.23159431), (-0.00089687004, -0.8349345, 0.5503487), (-0.0008810919, -0.8936566, 0.4487504), (-0.0008810919, -0.8936566, 0.4487504), (-0.0007641732, -0.9932446, 0.11603734), (-0.0008147408, -0.9728122, 0.23159431), (-0.0006343237, -0.99335444, -0.115094006), (-0.0008147408, -0.9728122, 0.23159431), (-0.0007641732, -0.9932446, 0.11603734), (-0.0007641732, -0.9932446, 0.11603734), (-0.00055504055, -0.97303194, -0.23066996), (-0.0006343237, -0.99335444, -0.115094006), (-0.0003773684, -0.894083, -0.447901), (-0.0006343237, -0.99335444, -0.115094006), (-0.00055504055, -0.97303194, -0.23066996), (-0.00055504055, -0.97303194, -0.23066996), (-0.00027896903, -0.83545744, -0.54955494), (-0.0003773684, -0.894083, -0.447901), (-0.00007492443, -0.6869736, -0.7266825), (-0.0003773684, -0.894083, -0.447901), (-0.00027896903, -0.83545744, -0.54955494), (-0.00027896903, -0.83545744, -0.54955494), (0.00003073038, -0.5971143, -0.8021562), (-0.00007492443, -0.6869736, -0.7266825), (0.00023656049, -0.39700168, -0.9178179), (-0.00007492443, -0.6869736, -0.7266825), (0.00003073038, -0.5971143, -0.8021562), (0.00003073038, -0.5971143, -0.8021562), (0.00033673437, -0.28674853, -0.9580059), (0.00023656049, -0.39700168, -0.9178179), (0.00051950786, -0.05914815, -0.9982491), (0.00023656049, -0.39700168, -0.9178179), (0.00033673437, -0.28674853, -0.9580059), (0.00033673437, -0.28674853, -0.9580059), (0.00060211215, 0.058198925, -0.99830484), (0.00051950786, -0.05914815, -0.9982491), (0.00073979434, 0.28583735, -0.9582779), (0.00051950786, -0.05914815, -0.9982491), (0.00060211215, 0.058198925, -0.99830484), (0.00060211215, 0.058198925, -0.99830484), (0.00079487095, 0.39612868, -0.9181947), (0.00073979434, 0.28583735, -0.9582779), (0.00087085034, 0.5963513, -0.8027232), (0.00073979434, 0.28583735, -0.9582779), (0.00079487095, 0.39612868, -0.9181947), (0.00079487095, 0.39612868, -0.9181947), (0.0008917556, 0.68628216, -0.72733486), (0.00087085034, 0.5963513, -0.8027232), (0.00089687516, 0.8349345, -0.5503487), (0.00087085034, 0.5963513, -0.8027232), (0.0008917556, 0.68628216, -0.72733486), (0.0008917556, 0.68628216, -0.72733486), (0.00088108086, 0.8936567, -0.44875062), (0.00089687516, 0.8349345, -0.5503487), (0.0008147034, 0.9728122, -0.23159432), (0.00089687516, 0.8349345, -0.5503487), (0.00088108086, 0.8936567, -0.44875062), (0.00088108086, 0.8936567, -0.44875062), (0.0007641254, 0.9932445, -0.11603759), (0.0008147034, 0.9728122, -0.23159432), (0.0006342917, 0.99335444, 0.11509306), (0.0008147034, 0.9728122, -0.23159432), (0.0007641254, 0.9932445, -0.11603759), (0.0007641254, 0.9932445, -0.11603759), (0.00055503007, 0.973032, 0.2306697), (0.0006342917, 0.99335444, 0.11509306), (0.0003773626, 0.8940827, 0.44790182), (0.0006342917, 0.99335444, 0.11509306), (0.00055503007, 0.973032, 0.2306697), (0.00055503007, 0.973032, 0.2306697), (0.00027896033, 0.8354573, 0.54955536), (0.0003773626, 0.8940827, 0.44790182), (0.00007491268, 0.68697524, 0.7266808), (0.0003773626, 0.8940827, 0.44790182), (0.00027896033, 0.8354573, 0.54955536), (0.00027896033, 0.8354573, 0.54955536), (-0.000030737097, 0.59711826, 0.8021532), (0.00007491268, 0.68697524, 0.7266808)] (
        interpolation = "faceVarying"
    )
    point3f[] points = [(-0.010224411, -0.28157678, 0.16683915), (0.012130577, -0.2815925, 0.16685173), (0.012236056, -0.0036434114, 0.32714972), (-0.010118938, -0.0036276819, 0.32713714), (-0.010043243, -0.2851486, -0.15993665), (0.012311749, -0.2851643, -0.15992408), (0.012131497, -0.2850118, 0.16093585), (-0.010223495, -0.28499606, 0.16092327), (-0.0097517865, -0.0039383746, -0.3264177), (0.012603208, -0.003954104, -0.32640514), (0.012317478, -0.28175068, -0.16584319), (-0.010037511, -0.28173494, -0.16585575), (-0.009641509, 0.28084365, -0.16612297), (0.012713484, 0.2808279, -0.16611041), (0.012608017, 0.0028788343, -0.3264084), (-0.009746977, 0.0028945638, -0.32642096), (-0.009822677, 0.28441548, 0.16065279), (0.012532312, 0.28439975, 0.16066535), (0.012712564, 0.28424722, -0.16019453), (-0.009642425, 0.28426293, -0.1602071), (-0.01011413, 0.0032052563, 0.3271339), (0.012240864, 0.0031895263, 0.32714647), (0.012526584, 0.2809861, 0.16658448), (-0.009828409, 0.28100184, 0.16657192), (0.013856688, -0.2815608, 0.16658704), (0.013727427, -0.2829604, 0.16553156), (0.014971979, -0.28267163, 0.16498022), (0.015090015, -0.28146297, 0.16579078), (0.014043289, -0.28171873, -0.1655766), (0.015275721, -0.28162012, -0.16477905), (0.015156775, -0.28282803, -0.16396749), (0.013912854, -0.2831173, -0.16451994), (0.0144392485, 0.28079382, -0.16584377), (0.014310772, 0.2821936, -0.16478844), (0.015554291, 0.28190306, -0.16423571), (0.015671546, 0.28069425, -0.16504614), (0.014252647, 0.28095174, 0.1663198), (0.015485838, 0.2808514, 0.16552366), (0.015369496, 0.28205946, 0.16471195), (0.014125356, 0.2823505, 0.16526301), (0.012315803, -0.2832448, -0.16473296), (-0.010039186, -0.28322905, -0.16474552), (0.01556219, -0.0031017622, -0.32575816), (0.014329202, -0.0037417128, -0.32624286), (0.015445832, -0.001795398, -0.3263998), (0.0142018525, -0.0021277773, -0.32692736), (0.015085155, -0.0005395665, -0.32679883), (-0.009750169, -0.002230504, -0.32715818), (0.012604826, -0.0022462318, -0.32714564), (-0.009748828, -0.0005223738, -0.32740554), (0.013952209, -0.0005389805, -0.32724404), (0.012606166, -0.00053810375, -0.327393), (-0.009747764, 0.0011859909, -0.32715982), (0.014204089, 0.0010497635, -0.32692888), (0.0154476, 0.0007161343, -0.326401), (0.01260723, 0.0011702587, -0.32714725), (0.01433371, 0.002664167, -0.3262459), (0.015565797, 0.0020229418, -0.3257606), (0.012713913, 0.28232315, -0.16500156), (-0.00964108, 0.28233895, -0.16501413), (0.012528258, 0.28248027, 0.16547422), (-0.009826734, 0.28249606, 0.16546164), (0.01519937, 0.0023330203, 0.3265028), (0.013966738, 0.0029747058, 0.32698613), (0.015080445, 0.0010268245, 0.32714432), (0.013836349, 0.0013609534, 0.32767048), (0.014717557, -0.00022850014, 0.32754293), (-0.010115747, 0.0014973861, 0.32787436), (0.012239247, 0.0014816542, 0.32788694), (-0.010117088, -0.00021074385, 0.32812175), (0.013584115, -0.00022749139, 0.3279869), (0.012237906, -0.00022647377, 0.3281343), (-0.010118152, -0.0019191089, 0.327876), (0.013834113, -0.0018165897, 0.327672), (0.015078678, -0.0014847126, 0.32714552), (0.012236843, -0.0019348364, 0.32788858), (0.013962231, -0.0034311735, 0.32698917), (0.015195764, -0.0027916834, 0.32650524), (0.012130149, -0.28308773, 0.16574289), (-0.01022484, -0.28307205, 0.16573033), (0.016184906, -0.00023094646, 0.3245675), (0.016078338, -0.28106877, 0.16260354), (0.016260464, -0.2812229, -0.16159108), (0.016655723, 0.28029865, -0.16185778), (0.016473597, 0.2804528, 0.1623368), (0.016549155, -0.000539183, -0.32382172), (-0.009825217, 0.28356302, 0.16410506), (-0.009823865, 0.28420284, 0.1625021), (-0.0096415365, 0.28404853, -0.1620562), (-0.009641087, 0.28340718, -0.16365856), (-0.010224383, -0.28478163, 0.16277243), (-0.010224833, -0.28414032, 0.16437475), (-0.010040702, -0.28429613, -0.16338892), (-0.010042054, -0.28493592, -0.16178595), (0.014610023, -0.28364456, 0.16409208), (0.013476417, -0.28402868, 0.16431393), (0.012130159, -0.28415605, 0.16438732), (0.012130609, -0.28479737, 0.162785), (0.013727855, -0.28455052, 0.16278051), (0.014972317, -0.28392845, 0.16280577), (0.013857557, -0.2847664, 0.16104092), (0.015090705, -0.28402743, 0.16135389), (0.015271425, -0.28418034, -0.16033973), (0.014037912, -0.28491902, -0.16002744), (0.015154665, -0.2840827, -0.16179186), (0.013910179, -0.28470474, -0.16176738), (0.0147938095, -0.28380007, -0.16307881), (0.012312938, -0.28495166, -0.16177338), (0.013660483, -0.28418437, -0.16330156), (0.01231429, -0.28431183, -0.16337636), (0.0151927, 0.2828765, -0.16334797), (0.014059907, 0.2832622, -0.16357109), (0.012713902, 0.28339148, -0.16364598), (0.012713453, 0.2840328, -0.16204366), (0.014310347, 0.2837837, -0.1620374), (0.015553964, 0.28315988, -0.16206126), (0.0144383935, 0.28399938, -0.16029765), (0.015670855, 0.28325868, -0.16060925), (0.015490135, 0.28341162, 0.16108432), (0.014258025, 0.28415203, 0.16077064), (0.015371613, 0.2833142, 0.16253631), (0.014128024, 0.28393796, 0.16251045), (0.015008902, 0.28303203, 0.16382287), (0.012531123, 0.2841871, 0.16251469), (0.01387586, 0.28341797, 0.16404435), (0.012529772, 0.2835473, 0.16411763), (0.015983341, 0.28218165, 0.16333339), (0.016228663, 0.28217855, 0.16160637), (0.016226158, 0.28068507, 0.16419598), (0.016409969, 0.28202513, -0.16112927), (0.016166588, 0.2820266, -0.1628566), (0.016410371, 0.28052917, -0.16371748), (0.016304277, 0.0009551583, -0.32495257), (0.016059369, -0.00053978624, -0.32581744), (0.016302172, -0.0020342518, -0.32495114), (0.016014785, -0.28145486, -0.16345055), (0.01576889, -0.2829511, -0.16258825), (0.016012277, -0.2829483, -0.16086094), (0.015830971, -0.2827949, 0.16187476), (0.015585654, -0.28279603, 0.16360179), (0.015830569, -0.28129897, 0.16446295), (0.015936652, -0.0017249407, 0.32569805), (0.015692877, -0.00022965235, 0.3265626), (0.015938757, 0.0012644693, 0.32569662), (-0.085671626, 0.0012002544, 0.26459458), (-0.08567312, -0.002755922, 0.26231298), (-0.010082024, -0.0028091136, 0.26235548), (-0.010080524, 0.0011470644, 0.26463708), (-0.08566891, 0.005698195, 0.2653855), (-0.010077802, 0.0056450055, 0.26542798), (-0.08566529, 0.010195391, 0.2645903), (-0.010074192, 0.010142201, 0.2646328), (-0.085661225, 0.014149393, 0.26230496), (-0.010070126, 0.014096203, 0.26234746), (-0.010082127, -0.0057463525, 0.25885838), (-0.08567323, -0.0056931614, 0.25881588), (-0.010080815, -0.0073103816, 0.25456762), (-0.08567192, -0.0072571877, 0.25452513), (-0.0100782495, -0.0073125516, 0.25000066), (-0.085669346, -0.0072593587, 0.24995816), (-0.010074739, -0.005752604, 0.24570839), (-0.08566584, -0.0056994134, 0.24566591), (-0.010070707, -0.002818692, 0.24220851), (-0.085661806, -0.0027655007, 0.24216601), (-0.01006664, 0.0011353139, 0.23992315), (-0.08565774, 0.0011885038, 0.23988065), (-0.010063028, 0.0056324992, 0.23912798), (-0.08565413, 0.005685689, 0.2390855), (-0.010060308, 0.010130437, 0.23991887), (-0.08565141, 0.01018363, 0.23987637), (-0.010058807, 0.014086616, 0.24220048), (-0.08564991, 0.014139806, 0.24215798), (-0.010058707, 0.017023854, 0.24569757), (-0.08564981, 0.017077046, 0.24565509), (-0.010060019, 0.018587884, 0.24998835), (-0.08565112, 0.018641073, 0.24994586), (-0.010062584, 0.018590055, 0.25455528), (-0.085653685, 0.018643249, 0.2545128), (-0.010066094, 0.017030112, 0.25884756), (-0.085657194, 0.017083302, 0.25880507), (-0.08538527, 0.0009579162, -0.24512765), (-0.085386775, -0.0029982598, -0.24740925), (-0.009795674, -0.0030514512, -0.24736676), (-0.009794174, 0.0009047263, -0.24508516), (-0.08538255, 0.005455857, -0.24433674), (-0.0097914515, 0.005402667, -0.24429426), (-0.085378945, 0.009953053, -0.2451319), (-0.009787842, 0.009899862, -0.2450894), (-0.08537488, 0.013907054, -0.24741729), (-0.009783775, 0.013853866, -0.24737479), (-0.009795777, -0.00598869, -0.25086385), (-0.08538687, -0.0059355, -0.25090635), (-0.009794464, -0.0075527197, -0.2551546), (-0.08538556, -0.007499526, -0.2551971), (-0.0097918995, -0.0075548897, -0.25972158), (-0.085383, -0.007501697, -0.25976408), (-0.009788389, -0.005994942, -0.26401383), (-0.08537949, -0.0059417514, -0.26405632), (-0.009784356, -0.0030610298, -0.26751372), (-0.08537546, -0.0030078383, -0.26755622), (-0.00978029, 0.00089297566, -0.26979908), (-0.08537139, 0.0009461656, -0.26984158), (-0.009776677, 0.0053901607, -0.27059427), (-0.08536778, 0.005443351, -0.27063674), (-0.009773958, 0.0098880995, -0.26980335), (-0.08536506, 0.009941291, -0.26984584), (-0.009772457, 0.013844278, -0.26752174), (-0.08536356, 0.013897467, -0.26756424), (-0.009772357, 0.016781515, -0.26402465), (-0.085363455, 0.016834706, -0.26406714), (-0.009773668, 0.018345544, -0.2597339), (-0.085364774, 0.018398736, -0.25977638), (-0.009776234, 0.018347718, -0.2551669), (-0.08536734, 0.01840091, -0.2552094), (-0.009779744, 0.016787775, -0.25087467), (-0.085370846, 0.016840965, -0.25091717)]
}

