#usda 1.0
(
    defaultPrim = "SM_Hexagon_Sign3"
    upAxis = "Z"
)

def Mesh "SM_Hexagon_Sign3"
{
    int[] faceVertexCounts = [3, 3, 3, 3, 3, 3, 3, 3, 3, 3, 3, 3, 3, 3, 3, 3, 3, 3, 3, 3, 3, 3, 3, 3, 3, 3, 3, 3, 3, 3, 3, 3, 3, 3, 3, 3, 3, 3, 3, 3, 3, 3, 3, 3, 3, 3, 3, 3, 3, 3, 3, 3, 3, 3, 3, 3, 3, 3, 3, 3, 3, 3, 3, 3, 3, 3, 3, 3, 3, 3, 3, 3, 3, 3, 3, 3, 3, 3, 3, 3, 3, 3, 3, 3, 3, 3, 3, 3, 3, 3, 3, 3, 3, 3, 3, 3, 3, 3, 3, 3, 3, 3, 3, 3, 3, 3, 3, 3, 3, 3, 3, 3, 3, 3, 3, 3, 3, 3, 3, 3, 3, 3, 3, 3, 3, 3, 3, 3, 3, 3, 3, 3, 3, 3, 3, 3, 3, 3, 3, 3, 3, 3, 3, 3, 3, 3, 3, 3, 3, 3, 3, 3, 3, 3, 3, 3, 3, 3, 3, 3, 3, 3, 3, 3, 3, 3, 3, 3, 3, 3, 3, 3, 3, 3, 3, 3, 3, 3, 3, 3, 3, 3, 3, 3, 3, 3, 3, 3, 3, 3, 3, 3, 3, 3, 3, 3, 3, 3, 3, 3, 3, 3, 3, 3, 3, 3, 3, 3, 3, 3, 3, 3, 3, 3, 3, 3, 3, 3, 3, 3, 3, 3, 3, 3, 3, 3, 3, 3, 3, 3, 3, 3, 3, 3, 3, 3, 3, 3, 3, 3, 3, 3, 3, 3, 3, 3, 3, 3, 3, 3, 3, 3, 3, 3, 3, 3, 3, 3, 3, 3, 3, 3, 3, 3, 3, 3, 3, 3, 3, 3, 3, 3, 3, 3, 3, 3, 3, 3, 3, 3, 3, 3, 3, 3, 3, 3, 3, 3, 3, 3, 3, 3, 3, 3, 3, 3, 3, 3, 3, 3, 3, 3, 3, 3, 3, 3, 3, 3, 3, 3, 3, 3, 3, 3, 3, 3, 3, 3, 3, 3, 3, 3, 3, 3, 3, 3, 3, 3, 3, 3, 3, 3, 3, 3, 3, 3, 3, 3, 3, 3, 3, 3, 3, 3, 3, 3, 3, 3, 3, 3, 3, 3, 3, 3, 3, 3]
    int[] faceVertexIndices = [0, 1, 2, 2, 3, 0, 4, 5, 6, 6, 7, 4, 8, 9, 10, 10, 11, 8, 12, 13, 14, 14, 15, 12, 16, 17, 18, 18, 19, 16, 20, 21, 22, 22, 23, 20, 24, 25, 26, 26, 27, 24, 28, 29, 30, 30, 31, 28, 32, 33, 34, 34, 35, 32, 36, 37, 38, 38, 39, 36, 40, 41, 11, 11, 10, 40, 31, 40, 10, 10, 28, 31, 42, 29, 28, 43, 28, 10, 28, 43, 42, 44, 42, 43, 10, 9, 43, 43, 45, 44, 45, 43, 9, 46, 44, 45, 9, 8, 47, 47, 48, 9, 9, 48, 45, 48, 47, 49, 45, 50, 46, 50, 45, 48, 49, 51, 48, 48, 51, 50, 51, 49, 52, 46, 50, 53, 53, 54, 46, 50, 51, 55, 52, 55, 51, 55, 53, 50, 55, 52, 15, 15, 14, 55, 53, 55, 14, 54, 53, 56, 14, 56, 53, 56, 57, 54, 35, 57, 56, 56, 32, 35, 32, 56, 14, 14, 13, 32, 33, 32, 13, 13, 58, 33, 59, 58, 13, 13, 12, 59, 60, 61, 23, 23, 22, 60, 39, 60, 22, 22, 36, 39, 62, 37, 36, 63, 36, 22, 36, 63, 62, 64, 62, 63, 22, 21, 63, 63, 65, 64, 65, 63, 21, 66, 64, 65, 21, 20, 67, 67, 68, 21, 21, 68, 65, 68, 67, 69, 65, 70, 66, 70, 65, 68, 69, 71, 68, 68, 71, 70, 71, 69, 72, 66, 70, 73, 73, 74, 66, 70, 71, 75, 72, 75, 71, 75, 73, 70, 75, 72, 3, 3, 2, 75, 73, 75, 2, 74, 73, 76, 2, 76, 73, 76, 77, 74, 27, 77, 76, 76, 24, 27, 24, 76, 2, 2, 1, 24, 25, 24, 1, 1, 78, 25, 79, 78, 1, 1, 0, 79, 80, 81, 82, 80, 82, 83, 84, 80, 83, 82, 85, 83, 23, 61, 20, 61, 86, 87, 61, 87, 20, 69, 67, 20, 87, 69, 20, 87, 16, 19, 19, 88, 89, 87, 19, 89, 89, 59, 12, 87, 89, 52, 89, 12, 52, 12, 15, 52, 87, 52, 69, 52, 49, 47, 3, 72, 69, 52, 47, 11, 47, 8, 11, 79, 3, 69, 79, 0, 3, 52, 4, 69, 4, 79, 69, 52, 11, 4, 90, 91, 79, 4, 90, 79, 4, 7, 90, 11, 92, 4, 11, 41, 92, 92, 93, 4, 94, 26, 25, 25, 95, 94, 95, 25, 78, 78, 79, 91, 91, 96, 78, 78, 96, 95, 96, 91, 90, 90, 97, 96, 95, 96, 97, 97, 90, 7, 7, 6, 97, 97, 98, 95, 94, 95, 98, 98, 97, 6, 98, 99, 94, 99, 98, 100, 6, 100, 98, 100, 101, 99, 102, 101, 100, 103, 100, 6, 100, 103, 102, 104, 102, 103, 6, 5, 103, 103, 105, 104, 105, 103, 5, 106, 104, 105, 5, 4, 93, 31, 30, 106, 93, 107, 5, 5, 107, 105, 107, 93, 92, 105, 108, 106, 106, 108, 31, 108, 105, 107, 40, 31, 108, 92, 109, 107, 107, 109, 108, 108, 109, 40, 109, 92, 41, 41, 40, 109, 110, 34, 33, 33, 111, 110, 111, 33, 58, 58, 59, 89, 89, 112, 58, 58, 112, 111, 112, 89, 88, 88, 113, 112, 111, 112, 113, 113, 88, 19, 19, 18, 113, 113, 114, 111, 110, 111, 114, 114, 113, 18, 114, 115, 110, 115, 114, 116, 18, 116, 114, 116, 117, 115, 118, 117, 116, 119, 116, 18, 116, 119, 118, 120, 118, 119, 18, 17, 119, 119, 121, 120, 121, 119, 17, 122, 120, 121, 17, 16, 87, 39, 38, 122, 87, 123, 17, 17, 123, 121, 123, 87, 86, 121, 124, 122, 122, 124, 39, 124, 121, 123, 60, 39, 124, 86, 125, 123, 123, 125, 124, 124, 125, 60, 125, 86, 61, 61, 60, 125, 126, 120, 122, 122, 38, 126, 120, 126, 127, 127, 118, 120, 117, 118, 127, 128, 126, 38, 38, 37, 128, 84, 127, 126, 126, 128, 84, 127, 129, 117, 129, 127, 84, 115, 117, 129, 80, 84, 128, 84, 83, 129, 129, 130, 115, 130, 129, 83, 110, 115, 130, 130, 34, 110, 34, 130, 131, 83, 131, 130, 131, 35, 34, 57, 35, 131, 132, 131, 83, 131, 132, 57, 54, 57, 132, 83, 85, 132, 132, 133, 54, 133, 132, 85, 46, 54, 133, 133, 44, 46, 44, 133, 134, 85, 134, 133, 134, 42, 44, 29, 42, 134, 135, 134, 85, 134, 135, 29, 30, 29, 135, 85, 82, 135, 135, 136, 30, 136, 135, 82, 106, 30, 136, 136, 104, 106, 104, 136, 137, 82, 137, 136, 137, 102, 104, 101, 102, 137, 138, 137, 82, 137, 138, 101, 99, 101, 138, 82, 81, 138, 138, 139, 99, 139, 138, 81, 94, 99, 139, 139, 26, 94, 26, 139, 140, 81, 140, 139, 140, 27, 26, 77, 27, 140, 141, 140, 81, 140, 141, 77, 81, 80, 141, 74, 77, 141, 141, 142, 74, 142, 141, 80, 66, 74, 142, 142, 64, 66, 80, 143, 142, 64, 142, 143, 128, 143, 80, 143, 62, 64, 143, 128, 37, 37, 62, 143, 144, 145, 146, 146, 147, 144, 148, 144, 147, 147, 149, 148, 150, 148, 149, 149, 151, 150, 152, 150, 151, 151, 153, 152, 154, 146, 145, 145, 155, 154, 156, 154, 155, 155, 157, 156, 158, 156, 157, 157, 159, 158, 160, 158, 159, 159, 161, 160, 162, 160, 161, 161, 163, 162, 164, 162, 163, 163, 165, 164, 166, 164, 165, 165, 167, 166, 168, 166, 167, 167, 169, 168, 170, 168, 169, 169, 171, 170, 172, 170, 171, 171, 173, 172, 174, 172, 173, 173, 175, 174, 176, 174, 175, 175, 177, 176, 178, 176, 177, 177, 179, 178, 153, 178, 179, 179, 152, 153, 180, 181, 182, 182, 183, 180, 184, 180, 183, 183, 185, 184, 186, 184, 185, 185, 187, 186, 188, 186, 187, 187, 189, 188, 190, 182, 181, 181, 191, 190, 192, 190, 191, 191, 193, 192, 194, 192, 193, 193, 195, 194, 196, 194, 195, 195, 197, 196, 198, 196, 197, 197, 199, 198, 200, 198, 199, 199, 201, 200, 202, 200, 201, 201, 203, 202, 204, 202, 203, 203, 205, 204, 206, 204, 205, 205, 207, 206, 208, 206, 207, 207, 209, 208, 210, 208, 209, 209, 211, 210, 212, 210, 211, 211, 213, 212, 214, 212, 213, 213, 215, 214, 189, 214, 215, 215, 188, 189]
    normal3f[] normals = [(-0.00083853584, -0.49987566, 0.86609685), (0.0093942415, -0.50070935, 0.8655645), (0.0094277505, -0.49926078, 0.8664005), (0.0094277505, -0.49926078, 0.8664005), (-0.0008380359, -0.4984479, 0.86691934), (-0.00083853584, -0.49987566, 0.86609685), (-0.9999996, 0.00070365024, -0.00056211144), (0.009530166, -0.9999543, -0.00083617313), (0.009561826, -0.9999539, 0.0008365379), (0.009561826, -0.9999539, 0.0008365379), (-0.0007044948, -0.9999982, 0.001790743), (-0.9999996, 0.00070365024, -0.00056211144), (0.00013489602, -0.50012416, -0.86595374), (0.010368724, -0.49925202, -0.8663949), (0.010400086, -0.50070053, -0.86555815), (0.010400086, -0.50070053, -0.86555815), (0.00013346637, -0.5015504, -0.86512846), (0.00013489602, -0.50012416, -0.86595374), (0.00083853496, 0.49987566, -0.86609685), (0.01107249, 0.500695, -0.86555296), (0.011104628, 0.49924636, -0.866389), (0.011104628, 0.49924636, -0.866389), (0.00083802716, 0.4984479, -0.8669193), (0.00083853496, 0.49987566, -0.86609685), (0.0007035646, 0.9999998, -0.000143129), (0.010935303, 0.9999399, 0.00084756094), (0.010969245, 0.9999395, -0.0008250604), (0.010969245, 0.9999395, -0.0008250604), (0.0007044827, 0.9999982, -0.0017908039), (0.0007035646, 0.9999998, -0.000143129), (-0.00013489857, 0.5001242, 0.8659537), (0.010097263, 0.49923772, 0.8664064), (0.010132087, 0.50068605, 0.8655697), (0.010132087, 0.50068605, 0.8655697), (-0.00013346039, 0.5015503, 0.8651285), (-0.00013489857, 0.5001242, 0.8659537), (0.2541175, -0.48379257, 0.8374778), (0.2585636, -0.66072536, 0.70468926), (0.6426689, -0.5290286, 0.55417097), (0.6426689, -0.5290286, 0.55417097), (0.64550406, -0.38202038, 0.6613508), (0.2541175, -0.48379257, 0.8374778), (0.38075358, -0.46357897, -0.8000758), (0.7633646, -0.32410958, -0.5587732), (0.64328825, -0.5295596, -0.55294377), (0.64328825, -0.5295596, -0.55294377), (0.25934416, -0.66140485, -0.7037643), (0.38075358, -0.46357897, -0.8000758), (0.255739, 0.48343393, -0.8371913), (0.26028314, 0.66036105, -0.70439756), (0.6440342, 0.52812475, -0.55344766), (0.6440342, 0.52812475, -0.55344766), (0.6467817, 0.3811122, -0.6606263), (0.255739, 0.48343393, -0.8371913), (0.38050532, 0.4630435, 0.8005039), (0.7631903, 0.32303604, 0.55963224), (0.6434148, 0.5286514, 0.5536651), (0.6434148, 0.5286514, 0.5536651), (0.25949195, 0.66103053, 0.70406145), (0.38050532, 0.4630435, 0.8005039), (0.008467464, -0.6647637, -0.74700576), (-0.00012337019, -0.72538453, -0.6883438), (0.00013346637, -0.5015504, -0.86512846), (0.00013346637, -0.5015504, -0.86512846), (0.010400086, -0.50070053, -0.86555815), (0.008467464, -0.6647637, -0.74700576), (0.25934416, -0.66140485, -0.7037643), (0.008467464, -0.6647637, -0.74700576), (0.010400086, -0.50070053, -0.86555815), (0.010400086, -0.50070053, -0.86555815), (0.38075358, -0.46357897, -0.8000758), (0.25934416, -0.66140485, -0.7037643), (0.646249, -0.38210312, -0.6605751), (0.7633646, -0.32410958, -0.5587732), (0.38075358, -0.46357897, -0.8000758), (0.25506073, -0.48352563, -0.8373453), (0.38075358, -0.46357897, -0.8000758), (0.010400086, -0.50070053, -0.86555815), (0.38075358, -0.46357897, -0.8000758), (0.25506073, -0.48352563, -0.8373453), (0.646249, -0.38210312, -0.6605751), (0.64361656, -0.21576983, -0.7343031), (0.646249, -0.38210312, -0.6605751), (0.25506073, -0.48352563, -0.8373453), (0.010400086, -0.50070053, -0.86555815), (0.010368724, -0.49925202, -0.8663949), (0.25506073, -0.48352563, -0.8373453), (0.25506073, -0.48352563, -0.8373453), (0.2597529, -0.28005612, -0.9241737), (0.64361656, -0.21576983, -0.7343031), (0.2597529, -0.28005612, -0.9241737), (0.25506073, -0.48352563, -0.8373453), (0.010368724, -0.49925202, -0.8663949), (0.5025323, -0.0007615856, -0.86455804), (0.64361656, -0.21576983, -0.7343031), (0.2597529, -0.28005612, -0.9241737), (0.010368724, -0.49925202, -0.8663949), (0.00013489602, -0.50012416, -0.86595374), (-0.9999996, 0.000703428, -0.0005624974), (-0.9999996, 0.000703428, -0.0005624974), (0.009100865, -0.23536547, -0.97186434), (0.010368724, -0.49925202, -0.8663949), (0.010368724, -0.49925202, -0.8663949), (0.009100865, -0.23536547, -0.97186434), (0.2597529, -0.28005612, -0.9241737), (0.009100865, -0.23536547, -0.97186434), (-0.9999996, 0.000703428, -0.0005624974), (0.00052701635, -0.04852789, -0.99882174), (0.2597529, -0.28005612, -0.9241737), (0.19796427, -0.0006012907, -0.98020905), (0.5025323, -0.0007615856, -0.86455804), (0.19796427, -0.0006012907, -0.98020905), (0.2597529, -0.28005612, -0.9241737), (0.009100865, -0.23536547, -0.97186434), (0.00052701635, -0.04852789, -0.99882174), (0.0048372196, 0.045727998, -0.99894226), (0.009100865, -0.23536547, -0.97186434), (0.009100865, -0.23536547, -0.97186434), (0.0048372196, 0.045727998, -0.99894226), (0.19796427, -0.0006012907, -0.98020905), (0.0048372196, 0.045727998, -0.99894226), (0.00052701635, -0.04852789, -0.99882174), (-0.9999996, 0.0007036494, -0.0005621118), (0.5025323, -0.0007615856, -0.86455804), (0.19796427, -0.0006012907, -0.98020905), (0.26014635, 0.27881226, -0.92443913), (0.26014635, 0.27881226, -0.92443913), (0.64391637, 0.21416569, -0.7345099), (0.5025323, -0.0007615856, -0.86455804), (0.19796427, -0.0006012907, -0.98020905), (0.0048372196, 0.045727998, -0.99894226), (0.009269934, 0.31453973, -0.94919914), (-0.9999996, 0.0007036494, -0.0005621118), (0.009269934, 0.31453973, -0.94919914), (0.0048372196, 0.045727998, -0.99894226), (0.009269934, 0.31453973, -0.94919914), (0.26014635, 0.27881226, -0.92443913), (0.19796427, -0.0006012907, -0.98020905), (0.009269934, 0.31453973, -0.94919914), (-0.9999996, 0.0007036494, -0.0005621118), (0.00083802716, 0.4984479, -0.8669193), (0.00083802716, 0.4984479, -0.8669193), (0.011104628, 0.49924636, -0.866389), (0.009269934, 0.31453973, -0.94919914), (0.26014635, 0.27881226, -0.92443913), (0.009269934, 0.31453973, -0.94919914), (0.011104628, 0.49924636, -0.866389), (0.64391637, 0.21416569, -0.7345099), (0.26014635, 0.27881226, -0.92443913), (0.3813992, 0.46114883, -0.8011719), (0.011104628, 0.49924636, -0.866389), (0.3813992, 0.46114883, -0.8011719), (0.26014635, 0.27881226, -0.92443913), (0.3813992, 0.46114883, -0.8011719), (0.76382273, 0.32195798, -0.5593907), (0.64391637, 0.21416569, -0.7345099), (0.6467817, 0.3811122, -0.6606263), (0.76382273, 0.32195798, -0.5593907), (0.3813992, 0.46114883, -0.8011719), (0.3813992, 0.46114883, -0.8011719), (0.255739, 0.48343393, -0.8371913), (0.6467817, 0.3811122, -0.6606263), (0.255739, 0.48343393, -0.8371913), (0.3813992, 0.46114883, -0.8011719), (0.011104628, 0.49924636, -0.866389), (0.011104628, 0.49924636, -0.866389), (0.01107249, 0.500695, -0.86555296), (0.255739, 0.48343393, -0.8371913), (0.26028314, 0.66036105, -0.70439756), (0.255739, 0.48343393, -0.8371913), (0.01107249, 0.500695, -0.86555296), (0.01107249, 0.500695, -0.86555296), (0.009618465, 0.7239748, -0.68975943), (0.26028314, 0.66036105, -0.70439756), (0.00088755885, 0.6607876, -0.7505725), (0.009618465, 0.7239748, -0.68975943), (0.01107249, 0.500695, -0.86555296), (0.01107249, 0.500695, -0.86555296), (0.00083853496, 0.49987566, -0.86609685), (0.00088755885, 0.6607876, -0.7505725), (0.008563326, 0.66474587, 0.7470205), (-0.9999996, 0.0007031386, -0.0005629843), (-0.00013346039, 0.5015503, 0.8651285), (-0.00013346039, 0.5015503, 0.8651285), (0.010132087, 0.50068605, 0.8655697), (0.008563326, 0.66474587, 0.7470205), (0.25949195, 0.66103053, 0.70406145), (0.008563326, 0.66474587, 0.7470205), (0.010132087, 0.50068605, 0.8655697), (0.010132087, 0.50068605, 0.8655697), (0.38050532, 0.4630435, 0.8005039), (0.25949195, 0.66103053, 0.70406145), (0.6460386, 0.38119578, 0.6613047), (0.7631903, 0.32303604, 0.55963224), (0.38050532, 0.4630435, 0.8005039), (0.25480443, 0.4831663, 0.8376306), (0.38050532, 0.4630435, 0.8005039), (0.010132087, 0.50068605, 0.8655697), (0.38050532, 0.4630435, 0.8005039), (0.25480443, 0.4831663, 0.8376306), (0.6460386, 0.38119578, 0.6613047), (0.64309347, 0.21486418, 0.7350268), (0.6460386, 0.38119578, 0.6613047), (0.25480443, 0.4831663, 0.8376306), (0.010132087, 0.50068605, 0.8655697), (0.010097263, 0.49923772, 0.8664064), (0.25480443, 0.4831663, 0.8376306), (0.25480443, 0.4831663, 0.8376306), (0.25910792, 0.27969107, 0.92446524), (0.64309347, 0.21486418, 0.7350268), (0.25910792, 0.27969107, 0.92446524), (0.25480443, 0.4831663, 0.8376306), (0.010097263, 0.49923772, 0.8664064), (0.5015612, 0.000055222266, 0.86512214), (0.64309347, 0.21486418, 0.7350268), (0.25910792, 0.27969107, 0.92446524), (0.010097263, 0.49923772, 0.8664064), (-0.00013489857, 0.5001242, 0.8659537), (-0.00030826862, 0.31961575, 0.94754726), (-0.00030826862, 0.31961575, 0.94754726), (0.008339474, 0.23535319, 0.9718741), (0.010097263, 0.49923772, 0.8664064), (0.010097263, 0.49923772, 0.8664064), (0.008339474, 0.23535319, 0.9718741), (0.25910792, 0.27969107, 0.92446524), (0.008339474, 0.23535319, 0.9718741), (-0.00030826862, 0.31961575, 0.94754726), (-0.9999996, 0.0007036498, -0.00056211033), (0.25910792, 0.27969107, 0.92446524), (0.19686306, 0.0003235323, 0.980431), (0.5015612, 0.000055222266, 0.86512214), (0.19686306, 0.0003235323, 0.980431), (0.25910792, 0.27969107, 0.92446524), (0.008339474, 0.23535319, 0.9718741), (-0.9999996, 0.0007036498, -0.00056211033), (0.0036498252, -0.04573397, 0.998947), (0.008339474, 0.23535319, 0.9718741), (0.008339474, 0.23535319, 0.9718741), (0.0036498252, -0.04573397, 0.998947), (0.19686306, 0.0003235323, 0.980431), (0.0036498252, -0.04573397, 0.998947), (-0.9999996, 0.0007036498, -0.00056211033), (-0.00071137707, -0.23341843, 0.97237617), (0.5015612, 0.000055222266, 0.86512214), (0.19686306, 0.0003235323, 0.980431), (0.2587146, -0.27917725, 0.9247308), (0.2587146, -0.27917725, 0.9247308), (0.642788, -0.21507037, 0.7352336), (0.5015612, 0.000055222266, 0.86512214), (0.19686306, 0.0003235323, 0.980431), (0.0036498252, -0.04573397, 0.998947), (0.007760157, -0.31455174, 0.94920874), (-0.00071137707, -0.23341843, 0.97237617), (0.007760157, -0.31455174, 0.94920874), (0.0036498252, -0.04573397, 0.998947), (0.007760157, -0.31455174, 0.94920874), (0.2587146, -0.27917725, 0.9247308), (0.19686306, 0.0003235323, 0.980431), (0.007760157, -0.31455174, 0.94920874), (-0.00071137707, -0.23341843, 0.97237617), (-0.0008380359, -0.4984479, 0.86691934), (-0.0008380359, -0.4984479, 0.86691934), (0.0094277505, -0.49926078, 0.8664005), (0.007760157, -0.31455174, 0.94920874), (0.2587146, -0.27917725, 0.9247308), (0.007760157, -0.31455174, 0.94920874), (0.0094277505, -0.49926078, 0.8664005), (0.642788, -0.21507037, 0.7352336), (0.2587146, -0.27917725, 0.9247308), (0.37985262, -0.46168372, 0.80159855), (0.0094277505, -0.49926078, 0.8664005), (0.37985262, -0.46168372, 0.80159855), (0.2587146, -0.27917725, 0.9247308), (0.37985262, -0.46168372, 0.80159855), (0.7627391, -0.3230324, 0.5602493), (0.642788, -0.21507037, 0.7352336), (0.64550406, -0.38202038, 0.6613508), (0.7627391, -0.3230324, 0.5602493), (0.37985262, -0.46168372, 0.80159855), (0.37985262, -0.46168372, 0.80159855), (0.2541175, -0.48379257, 0.8374778), (0.64550406, -0.38202038, 0.6613508), (0.2541175, -0.48379257, 0.8374778), (0.37985262, -0.46168372, 0.80159855), (0.0094277505, -0.49926078, 0.8664005), (0.0094277505, -0.49926078, 0.8664005), (0.0093942415, -0.50070935, 0.8655645), (0.2541175, -0.48379257, 0.8374778), (0.2585636, -0.66072536, 0.70468926), (0.2541175, -0.48379257, 0.8374778), (0.0093942415, -0.50070935, 0.8655645), (0.0093942415, -0.50070935, 0.8655645), (0.007824783, -0.7239852, 0.6897712), (0.2585636, -0.66072536, 0.70468926), (-0.9999996, 0.0007036518, -0.0005621045), (0.007824783, -0.7239852, 0.6897712), (0.0093942415, -0.50070935, 0.8655645), (0.0093942415, -0.50070935, 0.8655645), (-0.00083853584, -0.49987566, 0.86609685), (-0.9999996, 0.0007036518, -0.0005621045), (0.9999993, -0.00061632233, 0.001019244), (0.99999493, -0.0024392207, 0.0020609724), (0.99999934, -0.0011431912, 0.00040916575), (0.9999993, -0.00061632233, 0.001019244), (0.99999934, -0.0011431912, 0.00040916575), (0.9999999, -0.0003514156, 0.00025792595), (0.9999981, 0.0014621651, 0.0013157245), (0.9999993, -0.00061632233, 0.001019244), (0.9999999, -0.0003514156, 0.00025792595), (0.99999934, -0.0011431912, 0.00040916575), (0.9999979, -0.0011339001, -0.0016903802), (0.9999999, -0.0003514156, 0.00025792595), (-0.00013346039, 0.5015503, 0.8651285), (-0.9999996, 0.0007031386, -0.0005629843), (-0.00013489857, 0.5001242, 0.8659537), (-0.9999996, 0.0007031386, -0.0005629843), (0.00036811247, 0.8892746, 0.45737344), (-0.9999996, 0.00070364645, -0.0005621145), (-0.9999996, 0.0007031386, -0.0005629843), (-0.9999996, 0.00070364645, -0.0005621145), (-0.00013489857, 0.5001242, 0.8659537), (-0.9999996, 0.0007036498, -0.00056211033), (-0.00030826862, 0.31961575, 0.94754726), (-0.00013489857, 0.5001242, 0.8659537), (-0.9999996, 0.00070364645, -0.0005621145), (-0.9999996, 0.0007036498, -0.00056211033), (-0.00013489857, 0.5001242, 0.8659537), (-0.9999996, 0.00070364645, -0.0005621145), (0.0007035646, 0.9999998, -0.000143129), (0.0007044827, 0.9999982, -0.0017908039), (0.0007044827, 0.9999982, -0.0017908039), (0.0008334525, 0.95881504, -0.28403044), (-0.9999996, 0.000703645, -0.000562106), (-0.9999996, 0.00070364645, -0.0005621145), (0.0007044827, 0.9999982, -0.0017908039), (-0.9999996, 0.000703645, -0.000562106), (-0.9999996, 0.000703645, -0.000562106), (0.00088755885, 0.6607876, -0.7505725), (0.00083853496, 0.49987566, -0.86609685), (-0.9999996, 0.00070364645, -0.0005621145), (-0.9999996, 0.000703645, -0.000562106), (-0.9999996, 0.0007036494, -0.0005621118), (-0.9999996, 0.000703645, -0.000562106), (0.00083853496, 0.49987566, -0.86609685), (-0.9999996, 0.0007036494, -0.0005621118), (0.00083853496, 0.49987566, -0.86609685), (0.00083802716, 0.4984479, -0.8669193), (-0.9999996, 0.0007036494, -0.0005621118), (-0.9999996, 0.00070364645, -0.0005621145), (-0.9999996, 0.0007036494, -0.0005621118), (-0.9999996, 0.0007036498, -0.00056211033), (-0.9999996, 0.0007036494, -0.0005621118), (0.00052701635, -0.04852789, -0.99882174), (-0.9999996, 0.000703428, -0.0005624974), (-0.0008380359, -0.4984479, 0.86691934), (-0.00071137707, -0.23341843, 0.97237617), (-0.9999996, 0.0007036498, -0.00056211033), (-0.9999996, 0.0007036494, -0.0005621118), (-0.9999996, 0.000703428, -0.0005624974), (0.00013346637, -0.5015504, -0.86512846), (-0.9999996, 0.000703428, -0.0005624974), (0.00013489602, -0.50012416, -0.86595374), (0.00013346637, -0.5015504, -0.86512846), (-0.9999996, 0.0007036518, -0.0005621045), (-0.0008380359, -0.4984479, 0.86691934), (-0.9999996, 0.0007036498, -0.00056211033), (-0.9999996, 0.0007036518, -0.0005621045), (-0.00083853584, -0.49987566, 0.86609685), (-0.0008380359, -0.4984479, 0.86691934), (-0.9999996, 0.0007036494, -0.0005621118), (-0.9999996, 0.00070365024, -0.00056211144), (-0.9999996, 0.0007036498, -0.00056211033), (-0.9999996, 0.00070365024, -0.00056211144), (-0.9999996, 0.0007036518, -0.0005621045), (-0.9999996, 0.0007036498, -0.00056211033), (-0.9999996, 0.0007036494, -0.0005621118), (0.00013346637, -0.5015504, -0.86512846), (-0.9999996, 0.00070365024, -0.00056211144), (-0.9999996, 0.0007047625, -0.00056211755), (-0.0008953326, -0.84074116, 0.54143655), (-0.9999996, 0.0007036518, -0.0005621045), (-0.9999996, 0.00070365024, -0.00056211144), (-0.9999996, 0.0007047625, -0.00056211755), (-0.9999996, 0.0007036518, -0.0005621045), (-0.9999996, 0.00070365024, -0.00056211144), (-0.0007044948, -0.9999982, 0.001790743), (-0.9999996, 0.0007047625, -0.00056211755), (0.00013346637, -0.5015504, -0.86512846), (-0.00036848802, -0.88927054, -0.45738173), (-0.9999996, 0.00070365024, -0.00056211144), (0.00013346637, -0.5015504, -0.86512846), (-0.00012337019, -0.72538453, -0.6883438), (-0.00036848802, -0.88927054, -0.45738173), (-0.00036848802, -0.88927054, -0.45738173), (-0.0005789786, -0.9804081, -0.1969768), (-0.9999996, 0.00070365024, -0.00056211144), (0.5012707, -0.7491224, 0.43306288), (0.6426689, -0.5290286, 0.55417097), (0.2585636, -0.66072536, 0.70468926), (0.2585636, -0.66072536, 0.70468926), (0.19654189, -0.84888464, 0.49067932), (0.5012707, -0.7491224, 0.43306288), (0.19654189, -0.84888464, 0.49067932), (0.2585636, -0.66072536, 0.70468926), (0.007824783, -0.7239852, 0.6897712), (0.007824783, -0.7239852, 0.6897712), (-0.9999996, 0.0007036518, -0.0005621045), (-0.0008953326, -0.84074116, 0.54143655), (-0.0008953326, -0.84074116, 0.54143655), (0.003360918, -0.8879799, 0.45986998), (0.007824783, -0.7239852, 0.6897712), (0.007824783, -0.7239852, 0.6897712), (0.003360918, -0.8879799, 0.45986998), (0.19654189, -0.84888464, 0.49067932), (0.003360918, -0.8879799, 0.45986998), (-0.0008953326, -0.84074116, 0.54143655), (-0.9999996, 0.0007047625, -0.00056211755), (-0.9999996, 0.0007047625, -0.00056211755), (0.0077117155, -0.97931564, 0.20219202), (0.003360918, -0.8879799, 0.45986998), (0.19654189, -0.84888464, 0.49067932), (0.003360918, -0.8879799, 0.45986998), (0.0077117155, -0.97931564, 0.20219202), (0.0077117155, -0.97931564, 0.20219202), (-0.9999996, 0.0007047625, -0.00056211755), (-0.0007044948, -0.9999982, 0.001790743), (-0.0007044948, -0.9999982, 0.001790743), (0.009561826, -0.9999539, 0.0008365379), (0.0077117155, -0.97931564, 0.20219202), (0.0077117155, -0.97931564, 0.20219202), (0.25863594, -0.94039655, 0.22082095), (0.19654189, -0.84888464, 0.49067932), (0.5012707, -0.7491224, 0.43306288), (0.19654189, -0.84888464, 0.49067932), (0.25863594, -0.94039655, 0.22082095), (0.25863594, -0.94039655, 0.22082095), (0.0077117155, -0.97931564, 0.20219202), (0.009561826, -0.9999539, 0.0008365379), (0.25863594, -0.94039655, 0.22082095), (0.6427289, -0.74417835, 0.1819288), (0.5012707, -0.7491224, 0.43306288), (0.6427289, -0.74417835, 0.1819288), (0.25863594, -0.94039655, 0.22082095), (0.37997243, -0.9249969, 0.0013079421), (0.009561826, -0.9999539, 0.0008365379), (0.37997243, -0.9249969, 0.0013079421), (0.25863594, -0.94039655, 0.22082095), (0.37997243, -0.9249969, 0.0013079421), (0.76282537, -0.6466037, 0.0010497322), (0.6427289, -0.74417835, 0.1819288), (0.6456082, -0.76366866, 0.00041108276), (0.76282537, -0.6466037, 0.0010497322), (0.37997243, -0.9249969, 0.0013079421), (0.2542457, -0.9671398, -0.000011168545), (0.37997243, -0.9249969, 0.0013079421), (0.009561826, -0.9999539, 0.0008365379), (0.37997243, -0.9249969, 0.0013079421), (0.2542457, -0.9671398, -0.000011168545), (0.6456082, -0.76366866, 0.00041108276), (0.6429297, -0.7443536, -0.1804969), (0.6456082, -0.76366866, 0.00041108276), (0.2542457, -0.9671398, -0.000011168545), (0.009561826, -0.9999539, 0.0008365379), (0.009530166, -0.9999543, -0.00083617313), (0.2542457, -0.9671398, -0.000011168545), (0.2542457, -0.9671398, -0.000011168545), (0.25888446, -0.94060504, -0.21963863), (0.6429297, -0.7443536, -0.1804969), (0.25888446, -0.94060504, -0.21963863), (0.2542457, -0.9671398, -0.000011168545), (0.009530166, -0.9999543, -0.00083617313), (0.5017486, -0.749542, -0.43178132), (0.6429297, -0.7443536, -0.1804969), (0.25888446, -0.94060504, -0.21963863), (0.009530166, -0.9999543, -0.00083617313), (-0.9999996, 0.00070365024, -0.00056211144), (-0.0005789786, -0.9804081, -0.1969768), (0.25934416, -0.66140485, -0.7037643), (0.64328825, -0.5295596, -0.55294377), (0.5017486, -0.749542, -0.43178132), (-0.0005789786, -0.9804081, -0.1969768), (0.008204845, -0.95935076, -0.2820975), (0.009530166, -0.9999543, -0.00083617313), (0.009530166, -0.9999543, -0.00083617313), (0.008204845, -0.95935076, -0.2820975), (0.25888446, -0.94060504, -0.21963863), (0.008204845, -0.95935076, -0.2820975), (-0.0005789786, -0.9804081, -0.1969768), (-0.00036848802, -0.88927054, -0.45738173), (0.25888446, -0.94060504, -0.21963863), (0.19708681, -0.8493539, -0.48964757), (0.5017486, -0.749542, -0.43178132), (0.5017486, -0.749542, -0.43178132), (0.19708681, -0.8493539, -0.48964757), (0.25934416, -0.66140485, -0.7037643), (0.19708681, -0.8493539, -0.48964757), (0.25888446, -0.94060504, -0.21963863), (0.008204845, -0.95935076, -0.2820975), (0.008467464, -0.6647637, -0.74700576), (0.25934416, -0.66140485, -0.7037643), (0.19708681, -0.8493539, -0.48964757), (-0.00036848802, -0.88927054, -0.45738173), (0.003955483, -0.8422453, -0.5390799), (0.008204845, -0.95935076, -0.2820975), (0.008204845, -0.95935076, -0.2820975), (0.003955483, -0.8422453, -0.5390799), (0.19708681, -0.8493539, -0.48964757), (0.19708681, -0.8493539, -0.48964757), (0.003955483, -0.8422453, -0.5390799), (0.008467464, -0.6647637, -0.74700576), (0.003955483, -0.8422453, -0.5390799), (-0.00036848802, -0.88927054, -0.45738173), (-0.00012337019, -0.72538453, -0.6883438), (-0.00012337019, -0.72538453, -0.6883438), (0.008467464, -0.6647637, -0.74700576), (0.003955483, -0.8422453, -0.5390799), (0.5028105, 0.7484154, -0.43249974), (0.6440342, 0.52812475, -0.55344766), (0.26028314, 0.66036105, -0.70439756), (0.26028314, 0.66036105, -0.70439756), (0.19828334, 0.84860766, -0.49045795), (0.5028105, 0.7484154, -0.43249974), (0.19828334, 0.84860766, -0.49045795), (0.26028314, 0.66036105, -0.70439756), (0.009618465, 0.7239748, -0.68975943), (0.009618465, 0.7239748, -0.68975943), (0.00088755885, 0.6607876, -0.7505725), (-0.9999996, 0.000703645, -0.000562106), (-0.9999996, 0.000703645, -0.000562106), (0.0051271482, 0.88797474, -0.45986375), (0.009618465, 0.7239748, -0.68975943), (0.009618465, 0.7239748, -0.68975943), (0.0051271482, 0.88797474, -0.45986375), (0.19828334, 0.84860766, -0.49045795), (0.0051271482, 0.88797474, -0.45986375), (-0.9999996, 0.000703645, -0.000562106), (0.0008334525, 0.95881504, -0.28403044), (0.0008334525, 0.95881504, -0.28403044), (0.009316637, 0.9793033, -0.20218387), (0.0051271482, 0.88797474, -0.45986375), (0.19828334, 0.84860766, -0.49045795), (0.0051271482, 0.88797474, -0.45986375), (0.009316637, 0.9793033, -0.20218387), (0.009316637, 0.9793033, -0.20218387), (0.0008334525, 0.95881504, -0.28403044), (0.0007044827, 0.9999982, -0.0017908039), (0.0007044827, 0.9999982, -0.0017908039), (0.010969245, 0.9999395, -0.0008250604), (0.009316637, 0.9793033, -0.20218387), (0.009316637, 0.9793033, -0.20218387), (0.26020586, 0.94003177, -0.22052926), (0.19828334, 0.84860766, -0.49045795), (0.5028105, 0.7484154, -0.43249974), (0.19828334, 0.84860766, -0.49045795), (0.26020586, 0.94003177, -0.22052926), (0.26020586, 0.94003177, -0.22052926), (0.009316637, 0.9793033, -0.20218387), (0.010969245, 0.9999395, -0.0008250604), (0.26020586, 0.94003177, -0.22052926), (0.64397925, 0.74327296, -0.18120731), (0.5028105, 0.7484154, -0.43249974), (0.64397925, 0.74327296, -0.18120731), (0.26020586, 0.94003177, -0.22052926), (0.3812751, 0.92446125, -0.0008801559), (0.010969245, 0.9999395, -0.0008250604), (0.3812751, 0.92446125, -0.0008801559), (0.26020586, 0.94003177, -0.22052926), (0.3812751, 0.92446125, -0.0008801559), (0.7637337, 0.6455315, -0.00019172607), (0.64397925, 0.74327296, -0.18120731), (0.64668053, 0.76276094, 0.00031519006), (0.7637337, 0.6455315, -0.00019172607), (0.3812751, 0.92446125, -0.0008801559), (0.2556019, 0.9667821, 0.0002976767), (0.3812751, 0.92446125, -0.0008801559), (0.010969245, 0.9999395, -0.0008250604), (0.3812751, 0.92446125, -0.0008801559), (0.2556019, 0.9667821, 0.0002976767), (0.64668053, 0.76276094, 0.00031519006), (0.6437716, 0.7434475, 0.18122944), (0.64668053, 0.76276094, 0.00031519006), (0.2556019, 0.9667821, 0.0002976767), (0.010969245, 0.9999395, -0.0008250604), (0.010935303, 0.9999399, 0.00084756094), (0.2556019, 0.9667821, 0.0002976767), (0.2556019, 0.9667821, 0.0002976767), (0.25995845, 0.94024116, 0.21992771), (0.6437716, 0.7434475, 0.18122944), (0.25995845, 0.94024116, 0.21992771), (0.2556019, 0.9667821, 0.0002976767), (0.010935303, 0.9999399, 0.00084756094), (0.5023264, 0.748828, 0.4323482), (0.6437716, 0.7434475, 0.18122944), (0.25995845, 0.94024116, 0.21992771), (0.010935303, 0.9999399, 0.00084756094), (0.0007035646, 0.9999998, -0.000143129), (-0.9999996, 0.00070364645, -0.0005621145), (0.25949195, 0.66103053, 0.70406145), (0.6434148, 0.5286514, 0.5536651), (0.5023264, 0.748828, 0.4323482), (-0.9999996, 0.00070364645, -0.0005621145), (0.0092371255, 0.9593404, 0.28210074), (0.010935303, 0.9999399, 0.00084756094), (0.010935303, 0.9999399, 0.00084756094), (0.0092371255, 0.9593404, 0.28210074), (0.25995845, 0.94024116, 0.21992771), (0.0092371255, 0.9593404, 0.28210074), (-0.9999996, 0.00070364645, -0.0005621145), (0.00036811247, 0.8892746, 0.45737344), (0.25995845, 0.94024116, 0.21992771), (0.1977369, 0.8490759, 0.48986763), (0.5023264, 0.748828, 0.4323482), (0.5023264, 0.748828, 0.4323482), (0.1977369, 0.8490759, 0.48986763), (0.25949195, 0.66103053, 0.70406145), (0.1977369, 0.8490759, 0.48986763), (0.25995845, 0.94024116, 0.21992771), (0.0092371255, 0.9593404, 0.28210074), (0.008563326, 0.66474587, 0.7470205), (0.25949195, 0.66103053, 0.70406145), (0.1977369, 0.8490759, 0.48986763), (0.00036811247, 0.8892746, 0.45737344), (0.0045342837, 0.8422434, 0.53907853), (0.0092371255, 0.9593404, 0.28210074), (0.0092371255, 0.9593404, 0.28210074), (0.0045342837, 0.8422434, 0.53907853), (0.1977369, 0.8490759, 0.48986763), (0.1977369, 0.8490759, 0.48986763), (0.0045342837, 0.8422434, 0.53907853), (0.008563326, 0.66474587, 0.7470205), (0.0045342837, 0.8422434, 0.53907853), (0.00036811247, 0.8892746, 0.45737344), (-0.9999996, 0.0007031386, -0.0005629843), (-0.9999996, 0.0007031386, -0.0005629843), (0.008563326, 0.66474587, 0.7470205), (0.0045342837, 0.8422434, 0.53907853), (0.88904077, 0.39622498, 0.22937356), (0.6437716, 0.7434475, 0.18122944), (0.5023264, 0.748828, 0.4323482), (0.5023264, 0.748828, 0.4323482), (0.6434148, 0.5286514, 0.5536651), (0.88904077, 0.39622498, 0.22937356), (0.6437716, 0.7434475, 0.18122944), (0.88904077, 0.39622498, 0.22937356), (0.9249448, 0.38009998, 0.00096144096), (0.9249448, 0.38009998, 0.00096144096), (0.64668053, 0.76276094, 0.00031519006), (0.6437716, 0.7434475, 0.18122944), (0.7637337, 0.6455315, -0.00019172607), (0.64668053, 0.76276094, 0.00031519006), (0.9249448, 0.38009998, 0.00096144096), (0.96689445, 0.12745115, 0.22106901), (0.88904077, 0.39622498, 0.22937356), (0.6434148, 0.5286514, 0.5536651), (0.6434148, 0.5286514, 0.5536651), (0.7631903, 0.32303604, 0.55963224), (0.96689445, 0.12745115, 0.22106901), (0.9999981, 0.0014621651, 0.0013157245), (0.9249448, 0.38009998, 0.00096144096), (0.88904077, 0.39622498, 0.22937356), (0.88904077, 0.39622498, 0.22937356), (0.96689445, 0.12745115, 0.22106901), (0.9999981, 0.0014621651, 0.0013157245), (0.9249448, 0.38009998, 0.00096144096), (0.9671083, 0.2543649, -0.00015880793), (0.7637337, 0.6455315, -0.00019172607), (0.9671083, 0.2543649, -0.00015880793), (0.9249448, 0.38009998, 0.00096144096), (0.9999981, 0.0014621651, 0.0013157245), (0.64397925, 0.74327296, -0.18120731), (0.7637337, 0.6455315, -0.00019172607), (0.9671083, 0.2543649, -0.00015880793), (0.9999993, -0.00061632233, 0.001019244), (0.9999981, 0.0014621651, 0.0013157245), (0.96689445, 0.12745115, 0.22106901), (0.9999981, 0.0014621651, 0.0013157245), (0.9999999, -0.0003514156, 0.00025792595), (0.9671083, 0.2543649, -0.00015880793), (0.9671083, 0.2543649, -0.00015880793), (0.88929814, 0.39600718, -0.22875111), (0.64397925, 0.74327296, -0.18120731), (0.88929814, 0.39600718, -0.22875111), (0.9671083, 0.2543649, -0.00015880793), (0.9999999, -0.0003514156, 0.00025792595), (0.5028105, 0.7484154, -0.43249974), (0.64397925, 0.74327296, -0.18120731), (0.88929814, 0.39600718, -0.22875111), (0.88929814, 0.39600718, -0.22875111), (0.6440342, 0.52812475, -0.55344766), (0.5028105, 0.7484154, -0.43249974), (0.6440342, 0.52812475, -0.55344766), (0.88929814, 0.39600718, -0.22875111), (0.924997, 0.19010678, -0.32899868), (0.9999999, -0.0003514156, 0.00025792595), (0.924997, 0.19010678, -0.32899868), (0.88929814, 0.39600718, -0.22875111), (0.924997, 0.19010678, -0.32899868), (0.6467817, 0.3811122, -0.6606263), (0.6440342, 0.52812475, -0.55344766), (0.76382273, 0.32195798, -0.5593907), (0.6467817, 0.3811122, -0.6606263), (0.924997, 0.19010678, -0.32899868), (0.96714187, 0.12623447, -0.22068425), (0.924997, 0.19010678, -0.32899868), (0.9999999, -0.0003514156, 0.00025792595), (0.924997, 0.19010678, -0.32899868), (0.96714187, 0.12623447, -0.22068425), (0.76382273, 0.32195798, -0.5593907), (0.64391637, 0.21416569, -0.7345099), (0.76382273, 0.32195798, -0.5593907), (0.96714187, 0.12623447, -0.22068425), (0.9999999, -0.0003514156, 0.00025792595), (0.9999979, -0.0011339001, -0.0016903802), (0.96714187, 0.12623447, -0.22068425), (0.96714187, 0.12623447, -0.22068425), (0.8891471, -0.00084308273, -0.45762068), (0.64391637, 0.21416569, -0.7345099), (0.8891471, -0.00084308273, -0.45762068), (0.96714187, 0.12623447, -0.22068425), (0.9999979, -0.0011339001, -0.0016903802), (0.5025323, -0.0007615856, -0.86455804), (0.64391637, 0.21416569, -0.7345099), (0.8891471, -0.00084308273, -0.45762068), (0.8891471, -0.00084308273, -0.45762068), (0.64361656, -0.21576983, -0.7343031), (0.5025323, -0.0007615856, -0.86455804), (0.64361656, -0.21576983, -0.7343031), (0.8891471, -0.00084308273, -0.45762068), (0.9247282, -0.19064455, -0.32944253), (0.9999979, -0.0011339001, -0.0016903802), (0.9247282, -0.19064455, -0.32944253), (0.8891471, -0.00084308273, -0.45762068), (0.9247282, -0.19064455, -0.32944253), (0.646249, -0.38210312, -0.6605751), (0.64361656, -0.21576983, -0.7343031), (0.7633646, -0.32410958, -0.5587732), (0.646249, -0.38210312, -0.6605751), (0.9247282, -0.19064455, -0.32944253), (0.96696144, -0.12881294, -0.21998385), (0.9247282, -0.19064455, -0.32944253), (0.9999979, -0.0011339001, -0.0016903802), (0.9247282, -0.19064455, -0.32944253), (0.96696144, -0.12881294, -0.21998385), (0.7633646, -0.32410958, -0.5587732), (0.64328825, -0.5295596, -0.55294377), (0.7633646, -0.32410958, -0.5587732), (0.96696144, -0.12881294, -0.21998385), (0.9999979, -0.0011339001, -0.0016903802), (0.99999934, -0.0011431912, 0.00040916575), (0.96696144, -0.12881294, -0.21998385), (0.96696144, -0.12881294, -0.21998385), (0.8887384, -0.3974822, -0.22836818), (0.64328825, -0.5295596, -0.55294377), (0.8887384, -0.3974822, -0.22836818), (0.96696144, -0.12881294, -0.21998385), (0.99999934, -0.0011431912, 0.00040916575), (0.5017486, -0.749542, -0.43178132), (0.64328825, -0.5295596, -0.55294377), (0.8887384, -0.3974822, -0.22836818), (0.8887384, -0.3974822, -0.22836818), (0.6429297, -0.7443536, -0.1804969), (0.5017486, -0.749542, -0.43178132), (0.6429297, -0.7443536, -0.1804969), (0.8887384, -0.3974822, -0.22836818), (0.9244079, -0.38140535, 0.00007806919), (0.99999934, -0.0011431912, 0.00040916575), (0.9244079, -0.38140535, 0.00007806919), (0.8887384, -0.3974822, -0.22836818), (0.9244079, -0.38140535, 0.00007806919), (0.6456082, -0.76366866, 0.00041108276), (0.6429297, -0.7443536, -0.1804969), (0.76282537, -0.6466037, 0.0010497322), (0.6456082, -0.76366866, 0.00041108276), (0.9244079, -0.38140535, 0.00007806919), (0.9667474, -0.25573018, 0.0012458094), (0.9244079, -0.38140535, 0.00007806919), (0.99999934, -0.0011431912, 0.00040916575), (0.9244079, -0.38140535, 0.00007806919), (0.9667474, -0.25573018, 0.0012458094), (0.76282537, -0.6466037, 0.0010497322), (0.6427289, -0.74417835, 0.1819288), (0.76282537, -0.6466037, 0.0010497322), (0.9667474, -0.25573018, 0.0012458094), (0.99999934, -0.0011431912, 0.00040916575), (0.99999493, -0.0024392207, 0.0020609724), (0.9667474, -0.25573018, 0.0012458094), (0.9667474, -0.25573018, 0.0012458094), (0.8884825, -0.3972584, 0.22974926), (0.6427289, -0.74417835, 0.1819288), (0.8884825, -0.3972584, 0.22974926), (0.9667474, -0.25573018, 0.0012458094), (0.99999493, -0.0024392207, 0.0020609724), (0.5012707, -0.7491224, 0.43306288), (0.6427289, -0.74417835, 0.1819288), (0.8884825, -0.3972584, 0.22974926), (0.8884825, -0.3972584, 0.22974926), (0.6426689, -0.5290286, 0.55417097), (0.5012707, -0.7491224, 0.43306288), (0.6426689, -0.5290286, 0.55417097), (0.8884825, -0.3972584, 0.22974926), (0.92435706, -0.19140923, 0.33004028), (0.99999493, -0.0024392207, 0.0020609724), (0.92435706, -0.19140923, 0.33004028), (0.8884825, -0.3972584, 0.22974926), (0.92435706, -0.19140923, 0.33004028), (0.64550406, -0.38202038, 0.6613508), (0.6426689, -0.5290286, 0.55417097), (0.7627391, -0.3230324, 0.5602493), (0.64550406, -0.38202038, 0.6613508), (0.92435706, -0.19140923, 0.33004028), (0.96671426, -0.12759581, 0.22177237), (0.92435706, -0.19140923, 0.33004028), (0.99999493, -0.0024392207, 0.0020609724), (0.92435706, -0.19140923, 0.33004028), (0.96671426, -0.12759581, 0.22177237), (0.7627391, -0.3230324, 0.5602493), (0.99999493, -0.0024392207, 0.0020609724), (0.9999993, -0.00061632233, 0.001019244), (0.96671426, -0.12759581, 0.22177237), (0.642788, -0.21507037, 0.7352336), (0.7627391, -0.3230324, 0.5602493), (0.96671426, -0.12759581, 0.22177237), (0.96671426, -0.12759581, 0.22177237), (0.8886316, -0.00040755625, 0.45862162), (0.642788, -0.21507037, 0.7352336), (0.8886316, -0.00040755625, 0.45862162), (0.96671426, -0.12759581, 0.22177237), (0.9999993, -0.00061632233, 0.001019244), (0.5015612, 0.000055222266, 0.86512214), (0.642788, -0.21507037, 0.7352336), (0.8886316, -0.00040755625, 0.45862162), (0.8886316, -0.00040755625, 0.45862162), (0.64309347, 0.21486418, 0.7350268), (0.5015612, 0.000055222266, 0.86512214), (0.9999993, -0.00061632233, 0.001019244), (0.9246255, 0.18934223, 0.3304802), (0.8886316, -0.00040755625, 0.45862162), (0.64309347, 0.21486418, 0.7350268), (0.8886316, -0.00040755625, 0.45862162), (0.9246255, 0.18934223, 0.3304802), (0.96689445, 0.12745115, 0.22106901), (0.9246255, 0.18934223, 0.3304802), (0.9999993, -0.00061632233, 0.001019244), (0.9246255, 0.18934223, 0.3304802), (0.6460386, 0.38119578, 0.6613047), (0.64309347, 0.21486418, 0.7350268), (0.9246255, 0.18934223, 0.3304802), (0.96689445, 0.12745115, 0.22106901), (0.7631903, 0.32303604, 0.55963224), (0.7631903, 0.32303604, 0.55963224), (0.6460386, 0.38119578, 0.6613047), (0.9246255, 0.18934223, 0.3304802), (-0.0007948728, -0.39613125, 0.91819364), (-0.000891764, -0.68628305, 0.727334), (-0.00087085797, -0.5963532, 0.8027217), (-0.00087085797, -0.5963532, 0.8027217), (-0.00073979254, -0.28583872, 0.9582775), (-0.0007948728, -0.39613125, 0.91819364), (-0.00060210936, -0.05819606, 0.998305), (-0.0007948728, -0.39613125, 0.91819364), (-0.00073979254, -0.28583872, 0.9582775), (-0.00073979254, -0.28583872, 0.9582775), (-0.0005195026, 0.05915375, 0.9982488), (-0.00060210936, -0.05819606, 0.998305), (-0.00033672634, 0.28675207, 0.95800483), (-0.00060210936, -0.05819606, 0.998305), (-0.0005195026, 0.05915375, 0.9982488), (-0.0005195026, 0.05915375, 0.9982488), (-0.0002365607, 0.39700142, 0.91781795), (-0.00033672634, 0.28675207, 0.95800483), (-0.000030741012, 0.5971126, 0.8021575), (-0.00033672634, 0.28675207, 0.95800483), (-0.0002365607, 0.39700142, 0.91781795), (-0.0002365607, 0.39700142, 0.91781795), (0.00007491272, 0.6869729, 0.726683), (-0.000030741012, 0.5971126, 0.8021575), (-0.00089687866, -0.83493453, 0.55034864), (-0.00087085797, -0.5963532, 0.8027217), (-0.000891764, -0.68628305, 0.727334), (-0.000891764, -0.68628305, 0.727334), (-0.00088110083, -0.89365673, 0.4487503), (-0.00089687866, -0.83493453, 0.55034864), (-0.0008147478, -0.97281224, 0.23159419), (-0.00089687866, -0.83493453, 0.55034864), (-0.00088110083, -0.89365673, 0.4487503), (-0.00088110083, -0.89365673, 0.4487503), (-0.00076417776, -0.99324465, 0.11603726), (-0.0008147478, -0.97281224, 0.23159419), (-0.0006343281, -0.99335444, -0.11509405), (-0.0008147478, -0.97281224, 0.23159419), (-0.00076417776, -0.99324465, 0.11603726), (-0.00076417776, -0.99324465, 0.11603726), (-0.0005550475, -0.97303194, -0.23067002), (-0.0006343281, -0.99335444, -0.11509405), (-0.000377377, -0.8940831, -0.44790116), (-0.0006343281, -0.99335444, -0.11509405), (-0.0005550475, -0.97303194, -0.23067002), (-0.0005550475, -0.97303194, -0.23067002), (-0.00027897736, -0.8354575, -0.54955506), (-0.000377377, -0.8940831, -0.44790116), (-0.00007493027, -0.6869742, -0.7266818), (-0.000377377, -0.8940831, -0.44790116), (-0.00027897736, -0.8354575, -0.54955506), (-0.00027897736, -0.8354575, -0.54955506), (0.00003072663, -0.59711605, -0.80215484), (-0.00007493027, -0.6869742, -0.7266818), (0.00023655743, -0.39700404, -0.91781694), (-0.00007493027, -0.6869742, -0.7266818), (0.00003072663, -0.59711605, -0.80215484), (0.00003072663, -0.59711605, -0.80215484), (0.00033673292, -0.28674975, -0.9580054), (0.00023655743, -0.39700404, -0.91781694), (0.000519508, -0.05914806, -0.9982491), (0.00023655743, -0.39700404, -0.91781694), (0.00033673292, -0.28674975, -0.9580054), (0.00033673292, -0.28674975, -0.9580054), (0.00060211273, 0.058199015, -0.99830484), (0.000519508, -0.05914806, -0.9982491), (0.00073979667, 0.28583875, -0.9582774), (0.000519508, -0.05914806, -0.9982491), (0.00060211273, 0.058199015, -0.99830484), (0.00060211273, 0.058199015, -0.99830484), (0.0007948742, 0.39613122, -0.91819364), (0.00073979667, 0.28583875, -0.9582774), (0.0008708538, 0.5963532, -0.8027217), (0.00073979667, 0.28583875, -0.9582774), (0.0007948742, 0.39613122, -0.91819364), (0.0007948742, 0.39613122, -0.91819364), (0.0008917592, 0.686283, -0.7273341), (0.0008708538, 0.5963532, -0.8027217), (0.0008968791, 0.8349345, -0.55034864), (0.0008708538, 0.5963532, -0.8027217), (0.0008917592, 0.686283, -0.7273341), (0.0008917592, 0.686283, -0.7273341), (0.000881085, 0.8936567, -0.4487505), (0.0008968791, 0.8349345, -0.55034864), (0.0008147082, 0.972812, -0.2315949), (0.0008968791, 0.8349345, -0.55034864), (0.000881085, 0.8936567, -0.4487505), (0.000881085, 0.8936567, -0.4487505), (0.00076413027, 0.9932445, -0.116038166), (0.0008147082, 0.972812, -0.2315949), (0.00063429604, 0.99335456, 0.11509351), (0.0008147082, 0.972812, -0.2315949), (0.00076413027, 0.9932445, -0.116038166), (0.00076413027, 0.9932445, -0.116038166), (0.0005550349, 0.97303206, 0.23066913), (0.00063429604, 0.99335456, 0.11509351), (0.0003773686, 0.8940838, 0.44789955), (0.00063429604, 0.99335456, 0.11509351), (0.0005550349, 0.97303206, 0.23066913), (0.0005550349, 0.97303206, 0.23066913), (0.00027896528, 0.83545816, 0.5495541), (0.0003773686, 0.8940838, 0.44789955), (0.00007491272, 0.6869729, 0.726683), (0.0003773686, 0.8940838, 0.44789955), (0.00027896528, 0.83545816, 0.5495541), (0.00027896528, 0.83545816, 0.5495541), (-0.000030741012, 0.5971126, 0.8021575), (0.00007491272, 0.6869729, 0.726683), (-0.0007948722, -0.39613128, 0.91819364), (-0.0008917619, -0.68628305, 0.727334), (-0.00087085733, -0.59635323, 0.8027217), (-0.00087085733, -0.59635323, 0.8027217), (-0.00073979184, -0.28583872, 0.9582775), (-0.0007948722, -0.39613128, 0.91819364), (-0.0006021122, -0.05820039, 0.9983047), (-0.0007948722, -0.39613128, 0.91819364), (-0.00073979184, -0.28583872, 0.9582775), (-0.00073979184, -0.28583872, 0.9582775), (-0.000519509, 0.059145074, 0.9982493), (-0.0006021122, -0.05820039, 0.9983047), (-0.0003367298, 0.28674805, 0.95800596), (-0.0006021122, -0.05820039, 0.9983047), (-0.000519509, 0.059145074, 0.9982493), (-0.000519509, 0.059145074, 0.9982493), (-0.00023655723, 0.3970051, 0.9178164), (-0.0003367298, 0.28674805, 0.95800596), (-0.00003073469, 0.5971182, 0.8021533), (-0.0003367298, 0.28674805, 0.95800596), (-0.00023655723, 0.3970051, 0.9178164), (-0.00023655723, 0.3970051, 0.9178164), (0.00007491552, 0.6869752, 0.7266809), (-0.00003073469, 0.5971182, 0.8021533), (-0.00089687394, -0.8349345, 0.55034864), (-0.00087085733, -0.59635323, 0.8027217), (-0.0008917619, -0.68628305, 0.727334), (-0.0008917619, -0.68628305, 0.727334), (-0.00088109623, -0.89365673, 0.44875038), (-0.00089687394, -0.8349345, 0.55034864), (-0.00081474526, -0.97281224, 0.23159423), (-0.00089687394, -0.8349345, 0.55034864), (-0.00088109623, -0.89365673, 0.44875038), (-0.00088109623, -0.89365673, 0.44875038), (-0.00076417776, -0.99324465, 0.11603726), (-0.00081474526, -0.97281224, 0.23159423), (-0.0006343281, -0.99335444, -0.115094095), (-0.00081474526, -0.97281224, 0.23159423), (-0.00076417776, -0.99324465, 0.11603726), (-0.00076417776, -0.99324465, 0.11603726), (-0.00055504485, -0.97303194, -0.23067006), (-0.0006343281, -0.99335444, -0.115094095), (-0.00037737231, -0.8940831, -0.44790116), (-0.0006343281, -0.99335444, -0.115094095), (-0.00055504485, -0.97303194, -0.23067006), (-0.00055504485, -0.97303194, -0.23067006), (-0.00027897267, -0.8354575, -0.54955506), (-0.00037737231, -0.8940831, -0.44790116), (-0.000074927266, -0.68697345, -0.7266825), (-0.00037737231, -0.8940831, -0.44790116), (-0.00027897267, -0.8354575, -0.54955506), (-0.00027897267, -0.8354575, -0.54955506), (0.000030727977, -0.59711426, -0.8021562), (-0.000074927266, -0.68697345, -0.7266825), (0.000236559, -0.3970016, -0.9178179), (-0.000074927266, -0.68697345, -0.7266825), (0.000030727977, -0.59711426, -0.8021562), (0.000030727977, -0.59711426, -0.8021562), (0.0003367334, -0.28674844, -0.9580059), (0.000236559, -0.3970016, -0.9178179), (0.000519508, -0.05914806, -0.9982491), (0.000236559, -0.3970016, -0.9178179), (0.0003367334, -0.28674844, -0.9580059), (0.0003367334, -0.28674844, -0.9580059), (0.00060211273, 0.058199015, -0.99830484), (0.000519508, -0.05914806, -0.9982491), (0.000739796, 0.28583744, -0.9582779), (0.000519508, -0.05914806, -0.9982491), (0.00060211273, 0.058199015, -0.99830484), (0.00060211273, 0.058199015, -0.99830484), (0.00079487305, 0.3961287, -0.91819465), (0.000739796, 0.28583744, -0.9582779), (0.00087085326, 0.5963513, -0.8027231), (0.000739796, 0.28583744, -0.9582779), (0.00079487305, 0.3961287, -0.91819465), (0.00079487305, 0.3961287, -0.91819465), (0.000891759, 0.6862822, -0.7273348), (0.00087085326, 0.5963513, -0.8027231), (0.0008968791, 0.8349345, -0.55034864), (0.00087085326, 0.5963513, -0.8027231), (0.000891759, 0.6862822, -0.7273348), (0.000891759, 0.6862822, -0.7273348), (0.000881085, 0.8936567, -0.4487505), (0.0008968791, 0.8349345, -0.55034864), (0.0008147079, 0.9728122, -0.23159423), (0.0008968791, 0.8349345, -0.55034864), (0.000881085, 0.8936567, -0.4487505), (0.000881085, 0.8936567, -0.4487505), (0.0007641299, 0.9932445, -0.116037495), (0.0008147079, 0.9728122, -0.23159423), (0.0006342962, 0.99335456, 0.115093164), (0.0008147079, 0.9728122, -0.23159423), (0.0007641299, 0.9932445, -0.116037495), (0.0007641299, 0.9932445, -0.116037495), (0.00055503444, 0.973032, 0.2306698), (0.0006342962, 0.99335456, 0.115093164), (0.00037736646, 0.89408267, 0.4479019), (0.0006342962, 0.99335456, 0.115093164), (0.00055503444, 0.973032, 0.2306698), (0.00055503444, 0.973032, 0.2306698), (0.0002789639, 0.83545727, 0.5495554), (0.00037736646, 0.89408267, 0.4479019), (0.00007491552, 0.6869752, 0.7266809), (0.00037736646, 0.89408267, 0.4479019), (0.0002789639, 0.83545727, 0.5495554), (0.0002789639, 0.83545727, 0.5495554), (-0.00003073469, 0.5971182, 0.8021533), (0.00007491552, 0.6869752, 0.7266809)] (
        interpolation = "faceVarying"
    )
    point3f[] points = [(-0.0077752178, -0.21412684, 0.12687387), (0.009224774, -0.2141388, 0.12688342), (0.0093049845, -0.0027706772, 0.24878305), (-0.0076950095, -0.0027587153, 0.24877349), (-0.0076374463, -0.21684302, -0.12162484), (0.009362548, -0.21685499, -0.12161528), (0.009225474, -0.21673901, 0.12238465), (-0.00777452, -0.21672706, 0.12237509), (-0.007415806, -0.002994938, -0.24822639), (0.0095841875, -0.0030069, -0.24821682), (0.009366904, -0.21425904, -0.1261165), (-0.007633088, -0.2142471, -0.12612607), (-0.007331943, 0.21356931, -0.12632921), (0.009668051, 0.21355735, -0.12631966), (0.009587845, 0.0021892507, -0.2482193), (-0.0074121496, 0.0022012126, -0.24822885), (-0.007469714, 0.21628551, 0.12216943), (0.009530278, 0.21627355, 0.12217899), (0.009667352, 0.21615757, -0.121820904), (-0.0073326407, 0.21616952, -0.12183046), (-0.0076913526, 0.002437435, 0.24877103), (0.009308641, 0.002425473, 0.24878058), (0.009525921, 0.21367761, 0.12668023), (-0.0074740727, 0.21368958, 0.12667067), (0.010537403, -0.2141147, 0.12668215), (0.010439108, -0.21517904, 0.1258795), (0.011385536, -0.21495944, 0.12546024), (0.011475295, -0.2140403, 0.12607662), (0.0106793055, -0.21423477, -0.12591378), (0.011616517, -0.21415977, -0.12530728), (0.011526065, -0.21507834, -0.12469012), (0.010580116, -0.21529832, -0.12511022), (0.010980417, 0.2135314, -0.1261169), (0.010882718, 0.21459588, -0.12531438), (0.01182836, 0.21437496, -0.12489406), (0.011917527, 0.21345568, -0.12551033), (0.010838515, 0.21365148, 0.12647897), (0.011776305, 0.21357517, 0.12587352), (0.011687831, 0.21449386, 0.12525627), (0.010741717, 0.2147152, 0.12567532), (0.00936563, -0.21539527, -0.12527221), (-0.007634362, -0.21538332, -0.12528177), (0.011834365, -0.002358731, -0.24772483), (0.01089673, -0.0028453856, -0.24809341), (0.011745879, -0.0013652984, -0.24821275), (0.010799889, -0.0016180583, -0.24861397), (0.011471601, -0.00041029355, -0.2485162), (-0.007414576, -0.0016961775, -0.24878947), (0.009585418, -0.0017081378, -0.24877994), (-0.0074135563, -0.00039721912, -0.24897759), (0.010610047, -0.00040984785, -0.24885477), (0.009586438, -0.0004091811, -0.24896803), (-0.0074127475, 0.00090191746, -0.24879071), (0.01080159, 0.0007983224, -0.2486151), (0.011747223, 0.00054461195, -0.24821366), (0.009587247, 0.0008899538, -0.24878116), (0.010900159, 0.0020260059, -0.24809572), (0.011837108, 0.0015383819, -0.24772668), (0.009668377, 0.21469441, -0.12547643), (-0.007331617, 0.2147064, -0.125486), (0.009527195, 0.21481387, 0.12583593), (-0.0074727987, 0.21482587, 0.12582637), (0.011558456, 0.0017741377, 0.24829112), (0.010621093, 0.0022621113, 0.24865864), (0.01146802, 0.0007808329, 0.24877894), (0.01052194, 0.0010349232, 0.24917908), (0.011192058, -0.0001737866, 0.24908207), (-0.007692583, 0.0011386746, 0.24933411), (0.009307411, 0.001126711, 0.24934368), (-0.0076936027, -0.00016028366, 0.24952224), (0.010330127, -0.00017301952, 0.24941967), (0.009306392, -0.00017224567, 0.24953179), (-0.0076944116, -0.0014594204, 0.24933535), (0.010520239, -0.0013814592, 0.24918021), (0.011466676, -0.0011290811, 0.24877985), (0.009305582, -0.0014713806, 0.24934492), (0.010617665, -0.0026092795, 0.24866095), (0.011555714, -0.0021229752, 0.24829297), (0.009224448, -0.21527587, 0.1260402), (-0.0077755437, -0.21526393, 0.12603065), (0.012307914, -0.00017564671, 0.24681938), (0.012226874, -0.21374053, 0.12365286), (0.012365372, -0.21385771, -0.12288297), (0.01266595, 0.21315487, -0.123085745), (0.012527452, 0.21327205, 0.12345004), (0.012584911, -0.0004100021, -0.24625225), (-0.007471646, 0.21563725, 0.12479474), (-0.0074706185, 0.21612379, 0.123575754), (-0.007331965, 0.21600647, -0.12323663), (-0.007331623, 0.21551877, -0.12445515), (-0.007775196, -0.216564, 0.123781286), (-0.0077755377, -0.2160763, 0.12499979), (-0.0076355147, -0.21619475, -0.124250144), (-0.007636542, -0.2166813, -0.123031154), (0.0111102825, -0.2156993, 0.12478483), (0.010248225, -0.21599141, 0.12495353), (0.009224457, -0.21608825, 0.12500934), (0.0092247985, -0.21657597, 0.12379084), (0.010439433, -0.21638824, 0.12378743), (0.011385793, -0.21591519, 0.12380665), (0.010538066, -0.21655242, 0.12246455), (0.01147582, -0.21599045, 0.12270255), (0.01161325, -0.21610671, -0.12193137), (0.010675218, -0.21666844, -0.12169389), (0.011524459, -0.21603248, -0.12303565), (0.010578082, -0.21650551, -0.12301703), (0.011250044, -0.21581754, -0.124014325), (0.009363452, -0.21669327, -0.1230216), (0.010388199, -0.21610978, -0.124183714), (0.009364479, -0.2162067, -0.12424059), (0.011553384, 0.21511519, -0.12421897), (0.0106919445, 0.21540852, -0.12438863), (0.009668369, 0.2155068, -0.124445595), (0.009668027, 0.21599452, -0.12322709), (0.010882396, 0.21580508, -0.12322233), (0.011828111, 0.2153307, -0.123240486), (0.010979769, 0.21596912, -0.12189932), (0.011917002, 0.21540585, -0.12213628), (0.011779572, 0.21552213, 0.1224976), (0.010842606, 0.21608518, 0.12225906), (0.011689439, 0.21544804, 0.12360177), (0.0107437465, 0.21592237, 0.12358211), (0.011413615, 0.21523346, 0.12458015), (0.009529374, 0.21611184, 0.12358532), (0.010551984, 0.21552694, 0.12474857), (0.009528346, 0.21562529, 0.12480429), (0.012154635, 0.21458678, 0.124207914), (0.012341189, 0.21458443, 0.12289459), (0.012339284, 0.21344869, 0.12486388), (0.012479064, 0.21446776, -0.12253174), (0.012293986, 0.21446888, -0.12384529), (0.01247937, 0.21333016, -0.124499954), (0.012398692, 0.00072637916, -0.2471122), (0.012212448, -0.0004104607, -0.24776988), (0.012397092, -0.0015469363, -0.24711113), (0.012178542, -0.2140341, -0.124297015), (0.011991551, -0.21517192, -0.123641275), (0.012176636, -0.21516979, -0.12232773), (0.012038761, -0.21505317, 0.12309864), (0.011852208, -0.21505404, 0.12441198), (0.012038454, -0.21391556, 0.12506685), (0.012119129, -0.001311764, 0.24767911), (0.011933746, -0.00017466274, 0.24833658), (0.012120729, 0.00096155144, 0.24767804), (-0.06514952, 0.00091272336, 0.20121261), (-0.06515066, -0.0020957754, 0.19947755), (-0.0076669375, -0.0021362253, 0.19950987), (-0.0076657967, 0.00087227445, 0.20124494), (-0.06514745, 0.00433321, 0.20181406), (-0.007663727, 0.0042927614, 0.20184638), (-0.06514471, 0.0077531314, 0.20120934), (-0.007660981, 0.0077126813, 0.20124166), (-0.06514162, 0.010759977, 0.19947146), (-0.007657889, 0.010719528, 0.19950376), (-0.0076670162, -0.004369867, 0.19685048), (-0.06515074, -0.0043294174, 0.19681816), (-0.007666019, -0.005559243, 0.19358754), (-0.06514974, -0.005518791, 0.19355522), (-0.0076640677, -0.0055608926, 0.19011456), (-0.065147795, -0.0055204416, 0.19008224), (-0.0076613985, -0.0043746205, 0.18685049), (-0.06514512, -0.004334171, 0.18681818), (-0.0076583307, -0.002143508, 0.18418898), (-0.06514206, -0.002103058, 0.18415667), (-0.0076552387, 0.0008633404, 0.18245105), (-0.065138966, 0.0009037893, 0.18241875), (-0.007652491, 0.0042832526, 0.18184637), (-0.06513622, 0.0043237014, 0.18181406), (-0.007650423, 0.0077037383, 0.1824478), (-0.06513415, 0.0077441884, 0.1824155), (-0.0076492815, 0.010712239, 0.18418287), (-0.06513301, 0.010752688, 0.18415056), (-0.007649205, 0.01294588, 0.18684226), (-0.06513293, 0.01298633, 0.18680996), (-0.0076502026, 0.014135256, 0.1901052), (-0.06513393, 0.014175705, 0.1900729), (-0.0076521537, 0.014136909, 0.19357817), (-0.06513588, 0.014177358, 0.19354586), (-0.007654823, 0.012950639, 0.19684225), (-0.06513855, 0.012991088, 0.19680993), (-0.064931765, 0.0007284712, -0.18640885), (-0.064932905, -0.0022800274, -0.18814391), (-0.007449181, -0.0023204775, -0.18811159), (-0.0074480395, 0.0006880223, -0.18637653), (-0.064929694, 0.004148958, -0.1858074), (-0.0074459696, 0.004108509, -0.18577509), (-0.06492695, 0.007568879, -0.18641208), (-0.0074432236, 0.007528429, -0.18637976), (-0.06492386, 0.010575725, -0.18815), (-0.0074401316, 0.0105352765, -0.1881177), (-0.007449259, -0.004554119, -0.19077098), (-0.06493298, -0.0045136698, -0.19080329), (-0.0074482616, -0.0057434947, -0.19403392), (-0.06493199, -0.0057030427, -0.19406624), (-0.0074463105, -0.0057451446, -0.1975069), (-0.06493004, -0.005704694, -0.19753921), (-0.0074436413, -0.0045588724, -0.20077097), (-0.06492736, -0.004518423, -0.20080328), (-0.0074405735, -0.00232776, -0.20343249), (-0.0649243, -0.00228731, -0.20346479), (-0.0074374815, 0.00067908823, -0.2051704), (-0.06492121, 0.00071953714, -0.2052027), (-0.007434734, 0.0040990007, -0.20577508), (-0.06491846, 0.0041394494, -0.20580739), (-0.0074326657, 0.0075194864, -0.20517364), (-0.064916395, 0.0075599365, -0.20520595), (-0.007431525, 0.010527986, -0.2034386), (-0.064915255, 0.010568435, -0.2034709), (-0.007431448, 0.012761627, -0.2007792), (-0.06491517, 0.012802077, -0.2008115), (-0.0074324454, 0.0139510045, -0.19751626), (-0.06491617, 0.013991453, -0.19754857), (-0.0074343965, 0.013952656, -0.19404326), (-0.06491812, 0.013993106, -0.19407557), (-0.0074370657, 0.012766386, -0.19077921), (-0.06492079, 0.012806836, -0.19081153)]
}

