#usda 1.0
(
    defaultPrim = "SM_Handle_Door_3"
    upAxis = "Z"
)

def Mesh "SM_Handle_Door_3"
{
    int[] faceVertexCounts = [3, 3, 3, 3, 3, 3, 3, 3, 3, 3, 3, 3, 3, 3, 3, 3, 3, 3, 3, 3, 3, 3, 3, 3, 3, 3, 3, 3, 3, 3, 3, 3, 3, 3, 3, 3, 3, 3, 3, 3, 3, 3, 3, 3, 3, 3, 3, 3, 3, 3, 3, 3, 3, 3, 3, 3, 3, 3, 3, 3, 3, 3, 3, 3, 3, 3, 3, 3, 3, 3, 3, 3, 3, 3, 3, 3, 3, 3, 3, 3, 3, 3, 3, 3, 3, 3, 3, 3, 3, 3, 3, 3, 3, 3, 3, 3, 3, 3, 3, 3, 3, 3, 3, 3, 3, 3, 3, 3, 3, 3, 3, 3, 3, 3, 3, 3, 3, 3, 3, 3, 3, 3, 3, 3, 3, 3, 3, 3, 3, 3, 3, 3, 3, 3, 3, 3, 3, 3, 3, 3, 3, 3, 3, 3, 3, 3, 3, 3, 3, 3, 3, 3, 3, 3, 3, 3, 3, 3, 3, 3, 3, 3, 3, 3, 3, 3, 3, 3, 3, 3, 3, 3, 3, 3, 3, 3, 3, 3, 3, 3, 3, 3, 3, 3, 3, 3, 3, 3, 3, 3, 3, 3, 3, 3, 3, 3, 3, 3, 3, 3, 3, 3, 3, 3, 3, 3, 3, 3, 3, 3, 3, 3, 3, 3, 3, 3, 3, 3, 3, 3, 3, 3, 3, 3, 3, 3, 3, 3, 3, 3, 3, 3, 3, 3, 3, 3, 3, 3, 3, 3, 3, 3, 3, 3, 3, 3, 3, 3, 3, 3, 3, 3, 3, 3, 3, 3, 3, 3, 3, 3, 3, 3, 3, 3, 3, 3, 3, 3, 3, 3, 3, 3, 3, 3, 3, 3, 3, 3, 3, 3, 3, 3, 3, 3, 3, 3, 3, 3, 3, 3, 3, 3, 3, 3, 3, 3, 3, 3, 3, 3, 3, 3, 3, 3, 3, 3, 3, 3, 3, 3, 3, 3, 3, 3, 3, 3, 3, 3, 3, 3, 3, 3, 3, 3, 3, 3, 3, 3, 3, 3, 3, 3, 3, 3, 3, 3, 3, 3, 3, 3, 3, 3, 3, 3, 3, 3, 3, 3, 3, 3, 3, 3, 3, 3, 3, 3, 3, 3, 3, 3, 3, 3, 3, 3, 3, 3, 3, 3, 3, 3, 3, 3, 3, 3, 3, 3, 3, 3, 3, 3, 3, 3, 3, 3, 3, 3, 3, 3, 3, 3, 3, 3, 3, 3, 3, 3, 3, 3, 3, 3, 3, 3, 3, 3, 3, 3, 3, 3]
    int[] faceVertexIndices = [0, 1, 2, 2, 3, 0, 4, 5, 6, 5, 4, 7, 8, 9, 10, 9, 8, 11, 12, 13, 14, 12, 14, 15, 16, 17, 18, 17, 16, 19, 20, 21, 22, 20, 22, 23, 24, 25, 26, 26, 27, 24, 28, 29, 30, 30, 29, 31, 32, 33, 34, 33, 32, 35, 36, 37, 38, 37, 36, 39, 40, 41, 42, 40, 42, 43, 43, 42, 44, 43, 44, 45, 46, 43, 45, 44, 47, 45, 47, 44, 48, 48, 49, 47, 49, 48, 50, 51, 45, 47, 46, 45, 52, 45, 51, 52, 53, 46, 52, 54, 52, 51, 53, 52, 55, 52, 54, 55, 56, 53, 55, 57, 55, 54, 56, 55, 58, 55, 57, 58, 59, 60, 61, 60, 59, 62, 63, 62, 59, 62, 63, 64, 65, 66, 67, 65, 67, 68, 69, 65, 68, 69, 68, 70, 71, 72, 73, 73, 74, 71, 74, 75, 71, 74, 76, 75, 77, 78, 79, 79, 80, 77, 80, 81, 77, 80, 82, 81, 83, 84, 85, 84, 83, 86, 87, 86, 83, 86, 87, 88, 89, 90, 91, 90, 89, 92, 93, 92, 89, 92, 93, 94, 95, 96, 97, 96, 95, 98, 99, 98, 95, 98, 99, 100, 101, 102, 103, 102, 101, 104, 105, 104, 101, 104, 105, 106, 105, 107, 106, 107, 105, 108, 109, 107, 108, 109, 108, 110, 111, 109, 110, 110, 112, 111, 113, 111, 112, 111, 113, 114, 115, 116, 117, 115, 118, 116, 119, 116, 118, 118, 120, 119, 121, 122, 123, 121, 124, 122, 125, 122, 124, 124, 126, 125, 127, 128, 129, 127, 129, 130, 131, 127, 130, 130, 132, 131, 133, 131, 132, 131, 133, 134, 135, 136, 137, 136, 135, 138, 139, 138, 135, 138, 139, 140, 139, 141, 140, 141, 139, 142, 143, 144, 145, 144, 143, 146, 146, 147, 144, 147, 146, 148, 149, 148, 146, 147, 148, 150, 147, 150, 151, 151, 150, 152, 151, 152, 153, 148, 154, 150, 148, 149, 155, 148, 155, 154, 156, 155, 149, 155, 157, 154, 155, 156, 158, 155, 158, 157, 159, 158, 156, 158, 160, 157, 158, 159, 161, 158, 161, 160, 162, 163, 164, 163, 162, 165, 166, 165, 162, 167, 166, 162, 165, 166, 168, 168, 169, 165, 169, 168, 170, 166, 167, 171, 172, 170, 168, 170, 172, 173, 174, 168, 166, 168, 174, 172, 171, 174, 166, 175, 171, 167, 176, 172, 174, 172, 176, 177, 178, 176, 174, 174, 171, 178, 176, 178, 179, 180, 178, 171, 171, 175, 180, 181, 179, 178, 178, 180, 181, 179, 181, 182, 183, 182, 181, 183, 181, 180, 182, 183, 184, 180, 185, 183, 185, 180, 175, 183, 185, 186, 175, 187, 185, 187, 175, 188, 188, 189, 187, 185, 190, 186, 190, 185, 187, 187, 191, 190, 190, 192, 186, 191, 193, 190, 190, 193, 192, 191, 194, 193, 195, 194, 196, 194, 195, 197, 197, 193, 194, 198, 192, 193, 193, 197, 198, 192, 198, 199, 199, 200, 192, 200, 199, 201, 198, 202, 199, 197, 203, 198, 198, 203, 202, 197, 204, 203, 202, 205, 206, 205, 202, 207, 203, 207, 202, 204, 208, 203, 207, 203, 208, 208, 204, 209, 210, 209, 204, 209, 210, 211, 212, 208, 209, 213, 207, 208, 208, 212, 213, 207, 213, 214, 215, 213, 212, 216, 214, 213, 213, 215, 216, 214, 216, 217, 216, 218, 217, 219, 215, 220, 215, 219, 221, 221, 216, 215, 218, 216, 222, 216, 221, 222, 222, 223, 218, 224, 222, 221, 223, 222, 224, 224, 221, 225, 226, 223, 224, 227, 224, 225, 224, 227, 226, 225, 228, 227, 229, 227, 228, 230, 226, 227, 227, 229, 230, 231, 230, 229, 226, 230, 232, 230, 231, 233, 233, 232, 230, 232, 233, 234, 235, 236, 237, 236, 235, 238, 238, 239, 236, 240, 236, 239, 239, 238, 241, 242, 241, 238, 241, 242, 243, 240, 239, 244, 243, 245, 241, 245, 243, 246, 241, 247, 239, 247, 241, 245, 244, 239, 247, 248, 240, 244, 245, 249, 247, 249, 245, 250, 251, 247, 249, 244, 247, 251, 251, 249, 252, 253, 244, 251, 248, 244, 253, 254, 251, 252, 253, 251, 254, 254, 252, 255, 256, 257, 248, 256, 248, 258, 259, 254, 255, 259, 255, 260, 259, 253, 254, 261, 248, 253, 253, 259, 261, 248, 261, 258, 262, 261, 259, 263, 258, 261, 261, 262, 263, 258, 263, 264, 265, 263, 262, 266, 264, 263, 263, 265, 266, 264, 266, 267, 267, 268, 269, 268, 267, 270, 266, 270, 267, 270, 266, 271, 265, 271, 266, 271, 272, 270, 271, 265, 273, 274, 273, 265, 273, 274, 275, 273, 276, 271, 271, 276, 272, 273, 277, 276, 278, 277, 279, 277, 278, 280, 280, 276, 277, 281, 272, 276, 276, 280, 281, 272, 281, 282, 282, 283, 272, 283, 282, 284, 281, 285, 282, 280, 286, 281, 281, 286, 285, 280, 287, 286, 288, 285, 286, 286, 287, 289, 286, 289, 288, 287, 290, 289, 291, 292, 288, 291, 288, 293, 293, 288, 289, 294, 289, 290, 293, 289, 294, 290, 295, 294, 296, 294, 295, 297, 293, 294, 294, 296, 297, 293, 297, 298, 299, 297, 296, 300, 298, 297, 297, 299, 300, 298, 300, 301, 300, 302, 301, 299, 303, 300, 302, 300, 303, 303, 304, 302, 303, 299, 305, 304, 303, 306, 305, 306, 303, 306, 305, 307, 308, 309, 310, 309, 308, 311, 311, 312, 309, 309, 312, 313, 314, 315, 316, 314, 316, 317, 318, 314, 317, 314, 318, 319, 320, 319, 318, 319, 320, 321, 320, 322, 321, 322, 320, 323, 324, 325, 326, 324, 326, 327, 327, 326, 328, 327, 328, 329, 328, 330, 329, 326, 331, 328, 332, 331, 326, 330, 328, 333, 331, 333, 328, 333, 334, 330, 334, 333, 335, 333, 331, 336, 332, 337, 331, 337, 336, 331, 338, 337, 332, 336, 337, 339, 338, 340, 337, 340, 339, 337, 341, 340, 338, 339, 340, 342, 343, 344, 345, 344, 343, 346, 346, 347, 344, 347, 346, 348, 347, 348, 349, 350, 344, 347, 344, 350, 351, 347, 349, 352, 347, 352, 350, 352, 349, 353, 352, 353, 354, 350, 352, 355, 356, 351, 350, 350, 355, 356, 351, 356, 357, 356, 355, 358, 359, 357, 356, 356, 358, 359, 357, 359, 360, 359, 358, 361, 362, 363, 364, 363, 365, 366, 363, 362, 367, 367, 365, 363, 368, 367, 362, 367, 369, 365, 367, 368, 370, 370, 369, 367, 371, 370, 368, 370, 372, 369, 373, 372, 370, 370, 371, 373, 373, 374, 372, 371, 375, 373, 374, 373, 375, 375, 371, 376, 377, 374, 375, 376, 377, 375, 374, 377, 378, 379, 377, 376, 380, 378, 377, 379, 380, 377, 378, 380, 381, 382, 380, 379, 383, 381, 380, 382, 383, 380, 381, 383, 384, 385, 383, 382, 386, 387, 388, 386, 388, 389, 387, 386, 390, 386, 389, 391, 392, 390, 386, 392, 386, 391, 390, 392, 393, 392, 391, 394, 395, 393, 392, 395, 392, 394, 393, 395, 396, 395, 394, 397, 398, 396, 395, 399, 395, 397, 398, 395, 399, 399, 397, 400, 401, 398, 399, 402, 399, 400, 401, 399, 403, 399, 402, 403, 404, 401, 403, 405, 403, 402, 404, 403, 406, 403, 405, 406, 407, 404, 406, 408, 406, 405, 407, 406, 409, 406, 408, 409]
    normal3f[] normals = [(0.25880578, -0.7481569, 0.61096716), (0.25880578, -0.7481569, 0.61096716), (0.25880578, -0.7481569, 0.61096716), (0.25880578, -0.7481569, 0.61096716), (0.25880578, -0.7481569, 0.61096716), (0.25880578, -0.7481569, 0.61096716), (-0.25880578, -0.7481569, 0.61096716), (-0.25880578, -0.7481569, 0.61096716), (-0.25880578, -0.7481569, 0.61096716), (-0.25880578, -0.7481569, 0.61096716), (-0.25880578, -0.7481569, 0.61096716), (-0.25880578, -0.7481569, 0.61096716), (0.7071068, -0.7035318, -0.07101438), (0.7071068, -0.7035318, -0.07101438), (0.7071068, -0.7035318, -0.07101438), (0.7071068, -0.7035318, -0.07101438), (0.7071068, -0.7035318, -0.07101438), (0.7071068, -0.7035318, -0.07101438), (0.7071068, 0.7035318, 0.07101438), (0.7071068, 0.7035318, 0.07101438), (0.7071068, 0.7035318, 0.07101438), (0.7071068, 0.7035318, 0.07101438), (0.7071068, 0.7035318, 0.07101438), (0.7071068, 0.7035318, 0.07101438), (-0.7071068, 0.7035318, 0.07101438), (-0.7071068, 0.7035318, 0.07101438), (-0.7071068, 0.7035318, 0.07101438), (-0.7071068, 0.7035318, 0.07101438), (-0.7071068, 0.7035318, 0.07101438), (-0.7071068, 0.7035318, 0.07101438), (-0.7071068, -0.7035318, -0.07101438), (-0.7071068, -0.7035318, -0.07101438), (-0.7071068, -0.7035318, -0.07101438), (-0.7071068, -0.7035318, -0.07101438), (-0.7071068, -0.7035318, -0.07101438), (-0.7071068, -0.7035318, -0.07101438), (0.25880578, -0.61096716, -0.7481569), (0.25880578, -0.61096716, -0.7481569), (0.25880578, -0.61096716, -0.7481569), (0.25880578, -0.61096716, -0.7481569), (0.25880578, -0.61096716, -0.7481569), (0.25880578, -0.61096716, -0.7481569), (0.25880578, 0.61096716, 0.7481569), (0.25880578, 0.61096716, 0.7481569), (0.25880578, 0.61096716, 0.7481569), (0.25880578, 0.61096716, 0.7481569), (0.25880578, 0.61096716, 0.7481569), (0.25880578, 0.61096716, 0.7481569), (-0.25880578, 0.61096716, 0.7481569), (-0.25880578, 0.61096716, 0.7481569), (-0.25880578, 0.61096716, 0.7481569), (-0.25880578, 0.61096716, 0.7481569), (-0.25880578, 0.61096716, 0.7481569), (-0.25880578, 0.61096716, 0.7481569), (-0.25880578, -0.61096716, -0.7481569), (-0.25880578, -0.61096716, -0.7481569), (-0.25880578, -0.61096716, -0.7481569), (-0.25880578, -0.61096716, -0.7481569), (-0.25880578, -0.61096716, -0.7481569), (-0.25880578, -0.61096716, -0.7481569), (0.7071068, -0.07101438, 0.7035318), (0.7071068, -0.07101438, 0.7035318), (0.500011, -0.08697385, 0.86164063), (0.7071068, -0.07101438, 0.7035318), (0.500011, -0.08697385, 0.86164063), (0.41768825, -0.1294716, 0.8993185), (0.41768825, -0.1294716, 0.8993185), (0.500011, -0.08697385, 0.86164063), (5.551115e-17, -0.10042949, 0.99494416), (0.41768825, -0.1294716, 0.8993185), (5.551115e-17, -0.10042949, 0.99494416), (5.5419635e-17, -0.15737094, 0.9875395), (0.26041037, -0.312727, 0.91344863), (0.41768825, -0.1294716, 0.8993185), (5.5419635e-17, -0.15737094, 0.9875395), (5.551115e-17, -0.10042949, 0.99494416), (-0.41768825, -0.1294716, 0.8993185), (5.5419635e-17, -0.15737094, 0.9875395), (-0.41768825, -0.1294716, 0.8993185), (5.551115e-17, -0.10042949, 0.99494416), (-0.500011, -0.08697385, 0.86164063), (-0.500011, -0.08697385, 0.86164063), (-0.7071068, -0.07101438, 0.7035318), (-0.41768825, -0.1294716, 0.8993185), (-0.7071068, -0.07101438, 0.7035318), (-0.500011, -0.08697385, 0.86164063), (-0.7071068, -0.07101438, 0.7035318), (-0.26041037, -0.312727, 0.91344863), (5.5419635e-17, -0.15737094, 0.9875395), (-0.41768825, -0.1294716, 0.8993185), (0.26041037, -0.312727, 0.91344863), (5.5419635e-17, -0.15737094, 0.9875395), (5.405929e-17, -0.32386473, 0.94610333), (5.5419635e-17, -0.15737094, 0.9875395), (-0.26041037, -0.312727, 0.91344863), (5.405929e-17, -0.32386473, 0.94610333), (0.26031208, -0.5093704, 0.8202314), (0.26041037, -0.312727, 0.91344863), (5.405929e-17, -0.32386473, 0.94610333), (-0.26028952, -0.5093363, 0.82025975), (5.405929e-17, -0.32386473, 0.94610333), (-0.26041037, -0.312727, 0.91344863), (0.26031208, -0.5093704, 0.8202314), (5.405929e-17, -0.32386473, 0.94610333), (4.9862027e-17, -0.52750397, 0.84955263), (5.405929e-17, -0.32386473, 0.94610333), (-0.26028952, -0.5093363, 0.82025975), (4.9862027e-17, -0.52750397, 0.84955263), (0.25880766, -0.5976468, 0.75883925), (0.26031208, -0.5093704, 0.8202314), (4.9862027e-17, -0.52750397, 0.84955263), (-0.25880766, -0.5976468, 0.75883925), (4.9862027e-17, -0.52750397, 0.84955263), (-0.26028952, -0.5093363, 0.82025975), (0.25880766, -0.5976468, 0.75883925), (4.9862027e-17, -0.52750397, 0.84955263), (4.6839248e-17, -0.6187149, 0.78561556), (4.9862027e-17, -0.52750397, 0.84955263), (-0.25880766, -0.5976468, 0.75883925), (4.6839248e-17, -0.6187149, 0.78561556), (0.70929116, -0.37182105, 0.59887815), (0.70709324, -0.30385876, 0.6385054), (0.70709324, -0.30385876, 0.6385054), (0.70709324, -0.30385876, 0.6385054), (0.70929116, -0.37182105, 0.59887815), (0.70929116, -0.37182105, 0.59887815), (0.7071205, -0.43751022, 0.5554868), (0.70929116, -0.37182105, 0.59887815), (0.70929116, -0.37182105, 0.59887815), (0.70929116, -0.37182105, 0.59887815), (0.7071205, -0.43751022, 0.5554868), (0.7071205, -0.43751022, 0.5554868), (-0.70929116, -0.37182105, 0.59887815), (-0.70709324, -0.30385876, 0.6385054), (-0.70709324, -0.30385876, 0.6385054), (-0.70929116, -0.37182105, 0.59887815), (-0.70709324, -0.30385876, 0.6385054), (-0.70929116, -0.37182105, 0.59887815), (-0.7071205, -0.43751022, 0.5554868), (-0.70929116, -0.37182105, 0.59887815), (-0.70929116, -0.37182105, 0.59887815), (-0.7071205, -0.43751022, 0.5554868), (-0.70929116, -0.37182105, 0.59887815), (-0.7071205, -0.43751022, 0.5554868), (0.70929116, -0.6611035, 0.24463871), (0.7071205, -0.631715, 0.31767428), (0.7071205, -0.631715, 0.31767428), (0.7071205, -0.631715, 0.31767428), (0.70929116, -0.6611035, 0.24463871), (0.70929116, -0.6611035, 0.24463871), (0.70929116, -0.6611035, 0.24463871), (0.70709324, -0.6863495, 0.17012814), (0.70929116, -0.6611035, 0.24463871), (0.70929116, -0.6611035, 0.24463871), (0.70709324, -0.6863495, 0.17012814), (0.70709324, -0.6863495, 0.17012814), (0.70929116, 0.6611035, -0.24463871), (0.7071205, 0.631715, -0.31767428), (0.7071205, 0.631715, -0.31767428), (0.7071205, 0.631715, -0.31767428), (0.70929116, 0.6611035, -0.24463871), (0.70929116, 0.6611035, -0.24463871), (0.70929116, 0.6611035, -0.24463871), (0.70709324, 0.6863495, -0.17012814), (0.70929116, 0.6611035, -0.24463871), (0.70929116, 0.6611035, -0.24463871), (0.70709324, 0.6863495, -0.17012814), (0.70709324, 0.6863495, -0.17012814), (-0.70929116, 0.6611035, -0.24463871), (-0.7071205, 0.631715, -0.31767428), (-0.7071205, 0.631715, -0.31767428), (-0.7071205, 0.631715, -0.31767428), (-0.70929116, 0.6611035, -0.24463871), (-0.70929116, 0.6611035, -0.24463871), (-0.70709324, 0.6863495, -0.17012814), (-0.70929116, 0.6611035, -0.24463871), (-0.70929116, 0.6611035, -0.24463871), (-0.70929116, 0.6611035, -0.24463871), (-0.70709324, 0.6863495, -0.17012814), (-0.70709324, 0.6863495, -0.17012814), (-0.70929116, -0.6611035, 0.24463871), (-0.7071205, -0.631715, 0.31767428), (-0.7071205, -0.631715, 0.31767428), (-0.7071205, -0.631715, 0.31767428), (-0.70929116, -0.6611035, 0.24463871), (-0.70929116, -0.6611035, 0.24463871), (-0.70709324, -0.6863495, 0.17012814), (-0.70929116, -0.6611035, 0.24463871), (-0.70929116, -0.6611035, 0.24463871), (-0.70929116, -0.6611035, 0.24463871), (-0.70709324, -0.6863495, 0.17012814), (-0.70709324, -0.6863495, 0.17012814), (0.70929116, -0.59887815, -0.37182105), (0.70709324, -0.6385054, -0.30385876), (0.70709324, -0.6385054, -0.30385876), (0.70709324, -0.6385054, -0.30385876), (0.70929116, -0.59887815, -0.37182105), (0.70929116, -0.59887815, -0.37182105), (0.7071205, -0.5554868, -0.43751022), (0.70929116, -0.59887815, -0.37182105), (0.70929116, -0.59887815, -0.37182105), (0.70929116, -0.59887815, -0.37182105), (0.7071205, -0.5554868, -0.43751022), (0.7071205, -0.5554868, -0.43751022), (0.70929116, 0.59887815, 0.37182105), (0.70709324, 0.6385054, 0.30385876), (0.70709324, 0.6385054, 0.30385876), (0.70709324, 0.6385054, 0.30385876), (0.70929116, 0.59887815, 0.37182105), (0.70929116, 0.59887815, 0.37182105), (0.70918804, 0.5029114, 0.4940977), (0.70929116, 0.59887815, 0.37182105), (0.70929116, 0.59887815, 0.37182105), (0.70929116, 0.59887815, 0.37182105), (0.70918804, 0.5029114, 0.4940977), (0.70918804, 0.5029114, 0.4940977), (0.70918804, 0.5029114, 0.4940977), (0.70918804, 0.38362715, 0.59150875), (0.70918804, 0.5029114, 0.4940977), (0.70918804, 0.38362715, 0.59150875), (0.70918804, 0.5029114, 0.4940977), (0.70918804, 0.38362715, 0.59150875), (0.70929116, 0.24463871, 0.6611035), (0.70918804, 0.38362715, 0.59150875), (0.70918804, 0.38362715, 0.59150875), (0.70929116, 0.24463871, 0.6611035), (0.70918804, 0.38362715, 0.59150875), (0.70929116, 0.24463871, 0.6611035), (0.7093797, 0.090452656, 0.6989985), (0.70929116, 0.24463871, 0.6611035), (0.70929116, 0.24463871, 0.6611035), (0.70929116, 0.24463871, 0.6611035), (0.7093797, 0.090452656, 0.6989985), (0.7093797, 0.090452656, 0.6989985), (0.7070739, 0.010137884, 0.7070671), (0.7093797, 0.090452656, 0.6989985), (0.7093797, 0.090452656, 0.6989985), (0.7093797, 0.090452656, 0.6989985), (0.7070739, 0.010137884, 0.7070671), (0.7070739, 0.010137884, 0.7070671), (-0.70709324, 0.6385054, 0.30385876), (-0.70929116, 0.59887815, 0.37182105), (-0.70709324, 0.6385054, 0.30385876), (-0.70709324, 0.6385054, 0.30385876), (-0.70929116, 0.59887815, 0.37182105), (-0.70929116, 0.59887815, 0.37182105), (-0.7071205, 0.5554868, 0.43751022), (-0.70929116, 0.59887815, 0.37182105), (-0.70929116, 0.59887815, 0.37182105), (-0.70929116, 0.59887815, 0.37182105), (-0.7071205, 0.5554868, 0.43751022), (-0.7071205, 0.5554868, 0.43751022), (-0.70709324, -0.6385054, -0.30385876), (-0.70929116, -0.59887815, -0.37182105), (-0.70709324, -0.6385054, -0.30385876), (-0.70709324, -0.6385054, -0.30385876), (-0.70929116, -0.59887815, -0.37182105), (-0.70929116, -0.59887815, -0.37182105), (-0.7071205, -0.5554868, -0.43751022), (-0.70929116, -0.59887815, -0.37182105), (-0.70929116, -0.59887815, -0.37182105), (-0.70929116, -0.59887815, -0.37182105), (-0.7071205, -0.5554868, -0.43751022), (-0.7071205, -0.5554868, -0.43751022), (0.70929116, -0.24463871, -0.6611035), (0.7071205, -0.31767428, -0.631715), (0.7071205, -0.31767428, -0.631715), (0.70929116, -0.24463871, -0.6611035), (0.7071205, -0.31767428, -0.631715), (0.70929116, -0.24463871, -0.6611035), (0.7093797, -0.090452656, -0.6989985), (0.70929116, -0.24463871, -0.6611035), (0.70929116, -0.24463871, -0.6611035), (0.70929116, -0.24463871, -0.6611035), (0.7093797, -0.090452656, -0.6989985), (0.7093797, -0.090452656, -0.6989985), (0.7070739, -0.010137884, -0.7070671), (0.7093797, -0.090452656, -0.6989985), (0.7093797, -0.090452656, -0.6989985), (0.7093797, -0.090452656, -0.6989985), (0.7070739, -0.010137884, -0.7070671), (0.7070739, -0.010137884, -0.7070671), (-0.70929116, -0.24463871, -0.6611035), (-0.7071205, -0.31767428, -0.631715), (-0.7071205, -0.31767428, -0.631715), (-0.7071205, -0.31767428, -0.631715), (-0.70929116, -0.24463871, -0.6611035), (-0.70929116, -0.24463871, -0.6611035), (-0.7093797, -0.090452656, -0.6989985), (-0.70929116, -0.24463871, -0.6611035), (-0.70929116, -0.24463871, -0.6611035), (-0.70929116, -0.24463871, -0.6611035), (-0.7093797, -0.090452656, -0.6989985), (-0.7093797, -0.090452656, -0.6989985), (-0.7093797, -0.090452656, -0.6989985), (-0.7070739, -0.010137884, -0.7070671), (-0.7093797, -0.090452656, -0.6989985), (-0.7070739, -0.010137884, -0.7070671), (-0.7093797, -0.090452656, -0.6989985), (-0.7070739, -0.010137884, -0.7070671), (0.7071068, 0.07101438, -0.7035318), (0.500011, 0.08697385, -0.86164063), (0.7071068, 0.07101438, -0.7035318), (0.500011, 0.08697385, -0.86164063), (0.7071068, 0.07101438, -0.7035318), (0.41768825, 0.05286306, -0.9070514), (0.41768825, 0.05286306, -0.9070514), (-5.551115e-17, 0.10042949, -0.99494416), (0.500011, 0.08697385, -0.86164063), (-5.551115e-17, 0.10042949, -0.99494416), (0.41768825, 0.05286306, -0.9070514), (-5.5419635e-17, 0.043156903, -0.99906826), (0.26041037, -0.12387188, -0.9575188), (-5.5419635e-17, 0.043156903, -0.99906826), (0.41768825, 0.05286306, -0.9070514), (-5.551115e-17, 0.10042949, -0.99494416), (-5.5419635e-17, 0.043156903, -0.99906826), (-0.41768825, 0.05286306, -0.9070514), (-5.551115e-17, 0.10042949, -0.99494416), (-0.41768825, 0.05286306, -0.9070514), (-0.500011, 0.08697385, -0.86164063), (-0.500011, 0.08697385, -0.86164063), (-0.41768825, 0.05286306, -0.9070514), (-0.7071068, 0.07101438, -0.7035318), (-0.500011, 0.08697385, -0.86164063), (-0.7071068, 0.07101438, -0.7035318), (-0.7071068, 0.07101438, -0.7035318), (-5.5419635e-17, 0.043156903, -0.99906826), (-0.26041037, -0.12387188, -0.9575188), (-0.41768825, 0.05286306, -0.9070514), (-5.5419635e-17, 0.043156903, -0.99906826), (0.26041037, -0.12387188, -0.9575188), (-5.405929e-17, -0.1282591, -0.99174064), (-5.5419635e-17, 0.043156903, -0.99906826), (-5.405929e-17, -0.1282591, -0.99174064), (-0.26041037, -0.12387188, -0.9575188), (0.26031208, -0.3351774, -0.9054799), (-5.405929e-17, -0.1282591, -0.99174064), (0.26041037, -0.12387188, -0.9575188), (-5.405929e-17, -0.1282591, -0.99174064), (-0.26031208, -0.3351774, -0.9054799), (-0.26041037, -0.12387188, -0.9575188), (-5.405929e-17, -0.1282591, -0.99174064), (0.26031208, -0.3351774, -0.9054799), (-4.9862027e-17, -0.34708554, -0.93783355), (-5.405929e-17, -0.1282591, -0.99174064), (-4.9862027e-17, -0.34708554, -0.93783355), (-0.26031208, -0.3351774, -0.9054799), (0.25880766, -0.43394187, -0.86296767), (-4.9862027e-17, -0.34708554, -0.93783355), (0.26031208, -0.3351774, -0.9054799), (-4.9862027e-17, -0.34708554, -0.93783355), (-0.25880766, -0.43394187, -0.86296767), (-0.26031208, -0.3351774, -0.9054799), (-4.9862027e-17, -0.34708554, -0.93783355), (0.25880766, -0.43394187, -0.86296767), (-4.6839248e-17, -0.44923398, -0.89341414), (-4.9862027e-17, -0.34708554, -0.93783355), (-4.6839248e-17, -0.44923398, -0.89341414), (-0.25880766, -0.43394187, -0.86296767), (0.9013948, -0.11138512, 0.41842663), (0.7071293, -0.15113842, 0.6907427), (0.7071293, -0.15113842, 0.6907427), (0.7071293, -0.15113842, 0.6907427), (0.9013948, -0.11138512, 0.41842663), (0.9041144, -0.081536874, 0.4194387), (0.9998252, -0.0061062304, 0.017676583), (0.9041144, -0.081536874, 0.4194387), (0.9013948, -0.11138512, 0.41842663), (0.96633166, -0.13574189, 0.21858017), (0.9998252, -0.0061062304, 0.017676583), (0.9013948, -0.11138512, 0.41842663), (0.9041144, -0.081536874, 0.4194387), (0.9998252, -0.0061062304, 0.017676583), (0.9999558, -0.0014414456, 0.00930185), (0.9999558, -0.0014414456, 0.00930185), (0.9659289, -0.02599193, 0.25749925), (0.9041144, -0.081536874, 0.4194387), (0.9659289, -0.02599193, 0.25749925), (0.9999558, -0.0014414456, 0.00930185), (1, 0, 0), (0.9998252, -0.0061062304, 0.017676583), (0.96633166, -0.13574189, 0.21858017), (0.9998335, -0.009606919, 0.015514168), (0.91023904, 0.07833291, -0.4066065), (1, 0, 0), (0.9999558, -0.0014414456, 0.00930185), (1, 0, 0), (0.91023904, 0.07833291, -0.4066065), (0.9659289, 0.02599193, -0.25749925), (0.87537557, 0.1566222, -0.45736977), (0.9999558, -0.0014414456, 0.00930185), (0.9998252, -0.0061062304, 0.017676583), (0.9999558, -0.0014414456, 0.00930185), (0.87537557, 0.1566222, -0.45736977), (0.91023904, 0.07833291, -0.4066065), (0.9998335, -0.009606919, 0.015514168), (0.87537557, 0.1566222, -0.45736977), (0.9998252, -0.0061062304, 0.017676583), (0.9016226, -0.32293665, 0.28773034), (0.9998335, -0.009606919, 0.015514168), (0.96633166, -0.13574189, 0.21858017), (0.7094284, 0.22832397, -0.6667681), (0.91023904, 0.07833291, -0.4066065), (0.87537557, 0.1566222, -0.45736977), (0.91023904, 0.07833291, -0.4066065), (0.7094284, 0.22832397, -0.6667681), (0.7070739, 0.15123612, -0.690778), (0.87509763, 0.2552806, -0.41113976), (0.7094284, 0.22832397, -0.6667681), (0.87537557, 0.1566222, -0.45736977), (0.87537557, 0.1566222, -0.45736977), (0.9998335, -0.009606919, 0.015514168), (0.87509763, 0.2552806, -0.41113976), (0.7094284, 0.22832397, -0.6667681), (0.87509763, 0.2552806, -0.41113976), (0.70929116, 0.37182105, -0.59887815), (0.99983925, -0.01254988, 0.0128049115), (0.87509763, 0.2552806, -0.41113976), (0.9998335, -0.009606919, 0.015514168), (0.9998335, -0.009606919, 0.015514168), (0.9016226, -0.32293665, 0.28773034), (0.99983925, -0.01254988, 0.0128049115), (0.8749036, 0.33941177, -0.34546122), (0.70929116, 0.37182105, -0.59887815), (0.87509763, 0.2552806, -0.41113976), (0.87509763, 0.2552806, -0.41113976), (0.99983925, -0.01254988, 0.0128049115), (0.8749036, 0.33941177, -0.34546122), (0.70929116, 0.37182105, -0.59887815), (0.8749036, 0.33941177, -0.34546122), (0.7092271, 0.4941149, -0.5028395), (0.91327137, 0.32783082, -0.24178998), (0.7092271, 0.4941149, -0.5028395), (0.8749036, 0.33941177, -0.34546122), (0.91327137, 0.32783082, -0.24178998), (0.8749036, 0.33941177, -0.34546122), (0.99983925, -0.01254988, 0.0128049115), (0.7092271, 0.4941149, -0.5028395), (0.91327137, 0.32783082, -0.24178998), (0.70710343, 0.5476895, -0.44725952), (0.99983925, -0.01254988, 0.0128049115), (0.99983925, -0.01505462, 0.009737744), (0.91327137, 0.32783082, -0.24178998), (0.99983925, -0.01505462, 0.009737744), (0.99983925, -0.01254988, 0.0128049115), (0.9016226, -0.32293665, 0.28773034), (0.91327137, 0.32783082, -0.24178998), (0.99983925, -0.01505462, 0.009737744), (0.96633166, 0.24129808, -0.08932186), (0.9016226, -0.32293665, 0.28773034), (0.9016226, -0.34646297, 0.2589213), (0.99983925, -0.01505462, 0.009737744), (0.9016226, -0.34646297, 0.2589213), (0.9016226, -0.32293665, 0.28773034), (0.70710343, -0.5476895, 0.44725952), (0.70710343, -0.5476895, 0.44725952), (0.70710343, -0.5476895, 0.44725952), (0.9016226, -0.34646297, 0.2589213), (0.99983925, -0.01505462, 0.009737744), (0.9998335, -0.017121093, 0.006312722), (0.96633166, 0.24129808, -0.08932186), (0.9998335, -0.017121093, 0.006312722), (0.99983925, -0.01505462, 0.009737744), (0.9016226, -0.34646297, 0.2589213), (0.9016226, -0.34646297, 0.2589213), (0.96633166, -0.24129808, 0.08932186), (0.9998335, -0.017121093, 0.006312722), (0.9998335, -0.017121093, 0.006312722), (0.9135594, 0.40582302, -0.02677578), (0.96633166, 0.24129808, -0.08932186), (0.96633166, -0.24129808, 0.08932186), (0.9998252, -0.018540299, 0.0024505048), (0.9998335, -0.017121093, 0.006312722), (0.9998335, -0.017121093, 0.006312722), (0.9998252, -0.018540299, 0.0024505048), (0.9135594, 0.40582302, -0.02677578), (0.96633166, -0.24129808, 0.08932186), (0.9013948, -0.43224567, 0.025518404), (0.9998252, -0.018540299, 0.0024505048), (0.7071293, -0.70701295, 0.010049217), (0.9013948, -0.43224567, 0.025518404), (0.7070739, -0.7070671, 0.010137884), (0.9013948, -0.43224567, 0.025518404), (0.7071293, -0.70701295, 0.010049217), (0.9041144, -0.42727232, -0.003929989), (0.9041144, -0.42727232, -0.003929989), (0.9998252, -0.018540299, 0.0024505048), (0.9013948, -0.43224567, 0.025518404), (0.9999558, -0.009402274, -0.0004465454), (0.9135594, 0.40582302, -0.02677578), (0.9998252, -0.018540299, 0.0024505048), (0.9998252, -0.018540299, 0.0024505048), (0.9041144, -0.42727232, -0.003929989), (0.9999558, -0.009402274, -0.0004465454), (0.9135594, 0.40582302, -0.02677578), (0.9999558, -0.009402274, -0.0004465454), (0.91023904, 0.4140587, 0.0045048906), (0.91023904, 0.4140587, 0.0045048906), (0.7071293, 0.70701295, -0.010049217), (0.9135594, 0.40582302, -0.02677578), (0.7071293, 0.70701295, -0.010049217), (0.91023904, 0.4140587, 0.0045048906), (0.7071293, 0.70701295, -0.010049217), (0.9999558, -0.009402274, -0.0004465454), (0.9102015, 0.4066892, 0.078339726), (0.91023904, 0.4140587, 0.0045048906), (0.9041144, -0.42727232, -0.003929989), (0.9999558, -0.00930185, -0.0014414456), (0.9999558, -0.009402274, -0.0004465454), (0.9999558, -0.009402274, -0.0004465454), (0.9999558, -0.00930185, -0.0014414456), (0.9102015, 0.4066892, 0.078339726), (0.9041144, -0.42727232, -0.003929989), (0.9041144, -0.4194387, -0.081536874), (0.9999558, -0.00930185, -0.0014414456), (0.9102015, 0.4066892, 0.078339726), (0.7071293, 0.6907427, 0.15113842), (0.7071293, 0.6907427, 0.15113842), (0.7071293, 0.6907427, 0.15113842), (0.9102015, 0.4066892, 0.078339726), (0.9135594, 0.39228573, 0.10733674), (0.9999558, -0.00930185, -0.0014414456), (0.9135594, 0.39228573, 0.10733674), (0.9102015, 0.4066892, 0.078339726), (0.9041144, -0.4194387, -0.081536874), (0.9998252, -0.017676583, -0.0061062304), (0.9999558, -0.00930185, -0.0014414456), (0.9135594, 0.39228573, 0.10733674), (0.9999558, -0.00930185, -0.0014414456), (0.9998252, -0.017676583, -0.0061062304), (0.9998252, -0.017676583, -0.0061062304), (0.9041144, -0.4194387, -0.081536874), (0.9013948, -0.41842663, -0.11138512), (0.7071293, -0.6907427, -0.15113842), (0.9013948, -0.41842663, -0.11138512), (0.9041144, -0.4194387, -0.081536874), (0.9013948, -0.41842663, -0.11138512), (0.7071293, -0.6907427, -0.15113842), (0.70707965, -0.69079363, -0.15113786), (0.96633166, -0.21858017, -0.13574189), (0.9998252, -0.017676583, -0.0061062304), (0.9013948, -0.41842663, -0.11138512), (0.9998335, -0.015514168, -0.009606919), (0.9135594, 0.39228573, 0.10733674), (0.9998252, -0.017676583, -0.0061062304), (0.9998252, -0.017676583, -0.0061062304), (0.96633166, -0.21858017, -0.13574189), (0.9998335, -0.015514168, -0.009606919), (0.9135594, 0.39228573, 0.10733674), (0.9998335, -0.015514168, -0.009606919), (0.96633166, 0.21858017, 0.13574189), (0.9016226, -0.28773034, -0.32293665), (0.9998335, -0.015514168, -0.009606919), (0.96633166, -0.21858017, -0.13574189), (0.99983925, -0.0128049115, -0.01254988), (0.96633166, 0.21858017, 0.13574189), (0.9998335, -0.015514168, -0.009606919), (0.9998335, -0.015514168, -0.009606919), (0.9016226, -0.28773034, -0.32293665), (0.99983925, -0.0128049115, -0.01254988), (0.96633166, 0.21858017, 0.13574189), (0.99983925, -0.0128049115, -0.01254988), (0.966311, 0.18361773, 0.1803543), (0.99983925, -0.0128049115, -0.01254988), (0.966311, 0.14002135, 0.21595639), (0.966311, 0.18361773, 0.1803543), (0.70710343, -0.44725952, -0.5476895), (0.9016226, -0.28773034, -0.32293665), (0.70710343, -0.44725952, -0.5476895), (0.9016226, -0.28773034, -0.32293665), (0.70710343, -0.44725952, -0.5476895), (0.9016226, -0.2589213, -0.34646297), (0.9016226, -0.2589213, -0.34646297), (0.99983925, -0.0128049115, -0.01254988), (0.9016226, -0.28773034, -0.32293665), (0.966311, 0.14002135, 0.21595639), (0.99983925, -0.0128049115, -0.01254988), (0.99983925, -0.009737744, -0.01505462), (0.99983925, -0.0128049115, -0.01254988), (0.9016226, -0.2589213, -0.34646297), (0.99983925, -0.009737744, -0.01505462), (0.99983925, -0.009737744, -0.01505462), (0.96633166, 0.08932186, 0.24129808), (0.966311, 0.14002135, 0.21595639), (0.9998335, -0.006312722, -0.017121093), (0.99983925, -0.009737744, -0.01505462), (0.9016226, -0.2589213, -0.34646297), (0.96633166, 0.08932186, 0.24129808), (0.99983925, -0.009737744, -0.01505462), (0.9998335, -0.006312722, -0.017121093), (0.9998335, -0.006312722, -0.017121093), (0.9016226, -0.2589213, -0.34646297), (0.96633166, -0.08932186, -0.24129808), (0.96634436, 0.033048164, 0.25512034), (0.96633166, 0.08932186, 0.24129808), (0.9998335, -0.006312722, -0.017121093), (0.9998252, -0.0024505048, -0.018540299), (0.9998335, -0.006312722, -0.017121093), (0.96633166, -0.08932186, -0.24129808), (0.9998335, -0.006312722, -0.017121093), (0.9998252, -0.0024505048, -0.018540299), (0.96634436, 0.033048164, 0.25512034), (0.96633166, -0.08932186, -0.24129808), (0.96634436, -0.033048164, -0.25512034), (0.9998252, -0.0024505048, -0.018540299), (0.9660295, 0.011185974, -0.25818983), (0.9998252, -0.0024505048, -0.018540299), (0.96634436, -0.033048164, -0.25512034), (0.9999558, 0.0004465454, -0.009402274), (0.96634436, 0.033048164, 0.25512034), (0.9998252, -0.0024505048, -0.018540299), (0.9998252, -0.0024505048, -0.018540299), (0.9660295, 0.011185974, -0.25818983), (0.9999558, 0.0004465454, -0.009402274), (0.9659289, 0.02599193, -0.25749925), (0.9999558, 0.0004465454, -0.009402274), (0.9660295, 0.011185974, -0.25818983), (0.96634436, 0.033048164, 0.25512034), (0.9999558, 0.0004465454, -0.009402274), (0.9660295, -0.011185974, 0.25818983), (0.9999558, 0.0004465454, -0.009402274), (0.9659289, 0.02599193, -0.25749925), (1, 0, 0), (1, 0, 0), (0.9660295, -0.011185974, 0.25818983), (0.9999558, 0.0004465454, -0.009402274), (0.9660295, -0.011185974, 0.25818983), (1, 0, 0), (0.9659289, -0.02599193, 0.25749925), (-0.7071293, -0.15113842, 0.6907427), (-0.9013948, -0.11138512, 0.41842663), (-0.7071293, -0.15113842, 0.6907427), (-0.9013948, -0.11138512, 0.41842663), (-0.7071293, -0.15113842, 0.6907427), (-0.9041144, -0.081536874, 0.4194387), (-0.9041144, -0.081536874, 0.4194387), (-0.9998252, -0.0061062304, 0.017676583), (-0.9013948, -0.11138512, 0.41842663), (-0.96633166, -0.13574189, 0.21858017), (-0.9013948, -0.11138512, 0.41842663), (-0.9998252, -0.0061062304, 0.017676583), (-0.9998252, -0.0061062304, 0.017676583), (-0.9041144, -0.081536874, 0.4194387), (-0.9999558, -0.0014414456, 0.00930185), (-0.9659289, -0.02599193, 0.25749925), (-0.9999558, -0.0014414456, 0.00930185), (-0.9041144, -0.081536874, 0.4194387), (-0.9999558, -0.0014414456, 0.00930185), (-0.9659289, -0.02599193, 0.25749925), (-1, 0, 0), (-0.96633166, -0.13574189, 0.21858017), (-0.9998252, -0.0061062304, 0.017676583), (-0.9998335, -0.009606919, 0.015514168), (-1, 0, 0), (-0.91023904, 0.07833291, -0.4066065), (-0.9999558, -0.0014414456, 0.00930185), (-0.91023904, 0.07833291, -0.4066065), (-1, 0, 0), (-0.9659289, 0.02599193, -0.25749925), (-0.9999558, -0.0014414456, 0.00930185), (-0.87537557, 0.1566222, -0.45736977), (-0.9998252, -0.0061062304, 0.017676583), (-0.87537557, 0.1566222, -0.45736977), (-0.9999558, -0.0014414456, 0.00930185), (-0.91023904, 0.07833291, -0.4066065), (-0.9998335, -0.009606919, 0.015514168), (-0.9998252, -0.0061062304, 0.017676583), (-0.87537557, 0.1566222, -0.45736977), (-0.9016226, -0.32293665, 0.28773034), (-0.96633166, -0.13574189, 0.21858017), (-0.9998335, -0.009606919, 0.015514168), (-0.91023904, 0.07833291, -0.4066065), (-0.7094284, 0.22832397, -0.6667681), (-0.87537557, 0.1566222, -0.45736977), (-0.7094284, 0.22832397, -0.6667681), (-0.91023904, 0.07833291, -0.4066065), (-0.7070739, 0.15123612, -0.690778), (-0.87509763, 0.2552806, -0.41113976), (-0.87537557, 0.1566222, -0.45736977), (-0.7094284, 0.22832397, -0.6667681), (-0.9998335, -0.009606919, 0.015514168), (-0.87537557, 0.1566222, -0.45736977), (-0.87509763, 0.2552806, -0.41113976), (-0.87509763, 0.2552806, -0.41113976), (-0.7094284, 0.22832397, -0.6667681), (-0.70929116, 0.37182105, -0.59887815), (-0.99983925, -0.01254988, 0.0128049115), (-0.9998335, -0.009606919, 0.015514168), (-0.87509763, 0.2552806, -0.41113976), (-0.9016226, -0.32293665, 0.28773034), (-0.9998335, -0.009606919, 0.015514168), (-0.99983925, -0.01254988, 0.0128049115), (-0.8749036, 0.33941177, -0.34546122), (-0.87509763, 0.2552806, -0.41113976), (-0.70929116, 0.37182105, -0.59887815), (-0.99983925, -0.01254988, 0.0128049115), (-0.87509763, 0.2552806, -0.41113976), (-0.8749036, 0.33941177, -0.34546122), (-0.8749036, 0.33941177, -0.34546122), (-0.70929116, 0.37182105, -0.59887815), (-0.7092271, 0.4941149, -0.5028395), (-0.70710343, -0.5476895, 0.44725952), (-0.70710343, -0.5476895, 0.44725952), (-0.9016226, -0.32293665, 0.28773034), (-0.70710343, -0.5476895, 0.44725952), (-0.9016226, -0.32293665, 0.28773034), (-0.9016226, -0.34646297, 0.2589213), (-0.91327137, 0.32783082, -0.24178998), (-0.8749036, 0.33941177, -0.34546122), (-0.7092271, 0.4941149, -0.5028395), (-0.91327137, 0.32783082, -0.24178998), (-0.7092271, 0.4941149, -0.5028395), (-0.70710343, 0.5476895, -0.44725952), (-0.91327137, 0.32783082, -0.24178998), (-0.99983925, -0.01254988, 0.0128049115), (-0.8749036, 0.33941177, -0.34546122), (-0.99983925, -0.01505462, 0.009737744), (-0.9016226, -0.32293665, 0.28773034), (-0.99983925, -0.01254988, 0.0128049115), (-0.99983925, -0.01254988, 0.0128049115), (-0.91327137, 0.32783082, -0.24178998), (-0.99983925, -0.01505462, 0.009737744), (-0.9016226, -0.32293665, 0.28773034), (-0.99983925, -0.01505462, 0.009737744), (-0.9016226, -0.34646297, 0.2589213), (-0.96633166, 0.24129808, -0.08932186), (-0.99983925, -0.01505462, 0.009737744), (-0.91327137, 0.32783082, -0.24178998), (-0.9998335, -0.017121093, 0.006312722), (-0.9016226, -0.34646297, 0.2589213), (-0.99983925, -0.01505462, 0.009737744), (-0.99983925, -0.01505462, 0.009737744), (-0.96633166, 0.24129808, -0.08932186), (-0.9998335, -0.017121093, 0.006312722), (-0.9016226, -0.34646297, 0.2589213), (-0.9998335, -0.017121093, 0.006312722), (-0.96633166, -0.24129808, 0.08932186), (-0.9135594, 0.40582302, -0.02677578), (-0.9998335, -0.017121093, 0.006312722), (-0.96633166, 0.24129808, -0.08932186), (-0.9998252, -0.018540299, 0.0024505048), (-0.96633166, -0.24129808, 0.08932186), (-0.9998335, -0.017121093, 0.006312722), (-0.9998335, -0.017121093, 0.006312722), (-0.9135594, 0.40582302, -0.02677578), (-0.9998252, -0.018540299, 0.0024505048), (-0.96633166, -0.24129808, 0.08932186), (-0.9998252, -0.018540299, 0.0024505048), (-0.9013948, -0.43224567, 0.025518404), (-0.9013948, -0.43224567, 0.025518404), (-0.7071293, -0.70701295, 0.010049217), (-0.7070739, -0.7070671, 0.010137884), (-0.7071293, -0.70701295, 0.010049217), (-0.9013948, -0.43224567, 0.025518404), (-0.9041144, -0.42727232, -0.003929989), (-0.9998252, -0.018540299, 0.0024505048), (-0.9041144, -0.42727232, -0.003929989), (-0.9013948, -0.43224567, 0.025518404), (-0.9041144, -0.42727232, -0.003929989), (-0.9998252, -0.018540299, 0.0024505048), (-0.9999558, -0.009402274, -0.0004465454), (-0.9135594, 0.40582302, -0.02677578), (-0.9999558, -0.009402274, -0.0004465454), (-0.9998252, -0.018540299, 0.0024505048), (-0.9999558, -0.009402274, -0.0004465454), (-0.9041144, -0.4194387, -0.081536874), (-0.9041144, -0.42727232, -0.003929989), (-0.9999558, -0.009402274, -0.0004465454), (-0.9135594, 0.40582302, -0.02677578), (-0.91023904, 0.4140587, 0.0045048906), (-0.7071293, 0.70701295, -0.010049217), (-0.91023904, 0.4140587, 0.0045048906), (-0.9135594, 0.40582302, -0.02677578), (-0.91023904, 0.4140587, 0.0045048906), (-0.7071293, 0.70701295, -0.010049217), (-0.7071293, 0.70701295, -0.010049217), (-0.91023904, 0.4140587, 0.0045048906), (-0.9999558, -0.00930185, -0.0014414456), (-0.9999558, -0.009402274, -0.0004465454), (-0.9999558, -0.009402274, -0.0004465454), (-0.9999558, -0.00930185, -0.0014414456), (-0.9041144, -0.4194387, -0.081536874), (-0.91023904, 0.4140587, 0.0045048906), (-0.9102015, 0.4066892, 0.078339726), (-0.9999558, -0.00930185, -0.0014414456), (-0.7071293, 0.6907427, 0.15113842), (-0.9102015, 0.4066892, 0.078339726), (-0.7071293, 0.6907427, 0.15113842), (-0.9102015, 0.4066892, 0.078339726), (-0.7071293, 0.6907427, 0.15113842), (-0.9135594, 0.39228573, 0.10733674), (-0.9135594, 0.39228573, 0.10733674), (-0.9999558, -0.00930185, -0.0014414456), (-0.9102015, 0.4066892, 0.078339726), (-0.9998252, -0.017676583, -0.0061062304), (-0.9041144, -0.4194387, -0.081536874), (-0.9999558, -0.00930185, -0.0014414456), (-0.9999558, -0.00930185, -0.0014414456), (-0.9135594, 0.39228573, 0.10733674), (-0.9998252, -0.017676583, -0.0061062304), (-0.9041144, -0.4194387, -0.081536874), (-0.9998252, -0.017676583, -0.0061062304), (-0.9013948, -0.41842663, -0.11138512), (-0.9013948, -0.41842663, -0.11138512), (-0.7071293, -0.6907427, -0.15113842), (-0.9041144, -0.4194387, -0.081536874), (-0.7071293, -0.6907427, -0.15113842), (-0.9013948, -0.41842663, -0.11138512), (-0.70707965, -0.69079363, -0.15113786), (-0.9998252, -0.017676583, -0.0061062304), (-0.96633166, -0.21858017, -0.13574189), (-0.9013948, -0.41842663, -0.11138512), (-0.9135594, 0.39228573, 0.10733674), (-0.9998335, -0.015514168, -0.009606919), (-0.9998252, -0.017676583, -0.0061062304), (-0.9998252, -0.017676583, -0.0061062304), (-0.9998335, -0.015514168, -0.009606919), (-0.96633166, -0.21858017, -0.13574189), (-0.9135594, 0.39228573, 0.10733674), (-0.96633166, 0.21858017, 0.13574189), (-0.9998335, -0.015514168, -0.009606919), (-0.9016226, -0.28773034, -0.32293665), (-0.96633166, -0.21858017, -0.13574189), (-0.9998335, -0.015514168, -0.009606919), (-0.9998335, -0.015514168, -0.009606919), (-0.96633166, 0.21858017, 0.13574189), (-0.99983925, -0.0128049115, -0.01254988), (-0.9998335, -0.015514168, -0.009606919), (-0.99983925, -0.0128049115, -0.01254988), (-0.9016226, -0.28773034, -0.32293665), (-0.96633166, 0.21858017, 0.13574189), (-0.966311, 0.18361773, 0.1803543), (-0.99983925, -0.0128049115, -0.01254988), (-0.70710343, -0.44725952, -0.5476895), (-0.70710343, -0.44725952, -0.5476895), (-0.9016226, -0.28773034, -0.32293665), (-0.70710343, -0.44725952, -0.5476895), (-0.9016226, -0.28773034, -0.32293665), (-0.9016226, -0.2589213, -0.34646297), (-0.9016226, -0.2589213, -0.34646297), (-0.9016226, -0.28773034, -0.32293665), (-0.99983925, -0.0128049115, -0.01254988), (-0.99983925, -0.009737744, -0.01505462), (-0.99983925, -0.0128049115, -0.01254988), (-0.966311, 0.18361773, 0.1803543), (-0.9016226, -0.2589213, -0.34646297), (-0.99983925, -0.0128049115, -0.01254988), (-0.99983925, -0.009737744, -0.01505462), (-0.966311, 0.18361773, 0.1803543), (-0.966311, 0.14002135, 0.21595639), (-0.99983925, -0.009737744, -0.01505462), (-0.96633166, 0.08932186, 0.24129808), (-0.99983925, -0.009737744, -0.01505462), (-0.966311, 0.14002135, 0.21595639), (-0.9998335, -0.006312722, -0.017121093), (-0.9016226, -0.2589213, -0.34646297), (-0.99983925, -0.009737744, -0.01505462), (-0.99983925, -0.009737744, -0.01505462), (-0.96633166, 0.08932186, 0.24129808), (-0.9998335, -0.006312722, -0.017121093), (-0.9016226, -0.2589213, -0.34646297), (-0.9998335, -0.006312722, -0.017121093), (-0.96633166, -0.08932186, -0.24129808), (-0.96634436, 0.033048164, 0.25512034), (-0.9998335, -0.006312722, -0.017121093), (-0.96633166, 0.08932186, 0.24129808), (-0.9998252, -0.0024505048, -0.018540299), (-0.96633166, -0.08932186, -0.24129808), (-0.9998335, -0.006312722, -0.017121093), (-0.9998335, -0.006312722, -0.017121093), (-0.96634436, 0.033048164, 0.25512034), (-0.9998252, -0.0024505048, -0.018540299), (-0.96633166, -0.08932186, -0.24129808), (-0.9998252, -0.0024505048, -0.018540299), (-0.96634436, -0.033048164, -0.25512034), (-0.9998252, -0.0024505048, -0.018540299), (-0.9660295, 0.011185974, -0.25818983), (-0.96634436, -0.033048164, -0.25512034), (-0.96634436, 0.033048164, 0.25512034), (-0.9999558, 0.0004465454, -0.009402274), (-0.9998252, -0.0024505048, -0.018540299), (-0.9660295, 0.011185974, -0.25818983), (-0.9998252, -0.0024505048, -0.018540299), (-0.9999558, 0.0004465454, -0.009402274), (-0.9999558, 0.0004465454, -0.009402274), (-0.9659289, 0.02599193, -0.25749925), (-0.9660295, 0.011185974, -0.25818983), (-0.9999558, 0.0004465454, -0.009402274), (-0.96634436, 0.033048164, 0.25512034), (-0.9660295, -0.011185974, 0.25818983), (-0.9659289, 0.02599193, -0.25749925), (-0.9999558, 0.0004465454, -0.009402274), (-1, 0, 0), (-0.9660295, -0.011185974, 0.25818983), (-1, 0, 0), (-0.9999558, 0.0004465454, -0.009402274), (-1, 0, 0), (-0.9660295, -0.011185974, 0.25818983), (-0.9659289, -0.02599193, 0.25749925), (0.25880578, 0.7481569, -0.61096716), (-3.9252314e-17, 0.7745462, -0.63251746), (0.25880578, 0.7481569, -0.61096716), (-3.9252314e-17, 0.7745462, -0.63251746), (0.25880578, 0.7481569, -0.61096716), (-3.9252314e-17, 0.7745462, -0.63251746), (-3.9252314e-17, 0.7745462, -0.63251746), (-0.25880578, 0.7481569, -0.61096716), (-3.9252314e-17, 0.7745462, -0.63251746), (-3.9252314e-17, 0.7745462, -0.63251746), (-0.25880578, 0.7481569, -0.61096716), (-0.25880578, 0.7481569, -0.61096716), (-0.70918804, 0.38362715, 0.59150875), (-0.70710343, 0.44725952, 0.5476895), (-0.70710343, 0.44725952, 0.5476895), (-0.70918804, 0.38362715, 0.59150875), (-0.70710343, 0.44725952, 0.5476895), (-0.70918804, 0.38362715, 0.59150875), (-0.70929116, 0.24463871, 0.6611035), (-0.70918804, 0.38362715, 0.59150875), (-0.70918804, 0.38362715, 0.59150875), (-0.70918804, 0.38362715, 0.59150875), (-0.70929116, 0.24463871, 0.6611035), (-0.70929116, 0.24463871, 0.6611035), (-0.7093797, 0.090452656, 0.6989985), (-0.70929116, 0.24463871, 0.6611035), (-0.70929116, 0.24463871, 0.6611035), (-0.70929116, 0.24463871, 0.6611035), (-0.7093797, 0.090452656, 0.6989985), (-0.7093797, 0.090452656, 0.6989985), (-0.7093797, 0.090452656, 0.6989985), (-0.7070739, 0.010137884, 0.7070671), (-0.7093797, 0.090452656, 0.6989985), (-0.7070739, 0.010137884, 0.7070671), (-0.7093797, 0.090452656, 0.6989985), (-0.7070739, 0.010137884, 0.7070671), (0.7071068, 0.07101438, -0.7035318), (0.7071068, 0.07101438, -0.7035318), (0.42528728, 0.12832394, -0.895915), (0.7071068, 0.07101438, -0.7035318), (0.42528728, 0.12832394, -0.895915), (0.500011, 0.08697385, -0.86164063), (0.500011, 0.08697385, -0.86164063), (0.42528728, 0.12832394, -0.895915), (-5.5419635e-17, 0.15737094, -0.9875395), (0.500011, 0.08697385, -0.86164063), (-5.5419635e-17, 0.15737094, -0.9875395), (-5.551115e-17, 0.10042949, -0.99494416), (-5.5419635e-17, 0.15737094, -0.9875395), (-0.500011, 0.08697385, -0.86164063), (-5.551115e-17, 0.10042949, -0.99494416), (0.42528728, 0.12832394, -0.895915), (-5.405929e-17, 0.32386473, -0.94610333), (-5.5419635e-17, 0.15737094, -0.9875395), (0.26041037, 0.312727, -0.91344863), (-5.405929e-17, 0.32386473, -0.94610333), (0.42528728, 0.12832394, -0.895915), (-0.500011, 0.08697385, -0.86164063), (-5.5419635e-17, 0.15737094, -0.9875395), (-0.42528728, 0.12832394, -0.895915), (-5.405929e-17, 0.32386473, -0.94610333), (-0.42528728, 0.12832394, -0.895915), (-5.5419635e-17, 0.15737094, -0.9875395), (-0.42528728, 0.12832394, -0.895915), (-0.7071068, 0.07101438, -0.7035318), (-0.500011, 0.08697385, -0.86164063), (-0.7071068, 0.07101438, -0.7035318), (-0.42528728, 0.12832394, -0.895915), (-0.7071068, 0.07101438, -0.7035318), (-0.42528728, 0.12832394, -0.895915), (-5.405929e-17, 0.32386473, -0.94610333), (-0.26041037, 0.312727, -0.91344863), (0.26041037, 0.312727, -0.91344863), (-4.9862027e-17, 0.52750397, -0.84955263), (-5.405929e-17, 0.32386473, -0.94610333), (-4.9862027e-17, 0.52750397, -0.84955263), (-0.26041037, 0.312727, -0.91344863), (-5.405929e-17, 0.32386473, -0.94610333), (0.26028952, 0.5093363, -0.82025975), (-4.9862027e-17, 0.52750397, -0.84955263), (0.26041037, 0.312727, -0.91344863), (-0.26041037, 0.312727, -0.91344863), (-4.9862027e-17, 0.52750397, -0.84955263), (-0.26028952, 0.5093363, -0.82025975), (0.26028952, 0.5093363, -0.82025975), (-4.6839248e-17, 0.6187149, -0.78561556), (-4.9862027e-17, 0.52750397, -0.84955263), (-4.6839248e-17, 0.6187149, -0.78561556), (-0.26028952, 0.5093363, -0.82025975), (-4.9862027e-17, 0.52750397, -0.84955263), (0.25880766, 0.5976468, -0.75883925), (-4.6839248e-17, 0.6187149, -0.78561556), (0.26028952, 0.5093363, -0.82025975), (-0.26028952, 0.5093363, -0.82025975), (-4.6839248e-17, 0.6187149, -0.78561556), (-0.25880766, 0.5976468, -0.75883925), (0.7071068, -0.07101438, 0.7035318), (0.42528728, -0.053307395, 0.90348715), (0.7071068, -0.07101438, 0.7035318), (0.42528728, -0.053307395, 0.90348715), (0.7071068, -0.07101438, 0.7035318), (0.500011, -0.08697385, 0.86164063), (0.500011, -0.08697385, 0.86164063), (5.5419635e-17, -0.043156903, 0.99906826), (0.42528728, -0.053307395, 0.90348715), (5.5419635e-17, -0.043156903, 0.99906826), (0.500011, -0.08697385, 0.86164063), (5.551115e-17, -0.10042949, 0.99494416), (5.5419635e-17, -0.043156903, 0.99906826), (5.551115e-17, -0.10042949, 0.99494416), (-0.500011, -0.08697385, 0.86164063), (5.405929e-17, 0.1282591, 0.99174064), (0.42528728, -0.053307395, 0.90348715), (5.5419635e-17, -0.043156903, 0.99906826), (0.42528728, -0.053307395, 0.90348715), (5.405929e-17, 0.1282591, 0.99174064), (0.26041037, 0.12387188, 0.9575188), (5.5419635e-17, -0.043156903, 0.99906826), (-0.500011, -0.08697385, 0.86164063), (-0.42528728, -0.053307395, 0.90348715), (5.5419635e-17, -0.043156903, 0.99906826), (-0.42528728, -0.053307395, 0.90348715), (5.405929e-17, 0.1282591, 0.99174064), (-0.42528728, -0.053307395, 0.90348715), (-0.500011, -0.08697385, 0.86164063), (-0.7071068, -0.07101438, 0.7035318), (-0.42528728, -0.053307395, 0.90348715), (-0.7071068, -0.07101438, 0.7035318), (-0.7071068, -0.07101438, 0.7035318), (5.405929e-17, 0.1282591, 0.99174064), (-0.42528728, -0.053307395, 0.90348715), (-0.26041037, 0.12387188, 0.9575188), (4.9862027e-17, 0.34708554, 0.93783355), (0.26041037, 0.12387188, 0.9575188), (5.405929e-17, 0.1282591, 0.99174064), (5.405929e-17, 0.1282591, 0.99174064), (-0.26041037, 0.12387188, 0.9575188), (4.9862027e-17, 0.34708554, 0.93783355), (0.26041037, 0.12387188, 0.9575188), (4.9862027e-17, 0.34708554, 0.93783355), (0.26028952, 0.3351383, 0.9055009), (4.9862027e-17, 0.34708554, 0.93783355), (-0.26041037, 0.12387188, 0.9575188), (-0.26028952, 0.3351383, 0.9055009), (4.6839248e-17, 0.44923398, 0.89341414), (0.26028952, 0.3351383, 0.9055009), (4.9862027e-17, 0.34708554, 0.93783355), (4.9862027e-17, 0.34708554, 0.93783355), (-0.26028952, 0.3351383, 0.9055009), (4.6839248e-17, 0.44923398, 0.89341414), (0.26028952, 0.3351383, 0.9055009), (4.6839248e-17, 0.44923398, 0.89341414), (0.25880766, 0.43394187, 0.86296767), (4.6839248e-17, 0.44923398, 0.89341414), (-0.26028952, 0.3351383, 0.9055009), (-0.25880766, 0.43394187, 0.86296767), (0.26031208, 0.9054799, -0.3351774), (-2.9794675e-17, 0.89339006, -0.44928193), (0.25880766, 0.86296767, -0.43394187), (-2.9794675e-17, 0.89339006, -0.44928193), (-0.26031208, 0.9054799, -0.3351774), (-0.25880766, 0.86296767, -0.43394187), (-2.9794675e-17, 0.89339006, -0.44928193), (0.26031208, 0.9054799, -0.3351774), (-2.4402564e-17, 0.93780243, -0.34716973), (-2.4402564e-17, 0.93780243, -0.34716973), (-0.26031208, 0.9054799, -0.3351774), (-2.9794675e-17, 0.89339006, -0.44928193), (0.26041037, 0.9575188, -0.12387188), (-2.4402564e-17, 0.93780243, -0.34716973), (0.26031208, 0.9054799, -0.3351774), (-2.4402564e-17, 0.93780243, -0.34716973), (-0.26041037, 0.9575188, -0.12387188), (-0.26031208, 0.9054799, -0.3351774), (-2.4402564e-17, 0.93780243, -0.34716973), (0.26041037, 0.9575188, -0.12387188), (-1.2612724e-17, 0.99174064, -0.1282591), (-1.2612724e-17, 0.99174064, -0.1282591), (-0.26041037, 0.9575188, -0.12387188), (-2.4402564e-17, 0.93780243, -0.34716973), (0.25920838, 0.96492016, 0.041715562), (-1.2612724e-17, 0.99174064, -0.1282591), (0.26041037, 0.9575188, -0.12387188), (-1.2612724e-17, 0.99174064, -0.1282591), (-0.25920838, 0.96492016, 0.041715562), (-0.26041037, 0.9575188, -0.12387188), (-3.1861852e-18, 0.99906826, 0.043156903), (-0.25920838, 0.96492016, 0.041715562), (-1.2612724e-17, 0.99174064, -0.1282591), (-1.2612724e-17, 0.99174064, -0.1282591), (0.25920838, 0.96492016, 0.041715562), (-3.1861852e-18, 0.99906826, 0.043156903), (-3.1861852e-18, 0.99906826, 0.043156903), (-0.25920838, 0.9537922, 0.15195893), (-0.25920838, 0.96492016, 0.041715562), (0.25920838, 0.96492016, 0.041715562), (3.1861852e-18, 0.9875395, 0.15737094), (-3.1861852e-18, 0.99906826, 0.043156903), (-0.25920838, 0.9537922, 0.15195893), (-3.1861852e-18, 0.99906826, 0.043156903), (3.1861852e-18, 0.9875395, 0.15737094), (3.1861852e-18, 0.9875395, 0.15737094), (0.25920838, 0.96492016, 0.041715562), (0.25920838, 0.9537922, 0.15195893), (1.2612724e-17, 0.94610333, 0.32386473), (-0.25920838, 0.9537922, 0.15195893), (3.1861852e-18, 0.9875395, 0.15737094), (0.25920838, 0.9537922, 0.15195893), (1.2612724e-17, 0.94610333, 0.32386473), (3.1861852e-18, 0.9875395, 0.15737094), (-0.25920838, 0.9537922, 0.15195893), (1.2612724e-17, 0.94610333, 0.32386473), (-0.26041037, 0.91344863, 0.312727), (0.26041037, 0.91344863, 0.312727), (1.2612724e-17, 0.94610333, 0.32386473), (0.25920838, 0.9537922, 0.15195893), (2.4402564e-17, 0.8495053, 0.52758026), (-0.26041037, 0.91344863, 0.312727), (1.2612724e-17, 0.94610333, 0.32386473), (0.26041037, 0.91344863, 0.312727), (2.4402564e-17, 0.8495053, 0.52758026), (1.2612724e-17, 0.94610333, 0.32386473), (-0.26041037, 0.91344863, 0.312727), (2.4402564e-17, 0.8495053, 0.52758026), (-0.26031208, 0.8202314, 0.5093704), (0.26031208, 0.8202314, 0.5093704), (2.4402564e-17, 0.8495053, 0.52758026), (0.26041037, 0.91344863, 0.312727), (2.9794675e-17, 0.78558236, 0.6187571), (-0.26031208, 0.8202314, 0.5093704), (2.4402564e-17, 0.8495053, 0.52758026), (0.26031208, 0.8202314, 0.5093704), (2.9794675e-17, 0.78558236, 0.6187571), (2.4402564e-17, 0.8495053, 0.52758026), (-0.26031208, 0.8202314, 0.5093704), (2.9794675e-17, 0.78558236, 0.6187571), (-0.25880766, 0.75883925, 0.5976468), (0.25880766, 0.75883925, 0.5976468), (2.9794675e-17, 0.78558236, 0.6187571), (0.26031208, 0.8202314, 0.5093704), (2.4398088e-17, -0.93783355, 0.34708554), (0.25880766, -0.86296767, 0.43394187), (2.979216e-17, -0.89341414, 0.44923398), (2.4398088e-17, -0.93783355, 0.34708554), (2.979216e-17, -0.89341414, 0.44923398), (-0.25880766, -0.86296767, 0.43394187), (0.25880766, -0.86296767, 0.43394187), (2.4398088e-17, -0.93783355, 0.34708554), (0.26028952, -0.9055009, 0.3351383), (2.4398088e-17, -0.93783355, 0.34708554), (-0.25880766, -0.86296767, 0.43394187), (-0.26028952, -0.9055009, 0.3351383), (1.2612724e-17, -0.99174064, 0.1282591), (0.26028952, -0.9055009, 0.3351383), (2.4398088e-17, -0.93783355, 0.34708554), (1.2612724e-17, -0.99174064, 0.1282591), (2.4398088e-17, -0.93783355, 0.34708554), (-0.26028952, -0.9055009, 0.3351383), (0.26028952, -0.9055009, 0.3351383), (1.2612724e-17, -0.99174064, 0.1282591), (0.26041037, -0.9575188, 0.12387188), (1.2612724e-17, -0.99174064, 0.1282591), (-0.26028952, -0.9055009, 0.3351383), (-0.26041037, -0.9575188, 0.12387188), (3.1861852e-18, -0.99906826, -0.043156903), (0.26041037, -0.9575188, 0.12387188), (1.2612724e-17, -0.99174064, 0.1282591), (3.1861852e-18, -0.99906826, -0.043156903), (1.2612724e-17, -0.99174064, 0.1282591), (-0.26041037, -0.9575188, 0.12387188), (0.26041037, -0.9575188, 0.12387188), (3.1861852e-18, -0.99906826, -0.043156903), (0.25920838, -0.96492016, -0.041715562), (3.1861852e-18, -0.99906826, -0.043156903), (-0.26041037, -0.9575188, 0.12387188), (-0.25920838, -0.96492016, -0.041715562), (0.25920838, -0.9537922, -0.15195893), (0.25920838, -0.96492016, -0.041715562), (3.1861852e-18, -0.99906826, -0.043156903), (-3.1861852e-18, -0.9875395, -0.15737094), (3.1861852e-18, -0.99906826, -0.043156903), (-0.25920838, -0.96492016, -0.041715562), (0.25920838, -0.9537922, -0.15195893), (3.1861852e-18, -0.99906826, -0.043156903), (-3.1861852e-18, -0.9875395, -0.15737094), (-3.1861852e-18, -0.9875395, -0.15737094), (-0.25920838, -0.96492016, -0.041715562), (-0.25920838, -0.9537922, -0.15195893), (0.26041037, -0.91344863, -0.312727), (0.25920838, -0.9537922, -0.15195893), (-3.1861852e-18, -0.9875395, -0.15737094), (-0.26041037, -0.91344863, -0.312727), (-3.1861852e-18, -0.9875395, -0.15737094), (-0.25920838, -0.9537922, -0.15195893), (0.26041037, -0.91344863, -0.312727), (-3.1861852e-18, -0.9875395, -0.15737094), (-1.2612724e-17, -0.94610333, -0.32386473), (-3.1861852e-18, -0.9875395, -0.15737094), (-0.26041037, -0.91344863, -0.312727), (-1.2612724e-17, -0.94610333, -0.32386473), (0.26028952, -0.82025975, -0.5093363), (0.26041037, -0.91344863, -0.312727), (-1.2612724e-17, -0.94610333, -0.32386473), (-0.26028952, -0.82025975, -0.5093363), (-1.2612724e-17, -0.94610333, -0.32386473), (-0.26041037, -0.91344863, -0.312727), (0.26028952, -0.82025975, -0.5093363), (-1.2612724e-17, -0.94610333, -0.32386473), (-2.4398088e-17, -0.84955263, -0.52750397), (-1.2612724e-17, -0.94610333, -0.32386473), (-0.26028952, -0.82025975, -0.5093363), (-2.4398088e-17, -0.84955263, -0.52750397), (0.25880766, -0.75883925, -0.5976468), (0.26028952, -0.82025975, -0.5093363), (-2.4398088e-17, -0.84955263, -0.52750397), (-0.25880766, -0.75883925, -0.5976468), (-2.4398088e-17, -0.84955263, -0.52750397), (-0.26028952, -0.82025975, -0.5093363), (0.25880766, -0.75883925, -0.5976468), (-2.4398088e-17, -0.84955263, -0.52750397), (-2.9794675e-17, -0.78558236, -0.6187571), (-2.4398088e-17, -0.84955263, -0.52750397), (-0.25880766, -0.75883925, -0.5976468), (-2.9794675e-17, -0.78558236, -0.6187571)] (
        interpolation = "faceVarying"
    )
    point3f[] points = [(0.004, -0.024946846, 0.05453125), (0.004, -0.01984901, 0.060773786), (1.0551352e-10, -0.020604061, 0.06154284), (1.05513515e-10, -0.025851283, 0.05511738), (1.0551352e-10, -0.020604061, 0.06154284), (-0.004, -0.024946846, 0.05453125), (1.05513515e-10, -0.025851283, 0.05511738), (-0.004, -0.01984901, 0.060773786), (0.004, -0.022533653, -0.049551625), (0.006928, -0.027756054, 0.03134088), (0.004, -0.03068622, 0.031214964), (0.006928, -0.019637333, -0.04909041), (0.006928, -0.0197503, 0.031686638), (0.006928, -0.011723977, -0.047829304), (0.004, -0.008827752, -0.0473671), (0.004, -0.016820233, 0.031813543), (-0.004, -0.008827752, -0.0473671), (-0.006928, -0.0197503, 0.031686638), (-0.004, -0.016820233, 0.031813543), (-0.006928, -0.011723977, -0.047829304), (-0.006928, -0.027756054, 0.03134088), (-0.006928, -0.019637333, -0.04909041), (-0.004, -0.022533653, -0.049551625), (-0.004, -0.03068622, 0.031214964), (0.004, -0.0060078166, -0.07634942), (0.004, -0.0122504495, -0.07125058), (1.0551351e-10, -0.013019406, -0.072006635), (1.0551351e-10, -0.006593945, -0.07725387), (0.004, 0.0015779155, -0.064653456), (1.0551351e-10, 0.0021650428, -0.063748926), (0.004, -0.0023072723, -0.06148161), (1.05513515e-10, -0.0015373217, -0.06072546), (1.0551351e-10, 0.0021650428, -0.063748926), (-0.004, -0.0023072723, -0.06148161), (1.05513515e-10, -0.0015373217, -0.06072546), (-0.004, 0.0015779155, -0.064653456), (1.0551351e-10, -0.013019406, -0.072006635), (-0.004, -0.0060078166, -0.07634942), (1.0551351e-10, -0.006593945, -0.07725387), (-0.004, -0.0122504495, -0.07125058), (0.006928, 0.0023121648, 0.068160765), (0.006928, 0.039742958, 0.07193902), (0.004, 0.039448902, 0.07485222), (0.004, 0.0018509576, 0.07105709), (1.0551352e-10, 0.03934124, 0.0759188), (1.0551352e-10, 0.0016816102, 0.07211745), (0.004, -0.006040574, 0.06933082), (-0.004, 0.0018509576, 0.07105709), (-0.004, 0.039448902, 0.07485222), (-0.006928, 0.0023121648, 0.068160765), (-0.006928, 0.039742958, 0.07193902), (-0.004, -0.006040574, 0.06933082), (1.0551352e-10, -0.006389788, 0.07035091), (0.004, -0.013481454, 0.06578863), (-0.004, -0.013481454, 0.06578863), (1.0551352e-10, -0.014050372, 0.06670512), (0.004, -0.01984901, 0.060773786), (-0.004, -0.01984901, 0.060773786), (1.0551352e-10, -0.020604061, 0.06154284), (0.004, -0.013481454, 0.06578863), (0.006928, -0.0050856275, 0.06654163), (0.004, -0.006040574, 0.06933082), (0.006928, -0.011927265, 0.06328606), (0.004, -0.01984901, 0.060773786), (0.006928, -0.017783545, 0.058672596), (-0.004, -0.013481454, 0.06578863), (-0.004, -0.006040574, 0.06933082), (-0.006928, -0.0050856275, 0.06654163), (-0.006928, -0.011927265, 0.06328606), (-0.004, -0.01984901, 0.060773786), (-0.006928, -0.017783545, 0.058672596), (0.006928, -0.025824344, 0.04626734), (0.006928, -0.022475274, 0.05292736), (0.004, -0.024946846, 0.05453125), (0.004, -0.028588114, 0.04729095), (0.006928, -0.027647974, 0.038913015), (0.004, -0.030570751, 0.039291393), (0.004, -0.015511905, 0.042450722), (0.004, -0.013251877, 0.046945415), (0.006928, -0.015723351, 0.048548315), (0.006928, -0.01827558, 0.043473333), (0.004, -0.016739156, 0.03750245), (0.006928, -0.01966183, 0.037879836), (-0.004, -0.015511905, 0.042450722), (-0.006928, -0.015723351, 0.048548315), (-0.004, -0.013251877, 0.046945415), (-0.006928, -0.01827558, 0.043473333), (-0.004, -0.016739156, 0.03750245), (-0.006928, -0.01966183, 0.037879836), (-0.006928, -0.025824344, 0.04626734), (-0.004, -0.024946846, 0.05453125), (-0.006928, -0.022475274, 0.05292736), (-0.004, -0.028588114, 0.04729095), (-0.006928, -0.027647974, 0.038913015), (-0.004, -0.030570751, 0.039291393), (0.004, -0.017265193, -0.06488403), (0.006928, -0.018018192, -0.056488205), (0.004, -0.020806395, -0.057443053), (0.006928, -0.014761634, -0.06332974), (0.004, -0.0122504495, -0.07125058), (0.006928, -0.010149161, -0.06918612), (0.006928, -0.007923508, -0.05908352), (0.004, -0.007611421, -0.052925047), (0.006928, -0.010399621, -0.053879883), (0.004, -0.005419946, -0.057529233), (0.006928, -0.004408563, -0.063546084), (0.004, -0.0023072723, -0.06148161), (0.004, 0.0015779155, -0.064653456), (0.006928, -0.00002497785, -0.067124926), (0.004, 0.0060727154, -0.06691448), (0.006928, 0.005049999, -0.06967716), (0.004, 0.011020884, -0.06814074), (0.006928, 0.010643601, -0.07106441), (0.006928, 0.016836796, -0.07115288), (0.004, 0.016710784, -0.06822171), (-0.004, -0.007611421, -0.052925047), (-0.006928, -0.007923508, -0.05908352), (-0.006928, -0.010399621, -0.053879883), (-0.004, -0.005419946, -0.057529233), (-0.006928, -0.004408563, -0.063546084), (-0.004, -0.0023072723, -0.06148161), (-0.006928, -0.018018192, -0.056488205), (-0.004, -0.017265193, -0.06488403), (-0.004, -0.020806395, -0.057443053), (-0.006928, -0.014761634, -0.06332974), (-0.004, -0.0122504495, -0.07125058), (-0.006928, -0.010149161, -0.06918612), (0.006928, 0.0022560903, -0.077226914), (0.006928, -0.004403926, -0.07387785), (0.004, -0.0060078166, -0.07634942), (0.004, 0.0012334753, -0.0799906), (0.006928, 0.00961042, -0.07905054), (0.004, 0.0092320405, -0.08197333), (0.004, 0.017309466, -0.0820887), (0.006928, 0.017182559, -0.079158634), (-0.006928, 0.0022560903, -0.077226914), (-0.004, -0.0060078166, -0.07634942), (-0.006928, -0.004403926, -0.07387785), (-0.004, 0.0012334753, -0.0799906), (-0.006928, 0.00961042, -0.07905054), (-0.004, 0.0092320405, -0.08197333), (-0.004, 0.017309466, -0.0820887), (-0.006928, 0.017182559, -0.079158634), (0.006928, 0.017182559, -0.079158634), (0.004, 0.03273707, -0.08053144), (0.006928, 0.03244301, -0.07761824), (0.004, 0.017309466, -0.0820887), (1.0551351e-10, 0.03284473, -0.08159801), (1.0551351e-10, 0.01735544, -0.0831615), (0.004, 0.0092320405, -0.08197333), (-0.004, 0.017309466, -0.0820887), (-0.004, 0.03273707, -0.08053144), (-0.006928, 0.017182559, -0.079158634), (-0.006928, 0.03244301, -0.07761824), (-0.004, 0.0092320405, -0.08197333), (1.0551351e-10, 0.0090938285, -0.08304361), (0.004, 0.0012334753, -0.0799906), (-0.004, 0.0012334753, -0.0799906), (1.0551351e-10, 0.0008590885, -0.081001304), (0.004, -0.0060078166, -0.07634942), (-0.004, -0.0060078166, -0.07634942), (1.0551351e-10, -0.006593945, -0.07725387), (0.006928, -0.0050856275, 0.06654163), (0.004, 0.0018509576, 0.07105709), (0.004, -0.006040574, 0.06933082), (0.006928, 0.0023121648, 0.068160765), (0.008, -0.003781471, 0.06273234), (0.006928, -0.011927265, 0.06328606), (0.008, 0.0029427195, 0.06420409), (0.006928, 0.039742958, 0.07193902), (0.008, 0.04014468, 0.06795925), (0.008, -0.009804053, 0.059866004), (0.006928, 0.003573274, 0.06024741), (0.006928, 0.040546395, 0.06397947), (0.006928, -0.002477311, 0.05892306), (0.006928, -0.017783545, 0.058672596), (0.004, -0.001523462, 0.056134753), (0.004, 0.004035479, 0.057351187), (0.006928, -0.007680945, 0.05644694), (0.004, -0.0061266553, 0.053943377), (0.008, -0.014964023, 0.055802245), (0.006928, -0.012143503, 0.052931998), (0.004, -0.0100790365, 0.050830707), (0.006928, -0.015723351, 0.048548315), (0.004, -0.013251877, 0.046945415), (0.008, -0.019099364, 0.050738335), (0.006928, -0.01827558, 0.043473333), (0.006928, -0.022475274, 0.05292736), (0.004, -0.01984901, 0.060773786), (0.004, -0.024946846, 0.05453125), (0.008, -0.022049962, 0.04487034), (0.006928, -0.025824344, 0.04626734), (0.006928, -0.01966183, 0.037879836), (0.008, -0.023654902, 0.038396426), (0.006928, -0.027647974, 0.038913015), (0.004, -0.03068622, 0.031214964), (0.004, -0.030570751, 0.039291393), (0.006928, -0.027756054, 0.03134088), (0.008, -0.023753177, 0.031513758), (0.006928, -0.0197503, 0.031686638), (0.004, -0.016739156, 0.03750245), (0.004, -0.016820233, 0.031813543), (0.006928, -0.011723977, -0.047829304), (0.008, -0.015680656, -0.048459858), (0.006928, -0.019637333, -0.04909041), (0.004, -0.007611421, -0.052925047), (0.004, -0.008827752, -0.0473671), (0.006928, -0.010399621, -0.053879883), (0.008, -0.014208905, -0.055184048), (0.006928, -0.018018192, -0.056488205), (0.004, -0.022533653, -0.049551625), (0.004, -0.020806395, -0.057443053), (0.006928, -0.014761634, -0.06332974), (0.008, -0.011342571, -0.06120663), (0.006928, -0.007923508, -0.05908352), (0.006928, -0.010149161, -0.06918612), (0.008, -0.0072789122, -0.06636561), (0.006928, -0.004408563, -0.063546084), (0.006928, -0.00002497785, -0.067124926), (0.004, -0.0060078166, -0.07634942), (0.004, -0.0122504495, -0.07125058), (0.006928, -0.004403926, -0.07387785), (0.008, -0.0022149005, -0.07050194), (0.006928, 0.005049999, -0.06967716), (0.008, 0.0036530974, -0.07345254), (0.006928, 0.0022560903, -0.077226914), (0.006928, 0.010643601, -0.07106441), (0.008, 0.010127009, -0.07505747), (0.006928, 0.00961042, -0.07905054), (0.006928, 0.017182559, -0.079158634), (0.008, 0.017009677, -0.07515575), (0.006928, 0.03244301, -0.07761824), (0.006928, 0.016836796, -0.07115288), (0.008, 0.032041293, -0.07363846), (0.006928, 0.031639576, -0.06965869), (-0.004, 0.0018509576, 0.07105709), (-0.006928, -0.0050856275, 0.06654163), (-0.004, -0.006040574, 0.06933082), (-0.006928, 0.0023121648, 0.068160765), (-0.008, -0.003781471, 0.06273234), (-0.006928, -0.011927265, 0.06328606), (-0.008, 0.0029427195, 0.06420409), (-0.006928, 0.039742958, 0.07193902), (-0.008, 0.04014468, 0.06795925), (-0.008, -0.009804053, 0.059866004), (-0.006928, 0.003573274, 0.06024741), (-0.006928, 0.040546395, 0.06397947), (-0.006928, -0.002477311, 0.05892306), (-0.006928, -0.017783545, 0.058672596), (-0.004, -0.001523462, 0.056134753), (-0.004, 0.004035479, 0.057351187), (-0.006928, -0.007680945, 0.05644694), (-0.004, -0.0061266553, 0.053943377), (-0.008, -0.014964023, 0.055802245), (-0.006928, -0.012143503, 0.052931998), (-0.004, -0.0100790365, 0.050830707), (-0.004, -0.024946846, 0.05453125), (-0.004, -0.01984901, 0.060773786), (-0.006928, -0.022475274, 0.05292736), (-0.006928, -0.015723351, 0.048548315), (-0.004, -0.013251877, 0.046945415), (-0.008, -0.019099364, 0.050738335), (-0.006928, -0.01827558, 0.043473333), (-0.008, -0.022049962, 0.04487034), (-0.006928, -0.025824344, 0.04626734), (-0.006928, -0.01966183, 0.037879836), (-0.008, -0.023654902, 0.038396426), (-0.006928, -0.027647974, 0.038913015), (-0.004, -0.03068622, 0.031214964), (-0.004, -0.030570751, 0.039291393), (-0.006928, -0.027756054, 0.03134088), (-0.008, -0.023753177, 0.031513758), (-0.006928, -0.019637333, -0.04909041), (-0.006928, -0.0197503, 0.031686638), (-0.004, -0.016739156, 0.03750245), (-0.004, -0.016820233, 0.031813543), (-0.008, -0.015680656, -0.048459858), (-0.006928, -0.011723977, -0.047829304), (-0.004, -0.007611421, -0.052925047), (-0.004, -0.008827752, -0.0473671), (-0.006928, -0.010399621, -0.053879883), (-0.008, -0.014208905, -0.055184048), (-0.006928, -0.018018192, -0.056488205), (-0.004, -0.022533653, -0.049551625), (-0.004, -0.020806395, -0.057443053), (-0.006928, -0.014761634, -0.06332974), (-0.008, -0.011342571, -0.06120663), (-0.006928, -0.007923508, -0.05908352), (-0.006928, -0.010149161, -0.06918612), (-0.008, -0.0072789122, -0.06636561), (-0.006928, -0.004408563, -0.063546084), (-0.004, -0.0060078166, -0.07634942), (-0.004, -0.0122504495, -0.07125058), (-0.006928, -0.004403926, -0.07387785), (-0.008, -0.0022149005, -0.07050194), (-0.006928, -0.00002497785, -0.067124926), (-0.006928, 0.005049999, -0.06967716), (-0.008, 0.0036530974, -0.07345254), (-0.006928, 0.0022560903, -0.077226914), (-0.006928, 0.010643601, -0.07106441), (-0.008, 0.010127009, -0.07505747), (-0.006928, 0.00961042, -0.07905054), (-0.006928, 0.017182559, -0.079158634), (-0.008, 0.017009677, -0.07515575), (-0.006928, 0.03244301, -0.07761824), (-0.006928, 0.016836796, -0.07115288), (-0.008, 0.032041293, -0.07363846), (-0.006928, 0.031639576, -0.06965869), (0.004, -0.013251877, 0.046945415), (1.05513515e-10, -0.009322987, 0.050061747), (0.004, -0.0100790365, 0.050830707), (1.05513515e-10, -0.012346347, 0.04635839), (-0.004, -0.013251877, 0.046945415), (-0.004, -0.0100790365, 0.050830707), (-0.006928, -0.00002497785, -0.067124926), (-0.006928, -0.004408563, -0.063546084), (-0.004, -0.0023072723, -0.06148161), (-0.004, 0.0015779155, -0.064653456), (-0.004, 0.0060727154, -0.06691448), (-0.006928, 0.005049999, -0.06967716), (-0.004, 0.011020884, -0.06814074), (-0.006928, 0.010643601, -0.07106441), (-0.006928, 0.016836796, -0.07115288), (-0.004, 0.016710784, -0.06822171), (0.006928, 0.040546395, 0.06397947), (0.006928, 0.003573274, 0.06024741), (0.004, 0.004035479, 0.057351187), (0.004, 0.04084045, 0.061066274), (1.05513515e-10, 0.0042038285, 0.05629073), (1.05513515e-10, 0.04094811, 0.059999693), (-0.004, 0.04084045, 0.061066274), (1.05513515e-10, -0.001173155, 0.055113774), (0.004, -0.001523462, 0.056134753), (-0.004, 0.004035479, 0.057351187), (-0.006928, 0.040546395, 0.06397947), (-0.006928, 0.003573274, 0.06024741), (-0.004, -0.001523462, 0.056134753), (1.05513515e-10, -0.0055577373, 0.05302688), (0.004, -0.0061266553, 0.053943377), (-0.004, -0.0061266553, 0.053943377), (1.05513515e-10, -0.009322987, 0.050061747), (0.004, -0.0100790365, 0.050830707), (-0.004, -0.0100790365, 0.050830707), (0.006928, 0.031639576, -0.06965869), (0.004, 0.016710784, -0.06822171), (0.006928, 0.016836796, -0.07115288), (0.004, 0.031345416, -0.0667445), (1.0551351e-10, 0.016663915, -0.06715), (1.0551351e-10, 0.031237856, -0.0656789), (-0.004, 0.031345416, -0.0667445), (1.0551351e-10, 0.011160189, -0.06707134), (0.004, 0.011020884, -0.06814074), (-0.004, 0.016710784, -0.06822171), (-0.006928, 0.031639576, -0.06965869), (-0.006928, 0.016836796, -0.07115288), (-0.004, 0.011020884, -0.06814074), (1.0551351e-10, 0.0064470023, -0.065902784), (0.004, 0.0060727154, -0.06691448), (-0.004, 0.0060727154, -0.06691448), (1.0551351e-10, 0.0021650428, -0.063748926), (0.004, 0.0015779155, -0.064653456), (-0.004, 0.0015779155, -0.064653456), (0.004, -0.015511905, 0.042450722), (1.05513515e-10, -0.012346347, 0.04635839), (0.004, -0.013251877, 0.046945415), (-0.004, -0.015511905, 0.042450722), (-0.004, -0.013251877, 0.046945415), (1.05513515e-10, -0.0145002, 0.04207643), (0.004, -0.016739156, 0.03750245), (-0.004, -0.016739156, 0.03750245), (1.05513515e-10, -0.015668763, 0.037363242), (0.004, -0.016820233, 0.031813543), (-0.004, -0.016820233, 0.031813543), (1.05513515e-10, -0.015747426, 0.031859517), (-0.004, -0.008827752, -0.0473671), (1.05513515e-10, -0.007767298, -0.04719875), (0.004, -0.008827752, -0.0473671), (1.05513515e-10, -0.0065903394, -0.05257573), (-0.004, -0.007611421, -0.052925047), (0.004, -0.007611421, -0.052925047), (1.05513515e-10, -0.004503549, -0.056959312), (-0.004, -0.005419946, -0.057529233), (0.004, -0.005419946, -0.057529233), (1.05513515e-10, -0.0015373217, -0.06072546), (-0.004, -0.0023072723, -0.06148161), (0.004, -0.0023072723, -0.06148161), (1.05513515e-10, -0.02959982, 0.047665242), (0.004, -0.024946846, 0.05453125), (1.05513515e-10, -0.025851283, 0.05511738), (-0.004, -0.024946846, 0.05453125), (0.004, -0.028588114, 0.04729095), (-0.004, -0.028588114, 0.04729095), (1.05513515e-10, -0.031641044, 0.039429605), (0.004, -0.030570751, 0.039291393), (-0.004, -0.030570751, 0.039291393), (1.05513515e-10, -0.03175893, 0.031167995), (0.004, -0.03068622, 0.031214964), (-0.004, -0.03068622, 0.031214964), (0.004, -0.022533653, -0.049551625), (1.05513515e-10, -0.023594012, -0.04972097), (-0.004, -0.022533653, -0.049551625), (0.004, -0.020806395, -0.057443053), (-0.004, -0.020806395, -0.057443053), (1.05513515e-10, -0.021827476, -0.05779236), (0.004, -0.017265193, -0.06488403), (-0.004, -0.017265193, -0.06488403), (1.0551351e-10, -0.01818169, -0.065452956), (0.004, -0.0122504495, -0.07125058), (-0.004, -0.0122504495, -0.07125058), (1.0551351e-10, -0.013019406, -0.072006635)]
}

