#usda 1.0
(
    defaultPrim = "SM_Kitchen_Base_Board_02_1_005_1_0_1_0"
    upAxis = "Z"
)

def Mesh "SM_Kitchen_Base_Board_02_1_005_1_0_1_0"
{
    int[] faceVertexCounts = [3, 3, 3, 3, 3, 3, 3, 3, 3, 3, 3, 3, 3, 3, 3, 3, 3, 3, 3, 3, 3, 3, 3, 3, 3, 3, 3, 3, 3, 3, 3, 3, 3, 3, 3, 3, 3, 3, 3, 3, 3, 3, 3, 3, 3, 3, 3, 3, 3, 3, 3, 3, 3, 3, 3, 3, 3, 3, 3, 3, 3, 3, 3, 3, 3, 3, 3, 3, 3, 3, 3, 3, 3, 3, 3, 3, 3, 3, 3, 3, 3, 3, 3, 3, 3, 3, 3, 3, 3, 3, 3, 3, 3, 3, 3, 3, 3, 3, 3, 3, 3, 3, 3, 3, 3, 3, 3, 3, 3, 3, 3, 3, 3, 3, 3, 3, 3, 3, 3, 3, 3, 3, 3, 3, 3, 3, 3, 3, 3, 3, 3, 3, 3, 3, 3, 3, 3, 3, 3, 3, 3, 3, 3, 3, 3, 3, 3, 3, 3, 3, 3, 3, 3, 3, 3, 3, 3, 3, 3, 3, 3, 3, 3, 3, 3, 3, 3, 3, 3, 3, 3, 3, 3, 3, 3, 3, 3, 3, 3, 3, 3, 3, 3, 3, 3, 3, 3, 3, 3, 3, 3, 3, 3, 3, 3, 3, 3, 3, 3, 3, 3, 3, 3, 3, 3, 3, 3, 3, 3, 3, 3, 3, 3, 3, 3, 3, 3, 3, 3, 3, 3, 3, 3, 3, 3, 3, 3, 3, 3, 3, 3, 3, 3, 3, 3, 3, 3, 3, 3, 3, 3, 3, 3, 3, 3, 3, 3, 3, 3, 3, 3, 3, 3, 3, 3, 3, 3, 3, 3, 3, 3, 3, 3, 3, 3, 3, 3, 3, 3, 3, 3, 3, 3, 3, 3, 3, 3, 3, 3, 3, 3, 3, 3, 3, 3, 3, 3, 3, 3, 3, 3, 3, 3, 3, 3, 3, 3, 3, 3, 3, 3, 3, 3, 3, 3, 3, 3, 3, 3, 3, 3, 3, 3, 3, 3, 3, 3, 3, 3, 3, 3, 3, 3, 3, 3, 3, 3, 3, 3, 3, 3, 3, 3, 3, 3, 3, 3, 3, 3, 3, 3, 3, 3, 3, 3, 3, 3, 3, 3, 3, 3, 3, 3, 3, 3, 3, 3, 3, 3, 3, 3, 3, 3, 3, 3, 3, 3, 3, 3, 3, 3, 3, 3, 3, 3, 3, 3, 3, 3, 3, 3, 3, 3, 3, 3, 3, 3, 3, 3, 3, 3, 3, 3, 3, 3, 3, 3, 3, 3, 3, 3, 3, 3, 3, 3, 3, 3, 3, 3, 3, 3, 3, 3, 3, 3, 3, 3, 3, 3, 3, 3, 3, 3, 3, 3, 3, 3, 3, 3, 3, 3, 3, 3, 3, 3, 3, 3, 3, 3, 3, 3, 3, 3, 3]
    int[] faceVertexIndices = [0, 1, 2, 1, 0, 3, 4, 5, 3, 5, 4, 6, 5, 7, 8, 8, 7, 9, 10, 11, 12, 11, 10, 13, 14, 15, 13, 13, 16, 14, 17, 18, 19, 18, 15, 19, 20, 21, 22, 21, 20, 23, 24, 25, 23, 25, 24, 26, 27, 24, 28, 27, 28, 29, 30, 31, 32, 31, 30, 33, 34, 32, 35, 35, 32, 36, 37, 36, 38, 37, 38, 39, 40, 41, 42, 41, 40, 43, 44, 45, 46, 45, 44, 42, 47, 48, 49, 47, 49, 45, 50, 51, 52, 51, 50, 53, 54, 55, 53, 53, 55, 56, 57, 58, 59, 59, 58, 54, 60, 61, 62, 61, 60, 63, 64, 65, 63, 65, 64, 66, 67, 68, 65, 68, 67, 69, 70, 71, 72, 71, 70, 73, 73, 74, 75, 75, 74, 76, 77, 78, 71, 78, 77, 79, 80, 78, 79, 80, 79, 81, 8, 3, 5, 3, 8, 1, 82, 1, 8, 82, 2, 1, 82, 8, 9, 2, 82, 83, 84, 2, 83, 9, 85, 86, 86, 87, 83, 87, 9, 88, 7, 88, 9, 88, 7, 89, 89, 90, 88, 88, 90, 91, 88, 91, 87, 90, 27, 91, 91, 27, 29, 87, 91, 92, 29, 92, 91, 87, 92, 93, 94, 87, 95, 92, 29, 96, 96, 29, 28, 95, 92, 97, 96, 28, 20, 24, 20, 28, 24, 23, 20, 96, 20, 22, 92, 96, 98, 22, 98, 96, 97, 92, 98, 98, 22, 99, 99, 22, 21, 99, 21, 100, 101, 97, 98, 101, 95, 97, 102, 98, 99, 101, 98, 102, 103, 99, 100, 102, 99, 103, 103, 100, 104, 60, 103, 104, 103, 60, 62, 62, 102, 103, 95, 101, 105, 95, 105, 106, 102, 62, 107, 107, 62, 61, 108, 101, 102, 108, 102, 107, 108, 105, 101, 65, 61, 63, 61, 65, 68, 107, 61, 68, 107, 68, 69, 108, 107, 69, 109, 108, 69, 109, 69, 67, 67, 110, 109, 109, 111, 108, 105, 108, 111, 110, 112, 109, 111, 109, 112, 112, 110, 113, 114, 112, 115, 48, 112, 116, 48, 111, 112, 48, 117, 118, 119, 48, 47, 120, 121, 122, 123, 120, 124, 123, 106, 125, 126, 84, 106, 124, 47, 41, 45, 41, 47, 41, 45, 42, 124, 41, 43, 43, 126, 124, 84, 126, 127, 43, 127, 126, 127, 128, 84, 40, 127, 43, 128, 127, 129, 40, 129, 127, 18, 13, 15, 13, 18, 11, 130, 11, 18, 130, 18, 17, 130, 12, 11, 17, 131, 130, 131, 17, 132, 12, 130, 133, 134, 130, 131, 130, 134, 133, 135, 12, 133, 135, 10, 12, 10, 135, 136, 133, 137, 135, 138, 135, 137, 52, 138, 137, 133, 139, 137, 139, 133, 134, 52, 137, 140, 139, 140, 137, 140, 50, 52, 139, 134, 141, 131, 141, 134, 140, 59, 50, 59, 53, 50, 53, 59, 54, 140, 57, 59, 142, 57, 140, 140, 139, 142, 57, 142, 143, 144, 142, 139, 139, 141, 144, 145, 143, 142, 142, 144, 145, 143, 145, 146, 147, 145, 144, 144, 141, 147, 148, 146, 145, 145, 147, 148, 146, 148, 44, 148, 42, 44, 42, 148, 40, 148, 129, 40, 148, 147, 129, 149, 129, 147, 149, 147, 141, 129, 149, 128, 150, 149, 141, 141, 131, 150, 132, 150, 131, 149, 151, 128, 149, 150, 151, 150, 132, 152, 152, 151, 150, 153, 152, 132, 152, 153, 154, 154, 4, 152, 4, 154, 6, 151, 152, 4, 3, 151, 4, 151, 3, 0, 151, 0, 128, 128, 0, 84, 2, 84, 0, 19, 132, 17, 132, 19, 153, 155, 153, 19, 19, 15, 155, 15, 14, 155, 156, 14, 157, 14, 158, 159, 160, 161, 155, 162, 161, 158, 153, 155, 163, 163, 154, 153, 162, 34, 35, 154, 163, 164, 164, 6, 154, 35, 165, 162, 161, 162, 165, 6, 164, 166, 6, 166, 5, 5, 166, 167, 166, 168, 169, 164, 170, 166, 171, 166, 170, 170, 164, 172, 164, 163, 172, 170, 173, 171, 171, 173, 90, 172, 174, 170, 170, 174, 173, 175, 172, 176, 174, 172, 177, 178, 155, 179, 180, 90, 181, 90, 182, 27, 182, 24, 27, 24, 182, 26, 183, 184, 185, 184, 26, 185, 186, 174, 184, 26, 184, 187, 188, 184, 174, 179, 188, 174, 189, 187, 184, 184, 188, 189, 187, 189, 190, 190, 191, 187, 191, 190, 192, 192, 37, 39, 37, 192, 190, 193, 190, 189, 190, 193, 37, 188, 193, 189, 193, 36, 37, 193, 35, 36, 165, 35, 193, 193, 188, 194, 194, 165, 195, 179, 196, 188, 197, 165, 196, 196, 179, 197, 165, 197, 161, 155, 197, 179, 155, 161, 197, 32, 38, 36, 38, 32, 31, 198, 38, 31, 198, 39, 38, 198, 31, 33, 199, 39, 198, 39, 199, 192, 198, 33, 200, 200, 33, 201, 198, 202, 199, 202, 198, 200, 203, 192, 199, 192, 203, 191, 204, 199, 202, 199, 204, 203, 205, 202, 200, 202, 205, 204, 206, 200, 201, 205, 200, 206, 206, 201, 81, 79, 206, 81, 206, 79, 207, 207, 205, 206, 207, 79, 77, 207, 77, 75, 71, 75, 77, 75, 71, 73, 207, 75, 76, 76, 208, 207, 205, 207, 208, 208, 76, 209, 208, 210, 205, 210, 204, 205, 209, 211, 208, 210, 208, 211, 211, 209, 212, 213, 204, 210, 211, 213, 210, 212, 214, 211, 213, 211, 214, 214, 212, 64, 63, 214, 64, 214, 63, 60, 104, 214, 60, 214, 104, 213, 104, 215, 213, 213, 215, 204, 215, 104, 100, 215, 203, 204, 100, 216, 215, 203, 215, 216, 21, 216, 100, 23, 216, 21, 216, 191, 203, 216, 23, 25, 191, 216, 25, 25, 187, 191, 187, 25, 26, 55, 217, 218, 219, 55, 220, 220, 221, 219, 221, 70, 72, 222, 220, 223, 54, 222, 223, 221, 224, 225, 225, 70, 221, 58, 222, 54, 226, 225, 224, 224, 222, 226, 143, 58, 57, 58, 143, 227, 227, 222, 58, 146, 227, 143, 222, 227, 228, 227, 146, 229, 229, 228, 227, 44, 229, 146, 229, 44, 46, 222, 228, 230, 222, 230, 226, 231, 229, 232, 46, 232, 229, 232, 233, 234, 232, 46, 235, 46, 45, 235, 45, 116, 235, 235, 116, 236, 237, 232, 235, 235, 236, 237, 238, 232, 239, 232, 237, 239, 238, 240, 226, 225, 226, 240, 239, 241, 238, 240, 238, 241, 225, 240, 242, 241, 242, 243, 225, 244, 70, 244, 73, 70, 73, 244, 74, 74, 209, 76, 209, 74, 245, 244, 245, 74, 245, 212, 209, 245, 244, 246, 244, 241, 246, 212, 245, 247, 246, 247, 245, 247, 64, 212, 64, 247, 66, 248, 246, 241, 241, 239, 248, 237, 248, 239, 247, 246, 249, 246, 248, 249, 249, 66, 247, 248, 237, 250, 248, 250, 249, 236, 250, 237, 250, 236, 110, 66, 249, 251, 252, 253, 249, 254, 110, 255, 255, 65, 66, 110, 67, 255, 255, 67, 65, 201, 33, 256, 256, 81, 201, 30, 256, 33, 81, 256, 80, 257, 256, 30, 32, 257, 30, 257, 32, 34, 258, 80, 256, 257, 258, 256, 259, 260, 34, 162, 261, 34, 262, 263, 264, 265, 266, 267, 268, 269, 162, 268, 266, 269, 162, 158, 268, 270, 268, 271, 266, 272, 273, 273, 272, 80, 274, 268, 275, 13, 274, 275, 274, 13, 10, 136, 274, 10, 274, 276, 268, 276, 277, 268, 274, 136, 278, 278, 276, 274, 276, 279, 277, 280, 277, 281, 278, 282, 276, 276, 282, 281, 136, 283, 278, 278, 283, 282, 283, 136, 284, 135, 284, 136, 284, 135, 138, 52, 284, 138, 284, 52, 51, 284, 285, 283, 51, 285, 284, 285, 282, 283, 53, 285, 51, 285, 53, 286, 286, 287, 285, 282, 285, 287, 287, 286, 288, 288, 221, 287, 289, 282, 287, 287, 221, 289, 282, 289, 281, 289, 221, 72, 281, 289, 290, 291, 72, 292, 281, 292, 293, 71, 292, 72, 293, 292, 80, 292, 71, 78, 292, 78, 80]
    normal3f[] normals = [(-0.5277763, 0.84757066, -0.055462487), (-0.8555365, 0.4855478, -0.17972374), (-0.9268413, 0.3751646, -0.014720117), (-0.8555365, 0.4855478, -0.17972374), (-0.5277763, 0.84757066, -0.055462487), (-0.43105042, 0.82477933, -0.36597076), (-0.096086085, 0.84069943, -0.53290886), (-0.3643323, 0.41512817, -0.8336249), (-0.43105042, 0.82477933, -0.36597076), (-0.3643323, 0.41512817, -0.8336249), (-0.096086085, 0.84069943, -0.53290886), (-0.07540194, 0.38850632, -0.91835576), (-0.3643323, 0.41512817, -0.8336249), (-0.70520633, 0.052973807, -0.70702034), (-0.83470315, 0.24590163, -0.4927505), (-0.83470315, 0.24590163, -0.4927505), (-0.70520633, 0.052973807, -0.70702034), (-0.92491424, 0.020476859, -0.37962413), (0.84745485, 0.527664, -0.058233146), (0.48539138, 0.855002, -0.18266559), (0.3752689, 0.926759, -0.01705887), (0.48539138, 0.855002, -0.18266559), (0.84745485, 0.527664, -0.058233146), (0.81138533, 0.3961458, -0.42979336), (0.6068228, 0.11540593, -0.7864143), (0.34612653, 0.3947783, -0.8510855), (0.81138533, 0.3961458, -0.42979336), (0.81138533, 0.3961458, -0.42979336), (0.6905574, 0.19970007, -0.69516206), (0.6068228, 0.11540593, -0.7864143), (0.02161103, 0.9238179, -0.382222), (0.24613555, 0.8337775, -0.49419883), (0.07026617, 0.523192, -0.8493131), (0.24613555, 0.8337775, -0.49419883), (0.34612653, 0.3947783, -0.8510855), (0.07026617, 0.523192, -0.8493131), (-0.83513206, -0.4920327, -0.24588299), (-0.527852, -0.8475194, -0.055525742), (-0.92681086, -0.37523985, -0.014718794), (-0.527852, -0.8475194, -0.055525742), (-0.83513206, -0.4920327, -0.24588299), (-0.39615712, -0.8496513, -0.3480695), (-0.39573032, -0.42523578, -0.8139852), (-0.09616647, -0.84064263, -0.53298384), (-0.39615712, -0.8496513, -0.3480695), (-0.09616647, -0.84064263, -0.53298384), (-0.39573032, -0.42523578, -0.8139852), (-0.07540849, -0.3885376, -0.91834205), (-0.524191, -0.06761431, -0.84891236), (-0.39573032, -0.42523578, -0.8139852), (-0.85504735, -0.18018566, -0.48623776), (-0.524191, -0.06761431, -0.84891236), (-0.85504735, -0.18018566, -0.48623776), (-0.9249141, -0.020500088, -0.379623), (0.8781059, -0.4727938, -0.073457606), (0.48541802, -0.8549908, -0.1826471), (0.8114311, -0.39606985, -0.42977712), (0.48541802, -0.8549908, -0.1826471), (0.8781059, -0.4727938, -0.073457606), (0.44717625, -0.89433557, -0.014048314), (0.9167616, -0.072538085, -0.39279324), (0.8114311, -0.39606985, -0.42977712), (0.529498, -0.09252335, -0.8432504), (0.529498, -0.09252335, -0.8432504), (0.8114311, -0.39606985, -0.42977712), (0.34611142, -0.39480996, -0.8510769), (0.07005784, -0.5232065, -0.8493215), (0.34611142, -0.39480996, -0.8510769), (0.2460028, -0.83376366, -0.49428812), (0.07005784, -0.5232065, -0.8493215), (0.2460028, -0.83376366, -0.49428812), (0.021608671, -0.9238782, -0.38207608), (-0.52773184, 0.84759, 0.055590723), (-0.8350813, 0.49210095, 0.24591845), (-0.39622077, 0.84961265, 0.34809136), (-0.8350813, 0.49210095, 0.24591845), (-0.52773184, 0.84759, 0.055590723), (-0.92683375, 0.3751817, 0.014758134), (-0.09619885, 0.840605, 0.53303754), (-0.39572224, 0.42514667, 0.8140358), (-0.07530627, 0.3886448, 0.91830504), (-0.39572224, 0.42514667, 0.8140358), (-0.09619885, 0.840605, 0.53303754), (-0.39622077, 0.84961265, 0.34809136), (-0.8550054, 0.18021744, 0.48629963), (-0.9248808, 0.02048051, 0.3797052), (-0.69894344, 0.13978669, 0.70138276), (-0.8550054, 0.18021744, 0.48629963), (-0.69894344, 0.13978669, 0.70138276), (-0.39572224, 0.42514667, 0.8140358), (0.485363, 0.8550577, 0.18248035), (0.87809515, 0.47281948, 0.073422), (0.44711596, 0.8943655, 0.014062217), (0.87809515, 0.47281948, 0.073422), (0.485363, 0.8550577, 0.18248035), (0.8114394, 0.3960383, 0.4297905), (0.3459642, 0.39460316, 0.8512327), (0.7018293, 0.08920975, 0.7067371), (0.8114394, 0.3960383, 0.4297905), (0.8114394, 0.3960383, 0.4297905), (0.7018293, 0.08920975, 0.7067371), (0.6904713, 0.19943394, 0.6953241), (0.021520607, 0.92390734, 0.38201064), (0.07008183, 0.52310526, 0.84938174), (0.24589238, 0.8337836, 0.4943095), (0.24589238, 0.8337836, 0.4943095), (0.07008183, 0.52310526, 0.84938174), (0.3459642, 0.39460316, 0.8512327), (-0.5277937, -0.84755516, 0.055535324), (-0.83513165, -0.49202207, 0.24590515), (-0.9268212, -0.37521482, 0.014708601), (-0.83513165, -0.49202207, 0.24590515), (-0.5277937, -0.84755516, 0.055535324), (-0.39622468, -0.84961873, 0.34807205), (-0.096112646, -0.84060055, 0.53305995), (-0.3957337, -0.4251612, 0.81402266), (-0.39622468, -0.84961873, 0.34807205), (-0.3957337, -0.4251612, 0.81402266), (-0.096112646, -0.84060055, 0.53305995), (-0.075288914, -0.38873175, 0.9182696), (-0.52415, -0.06746028, 0.8489498), (-0.8550197, -0.18022972, 0.48626992), (-0.3957337, -0.4251612, 0.81402266), (-0.8550197, -0.18022972, 0.48626992), (-0.52415, -0.06746028, 0.8489498), (-0.92487997, -0.020465486, 0.37970826), (0.52945083, -0.09248859, 0.8432838), (0.81148493, -0.39601824, 0.4297229), (0.91678935, -0.07241735, 0.3927506), (0.81148493, -0.39601824, 0.4297229), (0.52945083, -0.09248859, 0.8432838), (0.345957, -0.39460716, 0.8512338), (0.345957, -0.39460716, 0.8512338), (0.070049986, -0.5231864, 0.8493344), (0.2458742, -0.83381027, 0.49427348), (0.2458742, -0.83381027, 0.49427348), (0.070049986, -0.5231864, 0.8493344), (0.02148149, -0.9238893, 0.38205653), (0.4853986, -0.85504264, 0.18245609), (0.87810117, -0.4728081, 0.07342199), (0.81148493, -0.39601824, 0.4297229), (0.87810117, -0.4728081, 0.07342199), (0.4853986, -0.85504264, 0.18245609), (0.44717833, -0.8943345, 0.01405172), (0.933329, -0.3590224, 5.246418e-7), (0.87810117, -0.4728081, 0.07342199), (0.44717833, -0.8943345, 0.01405172), (0.933329, -0.3590224, 5.246418e-7), (0.44717833, -0.8943345, 0.01405172), (0.53689975, -0.84364605, 1.4090644e-7), (-0.83470315, 0.24590163, -0.4927505), (-0.43105042, 0.82477933, -0.36597076), (-0.3643323, 0.41512817, -0.8336249), (-0.43105042, 0.82477933, -0.36597076), (-0.83470315, 0.24590163, -0.4927505), (-0.8555365, 0.4855478, -0.17972374), (-0.9851968, 0.16053553, -0.06012909), (-0.8555365, 0.4855478, -0.17972374), (-0.83470315, 0.24590163, -0.4927505), (-0.9851968, 0.16053553, -0.06012909), (-0.9268413, 0.3751646, -0.014720117), (-0.8555365, 0.4855478, -0.17972374), (-0.9851968, 0.16053553, -0.06012909), (-0.83470315, 0.24590163, -0.4927505), (-0.92491424, 0.020476859, -0.37962413), (-0.9268413, 0.3751646, -0.014720117), (-0.9851968, 0.16053553, -0.06012909), (-0.99228567, 0.1239614, 0.0016568566), (-0.933337, 0.35900152, 4.4628592e-7), (-0.9268413, 0.3751646, -0.014720117), (-0.99228567, 0.1239614, 0.0016568566), (-0.92491424, 0.020476859, -0.37962413), (-0.980711, 0, -0.19546391), (-0.9971784, 0, -0.07506802), (-0.9971784, 0, -0.07506802), (-0.9940981, 0.000001450463, -0.10848478), (-0.99228567, 0.1239614, 0.0016568566), (-0.9940981, 0.000001450463, -0.10848478), (-0.92491424, 0.020476859, -0.37962413), (-0.8432181, 0.0000010827664, -0.5375717), (-0.70520633, 0.052973807, -0.70702034), (-0.8432181, 0.0000010827664, -0.5375717), (-0.92491424, 0.020476859, -0.37962413), (-0.8432181, 0.0000010827664, -0.5375717), (-0.70520633, 0.052973807, -0.70702034), (-0.70622355, 0.0000011083463, -0.70798886), (-0.70622355, 0.0000011083463, -0.70798886), (-0.5342359, 7.500186e-7, -0.8453355), (-0.8432181, 0.0000010827664, -0.5375717), (-0.8432181, 0.0000010827664, -0.5375717), (-0.5342359, 7.500186e-7, -0.8453355), (-0.9328398, 0.0000012400477, -0.36029157), (-0.8432181, 0.0000010827664, -0.5375717), (-0.9328398, 0.0000012400477, -0.36029157), (-0.9940981, 0.000001450463, -0.10848478), (-0.5342359, 7.500186e-7, -0.8453355), (-0.524191, -0.06761431, -0.84891236), (-0.9328398, 0.0000012400477, -0.36029157), (-0.9328398, 0.0000012400477, -0.36029157), (-0.524191, -0.06761431, -0.84891236), (-0.9249141, -0.020500088, -0.379623), (-0.9940981, 0.000001450463, -0.10848478), (-0.9328398, 0.0000012400477, -0.36029157), (-0.99893546, 0.0000015651827, -0.046130974), (-0.9249141, -0.020500088, -0.379623), (-0.99893546, 0.0000015651827, -0.046130974), (-0.9328398, 0.0000012400477, -0.36029157), (-0.9940981, 0.000001450463, -0.10848478), (-0.99893546, 0.0000015651827, -0.046130974), (-0.9999986, 0.0000015802311, 0.0016694088), (-0.9999987, 0, 0.0016694088), (-0.9940981, 0.000001450463, -0.10848478), (-1, 0.000001377976, 3.2287232e-7), (-0.99893546, 0.0000015651827, -0.046130974), (-0.9249141, -0.020500088, -0.379623), (-0.99433583, -0.081909366, -0.06772945), (-0.99433583, -0.081909366, -0.06772945), (-0.9249141, -0.020500088, -0.379623), (-0.85504735, -0.18018566, -0.48623776), (-1, 0.000001377976, 3.2287232e-7), (-0.99893546, 0.0000015651827, -0.046130974), (-1, 0.0000015693948, 5.696516e-7), (-0.99433583, -0.081909366, -0.06772945), (-0.85504735, -0.18018566, -0.48623776), (-0.83513206, -0.4920327, -0.24588299), (-0.39573032, -0.42523578, -0.8139852), (-0.83513206, -0.4920327, -0.24588299), (-0.85504735, -0.18018566, -0.48623776), (-0.39573032, -0.42523578, -0.8139852), (-0.39615712, -0.8496513, -0.3480695), (-0.83513206, -0.4920327, -0.24588299), (-0.99433583, -0.081909366, -0.06772945), (-0.83513206, -0.4920327, -0.24588299), (-0.92681086, -0.37523985, -0.014718794), (-0.99893546, 0.0000015651827, -0.046130974), (-0.99433583, -0.081909366, -0.06772945), (-0.99827594, -0.05869525, 7.1031127e-7), (-0.92681086, -0.37523985, -0.014718794), (-0.99827594, -0.05869525, 7.1031127e-7), (-0.99433583, -0.081909366, -0.06772945), (-1, 0.0000015693948, 5.696516e-7), (-0.99893546, 0.0000015651827, -0.046130974), (-0.99827594, -0.05869525, 7.1031127e-7), (-0.99827594, -0.05869525, 7.1031127e-7), (-0.92681086, -0.37523985, -0.014718794), (-0.93331426, -0.35906062, 4.5513588e-7), (-0.93331426, -0.35906062, 4.5513588e-7), (-0.92681086, -0.37523985, -0.014718794), (-0.527852, -0.8475194, -0.055525742), (-0.93331426, -0.35906062, 4.5513588e-7), (-0.527852, -0.8475194, -0.055525742), (-0.53692764, -0.84362835, 2.2206358e-7), (-1, 0.0000013731926, -1.67037e-7), (-1, 0.0000015693948, 5.696516e-7), (-0.99827594, -0.05869525, 7.1031127e-7), (-1, 0.0000013731926, -1.67037e-7), (-1, 0.000001377976, 3.2287232e-7), (-1, 0.0000015693948, 5.696516e-7), (-0.99228215, -0.12400075, -5.914386e-7), (-0.99827594, -0.05869525, 7.1031127e-7), (-0.93331426, -0.35906062, 4.5513588e-7), (-1, 0.0000013731926, -1.67037e-7), (-0.99827594, -0.05869525, 7.1031127e-7), (-0.99228215, -0.12400075, -5.914386e-7), (-0.84371436, -0.53679246, -3.526008e-7), (-0.93331426, -0.35906062, 4.5513588e-7), (-0.53692764, -0.84362835, 2.2206358e-7), (-0.99228215, -0.12400075, -5.914386e-7), (-0.93331426, -0.35906062, 4.5513588e-7), (-0.84371436, -0.53679246, -3.526008e-7), (-0.84371436, -0.53679246, -3.526008e-7), (-0.53692764, -0.84362835, 2.2206358e-7), (-0.35892856, -0.93336505, -1.4664121e-7), (-0.5277937, -0.84755516, 0.055535324), (-0.84371436, -0.53679246, -3.526008e-7), (-0.35892856, -0.93336505, -1.4664121e-7), (-0.84371436, -0.53679246, -3.526008e-7), (-0.5277937, -0.84755516, 0.055535324), (-0.9268212, -0.37521482, 0.014708601), (-0.9268212, -0.37521482, 0.014708601), (-0.99228215, -0.12400075, -5.914386e-7), (-0.84371436, -0.53679246, -3.526008e-7), (-1, 0.000001377976, 3.2287232e-7), (-1, 0.0000013731926, -1.67037e-7), (-1, 0.0000011771658, -8.971005e-7), (-1, 0.000001377976, 3.2287232e-7), (-1, 0.0000011771658, -8.971005e-7), (-0.9982777, 0.058665626, 7.278419e-8), (-0.99228215, -0.12400075, -5.914386e-7), (-0.9268212, -0.37521482, 0.014708601), (-0.9943376, -0.08190551, 0.067706846), (-0.9943376, -0.08190551, 0.067706846), (-0.9268212, -0.37521482, 0.014708601), (-0.83513165, -0.49202207, 0.24590515), (-0.99893624, 0.0000013533637, 0.04611187), (-1, 0.0000013731926, -1.67037e-7), (-0.99228215, -0.12400075, -5.914386e-7), (-0.99893624, 0.0000013533637, 0.04611187), (-0.99228215, -0.12400075, -5.914386e-7), (-0.9943376, -0.08190551, 0.067706846), (-0.99893624, 0.0000013533637, 0.04611187), (-1, 0.0000011771658, -8.971005e-7), (-1, 0.0000013731926, -1.67037e-7), (-0.3957337, -0.4251612, 0.81402266), (-0.83513165, -0.49202207, 0.24590515), (-0.39622468, -0.84961873, 0.34807205), (-0.83513165, -0.49202207, 0.24590515), (-0.3957337, -0.4251612, 0.81402266), (-0.8550197, -0.18022972, 0.48626992), (-0.9943376, -0.08190551, 0.067706846), (-0.83513165, -0.49202207, 0.24590515), (-0.8550197, -0.18022972, 0.48626992), (-0.9943376, -0.08190551, 0.067706846), (-0.8550197, -0.18022972, 0.48626992), (-0.92487997, -0.020465486, 0.37970826), (-0.99893624, 0.0000013533637, 0.04611187), (-0.9943376, -0.08190551, 0.067706846), (-0.92487997, -0.020465486, 0.37970826), (-0.932811, 7.9859296e-7, 0.36036602), (-0.99893624, 0.0000013533637, 0.04611187), (-0.92487997, -0.020465486, 0.37970826), (-0.932811, 7.9859296e-7, 0.36036602), (-0.92487997, -0.020465486, 0.37970826), (-0.52415, -0.06746028, 0.8489498), (-0.52415, -0.06746028, 0.8489498), (-0.53412116, 3.494353e-7, 0.8454079), (-0.932811, 7.9859296e-7, 0.36036602), (-0.932811, 7.9859296e-7, 0.36036602), (-0.9940255, 0.0000013188863, 0.10914776), (-0.99893624, 0.0000013533637, 0.04611187), (-1, 0.0000011771658, -8.971005e-7), (-0.99893624, 0.0000013533637, 0.04611187), (-0.9940255, 0.0000013188863, 0.10914776), (-0.53412116, 3.494353e-7, 0.8454079), (-0.84308684, 6.180818e-7, 0.53777754), (-0.932811, 7.9859296e-7, 0.36036602), (-0.9940255, 0.0000013188863, 0.10914776), (-0.932811, 7.9859296e-7, 0.36036602), (-0.84308684, 6.180818e-7, 0.53777754), (-0.84308684, 6.180818e-7, 0.53777754), (-0.53412116, 3.494353e-7, 0.8454079), (-0.7058437, 8.365489e-7, 0.7083676), (-0.7058437, 0, 0.7083676), (-0.84308684, 6.180818e-7, 0.53777754), (-0.7058437, 0, 0.7083676), (-0.9248808, 0.02048051, 0.3797052), (-0.84308684, 6.180818e-7, 0.53777754), (-0.37342638, 0.05826848, 0.92582786), (-0.9248808, 0.02048051, 0.3797052), (-0.9940255, 0.0000013188863, 0.10914776), (-0.84308684, 6.180818e-7, 0.53777754), (-0.9248808, 0.02048051, 0.3797052), (-0.98071057, 0, 0.19546546), (-0.98071057, 0, 0.19546546), (-0.9799592, 0.039139055, 0.19531573), (-0.9248808, 0.02048051, 0.3797052), (-0.8550054, 0.18021744, 0.48629963), (-0.9999987, 0, -0.0016702317), (-0.9999987, 0, -0.0016702317), (-0.9999987, 0, -0.0016702317), (-1, 0, -4.087946e-7), (-0.9999987, 0, -0.0016702317), (-0.9939507, 0.10839251, 0.01769484), (-1, 0, -4.087946e-7), (-0.9982777, 0.058665626, 7.278419e-8), (-1, 0, 7.4402784e-8), (-0.9805884, 0.19607806, -4.0331594e-7), (-0.933337, 0.35900152, 4.4628592e-7), (-0.9982777, 0.058665626, 7.278419e-8), (-0.9939507, 0.10839251, 0.01769484), (-0.8550054, 0.18021744, 0.48629963), (-0.8350813, 0.49210095, 0.24591845), (-0.39572224, 0.42514667, 0.8140358), (-0.8350813, 0.49210095, 0.24591845), (-0.8550054, 0.18021744, 0.48629963), (-0.8350813, 0.49210095, 0.24591845), (-0.39572224, 0.42514667, 0.8140358), (-0.39622077, 0.84961265, 0.34809136), (-0.9939507, 0.10839251, 0.01769484), (-0.8350813, 0.49210095, 0.24591845), (-0.92683375, 0.3751817, 0.014758134), (-0.92683375, 0.3751817, 0.014758134), (-0.9805884, 0.19607806, -4.0331594e-7), (-0.9939507, 0.10839251, 0.01769484), (-0.933337, 0.35900152, 4.4628592e-7), (-0.9805884, 0.19607806, -4.0331594e-7), (-0.8436684, 0.53686464, -3.4790432e-7), (-0.92683375, 0.3751817, 0.014758134), (-0.8436684, 0.53686464, -3.4790432e-7), (-0.9805884, 0.19607806, -4.0331594e-7), (-0.8436684, 0.53686464, -3.4790432e-7), (-0.5368911, 0.84365165, 2.0574596e-7), (-0.933337, 0.35900152, 4.4628592e-7), (-0.52773184, 0.84759, 0.055590723), (-0.8436684, 0.53686464, -3.4790432e-7), (-0.92683375, 0.3751817, 0.014758134), (-0.5368911, 0.84365165, 2.0574596e-7), (-0.8436684, 0.53686464, -3.4790432e-7), (-0.35901666, 0.9333312, -1.3991831e-7), (-0.52773184, 0.84759, 0.055590723), (-0.35901666, 0.9333312, -1.3991831e-7), (-0.8436684, 0.53686464, -3.4790432e-7), (0.24613555, 0.8337775, -0.49419883), (0.81138533, 0.3961458, -0.42979336), (0.34612653, 0.3947783, -0.8510855), (0.81138533, 0.3961458, -0.42979336), (0.24613555, 0.8337775, -0.49419883), (0.48539138, 0.855002, -0.18266559), (0.06545133, 0.996411, -0.05367794), (0.48539138, 0.855002, -0.18266559), (0.24613555, 0.8337775, -0.49419883), (0.06545133, 0.996411, -0.05367794), (0.24613555, 0.8337775, -0.49419883), (0.02161103, 0.9238179, -0.382222), (0.06545133, 0.996411, -0.05367794), (0.3752689, 0.926759, -0.01705887), (0.48539138, 0.855002, -0.18266559), (0.02161103, 0.9238179, -0.382222), (-9.799655e-7, 0.9987709, -0.04956462), (0.06545133, 0.996411, -0.05367794), (-9.799655e-7, 0.9987709, -0.04956462), (0.02161103, 0.9238179, -0.382222), (-0.0000054343773, 0.9302394, -0.3669532), (0.3752689, 0.926759, -0.01705887), (0.06545133, 0.996411, -0.05367794), (0.061446153, 0.9981105, -1.2894563e-8), (1.3543147e-12, 1, 4.9586987e-8), (0.06545133, 0.996411, -0.05367794), (-9.799655e-7, 0.9987709, -0.04956462), (0.06545133, 0.996411, -0.05367794), (1.3543147e-12, 1, 4.9586987e-8), (0.061446153, 0.9981105, -1.2894563e-8), (0.4472422, 0.8944129, -2.0870402e-7), (0.3752689, 0.926759, -0.01705887), (0.061446153, 0.9981105, -1.2894563e-8), (0.4472422, 0.8944129, -2.0870402e-7), (0.84745485, 0.527664, -0.058233146), (0.3752689, 0.926759, -0.01705887), (0.84745485, 0.527664, -0.058233146), (0.4472422, 0.8944129, -2.0870402e-7), (0.9333645, 0.3589299, -4.945506e-7), (0.061446153, 0.9981105, -1.2894563e-8), (0.12691051, 0.9919143, 8.1914145e-8), (0.4472422, 0.8944129, -2.0870402e-7), (0.44716898, 0.8944495, 1.7657786e-7), (0.4472422, 0.8944129, -2.0870402e-7), (0.12691051, 0.9919143, 8.1914145e-8), (0.44711596, 0.8943655, 0.014062217), (0.44716898, 0.8944495, 1.7657786e-7), (0.12691051, 0.9919143, 8.1914145e-8), (0.061446153, 0.9981105, -1.2894563e-8), (5.079453e-13, 1, 4.959442e-8), (0.12691051, 0.9919143, 8.1914145e-8), (5.079453e-13, 1, 4.959442e-8), (0.061446153, 0.9981105, -1.2894563e-8), (1.3543147e-12, 1, 4.9586987e-8), (0.44711596, 0.8943655, 0.014062217), (0.12691051, 0.9919143, 8.1914145e-8), (0.06531029, 0.99642664, 0.053559594), (5.079453e-13, 1, 4.959442e-8), (0.06531029, 0.99642664, 0.053559594), (0.12691051, 0.9919143, 8.1914145e-8), (0.06531029, 0.99642664, 0.053559594), (0.485363, 0.8550577, 0.18248035), (0.44711596, 0.8943655, 0.014062217), (5.079453e-13, 1, 4.959442e-8), (1.3543147e-12, 1, 4.9586987e-8), (5.0787656e-13, 1, 4.958776e-8), (-9.799655e-7, 0.9987709, -0.04956462), (5.0787656e-13, 1, 4.958776e-8), (1.3543147e-12, 1, 4.9586987e-8), (0.06531029, 0.99642664, 0.053559594), (0.24589238, 0.8337836, 0.4943095), (0.485363, 0.8550577, 0.18248035), (0.24589238, 0.8337836, 0.4943095), (0.8114394, 0.3960383, 0.4297905), (0.485363, 0.8550577, 0.18248035), (0.8114394, 0.3960383, 0.4297905), (0.24589238, 0.8337836, 0.4943095), (0.3459642, 0.39460316, 0.8512327), (0.06531029, 0.99642664, 0.053559594), (0.021520607, 0.92390734, 0.38201064), (0.24589238, 0.8337836, 0.4943095), (0, 0.9987763, 0.04945689), (0.021520607, 0.92390734, 0.38201064), (0.06531029, 0.99642664, 0.053559594), (0.06531029, 0.99642664, 0.053559594), (5.079453e-13, 1, 4.959442e-8), (0, 0.9987763, 0.04945689), (0.021520607, 0.92390734, 0.38201064), (0, 0.9987763, 0.04945689), (0, 0.93032175, 0.3667443), (-3.3848938e-13, 1, 4.9573693e-8), (0, 0.9987763, 0.04945689), (5.079453e-13, 1, 4.959442e-8), (5.079453e-13, 1, 4.959442e-8), (5.0787656e-13, 1, 4.958776e-8), (-3.3848938e-13, 1, 4.9573693e-8), (0, 0.99416196, 0.10789852), (0, 0.93032175, 0.3667443), (0, 0.9987763, 0.04945689), (0, 0.9987763, 0.04945689), (-3.3848938e-13, 1, 4.9573693e-8), (0, 0.99416196, 0.10789852), (0, 0.93032175, 0.3667443), (0, 0.99416196, 0.10789852), (0, 0.8465053, 0.53238016), (-0.061299432, 0.9981195, 2.4435378e-8), (0, 0.99416196, 0.10789852), (-3.3848938e-13, 1, 4.9573693e-8), (-3.3848938e-13, 1, 4.9573693e-8), (5.0787656e-13, 1, 4.958776e-8), (-0.061299432, 0.9981195, 2.4435378e-8), (-0.110176265, 0.98987144, 0.08953117), (0, 0.8465053, 0.53238016), (0, 0.99416196, 0.10789852), (0, 0.99416196, 0.10789852), (-0.061299432, 0.9981195, 2.4435378e-8), (-0.110176265, 0.98987144, 0.08953117), (0, 0.8465053, 0.53238016), (-0.110176265, 0.98987144, 0.08953117), (-0.09619885, 0.840605, 0.53303754), (-0.110176265, 0.98987144, 0.08953117), (-0.39622077, 0.84961265, 0.34809136), (-0.09619885, 0.840605, 0.53303754), (-0.39622077, 0.84961265, 0.34809136), (-0.110176265, 0.98987144, 0.08953117), (-0.52773184, 0.84759, 0.055590723), (-0.110176265, 0.98987144, 0.08953117), (-0.35901666, 0.9333312, -1.3991831e-7), (-0.52773184, 0.84759, 0.055590723), (-0.110176265, 0.98987144, 0.08953117), (-0.061299432, 0.9981195, 2.4435378e-8), (-0.35901666, 0.9333312, -1.3991831e-7), (-0.12689102, 0.9919168, 6.62978e-8), (-0.35901666, 0.9333312, -1.3991831e-7), (-0.061299432, 0.9981195, 2.4435378e-8), (-0.12689102, 0.9919168, 6.62978e-8), (-0.061299432, 0.9981195, 2.4435378e-8), (5.0787656e-13, 1, 4.958776e-8), (-0.35901666, 0.9333312, -1.3991831e-7), (-0.12689102, 0.9919168, 6.62978e-8), (-0.5368911, 0.84365165, 2.0574596e-7), (-0.0000018796828, 0.9941365, -0.108132936), (-0.12689102, 0.9919168, 6.62978e-8), (5.0787656e-13, 1, 4.958776e-8), (5.0787656e-13, 1, 4.958776e-8), (-9.799655e-7, 0.9987709, -0.04956462), (-0.0000018796828, 0.9941365, -0.108132936), (-0.0000054343773, 0.9302394, -0.3669532), (-0.0000018796828, 0.9941365, -0.108132936), (-9.799655e-7, 0.9987709, -0.04956462), (-0.12689102, 0.9919168, 6.62978e-8), (-0.11031808, 0.9898458, -0.089639194), (-0.5368911, 0.84365165, 2.0574596e-7), (-0.12689102, 0.9919168, 6.62978e-8), (-0.0000018796828, 0.9941365, -0.108132936), (-0.11031808, 0.9898458, -0.089639194), (-0.0000018796828, 0.9941365, -0.108132936), (-0.0000054343773, 0.9302394, -0.3669532), (-0.000004197335, 0.84657073, -0.53227615), (-0.000004197335, 0.84657073, -0.53227615), (-0.11031808, 0.9898458, -0.089639194), (-0.0000018796828, 0.9941365, -0.108132936), (-0.0000031405034, 0.52860147, -0.84887016), (-0.000004197335, 0.84657073, -0.53227615), (-0.0000054343773, 0.9302394, -0.3669532), (-0.000004197335, 0.84657073, -0.53227615), (-0.0000031405034, 0.52860147, -0.84887016), (-0.0000049205423, 0.36351633, -0.9315879), (-0.0000049205423, 0.36351633, -0.9315879), (-0.096086085, 0.84069943, -0.53290886), (-0.000004197335, 0.84657073, -0.53227615), (-0.096086085, 0.84069943, -0.53290886), (-0.0000049205423, 0.36351633, -0.9315879), (-0.07540194, 0.38850632, -0.91835576), (-0.11031808, 0.9898458, -0.089639194), (-0.000004197335, 0.84657073, -0.53227615), (-0.096086085, 0.84069943, -0.53290886), (-0.43105042, 0.82477933, -0.36597076), (-0.11031808, 0.9898458, -0.089639194), (-0.096086085, 0.84069943, -0.53290886), (-0.11031808, 0.9898458, -0.089639194), (-0.43105042, 0.82477933, -0.36597076), (-0.5277763, 0.84757066, -0.055462487), (-0.11031808, 0.9898458, -0.089639194), (-0.5277763, 0.84757066, -0.055462487), (-0.5368911, 0.84365165, 2.0574596e-7), (-0.5368911, 0.84365165, 2.0574596e-7), (-0.5277763, 0.84757066, -0.055462487), (-0.933337, 0.35900152, 4.4628592e-7), (-0.9268413, 0.3751646, -0.014720117), (-0.933337, 0.35900152, 4.4628592e-7), (-0.5277763, 0.84757066, -0.055462487), (0.07026617, 0.523192, -0.8493131), (-0.0000054343773, 0.9302394, -0.3669532), (0.02161103, 0.9238179, -0.382222), (-0.0000054343773, 0.9302394, -0.3669532), (0.07026617, 0.523192, -0.8493131), (-0.0000031405034, 0.52860147, -0.84887016), (0.09155438, 0.08832371, -0.9918753), (-0.0000031405034, 0.52860147, -0.84887016), (0.07026617, 0.523192, -0.8493131), (0.07026617, 0.523192, -0.8493131), (0.34612653, 0.3947783, -0.8510855), (0.09155438, 0.08832371, -0.9918753), (0.34612653, 0.3947783, -0.8510855), (0.6068228, 0.11540593, -0.7864143), (0.09155438, 0.08832371, -0.9918753), (0.7047532, 0, -0.7094525), (0.6068228, 0.11540593, -0.7864143), (0.7047532, 0, -0.7094525), (0.6068228, 0.11540593, -0.7864143), (0.89214414, -7.03077e-7, -0.4517508), (0.7047532, 0, -0.7094525), (0.19517611, 0, -0.98076814), (0.5331177, -4.2039636e-7, -0.8460411), (0.09155438, 0.08832371, -0.9918753), (0.8923852, -8.113968e-7, -0.4512744), (0.5331177, -4.2039636e-7, -0.8460411), (0.89214414, -7.03077e-7, -0.4517508), (-0.0000031405034, 0.52860147, -0.84887016), (0.09155438, 0.08832371, -0.9918753), (-0.000009554118, 0.123957194, -0.99228764), (-0.000009554118, 0.123957194, -0.99228764), (-0.0000049205423, 0.36351633, -0.9315879), (-0.0000031405034, 0.52860147, -0.84887016), (0.8923852, -8.113968e-7, -0.4512744), (0.9167616, -0.072538085, -0.39279324), (0.529498, -0.09252335, -0.8432504), (-0.0000049205423, 0.36351633, -0.9315879), (-0.000009554118, 0.123957194, -0.99228764), (-0.000013127786, 0.08975004, -0.9959643), (-0.000013127786, 0.08975004, -0.9959643), (-0.07540194, 0.38850632, -0.91835576), (-0.0000049205423, 0.36351633, -0.9315879), (0.529498, -0.09252335, -0.8432504), (0.3574073, -3.365118e-7, -0.93394864), (0.8923852, -8.113968e-7, -0.4512744), (0.5331177, -4.2039636e-7, -0.8460411), (0.8923852, -8.113968e-7, -0.4512744), (0.3574073, -3.365118e-7, -0.93394864), (-0.07540194, 0.38850632, -0.91835576), (-0.000013127786, 0.08975004, -0.9959643), (-0.12440302, 0.087458536, -0.9883698), (-0.07540194, 0.38850632, -0.91835576), (-0.12440302, 0.087458536, -0.9883698), (-0.3643323, 0.41512817, -0.8336249), (-0.3643323, 0.41512817, -0.8336249), (-0.12440302, 0.087458536, -0.9883698), (-0.19102502, 0.19193499, -0.96263725), (-0.12440302, 0.087458536, -0.9883698), (-0.1946439, 0, -0.980874), (-0.1946439, 0, -0.980874), (-0.000013127786, 0.08975004, -0.9959643), (-0.060861744, 7.163725e-8, -0.99814624), (-0.12440302, 0.087458536, -0.9883698), (-0.19463749, 2.6820027e-7, -0.9808753), (-0.12440302, 0.087458536, -0.9883698), (-0.060861744, 7.163725e-8, -0.99814624), (-0.060861744, 7.163725e-8, -0.99814624), (-0.000013127786, 0.08975004, -0.9959643), (-0.00001365927, 1.5968149e-11, -1), (-0.000013127786, 0.08975004, -0.9959643), (-0.000009554118, 0.123957194, -0.99228764), (-0.00001365927, 1.5968149e-11, -1), (-0.060861744, 7.163725e-8, -0.99814624), (-0.12589823, 1.7407997e-7, -0.9920432), (-0.19463749, 2.6820027e-7, -0.9808753), (-0.19463749, 2.6820027e-7, -0.9808753), (-0.12589823, 1.7407997e-7, -0.9920432), (-0.5342359, 7.500186e-7, -0.8453355), (-0.00001365927, 1.5968149e-11, -1), (-0.000013655919, 1.6128952e-11, -1), (-0.060861744, 7.163725e-8, -0.99814624), (-0.060861744, 7.163725e-8, -0.99814624), (-0.000013655919, 1.6128952e-11, -1), (-0.12589823, 1.7407997e-7, -0.9920432), (-0.000014166361, 0, -1), (-0.00001365927, 1.5968149e-11, -1), (-0.000014166361, 0, -1), (-0.000013655919, 1.6128952e-11, -1), (-0.00001365927, 1.5968149e-11, -1), (-0.000014166361, 1.6789617e-11, -1), (0, 0, -1), (0.09155438, 0.08832371, -0.9918753), (-0.000013174627, 1.5614227e-11, -1), (-0.19463104, 0, -0.9808765), (-0.5342359, 7.500186e-7, -0.8453355), (-0.19463104, 0, -0.9808765), (-0.5342359, 7.500186e-7, -0.8453355), (-0.19353041, -0.11842283, -0.97392094), (-0.524191, -0.06761431, -0.84891236), (-0.19353041, -0.11842283, -0.97392094), (-0.39573032, -0.42523578, -0.8139852), (-0.524191, -0.06761431, -0.84891236), (-0.39573032, -0.42523578, -0.8139852), (-0.19353041, -0.11842283, -0.97392094), (-0.07540849, -0.3885376, -0.91834205), (0, 0, -1), (-0.000013488786, -0.059657242, -0.9982189), (0, -0.089750044, -0.9959643), (-0.000013488786, -0.059657242, -0.9982189), (-0.07540849, -0.3885376, -0.91834205), (0, -0.089750044, -0.9959643), (0, 0, -1), (-0.000013655919, 1.6128952e-11, -1), (-0.000013488786, -0.059657242, -0.9982189), (-0.07540849, -0.3885376, -0.91834205), (-0.000013488786, -0.059657242, -0.9982189), (-0.0000062108857, -0.36354676, -0.93157595), (-0.00001365592, 1.5964155e-11, -1), (-0.000013488786, -0.059657242, -0.9982189), (-0.000013655919, 1.6128952e-11, -1), (-0.000013174627, 1.5614227e-11, -1), (-0.00001365592, 1.5964155e-11, -1), (-0.000013655919, 1.6128952e-11, -1), (-0.000009706771, -0.12230271, -0.99249285), (-0.0000062108857, -0.36354676, -0.93157595), (-0.000013488786, -0.059657242, -0.9982189), (-0.000013488786, -0.059657242, -0.9982189), (-0.00001365592, 1.5964155e-11, -1), (-0.000009706771, -0.12230271, -0.99249285), (-0.0000062108857, -0.36354676, -0.93157595), (-0.000009706771, -0.12230271, -0.99249285), (-0.000004515944, -0.52853477, -0.8489116), (-0.000004515944, -0.52853477, -0.8489116), (-0.0000052298283, -0.84652734, -0.53234524), (-0.0000062108857, -0.36354676, -0.93157595), (-0.0000052298283, -0.84652734, -0.53234524), (-0.000004515944, -0.52853477, -0.8489116), (-0.0000054309726, -0.93030494, -0.36678675), (-0.0000054309726, -0.93030494, -0.36678675), (0.07005784, -0.5232065, -0.8493215), (0.021608671, -0.9238782, -0.38207608), (0.07005784, -0.5232065, -0.8493215), (-0.0000054309726, -0.93030494, -0.36678675), (-0.000004515944, -0.52853477, -0.8489116), (0.07569807, -0.1014275, -0.9919588), (-0.000004515944, -0.52853477, -0.8489116), (-0.000009706771, -0.12230271, -0.99249285), (-0.000004515944, -0.52853477, -0.8489116), (0.07569807, -0.1014275, -0.9919588), (0.07005784, -0.5232065, -0.8493215), (-0.00001365592, 1.5964155e-11, -1), (0.07569807, -0.1014275, -0.9919588), (-0.000009706771, -0.12230271, -0.99249285), (0.07569807, -0.1014275, -0.9919588), (0.34611142, -0.39480996, -0.8510769), (0.07005784, -0.5232065, -0.8493215), (0.07569807, -0.1014275, -0.9919588), (0.529498, -0.09252335, -0.8432504), (0.34611142, -0.39480996, -0.8510769), (0.3574073, -3.365118e-7, -0.93394864), (0.529498, -0.09252335, -0.8432504), (0.07569807, -0.1014275, -0.9919588), (0.07569807, -0.1014275, -0.9919588), (-0.00001365592, 1.5964155e-11, -1), (0.093104444, 0, -0.9956563), (0.093104444, 0, -0.9956563), (0.3574073, -3.365118e-7, -0.93394864), (0.19515027, 0, -0.9807733), (-0.000013174627, 1.5614227e-11, -1), (0.06100133, -9.6396256e-8, -0.99813765), (-0.00001365592, 1.5964155e-11, -1), (0.12606032, -1.4888946e-7, -0.9920225), (0.3574073, -3.365118e-7, -0.93394864), (0.06100133, -9.6396256e-8, -0.99813765), (0.06100133, -9.6396256e-8, -0.99813765), (-0.000013174627, 1.5614227e-11, -1), (0.12606032, -1.4888946e-7, -0.9920225), (0.3574073, -3.365118e-7, -0.93394864), (0.12606032, -1.4888946e-7, -0.9920225), (0.5331177, -4.2039636e-7, -0.8460411), (0.09155438, 0.08832371, -0.9918753), (0.12606032, -1.4888946e-7, -0.9920225), (-0.000013174627, 1.5614227e-11, -1), (0.09155438, 0.08832371, -0.9918753), (0.5331177, -4.2039636e-7, -0.8460411), (0.12606032, -1.4888946e-7, -0.9920225), (0.8114311, -0.39606985, -0.42977712), (0.2460028, -0.83376366, -0.49428812), (0.34611142, -0.39480996, -0.8510769), (0.2460028, -0.83376366, -0.49428812), (0.8114311, -0.39606985, -0.42977712), (0.48541802, -0.8549908, -0.1826471), (0.065313876, -0.9964261, -0.053565208), (0.2460028, -0.83376366, -0.49428812), (0.48541802, -0.8549908, -0.1826471), (0.065313876, -0.9964261, -0.053565208), (0.021608671, -0.9238782, -0.38207608), (0.2460028, -0.83376366, -0.49428812), (0.065313876, -0.9964261, -0.053565208), (0.48541802, -0.8549908, -0.1826471), (0.44717625, -0.89433557, -0.014048314), (-9.779334e-7, -0.998776, -0.04946195), (0.021608671, -0.9238782, -0.38207608), (0.065313876, -0.9964261, -0.053565208), (0.021608671, -0.9238782, -0.38207608), (-9.779334e-7, -0.998776, -0.04946195), (-0.0000054309726, -0.93030494, -0.36678675), (0.065313876, -0.9964261, -0.053565208), (0.44717625, -0.89433557, -0.014048314), (0.06132034, -0.9981182, -6.2242634e-8), (0.06132034, -0.9981182, -6.2242634e-8), (0.44717625, -0.89433557, -0.014048314), (0.35899782, -0.93333846, -1.4101639e-7), (0.065313876, -0.9964261, -0.053565208), (0, -1, 0), (-9.779334e-7, -0.998776, -0.04946195), (0, -1, 0), (0.065313876, -0.9964261, -0.053565208), (0.06132034, -0.9981182, -6.2242634e-8), (-0.0000018758311, -0.9941606, -0.107911356), (-0.0000054309726, -0.93030494, -0.36678675), (-9.779334e-7, -0.998776, -0.04946195), (-0.0000054309726, -0.93030494, -0.36678675), (-0.0000018758311, -0.9941606, -0.107911356), (-0.0000052298283, -0.84652734, -0.53234524), (0, -1, 0), (-9.779334e-7, -0.998776, -0.04946195), (0, -1, 0), (-9.779334e-7, -0.998776, -0.04946195), (0, -1, 0), (-0.0000018758311, -0.9941606, -0.107911356), (0, -1, 0), (0, -1, 0), (0.06132034, -0.9981182, -6.2242634e-8), (0, -1, 0), (0, -1, 0), (0, -1, 0), (0.12683295, -0.9919241, 6.4625326e-8), (0.06132034, -0.9981182, -6.2242634e-8), (0.35899782, -0.93333846, -1.4101639e-7), (0, -1, 0), (0.06132034, -0.9981182, -6.2242634e-8), (0.12683295, -0.9919241, 6.4625326e-8), (0.12683295, -0.9919241, 6.4625326e-8), (0.35899782, -0.93333846, -1.4101639e-7), (0.53689975, -0.84364605, 1.4090644e-7), (0.44717833, -0.8943345, 0.01405172), (0.12683295, -0.9919241, 6.4625326e-8), (0.53689975, -0.84364605, 1.4090644e-7), (0.12683295, -0.9919241, 6.4625326e-8), (0.44717833, -0.8943345, 0.01405172), (0.065357365, -0.9964217, 0.05359301), (0.065357365, -0.9964217, 0.05359301), (0, -1, 0), (0.12683295, -0.9919241, 6.4625326e-8), (0.065357365, -0.9964217, 0.05359301), (0.44717833, -0.8943345, 0.01405172), (0.4853986, -0.85504264, 0.18245609), (0.065357365, -0.9964217, 0.05359301), (0.4853986, -0.85504264, 0.18245609), (0.2458742, -0.83381027, 0.49427348), (0.81148493, -0.39601824, 0.4297229), (0.2458742, -0.83381027, 0.49427348), (0.4853986, -0.85504264, 0.18245609), (0.2458742, -0.83381027, 0.49427348), (0.81148493, -0.39601824, 0.4297229), (0.345957, -0.39460716, 0.8512338), (0.065357365, -0.9964217, 0.05359301), (0.2458742, -0.83381027, 0.49427348), (0.02148149, -0.9238893, 0.38205653), (0.02148149, -0.9238893, 0.38205653), (0, -0.99877447, 0.049494043), (0.065357365, -0.9964217, 0.05359301), (0, -1, 0), (0.065357365, -0.9964217, 0.05359301), (0, -0.99877447, 0.049494043), (0, -0.99877447, 0.049494043), (0.02148149, -0.9238893, 0.38205653), (0.0000025925049, -0.9303158, 0.36675927), (0, -0.99877447, 0.049494043), (0, -1, 0), (0, -1, 0), (0, -1, 0), (0, -1, 0), (0, -1, 0), (0.0000025925049, -0.9303158, 0.36675927), (0.0000012320199, -0.9941572, 0.1079421), (0, -0.99877447, 0.049494043), (0, -1, 0), (0, -0.99877447, 0.049494043), (0.0000012320199, -0.9941572, 0.1079421), (0.0000012320199, -0.9941572, 0.1079421), (0.0000025925049, -0.9303158, 0.36675927), (0.0000027544277, -0.8465292, 0.53234226), (-0.061303306, -0.9981193, -2.506046e-8), (0, -1, 0), (0, -1, 0), (0.0000012320199, -0.9941572, 0.1079421), (-0.061303306, -0.9981193, -2.506046e-8), (0, -1, 0), (0.0000027544277, -0.8465292, 0.53234226), (-0.11015345, -0.9898751, 0.0895187), (0.0000012320199, -0.9941572, 0.1079421), (-0.061303306, -0.9981193, -2.506046e-8), (0.0000012320199, -0.9941572, 0.1079421), (-0.11015345, -0.9898751, 0.0895187), (-0.11015345, -0.9898751, 0.0895187), (0.0000027544277, -0.8465292, 0.53234226), (-0.096112646, -0.84060055, 0.53305995), (-0.39622468, -0.84961873, 0.34807205), (-0.11015345, -0.9898751, 0.0895187), (-0.096112646, -0.84060055, 0.53305995), (-0.11015345, -0.9898751, 0.0895187), (-0.39622468, -0.84961873, 0.34807205), (-0.5277937, -0.84755516, 0.055535324), (-0.35892856, -0.93336505, -1.4664121e-7), (-0.11015345, -0.9898751, 0.0895187), (-0.5277937, -0.84755516, 0.055535324), (-0.11015345, -0.9898751, 0.0895187), (-0.35892856, -0.93336505, -1.4664121e-7), (-0.061303306, -0.9981193, -2.506046e-8), (-0.35892856, -0.93336505, -1.4664121e-7), (-0.12676398, -0.9919329, 4.0040142e-8), (-0.061303306, -0.9981193, -2.506046e-8), (-0.061303306, -0.9981193, -2.506046e-8), (-0.12676398, -0.9919329, 4.0040142e-8), (0, -1, 0), (-0.12676398, -0.9919329, 4.0040142e-8), (-0.35892856, -0.93336505, -1.4664121e-7), (-0.53692764, -0.84362835, 2.2206358e-7), (-0.12676398, -0.9919329, 4.0040142e-8), (-0.0000018758311, -0.9941606, -0.107911356), (0, -1, 0), (-0.53692764, -0.84362835, 2.2206358e-7), (-0.110161036, -0.9898741, -0.08952036), (-0.12676398, -0.9919329, 4.0040142e-8), (-0.0000018758311, -0.9941606, -0.107911356), (-0.12676398, -0.9919329, 4.0040142e-8), (-0.110161036, -0.9898741, -0.08952036), (-0.527852, -0.8475194, -0.055525742), (-0.110161036, -0.9898741, -0.08952036), (-0.53692764, -0.84362835, 2.2206358e-7), (-0.39615712, -0.8496513, -0.3480695), (-0.110161036, -0.9898741, -0.08952036), (-0.527852, -0.8475194, -0.055525742), (-0.110161036, -0.9898741, -0.08952036), (-0.0000052298283, -0.84652734, -0.53234524), (-0.0000018758311, -0.9941606, -0.107911356), (-0.110161036, -0.9898741, -0.08952036), (-0.39615712, -0.8496513, -0.3480695), (-0.09616647, -0.84064263, -0.53298384), (-0.0000052298283, -0.84652734, -0.53234524), (-0.110161036, -0.9898741, -0.08952036), (-0.09616647, -0.84064263, -0.53298384), (-0.09616647, -0.84064263, -0.53298384), (-0.0000062108857, -0.36354676, -0.93157595), (-0.0000052298283, -0.84652734, -0.53234524), (-0.0000062108857, -0.36354676, -0.93157595), (-0.09616647, -0.84064263, -0.53298384), (-0.07540849, -0.3885376, -0.91834205), (0.7018293, 0.08920975, 0.7067371), (0.70462626, 0, 0.7095786), (0.70462626, 0, 0.7095786), (0.7046263, -0.0000016942131, 0.7095786), (0.7018293, 0.08920975, 0.7067371), (0.70140857, -0.0000016826289, 0.7127594), (0.70140857, -0.0000016826289, 0.7127594), (0.89239746, -0.0000015070183, 0.4512502), (0.7046263, -0.0000016942131, 0.7095786), (0.89239746, -0.0000015070183, 0.4512502), (0.52945083, -0.09248859, 0.8432838), (0.91678935, -0.07241735, 0.3927506), (0.09158612, 0.088353105, 0.9918698), (0.70140857, -0.0000016826289, 0.7127594), (0.19460262, 0.08824759, 0.97690433), (0.3459642, 0.39460316, 0.8512327), (0.09158612, 0.088353105, 0.9918698), (0.19460262, 0.08824759, 0.97690433), (0.89239746, -0.0000015070183, 0.4512502), (0.4445113, -5.259154e-7, 0.89577323), (0.35753292, -4.4888858e-7, 0.9339005), (0.35753292, -4.4888858e-7, 0.9339005), (0.52945083, -0.09248859, 0.8432838), (0.89239746, -0.0000015070183, 0.4512502), (0.07008183, 0.52310526, 0.84938174), (0.09158612, 0.088353105, 0.9918698), (0.3459642, 0.39460316, 0.8512327), (0.12619348, -1.7388778e-7, 0.99200565), (0.35753292, -4.4888858e-7, 0.9339005), (0.4445113, -5.259154e-7, 0.89577323), (0.4445113, -5.259154e-7, 0.89577323), (0.09158612, 0.088353105, 0.9918698), (0.12619348, -1.7388778e-7, 0.99200565), (0, 0.93032175, 0.3667443), (0.07008183, 0.52310526, 0.84938174), (0.021520607, 0.92390734, 0.38201064), (0.07008183, 0.52310526, 0.84938174), (0, 0.93032175, 0.3667443), (0, 0.52841073, 0.8489889), (0, 0.52841073, 0.8489889), (0.09158612, 0.088353105, 0.9918698), (0.07008183, 0.52310526, 0.84938174), (0, 0.8465053, 0.53238016), (0, 0.52841073, 0.8489889), (0, 0.93032175, 0.3667443), (0.09158612, 0.088353105, 0.9918698), (0, 0.52841073, 0.8489889), (0, 0.18737698, 0.98228806), (0, 0.52841073, 0.8489889), (0, 0.8465053, 0.53238016), (0, 0.3635893, 0.9315593), (0, 0.3635893, 0.9315593), (0, 0.18737698, 0.98228806), (0, 0.52841073, 0.8489889), (-0.09619885, 0.840605, 0.53303754), (0, 0.3635893, 0.9315593), (0, 0.8465053, 0.53238016), (0, 0.3635893, 0.9315593), (-0.09619885, 0.840605, 0.53303754), (-0.07530627, 0.3886448, 0.91830504), (0.09158612, 0.088353105, 0.9918698), (0, 0.18737698, 0.98228806), (0, 0, 1), (0.09158612, 0.088353105, 0.9918698), (0, 0, 1), (0.12619348, -1.7388778e-7, 0.99200565), (0, 0.19518524, 0.98076636), (0, 0.3635893, 0.9315593), (0, 0.05984915, 0.9982074), (-0.07530627, 0.3886448, 0.91830504), (0, 0.05984915, 0.9982074), (0, 0.3635893, 0.9315593), (0, 0.05984915, 0.9982074), (0, 0, 1), (0, 0, 1), (0, 0.05984915, 0.9982074), (-0.07530627, 0.3886448, 0.91830504), (-0.12465901, 0.08758925, 0.98832595), (-0.07530627, 0.3886448, 0.91830504), (-0.39572224, 0.42514667, 0.8140358), (-0.12465901, 0.08758925, 0.98832595), (-0.39572224, 0.42514667, 0.8140358), (-0.37342638, 0.05826848, 0.92582786), (-0.12465901, 0.08758925, 0.98832595), (-0.12465901, 0.08758925, 0.98832595), (-0.37342638, 0.05826848, 0.92582786), (-0.19524853, 2.2981689e-7, 0.9807538), (-0.061057612, 7.1867746e-8, 0.99813426), (0, 0.05984915, 0.9982074), (-0.12465901, 0.08758925, 0.98832595), (-0.12465901, 0.08758925, 0.98832595), (-0.19524853, 2.2981689e-7, 0.9807538), (-0.061057612, 7.1867746e-8, 0.99813426), (0, 0, 1), (0, 0.05984915, 0.9982074), (0, 0, 1), (0, 0.05984915, 0.9982074), (-0.061057612, 7.1867746e-8, 0.99813426), (0, 0, 1), (0, 0, 1), (0.061358284, -9.629546e-8, 0.99811584), (0.12619348, -1.7388778e-7, 0.99200565), (0.35753292, -4.4888858e-7, 0.9339005), (0.12619348, -1.7388778e-7, 0.99200565), (0.061358284, -9.629546e-8, 0.99811584), (0, 0, 1), (0, 0, 1), (0, 0, 1), (0.061358284, -9.629546e-8, 0.99811584), (0, 0, 1), (0, 0, 1), (0.35753292, -4.4888858e-7, 0.9339005), (0.061358284, -9.629546e-8, 0.99811584), (0.09320358, 0, 0.9956471), (0, 0, 1), (0.09320358, 0, 0.9956471), (0, 0, 1), (0.35753292, -4.4888858e-7, 0.9339005), (0.09078168, -0.121630035, 0.9884153), (0.52945083, -0.09248859, 0.8432838), (0.09078168, -0.121630035, 0.9884153), (0.345957, -0.39460716, 0.8512338), (0.52945083, -0.09248859, 0.8432838), (0.345957, -0.39460716, 0.8512338), (0.09078168, -0.121630035, 0.9884153), (0.070049986, -0.5231864, 0.8493344), (0.070049986, -0.5231864, 0.8493344), (0.0000025925049, -0.9303158, 0.36675927), (0.02148149, -0.9238893, 0.38205653), (0.0000025925049, -0.9303158, 0.36675927), (0.070049986, -0.5231864, 0.8493344), (0.0000010306113, -0.5285045, 0.84893054), (0.09078168, -0.121630035, 0.9884153), (0.0000010306113, -0.5285045, 0.84893054), (0.070049986, -0.5231864, 0.8493344), (0.0000010306113, -0.5285045, 0.84893054), (0.0000027544277, -0.8465292, 0.53234226), (0.0000025925049, -0.9303158, 0.36675927), (0.0000010306113, -0.5285045, 0.84893054), (0.09078168, -0.121630035, 0.9884153), (2.0644505e-7, -0.09003454, 0.99593866), (0.09078168, -0.121630035, 0.9884153), (0, 0, 1), (2.0644505e-7, -0.09003454, 0.99593866), (0.0000027544277, -0.8465292, 0.53234226), (0.0000010306113, -0.5285045, 0.84893054), (3.2287636e-7, -0.3636574, 0.9315328), (2.0644505e-7, -0.09003454, 0.99593866), (3.2287636e-7, -0.3636574, 0.9315328), (0.0000010306113, -0.5285045, 0.84893054), (3.2287636e-7, -0.3636574, 0.9315328), (-0.096112646, -0.84060055, 0.53305995), (0.0000027544277, -0.8465292, 0.53234226), (-0.096112646, -0.84060055, 0.53305995), (3.2287636e-7, -0.3636574, 0.9315328), (-0.075288914, -0.38873175, 0.9182696), (0, 0, 1), (2.0644505e-7, -0.09003454, 0.99593866), (0, 0, 1), (0, 0, 1), (0, 0, 1), (0, 0, 1), (-0.061057612, 7.1867746e-8, 0.99813426), (0, 0, 1), (0, 0, 1), (3.2287636e-7, -0.3636574, 0.9315328), (2.0644505e-7, -0.09003454, 0.99593866), (3.913376e-7, -0.09003194, 0.9959389), (2.0644505e-7, -0.09003454, 0.99593866), (0, 0, 1), (3.913376e-7, -0.09003194, 0.9959389), (3.913376e-7, -0.09003194, 0.9959389), (-0.075288914, -0.38873175, 0.9182696), (3.2287636e-7, -0.3636574, 0.9315328), (0, 0, 1), (-0.061057612, 7.1867746e-8, 0.99813426), (-0.12599249, 1.4932324e-7, 0.9920313), (0, 0, 1), (-0.12599249, 1.4932324e-7, 0.9920313), (3.913376e-7, -0.09003194, 0.9959389), (-0.19524853, 2.2981689e-7, 0.9807538), (-0.12599249, 1.4932324e-7, 0.9920313), (-0.061057612, 7.1867746e-8, 0.99813426), (-0.12599249, 1.4932324e-7, 0.9920313), (-0.19524853, 2.2981689e-7, 0.9807538), (-0.53412116, 3.494353e-7, 0.8454079), (-0.075288914, -0.38873175, 0.9182696), (3.913376e-7, -0.09003194, 0.9959389), (0, -0.19521043, 0.9807614), (0, 0, 1), (0, 0, 1), (3.913376e-7, -0.09003194, 0.9959389), (-0.19524853, 0, 0.9807538), (-0.53412116, 3.494353e-7, 0.8454079), (-0.19451346, -0.08559496, 0.9771581), (-0.19451346, -0.08559496, 0.9771581), (-0.3957337, -0.4251612, 0.81402266), (-0.075288914, -0.38873175, 0.9182696), (-0.53412116, 3.494353e-7, 0.8454079), (-0.52415, -0.06746028, 0.8489498), (-0.19451346, -0.08559496, 0.9771581), (-0.19451346, -0.08559496, 0.9771581), (-0.52415, -0.06746028, 0.8489498), (-0.3957337, -0.4251612, 0.81402266), (0.35899782, -0.93333846, -1.4101639e-7), (0.44717625, -0.89433557, -0.014048314), (0.8436811, -0.53684485, -6.2865445e-7), (0.8436811, -0.53684485, -6.2865445e-7), (0.53689975, -0.84364605, 1.4090644e-7), (0.35899782, -0.93333846, -1.4101639e-7), (0.8781059, -0.4727938, -0.073457606), (0.8436811, -0.53684485, -6.2865445e-7), (0.44717625, -0.89433557, -0.014048314), (0.53689975, -0.84364605, 1.4090644e-7), (0.8436811, -0.53684485, -6.2865445e-7), (0.933329, -0.3590224, 5.246418e-7), (0.9778312, -0.19560365, -0.07473607), (0.8436811, -0.53684485, -6.2865445e-7), (0.8781059, -0.4727938, -0.073457606), (0.8114311, -0.39606985, -0.42977712), (0.9778312, -0.19560365, -0.07473607), (0.8781059, -0.4727938, -0.073457606), (0.9778312, -0.19560365, -0.07473607), (0.8114311, -0.39606985, -0.42977712), (0.9167616, -0.072538085, -0.39279324), (0.98058075, -0.1961158, -5.221209e-7), (0.933329, -0.3590224, 5.246418e-7), (0.8436811, -0.53684485, -6.2865445e-7), (0.9778312, -0.19560365, -0.07473607), (0.98058075, -0.1961158, -5.221209e-7), (0.8436811, -0.53684485, -6.2865445e-7), (0.97982407, 0, -0.19986172), (0.97982407, 0, -0.19986172), (0.9167616, -0.072538085, -0.39279324), (0.8923852, -8.113968e-7, -0.4512744), (0.97982407, 0, -0.19986172), (0.9167616, -0.072538085, -0.39279324), (0.9999987, 0, -0.0016694088), (0.9999987, 0, -0.0016694088), (0.9999987, 0, -0.0016694088), (0.9999987, 0, -0.0016694088), (1, -4.764891e-8, -0.0000676283), (0.9999987, 0, -0.0016694088), (0.9968719, -9.798783e-7, -0.07903449), (0.9968848, -0.0000011814819, -0.07887173), (0.8923852, -8.113968e-7, -0.4512744), (0.9968719, -9.798783e-7, -0.07903449), (1, -4.764891e-8, -0.0000676283), (0.9968848, -0.0000011814819, -0.07887173), (0.8923852, -8.113968e-7, -0.4512744), (0.89214414, -7.03077e-7, -0.4517508), (0.9968719, -9.798783e-7, -0.07903449), (0.97981095, 0, -0.19992675), (0.9968719, -9.798783e-7, -0.07903449), (0.97981095, 0, -0.19992675), (1, -4.764891e-8, -0.0000676283), (0.9958999, -0.09046224, -4.7100208e-8), (0.9958999, -0.09046224, -4.7100208e-8), (0.9958999, -0.09046224, -4.7100208e-8), (0.9958999, -0.09046224, -4.7100208e-8), (0.933329, -0.3590224, 5.246418e-7), (0.99304855, 0.09967796, -0.06260105), (0.9968719, -9.798783e-7, -0.07903449), (0.9759475, 0.088715084, -0.19913842), (0.81138533, 0.3961458, -0.42979336), (0.99304855, 0.09967796, -0.06260105), (0.9759475, 0.088715084, -0.19913842), (0.99304855, 0.09967796, -0.06260105), (0.81138533, 0.3961458, -0.42979336), (0.84745485, 0.527664, -0.058233146), (0.9333645, 0.3589299, -4.945506e-7), (0.99304855, 0.09967796, -0.06260105), (0.84745485, 0.527664, -0.058233146), (0.99304855, 0.09967796, -0.06260105), (1, -7.8739686e-7, -2.872945e-7), (0.9968719, -9.798783e-7, -0.07903449), (1, -7.8739686e-7, -2.872945e-7), (1, -7.8469964e-7, -5.16839e-7), (0.9968719, -9.798783e-7, -0.07903449), (0.99304855, 0.09967796, -0.06260105), (0.9333645, 0.3589299, -4.945506e-7), (0.99827844, 0.058653314, -3.548748e-7), (0.99827844, 0.058653314, -3.548748e-7), (1, -7.8739686e-7, -2.872945e-7), (0.99304855, 0.09967796, -0.06260105), (1, -7.8739686e-7, -2.872945e-7), (1, -7.90116e-7, -4.960185e-8), (1, -7.8469964e-7, -5.16839e-7), (1, 0, -4.9601848e-8), (1, -7.8469964e-7, -5.16839e-7), (1, -7.846972e-7, 4.4907802e-7), (0.99827844, 0.058653314, -3.548748e-7), (1, -7.7958424e-7, 9.0915466e-7), (1, -7.8739686e-7, -2.872945e-7), (1, -7.8739686e-7, -2.872945e-7), (1, -7.7958424e-7, 9.0915466e-7), (1, -7.846972e-7, 4.4907802e-7), (0.9333645, 0.3589299, -4.945506e-7), (0.9922906, 0.12393347, 2.740949e-7), (0.99827844, 0.058653314, -3.548748e-7), (0.99827844, 0.058653314, -3.548748e-7), (0.9922906, 0.12393347, 2.740949e-7), (1, -7.7958424e-7, 9.0915466e-7), (0.9922906, 0.12393347, 2.740949e-7), (0.9333645, 0.3589299, -4.945506e-7), (0.84370196, 0.5368119, 5.507484e-7), (0.4472422, 0.8944129, -2.0870402e-7), (0.84370196, 0.5368119, 5.507484e-7), (0.9333645, 0.3589299, -4.945506e-7), (0.84370196, 0.5368119, 5.507484e-7), (0.4472422, 0.8944129, -2.0870402e-7), (0.44716898, 0.8944495, 1.7657786e-7), (0.44711596, 0.8943655, 0.014062217), (0.84370196, 0.5368119, 5.507484e-7), (0.44716898, 0.8944495, 1.7657786e-7), (0.84370196, 0.5368119, 5.507484e-7), (0.44711596, 0.8943655, 0.014062217), (0.87809515, 0.47281948, 0.073422), (0.84370196, 0.5368119, 5.507484e-7), (0.9930486, 0.09968684, 0.062585734), (0.9922906, 0.12393347, 2.740949e-7), (0.87809515, 0.47281948, 0.073422), (0.9930486, 0.09968684, 0.062585734), (0.84370196, 0.5368119, 5.507484e-7), (0.9930486, 0.09968684, 0.062585734), (1, -7.7958424e-7, 9.0915466e-7), (0.9922906, 0.12393347, 2.740949e-7), (0.8114394, 0.3960383, 0.4297905), (0.9930486, 0.09968684, 0.062585734), (0.87809515, 0.47281948, 0.073422), (0.9930486, 0.09968684, 0.062585734), (0.8114394, 0.3960383, 0.4297905), (0.97819823, 0.0574994, 0.19955483), (0.97819823, 0.0574994, 0.19955483), (0.99360144, -0.0000015890756, 0.11294389), (0.9930486, 0.09968684, 0.062585734), (1, -7.7958424e-7, 9.0915466e-7), (0.9930486, 0.09968684, 0.062585734), (0.99360144, -0.0000015890756, 0.11294389), (0.99360144, -0.0000015890756, 0.11294389), (0.97819823, 0.0574994, 0.19955483), (0.97981924, -0.0000013969141, 0.19988552), (0.97981924, -0.0000013969141, 0.19988552), (0.89239746, -0.0000015070183, 0.4512502), (0.99360144, -0.0000015890756, 0.11294389), (0.99876803, -0.0000013321904, 0.049622897), (1, -7.7958424e-7, 9.0915466e-7), (0.99360144, -0.0000015890756, 0.11294389), (0.99360144, -0.0000015890756, 0.11294389), (0.89239746, -0.0000015070183, 0.4512502), (0.99876803, -0.0000013321904, 0.049622897), (1, -7.7958424e-7, 9.0915466e-7), (0.99876803, -0.0000013321904, 0.049622897), (1, -7.846972e-7, 4.4907802e-7), (0.99876803, -0.0000013321904, 0.049622897), (0.89239746, -0.0000015070183, 0.4512502), (0.91678935, -0.07241735, 0.3927506), (1, -7.846972e-7, 4.4907802e-7), (0.99876803, -0.0000013321904, 0.049622897), (0.99999857, 0, 0.0017122674), (0.9798325, 0, 0.19982055), (0.91678935, -0.07241735, 0.3927506), (0.9894901, -0.122617446, 0.07664477), (1, -7.846972e-7, 4.4907802e-7), (0.9894901, -0.122617446, 0.07664477), (0.995898, -0.09046784, 0.0017052462), (0.81148493, -0.39601824, 0.4297229), (0.9894901, -0.122617446, 0.07664477), (0.91678935, -0.07241735, 0.3927506), (0.995898, -0.09046784, 0.0017052462), (0.9894901, -0.122617446, 0.07664477), (0.933329, -0.3590224, 5.246418e-7), (0.9894901, -0.122617446, 0.07664477), (0.81148493, -0.39601824, 0.4297229), (0.87810117, -0.4728081, 0.07342199), (0.9894901, -0.122617446, 0.07664477), (0.87810117, -0.4728081, 0.07342199), (0.933329, -0.3590224, 5.246418e-7)] (
        interpolation = "faceVarying"
    )
    point3f[] points = [(-0.00955603, 0.049883485, -1.5559618), (-0.009889892, 0.04948859, -1.5562719), (-0.009889359, 0.04955023, -1.5559618), (-0.009556907, 0.049784835, -1.556458), (-0.009001488, 0.049883485, -1.5565201), (-0.009557404, 0.04948859, -1.5567559), (-0.00900206, 0.04955023, -1.5568553), (-0.009557556, 0.04899466, -1.5568553), (-0.009890198, 0.049303345, -1.556458), (-0.009890274, 0.04899466, -1.5565201), (0.009886298, 0.04955023, -1.5559622), (0.0094903335, 0.049883485, -1.5562719), (0.009553047, 0.049883485, -1.5559622), (0.009786086, 0.04955023, -1.556458), (0.009550796, 0.04899466, -1.5568553), (0.009489342, 0.04955023, -1.5567559), (0.009884658, 0.04899466, -1.5565203), (0.008996597, 0.049883485, -1.5565203), (0.009304901, 0.049883485, -1.556458), (0.008996063, 0.04955023, -1.5568553), (-0.009890007, -0.049488463, -1.5562723), (-0.009556183, -0.04988359, -1.5559618), (-0.009889473, -0.049550105, -1.5559618), (-0.009557022, -0.049784787, -1.556458), (-0.009557518, -0.049488463, -1.5567559), (-0.009001641, -0.04988359, -1.5565201), (-0.009002174, -0.049550105, -1.5568553), (-0.009557709, -0.048994765, -1.5568553), (-0.009890274, -0.04930322, -1.556458), (-0.009890389, -0.048994765, -1.5565201), (0.009886222, -0.049550183, -1.5559622), (0.009490257, -0.04988359, -1.5562723), (0.009785973, -0.049550183, -1.556458), (0.009552894, -0.04988359, -1.5559622), (0.009884582, -0.048994765, -1.5565203), (0.0095507195, -0.048994765, -1.5568553), (0.009489227, -0.049550183, -1.5567563), (0.00899591, -0.049550183, -1.5568553), (0.009304786, -0.04988359, -1.556458), (0.008996482, -0.04988359, -1.5565203), (-0.009555802, 0.049883563, 1.5559653), (-0.009889664, 0.049488436, 1.5562755), (-0.009556679, 0.049784683, 1.5564616), (-0.00988913, 0.04955023, 1.5559653), (-0.009001259, 0.049883563, 1.5565237), (-0.0095571745, 0.049488436, 1.5567594), (-0.0090018315, 0.04955023, 1.5568585), (-0.009889969, 0.04930327, 1.5564616), (-0.009890045, 0.04899474, 1.5565237), (-0.009557327, 0.04899474, 1.5568585), (0.009490485, 0.049883563, 1.5562755), (0.009886451, 0.04955023, 1.5559653), (0.009553161, 0.049883563, 1.5559653), (0.009786239, 0.04955023, 1.5564616), (0.009489456, 0.04955023, 1.5567594), (0.009550949, 0.04899474, 1.5568585), (0.009884811, 0.04899474, 1.5565237), (0.008996711, 0.049883563, 1.5565237), (0.008996177, 0.04955023, 1.5568585), (0.009305053, 0.049883563, 1.5564616), (-0.009555954, -0.04988359, 1.5559652), (-0.009889778, -0.049488463, 1.5562754), (-0.009889244, -0.049550183, 1.5559652), (-0.009556794, -0.049784787, 1.5564616), (-0.0090014115, -0.04988359, 1.5565236), (-0.009557251, -0.049488463, 1.5567594), (-0.009001945, -0.049550183, 1.5568585), (-0.009557442, -0.048994765, 1.5568585), (-0.009890045, -0.04930322, 1.5564616), (-0.00989016, -0.048994765, 1.5565236), (0.009550834, -0.048994686, 1.5568585), (0.009786124, -0.049550183, 1.5564616), (0.009884696, -0.048994686, 1.5565236), (0.00948938, -0.049550183, 1.5567594), (0.008996063, -0.049550183, 1.5568585), (0.009304901, -0.04988351, 1.5564616), (0.008996635, -0.04988351, 1.5565236), (0.00949041, -0.04988351, 1.5562754), (0.0098863365, -0.049550183, 1.5559652), (0.009553009, -0.04988351, 1.5559652), (0.009887863, -0.049550183, 1.5550654), (0.009554534, -0.04988351, 1.5550654), (-0.010000442, 0.04899466, -1.5559618), (-0.009998955, 0.04899466, -1.5550619), (-0.00988787, 0.04955023, -1.5550619), (-0.010000442, 0.048327394, -1.5559618), (-0.010000442, 0.04899466, -1.5559618), (-0.010000442, 0.048327394, -1.5559618), (-0.009890274, 0.048327394, -1.5565201), (-0.009557556, 0.048327394, -1.5568553), (-0.009557709, -0.048327267, -1.5568553), (-0.009890389, -0.048327267, -1.5565201), (-0.010000595, -0.048327267, -1.5559618), (-0.009998955, 0.048327394, -1.5550619), (-0.009998955, 0.04899466, -1.5550619), (-0.009998955, 0.048327394, -1.5550619), (-0.010000595, -0.048994765, -1.5559618), (-0.009999108, -0.048327267, -1.5550619), (-0.009999108, -0.048994765, -1.5550619), (-0.009887985, -0.049550105, -1.5550619), (-0.009554695, -0.04988359, -1.5550619), (-0.00999884, -0.048327267, 1.5550654), (-0.00999884, -0.048994765, 1.5550654), (-0.009887719, -0.049550183, 1.5550654), (-0.009554466, -0.04988359, 1.5550654), (-0.009998726, 0.04832732, 1.5550654), (-0.009998955, 0.04899466, -1.5550619), (-0.010000366, -0.048994765, 1.5559652), (-0.010000366, -0.048327267, 1.5559652), (-0.00989016, -0.048327267, 1.5565236), (-0.009557442, -0.048327267, 1.5568585), (-0.010000214, 0.04832732, 1.5559653), (-0.009890045, 0.04832732, 1.5565237), (-0.009557327, 0.04832732, 1.5568585), (-0.009557327, 0.04899474, 1.5568585), (-0.009557327, 0.04832732, 1.5568585), (-0.009557327, 0.04899474, 1.5568585), (-0.010000214, 0.04899474, 1.5559653), (-0.010000214, 0.04832732, 1.5559653), (-0.010000214, 0.04899474, 1.5559653), (-0.010000214, 0.04832732, 1.5559653), (-0.009998726, 0.04899474, 1.5550654), (-0.009998726, 0.04832732, 1.5550654), (-0.009998726, 0.04899474, 1.5550654), (-0.010000214, 0.04899474, 1.5559653), (-0.009998726, 0.04832732, 1.5550654), (-0.009998726, 0.04899474, 1.5550654), (-0.009887642, 0.04955023, 1.5550654), (-0.009554581, 0.049883485, -1.5550619), (-0.009554352, 0.049883563, 1.5550654), (0.008997512, 0.049994722, -1.5559622), (0.008371559, 0.049994722, -1.5559622), (0.0083706435, 0.049883485, -1.5565203), (0.008999, 0.049994722, -1.5550623), (0.008373046, 0.049994722, -1.5550623), (0.009554534, 0.049883485, -1.5550623), (0.009887825, 0.04955023, -1.5550623), (0.008999153, 0.04999457, 1.5550655), (0.009554687, 0.049883563, 1.5550655), (0.008373199, 0.04999457, 1.5550655), (0.008997627, 0.04999457, 1.5559653), (-0.008373093, 0.049994722, -1.5550619), (0.0083716735, 0.04999457, 1.5559653), (0.008370758, 0.049883563, 1.5565237), (-0.008372864, 0.04999457, 1.5550654), (-0.008374389, 0.04999457, 1.5559653), (-0.008375305, 0.049883563, 1.5565237), (-0.008998818, 0.04999457, 1.5550654), (-0.009000343, 0.04999457, 1.5559653), (-0.008999084, 0.049994722, -1.5550619), (-0.008374618, 0.049994722, -1.5559618), (-0.009000572, 0.049994722, -1.5559618), (-0.008375534, 0.049883485, -1.5565201), (0.008370109, 0.04955023, -1.5568553), (-0.008376107, 0.04955023, -1.5568553), (0.008995872, 0.04899466, -1.5569669), (0.009884658, 0.048327394, -1.5565203), (0.009884658, 0.04899466, -1.5565203), (0.009884658, 0.048327394, -1.5565203), (0.009550796, 0.048327394, -1.5568553), (0.009550796, 0.04899466, -1.5568553), (0.009550796, 0.048327394, -1.5568553), (0.009884582, -0.04832734, -1.5565203), (0.008369881, 0.04899466, -1.5569669), (-0.008376297, 0.04899466, -1.5569667), (0.0095507195, -0.04832734, -1.5568553), (-0.009002251, 0.04899466, -1.5569667), (-0.009557556, 0.04899466, -1.5568553), (-0.009557556, 0.048327394, -1.5568553), (-0.009557556, 0.04899466, -1.5568553), (-0.009002251, 0.048327394, -1.5569667), (-0.009557556, 0.048327394, -1.5568553), (-0.008376297, 0.048327394, -1.5569667), (-0.009002365, -0.048327267, -1.5569667), (-0.008376411, -0.048327267, -1.5569667), (0.008369881, 0.048327394, -1.5569669), (0.008369881, 0.04899466, -1.5569669), (0.008369881, 0.048327394, -1.5569669), (0.008369881, 0.04899466, -1.5569669), (0.008369881, 0.048327394, -1.5569669), (-0.009002365, -0.048994765, -1.5569667), (-0.009002365, -0.048327267, -1.5569667), (-0.009002365, -0.048994765, -1.5569667), (-0.009002365, -0.048327267, -1.5569667), (-0.008376411, -0.048994765, -1.5569667), (-0.009002365, -0.048994765, -1.5569667), (-0.009002365, -0.048327267, -1.5569667), (-0.008376221, -0.049550105, -1.5568553), (0.008369766, -0.04832734, -1.5569669), (0.008369766, -0.048994765, -1.5569669), (0.008369956, -0.049550183, -1.5568553), (-0.008375687, -0.04988359, -1.5565201), (0.008370529, -0.04988359, -1.5565203), (0.008995719, -0.048994765, -1.5569669), (0.008995719, -0.04832734, -1.5569669), (0.008995719, -0.048994765, -1.5569669), (0.008995719, -0.04832734, -1.5569669), (0.008995872, 0.048327394, -1.5569669), (0.008997398, -0.049994595, -1.5559622), (0.008371444, -0.049994595, -1.5559622), (0.008998924, -0.049994595, -1.5550623), (0.0095543815, -0.04988359, -1.5550623), (0.008372932, -0.049994595, -1.5550623), (-0.008374771, -0.049994595, -1.5559618), (-0.008373246, -0.049994595, -1.5550619), (0.0083730845, -0.049994595, 1.5550654), (0.0089990385, -0.049994595, 1.5550654), (0.00899755, -0.049994595, 1.5559652), (0.008371597, -0.049994595, 1.5559652), (0.008370682, -0.04988351, 1.5565236), (-0.0083730165, -0.049994595, 1.5550654), (-0.008374466, -0.049994595, 1.5559652), (-0.008375419, -0.04988359, 1.5565236), (-0.008998932, -0.049994595, 1.5550654), (-0.00900042, -0.049994595, 1.5559652), (-0.0089991605, -0.049994595, -1.5550619), (-0.009000649, -0.049994595, -1.5559618), (0.009884811, 0.048327394, 1.5565237), (0.009884811, 0.04899474, 1.5565237), (0.009884811, 0.048327394, 1.5565237), (0.009550949, 0.048327394, 1.5568585), (0.009884696, -0.04832734, 1.5565236), (0.008995987, 0.04899474, 1.5569701), (0.009550949, 0.04899474, 1.5568585), (0.009550949, 0.048327394, 1.5568585), (0.009550834, -0.04832734, 1.5568585), (0.008995987, 0.048327394, 1.5569701), (0.008370223, 0.04955023, 1.5568585), (0.0083700325, 0.04899474, 1.5569701), (-0.0083758775, 0.04955023, 1.5568585), (0.0083700325, 0.048327394, 1.5569701), (0.0083700325, 0.04899474, 1.5569701), (-0.008376068, 0.04899474, 1.5569701), (0.0083700325, 0.048327394, 1.5569701), (0.0083700325, 0.04899474, 1.5569701), (-0.0090020215, 0.04899474, 1.5569701), (-0.009557327, 0.04832732, 1.5568585), (-0.0090020215, 0.04832732, 1.5569701), (0.0083700325, 0.048327394, 1.5569701), (-0.008376068, 0.04832732, 1.5569701), (0.008995834, -0.04832734, 1.5569701), (0.008369881, -0.04832734, 1.5569701), (0.008995834, -0.048994686, 1.5569701), (0.008995834, -0.04832734, 1.5569701), (0.008995834, -0.048994686, 1.5569701), (0.008370071, -0.049550183, 1.5568585), (0.008369881, -0.048994686, 1.5569701), (-0.008375954, -0.049550183, 1.5568585), (-0.008376183, -0.048327267, 1.5569701), (-0.008376183, -0.048994765, 1.5569701), (-0.009002136, -0.048327267, 1.5569701), (-0.009002136, -0.048994765, 1.5569701), (-0.009002136, -0.048327267, 1.5569701), (-0.009002136, -0.048994765, 1.5569701), (-0.009002136, -0.048327267, 1.5569701), (-0.009002136, -0.048994765, 1.5569701), (0.00988771, -0.049550183, -1.5550623), (0.009997306, -0.048994765, -1.5559622), (0.009998794, -0.048994765, -1.5550623), (0.009997306, -0.04832734, -1.5559622), (0.009997306, -0.048994765, -1.5559622), (0.009997306, -0.04832734, -1.5559622), (0.009998794, -0.04832734, -1.5550623), (0.009998794, -0.048994765, -1.5550623), (0.009997306, -0.048994765, -1.5559622), (0.009997306, -0.04832734, -1.5559622), (0.009998794, -0.04832734, -1.5550623), (0.009997306, -0.048994765, -1.5559622), (0.009997421, 0.048327394, -1.5559622), (0.009997306, -0.04832734, -1.5559622), (0.009884658, 0.04899466, -1.5565203), (0.009884658, 0.048327394, -1.5565203), (0.009998946, -0.048994686, 1.5550654), (0.009998794, -0.048994765, -1.5550623), (0.009997421, 0.04899466, -1.5559622), (0.009884658, 0.04899466, -1.5565203), (0.00999887, 0.048327394, -1.5550623), (0.009998794, -0.04832734, -1.5550623), (0.00999887, 0.04899466, -1.5550623), (0.009998946, -0.04832734, 1.5550654), (0.009998946, -0.048994686, 1.5550654), (0.009998946, -0.04832734, 1.5550654), (0.009999023, 0.048327394, 1.5550655), (0.009999023, 0.04899474, 1.5550655), (0.009887939, 0.04955023, 1.5550655), (0.009997574, 0.04899474, 1.5559653), (0.009884811, 0.04899474, 1.5565237), (0.009997574, 0.048327394, 1.5559653), (0.009884811, 0.048327394, 1.5565237), (0.009997421, -0.04832734, 1.5559652), (0.009997421, -0.048994686, 1.5559652), (0.009997421, -0.04832734, 1.5559652), (0.009997421, -0.048994686, 1.5559652), (0.009998946, -0.048994686, 1.5550654)]
}

