#usda 1.0
(
    defaultPrim = "SM_Kitchen_Island_Cover_4_1_0_0_874_1_0"
    upAxis = "Z"
)

def Mesh "SM_Kitchen_Island_Cover_4_1_0_0_874_1_0"
{
    int[] faceVertexCounts = [3, 3, 3, 3, 3, 3, 3, 3, 3, 3, 3, 3, 3, 3, 3, 3, 3, 3, 3, 3, 3, 3, 3, 3, 3, 3, 3, 3, 3, 3, 3, 3, 3, 3, 3, 3, 3, 3, 3, 3, 3, 3, 3, 3, 3, 3, 3, 3, 3, 3, 3, 3, 3, 3, 3, 3, 3, 3, 3, 3, 3, 3, 3, 3, 3, 3, 3, 3, 3, 3, 3, 3, 3, 3, 3, 3, 3, 3, 3, 3, 3, 3, 3, 3, 3, 3, 3, 3, 3, 3, 3, 3, 3, 3, 3, 3, 3, 3, 3, 3, 3, 3, 3, 3, 3, 3, 3, 3, 3, 3, 3, 3, 3, 3, 3, 3, 3, 3, 3, 3, 3, 3, 3, 3, 3, 3, 3, 3, 3, 3, 3, 3, 3, 3, 3, 3, 3, 3, 3, 3, 3, 3, 3, 3, 3, 3, 3, 3, 3, 3, 3, 3, 3, 3, 3, 3, 3, 3, 3, 3, 3, 3, 3, 3, 3, 3, 3, 3, 3, 3, 3, 3, 3, 3, 3, 3, 3, 3, 3, 3, 3, 3, 3, 3, 3, 3, 3, 3, 3, 3, 3, 3, 3, 3, 3, 3, 3, 3, 3, 3, 3, 3, 3, 3, 3, 3, 3, 3, 3, 3, 3, 3, 3, 3, 3, 3, 3, 3, 3, 3, 3, 3, 3, 3, 3, 3, 3, 3, 3, 3, 3, 3, 3, 3, 3, 3, 3, 3, 3, 3, 3, 3, 3, 3, 3, 3, 3, 3, 3, 3, 3, 3, 3, 3, 3, 3, 3, 3, 3, 3, 3, 3, 3, 3, 3, 3, 3, 3, 3, 3, 3, 3, 3, 3, 3, 3, 3, 3, 3, 3, 3, 3, 3, 3, 3, 3, 3, 3, 3, 3, 3, 3, 3, 3, 3, 3, 3, 3, 3, 3, 3, 3, 3, 3, 3, 3, 3, 3, 3, 3, 3, 3, 3, 3, 3, 3, 3, 3, 3, 3, 3, 3, 3, 3, 3, 3, 3, 3, 3, 3, 3, 3, 3, 3, 3, 3, 3, 3, 3, 3, 3, 3, 3, 3, 3, 3, 3, 3, 3, 3, 3, 3, 3, 3, 3, 3, 3, 3, 3, 3, 3, 3, 3, 3, 3, 3, 3, 3, 3, 3, 3, 3, 3, 3, 3, 3, 3, 3, 3, 3, 3, 3, 3, 3, 3, 3, 3, 3, 3, 3, 3, 3, 3, 3, 3, 3, 3, 3, 3, 3, 3, 3, 3, 3, 3, 3, 3, 3, 3, 3, 3, 3, 3, 3, 3, 3, 3, 3, 3, 3, 3, 3, 3, 3, 3, 3, 3, 3, 3, 3, 3, 3, 3, 3, 3, 3, 3, 3, 3, 3, 3, 3, 3, 3]
    int[] faceVertexIndices = [0, 1, 2, 1, 0, 3, 4, 5, 3, 5, 4, 6, 5, 7, 8, 8, 7, 9, 10, 11, 12, 11, 10, 13, 14, 15, 12, 12, 16, 14, 17, 18, 19, 18, 15, 19, 20, 21, 22, 21, 20, 23, 24, 25, 26, 25, 24, 23, 27, 25, 28, 27, 28, 29, 30, 31, 32, 31, 30, 33, 34, 32, 35, 35, 32, 36, 37, 36, 38, 37, 38, 39, 40, 41, 42, 41, 40, 43, 44, 45, 46, 45, 44, 42, 47, 48, 49, 47, 49, 45, 50, 51, 52, 51, 50, 53, 54, 55, 53, 53, 55, 56, 57, 58, 59, 59, 58, 54, 60, 58, 57, 58, 60, 61, 62, 63, 64, 63, 62, 65, 66, 67, 68, 67, 66, 65, 69, 70, 66, 70, 69, 71, 72, 73, 74, 73, 72, 75, 75, 76, 77, 77, 76, 78, 1, 3, 5, 8, 1, 5, 79, 1, 8, 79, 2, 1, 79, 8, 9, 2, 79, 80, 81, 2, 80, 9, 82, 79, 79, 82, 80, 82, 9, 83, 7, 83, 9, 83, 7, 84, 84, 85, 83, 85, 84, 86, 86, 27, 85, 85, 27, 29, 87, 83, 85, 85, 29, 87, 83, 87, 82, 87, 29, 88, 88, 29, 28, 89, 82, 87, 88, 28, 20, 25, 20, 28, 23, 20, 25, 88, 20, 22, 87, 88, 90, 88, 22, 90, 89, 87, 90, 90, 22, 91, 91, 22, 21, 91, 21, 92, 93, 89, 90, 94, 91, 92, 94, 92, 95, 62, 94, 95, 94, 62, 64, 96, 90, 91, 96, 91, 94, 64, 96, 94, 93, 90, 96, 96, 64, 97, 97, 64, 63, 66, 63, 65, 63, 66, 70, 97, 63, 70, 97, 70, 71, 98, 96, 97, 98, 97, 71, 98, 93, 96, 99, 98, 71, 99, 71, 69, 69, 100, 99, 98, 101, 93, 100, 102, 99, 102, 100, 103, 49, 102, 103, 48, 102, 49, 99, 104, 98, 104, 99, 102, 48, 104, 102, 101, 98, 104, 48, 105, 104, 105, 48, 47, 42, 47, 45, 47, 42, 41, 105, 47, 41, 105, 41, 43, 106, 104, 105, 43, 106, 105, 104, 106, 101, 43, 107, 106, 81, 106, 107, 106, 81, 80, 106, 80, 101, 108, 101, 80, 108, 93, 101, 80, 82, 108, 93, 108, 89, 82, 89, 108, 18, 12, 15, 12, 18, 10, 109, 10, 18, 109, 18, 17, 109, 13, 10, 17, 110, 109, 109, 111, 13, 110, 17, 112, 19, 112, 17, 112, 19, 113, 114, 109, 110, 109, 114, 111, 113, 115, 112, 115, 113, 116, 112, 117, 110, 117, 112, 115, 4, 116, 6, 116, 4, 115, 118, 110, 117, 110, 118, 114, 119, 115, 4, 115, 119, 117, 3, 119, 4, 119, 3, 0, 117, 120, 118, 120, 117, 119, 2, 81, 0, 0, 121, 119, 0, 81, 121, 119, 121, 120, 122, 121, 81, 81, 107, 122, 123, 120, 121, 121, 122, 123, 107, 43, 40, 40, 122, 107, 122, 40, 124, 123, 122, 124, 42, 124, 40, 124, 42, 44, 125, 44, 46, 44, 125, 126, 126, 124, 44, 61, 126, 125, 126, 61, 60, 124, 126, 127, 60, 127, 126, 127, 123, 124, 127, 60, 128, 57, 128, 60, 123, 127, 129, 128, 129, 127, 129, 120, 123, 120, 129, 118, 129, 114, 118, 129, 128, 130, 114, 129, 130, 128, 57, 131, 131, 130, 128, 131, 57, 59, 114, 130, 132, 130, 131, 132, 132, 111, 114, 53, 59, 54, 59, 53, 50, 131, 59, 50, 131, 50, 52, 132, 131, 52, 133, 132, 52, 133, 111, 132, 111, 133, 134, 13, 111, 134, 135, 134, 133, 134, 11, 13, 134, 135, 136, 11, 134, 136, 32, 38, 36, 38, 32, 31, 137, 38, 31, 137, 39, 38, 137, 31, 33, 138, 39, 137, 39, 138, 139, 140, 137, 33, 141, 140, 33, 142, 140, 141, 143, 137, 140, 137, 143, 138, 140, 142, 144, 144, 143, 140, 145, 144, 142, 146, 138, 143, 147, 144, 145, 147, 145, 148, 143, 144, 149, 147, 149, 144, 149, 146, 143, 147, 148, 77, 73, 77, 148, 77, 73, 75, 147, 77, 78, 78, 150, 147, 149, 147, 150, 150, 78, 151, 150, 152, 149, 152, 146, 149, 151, 153, 150, 152, 150, 153, 153, 151, 154, 152, 155, 146, 154, 156, 153, 156, 154, 67, 65, 156, 67, 156, 65, 62, 62, 95, 156, 153, 157, 152, 157, 153, 156, 156, 95, 157, 155, 152, 157, 95, 155, 157, 155, 95, 92, 155, 92, 158, 92, 21, 158, 23, 158, 21, 158, 23, 24, 159, 158, 24, 160, 155, 158, 158, 159, 160, 155, 160, 146, 139, 160, 159, 138, 146, 160, 160, 139, 138, 148, 161, 73, 161, 148, 145, 142, 161, 145, 161, 142, 162, 52, 135, 133, 135, 52, 51, 51, 163, 135, 53, 163, 51, 163, 53, 56, 135, 163, 164, 164, 136, 135, 56, 165, 163, 165, 56, 166, 166, 167, 165, 163, 168, 164, 168, 163, 165, 165, 167, 169, 169, 168, 165, 169, 167, 74, 170, 164, 168, 136, 164, 170, 169, 74, 171, 73, 171, 74, 171, 73, 161, 171, 161, 162, 172, 169, 171, 168, 169, 172, 173, 171, 162, 172, 171, 173, 174, 168, 172, 170, 168, 174, 173, 175, 172, 174, 172, 175, 176, 173, 162, 175, 173, 176, 170, 174, 177, 177, 136, 170, 136, 177, 11, 177, 12, 11, 12, 177, 16, 177, 174, 178, 177, 178, 16, 174, 175, 178, 16, 178, 179, 180, 179, 178, 178, 175, 180, 179, 180, 181, 181, 180, 34, 180, 175, 182, 180, 182, 34, 175, 176, 182, 182, 32, 34, 32, 182, 30, 182, 176, 183, 182, 183, 30, 176, 162, 183, 30, 183, 33, 142, 183, 162, 141, 33, 183, 183, 142, 141, 179, 14, 16, 14, 179, 184, 181, 184, 179, 181, 34, 35, 14, 184, 185, 15, 14, 185, 19, 15, 185, 185, 113, 19, 184, 181, 186, 35, 186, 181, 185, 184, 187, 186, 187, 184, 113, 185, 188, 188, 116, 113, 185, 187, 189, 188, 185, 189, 187, 186, 190, 190, 189, 187, 186, 35, 191, 190, 186, 191, 191, 35, 36, 191, 36, 37, 139, 37, 39, 37, 139, 192, 192, 191, 37, 159, 192, 139, 191, 193, 190, 189, 190, 193, 191, 192, 194, 193, 191, 194, 192, 159, 195, 195, 194, 192, 24, 195, 159, 195, 24, 26, 194, 195, 196, 26, 196, 195, 196, 193, 194, 196, 26, 197, 25, 197, 26, 197, 25, 27, 86, 197, 27, 198, 197, 86, 198, 196, 197, 84, 198, 86, 193, 196, 199, 198, 199, 196, 189, 193, 199, 200, 198, 84, 200, 199, 198, 199, 201, 189, 201, 199, 200, 189, 201, 188, 84, 202, 200, 202, 84, 7, 5, 202, 7, 6, 202, 5, 200, 203, 201, 203, 200, 202, 203, 188, 201, 6, 203, 202, 116, 188, 203, 203, 6, 116, 55, 166, 56, 166, 55, 204, 204, 167, 166, 167, 72, 74, 205, 204, 55, 54, 205, 55, 58, 205, 54, 61, 205, 58, 167, 204, 206, 206, 72, 167, 204, 205, 207, 207, 206, 204, 205, 61, 208, 125, 208, 61, 205, 209, 207, 205, 208, 209, 206, 207, 210, 209, 210, 207, 208, 125, 211, 211, 209, 208, 46, 211, 125, 210, 209, 212, 211, 46, 213, 46, 45, 213, 45, 49, 213, 213, 49, 103, 209, 211, 214, 214, 212, 209, 213, 215, 211, 211, 215, 214, 213, 103, 215, 215, 216, 214, 212, 214, 216, 103, 217, 215, 216, 215, 217, 217, 103, 100, 216, 218, 212, 217, 100, 219, 100, 69, 219, 219, 69, 66, 219, 66, 68, 216, 217, 220, 217, 219, 220, 68, 220, 219, 218, 216, 220, 220, 68, 221, 221, 218, 220, 67, 221, 68, 221, 67, 154, 154, 222, 221, 218, 221, 222, 222, 154, 151, 76, 151, 78, 151, 76, 222, 222, 223, 218, 223, 222, 76, 223, 212, 218, 75, 223, 76, 212, 223, 210, 223, 75, 72, 206, 210, 223, 206, 223, 72]
    normal3f[] normals = [(-0.5279733, 0.048221175, 0.8478908), (-0.8413506, 0.21534765, 0.4957362), (-0.92686164, 0.012787874, 0.3751852), (-0.8413506, 0.21534765, 0.4957362), (-0.5279733, 0.048221175, 0.8478908), (-0.40212432, 0.307231, 0.8624993), (-0.09952537, 0.4804966, 0.871331), (-0.43215322, 0.7730821, 0.46431422), (-0.40212432, 0.307231, 0.8624993), (-0.43215322, 0.7730821, 0.46431422), (-0.09952537, 0.4804966, 0.871331), (-0.084472604, 0.89591974, 0.43611032), (-0.43215322, 0.7730821, 0.46431422), (-0.57731205, 0.81313336, 0.0743301), (-0.8807939, 0.43562126, 0.18556973), (-0.8807939, 0.43562126, 0.18556973), (-0.57731205, 0.81313336, 0.0743301), (-0.94156784, 0.33617637, 0.020866787), (0.48738948, 0.15938994, 0.858514), (0.84778666, 0.050642766, 0.52791375), (0.830353, 0.3824372, 0.40528467), (0.84778666, 0.050642766, 0.52791375), (0.48738948, 0.15938994, 0.858514), (0.3753114, 0.014825801, 0.9267802), (0.5823385, 0.80654895, 0.10178718), (0.3813181, 0.8157347, 0.43494064), (0.830353, 0.3824372, 0.40528467), (0.830353, 0.3824372, 0.40528467), (0.93450505, 0.3482017, 0.07386386), (0.5823385, 0.80654895, 0.10178718), (0.0219082, 0.33845237, 0.9407284), (0.2535785, 0.44323033, 0.8597934), (0.07721676, 0.8135383, 0.5763618), (0.2535785, 0.44323033, 0.8597934), (0.3813181, 0.8157347, 0.43494064), (0.07721676, 0.8135383, 0.5763618), (-0.8413534, 0.21542975, -0.49569592), (-0.52805436, 0.048303057, -0.8478357), (-0.92684054, 0.012800001, -0.37523717), (-0.52805436, 0.048303057, -0.8478357), (-0.8413534, 0.21542975, -0.49569592), (-0.40220478, 0.30727655, -0.86244565), (-0.09963547, 0.48057666, -0.87127423), (-0.4321684, 0.77306974, -0.46432066), (-0.08445917, 0.8959272, -0.43609762), (-0.4321684, 0.77306974, -0.46432066), (-0.09963547, 0.48057666, -0.87127423), (-0.40220478, 0.30727655, -0.86244565), (-0.57730377, 0.8131385, -0.07433872), (-0.4321684, 0.77306974, -0.46432066), (-0.8807788, 0.43561122, -0.18566516), (-0.57730377, 0.8131385, -0.07433872), (-0.8807788, 0.43561122, -0.18566516), (-0.9415683, 0.3361751, -0.020865135), (0.8786809, 0.06390933, -0.47311243), (0.48740387, 0.15938434, -0.85850686), (0.83034575, 0.38245568, -0.40528214), (0.48740387, 0.15938434, -0.85850686), (0.8786809, 0.06390933, -0.47311243), (0.44718832, 0.012217212, -0.8943565), (0.9345128, 0.34818098, -0.07386356), (0.83034575, 0.38245568, -0.40528214), (0.58230436, 0.8065752, -0.101774186), (0.58230436, 0.8065752, -0.101774186), (0.83034575, 0.38245568, -0.40528214), (0.3812942, 0.8157515, -0.43493015), (0.077201344, 0.8136026, -0.5762731), (0.3812942, 0.8157515, -0.43493015), (0.25359762, 0.44329333, -0.85975534), (0.077201344, 0.8136026, -0.5762731), (0.25359762, 0.44329333, -0.85975534), (0.021906136, 0.33831432, -0.9407782), (-0.5278839, -0.048336852, 0.8479399), (-0.85891026, -0.15704395, 0.48745304), (-0.43823603, -0.3236554, 0.838568), (-0.85891026, -0.15704395, 0.48745304), (-0.5278839, -0.048336852, 0.8479399), (-0.9268692, -0.012827846, 0.37516522), (-0.09967376, -0.48039016, 0.87137276), (-0.39976376, -0.79545957, 0.45544824), (-0.08453967, -0.89591986, 0.4360971), (-0.39976376, -0.79545957, 0.45544824), (-0.09967376, -0.48039016, 0.87137276), (-0.43823603, -0.3236554, 0.838568), (-0.8604819, -0.4419266, 0.25351858), (-0.94157946, -0.33614376, 0.02086379), (-0.577312, -0.8131321, 0.074342966), (-0.8604819, -0.4419266, 0.25351858), (-0.577312, -0.8131321, 0.074342966), (-0.39976376, -0.79545957, 0.45544824), (0.4873031, -0.15935935, 0.8585687), (0.8786874, -0.06391602, 0.47309956), (0.44709286, -0.012225613, 0.8944041), (0.8786874, -0.06391602, 0.47309956), (0.4873031, -0.15935935, 0.8585687), (0.8303671, -0.38244584, 0.40524772), (0.38132927, -0.8157398, 0.43492118), (0.58235127, -0.8065416, 0.10177201), (0.8303671, -0.38244584, 0.40524772), (0.8303671, -0.38244584, 0.40524772), (0.58235127, -0.8065416, 0.10177201), (0.9345007, -0.34821746, 0.073845774), (0.02190034, -0.33823782, 0.9408058), (0.07721931, -0.8135583, 0.57633334), (0.25354773, -0.44317654, 0.8598302), (0.25354773, -0.44317654, 0.8598302), (0.07721931, -0.8135583, 0.57633334), (0.38132927, -0.8157398, 0.43492118), (6.276246e-7, -0.32427436, 0.945963), (0.07721931, -0.8135583, 0.57633334), (0.02190034, -0.33823782, 0.9408058), (0.07721931, -0.8135583, 0.57633334), (6.276246e-7, -0.32427436, 0.945963), (5.765987e-7, -0.81308246, 0.5821485), (-0.527992, -0.04831165, -0.847874), (-0.8413462, -0.2154812, -0.4956858), (-0.9268472, -0.012790128, -0.37522078), (-0.8413462, -0.2154812, -0.4956858), (-0.527992, -0.04831165, -0.847874), (-0.40220523, -0.30729607, -0.8624385), (-0.43220323, -0.77305424, -0.46431386), (-0.09965525, -0.480514, -0.87130654), (-0.08450461, -0.895915, -0.4361137), (-0.09965525, -0.480514, -0.87130654), (-0.43220323, -0.77305424, -0.46431386), (-0.40220523, -0.30729607, -0.8624385), (-0.5773041, -0.8131365, -0.07435659), (-0.8807576, -0.4356436, -0.18569008), (-0.43220323, -0.77305424, -0.46431386), (-0.8807576, -0.4356436, -0.18569008), (-0.5773041, -0.8131365, -0.07435659), (-0.94156486, -0.3361847, -0.020865982), (0.58231217, -0.8065698, -0.10177193), (0.83036727, -0.3824429, -0.40525007), (0.93451613, -0.34817603, -0.07384366), (0.83036727, -0.3824429, -0.40525007), (0.58231217, -0.8065698, -0.10177193), (0.38130078, -0.8157532, -0.43492112), (0.38130078, -0.8157532, -0.43492112), (0.07721774, -0.8135792, -0.57630414), (0.25357556, -0.44325477, -0.8597818), (0.25357556, -0.44325477, -0.8597818), (0.07721774, -0.8135792, -0.57630414), (0.0219065, -0.33834708, -0.9407664), (-0.8413506, 0.21534765, 0.4957362), (-0.40212432, 0.307231, 0.8624993), (-0.43215322, 0.7730821, 0.46431422), (-0.8807939, 0.43562126, 0.18556973), (-0.8413506, 0.21534765, 0.4957362), (-0.43215322, 0.7730821, 0.46431422), (-0.99489695, 0.058890287, 0.08192689), (-0.8413506, 0.21534765, 0.4957362), (-0.8807939, 0.43562126, 0.18556973), (-0.99489695, 0.058890287, 0.08192689), (-0.92686164, 0.012787874, 0.3751852), (-0.8413506, 0.21534765, 0.4957362), (-0.99489695, 0.058890287, 0.08192689), (-0.8807939, 0.43562126, 0.18556973), (-0.94156784, 0.33617637, 0.020866787), (-0.92686164, 0.012787874, 0.3751852), (-0.99489695, 0.058890287, 0.08192689), (-0.99827576, -0.0000023468738, 0.05869968), (-0.8944046, -9.863732e-7, 0.44725892), (-0.92686164, 0.012787874, 0.3751852), (-0.99827576, -0.0000023468738, 0.05869968), (-0.94156784, 0.33617637, 0.020866787), (-0.9992035, 0.03990604, 2.3235535e-7), (-0.99489695, 0.058890287, 0.08192689), (-0.99489695, 0.058890287, 0.08192689), (-0.9992035, 0.03990604, 2.3235535e-7), (-0.99827576, -0.0000023468738, 0.05869968), (-0.9992035, 0.03990604, 2.3235535e-7), (-0.94156784, 0.33617637, 0.020866787), (-0.94824713, 0.317533, 1.9185632e-7), (-0.57731205, 0.81313336, 0.0743301), (-0.94824713, 0.317533, 1.9185632e-7), (-0.94156784, 0.33617637, 0.020866787), (-0.94824713, 0.317533, 1.9185632e-7), (-0.57731205, 0.81313336, 0.0743301), (-0.4968391, 0.86784273, 1.11922105e-7), (-0.4968391, 0.86784273, 1.11922105e-7), (-0.8744714, 0.48507693, 1.7984284e-7), (-0.94824713, 0.317533, 1.9185632e-7), (-0.8744714, 0.48507693, 1.7984284e-7), (-0.4968391, 0.86784273, 1.11922105e-7), (-0.4967741, 0.8678798, 1.2659214e-7), (-0.4967741, 0.8678798, 1.2659214e-7), (-0.57730377, 0.8131385, -0.07433872), (-0.8744714, 0.48507693, 1.7984284e-7), (-0.8744714, 0.48507693, 1.7984284e-7), (-0.57730377, 0.8131385, -0.07433872), (-0.9415683, 0.3361751, -0.020865135), (-0.99548805, 0.09488708, 2.0588833e-7), (-0.94824713, 0.317533, 1.9185632e-7), (-0.8744714, 0.48507693, 1.7984284e-7), (-0.8744714, 0.48507693, 1.7984284e-7), (-0.9415683, 0.3361751, -0.020865135), (-0.99548805, 0.09488708, 2.0588833e-7), (-0.94824713, 0.317533, 1.9185632e-7), (-0.99548805, 0.09488708, 2.0588833e-7), (-0.9992035, 0.03990604, 2.3235535e-7), (-0.99548805, 0.09488708, 2.0588833e-7), (-0.9415683, 0.3361751, -0.020865135), (-0.99489146, 0.0589356, -0.08196033), (-0.99489146, 0.0589356, -0.08196033), (-0.9415683, 0.3361751, -0.020865135), (-0.8807788, 0.43561122, -0.18566516), (-1, -0.0000037551026, 2.558598e-7), (-0.9992035, 0.03990604, 2.3235535e-7), (-0.99548805, 0.09488708, 2.0588833e-7), (-0.99489146, 0.0589356, -0.08196033), (-0.8807788, 0.43561122, -0.18566516), (-0.8413534, 0.21542975, -0.49569592), (-0.4321684, 0.77306974, -0.46432066), (-0.8413534, 0.21542975, -0.49569592), (-0.8807788, 0.43561122, -0.18566516), (-0.40220478, 0.30727655, -0.86244565), (-0.8413534, 0.21542975, -0.49569592), (-0.4321684, 0.77306974, -0.46432066), (-0.99489146, 0.0589356, -0.08196033), (-0.8413534, 0.21542975, -0.49569592), (-0.92684054, 0.012800001, -0.37523717), (-0.99548805, 0.09488708, 2.0588833e-7), (-0.99489146, 0.0589356, -0.08196033), (-0.99827343, -0.0000023513448, -0.058738954), (-0.99489146, 0.0589356, -0.08196033), (-0.92684054, 0.012800001, -0.37523717), (-0.99827343, -0.0000023513448, -0.058738954), (-1, -0.0000037551026, 2.558598e-7), (-0.99548805, 0.09488708, 2.0588833e-7), (-0.99827343, -0.0000023513448, -0.058738954), (-0.99827343, -0.0000023513448, -0.058738954), (-0.92684054, 0.012800001, -0.37523717), (-0.933246, -0.0000013638812, -0.35923797), (-0.933246, -0.0000013638812, -0.35923797), (-0.92684054, 0.012800001, -0.37523717), (-0.52805436, 0.048303057, -0.8478357), (-0.933246, -0.0000013638812, -0.35923797), (-0.52805436, 0.048303057, -0.8478357), (-0.53674465, -6.2543216e-7, -0.8437448), (-1, 0.0000011395377, 2.3457582e-7), (-1, -0.0000037551026, 2.558598e-7), (-0.99827343, -0.0000023513448, -0.058738954), (-0.8437151, 0.0000018067809, -0.5367913), (-0.933246, -0.0000013638812, -0.35923797), (-0.53674465, -6.2543216e-7, -0.8437448), (-0.8437151, 0.0000018067809, -0.5367913), (-0.53674465, -6.2543216e-7, -0.8437448), (-0.3589328, 7.536258e-7, -0.9333635), (-0.527992, -0.04831165, -0.847874), (-0.8437151, 0.0000018067809, -0.5367913), (-0.3589328, 7.536258e-7, -0.9333635), (-0.8437151, 0.0000018067809, -0.5367913), (-0.527992, -0.04831165, -0.847874), (-0.9268472, -0.012790128, -0.37522078), (-0.992288, 0.0000028234053, -0.12395418), (-0.99827343, -0.0000023513448, -0.058738954), (-0.933246, -0.0000013638812, -0.35923797), (-0.992288, 0.0000028234053, -0.12395418), (-0.933246, -0.0000013638812, -0.35923797), (-0.8437151, 0.0000018067809, -0.5367913), (-0.9268472, -0.012790128, -0.37522078), (-0.992288, 0.0000028234053, -0.12395418), (-0.8437151, 0.0000018067809, -0.5367913), (-1, 0.0000011395377, 2.3457582e-7), (-0.99827343, -0.0000023513448, -0.058738954), (-0.992288, 0.0000028234053, -0.12395418), (-0.992288, 0.0000028234053, -0.12395418), (-0.9268472, -0.012790128, -0.37522078), (-0.9948932, -0.05891305, -0.08195496), (-0.9948932, -0.05891305, -0.08195496), (-0.9268472, -0.012790128, -0.37522078), (-0.8413462, -0.2154812, -0.4956858), (-0.43220323, -0.77305424, -0.46431386), (-0.8413462, -0.2154812, -0.4956858), (-0.40220523, -0.30729607, -0.8624385), (-0.8413462, -0.2154812, -0.4956858), (-0.43220323, -0.77305424, -0.46431386), (-0.8807576, -0.4356436, -0.18569008), (-0.9948932, -0.05891305, -0.08195496), (-0.8413462, -0.2154812, -0.4956858), (-0.8807576, -0.4356436, -0.18569008), (-0.9948932, -0.05891305, -0.08195496), (-0.8807576, -0.4356436, -0.18569008), (-0.94156486, -0.3361847, -0.020865982), (-0.99920297, -0.03991955, 2.3792877e-7), (-0.992288, 0.0000028234053, -0.12395418), (-0.9948932, -0.05891305, -0.08195496), (-0.99920297, -0.03991955, 2.3792877e-7), (-0.9948932, -0.05891305, -0.08195496), (-0.94156486, -0.3361847, -0.020865982), (-0.99920297, -0.03991955, 2.3792877e-7), (-1, 0.0000011395377, 2.3457582e-7), (-0.992288, 0.0000028234053, -0.12395418), (-0.9482584, -0.31749958, 1.9050856e-7), (-0.99920297, -0.03991955, 2.3792877e-7), (-0.94156486, -0.3361847, -0.020865982), (-0.9482584, -0.31749958, 1.9050856e-7), (-0.94156486, -0.3361847, -0.020865982), (-0.5773041, -0.8131365, -0.07435659), (-0.5773041, -0.8131365, -0.07435659), (-0.5889185, -0.8081924, 9.2463985e-8), (-0.9482584, -0.31749958, 1.9050856e-7), (-0.99920297, -0.03991955, 2.3792877e-7), (-1, 0.0000040608597, 2.131619e-7), (-1, 0.0000011395377, 2.3457582e-7), (-0.5889185, -0.8081924, 9.2463985e-8), (-0.87448174, -0.48505834, 1.5144315e-7), (-0.9482584, -0.31749958, 1.9050856e-7), (-0.87448174, -0.48505834, 1.5144315e-7), (-0.5889185, -0.8081924, 9.2463985e-8), (-0.40302342, -0.9151897, 6.106494e-8), (-0.577312, -0.8131321, 0.074342966), (-0.87448174, -0.48505834, 1.5144315e-7), (-0.40302342, -0.9151897, 6.106494e-8), (-0.94157946, -0.33614376, 0.02086379), (-0.87448174, -0.48505834, 1.5144315e-7), (-0.577312, -0.8131321, 0.074342966), (-0.9482584, -0.31749958, 1.9050856e-7), (-0.9954896, -0.094871625, 2.2937967e-7), (-0.99920297, -0.03991955, 2.3792877e-7), (-0.9954896, -0.094871625, 2.2937967e-7), (-0.9482584, -0.31749958, 1.9050856e-7), (-0.87448174, -0.48505834, 1.5144315e-7), (-0.94157946, -0.33614376, 0.02086379), (-0.9954896, -0.094871625, 2.2937967e-7), (-0.87448174, -0.48505834, 1.5144315e-7), (-1, 0.0000040608597, 2.131619e-7), (-0.99920297, -0.03991955, 2.3792877e-7), (-0.9954896, -0.094871625, 2.2937967e-7), (-0.94157946, -0.33614376, 0.02086379), (-0.9948992, -0.05889637, 0.08189489), (-0.9954896, -0.094871625, 2.2937967e-7), (-0.9948992, -0.05889637, 0.08189489), (-0.94157946, -0.33614376, 0.02086379), (-0.8604819, -0.4419266, 0.25351858), (-0.43823603, -0.3236554, 0.838568), (-0.8604819, -0.4419266, 0.25351858), (-0.39976376, -0.79545957, 0.45544824), (-0.8604819, -0.4419266, 0.25351858), (-0.43823603, -0.3236554, 0.838568), (-0.85891026, -0.15704395, 0.48745304), (-0.9948992, -0.05889637, 0.08189489), (-0.8604819, -0.4419266, 0.25351858), (-0.85891026, -0.15704395, 0.48745304), (-0.9948992, -0.05889637, 0.08189489), (-0.85891026, -0.15704395, 0.48745304), (-0.9268692, -0.012827846, 0.37516522), (-0.9922982, 0.0000028096358, 0.12387288), (-0.9954896, -0.094871625, 2.2937967e-7), (-0.9948992, -0.05889637, 0.08189489), (-0.9268692, -0.012827846, 0.37516522), (-0.9922982, 0.0000028096358, 0.12387288), (-0.9948992, -0.05889637, 0.08189489), (-0.9954896, -0.094871625, 2.2937967e-7), (-0.9922982, 0.0000028096358, 0.12387288), (-1, 0.0000040608597, 2.131619e-7), (-0.9268692, -0.012827846, 0.37516522), (-0.8943633, 0.00000255605, 0.44734165), (-0.9922982, 0.0000028096358, 0.12387288), (-0.8944046, -9.863732e-7, 0.44725892), (-0.9922982, 0.0000028096358, 0.12387288), (-0.8943633, 0.00000255605, 0.44734165), (-0.9922982, 0.0000028096358, 0.12387288), (-0.8944046, -9.863732e-7, 0.44725892), (-0.99827576, -0.0000023468738, 0.05869968), (-0.9922982, 0.0000028096358, 0.12387288), (-0.99827576, -0.0000023468738, 0.05869968), (-1, 0.0000040608597, 2.131619e-7), (-1, -8.3246266e-7, 2.3469131e-7), (-1, 0.0000040608597, 2.131619e-7), (-0.99827576, -0.0000023468738, 0.05869968), (-1, -8.3246266e-7, 2.3469131e-7), (-1, 0.0000011395377, 2.3457582e-7), (-1, 0.0000040608597, 2.131619e-7), (-0.99827576, -0.0000023468738, 0.05869968), (-0.9992035, 0.03990604, 2.3235535e-7), (-1, -8.3246266e-7, 2.3469131e-7), (-1, 0.0000011395377, 2.3457582e-7), (-1, -8.3246266e-7, 2.3469131e-7), (-1, -0.0000037551026, 2.558598e-7), (-0.9992035, 0.03990604, 2.3235535e-7), (-1, -0.0000037551026, 2.558598e-7), (-1, -8.3246266e-7, 2.3469131e-7), (0.2535785, 0.44323033, 0.8597934), (0.830353, 0.3824372, 0.40528467), (0.3813181, 0.8157347, 0.43494064), (0.830353, 0.3824372, 0.40528467), (0.2535785, 0.44323033, 0.8597934), (0.48738948, 0.15938994, 0.858514), (0.065475576, 0.046697035, 0.99676096), (0.48738948, 0.15938994, 0.858514), (0.2535785, 0.44323033, 0.8597934), (0.065475576, 0.046697035, 0.99676096), (0.2535785, 0.44323033, 0.8597934), (0.0219082, 0.33845237, 0.9407284), (0.065475576, 0.046697035, 0.99676096), (0.3753114, 0.014825801, 0.9267802), (0.48738948, 0.15938994, 0.858514), (0.0219082, 0.33845237, 0.9407284), (0, 0.04312089, 0.9990698), (0.065475576, 0.046697035, 0.99676096), (0.065475576, 0.046697035, 0.99676096), (0.12692325, 1.1579287e-7, 0.99191254), (0.3753114, 0.014825801, 0.9267802), (0, 0.04312089, 0.9990698), (0.0219082, 0.33845237, 0.9407284), (0, 0.32448483, 0.9458909), (0.07721676, 0.8135383, 0.5763618), (0, 0.32448483, 0.9458909), (0.0219082, 0.33845237, 0.9407284), (0, 0.32448483, 0.9458909), (0.07721676, 0.8135383, 0.5763618), (0, 0.813069, 0.5821673), (8.571767e-7, -1.739697e-7, 1), (0.065475576, 0.046697035, 0.99676096), (0, 0.04312089, 0.9990698), (0.065475576, 0.046697035, 0.99676096), (8.571767e-7, -1.739697e-7, 1), (0.12692325, 1.1579287e-7, 0.99191254), (0, 0.813069, 0.5821673), (0, 0.4798209, 0.8773664), (0, 0.32448483, 0.9458909), (0, 0.4798209, 0.8773664), (0, 0.813069, 0.5821673), (0, 0.91229945, 0.40952381), (0, 0.32448483, 0.9458909), (0, 0.09418225, 0.99555504), (0, 0.04312089, 0.9990698), (0, 0.09418225, 0.99555504), (0, 0.32448483, 0.9458909), (0, 0.4798209, 0.8773664), (-0.09952537, 0.4804966, 0.871331), (0, 0.91229945, 0.40952381), (-0.084472604, 0.89591974, 0.43611032), (0, 0.91229945, 0.40952381), (-0.09952537, 0.4804966, 0.871331), (0, 0.4798209, 0.8773664), (0, -1.5372869e-7, 1), (0, 0.04312089, 0.9990698), (0, 0.09418225, 0.99555504), (0, 0.04312089, 0.9990698), (0, -1.5372869e-7, 1), (8.571767e-7, -1.739697e-7, 1), (-0.110422865, 0.07802767, 0.99081707), (0, 0.4798209, 0.8773664), (-0.09952537, 0.4804966, 0.871331), (0, 0.4798209, 0.8773664), (-0.110422865, 0.07802767, 0.99081707), (0, 0.09418225, 0.99555504), (-0.40212432, 0.307231, 0.8624993), (-0.110422865, 0.07802767, 0.99081707), (-0.09952537, 0.4804966, 0.871331), (-0.110422865, 0.07802767, 0.99081707), (-0.40212432, 0.307231, 0.8624993), (-0.5279733, 0.048221175, 0.8478908), (0, 0.09418225, 0.99555504), (-0.061435953, -2.6068463e-7, 0.998111), (0, -1.5372869e-7, 1), (-0.061435953, -2.6068463e-7, 0.998111), (0, 0.09418225, 0.99555504), (-0.110422865, 0.07802767, 0.99081707), (-0.92686164, 0.012787874, 0.3751852), (-0.8944046, -9.863732e-7, 0.44725892), (-0.5279733, 0.048221175, 0.8478908), (-0.5279733, 0.048221175, 0.8478908), (-0.358992, -6.005827e-7, 0.9333407), (-0.110422865, 0.07802767, 0.99081707), (-0.5279733, 0.048221175, 0.8478908), (-0.8944046, -9.863732e-7, 0.44725892), (-0.358992, -6.005827e-7, 0.9333407), (-0.110422865, 0.07802767, 0.99081707), (-0.358992, -6.005827e-7, 0.9333407), (-0.061435953, -2.6068463e-7, 0.998111), (-0.5365693, 9.033572e-7, 0.8438563), (-0.358992, -6.005827e-7, 0.9333407), (-0.8944046, -9.863732e-7, 0.44725892), (-0.8944046, -9.863732e-7, 0.44725892), (-0.8943633, 0.00000255605, 0.44734165), (-0.5365693, 9.033572e-7, 0.8438563), (-0.12685038, 7.721454e-8, 0.99192184), (-0.061435953, -2.6068463e-7, 0.998111), (-0.358992, -6.005827e-7, 0.9333407), (-0.358992, -6.005827e-7, 0.9333407), (-0.5365693, 9.033572e-7, 0.8438563), (-0.12685038, 7.721454e-8, 0.99192184), (-0.8943633, 0.00000255605, 0.44734165), (-0.9268692, -0.012827846, 0.37516522), (-0.5278839, -0.048336852, 0.8479399), (-0.5278839, -0.048336852, 0.8479399), (-0.5365693, 9.033572e-7, 0.8438563), (-0.8943633, 0.00000255605, 0.44734165), (-0.5365693, 9.033572e-7, 0.8438563), (-0.5278839, -0.048336852, 0.8479399), (-0.110293604, -0.077951774, 0.99083745), (-0.12685038, 7.721454e-8, 0.99192184), (-0.5365693, 9.033572e-7, 0.8438563), (-0.110293604, -0.077951774, 0.99083745), (-0.43823603, -0.3236554, 0.838568), (-0.110293604, -0.077951774, 0.99083745), (-0.5278839, -0.048336852, 0.8479399), (-0.110293604, -0.077951774, 0.99083745), (-0.43823603, -0.3236554, 0.838568), (-0.09967376, -0.48039016, 0.87137276), (6.9254094e-7, -0.9123058, 0.4095097), (-0.09967376, -0.48039016, 0.87137276), (-0.08453967, -0.89591986, 0.4360971), (-0.09967376, -0.48039016, 0.87137276), (6.9254094e-7, -0.9123058, 0.4095097), (4.0787464e-7, -0.47973096, 0.87741566), (4.0787464e-7, -0.47973096, 0.87741566), (-0.110293604, -0.077951774, 0.99083745), (-0.09967376, -0.48039016, 0.87137276), (5.765987e-7, -0.81308246, 0.5821485), (4.0787464e-7, -0.47973096, 0.87741566), (6.9254094e-7, -0.9123058, 0.4095097), (4.0787464e-7, -0.47973096, 0.87741566), (5.765987e-7, -0.81308246, 0.5821485), (6.276246e-7, -0.32427436, 0.945963), (-0.110293604, -0.077951774, 0.99083745), (4.0787464e-7, -0.47973096, 0.87741566), (0.0000012275813, -0.09399494, 0.99557275), (6.276246e-7, -0.32427436, 0.945963), (0.0000012275813, -0.09399494, 0.99557275), (4.0787464e-7, -0.47973096, 0.87741566), (0.0000012275813, -0.09399494, 0.99557275), (-0.12685038, 7.721454e-8, 0.99192184), (-0.110293604, -0.077951774, 0.99083745), (0.0000012275813, -0.09399494, 0.99557275), (6.276246e-7, -0.32427436, 0.945963), (0.0000017229411, -0.043029215, 0.99907386), (0.02190034, -0.33823782, 0.9408058), (0.0000017229411, -0.043029215, 0.99907386), (6.276246e-7, -0.32427436, 0.945963), (-0.12685038, 7.721454e-8, 0.99192184), (0.0000012275813, -0.09399494, 0.99557275), (8.5892094e-7, -1.7247962e-7, 1), (0.0000017229411, -0.043029215, 0.99907386), (8.5892094e-7, -1.7247962e-7, 1), (0.0000012275813, -0.09399494, 0.99557275), (8.5892094e-7, -1.7247962e-7, 1), (-0.061435953, -2.6068463e-7, 0.998111), (-0.12685038, 7.721454e-8, 0.99192184), (-0.061435953, -2.6068463e-7, 0.998111), (8.5892094e-7, -1.7247962e-7, 1), (0, -1.5372869e-7, 1), (8.5892094e-7, -1.7247962e-7, 1), (8.571767e-7, -1.739697e-7, 1), (0, -1.5372869e-7, 1), (8.5892094e-7, -1.7247962e-7, 1), (0.0000017229411, -0.043029215, 0.99907386), (0.0000017154534, -1.9240049e-7, 1), (8.571767e-7, -1.739697e-7, 1), (8.5892094e-7, -1.7247962e-7, 1), (0.0000017154534, -1.9240049e-7, 1), (0.0000017229411, -0.043029215, 0.99907386), (0.02190034, -0.33823782, 0.9408058), (0.06533642, -0.046598274, 0.9967746), (0.06533642, -0.046598274, 0.9967746), (0.0000017154534, -1.9240049e-7, 1), (0.0000017229411, -0.043029215, 0.99907386), (0.06533642, -0.046598274, 0.9967746), (0.02190034, -0.33823782, 0.9408058), (0.25354773, -0.44317654, 0.8598302), (8.571767e-7, -1.739697e-7, 1), (0.0000017154534, -1.9240049e-7, 1), (0.06138744, -4.4757732e-7, 0.998114), (0.0000017154534, -1.9240049e-7, 1), (0.06533642, -0.046598274, 0.9967746), (0.06138744, -4.4757732e-7, 0.998114), (0.06138744, -4.4757732e-7, 0.998114), (0.12692325, 1.1579287e-7, 0.99191254), (8.571767e-7, -1.739697e-7, 1), (0.8303671, -0.38244584, 0.40524772), (0.25354773, -0.44317654, 0.8598302), (0.38132927, -0.8157398, 0.43492118), (0.25354773, -0.44317654, 0.8598302), (0.8303671, -0.38244584, 0.40524772), (0.4873031, -0.15935935, 0.8585687), (0.06533642, -0.046598274, 0.9967746), (0.25354773, -0.44317654, 0.8598302), (0.4873031, -0.15935935, 0.8585687), (0.06533642, -0.046598274, 0.9967746), (0.4873031, -0.15935935, 0.8585687), (0.44709286, -0.012225613, 0.8944041), (0.06138744, -4.4757732e-7, 0.998114), (0.06533642, -0.046598274, 0.9967746), (0.44709286, -0.012225613, 0.8944041), (0.35907662, -6.5728887e-7, 0.9333082), (0.06138744, -4.4757732e-7, 0.998114), (0.44709286, -0.012225613, 0.8944041), (0.35907662, -6.5728887e-7, 0.9333082), (0.12692325, 1.1579287e-7, 0.99191254), (0.06138744, -4.4757732e-7, 0.998114), (0.12692325, 1.1579287e-7, 0.99191254), (0.35907662, -6.5728887e-7, 0.9333082), (0.53692275, 9.711287e-7, 0.8436315), (0.3753114, 0.014825801, 0.9267802), (0.12692325, 1.1579287e-7, 0.99191254), (0.53692275, 9.711287e-7, 0.8436315), (0.8437677, -0.000002569725, 0.5367087), (0.53692275, 9.711287e-7, 0.8436315), (0.35907662, -6.5728887e-7, 0.9333082), (0.53692275, 9.711287e-7, 0.8436315), (0.84778666, 0.050642766, 0.52791375), (0.3753114, 0.014825801, 0.9267802), (0.53692275, 9.711287e-7, 0.8436315), (0.8437677, -0.000002569725, 0.5367087), (0.93335545, 0.0000015414398, 0.35895357), (0.84778666, 0.050642766, 0.52791375), (0.53692275, 9.711287e-7, 0.8436315), (0.93335545, 0.0000015414398, 0.35895357), (0.83034575, 0.38245568, -0.40528214), (0.25359762, 0.44329333, -0.85975534), (0.3812942, 0.8157515, -0.43493015), (0.25359762, 0.44329333, -0.85975534), (0.83034575, 0.38245568, -0.40528214), (0.48740387, 0.15938434, -0.85850686), (0.06533678, 0.04659842, -0.9967746), (0.25359762, 0.44329333, -0.85975534), (0.48740387, 0.15938434, -0.85850686), (0.06533678, 0.04659842, -0.9967746), (0.021906136, 0.33831432, -0.9407782), (0.25359762, 0.44329333, -0.85975534), (0.06533678, 0.04659842, -0.9967746), (0.48740387, 0.15938434, -0.85850686), (0.44718832, 0.012217212, -0.8943565), (0, 0.043028697, -0.9990738), (0.021906136, 0.33831432, -0.9407782), (0.06533678, 0.04659842, -0.9967746), (0.021906136, 0.33831432, -0.9407782), (0, 0.043028697, -0.9990738), (0, 0.32432935, -0.94594425), (0.12684472, 1.7179596e-7, -0.9919226), (0.06533678, 0.04659842, -0.9967746), (0.44718832, 0.012217212, -0.8943565), (0.44722894, 6.3193033e-7, -0.89441955), (0.12684472, 1.7179596e-7, -0.9919226), (0.44718832, 0.012217212, -0.8943565), (0.44731003, -9.496947e-7, -0.89437896), (0.12684472, 1.7179596e-7, -0.9919226), (0.44722894, 6.3193033e-7, -0.89441955), (0, 0, -1), (0.06533678, 0.04659842, -0.9967746), (0.12684472, 1.7179596e-7, -0.9919226), (0.06533678, 0.04659842, -0.9967746), (0, 0, -1), (0, 0.043028697, -0.9990738), (0.12684472, 1.7179596e-7, -0.9919226), (0.44731003, -9.496947e-7, -0.89437896), (0.06143799, -2.5875994e-7, -0.99811095), (0.06143799, -2.5875994e-7, -0.99811095), (0, 0, -1), (0.12684472, 1.7179596e-7, -0.9919226), (0.37519974, -0.01481288, -0.92682564), (0.06143799, -2.5875994e-7, -0.99811095), (0.44731003, -9.496947e-7, -0.89437896), (0, 0, -1), (0, 0.043028697, -0.9990738), (0, 0, -1), (0.06539231, -0.046633136, -0.99676937), (0.06143799, -2.5875994e-7, -0.99811095), (0.37519974, -0.01481288, -0.92682564), (0.06539231, -0.046633136, -0.99676937), (0.37519974, -0.01481288, -0.92682564), (0.48736772, -0.15935759, -0.8585324), (0, 0, -1), (0.06143799, -2.5875994e-7, -0.99811095), (0, 0, -1), (0.06539231, -0.046633136, -0.99676937), (0, 0, -1), (0.06143799, -2.5875994e-7, -0.99811095), (0, 0, -1), (0, 0, -1), (0, 0, -1), (0.06539231, -0.046633136, -0.99676937), (0.48736772, -0.15935759, -0.8585324), (0.25357556, -0.44325477, -0.8597818), (0.83036727, -0.3824429, -0.40525007), (0.25357556, -0.44325477, -0.8597818), (0.48736772, -0.15935759, -0.8585324), (0.25357556, -0.44325477, -0.8597818), (0.83036727, -0.3824429, -0.40525007), (0.38130078, -0.8157532, -0.43492112), (0.06539231, -0.046633136, -0.99676937), (0.25357556, -0.44325477, -0.8597818), (0.0219065, -0.33834708, -0.9407664), (0.0219065, -0.33834708, -0.9407664), (0, -0.043062154, -0.99907243), (0.06539231, -0.046633136, -0.99676937), (0, 0, -1), (0.06539231, -0.046633136, -0.99676937), (0, -0.043062154, -0.99907243), (0, -0.043062154, -0.99907243), (0.0219065, -0.33834708, -0.9407664), (0.0000030126591, -0.3243281, -0.94594467), (0, -0.043062154, -0.99907243), (0, 0, -1), (0, 0, -1), (0, 0, -1), (0, 0, -1), (0, 0, -1), (0.0000030126591, -0.3243281, -0.94594467), (0.0000014099469, -0.094016306, -0.9955706), (0, -0.043062154, -0.99907243), (0, 0, -1), (0, -0.043062154, -0.99907243), (0.0000014099469, -0.094016306, -0.9955706), (0.0000014099469, -0.094016306, -0.9955706), (0.0000030126591, -0.3243281, -0.94594467), (0.0000032625665, -0.4798185, -0.8773678), (0, 0, -1), (-0.093519345, -7.320394e-8, -0.99561757), (0, 0, -1), (0.0000032625665, -0.4798185, -0.8773678), (-0.110269286, -0.07792892, -0.9908419), (0.0000014099469, -0.094016306, -0.9955706), (-0.110269286, -0.07792892, -0.9908419), (0.0000032625665, -0.4798185, -0.8773678), (-0.09965525, -0.480514, -0.87130654), (-0.40220523, -0.30729607, -0.8624385), (-0.110269286, -0.07792892, -0.9908419), (-0.09965525, -0.480514, -0.87130654), (-0.110269286, -0.07792892, -0.9908419), (-0.40220523, -0.30729607, -0.8624385), (-0.527992, -0.04831165, -0.847874), (-0.527992, -0.04831165, -0.847874), (-0.3589328, 7.536258e-7, -0.9333635), (-0.110269286, -0.07792892, -0.9908419), (0.0000014099469, -0.094016306, -0.9955706), (-0.09348689, 1.9628783e-7, -0.9956206), (0, 0, -1), (-0.09348689, 1.9628783e-7, -0.9956206), (0.0000014099469, -0.094016306, -0.9955706), (-0.110269286, -0.07792892, -0.9908419), (-0.110269286, -0.07792892, -0.9908419), (-0.3589328, 7.536258e-7, -0.9333635), (-0.09348689, 1.9628783e-7, -0.9956206), (-0.093519345, -7.320394e-8, -0.99561757), (0, 0, -1), (-0.09348689, 1.9628783e-7, -0.9956206), (-0.3589328, 7.536258e-7, -0.9333635), (-0.093519345, -7.320394e-8, -0.99561757), (-0.09348689, 1.9628783e-7, -0.9956206), (-0.093519345, -7.320394e-8, -0.99561757), (-0.3589328, 7.536258e-7, -0.9333635), (-0.53674465, -6.2543216e-7, -0.8437448), (-0.093519345, -7.320394e-8, -0.99561757), (-0.53674465, -6.2543216e-7, -0.8437448), (-0.11027355, 0.07793052, -0.99084127), (-0.53674465, -6.2543216e-7, -0.8437448), (-0.52805436, 0.048303057, -0.8478357), (-0.11027355, 0.07793052, -0.99084127), (-0.40220478, 0.30727655, -0.86244565), (-0.11027355, 0.07793052, -0.99084127), (-0.52805436, 0.048303057, -0.8478357), (-0.11027355, 0.07793052, -0.99084127), (-0.40220478, 0.30727655, -0.86244565), (-0.09963547, 0.48057666, -0.87127423), (-0.0000012234342, 0.4799035, -0.8773213), (-0.11027355, 0.07793052, -0.99084127), (-0.09963547, 0.48057666, -0.87127423), (0, 0.09398097, -0.99557406), (-0.093519345, -7.320394e-8, -0.99561757), (-0.11027355, 0.07793052, -0.99084127), (-0.11027355, 0.07793052, -0.99084127), (-0.0000012234342, 0.4799035, -0.8773213), (0, 0.09398097, -0.99557406), (-0.093519345, -7.320394e-8, -0.99561757), (0, 0.09398097, -0.99557406), (0, 0, -1), (0, 0.32432935, -0.94594425), (0, 0.09398097, -0.99557406), (-0.0000012234342, 0.4799035, -0.8773213), (0, 0.043028697, -0.9990738), (0, 0, -1), (0, 0.09398097, -0.99557406), (0, 0.09398097, -0.99557406), (0, 0.32432935, -0.94594425), (0, 0.043028697, -0.9990738), (0.48736772, -0.15935759, -0.8585324), (0.84780455, -0.050637156, -0.5278857), (0.83036727, -0.3824429, -0.40525007), (0.84780455, -0.050637156, -0.5278857), (0.48736772, -0.15935759, -0.8585324), (0.37519974, -0.01481288, -0.92682564), (0.44731003, -9.496947e-7, -0.89437896), (0.84780455, -0.050637156, -0.5278857), (0.37519974, -0.01481288, -0.92682564), (0.84780455, -0.050637156, -0.5278857), (0.44731003, -9.496947e-7, -0.89437896), (0.9333423, -0.0000021061262, -0.35898793), (0.44709286, -0.012225613, 0.8944041), (0.8437677, -0.000002569725, 0.5367087), (0.35907662, -6.5728887e-7, 0.9333082), (0.8437677, -0.000002569725, 0.5367087), (0.44709286, -0.012225613, 0.8944041), (0.8786874, -0.06391602, 0.47309956), (0.8786874, -0.06391602, 0.47309956), (0.99352175, -0.05448243, 0.09973113), (0.8437677, -0.000002569725, 0.5367087), (0.8303671, -0.38244584, 0.40524772), (0.99352175, -0.05448243, 0.09973113), (0.8786874, -0.06391602, 0.47309956), (0.99352175, -0.05448243, 0.09973113), (0.8303671, -0.38244584, 0.40524772), (0.9345007, -0.34821746, 0.073845774), (0.8437677, -0.000002569725, 0.5367087), (0.99352175, -0.05448243, 0.09973113), (0.9922905, -0.0000015786917, 0.12393434), (0.9922905, -0.0000015786917, 0.12393434), (0.93335545, 0.0000015414398, 0.35895357), (0.8437677, -0.000002569725, 0.5367087), (0.9345007, -0.34821746, 0.073845774), (0.9951473, -0.0983963, -2.0236322e-7), (0.99352175, -0.05448243, 0.09973113), (0.9951473, -0.0983963, -2.0236322e-7), (0.9345007, -0.34821746, 0.073845774), (0.9155466, -0.402212, -1.5615848e-7), (0.9155466, -0.402212, -1.5615848e-7), (0.9155735, -0.40215078, -1.7610853e-7), (0.9951473, -0.0983963, -2.0236322e-7), (0.99352175, -0.05448243, 0.09973113), (1, -0.0000041583626, -1.7054049e-7), (0.9922905, -0.0000015786917, 0.12393434), (1, -0.0000041583626, -1.7054049e-7), (0.99352175, -0.05448243, 0.09973113), (0.9951473, -0.0983963, -2.0236322e-7), (0.9951473, -0.0983963, -2.0236322e-7), (0.9155735, -0.40215078, -1.7610853e-7), (0.9990704, -0.043109063, -1.9846517e-7), (0.9990704, -0.043109063, -1.9846517e-7), (1, -0.0000041583626, -1.7054049e-7), (0.9951473, -0.0983963, -2.0236322e-7), (0.9990704, -0.043109063, -1.9846517e-7), (0.9155735, -0.40215078, -1.7610853e-7), (0.93451613, -0.34817603, -0.07384366), (0.998276, 9.350641e-7, 0.05869475), (0.9922905, -0.0000015786917, 0.12393434), (1, -0.0000041583626, -1.7054049e-7), (0.93335545, 0.0000015414398, 0.35895357), (0.9922905, -0.0000015786917, 0.12393434), (0.998276, 9.350641e-7, 0.05869475), (0.9990704, -0.043109063, -1.9846517e-7), (0.93451613, -0.34817603, -0.07384366), (0.993523, -0.0544879, -0.09971478), (0.83036727, -0.3824429, -0.40525007), (0.993523, -0.0544879, -0.09971478), (0.93451613, -0.34817603, -0.07384366), (0.993523, -0.0544879, -0.09971478), (0.83036727, -0.3824429, -0.40525007), (0.84780455, -0.050637156, -0.5278857), (0.993523, -0.0544879, -0.09971478), (0.84780455, -0.050637156, -0.5278857), (0.9333423, -0.0000021061262, -0.35898793), (1, -0.0000012639994, -1.7015432e-7), (0.9990704, -0.043109063, -1.9846517e-7), (0.993523, -0.0544879, -0.09971478), (1, -0.0000041583626, -1.7054049e-7), (0.9990704, -0.043109063, -1.9846517e-7), (1, -0.0000012639994, -1.7015432e-7), (0.9982762, -0.0000015568783, -0.058692), (0.993523, -0.0544879, -0.09971478), (0.9333423, -0.0000021061262, -0.35898793), (1, -0.0000012639994, -1.7015432e-7), (0.993523, -0.0544879, -0.09971478), (0.9982762, -0.0000015568783, -0.058692), (1, 6.5987155e-7, -1.7015353e-7), (1, -0.0000041583626, -1.7054049e-7), (1, -0.0000012639994, -1.7015432e-7), (0.998276, 9.350641e-7, 0.05869475), (1, -0.0000041583626, -1.7054049e-7), (1, 6.5987155e-7, -1.7015353e-7), (0.9982762, -0.0000015568783, -0.058692), (1, 0.0000035075952, -1.6950192e-7), (1, -0.0000012639994, -1.7015432e-7), (1, 6.5987155e-7, -1.7015353e-7), (1, -0.0000012639994, -1.7015432e-7), (1, 0.0000035075952, -1.6950192e-7), (0.9922905, 0.0000010291892, -0.123934336), (0.9982762, -0.0000015568783, -0.058692), (0.9333423, -0.0000021061262, -0.35898793), (1, 0.0000035075952, -1.6950192e-7), (0.9982762, -0.0000015568783, -0.058692), (0.9922905, 0.0000010291892, -0.123934336), (0.998276, 9.350641e-7, 0.05869475), (1, 6.5987155e-7, -1.7015353e-7), (0.9935224, 0.054460462, 0.09973616), (0.9935224, 0.054460462, 0.09973616), (0.93335545, 0.0000015414398, 0.35895357), (0.998276, 9.350641e-7, 0.05869475), (0.93335545, 0.0000015414398, 0.35895357), (0.9935224, 0.054460462, 0.09973616), (0.84778666, 0.050642766, 0.52791375), (0.9935224, 0.054460462, 0.09973616), (0.830353, 0.3824372, 0.40528467), (0.84778666, 0.050642766, 0.52791375), (0.830353, 0.3824372, 0.40528467), (0.9935224, 0.054460462, 0.09973616), (0.93450505, 0.3482017, 0.07386386), (0.9935224, 0.054460462, 0.09973616), (1, 6.5987155e-7, -1.7015353e-7), (0.99907094, 0.043094885, -1.9314727e-7), (0.9935224, 0.054460462, 0.09973616), (0.99907094, 0.043094885, -1.9314727e-7), (0.93450505, 0.3482017, 0.07386386), (1, 6.5987155e-7, -1.7015353e-7), (1, 0.0000035075952, -1.6950192e-7), (0.99907094, 0.043094885, -1.9314727e-7), (0.93450505, 0.3482017, 0.07386386), (0.99907094, 0.043094885, -1.9314727e-7), (0.9471685, 0.3207364, -1.624804e-7), (0.99514735, 0.09839589, -1.9484305e-7), (0.9471685, 0.3207364, -1.624804e-7), (0.99907094, 0.043094885, -1.9314727e-7), (0.99907094, 0.043094885, -1.9314727e-7), (1, 0.0000035075952, -1.6950192e-7), (0.99514735, 0.09839589, -1.9484305e-7), (0.9471685, 0.3207364, -1.624804e-7), (0.99514735, 0.09839589, -1.9484305e-7), (0.87319523, 0.48737064, -1.3835414e-7), (0.87319523, 0.48737064, -1.3835414e-7), (0.99514735, 0.09839589, -1.9484305e-7), (0.9345128, 0.34818098, -0.07386356), (0.99514735, 0.09839589, -1.9484305e-7), (1, 0.0000035075952, -1.6950192e-7), (0.9935235, 0.054467227, -0.09972248), (0.99514735, 0.09839589, -1.9484305e-7), (0.9935235, 0.054467227, -0.09972248), (0.9345128, 0.34818098, -0.07386356), (1, 0.0000035075952, -1.6950192e-7), (0.9922905, 0.0000010291892, -0.123934336), (0.9935235, 0.054467227, -0.09972248), (0.9935235, 0.054467227, -0.09972248), (0.83034575, 0.38245568, -0.40528214), (0.9345128, 0.34818098, -0.07386356), (0.83034575, 0.38245568, -0.40528214), (0.9935235, 0.054467227, -0.09972248), (0.8786809, 0.06390933, -0.47311243), (0.9935235, 0.054467227, -0.09972248), (0.9922905, 0.0000010291892, -0.123934336), (0.8437556, 0.000002096198, -0.5367276), (0.9935235, 0.054467227, -0.09972248), (0.8437556, 0.000002096198, -0.5367276), (0.8786809, 0.06390933, -0.47311243), (0.9922905, 0.0000010291892, -0.123934336), (0.9333423, -0.0000021061262, -0.35898793), (0.8437556, 0.000002096198, -0.5367276), (0.8786809, 0.06390933, -0.47311243), (0.8437556, 0.000002096198, -0.5367276), (0.44718832, 0.012217212, -0.8943565), (0.44731003, -9.496947e-7, -0.89437896), (0.8437556, 0.000002096198, -0.5367276), (0.9333423, -0.0000021061262, -0.35898793), (0.44722894, 6.3193033e-7, -0.89441955), (0.44718832, 0.012217212, -0.8943565), (0.8437556, 0.000002096198, -0.5367276), (0.8437556, 0.000002096198, -0.5367276), (0.44731003, -9.496947e-7, -0.89437896), (0.44722894, 6.3193033e-7, -0.89441955), (0.9471685, 0.3207364, -1.624804e-7), (0.5823385, 0.80654895, 0.10178718), (0.93450505, 0.3482017, 0.07386386), (0.5823385, 0.80654895, 0.10178718), (0.9471685, 0.3207364, -1.624804e-7), (0.5883036, 0.80864006, -9.198322e-8), (0.87319523, 0.48737064, -1.3835414e-7), (0.5883036, 0.80864006, -9.198322e-8), (0.9471685, 0.3207364, -1.624804e-7), (0.87319523, 0.48737064, -1.3835414e-7), (0.9345128, 0.34818098, -0.07386356), (0.58230436, 0.8065752, -0.101774186), (0.5823385, 0.80654895, 0.10178718), (0.5883036, 0.80864006, -9.198322e-8), (0.1050309, 0.98929405, 0.10132053), (0.3813181, 0.8157347, 0.43494064), (0.5823385, 0.80654895, 0.10178718), (0.1050309, 0.98929405, 0.10132053), (0.07721676, 0.8135383, 0.5763618), (0.3813181, 0.8157347, 0.43494064), (0.1050309, 0.98929405, 0.10132053), (0.1050309, 0.98929405, 0.10132053), (0, 0.813069, 0.5821673), (0.07721676, 0.8135383, 0.5763618), (0.5883036, 0.80864006, -9.198322e-8), (0.87319523, 0.48737064, -1.3835414e-7), (0.4028714, 0.9152566, -7.217035e-8), (0.58230436, 0.8065752, -0.101774186), (0.4028714, 0.9152566, -7.217035e-8), (0.87319523, 0.48737064, -1.3835414e-7), (0.1050309, 0.98929405, 0.10132053), (0.5883036, 0.80864006, -9.198322e-8), (0.1448559, 0.9894528, -2.7813593e-8), (0.4028714, 0.9152566, -7.217035e-8), (0.1448559, 0.9894528, -2.7813593e-8), (0.5883036, 0.80864006, -9.198322e-8), (0, 0.813069, 0.5821673), (0.1050309, 0.98929405, 0.10132053), (0, 0.99464303, 0.103369474), (0, 0.99464303, 0.103369474), (0, 0.91229945, 0.40952381), (0, 0.813069, 0.5821673), (0.1050309, 0.98929405, 0.10132053), (0.1448559, 0.9894528, -2.7813593e-8), (0, 1, 0), (0, 0.99464303, 0.103369474), (0.1050309, 0.98929405, 0.10132053), (0, 1, 0), (0.1448559, 0.9894528, -2.7813593e-8), (0.4028714, 0.9152566, -7.217035e-8), (0.07017824, 0.99753445, -1.4966455e-8), (0.07017824, 0.99753445, -1.4966455e-8), (0, 1, 0), (0.1448559, 0.9894528, -2.7813593e-8), (0.4028714, 0.9152566, -7.217035e-8), (0.58230436, 0.8065752, -0.101774186), (0.10502127, 0.9892954, -0.10131625), (0.07017824, 0.99753445, -1.4966455e-8), (0.4028714, 0.9152566, -7.217035e-8), (0.10502127, 0.9892954, -0.10131625), (0.10502127, 0.9892954, -0.10131625), (0.58230436, 0.8065752, -0.101774186), (0.3812942, 0.8157515, -0.43493015), (0.10502127, 0.9892954, -0.10131625), (0.3812942, 0.8157515, -0.43493015), (0.077201344, 0.8136026, -0.5762731), (0, 0.32432935, -0.94594425), (0.077201344, 0.8136026, -0.5762731), (0.021906136, 0.33831432, -0.9407782), (0.077201344, 0.8136026, -0.5762731), (0, 0.32432935, -0.94594425), (-0.000001729505, 0.81315374, -0.58204895), (-0.000001729505, 0.81315374, -0.58204895), (0.10502127, 0.9892954, -0.10131625), (0.077201344, 0.8136026, -0.5762731), (-0.0000012234342, 0.4799035, -0.8773213), (-0.000001729505, 0.81315374, -0.58204895), (0, 0.32432935, -0.94594425), (0.10502127, 0.9892954, -0.10131625), (0, 1, 0), (0.07017824, 0.99753445, -1.4966455e-8), (0, 1, 0), (0.07017824, 0.99753445, -1.4966455e-8), (0, 1, 0), (0.10502127, 0.9892954, -0.10131625), (-0.000001729505, 0.81315374, -0.58204895), (-3.6831673e-7, 0.9900733, -0.1405522), (0, 1, 0), (0.10502127, 0.9892954, -0.10131625), (-3.6831673e-7, 0.9900733, -0.1405522), (-0.000001729505, 0.81315374, -0.58204895), (-0.0000012234342, 0.4799035, -0.8773213), (-0.0000016621613, 0.912306, -0.40950918), (-0.0000016621613, 0.912306, -0.40950918), (-3.6831673e-7, 0.9900733, -0.1405522), (-0.000001729505, 0.81315374, -0.58204895), (-0.09963547, 0.48057666, -0.87127423), (-0.0000016621613, 0.912306, -0.40950918), (-0.0000012234342, 0.4799035, -0.8773213), (-0.0000016621613, 0.912306, -0.40950918), (-0.09963547, 0.48057666, -0.87127423), (-0.08445917, 0.8959272, -0.43609762), (-3.6831673e-7, 0.9900733, -0.1405522), (-0.0000016621613, 0.912306, -0.40950918), (0, 0.997633, -0.068762384), (-0.08445917, 0.8959272, -0.43609762), (0, 0.997633, -0.068762384), (-0.0000016621613, 0.912306, -0.40950918), (0, 0.997633, -0.068762384), (0, 1, 0), (-3.6831673e-7, 0.9900733, -0.1405522), (0, 0.997633, -0.068762384), (-0.08445917, 0.8959272, -0.43609762), (-0.14277971, 0.9846554, -0.10033791), (-0.4321684, 0.77306974, -0.46432066), (-0.14277971, 0.9846554, -0.10033791), (-0.08445917, 0.8959272, -0.43609762), (-0.14277971, 0.9846554, -0.10033791), (-0.4321684, 0.77306974, -0.46432066), (-0.57730377, 0.8131385, -0.07433872), (-0.4967741, 0.8678798, 1.2659214e-7), (-0.14277971, 0.9846554, -0.10033791), (-0.57730377, 0.8131385, -0.07433872), (-0.1447648, 0.98946613, 3.0809225e-8), (-0.14277971, 0.9846554, -0.10033791), (-0.4967741, 0.8678798, 1.2659214e-7), (-0.1447648, 0.98946613, 3.0809225e-8), (0, 0.997633, -0.068762384), (-0.14277971, 0.9846554, -0.10033791), (-0.4968391, 0.86784273, 1.11922105e-7), (-0.1447648, 0.98946613, 3.0809225e-8), (-0.4967741, 0.8678798, 1.2659214e-7), (0, 1, 0), (0, 0.997633, -0.068762384), (0, 1, 0), (-0.1447648, 0.98946613, 3.0809225e-8), (0, 1, 0), (0, 0.997633, -0.068762384), (0, 1, 0), (0, 1, 0), (0, 1, 0), (-0.07014982, 0.9975365, 1.1968316e-8), (-0.1447648, 0.98946613, 3.0809225e-8), (-0.4968391, 0.86784273, 1.11922105e-7), (-0.07014982, 0.9975365, 1.1968316e-8), (0, 1, 0), (-0.1447648, 0.98946613, 3.0809225e-8), (0, 1, 0), (0, 1, 0), (0, 1, 0), (0, 1, 0), (0, 1, 0), (-0.07014982, 0.9975365, 1.1968316e-8), (0, 1, 0), (0, 1, 0), (0, 0.99464303, 0.103369474), (-0.4968391, 0.86784273, 1.11922105e-7), (-0.14279644, 0.9846523, 0.10034463), (-0.07014982, 0.9975365, 1.1968316e-8), (-0.14279644, 0.9846523, 0.10034463), (-0.4968391, 0.86784273, 1.11922105e-7), (-0.57731205, 0.81313336, 0.0743301), (-0.43215322, 0.7730821, 0.46431422), (-0.14279644, 0.9846523, 0.10034463), (-0.57731205, 0.81313336, 0.0743301), (-0.084472604, 0.89591974, 0.43611032), (-0.14279644, 0.9846523, 0.10034463), (-0.43215322, 0.7730821, 0.46431422), (-0.07014982, 0.9975365, 1.1968316e-8), (0, 0.9946428, 0.10337201), (0, 1, 0), (0, 0.9946428, 0.10337201), (-0.07014982, 0.9975365, 1.1968316e-8), (-0.14279644, 0.9846523, 0.10034463), (0, 0.9946428, 0.10337201), (0, 0.99464303, 0.103369474), (0, 1, 0), (-0.084472604, 0.89591974, 0.43611032), (0, 0.9946428, 0.10337201), (-0.14279644, 0.9846523, 0.10034463), (0, 0.91229945, 0.40952381), (0, 0.99464303, 0.103369474), (0, 0.9946428, 0.10337201), (0, 0.9946428, 0.10337201), (-0.084472604, 0.89591974, 0.43611032), (0, 0.91229945, 0.40952381), (0.58235127, -0.8065416, 0.10177201), (0.9155466, -0.402212, -1.5615848e-7), (0.9345007, -0.34821746, 0.073845774), (0.9155466, -0.402212, -1.5615848e-7), (0.58235127, -0.8065416, 0.10177201), (0.58831567, -0.8086313, -1.2278102e-7), (0.58831567, -0.8086313, -1.2278102e-7), (0.9155735, -0.40215078, -1.7610853e-7), (0.9155466, -0.402212, -1.5615848e-7), (0.9155735, -0.40215078, -1.7610853e-7), (0.58231217, -0.8065698, -0.10177193), (0.93451613, -0.34817603, -0.07384366), (0.1050334, -0.9892936, 0.10132243), (0.58831567, -0.8086313, -1.2278102e-7), (0.58235127, -0.8065416, 0.10177201), (0.38132927, -0.8157398, 0.43492118), (0.1050334, -0.9892936, 0.10132243), (0.58235127, -0.8065416, 0.10177201), (0.07721931, -0.8135583, 0.57633334), (0.1050334, -0.9892936, 0.10132243), (0.38132927, -0.8157398, 0.43492118), (5.765987e-7, -0.81308246, 0.5821485), (0.1050334, -0.9892936, 0.10132243), (0.07721931, -0.8135583, 0.57633334), (0.9155735, -0.40215078, -1.7610853e-7), (0.58831567, -0.8086313, -1.2278102e-7), (0.40289843, -0.91524464, -9.70732e-8), (0.40289843, -0.91524464, -9.70732e-8), (0.58231217, -0.8065698, -0.10177193), (0.9155735, -0.40215078, -1.7610853e-7), (0.58831567, -0.8086313, -1.2278102e-7), (0.1050334, -0.9892936, 0.10132243), (0.14487804, -0.98944956, -4.296026e-8), (0.14487804, -0.98944956, -4.296026e-8), (0.40289843, -0.91524464, -9.70732e-8), (0.58831567, -0.8086313, -1.2278102e-7), (0.1050334, -0.9892936, 0.10132243), (5.765987e-7, -0.81308246, 0.5821485), (2.455177e-7, -0.99007547, 0.14053635), (6.9254094e-7, -0.9123058, 0.4095097), (2.455177e-7, -0.99007547, 0.14053635), (5.765987e-7, -0.81308246, 0.5821485), (0.1050334, -0.9892936, 0.10132243), (0, -1, 0), (0.14487804, -0.98944956, -4.296026e-8), (0.1050334, -0.9892936, 0.10132243), (2.455177e-7, -0.99007547, 0.14053635), (0, -1, 0), (0.40289843, -0.91524464, -9.70732e-8), (0.14487804, -0.98944956, -4.296026e-8), (0.07019698, -0.99753314, -1.796454e-8), (0, -1, 0), (0.07019698, -0.99753314, -1.796454e-8), (0.14487804, -0.98944956, -4.296026e-8), (2.455177e-7, -0.99007547, 0.14053635), (6.9254094e-7, -0.9123058, 0.4095097), (1.1385691e-7, -0.9976332, 0.068759955), (1.1385691e-7, -0.9976332, 0.068759955), (0, -1, 0), (2.455177e-7, -0.99007547, 0.14053635), (-0.08453967, -0.89591986, 0.4360971), (1.1385691e-7, -0.9976332, 0.068759955), (6.9254094e-7, -0.9123058, 0.4095097), (0.07019698, -0.99753314, -1.796454e-8), (0, -1, 0), (0, -1, 0), (1.1385691e-7, -0.9976332, 0.068759955), (-0.08453967, -0.89591986, 0.4360971), (-0.14280574, -0.9846518, 0.10033623), (-0.08453967, -0.89591986, 0.4360971), (-0.39976376, -0.79545957, 0.45544824), (-0.14280574, -0.9846518, 0.10033623), (-0.39976376, -0.79545957, 0.45544824), (-0.577312, -0.8131321, 0.074342966), (-0.14280574, -0.9846518, 0.10033623), (-0.14280574, -0.9846518, 0.10033623), (-0.577312, -0.8131321, 0.074342966), (-0.40302342, -0.9151897, 6.106494e-8), (0, -1, 0), (1.1385691e-7, -0.9976332, 0.068759955), (0, -1, 0), (0, -1, 0), (0, -1, 0), (0, -1, 0), (-0.14280574, -0.9846518, 0.10033623), (-0.07014982, -0.9975365, 1.1968315e-8), (1.1385691e-7, -0.9976332, 0.068759955), (1.1385691e-7, -0.9976332, 0.068759955), (-0.07014982, -0.9975365, 1.1968315e-8), (0, -1, 0), (-0.14280574, -0.9846518, 0.10033623), (-0.40302342, -0.9151897, 6.106494e-8), (-0.07014982, -0.9975365, 1.1968315e-8), (-0.07014982, -0.9975365, 1.1968315e-8), (0, -1, 0), (0, -1, 0), (0, -1, 0), (0, -1, 0), (0, -1, 0), (-0.40302342, -0.9151897, 6.106494e-8), (-0.14478683, -0.98946285, 1.5749333e-8), (-0.07014982, -0.9975365, 1.1968315e-8), (0, -1, 0), (-0.07014982, -0.9975365, 1.1968315e-8), (-0.14478683, -0.98946285, 1.5749333e-8), (-0.14478683, -0.98946285, 1.5749333e-8), (-0.40302342, -0.9151897, 6.106494e-8), (-0.5889185, -0.8081924, 9.2463985e-8), (0, -1, 0), (2.709471e-7, -0.99464047, -0.103394456), (0, -1, 0), (-0.14478683, -0.98946285, 1.5749333e-8), (-0.5889185, -0.8081924, 9.2463985e-8), (-0.14282672, -0.9846463, -0.10035991), (-0.5889185, -0.8081924, 9.2463985e-8), (-0.5773041, -0.8131365, -0.07435659), (-0.14282672, -0.9846463, -0.10035991), (-0.14282672, -0.9846463, -0.10035991), (-0.5773041, -0.8131365, -0.07435659), (-0.43220323, -0.77305424, -0.46431386), (-0.14282672, -0.9846463, -0.10035991), (-0.43220323, -0.77305424, -0.46431386), (-0.08450461, -0.895915, -0.4361137), (0, -1, 0), (-0.14478683, -0.98946285, 1.5749333e-8), (5.136109e-7, -0.99464065, -0.1033921), (-0.14478683, -0.98946285, 1.5749333e-8), (-0.14282672, -0.9846463, -0.10035991), (5.136109e-7, -0.99464065, -0.1033921), (-0.08450461, -0.895915, -0.4361137), (5.136109e-7, -0.99464065, -0.1033921), (-0.14282672, -0.9846463, -0.10035991), (2.709471e-7, -0.99464047, -0.103394456), (0, -1, 0), (5.136109e-7, -0.99464065, -0.1033921), (5.136109e-7, -0.99464065, -0.1033921), (-0.08450461, -0.895915, -0.4361137), (4.1554338e-7, -0.9122988, -0.40952522), (4.1554338e-7, -0.9122988, -0.40952522), (2.709471e-7, -0.99464047, -0.103394456), (5.136109e-7, -0.99464065, -0.1033921), (-0.09965525, -0.480514, -0.87130654), (4.1554338e-7, -0.9122988, -0.40952522), (-0.08450461, -0.895915, -0.4361137), (4.1554338e-7, -0.9122988, -0.40952522), (-0.09965525, -0.480514, -0.87130654), (0.0000032625665, -0.4798185, -0.8773678), (0.0000032625665, -0.4798185, -0.8773678), (0.0000012972645, -0.8131241, -0.5820904), (4.1554338e-7, -0.9122988, -0.40952522), (2.709471e-7, -0.99464047, -0.103394456), (4.1554338e-7, -0.9122988, -0.40952522), (0.0000012972645, -0.8131241, -0.5820904), (0.0000012972645, -0.8131241, -0.5820904), (0.0000032625665, -0.4798185, -0.8773678), (0.0000030126591, -0.3243281, -0.94594467), (0.07721774, -0.8135792, -0.57630414), (0.0000030126591, -0.3243281, -0.94594467), (0.0219065, -0.33834708, -0.9407664), (0.0000030126591, -0.3243281, -0.94594467), (0.07721774, -0.8135792, -0.57630414), (0.0000012972645, -0.8131241, -0.5820904), (0.0000012972645, -0.8131241, -0.5820904), (0.10504859, -0.98929006, -0.10134155), (2.709471e-7, -0.99464047, -0.103394456), (0.10504859, -0.98929006, -0.10134155), (0.0000012972645, -0.8131241, -0.5820904), (0.07721774, -0.8135792, -0.57630414), (0.10504859, -0.98929006, -0.10134155), (0, -1, 0), (2.709471e-7, -0.99464047, -0.103394456), (0.38130078, -0.8157532, -0.43492112), (0.10504859, -0.98929006, -0.10134155), (0.07721774, -0.8135792, -0.57630414), (0, -1, 0), (0.10504859, -0.98929006, -0.10134155), (0.07019698, -0.99753314, -1.796454e-8), (0.10504859, -0.98929006, -0.10134155), (0.38130078, -0.8157532, -0.43492112), (0.58231217, -0.8065698, -0.10177193), (0.40289843, -0.91524464, -9.70732e-8), (0.07019698, -0.99753314, -1.796454e-8), (0.10504859, -0.98929006, -0.10134155), (0.40289843, -0.91524464, -9.70732e-8), (0.10504859, -0.98929006, -0.10134155), (0.58231217, -0.8065698, -0.10177193)] (
        interpolation = "faceVarying"
    )
    point3f[] points = [(-0.009555839, 0.29618862, 0.4488406), (-0.009889701, 0.29645833, 0.4484457), (-0.009889168, 0.29618862, 0.44850734), (-0.009556716, 0.29662016, 0.448742), (-0.009001297, 0.29667413, 0.4488406), (-0.009557213, 0.29687914, 0.4484457), (-0.009001869, 0.29696545, 0.44850734), (-0.009557327, 0.29696545, 0.44795182), (-0.009889969, 0.29662016, 0.4482605), (-0.009890083, 0.29667413, 0.44795182), (0.009490563, 0.29645833, 0.4488406), (0.009886527, 0.29618862, 0.44850734), (0.009786278, 0.29662016, 0.44850734), (0.009553238, 0.29618862, 0.4488406), (0.009551025, 0.29696545, 0.44795182), (0.009489533, 0.29687914, 0.44850734), (0.009884887, 0.29667413, 0.44795182), (0.0089967875, 0.29667413, 0.4488406), (0.00930513, 0.29662016, 0.4488406), (0.008996254, 0.29696545, 0.44850734), (-0.009889853, 0.29645836, -0.44844523), (-0.00955603, 0.29618865, -0.44884035), (-0.0098893205, 0.29618865, -0.44850686), (-0.009556869, 0.2966202, -0.44874156), (-0.009001488, 0.29667413, -0.44884035), (-0.009557365, 0.29687917, -0.44844523), (-0.0090020215, 0.29696545, -0.44850686), (-0.009557555, 0.29696545, -0.44795153), (-0.009890121, 0.2966202, -0.44825998), (-0.009890236, 0.29667413, -0.44795153), (0.009886376, 0.29618868, -0.44850695), (0.00949041, 0.29645836, -0.44884035), (0.009786125, 0.2966202, -0.44850695), (0.009553047, 0.29618868, -0.44884035), (0.009884735, 0.29667413, -0.44795153), (0.009550872, 0.29696545, -0.44795153), (0.00948938, 0.29687917, -0.44850695), (0.008996063, 0.29696545, -0.44850695), (0.009304939, 0.2966202, -0.44884035), (0.008996636, 0.29667413, -0.44884035), (-0.009555978, -0.2961891, 0.44884068), (-0.00988984, -0.2964588, 0.4484456), (-0.009556855, -0.29662064, 0.44874188), (-0.009889306, -0.2961891, 0.44850743), (-0.0090013975, -0.2966746, 0.44884068), (-0.009557313, -0.29687962, 0.4484456), (-0.009002008, -0.29696593, 0.44850743), (-0.009890107, -0.29662064, 0.44826046), (-0.009890222, -0.2966746, 0.44795188), (-0.009557466, -0.29696593, 0.44795188), (0.0094903475, -0.2964588, 0.44884068), (0.009886275, -0.29618913, 0.4485074), (0.009553024, -0.29618913, 0.44884068), (0.009786063, -0.29662064, 0.4485074), (0.009489317, -0.29687962, 0.4485074), (0.009550772, -0.29696593, 0.44795185), (0.009884634, -0.2966746, 0.44795185), (0.008996572, -0.2966746, 0.44884068), (0.008996039, -0.29696593, 0.4485074), (0.009304876, -0.29662064, 0.44884068), (0.008370619, -0.2966746, 0.44884068), (0.008370085, -0.29696593, 0.4485074), (-0.009556169, -0.2961891, -0.44884035), (-0.009889993, -0.2964588, -0.44844523), (-0.009889458, -0.2961891, -0.44850695), (-0.009557008, -0.29662064, -0.44874156), (-0.009557466, -0.2968796, -0.44844523), (-0.009001627, -0.2966746, -0.44884035), (-0.00900216, -0.2969659, -0.44850695), (-0.009557657, -0.2969659, -0.44795153), (-0.00989026, -0.29662064, -0.44825998), (-0.009890375, -0.2966746, -0.44795153), (0.009550619, -0.2969659, -0.44795144), (0.00978591, -0.29662064, -0.44850695), (0.009884481, -0.2966746, -0.44795144), (0.009489165, -0.2968796, -0.44850695), (0.008995848, -0.2969659, -0.44850695), (0.0093046855, -0.29662064, -0.44884026), (0.008996421, -0.2966746, -0.44884026), (-0.010000251, 0.29618862, 0.44795182), (-0.009998726, 0.295406, 0.44795182), (-0.0098876795, 0.295406, 0.44850734), (-0.010000251, 0.29618862, 0.44728452), (-0.009890083, 0.29667413, 0.44728452), (-0.009557327, 0.29696545, 0.44728452), (-0.009890236, 0.29667413, -0.44728404), (-0.009557555, 0.29696545, -0.44728404), (-0.010000442, 0.29618868, -0.44728404), (-0.010000442, 0.29618868, -0.44795153), (-0.009998955, 0.29540607, -0.44728404), (-0.009998955, 0.29540607, -0.44795153), (-0.009887832, 0.29540607, -0.44850686), (-0.009554543, 0.29540607, -0.44884035), (-0.0099990545, -0.29540646, -0.44728404), (-0.009887933, -0.29540646, -0.44850695), (-0.00955468, -0.29540646, -0.44884035), (-0.0099990545, -0.29540646, -0.44795153), (-0.010000581, -0.2961891, -0.44795153), (-0.010000581, -0.2961891, -0.44728404), (-0.009890375, -0.2966746, -0.44728404), (-0.009557657, -0.2969659, -0.44728404), (-0.009998864, -0.29540655, 0.44728443), (-0.009890222, -0.2966746, 0.44728443), (-0.009557466, -0.29696593, 0.44728443), (-0.010000352, -0.29618913, 0.44728443), (-0.010000352, -0.29618913, 0.44795188), (-0.009998864, -0.29540655, 0.44795188), (-0.00988778, -0.29540655, 0.44850743), (-0.009998726, 0.295406, 0.44728452), (0.008997703, 0.29618862, 0.44895184), (0.00837175, 0.29618862, 0.44895184), (0.008999229, 0.29540607, 0.44895184), (0.008370834, 0.29667413, 0.4488406), (0.0083703, 0.29696545, 0.44850734), (0.008373237, 0.29540607, 0.44895184), (-0.008375305, 0.29667413, 0.4488406), (-0.008375916, 0.29696545, 0.44850734), (-0.008374389, 0.29618862, 0.44895184), (-0.008372902, 0.29540607, 0.44895184), (-0.009000343, 0.29618862, 0.44895184), (-0.008998855, 0.29540607, 0.44895184), (-0.00955439, 0.295406, 0.4488406), (-0.009554528, -0.29540655, 0.44884068), (-0.008998994, -0.29540655, 0.44895172), (-0.009000481, -0.2961891, 0.44895172), (-0.008376016, -0.29696593, 0.44850743), (-0.0083754435, -0.2966746, 0.44884068), (-0.008374528, -0.2961891, 0.44895172), (0.008371535, -0.2961891, 0.4489517), (-0.00837304, -0.29540655, 0.44895172), (0.008373023, -0.29540655, 0.4489517), (0.008997489, -0.2961891, 0.4489517), (0.008998977, -0.29540655, 0.4489517), (0.009554511, -0.29540658, 0.44884068), (0.009554725, 0.29540607, 0.4488406), (0.009887801, -0.29540658, 0.4485074), (0.009888016, 0.29540607, 0.44850734), (0.008997551, 0.29618865, -0.44895136), (0.008371597, 0.29618865, -0.44895136), (0.008370682, 0.29667413, -0.44884035), (0.008999077, 0.2954061, -0.44895136), (0.009554535, 0.2954061, -0.44884035), (0.00955432, -0.29540655, -0.44884026), (0.0083730845, 0.2954061, -0.44895136), (0.008998824, -0.29540655, -0.44895136), (0.0095527945, -0.2961891, -0.44884026), (-0.008373093, 0.29540607, -0.44895136), (0.008997336, -0.2961891, -0.44895136), (0.009490195, -0.2964588, -0.44884026), (0.00837287, -0.29540655, -0.44895136), (0.008371383, -0.2961891, -0.44895136), (0.0083704665, -0.2966746, -0.44884026), (-0.008373231, -0.2954065, -0.44895136), (-0.00837468, -0.2961891, -0.44895136), (-0.008375634, -0.2966746, -0.44884035), (-0.008999008, 0.29540607, -0.44895136), (-0.009000634, -0.2961891, -0.44895136), (-0.0089991465, -0.2954065, -0.44895136), (-0.009000496, 0.29618865, -0.44895136), (-0.008375534, 0.29667413, -0.44884035), (-0.008374618, 0.29618865, -0.44895136), (0.009886122, -0.2961891, -0.44850695), (0.009887649, -0.29540655, -0.44850695), (0.009997398, -0.29618913, 0.44795185), (0.009998885, -0.29540655, 0.44795185), (0.009997398, -0.29618913, 0.44728455), (0.009884634, -0.2966746, 0.44728455), (0.009884481, -0.2966746, -0.4472841), (0.009998885, -0.29540655, 0.44728455), (0.009997207, -0.2961891, -0.4472841), (0.009999099, 0.29540607, 0.44795182), (0.009997207, -0.2961891, -0.44795144), (0.009998732, -0.29540655, -0.4472841), (0.009998732, -0.29540655, -0.44795144), (0.009999099, 0.29540607, 0.44728446), (0.009998947, 0.2954061, -0.4472841), (0.009998947, 0.2954061, -0.44795153), (0.00999765, 0.29618862, 0.44795182), (0.00999765, 0.29618862, 0.44728446), (0.009884887, 0.29667413, 0.44728446), (0.009997459, 0.29618868, -0.4472841), (0.009884735, 0.29667413, -0.4472841), (0.009997459, 0.29618868, -0.44795153), (0.009887863, 0.2954061, -0.44850695), (0.009551025, 0.29696545, 0.44728446), (0.008996063, 0.29706255, 0.44795182), (0.009550872, 0.29696545, -0.4472841), (0.008996063, 0.29706255, 0.44728446), (0.00837011, 0.29706255, 0.44795182), (0.00837011, 0.29706255, 0.44728446), (0.008995872, 0.29706255, -0.4472841), (0.008995872, 0.29706255, -0.44795153), (0.00837011, 0.29696545, -0.44850695), (0.008369919, 0.29706255, -0.4472841), (0.008369919, 0.29706255, -0.44795153), (-0.0083760675, 0.29696545, -0.44850686), (-0.008376258, 0.29706255, -0.44795153), (-0.009002212, 0.29706255, -0.44795153), (-0.009002212, 0.29706255, -0.44728404), (-0.008376258, 0.29706255, -0.44728404), (-0.00900206, 0.29706255, 0.44728452), (-0.008376106, 0.29706255, 0.44728452), (-0.00900206, 0.29706255, 0.44795182), (-0.008376106, 0.29706255, 0.44795182), (0.009550772, -0.29696593, 0.44728455), (0.008995848, -0.29706302, 0.44795185), (0.009550619, -0.2969659, -0.4472841), (0.008995848, -0.29706302, 0.44728455), (0.008369895, -0.29706302, 0.44795185), (0.008369895, -0.29706302, 0.44728455), (0.008995619, -0.29706302, -0.4472841), (-0.008376244, -0.29706302, 0.44795188), (0.008369666, -0.29706302, -0.4472841), (-0.009002198, -0.29706302, 0.44795188), (-0.008376244, -0.29706302, 0.44728443), (-0.009002198, -0.29706302, 0.44728443), (-0.008376397, -0.29706302, -0.44728404), (-0.009002351, -0.29706302, -0.44728404), (0.008369666, -0.29706302, -0.44795144), (-0.009002351, -0.29706302, -0.44795153), (-0.008376397, -0.29706302, -0.44795153), (-0.008376169, -0.2969659, -0.44850695), (0.0083698565, -0.2969659, -0.44850695), (0.008995619, -0.29706302, -0.44795144)]
}

