#usda 1.0
(
    defaultPrim = "SM_Kitchen_Base_Board_01_1_007_1_0_1_0"
    upAxis = "Z"
)

def Mesh "SM_Kitchen_Base_Board_01_1_007_1_0_1_0"
{
    int[] faceVertexCounts = [3, 3, 3, 3, 3, 3, 3, 3, 3, 3, 3, 3, 3, 3, 3, 3, 3, 3, 3, 3, 3, 3, 3, 3, 3, 3, 3, 3, 3, 3, 3, 3, 3, 3, 3, 3, 3, 3, 3, 3, 3, 3, 3, 3, 3, 3, 3, 3, 3, 3, 3, 3, 3, 3, 3, 3, 3, 3, 3, 3, 3, 3, 3, 3, 3, 3, 3, 3, 3, 3, 3, 3, 3, 3, 3, 3, 3, 3, 3, 3, 3, 3, 3, 3, 3, 3, 3, 3, 3, 3, 3, 3, 3, 3, 3, 3, 3, 3, 3, 3, 3, 3, 3, 3, 3, 3, 3, 3, 3, 3, 3, 3, 3, 3, 3, 3, 3, 3, 3, 3, 3, 3, 3, 3, 3, 3, 3, 3, 3, 3, 3, 3, 3, 3, 3, 3, 3, 3, 3, 3, 3, 3, 3, 3, 3, 3, 3, 3, 3, 3, 3, 3, 3, 3, 3, 3, 3, 3, 3, 3, 3, 3, 3, 3, 3, 3, 3, 3, 3, 3, 3, 3, 3, 3, 3, 3, 3, 3, 3, 3, 3, 3, 3, 3, 3, 3, 3, 3, 3, 3, 3, 3, 3, 3, 3, 3, 3, 3, 3, 3, 3, 3, 3, 3, 3, 3, 3, 3, 3, 3, 3, 3, 3, 3, 3, 3, 3, 3, 3, 3, 3, 3, 3, 3, 3, 3, 3, 3, 3, 3, 3, 3, 3, 3, 3, 3, 3, 3, 3, 3, 3, 3, 3, 3, 3, 3, 3, 3, 3, 3, 3, 3, 3, 3, 3, 3, 3, 3, 3, 3, 3, 3, 3, 3, 3, 3, 3, 3, 3, 3, 3, 3, 3, 3, 3, 3, 3, 3, 3, 3, 3, 3, 3, 3, 3, 3, 3, 3, 3, 3, 3, 3, 3, 3, 3, 3, 3, 3, 3, 3, 3, 3, 3, 3, 3, 3, 3, 3, 3, 3, 3, 3, 3, 3, 3, 3, 3, 3, 3, 3, 3, 3, 3, 3, 3, 3, 3, 3, 3, 3, 3, 3, 3, 3, 3, 3, 3, 3, 3, 3, 3, 3, 3, 3, 3, 3, 3, 3, 3, 3, 3, 3, 3, 3, 3, 3, 3, 3, 3, 3, 3, 3, 3, 3, 3, 3, 3, 3, 3, 3, 3, 3, 3, 3, 3, 3, 3, 3, 3, 3, 3, 3, 3, 3, 3, 3, 3, 3, 3, 3, 3, 3, 3, 3, 3, 3, 3, 3, 3, 3, 3, 3, 3, 3, 3, 3, 3, 3, 3, 3, 3, 3, 3, 3, 3, 3, 3, 3, 3, 3, 3, 3, 3, 3, 3, 3, 3, 3, 3, 3, 3, 3, 3, 3, 3, 3, 3, 3, 3, 3, 3, 3, 3, 3]
    int[] faceVertexIndices = [0, 1, 2, 1, 0, 3, 4, 5, 3, 5, 4, 6, 5, 7, 8, 8, 7, 9, 10, 11, 12, 11, 10, 13, 14, 15, 13, 13, 16, 14, 17, 18, 15, 18, 17, 19, 20, 21, 22, 21, 20, 23, 24, 25, 26, 25, 24, 23, 27, 25, 28, 27, 28, 29, 30, 31, 32, 31, 30, 33, 34, 32, 35, 35, 32, 36, 37, 36, 38, 37, 38, 39, 40, 41, 42, 41, 40, 43, 44, 45, 42, 45, 44, 46, 47, 48, 49, 47, 49, 44, 50, 51, 52, 51, 50, 53, 54, 55, 53, 53, 55, 56, 57, 58, 59, 59, 58, 54, 60, 61, 62, 61, 60, 63, 64, 65, 63, 65, 64, 66, 67, 68, 65, 68, 67, 69, 70, 71, 72, 71, 70, 73, 73, 74, 75, 75, 74, 76, 77, 78, 71, 78, 77, 79, 79, 80, 78, 80, 79, 81, 8, 3, 5, 3, 8, 1, 82, 1, 8, 82, 2, 1, 82, 8, 9, 2, 82, 83, 84, 2, 83, 9, 85, 82, 82, 85, 83, 85, 9, 86, 7, 86, 9, 86, 7, 87, 87, 88, 86, 86, 88, 89, 89, 85, 86, 88, 90, 89, 89, 90, 29, 85, 89, 91, 89, 29, 91, 85, 91, 92, 83, 85, 92, 91, 29, 93, 93, 29, 28, 92, 94, 95, 96, 28, 20, 25, 20, 28, 25, 23, 20, 96, 20, 22, 97, 98, 99, 22, 99, 98, 100, 101, 102, 102, 22, 103, 103, 22, 21, 103, 21, 104, 105, 106, 107, 105, 92, 108, 109, 110, 103, 111, 110, 112, 113, 103, 104, 112, 103, 113, 113, 104, 114, 60, 113, 114, 113, 60, 62, 62, 112, 113, 92, 115, 116, 92, 116, 83, 117, 62, 118, 118, 62, 61, 119, 120, 121, 119, 121, 122, 123, 116, 124, 65, 61, 63, 61, 65, 68, 125, 61, 68, 125, 68, 69, 126, 127, 69, 128, 129, 130, 131, 132, 67, 67, 133, 134, 134, 135, 129, 116, 129, 135, 133, 136, 134, 135, 134, 136, 136, 133, 137, 49, 136, 137, 48, 136, 49, 48, 135, 136, 48, 138, 135, 138, 48, 47, 42, 47, 44, 47, 42, 41, 138, 47, 41, 138, 41, 43, 139, 135, 138, 43, 139, 138, 135, 139, 116, 139, 83, 116, 139, 84, 83, 43, 140, 139, 84, 139, 140, 40, 140, 43, 140, 141, 84, 40, 142, 140, 141, 140, 142, 18, 13, 15, 13, 18, 11, 143, 11, 18, 143, 18, 19, 143, 12, 11, 19, 144, 143, 145, 12, 143, 144, 19, 146, 17, 146, 19, 146, 17, 147, 12, 145, 148, 148, 10, 12, 10, 148, 149, 145, 150, 148, 147, 151, 146, 151, 147, 152, 150, 145, 153, 153, 52, 150, 4, 152, 6, 152, 4, 151, 154, 52, 153, 154, 50, 52, 155, 153, 145, 143, 155, 145, 155, 143, 144, 155, 156, 153, 156, 154, 153, 144, 157, 155, 157, 156, 155, 154, 59, 50, 59, 53, 50, 53, 59, 54, 154, 57, 59, 154, 156, 158, 158, 57, 154, 157, 159, 156, 159, 158, 156, 57, 158, 160, 160, 58, 57, 58, 160, 161, 162, 160, 158, 158, 159, 162, 163, 161, 160, 160, 162, 163, 161, 163, 164, 164, 45, 46, 45, 164, 163, 163, 165, 45, 165, 163, 162, 165, 42, 45, 42, 165, 40, 40, 165, 142, 162, 166, 165, 142, 165, 166, 166, 162, 159, 141, 142, 166, 159, 167, 166, 141, 166, 167, 167, 159, 157, 168, 167, 157, 157, 144, 168, 146, 168, 144, 168, 146, 151, 167, 168, 169, 151, 169, 168, 169, 141, 167, 169, 151, 4, 3, 169, 4, 169, 3, 0, 141, 169, 0, 0, 84, 141, 84, 0, 2, 31, 36, 32, 36, 31, 38, 170, 38, 31, 170, 31, 33, 170, 39, 38, 33, 171, 170, 33, 172, 171, 81, 171, 172, 173, 39, 170, 171, 81, 174, 81, 79, 174, 175, 170, 171, 174, 175, 171, 170, 175, 173, 79, 176, 174, 176, 79, 77, 175, 174, 177, 176, 177, 174, 176, 77, 75, 71, 75, 77, 75, 71, 73, 176, 75, 76, 76, 178, 176, 177, 176, 178, 178, 76, 179, 178, 180, 177, 180, 175, 177, 179, 181, 178, 180, 178, 181, 181, 179, 182, 175, 180, 183, 183, 173, 175, 182, 184, 181, 184, 182, 64, 63, 184, 64, 184, 63, 60, 184, 60, 114, 185, 181, 184, 185, 184, 114, 181, 185, 180, 114, 104, 185, 186, 180, 185, 186, 185, 104, 180, 186, 183, 187, 186, 104, 187, 104, 21, 23, 187, 21, 187, 23, 24, 186, 188, 183, 188, 186, 187, 173, 183, 188, 189, 187, 24, 187, 189, 188, 190, 24, 26, 24, 190, 189, 191, 189, 190, 188, 192, 173, 192, 188, 189, 189, 191, 192, 39, 173, 192, 37, 192, 191, 192, 37, 39, 193, 14, 16, 14, 193, 194, 195, 194, 193, 195, 196, 35, 14, 194, 197, 15, 14, 197, 17, 15, 197, 197, 147, 17, 194, 198, 199, 200, 201, 198, 197, 194, 202, 201, 202, 194, 147, 203, 204, 204, 152, 147, 203, 205, 206, 204, 207, 206, 208, 201, 209, 209, 206, 208, 201, 210, 211, 209, 212, 211, 211, 213, 36, 211, 36, 37, 191, 211, 37, 211, 214, 209, 206, 209, 214, 211, 191, 215, 216, 211, 217, 190, 217, 191, 217, 190, 218, 218, 219, 220, 26, 218, 190, 206, 221, 222, 221, 218, 222, 218, 26, 223, 25, 223, 26, 223, 25, 90, 224, 223, 225, 226, 218, 223, 223, 227, 226, 226, 222, 218, 87, 226, 227, 228, 222, 226, 228, 226, 87, 222, 229, 206, 229, 222, 228, 206, 229, 204, 87, 230, 231, 232, 87, 7, 5, 232, 7, 6, 232, 5, 233, 234, 229, 234, 233, 235, 234, 204, 229, 6, 234, 235, 152, 204, 234, 234, 6, 152, 55, 236, 56, 236, 55, 237, 237, 238, 236, 238, 70, 239, 240, 237, 55, 54, 240, 55, 58, 240, 54, 161, 240, 58, 241, 237, 242, 242, 243, 241, 237, 240, 244, 244, 245, 237, 246, 161, 247, 164, 247, 161, 246, 248, 249, 250, 247, 248, 245, 251, 252, 248, 252, 251, 247, 164, 253, 253, 248, 247, 46, 253, 164, 252, 248, 254, 253, 46, 255, 46, 44, 255, 44, 49, 255, 255, 49, 137, 248, 253, 256, 256, 254, 248, 257, 253, 258, 253, 259, 256, 260, 137, 261, 261, 262, 256, 254, 256, 262, 137, 263, 261, 262, 261, 263, 263, 137, 133, 262, 264, 265, 263, 133, 266, 133, 267, 266, 266, 267, 65, 266, 65, 66, 262, 263, 268, 263, 266, 268, 66, 268, 266, 269, 262, 268, 268, 66, 270, 270, 269, 268, 64, 270, 66, 270, 64, 182, 182, 271, 270, 269, 270, 271, 271, 182, 179, 74, 179, 76, 179, 74, 271, 271, 272, 269, 272, 271, 74, 272, 273, 274, 73, 272, 74, 275, 272, 252, 272, 73, 276, 277, 252, 272, 277, 272, 278, 172, 33, 279, 279, 81, 172, 30, 279, 33, 81, 279, 80, 280, 279, 30, 32, 280, 30, 280, 32, 281, 282, 80, 279, 280, 282, 279, 283, 280, 281, 284, 283, 285, 286, 282, 280, 283, 286, 280, 287, 283, 288, 287, 286, 283, 288, 193, 287, 16, 287, 193, 286, 289, 282, 282, 289, 80, 290, 291, 16, 13, 292, 16, 292, 13, 10, 149, 292, 10, 292, 293, 294, 293, 286, 294, 295, 149, 296, 296, 297, 295, 297, 298, 286, 289, 286, 298, 299, 300, 301, 301, 300, 298, 149, 302, 303, 303, 302, 304, 305, 149, 306, 148, 306, 149, 306, 148, 150, 52, 306, 150, 306, 52, 51, 306, 307, 305, 51, 307, 306, 307, 308, 309, 53, 307, 51, 307, 53, 56, 310, 307, 311, 56, 311, 312, 313, 298, 310, 313, 56, 236, 236, 241, 313, 313, 241, 314, 298, 313, 314, 314, 241, 315, 298, 314, 316, 314, 315, 316, 298, 316, 289, 71, 316, 315, 289, 316, 80, 316, 71, 78, 316, 78, 80]
    normal3f[] normals = [(0.5277729, 0.84756565, 0.055572428), (0.8554818, 0.48551613, 0.18006973), (0.9268411, 0.375164, 0.014749591), (0.8554818, 0.48551613, 0.18006973), (0.5277729, 0.84756565, 0.055572428), (0.43091568, 0.8245596, 0.36662427), (0.095979944, 0.8402046, 0.533708), (0.36377466, 0.41454193, 0.8341601), (0.43091568, 0.8245596, 0.36662427), (0.36377466, 0.41454193, 0.8341601), (0.095979944, 0.8402046, 0.533708), (0.07520751, 0.3879766, 0.9185956), (0.36377466, 0.41454193, 0.8341601), (0.52348006, 0.06740732, 0.84936726), (0.83430064, 0.24570633, 0.4935289), (0.83430064, 0.24570633, 0.4935289), (0.52348006, 0.06740732, 0.84936726), (0.9246279, 0.020434367, 0.38032317), (-0.8474514, 0.5276583, 0.05833336), (-0.48537093, 0.85496587, 0.1828888), (-0.37528405, 0.92675227, 0.017089473), (-0.48537093, 0.85496587, 0.1828888), (-0.8474514, 0.5276583, 0.05833336), (-0.81119144, 0.39589298, 0.43039188), (-0.5288149, 0.09241856, 0.8436905), (-0.34552288, 0.39409548, 0.851647), (-0.81119144, 0.39589298, 0.43039188), (-0.81119144, 0.39589298, 0.43039188), (-0.91649497, 0.072402, 0.39343965), (-0.5288149, 0.09241856, 0.8436905), (-0.07001561, 0.52254903, 0.84972966), (-0.24580136, 0.8334503, 0.49491647), (-0.34552288, 0.39409548, 0.851647), (-0.24580136, 0.8334503, 0.49491647), (-0.07001561, 0.52254903, 0.84972966), (-0.021476682, 0.92357725, 0.38281035), (0.8350314, -0.4919734, 0.24634261), (0.5278488, -0.8475143, 0.055635903), (0.92681056, -0.37523973, 0.01474808), (0.5278488, -0.8475143, 0.055635903), (0.8350314, -0.4919734, 0.24634261), (0.39603752, -0.8494477, 0.3487015), (0.09606031, -0.84014773, 0.53378296), (0.39516053, -0.42466518, 0.81455976), (0.07521401, -0.3880078, 0.9185819), (0.39516053, -0.42466518, 0.81455976), (0.09606031, -0.84014773, 0.53378296), (0.39603752, -0.8494477, 0.3487015), (0.6985684, -0.13966835, 0.7017798), (0.39516053, -0.42466518, 0.81455976), (0.8546428, -0.17999925, 0.48701727), (0.6985684, -0.13966835, 0.7017798), (0.8546428, -0.17999925, 0.48701727), (0.9246282, -0.02045756, 0.380321), (-0.8780901, -0.47280437, 0.073578954), (-0.49187103, -0.8343397, 0.24887763), (-0.83091676, -0.36448294, 0.4203919), (-0.49187103, -0.8343397, 0.24887763), (-0.8780901, -0.47280437, 0.073578954), (-0.44717586, -0.8943353, 0.014073911), (-0.6901872, -0.19919536, 0.6956744), (-0.83091676, -0.36448294, 0.4203919), (-0.69888765, -0.12332271, 0.70451945), (-0.69888765, -0.12332271, 0.70451945), (-0.83091676, -0.36448294, 0.4203919), (-0.36340615, -0.42882752, 0.827069), (-0.070014454, -0.5225039, 0.84975743), (-0.36340615, -0.42882752, 0.827069), (-0.1800317, -0.85384655, 0.48840022), (-0.070014454, -0.5225039, 0.84975743), (-0.1800317, -0.85384655, 0.48840022), (-0.021474354, -0.92363775, 0.38266438), (0.52772665, 0.8475856, -0.0557076), (0.85544676, 0.48552454, -0.18021303), (0.43095565, 0.82452756, -0.3666491), (0.85544676, 0.48552454, -0.18021303), (0.52772665, 0.8475856, -0.0557076), (0.9268345, 0.37517858, -0.0147904465), (0.36376402, 0.41448325, -0.8341939), (0.09609048, 0.8401579, -0.5337615), (0.43095565, 0.82452756, -0.3666491), (0.09609048, 0.8401579, -0.5337615), (0.36376402, 0.41448325, -0.8341939), (0.0751134, 0.38807344, -0.91856253), (0.8342586, 0.24574363, -0.49358153), (0.9246079, 0.02043631, -0.38037184), (0.5234168, 0.06728293, -0.849416), (0.8342586, 0.24574363, -0.49358153), (0.5234168, 0.06728293, -0.849416), (0.36376402, 0.41448325, -0.8341939), (-0.48533085, 0.8550011, -0.18283097), (-0.8780874, 0.47281104, -0.07356889), (-0.44711602, 0.894365, -0.014090752), (-0.8780874, 0.47281104, -0.07356889), (-0.48533085, 0.8550011, -0.18283097), (-0.81116366, 0.3958869, -0.43044978), (-0.34546566, 0.3940348, -0.85169834), (-0.52873814, 0.09231298, -0.8437502), (-0.81116366, 0.3958869, -0.43044978), (-0.81116366, 0.3958869, -0.43044978), (-0.52873814, 0.09231298, -0.8437502), (-0.9164691, 0.072396986, -0.39350107), (-0.02147399, 0.92363113, -0.38268054), (-0.069882415, 0.5224633, -0.84979326), (-0.24573322, 0.8334365, -0.49497342), (-0.24573322, 0.8334365, -0.49497342), (-0.069882415, 0.5224633, -0.84979326), (-0.34546566, 0.3940348, -0.85169834), (0.5277947, -0.8475474, -0.05564273), (0.83500105, -0.49198467, -0.2464232), (0.92682374, -0.37520748, -0.014733698), (0.83500105, -0.49198467, -0.2464232), (0.5277947, -0.8475474, -0.05564273), (0.3961163, -0.84941405, -0.34869435), (0.09616178, -0.84014076, -0.5337757), (0.39531314, -0.42464837, -0.81449443), (0.3961163, -0.84941405, -0.34869435), (0.39531314, -0.42464837, -0.81449443), (0.09616178, -0.84014076, -0.5337757), (0.07530028, -0.38807642, -0.91854584), (0.70428616, -0.05300046, -0.70793504), (0.8545417, -0.18027604, -0.48709235), (0.39531314, -0.42464837, -0.81449443), (0.8545417, -0.18027604, -0.48709235), (0.70428616, -0.05300046, -0.70793504), (0.94935036, -0.040493444, -0.3115996), (-0.6986579, -0.1234274, -0.70472896), (-0.81110877, -0.39590383, -0.4305376), (-0.6899105, -0.19939029, -0.69589293), (-0.81110877, -0.39590383, -0.4305376), (-0.6986579, -0.1234274, -0.70472896), (-0.3455865, -0.3941893, -0.8515778), (-0.3455865, -0.3941893, -0.8515778), (-0.07013586, -0.52245, -0.84978056), (-0.24585782, -0.83334774, -0.49506104), (-0.24585782, -0.83334774, -0.49506104), (-0.07013586, -0.52245, -0.84978056), (-0.021555375, -0.9236405, -0.3826533), (-0.48532343, -0.85498554, -0.18292333), (-0.87809503, -0.47279412, -0.07358671), (-0.81110877, -0.39590383, -0.4305376), (-0.87809503, -0.47279412, -0.07358671), (-0.48532343, -0.85498554, -0.18292333), (-0.44719037, -0.89432794, -0.014081261), (-0.44719037, -0.89432794, -0.014081261), (-0.9333265, -0.3590288, -7.636135e-7), (-0.87809503, -0.47279412, -0.07358671), (-0.9333265, -0.3590288, -7.636135e-7), (-0.44719037, -0.89432794, -0.014081261), (-0.4472213, -0.8944234, -1.8617509e-7), (0.83430064, 0.24570633, 0.4935289), (0.43091568, 0.8245596, 0.36662427), (0.36377466, 0.41454193, 0.8341601), (0.43091568, 0.8245596, 0.36662427), (0.83430064, 0.24570633, 0.4935289), (0.8554818, 0.48551613, 0.18006973), (0.99433166, 0.08187374, 0.06783346), (0.8554818, 0.48551613, 0.18006973), (0.83430064, 0.24570633, 0.4935289), (0.99433166, 0.08187374, 0.06783346), (0.9268411, 0.375164, 0.014749591), (0.8554818, 0.48551613, 0.18006973), (0.99433166, 0.08187374, 0.06783346), (0.83430064, 0.24570633, 0.4935289), (0.9246279, 0.020434367, 0.38032317), (0.9268411, 0.375164, 0.014749591), (0.99433166, 0.08187374, 0.06783346), (0.9982769, 0.058679346, -6.833579e-7), (0.9333332, 0.35901156, -3.9457697e-7), (0.9268411, 0.375164, 0.014749591), (0.9982769, 0.058679346, -6.833579e-7), (0.9246279, 0.020434367, 0.38032317), (0.99405503, 0.0000014408068, 0.10887884), (0.99433166, 0.08187374, 0.06783346), (0.99433166, 0.08187374, 0.06783346), (0.99405503, 0.0000014408068, 0.10887884), (0.9982769, 0.058679346, -6.833579e-7), (0.99405503, 0.0000014408068, 0.10887884), (0.9246279, 0.020434367, 0.38032317), (0.84270895, 0.0000010821215, 0.5383695), (0.52348006, 0.06740732, 0.84936726), (0.84270895, 0.0000010821215, 0.5383695), (0.9246279, 0.020434367, 0.38032317), (0.84270895, 0.0000010821215, 0.5383695), (0.52348006, 0.06740732, 0.84936726), (0.35687846, 5.321285e-7, 0.93415093), (0.35687846, 5.321285e-7, 0.93415093), (0.70553976, 9.721957e-7, 0.7086702), (0.84270895, 0.0000010821215, 0.5383695), (0.84270895, 0.0000010821215, 0.5383695), (0.70553976, 9.721957e-7, 0.7086702), (0.93257844, 0.0000012362576, 0.3609675), (0.93257844, 0.0000012362576, 0.3609675), (0.99405503, 0.0000014408068, 0.10887884), (0.84270895, 0.0000010821215, 0.5383695), (0.70553976, 9.721957e-7, 0.7086702), (0.5675312, -0.062315807, 0.8209903), (0.93257844, 0.0000012362576, 0.3609675), (0.93257844, 0.0000012362576, 0.3609675), (0.5675312, -0.062315807, 0.8209903), (0.9246282, -0.02045756, 0.380321), (0.99405503, 0.0000014408068, 0.10887884), (0.93257844, 0.0000012362576, 0.3609675), (0.99711573, 0.0000015578304, 0.07589684), (0.93257844, 0.0000012362576, 0.3609675), (0.9246282, -0.02045756, 0.380321), (0.99711573, 0.0000015578304, 0.07589684), (0.99405503, 0.0000014408068, 0.10887884), (0.99711573, 0.0000015578304, 0.07589684), (1, 0.0000013780144, -5.243452e-7), (0.9982769, 0.058679346, -6.833579e-7), (0.99405503, 0.0000014408068, 0.10887884), (1, 0.0000013780144, -5.243452e-7), (0.99711573, 0.0000015578304, 0.07589684), (0.9246282, -0.02045756, 0.380321), (0.9805398, -0.012401947, 0.19592862), (0.9805398, -0.012401947, 0.19592862), (0.9246282, -0.02045756, 0.380321), (0.8546428, -0.17999925, 0.48701727), (1, 0.0000013780144, -5.243452e-7), (0.9999986, 0.0000015802311, -0.0016727309), (0.9999986, 0.0000015802311, -0.0016727309), (0.98221326, -0.1683492, 0.0831607), (0.8546428, -0.17999925, 0.48701727), (0.8350314, -0.4919734, 0.24634261), (0.39516053, -0.42466518, 0.81455976), (0.8350314, -0.4919734, 0.24634261), (0.8546428, -0.17999925, 0.48701727), (0.39516053, -0.42466518, 0.81455976), (0.39603752, -0.8494477, 0.3487015), (0.8350314, -0.4919734, 0.24634261), (0.98221326, -0.1683492, 0.0831607), (0.8350314, -0.4919734, 0.24634261), (0.92681056, -0.37523973, 0.01474808), (0.9999987, 0, -0.001672731), (0.9958952, -0.09049896, -0.0016658667), (0.9958952, -0.09049896, -0.0016658667), (0.92681056, -0.37523973, 0.01474808), (0.9958952, -0.09049896, -0.0016658667), (0.9958952, -0.09049896, -0.0016658667), (0.9999987, 0, -0.001672731), (0.9999987, 0, -0.001672731), (0.9958951, -0.090499714, -0.0016663403), (0.9958951, -0.090499714, -0.0016663403), (0.92681056, -0.37523973, 0.01474808), (0.9333104, -0.3590707, -4.0505844e-7), (0.9333104, -0.3590707, -4.0505844e-7), (0.92681056, -0.37523973, 0.01474808), (0.5278488, -0.8475143, 0.055635903), (0.9333104, -0.3590707, -4.0505844e-7), (0.5278488, -0.8475143, 0.055635903), (0.4472297, -0.89441925, -1.3195357e-7), (1, 0.0000015693948, 4.437393e-8), (1, 0, 4.4373927e-8), (1, 0, 4.4373927e-8), (1, 0.0000015693948, 4.437393e-8), (1, 0.0000013780144, -5.243452e-7), (1, 0.0000015802332, 4.437393e-8), (0.9805622, -0.1962088, 4.35114e-8), (0.9958965, -0.09049985, 4.4191843e-8), (0.9333104, -0.3590707, -4.0505844e-7), (1, 0, 4.4373927e-8), (0.9958965, -0.09049985, 4.4191843e-8), (0.9958955, -0.09051098, 3.1433285e-7), (0.84371436, -0.5367924, 5.453135e-7), (0.9333104, -0.3590707, -4.0505844e-7), (0.4472297, -0.89441925, -1.3195357e-7), (0.9958955, -0.09051098, 3.1433285e-7), (0.9333104, -0.3590707, -4.0505844e-7), (0.84371436, -0.5367924, 5.453135e-7), (0.84371436, -0.5367924, 5.453135e-7), (0.4472297, -0.89441925, -1.3195357e-7), (0.44718271, -0.8944426, 3.4834142e-7), (0.5277947, -0.8475474, -0.05564273), (0.84371436, -0.5367924, 5.453135e-7), (0.44718271, -0.8944426, 3.4834142e-7), (0.84371436, -0.5367924, 5.453135e-7), (0.5277947, -0.8475474, -0.05564273), (0.92682374, -0.37520748, -0.014733698), (0.92682374, -0.37520748, -0.014733698), (0.9958955, -0.09051098, 3.1433285e-7), (0.84371436, -0.5367924, 5.453135e-7), (1, 0.0000013780144, -5.243452e-7), (1, 0.0000011851758, 5.9165195e-8), (1, 0.0000011691774, 0.0000012134358), (1, 0.0000013780144, -5.243452e-7), (1, 0.0000011691774, 0.0000012134358), (0.9982769, 0.058679346, -6.833579e-7), (0.98056656, -0.19617967, 0.001681664), (0.92682374, -0.37520748, -0.014733698), (0.98053217, -0.19617711, -0.008434874), (0.98053217, -0.19617711, -0.008434874), (0.92682374, -0.37520748, -0.014733698), (0.83500105, -0.49198467, -0.2464232), (0.99999857, 0, 0.0017149899), (0.99999857, 0, 0.0017149899), (0.99999857, 0, 0.0017149899), (0.99999857, 0, 0.0017149899), (0.99999857, 0, 0.0017149899), (0.99999857, 0, 0.0017149899), (0.99999857, 0.0000011914756, 0.0017149898), (1, 0.0000011691774, 0.0000012134358), (0.99999857, 0.0000011914756, 0.0017149898), (0.39531314, -0.42464837, -0.81449443), (0.83500105, -0.49198467, -0.2464232), (0.3961163, -0.84941405, -0.34869435), (0.83500105, -0.49198467, -0.2464232), (0.39531314, -0.42464837, -0.81449443), (0.8545417, -0.18027604, -0.48709235), (0.98216915, -0.08422542, -0.16807725), (0.83500105, -0.49198467, -0.2464232), (0.8545417, -0.18027604, -0.48709235), (0.98216915, -0.08422542, -0.16807725), (0.8545417, -0.18027604, -0.48709235), (0.94935036, -0.040493444, -0.3115996), (0.98061514, 0, -0.19594368), (0.98061514, 0, -0.19594368), (0.94935036, -0.040493444, -0.3115996), (0.98061514, 0, -0.19594368), (0.9971402, 0.0000015715603, -0.0755741), (0.98061514, 0, -0.19594368), (0.705266, 0, -0.7089427), (0.705266, 0, -0.7089427), (0.70428616, -0.05300046, -0.70793504), (0.70428616, -0.05300046, -0.70793504), (0.53342056, 6.2909385e-7, -0.8458502), (0.9327028, 0.0000012451451, -0.36064613), (0.9327028, 0.0000012451451, -0.36064613), (0.99405503, 0.0000014476628, -0.10887878), (0.9971402, 0.0000015715603, -0.0755741), (1, 0.0000011691774, 0.0000012134358), (0.9971402, 0.0000015715603, -0.0755741), (0.99405503, 0.0000014476628, -0.10887878), (0.53342056, 6.2909385e-7, -0.8458502), (0.84260195, 9.91783e-7, -0.5385369), (0.9327028, 0.0000012451451, -0.36064613), (0.99405503, 0.0000014476628, -0.10887878), (0.9327028, 0.0000012451451, -0.36064613), (0.84260195, 9.91783e-7, -0.5385369), (0.84260195, 9.91783e-7, -0.5385369), (0.53342056, 6.2909385e-7, -0.8458502), (0.35702035, 4.202301e-7, -0.9340967), (0.5234168, 0.06728293, -0.849416), (0.84260195, 9.91783e-7, -0.5385369), (0.35702035, 4.202301e-7, -0.9340967), (0.9246079, 0.02043631, -0.38037184), (0.84260195, 9.91783e-7, -0.5385369), (0.5234168, 0.06728293, -0.849416), (0.9246079, 0.02043631, -0.38037184), (0.99405503, 0.0000014476628, -0.10887878), (0.84260195, 9.91783e-7, -0.5385369), (0.9246079, 0.02043631, -0.38037184), (0.99433124, 0.081874035, -0.06783854), (0.99405503, 0.0000014476628, -0.10887878), (0.99433124, 0.081874035, -0.06783854), (0.9246079, 0.02043631, -0.38037184), (0.8342586, 0.24574363, -0.49358153), (0.43095565, 0.82452756, -0.3666491), (0.8342586, 0.24574363, -0.49358153), (0.36376402, 0.41448325, -0.8341939), (0.8342586, 0.24574363, -0.49358153), (0.43095565, 0.82452756, -0.3666491), (0.85544676, 0.48552454, -0.18021303), (0.99433124, 0.081874035, -0.06783854), (0.8342586, 0.24574363, -0.49358153), (0.85544676, 0.48552454, -0.18021303), (0.99433124, 0.081874035, -0.06783854), (0.85544676, 0.48552454, -0.18021303), (0.9268345, 0.37517858, -0.0147904465), (0.99228966, 0.12394069, 8.464018e-7), (0.99405503, 0.0000014476628, -0.10887878), (0.99433124, 0.081874035, -0.06783854), (0.9268345, 0.37517858, -0.0147904465), (0.99228966, 0.12394069, 8.464018e-7), (0.99433124, 0.081874035, -0.06783854), (0.99405503, 0.0000014476628, -0.10887878), (0.99228966, 0.12394069, 8.464018e-7), (1, 0.0000011691774, 0.0000012134358), (0.99228966, 0.12394069, 8.464018e-7), (0.9982769, 0.058679346, -6.833579e-7), (1, 0.0000011691774, 0.0000012134358), (0.99228966, 0.12394069, 8.464018e-7), (0.9333332, 0.35901156, -3.9457697e-7), (0.9982769, 0.058679346, -6.833579e-7), (0.9268345, 0.37517858, -0.0147904465), (0.84366816, 0.53686506, 5.394006e-7), (0.99228966, 0.12394069, 8.464018e-7), (0.9333332, 0.35901156, -3.9457697e-7), (0.99228966, 0.12394069, 8.464018e-7), (0.84366816, 0.53686506, 5.394006e-7), (0.52772665, 0.8475856, -0.0557076), (0.84366816, 0.53686506, 5.394006e-7), (0.9268345, 0.37517858, -0.0147904465), (0.84366816, 0.53686506, 5.394006e-7), (0.4471998, 0.8944341, -1.3526933e-7), (0.9333332, 0.35901156, -3.9457697e-7), (0.52772665, 0.8475856, -0.0557076), (0.44710746, 0.8944803, 3.7042585e-7), (0.84366816, 0.53686506, 5.394006e-7), (0.4471998, 0.8944341, -1.3526933e-7), (0.84366816, 0.53686506, 5.394006e-7), (0.44710746, 0.8944803, 3.7042585e-7), (-0.24580136, 0.8334503, 0.49491647), (-0.81119144, 0.39589298, 0.43039188), (-0.34552288, 0.39409548, 0.851647), (-0.81119144, 0.39589298, 0.43039188), (-0.24580136, 0.8334503, 0.49491647), (-0.48537093, 0.85496587, 0.1828888), (-0.065443955, 0.9964061, 0.053778693), (-0.48537093, 0.85496587, 0.1828888), (-0.24580136, 0.8334503, 0.49491647), (-0.065443955, 0.9964061, 0.053778693), (-0.24580136, 0.8334503, 0.49491647), (-0.021476682, 0.92357725, 0.38281035), (-0.065443955, 0.9964061, 0.053778693), (-0.37528405, 0.92675227, 0.017089473), (-0.48537093, 0.85496587, 0.1828888), (-0.021476682, 0.92357725, 0.38281035), (0, 0.998766, 0.049663015), (-0.065443955, 0.9964061, 0.053778693), (-0.12691058, 0.9919142, 3.163902e-8), (-0.37528405, 0.92675227, 0.017089473), (-0.065443955, 0.9964061, 0.053778693), (0, 0.998766, 0.049663015), (-0.021476682, 0.92357725, 0.38281035), (0, 0.9300016, 0.36755568), (-0.07001561, 0.52254903, 0.84972966), (0, 0.9300016, 0.36755568), (-0.021476682, 0.92357725, 0.38281035), (0, 0.9300016, 0.36755568), (-0.07001561, 0.52254903, 0.84972966), (0, 0.5279011, 0.84930587), (-0.37528405, 0.92675227, 0.017089473), (-0.12691058, 0.9919142, 3.163902e-8), (-0.53694266, 0.84361875, 2.8024965e-7), (-0.53694266, 0.84361875, 2.8024965e-7), (-0.8474514, 0.5276583, 0.05833336), (-0.37528405, 0.92675227, 0.017089473), (-0.8474514, 0.5276583, 0.05833336), (-0.53694266, 0.84361875, 2.8024965e-7), (-0.9333645, 0.3589299, 4.518597e-7), (-0.12691058, 0.9919142, 3.163902e-8), (-0.35903674, 0.93332344, -2.0532826e-7), (-0.53694266, 0.84361875, 2.8024965e-7), (0, 0.5279011, 0.84930587), (0, 0.8461142, 0.53300166), (0, 0.9300016, 0.36755568), (0, 0.8461142, 0.53300166), (0, 0.5279011, 0.84930587), (0, 0.36289194, 0.9318312), (-0.35903674, 0.93332344, -2.0532826e-7), (-0.12691058, 0.9919142, 3.163902e-8), (-0.061322536, 0.9981181, -1.3689771e-7), (-0.061322536, 0.9981181, -1.3689771e-7), (-0.44711602, 0.894365, -0.014090752), (-0.35903674, 0.93332344, -2.0532826e-7), (0.095979944, 0.8402046, 0.533708), (0, 0.36289194, 0.9318312), (0.07520751, 0.3879766, 0.9185956), (0, 0.36289194, 0.9318312), (0.095979944, 0.8402046, 0.533708), (0, 0.8461142, 0.53300166), (-0.06530827, 0.9964208, -0.053668927), (-0.44711602, 0.894365, -0.014090752), (-0.061322536, 0.9981181, -1.3689771e-7), (-0.06530827, 0.9964208, -0.053668927), (-0.48533085, 0.8550011, -0.18283097), (-0.44711602, 0.894365, -0.014090752), (0, 1, -5.9144863e-8), (-0.061322536, 0.9981181, -1.3689771e-7), (-0.12691058, 0.9919142, 3.163902e-8), (-0.065443955, 0.9964061, 0.053778693), (0, 1, -5.9144863e-8), (-0.12691058, 0.9919142, 3.163902e-8), (0, 1, -5.9144863e-8), (-0.065443955, 0.9964061, 0.053778693), (0, 0.998766, 0.049663015), (0, 1, -5.9144863e-8), (0, 1, -5.9154488e-8), (-0.061322536, 0.9981181, -1.3689771e-7), (0, 1, -5.9154488e-8), (-0.06530827, 0.9964208, -0.053668927), (-0.061322536, 0.9981181, -1.3689771e-7), (0, 0.998766, 0.049663015), (0, 1, -5.9144863e-8), (0, 1, -5.9144863e-8), (0, 1, -5.9144863e-8), (0, 1, -5.9154488e-8), (0, 1, -5.9144863e-8), (-0.06530827, 0.9964208, -0.053668927), (-0.24573322, 0.8334365, -0.49497342), (-0.48533085, 0.8550011, -0.18283097), (-0.24573322, 0.8334365, -0.49497342), (-0.81116366, 0.3958869, -0.43044978), (-0.48533085, 0.8550011, -0.18283097), (-0.81116366, 0.3958869, -0.43044978), (-0.24573322, 0.8334365, -0.49497342), (-0.34546566, 0.3940348, -0.85169834), (-0.06530827, 0.9964208, -0.053668927), (-0.02147399, 0.92363113, -0.38268054), (-0.24573322, 0.8334365, -0.49497342), (-0.06530827, 0.9964208, -0.053668927), (0, 1, -5.9154488e-8), (0, 0.99877113, -0.049560122), (0, 0.99877113, -0.049560122), (-0.02147399, 0.92363113, -0.38268054), (-0.06530827, 0.9964208, -0.053668927), (0, 1, -5.9144863e-8), (0, 1, -5.912663e-8), (0, 1, -5.9154488e-8), (0, 1, -5.912663e-8), (0, 0.99877113, -0.049560122), (0, 1, -5.9154488e-8), (-0.02147399, 0.92363113, -0.38268054), (0, 0.99877113, -0.049560122), (0, 0.93006295, -0.36740023), (0, 0.93006295, -0.36740023), (-0.069882415, 0.5224633, -0.84979326), (-0.02147399, 0.92363113, -0.38268054), (-0.069882415, 0.5224633, -0.84979326), (0, 0.93006295, -0.36740023), (0, 0.52776945, -0.8493876), (0, 0.9941368, -0.108129665), (0, 0.93006295, -0.36740023), (0, 0.99877113, -0.049560122), (0, 0.99877113, -0.049560122), (0, 1, -5.912663e-8), (0, 0.9941368, -0.108129665), (0, 0.8460494, -0.53310436), (0, 0.52776945, -0.8493876), (0, 0.93006295, -0.36740023), (0, 0.93006295, -0.36740023), (0, 0.9941368, -0.108129665), (0, 0.8460494, -0.53310436), (0, 0.52776945, -0.8493876), (0, 0.8460494, -0.53310436), (0, 0.3630315, -0.9317768), (0, 0.3630315, -0.9317768), (0.09609048, 0.8401579, -0.5337615), (0.0751134, 0.38807344, -0.91856253), (0.09609048, 0.8401579, -0.5337615), (0, 0.3630315, -0.9317768), (0, 0.8460494, -0.53310436), (0, 0.8460494, -0.53310436), (0.11017287, 0.9898545, -0.089721136), (0.09609048, 0.8401579, -0.5337615), (0.11017287, 0.9898545, -0.089721136), (0, 0.8460494, -0.53310436), (0, 0.9941368, -0.108129665), (0.11017287, 0.9898545, -0.089721136), (0.43095565, 0.82452756, -0.3666491), (0.09609048, 0.8401579, -0.5337615), (0.43095565, 0.82452756, -0.3666491), (0.11017287, 0.9898545, -0.089721136), (0.52772665, 0.8475856, -0.0557076), (0.52772665, 0.8475856, -0.0557076), (0.11017287, 0.9898545, -0.089721136), (0.44710746, 0.8944803, 3.7042585e-7), (0, 0.9941368, -0.108129665), (0.12689002, 0.9919169, 1.3720413e-8), (0.11017287, 0.9898545, -0.089721136), (0.44710746, 0.8944803, 3.7042585e-7), (0.11017287, 0.9898545, -0.089721136), (0.12689002, 0.9919169, 1.3720413e-8), (0.12689002, 0.9919169, 1.3720413e-8), (0, 0.9941368, -0.108129665), (0, 1, -5.912663e-8), (0.4471998, 0.8944341, -1.3526933e-7), (0.44710746, 0.8944803, 3.7042585e-7), (0.12689002, 0.9919169, 1.3720413e-8), (0, 1, -5.912663e-8), (0.06142779, 0.9981116, -9.170927e-8), (0.12689002, 0.9919169, 1.3720413e-8), (0.4471998, 0.8944341, -1.3526933e-7), (0.12689002, 0.9919169, 1.3720413e-8), (0.06142779, 0.9981116, -9.170927e-8), (0.06142779, 0.9981116, -9.170927e-8), (0, 1, -5.912663e-8), (0, 1, -5.9144863e-8), (0, 0.9941126, 0.10835192), (0.06142779, 0.9981116, -9.170927e-8), (0, 1, -5.9144863e-8), (0, 1, -5.9144863e-8), (0, 0.998766, 0.049663015), (0, 0.9941126, 0.10835192), (0, 0.9300016, 0.36755568), (0, 0.9941126, 0.10835192), (0, 0.998766, 0.049663015), (0, 0.9941126, 0.10835192), (0, 0.9300016, 0.36755568), (0, 0.8461142, 0.53300166), (0.06142779, 0.9981116, -9.170927e-8), (0, 0.9941126, 0.10835192), (0.11031587, 0.9898294, 0.08982296), (0, 0.8461142, 0.53300166), (0.11031587, 0.9898294, 0.08982296), (0, 0.9941126, 0.10835192), (0.11031587, 0.9898294, 0.08982296), (0.4471998, 0.8944341, -1.3526933e-7), (0.06142779, 0.9981116, -9.170927e-8), (0.11031587, 0.9898294, 0.08982296), (0, 0.8461142, 0.53300166), (0.095979944, 0.8402046, 0.533708), (0.43091568, 0.8245596, 0.36662427), (0.11031587, 0.9898294, 0.08982296), (0.095979944, 0.8402046, 0.533708), (0.11031587, 0.9898294, 0.08982296), (0.43091568, 0.8245596, 0.36662427), (0.5277729, 0.84756565, 0.055572428), (0.4471998, 0.8944341, -1.3526933e-7), (0.11031587, 0.9898294, 0.08982296), (0.5277729, 0.84756565, 0.055572428), (0.5277729, 0.84756565, 0.055572428), (0.9333332, 0.35901156, -3.9457697e-7), (0.4471998, 0.8944341, -1.3526933e-7), (0.9333332, 0.35901156, -3.9457697e-7), (0.5277729, 0.84756565, 0.055572428), (0.9268411, 0.375164, 0.014749591), (-0.49187103, -0.8343397, 0.24887763), (-0.36340615, -0.42882752, 0.827069), (-0.83091676, -0.36448294, 0.4203919), (-0.36340615, -0.42882752, 0.827069), (-0.49187103, -0.8343397, 0.24887763), (-0.1800317, -0.85384655, 0.48840022), (-0.06530649, -0.9964211, 0.05366574), (-0.1800317, -0.85384655, 0.48840022), (-0.49187103, -0.8343397, 0.24887763), (-0.06530649, -0.9964211, 0.05366574), (-0.49187103, -0.8343397, 0.24887763), (-0.44717586, -0.8943353, 0.014073911), (-0.06530649, -0.9964211, 0.05366574), (-0.021474354, -0.92363775, 0.38266438), (-0.1800317, -0.85384655, 0.48840022), (-0.44717586, -0.8943353, 0.014073911), (-0.12683013, -0.9919245, 5.2204616e-8), (-0.06530649, -0.9964211, 0.05366574), (-0.44717586, -0.8943353, 0.014073911), (-0.447229, -0.8944195, 1.9096662e-7), (-0.12683013, -0.9919245, 5.2204616e-8), (-0.4472213, -0.8944234, -1.8617509e-7), (-0.12683013, -0.9919245, 5.2204616e-8), (-0.447229, -0.8944195, 1.9096662e-7), (0, -0.99877113, 0.049560137), (-0.021474354, -0.92363775, 0.38266438), (-0.06530649, -0.9964211, 0.05366574), (-0.12683013, -0.9919245, 5.2204616e-8), (-0.4472213, -0.8944234, -1.8617509e-7), (-0.061365567, -0.9981154, -7.7940115e-8), (-0.4472213, -0.8944234, -1.8617509e-7), (-0.44719037, -0.89432794, -0.014081261), (-0.061365567, -0.9981154, -7.7940115e-8), (0, -1, 0), (-0.06530649, -0.9964211, 0.05366574), (-0.12683013, -0.9919245, 5.2204616e-8), (-0.061365567, -0.9981154, -7.7940115e-8), (0, -1, 0), (-0.12683013, -0.9919245, 5.2204616e-8), (-0.06530649, -0.9964211, 0.05366574), (0, -1, 0), (0, -0.99877113, 0.049560137), (-0.44719037, -0.89432794, -0.014081261), (-0.06535327, -0.9964157, -0.053709492), (-0.061365567, -0.9981154, -7.7940115e-8), (-0.06535327, -0.9964157, -0.053709492), (-0.44719037, -0.89432794, -0.014081261), (-0.48532343, -0.85498554, -0.18292333), (0, -1, 0), (-0.061365567, -0.9981154, -7.7940115e-8), (0, -1, 0), (-0.06535327, -0.9964157, -0.053709492), (0, -1, 0), (-0.061365567, -0.9981154, -7.7940115e-8), (-0.06535327, -0.9964157, -0.053709492), (-0.48532343, -0.85498554, -0.18292333), (-0.24585782, -0.83334774, -0.49506104), (-0.81110877, -0.39590383, -0.4305376), (-0.24585782, -0.83334774, -0.49506104), (-0.48532343, -0.85498554, -0.18292333), (-0.24585782, -0.83334774, -0.49506104), (-0.81110877, -0.39590383, -0.4305376), (-0.3455865, -0.3941893, -0.8515778), (-0.06535327, -0.9964157, -0.053709492), (-0.24585782, -0.83334774, -0.49506104), (-0.021555375, -0.9236405, -0.3826533), (-0.021555375, -0.9236405, -0.3826533), (0, -0.9987696, -0.049592305), (-0.06535327, -0.9964157, -0.053709492), (0, -1, 0), (-0.06535327, -0.9964157, -0.053709492), (0, -0.9987696, -0.049592305), (0, -0.9987696, -0.049592305), (-0.021555375, -0.9236405, -0.3826533), (-0.0000025917932, -0.93008715, -0.36733896), (0, -0.9987696, -0.049592305), (0, -1, 0), (0, -1, 0), (0, -1, 0), (0, -1, 0), (0, -1, 0), (-0.0000025917932, -0.93008715, -0.36733896), (-0.0000012320402, -0.9941362, -0.10813546), (0, -0.9987696, -0.049592305), (0, -1, 0), (0, -0.9987696, -0.049592305), (-0.0000012320402, -0.9941362, -0.10813546), (-0.0000012320402, -0.9941362, -0.10813546), (-0.0000025917932, -0.93008715, -0.36733896), (-0.0000027530452, -0.84607583, -0.53306246), (0, -1, 0), (0, -1, 0), (0, -1, 0), (0, -1, 0), (0, -0.99877113, 0.049560137), (0, -1, 0), (-0.0000027530452, -0.84607583, -0.53306246), (0.11015587, -0.9898598, -0.089684136), (-0.0000012320402, -0.9941362, -0.10813546), (0.11015587, -0.9898598, -0.089684136), (-0.0000027530452, -0.84607583, -0.53306246), (0.09616178, -0.84014076, -0.5337757), (0.3961163, -0.84941405, -0.34869435), (0.11015587, -0.9898598, -0.089684136), (0.09616178, -0.84014076, -0.5337757), (0.11015587, -0.9898598, -0.089684136), (0.3961163, -0.84941405, -0.34869435), (0.5277947, -0.8475474, -0.05564273), (0.11015587, -0.9898598, -0.089684136), (0.5277947, -0.8475474, -0.05564273), (0.44718271, -0.8944426, 3.4834142e-7), (0.12676021, -0.99193347, 4.4030863e-8), (-0.0000012320402, -0.9941362, -0.10813546), (0.11015587, -0.9898598, -0.089684136), (0.12676021, -0.99193347, 4.4030863e-8), (0.11015587, -0.9898598, -0.089684136), (0.44718271, -0.8944426, 3.4834142e-7), (-0.0000012320402, -0.9941362, -0.10813546), (0.12676021, -0.99193347, 4.4030863e-8), (0, -1, 0), (0.44718271, -0.8944426, 3.4834142e-7), (0.4472297, -0.89441925, -1.3195357e-7), (0.12676021, -0.99193347, 4.4030863e-8), (0.0613033, -0.99811924, -3.170343e-8), (0, -1, 0), (0.12676021, -0.99193347, 4.4030863e-8), (0.0613033, -0.99811924, -3.170343e-8), (0.12676021, -0.99193347, 4.4030863e-8), (0.4472297, -0.89441925, -1.3195357e-7), (0, -1, 0), (0.0613033, -0.99811924, -3.170343e-8), (0, -1, 0), (0.110158876, -0.98985773, 0.08970385), (0.0613033, -0.99811924, -3.170343e-8), (0.4472297, -0.89441925, -1.3195357e-7), (0.110158876, -0.98985773, 0.08970385), (0.4472297, -0.89441925, -1.3195357e-7), (0.5278488, -0.8475143, 0.055635903), (0.39603752, -0.8494477, 0.3487015), (0.110158876, -0.98985773, 0.08970385), (0.5278488, -0.8475143, 0.055635903), (0.110158876, -0.98985773, 0.08970385), (0.39603752, -0.8494477, 0.3487015), (0.09606031, -0.84014773, 0.53378296), (0.0613033, -0.99811924, -3.170343e-8), (0, -0.99413675, 0.108129874), (0, -1, 0), (0, -0.99413675, 0.108129874), (0.0613033, -0.99811924, -3.170343e-8), (0.110158876, -0.98985773, 0.08970385), (0, -0.99877113, 0.049560137), (0, -1, 0), (0, -0.99413675, 0.108129874), (0.000001032796, -0.8460706, 0.53307074), (0.110158876, -0.98985773, 0.08970385), (0.09606031, -0.84014773, 0.53378296), (0.110158876, -0.98985773, 0.08970385), (0.000001032796, -0.8460706, 0.53307074), (0, -0.99413675, 0.108129874), (0.0000012893943, -0.36292228, 0.93181944), (0.09606031, -0.84014773, 0.53378296), (0.07521401, -0.3880078, 0.9185819), (0.09606031, -0.84014773, 0.53378296), (0.0000012893943, -0.36292228, 0.93181944), (0.000001032796, -0.8460706, 0.53307074), (0.0000013720025, -0.5278344, 0.8493473), (0.000001032796, -0.8460706, 0.53307074), (0.0000012893943, -0.36292228, 0.93181944), (0, -0.99413675, 0.108129874), (0, -0.9300674, 0.36738908), (0, -0.99877113, 0.049560137), (0, -0.9300674, 0.36738908), (0, -0.99413675, 0.108129874), (0.000001032796, -0.8460706, 0.53307074), (0.000001032796, -0.8460706, 0.53307074), (0.0000013720025, -0.5278344, 0.8493473), (0, -0.9300674, 0.36738908), (-0.021474354, -0.92363775, 0.38266438), (0, -0.99877113, 0.049560137), (0, -0.9300674, 0.36738908), (-0.070014454, -0.5225039, 0.84975743), (0, -0.9300674, 0.36738908), (0.0000013720025, -0.5278344, 0.8493473), (0, -0.9300674, 0.36738908), (-0.070014454, -0.5225039, 0.84975743), (-0.021474354, -0.92363775, 0.38266438), (-0.891834, -6.980253e-7, 0.45236263), (-0.5288149, 0.09241856, 0.8436905), (-0.91649497, 0.072402, 0.39343965), (-0.5288149, 0.09241856, 0.8436905), (-0.891834, -6.980253e-7, 0.45236263), (-0.5329448, -4.1902345e-7, 0.8461501), (-0.7043016, -5.5266366e-7, 0.70990103), (-0.5329448, -4.1902345e-7, 0.8461501), (-0.891834, -6.980253e-7, 0.45236263), (-0.7043016, -5.5266366e-7, 0.70990103), (-0.7043016, 0, 0.70990103), (-0.69888765, -0.12332271, 0.70451945), (-0.5288149, 0.09241856, 0.8436905), (-0.5329448, -4.1902345e-7, 0.8461501), (-0.15436682, 0.10840866, 0.9820481), (-0.34552288, 0.39409548, 0.851647), (-0.5288149, 0.09241856, 0.8436905), (-0.15436682, 0.10840866, 0.9820481), (-0.07001561, 0.52254903, 0.84972966), (-0.34552288, 0.39409548, 0.851647), (-0.15436682, 0.10840866, 0.9820481), (-0.15436682, 0.10840866, 0.9820481), (0, 0.5279011, 0.84930587), (-0.07001561, 0.52254903, 0.84972966), (-0.5329448, -4.1902345e-7, 0.8461501), (-0.7043016, -5.5266366e-7, 0.70990103), (-0.7043016, -5.564799e-7, 0.70990103), (-0.7043016, 0, 0.70990103), (-0.19613555, -2.2928147e-7, 0.9805767), (-0.7043016, -5.5266366e-7, 0.70990103), (-0.15436682, 0.10840866, 0.9820481), (-0.5329448, -4.1902345e-7, 0.8461501), (-0.19460191, -1.5270386e-7, 0.98088235), (-0.19613555, -2.2928147e-7, 0.9805767), (-0.19460191, -1.5270386e-7, 0.98088235), (-0.5329448, -4.1902345e-7, 0.8461501), (0, 0.5279011, 0.84930587), (0, 0.08966888, 0.9959716), (0, 0.08966892, 0.9959716), (0, 0.08966892, 0.9959716), (0, 0.36289194, 0.9318312), (0, 0.5279011, 0.84930587), (0, 0.08966888, 0.9959716), (0, 0, 1), (0, 0, 1), (0, 0.08966892, 0.9959716), (0, 0, 1), (0, 0, 1), (-0.09281914, -1.4667577e-7, 0.99568295), (-0.19613555, -2.2928147e-7, 0.9805767), (-0.060959708, -9.566986e-8, 0.99814016), (-0.060959708, -9.566986e-8, 0.99814016), (0, 0, 1), (-0.09281914, -1.4667577e-7, 0.99568295), (-0.19613555, -2.2928147e-7, 0.9805767), (-0.19457614, 0, 0.9808874), (-0.09127379, -0.088056155, 0.991925), (-0.060959708, -9.566986e-8, 0.99814016), (-0.19457614, 0, 0.9808874), (-0.09127379, -0.088056155, 0.991925), (-0.09127379, -0.088056155, 0.991925), (-0.19098417, -0.19125926, 0.96277976), (-0.36340615, -0.42882752, 0.827069), (-0.09127379, -0.088056155, 0.991925), (-0.36340615, -0.42882752, 0.827069), (-0.070014454, -0.5225039, 0.84975743), (0.0000013720025, -0.5278344, 0.8493473), (-0.09127379, -0.088056155, 0.991925), (-0.070014454, -0.5225039, 0.84975743), (-0.09127379, -0.088056155, 0.991925), (0, 0, 1), (-0.060959708, -9.566986e-8, 0.99814016), (0, 0, 1), (-0.060959708, -9.566986e-8, 0.99814016), (0, 0, 1), (-0.09127379, -0.088056155, 0.991925), (0.0000013720025, -0.5278344, 0.8493473), (0, -0.19443516, 0.9809153), (0, 0, 1), (-0.09127379, -0.088056155, 0.991925), (4.445788e-7, -0.19033341, 0.98171943), (0.0000012893943, -0.36292228, 0.93181944), (4.445788e-7, -0.19033341, 0.98171943), (0.0000013720025, -0.5278344, 0.8493473), (4.445788e-7, -0.19033341, 0.98171943), (0.0000012893943, -0.36292228, 0.93181944), (0, -0.059603058, 0.9982223), (0, -0.059603058, 0.9982223), (0, 0, 1), (0, 0, 1), (0.07521401, -0.3880078, 0.9185819), (0, -0.059603058, 0.9982223), (0.0000012893943, -0.36292228, 0.93181944), (0, 0, 1), (0, 0, 1), (0, 0, 1), (0, 0, 1), (0, -0.059603058, 0.9982223), (0, 0, 1), (0, -0.059603058, 0.9982223), (0.07521401, -0.3880078, 0.9185819), (0.12423205, -0.087323695, 0.98840326), (0.39516053, -0.42466518, 0.81455976), (0.12423205, -0.087323695, 0.98840326), (0.07521401, -0.3880078, 0.9185819), (0.12423205, -0.087323695, 0.98840326), (0.39516053, -0.42466518, 0.81455976), (0.5675312, -0.062315807, 0.8209903), (0.19446029, 0, 0.9809104), (0.12423205, -0.087323695, 0.98840326), (0.19446029, 0, 0.9809104), (0.12532626, 1.7269282e-7, 0.9921157), (0, -0.059603058, 0.9982223), (0.12423205, -0.087323695, 0.98840326), (0.12423205, -0.087323695, 0.98840326), (0.19446026, 3.0518495e-7, 0.98091036), (0.12532626, 1.7269282e-7, 0.9921157), (0.12532626, 1.7269282e-7, 0.9921157), (0, 0, 1), (0, -0.059603058, 0.9982223), (0.35687846, 5.321285e-7, 0.93415093), (0.12532626, 1.7269282e-7, 0.9921157), (0.19446026, 3.0518495e-7, 0.98091036), (0.060806487, 7.206632e-8, 0.9981495), (0, 0, 1), (0.12532626, 1.7269282e-7, 0.9921157), (0.060806487, 7.206632e-8, 0.9981495), (0.12532626, 1.7269282e-7, 0.9921157), (0.35687846, 5.321285e-7, 0.93415093), (0, 0, 1), (0, 0, 1), (0, 0, 1), (0, 0, 1), (0, 0, 1), (0.060806487, 7.206632e-8, 0.9981495), (0, 0, 1), (0, 0, 1), (0, 0.08966892, 0.9959716), (0.35687846, 5.321285e-7, 0.93415093), (0.19447315, 0, 0.9809078), (0.19447315, 0, 0.9809078), (0.19324984, 0.11817945, 0.9740062), (0.35687846, 5.321285e-7, 0.93415093), (0.52348006, 0.06740732, 0.84936726), (0.36377466, 0.41454193, 0.8341601), (0.19324984, 0.11817945, 0.9740062), (0.52348006, 0.06740732, 0.84936726), (0.07520751, 0.3879766, 0.9185956), (0.19324984, 0.11817945, 0.9740062), (0.36377466, 0.41454193, 0.8341601), (0, 0, 1), (0, 0.089668885, 0.9959716), (0, 0, 1), (0, 0.089668885, 0.9959716), (0, 0, 1), (0, 0.089668885, 0.9959716), (0, 0.089668885, 0.9959716), (0, 0.08966892, 0.9959716), (0, 0, 1), (0.07520751, 0.3879766, 0.9185956), (0, 0.089668885, 0.9959716), (0, 0.089668885, 0.9959716), (0, 0.36289194, 0.9318312), (0, 0.08966892, 0.9959716), (0, 0.089668885, 0.9959716), (0, 0.089668885, 0.9959716), (0.07520751, 0.3879766, 0.9185956), (0, 0.36289194, 0.9318312), (-0.52873814, 0.09231298, -0.8437502), (-0.8917848, -0.0000010469803, -0.45245963), (-0.9164691, 0.072396986, -0.39350107), (-0.8917848, -0.0000010469803, -0.45245963), (-0.52873814, 0.09231298, -0.8437502), (-0.532817, -6.283819e-7, -0.84623045), (-0.532817, -6.283819e-7, -0.84623045), (-0.70404774, -8.2869735e-7, -0.71015275), (-0.8917848, -0.0000010469803, -0.45245963), (-0.70404774, -8.2869735e-7, -0.71015275), (-0.6986579, -0.1234274, -0.70472896), (-0.70404774, 0, -0.71015275), (-0.15454462, 0.10849447, -0.98201066), (-0.532817, -6.283819e-7, -0.84623045), (-0.52873814, 0.09231298, -0.8437502), (-0.34546566, 0.3940348, -0.85169834), (-0.15454462, 0.10849447, -0.98201066), (-0.52873814, 0.09231298, -0.8437502), (-0.069882415, 0.5224633, -0.84979326), (-0.15454462, 0.10849447, -0.98201066), (-0.34546566, 0.3940348, -0.85169834), (0, 0.52776945, -0.8493876), (-0.15454462, 0.10849447, -0.98201066), (-0.069882415, 0.5224633, -0.84979326), (-0.9314855, -0.0000012402305, -0.3637787), (-0.532817, -6.283819e-7, -0.84623045), (-0.70404774, -8.2869735e-7, -0.71015275), (-0.70404774, -8.2869735e-7, -0.71015275), (-0.70404774, 0, -0.71015275), (-0.9314855, -0.0000012402305, -0.3637787), (-0.532817, -6.283819e-7, -0.84623045), (-0.15454462, 0.10849447, -0.98201066), (-0.19499157, -2.295143e-7, -0.9808049), (-0.19499157, -2.295143e-7, -0.9808049), (-0.19498514, -2.6960655e-7, -0.9808062), (-0.532817, -6.283819e-7, -0.84623045), (0, 0.08986015, -0.99595433), (0, 0.52776945, -0.8493876), (0, 0.12230978, -0.99249196), (0, 0.3630315, -0.9317768), (0, 0.12230978, -0.99249196), (0, 0.52776945, -0.8493876), (0, 0.08986015, -0.99595433), (0, 0, -1), (0, 0, -1), (0, 0, -1), (0, 0.12230978, -0.99249196), (0, 0, -1), (-0.19498514, -2.6960655e-7, -0.9808062), (-0.093020074, -1.469933e-7, -0.9956642), (-0.06109164, -9.5876985e-8, -0.9981321), (0, 0, -1), (-0.06109164, -9.5876985e-8, -0.9981321), (-0.093020074, -1.469933e-7, -0.9956642), (0, 0.12230978, -0.99249196), (0, 0.3630315, -0.9317768), (0, 0.05973072, -0.9982145), (0, 0.05973072, -0.9982145), (0, 0, -1), (0, 0.12230978, -0.99249196), (0.0751134, 0.38807344, -0.91856253), (0, 0.05973072, -0.9982145), (0, 0.3630315, -0.9317768), (-0.06109164, -9.5876985e-8, -0.9981321), (0, 0, -1), (0, 0, -1), (0, 0.05973072, -0.9982145), (0.0751134, 0.38807344, -0.91856253), (0.14259599, 0.13915055, -0.9799508), (0.0751134, 0.38807344, -0.91856253), (0.36376402, 0.41448325, -0.8341939), (0.14259599, 0.13915055, -0.9799508), (0.36376402, 0.41448325, -0.8341939), (0.5234168, 0.06728293, -0.849416), (0.14259599, 0.13915055, -0.9799508), (0.14259599, 0.13915055, -0.9799508), (0.5234168, 0.06728293, -0.849416), (0.35702035, 4.202301e-7, -0.9340967), (0, 0, -1), (0, 0.05973072, -0.9982145), (0, 0, -1), (0, 0, -1), (0, 0, -1), (0, 0, -1), (0, 0, -1), (0, 0.05973072, -0.9982145), (0, 0, -1), (0, 0.05973072, -0.9982145), (0, 0, -1), (0, 0, -1), (0.19487551, 0, -0.98082805), (0.35702035, 4.202301e-7, -0.9340967), (0.061226513, 7.206654e-8, -0.9981238), (0.061226513, 7.206654e-8, -0.9981238), (0, 0, -1), (0, 0, -1), (0, 0, -1), (0, 0, -1), (0, 0, -1), (0.35702035, 4.202301e-7, -0.9340967), (0.12559424, 1.4833905e-7, -0.99208176), (0.061226513, 7.206654e-8, -0.9981238), (0, 0, -1), (0.061226513, 7.206654e-8, -0.9981238), (0.12559424, 1.4833905e-7, -0.99208176), (0.12559424, 1.4833905e-7, -0.99208176), (0.35702035, 4.202301e-7, -0.9340967), (0.53342056, 6.2909385e-7, -0.8458502), (0, 0, -1), (0, 0, -1), (0, 0, -1), (0.12559424, 1.4833905e-7, -0.99208176), (0.53342056, 6.2909385e-7, -0.8458502), (0.12447691, -0.087479375, -0.9883587), (0.53342056, 6.2909385e-7, -0.8458502), (0.19420728, -0.082741275, -0.97746485), (0.12447691, -0.087479375, -0.9883587), (0.12447691, -0.087479375, -0.9883587), (0.19420728, -0.082741275, -0.97746485), (0.39531314, -0.42464837, -0.81449443), (0.12447691, -0.087479375, -0.9883587), (0.39531314, -0.42464837, -0.81449443), (0.07530028, -0.38807642, -0.91854584), (0, 0, -1), (0.12559424, 1.4833905e-7, -0.99208176), (-3.9056658e-7, -0.08985456, -0.99595493), (0.12559424, 1.4833905e-7, -0.99208176), (0.12447691, -0.087479375, -0.9883587), (-3.9056658e-7, -0.08985456, -0.99595493), (0.07530028, -0.38807642, -0.91854584), (-3.9056658e-7, -0.08985456, -0.99595493), (0.12447691, -0.087479375, -0.9883587), (-2.8426695e-7, -0.12397413, -0.99228543), (0, 0, -1), (-3.9056658e-7, -0.08985456, -0.99595493), (-3.9056658e-7, -0.08985456, -0.99595493), (0.07530028, -0.38807642, -0.91854584), (-3.2231966e-7, -0.3630304, -0.93177724), (-3.2231966e-7, -0.3630304, -0.93177724), (-2.8426695e-7, -0.12397413, -0.99228543), (-3.9056658e-7, -0.08985456, -0.99595493), (0.09616178, -0.84014076, -0.5337757), (-3.2231966e-7, -0.3630304, -0.93177724), (0.07530028, -0.38807642, -0.91854584), (-3.2231966e-7, -0.3630304, -0.93177724), (0.09616178, -0.84014076, -0.5337757), (-0.0000027530452, -0.84607583, -0.53306246), (-0.0000027530452, -0.84607583, -0.53306246), (-0.0000010291349, -0.52774745, -0.8494013), (-3.2231966e-7, -0.3630304, -0.93177724), (-2.8426695e-7, -0.12397413, -0.99228543), (-3.2231966e-7, -0.3630304, -0.93177724), (-0.0000010291349, -0.52774745, -0.8494013), (-0.0000010291349, -0.52774745, -0.8494013), (-0.0000027530452, -0.84607583, -0.53306246), (-0.0000025917932, -0.93008715, -0.36733896), (-0.07013586, -0.52245, -0.84978056), (-0.0000025917932, -0.93008715, -0.36733896), (-0.021555375, -0.9236405, -0.3826533), (-0.0000025917932, -0.93008715, -0.36733896), (-0.07013586, -0.52245, -0.84978056), (-0.0000010291349, -0.52774745, -0.8494013), (-0.0000010291349, -0.52774745, -0.8494013), (-0.09144857, -0.088223115, -0.99189407), (-2.8426695e-7, -0.12397413, -0.99228543), (-0.09144857, -0.088223115, -0.99189407), (-0.0000010291349, -0.52774745, -0.8494013), (-0.07013586, -0.52245, -0.84978056), (-0.09144857, -0.088223115, -0.99189407), (0, 0, -1), (0, 0, -1), (-0.3455865, -0.3941893, -0.8515778), (-0.09144857, -0.088223115, -0.99189407), (-0.07013586, -0.52245, -0.84978056), (0, 0, -1), (-0.09144857, -0.088223115, -0.99189407), (-0.06109164, -9.5876985e-8, -0.9981321), (-0.09144857, -0.088223115, -0.99189407), (-0.3455865, -0.3941893, -0.8515778), (-0.19137217, -0.1914471, -0.9626655), (-0.19497868, 0, -0.9808075), (-0.06109164, -9.5876985e-8, -0.9981321), (-0.09144857, -0.088223115, -0.99189407), (-0.19497868, 0, -0.9808075), (-0.09144857, -0.088223115, -0.99189407), (-0.19497868, 0, -0.9808075), (-0.447229, -0.8944195, 1.9096662e-7), (-0.44717586, -0.8943353, 0.014073911), (-0.84368545, -0.5368378, 6.251582e-7), (-0.84368545, -0.5368378, 6.251582e-7), (-0.4472213, -0.8944234, -1.8617509e-7), (-0.447229, -0.8944195, 1.9096662e-7), (-0.8780901, -0.47280437, 0.073578954), (-0.84368545, -0.5368378, 6.251582e-7), (-0.44717586, -0.8943353, 0.014073911), (-0.4472213, -0.8944234, -1.8617509e-7), (-0.84368545, -0.5368378, 6.251582e-7), (-0.9333265, -0.3590288, -7.636135e-7), (-0.9930412, -0.09967285, 0.062725894), (-0.84368545, -0.5368378, 6.251582e-7), (-0.8780901, -0.47280437, 0.073578954), (-0.83091676, -0.36448294, 0.4203919), (-0.9930412, -0.09967285, 0.062725894), (-0.8780901, -0.47280437, 0.073578954), (-0.9930412, -0.09967285, 0.062725894), (-0.83091676, -0.36448294, 0.4203919), (-0.97588617, -0.08867839, 0.19945462), (-0.9922874, -0.123958535, 3.0334877e-7), (-0.9333265, -0.3590288, -7.636135e-7), (-0.84368545, -0.5368378, 6.251582e-7), (-0.9930412, -0.09967285, 0.062725894), (-0.9922874, -0.123958535, 3.0334877e-7), (-0.84368545, -0.5368378, 6.251582e-7), (-0.9968466, -0.0000011702622, 0.07935222), (-0.9930412, -0.09967285, 0.062725894), (-0.97588617, -0.08867839, 0.19945462), (-0.97974616, 0, 0.20024352), (-0.9968466, -0.0000011702622, 0.07935222), (-0.97974616, 0, 0.20024352), (-1, -7.7949124e-7, 0.0000010407426), (-0.9922874, -0.123958535, 3.0334877e-7), (-0.9930412, -0.09967285, 0.062725894), (-0.9968466, -0.0000011702622, 0.07935222), (-1, -7.7949124e-7, 0.0000010407426), (-0.9930412, -0.09967285, 0.062725894), (-0.99355316, -0.0000010668302, 0.11336707), (-0.9968466, -0.0000011702622, 0.07935222), (-0.9797394, -9.676347e-7, 0.20027606), (-0.99355316, -0.0000010668302, 0.11336707), (-1, -7.7949124e-7, 0.0000010407426), (-0.9968466, -0.0000011702622, 0.07935222), (-0.9797394, -9.676347e-7, 0.20027606), (-0.891834, -6.980253e-7, 0.45236263), (-0.99355316, -0.0000010668302, 0.11336707), (-0.91649497, 0.072402, 0.39343965), (-0.99355316, -0.0000010668302, 0.11336707), (-0.891834, -6.980253e-7, 0.45236263), (-1, -7.7949124e-7, 0.0000010407426), (-0.99827737, -0.058672514, -4.7176428e-7), (-0.9922874, -0.123958535, 3.0334877e-7), (-0.9922874, -0.123958535, 3.0334877e-7), (-0.99827737, -0.058672514, -4.7176428e-7), (-0.9333265, -0.3590288, -7.636135e-7), (-0.9797329, 0, 0.20030865), (-0.9797329, 0, 0.20030865), (-0.91649497, 0.072402, 0.39343965), (-0.81119144, 0.39589298, 0.43039188), (-0.9892833, 0.1273976, 0.07133325), (-0.91649497, 0.072402, 0.39343965), (-0.9892833, 0.1273976, 0.07133325), (-0.81119144, 0.39589298, 0.43039188), (-0.8474514, 0.5276583, 0.05833336), (-0.9333645, 0.3589299, 4.518597e-7), (-0.9892833, 0.1273976, 0.07133325), (-0.8474514, 0.5276583, 0.05833336), (-0.9892833, 0.1273976, 0.07133325), (-0.9999987, -7.846977e-7, 0.0016297866), (-0.9999987, -7.846977e-7, 0.0016297866), (-0.9999987, -7.846977e-7, 0.0016297866), (-1, -7.7949124e-7, 0.0000010407426), (-0.9999987, -7.846977e-7, 0.0016297866), (-0.99590087, 0.090437286, 0.0016231079), (-0.9333645, 0.3589299, 4.518597e-7), (-0.99590087, 0.090437286, 0.0016231079), (-0.99590087, 0.090437286, 0.0016231079), (-1, -7.9011403e-7, -8.451155e-8), (-0.99590087, 0.090437286, 0.0016231079), (-1, -7.9011403e-7, -8.451155e-8), (-1, -7.8273115e-7, -6.6674204e-7), (-1, -7.7949124e-7, 0.0000010407426), (-0.99827737, -0.058672514, -4.7176428e-7), (-1, -7.7949124e-7, 0.0000010407426), (-1, -7.8273115e-7, -6.6674204e-7), (-1, 0, -8.874785e-8), (-1, -7.7512925e-7, -8.8747846e-8), (-1, -7.7512925e-7, -8.8747846e-8), (-1, -7.7512925e-7, -8.8747846e-8), (-1, -7.7512925e-7, -8.8747846e-8), (-1, -7.8273115e-7, -6.6674204e-7), (-0.9333645, 0.3589299, 4.518597e-7), (-0.99590266, 0.09043166, -8.5643755e-8), (-0.99590266, 0.09043166, -8.5643755e-8), (-0.99590266, 0.09043166, -8.5643755e-8), (-0.99590266, 0.09043166, -8.5643755e-8), (-1, 0, -8.8747846e-8), (-0.9805859, 0.19609055, -6.517546e-7), (-0.9333645, 0.3589299, 4.518597e-7), (-0.8437062, 0.5368053, -7.816176e-7), (-0.53694266, 0.84361875, 2.8024965e-7), (-0.8437062, 0.5368053, -7.816176e-7), (-0.9333645, 0.3589299, 4.518597e-7), (-0.8437062, 0.5368053, -7.816176e-7), (-0.53694266, 0.84361875, 2.8024965e-7), (-0.35903674, 0.93332344, -2.0532826e-7), (-0.44711602, 0.894365, -0.014090752), (-0.8437062, 0.5368053, -7.816176e-7), (-0.35903674, 0.93332344, -2.0532826e-7), (-0.8437062, 0.5368053, -7.816176e-7), (-0.44711602, 0.894365, -0.014090752), (-0.8780874, 0.47281104, -0.07356889), (-0.8437062, 0.5368053, -7.816176e-7), (-0.99262756, 0.11296102, -0.043936778), (-0.9805859, 0.19609055, -6.517546e-7), (-0.8780874, 0.47281104, -0.07356889), (-0.99262756, 0.11296102, -0.043936778), (-0.8437062, 0.5368053, -7.816176e-7), (-0.99262756, 0.11296102, -0.043936778), (-0.9999987, 0, -0.0016297866), (-0.9999987, 0, -0.0016297866), (-0.81116366, 0.3958869, -0.43044978), (-0.99262756, 0.11296102, -0.043936778), (-0.8780874, 0.47281104, -0.07356889), (-0.99262756, 0.11296102, -0.043936778), (-0.81116366, 0.3958869, -0.43044978), (-0.9164691, 0.072396986, -0.39350107), (-0.99999875, -7.7512766e-7, -0.0016297867), (-0.99262756, 0.11296102, -0.043936778), (-0.99687237, 0, -0.079027705), (-0.9164691, 0.072396986, -0.39350107), (-0.99687237, 0, -0.079027705), (-0.9797328, 0, -0.20030864), (-0.9968584, -0.0000012522136, -0.07920482), (-1, -7.8273115e-7, -6.6674204e-7), (-0.99999875, -7.7512766e-7, -0.0016297867), (-0.9968584, -0.0000012522136, -0.07920482), (-0.9164691, 0.072396986, -0.39350107), (-0.8917848, -0.0000010469803, -0.45245963), (-0.8917848, -0.0000010469803, -0.45245963), (-0.9314855, -0.0000012402305, -0.3637787), (-0.9968584, -0.0000012522136, -0.07920482), (-0.9968584, -0.0000012522136, -0.07920482), (-0.9314855, -0.0000012402305, -0.3637787), (-0.99684453, -0.0000015603481, -0.079379015), (-1, -7.8273115e-7, -6.6674204e-7), (-0.9968584, -0.0000012522136, -0.07920482), (-0.99684453, -0.0000015603481, -0.079379015), (-0.99684453, -0.0000015603481, -0.079379015), (-0.9314855, -0.0000012402305, -0.3637787), (-0.97812474, -0.057506204, -0.19991216), (-1, -7.8273115e-7, -6.6674204e-7), (-0.99684453, -0.0000015603481, -0.079379015), (-0.9930399, -0.09966879, -0.062753536), (-0.99684453, -0.0000015603481, -0.079379015), (-0.97812474, -0.057506204, -0.19991216), (-0.9930399, -0.09966879, -0.062753536), (-1, -7.8273115e-7, -6.6674204e-7), (-0.9930399, -0.09966879, -0.062753536), (-0.99827737, -0.058672514, -4.7176428e-7), (-0.81110877, -0.39590383, -0.4305376), (-0.9930399, -0.09966879, -0.062753536), (-0.97812474, -0.057506204, -0.19991216), (-0.99827737, -0.058672514, -4.7176428e-7), (-0.9930399, -0.09966879, -0.062753536), (-0.9333265, -0.3590288, -7.636135e-7), (-0.9930399, -0.09966879, -0.062753536), (-0.81110877, -0.39590383, -0.4305376), (-0.87809503, -0.47279412, -0.07358671), (-0.9930399, -0.09966879, -0.062753536), (-0.87809503, -0.47279412, -0.07358671), (-0.9333265, -0.3590288, -7.636135e-7)] (
        interpolation = "faceVarying"
    )
    point3f[] points = [(0.00955584, 0.049883485, 1.3097999), (0.009889701, 0.04948859, 1.3101106), (0.009889168, 0.04955023, 1.3097999), (0.009556717, 0.049784835, 1.3102971), (0.009001297, 0.049883485, 1.3103592), (0.009557213, 0.04948859, 1.3105955), (0.009001869, 0.04955023, 1.310695), (0.009557365, 0.04899466, 1.310695), (0.009890007, 0.049303345, 1.3102971), (0.009890083, 0.04899466, 1.3103592), (-0.009886489, 0.04955023, 1.3097999), (-0.0094905235, 0.049883485, 1.3101106), (-0.009553238, 0.049883485, 1.3097999), (-0.009786277, 0.04955023, 1.3102971), (-0.009550987, 0.04899466, 1.310695), (-0.009489532, 0.04955023, 1.3105955), (-0.009884849, 0.04899466, 1.3103592), (-0.008996254, 0.04955023, 1.310695), (-0.009305092, 0.049883485, 1.3102971), (-0.0089967875, 0.049883485, 1.3103592), (0.009889816, -0.049488463, 1.3101109), (0.009555992, -0.04988359, 1.3097999), (0.009889282, -0.049550105, 1.3097999), (0.009556831, -0.049784787, 1.3102971), (0.00900145, -0.04988359, 1.3103592), (0.009557327, -0.049488463, 1.3105955), (0.009001983, -0.049550105, 1.310695), (0.009557518, -0.048994765, 1.310695), (0.009890083, -0.04930322, 1.3102971), (0.009890198, -0.048994765, 1.3103592), (-0.009886413, -0.049550183, 1.3097999), (-0.009490448, -0.04988359, 1.3101109), (-0.0097861625, -0.049550183, 1.3102971), (-0.009553085, -0.04988359, 1.3097999), (-0.009884773, -0.048994765, 1.3103592), (-0.00955091, -0.048994765, 1.310695), (-0.009489418, -0.049550183, 1.3105955), (-0.008996101, -0.049550183, 1.310695), (-0.009304977, -0.04988359, 1.3102971), (-0.008996673, -0.04988359, 1.3103592), (0.009555992, 0.049883563, -1.3098025), (0.009889854, 0.049488436, -1.3101132), (0.009556869, 0.049784683, -1.3102998), (0.0098893205, 0.04955023, -1.3098025), (0.009557365, 0.049488436, -1.3105981), (0.00900145, 0.049883563, -1.3103619), (0.0090020215, 0.04955023, -1.3106974), (0.00989016, 0.04930327, -1.3102998), (0.009890236, 0.04899474, -1.3103619), (0.009557518, 0.04899474, -1.3106974), (-0.009490295, 0.049883563, -1.3101132), (-0.00988626, 0.04955023, -1.3098025), (-0.0095529705, 0.049883563, -1.3098025), (-0.009786049, 0.04955023, -1.3102998), (-0.009489265, 0.04955023, -1.3105981), (-0.009550758, 0.04899474, -1.3106974), (-0.00988462, 0.04899474, -1.3103619), (-0.00899652, 0.049883563, -1.3103619), (-0.008995987, 0.04955023, -1.3106974), (-0.0093048625, 0.049883563, -1.3102998), (0.0095561445, -0.04988359, -1.3098023), (0.009889969, -0.049488463, -1.3101132), (0.009889435, -0.049550183, -1.3098023), (0.009556984, -0.049784787, -1.3102995), (0.009001602, -0.04988359, -1.3103619), (0.009557442, -0.049488463, -1.3105978), (0.009002136, -0.049550183, -1.3106974), (0.009557633, -0.048994765, -1.3106974), (0.009890236, -0.04930322, -1.3102995), (0.0098903505, -0.048994765, -1.3103619), (-0.009550643, -0.048994686, -1.3106974), (-0.009785934, -0.049550183, -1.3102995), (-0.0098845055, -0.048994686, -1.3103619), (-0.009489189, -0.049550183, -1.3105978), (-0.008995872, -0.049550183, -1.3106974), (-0.00930471, -0.04988351, -1.3102995), (-0.008996445, -0.04988351, -1.3103619), (-0.009490219, -0.04988351, -1.3101132), (-0.0098861465, -0.049550183, -1.3098025), (-0.009552818, -0.04988351, -1.3098025), (-0.009887672, -0.049550183, -1.3089008), (-0.009554344, -0.04988351, -1.3089008), (0.010000252, 0.04899466, 1.3097999), (0.009998764, 0.04899466, 1.3088982), (0.00988768, 0.04955023, 1.3088982), (0.010000252, 0.048327394, 1.3097999), (0.009890083, 0.048327394, 1.3103592), (0.009557365, 0.048327394, 1.310695), (0.009557518, -0.048327267, 1.310695), (0.009890198, -0.048327267, 1.3103592), (0.009557518, -0.048994765, 1.310695), (0.010000404, -0.048327267, 1.3097999), (0.009998764, 0.048327394, 1.3088982), (0.010000404, -0.048994765, 1.3097999), (0.010000404, -0.048327267, 1.3097999), (0.009998917, -0.048327267, 1.3088982), (0.010000404, -0.048994765, 1.3097999), (0.010000404, -0.048327267, 1.3097999), (0.010000404, -0.048994765, 1.3097999), (0.009998917, -0.048994765, 1.3088982), (0.009998917, -0.048327267, 1.3088982), (0.010000404, -0.048327267, 1.3097999), (0.009998917, -0.048994765, 1.3088982), (0.009887794, -0.049550105, 1.3088982), (0.009554504, -0.04988359, 1.3088982), (0.009999031, -0.048327267, -1.3089005), (0.009998917, -0.048327267, 1.3088982), (0.009998917, -0.048994765, 1.3088982), (0.009998917, -0.048327267, 1.3088982), (0.009999031, -0.048994765, -1.3089005), (0.009998917, -0.048994765, 1.3088982), (0.009999031, -0.048327267, -1.3089005), (0.009999031, -0.048994765, -1.3089005), (0.009887909, -0.049550183, -1.3089005), (0.009554657, -0.04988359, -1.3089005), (0.009999031, -0.048327267, -1.3089005), (0.009998917, 0.04832732, -1.3089008), (0.009999031, -0.048994765, -1.3089005), (0.010000557, -0.048994765, -1.3098025), (0.010000557, -0.048327267, -1.3098025), (0.009999031, -0.048327267, -1.3089005), (0.009999031, -0.048994765, -1.3089005), (0.010000557, -0.048994765, -1.3098025), (0.010000557, -0.048327267, -1.3098025), (0.009999031, -0.048327267, -1.3089005), (0.010000557, -0.048994765, -1.3098025), (0.010000557, -0.048327267, -1.3098025), (0.010000557, -0.048994765, -1.3098025), (0.0098903505, -0.048327267, -1.3103619), (0.010000557, -0.048327267, -1.3098025), (0.0098903505, -0.048994765, -1.3103619), (0.0098903505, -0.048327267, -1.3103619), (0.0098903505, -0.048994765, -1.3103619), (0.009557633, -0.048327267, -1.3106974), (0.0098903505, -0.048327267, -1.3103619), (0.010000404, 0.04832732, -1.3098025), (0.009890236, 0.04832732, -1.3103619), (0.009557518, 0.04832732, -1.3106974), (0.010000404, 0.04899474, -1.3098025), (0.009998917, 0.04899474, -1.3089008), (0.009887832, 0.04955023, -1.3089008), (0.00955439, 0.049883485, 1.3088982), (0.009554543, 0.049883563, -1.3089008), (-0.008997703, 0.049994722, 1.3097999), (-0.00837175, 0.049994722, 1.3097999), (-0.008999191, 0.049994722, 1.3088982), (-0.008370834, 0.049883485, 1.3103592), (-0.0083703, 0.04955023, 1.310695), (-0.009554725, 0.049883485, 1.3088982), (-0.009888016, 0.04955023, 1.3088982), (-0.009554496, 0.049883563, -1.3089008), (0.008375343, 0.049883485, 1.3103592), (0.008375916, 0.04955023, 1.310695), (-0.008998962, 0.04999457, -1.3089008), (-0.008997437, 0.04999457, -1.3098025), (-0.008373237, 0.049994722, 1.3088982), (-0.008373008, 0.04999457, -1.3089008), (0.008372902, 0.049994722, 1.3088982), (-0.008371483, 0.04999457, -1.3098025), (0.008373055, 0.04999457, -1.3089008), (-0.008370567, 0.049883563, -1.3103619), (-0.0083700325, 0.04955023, -1.3106974), (0.00837458, 0.04999457, -1.3098025), (0.008375496, 0.049883563, -1.3103619), (0.008376068, 0.04955023, -1.3106974), (0.009000534, 0.04999457, -1.3098025), (0.008999008, 0.04999457, -1.3089008), (0.008998894, 0.049994722, 1.3088982), (0.008374427, 0.049994722, 1.3097999), (0.009000381, 0.049994722, 1.3097999), (-0.008997588, -0.049994595, 1.3097999), (-0.008999115, -0.049994595, 1.3088982), (-0.009554572, -0.04988359, 1.3088982), (-0.008371635, -0.049994595, 1.3097999), (-0.008998848, -0.049994595, -1.3089008), (-0.008373123, -0.049994595, 1.3088982), (-0.00899736, -0.049994595, -1.3098023), (-0.008372894, -0.049994595, -1.3089008), (-0.008371406, -0.049994595, -1.3098023), (-0.008370491, -0.04988351, -1.3103619), (0.008373207, -0.049994595, -1.3089005), (0.008374657, -0.049994595, -1.3098023), (0.00837561, -0.04988359, -1.3103619), (0.008373055, -0.049994595, 1.3088982), (0.009000611, -0.049994595, -1.3098023), (0.008999122, -0.049994595, -1.3089005), (0.00899897, -0.049994595, 1.3088982), (0.009000458, -0.049994595, 1.3097999), (0.00837458, -0.049994595, 1.3097999), (0.008375496, -0.04988359, 1.3103592), (0.00837603, -0.049550105, 1.310695), (-0.008370147, -0.049550183, 1.310695), (-0.00837072, -0.04988359, 1.3103592), (-0.009884849, 0.048327394, 1.3103592), (-0.009550987, 0.048327394, 1.310695), (-0.009884773, -0.04832734, 1.3103592), (-0.009884773, -0.048994765, 1.3103592), (-0.008996063, 0.04899466, 1.3108068), (-0.009884773, -0.04832734, 1.3103592), (-0.00955091, -0.04832734, 1.310695), (-0.00955091, -0.048994765, 1.310695), (-0.00955091, -0.04832734, 1.310695), (-0.008996063, 0.048327394, 1.3108068), (-0.008996063, 0.04899466, 1.3108068), (-0.008370071, 0.04899466, 1.3108068), (-0.008996063, 0.048327394, 1.3108068), (-0.008370071, 0.048327394, 1.3108068), (-0.008996063, 0.04899466, 1.3108068), (-0.008996063, 0.048327394, 1.3108068), (-0.00899591, -0.04832734, 1.3108068), (-0.00955091, -0.048994765, 1.310695), (-0.00899591, -0.048994765, 1.3108068), (-0.00955091, -0.04832734, 1.310695), (-0.00955091, -0.048994765, 1.310695), (-0.008369956, -0.04832734, 1.3108068), (-0.008369956, -0.048994765, 1.3108068), (-0.008369956, -0.04832734, 1.3108068), (-0.008369956, -0.048994765, 1.3108068), (0.00837622, -0.048994765, 1.3108068), (-0.008369956, -0.04832734, 1.3108068), (-0.008369956, -0.048994765, 1.3108068), (-0.008369956, -0.04832734, 1.3108068), (0.00837622, -0.048327267, 1.3108068), (0.009002174, -0.048994765, 1.3108068), (0.009557518, -0.048327267, 1.310695), (0.009557518, -0.048994765, 1.310695), (0.009002174, -0.048327267, 1.3108068), (0.009557518, -0.048327267, 1.310695), (0.00900206, 0.048327394, 1.3108068), (0.008376107, 0.048327394, 1.3108068), (0.00900206, 0.04899466, 1.3108068), (0.00900206, 0.048327394, 1.3108068), (0.00900206, 0.04899466, 1.3108068), (0.00900206, 0.048327394, 1.3108068), (0.008376107, 0.04899466, 1.3108068), (0.00900206, 0.04899466, 1.3108068), (-0.00988462, 0.048327394, -1.3103619), (-0.009550758, 0.048327394, -1.3106974), (-0.0098845055, -0.04832734, -1.3103619), (-0.0098845055, -0.048994686, -1.3103619), (-0.008995796, 0.04899474, -1.3108094), (-0.0098845055, -0.04832734, -1.3103619), (-0.009550643, -0.04832734, -1.3106974), (-0.009550643, -0.048994686, -1.3106974), (-0.008995796, 0.048327394, -1.3108094), (-0.009550643, -0.04832734, -1.3106974), (-0.008995796, 0.04899474, -1.3108094), (-0.008369843, 0.04899474, -1.3108094), (-0.008369843, 0.048327394, -1.3108094), (-0.008995796, 0.048327394, -1.3108094), (-0.008995796, 0.04899474, -1.3108094), (-0.008995796, 0.048327394, -1.3108094), (-0.008995643, -0.04832734, -1.3108094), (0.008376258, 0.04899474, -1.3108094), (-0.00836969, -0.04832734, -1.3108094), (0.009002212, 0.04899474, -1.3108094), (0.008376258, 0.04832732, -1.3108094), (0.009002212, 0.04832732, -1.3108094), (0.009002212, 0.04899474, -1.3108094), (0.009002212, 0.04832732, -1.3108094), (0.009002212, 0.04899474, -1.3108094), (0.009002212, 0.04832732, -1.3108094), (0.008376373, -0.048327267, -1.3108094), (0.009002327, -0.048327267, -1.3108094), (-0.00836969, -0.048994686, -1.3108094), (-0.00836969, -0.04832734, -1.3108094), (0.009002327, -0.048994765, -1.3108094), (0.009557633, -0.048994765, -1.3106974), (0.008376373, -0.048994765, -1.3108094), (-0.00836969, -0.048994686, -1.3108094), (0.008376145, -0.049550183, -1.3106974), (-0.008369881, -0.049550183, -1.3106974), (-0.008995643, -0.048994686, -1.3108094), (-0.00836969, -0.04832734, -1.3108094), (-0.00836969, -0.048994686, -1.3108094), (-0.00836969, -0.04832734, -1.3108094), (-0.009550643, -0.048994686, -1.3106974), (-0.009550643, -0.04832734, -1.3106974), (-0.009550643, -0.048994686, -1.3106974), (-0.009887901, -0.049550183, 1.3088982), (-0.009997497, -0.048994765, 1.3097999), (-0.009884773, -0.048994765, 1.3103592), (-0.009998985, -0.048994765, 1.3088982), (-0.009997497, -0.04832734, 1.3097999), (-0.009884773, -0.04832734, 1.3103592), (-0.009884773, -0.048994765, 1.3103592), (-0.009998985, -0.04832734, 1.3088982), (-0.009997612, 0.048327394, 1.3097999), (-0.009884773, -0.04832734, 1.3103592), (-0.009998756, -0.048994686, -1.3089008), (-0.009997612, 0.04899466, 1.3097999), (-0.009997612, 0.048327394, 1.3097999), (-0.009997612, 0.04899466, 1.3097999), (-0.009999061, 0.048327394, 1.3088982), (-0.009997612, 0.048327394, 1.3097999), (-0.009997612, 0.04899466, 1.3097999), (-0.009999061, 0.04899466, 1.3088982), (-0.009999061, 0.048327394, 1.3088982), (-0.009998756, -0.04832734, -1.3089008), (-0.009999061, 0.04899466, 1.3088982), (-0.009998832, 0.048327394, -1.3089008), (-0.009999061, 0.048327394, 1.3088982), (-0.009998832, 0.04899474, -1.3089008), (-0.009999061, 0.04899466, 1.3088982), (-0.009998832, 0.048327394, -1.3089008), (-0.009998832, 0.04899474, -1.3089008), (-0.009887748, 0.04955023, -1.3089008), (-0.009997383, 0.04899474, -1.3098025), (-0.009998832, 0.048327394, -1.3089008), (-0.009998832, 0.04899474, -1.3089008), (-0.009998832, 0.048327394, -1.3089008), (-0.009997383, 0.048327394, -1.3098025), (-0.009997383, 0.04899474, -1.3098025), (-0.009997383, 0.048327394, -1.3098025), (-0.00999723, -0.04832734, -1.3098025), (-0.0098845055, -0.048994686, -1.3103619), (-0.00999723, -0.048994686, -1.3098025)]
}

