#usda 1.0
(
    defaultPrim = "SM_Kitchen_04_Shelf2"
    upAxis = "Z"
)

def Mesh "SM_Kitchen_04_Shelf2"
{
    int[] faceVertexCounts = [3, 3, 3, 3, 3, 3, 3, 3, 3, 3, 3, 3, 3, 3, 3, 3, 3, 3, 3, 3, 3, 3, 3, 3, 3, 3, 3, 3, 3, 3, 3, 3, 3, 3, 3, 3, 3, 3, 3, 3, 3, 3, 3, 3, 3, 3, 3, 3, 3, 3, 3, 3, 3, 3, 3, 3, 3, 3, 3, 3, 3, 3, 3, 3, 3, 3, 3, 3, 3, 3, 3, 3, 3, 3, 3, 3, 3, 3, 3, 3, 3, 3, 3, 3, 3, 3, 3, 3, 3, 3, 3, 3, 3, 3, 3, 3, 3, 3, 3, 3, 3, 3, 3, 3, 3, 3, 3, 3, 3, 3, 3, 3, 3, 3, 3, 3, 3, 3, 3, 3, 3, 3, 3, 3, 3, 3, 3, 3, 3, 3, 3, 3, 3, 3, 3, 3, 3, 3, 3, 3, 3, 3, 3, 3, 3, 3, 3, 3, 3, 3, 3, 3, 3, 3, 3, 3, 3, 3, 3, 3, 3, 3, 3, 3, 3, 3, 3, 3, 3, 3, 3, 3, 3, 3, 3, 3, 3, 3, 3, 3, 3, 3, 3, 3, 3, 3, 3, 3, 3, 3, 3, 3, 3, 3, 3, 3, 3, 3, 3, 3, 3, 3, 3, 3, 3, 3, 3, 3, 3, 3, 3, 3, 3, 3, 3, 3, 3, 3, 3, 3, 3, 3, 3, 3, 3, 3, 3, 3, 3, 3, 3, 3, 3, 3, 3, 3, 3, 3, 3, 3, 3, 3, 3, 3, 3, 3, 3, 3, 3, 3, 3, 3, 3, 3, 3, 3, 3, 3, 3, 3, 3, 3, 3, 3, 3, 3, 3, 3, 3, 3, 3, 3, 3, 3, 3, 3, 3, 3, 3, 3, 3, 3, 3, 3, 3, 3, 3, 3, 3, 3, 3, 3, 3, 3, 3, 3, 3, 3, 3, 3, 3, 3, 3, 3, 3, 3, 3, 3, 3, 3, 3, 3, 3, 3, 3, 3, 3, 3, 3, 3, 3, 3, 3, 3, 3, 3, 3, 3, 3, 3, 3, 3, 3, 3, 3, 3, 3, 3, 3, 3, 3, 3, 3, 3, 3, 3, 3, 3, 3, 3, 3, 3, 3, 3, 3, 3, 3, 3, 3, 3, 3, 3, 3, 3, 3, 3, 3, 3, 3, 3, 3, 3, 3, 3, 3, 3, 3, 3, 3, 3, 3, 3, 3, 3, 3, 3, 3, 3, 3, 3, 3, 3, 3, 3, 3, 3, 3, 3, 3, 3, 3, 3, 3, 3, 3, 3, 3, 3, 3, 3, 3, 3, 3, 3, 3, 3, 3, 3, 3, 3, 3, 3, 3, 3, 3, 3, 3, 3, 3, 3, 3, 3, 3, 3, 3, 3, 3, 3, 3, 3, 3, 3, 3, 3]
    int[] faceVertexIndices = [0, 1, 2, 1, 0, 3, 4, 5, 3, 5, 4, 6, 7, 5, 6, 5, 7, 8, 0, 9, 10, 10, 9, 11, 12, 13, 14, 13, 12, 15, 15, 16, 17, 15, 17, 18, 18, 19, 20, 20, 19, 21, 22, 23, 24, 23, 22, 25, 26, 27, 28, 27, 26, 25, 29, 27, 30, 29, 30, 31, 32, 33, 34, 33, 32, 35, 36, 37, 34, 38, 34, 37, 36, 39, 40, 39, 41, 40, 42, 35, 43, 43, 35, 32, 44, 45, 46, 45, 44, 47, 48, 49, 50, 49, 48, 45, 51, 52, 53, 54, 53, 52, 51, 55, 56, 55, 57, 56, 58, 59, 60, 59, 58, 61, 62, 63, 64, 63, 59, 64, 65, 66, 67, 66, 65, 68, 68, 69, 70, 68, 70, 71, 71, 72, 73, 73, 72, 74, 75, 76, 53, 76, 75, 77, 75, 78, 77, 77, 78, 79, 3, 0, 4, 4, 0, 10, 80, 4, 10, 80, 6, 4, 80, 10, 11, 80, 81, 6, 6, 81, 7, 11, 82, 80, 83, 7, 81, 11, 84, 82, 9, 84, 11, 9, 85, 84, 86, 84, 85, 87, 82, 84, 84, 86, 87, 29, 87, 86, 82, 87, 88, 87, 29, 31, 31, 88, 87, 88, 31, 89, 89, 31, 30, 25, 30, 27, 30, 25, 22, 89, 30, 22, 89, 22, 24, 24, 90, 89, 90, 24, 91, 23, 91, 24, 91, 92, 90, 91, 23, 93, 93, 94, 91, 92, 91, 94, 94, 93, 95, 92, 94, 96, 92, 96, 97, 97, 96, 98, 59, 98, 60, 98, 59, 63, 97, 98, 63, 97, 63, 62, 97, 62, 99, 99, 62, 100, 100, 62, 64, 100, 64, 101, 102, 100, 101, 103, 99, 100, 100, 102, 103, 102, 48, 103, 99, 103, 104, 50, 103, 48, 104, 103, 50, 105, 104, 50, 105, 50, 49, 47, 49, 45, 49, 47, 106, 105, 49, 106, 105, 106, 107, 83, 105, 107, 108, 83, 107, 7, 83, 108, 108, 8, 7, 8, 108, 109, 20, 15, 18, 15, 20, 13, 110, 13, 20, 110, 20, 21, 110, 14, 13, 21, 111, 110, 111, 21, 112, 14, 110, 113, 114, 110, 111, 110, 114, 113, 115, 14, 113, 115, 12, 14, 12, 115, 116, 115, 78, 116, 78, 115, 79, 113, 117, 115, 79, 115, 117, 117, 113, 114, 77, 79, 117, 77, 117, 118, 118, 76, 77, 117, 114, 119, 119, 118, 117, 118, 55, 76, 55, 53, 76, 53, 55, 51, 118, 57, 55, 120, 57, 118, 118, 119, 120, 57, 120, 121, 121, 56, 57, 56, 121, 122, 123, 120, 119, 124, 122, 121, 122, 124, 125, 126, 121, 120, 121, 126, 124, 120, 123, 126, 44, 125, 124, 125, 44, 46, 124, 127, 44, 127, 124, 126, 127, 47, 44, 47, 127, 128, 127, 109, 128, 126, 129, 127, 127, 129, 109, 129, 126, 123, 129, 8, 109, 123, 130, 129, 129, 130, 8, 119, 131, 123, 130, 123, 131, 119, 114, 131, 111, 131, 114, 131, 111, 132, 132, 130, 131, 112, 132, 111, 130, 133, 8, 130, 132, 133, 133, 5, 8, 133, 3, 5, 3, 133, 1, 132, 112, 134, 134, 133, 132, 133, 134, 1, 135, 134, 112, 134, 135, 136, 136, 1, 134, 1, 136, 2, 19, 112, 21, 112, 19, 135, 137, 135, 19, 18, 137, 19, 17, 137, 18, 138, 17, 16, 17, 138, 139, 139, 137, 17, 140, 139, 138, 135, 137, 141, 141, 136, 135, 140, 38, 37, 136, 141, 142, 142, 2, 136, 140, 37, 143, 139, 140, 143, 2, 142, 144, 144, 0, 2, 0, 144, 9, 144, 85, 9, 142, 145, 144, 144, 145, 85, 142, 146, 145, 141, 146, 142, 147, 85, 145, 85, 147, 86, 148, 145, 146, 145, 148, 147, 149, 146, 141, 137, 149, 141, 146, 150, 148, 150, 146, 149, 151, 149, 137, 137, 139, 151, 143, 151, 139, 152, 149, 151, 151, 143, 152, 149, 152, 150, 143, 153, 152, 153, 150, 152, 37, 153, 143, 37, 36, 153, 36, 40, 153, 154, 40, 41, 40, 154, 155, 155, 153, 40, 156, 155, 154, 150, 153, 157, 153, 155, 157, 157, 148, 150, 155, 156, 158, 158, 157, 155, 26, 158, 156, 158, 26, 28, 148, 157, 159, 157, 158, 159, 28, 159, 158, 148, 159, 147, 159, 28, 160, 159, 160, 147, 160, 28, 27, 160, 86, 147, 160, 27, 29, 86, 160, 29, 34, 39, 36, 39, 34, 33, 161, 39, 33, 161, 41, 39, 161, 33, 35, 162, 41, 161, 41, 162, 154, 35, 163, 161, 35, 42, 163, 161, 164, 162, 164, 161, 163, 165, 42, 43, 42, 165, 166, 166, 163, 42, 65, 166, 165, 166, 65, 67, 163, 166, 167, 166, 67, 167, 167, 164, 163, 67, 168, 167, 168, 67, 66, 164, 167, 169, 168, 169, 167, 168, 66, 73, 68, 73, 66, 73, 68, 71, 168, 73, 74, 74, 170, 168, 169, 168, 170, 170, 74, 171, 72, 171, 74, 171, 72, 172, 170, 173, 169, 172, 174, 171, 174, 172, 175, 171, 176, 170, 176, 171, 174, 173, 170, 176, 175, 58, 174, 58, 175, 61, 177, 174, 58, 174, 177, 176, 60, 177, 58, 177, 60, 178, 177, 178, 95, 179, 176, 177, 179, 177, 95, 176, 179, 173, 95, 180, 179, 180, 173, 179, 180, 95, 93, 181, 169, 173, 173, 180, 181, 169, 181, 164, 181, 162, 164, 162, 181, 182, 180, 182, 181, 182, 154, 162, 154, 182, 156, 182, 180, 183, 183, 156, 182, 183, 180, 93, 156, 183, 26, 183, 93, 23, 183, 25, 26, 25, 183, 23, 128, 106, 47, 106, 128, 107, 108, 107, 128, 128, 109, 108, 98, 178, 60, 178, 98, 96, 94, 178, 96, 95, 178, 94, 184, 70, 69, 70, 184, 185, 186, 185, 184, 186, 54, 52, 186, 52, 187, 185, 186, 187, 52, 188, 187, 52, 51, 188, 51, 56, 188, 122, 188, 56, 189, 185, 187, 187, 188, 189, 188, 122, 190, 125, 190, 122, 188, 191, 189, 191, 188, 190, 190, 125, 192, 192, 191, 190, 46, 192, 125, 191, 193, 189, 185, 189, 193, 192, 46, 194, 194, 46, 45, 194, 45, 48, 102, 194, 48, 192, 194, 195, 194, 102, 195, 191, 192, 196, 196, 192, 195, 196, 197, 191, 193, 191, 197, 198, 196, 195, 197, 196, 198, 199, 195, 102, 198, 195, 199, 199, 102, 101, 200, 198, 199, 200, 197, 198, 201, 199, 101, 200, 199, 201, 201, 101, 64, 59, 201, 64, 201, 59, 61, 61, 200, 201, 200, 61, 175, 175, 202, 200, 197, 200, 202, 202, 175, 172, 203, 197, 202, 172, 203, 202, 197, 203, 193, 203, 172, 72, 203, 185, 193, 71, 203, 72, 185, 203, 70, 70, 203, 71, 204, 15, 12, 15, 204, 16, 116, 204, 12, 205, 16, 204, 116, 206, 204, 16, 205, 138, 116, 207, 206, 205, 140, 138, 207, 116, 78, 205, 208, 140, 78, 209, 207, 208, 38, 140, 209, 78, 75, 210, 38, 208, 53, 209, 75, 210, 34, 38, 209, 53, 54, 34, 210, 32, 54, 211, 209, 43, 32, 210, 54, 186, 211, 212, 43, 210, 186, 213, 211, 212, 165, 43, 213, 186, 184, 165, 212, 214, 184, 69, 213, 215, 165, 214, 69, 215, 213, 65, 165, 215, 68, 215, 69, 215, 68, 65, 216, 217, 218, 217, 216, 219, 220, 221, 222, 221, 220, 223, 89, 90, 88, 88, 90, 220, 92, 220, 90, 222, 88, 220, 88, 222, 82, 220, 92, 223, 222, 80, 82, 80, 222, 81, 222, 221, 81, 81, 221, 83, 92, 97, 99, 223, 92, 99, 104, 223, 99, 223, 104, 221, 83, 221, 104, 83, 104, 105, 204, 219, 205, 219, 204, 206, 219, 208, 205, 217, 219, 206, 208, 219, 216, 206, 207, 217, 216, 210, 208, 209, 217, 207, 212, 210, 216, 209, 211, 217, 218, 212, 216, 211, 218, 217, 214, 212, 218, 211, 213, 218, 215, 214, 218, 213, 215, 218]
    normal3f[] normals = [(-0.39701328, 0.8126695, 0.4265545), (-0.09617831, 0.5311622, 0.8417937), (-0.07560422, 0.91755795, 0.39034787), (-0.09617831, 0.5311622, 0.8417937), (-0.39701328, 0.8126695, 0.4265545), (-0.39636445, 0.3465389, 0.85018), (-0.8353964, 0.24470583, 0.49217063), (-0.52780277, 0.05517828, 0.84757286), (-0.39636445, 0.3465389, 0.85018), (-0.52780277, 0.05517828, 0.84757286), (-0.8353964, 0.24470583, 0.49217063), (-0.92687017, 0.01459975, 0.3750981), (-0.9331897, -0.000003277038, 0.35938445), (-0.52780277, 0.05517828, 0.84757286), (-0.92687017, 0.01459975, 0.3750981), (-0.52780277, 0.05517828, 0.84757286), (-0.9331897, -0.000003277038, 0.35938445), (-0.44702008, -0.0000011657945, 0.894524), (-0.39701328, 0.8126695, 0.4265545), (-0.5260233, 0.8477675, 0.067747965), (-0.85602534, 0.48445207, 0.1803521), (-0.85602534, 0.48445207, 0.1803521), (-0.5260233, 0.8477675, 0.067747965), (-0.92556095, 0.37804142, 0.02053593), (0.8474723, 0.057924874, 0.5276698), (0.4855141, 0.18169259, 0.8551397), (0.37527406, 0.016937861, 0.9267592), (0.4855141, 0.18169259, 0.8551397), (0.8474723, 0.057924874, 0.5276698), (0.8122111, 0.4280197, 0.39637393), (0.8122111, 0.4280197, 0.39637393), (0.91745955, 0.39115927, 0.0725425), (0.5313431, 0.8420537, 0.0928455), (0.8122111, 0.4280197, 0.39637393), (0.5313431, 0.8420537, 0.0928455), (0.34727374, 0.8500253, 0.396053), (0.34727374, 0.8500253, 0.396053), (0.07032532, 0.84814626, 0.5250736), (0.24622168, 0.49242648, 0.83480006), (0.24622168, 0.49242648, 0.83480006), (0.07032532, 0.84814626, 0.5250736), (0.021524793, 0.38053426, 0.9245163), (-0.85567725, 0.17901953, -0.48555988), (-0.5277805, 0.05528289, -0.84757996), (-0.926865, 0.014655329, -0.37510863), (-0.5277805, 0.05528289, -0.84757996), (-0.85567725, 0.17901953, -0.48555988), (-0.43131876, 0.3644782, -0.82529986), (-0.096287, 0.53113717, -0.841797), (-0.36555022, 0.8324013, -0.416511), (-0.07562307, 0.91754955, -0.3903642), (-0.36555022, 0.8324013, -0.416511), (-0.096287, 0.53113717, -0.841797), (-0.43131876, 0.3644782, -0.82529986), (-0.52601814, 0.8477698, -0.067758836), (-0.36555022, 0.8324013, -0.416511), (-0.8356188, 0.491034, -0.24622536), (-0.52601814, 0.8477698, -0.067758836), (-0.8356188, 0.491034, -0.24622536), (-0.9255788, 0.3779979, -0.020531673), (0.8780992, 0.07307947, -0.472865), (0.4855134, 0.18163578, -0.85515225), (0.8122033, 0.42801425, -0.39639586), (0.4855134, 0.18163578, -0.85515225), (0.8780992, 0.07307947, -0.472865), (0.44716632, 0.013959712, -0.89434195), (0.34729254, 0.8499962, -0.39609918), (0.53135866, 0.8420409, -0.09287144), (0.8122033, 0.42801425, -0.39639586), (0.9174698, 0.391136, -0.07253864), (0.8122033, 0.42801425, -0.39639586), (0.53135866, 0.8420409, -0.09287144), (0.34729254, 0.8499962, -0.39609918), (0.24623647, 0.49244258, -0.83478624), (0.07035819, 0.84814173, -0.5250765), (0.24623647, 0.49244258, -0.83478624), (0.021527229, 0.3804233, -0.9245619), (0.07035819, 0.84814173, -0.5250765), (0.53664166, 0.0000013840819, -0.84381026), (0.44716632, 0.013959712, -0.89434195), (0.8944212, 0.000008645992, -0.4472256), (0.8944212, 0.000008645992, -0.4472256), (0.44716632, 0.013959712, -0.89434195), (0.8780992, 0.07307947, -0.472865), (-0.096293844, -0.5310692, 0.8418391), (-0.36552486, -0.8324303, 0.41647518), (-0.07564162, -0.91754603, 0.39036855), (-0.36552486, -0.8324303, 0.41647518), (-0.096293844, -0.5310692, 0.8418391), (-0.43130508, -0.36443305, 0.82532704), (-0.5260084, -0.84778106, 0.067694865), (-0.83563274, -0.49105376, 0.24613875), (-0.92551273, -0.37816525, 0.020426609), (-0.83563274, -0.49105376, 0.24613875), (-0.5260084, -0.84778106, 0.067694865), (-0.36552486, -0.8324303, 0.41647518), (0.34726602, -0.8500141, 0.39608383), (0.5313728, -0.8420354, 0.09284072), (0.81219304, -0.4280691, 0.39635757), (0.9174346, -0.39123377, 0.07245692), (0.81219304, -0.4280691, 0.39635757), (0.5313728, -0.8420354, 0.09284072), (0.34726602, -0.8500141, 0.39608383), (0.24619704, -0.49239445, 0.83482623), (0.07035923, -0.84811485, 0.52511996), (0.24619704, -0.49239445, 0.83482623), (0.021523595, -0.38037673, 0.92458117), (0.07035923, -0.84811485, 0.52511996), (-0.096229374, -0.5310965, -0.8418292), (-0.3970272, -0.8126339, -0.42660952), (-0.39637026, -0.34652513, -0.850183), (-0.3970272, -0.8126339, -0.42660952), (-0.096229374, -0.5310965, -0.8418292), (-0.07563651, -0.91754514, -0.39037168), (-0.92551374, -0.37816018, -0.020477062), (-0.85601157, -0.48445448, -0.18041083), (-0.52603024, -0.84776473, -0.06772875), (-0.85601157, -0.48445448, -0.18041083), (-0.3970272, -0.8126339, -0.42660952), (-0.52603024, -0.84776473, -0.06772875), (0.847444, -0.05793654, -0.527714), (0.48541674, -0.18163162, -0.855208), (0.3752055, -0.016960671, -0.9267865), (0.48541674, -0.18163162, -0.855208), (0.847444, -0.05793654, -0.527714), (0.8121748, -0.42801735, -0.39645082), (0.8121748, -0.42801735, -0.39645082), (0.9174947, -0.3910869, -0.072487794), (0.53129756, -0.84207964, -0.09286991), (0.8121748, -0.42801735, -0.39645082), (0.53129756, -0.84207964, -0.09286991), (0.34719113, -0.8500386, -0.39609697), (0.34719113, -0.8500386, -0.39609697), (0.070338964, -0.8481204, -0.5251137), (0.24616721, -0.49239534, -0.8348345), (0.24616721, -0.49239534, -0.8348345), (0.070338964, -0.8481204, -0.5251137), (0.021517994, -0.38043815, -0.92455614), (0.8781291, -0.07308577, 0.47280857), (0.48542586, -0.1816701, 0.85519457), (0.81219304, -0.4280691, 0.39635757), (0.48542586, -0.1816701, 0.85519457), (0.8781291, -0.07308577, 0.47280857), (0.4471258, -0.013990707, 0.8943617), (0.8781291, -0.07308577, 0.47280857), (0.843872, -0.0000060452317, 0.53654474), (0.4471258, -0.013990707, 0.8943617), (0.4471258, -0.013990707, 0.8943617), (0.843872, -0.0000060452317, 0.53654474), (0.44717237, -0.0000018869075, 0.8944478), (-0.39636445, 0.3465389, 0.85018), (-0.39701328, 0.8126695, 0.4265545), (-0.8353964, 0.24470583, 0.49217063), (-0.8353964, 0.24470583, 0.49217063), (-0.39701328, 0.8126695, 0.4265545), (-0.85602534, 0.48445207, 0.1803521), (-0.9967051, 0.051287286, 0.062838785), (-0.8353964, 0.24470583, 0.49217063), (-0.85602534, 0.48445207, 0.1803521), (-0.9967051, 0.051287286, 0.062838785), (-0.92687017, 0.01459975, 0.3750981), (-0.8353964, 0.24470583, 0.49217063), (-0.9967051, 0.051287286, 0.062838785), (-0.85602534, 0.48445207, 0.1803521), (-0.92556095, 0.37804142, 0.02053593), (-0.9967051, 0.051287286, 0.062838785), (-0.9982694, -0.0000039430042, 0.058807313), (-0.92687017, 0.01459975, 0.3750981), (-0.92687017, 0.01459975, 0.3750981), (-0.9982694, -0.0000039430042, 0.058807313), (-0.9331897, -0.000003277038, 0.35938445), (-0.92556095, 0.37804142, 0.02053593), (-0.994114, 0.10833933, 1.4379464e-7), (-0.9967051, 0.051287286, 0.062838785), (-0.9923097, 0.0000074247273, 0.123780504), (-0.9331897, -0.000003277038, 0.35938445), (-0.9982694, -0.0000039430042, 0.058807313), (-0.92556095, 0.37804142, 0.02053593), (-0.8443145, 0.5358479, 7.4699805e-8), (-0.994114, 0.10833933, 1.4379464e-7), (-0.5260233, 0.8477675, 0.067747965), (-0.8443145, 0.5358479, 7.4699805e-8), (-0.92556095, 0.37804142, 0.02053593), (-0.5260233, 0.8477675, 0.067747965), (-0.3591899, 0.9332645, -6.784302e-8), (-0.8443145, 0.5358479, 7.4699805e-8), (-0.53715163, 0.8434857, -2.3379842e-8), (-0.8443145, 0.5358479, 7.4699805e-8), (-0.3591899, 0.9332645, -6.784302e-8), (-0.93385726, 0.35764605, 1.0335287e-7), (-0.994114, 0.10833933, 1.4379464e-7), (-0.8443145, 0.5358479, 7.4699805e-8), (-0.8443145, 0.5358479, 7.4699805e-8), (-0.53715163, 0.8434857, -2.3379842e-8), (-0.93385726, 0.35764605, 1.0335287e-7), (-0.52601814, 0.8477698, -0.067758836), (-0.93385726, 0.35764605, 1.0335287e-7), (-0.53715163, 0.8434857, -2.3379842e-8), (-0.994114, 0.10833933, 1.4379464e-7), (-0.93385726, 0.35764605, 1.0335287e-7), (-0.9989584, 0.04563028, 1.8257468e-7), (-0.93385726, 0.35764605, 1.0335287e-7), (-0.52601814, 0.8477698, -0.067758836), (-0.9255788, 0.3779979, -0.020531673), (-0.9255788, 0.3779979, -0.020531673), (-0.9989584, 0.04563028, 1.8257468e-7), (-0.93385726, 0.35764605, 1.0335287e-7), (-0.9989584, 0.04563028, 1.8257468e-7), (-0.9255788, 0.3779979, -0.020531673), (-0.9943671, 0.06735727, -0.08183578), (-0.9943671, 0.06735727, -0.08183578), (-0.9255788, 0.3779979, -0.020531673), (-0.8356188, 0.491034, -0.24622536), (-0.43131876, 0.3644782, -0.82529986), (-0.8356188, 0.491034, -0.24622536), (-0.36555022, 0.8324013, -0.416511), (-0.8356188, 0.491034, -0.24622536), (-0.43131876, 0.3644782, -0.82529986), (-0.85567725, 0.17901953, -0.48555988), (-0.9943671, 0.06735727, -0.08183578), (-0.8356188, 0.491034, -0.24622536), (-0.85567725, 0.17901953, -0.48555988), (-0.9943671, 0.06735727, -0.08183578), (-0.85567725, 0.17901953, -0.48555988), (-0.926865, 0.014655329, -0.37510863), (-0.926865, 0.014655329, -0.37510863), (-0.99589944, -0.000009062094, -0.090467624), (-0.9943671, 0.06735727, -0.08183578), (-0.99589944, -0.000009062094, -0.090467624), (-0.926865, 0.014655329, -0.37510863), (-0.93315166, -0.000003579365, -0.35948315), (-0.5277805, 0.05528289, -0.84757996), (-0.93315166, -0.000003579365, -0.35948315), (-0.926865, 0.014655329, -0.37510863), (-0.93315166, -0.000003579365, -0.35948315), (-0.9958969, 0.0000053699296, -0.09049554), (-0.99589944, -0.000009062094, -0.090467624), (-0.93315166, -0.000003579365, -0.35948315), (-0.5277805, 0.05528289, -0.84757996), (-0.53633964, -0.0000018587224, -0.84400225), (-0.53633964, -0.0000018587224, -0.84400225), (-0.8436793, 0.00000423376, -0.5368475), (-0.93315166, -0.000003579365, -0.35948315), (-0.9958969, 0.0000053699296, -0.09049554), (-0.93315166, -0.000003579365, -0.35948315), (-0.8436793, 0.00000423376, -0.5368475), (-0.8436793, 0.00000423376, -0.5368475), (-0.53633964, -0.0000018587224, -0.84400225), (-0.35891658, 0.0000017184327, -0.93336976), (-0.9958969, 0.0000053699296, -0.09049554), (-0.8436793, 0.00000423376, -0.5368475), (-0.92679846, -0.01463629, -0.375274), (-0.9958969, 0.0000053699296, -0.09049554), (-0.92679846, -0.01463629, -0.375274), (-0.994355, -0.06736548, -0.08197587), (-0.994355, -0.06736548, -0.08197587), (-0.92679846, -0.01463629, -0.375274), (-0.8353325, -0.24466121, -0.4923014), (-0.3970272, -0.8126339, -0.42660952), (-0.8353325, -0.24466121, -0.4923014), (-0.39637026, -0.34652513, -0.850183), (-0.8353325, -0.24466121, -0.4923014), (-0.3970272, -0.8126339, -0.42660952), (-0.85601157, -0.48445448, -0.18041083), (-0.994355, -0.06736548, -0.08197587), (-0.8353325, -0.24466121, -0.4923014), (-0.85601157, -0.48445448, -0.18041083), (-0.994355, -0.06736548, -0.08197587), (-0.85601157, -0.48445448, -0.18041083), (-0.92551374, -0.37816018, -0.020477062), (-0.994355, -0.06736548, -0.08197587), (-0.92551374, -0.37816018, -0.020477062), (-0.9941013, -0.10845565, 1.7469922e-7), (-0.9941013, -0.10845565, 1.7469922e-7), (-0.92551374, -0.37816018, -0.020477062), (-0.8442847, -0.535895, 2.2662434e-7), (-0.8442847, -0.535895, 2.2662434e-7), (-0.92551374, -0.37816018, -0.020477062), (-0.52603024, -0.84776473, -0.06772875), (-0.8442847, -0.535895, 2.2662434e-7), (-0.52603024, -0.84776473, -0.06772875), (-0.44742814, -0.8943199, 2.500871e-7), (-0.44747448, -0.8942968, 2.2948235e-7), (-0.8442847, -0.535895, 2.2662434e-7), (-0.44742814, -0.8943199, 2.500871e-7), (-0.9337877, -0.35782766, 2.0382672e-7), (-0.9941013, -0.10845565, 1.7469922e-7), (-0.8442847, -0.535895, 2.2662434e-7), (-0.8442847, -0.535895, 2.2662434e-7), (-0.44747448, -0.8942968, 2.2948235e-7), (-0.9337877, -0.35782766, 2.0382672e-7), (-0.44747448, -0.8942968, 2.2948235e-7), (-0.5260084, -0.84778106, 0.067694865), (-0.9337877, -0.35782766, 2.0382672e-7), (-0.9941013, -0.10845565, 1.7469922e-7), (-0.9337877, -0.35782766, 2.0382672e-7), (-0.998957, -0.045661964, 1.6562302e-7), (-0.92551273, -0.37816525, 0.020426609), (-0.9337877, -0.35782766, 2.0382672e-7), (-0.5260084, -0.84778106, 0.067694865), (-0.998957, -0.045661964, 1.6562302e-7), (-0.9337877, -0.35782766, 2.0382672e-7), (-0.92551273, -0.37816525, 0.020426609), (-0.99435943, -0.067366906, 0.08192062), (-0.998957, -0.045661964, 1.6562302e-7), (-0.92551273, -0.37816525, 0.020426609), (-0.99435943, -0.067366906, 0.08192062), (-0.92551273, -0.37816525, 0.020426609), (-0.83563274, -0.49105376, 0.24613875), (-0.43130508, -0.36443305, 0.82532704), (-0.83563274, -0.49105376, 0.24613875), (-0.36552486, -0.8324303, 0.41647518), (-0.83563274, -0.49105376, 0.24613875), (-0.43130508, -0.36443305, 0.82532704), (-0.85565555, -0.1788339, 0.4856666), (-0.99435943, -0.067366906, 0.08192062), (-0.83563274, -0.49105376, 0.24613875), (-0.85565555, -0.1788339, 0.4856666), (-0.99435943, -0.067366906, 0.08192062), (-0.85565555, -0.1788339, 0.4856666), (-0.9268201, -0.014700104, 0.37521788), (-0.9923097, 0.0000074247273, 0.123780504), (-0.99435943, -0.067366906, 0.08192062), (-0.9268201, -0.014700104, 0.37521788), (-0.84370315, 0.0000044559556, 0.53681004), (-0.9923097, 0.0000074247273, 0.123780504), (-0.9268201, -0.014700104, 0.37521788), (-0.9331897, -0.000003277038, 0.35938445), (-0.9923097, 0.0000074247273, 0.123780504), (-0.84370315, 0.0000044559556, 0.53681004), (-0.84370315, 0.0000044559556, 0.53681004), (-0.44702008, -0.0000011657945, 0.894524), (-0.9331897, -0.000003277038, 0.35938445), (-0.44702008, -0.0000011657945, 0.894524), (-0.84370315, 0.0000044559556, 0.53681004), (-0.44675505, 0.0000028499708, 0.89465636), (0.24622168, 0.49242648, 0.83480006), (0.8122111, 0.4280197, 0.39637393), (0.34727374, 0.8500253, 0.396053), (0.8122111, 0.4280197, 0.39637393), (0.24622168, 0.49242648, 0.83480006), (0.4855141, 0.18169259, 0.8551397), (0.06542049, 0.053382885, 0.99642885), (0.4855141, 0.18169259, 0.8551397), (0.24622168, 0.49242648, 0.83480006), (0.06542049, 0.053382885, 0.99642885), (0.24622168, 0.49242648, 0.83480006), (0.021524793, 0.38053426, 0.9245163), (0.06542049, 0.053382885, 0.99642885), (0.37527406, 0.016937861, 0.9267592), (0.4855141, 0.18169259, 0.8551397), (0.021524793, 0.38053426, 0.9245163), (0, 0.053640097, 0.9985604), (0.06542049, 0.053382885, 0.99642885), (0, 0.053640097, 0.9985604), (0.021524793, 0.38053426, 0.9245163), (-0.0000023739515, 0.3790455, 0.92537814), (0.37527406, 0.016937861, 0.9267592), (0.06542049, 0.053382885, 0.99642885), (0.09385442, 7.68844e-7, 0.995586), (4.784293e-13, -9.768959e-8, 1), (0.06542049, 0.053382885, 0.99642885), (0, 0.053640097, 0.9985604), (0.06542049, 0.053382885, 0.99642885), (4.784293e-13, -9.768959e-8, 1), (0.09385442, 7.68844e-7, 0.995586), (0.4474262, 0.0000019368674, 0.89432096), (0.37527406, 0.016937861, 0.9267592), (0.09385442, 7.68844e-7, 0.995586), (0.4474262, 0.0000019368674, 0.89432096), (0.8474723, 0.057924874, 0.5276698), (0.37527406, 0.016937861, 0.9267592), (0.8474723, 0.057924874, 0.5276698), (0.4474262, 0.0000019368674, 0.89432096), (0.9333333, 0.0000042328406, 0.3590112), (0.4474262, 0.0000019368674, 0.89432096), (0.843872, -0.0000060452317, 0.53654474), (0.9333333, 0.0000042328406, 0.3590112), (0.843872, -0.0000060452317, 0.53654474), (0.4474262, 0.0000019368674, 0.89432096), (0.44717237, -0.0000018869075, 0.8944478), (0.09385442, 7.68844e-7, 0.995586), (0.09371398, -4.513076e-7, 0.9955992), (0.4474262, 0.0000019368674, 0.89432096), (0.44717237, -0.0000018869075, 0.8944478), (0.4474262, 0.0000019368674, 0.89432096), (0.09371398, -4.513076e-7, 0.9955992), (0.09371398, -4.513076e-7, 0.9955992), (0.09385442, 7.68844e-7, 0.995586), (4.784293e-13, -9.768959e-8, 1), (0.4471258, -0.013990707, 0.8943617), (0.44717237, -0.0000018869075, 0.8944478), (0.09371398, -4.513076e-7, 0.9955992), (0.4471258, -0.013990707, 0.8943617), (0.09371398, -4.513076e-7, 0.9955992), (0.065329924, -0.05331366, 0.9964385), (0.065329924, -0.05331366, 0.9964385), (0.48542586, -0.1816701, 0.85519457), (0.4471258, -0.013990707, 0.8943617), (0.09371398, -4.513076e-7, 0.9955992), (4.784293e-13, -9.768959e-8, 1), (-0.000011595793, -2.8146e-7, 1), (-0.000011595793, -2.8146e-7, 1), (0.065329924, -0.05331366, 0.9964385), (0.09371398, -4.513076e-7, 0.9955992), (0.065329924, -0.05331366, 0.9964385), (0.24619704, -0.49239445, 0.83482623), (0.48542586, -0.1816701, 0.85519457), (0.24619704, -0.49239445, 0.83482623), (0.81219304, -0.4280691, 0.39635757), (0.48542586, -0.1816701, 0.85519457), (0.81219304, -0.4280691, 0.39635757), (0.24619704, -0.49239445, 0.83482623), (0.34726602, -0.8500141, 0.39608383), (0.065329924, -0.05331366, 0.9964385), (0.021523595, -0.38037673, 0.92458117), (0.24619704, -0.49239445, 0.83482623), (-0.00002217288, -0.05356875, 0.99856424), (0.021523595, -0.38037673, 0.92458117), (0.065329924, -0.05331366, 0.9964385), (0.065329924, -0.05331366, 0.9964385), (-0.000011595793, -2.8146e-7, 1), (-0.00002217288, -0.05356875, 0.99856424), (0.021523595, -0.38037673, 0.92458117), (-0.00002217288, -0.05356875, 0.99856424), (-0.000015033142, -0.3788554, 0.92545587), (-0.000015033142, -0.3788554, 0.92545587), (0.07035923, -0.84811485, 0.52511996), (0.021523595, -0.38037673, 0.92458117), (0.07035923, -0.84811485, 0.52511996), (-0.000015033142, -0.3788554, 0.92545587), (-0.00000686939, -0.85637504, 0.5163545), (-0.000019607482, -4.8725826e-7, 1), (-0.00002217288, -0.05356875, 0.99856424), (-0.000011595793, -2.8146e-7, 1), (-0.000011241784, -0.5162831, 0.856418), (-0.00000686939, -0.85637504, 0.5163545), (-0.000015033142, -0.3788554, 0.92545587), (-0.00000686939, -0.85637504, 0.5163545), (-0.000011241784, -0.5162831, 0.856418), (-0.000003362242, -0.92542607, 0.3789284), (-0.000019391338, -0.101809554, 0.9948039), (-0.000015033142, -0.3788554, 0.92545587), (-0.00002217288, -0.05356875, 0.99856424), (-0.000015033142, -0.3788554, 0.92545587), (-0.000019391338, -0.101809554, 0.9948039), (-0.000011241784, -0.5162831, 0.856418), (-0.00002217288, -0.05356875, 0.99856424), (-0.000019607482, -4.8725826e-7, 1), (-0.000019391338, -0.101809554, 0.9948039), (-0.096293844, -0.5310692, 0.8418391), (-0.000003362242, -0.92542607, 0.3789284), (-0.000011241784, -0.5162831, 0.856418), (-0.000003362242, -0.92542607, 0.3789284), (-0.096293844, -0.5310692, 0.8418391), (-0.07564162, -0.91754603, 0.39036855), (-0.000011241784, -0.5162831, 0.856418), (-0.11017467, -0.08909433, 0.98991096), (-0.096293844, -0.5310692, 0.8418391), (-0.11017467, -0.08909433, 0.98991096), (-0.000011241784, -0.5162831, 0.856418), (-0.000019391338, -0.101809554, 0.9948039), (-0.11017467, -0.08909433, 0.98991096), (-0.43130508, -0.36443305, 0.82532704), (-0.096293844, -0.5310692, 0.8418391), (-0.43130508, -0.36443305, 0.82532704), (-0.11017467, -0.08909433, 0.98991096), (-0.5277299, -0.05529161, 0.84761065), (-0.11017467, -0.08909433, 0.98991096), (-0.44675505, 0.0000028499708, 0.89465636), (-0.5277299, -0.05529161, 0.84761065), (-0.000019391338, -0.101809554, 0.9948039), (-0.12668313, 8.19391e-8, 0.9919433), (-0.11017467, -0.08909433, 0.98991096), (-0.11017467, -0.08909433, 0.98991096), (-0.12668313, 8.19391e-8, 0.9919433), (-0.44675505, 0.0000028499708, 0.89465636), (-0.12668313, 8.19391e-8, 0.9919433), (-0.000019391338, -0.101809554, 0.9948039), (-0.000019607482, -4.8725826e-7, 1), (-0.12668313, 8.19391e-8, 0.9919433), (-0.44702008, -0.0000011657945, 0.894524), (-0.44675505, 0.0000028499708, 0.89465636), (-0.000019607482, -4.8725826e-7, 1), (-0.061399307, -7.4858326e-7, 0.9981133), (-0.12668313, 8.19391e-8, 0.9919433), (-0.12668313, 8.19391e-8, 0.9919433), (-0.061399307, -7.4858326e-7, 0.9981133), (-0.44702008, -0.0000011657945, 0.894524), (-0.000011595793, -2.8146e-7, 1), (-0.000011547973, -3.049443e-7, 1), (-0.000019607482, -4.8725826e-7, 1), (-0.061399307, -7.4858326e-7, 0.9981133), (-0.000019607482, -4.8725826e-7, 1), (-0.000011547973, -3.049443e-7, 1), (-0.000011595793, -2.8146e-7, 1), (4.784293e-13, -9.768959e-8, 1), (-0.000011547973, -3.049443e-7, 1), (0, 0.053640097, 0.9985604), (-0.000011547973, -3.049443e-7, 1), (4.784293e-13, -9.768959e-8, 1), (-0.000011547973, -3.049443e-7, 1), (0, 0.053640097, 0.9985604), (-4.4283618e-7, 0.10195917, 0.99478865), (-4.4283618e-7, 0.10195917, 0.99478865), (-0.061399307, -7.4858326e-7, 0.9981133), (-0.000011547973, -3.049443e-7, 1), (-0.0000023739515, 0.3790455, 0.92537814), (-4.4283618e-7, 0.10195917, 0.99478865), (0, 0.053640097, 0.9985604), (-0.061399307, -7.4858326e-7, 0.9981133), (-0.11027918, 0.08916729, 0.98989284), (-0.44702008, -0.0000011657945, 0.894524), (-0.061399307, -7.4858326e-7, 0.9981133), (-4.4283618e-7, 0.10195917, 0.99478865), (-0.11027918, 0.08916729, 0.98989284), (-0.11027918, 0.08916729, 0.98989284), (-0.52780277, 0.05517828, 0.84757286), (-0.44702008, -0.0000011657945, 0.894524), (-0.11027918, 0.08916729, 0.98989284), (-0.39636445, 0.3465389, 0.85018), (-0.52780277, 0.05517828, 0.84757286), (-0.39636445, 0.3465389, 0.85018), (-0.11027918, 0.08916729, 0.98989284), (-0.09617831, 0.5311622, 0.8417937), (-4.4283618e-7, 0.10195917, 0.99478865), (-0.0000023739515, 0.3790455, 0.92537814), (-0.0000024983804, 0.51641375, 0.85633934), (-0.0000024983804, 0.51641375, 0.85633934), (-0.11027918, 0.08916729, 0.98989284), (-4.4283618e-7, 0.10195917, 0.99478865), (-0.11027918, 0.08916729, 0.98989284), (-0.0000024983804, 0.51641375, 0.85633934), (-0.09617831, 0.5311622, 0.8417937), (-0.0000018734254, 0.8563778, 0.51635), (-0.0000024983804, 0.51641375, 0.85633934), (-0.0000023739515, 0.3790455, 0.92537814), (-0.0000024983804, 0.51641375, 0.85633934), (-0.0000018734254, 0.8563778, 0.51635), (-0.0000019779068, 0.9254178, 0.37894857), (-0.0000019779068, 0.9254178, 0.37894857), (-0.09617831, 0.5311622, 0.8417937), (-0.0000024983804, 0.51641375, 0.85633934), (-0.09617831, 0.5311622, 0.8417937), (-0.0000019779068, 0.9254178, 0.37894857), (-0.07560422, 0.91755795, 0.39034787), (0.07032532, 0.84814626, 0.5250736), (-0.0000023739515, 0.3790455, 0.92537814), (0.021524793, 0.38053426, 0.9245163), (-0.0000023739515, 0.3790455, 0.92537814), (0.07032532, 0.84814626, 0.5250736), (-0.0000018734254, 0.8563778, 0.51635), (0.092049934, 0.991787, 0.08879926), (-0.0000018734254, 0.8563778, 0.51635), (0.07032532, 0.84814626, 0.5250736), (0.34727374, 0.8500253, 0.396053), (0.092049934, 0.991787, 0.08879926), (0.07032532, 0.84814626, 0.5250736), (0.5313431, 0.8420537, 0.0928455), (0.092049934, 0.991787, 0.08879926), (0.34727374, 0.8500253, 0.396053), (0.89347434, 0.44911432, -2.1757407e-7), (0.5313431, 0.8420537, 0.0928455), (0.91745955, 0.39115927, 0.0725425), (0.5313431, 0.8420537, 0.0928455), (0.89347434, 0.44911432, -2.1757407e-7), (0.5365719, 0.8438546, -2.0335668e-7), (0.5365719, 0.8438546, -2.0335668e-7), (0.092049934, 0.991787, 0.08879926), (0.5313431, 0.8420537, 0.0928455), (0.89350355, 0.44905615, -2.1424984e-7), (0.5365719, 0.8438546, -2.0335668e-7), (0.89347434, 0.44911432, -2.1757407e-7), (-0.0000018734254, 0.8563778, 0.51635), (0.092049934, 0.991787, 0.08879926), (-0.000004457229, 0.99589777, 0.09048615), (-0.000004457229, 0.99589777, 0.09048615), (-0.0000019779068, 0.9254178, 0.37894857), (-0.0000018734254, 0.8563778, 0.51635), (0.89350355, 0.44905615, -2.1424984e-7), (0.9174698, 0.391136, -0.07253864), (0.53135866, 0.8420409, -0.09287144), (-0.0000019779068, 0.9254178, 0.37894857), (-0.000004457229, 0.99589777, 0.09048615), (-0.0000048773254, 0.99589896, 0.09047276), (-0.0000048773254, 0.99589896, 0.09047276), (-0.07560422, 0.91755795, 0.39034787), (-0.0000019779068, 0.9254178, 0.37894857), (0.89350355, 0.44905615, -2.1424984e-7), (0.53135866, 0.8420409, -0.09287144), (0.35909885, 0.9332996, -1.886868e-7), (0.5365719, 0.8438546, -2.0335668e-7), (0.89350355, 0.44905615, -2.1424984e-7), (0.35909885, 0.9332996, -1.886868e-7), (-0.07560422, 0.91755795, 0.39034787), (-0.0000048773254, 0.99589896, 0.09047276), (-0.12526482, 0.9882103, 0.08802965), (-0.12526482, 0.9882103, 0.08802965), (-0.39701328, 0.8126695, 0.4265545), (-0.07560422, 0.91755795, 0.39034787), (-0.39701328, 0.8126695, 0.4265545), (-0.12526482, 0.9882103, 0.08802965), (-0.5260233, 0.8477675, 0.067747965), (-0.12526482, 0.9882103, 0.08802965), (-0.3591899, 0.9332645, -6.784302e-8), (-0.5260233, 0.8477675, 0.067747965), (-0.0000048773254, 0.99589896, 0.09047276), (-0.06135224, 0.9981162, -1.289864e-7), (-0.12526482, 0.9882103, 0.08802965), (-0.12526482, 0.9882103, 0.08802965), (-0.06135224, 0.9981162, -1.289864e-7), (-0.3591899, 0.9332645, -6.784302e-8), (-0.0000048773254, 0.99589896, 0.09047276), (-0.0000028975148, 1, -1.5344001e-7), (-0.06135224, 0.9981162, -1.289864e-7), (-0.000004457229, 0.99589777, 0.09048615), (-0.0000028975148, 1, -1.5344001e-7), (-0.0000048773254, 0.99589896, 0.09047276), (-0.12687305, 0.991919, -1.2251925e-7), (-0.3591899, 0.9332645, -6.784302e-8), (-0.06135224, 0.9981162, -1.289864e-7), (-0.3591899, 0.9332645, -6.784302e-8), (-0.12687305, 0.991919, -1.2251925e-7), (-0.53715163, 0.8434857, -2.3379842e-8), (0, 1, -1.3887528e-7), (-0.06135224, 0.9981162, -1.289864e-7), (-0.0000028975148, 1, -1.5344001e-7), (-0.06135224, 0.9981162, -1.289864e-7), (0, 1, -1.3887528e-7), (-0.12687305, 0.991919, -1.2251925e-7), (-0.0000048973825, 1, -1.6981605e-7), (-0.0000028975148, 1, -1.5344001e-7), (-0.000004457229, 0.99589777, 0.09048615), (0.092049934, 0.991787, 0.08879926), (-0.0000048973825, 1, -1.6981605e-7), (-0.000004457229, 0.99589777, 0.09048615), (-0.0000028975148, 1, -1.5344001e-7), (-0.0000028943075, 1, -1.5536187e-7), (0, 1, -1.3887528e-7), (-0.0000028943075, 1, -1.5536187e-7), (-0.0000028975148, 1, -1.5344001e-7), (-0.0000048973825, 1, -1.6981605e-7), (0.12695067, 0.9919091, -1.7387066e-7), (-0.0000048973825, 1, -1.6981605e-7), (0.092049934, 0.991787, 0.08879926), (0.092049934, 0.991787, 0.08879926), (0.5365719, 0.8438546, -2.0335668e-7), (0.12695067, 0.9919091, -1.7387066e-7), (0.35909885, 0.9332996, -1.886868e-7), (0.12695067, 0.9919091, -1.7387066e-7), (0.5365719, 0.8438546, -2.0335668e-7), (0.06136901, 0.9981152, -1.7923428e-7), (-0.0000048973825, 1, -1.6981605e-7), (0.12695067, 0.9919091, -1.7387066e-7), (0.12695067, 0.9919091, -1.7387066e-7), (0.35909885, 0.9332996, -1.886868e-7), (0.06136901, 0.9981152, -1.7923428e-7), (-0.0000048973825, 1, -1.6981605e-7), (0.06136901, 0.9981152, -1.7923428e-7), (-0.0000028943075, 1, -1.5536187e-7), (0.35909885, 0.9332996, -1.886868e-7), (0.09202206, 0.9917915, -0.08877926), (0.06136901, 0.9981152, -1.7923428e-7), (0.09202206, 0.9917915, -0.08877926), (-0.0000028943075, 1, -1.5536187e-7), (0.06136901, 0.9981152, -1.7923428e-7), (0.53135866, 0.8420409, -0.09287144), (0.09202206, 0.9917915, -0.08877926), (0.35909885, 0.9332996, -1.886868e-7), (0.53135866, 0.8420409, -0.09287144), (0.34729254, 0.8499962, -0.39609918), (0.09202206, 0.9917915, -0.08877926), (0.34729254, 0.8499962, -0.39609918), (0.07035819, 0.84814173, -0.5250765), (0.09202206, 0.9917915, -0.08877926), (-5.930603e-7, 0.37891614, -0.92543113), (0.07035819, 0.84814173, -0.5250765), (0.021527229, 0.3804233, -0.9245619), (0.07035819, 0.84814173, -0.5250765), (-5.930603e-7, 0.37891614, -0.92543113), (-0.000004995624, 0.8563955, -0.51632047), (-0.000004995624, 0.8563955, -0.51632047), (0.09202206, 0.9917915, -0.08877926), (0.07035819, 0.84814173, -0.5250765), (-0.0000018737295, 0.5163731, -0.8563637), (-0.000004995624, 0.8563955, -0.51632047), (-5.930603e-7, 0.37891614, -0.92543113), (-0.0000028943075, 1, -1.5536187e-7), (0.09202206, 0.9917915, -0.08877926), (-0.0000019646582, 0.9958986, -0.09047647), (0.09202206, 0.9917915, -0.08877926), (-0.000004995624, 0.8563955, -0.51632047), (-0.0000019646582, 0.9958986, -0.09047647), (-0.0000019646582, 0.9958986, -0.09047647), (0, 1, -1.3887528e-7), (-0.0000028943075, 1, -1.5536187e-7), (-0.000004995624, 0.8563955, -0.51632047), (-0.0000018737295, 0.5163731, -0.8563637), (-0.0000047472513, 0.92542076, -0.3789413), (-0.0000047472513, 0.92542076, -0.3789413), (-0.0000019646582, 0.9958986, -0.09047647), (-0.000004995624, 0.8563955, -0.51632047), (-0.096287, 0.53113717, -0.841797), (-0.0000047472513, 0.92542076, -0.3789413), (-0.0000018737295, 0.5163731, -0.8563637), (-0.0000047472513, 0.92542076, -0.3789413), (-0.096287, 0.53113717, -0.841797), (-0.07562307, 0.91754955, -0.3903642), (0, 1, -1.3887528e-7), (-0.0000019646582, 0.9958986, -0.09047647), (0, 0.99589705, -0.090494655), (-0.0000019646582, 0.9958986, -0.09047647), (-0.0000047472513, 0.92542076, -0.3789413), (0, 0.99589705, -0.090494655), (-0.07562307, 0.91754955, -0.3903642), (0, 0.99589705, -0.090494655), (-0.0000047472513, 0.92542076, -0.3789413), (0, 1, -1.3887528e-7), (0, 0.99589705, -0.090494655), (-0.12687305, 0.991919, -1.2251925e-7), (0, 0.99589705, -0.090494655), (-0.07562307, 0.91754955, -0.3903642), (-0.12527943, 0.9882075, -0.08804052), (0, 0.99589705, -0.090494655), (-0.12527943, 0.9882075, -0.08804052), (-0.12687305, 0.991919, -1.2251925e-7), (-0.12527943, 0.9882075, -0.08804052), (-0.07562307, 0.91754955, -0.3903642), (-0.36555022, 0.8324013, -0.416511), (-0.12527943, 0.9882075, -0.08804052), (-0.53715163, 0.8434857, -2.3379842e-8), (-0.12687305, 0.991919, -1.2251925e-7), (-0.12527943, 0.9882075, -0.08804052), (-0.36555022, 0.8324013, -0.416511), (-0.52601814, 0.8477698, -0.067758836), (-0.53715163, 0.8434857, -2.3379842e-8), (-0.12527943, 0.9882075, -0.08804052), (-0.52601814, 0.8477698, -0.067758836), (0.8122033, 0.42801425, -0.39639586), (0.24623647, 0.49244258, -0.83478624), (0.34729254, 0.8499962, -0.39609918), (0.24623647, 0.49244258, -0.83478624), (0.8122033, 0.42801425, -0.39639586), (0.4855134, 0.18163578, -0.85515225), (0.06533759, 0.05330906, -0.9964383), (0.24623647, 0.49244258, -0.83478624), (0.4855134, 0.18163578, -0.85515225), (0.06533759, 0.05330906, -0.9964383), (0.021527229, 0.3804233, -0.9245619), (0.24623647, 0.49244258, -0.83478624), (0.06533759, 0.05330906, -0.9964383), (0.4855134, 0.18163578, -0.85515225), (0.44716632, 0.013959712, -0.89434195), (-3.9351517e-7, 0.0535681, -0.99856424), (0.021527229, 0.3804233, -0.9245619), (0.06533759, 0.05330906, -0.9964383), (0.021527229, 0.3804233, -0.9245619), (-3.9351517e-7, 0.0535681, -0.99856424), (-5.930603e-7, 0.37891614, -0.92543113), (0.44716632, 0.013959712, -0.89434195), (0.12689185, 6.0662813e-7, -0.9919166), (0.06533759, 0.05330906, -0.9964383), (0.44716632, 0.013959712, -0.89434195), (0.53664166, 0.0000013840819, -0.84381026), (0.12689185, 6.0662813e-7, -0.9919166), (0.06533759, 0.05330906, -0.9964383), (-9.568342e-13, 9.768956e-8, -1), (-3.9351517e-7, 0.0535681, -0.99856424), (-9.568342e-13, 9.768956e-8, -1), (0.06533759, 0.05330906, -0.9964383), (0.12689185, 6.0662813e-7, -0.9919166), (0.89451665, -0.000003854943, -0.4470346), (0.53664166, 0.0000013840819, -0.84381026), (0.8944212, 0.000008645992, -0.4472256), (0.53664166, 0.0000013840819, -0.84381026), (0.89451665, -0.000003854943, -0.4470346), (0.35944137, -0.000002645032, -0.93316764), (0.35944137, -0.000002645032, -0.93316764), (0.12689185, 6.0662813e-7, -0.9919166), (0.53664166, 0.0000013840819, -0.84381026), (0.847444, -0.05793654, -0.527714), (0.35944137, -0.000002645032, -0.93316764), (0.89451665, -0.000003854943, -0.4470346), (0.35944137, -0.000002645032, -0.93316764), (0.847444, -0.05793654, -0.527714), (0.3752055, -0.016960671, -0.9267865), (0.12689185, 6.0662813e-7, -0.9919166), (0.35944137, -0.000002645032, -0.93316764), (0.061560716, -5.011717e-7, -0.99810344), (0.35944137, -0.000002645032, -0.93316764), (0.3752055, -0.016960671, -0.9267865), (0.061560716, -5.011717e-7, -0.99810344), (0.061560716, -5.011717e-7, -0.99810344), (-9.568342e-13, 9.768956e-8, -1), (0.12689185, 6.0662813e-7, -0.9919166), (0.3752055, -0.016960671, -0.9267865), (0.06538097, -0.05335751, -0.9964329), (0.061560716, -5.011717e-7, -0.99810344), (0.06538097, -0.05335751, -0.9964329), (0.3752055, -0.016960671, -0.9267865), (0.48541674, -0.18163162, -0.855208), (-9.568342e-13, 9.768956e-8, -1), (0.061560716, -5.011717e-7, -0.99810344), (-5.663857e-13, 9.780692e-8, -1), (0.06538097, -0.05335751, -0.9964329), (-5.663857e-13, 9.780692e-8, -1), (0.061560716, -5.011717e-7, -0.99810344), (0.06538097, -0.05335751, -0.9964329), (0.48541674, -0.18163162, -0.855208), (0.24616721, -0.49239534, -0.8348345), (0.8121748, -0.42801735, -0.39645082), (0.24616721, -0.49239534, -0.8348345), (0.48541674, -0.18163162, -0.855208), (0.24616721, -0.49239534, -0.8348345), (0.8121748, -0.42801735, -0.39645082), (0.34719113, -0.8500386, -0.39609697), (0.06538097, -0.05335751, -0.9964329), (0.24616721, -0.49239534, -0.8348345), (0.021517994, -0.38043815, -0.92455614), (0.021517994, -0.38043815, -0.92455614), (3.9384273e-7, -0.05361134, -0.99856186), (0.06538097, -0.05335751, -0.9964329), (-5.663857e-13, 9.780692e-8, -1), (0.06538097, -0.05335751, -0.9964329), (3.9384273e-7, -0.05361134, -0.99856186), (3.9384273e-7, -0.05361134, -0.99856186), (0.021517994, -0.38043815, -0.92455614), (5.935644e-7, -0.37895134, -0.9254167), (0.070338964, -0.8481204, -0.5251137), (5.935644e-7, -0.37895134, -0.9254167), (0.021517994, -0.38043815, -0.92455614), (5.935644e-7, -0.37895134, -0.9254167), (0.070338964, -0.8481204, -0.5251137), (0.0000033305323, -0.8563502, -0.5163956), (3.9384273e-7, -0.05361134, -0.99856186), (0, 9.7491736e-8, -1), (-5.663857e-13, 9.780692e-8, -1), (0.0000033305323, -0.8563502, -0.5163956), (0.0000012488102, -0.51633227, -0.85638845), (5.935644e-7, -0.37895134, -0.9254167), (0.0000012488102, -0.51633227, -0.85638845), (0.0000033305323, -0.8563502, -0.5163956), (0.000003164562, -0.9254126, -0.3789613), (5.935644e-7, -0.37895134, -0.9254167), (4.4260898e-7, -0.10190836, -0.9947938), (3.9384273e-7, -0.05361134, -0.99856186), (4.4260898e-7, -0.10190836, -0.9947938), (5.935644e-7, -0.37895134, -0.9254167), (0.0000012488102, -0.51633227, -0.85638845), (0, 9.7491736e-8, -1), (3.9384273e-7, -0.05361134, -0.99856186), (4.4260898e-7, -0.10190836, -0.9947938), (0.000003164562, -0.9254126, -0.3789613), (-0.096229374, -0.5310965, -0.8418292), (0.0000012488102, -0.51633227, -0.85638845), (-0.096229374, -0.5310965, -0.8418292), (0.000003164562, -0.9254126, -0.3789613), (-0.07563651, -0.91754514, -0.39037168), (-0.11025019, -0.08913993, -0.9898985), (0.0000012488102, -0.51633227, -0.85638845), (-0.096229374, -0.5310965, -0.8418292), (0.0000012488102, -0.51633227, -0.85638845), (-0.11025019, -0.08913993, -0.9898985), (4.4260898e-7, -0.10190836, -0.9947938), (-0.39637026, -0.34652513, -0.850183), (-0.11025019, -0.08913993, -0.9898985), (-0.096229374, -0.5310965, -0.8418292), (-0.11025019, -0.08913993, -0.9898985), (-0.39637026, -0.34652513, -0.850183), (-0.5277244, -0.055230144, -0.8476182), (-0.11025019, -0.08913993, -0.9898985), (-0.5277244, -0.055230144, -0.8476182), (-0.35891658, 0.0000017184327, -0.93336976), (-0.0935043, 5.648202e-7, -0.9956189), (4.4260898e-7, -0.10190836, -0.9947938), (-0.11025019, -0.08913993, -0.9898985), (-0.0935043, 5.648202e-7, -0.9956189), (-0.11025019, -0.08913993, -0.9898985), (-0.35891658, 0.0000017184327, -0.93336976), (4.4260898e-7, -0.10190836, -0.9947938), (-0.0935043, 5.648202e-7, -0.9956189), (0, 9.7491736e-8, -1), (-0.35891658, 0.0000017184327, -0.93336976), (-0.093541816, -1.8207173e-7, -0.9956154), (-0.0935043, 5.648202e-7, -0.9956189), (-0.093541816, -1.8207173e-7, -0.9956154), (0, 9.7491736e-8, -1), (-0.0935043, 5.648202e-7, -0.9956189), (-0.093541816, -1.8207173e-7, -0.9956154), (-0.35891658, 0.0000017184327, -0.93336976), (-0.53633964, -0.0000018587224, -0.84400225), (-5.6571864e-13, 9.768957e-8, -1), (-5.663857e-13, 9.780692e-8, -1), (0, 9.7491736e-8, -1), (0, 9.7491736e-8, -1), (-0.093541816, -1.8207173e-7, -0.9956154), (-5.6571864e-13, 9.768957e-8, -1), (-5.663857e-13, 9.780692e-8, -1), (-5.6571864e-13, 9.768957e-8, -1), (-9.568342e-13, 9.768956e-8, -1), (-5.6571864e-13, 9.768957e-8, -1), (-3.9351517e-7, 0.0535681, -0.99856424), (-9.568342e-13, 9.768956e-8, -1), (-3.9351517e-7, 0.0535681, -0.99856424), (-5.6571864e-13, 9.768957e-8, -1), (-4.4225038e-7, 0.1018243, -0.9948024), (-0.093541816, -1.8207173e-7, -0.9956154), (-4.4225038e-7, 0.1018243, -0.9948024), (-5.6571864e-13, 9.768957e-8, -1), (-4.4225038e-7, 0.1018243, -0.9948024), (-5.930603e-7, 0.37891614, -0.92543113), (-3.9351517e-7, 0.0535681, -0.99856424), (-5.930603e-7, 0.37891614, -0.92543113), (-4.4225038e-7, 0.1018243, -0.9948024), (-0.0000018737295, 0.5163731, -0.8563637), (-4.4225038e-7, 0.1018243, -0.9948024), (-0.093541816, -1.8207173e-7, -0.9956154), (-0.1101916, 0.08910419, -0.9899082), (-0.1101916, 0.08910419, -0.9899082), (-0.0000018737295, 0.5163731, -0.8563637), (-4.4225038e-7, 0.1018243, -0.9948024), (-0.1101916, 0.08910419, -0.9899082), (-0.093541816, -1.8207173e-7, -0.9956154), (-0.53633964, -0.0000018587224, -0.84400225), (-0.0000018737295, 0.5163731, -0.8563637), (-0.1101916, 0.08910419, -0.9899082), (-0.096287, 0.53113717, -0.841797), (-0.1101916, 0.08910419, -0.9899082), (-0.53633964, -0.0000018587224, -0.84400225), (-0.5277805, 0.05528289, -0.84757996), (-0.1101916, 0.08910419, -0.9899082), (-0.43131876, 0.3644782, -0.82529986), (-0.096287, 0.53113717, -0.841797), (-0.43131876, 0.3644782, -0.82529986), (-0.1101916, 0.08910419, -0.9899082), (-0.5277805, 0.05528289, -0.84757996), (-0.5277299, -0.05529161, 0.84761065), (-0.85565555, -0.1788339, 0.4856666), (-0.43130508, -0.36443305, 0.82532704), (-0.85565555, -0.1788339, 0.4856666), (-0.5277299, -0.05529161, 0.84761065), (-0.9268201, -0.014700104, 0.37521788), (-0.84370315, 0.0000044559556, 0.53681004), (-0.9268201, -0.014700104, 0.37521788), (-0.5277299, -0.05529161, 0.84761065), (-0.5277299, -0.05529161, 0.84761065), (-0.44675505, 0.0000028499708, 0.89465636), (-0.84370315, 0.0000044559556, 0.53681004), (-0.8353325, -0.24466121, -0.4923014), (-0.5277244, -0.055230144, -0.8476182), (-0.39637026, -0.34652513, -0.850183), (-0.5277244, -0.055230144, -0.8476182), (-0.8353325, -0.24466121, -0.4923014), (-0.92679846, -0.01463629, -0.375274), (-0.8436793, 0.00000423376, -0.5368475), (-0.5277244, -0.055230144, -0.8476182), (-0.92679846, -0.01463629, -0.375274), (-0.35891658, 0.0000017184327, -0.93336976), (-0.5277244, -0.055230144, -0.8476182), (-0.8436793, 0.00000423376, -0.5368475), (0.893505, -0.44905326, 9.00755e-8), (0.53129756, -0.84207964, -0.09286991), (0.9174947, -0.3910869, -0.072487794), (0.53129756, -0.84207964, -0.09286991), (0.893505, -0.44905326, 9.00755e-8), (0.4471673, -0.8944503, 1.5688966e-7), (0.8935005, -0.4490622, 4.0892605e-8), (0.4471673, -0.8944503, 1.5688966e-7), (0.893505, -0.44905326, 9.00755e-8), (0.8935005, -0.4490622, 4.0892605e-8), (0.9174346, -0.39123377, 0.07245692), (0.5313728, -0.8420354, 0.09284072), (0.8935005, -0.4490622, 4.0892605e-8), (0.5313728, -0.8420354, 0.09284072), (0.44715178, -0.8944581, 1.5182917e-7), (0.4471673, -0.8944503, 1.5688966e-7), (0.8935005, -0.4490622, 4.0892605e-8), (0.44715178, -0.8944581, 1.5182917e-7), (0.5313728, -0.8420354, 0.09284072), (0.092046514, -0.9917884, 0.08878834), (0.44715178, -0.8944581, 1.5182917e-7), (0.5313728, -0.8420354, 0.09284072), (0.34726602, -0.8500141, 0.39608383), (0.092046514, -0.9917884, 0.08878834), (0.34726602, -0.8500141, 0.39608383), (0.07035923, -0.84811485, 0.52511996), (0.092046514, -0.9917884, 0.08878834), (-0.00000686939, -0.85637504, 0.5163545), (0.092046514, -0.9917884, 0.08878834), (0.07035923, -0.84811485, 0.52511996), (0.12695901, -0.99190795, 1.7928683e-7), (0.4471673, -0.8944503, 1.5688966e-7), (0.44715178, -0.8944581, 1.5182917e-7), (0.44715178, -0.8944581, 1.5182917e-7), (0.092046514, -0.9917884, 0.08878834), (0.12695901, -0.99190795, 1.7928683e-7), (0.092046514, -0.9917884, 0.08878834), (-0.00000686939, -0.85637504, 0.5163545), (0.0000033387294, -0.9926201, 0.12126529), (-0.000003362242, -0.92542607, 0.3789284), (0.0000033387294, -0.9926201, 0.12126529), (-0.00000686939, -0.85637504, 0.5163545), (0.092046514, -0.9917884, 0.08878834), (0.0000073472024, -1, 2.0058216e-7), (0.12695901, -0.99190795, 1.7928683e-7), (0.0000073472024, -1, 2.0058216e-7), (0.092046514, -0.9917884, 0.08878834), (0.0000033387294, -0.9926201, 0.12126529), (0.0000033387294, -0.9926201, 0.12126529), (-0.000003362242, -0.92542607, 0.3789284), (0.000006666263, -0.9979966, 0.063268095), (0.000006666263, -0.9979966, 0.063268095), (0.0000073472024, -1, 2.0058216e-7), (0.0000033387294, -0.9926201, 0.12126529), (-0.07564162, -0.91754603, 0.39036855), (0.000006666263, -0.9979966, 0.063268095), (-0.000003362242, -0.92542607, 0.3789284), (0.0000073472024, -1, 2.0058216e-7), (0.06139618, -0.99811345, 1.9066239e-7), (0.12695901, -0.99190795, 1.7928683e-7), (0.4471673, -0.8944503, 1.5688966e-7), (0.12695901, -0.99190795, 1.7928683e-7), (0.06139618, -0.99811345, 1.9066239e-7), (0.000006666263, -0.9979966, 0.063268095), (-0.07564162, -0.91754603, 0.39036855), (-0.12530188, -0.98820555, 0.088030204), (-0.12530188, -0.98820555, 0.088030204), (-0.07564162, -0.91754603, 0.39036855), (-0.36552486, -0.8324303, 0.41647518), (-0.12530188, -0.98820555, 0.088030204), (-0.36552486, -0.8324303, 0.41647518), (-0.5260084, -0.84778106, 0.067694865), (-0.44747448, -0.8942968, 2.2948235e-7), (-0.12530188, -0.98820555, 0.088030204), (-0.5260084, -0.84778106, 0.067694865), (0.000006666263, -0.9979966, 0.063268095), (-0.12530188, -0.98820555, 0.088030204), (-0.061381992, -0.99811435, 1.6380157e-7), (-0.12530188, -0.98820555, 0.088030204), (-0.44747448, -0.8942968, 2.2948235e-7), (-0.061381992, -0.99811435, 1.6380157e-7), (0.0000073472024, -1, 2.0058216e-7), (0.000006666263, -0.9979966, 0.063268095), (0.0000043446457, -1, 1.7618521e-7), (0.0000043446457, -1, 1.7618521e-7), (0.000006666263, -0.9979966, 0.063268095), (-0.061381992, -0.99811435, 1.6380157e-7), (0.0000043446457, -1, 1.7618521e-7), (0.000004340017, -1, 1.7893673e-7), (0.0000073472024, -1, 2.0058216e-7), (0.06139618, -0.99811345, 1.9066239e-7), (0.0000073472024, -1, 2.0058216e-7), (0.000004340017, -1, 1.7893673e-7), (1.5122765e-12, -1, 1.543906e-7), (0.0000043446457, -1, 1.7618521e-7), (-0.061381992, -0.99811435, 1.6380157e-7), (0.000004340017, -1, 1.7893673e-7), (0.0000043446457, -1, 1.7618521e-7), (1.5122765e-12, -1, 1.543906e-7), (-0.1268814, -0.99191797, 1.8788737e-7), (-0.061381992, -0.99811435, 1.6380157e-7), (-0.44747448, -0.8942968, 2.2948235e-7), (1.5122765e-12, -1, 1.543906e-7), (-0.061381992, -0.99811435, 1.6380157e-7), (-0.1268814, -0.99191797, 1.8788737e-7), (-0.1268814, -0.99191797, 1.8788737e-7), (-0.44747448, -0.8942968, 2.2948235e-7), (-0.44742814, -0.8943199, 2.500871e-7), (0, -0.9979981, -0.0632435), (1.5122765e-12, -1, 1.543906e-7), (-0.1268814, -0.99191797, 1.8788737e-7), (0, -0.9979981, -0.0632435), (0.000004340017, -1, 1.7893673e-7), (1.5122765e-12, -1, 1.543906e-7), (-0.12526596, -0.98821115, -0.08801765), (-0.1268814, -0.99191797, 1.8788737e-7), (-0.44742814, -0.8943199, 2.500871e-7), (0, -0.9979981, -0.0632435), (-0.1268814, -0.99191797, 1.8788737e-7), (-0.12526596, -0.98821115, -0.08801765), (-0.12526596, -0.98821115, -0.08801765), (-0.44742814, -0.8943199, 2.500871e-7), (-0.52603024, -0.84776473, -0.06772875), (-0.3970272, -0.8126339, -0.42660952), (-0.12526596, -0.98821115, -0.08801765), (-0.52603024, -0.84776473, -0.06772875), (-0.12526596, -0.98821115, -0.08801765), (-0.3970272, -0.8126339, -0.42660952), (-0.07563651, -0.91754514, -0.39037168), (-0.07563651, -0.91754514, -0.39037168), (0, -0.9979981, -0.0632435), (-0.12526596, -0.98821115, -0.08801765), (0, -0.9979981, -0.0632435), (-0.07563651, -0.91754514, -0.39037168), (0.000003164562, -0.9254126, -0.3789613), (0.000003164562, -0.9254126, -0.3789613), (0.0000017555145, -0.9926209, -0.12125946), (0, -0.9979981, -0.0632435), (0.000004340017, -1, 1.7893673e-7), (0, -0.9979981, -0.0632435), (0.0000017555145, -0.9926209, -0.12125946), (0.0000017555145, -0.9926209, -0.12125946), (0.000003164562, -0.9254126, -0.3789613), (0.0000033305323, -0.8563502, -0.5163956), (0.09205095, -0.99178684, -0.08880113), (0.000004340017, -1, 1.7893673e-7), (0.0000017555145, -0.9926209, -0.12125946), (0.0000033305323, -0.8563502, -0.5163956), (0.09205095, -0.99178684, -0.08880113), (0.0000017555145, -0.9926209, -0.12125946), (0.000004340017, -1, 1.7893673e-7), (0.09205095, -0.99178684, -0.08880113), (0.06139618, -0.99811345, 1.9066239e-7), (0.09205095, -0.99178684, -0.08880113), (0.0000033305323, -0.8563502, -0.5163956), (0.070338964, -0.8481204, -0.5251137), (0.09205095, -0.99178684, -0.08880113), (0.4471673, -0.8944503, 1.5688966e-7), (0.06139618, -0.99811345, 1.9066239e-7), (0.34719113, -0.8500386, -0.39609697), (0.09205095, -0.99178684, -0.08880113), (0.070338964, -0.8481204, -0.5251137), (0.4471673, -0.8944503, 1.5688966e-7), (0.09205095, -0.99178684, -0.08880113), (0.53129756, -0.84207964, -0.09286991), (0.53129756, -0.84207964, -0.09286991), (0.09205095, -0.99178684, -0.08880113), (0.34719113, -0.8500386, -0.39609697), (0.99306744, 0.062289964, 0.09968493), (0.8122111, 0.4280197, 0.39637393), (0.8474723, 0.057924874, 0.5276698), (0.8122111, 0.4280197, 0.39637393), (0.99306744, 0.062289964, 0.09968493), (0.91745955, 0.39115927, 0.0725425), (0.9333333, 0.0000042328406, 0.3590112), (0.99306744, 0.062289964, 0.09968493), (0.8474723, 0.057924874, 0.5276698), (0.99366194, 0.11240987, -1.771986e-7), (0.91745955, 0.39115927, 0.0725425), (0.99306744, 0.062289964, 0.09968493), (0.9333333, 0.0000042328406, 0.3590112), (0.998274, 0.0000028504694, 0.05872926), (0.99306744, 0.062289964, 0.09968493), (0.91745955, 0.39115927, 0.0725425), (0.99366194, 0.11240987, -1.771986e-7), (0.89347434, 0.44911432, -2.1757407e-7), (0.9333333, 0.0000042328406, 0.3590112), (0.99228984, -0.0000036817896, 0.12393936), (0.998274, 0.0000028504694, 0.05872926), (0.99366194, 0.11240987, -1.771986e-7), (0.89350355, 0.44905615, -2.1424984e-7), (0.89347434, 0.44911432, -2.1757407e-7), (0.99228984, -0.0000036817896, 0.12393936), (0.9333333, 0.0000042328406, 0.3590112), (0.843872, -0.0000060452317, 0.53654474), (0.99366194, 0.11240987, -1.771986e-7), (0.9987853, 0.04927354, -1.6718487e-7), (0.89350355, 0.44905615, -2.1424984e-7), (0.843872, -0.0000060452317, 0.53654474), (0.99306434, -0.062351625, 0.0996779), (0.99228984, -0.0000036817896, 0.12393936), (0.9987853, 0.04927354, -1.6718487e-7), (0.9174698, 0.391136, -0.07253864), (0.89350355, 0.44905615, -2.1424984e-7), (0.99306434, -0.062351625, 0.0996779), (0.843872, -0.0000060452317, 0.53654474), (0.8781291, -0.07308577, 0.47280857), (0.9930677, 0.062287968, -0.099683434), (0.9174698, 0.391136, -0.07253864), (0.9987853, 0.04927354, -1.6718487e-7), (0.81219304, -0.4280691, 0.39635757), (0.99306434, -0.062351625, 0.0996779), (0.8781291, -0.07308577, 0.47280857), (0.9930677, 0.062287968, -0.099683434), (0.8122033, 0.42801425, -0.39639586), (0.9174698, 0.391136, -0.07253864), (0.99306434, -0.062351625, 0.0996779), (0.81219304, -0.4280691, 0.39635757), (0.9174346, -0.39123377, 0.07245692), (0.8122033, 0.42801425, -0.39639586), (0.9930677, 0.062287968, -0.099683434), (0.8780992, 0.07307947, -0.472865), (0.9174346, -0.39123377, 0.07245692), (0.9987805, -0.049371142, -1.4766815e-7), (0.99306434, -0.062351625, 0.0996779), (0.8944212, 0.000008645992, -0.4472256), (0.8780992, 0.07307947, -0.472865), (0.9930677, 0.062287968, -0.099683434), (0.9174346, -0.39123377, 0.07245692), (0.8935005, -0.4490622, 4.0892605e-8), (0.9987805, -0.049371142, -1.4766815e-7), (0.99590224, 0.0000021821886, -0.09043611), (0.8944212, 0.000008645992, -0.4472256), (0.9930677, 0.062287968, -0.099683434), (0.8935005, -0.4490622, 4.0892605e-8), (0.9936573, -0.112450704, -9.078928e-8), (0.9987805, -0.049371142, -1.4766815e-7), (0.99590224, 0.0000021821886, -0.09043611), (0.89451665, -0.000003854943, -0.4470346), (0.8944212, 0.000008645992, -0.4472256), (0.9936573, -0.112450704, -9.078928e-8), (0.8935005, -0.4490622, 4.0892605e-8), (0.893505, -0.44905326, 9.00755e-8), (0.89451665, -0.000003854943, -0.4470346), (0.99590224, 0.0000021821886, -0.09043611), (0.99590516, -0.0000052381442, -0.09040431), (0.893505, -0.44905326, 9.00755e-8), (0.9174947, -0.3910869, -0.072487794), (0.9936573, -0.112450704, -9.078928e-8), (0.9930705, -0.06230616, -0.09964399), (0.89451665, -0.000003854943, -0.4470346), (0.99590516, -0.0000052381442, -0.09040431), (0.9174947, -0.3910869, -0.072487794), (0.9930705, -0.06230616, -0.09964399), (0.9936573, -0.112450704, -9.078928e-8), (0.847444, -0.05793654, -0.527714), (0.89451665, -0.000003854943, -0.4470346), (0.9930705, -0.06230616, -0.09964399), (0.8121748, -0.42801735, -0.39645082), (0.9930705, -0.06230616, -0.09964399), (0.9174947, -0.3910869, -0.072487794), (0.9930705, -0.06230616, -0.09964399), (0.8121748, -0.42801735, -0.39645082), (0.847444, -0.05793654, -0.527714), (1, 0.0000021318647, -1.5805303e-7), (1, -0.000002756344, -1.579968e-7), (1, -0.000010215968, -1.5764616e-7), (1, -0.000002756344, -1.579968e-7), (1, 0.0000021318647, -1.5805303e-7), (1, 0.000009225956, -1.5824082e-7), (-1, -0.0000017534412, 1.9761639e-7), (-1, 0.000003129984, 1.9749872e-7), (-1, -0.000008976531, 2.3712818e-7), (-1, 0.000003129984, 1.9749872e-7), (-1, -0.0000017534412, 1.9761639e-7), (-1, 0.000010467468, 1.5775673e-7), (-0.9943671, 0.06735727, -0.08183578), (-0.99589944, -0.000009062094, -0.090467624), (-0.9989584, 0.04563028, 1.8257468e-7), (-0.9989584, 0.04563028, 1.8257468e-7), (-0.99589944, -0.000009062094, -0.090467624), (-1, -0.0000017534412, 1.9761639e-7), (-0.9958969, 0.0000053699296, -0.09049554), (-1, -0.0000017534412, 1.9761639e-7), (-0.99589944, -0.000009062094, -0.090467624), (-1, -0.000008976531, 2.3712818e-7), (-0.9989584, 0.04563028, 1.8257468e-7), (-1, -0.0000017534412, 1.9761639e-7), (-0.9989584, 0.04563028, 1.8257468e-7), (-1, -0.000008976531, 2.3712818e-7), (-0.994114, 0.10833933, 1.4379464e-7), (-1, -0.0000017534412, 1.9761639e-7), (-0.9958969, 0.0000053699296, -0.09049554), (-1, 0.000010467468, 1.5775673e-7), (-1, -0.000008976531, 2.3712818e-7), (-0.9967051, 0.051287286, 0.062838785), (-0.994114, 0.10833933, 1.4379464e-7), (-0.9967051, 0.051287286, 0.062838785), (-1, -0.000008976531, 2.3712818e-7), (-0.9982694, -0.0000039430042, 0.058807313), (-1, -0.000008976531, 2.3712818e-7), (-1, 0.000003129984, 1.9749872e-7), (-0.9982694, -0.0000039430042, 0.058807313), (-0.9982694, -0.0000039430042, 0.058807313), (-1, 0.000003129984, 1.9749872e-7), (-0.9923097, 0.0000074247273, 0.123780504), (-0.9958969, 0.0000053699296, -0.09049554), (-0.994355, -0.06736548, -0.08197587), (-0.9941013, -0.10845565, 1.7469922e-7), (-1, 0.000010467468, 1.5775673e-7), (-0.9958969, 0.0000053699296, -0.09049554), (-0.9941013, -0.10845565, 1.7469922e-7), (-0.998957, -0.045661964, 1.6562302e-7), (-1, 0.000010467468, 1.5775673e-7), (-0.9941013, -0.10845565, 1.7469922e-7), (-1, 0.000010467468, 1.5775673e-7), (-0.998957, -0.045661964, 1.6562302e-7), (-1, 0.000003129984, 1.9749872e-7), (-0.9923097, 0.0000074247273, 0.123780504), (-1, 0.000003129984, 1.9749872e-7), (-0.998957, -0.045661964, 1.6562302e-7), (-0.9923097, 0.0000074247273, 0.123780504), (-0.998957, -0.045661964, 1.6562302e-7), (-0.99435943, -0.067366906, 0.08192062), (0.99306744, 0.062289964, 0.09968493), (1, 0.000009225956, -1.5824082e-7), (0.99366194, 0.11240987, -1.771986e-7), (1, 0.000009225956, -1.5824082e-7), (0.99306744, 0.062289964, 0.09968493), (0.998274, 0.0000028504694, 0.05872926), (1, 0.000009225956, -1.5824082e-7), (0.9987853, 0.04927354, -1.6718487e-7), (0.99366194, 0.11240987, -1.771986e-7), (1, -0.000002756344, -1.579968e-7), (1, 0.000009225956, -1.5824082e-7), (0.998274, 0.0000028504694, 0.05872926), (0.9987853, 0.04927354, -1.6718487e-7), (1, 0.000009225956, -1.5824082e-7), (1, 0.0000021318647, -1.5805303e-7), (0.998274, 0.0000028504694, 0.05872926), (0.99228984, -0.0000036817896, 0.12393936), (1, -0.000002756344, -1.579968e-7), (1, 0.0000021318647, -1.5805303e-7), (0.9930677, 0.062287968, -0.099683434), (0.9987853, 0.04927354, -1.6718487e-7), (0.99306434, -0.062351625, 0.0996779), (1, -0.000002756344, -1.579968e-7), (0.99228984, -0.0000036817896, 0.12393936), (0.99590224, 0.0000021821886, -0.09043611), (0.9930677, 0.062287968, -0.099683434), (1, 0.0000021318647, -1.5805303e-7), (0.99306434, -0.062351625, 0.0996779), (0.9987805, -0.049371142, -1.4766815e-7), (1, -0.000002756344, -1.579968e-7), (1, -0.000010215968, -1.5764616e-7), (0.99590224, 0.0000021821886, -0.09043611), (1, 0.0000021318647, -1.5805303e-7), (0.9987805, -0.049371142, -1.4766815e-7), (1, -0.000010215968, -1.5764616e-7), (1, -0.000002756344, -1.579968e-7), (0.99590516, -0.0000052381442, -0.09040431), (0.99590224, 0.0000021821886, -0.09043611), (1, -0.000010215968, -1.5764616e-7), (0.9987805, -0.049371142, -1.4766815e-7), (0.9936573, -0.112450704, -9.078928e-8), (1, -0.000010215968, -1.5764616e-7), (0.9930705, -0.06230616, -0.09964399), (0.99590516, -0.0000052381442, -0.09040431), (1, -0.000010215968, -1.5764616e-7), (0.9936573, -0.112450704, -9.078928e-8), (0.9930705, -0.06230616, -0.09964399), (1, -0.000010215968, -1.5764616e-7)] (
        interpolation = "faceVarying"
    )
    point3f[] points = [(-0.003600774, 0.153774, 0.48344216), (-0.0030448965, 0.15353943, 0.48383707), (-0.0030454304, 0.15387276, 0.48350376), (-0.0036003164, 0.15347771, 0.48373842), (-0.00393334, 0.15329258, 0.48344216), (-0.0035994772, 0.15298395, 0.48383707), (-0.0039328057, 0.15298395, 0.48350376), (-0.0039312798, 0.15208851, 0.48350376), (-0.0035980276, 0.15208851, 0.48383707), (-0.0036009266, 0.15387276, 0.48294824), (-0.0039335685, 0.15347771, 0.4832569), (-0.003933721, 0.15353943, 0.48294824), (0.0039301245, 0.15298401, 0.48350376), (0.0035341592, 0.15329258, 0.48383707), (0.0035967964, 0.15298401, 0.48383707), (0.0038297982, 0.15347777, 0.48350376), (0.003928446, 0.15353948, 0.48294824), (0.003594584, 0.15387276, 0.48294824), (0.0035331673, 0.15377404, 0.48350376), (0.0030398506, 0.15387276, 0.48350376), (0.0033486886, 0.15347777, 0.48383707), (0.0030403847, 0.15353948, 0.48383707), (-0.003933492, 0.15329242, -0.4834413), (-0.003599706, 0.15298378, -0.48383638), (-0.003932958, 0.15298378, -0.483503), (-0.0036004689, 0.1534776, -0.48373756), (-0.0030451254, 0.15353931, -0.48383638), (-0.0036009266, 0.15377386, -0.4834413), (-0.0030455831, 0.1538726, -0.483503), (-0.0036011557, 0.1538726, -0.4829476), (-0.003933721, 0.1534776, -0.48325616), (-0.0039338735, 0.15353931, -0.4829476), (0.0039299717, 0.15298383, -0.483503), (0.0035340067, 0.15329245, -0.48383638), (0.0038296457, 0.1534776, -0.483503), (0.0035965675, 0.15298383, -0.48383638), (0.0035330148, 0.15377386, -0.483503), (0.0035944313, 0.15387264, -0.4829476), (0.0039282935, 0.15353931, -0.4829476), (0.003348536, 0.1534776, -0.48383638), (0.0030396981, 0.15387264, -0.483503), (0.0030402322, 0.15353931, -0.48383638), (0.0035980935, 0.1520885, -0.48383638), (0.0039314213, 0.1520885, -0.483503), (-0.0030449727, -0.15353858, 0.4838371), (-0.0036009266, -0.15377314, 0.483442), (-0.0030455831, -0.15387186, 0.48350382), (-0.0036005452, -0.1534769, 0.48373827), (-0.0036010793, -0.15387186, 0.48294827), (-0.0039337976, -0.1534769, 0.48325685), (-0.0039337976, -0.15353858, 0.48294827), (0.0035329384, -0.1537731, 0.4835039), (0.0035943552, -0.15387186, 0.4829484), (0.0038297218, -0.15347682, 0.4835039), (0.003928217, -0.15353854, 0.4829484), (0.003348536, -0.15347682, 0.4838372), (0.0030396217, -0.15387186, 0.4835039), (0.0030402322, -0.15353854, 0.4838372), (-0.0030451254, -0.15353873, -0.48383632), (-0.0036010793, -0.1537733, -0.48344135), (-0.0036005452, -0.15347704, -0.48373762), (-0.0030457356, -0.15387206, -0.48350307), (-0.00393395, -0.15353873, -0.48294756), (-0.0039338735, -0.15347704, -0.48325613), (-0.0036012318, -0.15387206, -0.48294756), (0.0039298194, -0.15298328, -0.48350307), (0.003533854, -0.15329184, -0.48383632), (0.0035965675, -0.15298328, -0.48383632), (0.0038296457, -0.15347704, -0.48350307), (0.003928217, -0.15353873, -0.48294756), (0.0035943552, -0.15387203, -0.48294756), (0.003532786, -0.1537733, -0.48350307), (0.0030394692, -0.15387203, -0.48350307), (0.0033483834, -0.15347704, -0.48383632), (0.0030400795, -0.15353873, -0.48383632), (0.0039299717, -0.15298308, 0.4835039), (0.0035339303, -0.15329169, 0.4838372), (0.0035967203, -0.15298308, 0.4838372), (0.0039314213, -0.15208772, 0.4835039), (0.00359817, -0.15208772, 0.4838372), (-0.0040438133, 0.15298395, 0.48294824), (-0.0040422874, 0.15208851, 0.48294824), (-0.0040438133, 0.15298395, 0.48228094), (-0.0040425165, -0.15208767, 0.48294827), (-0.003933721, 0.15353943, 0.48228094), (-0.0036009266, 0.15387276, 0.48228094), (-0.0036011557, 0.1538726, -0.48228016), (-0.0039338735, 0.15353931, -0.48228016), (-0.004043966, 0.15298383, -0.48228016), (-0.004043966, 0.15298383, -0.4829476), (-0.0040425165, 0.1520884, -0.4829476), (-0.0039314325, 0.1520884, -0.483503), (-0.0040426687, -0.15208782, -0.48294756), (-0.0035981801, 0.1520884, -0.48383638), (-0.0039315084, -0.15208782, -0.48350307), (-0.0035982565, -0.15208782, -0.48383632), (-0.003932958, -0.15298328, -0.48350307), (-0.0040441947, -0.15298328, -0.48294756), (-0.0039335685, -0.15329188, -0.48344135), (-0.0040441947, -0.15298328, -0.48228014), (-0.00393395, -0.15353873, -0.48228014), (-0.0036012318, -0.15387206, -0.48228014), (-0.0036010793, -0.15387186, 0.48228085), (-0.0039337976, -0.15353858, 0.48228085), (-0.004044042, -0.15298311, 0.48228085), (-0.004044042, -0.15298311, 0.48294827), (-0.0039334157, -0.15329169, 0.483442), (-0.003932882, -0.15298308, 0.48350382), (-0.0039314325, -0.15208767, 0.48350382), (-0.0035981801, -0.15208767, 0.4838371), (0.0030413002, 0.15298395, 0.48394826), (0.0024153085, 0.15298395, 0.48394826), (0.002414393, 0.15353948, 0.48383707), (0.0030427498, 0.15208861, 0.48394826), (0.0024169106, 0.15208861, 0.48394826), (0.003598246, 0.15208861, 0.48383707), (0.003931574, 0.15208861, 0.48350376), (0.0030426737, -0.15208767, 0.48394823), (0.003041224, -0.15298308, 0.48394823), (0.0024166817, -0.15208767, 0.48394823), (0.002415156, -0.15298308, 0.48394823), (0.0024142403, -0.15353854, 0.4838372), (0.0024137825, -0.15387186, 0.4835039), (-0.0024166158, -0.15208767, 0.4839481), (-0.0024191334, -0.15353858, 0.4838371), (-0.0024196676, -0.15387186, 0.48350382), (-0.0024181418, -0.15298308, 0.4839481), (-0.0030441335, -0.15298308, 0.4839481), (-0.0035995534, -0.15298308, 0.4838371), (-0.003042684, -0.15208767, 0.4839481), (-0.003042455, 0.15208857, 0.48394826), (-0.0024165395, 0.15208857, 0.48394826), (-0.002417989, 0.15298395, 0.48394826), (-0.003043981, 0.15298395, 0.48394826), (-0.0024189046, 0.15353943, 0.48383707), (0.002413859, 0.15387276, 0.48350376), (-0.002419515, 0.15387276, 0.48350376), (0.0030396217, 0.15398388, 0.48294824), (0.003928446, 0.1535395, 0.48228094), (0.003594584, 0.15387276, 0.48228094), (0.0039282935, 0.15353931, -0.48228016), (0.0024137064, 0.15398388, 0.48294824), (-0.0024196676, 0.15398385, 0.48294824), (0.0035944313, 0.15387264, -0.48228016), (-0.0030456595, 0.15398385, 0.48294824), (-0.0030456595, 0.15398385, 0.48228094), (-0.0024196676, 0.15398385, 0.48228094), (-0.003045812, 0.15398371, -0.48228016), (-0.0024198203, 0.15398371, -0.48228016), (0.0024137064, 0.15398388, 0.48228094), (0.0024134011, 0.15398371, -0.48228016), (0.0030396217, 0.15398388, 0.48228094), (0.0030394692, 0.15398371, -0.48228016), (0.0030394692, 0.15398371, -0.4829476), (0.0024142403, 0.15353931, -0.48383638), (0.00241363, 0.15387264, -0.483503), (-0.0024190573, 0.15353931, -0.48383638), (0.0024134011, 0.15398371, -0.4829476), (-0.0024196676, 0.1538726, -0.483503), (-0.0024198203, 0.15398371, -0.4829476), (-0.003045812, 0.15398371, -0.4829476), (0.0030411477, 0.15298383, -0.48394743), (0.002415156, 0.15298383, -0.48394743), (0.0030425973, 0.15208843, -0.48394743), (0.002416758, 0.15208843, -0.48394743), (0.0039314213, -0.15208788, -0.48350307), (0.0035980172, -0.15208788, -0.48383632), (0.0030425973, -0.15208788, -0.48394746), (0.0030410714, -0.15298323, -0.48394746), (0.0024165292, -0.15208788, -0.48394746), (0.0024150796, -0.15298323, -0.48394746), (0.0024142403, -0.15353873, -0.48383632), (0.00241363, -0.15387203, -0.48350307), (-0.0024167683, -0.15208788, -0.48394746), (-0.0024192862, -0.15353873, -0.48383632), (-0.002419744, -0.15387206, -0.48350307), (-0.0024182943, -0.15298328, -0.48394746), (-0.0030441335, -0.15298328, -0.48394746), (-0.003599706, -0.15298328, -0.48383632), (-0.003042684, -0.15208788, -0.48394746), (-0.0030426076, 0.1520884, -0.48394743), (-0.0024167683, 0.1520884, -0.48394743), (-0.002418218, 0.15298378, -0.48394743), (-0.0030441335, 0.15298378, -0.48394743), (0.003928217, -0.15353873, -0.4822802), (0.0035943552, -0.15387203, -0.4822802), (0.003928217, -0.15353854, 0.48228106), (0.0035943552, -0.15387186, 0.48228106), (0.0030394692, -0.15398295, 0.4829484), (0.0030394692, -0.15398295, 0.48228106), (0.0024135537, -0.15398295, 0.4829484), (0.0024135537, -0.15398295, 0.48228106), (-0.0024198964, -0.153983, 0.48294827), (0.0030393167, -0.15398315, -0.4822802), (-0.0030457356, -0.153983, 0.48294827), (-0.0030457356, -0.153983, 0.48228085), (-0.0024198964, -0.153983, 0.48228085), (0.0024134011, -0.15398315, -0.4822802), (-0.0024199728, -0.15398315, -0.48228014), (-0.0030458884, -0.15398315, -0.48228014), (-0.0024199728, -0.15398315, -0.48294756), (-0.0030458884, -0.15398315, -0.48294756), (0.0024134011, -0.15398315, -0.48294756), (0.0030393167, -0.15398315, -0.48294756), (0.0040412084, 0.15298401, 0.48294824), (0.0040412084, 0.15298401, 0.48228094), (0.004042658, 0.15208861, 0.48294824), (0.0040425817, -0.15208767, 0.4829484), (0.0040410557, 0.15298383, -0.48228016), (0.0040410557, -0.15298308, 0.4829484), (0.0040410557, 0.15298383, -0.4829476), (0.0040410557, -0.15298308, 0.48228106), (0.0040425053, 0.15208843, -0.4829476), (0.0040409034, -0.15298328, -0.4822802), (0.0040424294, -0.15208788, -0.48294756), (0.0040409034, -0.15298328, -0.48294756), (0.0040425053, 0.15208843, -0.48228016), (0.0040425817, -0.15208767, 0.48228106), (0.0040424294, -0.15208788, -0.4822802), (0.004042658, 0.15208861, 0.48228094), (-0.0040425165, 0.1520884, -0.48228016), (-0.0040425165, -0.15208767, 0.48228085), (-0.0040422874, 0.15208852, 0.48228094), (-0.0040426687, -0.15208782, -0.48228014)]
}

