#usda 1.0
(
    defaultPrim = "SM_Kitchen_Island_Cover_5"
    upAxis = "Z"
)

def Mesh "SM_Kitchen_Island_Cover_5"
{
    int[] faceVertexCounts = [3, 3, 3, 3, 3, 3, 3, 3, 3, 3, 3, 3, 3, 3, 3, 3, 3, 3, 3, 3, 3, 3, 3, 3, 3, 3, 3, 3, 3, 3, 3, 3, 3, 3, 3, 3, 3, 3, 3, 3, 3, 3, 3, 3, 3, 3, 3, 3, 3, 3, 3, 3, 3, 3, 3, 3, 3, 3, 3, 3, 3, 3, 3, 3, 3, 3, 3, 3, 3, 3, 3, 3, 3, 3, 3, 3, 3, 3, 3, 3, 3, 3, 3, 3, 3, 3, 3, 3, 3, 3, 3, 3, 3, 3, 3, 3, 3, 3, 3, 3, 3, 3, 3, 3, 3, 3, 3, 3, 3, 3, 3, 3, 3, 3, 3, 3, 3, 3, 3, 3, 3, 3, 3, 3, 3, 3, 3, 3, 3, 3, 3, 3, 3, 3, 3, 3, 3, 3, 3, 3, 3, 3, 3, 3, 3, 3, 3, 3, 3, 3, 3, 3, 3, 3, 3, 3, 3, 3, 3, 3, 3, 3, 3, 3, 3, 3, 3, 3, 3, 3, 3, 3, 3, 3, 3, 3, 3, 3, 3, 3, 3, 3, 3, 3, 3, 3, 3, 3, 3, 3, 3, 3, 3, 3, 3, 3, 3, 3, 3, 3, 3, 3, 3, 3, 3, 3, 3, 3, 3, 3, 3, 3, 3, 3, 3, 3, 3, 3, 3, 3, 3, 3, 3, 3, 3, 3, 3, 3, 3, 3, 3, 3, 3, 3, 3, 3, 3, 3, 3, 3, 3, 3, 3, 3, 3, 3, 3, 3, 3, 3, 3, 3, 3, 3, 3, 3, 3, 3, 3, 3, 3, 3, 3, 3, 3, 3, 3, 3, 3, 3, 3, 3, 3, 3, 3, 3, 3, 3, 3, 3, 3, 3, 3, 3, 3, 3, 3, 3, 3, 3, 3, 3, 3, 3, 3, 3, 3, 3, 3, 3, 3, 3, 3, 3, 3, 3, 3, 3, 3, 3, 3, 3, 3, 3, 3, 3, 3, 3, 3, 3, 3, 3, 3, 3, 3, 3, 3, 3, 3, 3, 3, 3, 3, 3, 3, 3, 3, 3, 3, 3, 3, 3, 3, 3, 3, 3, 3, 3, 3, 3, 3, 3, 3, 3, 3, 3, 3, 3, 3, 3, 3, 3, 3, 3, 3, 3, 3, 3, 3, 3, 3, 3, 3, 3, 3, 3, 3, 3, 3, 3, 3, 3, 3, 3, 3, 3, 3, 3, 3, 3, 3, 3, 3, 3, 3, 3, 3, 3, 3, 3, 3, 3, 3, 3, 3, 3, 3, 3, 3, 3, 3, 3, 3, 3, 3, 3, 3, 3, 3, 3, 3, 3, 3, 3, 3, 3, 3, 3, 3, 3, 3, 3, 3, 3, 3, 3, 3, 3, 3, 3, 3, 3, 3, 3]
    int[] faceVertexIndices = [0, 1, 2, 1, 0, 3, 4, 5, 3, 5, 4, 6, 5, 7, 8, 8, 7, 9, 10, 11, 12, 11, 10, 13, 14, 15, 12, 12, 16, 14, 17, 18, 19, 18, 15, 19, 20, 21, 22, 21, 20, 23, 24, 25, 26, 25, 24, 23, 27, 25, 28, 27, 28, 29, 30, 31, 32, 31, 30, 33, 34, 32, 35, 35, 32, 36, 37, 36, 38, 37, 38, 39, 40, 41, 42, 41, 40, 43, 44, 45, 46, 45, 44, 42, 47, 48, 49, 47, 49, 45, 50, 51, 52, 51, 50, 53, 54, 55, 53, 53, 55, 56, 57, 58, 59, 59, 58, 54, 60, 58, 57, 58, 60, 61, 62, 63, 64, 63, 62, 65, 66, 67, 68, 67, 66, 65, 69, 70, 66, 70, 69, 71, 72, 73, 74, 73, 72, 75, 75, 76, 77, 77, 76, 78, 1, 3, 5, 8, 1, 5, 79, 1, 8, 79, 2, 1, 79, 8, 9, 2, 79, 80, 81, 2, 80, 9, 82, 79, 79, 82, 80, 82, 9, 83, 7, 83, 9, 83, 7, 84, 84, 85, 83, 85, 84, 86, 86, 27, 85, 85, 27, 29, 87, 83, 85, 85, 29, 87, 83, 87, 82, 87, 29, 88, 88, 29, 28, 89, 82, 87, 88, 28, 20, 25, 20, 28, 23, 20, 25, 88, 20, 22, 87, 88, 90, 88, 22, 90, 89, 87, 90, 90, 22, 91, 91, 22, 21, 91, 21, 92, 93, 89, 90, 94, 91, 92, 94, 92, 95, 62, 94, 95, 94, 62, 64, 96, 90, 91, 96, 91, 94, 64, 96, 94, 93, 90, 96, 96, 64, 97, 97, 64, 63, 66, 63, 65, 63, 66, 70, 97, 63, 70, 97, 70, 71, 98, 96, 97, 98, 97, 71, 98, 93, 96, 99, 98, 71, 99, 71, 69, 69, 100, 99, 98, 101, 93, 100, 102, 99, 102, 100, 103, 49, 102, 103, 48, 102, 49, 99, 104, 98, 104, 99, 102, 48, 104, 102, 101, 98, 104, 48, 105, 104, 105, 48, 47, 42, 47, 45, 47, 42, 41, 105, 47, 41, 105, 41, 43, 106, 104, 105, 43, 106, 105, 104, 106, 101, 43, 107, 106, 81, 106, 107, 106, 81, 80, 106, 80, 101, 108, 101, 80, 108, 93, 101, 80, 82, 108, 93, 108, 89, 82, 89, 108, 18, 12, 15, 12, 18, 10, 109, 10, 18, 109, 18, 17, 109, 13, 10, 17, 110, 109, 109, 111, 13, 110, 17, 112, 19, 112, 17, 112, 19, 113, 114, 109, 110, 109, 114, 111, 113, 115, 112, 115, 113, 116, 112, 117, 110, 117, 112, 115, 4, 116, 6, 116, 4, 115, 118, 110, 117, 110, 118, 114, 119, 115, 4, 115, 119, 117, 3, 119, 4, 119, 3, 0, 117, 120, 118, 120, 117, 119, 2, 81, 0, 0, 121, 119, 0, 81, 121, 119, 121, 120, 122, 121, 81, 81, 107, 122, 123, 120, 121, 121, 122, 123, 107, 43, 40, 40, 122, 107, 122, 40, 124, 123, 122, 124, 42, 124, 40, 124, 42, 44, 125, 44, 46, 44, 125, 126, 126, 124, 44, 61, 126, 125, 126, 61, 60, 124, 126, 127, 60, 127, 126, 127, 123, 124, 127, 60, 128, 57, 128, 60, 123, 127, 129, 128, 129, 127, 129, 120, 123, 120, 129, 118, 129, 114, 118, 129, 128, 130, 114, 129, 130, 128, 57, 131, 131, 130, 128, 131, 57, 59, 114, 130, 132, 130, 131, 132, 132, 111, 114, 53, 59, 54, 59, 53, 50, 131, 59, 50, 131, 50, 52, 132, 131, 52, 133, 132, 52, 133, 111, 132, 111, 133, 134, 13, 111, 134, 135, 134, 133, 134, 11, 13, 134, 135, 136, 11, 134, 136, 32, 38, 36, 38, 32, 31, 137, 38, 31, 137, 39, 38, 137, 31, 33, 138, 39, 137, 39, 138, 139, 140, 137, 33, 141, 140, 33, 142, 140, 141, 143, 137, 140, 137, 143, 138, 140, 142, 144, 144, 143, 140, 145, 144, 142, 146, 138, 143, 147, 144, 145, 147, 145, 148, 143, 144, 149, 147, 149, 144, 149, 146, 143, 147, 148, 77, 73, 77, 148, 77, 73, 75, 147, 77, 78, 78, 150, 147, 149, 147, 150, 150, 78, 151, 150, 152, 149, 152, 146, 149, 151, 153, 150, 152, 150, 153, 153, 151, 154, 152, 155, 146, 154, 156, 153, 156, 154, 67, 65, 156, 67, 156, 65, 62, 62, 95, 156, 153, 157, 152, 157, 153, 156, 156, 95, 157, 155, 152, 157, 95, 155, 157, 155, 95, 92, 155, 92, 158, 92, 21, 158, 23, 158, 21, 158, 23, 24, 159, 158, 24, 160, 155, 158, 158, 159, 160, 155, 160, 146, 139, 160, 159, 138, 146, 160, 160, 139, 138, 148, 161, 73, 161, 148, 145, 142, 161, 145, 161, 142, 162, 52, 135, 133, 135, 52, 51, 51, 163, 135, 53, 163, 51, 163, 53, 56, 135, 163, 164, 164, 136, 135, 56, 165, 163, 165, 56, 166, 166, 167, 165, 163, 168, 164, 168, 163, 165, 165, 167, 169, 169, 168, 165, 169, 167, 74, 170, 164, 168, 136, 164, 170, 169, 74, 171, 73, 171, 74, 171, 73, 161, 171, 161, 162, 172, 169, 171, 168, 169, 172, 173, 171, 162, 172, 171, 173, 174, 168, 172, 170, 168, 174, 173, 175, 172, 174, 172, 175, 176, 173, 162, 175, 173, 176, 170, 174, 177, 177, 136, 170, 136, 177, 11, 177, 12, 11, 12, 177, 16, 177, 174, 178, 177, 178, 16, 174, 175, 178, 16, 178, 179, 180, 179, 178, 178, 175, 180, 179, 180, 181, 181, 180, 34, 180, 175, 182, 180, 182, 34, 175, 176, 182, 182, 32, 34, 32, 182, 30, 182, 176, 183, 182, 183, 30, 176, 162, 183, 30, 183, 33, 142, 183, 162, 141, 33, 183, 183, 142, 141, 179, 14, 16, 14, 179, 184, 181, 184, 179, 181, 34, 35, 14, 184, 185, 15, 14, 185, 19, 15, 185, 185, 113, 19, 184, 181, 186, 35, 186, 181, 185, 184, 187, 186, 187, 184, 113, 185, 188, 188, 116, 113, 185, 187, 189, 188, 185, 189, 187, 186, 190, 190, 189, 187, 186, 35, 191, 190, 186, 191, 191, 35, 36, 191, 36, 37, 139, 37, 39, 37, 139, 192, 192, 191, 37, 159, 192, 139, 191, 193, 190, 189, 190, 193, 191, 192, 194, 193, 191, 194, 192, 159, 195, 195, 194, 192, 24, 195, 159, 195, 24, 26, 194, 195, 196, 26, 196, 195, 196, 193, 194, 196, 26, 197, 25, 197, 26, 197, 25, 27, 86, 197, 27, 198, 197, 86, 198, 196, 197, 84, 198, 86, 193, 196, 199, 198, 199, 196, 189, 193, 199, 200, 198, 84, 200, 199, 198, 199, 201, 189, 201, 199, 200, 189, 201, 188, 84, 202, 200, 202, 84, 7, 5, 202, 7, 6, 202, 5, 200, 203, 201, 203, 200, 202, 203, 188, 201, 6, 203, 202, 116, 188, 203, 203, 6, 116, 55, 166, 56, 166, 55, 204, 204, 167, 166, 167, 72, 74, 205, 204, 55, 54, 205, 55, 58, 205, 54, 61, 205, 58, 167, 204, 206, 206, 72, 167, 204, 205, 207, 207, 206, 204, 205, 61, 208, 125, 208, 61, 205, 209, 207, 205, 208, 209, 206, 207, 210, 209, 210, 207, 208, 125, 211, 211, 209, 208, 46, 211, 125, 210, 209, 212, 211, 46, 213, 46, 45, 213, 45, 49, 213, 213, 49, 103, 209, 211, 214, 214, 212, 209, 213, 215, 211, 211, 215, 214, 213, 103, 215, 215, 216, 214, 212, 214, 216, 103, 217, 215, 216, 215, 217, 217, 103, 100, 216, 218, 212, 217, 100, 219, 100, 69, 219, 219, 69, 66, 219, 66, 68, 216, 217, 220, 217, 219, 220, 68, 220, 219, 218, 216, 220, 220, 68, 221, 221, 218, 220, 67, 221, 68, 221, 67, 154, 154, 222, 221, 218, 221, 222, 222, 154, 151, 76, 151, 78, 151, 76, 222, 222, 223, 218, 223, 222, 76, 223, 212, 218, 75, 223, 76, 212, 223, 210, 223, 75, 72, 206, 210, 223, 206, 223, 72]
    normal3f[] normals = [(-0.5277837, 0.055153154, 0.8475863), (-0.83538437, 0.24464594, 0.4922208), (-0.9268382, 0.014631065, 0.3751757), (-0.83538437, 0.24464594, 0.4922208), (-0.5277837, 0.055153154, 0.8475863), (-0.39638317, 0.34650418, 0.8501854), (-0.0961534, 0.53114086, 0.84180987), (-0.3970321, 0.8126472, 0.4265794), (-0.39638317, 0.34650418, 0.8501854), (-0.3970321, 0.8126472, 0.4265794), (-0.0961534, 0.53114086, 0.84180987), (-0.07561159, 0.91755086, 0.3903632), (-0.3970321, 0.8126472, 0.4265794), (-0.526052, 0.84775114, 0.06773026), (-0.85604435, 0.4844172, 0.18035537), (-0.85604435, 0.4844172, 0.18035537), (-0.526052, 0.84775114, 0.06773026), (-0.9255401, 0.37809363, 0.020511584), (0.48548695, 0.18165646, 0.85516286), (0.84745085, 0.057920717, 0.52770466), (0.81219625, 0.42800307, 0.3964226), (0.84745085, 0.057920717, 0.52770466), (0.48548695, 0.18165646, 0.85516286), (0.37529865, 0.016962582, 0.92674875), (0.53135985, 0.8420396, 0.0928766), (0.34727174, 0.85000116, 0.39610654), (0.81219625, 0.42800307, 0.3964226), (0.81219625, 0.42800307, 0.3964226), (0.91747063, 0.39113796, 0.07251745), (0.53135985, 0.8420396, 0.0928766), (0.021530334, 0.3805662, 0.9245031), (0.24621291, 0.49239817, 0.8348193), (0.07035466, 0.8481017, 0.5251417), (0.24621291, 0.49239817, 0.8348193), (0.34727174, 0.85000116, 0.39610654), (0.07035466, 0.8481017, 0.5251417), (-0.8353826, 0.24473788, -0.4921781), (-0.52786404, 0.055246737, -0.8475302), (-0.926817, 0.014644938, -0.37522763), (-0.52786404, 0.055246737, -0.8475302), (-0.8353826, 0.24473788, -0.4921781), (-0.39646083, 0.34655407, -0.8501289), (-0.09625871, 0.53122354, -0.84174573), (-0.3970471, 0.8126364, -0.42658642), (-0.07559944, 0.917557, -0.39035118), (-0.3970471, 0.8126364, -0.42658642), (-0.09625871, 0.53122354, -0.84174573), (-0.39646083, 0.34655407, -0.8501289), (-0.52604383, 0.84775555, -0.06773804), (-0.3970471, 0.8126364, -0.42658642), (-0.8560307, 0.48440668, -0.18044835), (-0.52604383, 0.84775555, -0.06773804), (-0.8560307, 0.48440668, -0.18044835), (-0.9255408, 0.37809232, -0.020509964), (0.8781268, 0.07307669, -0.4728141), (0.4855014, 0.18165015, -0.8551559), (0.81218743, 0.42802286, -0.39641926), (0.4855014, 0.18165015, -0.8551559), (0.8781268, 0.07307669, -0.4728141), (0.44717798, 0.01397818, -0.8943358), (0.9174803, 0.39111558, -0.07251731), (0.81218743, 0.42802286, -0.39641926), (0.5313258, 0.8420624, -0.09286424), (0.5313258, 0.8420624, -0.09286424), (0.81218743, 0.42802286, -0.39641926), (0.34724873, 0.85001564, -0.39609557), (0.07033968, 0.84815735, -0.52505386), (0.34724873, 0.85001564, -0.39609557), (0.24622945, 0.49246413, -0.83477557), (0.07033968, 0.84815735, -0.52505386), (0.24622945, 0.49246413, -0.83477557), (0.021528604, 0.38041624, -0.9245648), (-0.5276934, -0.055285364, 0.84763396), (-0.8556549, -0.1790031, 0.48560554), (-0.4313087, -0.36446142, 0.8253125), (-0.8556549, -0.1790031, 0.48560554), (-0.5276934, -0.055285364, 0.84763396), (-0.92684567, -0.014676796, 0.3751557), (-0.09629819, -0.5310311, 0.8418626), (-0.36560464, -0.8323672, 0.416531), (-0.07567162, -0.917551, 0.39035136), (-0.36560464, -0.8323672, 0.416531), (-0.09629819, -0.5310311, 0.8418626), (-0.4313087, -0.36446142, 0.8253125), (-0.83562833, -0.49103236, 0.24619614), (-0.9255547, -0.37805825, 0.020508708), (-0.5260521, -0.84775007, 0.067742005), (-0.83562833, -0.49103236, 0.24619614), (-0.5260521, -0.84775007, 0.067742005), (-0.36560464, -0.8323672, 0.416531), (0.48540163, -0.18162188, 0.8552185), (0.87813324, -0.07308433, 0.47280118), (0.44708252, -0.013987793, 0.89438343), (0.87813324, -0.07308433, 0.47280118), (0.48540163, -0.18162188, 0.8552185), (0.8122091, -0.42801228, 0.396386), (0.34728158, -0.8500057, 0.39608845), (0.5313723, -0.84203327, 0.0928629), (0.8122091, -0.42801228, 0.396386), (0.8122091, -0.42801228, 0.396386), (0.5313723, -0.84203327, 0.0928629), (0.91746485, -0.39115503, 0.07249957), (0.021523075, -0.38033316, 0.92459905), (0.0703567, -0.84811896, 0.52511364), (0.24618474, -0.4923418, 0.83486086), (0.24618474, -0.4923418, 0.83486086), (0.0703567, -0.84811896, 0.52511364), (0.34728158, -0.8500057, 0.39608845), (6.176665e-7, -0.3651365, 0.9309541), (0.0703567, -0.84811896, 0.52511364), (0.021523075, -0.38033316, 0.92459905), (0.0703567, -0.84811896, 0.52511364), (6.176665e-7, -0.3651365, 0.9309541), (5.254076e-7, -0.8477071, 0.53046465), (-0.5278017, -0.055256564, -0.8475684), (-0.8353727, -0.24479552, -0.49216643), (-0.9268238, -0.014633643, -0.3752113), (-0.8353727, -0.24479552, -0.49216643), (-0.5278017, -0.055256564, -0.8475684), (-0.39646056, -0.34657547, -0.85012037), (-0.39708036, -0.81262267, -0.42658153), (-0.09627866, -0.53115886, -0.8417843), (-0.07564032, -0.917547, -0.3903666), (-0.09627866, -0.53115886, -0.8417843), (-0.39708036, -0.81262267, -0.42658153), (-0.39646056, -0.34657547, -0.85012037), (-0.5260444, -0.8477539, -0.06775436), (-0.8560066, -0.4844407, -0.18047182), (-0.39708036, -0.81262267, -0.42658153), (-0.8560066, -0.4844407, -0.18047182), (-0.5260444, -0.8477539, -0.06775436), (-0.9255364, -0.3781027, -0.020510776), (0.53133357, -0.8420578, -0.092862286), (0.8122096, -0.42800915, -0.39638844), (0.9174841, -0.39111024, -0.072497815), (0.8122096, -0.42800915, -0.39638844), (0.53133357, -0.8420578, -0.092862286), (0.3472546, -0.8500172, -0.39608723), (0.3472546, -0.8500172, -0.39608723), (0.07035496, -0.84813696, -0.5250847), (0.24620926, -0.49242368, -0.8348053), (0.24620926, -0.49242368, -0.8348053), (0.07035496, -0.84813696, -0.5250847), (0.021528892, -0.3804518, -0.9245501), (-0.83538437, 0.24464594, 0.4922208), (-0.39638317, 0.34650418, 0.8501854), (-0.3970321, 0.8126472, 0.4265794), (-0.85604435, 0.4844172, 0.18035537), (-0.83538437, 0.24464594, 0.4922208), (-0.3970321, 0.8126472, 0.4265794), (-0.99436414, 0.06734411, 0.08188301), (-0.83538437, 0.24464594, 0.4922208), (-0.85604435, 0.4844172, 0.18035537), (-0.99436414, 0.06734411, 0.08188301), (-0.9268382, 0.014631065, 0.3751757), (-0.83538437, 0.24464594, 0.4922208), (-0.99436414, 0.06734411, 0.08188301), (-0.85604435, 0.4844172, 0.18035537), (-0.9255401, 0.37809363, 0.020511584), (-0.9268382, 0.014631065, 0.3751757), (-0.99436414, 0.06734411, 0.08188301), (-0.99827576, -0.0000026852101, 0.05869968), (-0.8944046, -0.0000011285734, 0.44725892), (-0.9268382, 0.014631065, 0.3751757), (-0.99827576, -0.0000026852101, 0.05869968), (-0.9255401, 0.37809363, 0.020511584), (-0.9989576, 0.04564785, 2.3229816e-7), (-0.99436414, 0.06734411, 0.08188301), (-0.99436414, 0.06734411, 0.08188301), (-0.9989576, 0.04564785, 2.3229816e-7), (-0.99827576, -0.0000026852101, 0.05869968), (-0.9989576, 0.04564785, 2.3229816e-7), (-0.9255401, 0.37809363, 0.020511584), (-0.9338069, 0.35777745, 1.8893466e-7), (-0.526052, 0.84775114, 0.06773026), (-0.9338069, 0.35777745, 1.8893466e-7), (-0.9255401, 0.37809363, 0.020511584), (-0.9338069, 0.35777745, 1.8893466e-7), (-0.526052, 0.84775114, 0.06773026), (-0.44747415, 0.894297, 1.0080175e-7), (-0.44747415, 0.894297, 1.0080175e-7), (-0.8443055, 0.53586227, 1.7363894e-7), (-0.9338069, 0.35777745, 1.8893466e-7), (-0.8443055, 0.53586227, 1.7363894e-7), (-0.44747415, 0.894297, 1.0080175e-7), (-0.447412, 0.89432806, 1.14013275e-7), (-0.447412, 0.89432806, 1.14013275e-7), (-0.52604383, 0.84775555, -0.06773804), (-0.8443055, 0.53586227, 1.7363894e-7), (-0.8443055, 0.53586227, 1.7363894e-7), (-0.52604383, 0.84775555, -0.06773804), (-0.9255408, 0.37809232, -0.020509964), (-0.9941057, 0.108415686, 2.0560242e-7), (-0.9338069, 0.35777745, 1.8893466e-7), (-0.8443055, 0.53586227, 1.7363894e-7), (-0.8443055, 0.53586227, 1.7363894e-7), (-0.9255408, 0.37809232, -0.020509964), (-0.9941057, 0.108415686, 2.0560242e-7), (-0.9338069, 0.35777745, 1.8893466e-7), (-0.9941057, 0.108415686, 2.0560242e-7), (-0.9989576, 0.04564785, 2.3229816e-7), (-0.9941057, 0.108415686, 2.0560242e-7), (-0.9255408, 0.37809232, -0.020509964), (-0.9943578, 0.067395866, -0.08191636), (-0.9943578, 0.067395866, -0.08191636), (-0.9255408, 0.37809232, -0.020509964), (-0.8560307, 0.48440668, -0.18044835), (-1, -0.000004296456, 2.558598e-7), (-0.9989576, 0.04564785, 2.3229816e-7), (-0.9941057, 0.108415686, 2.0560242e-7), (-0.9943578, 0.067395866, -0.08191636), (-0.8560307, 0.48440668, -0.18044835), (-0.8353826, 0.24473788, -0.4921781), (-0.3970471, 0.8126364, -0.42658642), (-0.8353826, 0.24473788, -0.4921781), (-0.8560307, 0.48440668, -0.18044835), (-0.39646083, 0.34655407, -0.8501289), (-0.8353826, 0.24473788, -0.4921781), (-0.3970471, 0.8126364, -0.42658642), (-0.9943578, 0.067395866, -0.08191636), (-0.8353826, 0.24473788, -0.4921781), (-0.926817, 0.014644938, -0.37522763), (-0.9941057, 0.108415686, 2.0560242e-7), (-0.9943578, 0.067395866, -0.08191636), (-0.99827343, -0.0000026903258, -0.058738954), (-0.9943578, 0.067395866, -0.08191636), (-0.926817, 0.014644938, -0.37522763), (-0.99827343, -0.0000026903258, -0.058738954), (-1, -0.000004296456, 2.558598e-7), (-0.9941057, 0.108415686, 2.0560242e-7), (-0.99827343, -0.0000026903258, -0.058738954), (-0.99827343, -0.0000026903258, -0.058738954), (-0.926817, 0.014644938, -0.37522763), (-0.933246, -0.0000015605048, -0.35923797), (-0.933246, -0.0000015605048, -0.35923797), (-0.926817, 0.014644938, -0.37522763), (-0.52786404, 0.055246737, -0.8475302), (-0.933246, -0.0000015605048, -0.35923797), (-0.52786404, 0.055246737, -0.8475302), (-0.53674465, -7.155975e-7, -0.8437448), (-1, 0.0000013038189, 2.3457582e-7), (-1, -0.000004296456, 2.558598e-7), (-0.99827343, -0.0000026903258, -0.058738954), (-0.8437151, 0.000002067255, -0.5367913), (-0.933246, -0.0000015605048, -0.35923797), (-0.53674465, -7.155975e-7, -0.8437448), (-0.8437151, 0.000002067255, -0.5367913), (-0.53674465, -7.155975e-7, -0.8437448), (-0.3589328, 8.6227203e-7, -0.9333635), (-0.5278017, -0.055256564, -0.8475684), (-0.8437151, 0.000002067255, -0.5367913), (-0.3589328, 8.6227203e-7, -0.9333635), (-0.8437151, 0.000002067255, -0.5367913), (-0.5278017, -0.055256564, -0.8475684), (-0.9268238, -0.014633643, -0.3752113), (-0.992288, 0.0000032304408, -0.12395418), (-0.99827343, -0.0000026903258, -0.058738954), (-0.933246, -0.0000015605048, -0.35923797), (-0.992288, 0.0000032304408, -0.12395418), (-0.933246, -0.0000015605048, -0.35923797), (-0.8437151, 0.000002067255, -0.5367913), (-0.9268238, -0.014633643, -0.3752113), (-0.992288, 0.0000032304408, -0.12395418), (-0.8437151, 0.000002067255, -0.5367913), (-1, 0.0000013038189, 2.3457582e-7), (-0.99827343, -0.0000026903258, -0.058738954), (-0.992288, 0.0000032304408, -0.12395418), (-0.992288, 0.0000032304408, -0.12395418), (-0.9268238, -0.014633643, -0.3752113), (-0.99436, -0.06737011, -0.08191104), (-0.99436, -0.06737011, -0.08191104), (-0.9268238, -0.014633643, -0.3752113), (-0.8353727, -0.24479552, -0.49216643), (-0.39708036, -0.81262267, -0.42658153), (-0.8353727, -0.24479552, -0.49216643), (-0.39646056, -0.34657547, -0.85012037), (-0.8353727, -0.24479552, -0.49216643), (-0.39708036, -0.81262267, -0.42658153), (-0.8560066, -0.4844407, -0.18047182), (-0.99436, -0.06737011, -0.08191104), (-0.8353727, -0.24479552, -0.49216643), (-0.8560066, -0.4844407, -0.18047182), (-0.99436, -0.06737011, -0.08191104), (-0.8560066, -0.4844407, -0.18047182), (-0.9255364, -0.3781027, -0.020510776), (-0.9989569, -0.045663293, 2.378702e-7), (-0.992288, 0.0000032304408, -0.12395418), (-0.99436, -0.06737011, -0.08191104), (-0.9989569, -0.045663293, 2.378702e-7), (-0.99436, -0.06737011, -0.08191104), (-0.9255364, -0.3781027, -0.020510776), (-0.9989569, -0.045663293, 2.378702e-7), (-1, 0.0000013038189, 2.3457582e-7), (-0.992288, 0.0000032304408, -0.12395418), (-0.93382096, -0.35774094, 1.8760802e-7), (-0.9989569, -0.045663293, 2.378702e-7), (-0.9255364, -0.3781027, -0.020510776), (-0.93382096, -0.35774094, 1.8760802e-7), (-0.9255364, -0.3781027, -0.020510776), (-0.5260444, -0.8477539, -0.06775436), (-0.5260444, -0.8477539, -0.06775436), (-0.5371804, -0.84346735, 8.434077e-8), (-0.93382096, -0.35774094, 1.8760802e-7), (-0.9989569, -0.045663293, 2.378702e-7), (-1, 0.0000046462924, 2.131619e-7), (-1, 0.0000013038189, 2.3457582e-7), (-0.5371804, -0.84346735, 8.434077e-8), (-0.8443176, -0.5358431, 1.462193e-7), (-0.93382096, -0.35774094, 1.8760802e-7), (-0.8443176, -0.5358431, 1.462193e-7), (-0.5371804, -0.84346735, 8.434077e-8), (-0.359198, -0.93326145, 5.4424643e-8), (-0.5260521, -0.84775007, 0.067742005), (-0.8443176, -0.5358431, 1.462193e-7), (-0.359198, -0.93326145, 5.4424643e-8), (-0.9255547, -0.37805825, 0.020508708), (-0.8443176, -0.5358431, 1.462193e-7), (-0.5260521, -0.84775007, 0.067742005), (-0.93382096, -0.35774094, 1.8760802e-7), (-0.99410754, -0.10839807, 2.2906121e-7), (-0.9989569, -0.045663293, 2.378702e-7), (-0.99410754, -0.10839807, 2.2906121e-7), (-0.93382096, -0.35774094, 1.8760802e-7), (-0.8443176, -0.5358431, 1.462193e-7), (-0.9255547, -0.37805825, 0.020508708), (-0.99410754, -0.10839807, 2.2906121e-7), (-0.8443176, -0.5358431, 1.462193e-7), (-1, 0.0000046462924, 2.131619e-7), (-0.9989569, -0.045663293, 2.378702e-7), (-0.99410754, -0.10839807, 2.2906121e-7), (-0.9255547, -0.37805825, 0.020508708), (-0.9943663, -0.06735105, 0.08185102), (-0.99410754, -0.10839807, 2.2906121e-7), (-0.9943663, -0.06735105, 0.08185102), (-0.9255547, -0.37805825, 0.020508708), (-0.83562833, -0.49103236, 0.24619614), (-0.4313087, -0.36446142, 0.8253125), (-0.83562833, -0.49103236, 0.24619614), (-0.36560464, -0.8323672, 0.416531), (-0.83562833, -0.49103236, 0.24619614), (-0.4313087, -0.36446142, 0.8253125), (-0.8556549, -0.1790031, 0.48560554), (-0.9943663, -0.06735105, 0.08185102), (-0.83562833, -0.49103236, 0.24619614), (-0.8556549, -0.1790031, 0.48560554), (-0.9943663, -0.06735105, 0.08185102), (-0.8556549, -0.1790031, 0.48560554), (-0.92684567, -0.014676796, 0.3751557), (-0.9922982, 0.0000032146866, 0.12387288), (-0.99410754, -0.10839807, 2.2906121e-7), (-0.9943663, -0.06735105, 0.08185102), (-0.92684567, -0.014676796, 0.3751557), (-0.9922982, 0.0000032146866, 0.12387288), (-0.9943663, -0.06735105, 0.08185102), (-0.99410754, -0.10839807, 2.2906121e-7), (-0.9922982, 0.0000032146866, 0.12387288), (-1, 0.0000046462924, 2.131619e-7), (-0.92684567, -0.014676796, 0.3751557), (-0.8943633, 0.0000029245425, 0.44734165), (-0.9922982, 0.0000032146866, 0.12387288), (-0.8944046, -0.0000011285734, 0.44725892), (-0.9922982, 0.0000032146866, 0.12387288), (-0.8943633, 0.0000029245425, 0.44734165), (-0.9922982, 0.0000032146866, 0.12387288), (-0.8944046, -0.0000011285734, 0.44725892), (-0.99827576, -0.0000026852101, 0.05869968), (-0.9922982, 0.0000032146866, 0.12387288), (-0.99827576, -0.0000026852101, 0.05869968), (-1, 0.0000046462924, 2.131619e-7), (-1, -9.524744e-7, 2.3469131e-7), (-1, 0.0000046462924, 2.131619e-7), (-0.99827576, -0.0000026852101, 0.05869968), (-1, -9.524744e-7, 2.3469131e-7), (-1, 0.0000013038189, 2.3457582e-7), (-1, 0.0000046462924, 2.131619e-7), (-0.99827576, -0.0000026852101, 0.05869968), (-0.9989576, 0.04564785, 2.3229816e-7), (-1, -9.524744e-7, 2.3469131e-7), (-1, 0.0000013038189, 2.3457582e-7), (-1, -9.524744e-7, 2.3469131e-7), (-1, -0.000004296456, 2.558598e-7), (-0.9989576, 0.04564785, 2.3229816e-7), (-1, -0.000004296456, 2.558598e-7), (-1, -9.524744e-7, 2.3469131e-7), (0.24621291, 0.49239817, 0.8348193), (0.81219625, 0.42800307, 0.3964226), (0.34727174, 0.85000116, 0.39610654), (0.81219625, 0.42800307, 0.3964226), (0.24621291, 0.49239817, 0.8348193), (0.48548695, 0.18165646, 0.85516286), (0.06545352, 0.053411108, 0.9964253), (0.48548695, 0.18165646, 0.85516286), (0.24621291, 0.49239817, 0.8348193), (0.06545352, 0.053411108, 0.9964253), (0.24621291, 0.49239817, 0.8348193), (0.021530334, 0.3805662, 0.9245031), (0.06545352, 0.053411108, 0.9964253), (0.37529865, 0.016962582, 0.92674875), (0.48548695, 0.18165646, 0.85516286), (0.021530334, 0.3805662, 0.9245031), (0, 0.04932323, 0.9987829), (0.06545352, 0.053411108, 0.9964253), (0.06545352, 0.053411108, 0.9964253), (0.12692325, 1.3248612e-7, 0.99191254), (0.37529865, 0.016962582, 0.92674875), (0, 0.04932323, 0.9987829), (0.021530334, 0.3805662, 0.9245031), (0, 0.36536598, 0.93086404), (0.07035466, 0.8481017, 0.5251417), (0, 0.36536598, 0.93086404), (0.021530334, 0.3805662, 0.9245031), (0, 0.36536598, 0.93086404), (0.07035466, 0.8481017, 0.5251417), (0, 0.8476954, 0.5304833), (8.571767e-7, -1.9904999e-7, 1), (0.06545352, 0.053411108, 0.9964253), (0, 0.04932323, 0.9987829), (0.06545352, 0.053411108, 0.9964253), (8.571767e-7, -1.9904999e-7, 1), (0.12692325, 1.3248612e-7, 0.99191254), (0, 0.8476954, 0.5304833), (0, 0.53044367, 0.8477202), (0, 0.36536598, 0.93086404), (0, 0.53044367, 0.8477202), (0, 0.8476954, 0.5304833), (0, 0.93091804, 0.36522847), (0, 0.36536598, 0.93086404), (0, 0.10761258, 0.9941929), (0, 0.04932323, 0.9987829), (0, 0.10761258, 0.9941929), (0, 0.36536598, 0.93086404), (0, 0.53044367, 0.8477202), (-0.0961534, 0.53114086, 0.84180987), (0, 0.93091804, 0.36522847), (-0.07561159, 0.91755086, 0.3903632), (0, 0.93091804, 0.36522847), (-0.0961534, 0.53114086, 0.84180987), (0, 0.53044367, 0.8477202), (0, -1.7589095e-7, 1), (0, 0.04932323, 0.9987829), (0, 0.10761258, 0.9941929), (0, 0.04932323, 0.9987829), (0, -1.7589095e-7, 1), (8.571767e-7, -1.9904999e-7, 1), (-0.1103191, 0.08919262, 0.98988605), (0, 0.53044367, 0.8477202), (-0.0961534, 0.53114086, 0.84180987), (0, 0.53044367, 0.8477202), (-0.1103191, 0.08919262, 0.98988605), (0, 0.10761258, 0.9941929), (-0.39638317, 0.34650418, 0.8501854), (-0.1103191, 0.08919262, 0.98988605), (-0.0961534, 0.53114086, 0.84180987), (-0.1103191, 0.08919262, 0.98988605), (-0.39638317, 0.34650418, 0.8501854), (-0.5277837, 0.055153154, 0.8475863), (0, 0.10761258, 0.9941929), (-0.061435953, -2.9826617e-7, 0.998111), (0, -1.7589095e-7, 1), (-0.061435953, -2.9826617e-7, 0.998111), (0, 0.10761258, 0.9941929), (-0.1103191, 0.08919262, 0.98988605), (-0.9268382, 0.014631065, 0.3751757), (-0.8944046, -0.0000011285734, 0.44725892), (-0.5277837, 0.055153154, 0.8475863), (-0.5277837, 0.055153154, 0.8475863), (-0.358992, -6.8716554e-7, 0.9333407), (-0.1103191, 0.08919262, 0.98988605), (-0.5277837, 0.055153154, 0.8475863), (-0.8944046, -0.0000011285734, 0.44725892), (-0.358992, -6.8716554e-7, 0.9333407), (-0.1103191, 0.08919262, 0.98988605), (-0.358992, -6.8716554e-7, 0.9333407), (-0.061435953, -2.9826617e-7, 0.998111), (-0.5365693, 0.0000010335895, 0.8438563), (-0.358992, -6.8716554e-7, 0.9333407), (-0.8944046, -0.0000011285734, 0.44725892), (-0.8944046, -0.0000011285734, 0.44725892), (-0.8943633, 0.0000029245425, 0.44734165), (-0.5365693, 0.0000010335895, 0.8438563), (-0.12685038, 8.834615e-8, 0.99192184), (-0.061435953, -2.9826617e-7, 0.998111), (-0.358992, -6.8716554e-7, 0.9333407), (-0.358992, -6.8716554e-7, 0.9333407), (-0.5365693, 0.0000010335895, 0.8438563), (-0.12685038, 8.834615e-8, 0.99192184), (-0.8943633, 0.0000029245425, 0.44734165), (-0.92684567, -0.014676796, 0.3751557), (-0.5276934, -0.055285364, 0.84763396), (-0.5276934, -0.055285364, 0.84763396), (-0.5365693, 0.0000010335895, 0.8438563), (-0.8943633, 0.0000029245425, 0.44734165), (-0.5365693, 0.0000010335895, 0.8438563), (-0.5276934, -0.055285364, 0.84763396), (-0.110190175, -0.08910602, 0.9899083), (-0.12685038, 8.834615e-8, 0.99192184), (-0.5365693, 0.0000010335895, 0.8438563), (-0.110190175, -0.08910602, 0.9899083), (-0.4313087, -0.36446142, 0.8253125), (-0.110190175, -0.08910602, 0.9899083), (-0.5276934, -0.055285364, 0.84763396), (-0.110190175, -0.08910602, 0.9899083), (-0.4313087, -0.36446142, 0.8253125), (-0.09629819, -0.5310311, 0.8418626), (6.176327e-7, -0.9309231, 0.36521533), (-0.09629819, -0.5310311, 0.8418626), (-0.07567162, -0.917551, 0.39035136), (-0.09629819, -0.5310311, 0.8418626), (6.176327e-7, -0.9309231, 0.36521533), (3.9409744e-7, -0.5303508, 0.8477783), (3.9409744e-7, -0.5303508, 0.8477783), (-0.110190175, -0.08910602, 0.9899083), (-0.09629819, -0.5310311, 0.8418626), (5.254076e-7, -0.8477071, 0.53046465), (3.9409744e-7, -0.5303508, 0.8477783), (6.176327e-7, -0.9309231, 0.36521533), (3.9409744e-7, -0.5303508, 0.8477783), (5.254076e-7, -0.8477071, 0.53046465), (6.176665e-7, -0.3651365, 0.9309541), (-0.110190175, -0.08910602, 0.9899083), (3.9409744e-7, -0.5303508, 0.8477783), (0.0000012259084, -0.107399136, 0.994216), (6.176665e-7, -0.3651365, 0.9309541), (0.0000012259084, -0.107399136, 0.994216), (3.9409744e-7, -0.5303508, 0.8477783), (0.0000012259084, -0.107399136, 0.994216), (-0.12685038, 8.834615e-8, 0.99192184), (-0.110190175, -0.08910602, 0.9899083), (0.0000012259084, -0.107399136, 0.994216), (6.176665e-7, -0.3651365, 0.9309541), (0.0000017224484, -0.04921843, 0.9987881), (0.021523075, -0.38033316, 0.92459905), (0.0000017224484, -0.04921843, 0.9987881), (6.176665e-7, -0.3651365, 0.9309541), (-0.12685038, 8.834615e-8, 0.99192184), (0.0000012259084, -0.107399136, 0.994216), (8.5892094e-7, -1.973451e-7, 1), (0.0000017224484, -0.04921843, 0.9987881), (8.5892094e-7, -1.973451e-7, 1), (0.0000012259084, -0.107399136, 0.994216), (8.5892094e-7, -1.973451e-7, 1), (-0.061435953, -2.9826617e-7, 0.998111), (-0.12685038, 8.834615e-8, 0.99192184), (-0.061435953, -2.9826617e-7, 0.998111), (8.5892094e-7, -1.973451e-7, 1), (0, -1.7589095e-7, 1), (8.5892094e-7, -1.973451e-7, 1), (8.571767e-7, -1.9904999e-7, 1), (0, -1.7589095e-7, 1), (8.5892094e-7, -1.973451e-7, 1), (0.0000017224484, -0.04921843, 0.9987881), (0.0000017154534, -2.2013786e-7, 1), (8.571767e-7, -1.9904999e-7, 1), (8.5892094e-7, -1.973451e-7, 1), (0.0000017154534, -2.2013786e-7, 1), (0.0000017224484, -0.04921843, 0.9987881), (0.021523075, -0.38033316, 0.92459905), (0.06531451, -0.053298224, 0.99644035), (0.06531451, -0.053298224, 0.99644035), (0.0000017154534, -2.2013786e-7, 1), (0.0000017224484, -0.04921843, 0.9987881), (0.06531451, -0.053298224, 0.99644035), (0.021523075, -0.38033316, 0.92459905), (0.24618474, -0.4923418, 0.83486086), (8.571767e-7, -1.9904999e-7, 1), (0.0000017154534, -2.2013786e-7, 1), (0.06138744, -5.121022e-7, 0.998114), (0.0000017154534, -2.2013786e-7, 1), (0.06531451, -0.053298224, 0.99644035), (0.06138744, -5.121022e-7, 0.998114), (0.06138744, -5.121022e-7, 0.998114), (0.12692325, 1.3248612e-7, 0.99191254), (8.571767e-7, -1.9904999e-7, 1), (0.8122091, -0.42801228, 0.396386), (0.24618474, -0.4923418, 0.83486086), (0.34728158, -0.8500057, 0.39608845), (0.24618474, -0.4923418, 0.83486086), (0.8122091, -0.42801228, 0.396386), (0.48540163, -0.18162188, 0.8552185), (0.06531451, -0.053298224, 0.99644035), (0.24618474, -0.4923418, 0.83486086), (0.48540163, -0.18162188, 0.8552185), (0.06531451, -0.053298224, 0.99644035), (0.48540163, -0.18162188, 0.8552185), (0.44708252, -0.013987793, 0.89438343), (0.06138744, -5.121022e-7, 0.998114), (0.06531451, -0.053298224, 0.99644035), (0.44708252, -0.013987793, 0.89438343), (0.35907662, -7.520468e-7, 0.9333082), (0.06138744, -5.121022e-7, 0.998114), (0.44708252, -0.013987793, 0.89438343), (0.35907662, -7.520468e-7, 0.9333082), (0.12692325, 1.3248612e-7, 0.99191254), (0.06138744, -5.121022e-7, 0.998114), (0.12692325, 1.3248612e-7, 0.99191254), (0.35907662, -7.520468e-7, 0.9333082), (0.53692275, 0.0000011111312, 0.8436315), (0.37529865, 0.016962582, 0.92674875), (0.12692325, 1.3248612e-7, 0.99191254), (0.53692275, 0.0000011111312, 0.8436315), (0.8437677, -0.000002940189, 0.5367087), (0.53692275, 0.0000011111312, 0.8436315), (0.35907662, -7.520468e-7, 0.9333082), (0.53692275, 0.0000011111312, 0.8436315), (0.84745085, 0.057920717, 0.52770466), (0.37529865, 0.016962582, 0.92674875), (0.53692275, 0.0000011111312, 0.8436315), (0.8437677, -0.000002940189, 0.5367087), (0.93335545, 0.0000017636611, 0.35895357), (0.84745085, 0.057920717, 0.52770466), (0.53692275, 0.0000011111312, 0.8436315), (0.93335545, 0.0000017636611, 0.35895357), (0.81218743, 0.42802286, -0.39641926), (0.24622945, 0.49246413, -0.83477557), (0.34724873, 0.85001564, -0.39609557), (0.24622945, 0.49246413, -0.83477557), (0.81218743, 0.42802286, -0.39641926), (0.4855014, 0.18165015, -0.8551559), (0.06531487, 0.053298388, -0.99644035), (0.24622945, 0.49246413, -0.83477557), (0.4855014, 0.18165015, -0.8551559), (0.06531487, 0.053298388, -0.99644035), (0.021528604, 0.38041624, -0.9245648), (0.24622945, 0.49246413, -0.83477557), (0.06531487, 0.053298388, -0.99644035), (0.4855014, 0.18165015, -0.8551559), (0.44717798, 0.01397818, -0.8943358), (0, 0.049217835, -0.99878806), (0.021528604, 0.38041624, -0.9245648), (0.06531487, 0.053298388, -0.99644035), (0.021528604, 0.38041624, -0.9245648), (0, 0.049217835, -0.99878806), (0, 0.36519644, -0.9309305), (0.12684472, 1.9656288e-7, -0.9919226), (0.06531487, 0.053298388, -0.99644035), (0.44717798, 0.01397818, -0.8943358), (0.44722894, 7.2303243e-7, -0.89441955), (0.12684472, 1.9656288e-7, -0.9919226), (0.44717798, 0.01397818, -0.8943358), (0.44731003, -0.0000010866072, -0.89437896), (0.12684472, 1.9656288e-7, -0.9919226), (0.44722894, 7.2303243e-7, -0.89441955), (0, 0, -1), (0.06531487, 0.053298388, -0.99644035), (0.12684472, 1.9656288e-7, -0.9919226), (0.06531487, 0.053298388, -0.99644035), (0, 0, -1), (0, 0.049217835, -0.99878806), (0.12684472, 1.9656288e-7, -0.9919226), (0.44731003, -0.0000010866072, -0.89437896), (0.06143799, -2.96064e-7, -0.99811095), (0.06143799, -2.96064e-7, -0.99811095), (0, 0, -1), (0.12684472, 1.9656288e-7, -0.9919226), (0.37518704, -0.016947802, -0.9267943), (0.06143799, -2.96064e-7, -0.99811095), (0.44731003, -0.0000010866072, -0.89437896), (0, 0, -1), (0, 0.049217835, -0.99878806), (0, 0, -1), (0.06537035, -0.053338073, -0.9964346), (0.06143799, -2.96064e-7, -0.99811095), (0.37518704, -0.016947802, -0.9267943), (0.06537035, -0.053338073, -0.9964346), (0.37518704, -0.016947802, -0.9267943), (0.48546603, -0.1816199, -0.85518247), (0, 0, -1), (0.06143799, -2.96064e-7, -0.99811095), (0, 0, -1), (0.06537035, -0.053338073, -0.9964346), (0, 0, -1), (0.06143799, -2.96064e-7, -0.99811095), (0, 0, -1), (0, 0, -1), (0, 0, -1), (0.06537035, -0.053338073, -0.9964346), (0.48546603, -0.1816199, -0.85518247), (0.24620926, -0.49242368, -0.8348053), (0.8122096, -0.42800915, -0.39638844), (0.24620926, -0.49242368, -0.8348053), (0.48546603, -0.1816199, -0.85518247), (0.24620926, -0.49242368, -0.8348053), (0.8122096, -0.42800915, -0.39638844), (0.3472546, -0.8500172, -0.39608723), (0.06537035, -0.053338073, -0.9964346), (0.24620926, -0.49242368, -0.8348053), (0.021528892, -0.3804518, -0.9245501), (0.021528892, -0.3804518, -0.9245501), (0, -0.049256083, -0.9987862), (0.06537035, -0.053338073, -0.9964346), (0, 0, -1), (0.06537035, -0.053338073, -0.9964346), (0, -0.049256083, -0.9987862), (0, -0.049256083, -0.9987862), (0.021528892, -0.3804518, -0.9245501), (0.0000029648438, -0.3651951, -0.9309311), (0, -0.049256083, -0.9987862), (0, 0, -1), (0, 0, -1), (0, 0, -1), (0, 0, -1), (0, 0, -1), (0.0000029648438, -0.3651951, -0.9309311), (0.0000014080247, -0.10742349, -0.99421334), (0, -0.049256083, -0.9987862), (0, 0, -1), (0, -0.049256083, -0.9987862), (0.0000014080247, -0.10742349, -0.99421334), (0.0000014080247, -0.10742349, -0.99421334), (0.0000029648438, -0.3651951, -0.9309311), (0.0000031523255, -0.53044116, -0.8477218), (0, 0, -1), (-0.093519345, -8.375737e-8, -0.99561757), (0, 0, -1), (0.0000031523255, -0.53044116, -0.8477218), (-0.110165946, -0.08907996, -0.98991334), (0.0000014080247, -0.10742349, -0.99421334), (-0.110165946, -0.08907996, -0.98991334), (0.0000031523255, -0.53044116, -0.8477218), (-0.09627866, -0.53115886, -0.8417843), (-0.39646056, -0.34657547, -0.85012037), (-0.110165946, -0.08907996, -0.98991334), (-0.09627866, -0.53115886, -0.8417843), (-0.110165946, -0.08907996, -0.98991334), (-0.39646056, -0.34657547, -0.85012037), (-0.5278017, -0.055256564, -0.8475684), (-0.5278017, -0.055256564, -0.8475684), (-0.3589328, 8.6227203e-7, -0.9333635), (-0.110165946, -0.08907996, -0.98991334), (0.0000014080247, -0.10742349, -0.99421334), (-0.09348689, 2.245856e-7, -0.9956206), (0, 0, -1), (-0.09348689, 2.245856e-7, -0.9956206), (0.0000014080247, -0.10742349, -0.99421334), (-0.110165946, -0.08907996, -0.98991334), (-0.110165946, -0.08907996, -0.98991334), (-0.3589328, 8.6227203e-7, -0.9333635), (-0.09348689, 2.245856e-7, -0.9956206), (-0.093519345, -8.375737e-8, -0.99561757), (0, 0, -1), (-0.09348689, 2.245856e-7, -0.9956206), (-0.3589328, 8.6227203e-7, -0.9333635), (-0.093519345, -8.375737e-8, -0.99561757), (-0.09348689, 2.245856e-7, -0.9956206), (-0.093519345, -8.375737e-8, -0.99561757), (-0.3589328, 8.6227203e-7, -0.9333635), (-0.53674465, -7.155975e-7, -0.8437448), (-0.093519345, -8.375737e-8, -0.99561757), (-0.53674465, -7.155975e-7, -0.8437448), (-0.1101702, 0.08908178, -0.9899127), (-0.53674465, -7.155975e-7, -0.8437448), (-0.52786404, 0.055246737, -0.8475302), (-0.1101702, 0.08908178, -0.9899127), (-0.39646083, 0.34655407, -0.8501289), (-0.1101702, 0.08908178, -0.9899127), (-0.52786404, 0.055246737, -0.8475302), (-0.1101702, 0.08908178, -0.9899127), (-0.39646083, 0.34655407, -0.8501289), (-0.09625871, 0.53122354, -0.84174573), (-0.0000011820808, 0.5305289, -0.8476669), (-0.1101702, 0.08908178, -0.9899127), (-0.09625871, 0.53122354, -0.84174573), (0, 0.107383214, -0.9942177), (-0.093519345, -8.375737e-8, -0.99561757), (-0.1101702, 0.08908178, -0.9899127), (-0.1101702, 0.08908178, -0.9899127), (-0.0000011820808, 0.5305289, -0.8476669), (0, 0.107383214, -0.9942177), (-0.093519345, -8.375737e-8, -0.99561757), (0, 0.107383214, -0.9942177), (0, 0, -1), (0, 0.36519644, -0.9309305), (0, 0.107383214, -0.9942177), (-0.0000011820808, 0.5305289, -0.8476669), (0, 0.049217835, -0.99878806), (0, 0, -1), (0, 0.107383214, -0.9942177), (0, 0.107383214, -0.9942177), (0, 0.36519644, -0.9309305), (0, 0.049217835, -0.99878806), (0.48546603, -0.1816199, -0.85518247), (0.84746885, -0.057914305, -0.52767664), (0.8122096, -0.42800915, -0.39638844), (0.84746885, -0.057914305, -0.52767664), (0.48546603, -0.1816199, -0.85518247), (0.37518704, -0.016947802, -0.9267943), (0.44731003, -0.0000010866072, -0.89437896), (0.84746885, -0.057914305, -0.52767664), (0.37518704, -0.016947802, -0.9267943), (0.84746885, -0.057914305, -0.52767664), (0.44731003, -0.0000010866072, -0.89437896), (0.9333423, -0.0000024097553, -0.35898793), (0.44708252, -0.013987793, 0.89438343), (0.8437677, -0.000002940189, 0.5367087), (0.35907662, -7.520468e-7, 0.9333082), (0.8437677, -0.000002940189, 0.5367087), (0.44708252, -0.013987793, 0.89438343), (0.87813324, -0.07308433, 0.47280118), (0.87813324, -0.07308433, 0.47280118), (0.9930662, -0.062308293, 0.09968541), (0.8437677, -0.000002940189, 0.5367087), (0.8122091, -0.42801228, 0.396386), (0.9930662, -0.062308293, 0.09968541), (0.87813324, -0.07308433, 0.47280118), (0.9930662, -0.062308293, 0.09968541), (0.8122091, -0.42801228, 0.396386), (0.91746485, -0.39115503, 0.07249957), (0.8437677, -0.000002940189, 0.5367087), (0.9930662, -0.062308293, 0.09968541), (0.9922905, -0.0000018062833, 0.12393434), (0.9922905, -0.0000018062833, 0.12393434), (0.93335545, 0.0000017636611, 0.35895357), (0.8437677, -0.000002940189, 0.5367087), (0.91746485, -0.39115503, 0.07249957), (0.9936615, -0.112413496, -2.0206109e-7), (0.9930662, -0.062308293, 0.09968541), (0.9936615, -0.112413496, -2.0206109e-7), (0.91746485, -0.39115503, 0.07249957), (0.8934792, -0.4491047, -1.5239459e-7), (0.8934792, -0.4491047, -1.5239459e-7), (0.8935119, -0.44903958, -1.7186503e-7), (0.9936615, -0.112413496, -2.0206109e-7), (0.9930662, -0.062308293, 0.09968541), (1, -0.000004757852, -1.7054049e-7), (0.9922905, -0.0000018062833, 0.12393434), (1, -0.000004757852, -1.7054049e-7), (0.9930662, -0.062308293, 0.09968541), (0.9936615, -0.112413496, -2.0206109e-7), (0.9936615, -0.112413496, -2.0206109e-7), (0.8935119, -0.44903958, -1.7186503e-7), (0.9987836, -0.049309712, -1.984082e-7), (0.9987836, -0.049309712, -1.984082e-7), (1, -0.000004757852, -1.7054049e-7), (0.9936615, -0.112413496, -2.0206109e-7), (0.9987836, -0.049309712, -1.984082e-7), (0.8935119, -0.44903958, -1.7186503e-7), (0.9174841, -0.39111024, -0.072497815), (0.998276, 0.0000010698674, 0.05869475), (0.9922905, -0.0000018062833, 0.12393434), (1, -0.000004757852, -1.7054049e-7), (0.93335545, 0.0000017636611, 0.35895357), (0.9922905, -0.0000018062833, 0.12393434), (0.998276, 0.0000010698674, 0.05869475), (0.9987836, -0.049309712, -1.984082e-7), (0.9174841, -0.39111024, -0.072497815), (0.99306744, -0.06231455, -0.09966906), (0.8122096, -0.42800915, -0.39638844), (0.99306744, -0.06231455, -0.09966906), (0.9174841, -0.39111024, -0.072497815), (0.99306744, -0.06231455, -0.09966906), (0.8122096, -0.42800915, -0.39638844), (0.84746885, -0.057914305, -0.52767664), (0.99306744, -0.06231455, -0.09966906), (0.84746885, -0.057914305, -0.52767664), (0.9333423, -0.0000024097553, -0.35898793), (1, -0.0000014462236, -1.7015432e-7), (0.9987836, -0.049309712, -1.984082e-7), (0.99306744, -0.06231455, -0.09966906), (1, -0.000004757852, -1.7054049e-7), (0.9987836, -0.049309712, -1.984082e-7), (1, -0.0000014462236, -1.7015432e-7), (0.9982762, -0.0000017813252, -0.058692), (0.99306744, -0.06231455, -0.09966906), (0.9333423, -0.0000024097553, -0.35898793), (1, -0.0000014462236, -1.7015432e-7), (0.99306744, -0.06231455, -0.09966906), (0.9982762, -0.0000017813252, -0.058692), (1, 7.5500174e-7, -1.7015353e-7), (1, -0.000004757852, -1.7054049e-7), (1, -0.0000014462236, -1.7015432e-7), (0.998276, 0.0000010698674, 0.05869475), (1, -0.000004757852, -1.7054049e-7), (1, 7.5500174e-7, -1.7015353e-7), (0.9982762, -0.0000017813252, -0.058692), (1, 0.000004013267, -1.6950192e-7), (1, -0.0000014462236, -1.7015432e-7), (1, 7.5500174e-7, -1.7015353e-7), (1, -0.0000014462236, -1.7015432e-7), (1, 0.000004013267, -1.6950192e-7), (0.9922905, 0.000001177562, -0.123934336), (0.9982762, -0.0000017813252, -0.058692), (0.9333423, -0.0000024097553, -0.35898793), (1, 0.000004013267, -1.6950192e-7), (0.9982762, -0.0000017813252, -0.058692), (0.9922905, 0.000001177562, -0.123934336), (0.998276, 0.0000010698674, 0.05869475), (1, 7.5500174e-7, -1.7015353e-7), (0.9930673, 0.0622832, 0.09969048), (0.9930673, 0.0622832, 0.09969048), (0.93335545, 0.0000017636611, 0.35895357), (0.998276, 0.0000010698674, 0.05869475), (0.93335545, 0.0000017636611, 0.35895357), (0.9930673, 0.0622832, 0.09969048), (0.84745085, 0.057920717, 0.52770466), (0.9930673, 0.0622832, 0.09969048), (0.81219625, 0.42800307, 0.3964226), (0.84745085, 0.057920717, 0.52770466), (0.81219625, 0.42800307, 0.3964226), (0.9930673, 0.0622832, 0.09969048), (0.91747063, 0.39113796, 0.07251745), (0.9930673, 0.0622832, 0.09969048), (1, 7.5500174e-7, -1.7015353e-7), (0.99878436, 0.049293507, -1.9309186e-7), (0.9930673, 0.0622832, 0.09969048), (0.99878436, 0.049293507, -1.9309186e-7), (0.91747063, 0.39113796, 0.07251745), (1, 7.5500174e-7, -1.7015353e-7), (1, 0.000004013267, -1.6950192e-7), (0.99878436, 0.049293507, -1.9309186e-7), (0.91747063, 0.39113796, 0.07251745), (0.99878436, 0.049293507, -1.9309186e-7), (0.93245894, 0.36127612, -1.5995707e-7), (0.9936616, 0.11241303, -1.9455216e-7), (0.93245894, 0.36127612, -1.5995707e-7), (0.99878436, 0.049293507, -1.9309186e-7), (0.99878436, 0.049293507, -1.9309186e-7), (1, 0.000004013267, -1.6950192e-7), (0.9936616, 0.11241303, -1.9455216e-7), (0.93245894, 0.36127612, -1.5995707e-7), (0.9936616, 0.11241303, -1.9455216e-7), (0.8428024, 0.5382231, -1.3353852e-7), (0.8428024, 0.5382231, -1.3353852e-7), (0.9936616, 0.11241303, -1.9455216e-7), (0.9174803, 0.39111558, -0.07251731), (0.9936616, 0.11241303, -1.9455216e-7), (1, 0.000004013267, -1.6950192e-7), (0.9930683, 0.06229093, -0.099676795), (0.9936616, 0.11241303, -1.9455216e-7), (0.9930683, 0.06229093, -0.099676795), (0.9174803, 0.39111558, -0.07251731), (1, 0.000004013267, -1.6950192e-7), (0.9922905, 0.000001177562, -0.123934336), (0.9930683, 0.06229093, -0.099676795), (0.9930683, 0.06229093, -0.099676795), (0.81218743, 0.42802286, -0.39641926), (0.9174803, 0.39111558, -0.07251731), (0.81218743, 0.42802286, -0.39641926), (0.9930683, 0.06229093, -0.099676795), (0.8781268, 0.07307669, -0.4728141), (0.9930683, 0.06229093, -0.099676795), (0.9922905, 0.000001177562, -0.123934336), (0.8437556, 0.0000023983957, -0.5367276), (0.9930683, 0.06229093, -0.099676795), (0.8437556, 0.0000023983957, -0.5367276), (0.8781268, 0.07307669, -0.4728141), (0.9922905, 0.000001177562, -0.123934336), (0.9333423, -0.0000024097553, -0.35898793), (0.8437556, 0.0000023983957, -0.5367276), (0.8781268, 0.07307669, -0.4728141), (0.8437556, 0.0000023983957, -0.5367276), (0.44717798, 0.01397818, -0.8943358), (0.44731003, -0.0000010866072, -0.89437896), (0.8437556, 0.0000023983957, -0.5367276), (0.9333423, -0.0000024097553, -0.35898793), (0.44722894, 7.2303243e-7, -0.89441955), (0.44717798, 0.01397818, -0.8943358), (0.8437556, 0.0000023983957, -0.5367276), (0.8437556, 0.0000023983957, -0.5367276), (0.44731003, -0.0000010866072, -0.89437896), (0.44722894, 7.2303243e-7, -0.89441955), (0.93245894, 0.36127612, -1.5995707e-7), (0.53135985, 0.8420396, 0.0928766), (0.91747063, 0.39113796, 0.07251745), (0.53135985, 0.8420396, 0.0928766), (0.93245894, 0.36127612, -1.5995707e-7), (0.53656965, 0.84385616, -8.389444e-8), (0.8428024, 0.5382231, -1.3353852e-7), (0.53656965, 0.84385616, -8.389444e-8), (0.93245894, 0.36127612, -1.5995707e-7), (0.8428024, 0.5382231, -1.3353852e-7), (0.9174803, 0.39111558, -0.07251731), (0.5313258, 0.8420624, -0.09286424), (0.53135985, 0.8420396, 0.0928766), (0.53656965, 0.84385616, -8.389444e-8), (0.0920287, 0.99179095, 0.08877765), (0.34727174, 0.85000116, 0.39610654), (0.53135985, 0.8420396, 0.0928766), (0.0920287, 0.99179095, 0.08877765), (0.07035466, 0.8481017, 0.5251417), (0.34727174, 0.85000116, 0.39610654), (0.0920287, 0.99179095, 0.08877765), (0.0920287, 0.99179095, 0.08877765), (0, 0.8476954, 0.5304833), (0.07035466, 0.8481017, 0.5251417), (0.53656965, 0.84385616, -8.389444e-8), (0.8428024, 0.5382231, -1.3353852e-7), (0.3590571, 0.93331563, -6.432146e-8), (0.5313258, 0.8420624, -0.09286424), (0.3590571, 0.93331563, -6.432146e-8), (0.8428024, 0.5382231, -1.3353852e-7), (0.0920287, 0.99179095, 0.08877765), (0.53656965, 0.84385616, -8.389444e-8), (0.12691888, 0.9919132, -2.436953e-8), (0.3590571, 0.93331563, -6.432146e-8), (0.12691888, 0.9919132, -2.436953e-8), (0.53656965, 0.84385616, -8.389444e-8), (0, 0.8476954, 0.5304833), (0.0920287, 0.99179095, 0.08877765), (0, 0.9959003, 0.090459116), (0, 0.9959003, 0.090459116), (0, 0.93091804, 0.36522847), (0, 0.8476954, 0.5304833), (0.0920287, 0.99179095, 0.08877765), (0.12691888, 0.9919132, -2.436953e-8), (0, 1, 0), (0, 0.9959003, 0.090459116), (0.0920287, 0.99179095, 0.08877765), (0, 1, 0), (0.12691888, 0.9919132, -2.436953e-8), (0.3590571, 0.93331563, -6.432146e-8), (0.06137148, 0.998115, -1.3088294e-8), (0.06137148, 0.998115, -1.3088294e-8), (0, 1, 0), (0.12691888, 0.9919132, -2.436953e-8), (0.3590571, 0.93331563, -6.432146e-8), (0.5313258, 0.8420624, -0.09286424), (0.092020236, 0.99179214, -0.08877388), (0.06137148, 0.998115, -1.3088294e-8), (0.3590571, 0.93331563, -6.432146e-8), (0.092020236, 0.99179214, -0.08877388), (0.092020236, 0.99179214, -0.08877388), (0.5313258, 0.8420624, -0.09286424), (0.34724873, 0.85001564, -0.39609557), (0.092020236, 0.99179214, -0.08877388), (0.34724873, 0.85001564, -0.39609557), (0.07033968, 0.84815735, -0.52505386), (0, 0.36519644, -0.9309305), (0.07033968, 0.84815735, -0.52505386), (0.021528604, 0.38041624, -0.9245648), (0.07033968, 0.84815735, -0.52505386), (0, 0.36519644, -0.9309305), (-0.000001575934, 0.84776884, -0.53036606), (-0.000001575934, 0.84776884, -0.53036606), (0.092020236, 0.99179214, -0.08877388), (0.07033968, 0.84815735, -0.52505386), (-0.0000011820808, 0.5305289, -0.8476669), (-0.000001575934, 0.84776884, -0.53036606), (0, 0.36519644, -0.9309305), (0.092020236, 0.99179214, -0.08877388), (0, 1, 0), (0.06137148, 0.998115, -1.3088294e-8), (0, 1, 0), (0.06137148, 0.998115, -1.3088294e-8), (0, 1, 0), (0.092020236, 0.99179214, -0.08877388), (-0.000001575934, 0.84776884, -0.53036606), (-3.2266226e-7, 0.9923906, -0.12313013), (0, 1, 0), (0.092020236, 0.99179214, -0.08877388), (-3.2266226e-7, 0.9923906, -0.12313013), (-0.000001575934, 0.84776884, -0.53036606), (-0.0000011820808, 0.5305289, -0.8476669), (-0.0000014823745, 0.9309233, -0.36521485), (-0.0000014823745, 0.9309233, -0.36521485), (-3.2266226e-7, 0.9923906, -0.12313013), (-0.000001575934, 0.84776884, -0.53036606), (-0.09625871, 0.53122354, -0.84174573), (-0.0000014823745, 0.9309233, -0.36521485), (-0.0000011820808, 0.5305289, -0.8476669), (-0.0000014823745, 0.9309233, -0.36521485), (-0.09625871, 0.53122354, -0.84174573), (-0.07559944, 0.917557, -0.39035118), (-3.2266226e-7, 0.9923906, -0.12313013), (-0.0000014823745, 0.9309233, -0.36521485), (0, 0.9981905, -0.060131907), (-0.07559944, 0.917557, -0.39035118), (0, 0.9981905, -0.060131907), (-0.0000014823745, 0.9309233, -0.36521485), (0, 0.9981905, -0.060131907), (0, 1, 0), (-3.2266226e-7, 0.9923906, -0.12313013), (0, 0.9981905, -0.060131907), (-0.07559944, 0.917557, -0.39035118), (-0.12524058, 0.9882149, -0.08801235), (-0.3970471, 0.8126364, -0.42658642), (-0.12524058, 0.9882149, -0.08801235), (-0.07559944, 0.917557, -0.39035118), (-0.12524058, 0.9882149, -0.08801235), (-0.3970471, 0.8126364, -0.42658642), (-0.52604383, 0.84775555, -0.06773804), (-0.447412, 0.89432806, 1.14013275e-7), (-0.12524058, 0.9882149, -0.08801235), (-0.52604383, 0.84775555, -0.06773804), (-0.12683865, 0.99192345, 2.6994138e-8), (-0.12524058, 0.9882149, -0.08801235), (-0.447412, 0.89432806, 1.14013275e-7), (-0.12683865, 0.99192345, 2.6994138e-8), (0, 0.9981905, -0.060131907), (-0.12524058, 0.9882149, -0.08801235), (-0.44747415, 0.894297, 1.0080175e-7), (-0.12683865, 0.99192345, 2.6994138e-8), (-0.447412, 0.89432806, 1.14013275e-7), (0, 1, 0), (0, 0.9981905, -0.060131907), (0, 1, 0), (-0.12683865, 0.99192345, 2.6994138e-8), (0, 1, 0), (0, 0.9981905, -0.060131907), (0, 1, 0), (0, 1, 0), (0, 1, 0), (-0.06134659, 0.99811655, 1.046639e-8), (-0.12683865, 0.99192345, 2.6994138e-8), (-0.44747415, 0.894297, 1.0080175e-7), (-0.06134659, 0.99811655, 1.046639e-8), (0, 1, 0), (-0.12683865, 0.99192345, 2.6994138e-8), (0, 1, 0), (0, 1, 0), (0, 1, 0), (0, 1, 0), (0, 1, 0), (-0.06134659, 0.99811655, 1.046639e-8), (0, 1, 0), (0, 1, 0), (0, 0.9959003, 0.090459116), (-0.44747415, 0.894297, 1.0080175e-7), (-0.12525535, 0.9882125, 0.088018306), (-0.06134659, 0.99811655, 1.046639e-8), (-0.12525535, 0.9882125, 0.088018306), (-0.44747415, 0.894297, 1.0080175e-7), (-0.526052, 0.84775114, 0.06773026), (-0.3970321, 0.8126472, 0.4265794), (-0.12525535, 0.9882125, 0.088018306), (-0.526052, 0.84775114, 0.06773026), (-0.07561159, 0.91755086, 0.3903632), (-0.12525535, 0.9882125, 0.088018306), (-0.3970321, 0.8126472, 0.4265794), (-0.06134659, 0.99811655, 1.046639e-8), (0, 0.99590003, 0.090461336), (0, 1, 0), (0, 0.99590003, 0.090461336), (-0.06134659, 0.99811655, 1.046639e-8), (-0.12525535, 0.9882125, 0.088018306), (0, 0.99590003, 0.090461336), (0, 0.9959003, 0.090459116), (0, 1, 0), (-0.07561159, 0.91755086, 0.3903632), (0, 0.99590003, 0.090461336), (-0.12525535, 0.9882125, 0.088018306), (0, 0.93091804, 0.36522847), (0, 0.9959003, 0.090459116), (0, 0.99590003, 0.090461336), (0, 0.99590003, 0.090461336), (-0.07561159, 0.91755086, 0.3903632), (0, 0.93091804, 0.36522847), (0.5313723, -0.84203327, 0.0928629), (0.8934792, -0.4491047, -1.5239459e-7), (0.91746485, -0.39115503, 0.07249957), (0.8934792, -0.4491047, -1.5239459e-7), (0.5313723, -0.84203327, 0.0928629), (0.5365816, -0.84384847, -1.1198415e-7), (0.5365816, -0.84384847, -1.1198415e-7), (0.8935119, -0.44903958, -1.7186503e-7), (0.8934792, -0.4491047, -1.5239459e-7), (0.8935119, -0.44903958, -1.7186503e-7), (0.53133357, -0.8420578, -0.092862286), (0.9174841, -0.39111024, -0.072497815), (0.0920309, -0.9917906, 0.08877932), (0.5365816, -0.84384847, -1.1198415e-7), (0.5313723, -0.84203327, 0.0928629), (0.34728158, -0.8500057, 0.39608845), (0.0920309, -0.9917906, 0.08877932), (0.5313723, -0.84203327, 0.0928629), (0.0703567, -0.84811896, 0.52511364), (0.0920309, -0.9917906, 0.08877932), (0.34728158, -0.8500057, 0.39608845), (5.254076e-7, -0.8477071, 0.53046465), (0.0920309, -0.9917906, 0.08877932), (0.0703567, -0.84811896, 0.52511364), (0.8935119, -0.44903958, -1.7186503e-7), (0.5365816, -0.84384847, -1.1198415e-7), (0.3590822, -0.933306, -8.651624e-8), (0.3590822, -0.933306, -8.651624e-8), (0.53133357, -0.8420578, -0.092862286), (0.8935119, -0.44903958, -1.7186503e-7), (0.5365816, -0.84384847, -1.1198415e-7), (0.0920309, -0.9917906, 0.08877932), (0.12693836, -0.99191064, -3.7640657e-8), (0.12693836, -0.99191064, -3.7640657e-8), (0.3590822, -0.933306, -8.651624e-8), (0.5365816, -0.84384847, -1.1198415e-7), (0.0920309, -0.9917906, 0.08877932), (5.254076e-7, -0.8477071, 0.53046465), (2.1508461e-7, -0.99239236, 0.12311621), (6.176327e-7, -0.9309231, 0.36521533), (2.1508461e-7, -0.99239236, 0.12311621), (5.254076e-7, -0.8477071, 0.53046465), (0.0920309, -0.9917906, 0.08877932), (0, -1, 0), (0.12693836, -0.99191064, -3.7640657e-8), (0.0920309, -0.9917906, 0.08877932), (2.1508461e-7, -0.99239236, 0.12311621), (0, -1, 0), (0.3590822, -0.933306, -8.651624e-8), (0.12693836, -0.99191064, -3.7640657e-8), (0.061387885, -0.998114, -1.5710151e-8), (0, -1, 0), (0.061387885, -0.998114, -1.5710151e-8), (0.12693836, -0.99191064, -3.7640657e-8), (2.1508461e-7, -0.99239236, 0.12311621), (6.176327e-7, -0.9309231, 0.36521533), (9.956654e-8, -0.9981906, 0.06012978), (9.956654e-8, -0.9981906, 0.06012978), (0, -1, 0), (2.1508461e-7, -0.99239236, 0.12311621), (-0.07567162, -0.917551, 0.39035136), (9.956654e-8, -0.9981906, 0.06012978), (6.176327e-7, -0.9309231, 0.36521533), (0.061387885, -0.998114, -1.5710151e-8), (0, -1, 0), (0, -1, 0), (9.956654e-8, -0.9981906, 0.06012978), (-0.07567162, -0.917551, 0.39035136), (-0.12526351, -0.9882121, 0.08801095), (-0.07567162, -0.917551, 0.39035136), (-0.36560464, -0.8323672, 0.416531), (-0.12526351, -0.9882121, 0.08801095), (-0.36560464, -0.8323672, 0.416531), (-0.5260521, -0.84775007, 0.067742005), (-0.12526351, -0.9882121, 0.08801095), (-0.12526351, -0.9882121, 0.08801095), (-0.5260521, -0.84775007, 0.067742005), (-0.359198, -0.93326145, 5.4424643e-8), (0, -1, 0), (9.956654e-8, -0.9981906, 0.06012978), (0, -1, 0), (0, -1, 0), (0, -1, 0), (0, -1, 0), (-0.12526351, -0.9882121, 0.08801095), (-0.061346587, -0.99811655, 1.04663895e-8), (9.956654e-8, -0.9981906, 0.06012978), (9.956654e-8, -0.9981906, 0.06012978), (-0.061346587, -0.99811655, 1.04663895e-8), (0, -1, 0), (-0.12526351, -0.9882121, 0.08801095), (-0.359198, -0.93326145, 5.4424643e-8), (-0.061346587, -0.99811655, 1.04663895e-8), (-0.061346587, -0.99811655, 1.04663895e-8), (0, -1, 0), (0, -1, 0), (0, -1, 0), (0, -1, 0), (0, -1, 0), (-0.359198, -0.93326145, 5.4424643e-8), (-0.12685806, -0.9919209, 1.3799112e-8), (-0.061346587, -0.99811655, 1.04663895e-8), (0, -1, 0), (-0.061346587, -0.99811655, 1.04663895e-8), (-0.12685806, -0.9919209, 1.3799112e-8), (-0.12685806, -0.9919209, 1.3799112e-8), (-0.359198, -0.93326145, 5.4424643e-8), (-0.5371804, -0.84346735, 8.434077e-8), (0, -1, 0), (2.3710723e-7, -0.99589825, -0.09048103), (0, -1, 0), (-0.12685806, -0.9919209, 1.3799112e-8), (-0.5371804, -0.84346735, 8.434077e-8), (-0.12528208, -0.9882079, -0.088031836), (-0.5371804, -0.84346735, 8.434077e-8), (-0.5260444, -0.8477539, -0.06775436), (-0.12528208, -0.9882079, -0.088031836), (-0.12528208, -0.9882079, -0.088031836), (-0.5260444, -0.8477539, -0.06775436), (-0.39708036, -0.81262267, -0.42658153), (-0.12528208, -0.9882079, -0.088031836), (-0.39708036, -0.81262267, -0.42658153), (-0.07564032, -0.917547, -0.3903666), (0, -1, 0), (-0.12685806, -0.9919209, 1.3799112e-8), (4.4946358e-7, -0.9958984, -0.090478964), (-0.12685806, -0.9919209, 1.3799112e-8), (-0.12528208, -0.9882079, -0.088031836), (4.4946358e-7, -0.9958984, -0.090478964), (-0.07564032, -0.917547, -0.3903666), (4.4946358e-7, -0.9958984, -0.090478964), (-0.12528208, -0.9882079, -0.088031836), (2.3710723e-7, -0.99589825, -0.09048103), (0, -1, 0), (4.4946358e-7, -0.9958984, -0.090478964), (4.4946358e-7, -0.9958984, -0.090478964), (-0.07564032, -0.917547, -0.3903666), (3.70597e-7, -0.93091744, -0.3652298), (3.70597e-7, -0.93091744, -0.3652298), (2.3710723e-7, -0.99589825, -0.09048103), (4.4946358e-7, -0.9958984, -0.090478964), (-0.09627866, -0.53115886, -0.8417843), (3.70597e-7, -0.93091744, -0.3652298), (-0.07564032, -0.917547, -0.3903666), (3.70597e-7, -0.93091744, -0.3652298), (-0.09627866, -0.53115886, -0.8417843), (0.0000031523255, -0.53044116, -0.8477218), (0.0000031523255, -0.53044116, -0.8477218), (0.0000011820814, -0.8477432, -0.5304071), (3.70597e-7, -0.93091744, -0.3652298), (2.3710723e-7, -0.99589825, -0.09048103), (3.70597e-7, -0.93091744, -0.3652298), (0.0000011820814, -0.8477432, -0.5304071), (0.0000011820814, -0.8477432, -0.5304071), (0.0000031523255, -0.53044116, -0.8477218), (0.0000029648438, -0.3651951, -0.9309311), (0.07035496, -0.84813696, -0.5250847), (0.0000029648438, -0.3651951, -0.9309311), (0.021528892, -0.3804518, -0.9245501), (0.0000029648438, -0.3651951, -0.9309311), (0.07035496, -0.84813696, -0.5250847), (0.0000011820814, -0.8477432, -0.5304071), (0.0000011820814, -0.8477432, -0.5304071), (0.09204428, -0.9917879, -0.08879615), (2.3710723e-7, -0.99589825, -0.09048103), (0.09204428, -0.9917879, -0.08879615), (0.0000011820814, -0.8477432, -0.5304071), (0.07035496, -0.84813696, -0.5250847), (0.09204428, -0.9917879, -0.08879615), (0, -1, 0), (2.3710723e-7, -0.99589825, -0.09048103), (0.3472546, -0.8500172, -0.39608723), (0.09204428, -0.9917879, -0.08879615), (0.07035496, -0.84813696, -0.5250847), (0, -1, 0), (0.09204428, -0.9917879, -0.08879615), (0.061387885, -0.998114, -1.5710151e-8), (0.09204428, -0.9917879, -0.08879615), (0.3472546, -0.8500172, -0.39608723), (0.53133357, -0.8420578, -0.092862286), (0.3590822, -0.933306, -8.651624e-8), (0.061387885, -0.998114, -1.5710151e-8), (0.09204428, -0.9917879, -0.08879615), (0.3590822, -0.933306, -8.651624e-8), (0.09204428, -0.9917879, -0.08879615), (0.53133357, -0.8420578, -0.092862286)] (
        interpolation = "faceVarying"
    )
    point3f[] points = [(-0.009555839, 0.3388886, 0.4488406), (-0.009889701, 0.3391972, 0.4484457), (-0.009889168, 0.3388886, 0.44850734), (-0.009556716, 0.33938235, 0.448742), (-0.009001297, 0.33944407, 0.4488406), (-0.009557213, 0.33967865, 0.4484457), (-0.009001869, 0.3397774, 0.44850734), (-0.009557327, 0.3397774, 0.44795182), (-0.009889969, 0.33938235, 0.4482605), (-0.009890083, 0.33944407, 0.44795182), (0.009490563, 0.3391972, 0.4488406), (0.009886527, 0.3388886, 0.44850734), (0.009786278, 0.33938235, 0.44850734), (0.009553238, 0.3388886, 0.4488406), (0.009551025, 0.3397774, 0.44795182), (0.009489533, 0.33967865, 0.44850734), (0.009884887, 0.33944407, 0.44795182), (0.0089967875, 0.33944407, 0.4488406), (0.00930513, 0.33938235, 0.4488406), (0.008996254, 0.3397774, 0.44850734), (-0.009889853, 0.33919722, -0.44844523), (-0.00955603, 0.33888862, -0.44884035), (-0.0098893205, 0.33888862, -0.44850686), (-0.009556869, 0.33938238, -0.44874156), (-0.009001488, 0.3394441, -0.44884035), (-0.009557365, 0.33967867, -0.44844523), (-0.0090020215, 0.3397774, -0.44850686), (-0.009557555, 0.3397774, -0.44795153), (-0.009890121, 0.33938238, -0.44825998), (-0.009890236, 0.3394441, -0.44795153), (0.009886376, 0.33888865, -0.44850695), (0.00949041, 0.33919722, -0.44884035), (0.009786125, 0.33938238, -0.44850695), (0.009553047, 0.33888865, -0.44884035), (0.009884735, 0.3394441, -0.44795153), (0.009550872, 0.3397774, -0.44795153), (0.00948938, 0.33967867, -0.44850695), (0.008996063, 0.3397774, -0.44850695), (0.009304939, 0.33938238, -0.44884035), (0.008996636, 0.3394441, -0.44884035), (-0.009555978, -0.33888912, 0.44884068), (-0.00988984, -0.33919773, 0.4484456), (-0.009556855, -0.3393829, 0.44874188), (-0.009889306, -0.33888912, 0.44850743), (-0.0090013975, -0.3394446, 0.44884068), (-0.009557313, -0.33967918, 0.4484456), (-0.009002008, -0.33977795, 0.44850743), (-0.009890107, -0.3393829, 0.44826046), (-0.009890222, -0.3394446, 0.44795188), (-0.009557466, -0.33977795, 0.44795188), (0.0094903475, -0.33919773, 0.44884068), (0.009886275, -0.33888915, 0.4485074), (0.009553024, -0.33888915, 0.44884068), (0.009786063, -0.3393829, 0.4485074), (0.009489317, -0.33967918, 0.4485074), (0.009550772, -0.33977795, 0.44795185), (0.009884634, -0.3394446, 0.44795185), (0.008996572, -0.3394446, 0.44884068), (0.008996039, -0.33977795, 0.4485074), (0.009304876, -0.3393829, 0.44884068), (0.008370619, -0.3394446, 0.44884068), (0.008370085, -0.33977795, 0.4485074), (-0.009556169, -0.33888912, -0.44884035), (-0.009889993, -0.33919773, -0.44844523), (-0.009889458, -0.33888912, -0.44850695), (-0.009557008, -0.3393829, -0.44874156), (-0.009557466, -0.33967915, -0.44844523), (-0.009001627, -0.3394446, -0.44884035), (-0.00900216, -0.33977792, -0.44850695), (-0.009557657, -0.33977792, -0.44795153), (-0.00989026, -0.3393829, -0.44825998), (-0.009890375, -0.3394446, -0.44795153), (0.009550619, -0.33977792, -0.44795144), (0.00978591, -0.3393829, -0.44850695), (0.009884481, -0.3394446, -0.44795144), (0.009489165, -0.33967915, -0.44850695), (0.008995848, -0.33977792, -0.44850695), (0.0093046855, -0.3393829, -0.44884026), (0.008996421, -0.3394446, -0.44884026), (-0.010000251, 0.3388886, 0.44795182), (-0.009998726, 0.33799314, 0.44795182), (-0.0098876795, 0.33799314, 0.44850734), (-0.010000251, 0.3388886, 0.44728452), (-0.009890083, 0.33944407, 0.44728452), (-0.009557327, 0.3397774, 0.44728452), (-0.009890236, 0.3394441, -0.44728404), (-0.009557555, 0.3397774, -0.44728404), (-0.010000442, 0.33888865, -0.44728404), (-0.010000442, 0.33888865, -0.44795153), (-0.009998955, 0.3379932, -0.44728404), (-0.009998955, 0.3379932, -0.44795153), (-0.009887832, 0.3379932, -0.44850686), (-0.009554543, 0.3379932, -0.44884035), (-0.0099990545, -0.33799365, -0.44728404), (-0.009887933, -0.33799365, -0.44850695), (-0.00955468, -0.33799365, -0.44884035), (-0.0099990545, -0.33799365, -0.44795153), (-0.010000581, -0.33888912, -0.44795153), (-0.010000581, -0.33888912, -0.44728404), (-0.009890375, -0.3394446, -0.44728404), (-0.009557657, -0.33977792, -0.44728404), (-0.009998864, -0.33799374, 0.44728443), (-0.009890222, -0.3394446, 0.44728443), (-0.009557466, -0.33977795, 0.44728443), (-0.010000352, -0.33888915, 0.44728443), (-0.010000352, -0.33888915, 0.44795188), (-0.009998864, -0.33799374, 0.44795188), (-0.00988778, -0.33799374, 0.44850743), (-0.009998726, 0.33799314, 0.44728452), (0.008997703, 0.3388886, 0.44895184), (0.00837175, 0.3388886, 0.44895184), (0.008999229, 0.3379932, 0.44895184), (0.008370834, 0.33944407, 0.4488406), (0.0083703, 0.3397774, 0.44850734), (0.008373237, 0.3379932, 0.44895184), (-0.008375305, 0.33944407, 0.4488406), (-0.008375916, 0.3397774, 0.44850734), (-0.008374389, 0.3388886, 0.44895184), (-0.008372902, 0.3379932, 0.44895184), (-0.009000343, 0.3388886, 0.44895184), (-0.008998855, 0.3379932, 0.44895184), (-0.00955439, 0.33799314, 0.4488406), (-0.009554528, -0.33799374, 0.44884068), (-0.008998994, -0.33799374, 0.44895172), (-0.009000481, -0.33888912, 0.44895172), (-0.008376016, -0.33977795, 0.44850743), (-0.0083754435, -0.3394446, 0.44884068), (-0.008374528, -0.33888912, 0.44895172), (0.008371535, -0.33888912, 0.4489517), (-0.00837304, -0.33799374, 0.44895172), (0.008373023, -0.33799377, 0.4489517), (0.008997489, -0.33888912, 0.4489517), (0.008998977, -0.33799377, 0.4489517), (0.009554511, -0.3379938, 0.44884068), (0.009554725, 0.33799323, 0.4488406), (0.009887801, -0.3379938, 0.4485074), (0.009888016, 0.33799323, 0.44850734), (0.008997551, 0.33888862, -0.44895136), (0.008371597, 0.33888862, -0.44895136), (0.008370682, 0.3394441, -0.44884035), (0.008999077, 0.33799326, -0.44895136), (0.009554535, 0.33799326, -0.44884035), (0.00955432, -0.33799374, -0.44884026), (0.0083730845, 0.33799326, -0.44895136), (0.008998824, -0.33799374, -0.44895136), (0.0095527945, -0.33888912, -0.44884026), (-0.008373093, 0.3379932, -0.44895136), (0.008997336, -0.33888912, -0.44895136), (0.009490195, -0.33919773, -0.44884026), (0.00837287, -0.33799374, -0.44895136), (0.008371383, -0.33888912, -0.44895136), (0.0083704665, -0.3394446, -0.44884026), (-0.008373231, -0.33799368, -0.44895136), (-0.00837468, -0.33888912, -0.44895136), (-0.008375634, -0.3394446, -0.44884035), (-0.008999008, 0.3379932, -0.44895136), (-0.009000634, -0.33888912, -0.44895136), (-0.0089991465, -0.33799368, -0.44895136), (-0.009000496, 0.33888862, -0.44895136), (-0.008375534, 0.3394441, -0.44884035), (-0.008374618, 0.33888862, -0.44895136), (0.009886122, -0.33888912, -0.44850695), (0.009887649, -0.33799374, -0.44850695), (0.009997398, -0.33888915, 0.44795185), (0.009998885, -0.33799377, 0.44795185), (0.009997398, -0.33888915, 0.44728455), (0.009884634, -0.3394446, 0.44728455), (0.009884481, -0.3394446, -0.4472841), (0.009998885, -0.33799377, 0.44728455), (0.009997207, -0.33888912, -0.4472841), (0.009999099, 0.3379932, 0.44795182), (0.009997207, -0.33888912, -0.44795144), (0.009998732, -0.33799374, -0.4472841), (0.009998732, -0.33799374, -0.44795144), (0.009999099, 0.3379932, 0.44728446), (0.009998947, 0.33799326, -0.4472841), (0.009998947, 0.33799326, -0.44795153), (0.00999765, 0.3388886, 0.44795182), (0.00999765, 0.3388886, 0.44728446), (0.009884887, 0.33944407, 0.44728446), (0.009997459, 0.33888865, -0.4472841), (0.009884735, 0.3394441, -0.4472841), (0.009997459, 0.33888865, -0.44795153), (0.009887863, 0.33799326, -0.44850695), (0.009551025, 0.3397774, 0.44728446), (0.008996063, 0.33988848, 0.44795182), (0.009550872, 0.3397774, -0.4472841), (0.008996063, 0.33988848, 0.44728446), (0.00837011, 0.33988848, 0.44795182), (0.00837011, 0.33988848, 0.44728446), (0.008995872, 0.33988848, -0.4472841), (0.008995872, 0.33988848, -0.44795153), (0.00837011, 0.3397774, -0.44850695), (0.008369919, 0.33988848, -0.4472841), (0.008369919, 0.33988848, -0.44795153), (-0.0083760675, 0.3397774, -0.44850686), (-0.008376258, 0.33988848, -0.44795153), (-0.009002212, 0.33988848, -0.44795153), (-0.009002212, 0.33988848, -0.44728404), (-0.008376258, 0.33988848, -0.44728404), (-0.00900206, 0.33988848, 0.44728452), (-0.008376106, 0.33988848, 0.44728452), (-0.00900206, 0.33988848, 0.44795182), (-0.008376106, 0.33988848, 0.44795182), (0.009550772, -0.33977795, 0.44728455), (0.008995848, -0.33988902, 0.44795185), (0.009550619, -0.33977792, -0.4472841), (0.008995848, -0.33988902, 0.44728455), (0.008369895, -0.33988902, 0.44795185), (0.008369895, -0.33988902, 0.44728455), (0.008995619, -0.33988902, -0.4472841), (-0.008376244, -0.33988902, 0.44795188), (0.008369666, -0.33988902, -0.4472841), (-0.009002198, -0.33988902, 0.44795188), (-0.008376244, -0.33988902, 0.44728443), (-0.009002198, -0.33988902, 0.44728443), (-0.008376397, -0.33988902, -0.44728404), (-0.009002351, -0.33988902, -0.44728404), (0.008369666, -0.33988902, -0.44795144), (-0.009002351, -0.33988902, -0.44795153), (-0.008376397, -0.33988902, -0.44795153), (-0.008376169, -0.33977792, -0.44850695), (0.0083698565, -0.33977792, -0.44850695), (0.008995619, -0.33988902, -0.44795144)]
}

