#usda 1.0
(
    defaultPrim = "SM_Lobby_Wall_01"
    upAxis = "Z"
)

def Mesh "SM_Lobby_Wall_01"
{
    int[] faceVertexCounts = [3, 3, 3, 3, 3, 3, 3, 3, 3, 3, 3, 3, 3, 3, 3, 3, 3, 3, 3, 3, 3, 3, 3, 3, 3, 3, 3, 3, 3, 3, 3, 3, 3, 3, 3, 3, 3, 3, 3, 3, 3, 3, 3, 3, 3, 3, 3, 3, 3, 3, 3, 3]
    int[] faceVertexIndices = [0, 1, 2, 1, 0, 3, 2, 4, 0, 4, 2, 5, 6, 7, 8, 6, 8, 9, 3, 10, 1, 1, 10, 11, 12, 13, 14, 13, 15, 14, 14, 15, 16, 2, 16, 5, 14, 16, 2, 1, 14, 2, 14, 1, 17, 18, 1, 11, 1, 18, 17, 17, 18, 19, 17, 20, 21, 19, 20, 17, 22, 20, 19, 22, 19, 23, 24, 22, 23, 23, 25, 24, 26, 27, 28, 26, 28, 29, 30, 31, 32, 30, 32, 33, 34, 30, 33, 34, 33, 35, 34, 36, 37, 36, 34, 35, 19, 38, 23, 38, 19, 39, 28, 27, 10, 10, 40, 28, 41, 26, 29, 26, 41, 42, 38, 42, 41, 42, 38, 39, 16, 15, 31, 16, 31, 30, 30, 5, 16, 30, 34, 5, 37, 5, 34, 5, 37, 4, 42, 39, 19, 19, 18, 42, 11, 42, 18, 42, 11, 26, 11, 27, 26, 11, 10, 27]
    normal3f[] normals = [(0.22821413, -0.9120255, -0.3407753), (0.96755964, 0.251413, -0.024896938), (0.96755964, 0.251413, -0.024896938), (0.96755964, 0.251413, -0.024896938), (0.22821413, -0.9120255, -0.3407753), (0.108381934, -0.32403845, 0.9398151), (0.96755964, 0.251413, -0.024896938), (-0.10838194, 0.32403848, -0.9398151), (0.22821413, -0.9120255, -0.3407753), (-0.10838194, 0.32403848, -0.9398151), (0.96755964, 0.251413, -0.024896938), (0.96755964, 0.251413, -0.024896938), (0.1083818, -0.32403865, 0.93981504), (0.1083818, -0.32403865, 0.93981504), (0.1083818, -0.32403865, 0.93981504), (0.1083818, -0.32403865, 0.93981504), (0.1083818, -0.32403865, 0.93981504), (0.1083818, -0.32403865, 0.93981504), (0.108381934, -0.32403845, 0.9398151), (0.108381934, -0.32403845, 0.9398151), (0.96755964, 0.251413, -0.024896938), (0.96755964, 0.251413, -0.024896938), (0.108381934, -0.32403845, 0.9398151), (0.96755964, 0.251413, -0.024896938), (0.10838198, -0.3240386, 0.93981504), (0.108382024, -0.32403854, 0.93981504), (0.108381994, -0.3240385, 0.9398151), (0.108382024, -0.32403854, 0.93981504), (0.108382, -0.3240385, 0.9398151), (0.108381994, -0.3240385, 0.9398151), (0.108381994, -0.3240385, 0.9398151), (0.108382, -0.3240385, 0.9398151), (0.10838195, -0.32403848, 0.9398151), (0.96755964, 0.251413, -0.024896938), (0.10838195, -0.32403848, 0.9398151), (0.96755964, 0.251413, -0.024896938), (0.108381994, -0.3240385, 0.9398151), (0.10838195, -0.32403848, 0.9398151), (0.96755964, 0.251413, -0.024896938), (0.96755964, 0.251413, -0.024896938), (0.108381994, -0.3240385, 0.9398151), (0.96755964, 0.251413, -0.024896938), (0.108381994, -0.3240385, 0.9398151), (0.96755964, 0.251413, -0.024896938), (0.96755964, 0.251413, -0.024896938), (0.96755964, 0.251413, -0.024896938), (0.96755964, 0.251413, -0.024896938), (0.96755964, 0.251413, -0.024896938), (0.96755964, 0.251413, -0.024896938), (0.96755964, 0.251413, -0.024896938), (0.96755964, 0.251413, -0.024896938), (0.96755964, 0.251413, -0.024896938), (0.96755964, 0.251413, -0.024896938), (0.96755964, 0.251413, -0.024896938), (0.96755964, 0.251413, -0.024896938), (0.96755964, 0.251413, -0.024896938), (0.96755964, 0.251413, -0.024896938), (0.96755964, 0.251413, -0.024896938), (0.96755964, 0.251413, -0.024896938), (0.96755964, 0.251413, -0.024896938), (0.96755964, 0.251413, -0.024896938), (0.96755964, 0.251413, -0.024896938), (0.96755964, 0.251413, -0.024896938), (0.96755964, 0.251413, -0.024896938), (0.96755964, 0.251413, -0.024896938), (0.96755964, 0.251413, -0.024896938), (0.96755964, 0.251413, -0.024896938), (0.96755964, 0.251413, -0.024896938), (0.96755964, 0.251413, -0.024896938), (0.96755964, 0.251413, -0.024896938), (0.96755964, 0.251413, -0.024896938), (0.96755964, 0.251413, -0.024896938), (0.96755964, 0.251413, -0.024896938), (0.10838198, -0.3240386, 0.93981504), (0.10838198, -0.3240386, 0.93981504), (0.96755964, 0.251413, -0.024896938), (0.10838198, -0.3240386, 0.93981504), (0.96755964, 0.251413, -0.024896938), (0.10838198, -0.3240386, 0.93981504), (0.10838198, -0.3240386, 0.93981504), (0.10838198, -0.3240386, 0.93981504), (0.10838198, -0.3240386, 0.93981504), (0.10838198, -0.3240386, 0.93981504), (0.10838198, -0.3240386, 0.93981504), (0.96755964, 0.251413, -0.024896938), (0.10838198, -0.3240386, 0.93981504), (0.10838198, -0.3240386, 0.93981504), (0.96755964, 0.251413, -0.024896938), (0.10838198, -0.3240386, 0.93981504), (0.96755964, 0.251413, -0.024896938), (0.96755964, 0.251413, -0.024896938), (-0.10838198, 0.3240386, -0.93981504), (-0.10838198, 0.3240386, -0.93981504), (-0.10838198, 0.3240386, -0.93981504), (0.96755964, 0.251413, -0.024896938), (0.96755964, 0.251413, -0.024896938), (0.96755964, 0.251413, -0.024896938), (0.96755964, 0.251413, -0.024896938), (0.96755964, 0.251413, -0.024896938), (0.96755964, 0.251413, -0.024896938), (0.96755964, 0.251413, -0.024896938), (0.96755964, 0.251413, -0.024896938), (0.10838198, -0.3240386, 0.93981504), (0.10838198, -0.3240386, 0.93981504), (0.108381934, -0.32403845, 0.9398151), (0.108381934, -0.32403845, 0.9398151), (-0.96755964, -0.251413, 0.024896938), (0.10838198, -0.3240386, 0.93981504), (0.96755964, 0.251413, -0.024896938), (0.96755964, 0.251413, -0.024896938), (0.96755964, 0.251413, -0.024896938), (0.96755964, 0.251413, -0.024896938), (0.96755964, 0.251413, -0.024896938), (0.96755964, 0.251413, -0.024896938), (0.96755964, 0.251413, -0.024896938), (0.96755964, 0.251413, -0.024896938), (0.96755964, 0.251413, -0.024896938), (0.96755964, 0.251413, -0.024896938), (0.96755964, 0.251413, -0.024896938), (0.96755964, 0.251413, -0.024896938), (0.10838195, -0.32403848, 0.9398151), (0.108382, -0.3240385, 0.9398151), (0.10838198, -0.3240386, 0.93981504), (0.10838195, -0.32403848, 0.9398151), (0.10838198, -0.3240386, 0.93981504), (0.10838198, -0.3240386, 0.93981504), (0.10838198, -0.3240386, 0.93981504), (0.96755964, 0.251413, -0.024896938), (0.10838195, -0.32403848, 0.9398151), (0.10838198, -0.3240386, 0.93981504), (0.96755964, 0.251413, -0.024896938), (0.96755964, 0.251413, -0.024896938), (-0.10838198, 0.3240386, -0.93981504), (0.96755964, 0.251413, -0.024896938), (0.96755964, 0.251413, -0.024896938), (0.96755964, 0.251413, -0.024896938), (-0.10838198, 0.3240386, -0.93981504), (-0.10838194, 0.32403848, -0.9398151), (0.96755964, 0.251413, -0.024896938), (0.96755964, 0.251413, -0.024896938), (0.96755964, 0.251413, -0.024896938), (0.96755964, 0.251413, -0.024896938), (0.96755964, 0.251413, -0.024896938), (0.96755964, 0.251413, -0.024896938), (0.96755964, 0.251413, -0.024896938), (0.96755964, 0.251413, -0.024896938), (0.96755964, 0.251413, -0.024896938), (0.96755964, 0.251413, -0.024896938), (0.96755964, 0.251413, -0.024896938), (0.96755964, 0.251413, -0.024896938), (0.96755964, 0.251413, -0.024896938), (0.10838198, -0.3240386, 0.93981504), (0.96755964, 0.251413, -0.024896938), (0.96755964, 0.251413, -0.024896938), (0.108381934, -0.32403845, 0.9398151), (0.10838198, -0.3240386, 0.93981504)] (
        interpolation = "faceVarying"
    )
    point3f[] points = [(0.10884392, -0.23795305, 0.7000207), (0.08517132, 0.51981974, -1.3438789), (0.3202519, -0.1830203, 0.6945808), (-0.12623668, 0.46488696, -1.338439), (0.8450038, -3.1799119, -0.39923197), (1.0564119, -3.1249793, -0.40467194), (2.2388053, 2.930614, 2.0185502), (-0.2828101, 2.2753918, 2.083435), (0.24179916, 0.17886506, 1.3000749), (2.7634146, 0.83408743, 1.2351899), (0.6099233, -2.4770722, -2.4376917), (0.8213313, -2.4221396, -2.4431317), (-0.28281003, 2.2753916, 2.0834355), (-2.3411295, 1.740553, 2.1363995), (0.24179904, 0.17886555, 1.3000755), (-0.9538643, -3.8034592, 0.064898394), (1.1044558, -3.2686205, 0.011934354), (-0.15877537, 1.376496, -2.1734366), (0.7225933, -2.1269343, -3.29932), (0.7141543, -2.1017034, -3.3724973), (-1.2041272, 5.02993, -5.9056025), (-0.68338466, 3.473023, -1.3900763), (0.5345886, -1.9186015, -8.501897), (0.73697567, -2.1929057, -3.4065747), (1.083966, -3.561121, -3.7380679), (0.74541473, -2.2181368, -3.3333976), (0.83209074, -2.4228659, -2.4339824), (0.61100715, -2.4803126, -2.4282935), (0.6338286, -2.5715153, -2.462371), (0.85491216, -2.5140686, -2.46806), (1.1152153, -3.2693467, 0.021083752), (-0.9527804, -3.8066995, 0.074296765), (-0.92995906, -3.897902, 0.040219262), (1.1380367, -3.3605492, -0.012993747), (1.0650036, -3.1192248, -0.41431904), (1.0878251, -3.2104273, -0.44839653), (0.86674136, -3.267874, -0.4427076), (0.84392, -3.1766715, -0.4086301), (0.74665123, -2.1903915, -3.4068236), (0.72382987, -2.0991893, -3.3727462), (0.6327448, -2.568275, -2.4717693), (0.7550903, -2.2156227, -3.3336465), (0.7322689, -2.1244202, -3.299569)]
}

