#usda 1.0
(
    defaultPrim = "SM_Lobby_Doorelement_01"
    upAxis = "Z"
)

def Mesh "SM_Lobby_Doorelement_01"
{
    int[] faceVertexCounts = [3, 3, 3, 3, 3, 3, 3, 3, 3, 3, 3, 3, 3, 3, 3, 3, 3, 3, 3, 3, 3, 3, 3, 3, 3, 3, 3, 3, 3, 3, 3, 3, 3, 3, 3, 3, 3, 3, 3, 3, 3, 3, 3, 3, 3, 3, 3, 3, 3, 3, 3, 3]
    int[] faceVertexIndices = [0, 1, 2, 3, 2, 1, 4, 5, 6, 4, 6, 7, 7, 3, 4, 4, 3, 1, 5, 0, 6, 6, 0, 2, 2, 3, 8, 2, 8, 9, 10, 3, 7, 3, 10, 8, 11, 7, 6, 7, 11, 10, 11, 2, 9, 2, 11, 6, 1, 0, 12, 1, 12, 13, 14, 0, 5, 0, 14, 12, 15, 5, 4, 5, 15, 14, 15, 1, 13, 1, 15, 4, 13, 12, 16, 13, 16, 17, 18, 19, 9, 18, 9, 8, 17, 20, 15, 15, 13, 17, 21, 8, 10, 8, 21, 18, 20, 22, 14, 20, 14, 15, 10, 11, 23, 10, 23, 21, 22, 12, 14, 12, 22, 16, 19, 23, 11, 11, 9, 19, 17, 16, 19, 17, 19, 18, 18, 21, 20, 20, 17, 18, 21, 23, 22, 21, 22, 20, 23, 16, 22, 16, 23, 19, 24, 25, 26, 26, 25, 27, 28, 29, 30, 30, 29, 31]
    normal3f[] normals = [(1, 0, 0), (1, 0, 0), (-1, 0, 0), (-1, 0, 0), (-1, 0, 0), (1, 0, 0), (0, 0, 1), (1, 0, 0), (0, 0, 1), (0, 0, 1), (0, 0, 1), (-1, 0, 0), (-1, 0, 0), (-1, 0, 0), (0, 0, 1), (0, 0, 1), (-1, 0, 0), (1, 0, 0), (1, 0, 0), (1, 0, 0), (0, 0, 1), (0, 0, 1), (1, 0, 0), (-1, 0, 0), (-1, 0, 0), (-1, 0, 0), (-1, 0, 0), (-1, 0, 0), (-1, 0, 0), (-1, 0, 0), (-1, 0, 0), (-1, 0, 0), (-1, 0, 0), (-1, 0, 0), (-1, 0, 0), (-1, 0, 0), (-1, 0, 0), (-1, 0, 0), (0, 0, 1), (-1, 0, 0), (-1, 0, 0), (-1, 0, 0), (-1, 0, 0), (-1, 0, 0), (-1, 0, 0), (-1, 0, 0), (-1, 0, 0), (0, 0, 1), (1, 0, 0), (1, 0, 0), (1, 0, 0), (1, 0, 0), (1, 0, 0), (1, 0, 0), (1, 0, 0), (1, 0, 0), (1, 0, 0), (1, 0, 0), (1, 0, 0), (1, 0, 0), (1, 0, 0), (1, 0, 0), (0, 0, 1), (1, 0, 0), (1, 0, 0), (1, 0, 0), (1, 0, 0), (1, 0, 0), (1, 0, 0), (1, 0, 0), (1, 0, 0), (0, 0, 1), (1, 0, 0), (1, 0, 0), (0, -1, 0), (1, 0, 0), (0, -1, 0), (0, 1, 0), (0, 1, 0), (0, -1, 0), (-1, 0, 0), (0, 1, 0), (-1, 0, 0), (-1, 0, 0), (0, 1, 0), (0, 1, 0), (1, 0, 0), (1, 0, 0), (1, 0, 0), (0, 1, 0), (0, 1, 0), (-1, 0, 0), (-1, 0, 0), (-1, 0, 0), (0, 1, 0), (0, 1, 0), (0, 1, 0), (0, -1, 0), (1, 0, 0), (0, 1, 0), (1, 0, 0), (1, 0, 0), (-1, 0, 0), (-1, 0, 0), (0, -1, 0), (-1, 0, 0), (0, -1, 0), (0, 1, 0), (0, -1, 0), (1, 0, 0), (1, 0, 0), (1, 0, 0), (0, -1, 0), (0, -1, 0), (0, -1, 0), (0, -1, 0), (-1, 0, 0), (-1, 0, 0), (-1, 0, 0), (0, -1, 0), (0, 1, 0), (0, -1, 0), (0, -1, 0), (0, 1, 0), (0, -1, 0), (0, 1, 0), (0, 1, 0), (0, 1, 0), (0, 1, 0), (0, 1, 0), (0, 1, 0), (0, 1, 0), (0, 1, 0), (0, -1, 0), (0, -1, 0), (0, 1, 0), (0, -1, 0), (0, 1, 0), (0, -1, 0), (0, -1, 0), (0, -1, 0), (0, -1, 0), (0, -1, 0), (0, -1, 0), (-1, 0, 0), (-1, 0, 0), (-1, 0, 0), (-1, 0, 0), (-1, 0, 0), (-1, 0, 0), (1, 0, 0), (1, 0, 0), (1, 0, 0), (1, 0, 0), (1, 0, 0), (1, 0, 0)] (
        interpolation = "faceVarying"
    )
    point3f[] points = [(0.031990614, 0.19739413, -1.1868105), (0.031990614, -0.19739413, -1.1868105), (-0.031990614, 0.19739413, -1.1868105), (-0.031990614, -0.19739413, -1.1868105), (0.031990614, -0.19739413, 1.1868106), (0.031990614, 0.19739413, 1.1868106), (-0.031990614, 0.19739413, 1.1868106), (-0.031990614, -0.19739413, 1.1868106), (-0.031990614, -0.096440695, -1.1039044), (-0.031990614, 0.096440695, -1.1039044), (-0.031990614, -0.096440695, 1.1039045), (-0.031990614, 0.096440695, 1.1039045), (0.031990614, 0.096440695, -1.1039044), (0.031990614, -0.096440695, -1.1039044), (0.031990614, 0.096440695, 1.1039045), (0.031990614, -0.096440695, 1.1039045), (0.010032253, 0.096440695, -1.1039044), (0.010032253, -0.096440695, -1.1039044), (-0.010032258, -0.096440695, -1.1039044), (-0.010032258, 0.096440695, -1.1039044), (0.010032253, -0.096440695, 1.1039045), (-0.010032258, -0.096440695, 1.1039045), (0.010032253, 0.096440695, 1.1039045), (-0.010032258, 0.096440695, 1.1039045), (-0.008148586, 0.096440695, 1.1039045), (-0.008148586, 0.096440695, -1.1039044), (-0.008148586, -0.096440695, 1.1039045), (-0.008148586, -0.096440695, -1.1039044), (0.008148586, -0.096440695, 1.1039045), (0.008148586, -0.096440695, -1.1039044), (0.008148586, 0.096440695, 1.1039045), (0.008148586, 0.096440695, -1.1039044)]
}

