#usda 1.0
(
    defaultPrim = "SM_Lobby_Lift_Walls"
    upAxis = "Z"
)

def Mesh "SM_Lobby_Lift_Walls"
{
    int[] faceVertexCounts = [3, 3, 3, 3, 3, 3, 3, 3, 3, 3, 3, 3, 3, 3, 3, 3, 3, 3, 3, 3, 3, 3, 3, 3, 3, 3, 3, 3, 3, 3, 3, 3, 3, 3, 3, 3, 3, 3, 3, 3, 3, 3, 3, 3, 3, 3, 3, 3]
    int[] faceVertexIndices = [0, 1, 2, 2, 3, 0, 4, 5, 6, 5, 4, 7, 8, 9, 10, 10, 11, 8, 7, 8, 11, 7, 11, 5, 12, 13, 14, 12, 14, 15, 15, 14, 16, 15, 16, 17, 18, 19, 13, 19, 14, 13, 14, 19, 20, 14, 20, 21, 14, 21, 16, 12, 10, 22, 10, 12, 15, 10, 15, 11, 11, 15, 17, 11, 17, 23, 19, 24, 2, 19, 18, 24, 18, 25, 24, 18, 22, 25, 22, 10, 25, 25, 10, 6, 4, 9, 8, 4, 8, 7, 26, 27, 28, 27, 26, 29, 9, 6, 10, 6, 9, 4, 28, 20, 19, 20, 28, 27, 29, 26, 30, 30, 31, 29, 1, 31, 30, 31, 1, 0, 19, 2, 1, 19, 1, 30, 19, 30, 26, 28, 19, 26, 31, 0, 3, 31, 3, 20, 31, 20, 27, 29, 31, 27]
    normal3f[] normals = [(-0.9727812, 0.2317194, -0.001705077), (-0.9727812, 0.2317194, -0.001705077), (-0.9727812, 0.2317194, -0.001705077), (-0.9727812, 0.2317194, -0.001705077), (-0.23172481, -0.9727713, 0.004425506), (-0.9727812, 0.2317194, -0.001705077), (-0.9727812, 0.2317194, -0.001705077), (-0.23172481, -0.9727713, 0.004425506), (-0.9727812, 0.2317194, -0.001705077), (-0.23172481, -0.9727713, 0.004425506), (-0.9727812, 0.2317194, -0.001705077), (-0.9727812, 0.2317194, -0.001705077), (-0.9727812, 0.2317194, -0.001705077), (-0.9727812, 0.2317194, -0.001705077), (0.00063317444, -0.004700158, -0.99998873), (0.00063317444, -0.004700158, -0.99998873), (0.00063317444, -0.004700158, -0.99998873), (-0.9727812, 0.2317194, -0.001705077), (-0.9727812, 0.2317194, -0.001705077), (-0.9727812, 0.2317194, -0.001705077), (0.00063317444, -0.004700158, -0.99998873), (-0.9727812, 0.2317194, -0.001705077), (0.00063317444, -0.004700158, -0.99998873), (-0.23172481, -0.9727713, 0.004425506), (0.23172481, 0.9727713, -0.004425506), (-0.00063317444, 0.004700158, 0.99998873), (0.9727812, -0.2317194, 0.001705077), (0.23172481, 0.9727713, -0.004425506), (0.9727812, -0.2317194, 0.001705077), (0.9727812, -0.2317194, 0.001705077), (0.9727812, -0.2317194, 0.001705077), (0.9727812, -0.2317194, 0.001705077), (0.9727812, -0.2317194, 0.001705077), (0.9727812, -0.2317194, 0.001705077), (0.9727812, -0.2317194, 0.001705077), (0.00063317444, -0.004700158, -0.99998873), (0.23172481, 0.9727713, -0.004425506), (-0.00063317444, 0.004700158, 0.99998873), (-0.00063317444, 0.004700158, 0.99998873), (-0.00063317444, 0.004700158, 0.99998873), (0.9727812, -0.2317194, 0.001705077), (-0.00063317444, 0.004700158, 0.99998873), (0.9727812, -0.2317194, 0.001705077), (-0.00063317444, 0.004700158, 0.99998873), (-0.00063317444, 0.004700158, 0.99998873), (0.9727812, -0.2317194, 0.001705077), (-0.00063317444, 0.004700158, 0.99998873), (-0.00063317444, 0.004700158, 0.99998873), (0.9727812, -0.2317194, 0.001705077), (-0.00063317444, 0.004700158, 0.99998873), (0.9727812, -0.2317194, 0.001705077), (0.23172481, 0.9727713, -0.004425506), (0.00063317444, -0.004700158, -0.99998873), (0.23172481, 0.9727713, -0.004425506), (0.00063317444, -0.004700158, -0.99998873), (0.23172481, 0.9727713, -0.004425506), (0.9727812, -0.2317194, 0.001705077), (0.00063317444, -0.004700158, -0.99998873), (0.9727812, -0.2317194, 0.001705077), (0.00063317444, -0.004700158, -0.99998873), (0.00063317444, -0.004700158, -0.99998873), (0.9727812, -0.2317194, 0.001705077), (0.00063317444, -0.004700158, -0.99998873), (0.00063317444, -0.004700158, -0.99998873), (0.00063317444, -0.004700158, -0.99998873), (0.00063317444, -0.004700158, -0.99998873), (-0.00063317444, 0.004700158, 0.99998873), (-0.9727812, 0.2317194, -0.001705077), (-0.9727812, 0.2317194, -0.001705077), (-0.00063317444, 0.004700158, 0.99998873), (0.23172481, 0.9727713, -0.004425506), (-0.9727812, 0.2317194, -0.001705077), (0.23172481, 0.9727713, -0.004425506), (-0.9727812, 0.2317194, -0.001705077), (-0.9727812, 0.2317194, -0.001705077), (0.23172481, 0.9727713, -0.004425506), (0.23172481, 0.9727713, -0.004425506), (-0.9727812, 0.2317194, -0.001705077), (0.23172481, 0.9727713, -0.004425506), (0.00063317444, -0.004700158, -0.99998873), (-0.9727812, 0.2317194, -0.001705077), (-0.9727812, 0.2317194, -0.001705077), (0.00063317444, -0.004700158, -0.99998873), (-0.9727812, 0.2317194, -0.001705077), (-0.9727812, 0.2317194, -0.001705077), (-0.9727812, 0.2317194, -0.001705077), (-0.9727812, 0.2317194, -0.001705077), (-0.9727812, 0.2317194, -0.001705077), (-0.9727812, 0.2317194, -0.001705077), (-0.9727812, 0.2317194, -0.001705077), (-0.00063317444, 0.004700158, 0.99998873), (-0.00063317444, 0.004700158, 0.99998873), (0.9727812, -0.2317194, 0.001705077), (-0.00063317444, 0.004700158, 0.99998873), (-0.00063317444, 0.004700158, 0.99998873), (-0.9727812, 0.2317194, -0.001705077), (-0.9727812, 0.2317194, -0.001705077), (-0.9727812, 0.2317194, -0.001705077), (0.00063317444, -0.004700158, -0.99998873), (-0.9727812, 0.2317194, -0.001705077), (-0.9727812, 0.2317194, -0.001705077), (-0.9727812, 0.2317194, -0.001705077), (0.9727812, -0.2317194, 0.001705077), (-0.00063317444, 0.004700158, 0.99998873), (-0.00063317444, 0.004700158, 0.99998873), (-0.00063317444, 0.004700158, 0.99998873), (0.9727812, -0.2317194, 0.001705077), (-0.00063317444, 0.004700158, 0.99998873), (-0.9727812, 0.2317194, -0.001705077), (-0.00063317444, 0.004700158, 0.99998873), (-0.9727812, 0.2317194, -0.001705077), (-0.9727812, 0.2317194, -0.001705077), (-0.9727812, 0.2317194, -0.001705077), (-0.9727812, 0.2317194, -0.001705077), (-0.9727812, 0.2317194, -0.001705077), (-0.9727812, 0.2317194, -0.001705077), (-0.9727812, 0.2317194, -0.001705077), (-0.9727812, 0.2317194, -0.001705077), (-0.9727812, 0.2317194, -0.001705077), (-0.9727812, 0.2317194, -0.001705077), (-0.00063317444, 0.004700158, 0.99998873), (-0.9727812, 0.2317194, -0.001705077), (-0.9727812, 0.2317194, -0.001705077), (-0.00063317444, 0.004700158, 0.99998873), (-0.9727812, 0.2317194, -0.001705077), (-0.9727812, 0.2317194, -0.001705077), (-0.00063317444, 0.004700158, 0.99998873), (-0.9727812, 0.2317194, -0.001705077), (-0.00063317444, 0.004700158, 0.99998873), (0.9727812, -0.2317194, 0.001705077), (-0.00063317444, 0.004700158, 0.99998873), (-0.00063317444, 0.004700158, 0.99998873), (-0.9727812, 0.2317194, -0.001705077), (-0.9727812, 0.2317194, -0.001705077), (-0.23172481, -0.9727713, 0.004425506), (-0.9727812, 0.2317194, -0.001705077), (-0.23172481, -0.9727713, 0.004425506), (-0.00063317444, 0.004700158, 0.99998873), (-0.9727812, 0.2317194, -0.001705077), (-0.00063317444, 0.004700158, 0.99998873), (-0.00063317444, 0.004700158, 0.99998873), (-0.9727812, 0.2317194, -0.001705077), (-0.9727812, 0.2317194, -0.001705077), (-0.00063317444, 0.004700158, 0.99998873)] (
        interpolation = "faceVarying"
    )
    point3f[] points = [(-1.883925, -0.97660637, 0.8264689), (-1.8607525, -0.8793293, 0.8260263), (-1.8510246, -0.8816465, 0.82604337), (-1.8741971, -0.97892356, 0.82648593), (-1.8597214, -0.8869833, -0.802401), (-1.8731661, -0.9865775, -0.80194145), (-1.8499936, -0.88930047, -0.80238396), (-1.8828938, -0.9842603, -0.8019585), (-1.882253, -0.9890173, -1.8140436), (-1.8590806, -0.89174026, -1.8144861), (-1.8493527, -0.89405745, -1.8144691), (-1.8725252, -0.9913345, -1.8140266), (1.8674273, 2.1063485, -1.8262182), (1.8651254, 2.1234365, 1.8093212), (0.96602595, -1.6509465, 1.8264922), (0.9683279, -1.6680343, -1.8090472), (0.6323422, -3.051737, 1.832865), (0.6346442, -3.068825, -1.8026744), (-0.9757277, 2.800136, 1.8043418), (-1.8516546, -0.8769697, 1.8210703), (-1.8748271, -0.9742467, 1.8215128), (-2.2085109, -2.3750374, 1.8278855), (-0.97342575, 2.7830484, -1.8311976), (-2.206209, -2.3921251, -1.8076539), (-1.2898378, 1.4741931, 0.8153258), (-1.2888067, 1.4665391, -0.8131016), (-1.8613888, -0.8746055, 1.8310531), (-1.8748335, -0.9741997, 1.8315127), (-1.8516611, -0.87692267, 1.8310702), (-1.8845613, -0.9718825, 1.8314956), (-1.8613825, -0.8746525, 1.8210533), (-1.884555, -0.9719295, 1.8214958)]
}

