#usda 1.0
(
    defaultPrim = "SM_Lobby_Stairs_01"
    upAxis = "Z"
)

def Mesh "SM_Lobby_Stairs_01"
{
    int[] faceVertexCounts = [3, 3, 3, 3, 3, 3, 3, 3, 3, 3, 3, 3, 3, 3, 3, 3, 3, 3, 3, 3, 3, 3, 3, 3, 3, 3, 3, 3, 3, 3, 3, 3, 3, 3, 3, 3, 3, 3, 3, 3, 3, 3, 3, 3, 3, 3, 3, 3, 3, 3, 3, 3, 3, 3, 3, 3, 3, 3, 3, 3, 3, 3, 3, 3, 3, 3, 3, 3, 3, 3, 3, 3, 3, 3, 3, 3, 3, 3, 3, 3, 3, 3, 3, 3, 3, 3, 3, 3, 3, 3, 3, 3, 3, 3, 3, 3, 3, 3, 3, 3, 3, 3, 3, 3, 3, 3, 3, 3, 3, 3, 3, 3, 3, 3, 3, 3, 3, 3, 3, 3, 3, 3, 3, 3, 3, 3, 3, 3, 3, 3, 3, 3, 3, 3, 3, 3, 3, 3, 3, 3, 3, 3, 3, 3, 3, 3, 3, 3, 3, 3, 3, 3, 3, 3, 3, 3, 3, 3, 3, 3, 3, 3, 3, 3, 3, 3, 3, 3, 3, 3, 3, 3, 3, 3, 3, 3, 3, 3, 3, 3, 3, 3, 3, 3, 3, 3, 3, 3, 3, 3, 3, 3, 3, 3, 3, 3, 3, 3, 3, 3, 3, 3, 3, 3, 3, 3, 3, 3, 3, 3, 3, 3, 3, 3, 3, 3, 3, 3, 3, 3, 3, 3, 3, 3, 3, 3, 3, 3, 3, 3, 3, 3, 3, 3, 3, 3, 3, 3, 3, 3, 3, 3, 3, 3, 3, 3, 3, 3, 3, 3, 3, 3, 3, 3, 3, 3, 3, 3, 3, 3, 3, 3, 3, 3, 3, 3, 3, 3, 3, 3, 3, 3, 3, 3, 3, 3, 3, 3, 3, 3, 3, 3, 3, 3, 3, 3, 3, 3, 3, 3, 3, 3, 3, 3, 3, 3, 3, 3, 3, 3, 3, 3, 3, 3, 3, 3, 3, 3, 3, 3, 3, 3, 3, 3, 3, 3, 3, 3, 3, 3, 3, 3, 3, 3, 3, 3, 3, 3, 3, 3, 3, 3, 3, 3, 3, 3, 3, 3, 3, 3, 3, 3, 3, 3, 3, 3, 3, 3, 3, 3, 3, 3, 3, 3, 3, 3, 3, 3, 3, 3, 3, 3, 3, 3, 3, 3, 3, 3, 3, 3, 3, 3, 3, 3, 3, 3, 3, 3, 3, 3, 3, 3, 3, 3, 3, 3, 3, 3, 3, 3, 3, 3, 3, 3, 3, 3, 3, 3, 3, 3, 3, 3, 3, 3, 3, 3, 3, 3, 3, 3, 3, 3, 3, 3, 3, 3, 3, 3, 3, 3, 3, 3, 3, 3, 3, 3, 3, 3, 3, 3, 3, 3, 3, 3, 3, 3, 3, 3, 3, 3, 3, 3, 3, 3, 3, 3, 3, 3, 3, 3, 3, 3, 3, 3, 3, 3, 3, 3, 3, 3, 3, 3, 3, 3, 3, 3, 3, 3, 3, 3, 3, 3, 3, 3, 3, 3, 3, 3, 3, 3, 3, 3, 3, 3, 3, 3, 3, 3, 3, 3, 3, 3, 3, 3, 3, 3, 3, 3, 3, 3, 3, 3, 3, 3, 3, 3, 3, 3, 3, 3, 3, 3, 3, 3, 3, 3, 3, 3, 3, 3, 3, 3, 3, 3, 3, 3, 3, 3, 3, 3, 3, 3, 3, 3, 3, 3, 3, 3, 3, 3, 3, 3, 3, 3, 3, 3, 3, 3, 3, 3, 3, 3, 3, 3, 3, 3, 3, 3, 3]
    int[] faceVertexIndices = [0, 1, 2, 1, 0, 3, 4, 5, 6, 5, 4, 7, 8, 9, 10, 8, 10, 11, 11, 10, 4, 11, 4, 6, 12, 13, 14, 13, 12, 15, 16, 17, 18, 16, 18, 19, 19, 18, 12, 19, 12, 14, 20, 21, 22, 21, 20, 23, 24, 25, 26, 24, 26, 27, 27, 26, 20, 27, 20, 22, 28, 29, 30, 29, 28, 31, 32, 33, 34, 32, 34, 35, 35, 34, 28, 35, 28, 30, 36, 37, 38, 37, 36, 39, 40, 41, 42, 40, 42, 43, 43, 42, 36, 43, 36, 38, 44, 45, 46, 45, 44, 47, 48, 49, 50, 48, 50, 51, 51, 50, 44, 51, 44, 46, 52, 53, 1, 53, 52, 54, 55, 0, 56, 0, 55, 3, 3, 55, 52, 3, 52, 1, 57, 58, 59, 58, 57, 60, 61, 62, 63, 61, 63, 64, 64, 63, 57, 64, 57, 59, 65, 66, 67, 66, 65, 68, 69, 70, 71, 69, 71, 72, 72, 71, 65, 72, 65, 67, 73, 74, 75, 74, 73, 76, 77, 78, 79, 77, 79, 80, 80, 79, 73, 80, 73, 75, 81, 82, 83, 82, 81, 84, 85, 86, 87, 86, 85, 88, 89, 90, 91, 90, 89, 92, 93, 94, 95, 94, 93, 96, 97, 98, 99, 98, 97, 100, 101, 102, 103, 102, 101, 104, 105, 106, 107, 106, 105, 108, 109, 110, 111, 110, 109, 112, 113, 114, 115, 114, 113, 116, 117, 118, 119, 119, 118, 120, 121, 122, 123, 123, 122, 124, 119, 120, 125, 125, 120, 126, 127, 128, 129, 129, 128, 130, 131, 132, 133, 133, 132, 134, 135, 136, 137, 137, 136, 138, 139, 140, 141, 141, 140, 142, 143, 144, 145, 145, 144, 146, 147, 148, 149, 149, 148, 150, 151, 152, 153, 153, 152, 154, 155, 156, 157, 157, 156, 158, 159, 160, 161, 161, 160, 162, 163, 164, 165, 163, 165, 166, 167, 168, 169, 167, 169, 170, 170, 169, 49, 170, 49, 48, 171, 172, 173, 172, 171, 174, 174, 171, 9, 174, 9, 8, 175, 176, 177, 176, 175, 178, 178, 175, 17, 178, 17, 16, 179, 180, 181, 180, 179, 182, 182, 179, 25, 182, 25, 24, 183, 184, 185, 184, 183, 186, 186, 183, 33, 186, 33, 32, 187, 188, 189, 188, 187, 190, 190, 187, 41, 190, 41, 40, 191, 192, 193, 192, 191, 194, 194, 191, 62, 194, 62, 61, 195, 196, 197, 196, 195, 198, 198, 195, 70, 198, 70, 69, 199, 200, 201, 200, 199, 202, 202, 199, 78, 202, 78, 77, 203, 204, 205, 204, 203, 206, 207, 206, 203, 206, 207, 208, 99, 208, 207, 208, 99, 98, 98, 209, 208, 209, 98, 210, 211, 210, 98, 210, 211, 212, 95, 212, 211, 212, 95, 94, 94, 213, 212, 213, 94, 214, 215, 214, 94, 214, 215, 216, 91, 216, 215, 216, 91, 90, 90, 217, 216, 217, 90, 218, 219, 218, 90, 218, 219, 220, 87, 220, 219, 220, 87, 86, 86, 221, 220, 221, 86, 222, 223, 222, 86, 222, 223, 224, 83, 224, 223, 224, 83, 82, 82, 225, 224, 225, 82, 226, 227, 226, 82, 226, 227, 228, 115, 228, 227, 228, 115, 114, 114, 229, 228, 229, 114, 230, 231, 230, 114, 230, 231, 232, 111, 232, 231, 232, 111, 110, 110, 233, 232, 233, 110, 234, 235, 234, 110, 234, 235, 236, 107, 236, 235, 236, 107, 106, 106, 237, 236, 237, 106, 238, 239, 238, 106, 238, 239, 240, 103, 240, 239, 240, 103, 102, 102, 241, 240, 241, 102, 242, 243, 242, 102, 242, 243, 244, 245, 244, 243, 244, 245, 246, 246, 247, 244, 244, 247, 248, 244, 248, 249, 250, 203, 205, 203, 250, 251, 251, 207, 203, 207, 251, 252, 97, 207, 252, 207, 97, 99, 253, 222, 224, 222, 253, 254, 254, 221, 222, 221, 254, 177, 255, 210, 212, 210, 255, 256, 256, 209, 210, 209, 256, 189, 257, 206, 208, 206, 257, 258, 258, 204, 206, 204, 258, 259, 260, 238, 240, 238, 260, 261, 261, 237, 238, 237, 261, 193, 262, 234, 236, 234, 262, 263, 263, 233, 234, 233, 263, 197, 264, 230, 232, 230, 264, 265, 265, 229, 230, 229, 265, 201, 266, 90, 92, 90, 266, 219, 85, 219, 266, 219, 85, 87, 267, 94, 96, 94, 267, 215, 89, 215, 267, 215, 89, 91, 100, 211, 98, 211, 100, 268, 268, 95, 211, 95, 268, 93, 243, 269, 245, 270, 269, 243, 102, 270, 243, 270, 102, 104, 108, 239, 106, 239, 108, 271, 271, 103, 239, 103, 271, 101, 272, 114, 116, 114, 272, 231, 109, 231, 272, 231, 109, 111, 124, 273, 123, 273, 124, 274, 275, 273, 274, 275, 274, 276, 276, 143, 275, 143, 276, 144, 276, 277, 144, 144, 277, 278, 278, 279, 144, 279, 278, 280, 280, 139, 279, 139, 280, 140, 280, 281, 140, 140, 281, 282, 282, 283, 140, 283, 282, 284, 284, 135, 283, 135, 284, 136, 284, 285, 136, 136, 285, 286, 286, 287, 136, 287, 286, 288, 288, 131, 287, 131, 288, 132, 288, 289, 132, 132, 289, 290, 290, 291, 132, 291, 290, 292, 292, 127, 291, 127, 292, 128, 292, 293, 128, 128, 293, 294, 294, 295, 128, 295, 294, 296, 296, 159, 295, 159, 296, 160, 296, 297, 160, 160, 297, 298, 299, 160, 298, 299, 298, 300, 300, 155, 299, 155, 300, 156, 300, 301, 156, 156, 301, 302, 303, 156, 302, 303, 302, 304, 304, 151, 303, 151, 304, 152, 304, 305, 152, 152, 305, 306, 307, 152, 306, 307, 306, 308, 308, 147, 307, 147, 308, 148, 308, 309, 148, 148, 309, 310, 310, 117, 148, 117, 310, 118, 123, 273, 121, 121, 273, 311, 273, 275, 311, 311, 275, 312, 275, 145, 312, 145, 275, 143, 288, 313, 314, 313, 288, 286, 286, 315, 313, 315, 286, 285, 280, 278, 316, 316, 278, 317, 278, 277, 317, 317, 277, 318, 276, 274, 319, 319, 274, 320, 274, 124, 320, 320, 124, 122, 308, 306, 321, 321, 306, 322, 306, 305, 322, 322, 305, 323, 304, 302, 324, 324, 302, 325, 302, 301, 325, 325, 301, 326, 300, 298, 327, 327, 298, 328, 298, 297, 328, 328, 297, 329, 136, 330, 138, 330, 136, 287, 287, 133, 330, 133, 287, 131, 140, 331, 142, 331, 140, 283, 283, 137, 331, 137, 283, 135, 144, 279, 146, 146, 279, 332, 279, 139, 332, 332, 139, 141, 125, 117, 119, 117, 125, 333, 333, 148, 117, 148, 333, 150, 152, 307, 154, 154, 307, 334, 307, 147, 334, 334, 147, 149, 160, 335, 162, 335, 160, 299, 299, 157, 335, 157, 299, 155, 336, 337, 168, 336, 168, 167, 165, 336, 167, 165, 167, 166, 338, 339, 340, 339, 338, 2, 338, 0, 2, 0, 338, 56, 269, 246, 245, 246, 269, 341, 341, 342, 246, 246, 342, 247, 343, 228, 344, 228, 343, 226, 343, 225, 226, 225, 343, 173, 345, 220, 346, 220, 345, 218, 345, 217, 218, 217, 345, 181, 347, 216, 348, 216, 347, 214, 347, 213, 214, 213, 347, 185, 56, 349, 244, 244, 349, 242, 349, 241, 242, 241, 349, 340, 350, 82, 84, 82, 350, 227, 350, 115, 227, 115, 350, 113, 88, 223, 86, 223, 88, 351, 81, 223, 351, 223, 81, 83, 112, 235, 110, 235, 112, 352, 105, 235, 352, 235, 105, 107, 296, 353, 354, 353, 296, 294, 294, 293, 353, 353, 293, 355, 292, 356, 357, 356, 292, 290, 290, 289, 356, 356, 289, 358, 284, 359, 360, 359, 284, 282, 282, 281, 359, 359, 281, 361, 118, 362, 363, 362, 118, 310, 310, 309, 362, 362, 309, 364, 128, 365, 130, 365, 128, 295, 295, 159, 365, 365, 159, 161, 132, 291, 134, 134, 291, 366, 291, 129, 366, 129, 291, 127, 156, 303, 158, 158, 303, 367, 303, 153, 367, 153, 303, 151, 368, 369, 370, 368, 370, 371, 371, 370, 372, 371, 372, 373, 374, 375, 369, 374, 369, 368, 376, 377, 378, 376, 378, 379, 379, 378, 380, 379, 380, 381, 382, 383, 377, 382, 377, 376, 384, 385, 386, 384, 386, 387, 387, 386, 388, 387, 388, 389, 390, 391, 385, 390, 385, 384, 392, 393, 394, 392, 394, 395, 395, 394, 396, 395, 396, 397, 398, 399, 393, 398, 393, 392, 400, 401, 402, 400, 402, 403, 403, 402, 404, 403, 404, 405, 406, 407, 401, 406, 401, 400, 408, 409, 410, 408, 410, 411, 411, 410, 412, 411, 412, 413, 414, 415, 409, 414, 409, 408, 416, 417, 418, 416, 418, 419, 419, 418, 420, 419, 420, 421, 422, 423, 417, 422, 417, 416, 424, 425, 426, 424, 426, 427, 427, 426, 428, 427, 428, 429, 430, 431, 425, 430, 425, 424, 432, 433, 434, 432, 434, 435, 435, 434, 436, 435, 436, 437, 438, 439, 433, 438, 433, 432, 440, 441, 442, 440, 442, 443, 443, 442, 444, 443, 444, 445, 446, 447, 441, 446, 441, 440, 448, 449, 450, 448, 450, 451, 451, 450, 452, 451, 452, 453, 449, 454, 455, 454, 449, 448, 456, 457, 458, 456, 458, 459, 459, 458, 460, 459, 460, 461, 457, 462, 463, 462, 457, 456, 464, 465, 466, 464, 466, 467, 467, 466, 468, 467, 468, 469, 470, 471, 465, 470, 465, 464, 472, 473, 474, 472, 474, 475, 475, 474, 476, 475, 476, 477, 478, 479, 473, 478, 473, 472, 480, 481, 482, 480, 482, 483, 483, 482, 484, 483, 484, 485, 486, 487, 481, 486, 481, 480, 488, 489, 490, 488, 490, 491, 491, 490, 492, 491, 492, 493, 494, 495, 489, 494, 489, 488, 496, 497, 498, 496, 498, 499, 499, 498, 500, 499, 500, 501, 502, 503, 497, 502, 497, 496, 504, 505, 506, 504, 506, 507, 507, 506, 508, 507, 508, 509, 505, 510, 511, 510, 505, 504, 512, 513, 514, 512, 514, 515, 515, 514, 516, 515, 516, 517, 518, 519, 513, 518, 513, 512, 520, 521, 522, 520, 522, 523, 523, 522, 524, 523, 524, 525, 521, 526, 527, 526, 521, 520]
    normal3f[] normals = [(0.3023767, -0.49737164, 0.81313574), (0.30236855, -0.4973729, 0.813138), (0.95284444, 0.13471302, -0.2719189), (0.30236855, -0.4973729, 0.813138), (0.3023767, -0.49737164, 0.81313574), (-0.95284444, -0.13471302, 0.2719189), (0.30236855, -0.4973729, 0.813138), (0.30236855, -0.4973729, 0.813138), (0.30236855, -0.4973729, 0.813138), (0.30236855, -0.4973729, 0.813138), (0.30236855, -0.4973729, 0.813138), (0.30236855, -0.4973729, 0.813138), (0.30236855, -0.4973729, 0.813138), (0.95284444, 0.13471302, -0.2719189), (0.30236855, -0.4973729, 0.813138), (0.30236855, -0.4973729, 0.813138), (0.30236855, -0.4973729, 0.813138), (-0.95284444, -0.13471302, 0.2719189), (-0.95284444, -0.13471302, 0.2719189), (0.30236855, -0.4973729, 0.813138), (0.30236855, -0.4973729, 0.813138), (-0.95284444, -0.13471302, 0.2719189), (0.30236855, -0.4973729, 0.813138), (0.30236855, -0.4973729, 0.813138), (0.30236855, -0.4973729, 0.813138), (0.30236855, -0.4973729, 0.813138), (0.30236855, -0.4973729, 0.813138), (0.30236855, -0.4973729, 0.813138), (0.30236855, -0.4973729, 0.813138), (0.30236855, -0.4973729, 0.813138), (0.30236855, -0.4973729, 0.813138), (0.95284444, 0.13471302, -0.2719189), (0.30236855, -0.4973729, 0.813138), (0.30236855, -0.4973729, 0.813138), (0.30236855, -0.4973729, 0.813138), (-0.95284444, -0.13471302, 0.2719189), (-0.95284444, -0.13471302, 0.2719189), (0.30236855, -0.4973729, 0.813138), (0.30236855, -0.4973729, 0.813138), (-0.95284444, -0.13471302, 0.2719189), (0.30236855, -0.4973729, 0.813138), (0.30236855, -0.4973729, 0.813138), (0.30236855, -0.4973729, 0.813138), (0.30236855, -0.4973729, 0.813138), (0.30236855, -0.4973729, 0.813138), (0.30236855, -0.4973729, 0.813138), (0.30236855, -0.4973729, 0.813138), (0.30236855, -0.4973729, 0.813138), (0.30236855, -0.4973729, 0.813138), (0.95284444, 0.13471302, -0.2719189), (0.30236855, -0.4973729, 0.813138), (0.30236855, -0.4973729, 0.813138), (0.30236855, -0.4973729, 0.813138), (-0.95284444, -0.13471302, 0.2719189), (-0.95284444, -0.13471302, 0.2719189), (0.30236855, -0.4973729, 0.813138), (0.30236855, -0.4973729, 0.813138), (-0.95284444, -0.13471302, 0.2719189), (0.30236855, -0.4973729, 0.813138), (0.30236855, -0.4973729, 0.813138), (0.30236855, -0.4973729, 0.813138), (0.30236855, -0.4973729, 0.813138), (0.30236855, -0.4973729, 0.813138), (0.30236855, -0.4973729, 0.813138), (0.30236855, -0.4973729, 0.813138), (0.30236855, -0.4973729, 0.813138), (0.30236855, -0.4973729, 0.813138), (0.95284444, 0.13471302, -0.2719189), (0.30236855, -0.4973729, 0.813138), (0.30236855, -0.4973729, 0.813138), (0.30236855, -0.4973729, 0.813138), (-0.95284444, -0.13471302, 0.2719189), (-0.95284444, -0.13471302, 0.2719189), (0.30236855, -0.4973729, 0.813138), (0.30236855, -0.4973729, 0.813138), (-0.95284444, -0.13471302, 0.2719189), (0.30236855, -0.4973729, 0.813138), (0.30236855, -0.4973729, 0.813138), (0.30236855, -0.4973729, 0.813138), (0.30236855, -0.4973729, 0.813138), (0.30236855, -0.4973729, 0.813138), (0.30236855, -0.4973729, 0.813138), (0.30236855, -0.4973729, 0.813138), (0.30236855, -0.4973729, 0.813138), (0.30236855, -0.4973729, 0.813138), (0.95284444, 0.13471302, -0.2719189), (0.30236855, -0.4973729, 0.813138), (0.30236855, -0.4973729, 0.813138), (0.30236855, -0.4973729, 0.813138), (-0.95284444, -0.13471302, 0.2719189), (-0.95284444, -0.13471302, 0.2719189), (0.30236855, -0.4973729, 0.813138), (0.30236855, -0.4973729, 0.813138), (-0.95284444, -0.13471302, 0.2719189), (0.30236855, -0.4973729, 0.813138), (0.30236855, -0.4973729, 0.813138), (0.30236855, -0.4973729, 0.813138), (0.30236855, -0.4973729, 0.813138), (0.30236855, -0.4973729, 0.813138), (0.30236855, -0.4973729, 0.813138), (0.30236855, -0.4973729, 0.813138), (0.30236855, -0.4973729, 0.813138), (0.30236855, -0.4973729, 0.813138), (0.95284444, 0.13471302, -0.2719189), (0.30236855, -0.4973729, 0.813138), (0.30236855, -0.4973729, 0.813138), (0.30236855, -0.4973729, 0.813138), (-0.95284444, -0.13471302, 0.2719189), (-0.95284444, -0.13471302, 0.2719189), (0.30236855, -0.4973729, 0.813138), (0.30236855, -0.4973729, 0.813138), (-0.95284444, -0.13471302, 0.2719189), (0.30236855, -0.4973729, 0.813138), (0.30236855, -0.4973729, 0.813138), (0.30236855, -0.4973729, 0.813138), (0.30236855, -0.4973729, 0.813138), (0.30236855, -0.4973729, 0.813138), (0.30236855, -0.4973729, 0.813138), (0.30236855, -0.4973729, 0.813138), (0.30236855, -0.4973729, 0.813138), (0.3023767, -0.49737164, 0.81313574), (0.3023767, -0.49737164, 0.81313574), (0.30238482, -0.49737042, 0.8131335), (0.3023767, -0.49737164, 0.81313574), (0.3023767, -0.49737164, 0.81313574), (-0.95284444, -0.13471302, 0.2719189), (-0.95284444, -0.13471302, 0.2719189), (0.3023767, -0.49737164, 0.81313574), (0.30236855, -0.4973729, 0.813138), (-0.95284444, -0.13471302, 0.2719189), (0.30236855, -0.4973729, 0.813138), (0.30236855, -0.4973729, 0.813138), (0.30236855, -0.4973729, 0.813138), (0.30236855, -0.4973729, 0.813138), (0.30236855, -0.4973729, 0.813138), (0.30236855, -0.4973729, 0.813138), (0.30236855, -0.4973729, 0.813138), (0.30236855, -0.4973729, 0.813138), (0.30236855, -0.4973729, 0.813138), (0.95284444, 0.13471302, -0.2719189), (0.30236855, -0.4973729, 0.813138), (0.30236855, -0.4973729, 0.813138), (0.30236855, -0.4973729, 0.813138), (-0.95284444, -0.13471302, 0.2719189), (-0.95284444, -0.13471302, 0.2719189), (0.30236855, -0.4973729, 0.813138), (0.30236855, -0.4973729, 0.813138), (-0.95284444, -0.13471302, 0.2719189), (0.30236855, -0.4973729, 0.813138), (0.30236855, -0.4973729, 0.813138), (0.30236855, -0.4973729, 0.813138), (0.30236855, -0.4973729, 0.813138), (0.30236855, -0.4973729, 0.813138), (0.30236855, -0.4973729, 0.813138), (0.30236855, -0.4973729, 0.813138), (0.30236855, -0.4973729, 0.813138), (0.30236855, -0.4973729, 0.813138), (0.95284444, 0.13471302, -0.2719189), (0.30236855, -0.4973729, 0.813138), (0.30236855, -0.4973729, 0.813138), (0.30236855, -0.4973729, 0.813138), (-0.95284444, -0.13471302, 0.2719189), (-0.95284444, -0.13471302, 0.2719189), (0.30236855, -0.4973729, 0.813138), (0.30236855, -0.4973729, 0.813138), (-0.95284444, -0.13471302, 0.2719189), (0.30236855, -0.4973729, 0.813138), (0.30236855, -0.4973729, 0.813138), (0.30236855, -0.4973729, 0.813138), (0.30236855, -0.4973729, 0.813138), (0.30236855, -0.4973729, 0.813138), (0.30236855, -0.4973729, 0.813138), (0.30236855, -0.4973729, 0.813138), (0.30236855, -0.4973729, 0.813138), (0.30236855, -0.4973729, 0.813138), (0.95284444, 0.13471302, -0.2719189), (0.30236855, -0.4973729, 0.813138), (0.30236855, -0.4973729, 0.813138), (0.30236855, -0.4973729, 0.813138), (-0.95284444, -0.13471302, 0.2719189), (-0.95284444, -0.13471302, 0.2719189), (0.30236855, -0.4973729, 0.813138), (0.30236855, -0.4973729, 0.813138), (-0.95284444, -0.13471302, 0.2719189), (0.30236855, -0.4973729, 0.813138), (0.30236855, -0.4973729, 0.813138), (0.30236855, -0.4973729, 0.813138), (-0.025704809, -0.85701376, -0.51465195), (-0.025704809, -0.85701376, -0.51465195), (-0.025704809, -0.85701376, -0.51465195), (0.30236855, -0.4973729, 0.813138), (0.9528443, 0.13471317, -0.27191913), (0.30236855, -0.4973729, 0.813138), (-0.02570967, -0.85701114, -0.51465607), (-0.025710292, -0.857009, -0.5146597), (-0.02570967, -0.85701114, -0.51465607), (0.30236855, -0.4973729, 0.813138), (0.9528443, 0.13471317, -0.27191913), (0.3023688, -0.49736524, 0.81314266), (-0.025704809, -0.85701376, -0.51465195), (-0.025703263, -0.8570121, -0.5146549), (-0.025704809, -0.85701376, -0.51465195), (0.3023688, -0.49736524, 0.81314266), (0.9528443, 0.13471317, -0.27191913), (0.30236855, -0.4973729, 0.813138), (-0.025704479, -0.8570143, -0.51465106), (-0.025704809, -0.85701376, -0.51465195), (-0.025704479, -0.8570143, -0.51465106), (0.30236855, -0.4973729, 0.813138), (0.95284426, 0.13471326, -0.27191928), (0.30236855, -0.4973729, 0.813138), (-0.025708418, -0.8570132, -0.5146527), (-0.025706777, -0.85701054, -0.51465726), (-0.025708418, -0.8570132, -0.5146527), (0.30236855, -0.4973729, 0.813138), (0.95284426, 0.13471332, -0.27191937), (0.30236855, -0.4973729, 0.813138), (-0.025704809, -0.85701376, -0.51465195), (-0.025704809, -0.85701376, -0.51465195), (-0.025704809, -0.85701376, -0.51465195), (0.30236855, -0.4973729, 0.813138), (0.95284444, 0.13471302, -0.2719189), (0.30236855, -0.4973729, 0.813138), (-0.025708748, -0.8570127, -0.5146536), (-0.025706777, -0.85701054, -0.51465726), (-0.025708748, -0.8570127, -0.5146536), (0.30236855, -0.4973729, 0.813138), (0.95284426, 0.13471062, -0.2719207), (0.30236855, -0.4973729, 0.813138), (-0.025712026, -0.8570127, -0.51465344), (-0.025710292, -0.857009, -0.5146597), (-0.025712026, -0.8570127, -0.51465344), (0.30236855, -0.4973729, 0.813138), (0.9528443, 0.13471189, -0.2719199), (0.30236855, -0.4973729, 0.813138), (-0.025705138, -0.8570132, -0.51465285), (-0.02570635, -0.85701543, -0.5146491), (-0.025705138, -0.8570132, -0.51465285), (0.30236855, -0.4973729, 0.813138), (0.9528444, 0.13471314, -0.2719191), (0.025704388, 0.8570145, 0.5146508), (0.025703223, 0.8570164, 0.5146477), (0.02568433, 0.85704744, 0.5145969), (0.02568433, 0.85704744, 0.5145969), (0.025703223, 0.8570164, 0.5146477), (0.30236855, -0.4973729, 0.813138), (0.95284444, 0.13471302, -0.2719189), (-0.30236855, 0.4973729, -0.813138), (0.025704809, 0.85701376, 0.51465195), (0.025704809, 0.85701376, 0.51465195), (-0.30236855, 0.4973729, -0.813138), (0.025704809, 0.85701376, 0.51465195), (0.02568433, 0.85704744, 0.5145969), (0.30236855, -0.4973729, 0.813138), (0.30236855, -0.4973729, 0.813138), (0.30236855, -0.4973729, 0.813138), (0.30236855, -0.4973729, 0.813138), (0.30236855, -0.4973729, 0.813138), (0.025704809, 0.85701376, 0.51465195), (0.025704809, 0.85701376, 0.51465195), (0.30236855, -0.4973729, 0.813138), (0.30236855, -0.4973729, 0.813138), (0.025704809, 0.85701376, 0.51465195), (0.9528443, 0.13471317, -0.27191913), (0.025699323, 0.8570186, 0.51464427), (0.025699947, 0.8570164, 0.51464784), (0.30236855, -0.4973729, 0.813138), (0.30236855, -0.4973729, 0.813138), (0.025699947, 0.8570164, 0.51464784), (0.9528443, 0.13471317, -0.27191913), (0.025706353, 0.85701543, 0.5146491), (0.025704809, 0.85701376, 0.51465195), (0.30236834, -0.49738055, 0.8131334), (0.30236834, -0.49738055, 0.8131334), (0.025704809, 0.85701376, 0.51465195), (0.9528443, 0.13471317, -0.27191913), (0.025704809, 0.85701376, 0.51465195), (0.025705138, 0.8570132, 0.51465285), (0.30236855, -0.4973729, 0.813138), (0.30236855, -0.4973729, 0.813138), (0.025705138, 0.8570132, 0.51465285), (0.95284426, 0.13471326, -0.27191928), (0.025702838, 0.85701704, 0.5146467), (0.025701202, 0.8570143, 0.51465124), (0.30236855, -0.4973729, 0.813138), (0.30236855, -0.4973729, 0.813138), (0.025701202, 0.8570143, 0.51465124), (0.95284426, 0.13471332, -0.27191937), (0.025704809, 0.85701376, 0.51465195), (0.025704809, 0.85701376, 0.51465195), (0.30236855, -0.4973729, 0.813138), (0.30236855, -0.4973729, 0.813138), (0.025704809, 0.85701376, 0.51465195), (0.95284444, 0.13471302, -0.2719189), (0.025702838, 0.85701704, 0.5146467), (0.02570087, 0.85701483, 0.51465034), (0.30236855, -0.4973729, 0.813138), (0.30236855, -0.4973729, 0.813138), (0.02570087, 0.85701483, 0.51465034), (0.95284444, 0.13471574, -0.27191764), (0.025699321, 0.8570186, 0.51464427), (0.025697589, 0.8570149, 0.5146505), (0.30236855, -0.4973729, 0.813138), (0.30236855, -0.4973729, 0.813138), (0.025697589, 0.8570149, 0.5146505), (0.9528444, 0.13471444, -0.27191836), (0.02570326, 0.8570121, 0.5146549), (0.025704479, 0.8570143, 0.51465106), (0.30236855, -0.4973729, 0.813138), (0.30236855, -0.4973729, 0.813138), (0.025704479, 0.8570143, 0.51465106), (0.9528444, 0.13471314, -0.2719191), (0.6478395, 0.7328439, 0.20795195), (0.6480193, 0.7327533, 0.20771068), (0.93358374, 0.3267791, -0.14709495), (0.6478395, 0.7328439, 0.20795195), (0.93358374, 0.3267791, -0.14709495), (0.93355405, 0.32692558, -0.14695802), (0.95284444, 0.13471295, -0.27191895), (0.95284444, 0.13471302, -0.2719189), (0.95284444, 0.13471302, -0.2719189), (0.95284444, 0.13471295, -0.27191895), (0.95284444, 0.13471302, -0.2719189), (0.95284444, 0.13471302, -0.2719189), (0.95284444, 0.13471302, -0.2719189), (0.95284444, 0.13471302, -0.2719189), (0.95284444, 0.13471302, -0.2719189), (0.95284444, 0.13471302, -0.2719189), (0.95284444, 0.13471302, -0.2719189), (0.30236855, -0.4973729, 0.813138), (0.9528444, 0.13471317, -0.27191907), (0.9528444, 0.13471317, -0.2719191), (0.95284426, 0.13471334, -0.27191928), (0.9528444, 0.13471317, -0.2719191), (0.9528444, 0.13471317, -0.27191907), (0.95284444, 0.13471302, -0.2719189), (0.95284444, 0.13471302, -0.2719189), (0.9528444, 0.13471317, -0.27191907), (0.95284444, 0.13471302, -0.2719189), (0.95284444, 0.13471302, -0.2719189), (0.95284444, 0.13471302, -0.2719189), (0.30236855, -0.4973729, 0.813138), (0.9528444, 0.13471317, -0.27191907), (0.9528444, 0.13471317, -0.2719191), (0.95284426, 0.13471334, -0.27191928), (0.9528444, 0.13471317, -0.2719191), (0.9528444, 0.13471317, -0.27191907), (0.95284444, 0.13471302, -0.2719189), (0.95284444, 0.13471302, -0.2719189), (0.9528444, 0.13471317, -0.27191907), (0.95284444, 0.13471302, -0.2719189), (0.95284444, 0.13471302, -0.2719189), (0.95284444, 0.13471302, -0.2719189), (0.30236855, -0.4973729, 0.813138), (0.9528444, 0.13471316, -0.27191907), (0.9528444, 0.13471316, -0.27191907), (0.9528443, 0.13471329, -0.27191925), (0.9528444, 0.13471316, -0.27191907), (0.9528444, 0.13471316, -0.27191907), (0.95284444, 0.13471302, -0.2719189), (0.95284444, 0.13471302, -0.2719189), (0.9528444, 0.13471316, -0.27191907), (0.95284444, 0.13471302, -0.2719189), (0.95284444, 0.13471302, -0.2719189), (0.95284444, 0.13471302, -0.2719189), (0.30236855, -0.4973729, 0.813138), (0.9528444, 0.13471317, -0.27191907), (0.9528444, 0.13471317, -0.2719191), (0.95284426, 0.13471334, -0.27191928), (0.9528444, 0.13471317, -0.2719191), (0.9528444, 0.13471317, -0.27191907), (0.95284444, 0.13471302, -0.2719189), (0.95284444, 0.13471302, -0.2719189), (0.9528444, 0.13471317, -0.27191907), (0.95284444, 0.13471302, -0.2719189), (0.95284444, 0.13471302, -0.2719189), (0.95284444, 0.13471302, -0.2719189), (0.30236855, -0.4973729, 0.813138), (0.9528443, 0.1347132, -0.27191913), (0.9528443, 0.1347132, -0.27191913), (0.95284426, 0.1347134, -0.27191934), (0.9528443, 0.1347132, -0.27191913), (0.9528443, 0.1347132, -0.27191913), (0.95284444, 0.13471302, -0.2719189), (0.95284444, 0.13471302, -0.2719189), (0.9528443, 0.1347132, -0.27191913), (0.95284444, 0.13471302, -0.2719189), (0.95284444, 0.13471302, -0.2719189), (0.95284444, 0.13471302, -0.2719189), (0.30236855, -0.4973729, 0.813138), (0.9528444, 0.13471317, -0.27191907), (0.9528444, 0.13471317, -0.2719191), (0.95284426, 0.13471334, -0.27191928), (0.9528444, 0.13471317, -0.2719191), (0.9528444, 0.13471317, -0.27191907), (0.95284444, 0.13471302, -0.2719189), (0.95284444, 0.13471302, -0.2719189), (0.9528444, 0.13471317, -0.27191907), (0.95284444, 0.13471302, -0.2719189), (0.95284444, 0.13471302, -0.2719189), (0.95284444, 0.13471302, -0.2719189), (0.30236855, -0.4973729, 0.813138), (0.9528444, 0.13471317, -0.27191907), (0.9528444, 0.13471317, -0.2719191), (0.95284426, 0.13471334, -0.27191928), (0.9528444, 0.13471317, -0.2719191), (0.9528444, 0.13471317, -0.27191907), (0.95284444, 0.13471302, -0.2719189), (0.95284444, 0.13471302, -0.2719189), (0.9528444, 0.13471317, -0.27191907), (0.95284444, 0.13471302, -0.2719189), (0.95284444, 0.13471302, -0.2719189), (0.95284444, 0.13471302, -0.2719189), (0.30236855, -0.4973729, 0.813138), (0.9528444, 0.13471317, -0.27191907), (0.9528444, 0.13471317, -0.2719191), (0.95284426, 0.13471334, -0.27191928), (0.9528444, 0.13471317, -0.2719191), (0.9528444, 0.13471317, -0.27191907), (0.95284444, 0.13471302, -0.2719189), (0.95284444, 0.13471302, -0.2719189), (0.9528444, 0.13471317, -0.27191907), (0.95284444, 0.13471302, -0.2719189), (0.95284444, 0.13471302, -0.2719189), (0.95284444, 0.13471302, -0.2719189), (0.30236855, -0.4973729, 0.813138), (-0.025704809, -0.85701376, -0.51465195), (-0.025704809, -0.85701376, -0.51465195), (-0.025704809, -0.85701376, -0.51465195), (-0.025704809, -0.85701376, -0.51465195), (-0.025704809, -0.85701376, -0.51465195), (-0.025704809, -0.85701376, -0.51465195), (-0.025705177, -0.85701317, -0.51465297), (-0.025704809, -0.85701376, -0.51465195), (-0.025704809, -0.85701376, -0.51465195), (-0.025704809, -0.85701376, -0.51465195), (-0.025705177, -0.85701317, -0.51465297), (-0.025706062, -0.85701174, -0.51465535), (-0.025706777, -0.85701054, -0.51465726), (-0.025706062, -0.85701174, -0.51465535), (-0.025705177, -0.85701317, -0.51465297), (-0.025706062, -0.85701174, -0.51465535), (-0.025706777, -0.85701054, -0.51465726), (-0.025708418, -0.8570132, -0.5146527), (-0.025708418, -0.8570132, -0.5146527), (-0.02570832, -0.8570122, -0.5146544), (-0.025706062, -0.85701174, -0.51465535), (-0.02570832, -0.8570122, -0.5146544), (-0.025708418, -0.8570132, -0.5146527), (-0.02570781, -0.85701483, -0.51465005), (-0.025706746, -0.8570147, -0.51465034), (-0.02570781, -0.85701483, -0.51465005), (-0.025708418, -0.8570132, -0.5146527), (-0.02570781, -0.85701483, -0.51465005), (-0.025706746, -0.8570147, -0.51465034), (-0.025704809, -0.85701376, -0.51465195), (-0.025704809, -0.85701376, -0.51465195), (-0.025704809, -0.85701376, -0.51465195), (-0.025706746, -0.8570147, -0.51465034), (-0.025704809, -0.85701376, -0.51465195), (-0.025704809, -0.85701376, -0.51465195), (-0.025704479, -0.8570143, -0.51465106), (-0.025704479, -0.8570143, -0.51465106), (-0.025704809, -0.85701376, -0.51465195), (-0.025704809, -0.85701376, -0.51465195), (-0.025704809, -0.85701376, -0.51465195), (-0.025704479, -0.8570143, -0.51465106), (-0.025702132, -0.85701406, -0.51465166), (-0.025701433, -0.8570133, -0.51465297), (-0.025702132, -0.85701406, -0.51465166), (-0.025704479, -0.8570143, -0.51465106), (-0.025702132, -0.85701406, -0.51465166), (-0.025701433, -0.8570133, -0.51465297), (-0.025702124, -0.8570128, -0.51465374), (-0.025703263, -0.8570121, -0.5146549), (-0.025702124, -0.8570128, -0.51465374), (-0.025701433, -0.8570133, -0.51465297), (-0.025702124, -0.8570128, -0.51465374), (-0.025703263, -0.8570121, -0.5146549), (-0.025704809, -0.85701376, -0.51465195), (-0.025704809, -0.85701376, -0.51465195), (-0.025704809, -0.85701376, -0.51465195), (-0.025702124, -0.8570128, -0.51465374), (-0.025704809, -0.85701376, -0.51465195), (-0.025704809, -0.85701376, -0.51465195), (-0.025706746, -0.8570147, -0.51465034), (-0.025708182, -0.85701424, -0.514651), (-0.025706746, -0.8570147, -0.51465034), (-0.025704809, -0.85701376, -0.51465195), (-0.025706746, -0.8570147, -0.51465034), (-0.025708182, -0.85701424, -0.514651), (-0.025709668, -0.85701114, -0.51465607), (-0.025710292, -0.857009, -0.5146597), (-0.025709668, -0.85701114, -0.51465607), (-0.025708182, -0.85701424, -0.514651), (-0.025709668, -0.85701114, -0.51465607), (-0.025710292, -0.857009, -0.5146597), (-0.02570967, -0.85701114, -0.51465607), (-0.02570967, -0.85701114, -0.51465607), (-0.025710294, -0.857009, -0.5146597), (-0.025709668, -0.85701114, -0.51465607), (-0.025710294, -0.857009, -0.5146597), (-0.02570967, -0.85701114, -0.51465607), (-0.025708178, -0.85701424, -0.514651), (-0.025706746, -0.8570147, -0.51465034), (-0.025708178, -0.85701424, -0.514651), (-0.02570967, -0.85701114, -0.51465607), (-0.025708178, -0.85701424, -0.514651), (-0.025706746, -0.8570147, -0.51465034), (-0.025704809, -0.85701376, -0.51465195), (-0.025704809, -0.85701376, -0.51465195), (-0.025704809, -0.85701376, -0.51465195), (-0.025706746, -0.8570147, -0.51465034), (-0.025704809, -0.85701376, -0.51465195), (-0.025704809, -0.85701376, -0.51465195), (-0.025704809, -0.85701376, -0.51465195), (-0.025704809, -0.85701376, -0.51465195), (-0.025704809, -0.85701376, -0.51465195), (-0.025704809, -0.85701376, -0.51465195), (-0.025704809, -0.85701376, -0.51465195), (-0.025704809, -0.85701376, -0.51465195), (-0.025706746, -0.8570147, -0.51465034), (-0.025707444, -0.8570155, -0.51464903), (-0.025706746, -0.8570147, -0.51465034), (-0.025704809, -0.85701376, -0.51465195), (-0.025706746, -0.8570147, -0.51465034), (-0.025707444, -0.8570155, -0.51464903), (-0.025707161, -0.8570153, -0.51464933), (-0.02570635, -0.85701543, -0.5146491), (-0.025707161, -0.8570153, -0.51464933), (-0.025707444, -0.8570155, -0.51464903), (-0.025707161, -0.8570153, -0.51464933), (-0.02570635, -0.85701543, -0.5146491), (-0.025705138, -0.8570132, -0.51465285), (-0.025705138, -0.8570132, -0.51465285), (-0.025704809, -0.85701376, -0.51465195), (-0.025707161, -0.8570153, -0.51464933), (-0.025704809, -0.85701376, -0.51465195), (-0.025705138, -0.8570132, -0.51465285), (-0.025707483, -0.85701346, -0.5146523), (-0.025708921, -0.85701305, -0.514653), (-0.025707483, -0.85701346, -0.5146523), (-0.025705138, -0.8570132, -0.51465285), (-0.025707483, -0.85701346, -0.5146523), (-0.025708921, -0.85701305, -0.514653), (-0.025709998, -0.8570106, -0.51465696), (-0.025710292, -0.857009, -0.5146597), (-0.025709998, -0.8570106, -0.51465696), (-0.025708921, -0.85701305, -0.514653), (-0.025709998, -0.8570106, -0.51465696), (-0.025710292, -0.857009, -0.5146597), (-0.025712026, -0.8570127, -0.51465344), (-0.025712026, -0.8570127, -0.51465344), (-0.025711842, -0.85701066, -0.5146568), (-0.025709998, -0.8570106, -0.51465696), (-0.025711842, -0.85701066, -0.5146568), (-0.025712026, -0.8570127, -0.51465344), (-0.02571081, -0.85701597, -0.5146481), (-0.025709054, -0.857015, -0.5146497), (-0.02571081, -0.85701597, -0.5146481), (-0.025712026, -0.8570127, -0.51465344), (-0.02571081, -0.85701597, -0.5146481), (-0.025709054, -0.857015, -0.5146497), (-0.025706062, -0.85701174, -0.51465535), (-0.025706777, -0.85701054, -0.51465726), (-0.025706062, -0.85701174, -0.51465535), (-0.025709054, -0.857015, -0.5146497), (-0.025706062, -0.85701174, -0.51465535), (-0.025706777, -0.85701054, -0.51465726), (-0.025708748, -0.8570127, -0.5146536), (-0.025708748, -0.8570127, -0.5146536), (-0.02570832, -0.8570122, -0.5146544), (-0.025706062, -0.85701174, -0.51465535), (-0.02570832, -0.8570122, -0.5146544), (-0.025708748, -0.8570127, -0.5146536), (-0.025708547, -0.85701364, -0.514652), (-0.025707483, -0.85701346, -0.5146523), (-0.025708547, -0.85701364, -0.514652), (-0.025708748, -0.8570127, -0.5146536), (-0.025708547, -0.85701364, -0.514652), (-0.025707483, -0.85701346, -0.5146523), (-0.025705138, -0.8570132, -0.51465285), (-0.025704809, -0.85701376, -0.51465195), (-0.025705138, -0.8570132, -0.51465285), (-0.025707483, -0.85701346, -0.5146523), (-0.025705138, -0.8570132, -0.51465285), (-0.025704809, -0.85701376, -0.51465195), (-0.025704809, -0.85701376, -0.51465195), (-0.025704809, -0.85701376, -0.51465195), (-0.025704809, -0.85701376, -0.51465195), (-0.025705138, -0.8570132, -0.51465285), (-0.025704809, -0.85701376, -0.51465195), (-0.025704809, -0.85701376, -0.51465195), (-0.025704809, -0.85701376, -0.51465195), (-0.02570513, -0.8570132, -0.51465285), (-0.025704809, -0.85701376, -0.51465195), (-0.025704809, -0.85701376, -0.51465195), (-0.025704809, -0.85701376, -0.51465195), (-0.02570513, -0.8570132, -0.51465285), (-0.025705764, -0.85701185, -0.5146551), (-0.025707034, -0.8570101, -0.514658), (-0.025705764, -0.85701185, -0.5146551), (-0.02570513, -0.8570132, -0.51465285), (-0.025705764, -0.85701185, -0.5146551), (-0.025707034, -0.8570101, -0.514658), (-0.025707036, -0.8570101, -0.514658), (-0.025707036, -0.8570101, -0.514658), (-0.025706008, -0.8570104, -0.51465756), (-0.025705764, -0.85701185, -0.5146551), (-0.025705764, -0.85701185, -0.5146551), (-0.025706008, -0.8570104, -0.51465756), (-0.025705123, -0.85701114, -0.5146563), (-0.025705764, -0.85701185, -0.5146551), (-0.025705123, -0.85701114, -0.5146563), (-0.025704809, -0.85701376, -0.51465195), (0.95284444, 0.13471302, -0.2719189), (-0.025704809, -0.85701376, -0.51465195), (-0.025704809, -0.85701376, -0.51465195), (-0.025704809, -0.85701376, -0.51465195), (0.95284444, 0.13471302, -0.2719189), (0.95284444, 0.13471302, -0.2719189), (0.95284444, 0.13471302, -0.2719189), (-0.025705177, -0.85701317, -0.51465297), (-0.025704809, -0.85701376, -0.51465195), (-0.025705177, -0.85701317, -0.51465297), (0.95284444, 0.13471302, -0.2719189), (0.95284444, 0.13471302, -0.2719189), (0.30236855, -0.4973729, 0.813138), (-0.025705177, -0.85701317, -0.51465297), (0.95284444, 0.13471302, -0.2719189), (-0.025705177, -0.85701317, -0.51465297), (0.30236855, -0.4973729, 0.813138), (-0.025706777, -0.85701054, -0.51465726), (-0.95284444, -0.13471302, 0.2719189), (-0.025708178, -0.85701424, -0.514651), (-0.025704809, -0.85701376, -0.51465195), (-0.025708178, -0.85701424, -0.514651), (-0.95284444, -0.13471302, 0.2719189), (-0.95284444, -0.1347096, 0.2719205), (-0.95284444, -0.1347096, 0.2719205), (-0.025710294, -0.857009, -0.5146597), (-0.025708178, -0.85701424, -0.514651), (-0.025710294, -0.857009, -0.5146597), (-0.95284444, -0.1347096, 0.2719205), (0.95284426, 0.13471334, -0.27191928), (-0.95284444, -0.13471302, 0.2719189), (-0.02570781, -0.85701483, -0.51465005), (-0.025704809, -0.85701376, -0.51465195), (-0.02570781, -0.85701483, -0.51465005), (-0.95284444, -0.13471302, 0.2719189), (-0.95284444, -0.13470912, 0.27192074), (-0.95284444, -0.13470912, 0.27192074), (-0.02570832, -0.8570122, -0.5146544), (-0.02570781, -0.85701483, -0.51465005), (-0.02570832, -0.8570122, -0.5146544), (-0.95284444, -0.13470912, 0.27192074), (0.95284426, 0.1347134, -0.27191934), (-0.95284444, -0.13471302, 0.2719189), (-0.025704809, -0.85701376, -0.51465195), (-0.025706062, -0.85701174, -0.51465535), (-0.025704809, -0.85701376, -0.51465195), (-0.95284444, -0.13471302, 0.2719189), (-0.95284444, -0.13471302, 0.2719189), (-0.95284444, -0.13471302, 0.2719189), (-0.025704809, -0.85701376, -0.51465195), (-0.025704809, -0.85701376, -0.51465195), (-0.025704809, -0.85701376, -0.51465195), (-0.95284444, -0.13471302, 0.2719189), (-0.95284444, -0.13471302, 0.2719189), (-0.95284444, -0.13471302, 0.2719189), (-0.025708547, -0.85701364, -0.514652), (-0.025705138, -0.8570132, -0.51465285), (-0.025708547, -0.85701364, -0.514652), (-0.95284444, -0.13471302, 0.2719189), (-0.95284444, -0.13470976, 0.2719204), (-0.95284444, -0.13470976, 0.2719204), (-0.02570832, -0.8570122, -0.5146544), (-0.025708547, -0.85701364, -0.514652), (-0.02570832, -0.8570122, -0.5146544), (-0.95284444, -0.13470976, 0.2719204), (0.95284426, 0.13471334, -0.27191928), (-0.95284444, -0.13471302, 0.2719189), (-0.02571081, -0.85701597, -0.5146481), (-0.025706062, -0.85701174, -0.51465535), (-0.02571081, -0.85701597, -0.5146481), (-0.95284444, -0.13471302, 0.2719189), (-0.95284444, -0.13470976, 0.2719204), (-0.95284444, -0.13470976, 0.2719204), (-0.025711842, -0.85701066, -0.5146568), (-0.02571081, -0.85701597, -0.5146481), (-0.025711842, -0.85701066, -0.5146568), (-0.95284444, -0.13470976, 0.2719204), (0.95284426, 0.13471334, -0.27191928), (-0.95284444, -0.13471302, 0.2719189), (-0.025707483, -0.85701346, -0.5146523), (-0.025709998, -0.8570106, -0.51465696), (-0.025707483, -0.85701346, -0.5146523), (-0.95284444, -0.13471302, 0.2719189), (-0.95284444, -0.13470976, 0.2719204), (-0.95284444, -0.13470976, 0.2719204), (-0.025704809, -0.85701376, -0.51465195), (-0.025707483, -0.85701346, -0.5146523), (-0.025704809, -0.85701376, -0.51465195), (-0.95284444, -0.13470976, 0.2719204), (0.95284426, 0.13471334, -0.27191928), (0.9528443, 0.1347132, -0.2719192), (-0.025704809, -0.85701376, -0.51465195), (0.9528443, 0.13471317, -0.27191913), (-0.025704809, -0.85701376, -0.51465195), (0.9528443, 0.1347132, -0.2719192), (-0.025708182, -0.85701424, -0.514651), (0.30236855, -0.4973729, 0.813138), (-0.025708182, -0.85701424, -0.514651), (0.9528443, 0.1347132, -0.2719192), (-0.025708182, -0.85701424, -0.514651), (0.30236855, -0.4973729, 0.813138), (-0.025710292, -0.857009, -0.5146597), (0.9528443, 0.13471323, -0.27191925), (-0.025704479, -0.8570143, -0.51465106), (0.95284426, 0.13471326, -0.27191928), (-0.025704479, -0.8570143, -0.51465106), (0.9528443, 0.13471323, -0.27191925), (-0.025701433, -0.8570133, -0.51465297), (0.3023688, -0.49736524, 0.81314266), (-0.025701433, -0.8570133, -0.51465297), (0.9528443, 0.13471323, -0.27191925), (-0.025701433, -0.8570133, -0.51465297), (0.3023688, -0.49736524, 0.81314266), (-0.025703263, -0.8570121, -0.5146549), (0.95284426, 0.13471332, -0.27191937), (-0.025706746, -0.8570147, -0.51465034), (-0.025708418, -0.8570132, -0.5146527), (-0.025706746, -0.8570147, -0.51465034), (0.95284426, 0.13471332, -0.27191937), (0.9528443, 0.13471317, -0.27191916), (0.9528443, 0.13471317, -0.27191916), (-0.025704809, -0.85701376, -0.51465195), (-0.025706746, -0.8570147, -0.51465034), (-0.025704809, -0.85701376, -0.51465195), (0.9528443, 0.13471317, -0.27191916), (0.30236855, -0.4973729, 0.813138), (-0.02570513, -0.8570132, -0.51465285), (0.95284444, 0.13471302, -0.2719189), (-0.025707034, -0.8570101, -0.514658), (0.95284444, 0.13471302, -0.2719189), (0.95284444, 0.13471302, -0.2719189), (-0.02570513, -0.8570132, -0.51465285), (-0.025704809, -0.85701376, -0.51465195), (0.95284444, 0.13471302, -0.2719189), (-0.02570513, -0.8570132, -0.51465285), (0.95284444, 0.13471302, -0.2719189), (-0.025704809, -0.85701376, -0.51465195), (0.95284444, 0.13471302, -0.2719189), (0.95284426, 0.13471062, -0.2719207), (-0.025707483, -0.85701346, -0.5146523), (-0.025708748, -0.8570127, -0.5146536), (-0.025707483, -0.85701346, -0.5146523), (0.95284426, 0.13471062, -0.2719207), (0.95284414, 0.13470942, -0.27192166), (0.95284414, 0.13470942, -0.27192166), (-0.025704809, -0.85701376, -0.51465195), (-0.025707483, -0.85701346, -0.5146523), (-0.025704809, -0.85701376, -0.51465195), (0.95284414, 0.13470942, -0.27192166), (0.30236855, -0.4973729, 0.813138), (0.9528443, 0.13471319, -0.27191916), (-0.025705138, -0.8570132, -0.51465285), (0.9528444, 0.13471314, -0.2719191), (-0.025705138, -0.8570132, -0.51465285), (0.9528443, 0.13471319, -0.27191916), (-0.025708921, -0.85701305, -0.514653), (0.30236855, -0.4973729, 0.813138), (-0.025708921, -0.85701305, -0.514653), (0.9528443, 0.13471319, -0.27191916), (-0.025708921, -0.85701305, -0.514653), (0.30236855, -0.4973729, 0.813138), (-0.025710292, -0.857009, -0.5146597), (0.025704809, 0.85701376, 0.51465195), (0.025704809, 0.85701376, 0.51465195), (0.025704809, 0.85701376, 0.51465195), (0.025704809, 0.85701376, 0.51465195), (0.025704809, 0.85701376, 0.51465195), (0.025704809, 0.85701376, 0.51465195), (0.02570444, 0.85701436, 0.514651), (0.025704809, 0.85701376, 0.51465195), (0.025704809, 0.85701376, 0.51465195), (0.02570444, 0.85701436, 0.514651), (0.025704809, 0.85701376, 0.51465195), (0.025703555, 0.85701585, 0.5146486), (0.025703555, 0.85701585, 0.5146486), (0.025702838, 0.85701704, 0.5146467), (0.02570444, 0.85701436, 0.514651), (0.025702838, 0.85701704, 0.5146467), (0.025703555, 0.85701585, 0.5146486), (0.025701202, 0.8570143, 0.51465124), (0.025703555, 0.85701585, 0.5146486), (0.025701296, 0.8570153, 0.51464957), (0.025701202, 0.8570143, 0.51465124), (0.025701202, 0.8570143, 0.51465124), (0.025701296, 0.8570153, 0.51464957), (0.025701798, 0.8570127, 0.5146539), (0.025701798, 0.8570127, 0.5146539), (0.02570287, 0.85701287, 0.5146536), (0.025701202, 0.8570143, 0.51465124), (0.02570287, 0.85701287, 0.5146536), (0.025701798, 0.8570127, 0.5146539), (0.025704809, 0.85701376, 0.51465195), (0.025704809, 0.85701376, 0.51465195), (0.025704809, 0.85701376, 0.51465195), (0.02570287, 0.85701287, 0.5146536), (0.025704809, 0.85701376, 0.51465195), (0.025704809, 0.85701376, 0.51465195), (0.025705138, 0.8570132, 0.51465285), (0.025704809, 0.85701376, 0.51465195), (0.025704809, 0.85701376, 0.51465195), (0.025705138, 0.8570132, 0.51465285), (0.025705138, 0.8570132, 0.51465285), (0.025704809, 0.85701376, 0.51465195), (0.025707483, 0.85701346, 0.5146523), (0.025707483, 0.85701346, 0.5146523), (0.025708178, 0.85701424, 0.514651), (0.025705138, 0.8570132, 0.51465285), (0.025708178, 0.85701424, 0.514651), (0.025707483, 0.85701346, 0.5146523), (0.02570749, 0.8570147, 0.5146502), (0.02570749, 0.8570147, 0.5146502), (0.025706353, 0.85701543, 0.5146491), (0.025708178, 0.85701424, 0.514651), (0.025706353, 0.85701543, 0.5146491), (0.02570749, 0.8570147, 0.5146502), (0.025704809, 0.85701376, 0.51465195), (0.02570749, 0.8570147, 0.5146502), (0.025704809, 0.85701376, 0.51465195), (0.025704809, 0.85701376, 0.51465195), (0.025704809, 0.85701376, 0.51465195), (0.025704809, 0.85701376, 0.51465195), (0.02570287, 0.85701287, 0.5146536), (0.02570287, 0.85701287, 0.5146536), (0.025701437, 0.8570133, 0.51465297), (0.025704809, 0.85701376, 0.51465195), (0.025701437, 0.8570133, 0.51465297), (0.02570287, 0.85701287, 0.5146536), (0.025699947, 0.8570164, 0.51464784), (0.025699947, 0.8570164, 0.51464784), (0.025699323, 0.8570186, 0.51464427), (0.025701437, 0.8570133, 0.51465297), (0.025699323, 0.8570186, 0.51464427), (0.025699947, 0.8570164, 0.51464784), (0.025699947, 0.8570164, 0.51464784), (0.025699947, 0.8570164, 0.51464784), (0.025699321, 0.8570186, 0.51464427), (0.025699947, 0.8570164, 0.51464784), (0.025699947, 0.8570164, 0.51464784), (0.025699321, 0.8570186, 0.51464427), (0.025701437, 0.8570133, 0.51465297), (0.025701437, 0.8570133, 0.51465297), (0.02570287, 0.85701287, 0.5146536), (0.025699947, 0.8570164, 0.51464784), (0.02570287, 0.85701287, 0.5146536), (0.025701437, 0.8570133, 0.51465297), (0.025704809, 0.85701376, 0.51465195), (0.025704809, 0.85701376, 0.51465195), (0.025704809, 0.85701376, 0.51465195), (0.02570287, 0.85701287, 0.5146536), (0.025704809, 0.85701376, 0.51465195), (0.025704809, 0.85701376, 0.51465195), (0.025704809, 0.85701376, 0.51465195), (0.025704809, 0.85701376, 0.51465195), (0.025704809, 0.85701376, 0.51465195), (0.025704809, 0.85701376, 0.51465195), (0.025704809, 0.85701376, 0.51465195), (0.025704809, 0.85701376, 0.51465195), (0.02570287, 0.85701287, 0.5146536), (0.02570287, 0.85701287, 0.5146536), (0.025702177, 0.8570121, 0.51465493), (0.025704809, 0.85701376, 0.51465195), (0.025702177, 0.8570121, 0.51465493), (0.02570287, 0.85701287, 0.5146536), (0.025702447, 0.8570123, 0.51465464), (0.025702447, 0.8570123, 0.51465464), (0.02570326, 0.8570121, 0.5146549), (0.025702177, 0.8570121, 0.51465493), (0.02570326, 0.8570121, 0.5146549), (0.025702447, 0.8570123, 0.51465464), (0.025704479, 0.8570143, 0.51465106), (0.025702447, 0.8570123, 0.51465464), (0.025704809, 0.85701376, 0.51465195), (0.025704479, 0.8570143, 0.51465106), (0.025704479, 0.8570143, 0.51465106), (0.025704809, 0.85701376, 0.51465195), (0.025702132, 0.85701406, 0.51465166), (0.0257007, 0.85701454, 0.51465094), (0.025704479, 0.8570143, 0.51465106), (0.025702132, 0.85701406, 0.51465166), (0.0257007, 0.85701454, 0.51465094), (0.025702132, 0.85701406, 0.51465166), (0.025699614, 0.8570169, 0.514647), (0.025699614, 0.8570169, 0.514647), (0.025699321, 0.8570186, 0.51464427), (0.0257007, 0.85701454, 0.51465094), (0.025699321, 0.8570186, 0.51464427), (0.025699614, 0.8570169, 0.514647), (0.025697589, 0.8570149, 0.5146505), (0.025699614, 0.8570169, 0.514647), (0.025697779, 0.85701686, 0.5146471), (0.025697589, 0.8570149, 0.5146505), (0.025697589, 0.8570149, 0.5146505), (0.025697779, 0.85701686, 0.5146471), (0.025698796, 0.8570116, 0.5146559), (0.025700562, 0.8570125, 0.5146543), (0.025697589, 0.8570149, 0.5146505), (0.025698796, 0.8570116, 0.5146559), (0.025700562, 0.8570125, 0.5146543), (0.025698796, 0.8570116, 0.5146559), (0.025703555, 0.85701585, 0.5146486), (0.025703555, 0.85701585, 0.5146486), (0.025702838, 0.85701704, 0.5146467), (0.025700562, 0.8570125, 0.5146543), (0.025702838, 0.85701704, 0.5146467), (0.025703555, 0.85701585, 0.5146486), (0.02570087, 0.85701483, 0.51465034), (0.025703555, 0.85701585, 0.5146486), (0.025701292, 0.8570153, 0.51464957), (0.02570087, 0.85701483, 0.51465034), (0.02570087, 0.85701483, 0.51465034), (0.025701292, 0.8570153, 0.51464957), (0.025701059, 0.8570139, 0.51465195), (0.025702132, 0.85701406, 0.51465166), (0.02570087, 0.85701483, 0.51465034), (0.025701059, 0.8570139, 0.51465195), (0.025702132, 0.85701406, 0.51465166), (0.025701059, 0.8570139, 0.51465195), (0.025704479, 0.8570143, 0.51465106), (0.025704479, 0.8570143, 0.51465106), (0.025704809, 0.85701376, 0.51465195), (0.025702132, 0.85701406, 0.51465166), (0.025704809, 0.85701376, 0.51465195), (0.025704479, 0.8570143, 0.51465106), (0.025704809, 0.85701376, 0.51465195), (0.025704479, 0.8570143, 0.51465106), (0.025704809, 0.85701376, 0.51465195), (0.025704809, 0.85701376, 0.51465195), (0.025704809, 0.85701376, 0.51465195), (0.025704809, 0.85701376, 0.51465195), (0.025704809, 0.85701376, 0.51465195), (0.025704809, 0.85701376, 0.51465195), (0.025704388, 0.8570145, 0.5146508), (0.025704809, 0.85701376, 0.51465195), (0.025704388, 0.8570145, 0.5146508), (0.025704809, 0.85701376, 0.51465195), (0.025703223, 0.8570164, 0.5146477), (0.025704809, 0.85701376, 0.51465195), (0.025704809, 0.85701376, 0.51465195), (0.95284444, 0.13471302, -0.2719189), (0.95284444, 0.13471302, -0.2719189), (0.025704809, 0.85701376, 0.51465195), (0.95284444, 0.13471302, -0.2719189), (0.025704809, 0.85701376, 0.51465195), (0.02570444, 0.85701436, 0.514651), (0.95284444, 0.13471302, -0.2719189), (0.95284444, 0.13471302, -0.2719189), (0.02570444, 0.85701436, 0.514651), (0.95284444, 0.13471302, -0.2719189), (0.02570444, 0.85701436, 0.514651), (0.30236855, -0.4973729, 0.813138), (0.95284444, 0.13471302, -0.2719189), (0.30236855, -0.4973729, 0.813138), (0.02570444, 0.85701436, 0.514651), (0.025702838, 0.85701704, 0.5146467), (0.025699947, 0.8570164, 0.51464784), (-0.95284444, -0.13471302, 0.2719189), (-0.95284444, -0.13471302, 0.2719189), (-0.95284444, -0.13471302, 0.2719189), (0.025699947, 0.8570164, 0.51464784), (0.02570287, 0.85701287, 0.5146536), (0.02570287, 0.85701287, 0.5146536), (-0.95284444, -0.13471302, 0.2719189), (-0.95284444, -0.13471302, 0.2719189), (-0.95284444, -0.13471302, 0.2719189), (0.02570287, 0.85701287, 0.5146536), (0.025704809, 0.85701376, 0.51465195), (0.025704809, 0.85701376, 0.51465195), (0.025701798, 0.8570127, 0.5146539), (-0.95284444, -0.13471302, 0.2719189), (-0.95284444, -0.13471302, 0.2719189), (0.025701798, 0.8570127, 0.5146539), (-0.95284444, -0.13471302, 0.2719189), (0.025701798, 0.8570127, 0.5146539), (0.025701296, 0.8570153, 0.51464957), (-0.95284444, -0.13471302, 0.2719189), (-0.95284444, -0.13471302, 0.2719189), (0.025701296, 0.8570153, 0.51464957), (-0.95284444, -0.13471302, 0.2719189), (0.025703555, 0.85701585, 0.5146486), (0.025704809, 0.85701376, 0.51465195), (-0.95284444, -0.13471302, 0.2719189), (-0.95284444, -0.13471302, 0.2719189), (0.025704809, 0.85701376, 0.51465195), (-0.95284444, -0.13471302, 0.2719189), (0.025704809, 0.85701376, 0.51465195), (0.025704809, 0.85701376, 0.51465195), (-0.95284444, -0.13471302, 0.2719189), (-0.95284444, -0.13471302, 0.2719189), (0.025704809, 0.85701376, 0.51465195), (-0.30236855, 0.4973729, -0.813138), (0.025704479, 0.8570143, 0.51465106), (0.025701059, 0.8570139, 0.51465195), (-0.95284444, -0.13471302, 0.2719189), (-0.95284444, -0.13471302, 0.2719189), (0.025701059, 0.8570139, 0.51465195), (-0.95284444, -0.13471302, 0.2719189), (0.025701059, 0.8570139, 0.51465195), (0.025701292, 0.8570153, 0.51464957), (-0.95284444, -0.13471302, 0.2719189), (-0.95284444, -0.13471302, 0.2719189), (0.025701292, 0.8570153, 0.51464957), (-0.95284444, -0.13471302, 0.2719189), (0.025703555, 0.85701585, 0.5146486), (0.025698796, 0.8570116, 0.5146559), (-0.95284444, -0.13471302, 0.2719189), (-0.95284444, -0.13471302, 0.2719189), (0.025698796, 0.8570116, 0.5146559), (-0.95284444, -0.13471302, 0.2719189), (0.025698796, 0.8570116, 0.5146559), (0.025697779, 0.85701686, 0.5146471), (-0.95284444, -0.13471302, 0.2719189), (-0.95284444, -0.13471302, 0.2719189), (0.025697779, 0.85701686, 0.5146471), (-0.95284444, -0.13471302, 0.2719189), (0.025699614, 0.8570169, 0.514647), (0.025702132, 0.85701406, 0.51465166), (-0.95284444, -0.13471302, 0.2719189), (-0.95284444, -0.13471302, 0.2719189), (0.025702132, 0.85701406, 0.51465166), (-0.95284444, -0.13471302, 0.2719189), (0.025702132, 0.85701406, 0.51465166), (0.025704809, 0.85701376, 0.51465195), (-0.95284444, -0.13471302, 0.2719189), (-0.95284444, -0.13471302, 0.2719189), (0.025704809, 0.85701376, 0.51465195), (-0.95284444, -0.13471302, 0.2719189), (0.025704809, 0.85701376, 0.51465195), (0.9528443, 0.1347132, -0.2719192), (0.9528443, 0.13471317, -0.27191913), (0.9528443, 0.1347132, -0.2719192), (0.025704809, 0.85701376, 0.51465195), (0.025701437, 0.8570133, 0.51465297), (0.025701437, 0.8570133, 0.51465297), (0.30236855, -0.4973729, 0.813138), (0.9528443, 0.1347132, -0.2719192), (0.30236855, -0.4973729, 0.813138), (0.025701437, 0.8570133, 0.51465297), (0.025699323, 0.8570186, 0.51464427), (0.025705138, 0.8570132, 0.51465285), (0.9528443, 0.13471323, -0.27191925), (0.95284426, 0.13471326, -0.27191928), (0.9528443, 0.13471323, -0.27191925), (0.025705138, 0.8570132, 0.51465285), (0.025708178, 0.85701424, 0.514651), (0.025708178, 0.85701424, 0.514651), (0.30236834, -0.49738055, 0.8131334), (0.9528443, 0.13471323, -0.27191925), (0.30236834, -0.49738055, 0.8131334), (0.025708178, 0.85701424, 0.514651), (0.025706353, 0.85701543, 0.5146491), (0.025701202, 0.8570143, 0.51465124), (0.02570287, 0.85701287, 0.5146536), (0.95284426, 0.13471332, -0.27191937), (0.95284426, 0.13471332, -0.27191937), (0.02570287, 0.85701287, 0.5146536), (0.9528443, 0.13471317, -0.27191916), (0.02570287, 0.85701287, 0.5146536), (0.025704809, 0.85701376, 0.51465195), (0.9528443, 0.13471317, -0.27191916), (0.9528443, 0.13471317, -0.27191916), (0.025704809, 0.85701376, 0.51465195), (0.30236855, -0.4973729, 0.813138), (0.30236855, -0.4973729, 0.813138), (0.025704388, 0.8570145, 0.5146508), (0.02568433, 0.85704744, 0.5145969), (0.025704388, 0.8570145, 0.5146508), (0.30236855, -0.4973729, 0.813138), (0.95284444, 0.13471302, -0.2719189), (0.95284444, 0.13471302, -0.2719189), (0.025704809, 0.85701376, 0.51465195), (0.025704388, 0.8570145, 0.5146508), (0.025704809, 0.85701376, 0.51465195), (0.95284444, 0.13471302, -0.2719189), (0.95284444, 0.13471302, -0.2719189), (0.02570087, 0.85701483, 0.51465034), (0.025702132, 0.85701406, 0.51465166), (0.95284444, 0.13471574, -0.27191764), (0.95284444, 0.13471574, -0.27191764), (0.025702132, 0.85701406, 0.51465166), (0.9528444, 0.13471718, -0.27191702), (0.025702132, 0.85701406, 0.51465166), (0.025704809, 0.85701376, 0.51465195), (0.9528444, 0.13471718, -0.27191702), (0.9528444, 0.13471718, -0.27191702), (0.025704809, 0.85701376, 0.51465195), (0.30236855, -0.4973729, 0.813138), (0.025704479, 0.8570143, 0.51465106), (0.9528443, 0.13471319, -0.27191916), (0.9528444, 0.13471314, -0.2719191), (0.9528443, 0.13471319, -0.27191916), (0.025704479, 0.8570143, 0.51465106), (0.0257007, 0.85701454, 0.51465094), (0.0257007, 0.85701454, 0.51465094), (0.30236855, -0.4973729, 0.813138), (0.9528443, 0.13471319, -0.27191916), (0.30236855, -0.4973729, 0.813138), (0.0257007, 0.85701454, 0.51465094), (0.025699321, 0.8570186, 0.51464427), (0.95284444, 0.13471298, -0.27191892), (0.95284444, 0.13471302, -0.2719189), (0.95284444, 0.13471302, -0.2719189), (0.95284444, 0.13471298, -0.27191892), (0.95284444, 0.13471302, -0.2719189), (0.95284444, 0.13471295, -0.27191895), (0.93358374, 0.3267791, -0.14709495), (0.95284444, 0.13471298, -0.27191892), (0.95284444, 0.13471295, -0.27191895), (0.93358374, 0.3267791, -0.14709495), (0.95284444, 0.13471295, -0.27191895), (0.93355405, 0.32692558, -0.14695802), (0.95284444, 0.13471304, -0.2719189), (0.9528444, 0.13471314, -0.27191904), (0.9528443, 0.13471326, -0.2719192), (0.9528444, 0.13471314, -0.27191904), (0.95284444, 0.13471304, -0.2719189), (0.95284444, 0.13471302, -0.2719189), (0.95284444, 0.13471304, -0.2719189), (0.3023767, -0.49737164, 0.81313574), (0.95284444, 0.13471302, -0.2719189), (0.3023767, -0.49737164, 0.81313574), (0.95284444, 0.13471304, -0.2719189), (0.30238482, -0.49737042, 0.8131335), (0.95284444, 0.13471302, -0.2719189), (-0.025707036, -0.8570101, -0.514658), (-0.025707034, -0.8570101, -0.514658), (-0.025707036, -0.8570101, -0.514658), (0.95284444, 0.13471302, -0.2719189), (0.30236855, -0.4973729, 0.813138), (0.30236855, -0.4973729, 0.813138), (0.30236855, -0.4973729, 0.813138), (-0.025707036, -0.8570101, -0.514658), (-0.025707036, -0.8570101, -0.514658), (0.30236855, -0.4973729, 0.813138), (-0.025706008, -0.8570104, -0.51465756), (-0.95284444, -0.13471082, 0.27191994), (-0.025707161, -0.8570153, -0.51464933), (-0.95284444, -0.13471302, 0.2719189), (-0.025707161, -0.8570153, -0.51464933), (-0.95284444, -0.13471082, 0.27191994), (-0.025706746, -0.8570147, -0.51465034), (-0.95284444, -0.13471082, 0.27191994), (-0.025704809, -0.85701376, -0.51465195), (-0.025706746, -0.8570147, -0.51465034), (-0.025704809, -0.85701376, -0.51465195), (-0.95284444, -0.13471082, 0.27191994), (0.95284426, 0.13471334, -0.27191928), (-0.95284444, -0.13471067, 0.27192), (-0.025709668, -0.85701114, -0.51465607), (-0.95284444, -0.13471302, 0.2719189), (-0.025709668, -0.85701114, -0.51465607), (-0.95284444, -0.13471067, 0.27192), (-0.025706746, -0.8570147, -0.51465034), (-0.95284444, -0.13471067, 0.27192), (-0.025704809, -0.85701376, -0.51465195), (-0.025706746, -0.8570147, -0.51465034), (-0.025704809, -0.85701376, -0.51465195), (-0.95284444, -0.13471067, 0.27192), (0.9528443, 0.13471329, -0.27191925), (-0.95284444, -0.13471088, 0.2719199), (-0.025702124, -0.8570128, -0.51465374), (-0.95284444, -0.13471302, 0.2719189), (-0.025702124, -0.8570128, -0.51465374), (-0.95284444, -0.13471088, 0.2719199), (-0.025702132, -0.85701406, -0.51465166), (-0.95284444, -0.13471088, 0.2719199), (-0.025704809, -0.85701376, -0.51465195), (-0.025702132, -0.85701406, -0.51465166), (-0.025704809, -0.85701376, -0.51465195), (-0.95284444, -0.13471088, 0.2719199), (0.95284426, 0.13471334, -0.27191928), (0.30238482, -0.49737042, 0.8131335), (-0.9528442, -0.13470536, 0.2719235), (-0.025705764, -0.85701185, -0.5146551), (-0.025705764, -0.85701185, -0.5146551), (-0.9528442, -0.13470536, 0.2719235), (-0.025704809, -0.85701376, -0.51465195), (-0.9528442, -0.13470536, 0.2719235), (-0.025704809, -0.85701376, -0.51465195), (-0.025704809, -0.85701376, -0.51465195), (-0.025704809, -0.85701376, -0.51465195), (-0.9528442, -0.13470536, 0.2719235), (0.9528443, 0.13471326, -0.2719192), (0.9528443, 0.13471323, -0.27191922), (-0.025704809, -0.85701376, -0.51465195), (0.9528443, 0.13471317, -0.27191913), (-0.025704809, -0.85701376, -0.51465195), (0.9528443, 0.13471323, -0.27191922), (-0.025707444, -0.8570155, -0.51464903), (0.9528443, 0.13471323, -0.27191922), (-0.02570635, -0.85701543, -0.5146491), (-0.025707444, -0.8570155, -0.51464903), (-0.02570635, -0.85701543, -0.5146491), (0.9528443, 0.13471323, -0.27191922), (0.30236855, -0.4973729, 0.813138), (0.9528443, 0.13471317, -0.27191913), (-0.025706746, -0.8570147, -0.51465034), (-0.02570967, -0.85701114, -0.51465607), (-0.025706746, -0.8570147, -0.51465034), (0.9528443, 0.13471317, -0.27191913), (0.9528443, 0.13471323, -0.27191922), (0.30236855, -0.4973729, 0.813138), (-0.025706746, -0.8570147, -0.51465034), (0.9528443, 0.13471323, -0.27191922), (-0.025706746, -0.8570147, -0.51465034), (0.30236855, -0.4973729, 0.813138), (-0.025704809, -0.85701376, -0.51465195), (0.9528443, 0.13471189, -0.2719199), (-0.025709054, -0.857015, -0.5146497), (-0.025712026, -0.8570127, -0.51465344), (-0.025709054, -0.857015, -0.5146497), (0.9528443, 0.13471189, -0.2719199), (0.95284426, 0.13471065, -0.27192074), (0.30236855, -0.4973729, 0.813138), (-0.025709054, -0.857015, -0.5146497), (0.95284426, 0.13471065, -0.27192074), (-0.025709054, -0.857015, -0.5146497), (0.30236855, -0.4973729, 0.813138), (-0.025706777, -0.85701054, -0.51465726), (0.025702447, 0.8570123, 0.51465464), (-0.95284444, -0.13471302, 0.2719189), (-0.95284444, -0.13471302, 0.2719189), (-0.95284444, -0.13471302, 0.2719189), (0.025702447, 0.8570123, 0.51465464), (0.02570287, 0.85701287, 0.5146536), (0.02570287, 0.85701287, 0.5146536), (0.025704809, 0.85701376, 0.51465195), (-0.95284444, -0.13471302, 0.2719189), (-0.95284444, -0.13471302, 0.2719189), (0.025704809, 0.85701376, 0.51465195), (-0.95284444, -0.13471302, 0.2719189), (0.025704809, 0.85701376, 0.51465195), (-0.95284444, -0.13471302, 0.2719189), (-0.95284444, -0.13471302, 0.2719189), (-0.95284444, -0.13471302, 0.2719189), (0.025704809, 0.85701376, 0.51465195), (0.025701437, 0.8570133, 0.51465297), (0.025701437, 0.8570133, 0.51465297), (0.025699321, 0.8570186, 0.51464427), (-0.95284444, -0.13471302, 0.2719189), (-0.95284444, -0.13471302, 0.2719189), (0.025699321, 0.8570186, 0.51464427), (-0.95284444, -0.13471302, 0.2719189), (0.02570749, 0.8570147, 0.5146502), (-0.95284444, -0.13471302, 0.2719189), (-0.95284444, -0.13471302, 0.2719189), (-0.95284444, -0.13471302, 0.2719189), (0.02570749, 0.8570147, 0.5146502), (0.025707483, 0.85701346, 0.5146523), (0.025707483, 0.85701346, 0.5146523), (0.025704809, 0.85701376, 0.51465195), (-0.95284444, -0.13471302, 0.2719189), (-0.95284444, -0.13471302, 0.2719189), (0.025704809, 0.85701376, 0.51465195), (-0.95284444, -0.13471302, 0.2719189), (0.025703223, 0.8570164, 0.5146477), (-0.95284444, -0.13471302, 0.2719189), (-0.95284444, -0.13471302, 0.2719189), (-0.95284444, -0.13471302, 0.2719189), (0.025703223, 0.8570164, 0.5146477), (0.025704809, 0.85701376, 0.51465195), (0.025704809, 0.85701376, 0.51465195), (0.025704809, 0.85701376, 0.51465195), (-0.95284444, -0.13471302, 0.2719189), (-0.95284444, -0.13471302, 0.2719189), (0.025704809, 0.85701376, 0.51465195), (-0.95284444, -0.13471302, 0.2719189), (0.025704809, 0.85701376, 0.51465195), (0.9528443, 0.13471323, -0.27191922), (0.9528443, 0.13471317, -0.27191913), (0.9528443, 0.13471323, -0.27191922), (0.025704809, 0.85701376, 0.51465195), (0.025702177, 0.8570121, 0.51465493), (0.025702177, 0.8570121, 0.51465493), (0.02570326, 0.8570121, 0.5146549), (0.9528443, 0.13471323, -0.27191922), (0.9528443, 0.13471323, -0.27191922), (0.02570326, 0.8570121, 0.5146549), (0.30236855, -0.4973729, 0.813138), (0.025699947, 0.8570164, 0.51464784), (0.02570287, 0.85701287, 0.5146536), (0.9528443, 0.13471317, -0.27191913), (0.9528443, 0.13471317, -0.27191913), (0.02570287, 0.85701287, 0.5146536), (0.9528443, 0.13471323, -0.27191922), (0.02570287, 0.85701287, 0.5146536), (0.30236855, -0.4973729, 0.813138), (0.9528443, 0.13471323, -0.27191922), (0.30236855, -0.4973729, 0.813138), (0.02570287, 0.85701287, 0.5146536), (0.025704809, 0.85701376, 0.51465195), (0.025697589, 0.8570149, 0.5146505), (0.025700562, 0.8570125, 0.5146543), (0.9528444, 0.13471444, -0.27191836), (0.9528444, 0.13471444, -0.27191836), (0.025700562, 0.8570125, 0.5146543), (0.9528444, 0.13471575, -0.27191767), (0.025700562, 0.8570125, 0.5146543), (0.30236855, -0.4973729, 0.813138), (0.9528444, 0.13471575, -0.27191767), (0.30236855, -0.4973729, 0.813138), (0.025700562, 0.8570125, 0.5146543), (0.025702838, 0.85701704, 0.5146467), (0.93874973, 0.15627809, -0.30712572), (0.92293185, 0.17746566, -0.34161785), (0.9651256, 0.11289189, -0.2361951), (0.93874973, 0.15627809, -0.30712572), (0.9651256, 0.11289189, -0.2361951), (0.9755335, 0.090940446, -0.20016073), (0.9755335, 0.090940446, -0.20016073), (0.9651256, 0.11289189, -0.2361951), (0.9840412, 0.068984956, -0.16402473), (0.9755335, 0.090940446, -0.20016073), (0.9840412, 0.068984956, -0.16402473), (0.9840412, 0.068984956, -0.16402473), (0.9055095, 0.19816242, -0.37521255), (0.9055095, 0.19816242, -0.37521255), (0.92293185, 0.17746566, -0.34161785), (0.9055095, 0.19816242, -0.37521255), (0.92293185, 0.17746566, -0.34161785), (0.93874973, 0.15627809, -0.30712572), (0.93874973, 0.15627809, -0.30712572), (0.92293185, 0.17746566, -0.34161785), (0.9651256, 0.11289189, -0.2361951), (0.93874973, 0.15627809, -0.30712572), (0.9651256, 0.11289189, -0.2361951), (0.9755335, 0.090940446, -0.20016073), (0.9755335, 0.090940446, -0.20016073), (0.9651256, 0.11289189, -0.2361951), (0.9840412, 0.068984956, -0.16402473), (0.9755335, 0.090940446, -0.20016073), (0.9840412, 0.068984956, -0.16402473), (0.9840412, 0.068984956, -0.16402473), (0.9055095, 0.19816242, -0.37521255), (0.9055095, 0.19816242, -0.37521255), (0.92293185, 0.17746566, -0.34161785), (0.9055095, 0.19816242, -0.37521255), (0.92293185, 0.17746566, -0.34161785), (0.93874973, 0.15627809, -0.30712572), (0.9387492, 0.15627888, -0.307127), (0.9229305, 0.17746753, -0.34162086), (0.96512604, 0.11289093, -0.23619351), (0.9387492, 0.15627888, -0.307127), (0.96512604, 0.11289093, -0.23619351), (0.97553456, 0.09093789, -0.20015652), (0.97553456, 0.09093789, -0.20015652), (0.96512604, 0.11289093, -0.23619351), (0.9840428, 0.06898019, -0.16401687), (0.97553456, 0.09093789, -0.20015652), (0.9840428, 0.06898019, -0.16401687), (0.9840428, 0.06898019, -0.16401687), (0.9055067, 0.19816557, -0.37521762), (0.9055067, 0.19816557, -0.37521762), (0.9229305, 0.17746753, -0.34162086), (0.9055067, 0.19816557, -0.37521762), (0.9229305, 0.17746753, -0.34162086), (0.9387492, 0.15627888, -0.307127), (0.9387492, 0.15627888, -0.307127), (0.9229305, 0.17746753, -0.34162086), (0.96512604, 0.11289093, -0.23619351), (0.9387492, 0.15627888, -0.307127), (0.96512604, 0.11289093, -0.23619351), (0.97553456, 0.09093789, -0.20015652), (0.97553456, 0.09093789, -0.20015652), (0.96512604, 0.11289093, -0.23619351), (0.9840428, 0.06898019, -0.16401687), (0.97553456, 0.09093789, -0.20015652), (0.9840428, 0.06898019, -0.16401687), (0.9840428, 0.06898019, -0.16401687), (0.9055067, 0.19816557, -0.37521762), (0.9055067, 0.19816557, -0.37521762), (0.9229305, 0.17746753, -0.34162086), (0.9055067, 0.19816557, -0.37521762), (0.9229305, 0.17746753, -0.34162086), (0.9387492, 0.15627888, -0.307127), (0.9387492, 0.15627888, -0.307127), (0.9229305, 0.17746753, -0.34162086), (0.965126, 0.11289108, -0.23619376), (0.9387492, 0.15627888, -0.307127), (0.965126, 0.11289108, -0.23619376), (0.9755344, 0.09093852, -0.20015758), (0.9755344, 0.09093852, -0.20015758), (0.965126, 0.11289108, -0.23619376), (0.9840423, 0.06898159, -0.16401917), (0.9755344, 0.09093852, -0.20015758), (0.9840423, 0.06898159, -0.16401917), (0.9840423, 0.06898159, -0.16401917), (0.9055067, 0.19816557, -0.37521762), (0.9055067, 0.19816557, -0.37521762), (0.9229305, 0.17746753, -0.34162086), (0.9055067, 0.19816557, -0.37521762), (0.9229305, 0.17746753, -0.34162086), (0.9387492, 0.15627888, -0.307127), (0.93874925, 0.15627871, -0.30712673), (0.9229309, 0.17746691, -0.34161988), (0.96512616, 0.11289077, -0.23619325), (0.93874925, 0.15627871, -0.30712673), (0.96512616, 0.11289077, -0.23619325), (0.9755349, 0.090937264, -0.20015551), (0.9755349, 0.090937264, -0.20015551), (0.96512616, 0.11289077, -0.23619325), (0.98404336, 0.06897879, -0.16401456), (0.9755349, 0.090937264, -0.20015551), (0.98404336, 0.06897879, -0.16401456), (0.98404336, 0.06897879, -0.16401456), (0.9055078, 0.19816424, -0.37521547), (0.9055078, 0.19816424, -0.37521547), (0.9229309, 0.17746691, -0.34161988), (0.9055078, 0.19816424, -0.37521547), (0.9229309, 0.17746691, -0.34161988), (0.93874925, 0.15627871, -0.30712673), (0.93874925, 0.15627873, -0.30712676), (0.92293054, 0.17746736, -0.34162062), (0.965126, 0.11289108, -0.23619376), (0.93874925, 0.15627873, -0.30712676), (0.965126, 0.11289108, -0.23619376), (0.9755345, 0.09093804, -0.20015678), (0.9755345, 0.09093804, -0.20015678), (0.965126, 0.11289108, -0.23619376), (0.9840428, 0.06898019, -0.16401687), (0.9755345, 0.09093804, -0.20015678), (0.9840428, 0.06898019, -0.16401687), (0.9840428, 0.06898019, -0.16401687), (0.9055067, 0.19816557, -0.37521762), (0.9055067, 0.19816557, -0.37521762), (0.92293054, 0.17746736, -0.34162062), (0.9055067, 0.19816557, -0.37521762), (0.92293054, 0.17746736, -0.34162062), (0.93874925, 0.15627873, -0.30712676), (0.93874925, 0.15627873, -0.30712676), (0.92293054, 0.17746736, -0.34162062), (0.9651259, 0.11289115, -0.23619388), (0.93874925, 0.15627873, -0.30712676), (0.9651259, 0.11289115, -0.23619388), (0.97553444, 0.09093836, -0.20015731), (0.97553444, 0.09093836, -0.20015731), (0.9651259, 0.11289115, -0.23619388), (0.98404264, 0.068980895, -0.16401803), (0.97553444, 0.09093836, -0.20015731), (0.98404264, 0.068980895, -0.16401803), (0.98404264, 0.068980895, -0.16401803), (0.9055067, 0.19816557, -0.37521762), (0.9055067, 0.19816557, -0.37521762), (0.92293054, 0.17746736, -0.34162062), (0.9055067, 0.19816557, -0.37521762), (0.92293054, 0.17746736, -0.34162062), (0.93874925, 0.15627873, -0.30712676), (0.938748, 0.15628055, -0.30712974), (0.9229278, 0.17747088, -0.34162632), (0.9651269, 0.112889245, -0.23619077), (0.938748, 0.15628055, -0.30712974), (0.9651269, 0.112889245, -0.23619077), (0.975536, 0.09093453, -0.20015101), (0.975536, 0.09093453, -0.20015101), (0.9651269, 0.112889245, -0.23619077), (0.9840446, 0.06897517, -0.1640086), (0.975536, 0.09093453, -0.20015101), (0.9840446, 0.06897517, -0.1640086), (0.9840446, 0.06897517, -0.1640086), (0.90550214, 0.19817054, -0.3752257), (0.90550214, 0.19817054, -0.3752257), (0.9229278, 0.17747088, -0.34162632), (0.90550214, 0.19817054, -0.3752257), (0.9229278, 0.17747088, -0.34162632), (0.938748, 0.15628055, -0.30712974), (0.938748, 0.15628055, -0.30712974), (0.9229278, 0.17747088, -0.34162632), (0.965127, 0.112889275, -0.23619081), (0.938748, 0.15628055, -0.30712974), (0.965127, 0.112889275, -0.23619081), (0.975536, 0.090934575, -0.20015107), (0.975536, 0.090934575, -0.20015107), (0.965127, 0.112889275, -0.23619081), (0.98404455, 0.068975255, -0.16400874), (0.975536, 0.090934575, -0.20015107), (0.98404455, 0.068975255, -0.16400874), (0.98404455, 0.068975255, -0.16400874), (0.90550214, 0.19817054, -0.3752257), (0.90550214, 0.19817054, -0.3752257), (0.9229278, 0.17747088, -0.34162632), (0.90550214, 0.19817054, -0.3752257), (0.9229278, 0.17747088, -0.34162632), (0.938748, 0.15628055, -0.30712974), (0.93874806, 0.15628035, -0.3071294), (0.92292833, 0.17747012, -0.3416251), (0.9651269, 0.112889245, -0.23619077), (0.93874806, 0.15628035, -0.3071294), (0.9651269, 0.112889245, -0.23619077), (0.975536, 0.09093453, -0.20015101), (0.975536, 0.09093453, -0.20015101), (0.9651269, 0.112889245, -0.23619077), (0.9840446, 0.06897517, -0.1640086), (0.975536, 0.09093453, -0.20015101), (0.9840446, 0.06897517, -0.1640086), (0.9840446, 0.06897517, -0.1640086), (0.92292833, 0.17747012, -0.3416251), (0.9055037, 0.19816892, -0.37522304), (0.9055037, 0.19816892, -0.37522304), (0.9055037, 0.19816892, -0.37522304), (0.92292833, 0.17747012, -0.3416251), (0.93874806, 0.15628035, -0.3071294), (0.9387482, 0.15628032, -0.30712935), (0.9229285, 0.17746997, -0.34162486), (0.9651269, 0.112889245, -0.23619077), (0.9387482, 0.15628032, -0.30712935), (0.9651269, 0.112889245, -0.23619077), (0.975536, 0.09093453, -0.20015101), (0.975536, 0.09093453, -0.20015101), (0.9651269, 0.112889245, -0.23619077), (0.9840446, 0.06897517, -0.1640086), (0.975536, 0.09093453, -0.20015101), (0.9840446, 0.06897517, -0.1640086), (0.9840446, 0.06897517, -0.1640086), (0.9229285, 0.17746997, -0.34162486), (0.90550387, 0.19816858, -0.3752225), (0.90550387, 0.19816858, -0.3752225), (0.90550387, 0.19816858, -0.3752225), (0.9229285, 0.17746997, -0.34162486), (0.9387482, 0.15628032, -0.30712935), (0.93875104, 0.15627621, -0.30712265), (0.9229339, 0.1774632, -0.34161386), (0.9651247, 0.1128935, -0.23619772), (0.93875104, 0.15627621, -0.30712265), (0.9651247, 0.1128935, -0.23619772), (0.97553295, 0.090941794, -0.20016295), (0.97553295, 0.090941794, -0.20016295), (0.9651247, 0.1128935, -0.23619772), (0.9840414, 0.06898415, -0.16402338), (0.97553295, 0.090941794, -0.20016295), (0.9840414, 0.06898415, -0.16402338), (0.9840414, 0.06898415, -0.16402338), (0.905511, 0.19816053, -0.37520945), (0.905511, 0.19816053, -0.37520945), (0.9229339, 0.1774632, -0.34161386), (0.905511, 0.19816053, -0.37520945), (0.9229339, 0.1774632, -0.34161386), (0.93875104, 0.15627621, -0.30712265), (0.9387506, 0.15627682, -0.30712366), (0.9229348, 0.17746198, -0.34161186), (0.96512544, 0.112892255, -0.2361957), (0.9387506, 0.15627682, -0.30712366), (0.96512544, 0.112892255, -0.2361957), (0.9755334, 0.090940535, -0.20016088), (0.9755334, 0.090940535, -0.20016088), (0.96512544, 0.112892255, -0.2361957), (0.9840414, 0.06898415, -0.16402338), (0.9755334, 0.090940535, -0.20016088), (0.9840414, 0.06898415, -0.16402338), (0.9840414, 0.06898415, -0.16402338), (0.9055158, 0.19815531, -0.37520102), (0.9055158, 0.19815531, -0.37520102), (0.9229348, 0.17746198, -0.34161186), (0.9055158, 0.19815531, -0.37520102), (0.9229348, 0.17746198, -0.34161186), (0.9387506, 0.15627682, -0.30712366), (0.93874985, 0.15627797, -0.3071255), (0.9229312, 0.17746663, -0.34161943), (0.9651257, 0.11289171, -0.2361948), (0.93874985, 0.15627797, -0.3071255), (0.9651257, 0.11289171, -0.2361948), (0.9755345, 0.09093821, -0.20015705), (0.9755345, 0.09093821, -0.20015705), (0.9651257, 0.11289171, -0.2361948), (0.98404336, 0.06897879, -0.16401456), (0.9755345, 0.09093821, -0.20015705), (0.98404336, 0.06897879, -0.16401456), (0.98404336, 0.06897879, -0.16401456), (0.9055067, 0.19816557, -0.37521762), (0.9055067, 0.19816557, -0.37521762), (0.9229312, 0.17746663, -0.34161943), (0.9055067, 0.19816557, -0.37521762), (0.9229312, 0.17746663, -0.34161943), (0.93874985, 0.15627797, -0.3071255), (0.9387494, 0.15627857, -0.3071265), (0.922932, 0.17746541, -0.34161744), (0.96512634, 0.11289046, -0.23619275), (0.9387494, 0.15627857, -0.3071265), (0.96512634, 0.11289046, -0.23619275), (0.975535, 0.09093695, -0.20015498), (0.975535, 0.09093695, -0.20015498), (0.96512634, 0.11289046, -0.23619275), (0.98404336, 0.06897879, -0.16401456), (0.975535, 0.09093695, -0.20015498), (0.98404336, 0.06897879, -0.16401456), (0.98404336, 0.06897879, -0.16401456), (0.90551126, 0.19816029, -0.3752091), (0.90551126, 0.19816029, -0.3752091), (0.922932, 0.17746541, -0.34161744), (0.90551126, 0.19816029, -0.3752091), (0.922932, 0.17746541, -0.34161744), (0.9387494, 0.15627857, -0.3071265), (0.9387494, 0.15627857, -0.3071265), (0.92293066, 0.17746721, -0.3416204), (0.965126, 0.11289108, -0.23619376), (0.9387494, 0.15627857, -0.3071265), (0.965126, 0.11289108, -0.23619376), (0.97553474, 0.09093757, -0.200156), (0.97553474, 0.09093757, -0.200156), (0.965126, 0.11289108, -0.23619376), (0.98404336, 0.06897879, -0.16401456), (0.97553474, 0.09093757, -0.200156), (0.98404336, 0.06897879, -0.16401456), (0.98404336, 0.06897879, -0.16401456), (0.9055067, 0.19816557, -0.37521762), (0.9055067, 0.19816557, -0.37521762), (0.92293066, 0.17746721, -0.3416204), (0.9055067, 0.19816557, -0.37521762), (0.92293066, 0.17746721, -0.3416204), (0.9387494, 0.15627857, -0.3071265), (0.9387492, 0.15627888, -0.307127), (0.9229297, 0.1774684, -0.34162232), (0.965126, 0.11289108, -0.23619376), (0.9387492, 0.15627888, -0.307127), (0.965126, 0.11289108, -0.23619376), (0.97553474, 0.09093757, -0.200156), (0.97553474, 0.09093757, -0.200156), (0.965126, 0.11289108, -0.23619376), (0.98404336, 0.06897879, -0.16401456), (0.97553474, 0.09093757, -0.200156), (0.98404336, 0.06897879, -0.16401456), (0.98404336, 0.06897879, -0.16401456), (0.9229297, 0.1774684, -0.34162232), (0.9055043, 0.19816817, -0.37522185), (0.9055043, 0.19816817, -0.37522185), (0.9055043, 0.19816817, -0.37522185), (0.9229297, 0.1774684, -0.34162232), (0.9387492, 0.15627888, -0.307127), (0.9387497, 0.15627828, -0.30712602), (0.9229316, 0.17746602, -0.34161845), (0.965126, 0.11289108, -0.23619376), (0.9387497, 0.15627828, -0.30712602), (0.965126, 0.11289108, -0.23619376), (0.97553474, 0.09093757, -0.200156), (0.97553474, 0.09093757, -0.200156), (0.965126, 0.11289108, -0.23619376), (0.98404336, 0.06897879, -0.16401456), (0.97553474, 0.09093757, -0.200156), (0.98404336, 0.06897879, -0.16401456), (0.98404336, 0.06897879, -0.16401456), (0.90550894, 0.19816291, -0.37521333), (0.90550894, 0.19816291, -0.37521333), (0.9229316, 0.17746602, -0.34161845), (0.90550894, 0.19816291, -0.37521333), (0.9229316, 0.17746602, -0.34161845), (0.9387497, 0.15627828, -0.30712602), (0.9387492, 0.15627888, -0.307127), (0.9229297, 0.1774684, -0.34162232), (0.965126, 0.11289108, -0.23619376), (0.9387492, 0.15627888, -0.307127), (0.965126, 0.11289108, -0.23619376), (0.97553474, 0.09093757, -0.200156), (0.97553474, 0.09093757, -0.200156), (0.965126, 0.11289108, -0.23619376), (0.98404336, 0.06897879, -0.16401456), (0.97553474, 0.09093757, -0.200156), (0.98404336, 0.06897879, -0.16401456), (0.98404336, 0.06897879, -0.16401456), (0.9229297, 0.1774684, -0.34162232), (0.9055043, 0.19816817, -0.37522185), (0.9055043, 0.19816817, -0.37522185), (0.9055043, 0.19816817, -0.37522185), (0.9229297, 0.1774684, -0.34162232), (0.9387492, 0.15627888, -0.307127)] (
        interpolation = "faceVarying"
    )
    point3f[] points = [(-0.098014005, -1.7037338, 1.6547452), (-0.1306457, -1.6975448, 1.646069), (-0.10406137, -1.6937864, 1.6384826), (-0.12459835, -1.7074924, 1.6623318), (0.10637465, 0.9207024, 1.7143085), (-0.097290695, -1.0581377, 0.57964325), (0.047636956, -1.0376478, 0.5382844), (-0.038552996, 0.9002125, 1.7556673), (0.08026871, -1.0438368, 0.5469607), (0.1390064, 0.91451335, 1.7229848), (0.11242206, 0.91075486, 1.7305713), (0.053684358, -1.0475954, 0.55454725), (0.15208597, 1.0838003, 1.4404298), (-0.05157933, -0.89503974, 0.30576462), (0.09334829, -0.87454987, 0.26440576), (0.007158368, 1.0633105, 1.4817886), (0.12598003, -0.88073885, 0.27308202), (0.18471773, 1.0776113, 1.4491061), (0.15813337, 1.0738528, 1.4566926), (0.09939567, -0.88449734, 0.28066856), (0.19779733, 1.2468983, 1.1665511), (-0.005867995, -0.7319418, 0.031885978), (0.13905963, -0.71145195, -0.009472884), (0.052869704, 1.2264084, 1.2079101), (0.17169136, -0.7176409, -0.0007966743), (0.23042905, 1.2407093, 1.1752274), (0.2038447, 1.2369508, 1.1828139), (0.145107, -0.7213994, 0.006789861), (0.24350867, 1.4099963, 0.8926725), (0.03984333, -0.56884384, -0.24199271), (0.18477097, -0.54835397, -0.28335157), (0.09858103, 1.3895063, 0.9340313), (0.21740271, -0.55454296, -0.27467534), (0.27614042, 1.4038073, 0.9013487), (0.24955603, 1.4000487, 0.90893525), (0.19081834, -0.55830145, -0.2670888), (0.28921998, 1.5730941, 0.6187938), (0.08555466, -0.40574586, -0.5158714), (0.23048228, -0.38525602, -0.55723023), (0.14429235, 1.5526043, 0.6601527), (0.26311406, -0.39144498, -0.548554), (0.32185176, 1.5669053, 0.62747), (0.29526734, 1.5631467, 0.63505656), (0.23652965, -0.39520347, -0.54096746), (0.33493128, 1.7361922, 0.34491506), (0.13126597, -0.24264787, -0.7897501), (0.2761936, -0.22215801, -0.831109), (0.19000368, 1.7157023, 0.38627392), (0.30882534, -0.22834699, -0.82243276), (0.36756304, 1.7300032, 0.3535913), (0.34097865, 1.7262447, 0.36117783), (0.28224096, -0.23210548, -0.8148462), (-0.07190801, 0.26080534, 2.822093), (-0.27557337, -1.7180347, 1.6874279), (-0.21683568, 0.24031548, 2.863452), (-0.06586065, 0.2508579, 2.8383558), (-0.03927656, 0.2546168, 2.830769), (-0.030759346, 0.43140852, 2.5359445), (-0.23442471, -1.5474316, 1.4012792), (-0.089497045, -1.5269417, 1.3599204), (-0.17568702, 0.41091865, 2.5773032), (-0.056865335, -1.5331306, 1.3685966), (0.0018723613, 0.42521957, 2.5446205), (-0.02471198, 0.42146108, 2.5522072), (-0.08344968, -1.5368892, 1.3761832), (0.014952025, 0.5945064, 2.262066), (-0.18871334, -1.3843336, 1.1274008), (-0.043785673, -1.3638438, 1.0860418), (-0.12997563, 0.5740165, 2.3034248), (-0.011153966, -1.3700328, 1.0947181), (0.047583733, 0.58831745, 2.2707422), (0.02099939, 0.58455896, 2.2783287), (-0.03773831, -1.3737912, 1.1023046), (0.060663324, 0.7576044, 1.9881872), (-0.14300197, -1.2212356, 0.85352194), (0.0019256261, -1.2007458, 0.8121631), (-0.084264286, 0.73711455, 2.029546), (0.03455733, -1.2069348, 0.8208393), (0.09329503, 0.75141543, 1.9968634), (0.06671069, 0.74765694, 2.0044498), (0.007972992, -1.2106932, 0.8284258), (0.30004296, 1.0581175, 1.475809), (0.16638762, 1.030689, 1.5087321), (0.29978594, 1.0495489, 1.4706633), (0.16664462, 1.0392576, 1.5138776), (0.3457543, 1.2212155, 1.2019303), (0.21209894, 1.1937865, 1.234853), (0.34549728, 1.2126464, 1.1967844), (0.21235596, 1.2023556, 1.2399989), (0.3914656, 1.3843133, 0.9280516), (0.25781032, 1.356885, 0.96097475), (0.39120862, 1.3757447, 0.9229061), (0.2580673, 1.3654536, 0.9661203), (0.43717694, 1.5474113, 0.654173), (0.30352163, 1.5199828, 0.6870961), (0.43691996, 1.5388427, 0.6490274), (0.30377862, 1.5285515, 0.69224167), (0.48288834, 1.7105092, 0.38029438), (0.34923297, 1.6830803, 0.4132172), (0.4826313, 1.7019401, 0.3751485), (0.34949, 1.6916494, 0.41836306), (0.11719761, 0.40572566, 2.5713236), (-0.01645771, 0.3782972, 2.6042466), (0.11694061, 0.39715704, 2.566178), (-0.016200708, 0.38686582, 2.6093922), (0.16290891, 0.5688236, 2.297445), (0.029253624, 0.5413952, 2.330368), (0.16265191, 0.560255, 2.2922993), (0.029510625, 0.5499638, 2.3355136), (0.20862028, 0.73192155, 2.0235662), (0.07496494, 0.70449257, 2.056489), (0.20836326, 0.72335243, 2.0184205), (0.07522196, 0.7130617, 2.061635), (0.25433162, 0.8950195, 1.7496877), (0.12067631, 0.86759156, 1.782611), (0.25407463, 0.88645136, 1.7445424), (0.120933294, 0.87615967, 1.7877563), (-0.01109381, -1.6644733, 1.6110209), (-0.10637833, -1.6779447, 1.6382129), (-0.008432654, -1.6688502, 1.6181777), (-0.10371718, -1.6823215, 1.6453696), (0.30887517, -0.05518252, -1.104226), (0.21359056, -0.068653844, -1.077034), (0.30913216, -0.046614025, -1.0990804), (0.21384756, -0.06008535, -1.0718884), (-0.008689668, -1.6774192, 1.6130319), (-0.10397419, -1.6908906, 1.6402237), (0.24164914, -0.8887679, 0.30666977), (0.10825079, -0.90762776, 0.34473842), (0.24139214, -0.8973364, 0.30152422), (0.10799379, -0.9161962, 0.3395929), (0.2873605, -0.72566944, 0.032791372), (0.15396214, -0.74452925, 0.07086005), (0.28710347, -0.73423845, 0.02764553), (0.15370512, -0.75309825, 0.06571421), (0.3330718, -0.562572, -0.24108753), (0.19967349, -0.58143187, -0.20301886), (0.33281478, -0.57114047, -0.24623314), (0.19941647, -0.59000033, -0.20816445), (0.37878314, -0.39947405, -0.5149662), (0.2453848, -0.4183339, -0.4768975), (0.37852612, -0.40804255, -0.52011174), (0.24512781, -0.42690238, -0.48204306), (0.4244945, -0.23637563, -0.7888445), (0.29109618, -0.25523546, -0.7507758), (0.4242375, -0.24494463, -0.7939903), (0.29083917, -0.26380447, -0.75592166), (0.058803786, -1.5411597, 1.4021844), (-0.074594535, -1.5600195, 1.440253), (0.058546785, -1.5497282, 1.3970388), (-0.074851535, -1.568588, 1.4351075), (0.10451509, -1.3780618, 1.1283058), (-0.028883202, -1.3969216, 1.1663744), (0.10425809, -1.3866303, 1.1231602), (-0.0291402, -1.40549, 1.1612289), (0.15022647, -1.2149633, 0.8544274), (0.016828148, -1.2338232, 0.89249605), (0.14996946, -1.2235323, 0.84928155), (0.016571134, -1.2423922, 0.88735026), (0.19593778, -1.0518664, 0.58054817), (0.06253945, -1.0707263, 0.6186168), (0.1956808, -1.0604343, 0.5754029), (0.06228247, -1.0792942, 0.61347157), (0.63519, -1.8295606, -2.3109062), (0.013243364, -0.8055552, -3.9829912), (-0.45191082, -0.49676242, -3.6211421), (0.17002222, -1.5212213, -1.9493294), (0.21350296, -0.0715489, -1.0787764), (0.27224064, 1.8868014, 0.09724773), (0.36151567, 1.7399507, 0.33732852), (0.30277798, -0.21839952, -0.8386955), (0.13295901, 0.9244609, 1.7067219), (-0.015053944, -0.88703847, 0.29061633), (0.043684267, 1.0713109, 1.4666423), (0.07422131, -1.0338893, 0.5306979), (0.17867035, 1.0875587, 1.4328432), (0.030657398, -0.7239405, 0.016737698), (0.08939559, 1.2344089, 1.1927636), (0.11993265, -0.8707914, 0.25681922), (0.22438169, 1.2506567, 1.1589646), (0.07636871, -0.5608425, -0.257141), (0.13510695, 1.3975067, 0.918885), (0.16564399, -0.70769346, -0.01705942), (0.27009302, 1.4137547, 0.88508594), (0.12208007, -0.39774457, -0.5310197), (0.1808183, 1.5606047, 0.64500636), (0.21135534, -0.5445955, -0.2909381), (0.3158044, 1.5768527, 0.61120725), (0.16779143, -0.23464665, -0.80489826), (0.22652961, 1.7237027, 0.37112767), (0.25706667, -0.38149753, -0.5648168), (-0.004175004, 0.435167, 2.528358), (-0.15218797, -1.3763323, 1.1122522), (-0.093449794, 0.582017, 2.2882783), (-0.0629127, -1.5231832, 1.3523338), (0.041536365, 0.5982649, 2.2544794), (-0.10647668, -1.2132343, 0.83837354), (-0.047738466, 0.74511504, 2.0143995), (-0.01720133, -1.3600854, 1.0784553), (0.08724766, 0.7613629, 1.9806006), (-0.060765326, -1.0501363, 0.56449497), (-0.002027114, 0.90821296, 1.7405208), (0.028509967, -1.1969873, 0.8045766), (0.39494434, 1.846179, 0.13933846), (-0.3378943, 2.8814347, -1.5479977), (-0.24260966, 2.894906, -1.5751896), (0.29965973, 1.8327076, 0.1665304), (0.454956, 1.7474644, 0.30072352), (0.35967147, 1.7339929, 0.3279157), (0.22627312, 1.7151333, 0.3659841), (0.25394848, 1.6696094, 0.44040945), (0.4092447, 1.5843663, 0.5746023), (0.3139601, 1.570895, 0.6017944), (0.18056183, 1.5520353, 0.6398627), (0.20823716, 1.5065116, 0.714288), (0.36353335, 1.4212689, 0.8484813), (0.26824883, 1.407797, 0.87567306), (0.13485043, 1.3889375, 0.9137413), (0.16252576, 1.3434136, 0.9881666), (0.31782198, 1.2581705, 1.1223596), (0.22253747, 1.2446996, 1.149552), (0.08913911, 1.22584, 1.1876203), (0.116814435, 1.1803157, 1.2620453), (0.27211064, 1.0950725, 1.3962383), (0.17682612, 1.0816011, 1.4234303), (0.043427765, 1.0627415, 1.4614986), (0.0711031, 1.0172178, 1.535924), (0.2263993, 0.93197453, 1.670117), (0.13111478, 0.91850364, 1.6973093), (-0.0022835843, 0.8996441, 1.7353776), (0.025391785, 0.85412025, 1.809803), (0.18068795, 0.7688766, 1.9439956), (0.08540345, 0.7554057, 1.971188), (-0.047994938, 0.73654616, 2.0092561), (-0.02031955, 0.6910223, 2.0836816), (0.1349766, 0.6057792, 2.2178745), (0.039692152, 0.5923077, 2.2450666), (-0.093706235, 0.5734482, 2.283135), (-0.06603088, 0.52792436, 2.3575602), (0.08926525, 0.4426807, 2.4917529), (-0.0060191983, 0.42920923, 2.518945), (-0.13941748, 0.41034955, 2.5570135), (-0.111742236, 0.3648259, 2.6314385), (0.055750657, 0.25952005, 2.7984314), (-0.039533865, 0.24604873, 2.8256233), (0.08022464, 0.21926169, 2.8642473), (-0.015059879, 0.20579037, 2.8914392), (-0.09128731, 0.19501336, 2.9131927), (-0.121808514, 0.24521892, 2.8311145), (-0.045581087, 0.25599593, 2.809361), (-0.24235266, 2.9034746, -1.570044), (0.39520133, 1.8547475, 0.14448406), (0.45521298, 1.7560331, 0.3058691), (0.17708312, 1.0901697, 1.428576), (0.117071435, 1.1888843, 1.2671908), (0.31421712, 1.5794635, 0.60694003), (0.2542055, 1.6781781, 0.44555506), (0.3599285, 1.7425616, 0.33306128), (0.2999167, 1.8412762, 0.171676), (-0.33763728, 2.8900032, -1.5428522), (-0.005762196, 0.43777785, 2.5240908), (-0.0657739, 0.53649247, 2.3627055), (0.039949138, 0.6008758, 2.250212), (-0.020062562, 0.6995904, 2.088827), (0.085660435, 0.7639738, 1.9763333), (0.0256487, 0.8626884, 1.8149481), (0.31807896, 1.2667391, 1.1275052), (0.3637903, 1.429837, 0.8536265), (0.4095017, 1.592935, 0.5797479), (0.08048166, 0.2278308, 2.869393), (0.056007657, 0.26808864, 2.803577), (0.08952231, 0.45124927, 2.4968987), (0.18094495, 0.7774452, 1.9491411), (0.3368075, -0.092137806, -1.0246551), (0.2415229, -0.105609134, -0.9974632), (0.39681917, -0.19085236, -0.8632701), (0.30153465, -0.20432383, -0.8360779), (0.1681363, -0.22318351, -0.7980095), (0.19581166, -0.26870733, -0.7235841), (0.35110787, -0.35395038, -0.5893913), (0.25582328, -0.36742184, -0.5621992), (0.12242499, -0.38628143, -0.5241309), (0.15010032, -0.4318052, -0.44970563), (0.3053965, -0.5170489, -0.31551293), (0.21011199, -0.5305197, -0.28832057), (0.0767136, -0.54937935, -0.2502523), (0.10438894, -0.5949031, -0.17582701), (0.25968516, -0.6801463, -0.04163401), (0.16440062, -0.69361824, -0.014442191), (0.031002257, -0.7124778, 0.023626065), (0.058677606, -0.7580011, 0.09805165), (0.2139738, -0.84324425, 0.23224469), (0.11868929, -0.8567157, 0.25943676), (-0.014709058, -0.8755753, 0.29750505), (0.012966275, -0.92109907, 0.37193036), (0.16826248, -1.0063422, 0.50612336), (0.07297792, -1.0198141, 0.5333151), (-0.06042044, -1.0386738, 0.57138336), (-0.03274507, -1.0841975, 0.64580876), (0.12255111, -1.1694402, 0.780002), (0.027266594, -1.1829121, 0.80719376), (-0.10613179, -1.2017716, 0.84526193), (-0.0784564, -1.2472955, 0.9196874), (0.07683974, -1.3325386, 1.0538803), (-0.018444704, -1.3460101, 1.0810726), (-0.15184309, -1.3648696, 1.1191406), (-0.12416774, -1.4103935, 1.193566), (0.031128427, -1.4956361, 1.3277594), (-0.064156026, -1.5091075, 1.3549515), (-0.1975543, -1.5279672, 1.3930199), (-0.16987906, -1.5734909, 1.467445), (0.3365505, -0.1007063, -1.0298007), (0.39656216, -0.19942084, -0.86841565), (0.10413194, -0.60347164, -0.18097255), (0.16414364, -0.7021862, -0.019587418), (0.07645663, -0.5579479, -0.25539777), (0.2555663, -0.37599033, -0.5673447), (0.19555466, -0.27727583, -0.72872967), (0.1678793, -0.23175201, -0.803155), (0.30127764, -0.21289232, -0.8412234), (0.2412659, -0.11417763, -1.0026088), (-0.064413026, -1.517676, 1.349806), (-0.124424726, -1.4189614, 1.1884208), (-0.15210007, -1.3734376, 1.1139954), (-0.018701687, -1.354578, 1.0759273), (-0.07871339, -1.2558634, 0.91454214), (-0.10638878, -1.2103395, 0.84011674), (0.02700961, -1.19148, 0.80204856), (-0.033002127, -1.0927655, 0.6406633), (-0.060677424, -1.0472417, 0.5662381), (0.25942814, -0.68871474, -0.046779543), (0.30513948, -0.5256168, -0.3206582), (0.35085085, -0.36251888, -0.59453684), (-0.011350809, -1.6730418, 1.6058755), (0.030871484, -1.5042046, 1.3226138), (0.12229412, -1.1780087, 0.77485645), (-0.4083447, 0.9557491, -2.7488832), (-0.34973294, 2.9099002, -1.5753809), (-0.045323674, 0.26456383, 2.8145065), (-0.19789927, -1.5394303, 1.386131), (-0.13916104, 0.41891903, 2.562157), (-0.014802862, 0.21435949, 2.896585), (-0.091030285, 0.20358247, 2.9183385), (0.071360104, 1.0257863, 1.5410695), (0.13137177, 0.92707175, 1.7024546), (0.16278277, 1.3519822, 0.9933122), (0.22279446, 1.2532676, 1.1546973), (0.20849416, 1.5150801, 0.7194336), (0.26850584, 1.4163656, 0.88081867), (-0.111485235, 0.3733945, 2.636584), (0.2266563, 0.9405431, 1.6752626), (0.27236763, 1.1036412, 1.4013839), (0.13523361, 0.6143473, 2.2230198), (0.012709277, -0.92966753, 0.3667848), (0.072720945, -1.0283821, 0.5281699), (-0.014966058, -0.88414377, 0.29235953), (0.058420606, -0.76656955, 0.092906125), (0.11843229, -0.86528414, 0.25429124), (0.030745273, -0.7210458, 0.018480837), (0.14984332, -0.4403737, -0.45485115), (0.209855, -0.53908825, -0.29346606), (0.122168, -0.39484993, -0.52927643), (-0.17013606, -1.5820594, 1.4622995), (-0.10663533, -1.6865132, 1.6330674), (-0.1978113, -1.5365357, 1.3878744), (0.16800548, -1.0149107, 0.5009778), (0.2137168, -0.8518127, 0.22709915), (0.07658278, -1.3411065, 1.048735), (0.07244731, -0.9748425, 0.5518895), (0.12802513, 0.8781557, 1.6646477), (0.12886772, 0.8767697, 1.6669136), (0.07328989, -0.9762285, 0.55415535), (0.12936258, 0.87533444, 1.6692789), (0.07378476, -0.9776637, 0.55652064), (0.07125695, -0.9735057, 0.5497228), (0.12683478, 0.8794925, 1.6624811), (0.066363715, -0.96483546, 0.5355293), (0.12194154, 0.88816273, 1.6482875), (0.12278413, 0.88677675, 1.6505535), (0.06720631, -0.96622145, 0.5377952), (0.123279, 0.8853415, 1.6529187), (0.06770117, -0.9676567, 0.5401605), (0.06517336, -0.9634986, 0.5333626), (0.12075119, 0.88949955, 1.6461209), (0.11815863, -0.8117445, 0.27801076), (0.17373645, 1.0412537, 1.390769), (0.17457907, 1.0398676, 1.393035), (0.11900124, -0.81313056, 0.28027675), (0.17507389, 1.0384325, 1.3954003), (0.11949607, -0.8145657, 0.28264195), (0.11696826, -0.8104077, 0.2758441), (0.17254609, 1.0425905, 1.3886024), (0.11207504, -0.8017375, 0.2616506), (0.16765286, 1.0512607, 1.3744088), (0.16849548, 1.0498747, 1.3766749), (0.11291765, -0.8031235, 0.26391658), (0.1689903, 1.0484395, 1.3790401), (0.11341248, -0.8045587, 0.26628178), (0.11088467, -0.8004007, 0.25948393), (0.1664625, 1.0525975, 1.3722422), (0.16386995, -0.64864653, 0.004132078), (0.21944778, 1.2043517, 1.1168903), (0.22029038, 1.2029656, 1.1191564), (0.16471255, -0.6500326, 0.0063980464), (0.22078523, 1.2015303, 1.1215216), (0.1652074, -0.6514678, 0.0087633105), (0.16267958, -0.6473097, 0.0019654054), (0.2182574, 1.2056885, 1.1147237), (0.15778637, -0.6386395, -0.012228037), (0.2133642, 1.2143587, 1.1005303), (0.2142068, 1.2129726, 1.1027962), (0.15862899, -0.64002556, -0.009962069), (0.21470162, 1.2115375, 1.1051614), (0.1591238, -0.6414607, -0.007596901), (0.15659599, -0.6373027, -0.014394758), (0.2121738, 1.2156955, 1.0983635), (0.2095813, -0.4855486, -0.2697466), (0.26515913, 1.3674496, 0.8430117), (0.26600176, 1.3660636, 0.84527767), (0.21042392, -0.4869346, -0.2674806), (0.26649657, 1.3646283, 0.8476429), (0.21091875, -0.48836982, -0.26511538), (0.20839094, -0.48421174, -0.27191326), (0.26396877, 1.3687865, 0.840845), (0.20349771, -0.47554153, -0.28610677), (0.25907555, 1.3774567, 0.8266515), (0.25991815, 1.3760706, 0.8289175), (0.20434032, -0.47692758, -0.28384078), (0.260413, 1.3746353, 0.83128273), (0.20483518, -0.4783628, -0.28147554), (0.20230734, -0.47420472, -0.28827342), (0.25788516, 1.3787935, 0.8244848), (0.25529265, -0.3224506, -0.54362524), (0.31087047, 1.5305475, 0.56913304), (0.3117131, 1.5291616, 0.571399), (0.25613526, -0.32383665, -0.5413593), (0.3122079, 1.5277263, 0.5737642), (0.25663006, -0.32527187, -0.5389941), (0.25410226, -0.3211138, -0.5457919), (0.30968007, 1.5318844, 0.56696635), (0.24920906, -0.31244358, -0.5599854), (0.3047869, 1.5405546, 0.5527729), (0.3056295, 1.5391686, 0.5550388), (0.25005168, -0.31382963, -0.55771947), (0.3061243, 1.5377333, 0.5574041), (0.2505465, -0.31526482, -0.5553542), (0.24801865, -0.31110677, -0.5621521), (0.3035965, 1.5418915, 0.5506062), (0.30100396, -0.15935266, -0.8175039), (0.3565818, 1.6936455, 0.29525435), (0.3574244, 1.6922594, 0.2975203), (0.3018466, -0.16073869, -0.81523794), (0.35791922, 1.6908243, 0.29988557), (0.3023414, -0.1621739, -0.8128727), (0.29981354, -0.15801579, -0.8196707), (0.35539138, 1.6949824, 0.29308763), (0.29492038, -0.14934564, -0.8338641), (0.35049823, 1.7036525, 0.27889422), (0.35134083, 1.7022665, 0.28116018), (0.295763, -0.15073167, -0.8315981), (0.35183564, 1.7008313, 0.2835254), (0.2962578, -0.15216687, -0.8292329), (0.29372996, -0.14800876, -0.83603084), (0.34930778, 1.7049894, 0.27672747), (-0.105835415, -1.6347394, 1.659674), (-0.05025759, 0.21825872, 2.7724323), (-0.049414925, 0.2168726, 2.7746985), (-0.10499275, -1.6361256, 1.6619401), (-0.048920084, 0.21543744, 2.7770636), (-0.10449791, -1.6375607, 1.6643053), (-0.10702576, -1.6334026, 1.6575073), (-0.051447928, 0.21959555, 2.7702656), (-0.11191897, -1.6247325, 1.643314), (-0.05634114, 0.22826569, 2.7560723), (-0.05549855, 0.2268797, 2.7583382), (-0.11107638, -1.6261184, 1.6455799), (-0.05500371, 0.22544454, 2.7607033), (-0.11058153, -1.6275536, 1.647945), (-0.11310938, -1.6233956, 1.6411471), (-0.057531554, 0.22960265, 2.7539053), (-0.064686745, -1.4641362, 1.3735254), (-0.00910892, 0.3888619, 2.4862835), (-0.008266256, 0.3874758, 2.4885497), (-0.063844085, -1.4655224, 1.3757914), (-0.0077714715, 0.3860406, 2.4909148), (-0.0633493, -1.4669576, 1.3781567), (-0.06587714, -1.4627994, 1.3713586), (-0.010299318, 0.3901987, 2.484117), (-0.0707703, -1.4541293, 1.3571652), (-0.015192474, 0.39886886, 2.4699235), (-0.014349883, 0.39748287, 2.4721894), (-0.06992771, -1.4555153, 1.3594311), (-0.013855099, 0.3960477, 2.4745545), (-0.06943292, -1.4569504, 1.3617964), (-0.07196077, -1.4527924, 1.3549984), (-0.016382944, 0.40020582, 2.4677567), (-0.01897541, -1.3010384, 1.0996467), (0.036602415, 0.5519598, 2.212405), (0.037445042, 0.55057377, 2.214671), (-0.018132783, -1.3024244, 1.1019127), (0.037939854, 0.5491386, 2.2170362), (-0.01763797, -1.3038596, 1.1042778), (-0.02016578, -1.2997015, 1.09748), (0.035412047, 0.5532967, 2.2102382), (-0.025059002, -1.2910314, 1.0832865), (0.030518824, 0.5619669, 2.196045), (0.03136145, 0.5605808, 2.1983109), (-0.024216374, -1.2924174, 1.0855526), (0.031856265, 0.5591456, 2.200676), (-0.02372156, -1.2938526, 1.0879177), (-0.026249334, -1.2896945, 1.08112), (0.029328492, 0.56330365, 2.1938782), (0.026735924, -1.1379404, 0.82576805), (0.082313746, 0.7150578, 1.9385264), (0.08315638, 0.71367174, 1.9407923), (0.027578551, -1.1393265, 0.82803404), (0.08365119, 0.7122365, 1.9431576), (0.028073365, -1.1407616, 0.8303992), (0.025545519, -1.1366035, 0.8236013), (0.081123345, 0.71639466, 1.9363595), (0.020652333, -1.1279334, 0.8094079), (0.07623016, 0.7250648, 1.9221662), (0.077072784, 0.72367877, 1.9244322), (0.02149496, -1.1293194, 0.8116739), (0.0775676, 0.7222436, 1.9267974), (0.021989774, -1.1307546, 0.81403905), (0.019462, -1.1265966, 0.8072413), (0.07503983, 0.72640157, 1.9199996)]
}

