#usda 1.0
(
    defaultPrim = "SM_Lift_Base"
    upAxis = "Z"
)

def Mesh "SM_Lift_Base"
{
    int[] faceVertexCounts = [3, 3, 3, 3, 3, 3, 3, 3, 3, 3, 3, 3, 3, 3, 3, 3, 3, 3, 3, 3, 3, 3, 3, 3, 3, 3, 3, 3, 3, 3, 3, 3, 3, 3, 3, 3, 3, 3, 3, 3, 3, 3, 3, 3, 3, 3, 3, 3, 3, 3, 3, 3, 3, 3, 3, 3, 3, 3, 3, 3, 3, 3, 3, 3, 3, 3, 3, 3, 3, 3, 3, 3, 3, 3, 3, 3, 3, 3, 3, 3, 3, 3, 3, 3, 3, 3, 3, 3, 3, 3, 3, 3, 3, 3, 3, 3, 3, 3, 3, 3, 3, 3, 3, 3, 3, 3, 3, 3, 3, 3, 3, 3, 3, 3, 3, 3, 3, 3, 3, 3, 3, 3, 3, 3, 3, 3, 3, 3, 3, 3, 3, 3, 3, 3, 3, 3, 3, 3, 3, 3, 3, 3, 3, 3, 3, 3, 3, 3, 3, 3, 3, 3, 3, 3, 3, 3, 3, 3, 3, 3, 3, 3, 3, 3, 3, 3, 3, 3, 3, 3, 3, 3, 3, 3, 3, 3, 3, 3, 3, 3, 3, 3, 3, 3, 3, 3, 3, 3, 3, 3, 3, 3, 3, 3, 3, 3, 3, 3, 3, 3, 3, 3, 3, 3, 3, 3, 3, 3, 3, 3, 3, 3, 3, 3, 3, 3, 3, 3, 3, 3, 3, 3, 3, 3, 3, 3, 3, 3, 3, 3, 3, 3, 3, 3, 3, 3, 3, 3, 3, 3, 3, 3, 3, 3, 3, 3, 3, 3, 3, 3, 3, 3, 3, 3, 3, 3, 3, 3, 3, 3, 3, 3, 3, 3, 3, 3, 3, 3, 3, 3, 3, 3, 3, 3, 3, 3, 3, 3, 3, 3, 3, 3, 3, 3, 3, 3, 3, 3, 3, 3, 3, 3, 3, 3, 3, 3, 3, 3, 3, 3, 3, 3, 3, 3, 3, 3, 3, 3, 3, 3, 3, 3, 3, 3, 3, 3, 3, 3, 3, 3, 3, 3, 3, 3, 3, 3, 3, 3, 3, 3, 3, 3, 3, 3, 3, 3, 3, 3, 3, 3, 3, 3, 3, 3, 3, 3, 3, 3, 3, 3, 3, 3, 3, 3, 3, 3, 3, 3, 3, 3, 3, 3, 3, 3, 3, 3, 3, 3, 3, 3, 3, 3, 3, 3, 3, 3, 3, 3, 3, 3, 3, 3, 3, 3, 3, 3, 3, 3, 3, 3, 3, 3, 3, 3, 3, 3, 3, 3, 3, 3, 3, 3, 3, 3, 3, 3, 3, 3, 3, 3, 3, 3, 3, 3, 3, 3, 3, 3, 3, 3, 3, 3, 3, 3, 3, 3, 3, 3, 3, 3, 3, 3, 3, 3, 3, 3, 3, 3, 3, 3, 3, 3, 3, 3, 3, 3, 3, 3, 3, 3, 3, 3, 3, 3, 3, 3, 3, 3, 3, 3, 3, 3, 3, 3, 3, 3, 3, 3, 3, 3, 3, 3, 3, 3, 3, 3, 3, 3, 3, 3, 3, 3, 3, 3, 3, 3, 3, 3, 3, 3, 3, 3, 3, 3, 3, 3, 3, 3, 3, 3, 3, 3, 3, 3, 3, 3, 3, 3, 3, 3, 3, 3, 3, 3, 3, 3, 3, 3, 3, 3, 3, 3, 3, 3, 3, 3, 3, 3, 3, 3, 3, 3, 3, 3, 3, 3, 3, 3, 3, 3, 3, 3, 3, 3, 3, 3, 3, 3, 3, 3, 3, 3, 3, 3, 3, 3, 3, 3, 3, 3, 3, 3, 3, 3, 3, 3, 3, 3, 3, 3, 3, 3, 3, 3, 3, 3, 3, 3]
    int[] faceVertexIndices = [0, 1, 2, 2, 3, 0, 4, 5, 6, 6, 7, 4, 8, 9, 10, 10, 11, 8, 12, 13, 14, 14, 15, 12, 16, 17, 18, 18, 19, 16, 20, 21, 22, 22, 23, 20, 20, 24, 9, 9, 21, 20, 8, 21, 9, 25, 5, 26, 26, 27, 25, 27, 26, 28, 28, 29, 27, 29, 28, 2, 2, 30, 29, 31, 10, 32, 32, 33, 31, 33, 32, 34, 34, 35, 33, 35, 34, 36, 36, 37, 35, 10, 9, 38, 38, 32, 10, 32, 38, 39, 39, 34, 32, 34, 39, 40, 40, 36, 34, 9, 24, 41, 41, 38, 9, 38, 41, 42, 42, 39, 38, 39, 42, 43, 43, 40, 39, 12, 15, 44, 44, 45, 12, 45, 44, 46, 46, 47, 45, 47, 46, 37, 37, 36, 47, 19, 12, 45, 45, 48, 19, 48, 45, 47, 47, 49, 48, 49, 47, 36, 36, 40, 49, 16, 19, 48, 48, 50, 16, 50, 48, 49, 49, 51, 50, 51, 49, 40, 40, 43, 51, 3, 2, 52, 52, 53, 3, 53, 52, 54, 54, 55, 53, 5, 4, 56, 56, 57, 5, 57, 56, 23, 23, 22, 57, 21, 8, 58, 58, 22, 21, 22, 58, 59, 59, 57, 22, 52, 60, 61, 61, 54, 52, 54, 61, 11, 11, 62, 54, 55, 54, 62, 62, 63, 55, 10, 31, 63, 63, 62, 10, 10, 62, 11, 19, 18, 64, 19, 64, 65, 65, 12, 19, 65, 13, 12, 58, 8, 11, 11, 61, 58, 59, 58, 61, 61, 60, 59, 26, 5, 57, 57, 59, 26, 26, 59, 60, 60, 28, 26, 2, 28, 60, 60, 52, 2, 64, 66, 67, 67, 65, 64, 68, 67, 69, 69, 70, 68, 67, 66, 71, 71, 69, 67, 66, 72, 73, 73, 71, 66, 69, 71, 74, 74, 75, 69, 13, 65, 67, 14, 13, 67, 67, 68, 14, 18, 17, 72, 72, 66, 18, 64, 18, 66, 71, 73, 76, 76, 77, 71, 74, 71, 77, 77, 78, 74, 79, 80, 70, 70, 69, 79, 81, 79, 69, 69, 75, 81, 82, 83, 84, 84, 85, 82, 76, 86, 87, 87, 77, 76, 77, 87, 88, 88, 78, 77, 81, 89, 90, 90, 79, 81, 79, 90, 91, 91, 80, 79, 89, 81, 75, 89, 75, 74, 89, 74, 88, 74, 78, 88, 92, 93, 94, 94, 95, 92, 96, 97, 98, 98, 99, 96, 95, 94, 98, 98, 97, 95, 93, 92, 96, 96, 99, 93, 100, 101, 102, 102, 103, 100, 104, 105, 85, 85, 84, 104, 105, 106, 82, 82, 85, 105, 106, 107, 83, 83, 82, 106, 107, 104, 84, 84, 83, 107, 108, 109, 110, 110, 111, 108, 112, 108, 111, 111, 110, 113, 111, 114, 112, 115, 112, 114, 114, 116, 115, 113, 117, 111, 114, 111, 117, 116, 114, 118, 117, 118, 114, 118, 119, 116, 120, 119, 118, 118, 121, 120, 121, 118, 117, 122, 120, 121, 123, 117, 113, 117, 123, 121, 113, 124, 123, 123, 124, 125, 121, 126, 122, 126, 121, 123, 127, 122, 126, 126, 128, 127, 125, 129, 123, 123, 129, 126, 128, 126, 129, 129, 125, 130, 129, 131, 128, 130, 131, 129, 132, 133, 134, 134, 135, 132, 135, 134, 136, 137, 132, 135, 136, 138, 135, 138, 136, 139, 135, 140, 137, 140, 135, 138, 141, 137, 140, 140, 142, 141, 142, 140, 143, 138, 143, 140, 143, 144, 142, 145, 144, 143, 143, 146, 145, 146, 143, 138, 147, 145, 146, 139, 148, 138, 138, 148, 146, 148, 139, 149, 146, 150, 147, 150, 146, 148, 151, 147, 150, 150, 152, 151, 149, 153, 148, 148, 153, 150, 152, 150, 153, 153, 149, 154, 153, 155, 152, 154, 155, 153, 131, 130, 156, 156, 157, 131, 128, 131, 157, 157, 156, 158, 157, 159, 128, 127, 128, 159, 159, 160, 127, 158, 161, 157, 159, 157, 161, 160, 159, 162, 161, 162, 159, 162, 163, 160, 164, 163, 162, 162, 165, 164, 165, 162, 161, 166, 164, 165, 167, 161, 158, 161, 167, 165, 158, 168, 167, 167, 168, 169, 165, 170, 166, 170, 165, 167, 141, 166, 170, 170, 137, 141, 169, 171, 167, 167, 171, 170, 137, 170, 171, 171, 169, 133, 171, 132, 137, 133, 132, 171, 155, 154, 172, 172, 173, 155, 152, 155, 173, 173, 172, 174, 173, 175, 152, 151, 152, 175, 175, 176, 151, 174, 177, 173, 175, 173, 177, 176, 175, 178, 177, 178, 175, 178, 179, 176, 180, 179, 178, 178, 181, 180, 181, 178, 177, 182, 180, 181, 183, 177, 174, 177, 183, 181, 174, 184, 183, 183, 184, 185, 181, 186, 182, 186, 181, 183, 115, 182, 186, 186, 112, 115, 185, 187, 183, 183, 187, 186, 112, 186, 187, 187, 185, 109, 187, 108, 112, 109, 108, 187, 92, 95, 105, 105, 104, 92, 106, 105, 95, 96, 92, 104, 95, 97, 106, 104, 107, 96, 107, 106, 97, 97, 96, 107, 188, 182, 115, 115, 116, 188, 182, 188, 189, 189, 180, 182, 179, 180, 189, 190, 188, 116, 116, 119, 190, 103, 189, 188, 188, 190, 103, 189, 191, 179, 191, 189, 103, 176, 179, 191, 100, 103, 190, 103, 102, 191, 191, 192, 176, 192, 191, 102, 151, 176, 192, 192, 147, 151, 147, 192, 193, 102, 193, 192, 193, 145, 147, 144, 145, 193, 194, 193, 102, 193, 194, 144, 142, 144, 194, 102, 101, 194, 194, 195, 142, 195, 194, 101, 141, 142, 195, 195, 166, 141, 166, 195, 196, 101, 196, 195, 196, 164, 166, 163, 164, 196, 197, 196, 101, 196, 197, 163, 101, 100, 197, 160, 163, 197, 197, 198, 160, 198, 197, 100, 127, 160, 198, 198, 122, 127, 100, 199, 198, 122, 198, 199, 190, 199, 100, 199, 120, 122, 199, 190, 119, 119, 120, 199, 200, 201, 202, 202, 203, 200, 204, 205, 206, 206, 207, 204, 208, 209, 210, 210, 211, 208, 212, 213, 214, 214, 215, 212, 216, 217, 218, 218, 219, 216, 220, 221, 222, 222, 223, 220, 224, 225, 226, 226, 227, 224, 228, 229, 230, 230, 231, 228, 232, 233, 234, 234, 235, 232, 203, 232, 235, 235, 234, 236, 235, 200, 203, 236, 237, 235, 237, 236, 238, 239, 200, 235, 235, 237, 239, 240, 201, 200, 200, 239, 240, 241, 240, 239, 239, 242, 241, 242, 239, 237, 210, 241, 242, 242, 211, 210, 237, 243, 242, 211, 242, 243, 238, 243, 237, 243, 244, 211, 243, 238, 245, 245, 244, 243, 244, 245, 246, 246, 247, 244, 211, 244, 247, 247, 246, 248, 247, 208, 211, 248, 249, 247, 208, 247, 249, 249, 248, 250, 249, 251, 208, 209, 208, 251, 251, 252, 209, 253, 252, 251, 251, 254, 253, 254, 251, 249, 207, 253, 254, 254, 204, 207, 249, 255, 254, 204, 254, 255, 250, 255, 249, 255, 250, 256, 255, 257, 204, 256, 257, 255, 205, 204, 257, 257, 256, 258, 257, 259, 205, 258, 259, 257, 259, 258, 260, 260, 261, 259, 261, 260, 262, 205, 259, 261, 262, 263, 261, 263, 262, 264, 261, 265, 205, 265, 261, 263, 206, 205, 265, 265, 266, 206, 266, 265, 267, 263, 267, 265, 267, 268, 266, 215, 268, 267, 267, 212, 215, 212, 267, 263, 263, 269, 212, 264, 269, 263, 213, 212, 269, 269, 264, 270, 269, 271, 213, 270, 271, 269, 272, 273, 274, 274, 275, 272, 275, 274, 276, 225, 272, 275, 276, 277, 275, 277, 276, 278, 275, 279, 225, 279, 275, 277, 226, 225, 279, 279, 280, 226, 280, 279, 281, 277, 281, 279, 281, 282, 280, 219, 282, 281, 281, 216, 219, 216, 281, 277, 277, 283, 216, 278, 283, 277, 217, 216, 283, 283, 278, 284, 283, 285, 217, 284, 285, 283, 286, 287, 288, 288, 289, 286, 223, 286, 289, 289, 288, 290, 289, 291, 223, 290, 292, 289, 292, 290, 293, 294, 291, 289, 289, 292, 294, 295, 221, 291, 291, 294, 295, 296, 295, 294, 294, 297, 296, 297, 294, 292, 230, 296, 297, 297, 231, 230, 292, 298, 297, 231, 297, 298, 293, 298, 292, 298, 299, 231, 298, 293, 300, 300, 299, 298, 299, 300, 301, 301, 302, 299, 231, 299, 302, 302, 301, 303, 302, 228, 231, 303, 304, 302, 228, 302, 304, 304, 303, 305, 304, 306, 228, 229, 228, 306, 306, 307, 229, 308, 307, 306, 306, 309, 308, 309, 306, 304, 227, 308, 309, 309, 224, 227, 304, 310, 309, 224, 309, 310, 305, 310, 304, 310, 305, 311, 310, 312, 224, 311, 312, 310, 225, 224, 312, 312, 311, 273, 312, 272, 225, 273, 272, 312, 203, 202, 313, 313, 214, 213, 313, 314, 203, 213, 314, 313, 232, 203, 314, 314, 213, 271, 314, 315, 232, 271, 315, 314, 233, 232, 315, 315, 316, 233, 316, 315, 271, 271, 270, 316, 317, 218, 217, 223, 222, 317, 217, 318, 317, 317, 318, 223, 318, 217, 285, 286, 223, 318, 285, 284, 319, 318, 320, 286, 285, 320, 318, 319, 320, 285, 287, 286, 320, 320, 319, 287, 321, 241, 210, 210, 209, 321, 241, 321, 322, 322, 240, 241, 201, 240, 322, 323, 321, 209, 209, 252, 323, 324, 322, 321, 321, 323, 324, 322, 325, 201, 325, 322, 324, 202, 201, 325, 326, 323, 252, 252, 253, 326, 326, 253, 207, 325, 327, 202, 313, 202, 327, 327, 214, 313, 207, 328, 326, 328, 207, 206, 206, 266, 328, 323, 326, 329, 329, 326, 328, 329, 324, 323, 330, 328, 266, 328, 330, 329, 266, 268, 330, 324, 329, 331, 331, 329, 330, 324, 331, 325, 327, 325, 331, 332, 330, 268, 330, 332, 331, 331, 332, 327, 214, 327, 332, 268, 215, 332, 332, 215, 214, 333, 227, 226, 226, 280, 333, 227, 333, 334, 334, 308, 227, 307, 308, 334, 335, 333, 280, 280, 282, 335, 336, 334, 333, 333, 335, 336, 334, 337, 307, 337, 334, 336, 229, 307, 337, 338, 335, 282, 282, 219, 338, 338, 219, 218, 337, 339, 229, 230, 229, 339, 339, 296, 230, 218, 340, 338, 340, 218, 317, 317, 222, 340, 335, 338, 341, 341, 338, 340, 341, 336, 335, 342, 340, 222, 340, 342, 341, 222, 221, 342, 336, 341, 343, 343, 341, 342, 336, 343, 337, 339, 337, 343, 344, 342, 221, 342, 344, 343, 343, 344, 339, 296, 339, 344, 221, 295, 344, 344, 295, 296]
    normal3f[] normals = [(-0.00022082638, -0.9999976, -0.00218363), (-0.00022082638, -0.9999976, -0.00218363), (-0.0036899059, -0.999991, -0.0021406596), (-0.0036899059, -0.999991, -0.0021406596), (-0.014176561, -0.9998975, -0.0020117476), (-0.00022082638, -0.9999976, -0.00218363), (-0.0035953198, 0.9999221, 0.011953394), (-0.013614525, 0.9998344, 0.012075235), (0.00034119977, 0.9999291, 0.011904735), (0.00034119977, 0.9999291, 0.011904735), (0.0003411998, 0.9999291, 0.011904736), (-0.0035953198, 0.9999221, 0.011953394), (-0.9999122, 0.0001877133, 0.013255911), (-0.9999254, -0.00035390907, 0.01221671), (-0.99992675, 0.00043422365, 0.01210304), (-0.99992675, 0.00043422365, 0.01210304), (-0.99987906, 0.00017155235, 0.01555771), (-0.9999122, 0.0001877133, 0.013255911), (-0.001071192, 0.9999745, 0.007061005), (0.012381431, -0.007047205, 0.9998985), (0.012381431, -0.007047205, 0.9998985), (0.012381431, -0.007047205, 0.9998985), (-0.001067103, 0.9999745, 0.0070609543), (-0.001071192, 0.9999745, 0.007061005), (-0.0015624199, -0.9999741, -0.0070285136), (0.012381431, -0.007047205, 0.9998985), (0.012381431, -0.007047205, 0.9998985), (0.012381431, -0.007047205, 0.9998985), (0.012381431, -0.007047205, 0.9998985), (-0.0015624199, -0.9999741, -0.0070285136), (-0.99992144, 0.0018376884, 0.012402521), (-0.99991834, 0.0015413512, 0.01268892), (-0.94652236, 0.32190707, 0.021708295), (-0.94652236, 0.32190707, 0.021708295), (-0.84637517, 0.5323232, 0.01677162), (-0.99992144, 0.0018376884, 0.012402521), (-0.99992144, 0.0018376884, 0.012402521), (-0.9999232, -0.00061577035, 0.012377396), (-0.9999254, -0.00035390907, 0.01221671), (-0.9999254, -0.00035390907, 0.01221671), (-0.99991834, 0.0015413512, 0.01268892), (-0.99992144, 0.0018376884, 0.012402521), (-0.9999122, 0.0001877133, 0.013255911), (-0.99991834, 0.0015413512, 0.01268892), (-0.9999254, -0.00035390907, 0.01221671), (0.012381431, -0.007047205, 0.9998985), (-0.013614525, 0.9998344, 0.012075235), (-0.0005378213, -0.0070453207, 0.999975), (-0.0005378213, -0.0070453207, 0.999975), (0.012381431, -0.007047205, 0.9998985), (0.012381431, -0.007047205, 0.9998985), (0.012381431, -0.007047205, 0.9998985), (-0.0005378213, -0.0070453207, 0.999975), (0.0081207855, -0.007046316, 0.99994224), (0.0081207855, -0.007046316, 0.99994224), (0.012381431, -0.007047205, 0.9998985), (0.012381431, -0.007047205, 0.9998985), (0.012381431, -0.007047205, 0.9998985), (0.0081207855, -0.007046316, 0.99994224), (-0.0036899059, -0.999991, -0.0021406596), (-0.0036899059, -0.999991, -0.0021406596), (0.012381431, -0.007047205, 0.9998985), (0.012381431, -0.007047205, 0.9998985), (-0.9999216, 0.001802611, 0.01239443), (-0.99992675, 0.00043422365, 0.01210304), (-0.9921988, 0.10216258, -0.07144508), (-0.9921988, 0.10216258, -0.07144508), (-0.9717834, 0.23547749, 0.013695239), (-0.9999216, 0.001802611, 0.01239443), (-0.9717834, 0.23547749, 0.013695239), (-0.9921988, 0.10216258, -0.07144508), (-0.9472865, 0.26850426, -0.17479663), (-0.9472865, 0.26850426, -0.17479663), (-0.8700438, 0.49276835, 0.014251938), (-0.9717834, 0.23547749, 0.013695239), (-0.8700438, 0.49276835, 0.014251938), (-0.9472865, 0.26850426, -0.17479663), (-0.8047092, 0.5863313, -0.093052395), (-0.8047092, 0.5863313, -0.093052395), (-0.66683817, 0.74508005, 0.013514959), (-0.8700438, 0.49276835, 0.014251938), (-0.99992675, 0.00043422365, 0.01210304), (-0.9999254, -0.00035390907, 0.01221671), (-0.99050903, -0.12973978, -0.04538093), (-0.99050903, -0.12973978, -0.04538093), (-0.9921988, 0.10216258, -0.07144508), (-0.99992675, 0.00043422365, 0.01210304), (-0.9921988, 0.10216258, -0.07144508), (-0.99050903, -0.12973978, -0.04538093), (-0.94356835, -0.29726374, -0.1459898), (-0.94356835, -0.29726374, -0.1459898), (-0.9472865, 0.26850426, -0.17479663), (-0.9921988, 0.10216258, -0.07144508), (-0.9472865, 0.26850426, -0.17479663), (-0.94356835, -0.29726374, -0.1459898), (-0.79312503, -0.5806881, -0.18372266), (-0.79312503, -0.5806881, -0.18372266), (-0.8047092, 0.5863313, -0.093052395), (-0.9472865, 0.26850426, -0.17479663), (-0.9999254, -0.00035390907, 0.01221671), (-0.9999232, -0.00061577035, 0.012377396), (-0.9883537, -0.15176477, 0.011153085), (-0.9883537, -0.15176477, 0.011153085), (-0.99050903, -0.12973978, -0.04538093), (-0.9999254, -0.00035390907, 0.01221671), (-0.99050903, -0.12973978, -0.04538093), (-0.9883537, -0.15176477, 0.011153085), (-0.9209358, -0.38961977, 0.008593591), (-0.9209358, -0.38961977, 0.008593591), (-0.94356835, -0.29726374, -0.1459898), (-0.99050903, -0.12973978, -0.04538093), (-0.94356835, -0.29726374, -0.1459898), (-0.9209358, -0.38961977, 0.008593591), (-0.7498912, -0.6615458, 0.0045149215), (-0.7498912, -0.6615458, 0.0045149215), (-0.79312503, -0.5806881, -0.18372266), (-0.94356835, -0.29726374, -0.1459898), (-0.001071192, 0.9999745, 0.007061005), (-0.001067103, 0.9999745, 0.0070609543), (-0.15937895, 0.9871771, 0.008932058), (-0.15937895, 0.9871771, 0.008932058), (-0.23563817, 0.9717918, 0.009769248), (-0.001071192, 0.9999745, 0.007061005), (-0.23563817, 0.9717918, 0.009769248), (-0.15937895, 0.9871771, 0.008932058), (-0.40325078, 0.91501796, 0.011446195), (-0.40325078, 0.91501796, 0.011446195), (-0.49312913, 0.86987007, 0.012242554), (-0.23563817, 0.9717918, 0.009769248), (-0.49312913, 0.86987007, 0.012242554), (-0.40325078, 0.91501796, 0.011446195), (-0.66683817, 0.74508005, 0.013514959), (-0.66683817, 0.74508005, 0.013514959), (-0.8047092, 0.5863313, -0.093052395), (-0.49312913, 0.86987007, 0.012242554), (0.012381431, -0.007047205, 0.9998985), (-0.001071192, 0.9999745, 0.007061005), (-0.23563817, 0.9717918, 0.009769248), (-0.23563817, 0.9717918, 0.009769248), (-0.14208136, -0.98984116, -0.00523201), (0.012381431, -0.007047205, 0.9998985), (-0.14208136, -0.98984116, -0.00523201), (-0.23563817, 0.9717918, 0.009769248), (-0.49312913, 0.86987007, 0.012242554), (-0.49312913, 0.86987007, 0.012242554), (-0.378652, -0.9255372, -0.0018973134), (-0.14208136, -0.98984116, -0.00523201), (-0.378652, -0.9255372, -0.0018973134), (-0.49312913, 0.86987007, 0.012242554), (-0.8047092, 0.5863313, -0.093052395), (-0.8047092, 0.5863313, -0.093052395), (-0.79312503, -0.5806881, -0.18372266), (-0.378652, -0.9255372, -0.0018973134), (-0.0015624199, -0.9999741, -0.0070285136), (0.012381431, -0.007047205, 0.9998985), (-0.14208136, -0.98984116, -0.00523201), (-0.14208136, -0.98984116, -0.00523201), (-0.22346929, -0.9747022, -0.004140551), (-0.0015624199, -0.9999741, -0.0070285136), (-0.22346929, -0.9747022, -0.004140551), (-0.14208136, -0.98984116, -0.00523201), (-0.378652, -0.9255372, -0.0018973134), (-0.378652, -0.9255372, -0.0018973134), (-0.4828535, -0.8757011, -0.0002844396), (-0.22346929, -0.9747022, -0.004140551), (-0.4828535, -0.8757011, -0.0002844396), (-0.378652, -0.9255372, -0.0018973134), (-0.79312503, -0.5806881, -0.18372266), (-0.79312503, -0.5806881, -0.18372266), (-0.7498912, -0.6615458, 0.0045149215), (-0.4828535, -0.8757011, -0.0002844396), (-0.014176561, -0.9998975, -0.0020117476), (-0.0036899059, -0.999991, -0.0021406596), (-0.33407393, -0.94254464, 0.0020495285), (-0.33407393, -0.94254464, 0.0020495285), (-0.532121, -0.8466555, 0.004690663), (-0.014176561, -0.9998975, -0.0020117476), (-0.532121, -0.8466555, 0.004690663), (-0.33407393, -0.94254464, 0.0020495285), (-0.87747043, -0.47905865, 0.023417378), (-0.87747043, -0.47905865, 0.023417378), (-0.9391246, -0.34340566, 0.010851312), (-0.532121, -0.8466555, 0.004690663), (-0.013614525, 0.9998344, 0.012075235), (-0.0035953198, 0.9999221, 0.011953394), (-0.3431005, 0.9391723, 0.015406037), (-0.3431005, 0.9391723, 0.015406037), (-0.5127592, 0.8583734, 0.016524963), (-0.013614525, 0.9998344, 0.012075235), (-0.5127592, 0.8583734, 0.016524963), (-0.3431005, 0.9391723, 0.015406037), (-0.84637517, 0.5323232, 0.01677162), (-0.84637517, 0.5323232, 0.01677162), (-0.94652236, 0.32190707, 0.021708295), (-0.5127592, 0.8583734, 0.016524963), (-0.99991834, 0.0015413512, 0.01268892), (-0.9999122, 0.0001877133, 0.013255911), (-0.9301247, -0.0023487974, 0.36723655), (-0.9301247, -0.0023487974, 0.36723655), (-0.94652236, 0.32190707, 0.021708295), (-0.99991834, 0.0015413512, 0.01268892), (-0.94652236, 0.32190707, 0.021708295), (-0.9301247, -0.0023487974, 0.36723655), (-0.52676797, -0.005895397, 0.8499888), (-0.52676797, -0.005895397, 0.8499888), (-0.5127592, 0.8583734, 0.016524963), (-0.94652236, 0.32190707, 0.021708295), (-0.33407393, -0.94254464, 0.0020495285), (-0.34537375, -0.006477107, 0.93844295), (-0.83784884, -0.0035536329, 0.54589075), (-0.83784884, -0.0035536329, 0.54589075), (-0.87747043, -0.47905865, 0.023417378), (-0.33407393, -0.94254464, 0.0020495285), (-0.87747043, -0.47905865, 0.023417378), (-0.83784884, -0.0035536329, 0.54589075), (-0.99987906, 0.00017155235, 0.01555771), (-0.99987906, 0.00017155235, 0.01555771), (-0.9999183, -0.0026680375, 0.012510848), (-0.87747043, -0.47905865, 0.023417378), (-0.9391246, -0.34340566, 0.010851312), (-0.87747043, -0.47905865, 0.023417378), (-0.9999183, -0.0026680375, 0.012510848), (-0.9999183, -0.0026680375, 0.012510848), (-0.9999232, -0.00068313174, 0.012381184), (-0.9391246, -0.34340566, 0.010851312), (-0.99992675, 0.00043422365, 0.01210304), (-0.9999216, 0.001802611, 0.01239443), (-0.9999232, -0.00068313174, 0.012381184), (-0.9999232, -0.00068313174, 0.012381184), (-0.9999183, -0.0026680375, 0.012510848), (-0.99992675, 0.00043422365, 0.01210304), (-0.99992675, 0.00043422365, 0.01210304), (-0.9999183, -0.0026680375, 0.012510848), (-0.99987906, 0.00017155235, 0.01555771), (0.012381431, -0.007047205, 0.9998985), (0.012381431, -0.007047205, 0.9998985), (-0.9999233, 0.0001937698, 0.012383103), (0.012381431, -0.007047205, 0.9998985), (-0.9999233, 0.0001937698, 0.012383103), (-0.012381431, 0.007047205, -0.9998985), (-0.012381431, 0.007047205, -0.9998985), (-0.001071192, 0.9999745, 0.007061005), (0.012381431, -0.007047205, 0.9998985), (-0.012381431, 0.007047205, -0.9998985), (0.012381431, -0.007047205, 0.9998985), (-0.001071192, 0.9999745, 0.007061005), (-0.9301247, -0.0023487974, 0.36723655), (-0.9999122, 0.0001877133, 0.013255911), (-0.99987906, 0.00017155235, 0.01555771), (-0.99987906, 0.00017155235, 0.01555771), (-0.83784884, -0.0035536329, 0.54589075), (-0.9301247, -0.0023487974, 0.36723655), (-0.52676797, -0.005895397, 0.8499888), (-0.9301247, -0.0023487974, 0.36723655), (-0.83784884, -0.0035536329, 0.54589075), (-0.83784884, -0.0035536329, 0.54589075), (-0.34537375, -0.006477107, 0.93844295), (-0.52676797, -0.005895397, 0.8499888), (-0.0005378213, -0.0070453207, 0.999975), (-0.013614525, 0.9998344, 0.012075235), (-0.5127592, 0.8583734, 0.016524963), (-0.5127592, 0.8583734, 0.016524963), (-0.52676797, -0.005895397, 0.8499888), (-0.0005378213, -0.0070453207, 0.999975), (-0.0005378213, -0.0070453207, 0.999975), (-0.52676797, -0.005895397, 0.8499888), (-0.34537375, -0.006477107, 0.93844295), (-0.34537375, -0.006477107, 0.93844295), (0.0081207855, -0.007046316, 0.99994224), (-0.0005378213, -0.0070453207, 0.999975), (-0.0036899059, -0.999991, -0.0021406596), (0.0081207855, -0.007046316, 0.99994224), (-0.34537375, -0.006477107, 0.93844295), (-0.34537375, -0.006477107, 0.93844295), (-0.33407393, -0.94254464, 0.0020495285), (-0.0036899059, -0.999991, -0.0021406596), (-0.9999233, 0.0001937698, 0.012383103), (-0.9999233, 0.0001937698, 0.012383103), (-0.9999233, 0.0001937698, 0.012383103), (-0.9999233, 0.0001937698, 0.012383103), (-0.012381431, 0.007047205, -0.9998985), (-0.9999233, 0.0001937698, 0.012383103), (-0.9999233, 0.0001937698, 0.012383103), (-0.9999233, 0.0001937698, 0.012383103), (0.9999233, -0.0001937698, -0.012383103), (0.9999233, -0.0001937698, -0.012383103), (0.9999233, -0.0001937698, -0.012383103), (-0.9999233, 0.0001937698, 0.012383103), (-0.9999233, 0.0001937698, 0.012383103), (-0.9999233, 0.0001937698, 0.012383103), (0.9999233, -0.0001937698, -0.012383103), (0.9999233, -0.0001937698, -0.012383103), (0.9999233, -0.0001937698, -0.012383103), (-0.9999233, 0.0001937698, 0.012383103), (-0.9999233, 0.0001937698, 0.012383103), (-0.9999233, 0.0001937698, 0.012383103), (0.9999233, -0.0001937698, -0.012383103), (0.9999233, -0.0001937698, -0.012383103), (0.9999233, -0.0001937698, -0.012383103), (-0.9999233, 0.0001937698, 0.012383103), (0.9999233, -0.0001937698, -0.012383103), (0.9999233, -0.0001937698, -0.012383103), (-0.012381431, 0.007047205, -0.9998985), (-0.012381431, 0.007047205, -0.9998985), (-0.012381431, 0.007047205, -0.9998985), (0.9999233, -0.0001937698, -0.012383103), (0.012381431, -0.007047205, 0.9998985), (-0.012381431, 0.007047205, -0.9998985), (-0.9999233, 0.0001937698, 0.012383103), (0.012381431, -0.007047205, 0.9998985), (0.012381431, -0.007047205, 0.9998985), (-0.9999233, 0.0001937698, 0.012383103), (-0.9999233, 0.0001937698, 0.012383103), (-0.9999233, 0.0001937698, 0.012383103), (0.012381431, -0.007047205, 0.9998985), (0.012381431, -0.007047205, 0.9998985), (0.012381431, -0.007047205, 0.9998985), (-0.9999233, 0.0001937698, 0.012383103), (-0.9999233, 0.0001937698, 0.012383103), (-0.9999233, 0.0001937698, 0.012383103), (0.012381431, -0.007047205, 0.9998985), (-0.9999233, 0.0001937698, 0.012383103), (0.012381431, -0.007047205, 0.9998985), (-0.9999233, 0.0001937698, 0.012383103), (0.9999233, -0.0001937698, -0.012383103), (0.9999233, -0.0001937698, -0.012383103), (0.9999233, -0.0001937698, -0.012383103), (0.9999233, -0.0001937698, -0.012383103), (0.9999233, -0.0001937698, -0.012383103), (0.9999233, -0.0001937698, -0.012383103), (-0.012381431, 0.007047205, -0.9998985), (0.9999233, -0.0001937698, -0.012383103), (0.9999233, -0.0001937698, -0.012383103), (0.9999233, -0.0001937698, -0.012383103), (-0.012381431, 0.007047205, -0.9998985), (-0.012381431, 0.007047205, -0.9998985), (0.9999233, -0.0001937698, -0.012383103), (0.9999233, -0.0001937698, -0.012383103), (0.9999233, -0.0001937698, -0.012383103), (0.9999233, -0.0001937698, -0.012383103), (0.9999233, -0.0001937698, -0.012383103), (0.9999233, -0.0001937698, -0.012383103), (0.012381431, -0.007047205, 0.9998985), (0.9999233, -0.0001937698, -0.012383103), (0.9999233, -0.0001937698, -0.012383103), (0.9999233, -0.0001937698, -0.012383103), (-0.012381431, 0.007047205, -0.9998985), (0.012381431, -0.007047205, 0.9998985), (-0.9999233, 0.0001937698, 0.012383103), (-0.9999233, 0.0001937698, 0.012383103), (-0.9999233, 0.0001937698, 0.012383103), (-0.9999233, 0.0001937698, 0.012383103), (-0.9999233, 0.0001937698, 0.012383103), (-0.9999233, 0.0001937698, 0.012383103), (0.9999233, -0.0001937698, -0.012383103), (-0.0002810164, -0.99997514, -0.0070442655), (-0.0002810164, -0.99997514, -0.0070442655), (-0.0002810164, -0.99997514, -0.0070442655), (0.9999233, -0.0001937698, -0.012383103), (0.9999233, -0.0001937698, -0.012383103), (0.9999233, -0.0001937698, -0.012383103), (-0.0002810164, -0.99997514, -0.0070442655), (-0.012381431, 0.007047205, -0.9998985), (-0.012381431, 0.007047205, -0.9998985), (-0.012381431, 0.007047205, -0.9998985), (0.9999233, -0.0001937698, -0.012383103), (0.012381431, -0.007047205, 0.9998985), (-0.012381431, 0.007047205, -0.9998985), (0.0002810164, 0.99997514, 0.0070442655), (0.0002810164, 0.99997514, 0.0070442655), (0.9999233, -0.0001937698, -0.012383103), (0.012381431, -0.007047205, 0.9998985), (0.9999233, -0.0001937698, -0.012383103), (0.0002810164, 0.99997514, 0.0070442655), (0.0002810164, 0.99997514, 0.0070442655), (0.0002810164, 0.99997514, 0.0070442655), (0.9999233, -0.0001937698, -0.012383103), (0.9999233, -0.0001937698, -0.012383103), (-0.012381431, 0.007047205, -0.9998985), (0.012381431, -0.007047205, 0.9998985), (-0.012381431, 0.007047205, -0.9998985), (-0.012381431, 0.007047205, -0.9998985), (-0.012381431, 0.007047205, -0.9998985), (-0.012381431, 0.007047205, -0.9998985), (-0.012381431, 0.007047205, -0.9998985), (-0.012381431, 0.007047205, -0.9998985), (-0.012381431, 0.007047205, -0.9998985), (-0.012381431, 0.007047205, -0.9998985), (-0.012381431, 0.007047205, -0.9998985), (-0.012381431, 0.007047205, -0.9998985), (-0.9999233, 0.0001937698, 0.012383103), (-0.012381431, 0.007047205, -0.9998985), (-0.012381431, 0.007047205, -0.9998985), (-0.012381431, 0.007047205, -0.9998985), (-0.9999233, 0.0001937698, 0.012383103), (-0.9999233, 0.0001937698, 0.012383103), (-0.9999233, 0.0001937698, 0.012383103), (-0.9999233, 0.0001937698, 0.012383103), (0.012381431, -0.007047205, 0.9998985), (0.012381431, -0.007047205, 0.9998985), (0.012381431, -0.007047205, 0.9998985), (-0.9999233, 0.0001937698, 0.012383103), (-0.9999233, 0.0001937698, 0.012383103), (-0.012381431, 0.007047205, -0.9998985), (0.012381431, -0.007047205, 0.9998985), (0.012381431, -0.007047205, 0.9998985), (-0.9999233, 0.0001937698, 0.012383103), (-0.9999233, 0.0001937698, 0.012383103), (-0.012381431, 0.007047205, -0.9998985), (-0.9999233, 0.0001937698, 0.012383103), (-0.9999233, 0.0001937698, 0.012383103), (-0.9999233, 0.0001937698, 0.012383103), (0.012381431, -0.007047205, 0.9998985), (-0.012381431, 0.007047205, -0.9998985), (-0.9999253, 0.0017731363, 0.012100438), (-0.9999362, -0.0013722237, 0.011216778), (-0.99991894, -0.0013855972, 0.012665739), (-0.99991894, -0.0013855972, 0.012665739), (-0.9999067, 0.0017597626, 0.013549382), (-0.9999253, 0.0017731363, 0.012100438), (-0.9999233, 0.0001937698, 0.012383103), (-0.9999233, 0.0001937698, 0.012383103), (-0.9999233, 0.0001937698, 0.012383103), (-0.9999233, 0.0001937698, 0.012383103), (-0.9999233, 0.0001937698, 0.012383103), (-0.9999233, 0.0001937698, 0.012383103), (-0.9999233, 0.0001937698, 0.012383103), (-0.9999233, 0.0001937698, 0.012383103), (-0.9999233, 0.0001937698, 0.012383103), (-0.9999233, 0.0001937698, 0.012383103), (-0.9999233, 0.0001937698, 0.012383103), (-0.9999233, 0.0001937698, 0.012383103), (-0.9999233, 0.0001937698, 0.012383103), (-0.9999233, 0.0001937698, 0.012383103), (-0.9999233, 0.0001937698, 0.012383103), (-0.9999233, 0.0001937698, 0.012383103), (-0.9999233, 0.0001937698, 0.012383103), (-0.9999233, 0.0001937698, 0.012383103), (-0.9999233, 0.0001937698, 0.012383103), (-0.9999233, 0.0001937698, 0.012383103), (-0.9999233, 0.0001937698, 0.012383103), (-0.9999233, 0.0001937698, 0.012383103), (-0.9999233, 0.0001937698, 0.012383103), (-0.9999233, 0.0001937698, 0.012383103), (0.0012941181, 0.75587744, 0.65471184), (0.009635836, 0.64053774, 0.7678663), (0.004979051, 0.9219816, 0.3872019), (0.004979051, 0.9219816, 0.3872019), (-0.009458532, 0.96280575, 0.27002934), (0.0012941181, 0.75587744, 0.65471184), (-0.22413416, 0.68284976, 0.69532734), (0.0012941181, 0.75587744, 0.65471184), (-0.009458532, 0.96280575, 0.27002934), (-0.009458532, 0.96280575, 0.27002934), (0.004979051, 0.9219816, 0.3872019), (0.00028821573, 0.9999709, 0.0076244455), (-0.009458532, 0.96280575, 0.27002934), (-0.2817837, 0.9128304, 0.29553077), (-0.22413416, 0.68284976, 0.69532734), (-0.57001704, 0.57336843, 0.5884974), (-0.22413416, 0.68284976, 0.69532734), (-0.2817837, 0.9128304, 0.29553077), (-0.2817837, 0.9128304, 0.29553077), (-0.6845486, 0.6861403, 0.24618019), (-0.57001704, 0.57336843, 0.5884974), (0.00028821573, 0.9999709, 0.0076244455), (-0.025394255, 0.99964595, 0.007939873), (-0.009458532, 0.96280575, 0.27002934), (-0.2817837, 0.9128304, 0.29553077), (-0.009458532, 0.96280575, 0.27002934), (-0.025394255, 0.99964595, 0.007939873), (-0.6845486, 0.6861403, 0.24618019), (-0.2817837, 0.9128304, 0.29553077), (-0.38035896, 0.9247639, 0.011787968), (-0.025394255, 0.99964595, 0.007939873), (-0.38035896, 0.9247639, 0.011787968), (-0.2817837, 0.9128304, 0.29553077), (-0.38035896, 0.9247639, 0.011787968), (-0.7630013, 0.64623934, 0.014275765), (-0.6845486, 0.6861403, 0.24618019), (-0.6457916, 0.7634012, 0.013103904), (-0.7630013, 0.64623934, 0.014275765), (-0.38035896, 0.9247639, 0.011787968), (-0.38035896, 0.9247639, 0.011787968), (-0.25455204, 0.96701306, 0.009442895), (-0.6457916, 0.7634012, 0.013103904), (-0.25455204, 0.96701306, 0.009442895), (-0.38035896, 0.9247639, 0.011787968), (-0.025394255, 0.99964595, 0.007939873), (-0.69030625, 0.6894341, -0.21944919), (-0.6457916, 0.7634012, 0.013103904), (-0.25455204, 0.96701306, 0.009442895), (-0.0071788128, 0.999953, 0.006526167), (-0.025394255, 0.99964595, 0.007939873), (0.00028821573, 0.9999709, 0.0076244455), (-0.025394255, 0.99964595, 0.007939873), (-0.0071788128, 0.999953, 0.006526167), (-0.25455204, 0.96701306, 0.009442895), (0.00028821573, 0.9999709, 0.0076244455), (0.00027383046, 0.99997914, 0.0064639454), (-0.0071788128, 0.999953, 0.006526167), (-0.0071788128, 0.999953, 0.006526167), (0.00027383046, 0.99997914, 0.0064639454), (-0.002874424, 0.96884906, -0.24763575), (-0.25455204, 0.96701306, 0.009442895), (-0.2888518, 0.9168574, -0.27556682), (-0.69030625, 0.6894341, -0.21944919), (-0.2888518, 0.9168574, -0.27556682), (-0.25455204, 0.96701306, 0.009442895), (-0.0071788128, 0.999953, 0.006526167), (-0.58430856, 0.5814992, -0.5660763), (-0.69030625, 0.6894341, -0.21944919), (-0.2888518, 0.9168574, -0.27556682), (-0.2888518, 0.9168574, -0.27556682), (-0.24115056, 0.69253224, -0.6798865), (-0.58430856, 0.5814992, -0.5660763), (-0.002874424, 0.96884906, -0.24763575), (-0.018222278, 0.92807156, -0.3719558), (-0.0071788128, 0.999953, 0.006526167), (-0.0071788128, 0.999953, 0.006526167), (-0.018222278, 0.92807156, -0.3719558), (-0.2888518, 0.9168574, -0.27556682), (-0.24115056, 0.69253224, -0.6798865), (-0.2888518, 0.9168574, -0.27556682), (-0.018222278, 0.92807156, -0.3719558), (-0.018222278, 0.92807156, -0.3719558), (-0.002874424, 0.96884906, -0.24763575), (-0.007780667, 0.7679397, -0.6404749), (-0.018222278, 0.92807156, -0.3719558), (-0.016193992, 0.6546901, -0.75572395), (-0.24115056, 0.69253224, -0.6798865), (-0.007780667, 0.7679397, -0.6404749), (-0.016193992, 0.6546901, -0.75572395), (-0.018222278, 0.92807156, -0.3719558), (-0.015216251, -0.75588006, -0.6545334), (-0.009633408, -0.64053917, -0.76786506), (-0.0049781003, -0.9220011, -0.38715556), (-0.0049781003, -0.9220011, -0.38715556), (-0.016521841, -0.96281856, -0.2696432), (-0.015216251, -0.75588006, -0.6545334), (-0.016521841, -0.96281856, -0.2696432), (-0.0049781003, -0.9220011, -0.38715556), (-0.00029534986, -0.9999663, -0.008199378), (-0.2415068, -0.6827856, -0.6895493), (-0.015216251, -0.75588006, -0.6545334), (-0.016521841, -0.96281856, -0.2696432), (-0.00029534986, -0.9999663, -0.008199378), (-0.014423567, -0.9998702, -0.0071877087), (-0.016521841, -0.96281856, -0.2696432), (-0.014423567, -0.9998702, -0.0071877087), (-0.00029534986, -0.9999663, -0.008199378), (-0.00027741957, -0.9999772, -0.006753793), (-0.016521841, -0.96281856, -0.2696432), (-0.28932118, -0.9127441, -0.28842944), (-0.2415068, -0.6827856, -0.6895493), (-0.28932118, -0.9127441, -0.28842944), (-0.016521841, -0.96281856, -0.2696432), (-0.014423567, -0.9998702, -0.0071877087), (-0.584602, -0.5731659, -0.57421386), (-0.2415068, -0.6827856, -0.6895493), (-0.28932118, -0.9127441, -0.28842944), (-0.28932118, -0.9127441, -0.28842944), (-0.6906872, -0.6859018, -0.22910707), (-0.584602, -0.5731659, -0.57421386), (-0.6906872, -0.6859018, -0.22910707), (-0.28932118, -0.9127441, -0.28842944), (-0.38085967, -0.92463, -0.0023610927), (-0.014423567, -0.9998702, -0.0071877087), (-0.38085967, -0.92463, -0.0023610927), (-0.28932118, -0.9127441, -0.28842944), (-0.38085967, -0.92463, -0.0023610927), (-0.76337683, -0.64593697, 0.0046270355), (-0.6906872, -0.6859018, -0.22910707), (-0.64621574, -0.7631494, 0.0028963992), (-0.76337683, -0.64593697, 0.0046270355), (-0.38085967, -0.92463, -0.0023610927), (-0.38085967, -0.92463, -0.0023610927), (-0.25505236, -0.9669222, -0.0031320197), (-0.64621574, -0.7631494, 0.0028963992), (-0.25505236, -0.9669222, -0.0031320197), (-0.38085967, -0.92463, -0.0023610927), (-0.014423567, -0.9998702, -0.0071877087), (-0.6849228, -0.68918097, 0.23645389), (-0.64621574, -0.7631494, 0.0028963992), (-0.25505236, -0.9669222, -0.0031320197), (-0.00027741957, -0.9999772, -0.006753793), (-0.014379865, -0.9998804, -0.0057136863), (-0.014423567, -0.9998702, -0.0071877087), (-0.014423567, -0.9998702, -0.0071877087), (-0.014379865, -0.9998804, -0.0057136863), (-0.25505236, -0.9669222, -0.0031320197), (-0.014379865, -0.9998804, -0.0057136863), (-0.00027741957, -0.9999772, -0.006753793), (0.00287413, -0.9688551, 0.24761212), (-0.25505236, -0.9669222, -0.0031320197), (-0.28225118, -0.9167669, 0.28261772), (-0.6849228, -0.68918097, 0.23645389), (-0.28225118, -0.9167669, 0.28261772), (-0.25505236, -0.9669222, -0.0031320197), (-0.014379865, -0.9998804, -0.0057136863), (-0.57030547, -0.5813019, 0.5803791), (-0.6849228, -0.68918097, 0.23645389), (-0.28225118, -0.9167669, 0.28261772), (-0.28225118, -0.9167669, 0.28261772), (-0.22448947, -0.6924755, 0.6856255), (-0.57030547, -0.5813019, 0.5803791), (0.00287413, -0.9688551, 0.24761212), (-0.00937429, -0.9280678, 0.3722935), (-0.014379865, -0.9998804, -0.0057136863), (-0.014379865, -0.9998804, -0.0057136863), (-0.00937429, -0.9280678, 0.3722935), (-0.28225118, -0.9167669, 0.28261772), (-0.22448947, -0.6924755, 0.6856255), (-0.28225118, -0.9167669, 0.28261772), (-0.00937429, -0.9280678, 0.3722935), (-0.00937429, -0.9280678, 0.3722935), (0.00287413, -0.9688551, 0.24761212), (0.0077806753, -0.76793915, 0.6404756), (-0.00937429, -0.9280678, 0.3722935), (0.0022698394, -0.65470004, 0.75588554), (-0.22448947, -0.6924755, 0.6856255), (0.0077806753, -0.76793915, 0.6404756), (0.0022698394, -0.65470004, 0.75588554), (-0.00937429, -0.9280678, 0.3722935), (-0.016193992, 0.6546901, -0.75572395), (-0.007780667, 0.7679397, -0.6404749), (-0.0113419, 0.38724607, -0.92190677), (-0.0113419, 0.38724607, -0.92190677), (-0.024861721, 0.26989073, -0.96257), (-0.016193992, 0.6546901, -0.75572395), (-0.24115056, 0.69253224, -0.6798865), (-0.016193992, 0.6546901, -0.75572395), (-0.024861721, 0.26989073, -0.96257), (-0.024861721, 0.26989073, -0.96257), (-0.0113419, 0.38724607, -0.92190677), (-0.012380973, 0.008621765, -0.9998862), (-0.024861721, 0.26989073, -0.96257), (-0.29681292, 0.2920676, -0.9091747), (-0.24115056, 0.69253224, -0.6798865), (-0.58430856, 0.5814992, -0.5660763), (-0.24115056, 0.69253224, -0.6798865), (-0.29681292, 0.2920676, -0.9091747), (-0.29681292, 0.2920676, -0.9091747), (-0.6960615, 0.23780075, -0.6774579), (-0.58430856, 0.5814992, -0.5660763), (-0.012380973, 0.008621765, -0.9998862), (-0.038064573, 0.00862412, -0.9992381), (-0.024861721, 0.26989073, -0.96257), (-0.29681292, 0.2920676, -0.9091747), (-0.024861721, 0.26989073, -0.96257), (-0.038064573, 0.00862412, -0.9992381), (-0.6960615, 0.23780075, -0.6774579), (-0.29681292, 0.2920676, -0.9091747), (-0.39195308, 0.00811291, -0.91994953), (-0.038064573, 0.00862412, -0.9992381), (-0.39195308, 0.00811291, -0.91994953), (-0.29681292, 0.2920676, -0.9091747), (-0.39195308, 0.00811291, -0.91994953), (-0.77098924, 0.0054461565, -0.63682497), (-0.6960615, 0.23780075, -0.6774579), (-0.6556869, 0.0047595142, -0.75501794), (-0.77098924, 0.0054461565, -0.63682497), (-0.39195308, 0.00811291, -0.91994953), (-0.39195308, 0.00811291, -0.91994953), (-0.26740378, 0.0054375273, -0.9635693), (-0.6556869, 0.0047595142, -0.75501794), (-0.26740378, 0.0054375273, -0.9635693), (-0.39195308, 0.00811291, -0.91994953), (-0.038064573, 0.00862412, -0.9992381), (-0.6961804, -0.22781871, -0.6807581), (-0.6556869, 0.0047595142, -0.75501794), (-0.26740378, 0.0054375273, -0.9635693), (-0.01988403, 0.005392913, -0.99978775), (-0.038064573, 0.00862412, -0.9992381), (-0.012380973, 0.008621765, -0.9998862), (-0.038064573, 0.00862412, -0.9992381), (-0.01988403, 0.005392913, -0.99978775), (-0.26740378, 0.0054375273, -0.9635693), (-0.012380973, 0.008621765, -0.9998862), (-0.012381858, 0.005472629, -0.9999084), (-0.01988403, 0.005392913, -0.99978775), (-0.01988403, 0.005392913, -0.99978775), (-0.012381858, 0.005472629, -0.9999084), (-0.012045286, -0.24767093, -0.9687693), (-0.26740378, 0.0054375273, -0.9635693), (-0.29696152, -0.2790622, -0.9132021), (-0.6961804, -0.22781871, -0.6807581), (-0.29696152, -0.2790622, -0.9132021), (-0.26740378, 0.0054375273, -0.9635693), (-0.01988403, 0.005392913, -0.99978775), (-0.584602, -0.5731659, -0.57421386), (-0.6961804, -0.22781871, -0.6807581), (-0.29696152, -0.2790622, -0.9132021), (-0.29696152, -0.2790622, -0.9132021), (-0.2415068, -0.6827856, -0.6895493), (-0.584602, -0.5731659, -0.57421386), (-0.012045286, -0.24767093, -0.9687693), (-0.025362048, -0.3721839, -0.92781246), (-0.01988403, 0.005392913, -0.99978775), (-0.01988403, 0.005392913, -0.99978775), (-0.025362048, -0.3721839, -0.92781246), (-0.29696152, -0.2790622, -0.9132021), (-0.2415068, -0.6827856, -0.6895493), (-0.29696152, -0.2790622, -0.9132021), (-0.025362048, -0.3721839, -0.92781246), (-0.025362048, -0.3721839, -0.92781246), (-0.012045286, -0.24767093, -0.9687693), (-0.009633408, -0.64053917, -0.76786506), (-0.025362048, -0.3721839, -0.92781246), (-0.015216251, -0.75588006, -0.6545334), (-0.2415068, -0.6827856, -0.6895493), (-0.009633408, -0.64053917, -0.76786506), (-0.015216251, -0.75588006, -0.6545334), (-0.025362048, -0.3721839, -0.92781246), (0.0022698394, -0.65470004, 0.75588554), (0.0077806753, -0.76793915, 0.6404756), (0.011341906, -0.3872446, 0.92190725), (0.011341906, -0.3872446, 0.92190725), (-0.0011212202, -0.2698878, 0.9628912), (0.0022698394, -0.65470004, 0.75588554), (-0.22448947, -0.6924755, 0.6856255), (0.0022698394, -0.65470004, 0.75588554), (-0.0011212202, -0.2698878, 0.9628912), (-0.0011212202, -0.2698878, 0.9628912), (0.011341906, -0.3872446, 0.92190725), (0.012380973, -0.008621789, 0.9998862), (-0.0011212202, -0.2698878, 0.9628912), (-0.27431607, -0.291973, 0.9162437), (-0.22448947, -0.6924755, 0.6856255), (-0.57030547, -0.5813019, 0.5803791), (-0.22448947, -0.6924755, 0.6856255), (-0.27431607, -0.291973, 0.9162437), (-0.27431607, -0.291973, 0.9162437), (-0.67915446, -0.23752648, 0.6945001), (-0.57030547, -0.5813019, 0.5803791), (0.012380973, -0.008621789, 0.9998862), (-0.013311183, -0.008614187, 0.9998743), (-0.0011212202, -0.2698878, 0.9628912), (-0.27431607, -0.291973, 0.9162437), (-0.0011212202, -0.2698878, 0.9628912), (-0.013311183, -0.008614187, 0.9998743), (-0.67915446, -0.23752648, 0.6945001), (-0.27431607, -0.291973, 0.9162437), (-0.36905274, -0.007965544, 0.9293744), (-0.013311183, -0.008614187, 0.9998743), (-0.36905274, -0.007965544, 0.9293744), (-0.27431607, -0.291973, 0.9162437), (-0.36905274, -0.007965544, 0.9293744), (-0.7549838, -0.005150588, 0.6557233), (-0.67915446, -0.23752648, 0.6945001), (-0.63678855, -0.004508923, 0.7710253), (-0.7549838, -0.005150588, 0.6557233), (-0.36905274, -0.007965544, 0.9293744), (-0.36905274, -0.007965544, 0.9293744), (-0.24346212, -0.0053385776, 0.9698957), (-0.63678855, -0.004508923, 0.7710253), (-0.24346212, -0.0053385776, 0.9698957), (-0.36905274, -0.007965544, 0.9293744), (-0.013311183, -0.008614187, 0.9998743), (-0.67903215, 0.22811534, 0.697767), (-0.63678855, -0.004508923, 0.7710253), (-0.24346212, -0.0053385776, 0.9698957), (0.0048789354, -0.0053899926, 0.9999736), (-0.013311183, -0.008614187, 0.9998743), (0.012380973, -0.008621789, 0.9998862), (-0.013311183, -0.008614187, 0.9998743), (0.0048789354, -0.0053899926, 0.9999736), (-0.24346212, -0.0053385776, 0.9698957), (0.012380973, -0.008621789, 0.9998862), (0.012381858, -0.005472604, 0.9999084), (0.0048789354, -0.0053899926, 0.9999736), (0.0048789354, -0.0053899926, 0.9999736), (0.012381858, -0.005472604, 0.9999084), (0.012046785, 0.2476784, 0.9687675), (-0.24346212, -0.0053385776, 0.9698957), (-0.27416992, 0.2791842, 0.92026466), (-0.67903215, 0.22811534, 0.697767), (-0.27416992, 0.2791842, 0.92026466), (-0.24346212, -0.0053385776, 0.9698957), (0.0048789354, -0.0053899926, 0.9999736), (-0.57001704, 0.57336843, 0.5884974), (-0.67903215, 0.22811534, 0.697767), (-0.27416992, 0.2791842, 0.92026466), (-0.27416992, 0.2791842, 0.92026466), (-0.22413416, 0.68284976, 0.69532734), (-0.57001704, 0.57336843, 0.5884974), (0.012046785, 0.2476784, 0.9687675), (-0.0022321583, 0.37218654, 0.9281554), (0.0048789354, -0.0053899926, 0.9999736), (0.0048789354, -0.0053899926, 0.9999736), (-0.0022321583, 0.37218654, 0.9281554), (-0.27416992, 0.2791842, 0.92026466), (-0.22413416, 0.68284976, 0.69532734), (-0.27416992, 0.2791842, 0.92026466), (-0.0022321583, 0.37218654, 0.9281554), (-0.0022321583, 0.37218654, 0.9281554), (0.012046785, 0.2476784, 0.9687675), (0.009635836, 0.64053774, 0.7678663), (-0.0022321583, 0.37218654, 0.9281554), (0.0012941181, 0.75587744, 0.65471184), (-0.22413416, 0.68284976, 0.69532734), (0.009635836, 0.64053774, 0.7678663), (0.0012941181, 0.75587744, 0.65471184), (-0.0022321583, 0.37218654, 0.9281554), (-0.9999233, 0.0001937698, 0.012383103), (-0.9999233, 0.0001937698, 0.012383103), (-0.9999233, 0.0001937698, 0.012383103), (-0.9999233, 0.0001937698, 0.012383103), (-0.9999233, 0.0001937698, 0.012383103), (-0.9999233, 0.0001937698, 0.012383103), (-0.9999233, 0.0001937698, 0.012383103), (-0.9999233, 0.0001937698, 0.012383103), (-0.9999233, 0.0001937698, 0.012383103), (-0.9999233, 0.0001937698, 0.012383103), (-0.9999233, 0.0001937698, 0.012383103), (-0.9999233, 0.0001937698, 0.012383103), (-0.9999233, 0.0001937698, 0.012383103), (-0.9999233, 0.0001937698, 0.012383103), (-0.9999233, 0.0001937698, 0.012383103), (-0.9999233, 0.0001937698, 0.012383103), (-0.9999233, 0.0001937698, 0.012383103), (-0.9999233, 0.0001937698, 0.012383103), (-0.9999233, 0.0001937698, 0.012383103), (-0.9999233, 0.0001937698, 0.012383103), (-0.9999233, 0.0001937698, 0.012383103), (-0.9999233, 0.0001937698, 0.012383103), (-0.9999233, 0.0001937698, 0.012383103), (-0.9999233, 0.0001937698, 0.012383103), (-0.9111207, 0.28375348, 0.2989033), (-0.67903215, 0.22811534, 0.697767), (-0.57001704, 0.57336843, 0.5884974), (-0.57001704, 0.57336843, 0.5884974), (-0.6845486, 0.6861403, 0.24618019), (-0.9111207, 0.28375348, 0.2989033), (-0.67903215, 0.22811534, 0.697767), (-0.9111207, 0.28375348, 0.2989033), (-0.9199709, -0.0009801318, 0.3919854), (-0.9199709, -0.0009801318, 0.3919854), (-0.63678855, -0.004508923, 0.7710253), (-0.67903215, 0.22811534, 0.697767), (-0.7549838, -0.005150588, 0.6557233), (-0.63678855, -0.004508923, 0.7710253), (-0.9199709, -0.0009801318, 0.3919854), (-0.9668304, 0.2550192, 0.014294114), (-0.9111207, 0.28375348, 0.2989033), (-0.6845486, 0.6861403, 0.24618019), (-0.6845486, 0.6861403, 0.24618019), (-0.7630013, 0.64623934, 0.014275765), (-0.9668304, 0.2550192, 0.014294114), (-0.9999067, 0.0017597626, 0.013549382), (-0.9199709, -0.0009801318, 0.3919854), (-0.9111207, 0.28375348, 0.2989033), (-0.9111207, 0.28375348, 0.2989033), (-0.9668304, 0.2550192, 0.014294114), (-0.9999067, 0.0017597626, 0.013549382), (-0.9199709, -0.0009801318, 0.3919854), (-0.96358794, -0.003038463, 0.26737452), (-0.7549838, -0.005150588, 0.6557233), (-0.96358794, -0.003038463, 0.26737452), (-0.9199709, -0.0009801318, 0.3919854), (-0.9999067, 0.0017597626, 0.013549382), (-0.67915446, -0.23752648, 0.6945001), (-0.7549838, -0.005150588, 0.6557233), (-0.96358794, -0.003038463, 0.26737452), (-0.9999253, 0.0017731363, 0.012100438), (-0.9999067, 0.0017597626, 0.013549382), (-0.9668304, 0.2550192, 0.014294114), (-0.9999067, 0.0017597626, 0.013549382), (-0.99991894, -0.0013855972, 0.012665739), (-0.96358794, -0.003038463, 0.26737452), (-0.96358794, -0.003038463, 0.26737452), (-0.9112864, -0.2874179, 0.29486954), (-0.67915446, -0.23752648, 0.6945001), (-0.9112864, -0.2874179, 0.29486954), (-0.96358794, -0.003038463, 0.26737452), (-0.99991894, -0.0013855972, 0.012665739), (-0.57030547, -0.5813019, 0.5803791), (-0.67915446, -0.23752648, 0.6945001), (-0.9112864, -0.2874179, 0.29486954), (-0.9112864, -0.2874179, 0.29486954), (-0.6849228, -0.68918097, 0.23645389), (-0.57030547, -0.5813019, 0.5803791), (-0.6849228, -0.68918097, 0.23645389), (-0.9112864, -0.2874179, 0.29486954), (-0.924728, -0.3805146, 0.009329323), (-0.99991894, -0.0013855972, 0.012665739), (-0.924728, -0.3805146, 0.009329323), (-0.9112864, -0.2874179, 0.29486954), (-0.924728, -0.3805146, 0.009329323), (-0.64621574, -0.7631494, 0.0028963992), (-0.6849228, -0.68918097, 0.23645389), (-0.76337683, -0.64593697, 0.0046270355), (-0.64621574, -0.7631494, 0.0028963992), (-0.924728, -0.3805146, 0.009329323), (-0.9669866, -0.25464445, 0.009654504), (-0.924728, -0.3805146, 0.009329323), (-0.99991894, -0.0013855972, 0.012665739), (-0.924728, -0.3805146, 0.009329323), (-0.9669866, -0.25464445, 0.009654504), (-0.76337683, -0.64593697, 0.0046270355), (-0.6906872, -0.6859018, -0.22910707), (-0.76337683, -0.64593697, 0.0046270355), (-0.9669866, -0.25464445, 0.009654504), (-0.99991894, -0.0013855972, 0.012665739), (-0.9999362, -0.0013722237, 0.011216778), (-0.9669866, -0.25464445, 0.009654504), (-0.9669866, -0.25464445, 0.009654504), (-0.9183599, -0.2833903, -0.27623376), (-0.6906872, -0.6859018, -0.22910707), (-0.9183599, -0.2833903, -0.27623376), (-0.9669866, -0.25464445, 0.009654504), (-0.9999362, -0.0013722237, 0.011216778), (-0.584602, -0.5731659, -0.57421386), (-0.6906872, -0.6859018, -0.22910707), (-0.9183599, -0.2833903, -0.27623376), (-0.9183599, -0.2833903, -0.27623376), (-0.6961804, -0.22781871, -0.6807581), (-0.584602, -0.5731659, -0.57421386), (-0.6961804, -0.22781871, -0.6807581), (-0.9183599, -0.2833903, -0.27623376), (-0.9293953, 0.0013387137, -0.36908343), (-0.9999362, -0.0013722237, 0.011216778), (-0.9293953, 0.0013387137, -0.36908343), (-0.9183599, -0.2833903, -0.27623376), (-0.9293953, 0.0013387137, -0.36908343), (-0.6556869, 0.0047595142, -0.75501794), (-0.6961804, -0.22781871, -0.6807581), (-0.77098924, 0.0054461565, -0.63682497), (-0.6556869, 0.0047595142, -0.75501794), (-0.9293953, 0.0013387137, -0.36908343), (-0.9699123, 0.0034132397, -0.24343073), (-0.9293953, 0.0013387137, -0.36908343), (-0.9999362, -0.0013722237, 0.011216778), (-0.9293953, 0.0013387137, -0.36908343), (-0.9699123, 0.0034132397, -0.24343073), (-0.77098924, 0.0054461565, -0.63682497), (-0.9999362, -0.0013722237, 0.011216778), (-0.9999253, 0.0017731363, 0.012100438), (-0.9699123, 0.0034132397, -0.24343073), (-0.6960615, 0.23780075, -0.6774579), (-0.77098924, 0.0054461565, -0.63682497), (-0.9699123, 0.0034132397, -0.24343073), (-0.9699123, 0.0034132397, -0.24343073), (-0.9181946, 0.2877751, -0.27222088), (-0.6960615, 0.23780075, -0.6774579), (-0.9181946, 0.2877751, -0.27222088), (-0.9699123, 0.0034132397, -0.24343073), (-0.9999253, 0.0017731363, 0.012100438), (-0.58430856, 0.5814992, -0.5660763), (-0.6960615, 0.23780075, -0.6774579), (-0.9181946, 0.2877751, -0.27222088), (-0.9181946, 0.2877751, -0.27222088), (-0.69030625, 0.6894341, -0.21944919), (-0.58430856, 0.5814992, -0.5660763), (-0.9999253, 0.0017731363, 0.012100438), (-0.9245279, 0.38087288, 0.013571891), (-0.9181946, 0.2877751, -0.27222088), (-0.69030625, 0.6894341, -0.21944919), (-0.9181946, 0.2877751, -0.27222088), (-0.9245279, 0.38087288, 0.013571891), (-0.9668304, 0.2550192, 0.014294114), (-0.9245279, 0.38087288, 0.013571891), (-0.9999253, 0.0017731363, 0.012100438), (-0.9245279, 0.38087288, 0.013571891), (-0.6457916, 0.7634012, 0.013103904), (-0.69030625, 0.6894341, -0.21944919), (-0.9245279, 0.38087288, 0.013571891), (-0.9668304, 0.2550192, 0.014294114), (-0.7630013, 0.64623934, 0.014275765), (-0.7630013, 0.64623934, 0.014275765), (-0.6457916, 0.7634012, 0.013103904), (-0.9245279, 0.38087288, 0.013571891), (-0.37443808, 0.79470843, 0.4777391), (-0.75845325, 0.5560658, 0.33991116), (-0.74392754, 0.43235728, 0.5095478), (-0.74392754, 0.43235728, 0.5095478), (-0.32753316, 0.6259675, 0.7077336), (-0.37443808, 0.79470843, 0.4777391), (-0.34907457, -0.2785976, -0.8947236), (-0.3335321, -0.8159055, -0.47228658), (-0.715433, -0.6071772, -0.34567547), (-0.715433, -0.6071772, -0.34567547), (-0.7595144, -0.20364049, -0.6177931), (-0.34907457, -0.2785976, -0.8947236), (-0.34891808, 0.2913752, -0.8907057), (-0.7594041, 0.21274868, -0.6148524), (-0.7150633, 0.612394, -0.3371324), (-0.7150633, 0.612394, -0.3371324), (-0.33310762, 0.8226387, -0.4607657), (-0.34891808, 0.2913752, -0.8907057), (-0.2501519, -0.837571, 0.48569438), (-0.32787398, -0.63571477, 0.69883156), (-0.74417114, -0.4390958, 0.5033926), (-0.74417114, -0.4390958, 0.5033926), (-0.64172226, -0.6612733, 0.38847166), (-0.2501519, -0.837571, 0.48569438), (-0.2617139, 0.8397768, -0.47568998), (-0.346316, 0.63927, -0.6865852), (-0.7576909, 0.44138274, -0.48071387), (-0.7576909, 0.44138274, -0.48071387), (-0.6508745, 0.6631633, -0.3695631), (-0.2617139, 0.8397768, -0.47568998), (-0.5365495, -0.6545563, -0.53260744), (-0.766789, -0.5586319, -0.3161727), (-0.75791377, -0.43631545, -0.48496968), (-0.75791377, -0.43631545, -0.48496968), (-0.3466365, -0.6324127, -0.6927463), (-0.5365495, -0.6545563, -0.53260744), (-0.32668447, 0.2748139, 0.9042978), (-0.32139587, 0.81390035, 0.4840155), (-0.706351, 0.60588217, 0.3660263), (-0.706351, 0.60588217, 0.3660263), (-0.74390084, 0.20119792, 0.6372842), (-0.32668447, 0.2748139, 0.9042978), (-0.32533348, -0.2963264, 0.89796925), (-0.7425079, -0.21700944, 0.6337106), (-0.7025967, -0.6149286, 0.3580793), (-0.7025967, -0.6149286, 0.3580793), (-0.3184156, -0.82253426, 0.47122073), (-0.32533348, -0.2963264, 0.89796925), (-0.012277815, 0.6918847, 0.7219036), (0.010239552, 0.5755842, 0.81767845), (0.0065182936, 0.85841715, 0.512911), (0.0065182936, 0.85841715, 0.512911), (-0.013247553, 0.8595693, 0.5108476), (-0.012277815, 0.6918847, 0.7219036), (-0.32753316, 0.6259675, 0.7077336), (-0.012277815, 0.6918847, 0.7219036), (-0.013247553, 0.8595693, 0.5108476), (-0.013247553, 0.8595693, 0.5108476), (0.0065182936, 0.85841715, 0.512911), (0.0064703473, 0.8607391, 0.50900537), (-0.013247553, 0.8595693, 0.5108476), (-0.37443808, 0.79470843, 0.4777391), (-0.32753316, 0.6259675, 0.7077336), (0.0064703473, 0.8607391, 0.50900537), (-0.013236077, 0.861941, 0.506836), (-0.013247553, 0.8595693, 0.5108476), (-0.013236077, 0.861941, 0.506836), (0.0064703473, 0.8607391, 0.50900537), (0.0035991115, 0.961424, 0.2750474), (-0.24972247, 0.83252066, 0.49451804), (-0.37443808, 0.79470843, 0.4777391), (-0.013247553, 0.8595693, 0.5108476), (-0.013247553, 0.8595693, 0.5108476), (-0.013236077, 0.861941, 0.506836), (-0.24972247, 0.83252066, 0.49451804), (-0.64139766, 0.6569683, 0.39623445), (-0.75845325, 0.5560658, 0.33991116), (-0.37443808, 0.79470843, 0.4777391), (-0.37443808, 0.79470843, 0.4777391), (-0.24972247, 0.83252066, 0.49451804), (-0.64139766, 0.6569683, 0.39623445), (-0.7498598, 0.64456093, 0.14917025), (-0.64139766, 0.6569683, 0.39623445), (-0.24972247, 0.83252066, 0.49451804), (-0.24972247, 0.83252066, 0.49451804), (-0.3351051, 0.91701585, 0.21630189), (-0.7498598, 0.64456093, 0.14917025), (-0.3351051, 0.91701585, 0.21630189), (-0.24972247, 0.83252066, 0.49451804), (-0.013236077, 0.861941, 0.506836), (-0.7150633, 0.612394, -0.3371324), (-0.7498598, 0.64456093, 0.14917025), (-0.3351051, 0.91701585, 0.21630189), (-0.3351051, 0.91701585, 0.21630189), (-0.33310762, 0.8226387, -0.4607657), (-0.7150633, 0.612394, -0.3371324), (-0.013236077, 0.861941, 0.506836), (-0.022663293, 0.9928186, 0.11746332), (-0.3351051, 0.91701585, 0.21630189), (-0.33310762, 0.8226387, -0.4607657), (-0.3351051, 0.91701585, 0.21630189), (-0.022663293, 0.9928186, 0.11746332), (0.0035991115, 0.961424, 0.2750474), (-0.022663293, 0.9928186, 0.11746332), (-0.013236077, 0.861941, 0.506836), (-0.022663293, 0.9928186, 0.11746332), (-0.021666285, 0.7975248, -0.60289705), (-0.33310762, 0.8226387, -0.4607657), (-0.022663293, 0.9928186, 0.11746332), (0.0035991115, 0.961424, 0.2750474), (-0.00429716, 0.93221027, -0.36189178), (-0.00429716, 0.93221027, -0.36189178), (-0.021666285, 0.7975248, -0.60289705), (-0.022663293, 0.9928186, 0.11746332), (-0.021666285, 0.7975248, -0.60289705), (-0.00429716, 0.93221027, -0.36189178), (-0.011180833, 0.41588417, -0.9093489), (-0.011180833, 0.41588417, -0.9093489), (-0.03329707, 0.27390158, -0.96118116), (-0.021666285, 0.7975248, -0.60289705), (-0.33310762, 0.8226387, -0.4607657), (-0.021666285, 0.7975248, -0.60289705), (-0.03329707, 0.27390158, -0.96118116), (-0.03329707, 0.27390158, -0.96118116), (-0.011180833, 0.41588417, -0.9093489), (-0.0123803485, 0.010616993, -0.99986696), (-0.03329707, 0.27390158, -0.96118116), (-0.34891808, 0.2913752, -0.8907057), (-0.33310762, 0.8226387, -0.4607657), (-0.0123803485, 0.010616993, -0.99986696), (-0.03211787, 0.008087933, -0.99945146), (-0.03329707, 0.27390158, -0.96118116), (-0.34891808, 0.2913752, -0.8907057), (-0.03329707, 0.27390158, -0.96118116), (-0.03211787, 0.008087933, -0.99945146), (-0.03211787, 0.008087933, -0.99945146), (-0.0123803485, 0.010616993, -0.99986696), (-0.012381681, 0.006136211, -0.9999045), (-0.03211787, 0.008087933, -0.99945146), (-0.3919118, 0.008395758, -0.91996455), (-0.34891808, 0.2913752, -0.8907057), (-0.7594041, 0.21274868, -0.6148524), (-0.34891808, 0.2913752, -0.8907057), (-0.3919118, 0.008395758, -0.91996455), (-0.3919118, 0.008395758, -0.91996455), (-0.77065104, 0.005578136, -0.637233), (-0.7594041, 0.21274868, -0.6148524), (-0.6557698, 0.004637218, -0.7549466), (-0.77065104, 0.005578136, -0.637233), (-0.3919118, 0.008395758, -0.91996455), (-0.3919118, 0.008395758, -0.91996455), (-0.26792905, 0.0051780096, -0.9634247), (-0.6557698, 0.004637218, -0.7549466), (-0.26792905, 0.0051780096, -0.9634247), (-0.3919118, 0.008395758, -0.91996455), (-0.03211787, 0.008087933, -0.99945146), (-0.7595144, -0.20364049, -0.6177931), (-0.6557698, 0.004637218, -0.7549466), (-0.26792905, 0.0051780096, -0.9634247), (-0.26792905, 0.0051780096, -0.9634247), (-0.34907457, -0.2785976, -0.8947236), (-0.7595144, -0.20364049, -0.6177931), (-0.03211787, 0.008087933, -0.99945146), (-0.032058246, 0.0034728828, -0.99948), (-0.26792905, 0.0051780096, -0.9634247), (-0.34907457, -0.2785976, -0.8947236), (-0.26792905, 0.0051780096, -0.9634247), (-0.032058246, 0.0034728828, -0.99948), (-0.012381681, 0.006136211, -0.9999045), (-0.032058246, 0.0034728828, -0.99948), (-0.03211787, 0.008087933, -0.99945146), (-0.032058246, 0.0034728828, -0.99948), (-0.012381681, 0.006136211, -0.9999045), (-0.012045798, -0.2466942, -0.9690185), (-0.032058246, 0.0034728828, -0.99948), (-0.035736363, -0.39888725, -0.9163034), (-0.34907457, -0.2785976, -0.8947236), (-0.012045798, -0.2466942, -0.9690185), (-0.035736363, -0.39888725, -0.9163034), (-0.032058246, 0.0034728828, -0.99948), (-0.3335321, -0.8159055, -0.47228658), (-0.34907457, -0.2785976, -0.8947236), (-0.035736363, -0.39888725, -0.9163034), (-0.035736363, -0.39888725, -0.9163034), (-0.012045798, -0.2466942, -0.9690185), (-0.007863394, -0.7822432, -0.6229237), (-0.035736363, -0.39888725, -0.9163034), (-0.019303674, -0.92277986, -0.38484377), (-0.3335321, -0.8159055, -0.47228658), (-0.007863394, -0.7822432, -0.6229237), (-0.019303674, -0.92277986, -0.38484377), (-0.035736363, -0.39888725, -0.9163034), (-0.019303674, -0.92277986, -0.38484377), (-0.007863394, -0.7822432, -0.6229237), (0.0010319769, -0.9950947, 0.09892191), (0.0010319769, -0.9950947, 0.09892191), (-0.018555798, -0.96858114, 0.24800453), (-0.019303674, -0.92277986, -0.38484377), (-0.018555798, -0.96858114, 0.24800453), (0.0010319769, -0.9950947, 0.09892191), (0.00595548, -0.8691567, 0.4945008), (-0.3335321, -0.8159055, -0.47228658), (-0.019303674, -0.92277986, -0.38484377), (-0.018555798, -0.96858114, 0.24800453), (0.00595548, -0.8691567, 0.4945008), (-0.013759983, -0.86771864, 0.4968652), (-0.018555798, -0.96858114, 0.24800453), (-0.013759983, -0.86771864, 0.4968652), (0.00595548, -0.8691567, 0.4945008), (0.0060045654, -0.8669104, 0.49842808), (-0.018555798, -0.96858114, 0.24800453), (-0.33560172, -0.91978246, 0.20340066), (-0.3335321, -0.8159055, -0.47228658), (-0.33560172, -0.91978246, 0.20340066), (-0.018555798, -0.96858114, 0.24800453), (-0.013759983, -0.86771864, 0.4968652), (-0.715433, -0.6071772, -0.34567547), (-0.3335321, -0.8159055, -0.47228658), (-0.33560172, -0.91978246, 0.20340066), (-0.33560172, -0.91978246, 0.20340066), (-0.7502393, -0.64615095, 0.14010774), (-0.715433, -0.6071772, -0.34567547), (-0.7502393, -0.64615095, 0.14010774), (-0.33560172, -0.91978246, 0.20340066), (-0.37494272, -0.8029599, 0.46332854), (-0.013759983, -0.86771864, 0.4968652), (-0.37494272, -0.8029599, 0.46332854), (-0.33560172, -0.91978246, 0.20340066), (-0.37494272, -0.8029599, 0.46332854), (-0.75877947, -0.56125885, 0.3305181), (-0.7502393, -0.64615095, 0.14010774), (-0.64172226, -0.6612733, 0.38847166), (-0.75877947, -0.56125885, 0.3305181), (-0.37494272, -0.8029599, 0.46332854), (-0.37494272, -0.8029599, 0.46332854), (-0.2501519, -0.837571, 0.48569438), (-0.64172226, -0.6612733, 0.38847166), (-0.2501519, -0.837571, 0.48569438), (-0.37494272, -0.8029599, 0.46332854), (-0.013759983, -0.86771864, 0.4968652), (-0.013759983, -0.86771864, 0.4968652), (-0.013641173, -0.86538696, 0.5009185), (-0.2501519, -0.837571, 0.48569438), (0.0060045654, -0.8669104, 0.49842808), (-0.013641173, -0.86538696, 0.5009185), (-0.013759983, -0.86771864, 0.4968652), (-0.32787398, -0.63571477, 0.69883156), (-0.2501519, -0.837571, 0.48569438), (-0.013641173, -0.86538696, 0.5009185), (-0.013641173, -0.86538696, 0.5009185), (0.0060045654, -0.8669104, 0.49842808), (0.008556371, -0.71219087, 0.70193374), (-0.013641173, -0.86538696, 0.5009185), (-0.014271521, -0.59038585, 0.8069951), (-0.32787398, -0.63571477, 0.69883156), (0.008556371, -0.71219087, 0.70193374), (-0.014271521, -0.59038585, 0.8069951), (-0.013641173, -0.86538696, 0.5009185), (-0.009357478, 0.9210671, 0.38929155), (0.007907613, 0.77951473, 0.6263342), (-0.0009777044, 0.99552196, -0.094526514), (-0.0009777044, 0.99552196, -0.094526514), (-0.024267405, 0.9696544, -0.24327251), (-0.009357478, 0.9210671, 0.38929155), (-0.024267405, 0.9696544, -0.24327251), (-0.0009777044, 0.99552196, -0.094526514), (-0.005908531, 0.871285, -0.49074185), (-0.32139587, 0.81390035, 0.4840155), (-0.009357478, 0.9210671, 0.38929155), (-0.024267405, 0.9696544, -0.24327251), (-0.005908531, 0.871285, -0.49074185), (-0.02567123, 0.86987424, -0.49260524), (-0.024267405, 0.9696544, -0.24327251), (-0.02567123, 0.86987424, -0.49260524), (-0.005908531, 0.871285, -0.49074185), (-0.0059572435, 0.8690772, -0.49464074), (-0.024267405, 0.9696544, -0.24327251), (-0.34012914, 0.9207778, -0.19099846), (-0.32139587, 0.81390035, 0.4840155), (-0.34012914, 0.9207778, -0.19099846), (-0.024267405, 0.9696544, -0.24327251), (-0.02567123, 0.86987424, -0.49260524), (-0.706351, 0.60588217, 0.3660263), (-0.32139587, 0.81390035, 0.4840155), (-0.34012914, 0.9207778, -0.19099846), (-0.34012914, 0.9207778, -0.19099846), (-0.7531741, 0.64702415, -0.11869523), (-0.706351, 0.60588217, 0.3660263), (-0.7531741, 0.64702415, -0.11869523), (-0.34012914, 0.9207778, -0.19099846), (-0.38594654, 0.80508757, -0.45042115), (-0.02567123, 0.86987424, -0.49260524), (-0.38594654, 0.80508757, -0.45042115), (-0.34012914, 0.9207778, -0.19099846), (-0.38594654, 0.80508757, -0.45042115), (-0.7664858, 0.56293994, -0.30918977), (-0.7531741, 0.64702415, -0.11869523), (-0.6508745, 0.6631633, -0.3695631), (-0.7664858, 0.56293994, -0.30918977), (-0.38594654, 0.80508757, -0.45042115), (-0.38594654, 0.80508757, -0.45042115), (-0.2617139, 0.8397768, -0.47568998), (-0.6508745, 0.6631633, -0.3695631), (-0.2617139, 0.8397768, -0.47568998), (-0.38594654, 0.80508757, -0.45042115), (-0.02567123, 0.86987424, -0.49260524), (-0.02567123, 0.86987424, -0.49260524), (-0.025658997, 0.8675911, -0.4966159), (-0.2617139, 0.8397768, -0.47568998), (-0.0059572435, 0.8690772, -0.49464074), (-0.025658997, 0.8675911, -0.4966159), (-0.02567123, 0.86987424, -0.49260524), (-0.346316, 0.63927, -0.6865852), (-0.2617139, 0.8397768, -0.47568998), (-0.025658997, 0.8675911, -0.4966159), (-0.025658997, 0.8675911, -0.4966159), (-0.0059572435, 0.8690772, -0.49464074), (-0.008501308, 0.7159174, -0.69813323), (-0.025658997, 0.8675911, -0.4966159), (-0.034143586, 0.5944287, -0.80342317), (-0.346316, 0.63927, -0.6865852), (-0.008501308, 0.7159174, -0.69813323), (-0.034143586, 0.5944287, -0.80342317), (-0.025658997, 0.8675911, -0.4966159), (-0.030430885, -0.6988739, -0.7145973), (-0.010170479, -0.58320284, -0.8122629), (-0.0064261225, -0.86285955, -0.50540286), (-0.0064261225, -0.86285955, -0.50540286), (-0.026140133, -0.863974, -0.50285757), (-0.030430885, -0.6988739, -0.7145973), (-0.3466365, -0.6324127, -0.6927463), (-0.030430885, -0.6988739, -0.7145973), (-0.026140133, -0.863974, -0.50285757), (-0.026140133, -0.863974, -0.50285757), (-0.0064261225, -0.86285955, -0.50540286), (-0.006378193, -0.8651369, -0.5014952), (-0.026140133, -0.863974, -0.50285757), (-0.38516787, -0.7996043, -0.4607373), (-0.3466365, -0.6324127, -0.6927463), (-0.006378193, -0.8651369, -0.5014952), (-0.026027843, -0.86631995, -0.4988109), (-0.026140133, -0.863974, -0.50285757), (-0.026027843, -0.86631995, -0.4988109), (-0.006378193, -0.8651369, -0.5014952), (-0.0034774132, -0.9640462, -0.26571235), (-0.26211476, -0.8366711, -0.48091313), (-0.38516787, -0.7996043, -0.4607373), (-0.026140133, -0.863974, -0.50285757), (-0.026140133, -0.863974, -0.50285757), (-0.026027843, -0.86631995, -0.4988109), (-0.26211476, -0.8366711, -0.48091313), (-0.65119255, -0.6600762, -0.37449664), (-0.766789, -0.5586319, -0.3161727), (-0.38516787, -0.7996043, -0.4607373), (-0.38516787, -0.7996043, -0.4607373), (-0.26211476, -0.8366711, -0.48091313), (-0.65119255, -0.6600762, -0.37449664), (-0.7519648, -0.6474343, -0.124006696), (-0.65119255, -0.6600762, -0.37449664), (-0.26211476, -0.8366711, -0.48091313), (-0.26211476, -0.8366711, -0.48091313), (-0.3390579, -0.91946715, -0.19904763), (-0.7519648, -0.6474343, -0.124006696), (-0.3390579, -0.91946715, -0.19904763), (-0.26211476, -0.8366711, -0.48091313), (-0.026027843, -0.86631995, -0.4988109), (-0.7025967, -0.6149286, 0.3580793), (-0.7519648, -0.6474343, -0.124006696), (-0.3390579, -0.91946715, -0.19904763), (-0.3390579, -0.91946715, -0.19904763), (-0.3184156, -0.82253426, 0.47122073), (-0.7025967, -0.6149286, 0.3580793), (-0.026027843, -0.86631995, -0.4988109), (-0.025682043, -0.99386364, -0.107589826), (-0.3390579, -0.91946715, -0.19904763), (-0.3184156, -0.82253426, 0.47122073), (-0.3390579, -0.91946715, -0.19904763), (-0.025682043, -0.99386364, -0.107589826), (-0.0034774132, -0.9640462, -0.26571235), (-0.025682043, -0.99386364, -0.107589826), (-0.026027843, -0.86631995, -0.4988109), (-0.025682043, -0.99386364, -0.107589826), (-0.0068669706, -0.7974015, 0.6034102), (-0.3184156, -0.82253426, 0.47122073), (-0.025682043, -0.99386364, -0.107589826), (-0.0034774132, -0.9640462, -0.26571235), (0.004350422, -0.9306617, 0.3658552), (0.004350422, -0.9306617, 0.3658552), (-0.0068669706, -0.7974015, 0.6034102), (-0.025682043, -0.99386364, -0.107589826), (-0.0068669706, -0.7974015, 0.6034102), (0.004350422, -0.9306617, 0.3658552), (0.011151852, -0.42036486, 0.90728664), (0.011151852, -0.42036486, 0.90728664), (-0.009518317, -0.27902898, 0.96023554), (-0.0068669706, -0.7974015, 0.6034102), (-0.3184156, -0.82253426, 0.47122073), (-0.0068669706, -0.7974015, 0.6034102), (-0.009518317, -0.27902898, 0.96023554), (-0.009518317, -0.27902898, 0.96023554), (0.011151852, -0.42036486, 0.90728664), (0.0123787755, -0.015022129, 0.9998106), (-0.009518317, -0.27902898, 0.96023554), (-0.32533348, -0.2963264, 0.89796925), (-0.3184156, -0.82253426, 0.47122073), (0.0123787755, -0.015022129, 0.9998106), (-0.00736174, -0.012445846, 0.99989545), (-0.009518317, -0.27902898, 0.96023554), (-0.32533348, -0.2963264, 0.89796925), (-0.009518317, -0.27902898, 0.96023554), (-0.00736174, -0.012445846, 0.99989545), (-0.00736174, -0.012445846, 0.99989545), (0.0123787755, -0.015022129, 0.9998106), (0.012380393, -0.01047949, 0.9998685), (-0.00736174, -0.012445846, 0.99989545), (-0.3690099, -0.012296796, 0.9293441), (-0.32533348, -0.2963264, 0.89796925), (-0.7425079, -0.21700944, 0.6337106), (-0.32533348, -0.2963264, 0.89796925), (-0.3690099, -0.012296796, 0.9293441), (-0.3690099, -0.012296796, 0.9293441), (-0.7546415, -0.008108903, 0.6560873), (-0.7425079, -0.21700944, 0.6337106), (-0.6368981, -0.0076990607, 0.7709097), (-0.7546415, -0.008108903, 0.6560873), (-0.3690099, -0.012296796, 0.9293441), (-0.3690099, -0.012296796, 0.9293441), (-0.24400744, -0.009270879, 0.96972907), (-0.6368981, -0.0076990607, 0.7709097), (-0.24400744, -0.009270879, 0.96972907), (-0.3690099, -0.012296796, 0.9293441), (-0.00736174, -0.012445846, 0.99989545), (-0.74390084, 0.20119792, 0.6372842), (-0.6368981, -0.0076990607, 0.7709097), (-0.24400744, -0.009270879, 0.96972907), (-0.24400744, -0.009270879, 0.96972907), (-0.32668447, 0.2748139, 0.9042978), (-0.74390084, 0.20119792, 0.6372842), (-0.00736174, -0.012445846, 0.99989545), (-0.0073000286, -0.007786808, 0.9999431), (-0.24400744, -0.009270879, 0.96972907), (-0.32668447, 0.2748139, 0.9042978), (-0.24400744, -0.009270879, 0.96972907), (-0.0073000286, -0.007786808, 0.9999431), (0.012380393, -0.01047949, 0.9998685), (-0.0073000286, -0.007786808, 0.9999431), (-0.00736174, -0.012445846, 0.99989545), (-0.0073000286, -0.007786808, 0.9999431), (0.012380393, -0.01047949, 0.9998685), (0.0120605435, 0.2424751, 0.9700827), (-0.0073000286, -0.007786808, 0.9999431), (-0.012864562, 0.39490613, 0.9186315), (-0.32668447, 0.2748139, 0.9042978), (0.0120605435, 0.2424751, 0.9700827), (-0.012864562, 0.39490613, 0.9186315), (-0.0073000286, -0.007786808, 0.9999431), (-0.32139587, 0.81390035, 0.4840155), (-0.32668447, 0.2748139, 0.9042978), (-0.012864562, 0.39490613, 0.9186315), (-0.012864562, 0.39490613, 0.9186315), (0.0120605435, 0.2424751, 0.9700827), (0.007907613, 0.77951473, 0.6263342), (-0.012864562, 0.39490613, 0.9186315), (-0.009357478, 0.9210671, 0.38929155), (-0.32139587, 0.81390035, 0.4840155), (0.007907613, 0.77951473, 0.6263342), (-0.009357478, 0.9210671, 0.38929155), (-0.012864562, 0.39490613, 0.9186315), (-0.32753316, 0.6259675, 0.7077336), (-0.74392754, 0.43235728, 0.5095478), (-0.69805336, -0.004847855, 0.71602935), (-0.69805336, -0.004847855, 0.71602935), (-0.74417114, -0.4390958, 0.5033926), (-0.32787398, -0.63571477, 0.69883156), (-0.69805336, -0.004847855, 0.71602935), (-0.31232524, -0.0066041164, 0.94995236), (-0.32753316, 0.6259675, 0.7077336), (-0.32787398, -0.63571477, 0.69883156), (-0.31232524, -0.0066041164, 0.94995236), (-0.69805336, -0.004847855, 0.71602935), (-0.012277815, 0.6918847, 0.7219036), (-0.32753316, 0.6259675, 0.7077336), (-0.31232524, -0.0066041164, 0.94995236), (-0.31232524, -0.0066041164, 0.94995236), (-0.32787398, -0.63571477, 0.69883156), (-0.014271521, -0.59038585, 0.8069951), (-0.31232524, -0.0066041164, 0.94995236), (-0.001870696, 0.123770244, 0.99230915), (-0.012277815, 0.6918847, 0.7219036), (-0.014271521, -0.59038585, 0.8069951), (-0.001870696, 0.123770244, 0.99230915), (-0.31232524, -0.0066041164, 0.94995236), (0.010239552, 0.5755842, 0.81767845), (-0.012277815, 0.6918847, 0.7219036), (-0.001870696, 0.123770244, 0.99230915), (-0.001870696, 0.123770244, 0.99230915), (0.012218308, -0.14842394, 0.98884845), (0.010239552, 0.5755842, 0.81767845), (0.012218308, -0.14842394, 0.98884845), (-0.001870696, 0.123770244, 0.99230915), (-0.014271521, -0.59038585, 0.8069951), (-0.014271521, -0.59038585, 0.8069951), (0.008556371, -0.71219087, 0.70193374), (0.012218308, -0.14842394, 0.98884845), (-0.7196118, 0.0035331994, -0.6943676), (-0.7576909, 0.44138274, -0.48071387), (-0.346316, 0.63927, -0.6865852), (-0.3466365, -0.6324127, -0.6927463), (-0.75791377, -0.43631545, -0.48496968), (-0.7196118, 0.0035331994, -0.6943676), (-0.346316, 0.63927, -0.6865852), (-0.33921003, 0.0046679885, -0.9406991), (-0.7196118, 0.0035331994, -0.6943676), (-0.7196118, 0.0035331994, -0.6943676), (-0.33921003, 0.0046679885, -0.9406991), (-0.3466365, -0.6324127, -0.6927463), (-0.33921003, 0.0046679885, -0.9406991), (-0.346316, 0.63927, -0.6865852), (-0.034143586, 0.5944287, -0.80342317), (-0.030430885, -0.6988739, -0.7145973), (-0.3466365, -0.6324127, -0.6927463), (-0.33921003, 0.0046679885, -0.9406991), (-0.034143586, 0.5944287, -0.80342317), (-0.008501308, 0.7159174, -0.69813323), (-0.012211227, 0.1484011, -0.98885185), (-0.33921003, 0.0046679885, -0.9406991), (-0.026656048, -0.12786613, -0.99143326), (-0.030430885, -0.6988739, -0.7145973), (-0.034143586, 0.5944287, -0.80342317), (-0.026656048, -0.12786613, -0.99143326), (-0.33921003, 0.0046679885, -0.9406991), (-0.012211227, 0.1484011, -0.98885185), (-0.026656048, -0.12786613, -0.99143326), (-0.034143586, 0.5944287, -0.80342317), (-0.010170479, -0.58320284, -0.8122629), (-0.030430885, -0.6988739, -0.7145973), (-0.026656048, -0.12786613, -0.99143326), (-0.026656048, -0.12786613, -0.99143326), (-0.012211227, 0.1484011, -0.98885185), (-0.010170479, -0.58320284, -0.8122629), (-0.96093225, 0.24593905, -0.12697743), (-0.7498598, 0.64456093, 0.14917025), (-0.7150633, 0.612394, -0.3371324), (-0.7150633, 0.612394, -0.3371324), (-0.7594041, 0.21274868, -0.6148524), (-0.96093225, 0.24593905, -0.12697743), (-0.7498598, 0.64456093, 0.14917025), (-0.96093225, 0.24593905, -0.12697743), (-0.92243415, 0.32804385, 0.20372152), (-0.92243415, 0.32804385, 0.20372152), (-0.64139766, 0.6569683, 0.39623445), (-0.7498598, 0.64456093, 0.14917025), (-0.75845325, 0.5560658, 0.33991116), (-0.64139766, 0.6569683, 0.39623445), (-0.92243415, 0.32804385, 0.20372152), (-0.96983755, 0.0036294276, -0.24372518), (-0.96093225, 0.24593905, -0.12697743), (-0.7594041, 0.21274868, -0.6148524), (-0.7594041, 0.21274868, -0.6148524), (-0.77065104, 0.005578136, -0.637233), (-0.96983755, 0.0036294276, -0.24372518), (-0.99991274, 0.0045470777, 0.012403977), (-0.92243415, 0.32804385, 0.20372152), (-0.96093225, 0.24593905, -0.12697743), (-0.96093225, 0.24593905, -0.12697743), (-0.96983755, 0.0036294276, -0.24372518), (-0.99991274, 0.0045470777, 0.012403977), (-0.92243415, 0.32804385, 0.20372152), (-0.96499413, 0.2193464, 0.14378352), (-0.75845325, 0.5560658, 0.33991116), (-0.96499413, 0.2193464, 0.14378352), (-0.92243415, 0.32804385, 0.20372152), (-0.99991274, 0.0045470777, 0.012403977), (-0.74392754, 0.43235728, 0.5095478), (-0.75845325, 0.5560658, 0.33991116), (-0.96499413, 0.2193464, 0.14378352), (-0.92957354, 0.0011296256, -0.36863533), (-0.96983755, 0.0036294276, -0.24372518), (-0.77065104, 0.005578136, -0.637233), (-0.77065104, 0.005578136, -0.637233), (-0.6557698, 0.004637218, -0.7549466), (-0.92957354, 0.0011296256, -0.36863533), (-0.92957354, 0.0011296256, -0.36863533), (-0.6557698, 0.004637218, -0.7549466), (-0.7595144, -0.20364049, -0.6177931), (-0.96499413, 0.2193464, 0.14378352), (-0.95462716, -0.001829548, 0.29779822), (-0.74392754, 0.43235728, 0.5095478), (-0.69805336, -0.004847855, 0.71602935), (-0.74392754, 0.43235728, 0.5095478), (-0.95462716, -0.001829548, 0.29779822), (-0.95462716, -0.001829548, 0.29779822), (-0.74417114, -0.4390958, 0.5033926), (-0.69805336, -0.004847855, 0.71602935), (-0.7595144, -0.20364049, -0.6177931), (-0.9610683, -0.24361055, -0.13039063), (-0.92957354, 0.0011296256, -0.36863533), (-0.9610683, -0.24361055, -0.13039063), (-0.7595144, -0.20364049, -0.6177931), (-0.715433, -0.6071772, -0.34567547), (-0.715433, -0.6071772, -0.34567547), (-0.7502393, -0.64615095, 0.14010774), (-0.9610683, -0.24361055, -0.13039063), (-0.96983755, 0.0036294276, -0.24372518), (-0.92957354, 0.0011296256, -0.36863533), (-0.99996144, -0.0019645516, 0.008565545), (-0.99996144, -0.0019645516, 0.008565545), (-0.92957354, 0.0011296256, -0.36863533), (-0.9610683, -0.24361055, -0.13039063), (-0.99996144, -0.0019645516, 0.008565545), (-0.99991274, 0.0045470777, 0.012403977), (-0.96983755, 0.0036294276, -0.24372518), (-0.96515876, -0.22244452, 0.13779333), (-0.9610683, -0.24361055, -0.13039063), (-0.7502393, -0.64615095, 0.14010774), (-0.9610683, -0.24361055, -0.13039063), (-0.96515876, -0.22244452, 0.13779333), (-0.99996144, -0.0019645516, 0.008565545), (-0.7502393, -0.64615095, 0.14010774), (-0.75877947, -0.56125885, 0.3305181), (-0.96515876, -0.22244452, 0.13779333), (-0.99991274, 0.0045470777, 0.012403977), (-0.99996144, -0.0019645516, 0.008565545), (-0.999867, -0.0020012215, 0.016181048), (-0.999867, -0.0020012215, 0.016181048), (-0.99996144, -0.0019645516, 0.008565545), (-0.96515876, -0.22244452, 0.13779333), (-0.99991274, 0.0045470777, 0.012403977), (-0.999867, -0.0020012215, 0.016181048), (-0.96499413, 0.2193464, 0.14378352), (-0.95462716, -0.001829548, 0.29779822), (-0.96499413, 0.2193464, 0.14378352), (-0.999867, -0.0020012215, 0.016181048), (-0.9225678, -0.32864916, 0.20213449), (-0.96515876, -0.22244452, 0.13779333), (-0.75877947, -0.56125885, 0.3305181), (-0.96515876, -0.22244452, 0.13779333), (-0.9225678, -0.32864916, 0.20213449), (-0.999867, -0.0020012215, 0.016181048), (-0.999867, -0.0020012215, 0.016181048), (-0.9225678, -0.32864916, 0.20213449), (-0.95462716, -0.001829548, 0.29779822), (-0.74417114, -0.4390958, 0.5033926), (-0.95462716, -0.001829548, 0.29779822), (-0.9225678, -0.32864916, 0.20213449), (-0.75877947, -0.56125885, 0.3305181), (-0.64172226, -0.6612733, 0.38847166), (-0.9225678, -0.32864916, 0.20213449), (-0.9225678, -0.32864916, 0.20213449), (-0.64172226, -0.6612733, 0.38847166), (-0.74417114, -0.4390958, 0.5033926), (-0.9574372, 0.24333487, 0.15524852), (-0.74390084, 0.20119792, 0.6372842), (-0.706351, 0.60588217, 0.3660263), (-0.706351, 0.60588217, 0.3660263), (-0.7531741, 0.64702415, -0.11869523), (-0.9574372, 0.24333487, 0.15524852), (-0.74390084, 0.20119792, 0.6372842), (-0.9574372, 0.24333487, 0.15524852), (-0.9201673, -0.0024111914, 0.3915179), (-0.9201673, -0.0024111914, 0.3915179), (-0.6368981, -0.0076990607, 0.7709097), (-0.74390084, 0.20119792, 0.6372842), (-0.7546415, -0.008108903, 0.6560873), (-0.6368981, -0.0076990607, 0.7709097), (-0.9201673, -0.0024111914, 0.3915179), (-0.9681745, 0.22336589, -0.11289758), (-0.9574372, 0.24333487, 0.15524852), (-0.7531741, 0.64702415, -0.11869523), (-0.7531741, 0.64702415, -0.11869523), (-0.7664858, 0.56293994, -0.30918977), (-0.9681745, 0.22336589, -0.11289758), (-0.99986666, 0.0023522319, 0.016163269), (-0.9201673, -0.0024111914, 0.3915179), (-0.9574372, 0.24333487, 0.15524852), (-0.9574372, 0.24333487, 0.15524852), (-0.9681745, 0.22336589, -0.11289758), (-0.99986666, 0.0023522319, 0.016163269), (-0.9201673, -0.0024111914, 0.3915179), (-0.9635002, -0.0043951985, 0.26767156), (-0.7546415, -0.008108903, 0.6560873), (-0.9635002, -0.0043951985, 0.26767156), (-0.9201673, -0.0024111914, 0.3915179), (-0.99986666, 0.0023522319, 0.016163269), (-0.7425079, -0.21700944, 0.6337106), (-0.7546415, -0.008108903, 0.6560873), (-0.9635002, -0.0043951985, 0.26767156), (-0.9271485, 0.32984114, -0.17776528), (-0.9681745, 0.22336589, -0.11289758), (-0.7664858, 0.56293994, -0.30918977), (-0.7664858, 0.56293994, -0.30918977), (-0.6508745, 0.6631633, -0.3695631), (-0.9271485, 0.32984114, -0.17776528), (-0.9271485, 0.32984114, -0.17776528), (-0.6508745, 0.6631633, -0.3695631), (-0.7576909, 0.44138274, -0.48071387), (-0.9635002, -0.0043951985, 0.26767156), (-0.95646745, -0.2484616, 0.15309146), (-0.7425079, -0.21700944, 0.6337106), (-0.7025967, -0.6149286, 0.3580793), (-0.7425079, -0.21700944, 0.6337106), (-0.95646745, -0.2484616, 0.15309146), (-0.95646745, -0.2484616, 0.15309146), (-0.7519648, -0.6474343, -0.124006696), (-0.7025967, -0.6149286, 0.3580793), (-0.7576909, 0.44138274, -0.48071387), (-0.9627539, 0.0015297392, -0.27037522), (-0.9271485, 0.32984114, -0.17776528), (-0.9627539, 0.0015297392, -0.27037522), (-0.7576909, 0.44138274, -0.48071387), (-0.7196118, 0.0035331994, -0.6943676), (-0.7196118, 0.0035331994, -0.6943676), (-0.75791377, -0.43631545, -0.48496968), (-0.9627539, 0.0015297392, -0.27037522), (-0.9681745, 0.22336589, -0.11289758), (-0.9271485, 0.32984114, -0.17776528), (-0.99996006, 0.0024208724, 0.00860524), (-0.99996006, 0.0024208724, 0.00860524), (-0.9271485, 0.32984114, -0.17776528), (-0.9627539, 0.0015297392, -0.27037522), (-0.99996006, 0.0024208724, 0.00860524), (-0.99986666, 0.0023522319, 0.016163269), (-0.9681745, 0.22336589, -0.11289758), (-0.9683227, -0.2201094, -0.11791181), (-0.9627539, 0.0015297392, -0.27037522), (-0.75791377, -0.43631545, -0.48496968), (-0.9627539, 0.0015297392, -0.27037522), (-0.9683227, -0.2201094, -0.11791181), (-0.99996006, 0.0024208724, 0.00860524), (-0.75791377, -0.43631545, -0.48496968), (-0.766789, -0.5586319, -0.3161727), (-0.9683227, -0.2201094, -0.11791181), (-0.99986666, 0.0023522319, 0.016163269), (-0.99996006, 0.0024208724, 0.00860524), (-0.99991465, -0.004193192, 0.0123812575), (-0.99991465, -0.004193192, 0.0123812575), (-0.99996006, 0.0024208724, 0.00860524), (-0.9683227, -0.2201094, -0.11791181), (-0.99986666, 0.0023522319, 0.016163269), (-0.99991465, -0.004193192, 0.0123812575), (-0.9635002, -0.0043951985, 0.26767156), (-0.95646745, -0.2484616, 0.15309146), (-0.9635002, -0.0043951985, 0.26767156), (-0.99991465, -0.004193192, 0.0123812575), (-0.9272721, -0.32938772, -0.17796156), (-0.9683227, -0.2201094, -0.11791181), (-0.766789, -0.5586319, -0.3161727), (-0.9683227, -0.2201094, -0.11791181), (-0.9272721, -0.32938772, -0.17796156), (-0.99991465, -0.004193192, 0.0123812575), (-0.99991465, -0.004193192, 0.0123812575), (-0.9272721, -0.32938772, -0.17796156), (-0.95646745, -0.2484616, 0.15309146), (-0.7519648, -0.6474343, -0.124006696), (-0.95646745, -0.2484616, 0.15309146), (-0.9272721, -0.32938772, -0.17796156), (-0.766789, -0.5586319, -0.3161727), (-0.65119255, -0.6600762, -0.37449664), (-0.9272721, -0.32938772, -0.17796156), (-0.9272721, -0.32938772, -0.17796156), (-0.65119255, -0.6600762, -0.37449664), (-0.7519648, -0.6474343, -0.124006696)] (
        interpolation = "faceVarying"
    )
    point3f[] points = [(-0.050331328, -1.0104967, -1.5309944), (-0.017277759, -1.0163324, 1.1381155), (-0.072619654, -1.0163217, 1.1388009), (-0.10567295, -1.010486, -1.530309), (-0.10509845, 1.0338424, -1.5159079), (-0.07205244, 1.002056, 1.1530192), (-0.016710546, 1.0020453, 1.1523339), (-0.049756825, 1.0338317, -1.5165932), (-0.07617783, 0.7311313, 1.1471602), (-0.07955732, 0.7409405, 0.87411636), (-0.07997667, -0.75129884, 0.86360437), (-0.07659275, -0.74533916, 1.1367593), (-0.07207406, -0.7432442, 0.85556245), (0.09023878, -0.74327564, 0.85355234), (0.06071944, -0.7264739, -1.5303677), (-0.10159343, -0.7264425, -1.5283576), (-0.10117857, 0.7497972, -1.5179583), (0.061134297, 0.74976575, -1.5199684), (0.090653636, 0.7329641, 0.8639516), (-0.0716592, 0.7329955, 0.86596173), (-0.109099254, 1.0298432, -1.5158865), (-0.076105155, 0.99810886, 1.148851), (-0.075681366, 1.0004563, 1.1513542), (-0.10865422, 1.0320653, -1.5158764), (-0.109175704, 0.75779855, -1.517803), (-0.016710695, 1.0020453, 1.1523339), (-0.072128616, 0.73098695, 1.1511097), (-0.016786871, 0.7309762, 1.1504242), (-0.07254348, -0.7452527, 1.1407104), (-0.01720173, -0.74526346, 1.140025), (-0.017277908, -1.0163324, 1.1381155), (-0.10959506, -0.73444074, -1.528315), (-0.07978258, -0.74884886, 0.861186), (-0.10937217, -0.7319963, -1.5283004), (-0.07913633, -0.74683887, 0.8591958), (-0.108704984, -0.72999656, -1.5282946), (-0.07803765, -0.74526876, 0.85763377), (-0.10759352, -0.7284413, -1.5282974), (-0.07939025, 0.73831934, 0.8714558), (-0.0788148, 0.73626876, 0.8693689), (-0.077831164, 0.73478866, 0.86785567), (-0.10895419, 0.75535405, -1.5178229), (-0.108288124, 0.753354, -1.5178453), (-0.10717754, 0.75179833, -1.51787), (-0.10403773, -0.7266642, -1.5283289), (-0.074504025, -0.74346876, 0.85581434), (-0.10603777, -0.7273305, -1.5283089), (-0.076491915, -0.74414366, 0.85650486), (-0.07429623, 0.733195, 0.86619633), (-0.076353505, 0.7337928, 0.8668276), (-0.10362275, 0.75001985, -1.5179265), (-0.10562241, 0.75068694, -1.517897), (-0.07500308, -1.015928, 1.1384221), (-0.10789485, -1.0100411, -1.5302783), (-0.07624768, -1.0146966, 1.1371585), (-0.10922773, -1.0087075, -1.5302525), (-0.1073206, 1.0333983, -1.5158834), (-0.07443608, 1.001669, 1.152635), (-0.07570596, 0.7310515, 1.1493763), (-0.074356176, 0.7310034, 1.1506928), (-0.07477104, -0.7452621, 1.1402934), (-0.076120846, -0.7452909, 1.1389762), (-0.07667013, -1.012314, 1.1346887), (-0.10967151, -1.0064852, -1.5302314), (0.0906027, 0.5517298, 0.86267495), (0.090289705, -0.56204134, 0.854829), (0.088233344, 0.5530785, 0.67133033), (0.087920345, -0.56069285, 0.6634844), (0.06077037, -0.54523975, -1.529091), (0.107431866, -0.5606966, 0.66324276), (0.08028189, -0.5452435, -1.5293326), (0.107744865, 0.55307466, 0.6710887), (0.06108337, 0.5685316, -1.5212451), (0.08059489, 0.56852776, -1.5214868), (0.108026475, 0.5529144, 0.69383115), (0.10771348, -0.56085694, 0.68598527), (0.08064582, 0.7497623, -1.52021), (0.1077958, 0.7343092, 0.67236537), (0.10807741, 0.73414886, 0.6951078), (0.107380934, -0.74193114, 0.6619661), (0.08023096, -0.72647804, -1.5306094), (0.10766255, -0.7420914, 0.68470854), (0.084681876, -0.03185906, 0.7887582), (0.08470861, 0.06324611, 0.7894282), (0.08400596, 0.06364604, 0.73268384), (0.083979234, -0.03145913, 0.7320139), (0.12781757, 0.7497531, -1.5207943), (0.15496755, 0.7343, 0.6717812), (0.15524916, 0.73413974, 0.69452363), (0.1548343, -0.74210054, 0.68412435), (0.15455268, -0.74194026, 0.6613819), (0.12740271, -0.72648716, -1.5311935), (0.08100986, 0.12545618, 0.72315556), (0.088791244, 0.12545468, 0.72305924), (0.08872982, -0.09312873, 0.7215194), (0.080948435, -0.09312722, 0.7216158), (0.081960134, 0.12491532, 0.79989785), (0.08189871, -0.093668096, 0.798358), (0.08968009, -0.09366961, 0.79826164), (0.08974152, 0.124913804, 0.79980147), (0.06294605, -0.62207127, -0.54626065), (0.06292399, -0.70058286, -0.5468137), (0.065580904, -0.7020951, -0.33224666), (0.065602966, -0.62358356, -0.3316936), (0.081116326, 0.0636466, 0.73271966), (0.0810896, -0.03145857, 0.7320497), (0.08179224, -0.0318585, 0.788794), (0.08181897, 0.06324667, 0.78946394), (0.06762178, -0.6220945, -0.3302079), (0.07560144, -0.62209606, -0.33030674), (0.07559381, -0.62171674, -0.33092904), (0.067614146, -0.6217151, -0.33083022), (0.06693356, -0.6221565, -0.33026236), (0.07558301, -0.62158555, -0.33180308), (0.066800945, -0.6218395, -0.33088356), (0.066368714, -0.6223425, -0.33044416), (0.06617436, -0.622151, -0.33100298), (0.06760335, -0.621584, -0.33170426), (0.066728435, -0.6217088, -0.3316943), (0.066103384, -0.62208366, -0.3316892), (0.06344646, -0.62057143, -0.54625624), (0.06407152, -0.6201966, -0.54626137), (0.06350042, -0.6206291, -0.5469449), (0.064946435, -0.62007177, -0.5462713), (0.0729261, -0.6200733, -0.54637015), (0.072915226, -0.62019217, -0.5472459), (0.064123906, -0.62031585, -0.54707545), (0.06368084, -0.62081265, -0.54751104), (0.064241044, -0.62062395, -0.54770416), (0.064935565, -0.62019056, -0.5471471), (0.07290738, -0.6205627, -0.5478735), (0.06492772, -0.6205611, -0.5477747), (0.06490482, -0.7020726, -0.5483489), (0.07288448, -0.70207417, -0.5484477), (0.07289211, -0.70245355, -0.5478254), (0.064912446, -0.70245194, -0.5477266), (0.0729029, -0.7025846, -0.54695135), (0.06421817, -0.7020104, -0.5482775), (0.06492325, -0.7025831, -0.5468525), (0.075559825, -0.7040969, -0.33238435), (0.06410079, -0.70232725, -0.5476532), (0.06365807, -0.7018242, -0.5480817), (0.063477546, -0.7020156, -0.54751825), (0.06404833, -0.7024579, -0.54684085), (0.06342356, -0.70208293, -0.5468305), (0.06608047, -0.70359516, -0.3322634), (0.06670525, -0.7039702, -0.3322738), (0.066151485, -0.70353746, -0.33157626), (0.06758016, -0.70409536, -0.33228552), (0.075570695, -0.7039781, -0.33150852), (0.066777825, -0.7038509, -0.33146125), (0.066345945, -0.70335406, -0.33101484), (0.066910684, -0.70354295, -0.33083567), (0.067591034, -0.7039765, -0.3314097), (0.07557853, -0.70360756, -0.33088094), (0.06759887, -0.703606, -0.33078212), (0.07290256, -0.621185, -0.5482528), (0.0649229, -0.62118345, -0.54815406), (0.072900765, -0.6220591, -0.5483841), (0.06411204, -0.62124676, -0.5480194), (0.06349092, -0.6213738, -0.54770017), (0.06492111, -0.62205756, -0.54828525), (0.064047776, -0.6220583, -0.54814935), (0.06342747, -0.62206084, -0.5477667), (0.06340541, -0.7005724, -0.54831976), (0.064025715, -0.70056987, -0.5487024), (0.06346847, -0.7012603, -0.5482629), (0.06489904, -0.70056915, -0.5488383), (0.0728787, -0.7005707, -0.54893714), (0.07288001, -0.70144653, -0.54881823), (0.06408952, -0.70138323, -0.5485839), (0.064900346, -0.701445, -0.5487194), (0.07558335, -0.7029852, -0.3305016), (0.06760369, -0.7029837, -0.33040276), (0.07558515, -0.7021111, -0.33037043), (0.06678977, -0.70292014, -0.33051726), (0.066160984, -0.7027928, -0.3308211), (0.06760549, -0.7021096, -0.3302716), (0.06672906, -0.7021085, -0.33038577), (0.066099465, -0.70210576, -0.33075297), (0.06612153, -0.6235942, -0.3301999), (0.06675113, -0.62359697, -0.3298327), (0.06618343, -0.6229063, -0.33025834), (0.06762755, -0.62359804, -0.32971853), (0.07560721, -0.6235996, -0.32981735), (0.07560591, -0.62272376, -0.3299362), (0.06681229, -0.62278366, -0.32995272), (0.06762625, -0.62272215, -0.32983738), (0.06586326, -0.6227769, -0.33087853), (0.06573877, -0.62358975, -0.3308202), (0.06572818, -0.62270856, -0.33168897), (0.065716706, -0.7021013, -0.33137327), (0.065840736, -0.70291334, -0.33144304), (0.06570563, -0.7029701, -0.33225438), (0.063048705, -0.70145786, -0.5468214), (0.0631637, -0.7013897, -0.547635), (0.06303812, -0.7005767, -0.54769015), (0.06306019, -0.6220651, -0.5471371), (0.06318622, -0.62125313, -0.5470704), (0.063071266, -0.6211963, -0.546256), (0.060777955, -0.66173095, -0.35501772), (0.060147744, -0.66191673, -0.35543174), (0.06021259, -0.66230816, -0.35487232), (0.060848027, -0.66221225, -0.35442272), (0.060190678, -0.6924075, -0.40703073), (0.060318746, -0.6928808, -0.40677378), (0.059748534, -0.69254565, -0.40657103), (0.0595647, -0.69205713, -0.40670452), (0.06020759, -0.63221365, -0.4066067), (0.059581418, -0.6325682, -0.40628546), (0.05976553, -0.63208175, -0.4061451), (0.060335927, -0.63174397, -0.4063431), (0.060777422, -0.6636201, -0.35503104), (0.060847767, -0.6631474, -0.3544293), (0.06021238, -0.6630448, -0.3548775), (0.06014732, -0.6634281, -0.35544237), (0.058881704, -0.66081494, -0.5081523), (0.05893692, -0.661284, -0.5087572), (0.058312643, -0.6613846, -0.50828695), (0.058262, -0.6610037, -0.50771785), (0.05888123, -0.66268283, -0.5081614), (0.05826162, -0.66249794, -0.5077251), (0.05831253, -0.66211164, -0.5082905), (0.058936685, -0.6622079, -0.50876164), (0.059600595, -0.6320239, -0.45562407), (0.059722472, -0.63154936, -0.45588204), (0.05914727, -0.6318835, -0.45607203), (0.058966577, -0.63237256, -0.45593616), (0.059580583, -0.69174993, -0.45630535), (0.058947034, -0.6914017, -0.45660937), (0.059127748, -0.69188845, -0.45675874), (0.059702188, -0.69222176, -0.45657656), (0.06166254, -0.6621775, -0.3542437), (0.067156725, -0.6621786, -0.35431176), (0.06714885, -0.66167027, -0.35495603), (0.061654657, -0.6616692, -0.354888), (0.06653252, -0.63189733, -0.40518945), (0.061038334, -0.63189626, -0.40512142), (0.066523254, -0.63157624, -0.405943), (0.06016355, -0.6320508, -0.40509468), (0.059539102, -0.63251495, -0.40503916), (0.059589326, -0.6322105, -0.40565255), (0.06021764, -0.6317591, -0.40580243), (0.061029065, -0.6315751, -0.40587497), (0.061022364, -0.63163155, -0.40641528), (0.06651655, -0.63163257, -0.40648332), (0.06651242, -0.63206637, -0.4068103), (0.06101823, -0.6320653, -0.40674227), (0.06651085, -0.6328776, -0.40692398), (0.061016664, -0.6328765, -0.40685594), (0.06649431, -0.6917426, -0.40733865), (0.060143236, -0.63296986, -0.40672076), (0.05952285, -0.6332502, -0.40634003), (0.059506513, -0.6913744, -0.4067495), (0.060126744, -0.6916496, -0.40713412), (0.061000124, -0.6917415, -0.4072706), (0.06649542, -0.69255537, -0.40723637), (0.06100123, -0.6925543, -0.40716836), (0.06649931, -0.69299376, -0.40691555), (0.06100512, -0.6929927, -0.40684754), (0.066505976, -0.69305766, -0.40637612), (0.061011788, -0.6930566, -0.4063081), (0.06651542, -0.69274724, -0.40561813), (0.061021235, -0.69274616, -0.4055501), (0.06714828, -0.66368526, -0.35497022), (0.060200464, -0.6928733, -0.40623295), (0.059572477, -0.69242364, -0.40607673), (0.060146537, -0.6925915, -0.40552118), (0.05952235, -0.6921279, -0.40545908), (0.06165409, -0.6636842, -0.35490218), (0.06715644, -0.66318613, -0.35431886), (0.061662257, -0.66318506, -0.3542508), (0.06041051, -0.6314381, -0.45582485), (0.0659047, -0.63143915, -0.4558929), (0.06589803, -0.6313728, -0.456432), (0.060403846, -0.63137174, -0.45636398), (0.06588857, -0.63168, -0.45719138), (0.060394384, -0.63167894, -0.45712334), (0.06524909, -0.66075325, -0.50837344), (0.05959083, -0.6315545, -0.45641986), (0.058958896, -0.6320032, -0.4565624), (0.059519168, -0.6318332, -0.45713127), (0.05889343, -0.6322963, -0.45717987), (0.059754908, -0.6607522, -0.5083054), (0.06524092, -0.6612482, -0.5090261), (0.059746727, -0.6612471, -0.50895804), (0.059746474, -0.6622433, -0.5089629), (0.065240666, -0.6622444, -0.509031), (0.065248586, -0.66274565, -0.5083831), (0.0597544, -0.6627446, -0.5083151), (0.065868184, -0.69208056, -0.45789263), (0.05888123, -0.66268283, -0.5081614), (0.06037399, -0.6920795, -0.4578246), (0.065877505, -0.6923951, -0.4571347), (0.05949889, -0.6919263, -0.45782822), (0.058873493, -0.69146734, -0.4578639), (0.058939032, -0.6917655, -0.45724982), (0.059570428, -0.69221175, -0.45711836), (0.06038332, -0.692394, -0.45706666), (0.060390074, -0.692333, -0.456522), (0.06588426, -0.69233406, -0.45659003), (0.06588845, -0.6918975, -0.45625868), (0.060394265, -0.6918964, -0.45619065), (0.065890074, -0.69108534, -0.45614064), (0.06039588, -0.69108427, -0.4560726), (0.065909624, -0.6326921, -0.45547524), (0.059519414, -0.69099337, -0.45618573), (0.05888991, -0.6907209, -0.45654988), (0.058909222, -0.63305545, -0.4558928), (0.05953891, -0.632782, -0.45552242), (0.06041544, -0.632691, -0.4554072), (0.06590856, -0.6318789, -0.45557395), (0.060414374, -0.63187784, -0.4555059), (0.060399454, -0.66267896, -0.35452667), (0.06097636, -0.66268176, -0.35415056), (0.061665073, -0.6626828, -0.35403132), (0.06715926, -0.66268384, -0.35409936), (0.058490425, -0.66174644, -0.5086443), (0.059058316, -0.66174465, -0.5090394), (0.0652381, -0.66174525, -0.50924534), (0.05974392, -0.6617441, -0.50917727), (0.059278466, -0.6328377, -0.40571177), (0.059164986, -0.63328856, -0.40495485), (0.059155505, -0.6337175, -0.4057137), (0.059041116, -0.63437176, -0.40484178), (0.059764028, -0.6622267, -0.35613), (0.05913943, -0.69091576, -0.40611663), (0.059896074, -0.6626728, -0.35537967), (0.059261896, -0.6917954, -0.4061271), (0.059025407, -0.6902737, -0.4052356), (0.05914867, -0.6913552, -0.4053639), (0.059626717, -0.66266054, -0.35711253), (0.059763778, -0.6631083, -0.35613623), (0.05864945, -0.6326315, -0.45650712), (0.058526378, -0.6335111, -0.45651835), (0.058517165, -0.6330684, -0.45726916), (0.058390286, -0.6341493, -0.45739904), (0.05850737, -0.69026697, -0.45716506), (0.0578958, -0.6613184, -0.507002), (0.058629893, -0.69114125, -0.45717695), (0.05800897, -0.66175056, -0.5077698), (0.057783, -0.66175914, -0.50600475), (0.057895575, -0.6621901, -0.5070062), (0.058371708, -0.6896316, -0.45803124), (0.058497794, -0.69070244, -0.45793155)]
}

