#usda 1.0
(
    defaultPrim = "SM_Lobby_Lamp_3"
    upAxis = "Z"
)

def Mesh "SM_Lobby_Lamp_3"
{
    int[] faceVertexCounts = [3, 3, 3, 3, 3, 3, 3, 3, 3, 3, 3, 3, 3, 3, 3, 3, 3, 3, 3, 3, 3, 3, 3, 3, 3, 3, 3, 3, 3, 3, 3, 3, 3, 3, 3, 3, 3, 3, 3, 3, 3, 3, 3, 3, 3, 3, 3, 3, 3, 3, 3, 3, 3, 3, 3, 3, 3, 3, 3, 3, 3, 3, 3, 3, 3, 3, 3, 3, 3, 3, 3, 3, 3, 3, 3, 3, 3, 3, 3, 3, 3, 3, 3, 3, 3, 3, 3, 3, 3, 3, 3, 3, 3, 3, 3, 3, 3, 3, 3, 3, 3, 3, 3, 3, 3, 3, 3, 3, 3, 3, 3, 3, 3, 3, 3, 3, 3, 3, 3, 3, 3, 3, 3, 3, 3, 3, 3, 3, 3, 3, 3, 3, 3, 3, 3, 3, 3, 3, 3, 3, 3, 3, 3, 3, 3, 3, 3, 3, 3, 3, 3, 3, 3, 3, 3, 3, 3, 3, 3, 3, 3, 3, 3, 3, 3, 3, 3, 3, 3, 3, 3, 3, 3, 3, 3, 3, 3, 3, 3, 3, 3, 3, 3, 3, 3, 3, 3, 3, 3, 3, 3, 3, 3, 3, 3, 3, 3, 3, 3, 3, 3, 3, 3, 3, 3, 3, 3, 3, 3, 3, 3, 3, 3, 3, 3, 3, 3, 3, 3, 3, 3, 3, 3, 3, 3, 3, 3, 3, 3, 3, 3, 3, 3, 3, 3, 3, 3, 3, 3, 3, 3, 3, 3, 3, 3, 3, 3, 3, 3, 3, 3, 3, 3, 3, 3, 3, 3, 3, 3, 3, 3, 3, 3, 3, 3, 3, 3, 3, 3, 3, 3, 3, 3, 3, 3, 3, 3, 3, 3, 3, 3, 3, 3, 3, 3, 3, 3, 3, 3, 3, 3, 3, 3, 3, 3, 3, 3, 3, 3, 3, 3, 3, 3, 3, 3, 3, 3, 3, 3, 3, 3, 3, 3, 3, 3, 3, 3, 3, 3, 3, 3, 3, 3, 3, 3, 3, 3, 3, 3, 3, 3, 3, 3, 3, 3, 3, 3, 3, 3, 3, 3, 3, 3, 3, 3, 3, 3, 3, 3, 3, 3, 3, 3, 3, 3, 3, 3, 3, 3, 3, 3, 3, 3, 3, 3, 3, 3, 3, 3, 3, 3, 3, 3, 3, 3, 3, 3, 3, 3, 3, 3, 3, 3, 3, 3, 3, 3, 3, 3, 3, 3, 3, 3, 3, 3, 3, 3, 3, 3, 3, 3, 3, 3, 3, 3, 3, 3, 3, 3, 3, 3, 3, 3, 3, 3, 3, 3, 3, 3, 3, 3, 3, 3, 3, 3, 3, 3, 3, 3, 3, 3, 3, 3, 3, 3, 3, 3, 3, 3, 3, 3, 3, 3, 3, 3, 3, 3, 3, 3, 3, 3, 3, 3, 3, 3, 3, 3, 3, 3, 3, 3, 3, 3, 3, 3, 3, 3, 3, 3, 3, 3, 3, 3, 3, 3, 3, 3, 3, 3, 3, 3, 3, 3, 3, 3, 3, 3, 3, 3, 3, 3, 3, 3, 3, 3, 3, 3, 3, 3, 3, 3, 3, 3, 3, 3, 3, 3, 3, 3, 3, 3, 3, 3, 3, 3, 3, 3, 3, 3, 3, 3, 3, 3, 3, 3, 3, 3, 3, 3, 3, 3, 3, 3, 3, 3, 3, 3, 3, 3, 3, 3, 3, 3, 3, 3, 3, 3, 3, 3, 3, 3, 3, 3, 3]
    int[] faceVertexIndices = [0, 1, 2, 1, 0, 3, 4, 5, 6, 5, 4, 7, 8, 9, 10, 9, 8, 11, 12, 13, 14, 13, 12, 15, 14, 16, 17, 16, 14, 13, 17, 18, 19, 18, 17, 16, 19, 15, 12, 15, 19, 18, 2, 1, 20, 20, 21, 2, 21, 20, 22, 22, 23, 21, 6, 5, 24, 24, 25, 6, 25, 24, 26, 26, 27, 25, 28, 29, 30, 28, 30, 31, 32, 31, 30, 31, 32, 33, 34, 35, 36, 34, 36, 37, 37, 36, 38, 37, 38, 39, 40, 34, 37, 40, 37, 41, 41, 37, 39, 41, 39, 42, 35, 43, 44, 35, 44, 36, 45, 36, 44, 36, 45, 38, 39, 38, 46, 39, 46, 47, 47, 46, 14, 47, 14, 17, 45, 42, 48, 45, 48, 49, 49, 48, 19, 49, 19, 12, 50, 7, 4, 7, 50, 51, 23, 51, 50, 51, 23, 22, 52, 11, 8, 11, 52, 53, 27, 53, 52, 53, 27, 26, 54, 55, 56, 55, 54, 57, 57, 58, 55, 58, 57, 59, 28, 57, 54, 57, 28, 31, 57, 31, 33, 57, 33, 59, 29, 56, 55, 29, 55, 30, 55, 32, 30, 32, 55, 58, 40, 44, 43, 44, 40, 41, 44, 41, 42, 44, 42, 45, 15, 60, 13, 60, 15, 61, 60, 61, 58, 60, 58, 59, 46, 12, 14, 46, 49, 12, 46, 45, 49, 45, 46, 38, 13, 62, 16, 62, 13, 60, 62, 60, 59, 62, 59, 33, 18, 16, 62, 18, 62, 63, 62, 32, 63, 32, 62, 33, 19, 47, 17, 47, 19, 48, 42, 47, 48, 42, 39, 47, 15, 18, 63, 15, 63, 61, 63, 58, 61, 58, 63, 32, 22, 20, 64, 20, 65, 64, 64, 65, 66, 20, 1, 65, 65, 67, 66, 1, 68, 65, 65, 68, 67, 3, 68, 1, 68, 69, 67, 68, 3, 70, 70, 69, 68, 69, 70, 71, 72, 21, 23, 72, 73, 21, 73, 72, 74, 73, 2, 21, 74, 75, 73, 73, 76, 2, 76, 73, 75, 76, 0, 2, 75, 77, 76, 76, 78, 0, 77, 78, 76, 77, 79, 78, 22, 64, 51, 51, 64, 80, 64, 66, 80, 51, 80, 7, 80, 66, 81, 7, 80, 82, 80, 81, 82, 5, 7, 82, 82, 81, 83, 84, 82, 83, 5, 82, 84, 84, 83, 85, 84, 85, 86, 5, 84, 87, 87, 84, 86, 87, 86, 88, 24, 5, 87, 89, 87, 88, 24, 87, 89, 26, 24, 89, 90, 25, 27, 90, 91, 25, 91, 90, 92, 91, 6, 25, 92, 93, 91, 91, 94, 6, 94, 91, 93, 94, 4, 6, 93, 95, 94, 95, 96, 94, 94, 96, 4, 95, 97, 96, 98, 96, 97, 99, 4, 96, 96, 98, 99, 74, 99, 98, 4, 99, 50, 99, 74, 72, 72, 50, 99, 50, 72, 23, 26, 89, 53, 53, 89, 100, 89, 88, 100, 53, 100, 11, 100, 88, 101, 11, 100, 102, 100, 101, 102, 102, 9, 11, 102, 101, 103, 9, 102, 104, 104, 102, 103, 104, 103, 105, 52, 90, 27, 90, 52, 106, 106, 92, 90, 8, 106, 52, 92, 106, 107, 108, 8, 10, 109, 107, 106, 106, 8, 109, 108, 109, 8, 107, 109, 110, 111, 109, 108, 111, 110, 109, 69, 71, 112, 69, 112, 113, 113, 112, 114, 67, 69, 113, 113, 114, 115, 113, 116, 67, 116, 113, 115, 66, 67, 116, 116, 81, 66, 81, 116, 117, 116, 115, 117, 81, 117, 83, 85, 83, 117, 118, 117, 115, 117, 118, 85, 85, 118, 86, 115, 119, 118, 118, 120, 86, 118, 119, 120, 86, 120, 88, 120, 101, 88, 121, 119, 122, 120, 123, 101, 119, 123, 120, 119, 121, 123, 123, 103, 101, 123, 121, 105, 123, 105, 103, 110, 111, 124, 110, 124, 125, 125, 124, 126, 107, 110, 125, 125, 126, 127, 125, 128, 107, 128, 125, 127, 92, 107, 128, 128, 93, 92, 93, 128, 129, 128, 127, 129, 93, 129, 95, 97, 95, 129, 130, 129, 127, 129, 130, 97, 97, 130, 98, 127, 131, 130, 130, 132, 98, 130, 131, 132, 98, 132, 74, 132, 75, 74, 131, 133, 134, 132, 135, 75, 131, 135, 132, 131, 134, 135, 135, 77, 75, 135, 134, 79, 135, 79, 77, 114, 29, 115, 114, 122, 29, 115, 29, 28, 29, 122, 56, 28, 119, 115, 122, 119, 56, 119, 28, 54, 56, 119, 54, 34, 127, 35, 127, 43, 35, 131, 127, 34, 126, 43, 127, 40, 131, 34, 126, 40, 43, 133, 131, 40, 40, 126, 133, 136, 137, 138, 136, 138, 139, 139, 138, 140, 139, 140, 141, 140, 142, 141, 142, 140, 143, 144, 142, 143, 142, 144, 145, 145, 144, 146, 145, 146, 147, 148, 149, 150, 148, 150, 151, 151, 150, 152, 151, 152, 153, 152, 154, 153, 154, 152, 155, 156, 154, 155, 154, 156, 157, 157, 156, 158, 157, 158, 159, 147, 146, 160, 147, 160, 161, 161, 160, 162, 161, 162, 163, 162, 164, 163, 164, 162, 165, 166, 164, 165, 164, 166, 167, 167, 166, 159, 167, 159, 158, 149, 148, 168, 149, 168, 169, 169, 168, 170, 169, 170, 171, 170, 172, 171, 171, 172, 173, 174, 173, 172, 173, 174, 175, 175, 174, 137, 175, 137, 136, 144, 176, 146, 177, 176, 144, 177, 178, 176, 143, 177, 144, 179, 178, 177, 180, 179, 177, 180, 177, 143, 181, 179, 180, 180, 182, 181, 143, 183, 180, 182, 180, 183, 183, 143, 140, 183, 184, 182, 140, 185, 183, 184, 183, 185, 185, 186, 184, 185, 140, 138, 186, 185, 187, 138, 187, 185, 187, 138, 137, 145, 147, 188, 189, 145, 188, 189, 188, 190, 142, 145, 189, 191, 189, 190, 192, 142, 189, 192, 189, 191, 141, 142, 192, 193, 192, 191, 194, 192, 193, 192, 194, 141, 193, 195, 194, 196, 194, 195, 197, 141, 194, 196, 197, 194, 197, 196, 198, 197, 139, 141, 198, 199, 197, 139, 197, 199, 199, 136, 139, 156, 200, 158, 201, 200, 156, 201, 202, 200, 155, 201, 156, 203, 202, 201, 204, 203, 201, 204, 201, 155, 205, 203, 204, 204, 206, 205, 155, 207, 204, 206, 204, 207, 207, 155, 152, 207, 208, 206, 152, 209, 207, 208, 207, 209, 209, 210, 208, 209, 152, 150, 210, 209, 211, 150, 211, 209, 211, 150, 149, 157, 159, 212, 213, 157, 212, 213, 212, 214, 154, 157, 213, 215, 213, 214, 216, 154, 213, 216, 213, 215, 153, 154, 216, 217, 216, 215, 218, 216, 217, 216, 218, 153, 217, 219, 218, 220, 218, 219, 221, 153, 218, 220, 221, 218, 221, 220, 222, 221, 151, 153, 222, 223, 221, 151, 221, 223, 223, 148, 151, 166, 212, 159, 224, 212, 166, 224, 214, 212, 165, 224, 166, 225, 214, 224, 226, 225, 224, 226, 224, 165, 227, 225, 226, 226, 228, 227, 165, 229, 226, 228, 226, 229, 229, 165, 162, 229, 230, 228, 162, 231, 229, 230, 229, 231, 231, 178, 230, 231, 162, 160, 178, 231, 176, 160, 176, 231, 176, 160, 146, 167, 158, 200, 232, 167, 200, 232, 200, 202, 164, 167, 232, 233, 232, 202, 234, 164, 232, 234, 232, 233, 163, 164, 234, 235, 234, 233, 236, 234, 235, 234, 236, 163, 235, 237, 236, 238, 236, 237, 239, 163, 236, 238, 239, 236, 239, 238, 190, 239, 161, 163, 190, 188, 239, 161, 239, 188, 188, 147, 161, 175, 136, 199, 240, 175, 199, 240, 199, 198, 173, 175, 240, 241, 240, 198, 242, 173, 240, 242, 240, 241, 171, 173, 242, 243, 242, 241, 244, 242, 243, 242, 244, 171, 243, 245, 244, 246, 244, 245, 247, 171, 244, 246, 247, 244, 247, 246, 210, 247, 169, 171, 210, 211, 247, 169, 247, 211, 211, 149, 169, 223, 168, 148, 168, 223, 248, 222, 248, 223, 248, 170, 168, 248, 222, 249, 170, 248, 250, 249, 250, 248, 250, 172, 170, 250, 249, 251, 251, 252, 250, 172, 250, 252, 252, 251, 253, 253, 254, 252, 252, 255, 172, 252, 254, 255, 254, 186, 255, 172, 255, 174, 255, 186, 187, 255, 187, 174, 174, 187, 137, 203, 256, 202, 256, 233, 202, 257, 256, 203, 205, 257, 203, 256, 258, 233, 258, 235, 233, 258, 237, 235, 259, 258, 256, 257, 259, 256, 237, 258, 260, 259, 260, 258, 260, 238, 237, 261, 257, 205, 205, 206, 261, 208, 261, 206, 262, 238, 260, 262, 190, 238, 191, 190, 262, 208, 263, 261, 263, 208, 210, 210, 246, 263, 257, 261, 264, 263, 264, 261, 264, 259, 257, 265, 263, 246, 263, 265, 264, 246, 245, 265, 266, 259, 264, 265, 266, 264, 245, 267, 265, 265, 267, 266, 245, 243, 267, 241, 267, 243, 267, 241, 268, 268, 266, 267, 198, 268, 241, 268, 198, 196, 196, 269, 268, 266, 268, 269, 269, 196, 195, 259, 266, 270, 269, 270, 266, 259, 270, 260, 270, 262, 260, 195, 271, 269, 270, 269, 271, 271, 262, 270, 271, 195, 193, 271, 191, 262, 193, 191, 271, 179, 272, 178, 272, 230, 178, 273, 272, 179, 181, 273, 179, 272, 274, 230, 274, 228, 230, 274, 227, 228, 275, 274, 272, 273, 275, 272, 227, 274, 276, 275, 276, 274, 276, 225, 227, 277, 273, 181, 181, 182, 277, 184, 277, 182, 278, 225, 276, 278, 214, 225, 215, 214, 278, 184, 279, 277, 279, 184, 186, 186, 254, 279, 273, 277, 280, 279, 280, 277, 280, 275, 273, 281, 279, 254, 279, 281, 280, 254, 253, 281, 282, 275, 280, 281, 282, 280, 253, 283, 281, 281, 283, 282, 253, 251, 283, 249, 283, 251, 283, 249, 284, 284, 282, 283, 222, 284, 249, 284, 222, 220, 220, 285, 284, 282, 284, 285, 285, 220, 219, 275, 282, 286, 285, 286, 282, 275, 286, 276, 286, 278, 276, 219, 287, 285, 286, 285, 287, 287, 278, 286, 287, 219, 217, 287, 215, 278, 217, 215, 287]
    normal3f[] normals = [(-0.0000039901665, 0.0014270748, 0.99999905), (0.00045881435, -0.00072250987, 0.99999964), (0.001778672, 0.0014321193, 0.99999744), (0.00045881435, -0.00072250987, 0.99999964), (-0.0000039901665, 0.0014270748, 0.99999905), (0.0000082199695, -0.00282591, 0.99999607), (0.9999908, 0.004300135, 0.00021288611), (0.99999905, 0.0014419799, -0.00021298662), (0.9999904, 0.0042980514, -0.00083966664), (0.99999905, 0.0014419799, -0.00021298662), (0.9999908, 0.004300135, 0.00021288611), (0.9999986, 0.001444061, 0.0008395667), (0.00045019074, 0.001432919, -0.999999), (0.0000039898723, -0.0014271595, -0.99999905), (-0.0000042050815, 0.001427159, -0.99999905), (0.0000039898723, -0.0014271595, -0.99999905), (0.00045019074, 0.001432919, -0.999999), (0.0017868644, -0.0014220503, -0.99999744), (0.9999908, 0.004298132, -8.140796e-8), (-0.99998385, -0.005698285, 6.045133e-8), (-0.99999905, -0.0014433068, 5.5967714e-8), (-0.99998385, -0.005698285, 6.045133e-8), (0.9999908, 0.004298132, -8.140796e-8), (0.99999905, 0.0014432219, -8.649555e-8), (-0.99999905, -0.0014433068, 5.5967714e-8), (-0.99999356, -0.0035881791, 5.6248975e-8), (-0.99999905, -0.001443983, 6.105597e-8), (-0.99999356, -0.0035881791, 5.6248975e-8), (-0.99999905, -0.0014433068, 5.5967714e-8), (-0.99998385, -0.005698285, 6.045133e-8), (-0.99999905, -0.001443983, 6.105597e-8), (0.99999905, 0.0014438127, -8.140796e-8), (0.9999908, 0.004298893, -8.649555e-8), (0.99999905, 0.0014438127, -8.140796e-8), (-0.99999905, -0.001443983, 6.105597e-8), (-0.99999356, -0.0035881791, 5.6248975e-8), (0.9999908, 0.004298893, -8.649555e-8), (0.99999905, 0.0014432219, -8.649555e-8), (0.9999908, 0.004298132, -8.140796e-8), (0.99999905, 0.0014432219, -8.649555e-8), (0.9999908, 0.004298893, -8.649555e-8), (0.99999905, 0.0014438127, -8.140796e-8), (0.001778672, 0.0014321193, 0.99999744), (0.00045881435, -0.00072250987, 0.99999964), (0.2553494, -0.0005586175, 0.9668488), (0.2553494, -0.0005586175, 0.9668488), (0.38054484, 0.002472111, 0.92475915), (0.001778672, 0.0014321193, 0.99999744), (0.38054484, 0.002472111, 0.92475915), (0.2553494, -0.0005586175, 0.9668488), (0.64627445, 0.0011819003, 0.7631042), (0.64627445, 0.0011819003, 0.7631042), (0.76309913, 0.0028645128, 0.6462752), (0.38054484, 0.002472111, 0.92475915), (0.9999904, 0.0042980514, -0.00083966664), (0.99999905, 0.0014419799, -0.00021298662), (0.96684927, 0.0014840609, -0.25534377), (0.96684927, 0.0014840609, -0.25534377), (0.92475235, 0.0040345895, -0.38054815), (0.9999904, 0.0042980514, -0.00083966664), (0.92475235, 0.0040345895, -0.38054815), (0.96684927, 0.0014840609, -0.25534377), (0.7631001, 0.0015172362, -0.6462786), (0.7631001, 0.0015172362, -0.6462786), (0.6462625, 0.0025291478, -0.76311105), (0.92475235, 0.0040345895, -0.38054815), (-0.005676464, -0.9999837, -0.00061486504), (0.003927757, -0.9999924, -0.00003975617), (0.28958225, -0.9568223, -0.025163088), (-0.005676464, -0.9999837, -0.00061486504), (0.28958225, -0.9568223, -0.025163088), (-0.28816774, -0.9569755, -0.034018226), (0.647934, -0.7616966, -4.5549527e-8), (-0.28816774, -0.9569755, -0.034018226), (0.28958225, -0.9568223, -0.025163088), (-0.28816774, -0.9569755, -0.034018226), (0.647934, -0.7616966, -4.5549527e-8), (-0.64354783, -0.765406, 4.2295877e-8), (-0.011435958, 0.99993455, -0.0003222402), (-0.011490229, 0.99993324, 0.0012359791), (-0.24337447, 0.969672, 0.022476953), (-0.011435958, 0.99993455, -0.0003222402), (-0.24337447, 0.969672, 0.022476953), (-0.35873318, 0.9332688, -0.017885093), (-0.35873318, 0.9332688, -0.017885093), (-0.24337447, 0.969672, 0.022476953), (-0.6479306, 0.7616994, 2.602816e-8), (-0.35873318, 0.9332688, -0.017885093), (-0.6479306, 0.7616994, 2.602816e-8), (-0.7651352, 0.6438697, 2.9357306e-8), (-0.0018146286, 0.99999845, -0.00007599522), (-0.011435958, 0.99993455, -0.0003222402), (-0.35873318, 0.9332688, -0.017885093), (-0.0018146286, 0.99999845, -0.00007599522), (-0.35873318, 0.9332688, -0.017885093), (0.28816608, 0.95697606, -0.034017958), (0.28816608, 0.95697606, -0.034017958), (-0.35873318, 0.9332688, -0.017885093), (-0.7651352, 0.6438697, 2.9357306e-8), (0.28816608, 0.95697606, -0.034017958), (-0.7651352, 0.6438697, 2.9357306e-8), (0.64354956, 0.7654046, -4.229599e-8), (-0.011490229, 0.99993324, 0.0012359791), (-0.0017968914, 0.9999985, 0.00008055997), (0.2976292, 0.9545905, 0.013187709), (-0.011490229, 0.99993324, 0.0012359791), (0.2976292, 0.9545905, 0.013187709), (-0.24337447, 0.969672, 0.022476953), (0.7614289, 0.6482485, -3.9143252e-8), (-0.24337447, 0.969672, 0.022476953), (0.2976292, 0.9545905, 0.013187709), (-0.24337447, 0.969672, 0.022476953), (0.7614289, 0.6482485, -3.9143252e-8), (-0.6479306, 0.7616994, 2.602816e-8), (-0.7651352, 0.6438697, 2.9357306e-8), (-0.6479306, 0.7616994, 2.602816e-8), (-0.92571646, 0.37821838, 4.2342624e-8), (-0.7651352, 0.6438697, 2.9357306e-8), (-0.92571646, 0.37821838, 4.2342624e-8), (-0.9677918, 0.25175187, 5.667403e-8), (-0.9677918, 0.25175187, 5.667403e-8), (-0.92571646, 0.37821838, 4.2342624e-8), (-0.99999905, -0.0014433068, 5.5967714e-8), (-0.9677918, 0.25175187, 5.667403e-8), (-0.99999905, -0.0014433068, 5.5967714e-8), (-0.99999905, -0.001443983, 6.105597e-8), (0.7614289, 0.6482485, -3.9143252e-8), (0.64354956, 0.7654046, -4.229599e-8), (0.9235294, 0.3835277, -3.6293685e-8), (0.7614289, 0.6482485, -3.9143252e-8), (0.9235294, 0.3835277, -3.6293685e-8), (0.9663288, 0.25731057, -4.8172854e-8), (0.9663288, 0.25731057, -4.8172854e-8), (0.9235294, 0.3835277, -3.6293685e-8), (0.9999908, 0.004298893, -8.649555e-8), (0.9663288, 0.25731057, -4.8172854e-8), (0.9999908, 0.004298893, -8.649555e-8), (0.9999908, 0.004298132, -8.140796e-8), (0.9668411, 0.0040676147, 0.25534675), (0.9999986, 0.001444061, 0.0008395667), (0.9999908, 0.004300135, 0.00021288611), (0.9999986, 0.001444061, 0.0008395667), (0.9668411, 0.0040676147, 0.25534675), (0.9247593, 0.0012754697, 0.38055035), (0.76309913, 0.0028645128, 0.6462752), (0.9247593, 0.0012754697, 0.38055035), (0.9668411, 0.0040676147, 0.25534675), (0.9247593, 0.0012754697, 0.38055035), (0.76309913, 0.0028645128, 0.6462752), (0.64627445, 0.0011819003, 0.7631042), (0.25534764, 0.002024807, -0.9668472), (0.0017868644, -0.0014220503, -0.99999744), (0.00045019074, 0.001432919, -0.999999), (0.0017868644, -0.0014220503, -0.99999744), (0.25534764, 0.002024807, -0.9668472), (0.38054726, -0.0002869455, -0.9247614), (0.6462625, 0.0025291478, -0.76311105), (0.38054726, -0.0002869455, -0.9247614), (0.25534764, 0.002024807, -0.9668472), (0.38054726, -0.0002869455, -0.9247614), (0.6462625, 0.0025291478, -0.76311105), (0.7631001, 0.0015172362, -0.6462786), (-0.0057483274, -0.9999827, 0.0012359791), (0.30310568, -0.9528658, 0.013187708), (0.0039452263, -0.9999923, 0.00008055996), (0.30310568, -0.9528658, 0.013187708), (-0.0057483274, -0.9999827, 0.0012359791), (-0.2998667, -0.9538167, 0.017709438), (-0.2998667, -0.9538167, 0.017709438), (0.7651387, -0.6438656, -3.9143252e-8), (0.30310568, -0.9528658, 0.013187708), (0.7651387, -0.6438656, -3.9143252e-8), (-0.2998667, -0.9538167, 0.017709438), (-0.7614244, -0.6482537, 5.2190575e-8), (-0.005676464, -0.9999837, -0.00061486504), (-0.2998667, -0.9538167, 0.017709438), (-0.0057483274, -0.9999827, 0.0012359791), (-0.2998667, -0.9538167, 0.017709438), (-0.005676464, -0.9999837, -0.00061486504), (-0.28816774, -0.9569755, -0.034018226), (-0.2998667, -0.9538167, 0.017709438), (-0.28816774, -0.9569755, -0.034018226), (-0.64354783, -0.765406, 4.2295877e-8), (-0.2998667, -0.9538167, 0.017709438), (-0.64354783, -0.765406, 4.2295877e-8), (-0.7614244, -0.6482537, 5.2190575e-8), (0.003927757, -0.9999924, -0.00003975617), (0.0039452263, -0.9999923, 0.00008055996), (0.30310568, -0.9528658, 0.013187708), (0.003927757, -0.9999924, -0.00003975617), (0.30310568, -0.9528658, 0.013187708), (0.28958225, -0.9568223, -0.025163088), (0.30310568, -0.9528658, 0.013187708), (0.647934, -0.7616966, -4.5549527e-8), (0.28958225, -0.9568223, -0.025163088), (0.647934, -0.7616966, -4.5549527e-8), (0.30310568, -0.9528658, 0.013187708), (0.7651387, -0.6438656, -3.9143252e-8), (-0.0018146286, 0.99999845, -0.00007599522), (0.2976292, 0.9545905, 0.013187709), (-0.0017968914, 0.9999985, 0.00008055997), (0.2976292, 0.9545905, 0.013187709), (-0.0018146286, 0.99999845, -0.00007599522), (0.28816608, 0.95697606, -0.034017958), (0.2976292, 0.9545905, 0.013187709), (0.28816608, 0.95697606, -0.034017958), (0.64354956, 0.7654046, -4.229599e-8), (0.2976292, 0.9545905, 0.013187709), (0.64354956, 0.7654046, -4.229599e-8), (0.7614289, 0.6482485, -3.9143252e-8), (0.99999905, 0.0014432219, -8.649555e-8), (-0.947771, -0.31895164, 6.1597994e-8), (-0.99998385, -0.005698285, 6.045133e-8), (-0.947771, -0.31895164, 6.1597994e-8), (0.99999905, 0.0014432219, -8.649555e-8), (0.9495882, -0.3134999, -3.0799047e-8), (-0.947771, -0.31895164, 6.1597994e-8), (0.9495882, -0.3134999, -3.0799047e-8), (0.7651387, -0.6438656, -3.9143252e-8), (-0.947771, -0.31895164, 6.1597994e-8), (0.7651387, -0.6438656, -3.9143252e-8), (-0.7614244, -0.6482537, 5.2190575e-8), (-0.92571646, 0.37821838, 4.2342624e-8), (0.9999908, 0.004298132, -8.140796e-8), (-0.99999905, -0.0014433068, 5.5967714e-8), (-0.92571646, 0.37821838, 4.2342624e-8), (0.9663288, 0.25731057, -4.8172854e-8), (0.9999908, 0.004298132, -8.140796e-8), (-0.92571646, 0.37821838, 4.2342624e-8), (0.7614289, 0.6482485, -3.9143252e-8), (0.9663288, 0.25731057, -4.8172854e-8), (0.7614289, 0.6482485, -3.9143252e-8), (-0.92571646, 0.37821838, 4.2342624e-8), (-0.6479306, 0.7616994, 2.602816e-8), (-0.99998385, -0.005698285, 6.045133e-8), (-0.9477095, -0.31913456, 5.7176173e-8), (-0.99999356, -0.0035881791, 5.6248975e-8), (-0.9477095, -0.31913456, 5.7176173e-8), (-0.99998385, -0.005698285, 6.045133e-8), (-0.947771, -0.31895164, 6.1597994e-8), (-0.9477095, -0.31913456, 5.7176173e-8), (-0.947771, -0.31895164, 6.1597994e-8), (-0.7614244, -0.6482537, 5.2190575e-8), (-0.9477095, -0.31913456, 5.7176173e-8), (-0.7614244, -0.6482537, 5.2190575e-8), (-0.64354783, -0.765406, 4.2295877e-8), (0.99999905, 0.0014438127, -8.140796e-8), (-0.99999356, -0.0035881791, 5.6248975e-8), (-0.9477095, -0.31913456, 5.7176173e-8), (0.99999905, 0.0014438127, -8.140796e-8), (-0.9477095, -0.31913456, 5.7176173e-8), (0.9495276, -0.31368354, -5.0579054e-8), (-0.9477095, -0.31913456, 5.7176173e-8), (0.647934, -0.7616966, -4.5549527e-8), (0.9495276, -0.31368354, -5.0579054e-8), (0.647934, -0.7616966, -4.5549527e-8), (-0.9477095, -0.31913456, 5.7176173e-8), (-0.64354783, -0.765406, 4.2295877e-8), (0.9999908, 0.004298893, -8.649555e-8), (-0.9677918, 0.25175187, 5.667403e-8), (-0.99999905, -0.001443983, 6.105597e-8), (-0.9677918, 0.25175187, 5.667403e-8), (0.9999908, 0.004298893, -8.649555e-8), (0.9235294, 0.3835277, -3.6293685e-8), (0.64354956, 0.7654046, -4.229599e-8), (-0.9677918, 0.25175187, 5.667403e-8), (0.9235294, 0.3835277, -3.6293685e-8), (0.64354956, 0.7654046, -4.229599e-8), (-0.7651352, 0.6438697, 2.9357306e-8), (-0.9677918, 0.25175187, 5.667403e-8), (0.99999905, 0.0014432219, -8.649555e-8), (0.99999905, 0.0014438127, -8.140796e-8), (0.9495276, -0.31368354, -5.0579054e-8), (0.99999905, 0.0014432219, -8.649555e-8), (0.9495276, -0.31368354, -5.0579054e-8), (0.9495882, -0.3134999, -3.0799047e-8), (0.9495276, -0.31368354, -5.0579054e-8), (0.7651387, -0.6438656, -3.9143252e-8), (0.9495882, -0.3134999, -3.0799047e-8), (0.7651387, -0.6438656, -3.9143252e-8), (0.9495276, -0.31368354, -5.0579054e-8), (0.647934, -0.7616966, -4.5549527e-8), (0.64627445, 0.0011819003, 0.7631042), (0.2553494, -0.0005586175, 0.9668488), (0.68833876, -0.23085822, 0.6876731), (0.2553494, -0.0005586175, 0.9668488), (0.28640383, -0.28476602, 0.91481215), (0.68833876, -0.23085822, 0.6876731), (0.68833876, -0.23085822, 0.6876731), (0.28640383, -0.28476602, 0.91481215), (0.57900447, -0.5756924, 0.57734925), (0.2553494, -0.0005586175, 0.9668488), (0.00045881435, -0.00072250987, 0.99999964), (0.28640383, -0.28476602, 0.91481215), (0.28640383, -0.28476602, 0.91481215), (0.23480701, -0.687001, 0.6876739), (0.57900447, -0.5756924, 0.57734925), (0.00045881435, -0.00072250987, 0.99999964), (0.0015436014, -0.25502944, 0.96693206), (0.28640383, -0.28476602, 0.91481215), (0.28640383, -0.28476602, 0.91481215), (0.0015436014, -0.25502944, 0.96693206), (0.23480701, -0.687001, 0.6876739), (0.0000082199695, -0.00282591, 0.99999607), (0.0015436014, -0.25502944, 0.96693206), (0.00045881435, -0.00072250987, 0.99999964), (0.0015436014, -0.25502944, 0.96693206), (0.0023484943, -0.70710367, 0.7071061), (0.23480701, -0.687001, 0.6876739), (0.0015436014, -0.25502944, 0.96693206), (0.0000082199695, -0.00282591, 0.99999607), (0.0010931783, -0.38075256, 0.92467636), (0.0010931783, -0.38075256, 0.92467636), (0.0023484943, -0.70710367, 0.7071061), (0.0015436014, -0.25502944, 0.96693206), (0.0023484943, -0.70710367, 0.7071061), (0.0010931783, -0.38075256, 0.92467636), (0.0020301691, -0.7071052, 0.70710546), (0.6870056, 0.2348034, 0.6876705), (0.38054484, 0.002472111, 0.92475915), (0.76309913, 0.0028645128, 0.6462752), (0.6870056, 0.2348034, 0.6876705), (0.28476244, 0.28640297, 0.9148135), (0.38054484, 0.002472111, 0.92475915), (0.28476244, 0.28640297, 0.9148135), (0.6870056, 0.2348034, 0.6876705), (0.5756921, 0.5790065, 0.5773475), (0.28476244, 0.28640297, 0.9148135), (0.001778672, 0.0014321193, 0.99999744), (0.38054484, 0.002472111, 0.92475915), (0.5756921, 0.5790065, 0.5773475), (0.23085217, 0.68833876, 0.68767506), (0.28476244, 0.28640297, 0.9148135), (0.28476244, 0.28640297, 0.9148135), (0.00007916419, 0.25503448, 0.96693194), (0.001778672, 0.0014321193, 0.99999744), (0.00007916419, 0.25503448, 0.96693194), (0.28476244, 0.28640297, 0.9148135), (0.23085217, 0.68833876, 0.68767506), (0.00007916419, 0.25503448, 0.96693194), (-0.0000039901665, 0.0014270748, 0.99999905), (0.001778672, 0.0014321193, 0.99999744), (0.23085217, 0.68833876, 0.68767506), (-0.0014325144, 0.6461501, 0.76320904), (0.00007916419, 0.25503448, 0.96693194), (0.00007916419, 0.25503448, 0.96693194), (-0.0010931697, 0.38075313, 0.92467606), (-0.0000039901665, 0.0014270748, 0.99999905), (-0.0014325144, 0.6461501, 0.76320904), (-0.0010931697, 0.38075313, 0.92467606), (0.00007916419, 0.25503448, 0.96693194), (-0.0014325144, 0.6461501, 0.76320904), (-0.002191726, 0.76338243, 0.6459432), (-0.0010931697, 0.38075313, 0.92467606), (0.64627445, 0.0011819003, 0.7631042), (0.68833876, -0.23085822, 0.6876731), (0.9247593, 0.0012754697, 0.38055035), (0.9247593, 0.0012754697, 0.38055035), (0.68833876, -0.23085822, 0.6876731), (0.9156283, -0.28295946, 0.28558508), (0.68833876, -0.23085822, 0.6876731), (0.57900447, -0.5756924, 0.57734925), (0.9156283, -0.28295946, 0.28558508), (0.9247593, 0.0012754697, 0.38055035), (0.9156283, -0.28295946, 0.28558508), (0.9999986, 0.001444061, 0.0008395667), (0.9156283, -0.28295946, 0.28558508), (0.57900447, -0.5756924, 0.57734925), (0.68964547, -0.6856951, 0.23283362), (0.9999986, 0.001444061, 0.0008395667), (0.9156283, -0.28295946, 0.28558508), (0.96773666, -0.25196385, 0.00038058608), (0.9156283, -0.28295946, 0.28558508), (0.68964547, -0.6856951, 0.23283362), (0.96773666, -0.25196385, 0.00038058608), (0.99999905, 0.0014419799, -0.00021298662), (0.9999986, 0.001444061, 0.0008395667), (0.96773666, -0.25196385, 0.00038058608), (0.96773666, -0.25196385, 0.00038058608), (0.68964547, -0.6856951, 0.23283362), (0.7651545, -0.6438467, 0.00019804425), (0.9257916, -0.37803423, -0.0004067379), (0.96773666, -0.25196385, 0.00038058608), (0.7651545, -0.6438467, 0.00019804425), (0.99999905, 0.0014419799, -0.00021298662), (0.96773666, -0.25196385, 0.00038058608), (0.9257916, -0.37803423, -0.0004067379), (0.9257916, -0.37803423, -0.0004067379), (0.7651545, -0.6438467, 0.00019804425), (0.64822966, -0.7614448, -0.00019811507), (0.9257916, -0.37803423, -0.0004067379), (0.64822966, -0.7614448, -0.00019811507), (0.6896479, -0.6856938, -0.23283009), (0.99999905, 0.0014419799, -0.00021298662), (0.9257916, -0.37803423, -0.0004067379), (0.9156298, -0.28295568, -0.2855843), (0.9156298, -0.28295568, -0.2855843), (0.9257916, -0.37803423, -0.0004067379), (0.6896479, -0.6856938, -0.23283009), (0.9156298, -0.28295568, -0.2855843), (0.6896479, -0.6856938, -0.23283009), (0.5790083, -0.5756825, -0.5773553), (0.96684927, 0.0014840609, -0.25534377), (0.99999905, 0.0014419799, -0.00021298662), (0.9156298, -0.28295568, -0.2855843), (0.6883429, -0.23085923, -0.6876686), (0.9156298, -0.28295568, -0.2855843), (0.5790083, -0.5756825, -0.5773553), (0.96684927, 0.0014840609, -0.25534377), (0.9156298, -0.28295568, -0.2855843), (0.6883429, -0.23085923, -0.6876686), (0.7631001, 0.0015172362, -0.6462786), (0.96684927, 0.0014840609, -0.25534377), (0.6883429, -0.23085923, -0.6876686), (0.6869982, 0.23480007, -0.68767905), (0.92475235, 0.0040345895, -0.38054815), (0.6462625, 0.0025291478, -0.76311105), (0.6869982, 0.23480007, -0.68767905), (0.9139907, 0.28820804, -0.28558233), (0.92475235, 0.0040345895, -0.38054815), (0.9139907, 0.28820804, -0.28558233), (0.6869982, 0.23480007, -0.68767905), (0.57568824, 0.5790026, -0.57735515), (0.9139907, 0.28820804, -0.28558233), (0.9999904, 0.0042980514, -0.00083966664), (0.92475235, 0.0040345895, -0.38054815), (0.57568824, 0.5790026, -0.57735515), (0.68569916, 0.68964475, -0.23282345), (0.9139907, 0.28820804, -0.28558233), (0.9139907, 0.28820804, -0.28558233), (0.96627384, 0.25751653, -0.00038068194), (0.9999904, 0.0042980514, -0.00083966664), (0.96627384, 0.25751653, -0.00038068194), (0.9139907, 0.28820804, -0.28558233), (0.68569916, 0.68964475, -0.23282345), (0.96627384, 0.25751653, -0.00038068194), (0.9999908, 0.004300135, 0.00021288611), (0.9999904, 0.0042980514, -0.00083966664), (0.68569916, 0.68964475, -0.23282345), (0.7614448, 0.64822966, -0.00019811507), (0.96627384, 0.25751653, -0.00038068194), (0.7614448, 0.64822966, -0.00019811507), (0.9236057, 0.383344, 0.00040664367), (0.96627384, 0.25751653, -0.00038068194), (0.96627384, 0.25751653, -0.00038068194), (0.9236057, 0.383344, 0.00040664367), (0.9999908, 0.004300135, 0.00021288611), (0.7614448, 0.64822966, -0.00019811507), (0.6438467, 0.7651545, 0.00019804425), (0.9236057, 0.383344, 0.00040664367), (0.6856984, 0.6896439, 0.23282829), (0.9236057, 0.383344, 0.00040664367), (0.6438467, 0.7651545, 0.00019804425), (0.9139899, 0.2882096, 0.28558356), (0.9999908, 0.004300135, 0.00021288611), (0.9236057, 0.383344, 0.00040664367), (0.9236057, 0.383344, 0.00040664367), (0.6856984, 0.6896439, 0.23282829), (0.9139899, 0.2882096, 0.28558356), (0.5756921, 0.5790065, 0.5773475), (0.9139899, 0.2882096, 0.28558356), (0.6856984, 0.6896439, 0.23282829), (0.9999908, 0.004300135, 0.00021288611), (0.9139899, 0.2882096, 0.28558356), (0.9668411, 0.0040676147, 0.25534675), (0.9139899, 0.2882096, 0.28558356), (0.5756921, 0.5790065, 0.5773475), (0.6870056, 0.2348034, 0.6876705), (0.6870056, 0.2348034, 0.6876705), (0.9668411, 0.0040676147, 0.25534675), (0.9139899, 0.2882096, 0.28558356), (0.9668411, 0.0040676147, 0.25534675), (0.6870056, 0.2348034, 0.6876705), (0.76309913, 0.0028645128, 0.6462752), (0.7631001, 0.0015172362, -0.6462786), (0.6883429, -0.23085923, -0.6876686), (0.38054726, -0.0002869455, -0.9247614), (0.38054726, -0.0002869455, -0.9247614), (0.6883429, -0.23085923, -0.6876686), (0.28640443, -0.284766, -0.914812), (0.6883429, -0.23085923, -0.6876686), (0.5790083, -0.5756825, -0.5773553), (0.28640443, -0.284766, -0.914812), (0.38054726, -0.0002869455, -0.9247614), (0.28640443, -0.284766, -0.914812), (0.0017868644, -0.0014220503, -0.99999744), (0.28640443, -0.284766, -0.914812), (0.5790083, -0.5756825, -0.5773553), (0.23480158, -0.68699706, -0.6876796), (0.0017868644, -0.0014220503, -0.99999744), (0.28640443, -0.284766, -0.914812), (0.0015434246, -0.2550295, -0.96693206), (0.28640443, -0.284766, -0.914812), (0.23480158, -0.68699706, -0.6876796), (0.0015434246, -0.2550295, -0.96693206), (0.0015434246, -0.2550295, -0.96693206), (0.0000039898723, -0.0014271595, -0.99999905), (0.0017868644, -0.0014220503, -0.99999744), (0.0015434246, -0.2550295, -0.96693206), (0.23480158, -0.68699706, -0.6876796), (0.0022777293, -0.64614123, -0.7632145), (0.0000039898723, -0.0014271595, -0.99999905), (0.0015434246, -0.2550295, -0.96693206), (0.00109304, -0.3807426, -0.9246804), (0.00109304, -0.3807426, -0.9246804), (0.0015434246, -0.2550295, -0.96693206), (0.0022777293, -0.64614123, -0.7632145), (0.00109304, -0.3807426, -0.9246804), (0.0022777293, -0.64614123, -0.7632145), (0.0021916504, -0.7633803, -0.64594567), (0.25534764, 0.002024807, -0.9668472), (0.6869982, 0.23480007, -0.68767905), (0.6462625, 0.0025291478, -0.76311105), (0.6869982, 0.23480007, -0.68767905), (0.25534764, 0.002024807, -0.9668472), (0.28476366, 0.28640294, -0.9148131), (0.28476366, 0.28640294, -0.9148131), (0.57568824, 0.5790026, -0.57735515), (0.6869982, 0.23480007, -0.68767905), (0.00045019074, 0.001432919, -0.999999), (0.28476366, 0.28640294, -0.9148131), (0.25534764, 0.002024807, -0.9668472), (0.57568824, 0.5790026, -0.57735515), (0.28476366, 0.28640294, -0.9148131), (0.23084775, 0.688337, -0.68767834), (-0.0007307692, 0.2544921, -0.96707463), (0.00045019074, 0.001432919, -0.999999), (-0.0000042050815, 0.001427159, -0.99999905), (-0.00022621421, 0.38062093, -0.92473114), (0.23084775, 0.688337, -0.68767834), (0.28476366, 0.28640294, -0.9148131), (0.28476366, 0.28640294, -0.9148131), (0.00045019074, 0.001432919, -0.999999), (-0.00022621421, 0.38062093, -0.92473114), (-0.0007307692, 0.2544921, -0.96707463), (-0.00022621421, 0.38062093, -0.92473114), (0.00045019074, 0.001432919, -0.999999), (0.23084775, 0.688337, -0.68767834), (-0.00022621421, 0.38062093, -0.92473114), (-0.0017686104, 0.76320595, -0.646153), (-0.0018546104, 0.6459358, -0.7633895), (-0.00022621421, 0.38062093, -0.92473114), (-0.0007307692, 0.2544921, -0.96707463), (-0.0018546104, 0.6459358, -0.7633895), (-0.0017686104, 0.76320595, -0.646153), (-0.00022621421, 0.38062093, -0.92473114), (0.0023484943, -0.70710367, 0.7071061), (0.0020301691, -0.7071052, 0.70710546), (0.002654813, -0.92467403, 0.3807506), (0.0023484943, -0.70710367, 0.7071061), (0.002654813, -0.92467403, 0.3807506), (0.0035874553, -0.96692574, 0.2550332), (0.0035874553, -0.96692574, 0.2550332), (0.002654813, -0.92467403, 0.3807506), (0.0028710586, -0.99999535, 0.0010236925), (0.23480701, -0.687001, 0.6876739), (0.0023484943, -0.70710367, 0.7071061), (0.0035874553, -0.96692574, 0.2550332), (0.0035874553, -0.96692574, 0.2550332), (0.0028710586, -0.99999535, 0.0010236925), (0.013895351, -0.99990016, 0.0026038713), (0.0035874553, -0.96692574, 0.2550332), (0.28821456, -0.9139864, 0.28558928), (0.23480701, -0.687001, 0.6876739), (0.28821456, -0.9139864, 0.28558928), (0.0035874553, -0.96692574, 0.2550332), (0.013895351, -0.99990016, 0.0026038713), (0.57900447, -0.5756924, 0.57734925), (0.23480701, -0.687001, 0.6876739), (0.28821456, -0.9139864, 0.28558928), (0.28821456, -0.9139864, 0.28558928), (0.68964547, -0.6856951, 0.23283362), (0.57900447, -0.5756924, 0.57734925), (0.68964547, -0.6856951, 0.23283362), (0.28821456, -0.9139864, 0.28558928), (0.3833467, -0.9236045, 0.00040666695), (0.28821456, -0.9139864, 0.28558928), (0.013895351, -0.99990016, 0.0026038713), (0.3833467, -0.9236045, 0.00040666695), (0.68964547, -0.6856951, 0.23283362), (0.3833467, -0.9236045, 0.00040666695), (0.7651545, -0.6438467, 0.00019804425), (0.64822966, -0.7614448, -0.00019811507), (0.7651545, -0.6438467, 0.00019804425), (0.3833467, -0.9236045, 0.00040666695), (0.25752226, -0.9662723, -0.00038064242), (0.3833467, -0.9236045, 0.00040666695), (0.013895351, -0.99990016, 0.0026038713), (0.3833467, -0.9236045, 0.00040666695), (0.25752226, -0.9662723, -0.00038064242), (0.64822966, -0.7614448, -0.00019811507), (0.64822966, -0.7614448, -0.00019811507), (0.25752226, -0.9662723, -0.00038064242), (0.6896479, -0.6856938, -0.23283009), (0.013895351, -0.99990016, 0.0026038713), (0.006642264, -0.99997175, -0.003530283), (0.25752226, -0.9662723, -0.00038064242), (0.25752226, -0.9662723, -0.00038064242), (0.2882103, -0.9139882, -0.28558803), (0.6896479, -0.6856938, -0.23283009), (0.25752226, -0.9662723, -0.00038064242), (0.006642264, -0.99997175, -0.003530283), (0.2882103, -0.9139882, -0.28558803), (0.6896479, -0.6856938, -0.23283009), (0.2882103, -0.9139882, -0.28558803), (0.5790083, -0.5756825, -0.5773553), (0.2882103, -0.9139882, -0.28558803), (0.23480158, -0.68699706, -0.6876796), (0.5790083, -0.5756825, -0.5773553), (0.0027765036, -0.9670712, -0.2544909), (0.006642264, -0.99997175, -0.003530283), (0.0028710603, -0.9999959, -0.00027975586), (0.2882103, -0.9139882, -0.28558803), (0.0035215986, -0.9247228, -0.38062486), (0.23480158, -0.68699706, -0.6876796), (0.006642264, -0.99997175, -0.003530283), (0.0035215986, -0.9247228, -0.38062486), (0.2882103, -0.9139882, -0.28558803), (0.006642264, -0.99997175, -0.003530283), (0.0027765036, -0.9670712, -0.2544909), (0.0035215986, -0.9247228, -0.38062486), (0.0035215986, -0.9247228, -0.38062486), (0.0022777293, -0.64614123, -0.7632145), (0.23480158, -0.68699706, -0.6876796), (0.0035215986, -0.9247228, -0.38062486), (0.0027765036, -0.9670712, -0.2544909), (0.0021916504, -0.7633803, -0.64594567), (0.0035215986, -0.9247228, -0.38062486), (0.0021916504, -0.7633803, -0.64594567), (0.0022777293, -0.64614123, -0.7632145), (-0.0017686104, 0.76320595, -0.646153), (-0.0018546104, 0.6459358, -0.7633895), (-0.0026548477, 0.92467433, -0.38074964), (-0.0017686104, 0.76320595, -0.646153), (-0.0026548477, 0.92467433, -0.38074964), (-0.0019648552, 0.9669311, -0.25503024), (-0.0019648552, 0.9669311, -0.25503024), (-0.0026548477, 0.92467433, -0.38074964), (-0.0028710598, 0.99999577, -0.00055841805), (0.23084775, 0.688337, -0.68767834), (-0.0017686104, 0.76320595, -0.646153), (-0.0019648552, 0.9669311, -0.25503024), (-0.0019648552, 0.9669311, -0.25503024), (-0.0028710598, 0.99999577, -0.00055841805), (0.0045456477, 0.99998814, -0.0017517334), (-0.0019648552, 0.9669311, -0.25503024), (0.2829551, 0.91563034, -0.28558305), (0.23084775, 0.688337, -0.68767834), (0.2829551, 0.91563034, -0.28558305), (-0.0019648552, 0.9669311, -0.25503024), (0.0045456477, 0.99998814, -0.0017517334), (0.57568824, 0.5790026, -0.57735515), (0.23084775, 0.688337, -0.68767834), (0.2829551, 0.91563034, -0.28558305), (0.2829551, 0.91563034, -0.28558305), (0.68569916, 0.68964475, -0.23282345), (0.57568824, 0.5790026, -0.57735515), (0.68569916, 0.68964475, -0.23282345), (0.2829551, 0.91563034, -0.28558305), (0.37803704, 0.9257905, -0.00040669367), (0.2829551, 0.91563034, -0.28558305), (0.0045456477, 0.99998814, -0.0017517334), (0.37803704, 0.9257905, -0.00040669367), (0.68569916, 0.68964475, -0.23282345), (0.37803704, 0.9257905, -0.00040669367), (0.7614448, 0.64822966, -0.00019811507), (0.6438467, 0.7651545, 0.00019804425), (0.7614448, 0.64822966, -0.00019811507), (0.37803704, 0.9257905, -0.00040669367), (0.25196955, 0.9677351, 0.00038060598), (0.37803704, 0.9257905, -0.00040669367), (0.0045456477, 0.99998814, -0.0017517334), (0.37803704, 0.9257905, -0.00040669367), (0.25196955, 0.9677351, 0.00038060598), (0.6438467, 0.7651545, 0.00019804425), (0.6438467, 0.7651545, 0.00019804425), (0.25196955, 0.9677351, 0.00038060598), (0.6856984, 0.6896439, 0.23282829), (0.0045456477, 0.99998814, -0.0017517334), (0.0027732595, 0.99998224, 0.005283601), (0.25196955, 0.9677351, 0.00038060598), (0.25196955, 0.9677351, 0.00038060598), (0.2829566, 0.91562945, 0.28558427), (0.6856984, 0.6896439, 0.23282829), (0.25196955, 0.9677351, 0.00038060598), (0.0027732595, 0.99998224, 0.005283601), (0.2829566, 0.91562945, 0.28558427), (0.6856984, 0.6896439, 0.23282829), (0.2829566, 0.91562945, 0.28558427), (0.5756921, 0.5790065, 0.5773475), (0.2829566, 0.91562945, 0.28558427), (0.23085217, 0.68833876, 0.68767506), (0.5756921, 0.5790065, 0.5773475), (0.0027732595, 0.99998224, 0.005283601), (-0.0028710598, 0.99999577, 0.000513687), (-0.002776529, 0.96707046, 0.25449392), (0.2829566, 0.91562945, 0.28558427), (-0.0017882746, 0.9247269, 0.38062713), (0.23085217, 0.68833876, 0.68767506), (0.0027732595, 0.99998224, 0.005283601), (-0.0017882746, 0.9247269, 0.38062713), (0.2829566, 0.91562945, 0.28558427), (0.0027732595, 0.99998224, 0.005283601), (-0.002776529, 0.96707046, 0.25449392), (-0.0017882746, 0.9247269, 0.38062713), (-0.0017882746, 0.9247269, 0.38062713), (-0.0014325144, 0.6461501, 0.76320904), (0.23085217, 0.68833876, 0.68767506), (-0.0017882746, 0.9247269, 0.38062713), (-0.002776529, 0.96707046, 0.25449392), (-0.002191726, 0.76338243, 0.6459432), (-0.0017882746, 0.9247269, 0.38062713), (-0.002191726, 0.76338243, 0.6459432), (-0.0014325144, 0.6461501, 0.76320904), (0.0028710586, -0.99999535, 0.0010236925), (0.003927757, -0.9999924, -0.00003975617), (0.013895351, -0.99990016, 0.0026038713), (0.0028710586, -0.99999535, 0.0010236925), (0.0028710603, -0.9999959, -0.00027975586), (0.003927757, -0.9999924, -0.00003975617), (0.013895351, -0.99990016, 0.0026038713), (0.003927757, -0.9999924, -0.00003975617), (-0.005676464, -0.9999837, -0.00061486504), (0.003927757, -0.9999924, -0.00003975617), (0.0028710603, -0.9999959, -0.00027975586), (0.0039452263, -0.9999923, 0.00008055996), (-0.005676464, -0.9999837, -0.00061486504), (0.006642264, -0.99997175, -0.003530283), (0.013895351, -0.99990016, 0.0026038713), (0.0028710603, -0.9999959, -0.00027975586), (0.006642264, -0.99997175, -0.003530283), (0.0039452263, -0.9999923, 0.00008055996), (0.006642264, -0.99997175, -0.003530283), (-0.005676464, -0.9999837, -0.00061486504), (-0.0057483274, -0.9999827, 0.0012359791), (0.0039452263, -0.9999923, 0.00008055996), (0.006642264, -0.99997175, -0.003530283), (-0.0057483274, -0.9999827, 0.0012359791), (-0.011435958, 0.99993455, -0.0003222402), (0.0045456477, 0.99998814, -0.0017517334), (-0.011490229, 0.99993324, 0.0012359791), (0.0045456477, 0.99998814, -0.0017517334), (-0.0017968914, 0.9999985, 0.00008055997), (-0.011490229, 0.99993324, 0.0012359791), (0.0027732595, 0.99998224, 0.005283601), (0.0045456477, 0.99998814, -0.0017517334), (-0.011435958, 0.99993455, -0.0003222402), (-0.0028710598, 0.99999577, -0.00055841805), (-0.0017968914, 0.9999985, 0.00008055997), (0.0045456477, 0.99998814, -0.0017517334), (-0.0018146286, 0.99999845, -0.00007599522), (0.0027732595, 0.99998224, 0.005283601), (-0.011435958, 0.99993455, -0.0003222402), (-0.0028710598, 0.99999577, -0.00055841805), (-0.0018146286, 0.99999845, -0.00007599522), (-0.0017968914, 0.9999985, 0.00008055997), (-0.0028710598, 0.99999577, 0.000513687), (0.0027732595, 0.99998224, 0.005283601), (-0.0018146286, 0.99999845, -0.00007599522), (-0.0018146286, 0.99999845, -0.00007599522), (-0.0028710598, 0.99999577, -0.00055841805), (-0.0028710598, 0.99999577, 0.000513687), (0.002895041, 0.6482847, 0.7613926), (-0.0069422303, 0.76136565, 0.6482855), (-0.010624678, 0.37933233, 0.92519957), (0.002895041, 0.6482847, 0.7613926), (-0.010624678, 0.37933233, 0.92519957), (0.008212718, 0.26046097, 0.96544945), (0.008212718, 0.26046097, 0.96544945), (-0.010624678, 0.37933233, 0.92519957), (-0.005085836, 0.0004368154, 0.99998707), (0.008212718, 0.26046097, 0.96544945), (-0.005085836, 0.0004368154, 0.99998707), (0.018323466, 0.00048853963, 0.9998321), (-0.005085836, 0.0004368154, 0.99998707), (0.005085837, -0.00043681526, 0.99998707), (0.018323466, 0.00048853963, 0.9998321), (0.005085837, -0.00043681526, 0.99998707), (-0.005085836, 0.0004368154, 0.99998707), (-0.018323444, -0.0004885395, 0.9998321), (-0.008213183, -0.26046067, 0.9654495), (0.005085837, -0.00043681526, 0.99998707), (-0.018323444, -0.0004885395, 0.9998321), (0.005085837, -0.00043681526, 0.99998707), (-0.008213183, -0.26046067, 0.9654495), (0.0106254695, -0.3793319, 0.92519975), (0.0106254695, -0.3793319, 0.92519975), (-0.008213183, -0.26046067, 0.9654495), (-0.002895604, -0.64828825, 0.7613895), (0.0106254695, -0.3793319, 0.92519975), (-0.002895604, -0.64828825, 0.7613895), (0.006942842, -0.7613727, 0.6482773), (-0.006617526, 0.64826554, -0.76138556), (0.0025696985, 0.76139605, -0.6482819), (0.008446731, 0.37939206, -0.9251974), (-0.006617526, 0.64826554, -0.76138556), (0.008446731, 0.37939206, -0.9251974), (-0.009709048, 0.2604033, -0.9654512), (-0.009709048, 0.2604033, -0.9654512), (0.008446731, 0.37939206, -0.9251974), (0.0050826236, 0.00046595818, -0.99998707), (-0.009709048, 0.2604033, -0.9654512), (0.0050826236, 0.00046595818, -0.99998707), (-0.018323729, 0.00038327632, -0.99983215), (0.0050826236, 0.00046595818, -0.99998707), (-0.005082625, -0.00046595806, -0.99998707), (-0.018323729, 0.00038327632, -0.99983215), (-0.005082625, -0.00046595806, -0.99998707), (0.0050826236, 0.00046595818, -0.99998707), (0.018323706, -0.00038327638, -0.99983215), (0.009709323, -0.26040325, -0.9654512), (-0.005082625, -0.00046595806, -0.99998707), (0.018323706, -0.00038327638, -0.99983215), (-0.005082625, -0.00046595806, -0.99998707), (0.009709323, -0.26040325, -0.9654512), (-0.008447527, -0.3793916, -0.9251977), (-0.008447527, -0.3793916, -0.9251977), (0.009709323, -0.26040325, -0.9654512), (0.006617498, -0.6482649, -0.7613861), (-0.008447527, -0.3793916, -0.9251977), (0.006617498, -0.6482649, -0.7613861), (-0.0025703018, -0.76139706, -0.64828074), (0.006942842, -0.7613727, 0.6482773), (-0.002895604, -0.64828825, 0.7613895), (-0.0068799243, -0.9252227, 0.37936234), (0.006942842, -0.7613727, 0.6482773), (-0.0068799243, -0.9252227, 0.37936234), (0.01173301, -0.96541935, 0.26043782), (0.01173301, -0.96541935, 0.26043782), (-0.0068799243, -0.9252227, 0.37936234), (-0.002215178, -0.9999975, 0.00050144625), (0.01173301, -0.96541935, 0.26043782), (-0.002215178, -0.9999975, 0.00050144625), (0.021195337, -0.99977523, 0.0004842496), (-0.002215178, -0.9999975, 0.00050144625), (0.007957225, -0.9999683, -0.00050144625), (0.021195337, -0.99977523, 0.0004842496), (0.007957225, -0.9999683, -0.00050144625), (-0.002215178, -0.9999975, 0.00050144625), (-0.015454183, -0.9998805, -0.0004842496), (-0.0061893775, -0.9654709, -0.2604378), (0.007957225, -0.9999683, -0.00050144625), (-0.015454183, -0.9998805, -0.0004842496), (0.007957225, -0.9999683, -0.00050144625), (-0.0061893775, -0.9654709, -0.2604378), (0.012192715, -0.92516655, -0.37936556), (0.012192715, -0.92516655, -0.37936556), (-0.0061893775, -0.9654709, -0.2604378), (-0.0025703018, -0.76139706, -0.64828074), (0.012192715, -0.92516655, -0.37936556), (-0.0025703018, -0.76139706, -0.64828074), (0.006617498, -0.6482649, -0.7613861), (0.0025696985, 0.76139605, -0.6482819), (-0.006617526, 0.64826554, -0.76138556), (-0.012192401, 0.9251628, -0.3793748), (0.0025696985, 0.76139605, -0.6482819), (-0.012192401, 0.9251628, -0.3793748), (0.0061886837, 0.96546894, -0.26044476), (0.0061886837, 0.96546894, -0.26044476), (-0.012192401, 0.9251628, -0.3793748), (-0.012662505, 0.99991935, -0.00096534606), (0.0061886837, 0.96546894, -0.26044476), (-0.012662505, 0.99991935, -0.00096534606), (0.006935989, 0.9999759, -0.00025915806), (-0.012662505, 0.99991935, -0.00096534606), (-0.012677828, 0.9999196, 0.00025915817), (0.006935989, 0.9999759, -0.00025915806), (0.006935989, 0.9999759, -0.00025915806), (-0.012677828, 0.9999196, 0.00025915817), (0.006920663, 0.9999756, 0.00096534606), (-0.011732504, 0.9654179, 0.2604433), (0.006920663, 0.9999756, 0.00096534606), (-0.012677828, 0.9999196, 0.00025915817), (0.006920663, 0.9999756, 0.00096534606), (-0.011732504, 0.9654179, 0.2604433), (0.006879371, 0.92521816, 0.3793731), (0.006879371, 0.92521816, 0.3793731), (-0.011732504, 0.9654179, 0.2604433), (-0.0069422303, 0.76136565, 0.6482855), (0.006879371, 0.92521816, 0.3793731), (-0.0069422303, 0.76136565, 0.6482855), (0.002895041, 0.6482847, 0.7613926), (-0.008213183, -0.26046067, 0.9654495), (-0.23085329, -0.68833953, 0.6876739), (-0.002895604, -0.64828825, 0.7613895), (-0.2847559, -0.28640738, 0.9148142), (-0.23085329, -0.68833953, 0.6876739), (-0.008213183, -0.26046067, 0.9654495), (-0.2847559, -0.28640738, 0.9148142), (-0.5756828, -0.5790152, 0.5773481), (-0.23085329, -0.68833953, 0.6876739), (-0.018323444, -0.0004885395, 0.9998321), (-0.2847559, -0.28640738, 0.9148142), (-0.008213183, -0.26046067, 0.9654495), (-0.68699884, -0.23480166, 0.6876778), (-0.5756828, -0.5790152, 0.5773481), (-0.2847559, -0.28640738, 0.9148142), (-0.38068643, -0.0015140572, 0.924703), (-0.68699884, -0.23480166, 0.6876778), (-0.2847559, -0.28640738, 0.9148142), (-0.38068643, -0.0015140572, 0.924703), (-0.2847559, -0.28640738, 0.9148142), (-0.018323444, -0.0004885395, 0.9998321), (-0.7632909, -0.002396558, 0.6460505), (-0.68699884, -0.23480166, 0.6876778), (-0.38068643, -0.0015140572, 0.924703), (-0.38068643, -0.0015140572, 0.924703), (-0.6460371, -0.0016497255, 0.7633043), (-0.7632909, -0.002396558, 0.6460505), (-0.018323444, -0.0004885395, 0.9998321), (-0.25475538, -0.00033731892, 0.9670055), (-0.38068643, -0.0015140572, 0.924703), (-0.6460371, -0.0016497255, 0.7633043), (-0.38068643, -0.0015140572, 0.924703), (-0.25475538, -0.00033731892, 0.9670055), (-0.25475538, -0.00033731892, 0.9670055), (-0.018323444, -0.0004885395, 0.9998321), (-0.005085836, 0.0004368154, 0.99998707), (-0.25475538, -0.00033731892, 0.9670055), (-0.68833566, 0.23085347, 0.68767774), (-0.6460371, -0.0016497255, 0.7633043), (-0.005085836, 0.0004368154, 0.99998707), (-0.2863975, 0.28477103, 0.9148125), (-0.25475538, -0.00033731892, 0.9670055), (-0.68833566, 0.23085347, 0.68767774), (-0.25475538, -0.00033731892, 0.9670055), (-0.2863975, 0.28477103, 0.9148125), (-0.2863975, 0.28477103, 0.9148125), (-0.5789979, 0.5757033, 0.57734495), (-0.68833566, 0.23085347, 0.68767774), (-0.2863975, 0.28477103, 0.9148125), (-0.005085836, 0.0004368154, 0.99998707), (-0.010624678, 0.37933233, 0.92519957), (-0.5789979, 0.5757033, 0.57734495), (-0.2863975, 0.28477103, 0.9148125), (-0.2347946, 0.68700576, 0.68767333), (-0.010624678, 0.37933233, 0.92519957), (-0.2347946, 0.68700576, 0.68767333), (-0.2863975, 0.28477103, 0.9148125), (-0.2347946, 0.68700576, 0.68767333), (-0.010624678, 0.37933233, 0.92519957), (-0.0069422303, 0.76136565, 0.6482855), (0.0106254695, -0.3793319, 0.92519975), (0.006942842, -0.7613727, 0.6482773), (0.23480491, -0.6869988, 0.6876768), (0.28640464, -0.2847635, 0.9148126), (0.0106254695, -0.3793319, 0.92519975), (0.23480491, -0.6869988, 0.6876768), (0.28640464, -0.2847635, 0.9148126), (0.23480491, -0.6869988, 0.6876768), (0.5790059, -0.5756907, 0.57734954), (0.005085837, -0.00043681526, 0.99998707), (0.0106254695, -0.3793319, 0.92519975), (0.28640464, -0.2847635, 0.9148126), (0.6883377, -0.230854, 0.68767554), (0.28640464, -0.2847635, 0.9148126), (0.5790059, -0.5756907, 0.57734954), (0.25475615, 0.00033730152, 0.9670053), (0.005085837, -0.00043681526, 0.99998707), (0.28640464, -0.2847635, 0.9148126), (0.25475615, 0.00033730152, 0.9670053), (0.28640464, -0.2847635, 0.9148126), (0.6883377, -0.230854, 0.68767554), (0.018323466, 0.00048853963, 0.9998321), (0.005085837, -0.00043681526, 0.99998707), (0.25475615, 0.00033730152, 0.9670053), (0.64603776, 0.0016496894, 0.76330376), (0.25475615, 0.00033730152, 0.9670053), (0.6883377, -0.230854, 0.68767554), (0.38068527, 0.0015140721, 0.9247034), (0.25475615, 0.00033730152, 0.9670053), (0.64603776, 0.0016496894, 0.76330376), (0.25475615, 0.00033730152, 0.9670053), (0.38068527, 0.0015140721, 0.9247034), (0.018323466, 0.00048853963, 0.9998321), (0.64603776, 0.0016496894, 0.76330376), (0.7632952, 0.0023966078, 0.6460455), (0.38068527, 0.0015140721, 0.9247034), (0.68700194, 0.2348, 0.6876753), (0.38068527, 0.0015140721, 0.9247034), (0.7632952, 0.0023966078, 0.6460455), (0.28476387, 0.28640705, 0.9148118), (0.018323466, 0.00048853963, 0.9998321), (0.38068527, 0.0015140721, 0.9247034), (0.68700194, 0.2348, 0.6876753), (0.28476387, 0.28640705, 0.9148118), (0.38068527, 0.0015140721, 0.9247034), (0.28476387, 0.28640705, 0.9148118), (0.68700194, 0.2348, 0.6876753), (0.5756907, 0.5790106, 0.57734483), (0.28476387, 0.28640705, 0.9148118), (0.008212718, 0.26046097, 0.96544945), (0.018323466, 0.00048853963, 0.9998321), (0.5756907, 0.5790106, 0.57734483), (0.23084508, 0.68834203, 0.68767416), (0.28476387, 0.28640705, 0.9148118), (0.008212718, 0.26046097, 0.96544945), (0.28476387, 0.28640705, 0.9148118), (0.23084508, 0.68834203, 0.68767416), (0.23084508, 0.68834203, 0.68767416), (0.002895041, 0.6482847, 0.7613926), (0.008212718, 0.26046097, 0.96544945), (0.009709323, -0.26040325, -0.9654512), (0.23481128, -0.6869977, -0.6876757), (0.006617498, -0.6482649, -0.7613861), (0.2864029, -0.28476587, -0.9148125), (0.23481128, -0.6869977, -0.6876757), (0.009709323, -0.26040325, -0.9654512), (0.2864029, -0.28476587, -0.9148125), (0.5790051, -0.5756911, -0.5773499), (0.23481128, -0.6869977, -0.6876757), (0.018323706, -0.00038327638, -0.99983215), (0.2864029, -0.28476587, -0.9148125), (0.009709323, -0.26040325, -0.9654512), (0.688338, -0.23086292, -0.6876723), (0.5790051, -0.5756911, -0.5773499), (0.2864029, -0.28476587, -0.9148125), (0.38069692, 0.00067188474, -0.9246997), (0.688338, -0.23086292, -0.6876723), (0.2864029, -0.28476587, -0.9148125), (0.38069692, 0.00067188474, -0.9246997), (0.2864029, -0.28476587, -0.9148125), (0.018323706, -0.00038327638, -0.99983215), (0.7632933, 0.001986388, -0.646049), (0.688338, -0.23086292, -0.6876723), (0.38069692, 0.00067188474, -0.9246997), (0.38069692, 0.00067188474, -0.9246997), (0.6460461, 0.0020599389, -0.7632957), (0.7632933, 0.001986388, -0.646049), (0.018323706, -0.00038327638, -0.99983215), (0.2547481, 0.0011255348, -0.96700686), (0.38069692, 0.00067188474, -0.9246997), (0.6460461, 0.0020599389, -0.7632957), (0.38069692, 0.00067188474, -0.9246997), (0.2547481, 0.0011255348, -0.96700686), (0.2547481, 0.0011255348, -0.96700686), (0.018323706, -0.00038327638, -0.99983215), (0.0050826236, 0.00046595818, -0.99998707), (0.2547481, 0.0011255348, -0.96700686), (0.6870061, 0.23480126, -0.68767077), (0.6460461, 0.0020599389, -0.7632957), (0.0050826236, 0.00046595818, -0.99998707), (0.28475836, 0.28640556, -0.914814), (0.2547481, 0.0011255348, -0.96700686), (0.6870061, 0.23480126, -0.68767077), (0.2547481, 0.0011255348, -0.96700686), (0.28475836, 0.28640556, -0.914814), (0.28475836, 0.28640556, -0.914814), (0.57568836, 0.5790142, -0.5773436), (0.6870061, 0.23480126, -0.68767077), (0.28475836, 0.28640556, -0.914814), (0.0050826236, 0.00046595818, -0.99998707), (0.008446731, 0.37939206, -0.9251974), (0.57568836, 0.5790142, -0.5773436), (0.28475836, 0.28640556, -0.914814), (0.23084393, 0.68834513, -0.6876715), (0.008446731, 0.37939206, -0.9251974), (0.23084393, 0.68834513, -0.6876715), (0.28475836, 0.28640556, -0.914814), (0.23084393, 0.68834513, -0.6876715), (0.008446731, 0.37939206, -0.9251974), (0.0025696985, 0.76139605, -0.6482819), (-0.008447527, -0.3793916, -0.9251977), (-0.0025703018, -0.76139706, -0.64828074), (-0.23086095, -0.688335, -0.68767595), (-0.28476968, -0.28640085, -0.9148119), (-0.008447527, -0.3793916, -0.9251977), (-0.23086095, -0.688335, -0.68767595), (-0.28476968, -0.28640085, -0.9148119), (-0.23086095, -0.688335, -0.68767595), (-0.5756946, -0.57900393, -0.5773476), (-0.005082625, -0.00046595806, -0.99998707), (-0.008447527, -0.3793916, -0.9251977), (-0.28476968, -0.28640085, -0.9148119), (-0.68700373, -0.2348041, -0.68767214), (-0.28476968, -0.28640085, -0.9148119), (-0.5756946, -0.57900393, -0.5773476), (-0.25474808, -0.001125555, -0.96700686), (-0.005082625, -0.00046595806, -0.99998707), (-0.28476968, -0.28640085, -0.9148119), (-0.25474808, -0.001125555, -0.96700686), (-0.28476968, -0.28640085, -0.9148119), (-0.68700373, -0.2348041, -0.68767214), (-0.018323729, 0.00038327632, -0.99983215), (-0.005082625, -0.00046595806, -0.99998707), (-0.25474808, -0.001125555, -0.96700686), (-0.64604676, -0.002059978, -0.7632951), (-0.25474808, -0.001125555, -0.96700686), (-0.68700373, -0.2348041, -0.68767214), (-0.3806934, -0.0006718604, -0.92470115), (-0.25474808, -0.001125555, -0.96700686), (-0.64604676, -0.002059978, -0.7632951), (-0.25474808, -0.001125555, -0.96700686), (-0.3806934, -0.0006718604, -0.92470115), (-0.018323729, 0.00038327632, -0.99983215), (-0.64604676, -0.002059978, -0.7632951), (-0.7633029, -0.0019863648, -0.64603776), (-0.3806934, -0.0006718604, -0.92470115), (-0.6883381, 0.23085697, -0.6876741), (-0.3806934, -0.0006718604, -0.92470115), (-0.7633029, -0.0019863648, -0.64603776), (-0.28640673, 0.2847638, -0.91481185), (-0.018323729, 0.00038327632, -0.99983215), (-0.3806934, -0.0006718604, -0.92470115), (-0.6883381, 0.23085697, -0.6876741), (-0.28640673, 0.2847638, -0.91481185), (-0.3806934, -0.0006718604, -0.92470115), (-0.28640673, 0.2847638, -0.91481185), (-0.6883381, 0.23085697, -0.6876741), (-0.579, 0.57569534, -0.5773507), (-0.28640673, 0.2847638, -0.91481185), (-0.009709048, 0.2604033, -0.9654512), (-0.018323729, 0.00038327632, -0.99983215), (-0.579, 0.57569534, -0.5773507), (-0.2348027, 0.68699884, -0.68767744), (-0.28640673, 0.2847638, -0.91481185), (-0.009709048, 0.2604033, -0.9654512), (-0.28640673, 0.2847638, -0.91481185), (-0.2348027, 0.68699884, -0.68767744), (-0.2348027, 0.68699884, -0.68767744), (-0.006617526, 0.64826554, -0.76138556), (-0.009709048, 0.2604033, -0.9654512), (-0.0061893775, -0.9654709, -0.2604378), (-0.23086095, -0.688335, -0.68767595), (-0.0025703018, -0.76139706, -0.64828074), (-0.28296775, -0.9156247, -0.2855884), (-0.23086095, -0.688335, -0.68767595), (-0.0061893775, -0.9654709, -0.2604378), (-0.28296775, -0.9156247, -0.2855884), (-0.5756946, -0.57900393, -0.5773476), (-0.23086095, -0.688335, -0.68767595), (-0.015454183, -0.9998805, -0.0004842496), (-0.28296775, -0.9156247, -0.2855884), (-0.0061893775, -0.9654709, -0.2604378), (-0.68569744, -0.6896439, -0.23283099), (-0.5756946, -0.57900393, -0.5773476), (-0.28296775, -0.9156247, -0.2855884), (-0.37802607, -0.9257949, -0.00046779384), (-0.68569744, -0.6896439, -0.23283099), (-0.28296775, -0.9156247, -0.2855884), (-0.37802607, -0.9257949, -0.00046779384), (-0.28296775, -0.9156247, -0.2855884), (-0.015454183, -0.9998805, -0.0004842496), (-0.7614332, -0.6482434, -0.00022789654), (-0.68569744, -0.6896439, -0.23283099), (-0.37802607, -0.9257949, -0.00046779384), (-0.37802607, -0.9257949, -0.00046779384), (-0.64385873, -0.7651445, 0.00022795185), (-0.7614332, -0.6482434, -0.00022789654), (-0.015454183, -0.9998805, -0.0004842496), (-0.2520078, -0.9677252, 0.00043785496), (-0.37802607, -0.9257949, -0.00046779384), (-0.64385873, -0.7651445, 0.00022795185), (-0.37802607, -0.9257949, -0.00046779384), (-0.2520078, -0.9677252, 0.00043785496), (-0.2520078, -0.9677252, 0.00043785496), (-0.015454183, -0.9998805, -0.0004842496), (-0.002215178, -0.9999975, 0.00050144625), (-0.2520078, -0.9677252, 0.00043785496), (-0.68569624, -0.6896442, 0.23283356), (-0.64385873, -0.7651445, 0.00022795185), (-0.002215178, -0.9999975, 0.00050144625), (-0.2829613, -0.9156257, 0.28559166), (-0.2520078, -0.9677252, 0.00043785496), (-0.68569624, -0.6896442, 0.23283356), (-0.2520078, -0.9677252, 0.00043785496), (-0.2829613, -0.9156257, 0.28559166), (-0.2829613, -0.9156257, 0.28559166), (-0.5756828, -0.5790152, 0.5773481), (-0.68569624, -0.6896442, 0.23283356), (-0.2829613, -0.9156257, 0.28559166), (-0.002215178, -0.9999975, 0.00050144625), (-0.0068799243, -0.9252227, 0.37936234), (-0.5756828, -0.5790152, 0.5773481), (-0.2829613, -0.9156257, 0.28559166), (-0.23085329, -0.68833953, 0.6876739), (-0.0068799243, -0.9252227, 0.37936234), (-0.23085329, -0.68833953, 0.6876739), (-0.2829613, -0.9156257, 0.28559166), (-0.23085329, -0.68833953, 0.6876739), (-0.0068799243, -0.9252227, 0.37936234), (-0.002895604, -0.64828825, 0.7613895), (0.012192715, -0.92516655, -0.37936556), (0.006617498, -0.6482649, -0.7613861), (0.23481128, -0.6869977, -0.6876757), (0.28821725, -0.9139848, -0.285592), (0.012192715, -0.92516655, -0.37936556), (0.23481128, -0.6869977, -0.6876757), (0.28821725, -0.9139848, -0.285592), (0.23481128, -0.6869977, -0.6876757), (0.5790051, -0.5756911, -0.5773499), (0.007957225, -0.9999683, -0.00050144625), (0.012192715, -0.92516655, -0.37936556), (0.28821725, -0.9139848, -0.285592), (0.6896467, -0.6856914, -0.2328403), (0.28821725, -0.9139848, -0.285592), (0.5790051, -0.5756911, -0.5773499), (0.25756115, -0.9662619, -0.0004378645), (0.007957225, -0.9999683, -0.00050144625), (0.28821725, -0.9139848, -0.285592), (0.25756115, -0.9662619, -0.0004378645), (0.28821725, -0.9139848, -0.285592), (0.6896467, -0.6856914, -0.2328403), (0.021195337, -0.99977523, 0.0004842496), (0.007957225, -0.9999683, -0.00050144625), (0.25756115, -0.9662619, -0.0004378645), (0.64824164, -0.76143473, -0.00022795187), (0.25756115, -0.9662619, -0.0004378645), (0.6896467, -0.6856914, -0.2328403), (0.38333708, -0.9236085, 0.00046779058), (0.25756115, -0.9662619, -0.0004378645), (0.64824164, -0.76143473, -0.00022795187), (0.25756115, -0.9662619, -0.0004378645), (0.38333708, -0.9236085, 0.00046779058), (0.021195337, -0.99977523, 0.0004842496), (0.64824164, -0.76143473, -0.00022795187), (0.76513934, -0.6438647, 0.00022787365), (0.38333708, -0.9236085, 0.00046779058), (0.6896436, -0.685697, 0.23283322), (0.38333708, -0.9236085, 0.00046779058), (0.76513934, -0.6438647, 0.00022787365), (0.28821778, -0.91398525, 0.28558967), (0.021195337, -0.99977523, 0.0004842496), (0.38333708, -0.9236085, 0.00046779058), (0.6896436, -0.685697, 0.23283322), (0.28821778, -0.91398525, 0.28558967), (0.38333708, -0.9236085, 0.00046779058), (0.28821778, -0.91398525, 0.28558967), (0.6896436, -0.685697, 0.23283322), (0.5790059, -0.5756907, 0.57734954), (0.28821778, -0.91398525, 0.28558967), (0.01173301, -0.96541935, 0.26043782), (0.021195337, -0.99977523, 0.0004842496), (0.5790059, -0.5756907, 0.57734954), (0.23480491, -0.6869988, 0.6876768), (0.28821778, -0.91398525, 0.28558967), (0.01173301, -0.96541935, 0.26043782), (0.28821778, -0.91398525, 0.28558967), (0.23480491, -0.6869988, 0.6876768), (0.23480491, -0.6869988, 0.6876768), (0.006942842, -0.7613727, 0.6482773), (0.01173301, -0.96541935, 0.26043782), (0.006879371, 0.92521816, 0.3793731), (0.002895041, 0.6482847, 0.7613926), (0.23084508, 0.68834203, 0.68767416), (0.28296062, 0.9156279, 0.28558543), (0.006879371, 0.92521816, 0.3793731), (0.23084508, 0.68834203, 0.68767416), (0.28296062, 0.9156279, 0.28558543), (0.23084508, 0.68834203, 0.68767416), (0.5756907, 0.5790106, 0.57734483), (0.006920663, 0.9999756, 0.00096534606), (0.006879371, 0.92521816, 0.3793731), (0.28296062, 0.9156279, 0.28558543), (0.68569577, 0.6896489, 0.23282108), (0.28296062, 0.9156279, 0.28558543), (0.5756907, 0.5790106, 0.57734483), (0.25201437, 0.9677234, 0.00043779874), (0.006920663, 0.9999756, 0.00096534606), (0.28296062, 0.9156279, 0.28558543), (0.25201437, 0.9677234, 0.00043779874), (0.28296062, 0.9156279, 0.28558543), (0.68569577, 0.6896489, 0.23282108), (0.006935989, 0.9999759, -0.00025915806), (0.006920663, 0.9999756, 0.00096534606), (0.25201437, 0.9677234, 0.00043779874), (0.64386535, 0.7651389, 0.00022781898), (0.25201437, 0.9677234, 0.00043779874), (0.68569577, 0.6896489, 0.23282108), (0.37803742, 0.9257902, -0.00046780444), (0.25201437, 0.9677234, 0.00043779874), (0.64386535, 0.7651389, 0.00022781898), (0.25201437, 0.9677234, 0.00043779874), (0.37803742, 0.9257902, -0.00046780444), (0.006935989, 0.9999759, -0.00025915806), (0.64386535, 0.7651389, 0.00022781898), (0.7614327, 0.6482441, -0.00022792397), (0.37803742, 0.9257902, -0.00046780444), (0.68569446, 0.68964976, -0.23282252), (0.37803742, 0.9257902, -0.00046780444), (0.7614327, 0.6482441, -0.00022792397), (0.2829576, 0.91562873, -0.28558528), (0.006935989, 0.9999759, -0.00025915806), (0.37803742, 0.9257902, -0.00046780444), (0.68569446, 0.68964976, -0.23282252), (0.2829576, 0.91562873, -0.28558528), (0.37803742, 0.9257902, -0.00046780444), (0.2829576, 0.91562873, -0.28558528), (0.68569446, 0.68964976, -0.23282252), (0.57568836, 0.5790142, -0.5773436), (0.2829576, 0.91562873, -0.28558528), (0.0061886837, 0.96546894, -0.26044476), (0.006935989, 0.9999759, -0.00025915806), (0.57568836, 0.5790142, -0.5773436), (0.23084393, 0.68834513, -0.6876715), (0.2829576, 0.91562873, -0.28558528), (0.0061886837, 0.96546894, -0.26044476), (0.2829576, 0.91562873, -0.28558528), (0.23084393, 0.68834513, -0.6876715), (0.23084393, 0.68834513, -0.6876715), (0.0025696985, 0.76139605, -0.6482819), (0.0061886837, 0.96546894, -0.26044476), (-0.2348027, 0.68699884, -0.68767744), (-0.012192401, 0.9251628, -0.3793748), (-0.006617526, 0.64826554, -0.76138556), (-0.012192401, 0.9251628, -0.3793748), (-0.2348027, 0.68699884, -0.68767744), (-0.28822267, 0.9139818, -0.2855958), (-0.579, 0.57569534, -0.5773507), (-0.28822267, 0.9139818, -0.2855958), (-0.2348027, 0.68699884, -0.68767744), (-0.28822267, 0.9139818, -0.2855958), (-0.012662505, 0.99991935, -0.00096534606), (-0.012192401, 0.9251628, -0.3793748), (-0.28822267, 0.9139818, -0.2855958), (-0.579, 0.57569534, -0.5773507), (-0.68964577, 0.6856971, -0.23282667), (-0.012662505, 0.99991935, -0.00096534606), (-0.28822267, 0.9139818, -0.2855958), (-0.2575655, 0.96626073, -0.00043784152), (-0.68964577, 0.6856971, -0.23282667), (-0.2575655, 0.96626073, -0.00043784152), (-0.28822267, 0.9139818, -0.2855958), (-0.2575655, 0.96626073, -0.00043784152), (-0.012677828, 0.9999196, 0.00025915817), (-0.012662505, 0.99991935, -0.00096534606), (-0.2575655, 0.96626073, -0.00043784152), (-0.68964577, 0.6856971, -0.23282667), (-0.6482518, 0.76142603, -0.00022789967), (-0.6482518, 0.76142603, -0.00022789967), (-0.38334605, 0.92360467, 0.00046780385), (-0.2575655, 0.96626073, -0.00043784152), (-0.012677828, 0.9999196, 0.00025915817), (-0.2575655, 0.96626073, -0.00043784152), (-0.38334605, 0.92360467, 0.00046780385), (-0.38334605, 0.92360467, 0.00046780385), (-0.6482518, 0.76142603, -0.00022789967), (-0.7651477, 0.64385486, 0.00022791508), (-0.7651477, 0.64385486, 0.00022791508), (-0.68964183, 0.68570125, 0.23282583), (-0.38334605, 0.92360467, 0.00046780385), (-0.38334605, 0.92360467, 0.00046780385), (-0.28821135, 0.9139882, 0.28558728), (-0.012677828, 0.9999196, 0.00025915817), (-0.38334605, 0.92360467, 0.00046780385), (-0.68964183, 0.68570125, 0.23282583), (-0.28821135, 0.9139882, 0.28558728), (-0.68964183, 0.68570125, 0.23282583), (-0.5789979, 0.5757033, 0.57734495), (-0.28821135, 0.9139882, 0.28558728), (-0.012677828, 0.9999196, 0.00025915817), (-0.28821135, 0.9139882, 0.28558728), (-0.011732504, 0.9654179, 0.2604433), (-0.28821135, 0.9139882, 0.28558728), (-0.5789979, 0.5757033, 0.57734495), (-0.2347946, 0.68700576, 0.68767333), (-0.28821135, 0.9139882, 0.28558728), (-0.2347946, 0.68700576, 0.68767333), (-0.011732504, 0.9654179, 0.2604433), (-0.011732504, 0.9654179, 0.2604433), (-0.2347946, 0.68700576, 0.68767333), (-0.0069422303, 0.76136565, 0.6482855), (0.688338, -0.23086292, -0.6876723), (0.91562593, -0.2829637, -0.28558847), (0.5790051, -0.5756911, -0.5773499), (0.91562593, -0.2829637, -0.28558847), (0.6896467, -0.6856914, -0.2328403), (0.5790051, -0.5756911, -0.5773499), (0.96700144, 0.0023821932, -0.25475973), (0.91562593, -0.2829637, -0.28558847), (0.688338, -0.23086292, -0.6876723), (0.7632933, 0.001986388, -0.646049), (0.96700144, 0.0023821932, -0.25475973), (0.688338, -0.23086292, -0.6876723), (0.91562593, -0.2829637, -0.28558847), (0.9257937, -0.3780289, -0.00046789026), (0.6896467, -0.6856914, -0.2328403), (0.9257937, -0.3780289, -0.00046789026), (0.64824164, -0.76143473, -0.00022795187), (0.6896467, -0.6856914, -0.2328403), (0.9257937, -0.3780289, -0.00046789026), (0.76513934, -0.6438647, 0.00022787365), (0.64824164, -0.76143473, -0.00022795187), (0.999997, 0.0024343324, -0.00024336847), (0.9257937, -0.3780289, -0.00046789026), (0.91562593, -0.2829637, -0.28558847), (0.96700144, 0.0023821932, -0.25475973), (0.999997, 0.0024343324, -0.00024336847), (0.91562593, -0.2829637, -0.28558847), (0.76513934, -0.6438647, 0.00022787365), (0.9257937, -0.3780289, -0.00046789026), (0.9677254, -0.252007, 0.00043779155), (0.999997, 0.0024343324, -0.00024336847), (0.9677254, -0.252007, 0.00043779155), (0.9257937, -0.3780289, -0.00046789026), (0.9677254, -0.252007, 0.00043779155), (0.6896436, -0.685697, 0.23283322), (0.76513934, -0.6438647, 0.00022787365), (0.9246937, 0.003075989, -0.3806996), (0.96700144, 0.0023821932, -0.25475973), (0.7632933, 0.001986388, -0.646049), (0.7632933, 0.001986388, -0.646049), (0.6460461, 0.0020599389, -0.7632957), (0.9246937, 0.003075989, -0.3806996), (0.6870061, 0.23480126, -0.68767077), (0.9246937, 0.003075989, -0.3806996), (0.6460461, 0.0020599389, -0.7632957), (0.9156258, -0.28296322, 0.2855893), (0.6896436, -0.685697, 0.23283322), (0.9677254, -0.252007, 0.00043779155), (0.9156258, -0.28296322, 0.2855893), (0.5790059, -0.5756907, 0.57734954), (0.6896436, -0.685697, 0.23283322), (0.6883377, -0.230854, 0.68767554), (0.5790059, -0.5756907, 0.57734954), (0.9156258, -0.28296322, 0.2855893), (0.6870061, 0.23480126, -0.68767077), (0.91398746, 0.28821442, -0.28558627), (0.9246937, 0.003075989, -0.3806996), (0.91398746, 0.28821442, -0.28558627), (0.6870061, 0.23480126, -0.68767077), (0.57568836, 0.5790142, -0.5773436), (0.57568836, 0.5790142, -0.5773436), (0.68569446, 0.68964976, -0.23282252), (0.91398746, 0.28821442, -0.28558627), (0.96700144, 0.0023821932, -0.25475973), (0.9246937, 0.003075989, -0.3806996), (0.9999941, 0.0033070482, -0.00096542167), (0.91398746, 0.28821442, -0.28558627), (0.9999941, 0.0033070482, -0.00096542167), (0.9246937, 0.003075989, -0.3806996), (0.9999941, 0.0033070482, -0.00096542167), (0.999997, 0.0024343324, -0.00024336847), (0.96700144, 0.0023821932, -0.25475973), (0.9662615, 0.25756252, -0.0004378774), (0.91398746, 0.28821442, -0.28558627), (0.68569446, 0.68964976, -0.23282252), (0.91398746, 0.28821442, -0.28558627), (0.9662615, 0.25756252, -0.0004378774), (0.9999941, 0.0033070482, -0.00096542167), (0.68569446, 0.68964976, -0.23282252), (0.7614327, 0.6482441, -0.00022792397), (0.9662615, 0.25756252, -0.0004378774), (0.9999945, 0.0033077872, 0.00024324945), (0.999997, 0.0024343324, -0.00024336847), (0.9999941, 0.0033070482, -0.00096542167), (0.9662615, 0.25756252, -0.0004378774), (0.9999945, 0.0033077872, 0.00024324945), (0.9999941, 0.0033070482, -0.00096542167), (0.7614327, 0.6482441, -0.00022792397), (0.92360777, 0.38333872, 0.00046770522), (0.9662615, 0.25756252, -0.0004378774), (0.9662615, 0.25756252, -0.0004378774), (0.92360777, 0.38333872, 0.00046770522), (0.9999945, 0.0033077872, 0.00024324945), (0.7614327, 0.6482441, -0.00022792397), (0.64386535, 0.7651389, 0.00022781898), (0.92360777, 0.38333872, 0.00046770522), (0.68569577, 0.6896489, 0.23282108), (0.92360777, 0.38333872, 0.00046770522), (0.64386535, 0.7651389, 0.00022781898), (0.92360777, 0.38333872, 0.00046770522), (0.68569577, 0.6896489, 0.23282108), (0.9139869, 0.28821468, 0.2855878), (0.9139869, 0.28821468, 0.2855878), (0.9999945, 0.0033077872, 0.00024324945), (0.92360777, 0.38333872, 0.00046770522), (0.5756907, 0.5790106, 0.57734483), (0.9139869, 0.28821468, 0.2855878), (0.68569577, 0.6896489, 0.23282108), (0.9139869, 0.28821468, 0.2855878), (0.5756907, 0.5790106, 0.57734483), (0.68700194, 0.2348, 0.6876753), (0.68700194, 0.2348, 0.6876753), (0.96699995, 0.0031704581, 0.25475684), (0.9139869, 0.28821468, 0.2855878), (0.9999945, 0.0033077872, 0.00024324945), (0.9139869, 0.28821468, 0.2855878), (0.96699995, 0.0031704581, 0.25475684), (0.96699995, 0.0031704581, 0.25475684), (0.68700194, 0.2348, 0.6876753), (0.7632952, 0.0023966078, 0.6460455), (0.999997, 0.0024343324, -0.00024336847), (0.9999945, 0.0033077872, 0.00024324945), (0.9999966, 0.0024350693, 0.00096530316), (0.96699995, 0.0031704581, 0.25475684), (0.9999966, 0.0024350693, 0.00096530316), (0.9999945, 0.0033077872, 0.00024324945), (0.999997, 0.0024343324, -0.00024336847), (0.9999966, 0.0024350693, 0.00096530316), (0.9677254, -0.252007, 0.00043779155), (0.9999966, 0.0024350693, 0.00096530316), (0.9156258, -0.28296322, 0.2855893), (0.9677254, -0.252007, 0.00043779155), (0.7632952, 0.0023966078, 0.6460455), (0.92469984, 0.0022337704, 0.3806904), (0.96699995, 0.0031704581, 0.25475684), (0.9999966, 0.0024350693, 0.00096530316), (0.96699995, 0.0031704581, 0.25475684), (0.92469984, 0.0022337704, 0.3806904), (0.92469984, 0.0022337704, 0.3806904), (0.9156258, -0.28296322, 0.2855893), (0.9999966, 0.0024350693, 0.00096530316), (0.92469984, 0.0022337704, 0.3806904), (0.7632952, 0.0023966078, 0.6460455), (0.64603776, 0.0016496894, 0.76330376), (0.92469984, 0.0022337704, 0.3806904), (0.6883377, -0.230854, 0.68767554), (0.9156258, -0.28296322, 0.2855893), (0.64603776, 0.0016496894, 0.76330376), (0.6883377, -0.230854, 0.68767554), (0.92469984, 0.0022337704, 0.3806904), (-0.68699884, -0.23480166, 0.6876778), (-0.91398734, -0.28821582, 0.28558484), (-0.5756828, -0.5790152, 0.5773481), (-0.91398734, -0.28821582, 0.28558484), (-0.68569624, -0.6896442, 0.23283356), (-0.5756828, -0.5790152, 0.5773481), (-0.96699995, -0.0031704425, 0.2547568), (-0.91398734, -0.28821582, 0.28558484), (-0.68699884, -0.23480166, 0.6876778), (-0.7632909, -0.002396558, 0.6460505), (-0.96699995, -0.0031704425, 0.2547568), (-0.68699884, -0.23480166, 0.6876778), (-0.91398734, -0.28821582, 0.28558484), (-0.9236101, -0.383333, 0.0004678381), (-0.68569624, -0.6896442, 0.23283356), (-0.9236101, -0.383333, 0.0004678381), (-0.64385873, -0.7651445, 0.00022795185), (-0.68569624, -0.6896442, 0.23283356), (-0.9236101, -0.383333, 0.0004678381), (-0.7614332, -0.6482434, -0.00022789654), (-0.64385873, -0.7651445, 0.00022795185), (-0.9999945, -0.0033078007, 0.0002433684), (-0.9236101, -0.383333, 0.0004678381), (-0.91398734, -0.28821582, 0.28558484), (-0.96699995, -0.0031704425, 0.2547568), (-0.9999945, -0.0033078007, 0.0002433684), (-0.91398734, -0.28821582, 0.28558484), (-0.7614332, -0.6482434, -0.00022789654), (-0.9236101, -0.383333, 0.0004678381), (-0.9662624, -0.25755963, -0.00043779152), (-0.9999945, -0.0033078007, 0.0002433684), (-0.9662624, -0.25755963, -0.00043779152), (-0.9236101, -0.383333, 0.0004678381), (-0.9662624, -0.25755963, -0.00043779152), (-0.68569744, -0.6896439, -0.23283099), (-0.7614332, -0.6482434, -0.00022789654), (-0.9246984, -0.0022337793, 0.3806939), (-0.96699995, -0.0031704425, 0.2547568), (-0.7632909, -0.002396558, 0.6460505), (-0.7632909, -0.002396558, 0.6460505), (-0.6460371, -0.0016497255, 0.7633043), (-0.9246984, -0.0022337793, 0.3806939), (-0.68833566, 0.23085347, 0.68767774), (-0.9246984, -0.0022337793, 0.3806939), (-0.6460371, -0.0016497255, 0.7633043), (-0.9139873, -0.28821447, -0.28558636), (-0.68569744, -0.6896439, -0.23283099), (-0.9662624, -0.25755963, -0.00043779152), (-0.9139873, -0.28821447, -0.28558636), (-0.5756946, -0.57900393, -0.5773476), (-0.68569744, -0.6896439, -0.23283099), (-0.68700373, -0.2348041, -0.68767214), (-0.5756946, -0.57900393, -0.5773476), (-0.9139873, -0.28821447, -0.28558636), (-0.68833566, 0.23085347, 0.68767774), (-0.9156264, 0.2829649, 0.28558597), (-0.9246984, -0.0022337793, 0.3806939), (-0.9156264, 0.2829649, 0.28558597), (-0.68833566, 0.23085347, 0.68767774), (-0.5789979, 0.5757033, 0.57734495), (-0.5789979, 0.5757033, 0.57734495), (-0.68964183, 0.68570125, 0.23282583), (-0.9156264, 0.2829649, 0.28558597), (-0.96699995, -0.0031704425, 0.2547568), (-0.9246984, -0.0022337793, 0.3806939), (-0.9999966, -0.002435069, 0.00096542155), (-0.9156264, 0.2829649, 0.28558597), (-0.9999966, -0.002435069, 0.00096542155), (-0.9246984, -0.0022337793, 0.3806939), (-0.9999966, -0.002435069, 0.00096542155), (-0.9999945, -0.0033078007, 0.0002433684), (-0.96699995, -0.0031704425, 0.2547568), (-0.96772456, 0.2520099, 0.0004378487), (-0.9156264, 0.2829649, 0.28558597), (-0.68964183, 0.68570125, 0.23282583), (-0.9156264, 0.2829649, 0.28558597), (-0.96772456, 0.2520099, 0.0004378487), (-0.9999966, -0.002435069, 0.00096542155), (-0.68964183, 0.68570125, 0.23282583), (-0.7651477, 0.64385486, 0.00022791508), (-0.96772456, 0.2520099, 0.0004378487), (-0.999997, -0.0024343191, -0.00024326431), (-0.9999945, -0.0033078007, 0.0002433684), (-0.9999966, -0.002435069, 0.00096542155), (-0.96772456, 0.2520099, 0.0004378487), (-0.999997, -0.0024343191, -0.00024326431), (-0.9999966, -0.002435069, 0.00096542155), (-0.7651477, 0.64385486, 0.00022791508), (-0.9257948, 0.37802604, -0.00046772673), (-0.96772456, 0.2520099, 0.0004378487), (-0.96772456, 0.2520099, 0.0004378487), (-0.9257948, 0.37802604, -0.00046772673), (-0.999997, -0.0024343191, -0.00024326431), (-0.7651477, 0.64385486, 0.00022791508), (-0.6482518, 0.76142603, -0.00022789967), (-0.9257948, 0.37802604, -0.00046772673), (-0.68964577, 0.6856971, -0.23282667), (-0.9257948, 0.37802604, -0.00046772673), (-0.6482518, 0.76142603, -0.00022789967), (-0.9257948, 0.37802604, -0.00046772673), (-0.68964577, 0.6856971, -0.23282667), (-0.9156265, 0.28296423, -0.28558618), (-0.9156265, 0.28296423, -0.28558618), (-0.999997, -0.0024343191, -0.00024326431), (-0.9257948, 0.37802604, -0.00046772673), (-0.579, 0.57569534, -0.5773507), (-0.9156265, 0.28296423, -0.28558618), (-0.68964577, 0.6856971, -0.23282667), (-0.9156265, 0.28296423, -0.28558618), (-0.579, 0.57569534, -0.5773507), (-0.6883381, 0.23085697, -0.6876741), (-0.6883381, 0.23085697, -0.6876741), (-0.9670019, -0.0023822181, -0.25475824), (-0.9156265, 0.28296423, -0.28558618), (-0.999997, -0.0024343191, -0.00024326431), (-0.9156265, 0.28296423, -0.28558618), (-0.9670019, -0.0023822181, -0.25475824), (-0.9670019, -0.0023822181, -0.25475824), (-0.6883381, 0.23085697, -0.6876741), (-0.7633029, -0.0019863648, -0.64603776), (-0.9999945, -0.0033078007, 0.0002433684), (-0.999997, -0.0024343191, -0.00024326431), (-0.9999941, -0.0033070748, -0.0009653622), (-0.9670019, -0.0023822181, -0.25475824), (-0.9999941, -0.0033070748, -0.0009653622), (-0.999997, -0.0024343191, -0.00024326431), (-0.9999945, -0.0033078007, 0.0002433684), (-0.9999941, -0.0033070748, -0.0009653622), (-0.9662624, -0.25755963, -0.00043779152), (-0.9999941, -0.0033070748, -0.0009653622), (-0.9139873, -0.28821447, -0.28558636), (-0.9662624, -0.25755963, -0.00043779152), (-0.7633029, -0.0019863648, -0.64603776), (-0.9246992, -0.0030759706, -0.38068646), (-0.9670019, -0.0023822181, -0.25475824), (-0.9999941, -0.0033070748, -0.0009653622), (-0.9670019, -0.0023822181, -0.25475824), (-0.9246992, -0.0030759706, -0.38068646), (-0.9246992, -0.0030759706, -0.38068646), (-0.9139873, -0.28821447, -0.28558636), (-0.9999941, -0.0033070748, -0.0009653622), (-0.9246992, -0.0030759706, -0.38068646), (-0.7633029, -0.0019863648, -0.64603776), (-0.64604676, -0.002059978, -0.7632951), (-0.9246992, -0.0030759706, -0.38068646), (-0.68700373, -0.2348041, -0.68767214), (-0.9139873, -0.28821447, -0.28558636), (-0.64604676, -0.002059978, -0.7632951), (-0.68700373, -0.2348041, -0.68767214), (-0.9246992, -0.0030759706, -0.38068646)] (
        interpolation = "faceVarying"
    )
    point3f[] points = [(-0.0952534, 0.04289902, 0.14999217), (0.04347489, -0.04341826, 0.14999215), (0.043225925, 0.043296605, 0.14999215), (-0.09500443, -0.043815844, 0.14999217), (0.045225907, 0.043302346, 0.14799216), (0.045474857, -0.043412518, -0.1479922), (0.045225892, 0.043302346, -0.1479922), (0.045474872, -0.043412518, 0.14799216), (0.04322591, 0.043296605, -0.1499922), (-0.09500444, -0.043815844, -0.14999218), (-0.09525341, 0.04289902, -0.14999218), (0.043474875, -0.04341826, -0.1499922), (0.012987707, 0.043209787, -0.13061026), (0.029127434, -0.043459453, -0.13061026), (0.028878469, 0.04325541, -0.13061026), (0.013236672, -0.043505076, -0.13061026), (0.029127449, -0.043459453, 0.13061021), (0.028878484, 0.04325541, 0.13061021), (0.013236694, -0.043505076, 0.13061023), (0.012987729, 0.043209787, 0.13061023), (0.044349883, -0.043415748, 0.14986716), (0.044100918, 0.043299116, 0.14986716), (0.044974882, -0.043413952, 0.14949216), (0.044725917, 0.04330091, 0.14949216), (0.045349866, -0.043412875, -0.1488672), (0.0451009, 0.04330199, -0.1488672), (0.044974867, -0.043413952, -0.1494922), (0.044725902, 0.04330091, -0.1494922), (0.03113318, -0.045453697, 0.13261022), (0.0112424325, -0.045510806, 0.13261022), (0.012117081, -0.045383297, 0.13173522), (0.030257829, -0.045331214, 0.13173522), (0.012741001, -0.0450065, 0.13111022), (0.029631762, -0.04495801, 0.13111022), (0.03087273, 0.045261145, 0.13261022), (0.030872716, 0.045261145, -0.13261026), (0.029998083, 0.04513363, -0.13173527), (0.029998098, 0.04513363, 0.13173522), (0.029374162, 0.044756837, -0.13111027), (0.02937417, 0.044756837, 0.13111022), (0.010981984, 0.045204036, 0.13261022), (0.01185735, 0.04508155, 0.13173522), (0.012483424, 0.04470834, 0.13111022), (0.010981977, 0.045204036, -0.13261025), (0.011857328, 0.04508155, -0.13173525), (0.012483409, 0.04470834, -0.13111025), (0.029000957, 0.044130765, -0.13073526), (0.029000971, 0.044130765, 0.13073522), (0.012860204, 0.044084422, 0.13073522), (0.012860197, 0.044084422, -0.13073525), (0.045100916, 0.04330199, 0.14886716), (0.04534988, -0.043412875, 0.14886716), (0.044100903, 0.043299116, -0.14986719), (0.044349868, -0.043415748, -0.14986719), (0.031133166, -0.045453697, -0.13261026), (0.012117059, -0.045383297, -0.13173525), (0.011242425, -0.045510806, -0.13261025), (0.030257814, -0.045331214, -0.13173527), (0.012740986, -0.0450065, -0.13111025), (0.02963174, -0.044958007, -0.13111027), (0.029254945, -0.044334084, -0.13073526), (0.013114186, -0.044380426, -0.13073525), (0.02925496, -0.044334084, 0.13073522), (0.013114193, -0.044380426, 0.13073522), (0.04491436, -0.044101633, 0.14942966), (0.044289723, -0.044228423, 0.14974216), (0.044728473, -0.04466466, 0.14924216), (0.04416651, -0.044853777, 0.14942966), (0.043477405, -0.04429325, 0.14986716), (0.043479197, -0.04491825, 0.14949216), (-0.09500192, -0.04469084, 0.14986716), (-0.095000125, -0.045315836, 0.14949216), (0.044661447, 0.043988243, 0.14942966), (0.044036105, 0.044111434, 0.14974216), (0.044472333, 0.0445502, 0.14924216), (0.043909308, 0.044736072, 0.14942966), (0.043223415, 0.044171598, 0.14986716), (0.04322162, 0.044796593, 0.14949216), (-0.09525591, 0.043774012, 0.14986716), (-0.09525771, 0.044399012, 0.14949216), (0.04522721, -0.044225734, 0.14880466), (0.044916514, -0.044851623, 0.14867966), (0.045352396, -0.044287868, 0.14799216), (0.04497919, -0.04491394, 0.14799216), (0.04535238, -0.044287868, -0.1479922), (0.044979174, -0.04491394, -0.1479922), (0.0449165, -0.044851623, -0.14867972), (0.045227196, -0.044225734, -0.14880468), (0.044728458, -0.044664662, -0.1492422), (0.044914346, -0.044101633, -0.1494297), (0.044661433, 0.043988243, -0.1494297), (0.044973563, 0.044114128, -0.14880472), (0.04447232, 0.0445502, -0.1492422), (0.04465928, 0.044738226, -0.14867972), (0.04509839, 0.04417698, -0.1479922), (0.044721596, 0.0448009, -0.1479922), (0.045098405, 0.04417698, 0.14799216), (0.04472161, 0.0448009, 0.14799216), (0.044659294, 0.044738226, 0.14867967), (0.04497358, 0.044114128, 0.14880466), (0.04428971, -0.044228423, -0.1497422), (0.044166494, -0.044853777, -0.1494297), (0.04347739, -0.044293255, -0.14986719), (0.04347918, -0.04491825, -0.1494922), (-0.09500193, -0.04469084, -0.14986718), (-0.09500013, -0.045315832, -0.14949219), (0.044036075, 0.044111446, -0.1497422), (0.043909293, 0.044736072, -0.1494297), (-0.09525592, 0.04377402, -0.14986718), (0.0432234, 0.044171605, -0.14986719), (0.043221604, 0.044796593, -0.1494922), (-0.095257714, 0.044399012, -0.14949219), (-0.09499905, -0.045690835, 0.14886716), (0.043480273, -0.04529325, 0.14886716), (-0.094998695, -0.045815833, 0.14799216), (0.043480635, -0.045418248, 0.14799216), (0.044292413, -0.045165915, 0.14880466), (0.044355266, -0.04529074, 0.14799216), (0.04435525, -0.04529074, -0.1479922), (0.04348062, -0.045418248, -0.1479922), (0.044292398, -0.045165915, -0.14880472), (-0.09499906, -0.045690835, -0.14886719), (-0.0949987, -0.045815833, -0.14799218), (0.04348026, -0.04529325, -0.1488672), (-0.09525879, 0.04477401, -0.14886719), (0.043220527, 0.045171596, -0.1488672), (-0.095259145, 0.04489901, -0.14799218), (0.04322017, 0.045296595, -0.1479922), (0.044033386, 0.04504893, -0.14880472), (0.04409552, 0.045174107, -0.1479922), (0.044095535, 0.045174107, 0.14799216), (0.043220185, 0.045296595, 0.14799216), (0.0440334, 0.04504893, 0.14880466), (-0.09525914, 0.04489901, 0.14799216), (-0.09525878, 0.04477401, 0.14886716), (0.043220542, 0.045171596, 0.14886716), (0.026430516, 0.14087525, 0.12644035), (0.014875131, 0.14084208, 0.12644035), (0.014876874, 0.14023471, 0.12680477), (0.026432259, 0.1402679, 0.12680477), (0.014879316, 0.13938439, 0.12692624), (0.026434701, 0.13941757, 0.12692624), (0.027232185, -0.13834748, 0.12692624), (0.0156768, -0.13838066, 0.12692624), (0.01567924, -0.13923098, 0.12680477), (0.027234625, -0.1391978, 0.12680477), (0.015680984, -0.13983834, 0.12644035), (0.027236369, -0.13980517, 0.12644035), (0.014875116, 0.14084208, -0.12644027), (0.0264305, 0.14087525, -0.12644027), (0.026432244, 0.1402679, -0.12680471), (0.014876859, 0.14023471, -0.12680471), (0.026434686, 0.13941757, -0.12692617), (0.014879301, 0.13938439, -0.12692617), (0.015676785, -0.13838066, -0.12692617), (0.02723217, -0.13834748, -0.12692617), (0.02723461, -0.1391978, -0.12680471), (0.015679225, -0.13923098, -0.12680471), (0.027236354, -0.13980517, -0.12644027), (0.015680969, -0.13983834, -0.12644027), (0.01568203, -0.14020276, 0.12583297), (0.027237415, -0.14016959, 0.12583297), (0.015682379, -0.14032423, 0.12498266), (0.027237764, -0.14029106, 0.12498266), (0.027237749, -0.14029106, -0.124982595), (0.015682364, -0.14032423, -0.124982595), (0.015682016, -0.14020276, -0.12583292), (0.0272374, -0.14016959, -0.12583292), (0.01487407, 0.14120652, -0.1258329), (0.026429454, 0.14123969, -0.1258329), (0.014873721, 0.14132799, -0.124982595), (0.026429106, 0.14136116, -0.124982595), (0.014873736, 0.14132799, 0.12498266), (0.02642912, 0.14136116, 0.12498266), (0.014874085, 0.14120652, 0.12583297), (0.026429469, 0.14123969, 0.12583297), (0.015012697, -0.13977951, 0.12637961), (0.01488948, -0.13917251, 0.1266833), (0.014465549, -0.13959888, 0.12619741), (0.014281769, -0.1390528, 0.12637962), (0.014826483, -0.1383831, 0.12680477), (0.014219115, -0.13838485, 0.12644035), (0.0134216305, 0.13938022, 0.12644035), (0.014029, 0.13938196, 0.12680477), (0.013480449, 0.1400485, 0.12637962), (0.014087462, 0.14017174, 0.1266833), (0.013661098, 0.14059567, 0.1261974), (0.014207192, 0.14077944, 0.1263796), (0.027904307, -0.1397425, 0.12637961), (0.02802403, -0.13913478, 0.1266833), (0.028450409, -0.13955873, 0.12619741), (0.028631043, -0.13901158, 0.12637961), (0.028082494, -0.13834505, 0.12680477), (0.028689869, -0.13834329, 0.12644035), (0.02728501, 0.13942002, 0.12680477), (0.027892387, 0.13942176, 0.12644035), (0.027829723, 0.1400897, 0.12637961), (0.027222013, 0.14020945, 0.1266833), (0.027645951, 0.14063583, 0.1261974), (0.027098803, 0.14081645, 0.1263796), (0.027904285, -0.1397425, -0.12637955), (0.028024008, -0.13913478, -0.12668322), (0.028450387, -0.13955873, -0.12619734), (0.028631035, -0.13901158, -0.12637955), (0.028082486, -0.13834505, -0.12680471), (0.028689846, -0.13834329, -0.12644027), (0.027892364, 0.13942176, -0.12644027), (0.027285002, 0.13942002, -0.12680471), (0.027829709, 0.14008972, -0.12637955), (0.027222006, 0.14020945, -0.12668322), (0.027645929, 0.14063583, -0.12619734), (0.027098788, 0.14081645, -0.12637953), (0.015012682, -0.13977951, -0.12637955), (0.014889472, -0.1391725, -0.12668322), (0.014465534, -0.13959888, -0.12619734), (0.014281762, -0.13905278, -0.12637953), (0.014826476, -0.1383831, -0.12680471), (0.0142191, -0.13838485, -0.12644027), (0.0140289925, 0.13938196, -0.12680471), (0.013421616, 0.13938022, -0.12644027), (0.013480442, 0.1400485, -0.12637953), (0.014087462, 0.1401717, -0.12668322), (0.01366109, 0.14059566, -0.12619734), (0.014207192, 0.1407794, -0.12637955), (0.014892087, -0.14008355, -0.12577216), (0.0142838545, -0.13978161, -0.12565069), (0.014831707, -0.1402052, -0.124982595), (0.014223284, -0.13984253, -0.12498258), (0.014223299, -0.13984253, 0.12498267), (0.014831714, -0.1402052, 0.12498266), (0.014283862, -0.13978161, 0.12565078), (0.014892095, -0.14008355, 0.12577224), (0.028026624, -0.14004585, -0.12577216), (0.028633129, -0.13974041, -0.1256507), (0.028087717, -0.14016715, -0.124982595), (0.028694032, -0.13980098, -0.124982595), (0.028087724, -0.14016715, 0.12498266), (0.028694054, -0.13980098, 0.12498266), (0.028633136, -0.13974041, 0.12565076), (0.028026646, -0.14004585, 0.12577224), (0.027219398, 0.14112048, 0.12577224), (0.02782763, 0.14081855, 0.12565075), (0.027279777, 0.14124213, 0.12498266), (0.027888201, 0.14087944, 0.12498266), (0.027279755, 0.14124213, -0.124982595), (0.027888179, 0.14087944, -0.124982595), (0.027827615, 0.14081855, -0.1256507), (0.027219376, 0.14112048, -0.12577216), (0.014084839, 0.14108278, -0.12577216), (0.01347835, 0.14077732, -0.12565069), (0.01402376, 0.14120407, -0.124982595), (0.01341743, 0.1408379, -0.12498258), (0.014023768, 0.14120407, 0.12498266), (0.013417445, 0.1408379, 0.12498267), (0.013478364, 0.14077735, 0.12565076), (0.014084862, 0.14108278, 0.12577224), (0.028935062, -0.13913216, -0.12577216), (0.029054275, -0.13834225, -0.12583292), (0.029056717, -0.13919257, -0.124982595), (0.029175749, -0.1383419, -0.124982595), (0.029056732, -0.13919257, 0.12498266), (0.028256793, 0.1394228, -0.12583292), (0.028935084, -0.13913217, 0.12577224), (0.028133044, 0.14021206, -0.12577216), (0.028378267, 0.13942315, -0.124982595), (0.02825435, 0.14027312, -0.124982595), (0.028378282, 0.13942315, 0.12498266), (0.028254366, 0.14027312, 0.12498266), (0.028133066, 0.14021206, 0.12577224), (0.028256807, 0.1394228, 0.12583297), (0.029175764, -0.1383419, 0.12498266), (0.02905429, -0.13834225, 0.12583297), (0.013978434, -0.13917512, 0.12577225), (0.013854693, -0.13838589, 0.12583299), (0.013857135, -0.13923621, 0.12498267), (0.013733219, -0.13838623, 0.12498267), (0.013857127, -0.13923621, -0.12498258), (0.01305721, 0.13937916, 0.12583299), (0.013978419, -0.13917512, -0.12577216), (0.013176416, 0.14016913, 0.12577225), (0.012935735, 0.13937882, 0.12498267), (0.013054768, 0.14022948, 0.12498267), (0.01293572, 0.13937882, -0.12498258), (0.01305476, 0.14022948, -0.12498258), (0.013176401, 0.14016913, -0.12577216), (0.013057202, 0.13937916, -0.1258329), (0.013733204, -0.13838623, -0.12498258), (0.013854685, -0.13838589, -0.1258329)]
}

