#usda 1.0
(
    defaultPrim = "SM_Lobby_Wall_05"
    upAxis = "Z"
)

def Mesh "SM_Lobby_Wall_05"
{
    int[] faceVertexCounts = [3, 3, 3, 3, 3, 3, 3, 3, 3, 3, 3, 3, 3, 3, 3, 3, 3, 3, 3, 3, 3, 3, 3, 3, 3, 3, 3, 3, 3, 3, 3, 3, 3, 3, 3, 3, 3, 3, 3, 3, 3, 3, 3, 3, 3, 3, 3, 3, 3, 3, 3, 3, 3, 3, 3, 3, 3, 3, 3, 3, 3, 3, 3, 3, 3, 3, 3, 3, 3, 3, 3, 3, 3, 3, 3, 3, 3, 3, 3, 3, 3, 3, 3, 3, 3, 3, 3, 3, 3, 3, 3, 3, 3, 3, 3, 3, 3, 3, 3, 3, 3, 3, 3, 3, 3, 3, 3, 3, 3, 3, 3, 3, 3, 3, 3, 3, 3, 3, 3, 3, 3, 3, 3, 3, 3, 3, 3, 3, 3, 3, 3, 3, 3, 3, 3, 3, 3, 3, 3, 3, 3, 3, 3, 3, 3, 3, 3, 3, 3, 3, 3, 3, 3, 3, 3, 3, 3, 3, 3, 3, 3, 3, 3, 3, 3, 3, 3, 3, 3, 3, 3, 3, 3, 3, 3, 3, 3, 3, 3, 3, 3, 3, 3, 3, 3, 3, 3, 3, 3, 3, 3, 3, 3, 3, 3, 3, 3, 3, 3, 3, 3, 3, 3, 3, 3, 3, 3, 3, 3, 3, 3, 3, 3, 3, 3, 3, 3, 3, 3, 3, 3, 3, 3, 3, 3, 3, 3, 3, 3, 3, 3, 3, 3, 3, 3, 3, 3, 3, 3, 3, 3, 3, 3, 3, 3, 3, 3, 3, 3, 3, 3, 3, 3, 3, 3, 3, 3, 3, 3, 3, 3, 3, 3, 3, 3, 3, 3, 3, 3, 3, 3, 3, 3, 3, 3, 3, 3, 3, 3, 3, 3, 3, 3, 3, 3, 3, 3, 3, 3, 3, 3, 3, 3, 3, 3, 3, 3, 3, 3, 3, 3, 3, 3, 3, 3, 3, 3, 3, 3, 3, 3, 3, 3, 3, 3, 3, 3, 3, 3, 3, 3, 3, 3, 3, 3, 3, 3, 3, 3, 3, 3, 3, 3, 3, 3, 3, 3, 3, 3, 3, 3, 3, 3, 3, 3, 3, 3, 3, 3, 3, 3, 3, 3, 3, 3, 3, 3, 3, 3, 3, 3, 3, 3, 3, 3, 3, 3, 3, 3, 3, 3, 3, 3, 3, 3, 3, 3, 3, 3, 3, 3, 3, 3, 3, 3, 3, 3, 3, 3, 3, 3, 3, 3, 3, 3, 3, 3, 3, 3, 3, 3, 3, 3, 3, 3, 3, 3, 3, 3, 3, 3, 3, 3, 3, 3, 3, 3, 3, 3, 3, 3, 3, 3, 3, 3, 3, 3, 3, 3, 3, 3, 3, 3, 3, 3, 3, 3, 3, 3, 3, 3, 3, 3, 3, 3, 3, 3, 3, 3, 3, 3, 3, 3, 3, 3, 3, 3, 3, 3, 3, 3, 3, 3, 3, 3, 3, 3, 3, 3, 3, 3, 3, 3, 3, 3, 3, 3, 3, 3, 3, 3, 3, 3, 3, 3, 3, 3, 3, 3, 3, 3, 3, 3, 3, 3, 3, 3, 3, 3, 3, 3, 3, 3, 3, 3, 3, 3, 3, 3, 3, 3, 3, 3, 3, 3, 3, 3, 3, 3, 3, 3, 3, 3, 3, 3, 3, 3, 3, 3, 3, 3, 3, 3, 3, 3, 3, 3, 3, 3, 3, 3, 3, 3, 3, 3, 3, 3, 3]
    int[] faceVertexIndices = [0, 1, 2, 1, 0, 3, 4, 5, 6, 6, 5, 7, 8, 9, 10, 10, 9, 11, 12, 13, 14, 12, 14, 15, 16, 17, 18, 16, 18, 19, 20, 21, 22, 21, 20, 23, 24, 25, 26, 25, 24, 27, 28, 29, 30, 29, 28, 31, 32, 33, 34, 33, 35, 34, 36, 37, 38, 37, 36, 39, 40, 1, 41, 1, 40, 2, 42, 2, 40, 2, 42, 0, 3, 0, 42, 42, 43, 3, 1, 43, 41, 43, 1, 3, 44, 7, 45, 7, 44, 6, 46, 6, 44, 6, 46, 4, 5, 4, 46, 46, 47, 5, 7, 47, 45, 47, 7, 5, 48, 11, 49, 11, 48, 10, 50, 10, 48, 10, 50, 8, 9, 8, 50, 50, 51, 9, 11, 51, 49, 51, 11, 9, 14, 13, 52, 52, 53, 14, 15, 53, 54, 53, 15, 14, 55, 15, 54, 15, 55, 12, 52, 12, 55, 12, 52, 13, 16, 56, 57, 56, 16, 19, 58, 16, 57, 16, 58, 17, 17, 59, 18, 59, 17, 58, 19, 59, 56, 59, 19, 18, 60, 61, 62, 61, 60, 63, 64, 65, 66, 65, 64, 67, 68, 64, 69, 69, 64, 66, 69, 70, 68, 68, 70, 71, 67, 70, 65, 70, 67, 71, 72, 73, 74, 73, 72, 75, 76, 72, 77, 77, 72, 74, 77, 78, 76, 76, 78, 79, 75, 78, 73, 78, 75, 79, 80, 81, 82, 81, 80, 83, 84, 80, 85, 85, 80, 82, 85, 86, 84, 84, 86, 87, 83, 86, 81, 86, 83, 87, 88, 89, 90, 90, 89, 91, 92, 89, 93, 89, 92, 91, 94, 93, 95, 93, 94, 92, 90, 94, 88, 88, 94, 95, 96, 97, 98, 98, 97, 99, 100, 96, 101, 101, 96, 98, 101, 102, 100, 102, 101, 103, 97, 103, 99, 103, 97, 102, 104, 105, 106, 105, 104, 107, 108, 21, 23, 21, 108, 109, 23, 110, 108, 110, 23, 20, 20, 22, 110, 110, 22, 111, 22, 21, 111, 111, 21, 109, 112, 27, 24, 27, 112, 113, 24, 114, 112, 114, 24, 26, 26, 25, 114, 114, 25, 115, 25, 27, 115, 115, 27, 113, 116, 31, 28, 31, 116, 117, 28, 118, 116, 118, 28, 30, 30, 29, 118, 118, 29, 119, 29, 31, 119, 119, 31, 117, 32, 34, 120, 120, 34, 121, 34, 35, 121, 121, 35, 122, 123, 35, 33, 35, 123, 122, 33, 120, 123, 120, 33, 32, 124, 125, 36, 36, 125, 39, 36, 126, 124, 126, 36, 38, 38, 127, 126, 127, 38, 37, 37, 39, 127, 127, 39, 125, 128, 129, 130, 129, 128, 131, 132, 133, 134, 133, 132, 135, 136, 135, 132, 132, 137, 136, 138, 136, 137, 137, 139, 138, 138, 134, 133, 134, 138, 139, 140, 141, 142, 141, 140, 143, 144, 143, 140, 140, 145, 144, 146, 144, 145, 145, 147, 146, 146, 142, 141, 142, 146, 147, 148, 149, 150, 149, 148, 151, 152, 151, 148, 148, 153, 152, 154, 152, 153, 153, 155, 154, 154, 150, 149, 150, 154, 155, 156, 157, 158, 158, 159, 156, 156, 160, 161, 160, 156, 159, 162, 161, 160, 161, 162, 163, 157, 163, 162, 162, 158, 157, 164, 165, 166, 165, 164, 167, 168, 164, 166, 166, 169, 168, 168, 170, 171, 170, 168, 169, 171, 165, 167, 165, 171, 170, 172, 173, 174, 173, 172, 175, 176, 177, 178, 177, 176, 179, 179, 180, 177, 180, 179, 181, 181, 182, 180, 182, 181, 183, 183, 184, 182, 184, 183, 185, 185, 186, 184, 186, 185, 187, 188, 189, 190, 189, 188, 191, 192, 191, 188, 191, 192, 193, 194, 195, 196, 195, 194, 197, 198, 197, 194, 197, 198, 199, 200, 201, 202, 203, 201, 200, 204, 203, 200, 205, 203, 204, 206, 205, 204, 207, 205, 206, 208, 207, 206, 209, 207, 208, 210, 209, 208, 211, 209, 210, 212, 213, 214, 213, 212, 215, 215, 216, 213, 216, 215, 217, 218, 219, 220, 219, 218, 221, 221, 222, 219, 222, 221, 223, 224, 225, 226, 227, 225, 224, 228, 227, 224, 229, 227, 228, 230, 229, 228, 231, 229, 230, 232, 231, 230, 233, 231, 232, 234, 233, 232, 235, 233, 234, 236, 237, 238, 237, 236, 239, 239, 240, 237, 240, 239, 241, 242, 243, 244, 243, 242, 245, 245, 246, 243, 246, 245, 247, 248, 249, 250, 249, 248, 251, 251, 252, 249, 252, 251, 253, 253, 254, 252, 254, 253, 255, 255, 256, 254, 256, 255, 257, 257, 258, 256, 258, 257, 259, 260, 261, 262, 261, 260, 263, 264, 263, 260, 263, 264, 265, 266, 267, 268, 267, 266, 269, 270, 269, 266, 269, 270, 271, 178, 60, 62, 178, 177, 60, 272, 60, 177, 60, 272, 273, 272, 128, 273, 128, 226, 131, 224, 226, 128, 128, 272, 224, 272, 177, 199, 180, 199, 177, 199, 274, 272, 199, 180, 197, 247, 272, 274, 272, 247, 224, 180, 195, 197, 247, 228, 224, 180, 182, 195, 228, 247, 245, 242, 228, 245, 230, 228, 242, 275, 195, 182, 242, 275, 230, 195, 275, 276, 275, 242, 276, 275, 241, 230, 241, 232, 230, 241, 275, 277, 232, 241, 239, 193, 277, 275, 275, 182, 193, 236, 232, 239, 184, 193, 182, 234, 232, 236, 193, 184, 191, 236, 278, 234, 184, 189, 191, 278, 236, 279, 189, 278, 279, 184, 186, 189, 278, 189, 186, 278, 186, 187, 187, 280, 278, 280, 235, 278, 278, 235, 234, 273, 63, 60, 63, 273, 281, 273, 130, 281, 130, 273, 128, 279, 190, 189, 190, 279, 282, 279, 238, 282, 238, 279, 236, 277, 193, 192, 192, 283, 277, 283, 240, 277, 277, 240, 241, 276, 196, 195, 196, 276, 284, 276, 244, 284, 244, 276, 242, 274, 199, 198, 198, 285, 274, 285, 246, 274, 274, 246, 247, 104, 202, 107, 200, 202, 104, 104, 286, 200, 286, 104, 287, 172, 286, 287, 250, 172, 174, 250, 249, 172, 286, 172, 249, 286, 223, 200, 223, 204, 200, 223, 286, 288, 204, 223, 221, 271, 288, 286, 286, 249, 271, 218, 204, 221, 252, 271, 249, 206, 204, 218, 271, 252, 269, 252, 267, 269, 252, 254, 267, 218, 289, 206, 289, 267, 254, 289, 218, 290, 267, 289, 290, 289, 254, 265, 256, 265, 254, 265, 291, 289, 265, 256, 263, 217, 289, 291, 289, 217, 206, 256, 261, 263, 217, 208, 206, 256, 258, 261, 208, 217, 215, 292, 261, 258, 212, 208, 215, 261, 292, 293, 292, 212, 293, 210, 208, 212, 212, 292, 210, 210, 294, 211, 294, 210, 292, 258, 294, 292, 294, 258, 259, 295, 104, 106, 287, 104, 295, 295, 172, 287, 172, 295, 175, 296, 212, 214, 293, 212, 296, 296, 261, 293, 261, 296, 262, 217, 297, 216, 297, 217, 291, 265, 297, 291, 297, 265, 264, 298, 218, 220, 290, 218, 298, 298, 267, 290, 267, 298, 268, 223, 299, 222, 299, 223, 288, 271, 299, 288, 299, 271, 270, 61, 63, 44, 281, 44, 63, 61, 44, 45, 44, 281, 46, 300, 61, 45, 281, 47, 46, 300, 45, 47, 281, 300, 47, 300, 281, 115, 115, 281, 114, 113, 300, 115, 281, 112, 114, 300, 113, 129, 112, 129, 113, 112, 281, 130, 130, 129, 112, 64, 216, 67, 216, 71, 67, 213, 216, 64, 71, 216, 297, 68, 213, 64, 71, 301, 68, 297, 301, 71, 301, 213, 68, 301, 297, 139, 264, 139, 297, 139, 264, 134, 264, 132, 134, 301, 139, 137, 264, 260, 132, 260, 137, 132, 260, 301, 137, 87, 213, 301, 213, 87, 83, 80, 213, 83, 214, 213, 80, 84, 214, 80, 296, 214, 84, 87, 296, 84, 301, 296, 87, 296, 301, 155, 260, 155, 301, 296, 155, 153, 155, 260, 150, 262, 296, 153, 260, 148, 150, 262, 153, 148, 260, 262, 148, 72, 105, 75, 105, 79, 75, 106, 105, 72, 76, 106, 72, 79, 105, 302, 295, 106, 76, 79, 295, 76, 302, 295, 79, 295, 302, 147, 173, 147, 302, 295, 147, 145, 147, 173, 142, 175, 295, 145, 173, 140, 142, 175, 145, 140, 173, 175, 140, 96, 222, 97, 222, 102, 97, 219, 222, 96, 102, 222, 299, 100, 219, 96, 102, 303, 100, 299, 303, 102, 303, 219, 100, 303, 299, 170, 270, 170, 299, 170, 270, 165, 270, 166, 165, 303, 170, 169, 270, 266, 166, 266, 169, 166, 266, 303, 169, 91, 219, 303, 219, 91, 92, 94, 219, 92, 220, 219, 94, 90, 220, 94, 298, 220, 90, 91, 298, 90, 303, 298, 91, 298, 303, 159, 266, 159, 303, 298, 159, 158, 159, 266, 160, 268, 298, 158, 266, 162, 160, 268, 158, 162, 266, 268, 162, 192, 40, 41, 192, 188, 40, 283, 192, 41, 188, 42, 40, 283, 41, 43, 304, 43, 42, 304, 283, 43, 188, 304, 42, 283, 304, 111, 109, 283, 111, 283, 109, 240, 108, 240, 109, 237, 240, 108, 111, 304, 110, 110, 237, 108, 304, 237, 110, 304, 188, 49, 188, 48, 49, 188, 190, 48, 190, 50, 48, 304, 49, 51, 190, 282, 50, 282, 51, 50, 282, 304, 51, 304, 117, 237, 117, 304, 119, 304, 282, 119, 116, 237, 117, 119, 282, 118, 238, 237, 116, 282, 238, 118, 118, 238, 116, 198, 57, 56, 285, 198, 56, 198, 194, 57, 285, 56, 59, 305, 57, 194, 305, 285, 59, 57, 305, 58, 305, 59, 58, 285, 305, 127, 125, 285, 127, 285, 125, 246, 127, 305, 126, 124, 246, 125, 305, 124, 126, 243, 246, 124, 124, 305, 243, 305, 122, 243, 123, 243, 122, 244, 243, 123, 122, 305, 121, 123, 284, 244, 305, 284, 121, 284, 123, 120, 121, 284, 120, 284, 305, 53, 284, 53, 52, 305, 54, 53, 55, 284, 52, 305, 194, 54, 194, 55, 54, 284, 55, 196, 194, 196, 55]
    normal3f[] normals = [(1, -1.3522939e-7, 1.3920672e-7), (1, -1.3522939e-7, 1.4318405e-7), (1, -1.3522939e-7, 1.272747e-7), (1, -1.3522939e-7, 1.4318405e-7), (1, -1.3522939e-7, 1.3920672e-7), (1, -1.3522937e-7, 1.3522937e-7), (1, -1.3504642e-7, 1.6059573e-7), (1, -1.3504642e-7, 1.5694583e-7), (1, -1.3504642e-7, 1.5329593e-7), (1, -1.3504642e-7, 1.5329593e-7), (1, -1.3504642e-7, 1.5694583e-7), (1, -1.3139652e-7, 1.6059573e-7), (1, -1.3522939e-7, 1.7500273e-7), (1, -1.3522939e-7, 1.7102539e-7), (1, -1.3522939e-7, 1.7500273e-7), (1, -1.3522939e-7, 1.7500273e-7), (1, -1.3522939e-7, 1.7102539e-7), (1, -1.3522939e-7, 1.7500273e-7), (1, -1.3724144e-7, 1.619899e-7), (1, -1.3499158e-7, 1.5299047e-7), (1, -1.3499158e-7, 1.5299047e-7), (1, -1.3724144e-7, 1.619899e-7), (1, -1.3499158e-7, 1.5299047e-7), (1, -1.349916e-7, 1.4399103e-7), (1, -1.4578667e-7, 1.8223334e-7), (1, -1.5489833e-7, 2.0045667e-7), (1, -1.4578666e-7, 1.7767749e-7), (1, -1.4578667e-7, 1.8223334e-7), (1, -1.4578666e-7, 1.7767749e-7), (1, -1.3667501e-7, 1.4578667e-7), (1, 1.359793e-7, 1.359793e-7), (1, 1.359793e-7, 1.359793e-7), (1, 1.359793e-7, 1.4397808e-7), (1, 1.359793e-7, 1.359793e-7), (1, 1.359793e-7, 1.359793e-7), (1, 1.359793e-7, 1.2798053e-7), (1, 1.376304e-7, 1.5414604e-7), (1, 1.3579532e-7, 1.5781617e-7), (1, 1.3946546e-7, 1.5414604e-7), (1, 1.3579532e-7, 1.5781617e-7), (1, 1.376304e-7, 1.5414604e-7), (1, 1.3946546e-7, 1.6148633e-7), (1, 1.359793e-7, 1.7597321e-7), (1, 1.399787e-7, 1.7197382e-7), (1, 1.399787e-7, 1.6797443e-7), (1, 1.399787e-7, 1.7197382e-7), (1, 1.359793e-7, 1.7597321e-7), (1, 1.359793e-7, 1.5997566e-7), (1, 1.3574018e-7, 1.5383887e-7), (1, 1.3574018e-7, 1.6288821e-7), (1, 1.3574018e-7, 1.5836355e-7), (1, 1.3574018e-7, 1.6288821e-7), (1, 1.4478954e-7, 1.6288823e-7), (1, 1.3574018e-7, 1.5836355e-7), (1, 1.4659514e-7, 1.7408173e-7), (1, 1.4888568e-7, 1.7408172e-7), (1, 1.5575732e-7, 1.924061e-7), (1, 1.4888568e-7, 1.7408172e-7), (1, 1.4659514e-7, 1.7408173e-7), (1, 1.3743293e-7, 1.4659513e-7), (0, 0, 1), (1, -1.3522939e-7, 1.4318405e-7), (0, 0, 1), (1, -1.3522939e-7, 1.4318405e-7), (0, 0, 1), (1, -1.3522939e-7, 1.272747e-7), (0, 0, 1), (1, -1.3522939e-7, 1.272747e-7), (0, 0, 1), (1, -1.3522939e-7, 1.272747e-7), (0, 0, 1), (1, -1.3522939e-7, 1.3920672e-7), (1, -1.3522937e-7, 1.3522937e-7), (1, -1.3522939e-7, 1.3920672e-7), (0, 0, 1), (0, 0, 1), (0, 8.828078e-8, 1), (1, -1.3522937e-7, 1.3522937e-7), (1, -1.3522939e-7, 1.4318405e-7), (0, 8.828078e-8, 1), (0, 0, 1), (0, 8.828078e-8, 1), (1, -1.3522939e-7, 1.4318405e-7), (1, -1.3522937e-7, 1.3522937e-7), (0, 0, 1), (1, -1.3139652e-7, 1.6059573e-7), (0, 0, 1), (1, -1.3139652e-7, 1.6059573e-7), (0, 0, 1), (1, -1.3504642e-7, 1.5329593e-7), (0, 0, 1), (1, -1.3504642e-7, 1.5329593e-7), (0, 0, 1), (1, -1.3504642e-7, 1.5329593e-7), (0, 0, 1), (1, -1.3504642e-7, 1.6059573e-7), (1, -1.3504642e-7, 1.5694583e-7), (1, -1.3504642e-7, 1.6059573e-7), (0, 0, 1), (0, 0, 1), (0, 0, 1), (1, -1.3504642e-7, 1.5694583e-7), (1, -1.3139652e-7, 1.6059573e-7), (0, 0, 1), (0, 0, 1), (0, 0, 1), (1, -1.3139652e-7, 1.6059573e-7), (1, -1.3504642e-7, 1.5694583e-7), (0, 0, 1), (1, -1.3522939e-7, 1.7500273e-7), (0, 0, 1), (1, -1.3522939e-7, 1.7500273e-7), (0, 0, 1), (1, -1.3522939e-7, 1.7500273e-7), (0, 0, 1), (1, -1.3522939e-7, 1.7500273e-7), (0, 0, 1), (1, -1.3522939e-7, 1.7500273e-7), (0, 0, 1), (1, -1.3522939e-7, 1.7500273e-7), (1, -1.3522939e-7, 1.7102539e-7), (1, -1.3522939e-7, 1.7500273e-7), (0, 0, 1), (0, 0, 1), (0, 0, 1), (1, -1.3522939e-7, 1.7102539e-7), (1, -1.3522939e-7, 1.7500273e-7), (0, 0, 1), (0, 0, 1), (0, 0, 1), (1, -1.3522939e-7, 1.7500273e-7), (1, -1.3522939e-7, 1.7102539e-7), (1, -1.3499158e-7, 1.5299047e-7), (1, -1.3499158e-7, 1.5299047e-7), (0, -8.82808e-8, -1), (0, -8.82808e-8, -1), (0, 4.4140393e-8, 1), (1, -1.3499158e-7, 1.5299047e-7), (1, -1.349916e-7, 1.4399103e-7), (0, 4.4140393e-8, 1), (0, 0, 1), (0, 4.4140393e-8, 1), (1, -1.349916e-7, 1.4399103e-7), (1, -1.3499158e-7, 1.5299047e-7), (0, 0, 1), (1, -1.349916e-7, 1.4399103e-7), (0, 0, 1), (1, -1.349916e-7, 1.4399103e-7), (0, 0, 1), (1, -1.3724144e-7, 1.619899e-7), (0, -8.82808e-8, -1), (1, -1.3724144e-7, 1.619899e-7), (0, 0, 1), (1, -1.3724144e-7, 1.619899e-7), (0, -8.82808e-8, -1), (1, -1.3499158e-7, 1.5299047e-7), (1, -1.4578667e-7, 1.8223334e-7), (0, 0, 1), (0, 0, 1), (0, 0, 1), (1, -1.4578667e-7, 1.8223334e-7), (1, -1.3667501e-7, 1.4578667e-7), (5.9589524e-7, -2.2070195e-8, -1), (1, -1.4578667e-7, 1.8223334e-7), (0, 0, 1), (1, -1.4578667e-7, 1.8223334e-7), (5.9589524e-7, -2.2070195e-8, -1), (1, -1.5489833e-7, 2.0045667e-7), (1, -1.5489833e-7, 2.0045667e-7), (0, 0, 1), (1, -1.4578666e-7, 1.7767749e-7), (0, 0, 1), (1, -1.5489833e-7, 2.0045667e-7), (5.9589524e-7, -2.2070195e-8, -1), (1, -1.3667501e-7, 1.4578667e-7), (0, 0, 1), (0, 0, 1), (0, 0, 1), (1, -1.3667501e-7, 1.4578667e-7), (1, -1.4578666e-7, 1.7767749e-7), (1, -1.0189053e-7, 8.915421e-8), (0, 0, 1), (1, 0, 1.408696e-7), (0, 0, 1), (1, -1.0189053e-7, 8.915421e-8), (0, 0, -1), (0, 0, -1), (0, 0, 1), (0, 0, -1), (0, 0, 1), (0, 0, -1), (0, 8.8280714e-8, 1), (0, 0, 1), (0, 0, -1), (0, 0, -1), (0, 0, -1), (0, 0, -1), (0, 0, -1), (0, 0, -1), (0, 8.828072e-8, 1), (0, 0, 1), (0, 0, 1), (0, 8.828072e-8, 1), (0, 0, 1), (0, 8.8280714e-8, 1), (0, 8.828072e-8, 1), (0, 0, 1), (0, 8.828072e-8, 1), (0, 8.8280714e-8, 1), (0, 0, 1), (0, 0, 1), (0, -1, 0), (0, 0, -1), (0, -1, 0), (0, 0, 1), (0, 0, 1), (0, 0, 1), (0, 0, 1), (0, 0, -1), (0, 0, -1), (0, 0, 1), (0, 0, -1), (0, 0, -1), (0, 0, 1), (0, 0, 1), (0, 0, 1), (0, 0, 1), (0, 0, 1), (0, 0, 1), (0, 0, 1), (0, -1, 0), (0, 0, 1), (0, 0, 1), (0, 0, 1), (0, 0, -1), (0, 0, 1), (0, 0, -1), (0, 0, 1), (0, 0, -1), (0, 0, 1), (0, 0, 1), (0, 0, -1), (0, 0, -1), (0, 0, -1), (0, 0, -1), (0, 0, -1), (0, 0, -1), (0, 0, 1), (0, 0, 1), (0, 0, 1), (0, 0, 1), (0, 0, 1), (0, 0, 1), (0, 0, 1), (0, 0, 1), (0, 0, 1), (0, 0, 1), (0, 0, 1), (0, -8.82807e-8, -1), (0, 0, 1), (0, 0, 1), (0, 0, 1), (0, 0, 1), (0, 0, 1), (0, 2.2070179e-8, 1), (0, 0, 1), (0, 0, 1), (0, 0, 1), (0, 2.2070179e-8, 1), (0, 0, 1), (0, -8.82807e-8, -1), (0, 0, 1), (0, -8.828068e-8, -1), (0, 0, 1), (0, -8.82807e-8, -1), (0, 2.2070179e-8, 1), (0, 0, 1), (0, -8.82807e-8, -1), (0, -8.82807e-8, -1), (0, -8.82807e-8, -1), (0, -8.82807e-8, -1), (0, -8.828068e-8, -1), (-5.9589485e-7, -4.4140357e-8, -1), (0, 0, 1), (0, 0, 1), (0, 0, 1), (0, 0, 1), (0, 0, 1), (0, 0, 1), (-5.9589485e-7, -4.4140357e-8, -1), (-5.9604645e-7, -4.4140357e-8, -1), (-5.9604645e-7, -4.4140357e-8, -1), (-5.9589485e-7, -4.4140357e-8, -1), (0, 0, 1), (-5.9604645e-7, -4.4140357e-8, -1), (0, 0, 1), (0, 0, 1), (0, 0, 1), (-5.9604645e-7, -4.4140357e-8, -1), (0, 0, 1), (0, 0, 1), (0, 0, 1), (0, 0, 1), (0, 0, 1), (0, 0, 1), (0, 0, 1), (-1, -5.0945197e-8, 2.54726e-7), (-1, 8.912855e-8, 7.173413e-8), (-1, 5.486871e-8, 5.486871e-8), (-1, 8.912855e-8, 7.173413e-8), (-1, -5.0945197e-8, 2.54726e-7), (-1, -5.086686e-7, 1.5260873e-7), (0, 0, 1), (1, 1.359793e-7, 1.359793e-7), (1, 1.359793e-7, 1.2798053e-7), (1, 1.359793e-7, 1.359793e-7), (0, 0, 1), (0, 0, 1), (1, 1.359793e-7, 1.2798053e-7), (0, 0, 1), (0, 0, 1), (0, 0, 1), (1, 1.359793e-7, 1.2798053e-7), (1, 1.359793e-7, 1.359793e-7), (1, 1.359793e-7, 1.359793e-7), (1, 1.359793e-7, 1.4397808e-7), (0, 0, 1), (0, 0, 1), (1, 1.359793e-7, 1.4397808e-7), (0, -8.877034e-8, 1), (1, 1.359793e-7, 1.4397808e-7), (1, 1.359793e-7, 1.359793e-7), (0, -8.877034e-8, 1), (0, -8.877034e-8, 1), (1, 1.359793e-7, 1.359793e-7), (0, 0, 1), (0, 0, 1), (1, 1.3946546e-7, 1.6148633e-7), (1, 1.376304e-7, 1.5414604e-7), (1, 1.3946546e-7, 1.6148633e-7), (0, 0, 1), (0, 0, 1), (1, 1.376304e-7, 1.5414604e-7), (0, 0, 1), (0, 0, 1), (0, 0, 1), (1, 1.376304e-7, 1.5414604e-7), (1, 1.3946546e-7, 1.5414604e-7), (1, 1.3946546e-7, 1.5414604e-7), (1, 1.3579532e-7, 1.5781617e-7), (0, 0, 1), (0, 0, 1), (1, 1.3579532e-7, 1.5781617e-7), (0, 0, 1), (1, 1.3579532e-7, 1.5781617e-7), (1, 1.3946546e-7, 1.6148633e-7), (0, 0, 1), (0, 0, 1), (1, 1.3946546e-7, 1.6148633e-7), (0, 0, 1), (0, 0, 1), (1, 1.359793e-7, 1.5997566e-7), (1, 1.359793e-7, 1.7597321e-7), (1, 1.359793e-7, 1.5997566e-7), (0, 0, 1), (0, 0, 1), (1, 1.359793e-7, 1.7597321e-7), (0, 0, 1), (0, 0, 1), (0, 0, 1), (1, 1.359793e-7, 1.7597321e-7), (1, 1.399787e-7, 1.6797443e-7), (1, 1.399787e-7, 1.6797443e-7), (1, 1.399787e-7, 1.7197382e-7), (0, 0, 1), (0, 0, 1), (1, 1.399787e-7, 1.7197382e-7), (0, 0, 1), (1, 1.399787e-7, 1.7197382e-7), (1, 1.359793e-7, 1.5997566e-7), (0, 0, 1), (0, 0, 1), (1, 1.359793e-7, 1.5997566e-7), (0, 0, 1), (1, 1.3574018e-7, 1.5383887e-7), (1, 1.3574018e-7, 1.5836355e-7), (0, 8.877036e-8, -1), (0, 8.877036e-8, -1), (1, 1.3574018e-7, 1.5836355e-7), (0, -4.4385178e-8, 1), (1, 1.3574018e-7, 1.5836355e-7), (1, 1.4478954e-7, 1.6288823e-7), (0, -4.4385178e-8, 1), (0, -4.4385178e-8, 1), (1, 1.4478954e-7, 1.6288823e-7), (0, 0, 1), (0, 0, 1), (1, 1.4478954e-7, 1.6288823e-7), (1, 1.3574018e-7, 1.6288821e-7), (1, 1.4478954e-7, 1.6288823e-7), (0, 0, 1), (0, 0, 1), (1, 1.3574018e-7, 1.6288821e-7), (0, 8.877036e-8, -1), (0, 0, 1), (0, 8.877036e-8, -1), (1, 1.3574018e-7, 1.6288821e-7), (1, 1.3574018e-7, 1.5383887e-7), (0, 0, 1), (0, 0, 1), (1, 1.4659514e-7, 1.7408173e-7), (1, 1.4659514e-7, 1.7408173e-7), (0, 0, 1), (1, 1.3743293e-7, 1.4659513e-7), (1, 1.4659514e-7, 1.7408173e-7), (5.9919984e-7, 2.2192587e-8, -1), (0, 0, 1), (5.9919984e-7, 2.2192587e-8, -1), (1, 1.4659514e-7, 1.7408173e-7), (1, 1.5575732e-7, 1.924061e-7), (1, 1.5575732e-7, 1.924061e-7), (0, 0, 1), (5.9919984e-7, 2.2192587e-8, -1), (0, 0, 1), (1, 1.5575732e-7, 1.924061e-7), (1, 1.4888568e-7, 1.7408172e-7), (1, 1.4888568e-7, 1.7408172e-7), (1, 1.3743293e-7, 1.4659513e-7), (0, 0, 1), (0, 0, 1), (1, 1.3743293e-7, 1.4659513e-7), (0, 0, 1), (1, 1.0221582e-7, 8.943885e-8), (0, 0, 1), (0, 0, -1), (0, 0, 1), (1, 1.0221582e-7, 8.943885e-8), (1, 0, 1.408696e-7), (0, 0, -1), (0, 0, 1), (0, -8.8770285e-8, 1), (0, 0, 1), (0, 0, -1), (0, 0, -1), (0, 0, -1), (0, 0, -1), (0, 0, -1), (0, 0, -1), (0, 0, 1), (0, 0, -1), (0, -8.8770285e-8, 1), (0, 0, -1), (0, 0, 1), (0, 0, 1), (0, 0, 1), (0, -8.8770285e-8, 1), (0, -8.8770285e-8, 1), (0, -8.8770285e-8, 1), (0, 0, 1), (0, -8.8770285e-8, 1), (0, -8.8770285e-8, 1), (0, 0, 1), (0, 0, 1), (0, 1, 0), (0, 0, 1), (0, 1, 0), (0, 0, 1), (0, 0, -1), (0, 0, -1), (0, 0, -1), (0, 0, 1), (0, 0, 1), (0, 0, 1), (0, 0, -1), (0, 0, 1), (0, 0, -1), (0, 0, 1), (0, 0, 1), (0, 0, 1), (0, 0, 1), (0, 0, 1), (0, 0, 1), (0, 1, 0), (0, 0, 1), (0, 0, 1), (0, 0, 1), (0, 1.775405e-7, -1), (0, 0, 1), (0, 0, 1), (0, 0, 1), (0, 1.775405e-7, -1), (0, 1.3315538e-7, -1), (0, 1.5534796e-7, -1), (0, 1.3315538e-7, -1), (0, 1.775405e-7, -1), (0, 1.775405e-7, -1), (0, 0, 1), (0, 1.5534796e-7, -1), (0, 0, 1), (0, 1.5534796e-7, -1), (0, 0, 1), (0, 0, 1), (0, 0, 1), (0, 0, 1), (0, 0, 1), (0, 0, 1), (0, 0, 1), (0, 0, 1), (0, 0, 1), (0, 0, 1), (0, 0, 1), (0, 8.877026e-8, -1), (0, 0, 1), (0, 0, 1), (0, 0, 1), (0, 0, 1), (0, 0, 1), (0, -2.2192571e-8, 1), (0, 0, 1), (0, -2.2192571e-8, 1), (0, 0, 1), (0, 0, 1), (0, 8.877026e-8, -1), (0, 0, 1), (0, -2.2192571e-8, 1), (0, 0, 1), (0, 8.877026e-8, -1), (0, 8.877024e-8, -1), (0, 8.877026e-8, -1), (0, 8.877024e-8, -1), (0, 8.877026e-8, -1), (0, 8.877026e-8, -1), (0, 0, 1), (0, 8.877026e-8, -1), (0, 0, 1), (0, 0, 1), (-5.9919944e-7, 4.4385143e-8, -1), (0, 0, 1), (0, 0, 1), (0, 0, 1), (-5.960465e-7, 4.4385143e-8, -1), (0, 0, 1), (-5.9919944e-7, 4.4385143e-8, -1), (-5.9919944e-7, 4.4385143e-8, -1), (0, 0, 1), (-5.960465e-7, 4.4385143e-8, -1), (-5.960465e-7, 4.4385143e-8, -1), (0, 0, 1), (0, 0, 1), (0, 0, 1), (-5.960465e-7, 4.4385143e-8, -1), (0, 0, 1), (0, 0, 1), (0, 0, 1), (0, 0, 1), (0, 0, 1), (0, 0, 1), (0, 0, 1), (-1, 5.1107875e-8, 2.555394e-7), (-1, -8.942746e-8, 7.197417e-8), (-1, 5.0866936e-7, 1.5260875e-7), (-1, -8.942746e-8, 7.197417e-8), (-1, 5.1107875e-8, 2.555394e-7), (-1, -5.509539e-8, 5.509539e-8), (0, 1, 0), (1, -1.793827e-7, 2.0250745e-7), (1, -8.1565474e-8, 1.3553104e-7), (1, -1.793827e-7, 2.0250745e-7), (0, 1, 0), (0, 1, 0), (0, 1, 0), (1, -3.9676397e-8, 1.7511911e-7), (1, -1.793827e-7, 2.0250745e-7), (1, -3.9676397e-8, 1.7511911e-7), (0, 1, 0), (0, 1, 0), (0, 1, 0), (1, -5.192828e-8, 1.5101692e-7), (1, -3.9676397e-8, 1.7511911e-7), (1, -5.192828e-8, 1.5101692e-7), (0, 1, 0), (0, 1, 0), (0, 1, 0), (1, 1.0586737e-7, 1.6797117e-7), (1, -5.192828e-8, 1.5101692e-7), (1, 1.0586737e-7, 1.6797117e-7), (0, 1, 0), (0, 1, 0), (0, 1, 0), (1, 2.5469289e-8, 4.0750862e-7), (1, 1.0586737e-7, 1.6797117e-7), (1, 2.5469289e-8, 4.0750862e-7), (0, 1, 0), (0, 0, 1), (1, -1.2184782e-7, 2.9346887e-7), (1, -3.936862e-8, 2.3621172e-7), (0, 0, 1), (1, -3.936862e-8, 2.3621172e-7), (1, -1.2184782e-7, 2.9346887e-7), (1, 0, 1.6559699e-7), (0, 0, 1), (1, 0, 1.6559699e-7), (1, -1.2184782e-7, 2.9346887e-7), (1, 0, 1.6559699e-7), (0, 0, 1), (1, -5.2491547e-8, 1.1810598e-7), (1, 8.11612e-8, 4.236129e-7), (1, -6.829699e-8, 1.9123158e-7), (0, -1.07057545e-7, -1), (1, -6.829699e-8, 1.9123158e-7), (1, 8.11612e-8, 4.236129e-7), (1, 0, 1.6558165e-7), (0, 0, 1), (1, 0, 1.6558165e-7), (1, 8.11612e-8, 4.236129e-7), (1, 0, 1.6558165e-7), (0, 0, 1), (1, -1.3026373e-7, 2.879514e-7), (-1, 2.5626068e-8, 1.6235732e-7), (0, 1, 0), (-1, -3.4257405e-7, 1.6376667e-7), (0, 1, 0), (0, 1, 0), (-1, 2.5626068e-8, 1.6235732e-7), (-1, -1.9838144e-7, 1.7511913e-7), (0, 1, 0), (-1, 2.5626068e-8, 1.6235732e-7), (0, 1, 0), (0, 1, 0), (-1, -1.9838144e-7, 1.7511913e-7), (-1, -1.2982053e-7, 1.5101693e-7), (0, 1, 0), (-1, -1.9838144e-7, 1.7511913e-7), (0, 1, 0), (0, 1, 0), (-1, -1.2982053e-7, 1.5101693e-7), (-1, -5.2933547e-7, 1.7407922e-7), (0, 1, 0), (-1, -1.2982053e-7, 1.5101693e-7), (0, 1, 0), (0, 1, 0), (-1, -5.2933547e-7, 1.7407922e-7), (-1, 2.5469255e-8, 0), (0, 1, 0), (-1, -5.2933547e-7, 1.7407922e-7), (0, 0, 1), (0, 1, 0), (-1, 2.5469255e-8, 0), (-1, -2.6245713e-8, 2.6245713e-8), (-1, 3.0284608e-7, 4.6520793e-8), (-1, 7.830681e-7, 0.0000011186687), (-1, 3.0284608e-7, 4.6520793e-8), (-1, -2.6245713e-8, 2.6245713e-8), (-1, -5.887579e-7, 1.65597e-7), (-1, -5.887579e-7, 1.65597e-7), (-1, 9.197239e-8, 9.197239e-8), (-1, 3.0284608e-7, 4.6520793e-8), (-1, 9.197239e-8, 9.197239e-8), (-1, -5.887579e-7, 1.65597e-7), (-1, -1.2466727e-7, 3.4119464e-7), (-1, -2.7318764e-8, -1.3659383e-7), (-1, 7.846197e-8, 4.82108e-8), (-1, 8.606125e-8, 5.7374162e-8), (-1, 7.846197e-8, 4.82108e-8), (-1, -2.7318764e-8, -1.3659383e-7), (-1, 0, 1.8717927e-7), (-1, 0, 1.8717927e-7), (-1, 9.632279e-8, 9.632279e-8), (-1, 7.846197e-8, 4.82108e-8), (-1, 9.632279e-8, 9.632279e-8), (-1, 0, 1.8717927e-7), (-1, 6.8559764e-8, 2.1939124e-7), (1, 1.7995889e-7, 2.0243996e-7), (0, -1, 0), (1, 8.1565474e-8, 1.3553104e-7), (0, -1, 0), (0, -1, 0), (1, 1.7995889e-7, 2.0243996e-7), (1, 3.9676397e-8, 1.7511911e-7), (0, -1, 0), (1, 1.7995889e-7, 2.0243996e-7), (0, -1, 0), (0, -1, 0), (1, 3.9676397e-8, 1.7511911e-7), (1, 5.2097285e-8, 1.5102343e-7), (0, -1, 0), (1, 3.9676397e-8, 1.7511911e-7), (0, -1, 0), (0, -1, 0), (1, 5.2097285e-8, 1.5102343e-7), (1, -1.0586737e-7, 1.6797117e-7), (0, -1, 0), (1, 5.2097285e-8, 1.5102343e-7), (0, -1, 0), (0, -1, 0), (1, -1.0586737e-7, 1.6797117e-7), (1, -2.5550595e-8, 4.088095e-7), (0, -1, 0), (1, -1.0586737e-7, 1.6797117e-7), (0, 0, 1), (0, -1, 0), (1, -2.5550595e-8, 4.088095e-7), (1, 3.949814e-8, 2.3698884e-7), (1, 1.2226683e-7, 2.9305502e-7), (0, 0, 1), (1, 1.2226683e-7, 2.9305502e-7), (1, 3.949814e-8, 2.3698884e-7), (1, 0, 1.6559699e-7), (1, 0, 1.6559699e-7), (0, 0, 1), (1, 1.2226683e-7, 2.9305502e-7), (0, 0, 1), (1, 0, 1.6559699e-7), (1, 5.2664248e-8, 1.18494555e-7), (1, 6.853091e-8, 1.7818037e-7), (1, -8.140902e-8, 4.230115e-7), (0, 1.07633426e-7, -1), (1, -8.140902e-8, 4.230115e-7), (1, 6.853091e-8, 1.7818037e-7), (1, 0, 1.6558165e-7), (1, 0, 1.6558165e-7), (0, 0, 1), (1, -8.140902e-8, 4.230115e-7), (0, 0, 1), (1, 0, 1.6558165e-7), (1, 1.3071158e-7, 2.751823e-7), (0, -1, 0), (-1, -2.5708395e-8, 1.6240017e-7), (-1, 3.4257454e-7, 1.6376669e-7), (-1, -2.5708395e-8, 1.6240017e-7), (0, -1, 0), (0, -1, 0), (0, -1, 0), (-1, 1.9838171e-7, 1.7511914e-7), (-1, -2.5708395e-8, 1.6240017e-7), (-1, 1.9838171e-7, 1.7511914e-7), (0, -1, 0), (0, -1, 0), (0, -1, 0), (-1, 1.3024312e-7, 1.5102344e-7), (-1, 1.9838171e-7, 1.7511914e-7), (-1, 1.3024312e-7, 1.5102344e-7), (0, -1, 0), (0, -1, 0), (0, -1, 0), (-1, 5.2933626e-7, 1.7407926e-7), (-1, 1.3024312e-7, 1.5102344e-7), (-1, 5.2933626e-7, 1.7407926e-7), (0, -1, 0), (0, -1, 0), (0, -1, 0), (-1, -2.5550616e-8, 0), (-1, 5.2933626e-7, 1.7407926e-7), (-1, -2.5550616e-8, 0), (0, -1, 0), (0, -2.5626778e-7, 1), (-1, -3.0399676e-7, 4.6697338e-8), (-1, 2.63321e-8, 0), (-1, -7.8636623e-7, 0.0000011233803), (-1, 2.63321e-8, 0), (-1, -3.0399676e-7, 4.6697338e-8), (-1, 5.887588e-7, 1.6559702e-7), (-1, -9.22907e-8, 9.22907e-8), (-1, 5.887588e-7, 1.6559702e-7), (-1, -3.0399676e-7, 4.6697338e-8), (-1, 5.887588e-7, 1.6559702e-7), (-1, -9.22907e-8, 9.22907e-8), (-1, 1.2507748e-7, 3.159852e-7), (-1, -7.877095e-8, 4.8400434e-8), (-1, 2.7412344e-8, -1.0964938e-7), (-1, -8.643308e-8, 5.7622056e-8), (-1, 2.7412344e-8, -1.0964938e-7), (-1, -7.877095e-8, 4.8400434e-8), (-1, 0, 1.8717925e-7), (-1, -9.667196e-8, 9.667196e-8), (-1, 0, 1.8717925e-7), (-1, -7.877095e-8, 4.8400434e-8), (-1, 0, 1.8717925e-7), (-1, -9.667196e-8, 9.667196e-8), (-1, -6.879553e-8, 1.9262748e-7), (1, -8.1565474e-8, 1.3553104e-7), (1, -1.0189053e-7, 8.915421e-8), (1, 0, 1.408696e-7), (1, -8.1565474e-8, 1.3553104e-7), (1, -1.793827e-7, 2.0250745e-7), (1, -1.0189053e-7, 8.915421e-8), (1, -1.2485138e-15, 1.8717084e-7), (1, -1.0189053e-7, 8.915421e-8), (1, -1.793827e-7, 2.0250745e-7), (1, -1.0189053e-7, 8.915421e-8), (1, -1.2485138e-15, 1.8717084e-7), (0, 0, 1), (1, -1.2485138e-15, 1.8717084e-7), (1, 1.0221582e-7, 8.943885e-8), (0, 0, 1), (1, 1.0221582e-7, 8.943885e-8), (1, 8.1565474e-8, 1.3553104e-7), (1, 0, 1.408696e-7), (1, 1.7995889e-7, 2.0243996e-7), (1, 8.1565474e-8, 1.3553104e-7), (1, 1.0221582e-7, 8.943885e-8), (1, 1.0221582e-7, 8.943885e-8), (1, -1.2485138e-15, 1.8717084e-7), (1, 1.7995889e-7, 2.0243996e-7), (1, -1.2485138e-15, 1.8717084e-7), (1, -1.793827e-7, 2.0250745e-7), (1, -1.3026373e-7, 2.879514e-7), (1, -3.9676397e-8, 1.7511911e-7), (1, -1.3026373e-7, 2.879514e-7), (1, -1.793827e-7, 2.0250745e-7), (1, -1.3026373e-7, 2.879514e-7), (0, 0, 1), (1, -1.2485138e-15, 1.8717084e-7), (1, -1.3026373e-7, 2.879514e-7), (1, -3.9676397e-8, 1.7511911e-7), (1, 0, 1.6558165e-7), (1, 1.3071158e-7, 2.751823e-7), (1, -1.2485138e-15, 1.8717084e-7), (0, 0, 1), (1, -1.2485138e-15, 1.8717084e-7), (1, 1.3071158e-7, 2.751823e-7), (1, 1.7995889e-7, 2.0243996e-7), (1, -3.9676397e-8, 1.7511911e-7), (1, -6.829699e-8, 1.9123158e-7), (1, 0, 1.6558165e-7), (1, 1.3071158e-7, 2.751823e-7), (1, 3.9676397e-8, 1.7511911e-7), (1, 1.7995889e-7, 2.0243996e-7), (1, -3.9676397e-8, 1.7511911e-7), (1, -5.192828e-8, 1.5101692e-7), (1, -6.829699e-8, 1.9123158e-7), (1, 3.9676397e-8, 1.7511911e-7), (1, 1.3071158e-7, 2.751823e-7), (1, 0, 1.6558165e-7), (1, 6.853091e-8, 1.7818037e-7), (1, 3.9676397e-8, 1.7511911e-7), (1, 0, 1.6558165e-7), (1, 5.2097285e-8, 1.5102343e-7), (1, 3.9676397e-8, 1.7511911e-7), (1, 6.853091e-8, 1.7818037e-7), (1, -1.248514e-15, 1.490116e-7), (1, -6.829699e-8, 1.9123158e-7), (1, -5.192828e-8, 1.5101692e-7), (1, 6.853091e-8, 1.7818037e-7), (1, -1.248514e-15, 1.490116e-7), (1, 5.2097285e-8, 1.5102343e-7), (1, -6.829699e-8, 1.9123158e-7), (1, -1.248514e-15, 1.490116e-7), (0, 0, 1), (1, -1.248514e-15, 1.490116e-7), (1, 6.853091e-8, 1.7818037e-7), (0, 0, 1), (1, -1.248514e-15, 1.490116e-7), (1, 5.2664248e-8, 1.18494555e-7), (1, 5.2097285e-8, 1.5102343e-7), (1, 5.2664248e-8, 1.18494555e-7), (1, -1.0586737e-7, 1.6797117e-7), (1, 5.2097285e-8, 1.5102343e-7), (1, 5.2664248e-8, 1.18494555e-7), (1, -1.248514e-15, 1.490116e-7), (0, 0, 1), (1, -1.0586737e-7, 1.6797117e-7), (1, 5.2664248e-8, 1.18494555e-7), (1, 0, 1.6559699e-7), (1, -5.2491547e-8, 1.1810598e-7), (0, 0, 1), (1, -1.248514e-15, 1.490116e-7), (1, -1.248514e-15, 1.490116e-7), (1, -5.192828e-8, 1.5101692e-7), (1, -5.2491547e-8, 1.1810598e-7), (1, 3.949814e-8, 2.3698884e-7), (1, -1.0586737e-7, 1.6797117e-7), (1, 0, 1.6559699e-7), (1, 1.0586737e-7, 1.6797117e-7), (1, -5.2491547e-8, 1.1810598e-7), (1, -5.192828e-8, 1.5101692e-7), (1, -2.5550595e-8, 4.088095e-7), (1, -1.0586737e-7, 1.6797117e-7), (1, 3.949814e-8, 2.3698884e-7), (1, -5.2491547e-8, 1.1810598e-7), (1, 1.0586737e-7, 1.6797117e-7), (1, 0, 1.6559699e-7), (1, 3.949814e-8, 2.3698884e-7), (1, -4.6510706e-24, 2.9325184e-7), (1, -2.5550595e-8, 4.088095e-7), (1, 1.0586737e-7, 1.6797117e-7), (1, -3.936862e-8, 2.3621172e-7), (1, 0, 1.6559699e-7), (1, -4.6510706e-24, 2.9325184e-7), (1, 3.949814e-8, 2.3698884e-7), (0, 0, 1), (1, -3.936862e-8, 2.3621172e-7), (1, -4.6510706e-24, 2.9325184e-7), (0, 0, 1), (1, 1.0586737e-7, 1.6797117e-7), (1, 2.5469289e-8, 4.0750862e-7), (1, -3.936862e-8, 2.3621172e-7), (1, -4.6510706e-24, 2.9325184e-7), (1, -3.936862e-8, 2.3621172e-7), (1, 2.5469289e-8, 4.0750862e-7), (1, -4.6510706e-24, 2.9325184e-7), (1, 2.5469289e-8, 4.0750862e-7), (0, 0, 1), (0, 0, 1), (0, 0, 1), (1, -4.6510706e-24, 2.9325184e-7), (0, 0, 1), (0, 0, 1), (1, -4.6510706e-24, 2.9325184e-7), (1, -4.6510706e-24, 2.9325184e-7), (0, 0, 1), (1, -2.5550595e-8, 4.088095e-7), (0, 0, 1), (0, 0, -1), (1, -1.0189053e-7, 8.915421e-8), (0, 0, -1), (0, 0, 1), (1, 0, 0), (0, 0, 1), (0, 0, -1), (1, 0, 0), (0, 0, -1), (0, 0, 1), (1, 1.0221582e-7, 8.943885e-8), (0, 0, 1), (0, 0, 1), (1, -3.936862e-8, 2.3621172e-7), (0, 0, 1), (0, 0, 1), (1, 0, 0), (0, 0, 1), (0, 0, 1), (1, 0, 0), (0, 0, 1), (0, 0, 1), (1, 3.949814e-8, 2.3698884e-7), (0, 0, 1), (1, -5.2491547e-8, 1.1810598e-7), (0, 0, 1), (0, 0, 1), (1, 0, 0), (0, 0, 1), (1, 0, 0), (0, 0, 1), (0, 0, 1), (0, 0, 1), (0, 0, 1), (1, 5.2664248e-8, 1.18494555e-7), (0, 0, 1), (0, -1.07057545e-7, -1), (1, -6.829699e-8, 1.9123158e-7), (0, -1.07057545e-7, -1), (0, 0, 1), (1, -2.3629551e-14, 0), (0, 0, 1), (0, 1.07633426e-7, -1), (1, -2.3629551e-14, 0), (0, 1.07633426e-7, -1), (0, 0, 1), (1, 6.853091e-8, 1.7818037e-7), (0, 0, 1), (1, -1.3026373e-7, 2.879514e-7), (0, 0, 1), (0, 0, 1), (1, 0, 0), (0, 0, 1), (1, 0, 0), (0, 0, 1), (0, 0, 1), (0, 0, 1), (0, 0, 1), (1, 1.3071158e-7, 2.751823e-7), (-1, -5.0945197e-8, 2.54726e-7), (-1, -3.4257405e-7, 1.6376667e-7), (-1, -5.086686e-7, 1.5260873e-7), (-1, 2.5626068e-8, 1.6235732e-7), (-1, -3.4257405e-7, 1.6376667e-7), (-1, -5.0945197e-8, 2.54726e-7), (-1, -5.0945197e-8, 2.54726e-7), (-1, -2.4970264e-15, 2.5805107e-7), (-1, 2.5626068e-8, 1.6235732e-7), (-1, -2.4970264e-15, 2.5805107e-7), (-1, -5.0945197e-8, 2.54726e-7), (-1, -5.118592e-15, 7.299437e-7), (-1, 5.1107875e-8, 2.555394e-7), (-1, -2.4970264e-15, 2.5805107e-7), (-1, -5.118592e-15, 7.299437e-7), (-1, 3.4257454e-7, 1.6376669e-7), (-1, 5.1107875e-8, 2.555394e-7), (-1, 5.0866936e-7, 1.5260875e-7), (-1, 3.4257454e-7, 1.6376669e-7), (-1, -2.5708395e-8, 1.6240017e-7), (-1, 5.1107875e-8, 2.555394e-7), (-1, -2.4970264e-15, 2.5805107e-7), (-1, 5.1107875e-8, 2.555394e-7), (-1, -2.5708395e-8, 1.6240017e-7), (-1, -2.4970264e-15, 2.5805107e-7), (-1, 6.8559764e-8, 2.1939124e-7), (-1, 2.5626068e-8, 1.6235732e-7), (-1, 6.8559764e-8, 2.1939124e-7), (-1, -1.9838144e-7, 1.7511913e-7), (-1, 2.5626068e-8, 1.6235732e-7), (-1, 6.8559764e-8, 2.1939124e-7), (-1, -2.4970264e-15, 2.5805107e-7), (-1, 0, 0), (-1, -1.9838144e-7, 1.7511913e-7), (-1, 6.8559764e-8, 2.1939124e-7), (-1, 0, 1.8717927e-7), (-1, -6.879553e-8, 1.9262748e-7), (-1, 0, 0), (-1, -2.4970264e-15, 2.5805107e-7), (-1, -2.4970264e-15, 2.5805107e-7), (-1, -2.5708395e-8, 1.6240017e-7), (-1, -6.879553e-8, 1.9262748e-7), (-1, -2.7318764e-8, -1.3659383e-7), (-1, -1.9838144e-7, 1.7511913e-7), (-1, 0, 1.8717927e-7), (-1, 1.9838171e-7, 1.7511914e-7), (-1, -6.879553e-8, 1.9262748e-7), (-1, -2.5708395e-8, 1.6240017e-7), (-1, -1.2982053e-7, 1.5101693e-7), (-1, -1.9838144e-7, 1.7511913e-7), (-1, -2.7318764e-8, -1.3659383e-7), (-1, -6.879553e-8, 1.9262748e-7), (-1, 1.9838171e-7, 1.7511914e-7), (-1, 0, 1.8717925e-7), (-1, 1.9838171e-7, 1.7511914e-7), (-1, 2.7412344e-8, -1.0964938e-7), (-1, 0, 1.8717925e-7), (-1, 1.9838171e-7, 1.7511914e-7), (-1, 1.3024312e-7, 1.5102344e-7), (-1, 2.7412344e-8, -1.0964938e-7), (-1, -2.7318764e-8, -1.3659383e-7), (-1, 6.2425677e-16, 7.631858e-8), (-1, -1.2982053e-7, 1.5101693e-7), (-1, 6.2425677e-16, 7.631858e-8), (-1, 2.7412344e-8, -1.0964938e-7), (-1, 1.3024312e-7, 1.5102344e-7), (-1, 6.2425677e-16, 7.631858e-8), (-1, -2.7318764e-8, -1.3659383e-7), (-1, 2.5592967e-15, 0), (-1, 2.7412344e-8, -1.0964938e-7), (-1, 6.2425677e-16, 7.631858e-8), (-1, 2.5592967e-15, 0), (-1, 6.2425677e-16, 7.631858e-8), (-1, 1.3024312e-7, 1.5102344e-7), (-1, 1.2507748e-7, 3.159852e-7), (-1, 5.2933626e-7, 1.7407926e-7), (-1, 1.2507748e-7, 3.159852e-7), (-1, 1.3024312e-7, 1.5102344e-7), (-1, 1.2507748e-7, 3.159852e-7), (-1, 0, 0), (-1, 6.2425677e-16, 7.631858e-8), (-1, 1.2507748e-7, 3.159852e-7), (-1, 5.2933626e-7, 1.7407926e-7), (-1, 5.887588e-7, 1.6559702e-7), (-1, -1.2466727e-7, 3.4119464e-7), (-1, 6.2425677e-16, 7.631858e-8), (-1, 0, 0), (-1, 6.2425677e-16, 7.631858e-8), (-1, -1.2466727e-7, 3.4119464e-7), (-1, -1.2982053e-7, 1.5101693e-7), (-1, 5.2933626e-7, 1.7407926e-7), (-1, 2.63321e-8, 0), (-1, 5.887588e-7, 1.6559702e-7), (-1, -1.2466727e-7, 3.4119464e-7), (-1, -5.2933547e-7, 1.7407922e-7), (-1, -1.2982053e-7, 1.5101693e-7), (-1, 5.2933626e-7, 1.7407926e-7), (-1, -2.5550616e-8, 0), (-1, 2.63321e-8, 0), (-1, -5.2933547e-7, 1.7407922e-7), (-1, -1.2466727e-7, 3.4119464e-7), (-1, -5.887579e-7, 1.65597e-7), (-1, 1.098691e-13, -6.283969e-8), (-1, 2.63321e-8, 0), (-1, -2.5550616e-8, 0), (-1, -2.6245713e-8, 2.6245713e-8), (-1, -5.2933547e-7, 1.7407922e-7), (-1, -5.887579e-7, 1.65597e-7), (-1, 2.63321e-8, 0), (-1, 1.098691e-13, -6.283969e-8), (-1, 0, 0), (-1, 1.098691e-13, -6.283969e-8), (-1, -2.6245713e-8, 2.6245713e-8), (-1, 0, 0), (-1, 2.5469255e-8, 0), (-1, -5.2933547e-7, 1.7407922e-7), (-1, -2.6245713e-8, 2.6245713e-8), (-1, -2.6245713e-8, 2.6245713e-8), (-1, 1.098691e-13, -6.283969e-8), (-1, 2.5469255e-8, 0), (-1, 2.5469255e-8, 0), (0, -1.3087387e-7, 1), (0, 0, 1), (0, -1.3087387e-7, 1), (-1, 2.5469255e-8, 0), (-1, 1.098691e-13, -6.283969e-8), (-1, -2.5550616e-8, 0), (0, -1.3087387e-7, 1), (-1, 1.098691e-13, -6.283969e-8), (0, -1.3087387e-7, 1), (-1, -2.5550616e-8, 0), (0, -2.5626778e-7, 1), (0, 0, 1), (-1, -5.0945197e-8, 2.54726e-7), (-1, 5.486871e-8, 5.486871e-8), (-1, -5.118592e-15, 7.299437e-7), (-1, -5.0945197e-8, 2.54726e-7), (0, 0, 1), (0, 0, 1), (-1, 5.1107875e-8, 2.555394e-7), (-1, -5.118592e-15, 7.299437e-7), (-1, 5.1107875e-8, 2.555394e-7), (0, 0, 1), (-1, -5.509539e-8, 5.509539e-8), (0, 0, 1), (-1, -2.6245713e-8, 2.6245713e-8), (-1, 7.830681e-7, 0.0000011186687), (-1, 0, 0), (-1, -2.6245713e-8, 2.6245713e-8), (0, 0, 1), (0, 0, 1), (-1, 2.63321e-8, 0), (-1, 0, 0), (-1, 2.63321e-8, 0), (0, 0, 1), (-1, -7.8636623e-7, 0.0000011233803), (-1, -1.2466727e-7, 3.4119464e-7), (0, 0, 1), (-1, 9.197239e-8, 9.197239e-8), (0, 0, 1), (-1, -1.2466727e-7, 3.4119464e-7), (-1, 0, 0), (-1, 1.2507748e-7, 3.159852e-7), (0, 0, 1), (-1, 0, 0), (0, 0, 1), (-1, 1.2507748e-7, 3.159852e-7), (-1, -9.22907e-8, 9.22907e-8), (0, 0, 1), (-1, -2.7318764e-8, -1.3659383e-7), (-1, 8.606125e-8, 5.7374162e-8), (-1, 2.5592967e-15, 0), (-1, -2.7318764e-8, -1.3659383e-7), (0, 0, 1), (0, 0, 1), (-1, 2.7412344e-8, -1.0964938e-7), (-1, 2.5592967e-15, 0), (-1, 2.7412344e-8, -1.0964938e-7), (0, 0, 1), (-1, -8.643308e-8, 5.7622056e-8), (-1, 6.8559764e-8, 2.1939124e-7), (0, 0, 1), (-1, 9.632279e-8, 9.632279e-8), (0, 0, 1), (-1, 6.8559764e-8, 2.1939124e-7), (-1, 0, 0), (-1, -6.879553e-8, 1.9262748e-7), (0, 0, 1), (-1, 0, 0), (0, 0, 1), (-1, -6.879553e-8, 1.9262748e-7), (-1, -9.667196e-8, 9.667196e-8), (0, 0, 1), (0, 0, -1), (0, 0, 1), (1, 0, 0), (0, 0, 1), (0, 0, -1), (0, 0, 1), (0, 0, 1), (0, 0, 1), (0, 0, 1), (1, 0, 0), (0, 0, 1), (1, 0, 3.56865e-8), (0, 0, 1), (0, 0, 1), (1, 0, 0), (0, 0, 1), (0, 0, 1), (1, 0, 3.56865e-8), (0, 0, 1), (0, 0, 1), (1, 0, 0), (1, 0, 3.56865e-8), (0, 0, 1), (1, 0, 3.56865e-8), (1, 0, 0), (0, 0, 1), (0, 0, 1), (1, 0, 0), (0, 0, 1), (0, 0, 1), (1, 0, 3.56865e-8), (0, 0, 1), (1, 0, 0), (0, 0, 1), (0, 0, 1), (1, 0, 3.56865e-8), (0, 0, 1), (0, 0, 1), (0, 0, 1), (0, 0, 1), (0, 0, 1), (0, 0, 1), (1, 0, 0), (0, 0, -1), (0, 0, -1), (0, 0, 1), (0, 0, 1), (0, 0, -1), (-1, 9.197239e-8, 9.197239e-8), (0, 8.8280714e-8, 1), (-1, 9.197239e-8, 9.197239e-8), (0, 0, 1), (0, 8.8280714e-8, 1), (-1, 3.0284608e-7, 4.6520793e-8), (-1, 9.197239e-8, 9.197239e-8), (0, 0, -1), (0, 0, 1), (-1, 9.197239e-8, 9.197239e-8), (0, 0, 1), (0, 0, 1), (-1, 3.0284608e-7, 4.6520793e-8), (0, 0, -1), (0, 0, 1), (-1, 0, 8.090385e-8), (0, 0, 1), (0, 0, 1), (-1, 0, 8.090385e-8), (0, 0, 1), (-1, 0, 8.090385e-8), (-1, 3.0284608e-7, 4.6520793e-8), (0, 0, 1), (-1, 0, 8.090385e-8), (0, 0, 1), (0, 0, 1), (-1, -9.22907e-8, 9.22907e-8), (0, 0, 1), (0, 0, 1), (0, 0, 1), (-1, -9.22907e-8, 9.22907e-8), (0, -8.8770285e-8, 1), (-1, -9.22907e-8, 9.22907e-8), (0, 0, -1), (0, -8.8770285e-8, 1), (-1, 0, 8.090385e-8), (0, 0, 1), (0, 0, 1), (-1, -9.22907e-8, 9.22907e-8), (-1, -3.0399676e-7, 4.6697338e-8), (0, 0, -1), (-1, -3.0399676e-7, 4.6697338e-8), (0, 0, 1), (0, 0, -1), (-1, -3.0399676e-7, 4.6697338e-8), (-1, 0, 8.090385e-8), (0, 0, 1), (0, 0, 1), (-1, 3.0284608e-7, 4.6520793e-8), (-1, 0, 8.090385e-8), (-1, 3.0284608e-7, 4.6520793e-8), (0, 0, 1), (0, 0, 1), (0, 0, -1), (-1, 3.0284608e-7, 4.6520793e-8), (0, 0, 1), (-1, 7.830681e-7, 0.0000011186687), (-1, 3.0284608e-7, 4.6520793e-8), (0, 0, -1), (0, 0, 1), (-1, 7.830681e-7, 0.0000011186687), (0, 0, -1), (0, 0, 1), (-1, 7.830681e-7, 0.0000011186687), (0, 0, 1), (0, 0, 1), (0, 0, 1), (0, 0, 1), (-1, 0, 8.090385e-8), (0, 0, 1), (0, 0, 1), (0, 0, 1), (-1, 0, 8.090385e-8), (0, 0, 1), (-1, -3.0399676e-7, 4.6697338e-8), (0, 0, 1), (-1, 0, 8.090385e-8), (0, 0, 1), (0, 0, 1), (0, 0, 1), (0, 0, 1), (-1, -3.0399676e-7, 4.6697338e-8), (0, 0, 1), (-1, -7.8636623e-7, 0.0000011233803), (0, 0, 1), (0, 0, 1), (-1, -3.0399676e-7, 4.6697338e-8), (0, 1.775405e-7, -1), (0, 0, 1), (-1, -7.8636623e-7, 0.0000011233803), (0, 0, 1), (0, 1.775405e-7, -1), (-1, -3.0399676e-7, 4.6697338e-8), (-1, -7.8636623e-7, 0.0000011233803), (0, 1.775405e-7, -1), (0, 0, 1), (-1, 8.912855e-8, 7.173413e-8), (0, 0, 1), (-1, 8.912855e-8, 7.173413e-8), (0, 0, 1), (0, 0, 1), (-1, 5.486871e-8, 5.486871e-8), (-1, 8.912855e-8, 7.173413e-8), (0, 0, 1), (0, 0, 1), (-1, 5.486871e-8, 5.486871e-8), (0, 0, 1), (0, 0, 1), (-1, 8.912855e-8, 7.173413e-8), (-1, -4.8650882e-24, -2.2754158e-8), (0, 0, 1), (-1, 5.486871e-8, 5.486871e-8), (0, 0, 1), (0, 0, 1), (0, 0, 1), (0, 0, 1), (-1, -4.8650882e-24, -2.2754158e-8), (0, 0, 1), (0, 0, 1), (0, 0, 1), (-1, -4.8650882e-24, -2.2754158e-8), (0, 0, 1), (-1, -8.942746e-8, 7.197417e-8), (0, 0, 1), (-1, -4.8650882e-24, -2.2754158e-8), (0, 0, 1), (0, 0, 1), (0, 0, 1), (0, 0, 1), (-1, -8.942746e-8, 7.197417e-8), (0, 0, 1), (-1, -5.509539e-8, 5.509539e-8), (0, 0, 1), (0, 0, 1), (-1, -8.942746e-8, 7.197417e-8), (0, 0, 1), (0, 0, 1), (-1, -5.509539e-8, 5.509539e-8), (0, 0, 1), (0, 0, 1), (-1, -8.942746e-8, 7.197417e-8), (-1, -5.509539e-8, 5.509539e-8), (0, 0, 1), (-5.9589485e-7, -4.4140357e-8, -1), (-1, 9.632279e-8, 9.632279e-8), (0, 0, 1), (-1, 9.632279e-8, 9.632279e-8), (0, 0, 1), (0, 0, 1), (-1, 7.846197e-8, 4.82108e-8), (-1, 9.632279e-8, 9.632279e-8), (-5.9589485e-7, -4.4140357e-8, -1), (0, 0, 1), (-1, 9.632279e-8, 9.632279e-8), (0, 0, 1), (0, 0, 1), (-1, 7.846197e-8, 4.82108e-8), (-5.9589485e-7, -4.4140357e-8, -1), (0, 0, 1), (-1, 0, 7.7161246e-8), (0, 0, 1), (0, 0, 1), (-1, 0, 7.7161246e-8), (0, 0, 1), (-1, 0, 7.7161246e-8), (-1, 7.846197e-8, 4.82108e-8), (0, 0, 1), (-1, 0, 7.7161246e-8), (0, 0, 1), (0, 0, 1), (-1, -9.667196e-8, 9.667196e-8), (0, 0, 1), (0, 0, 1), (0, 0, 1), (-1, -9.667196e-8, 9.667196e-8), (0, 0, 1), (-1, -9.667196e-8, 9.667196e-8), (-5.9919944e-7, 4.4385143e-8, -1), (0, 0, 1), (-1, 0, 7.7161246e-8), (0, 0, 1), (0, 0, 1), (-1, -9.667196e-8, 9.667196e-8), (-1, -7.877095e-8, 4.8400434e-8), (-5.9919944e-7, 4.4385143e-8, -1), (-1, -7.877095e-8, 4.8400434e-8), (0, 0, 1), (-5.9919944e-7, 4.4385143e-8, -1), (-1, -7.877095e-8, 4.8400434e-8), (-1, 0, 7.7161246e-8), (0, 0, 1), (0, 0, 1), (-1, 7.846197e-8, 4.82108e-8), (-1, 0, 7.7161246e-8), (-1, 7.846197e-8, 4.82108e-8), (0, 0, 1), (0, 2.2070179e-8, 1), (0, -8.82807e-8, -1), (-1, 7.846197e-8, 4.82108e-8), (0, 2.2070179e-8, 1), (-1, 8.606125e-8, 5.7374162e-8), (-1, 7.846197e-8, 4.82108e-8), (0, -8.82807e-8, -1), (0, 0, 1), (-1, 8.606125e-8, 5.7374162e-8), (0, -8.82807e-8, -1), (0, 0, 1), (-1, 8.606125e-8, 5.7374162e-8), (0, 0, 1), (0, 0, 1), (0, 0, 1), (0, 0, 1), (-1, 0, 7.7161246e-8), (0, 0, 1), (0, 0, 1), (0, 0, 1), (-1, 0, 7.7161246e-8), (0, 0, 1), (-1, -7.877095e-8, 4.8400434e-8), (0, 0, 1), (-1, 0, 7.7161246e-8), (0, 0, 1), (0, 0, 1), (0, 0, 1), (0, 0, 1), (-1, -7.877095e-8, 4.8400434e-8), (0, -2.2192571e-8, 1), (-1, -8.643308e-8, 5.7622056e-8), (0, 0, 1), (0, 0, 1), (-1, -7.877095e-8, 4.8400434e-8), (0, 8.877026e-8, -1), (0, -2.2192571e-8, 1), (-1, -8.643308e-8, 5.7622056e-8), (0, 0, 1), (0, 8.877026e-8, -1), (-1, -7.877095e-8, 4.8400434e-8), (-1, -8.643308e-8, 5.7622056e-8), (0, 8.877026e-8, -1), (0, 0, 1), (0, 0, 1), (0, 0, 1), (0, 0, 1), (1, -1.2184782e-7, 2.9346887e-7), (0, 0, 1), (1, 0, 0), (0, 0, 1), (0, 0, 1), (1, -1.2184782e-7, 2.9346887e-7), (0, 0, 1), (0, 0, 1), (1, 0, 0), (0, 0, 1), (0, 8.828078e-8, 1), (1, -5.4563745e-15, 2.8930117e-7), (0, 8.828078e-8, 1), (0, 0, 1), (1, -5.4563745e-15, 2.8930117e-7), (1, 0, 0), (0, 8.828078e-8, 1), (1, -1.2184782e-7, 2.9346887e-7), (1, -5.4563745e-15, 2.8930117e-7), (0, 0, 1), (1, 0, 0), (1, -5.4563745e-15, 2.8930117e-7), (0, -8.877034e-8, 1), (0, 0, 1), (1, 0, 0), (0, -8.877034e-8, 1), (1, 0, 0), (0, 0, 1), (0, 0, 1), (0, 0, 1), (0, 0, 1), (0, 0, 1), (1, 1.2226683e-7, 2.9305502e-7), (0, 0, 1), (0, 0, 1), (0, -8.877034e-8, 1), (1, -5.4563745e-15, 2.8930117e-7), (0, 0, 1), (0, 0, 1), (1, 1.2226683e-7, 2.9305502e-7), (0, 0, 1), (1, -5.4563745e-15, 2.8930117e-7), (1, 1.2226683e-7, 2.9305502e-7), (0, 0, 1), (1, -5.4563745e-15, 2.8930117e-7), (1, -1.2184782e-7, 2.9346887e-7), (0, 0, 1), (1, -1.2184782e-7, 2.9346887e-7), (0, 0, 1), (0, 0, 1), (1, -1.2184782e-7, 2.9346887e-7), (0, 0, 1), (0, 0, 1), (0, 0, 1), (0, 0, 1), (0, 0, 1), (1, -5.4563745e-15, 2.8930117e-7), (0, 0, 1), (0, 0, 1), (0, 0, 1), (1, 0, 0), (0, 0, 1), (1, 0, 0), (0, 0, 1), (0, 0, 1), (1, 0, 0), (1, -5.4563745e-15, 2.8930117e-7), (0, 0, 1), (1, -5.4563745e-15, 2.8930117e-7), (0, 0, 1), (1, 1.2226683e-7, 2.9305502e-7), (0, 0, 1), (1, -5.4563745e-15, 2.8930117e-7), (0, 0, 1), (1, -5.4563745e-15, 2.8930117e-7), (1, 0, 0), (0, 0, 1), (0, 0, 1), (1, 1.2226683e-7, 2.9305502e-7), (0, 0, 1), (0, 0, 1), (1, 0, 0), (0, 0, 1), (0, 0, 1), (1, 1.2226683e-7, 2.9305502e-7), (0, 0, 1), (1, 0, 0), (0, 0, 1), (0, 0, 1), (0, 0, 1), (0, 0, 1), (0, 0, 1), (0, 0, 1), (0, 0, 1), (0, 0, 1), (1, 0, 0), (0, 0, 1), (0, 0, 1), (0, 0, 1), (1, 8.11612e-8, 4.236129e-7), (0, 0, 1), (1, 0, 0), (0, 0, 1), (0, 0, 1), (1, 7.8184185e-16, 2.7596758e-7), (0, 0, 1), (1, 8.11612e-8, 4.236129e-7), (1, 7.8184185e-16, 2.7596758e-7), (1, 0, 0), (0, 0, 1), (0, 0, 1), (1, 7.8184185e-16, 2.7596758e-7), (5.9589524e-7, -2.2070195e-8, -1), (1, 7.8184185e-16, 2.7596758e-7), (0, 0, 1), (5.9589524e-7, -2.2070195e-8, -1), (1, 0, 0), (1, 7.8184185e-16, 2.7596758e-7), (0, 0, 1), (0, 0, 1), (1, 0, 0), (0, 0, 1), (1, 0, 0), (0, 0, 1), (0, 0, 1), (0, 0, 1), (1, 7.8184185e-16, 2.7596758e-7), (5.9919984e-7, 2.2192587e-8, -1), (0, 0, 1), (0, 0, 1), (0, 0, 1), (1, 7.8184185e-16, 2.7596758e-7), (0, 0, 1), (5.9919984e-7, 2.2192587e-8, -1), (1, -8.140902e-8, 4.230115e-7), (0, 0, 1), (0, 0, 1), (0, 0, 1), (1, 7.8184185e-16, 2.7596758e-7), (1, -8.140902e-8, 4.230115e-7), (1, 7.8184185e-16, 2.7596758e-7), (0, 0, 1), (1, -8.140902e-8, 4.230115e-7), (0, 0, 1), (1, -8.140902e-8, 4.230115e-7), (0, 0, 1), (0, 1.07633426e-7, -1), (1, -8.140902e-8, 4.230115e-7), (0, 0, 1), (0, 0, 1), (1, 7.8184185e-16, 2.7596758e-7), (0, -4.4385178e-8, 1), (0, 0, 1), (1, -2.3629551e-14, 0), (0, 1.07633426e-7, -1), (1, 7.8184185e-16, 2.7596758e-7), (1, -2.3629551e-14, 0), (0, -4.4385178e-8, 1), (1, -2.3629551e-14, 0), (0, 0, 1), (0, 8.877036e-8, -1), (0, -4.4385178e-8, 1), (1, -2.3629551e-14, 0), (0, 8.877036e-8, -1), (1, -2.3629551e-14, 0), (1, 7.8184185e-16, 2.7596758e-7), (0, 4.4140393e-8, 1), (1, -2.3629551e-14, 0), (0, 4.4140393e-8, 1), (0, -8.82808e-8, -1), (1, 7.8184185e-16, 2.7596758e-7), (0, 0, 1), (0, 4.4140393e-8, 1), (0, 0, 1), (1, -2.3629551e-14, 0), (0, -8.82808e-8, -1), (1, 7.8184185e-16, 2.7596758e-7), (1, 8.11612e-8, 4.236129e-7), (0, 0, 1), (1, 8.11612e-8, 4.236129e-7), (0, 0, 1), (0, 0, 1), (1, -2.3629551e-14, 0), (0, 0, 1), (0, -1.07057545e-7, -1), (1, 8.11612e-8, 4.236129e-7), (0, -1.07057545e-7, -1), (0, 0, 1)] (
        interpolation = "faceVarying"
    )
    point3f[] points = [(0.0000030840772, 0.021310559, 1.6640977), (0.000003465547, 1.7092383, 0.5542993), (0.000003312959, 1.7092383, 1.6640977), (0.0000032366652, 0.021310253, 0.5542994), (0.0000036944289, 0.021310253, -1.9755358), (0.0000038851636, 0.021310253, -3.1848936), (0.0000039233105, 1.7092383, -1.9755358), (0.0000041140456, 1.7092383, -3.1848936), (0.0000028933423, 0.021310559, 2.8338962), (0.0000030840772, 0.021310559, 1.7240977), (0.0000031222241, 1.7092383, 2.8338962), (0.000003312959, 1.7092383, 1.7240977), (0.000003541841, 1.7092383, 0.29429927), (0.000003312959, 0.021310253, 0.29429942), (0.000003465547, 0.021310253, -0.68665934), (0.0000036944289, 1.7092383, -0.6866594), (0.0000037325758, 1.7092383, -0.74665946), (0.000003465547, 0.021310253, -0.7466594), (0.000003656282, 0.021310253, -1.7155358), (0.0000038851636, 1.7092383, -1.7155358), (0.0000030840772, -0.03061571, 1.6640977), (0.000003465547, -1.7092347, 0.5542993), (0.0000032366652, -0.030615404, 0.5542994), (0.000003312959, -1.7092347, 1.6640977), (0.0000039233105, -1.7092347, -1.9755358), (0.0000038851636, -0.030615404, -3.1848936), (0.0000036944289, -0.030615404, -1.9755358), (0.0000041140456, -1.7092347, -3.1848936), (0.0000031222241, -1.7092347, 2.8338962), (0.0000030840772, -0.03061571, 1.7240977), (0.0000028933423, -0.03061571, 2.8338962), (0.000003312959, -1.7092347, 1.7240977), (0.000003312959, -0.030615404, 0.29429942), (0.000003541841, -1.7092347, 0.29429927), (0.000003465547, -0.030615404, -0.68665934), (0.0000036944289, -1.7092347, -0.6866594), (0.0000037325758, -1.7092347, -0.74665946), (0.000003656282, -0.030615404, -1.7155358), (0.000003465547, -0.030615404, -0.7466594), (0.0000038851636, -1.7092347, -1.7155358), (0.10000331, 1.7092383, 1.6640977), (0.1000035, 1.7092383, 0.5542993), (0.100003086, 0.021310559, 1.6640977), (0.100003235, 0.021310253, 0.5542994), (0.10000392, 1.7092383, -1.9755358), (0.100004114, 1.7092383, -3.1848936), (0.1000037, 0.021310253, -1.9755358), (0.10000388, 0.021310253, -3.1848936), (0.10000312, 1.7092383, 2.8338962), (0.10000331, 1.7092383, 1.7240977), (0.10000289, 0.021310559, 2.8338962), (0.10000305, 0.021310559, 1.7240977), (0.10000327, 0.021310253, 0.29429942), (0.100003466, 0.021310253, -0.68665934), (0.1000037, 1.7092383, -0.6866594), (0.10000354, 1.7092383, 0.29429927), (0.10000388, 1.7092383, -1.7155358), (0.100003734, 1.7092383, -0.7466594), (0.100003466, 0.021310253, -0.74665934), (0.10000365, 0.021310253, -1.7155358), (0.14000392, 1.7352015, -1.9455358), (0.100004114, 1.7352015, -3.2148936), (0.1400041, 1.7352015, -3.2148936), (0.10000392, 1.7352015, -1.9455358), (-0.100003816, 1.7092395, 1.6640977), (-0.0000040112595, 1.7092395, 0.5542993), (-0.000003858672, 1.7092395, 1.6640977), (-0.100003965, 1.7092395, 0.5542993), (-0.10000405, 0.021310406, 1.6640977), (-0.0000040875534, 0.021310406, 1.6640977), (-0.000004240141, 0.0213101, 0.5542994), (-0.10000427, 0.0213101, 0.5542994), (-0.10000443, 1.7092395, -1.9755358), (-0.000004621611, 1.7092395, -3.1848936), (-0.000004469023, 1.7092395, -1.9755358), (-0.10000466, 1.7092395, -3.1848936), (-0.10000473, 0.0213101, -1.9755358), (-0.000004697905, 0.0213101, -1.9755358), (-0.000004850493, 0.0213101, -3.1848936), (-0.10000488, 0.0213101, -3.1848936), (-0.10000367, 1.7092395, 2.833896), (-0.0000037823777, 1.7092395, 1.7240977), (-0.0000036297897, 1.7092395, 2.833896), (-0.100003816, 1.7092395, 1.7240977), (-0.10000389, 0.021310406, 2.833896), (-0.000003858672, 0.021310406, 2.833896), (-0.0000040494065, 0.021310406, 1.7240977), (-0.10000405, 0.021310406, 1.7240977), (-0.000004278288, 0.0213101, 0.29429942), (-0.000004469023, 0.0213101, -0.68665934), (-0.10000427, 0.0213101, 0.29429942), (-0.1000045, 0.0213101, -0.68665934), (-0.100004196, 1.7092395, -0.6866594), (-0.000004240141, 1.7092395, -0.6866594), (-0.10000405, 1.7092395, 0.29429927), (-0.0000040112595, 1.7092395, 0.29429927), (-0.100004196, 1.7092395, -0.7466594), (-0.10000443, 1.7092395, -1.7155358), (-0.000004240141, 1.7092395, -0.74665946), (-0.0000043927294, 1.7092395, -1.7155358), (-0.1000045, 0.0213101, -0.74665934), (-0.000004469023, 0.0213101, -0.7466594), (-0.10000466, 0.0213101, -1.7155358), (-0.000004659758, 0.0213101, -1.7155358), (-0.14000443, 1.7352021, -1.9455358), (-0.10000466, 1.7352021, -3.2148936), (-0.10000443, 1.7352021, -1.9455358), (-0.14000462, 1.7352021, -3.2148936), (0.10000331, -1.7092347, 1.6640977), (0.1000035, -1.7092347, 0.5542993), (0.100003086, -0.03061571, 1.6640977), (0.100003235, -0.030615404, 0.5542994), (0.10000392, -1.7092347, -1.9755358), (0.100004114, -1.7092347, -3.1848936), (0.1000037, -0.030615404, -1.9755358), (0.10000388, -0.030615404, -3.1848936), (0.10000312, -1.7092347, 2.8338962), (0.10000331, -1.7092347, 1.7240977), (0.10000289, -0.03061571, 2.8338962), (0.10000305, -0.03061571, 1.7240977), (0.10000327, -0.030615404, 0.29429942), (0.100003466, -0.030615404, -0.68665934), (0.1000037, -1.7092347, -0.6866594), (0.10000354, -1.7092347, 0.29429927), (0.100003734, -1.7092347, -0.7466594), (0.10000388, -1.7092347, -1.7155358), (0.100003466, -0.030615404, -0.74665934), (0.10000365, -0.030615404, -1.7155358), (0.14000392, -1.7351978, -1.9455358), (0.100004114, -1.7351978, -3.2148936), (0.10000392, -1.7351978, -1.9455358), (0.1400041, -1.7351978, -3.2148936), (-0.100003816, -1.7092359, 1.6640977), (-0.0000040112595, -1.7092359, 0.5542993), (-0.100003965, -1.7092359, 0.5542993), (-0.000003858672, -1.7092359, 1.6640977), (-0.0000040875534, -0.030615557, 1.6640977), (-0.10000405, -0.030615557, 1.6640977), (-0.000004240141, -0.030615252, 0.5542994), (-0.10000427, -0.030615252, 0.5542994), (-0.10000443, -1.7092359, -1.9755358), (-0.000004621611, -1.7092359, -3.1848936), (-0.10000466, -1.7092359, -3.1848936), (-0.000004469023, -1.7092359, -1.9755358), (-0.000004697905, -0.030615252, -1.9755358), (-0.10000473, -0.030615252, -1.9755358), (-0.000004850493, -0.030615252, -3.1848936), (-0.10000488, -0.030615252, -3.1848936), (-0.10000367, -1.7092359, 2.8338957), (-0.0000037823777, -1.7092359, 1.7240977), (-0.100003816, -1.7092359, 1.7240977), (-0.0000036297897, -1.7092359, 2.8338957), (-0.000003858672, -0.030615557, 2.833896), (-0.10000389, -0.030615557, 2.833896), (-0.0000040494065, -0.030615557, 1.7240977), (-0.10000405, -0.030615557, 1.7240977), (-0.000004469023, -0.030615252, -0.68665934), (-0.000004278288, -0.030615252, 0.29429942), (-0.10000427, -0.030615252, 0.29429942), (-0.1000045, -0.030615252, -0.68665934), (-0.100004196, -1.7092359, -0.6866594), (-0.000004240141, -1.7092359, -0.6866594), (-0.10000405, -1.7092359, 0.29429927), (-0.0000040112595, -1.7092359, 0.29429927), (-0.000004240141, -1.7092359, -0.74665946), (-0.10000443, -1.7092359, -1.7155358), (-0.100004196, -1.7092359, -0.7466594), (-0.0000043927294, -1.7092359, -1.7155358), (-0.000004469023, -0.030615252, -0.7466594), (-0.1000045, -0.030615252, -0.74665934), (-0.10000466, -0.030615252, -1.7155358), (-0.000004659758, -0.030615252, -1.7155358), (-0.14000443, -1.7351984, -1.9455358), (-0.10000466, -1.7351984, -3.2148936), (-0.14000462, -1.7351984, -3.2148936), (-0.10000443, -1.7351984, -1.9455358), (0.100004114, 1.8217443, -3.2148936), (0.14000392, 1.8217443, -1.8455358), (0.1400041, 1.8217443, -3.2148936), (0.10000392, 1.8217443, -1.8455358), (0.14000368, 1.8217443, -0.7166594), (0.100003734, 1.8217443, -0.7166594), (0.1400035, 1.8217443, 0.4242993), (0.1000035, 1.8217443, 0.4242993), (0.14000331, 1.8217443, 1.6940976), (0.10000331, 1.8217443, 1.6940976), (0.14000307, 1.8217443, 2.9638963), (0.10000312, 1.8217443, 2.9638963), (0.10000331, 1.7352015, 1.6940976), (0.14000311, 1.7352015, 2.8638961), (0.10000312, 1.7352015, 2.8638961), (0.14000331, 1.7352015, 1.6940976), (0.1000035, 1.7352015, 0.52429926), (0.1400035, 1.7352015, 0.52429926), (0.1000037, 1.7352015, -0.7166594), (0.14000353, 1.7352015, 0.32429928), (0.10000354, 1.7352015, 0.32429928), (0.14000368, 1.7352015, -0.7166594), (0.10000388, 1.7352015, -1.7455357), (0.14000387, 1.7352015, -1.7455357), (-0.14000443, 1.8217452, -1.8455358), (-0.10000462, 1.8217452, -3.2148936), (-0.14000466, 1.8217452, -3.2148936), (-0.10000439, 1.8217452, -1.8455358), (-0.1400042, 1.8217452, -0.7166594), (-0.100004196, 1.8217452, -0.7166594), (-0.14000405, 1.8217452, 0.4242993), (-0.10000401, 1.8217452, 0.4242993), (-0.14000383, 1.8217452, 1.6940976), (-0.10000378, 1.8217452, 1.6940976), (-0.14000359, 1.8217452, 2.963896), (-0.100003585, 1.8217452, 2.963896), (-0.14000359, 1.7352021, 2.863896), (-0.100003816, 1.7352021, 1.6940976), (-0.100003585, 1.7352021, 2.863896), (-0.14000379, 1.7352021, 1.6940976), (-0.100003965, 1.7352021, 0.52429926), (-0.14000398, 1.7352021, 0.52429926), (-0.14000401, 1.7352021, 0.32429928), (-0.100004196, 1.7352021, -0.7166594), (-0.10000405, 1.7352021, 0.32429928), (-0.1400042, 1.7352021, -0.7166594), (-0.10000443, 1.7352021, -1.7455357), (-0.1400044, 1.7352021, -1.7455357), (0.14000392, -1.8217406, -1.8455358), (0.100004114, -1.8217406, -3.2148936), (0.1400041, -1.8217406, -3.2148936), (0.10000392, -1.8217406, -1.8455358), (0.14000368, -1.8217406, -0.7166594), (0.100003734, -1.8217406, -0.7166594), (0.1400035, -1.8217406, 0.4242993), (0.1000035, -1.8217406, 0.4242993), (0.14000331, -1.8217406, 1.6940976), (0.10000331, -1.8217406, 1.6940976), (0.14000307, -1.8217406, 2.9638963), (0.10000312, -1.8217406, 2.9638963), (0.14000311, -1.7351978, 2.8638961), (0.10000331, -1.7351978, 1.6940976), (0.10000312, -1.7351978, 2.8638961), (0.14000331, -1.7351978, 1.6940976), (0.1000035, -1.7351978, 0.52429926), (0.1400035, -1.7351978, 0.52429926), (0.14000353, -1.7351978, 0.32429928), (0.1000037, -1.7351978, -0.7166594), (0.10000354, -1.7351978, 0.32429928), (0.14000368, -1.7351978, -0.7166594), (0.10000388, -1.7351978, -1.7455357), (0.14000387, -1.7351978, -1.7455357), (-0.10000462, -1.8217413, -3.2148936), (-0.14000443, -1.8217413, -1.8455358), (-0.14000466, -1.8217413, -3.2148936), (-0.10000439, -1.8217413, -1.8455358), (-0.1400042, -1.8217413, -0.7166594), (-0.100004196, -1.8217413, -0.7166594), (-0.14000405, -1.8217413, 0.4242993), (-0.10000401, -1.8217413, 0.4242993), (-0.14000383, -1.8217413, 1.6940976), (-0.10000378, -1.8217413, 1.6940976), (-0.14000359, -1.8217413, 2.9638956), (-0.100003585, -1.8217413, 2.9638956), (-0.100003816, -1.7351984, 1.6940976), (-0.14000359, -1.7351984, 2.8638957), (-0.100003585, -1.7351984, 2.8638957), (-0.14000379, -1.7351984, 1.6940976), (-0.100003965, -1.7351984, 0.52429926), (-0.14000398, -1.7351984, 0.52429926), (-0.100004196, -1.7351984, -0.7166594), (-0.14000401, -1.7351984, 0.32429928), (-0.10000405, -1.7351984, 0.32429928), (-0.1400042, -1.7351984, -0.7166594), (-0.10000443, -1.7351984, -1.7455357), (-0.1400044, -1.7351984, -1.7455357), (0.14000368, -0.0046525756, -1.8455358), (0.14000368, -0.0046525756, -1.9455358), (0.14000365, -0.0046525756, -1.7455357), (0.14000326, -0.0046525756, 0.42429942), (0.14000326, -0.0046525756, 0.32429942), (0.14000323, -0.0046525756, 0.52429944), (0.14000285, -0.0046525756, 2.9638963), (0.14000285, -0.0046525756, 2.8638961), (0.100002855, -0.0046525756, 2.9638963), (0.1000037, -0.0046525756, -1.9455358), (0.10000289, -0.0046525756, 2.8638961), (0.100003235, -0.0046525756, 0.52429944), (0.10000327, -0.0046525756, 0.32429942), (0.10000365, -0.0046525756, -1.7455357), (-0.14000466, -0.0046525756, -1.8455358), (-0.14000474, -0.0046525756, -1.9455358), (-0.14000466, -0.0046525756, -1.7455357), (-0.14000428, -0.0046525756, 0.42429942), (-0.14000428, -0.0046525756, 0.32429942), (-0.14000428, -0.0046525756, 0.52429944), (-0.1400039, -0.0046525756, 2.963896), (-0.1400039, -0.0046525756, 2.863896), (-0.10000389, -0.0046525756, 2.963896), (-0.10000473, -0.0046525756, -1.9455358), (-0.10000389, -0.0046525756, 2.863896), (-0.10000427, -0.0046525756, 0.52429944), (-0.10000427, -0.0046525756, 0.32429942), (-0.10000466, -0.0046525756, -1.7455357), (0.10000388, -0.0046525756, -3.2148936), (-0.10000405, -0.0046525756, 1.6940976), (-0.10000488, -0.0046525756, -3.2148936), (-0.1000045, -0.0046525756, -0.7166593), (0.10000305, -0.0046525756, 1.6940976), (0.100003466, -0.0046525756, -0.7166593)]
}

