#usda 1.0
(
    defaultPrim = "SM_Lobby_Stairs_02"
    upAxis = "Z"
)

def Mesh "SM_Lobby_Stairs_02"
{
    int[] faceVertexCounts = [3, 3, 3, 3, 3, 3, 3, 3, 3, 3, 3, 3, 3, 3, 3, 3, 3, 3, 3, 3, 3, 3, 3, 3, 3, 3, 3, 3, 3, 3, 3, 3, 3, 3, 3, 3, 3, 3, 3, 3, 3, 3, 3, 3, 3, 3, 3, 3, 3, 3, 3, 3, 3, 3, 3, 3, 3, 3, 3, 3, 3, 3, 3, 3, 3, 3, 3, 3, 3, 3, 3, 3, 3, 3, 3, 3, 3, 3, 3, 3, 3, 3, 3, 3, 3, 3, 3, 3, 3, 3, 3, 3, 3, 3, 3, 3, 3, 3, 3, 3, 3, 3, 3, 3, 3, 3, 3, 3, 3, 3, 3, 3, 3, 3, 3, 3, 3, 3, 3, 3, 3, 3, 3, 3, 3, 3, 3, 3, 3, 3, 3, 3, 3, 3, 3, 3, 3, 3, 3, 3, 3, 3, 3, 3, 3, 3, 3, 3, 3, 3, 3, 3, 3, 3, 3, 3, 3, 3, 3, 3, 3, 3, 3, 3, 3, 3, 3, 3, 3, 3, 3, 3, 3, 3, 3, 3, 3, 3, 3, 3, 3, 3, 3, 3, 3, 3, 3, 3, 3, 3, 3, 3, 3, 3, 3, 3, 3, 3, 3, 3, 3, 3, 3, 3, 3, 3, 3, 3, 3, 3, 3, 3, 3, 3, 3, 3, 3, 3, 3, 3, 3, 3, 3, 3, 3, 3, 3, 3, 3, 3, 3, 3, 3, 3, 3, 3, 3, 3, 3, 3, 3, 3, 3, 3, 3, 3, 3, 3, 3, 3, 3, 3, 3, 3, 3, 3, 3, 3, 3, 3, 3, 3, 3, 3, 3, 3, 3, 3, 3, 3, 3, 3, 3, 3, 3, 3, 3, 3, 3, 3, 3, 3, 3, 3, 3, 3, 3, 3, 3, 3, 3, 3, 3, 3, 3, 3, 3, 3, 3, 3, 3, 3, 3, 3, 3, 3, 3, 3, 3, 3, 3, 3, 3, 3, 3, 3, 3, 3, 3, 3, 3, 3, 3, 3, 3, 3, 3, 3, 3, 3, 3, 3, 3, 3, 3, 3, 3, 3, 3, 3, 3, 3, 3, 3, 3, 3, 3, 3, 3, 3, 3, 3, 3, 3, 3, 3, 3, 3, 3, 3, 3, 3, 3, 3, 3, 3, 3, 3, 3, 3, 3, 3, 3, 3, 3, 3, 3, 3, 3, 3, 3, 3, 3, 3, 3, 3, 3, 3, 3, 3, 3, 3, 3, 3, 3, 3, 3, 3, 3, 3, 3, 3, 3, 3, 3, 3, 3, 3, 3, 3, 3, 3, 3, 3, 3, 3, 3, 3, 3, 3, 3, 3, 3, 3, 3, 3, 3, 3, 3, 3, 3, 3, 3, 3, 3, 3, 3, 3, 3, 3, 3, 3, 3, 3, 3, 3, 3, 3, 3, 3, 3, 3, 3, 3, 3, 3, 3, 3, 3, 3, 3, 3, 3, 3, 3, 3, 3, 3, 3, 3, 3, 3, 3, 3, 3, 3, 3, 3, 3, 3, 3, 3, 3, 3, 3, 3, 3, 3, 3, 3, 3, 3, 3, 3, 3, 3, 3, 3, 3, 3, 3, 3, 3, 3, 3, 3, 3, 3, 3, 3, 3, 3, 3, 3, 3, 3, 3, 3, 3, 3, 3, 3, 3, 3, 3, 3, 3, 3, 3, 3, 3, 3, 3, 3, 3, 3, 3, 3, 3, 3, 3, 3, 3, 3, 3, 3, 3, 3, 3, 3, 3, 3, 3, 3, 3, 3, 3, 3, 3, 3, 3, 3, 3, 3, 3, 3, 3, 3, 3, 3, 3, 3]
    int[] faceVertexIndices = [0, 1, 2, 1, 0, 3, 4, 5, 6, 4, 6, 7, 2, 6, 0, 6, 2, 7, 8, 9, 10, 9, 8, 11, 12, 13, 14, 12, 14, 15, 10, 14, 8, 14, 10, 15, 16, 17, 18, 17, 16, 19, 20, 21, 22, 21, 20, 23, 18, 20, 16, 20, 18, 23, 24, 25, 26, 25, 24, 27, 28, 29, 30, 28, 30, 31, 26, 30, 24, 30, 26, 31, 32, 33, 34, 33, 32, 35, 36, 37, 38, 36, 38, 39, 34, 38, 32, 38, 34, 39, 40, 41, 42, 41, 40, 43, 44, 45, 46, 45, 44, 47, 42, 44, 40, 44, 42, 47, 48, 49, 50, 49, 48, 51, 52, 53, 54, 52, 54, 55, 50, 54, 48, 54, 50, 55, 56, 57, 58, 57, 56, 59, 60, 61, 62, 60, 62, 63, 58, 62, 56, 62, 58, 63, 64, 65, 66, 65, 64, 67, 68, 69, 70, 69, 68, 71, 66, 68, 64, 68, 66, 71, 72, 73, 74, 73, 72, 75, 76, 77, 78, 76, 78, 79, 74, 78, 72, 78, 74, 79, 80, 81, 82, 82, 83, 80, 84, 85, 86, 85, 84, 87, 88, 89, 90, 89, 88, 91, 92, 93, 94, 93, 92, 95, 96, 97, 98, 97, 96, 99, 100, 101, 102, 101, 100, 103, 104, 105, 106, 105, 104, 107, 108, 109, 110, 109, 108, 111, 112, 113, 114, 113, 112, 115, 116, 117, 118, 117, 116, 119, 120, 121, 122, 122, 121, 123, 124, 125, 126, 126, 125, 127, 128, 129, 130, 130, 129, 131, 132, 133, 134, 134, 133, 135, 136, 137, 138, 138, 137, 139, 140, 141, 142, 142, 141, 143, 144, 145, 146, 146, 145, 147, 148, 149, 150, 150, 149, 151, 152, 153, 154, 154, 153, 155, 156, 157, 158, 158, 157, 159, 160, 161, 162, 162, 161, 163, 5, 4, 164, 5, 164, 165, 165, 164, 166, 165, 166, 167, 13, 12, 168, 13, 168, 169, 169, 168, 170, 169, 170, 171, 29, 28, 172, 29, 172, 173, 173, 172, 174, 173, 174, 175, 37, 36, 176, 37, 176, 177, 177, 176, 178, 177, 178, 179, 53, 52, 180, 53, 180, 181, 181, 180, 182, 181, 182, 183, 61, 60, 184, 61, 184, 185, 185, 184, 186, 185, 186, 187, 77, 76, 188, 77, 188, 189, 189, 188, 190, 189, 190, 191, 192, 193, 194, 193, 195, 194, 149, 194, 195, 195, 151, 149, 196, 83, 82, 83, 196, 197, 198, 197, 196, 197, 198, 199, 102, 199, 198, 199, 102, 101, 101, 200, 199, 200, 101, 201, 202, 201, 101, 201, 202, 203, 98, 203, 202, 203, 98, 97, 97, 204, 203, 204, 97, 205, 206, 205, 97, 205, 206, 207, 94, 207, 206, 207, 94, 93, 93, 208, 207, 208, 93, 209, 210, 209, 93, 209, 210, 211, 90, 211, 210, 211, 90, 89, 89, 212, 211, 212, 89, 213, 214, 213, 89, 213, 214, 215, 86, 215, 214, 215, 86, 85, 85, 216, 215, 216, 85, 217, 218, 217, 85, 217, 218, 219, 118, 219, 218, 219, 118, 117, 117, 220, 219, 220, 117, 221, 222, 221, 117, 221, 222, 223, 114, 223, 222, 223, 114, 113, 113, 224, 223, 224, 113, 225, 226, 225, 113, 225, 226, 227, 110, 227, 226, 227, 110, 109, 109, 228, 227, 228, 109, 229, 230, 229, 109, 229, 230, 231, 106, 231, 230, 231, 106, 105, 105, 232, 231, 232, 105, 233, 234, 233, 105, 233, 234, 235, 236, 235, 234, 235, 236, 237, 235, 237, 238, 237, 121, 238, 238, 121, 239, 238, 239, 240, 120, 239, 121, 239, 120, 241, 242, 237, 236, 237, 242, 243, 121, 237, 243, 243, 123, 121, 244, 211, 245, 211, 244, 209, 246, 209, 244, 209, 246, 208, 205, 207, 247, 247, 248, 205, 204, 205, 248, 248, 249, 204, 201, 203, 250, 250, 251, 201, 200, 201, 251, 251, 252, 200, 253, 199, 254, 199, 253, 197, 80, 197, 253, 197, 80, 83, 229, 231, 255, 255, 256, 229, 228, 229, 256, 256, 257, 228, 221, 223, 258, 258, 259, 221, 220, 221, 259, 259, 260, 220, 214, 89, 91, 91, 261, 214, 86, 214, 261, 261, 84, 86, 262, 93, 95, 93, 262, 210, 88, 210, 262, 210, 88, 90, 202, 101, 103, 103, 263, 202, 98, 202, 263, 263, 96, 98, 236, 234, 242, 242, 234, 264, 234, 105, 264, 264, 105, 107, 226, 113, 115, 115, 265, 226, 110, 226, 265, 265, 108, 110, 198, 100, 102, 100, 198, 266, 196, 266, 198, 266, 196, 267, 81, 267, 196, 196, 82, 81, 194, 268, 192, 192, 268, 269, 268, 270, 269, 269, 270, 271, 272, 271, 270, 270, 273, 272, 127, 274, 126, 274, 127, 275, 276, 274, 275, 276, 275, 277, 277, 144, 276, 144, 277, 145, 277, 278, 145, 145, 278, 279, 279, 280, 145, 280, 279, 281, 281, 140, 280, 140, 281, 141, 281, 282, 141, 141, 282, 283, 283, 284, 141, 284, 283, 285, 285, 136, 284, 136, 285, 137, 285, 286, 137, 137, 286, 287, 287, 288, 137, 288, 287, 289, 289, 132, 288, 132, 289, 133, 289, 290, 133, 133, 290, 291, 291, 292, 133, 292, 291, 293, 293, 128, 292, 128, 293, 129, 293, 294, 129, 129, 294, 295, 295, 296, 129, 296, 295, 297, 297, 160, 296, 160, 297, 161, 297, 298, 161, 161, 298, 299, 300, 161, 299, 300, 299, 301, 301, 156, 300, 156, 301, 157, 301, 302, 157, 157, 302, 303, 304, 157, 303, 304, 303, 305, 305, 152, 304, 152, 305, 153, 305, 306, 153, 153, 306, 307, 308, 153, 307, 308, 307, 309, 309, 148, 308, 148, 309, 149, 309, 310, 149, 149, 310, 311, 194, 149, 311, 194, 311, 268, 192, 269, 193, 193, 269, 312, 269, 271, 312, 312, 271, 313, 274, 124, 126, 124, 274, 314, 276, 314, 274, 315, 314, 276, 276, 146, 315, 146, 276, 144, 291, 316, 293, 317, 316, 291, 290, 317, 291, 318, 317, 290, 279, 319, 281, 320, 319, 279, 278, 320, 279, 321, 320, 278, 299, 322, 301, 323, 322, 299, 298, 323, 299, 324, 323, 298, 292, 135, 133, 135, 292, 325, 128, 325, 292, 325, 128, 130, 137, 326, 139, 326, 137, 288, 288, 134, 326, 134, 288, 132, 141, 327, 143, 327, 141, 284, 284, 138, 327, 138, 284, 136, 280, 147, 145, 328, 147, 280, 140, 328, 280, 328, 140, 142, 304, 159, 157, 329, 159, 304, 152, 329, 304, 329, 152, 154, 161, 330, 163, 330, 161, 300, 300, 158, 330, 158, 300, 156, 331, 332, 333, 332, 331, 334, 22, 332, 334, 22, 21, 332, 335, 336, 337, 336, 335, 338, 46, 336, 338, 46, 45, 336, 339, 340, 341, 340, 339, 342, 70, 340, 342, 70, 69, 340, 217, 219, 343, 343, 344, 217, 345, 217, 344, 217, 345, 216, 346, 215, 347, 215, 346, 213, 212, 213, 346, 346, 348, 212, 349, 235, 350, 233, 235, 349, 232, 233, 349, 349, 351, 232, 352, 227, 353, 227, 352, 225, 224, 225, 352, 352, 354, 224, 218, 85, 87, 87, 355, 218, 116, 218, 355, 218, 116, 118, 206, 97, 99, 99, 356, 206, 92, 206, 356, 206, 92, 94, 230, 109, 111, 111, 357, 230, 104, 230, 357, 230, 104, 106, 358, 117, 119, 117, 358, 222, 114, 222, 358, 358, 112, 114, 359, 350, 235, 235, 238, 359, 238, 240, 359, 359, 240, 360, 297, 361, 362, 361, 297, 295, 294, 361, 295, 363, 361, 294, 289, 364, 365, 364, 289, 287, 286, 364, 287, 366, 364, 286, 285, 367, 368, 367, 285, 283, 282, 367, 283, 367, 282, 369, 277, 370, 371, 370, 277, 275, 127, 370, 275, 370, 127, 125, 372, 373, 268, 268, 311, 372, 310, 372, 311, 372, 310, 374, 309, 375, 376, 375, 309, 307, 306, 375, 307, 375, 306, 377, 305, 378, 379, 378, 305, 303, 302, 378, 303, 380, 378, 302, 296, 131, 129, 381, 131, 296, 296, 162, 381, 162, 296, 160, 308, 155, 153, 382, 155, 308, 308, 150, 382, 150, 308, 148, 373, 383, 268, 268, 383, 270, 273, 270, 383, 383, 384, 273, 385, 386, 387, 385, 387, 388, 389, 390, 386, 389, 386, 385, 388, 387, 391, 388, 391, 392, 393, 394, 395, 393, 395, 396, 397, 398, 394, 397, 394, 393, 396, 395, 399, 396, 399, 400, 401, 402, 403, 401, 403, 404, 405, 406, 402, 405, 402, 401, 404, 403, 407, 404, 407, 408, 409, 410, 411, 409, 411, 412, 413, 414, 410, 413, 410, 409, 412, 411, 415, 412, 415, 416, 417, 418, 419, 417, 419, 420, 421, 422, 418, 421, 418, 417, 420, 419, 423, 420, 423, 424, 425, 426, 427, 425, 427, 428, 429, 430, 426, 429, 426, 425, 428, 427, 431, 428, 431, 432, 433, 434, 435, 433, 435, 436, 437, 438, 434, 437, 434, 433, 436, 435, 439, 436, 439, 440, 441, 442, 443, 441, 443, 444, 445, 446, 442, 445, 442, 441, 443, 447, 444, 447, 443, 448, 449, 450, 451, 449, 451, 452, 453, 454, 450, 453, 450, 449, 452, 451, 455, 452, 455, 456, 457, 458, 459, 457, 459, 460, 461, 462, 458, 461, 458, 457, 460, 459, 463, 460, 463, 464, 465, 466, 467, 465, 467, 468, 469, 470, 466, 469, 466, 465, 468, 467, 471, 468, 471, 472, 473, 474, 475, 473, 475, 476, 477, 478, 474, 477, 474, 473, 476, 475, 479, 476, 479, 480, 481, 482, 483, 481, 483, 484, 485, 486, 482, 485, 482, 481, 484, 483, 487, 484, 487, 488, 489, 490, 491, 489, 491, 492, 493, 494, 490, 493, 490, 489, 492, 491, 495, 492, 495, 496, 497, 498, 499, 497, 499, 500, 501, 502, 498, 501, 498, 497, 500, 499, 503, 500, 503, 504, 505, 506, 507, 505, 507, 508, 509, 510, 506, 509, 506, 505, 508, 507, 511, 508, 511, 512, 513, 514, 515, 513, 515, 516, 517, 518, 514, 517, 514, 513, 516, 515, 519, 516, 519, 520, 521, 522, 523, 521, 523, 524, 525, 526, 522, 525, 522, 521, 524, 523, 527, 524, 527, 528, 529, 530, 531, 529, 531, 532, 533, 534, 530, 533, 530, 529, 532, 531, 535, 532, 535, 536, 537, 538, 539, 537, 539, 540, 541, 542, 538, 541, 538, 537, 540, 539, 543, 540, 543, 544]
    normal3f[] normals = [(0.41372815, 0.10594338, -0.90421516), (0.41372815, 0.10594338, -0.90421516), (0.41372815, 0.10594338, -0.90421516), (0.41372815, 0.10594338, -0.90421516), (0.41372815, 0.10594338, -0.90421516), (0.41372815, 0.10594338, -0.90421516), (0.41372815, 0.10594338, -0.90421516), (0.9102088, -0.06851521, 0.4084429), (0.41372815, 0.10594338, -0.90421516), (0.41372815, 0.10594338, -0.90421516), (0.41372815, 0.10594338, -0.90421516), (0.41372815, 0.10594338, -0.90421516), (0.41372815, 0.10594338, -0.90421516), (0.41372815, 0.10594338, -0.90421516), (0.41372815, 0.10594338, -0.90421516), (0.41372815, 0.10594338, -0.90421516), (0.41372815, 0.10594338, -0.90421516), (0.41372815, 0.10594338, -0.90421516), (0.41372815, 0.10594338, -0.90421516), (0.41372815, 0.10594338, -0.90421516), (0.41372815, 0.10594338, -0.90421516), (0.41372815, 0.10594338, -0.90421516), (0.41372815, 0.10594338, -0.90421516), (0.41372815, 0.10594338, -0.90421516), (0.41372815, 0.10594338, -0.90421516), (0.9102088, -0.06851521, 0.4084429), (0.41372815, 0.10594338, -0.90421516), (0.41372815, 0.10594338, -0.90421516), (0.41372815, 0.10594338, -0.90421516), (0.41372815, 0.10594338, -0.90421516), (0.41372815, 0.10594338, -0.90421516), (0.41372815, 0.10594338, -0.90421516), (0.41372815, 0.10594338, -0.90421516), (0.41372815, 0.10594338, -0.90421516), (0.41372815, 0.10594338, -0.90421516), (0.41372815, 0.10594338, -0.90421516), (0.41372815, 0.10594343, -0.90421516), (0.41372815, 0.10594343, -0.90421516), (0.41372815, 0.10594343, -0.90421516), (0.41372815, 0.10594343, -0.90421516), (0.41372815, 0.10594343, -0.90421516), (0.41372815, 0.10594343, -0.90421516), (0.41372815, 0.10594343, -0.90421516), (0.41372815, 0.10594343, -0.90421516), (0.9102088, -0.06851521, 0.4084429), (0.41372815, 0.10594343, -0.90421516), (0.41372815, 0.10594343, -0.90421516), (0.41372815, 0.10594343, -0.90421516), (0.41372815, 0.10594343, -0.90421516), (0.41372815, 0.10594343, -0.90421516), (0.41372815, 0.10594343, -0.90421516), (0.41372815, 0.10594343, -0.90421516), (0.41372815, 0.10594343, -0.90421516), (0.41372815, 0.10594343, -0.90421516), (0.41372815, 0.10594338, -0.90421516), (0.41372815, 0.10594338, -0.90421516), (0.41372815, 0.10594338, -0.90421516), (0.41372815, 0.10594338, -0.90421516), (0.41372815, 0.10594338, -0.90421516), (0.41372815, 0.10594338, -0.90421516), (0.41372815, 0.10594338, -0.90421516), (0.9102088, -0.06851521, 0.4084429), (0.41372815, 0.10594338, -0.90421516), (0.41372815, 0.10594338, -0.90421516), (0.41372815, 0.10594338, -0.90421516), (0.41372815, 0.10594338, -0.90421516), (0.41372815, 0.10594338, -0.90421516), (0.41372815, 0.10594338, -0.90421516), (0.41372815, 0.10594338, -0.90421516), (0.41372815, 0.10594338, -0.90421516), (0.41372815, 0.10594338, -0.90421516), (0.41372815, 0.10594338, -0.90421516), (0.41372815, 0.10594343, -0.90421516), (0.41372815, 0.10594343, -0.90421516), (0.41372815, 0.10594343, -0.90421516), (0.41372815, 0.10594343, -0.90421516), (0.41372815, 0.10594343, -0.90421516), (0.41372815, 0.10594343, -0.90421516), (0.41372815, 0.10594338, -0.90421516), (0.9102088, -0.06851521, 0.4084429), (0.41372815, 0.10594338, -0.90421516), (0.41372815, 0.10594338, -0.90421516), (0.41372815, 0.10594338, -0.90421516), (0.41372815, 0.10594338, -0.90421516), (0.41372815, 0.10594343, -0.90421516), (0.41372815, 0.10594338, -0.90421516), (0.41372815, 0.10594343, -0.90421516), (0.41372815, 0.10594338, -0.90421516), (0.41372815, 0.10594343, -0.90421516), (0.41372815, 0.10594338, -0.90421516), (0.41372815, 0.10594343, -0.90421516), (0.41372815, 0.10594343, -0.90421516), (0.41372815, 0.10594343, -0.90421516), (0.41372815, 0.10594343, -0.90421516), (0.41372815, 0.10594343, -0.90421516), (0.41372815, 0.10594343, -0.90421516), (0.41372815, 0.10594343, -0.90421516), (0.41372815, 0.10594343, -0.90421516), (0.9102088, -0.06851521, 0.4084429), (0.41372815, 0.10594343, -0.90421516), (0.41372815, 0.10594343, -0.90421516), (0.41372815, 0.10594343, -0.90421516), (0.41372815, 0.10594343, -0.90421516), (0.41372815, 0.10594343, -0.90421516), (0.41372815, 0.10594343, -0.90421516), (0.41372815, 0.10594343, -0.90421516), (0.41372815, 0.10594343, -0.90421516), (0.41372815, 0.10594343, -0.90421516), (0.41372815, 0.105943404, -0.90421516), (0.41372815, 0.105943404, -0.90421516), (0.41372815, 0.105943404, -0.90421516), (0.41372815, 0.105943404, -0.90421516), (0.41372815, 0.105943404, -0.90421516), (0.41372815, 0.105943404, -0.90421516), (0.41372815, 0.10594342, -0.90421516), (0.9102088, -0.06851521, 0.4084429), (0.41372815, 0.10594342, -0.90421516), (0.41372815, 0.10594342, -0.90421516), (0.41372815, 0.10594342, -0.90421516), (0.41372815, 0.10594342, -0.90421516), (0.41372815, 0.105943404, -0.90421516), (0.41372815, 0.10594342, -0.90421516), (0.41372815, 0.105943404, -0.90421516), (0.41372815, 0.10594342, -0.90421516), (0.41372815, 0.105943404, -0.90421516), (0.41372815, 0.10594342, -0.90421516), (0.41372815, 0.10594339, -0.90421516), (0.41372815, 0.10594339, -0.90421516), (0.41372815, 0.10594339, -0.90421516), (0.41372815, 0.10594339, -0.90421516), (0.41372815, 0.10594339, -0.90421516), (0.41372815, 0.10594339, -0.90421516), (0.41372815, 0.10594339, -0.90421516), (0.9102088, -0.06851521, 0.4084429), (0.41372815, 0.10594339, -0.90421516), (0.41372815, 0.10594339, -0.90421516), (0.41372815, 0.10594339, -0.90421516), (0.41372815, 0.10594339, -0.90421516), (0.41372815, 0.10594339, -0.90421516), (0.41372815, 0.10594339, -0.90421516), (0.41372815, 0.10594339, -0.90421516), (0.41372815, 0.10594339, -0.90421516), (0.41372815, 0.10594339, -0.90421516), (0.41372815, 0.10594339, -0.90421516), (0.41372815, 0.10594339, -0.90421516), (0.41372815, 0.10594339, -0.90421516), (0.41372815, 0.10594339, -0.90421516), (0.41372815, 0.10594339, -0.90421516), (0.41372815, 0.10594339, -0.90421516), (0.41372815, 0.10594339, -0.90421516), (0.41372815, 0.10594339, -0.90421516), (0.41372815, 0.10594339, -0.90421516), (0.9102088, -0.06851521, 0.4084429), (0.41372815, 0.10594339, -0.90421516), (0.41372815, 0.10594339, -0.90421516), (0.41372815, 0.10594339, -0.90421516), (0.41372815, 0.10594339, -0.90421516), (0.41372815, 0.10594339, -0.90421516), (0.41372815, 0.10594339, -0.90421516), (0.41372815, 0.10594339, -0.90421516), (0.41372815, 0.10594339, -0.90421516), (0.41372815, 0.10594339, -0.90421516), (0.41372815, 0.10594338, -0.90421516), (0.41372815, 0.10594338, -0.90421516), (0.41372815, 0.10594338, -0.90421516), (0.41372815, 0.10594338, -0.90421516), (0.41372815, 0.10594338, -0.90421516), (0.41372815, 0.10594338, -0.90421516), (0.41372815, 0.10594338, -0.90421516), (0.9102088, -0.06851521, 0.4084429), (0.41372815, 0.10594338, -0.90421516), (0.41372815, 0.10594338, -0.90421516), (0.41372815, 0.10594338, -0.90421516), (0.41372815, 0.10594338, -0.90421516), (0.41372815, 0.10594338, -0.90421516), (0.41372815, 0.10594338, -0.90421516), (0.41372815, 0.10594338, -0.90421516), (0.41372815, 0.10594338, -0.90421516), (0.41372815, 0.10594338, -0.90421516), (0.41372815, 0.10594338, -0.90421516), (0.9102088, -0.06851521, 0.4084429), (0.9102088, -0.06851521, 0.4084429), (0.018680526, 0.99200886, 0.12477758), (0.018680526, 0.99200886, 0.12477758), (0.018680526, 0.99200886, 0.12477758), (0.9102088, -0.06851521, 0.4084429), (0.41372806, 0.10593781, -0.9042158), (0.018681448, 0.9920089, 0.124777086), (0.018681062, 0.992009, 0.12477641), (0.018681448, 0.9920089, 0.124777086), (0.41372806, 0.10593781, -0.9042158), (0.9102087, -0.06851523, 0.40844312), (0.41372815, 0.105943725, -0.9042151), (0.018679786, 0.99200886, 0.12477768), (0.018679759, 0.9920088, 0.12477806), (0.018679786, 0.99200886, 0.12477768), (0.41372815, 0.105943725, -0.9042151), (0.9102087, -0.06851524, 0.40844318), (0.41372815, 0.105943725, -0.9042151), (0.01868078, 0.9920089, 0.12477703), (0.018681293, 0.9920089, 0.1247771), (0.01868078, 0.9920089, 0.12477703), (0.41372815, 0.105943725, -0.9042151), (0.9102087, -0.06851524, 0.40844318), (0.41372815, 0.105943725, -0.9042151), (0.018681353, 0.99200886, 0.12477728), (0.018681062, 0.992009, 0.12477641), (0.018681353, 0.99200886, 0.12477728), (0.41372815, 0.105943725, -0.9042151), (0.9102086, -0.06851526, 0.40844333), (0.41372815, 0.105943725, -0.9042151), (0.018679786, 0.99200886, 0.12477768), (0.018679759, 0.9920088, 0.12477806), (0.018679786, 0.99200886, 0.12477768), (0.41372815, 0.105943725, -0.9042151), (0.9102087, -0.06851524, 0.40844318), (0.41372815, 0.105943725, -0.9042151), (0.018680526, 0.99200886, 0.12477758), (0.018680755, 0.9920088, 0.12477827), (0.018680526, 0.99200886, 0.12477758), (0.41372815, 0.105943725, -0.9042151), (0.9102088, -0.06851521, 0.4084429), (0.41372815, 0.105943725, -0.9042151), (0.018680615, 0.99200886, 0.124777384), (0.018680526, 0.99200886, 0.12477758), (0.018680615, 0.99200886, 0.124777384), (0.41372815, 0.105943725, -0.9042151), (0.9102086, -0.06851526, 0.40844333), (0.4137281, 0.10594077, -0.90421546), (0.018680217, 0.992009, 0.12477673), (0.0186803, 0.992009, 0.12477689), (0.018680217, 0.992009, 0.12477673), (0.4137281, 0.10594077, -0.90421546), (0.9102087, -0.0685145, 0.4084433), (0.41372815, 0.105943725, -0.9042151), (0.018680435, 0.99200886, 0.12477778), (0.018680979, 0.9920087, 0.12477897), (0.018680435, 0.99200886, 0.12477778), (0.41372815, 0.105943725, -0.9042151), (0.9102087, -0.06851524, 0.40844318), (0.018680526, 0.99200886, 0.12477758), (0.018680526, 0.99200886, 0.12477758), (0.9102088, -0.06851521, 0.4084429), (0.9102088, -0.06851521, 0.4084429), (0.018680526, 0.99200886, 0.12477758), (0.9102088, -0.06851521, 0.4084429), (0.9102088, -0.06851521, 0.4084429), (-0.41372815, -0.105943725, 0.9042151), (-0.01867999, -0.99200875, -0.124778755), (-0.01867999, -0.99200875, -0.124778755), (-0.41372815, -0.105943725, 0.9042151), (-0.01867999, -0.99200875, -0.124778755), (-0.018679447, -0.99200857, -0.12477994), (-0.018678868, -0.9920088, -0.12477817), (0.41372815, 0.105943725, -0.9042151), (0.41372815, 0.105943725, -0.9042151), (-0.018678868, -0.9920088, -0.12477817), (0.9102087, -0.06851523, 0.40844312), (-0.018682597, -0.9920091, -0.12477544), (-0.018681947, -0.99200904, -0.12477598), (0.41372815, 0.105943725, -0.9042151), (0.41372815, 0.105943725, -0.9042151), (-0.018681947, -0.99200904, -0.12477598), (0.9102087, -0.06851524, 0.40844318), (-0.01868007, -0.99200904, -0.12477619), (-0.018680526, -0.99200886, -0.12477758), (0.41372815, 0.105943725, -0.9042151), (0.41372815, 0.105943725, -0.9042151), (-0.018680526, -0.99200886, -0.12477758), (0.9102087, -0.06851524, 0.40844318), (-0.018681062, -0.992009, -0.12477641), (-0.018681083, -0.9920088, -0.124777876), (0.41372815, 0.105943725, -0.9042151), (0.41372815, 0.105943725, -0.9042151), (-0.018681083, -0.9920088, -0.124777876), (0.9102086, -0.06851526, 0.40844333), (-0.018682597, -0.9920091, -0.12477544), (-0.018681947, -0.99200904, -0.12477598), (0.41372815, 0.105943725, -0.9042151), (0.41372815, 0.105943725, -0.9042151), (-0.018681947, -0.99200904, -0.12477598), (0.9102087, -0.06851524, 0.40844318), (-0.01868007, -0.99200904, -0.12477619), (-0.018680526, -0.99200886, -0.12477758), (0.41372815, 0.105943725, -0.9042151), (0.41372815, 0.105943725, -0.9042151), (-0.018680526, -0.99200886, -0.12477758), (0.9102088, -0.06851521, 0.4084429), (-0.018681062, -0.992009, -0.12477641), (-0.018681083, -0.9920088, -0.124777876), (0.41372815, 0.105943725, -0.9042151), (0.41372815, 0.105943725, -0.9042151), (-0.018681083, -0.9920088, -0.124777876), (0.9102086, -0.0685182, 0.40844283), (-0.018682906, -0.99200934, -0.12477357), (-0.01868348, -0.99200886, -0.12477719), (0.4137281, 0.10594077, -0.90421546), (0.4137281, 0.10594077, -0.90421546), (-0.01868348, -0.99200886, -0.12477719), (0.91020864, -0.068515986, 0.40844312), (-0.01868007, -0.99200904, -0.12477619), (-0.018680615, -0.99200886, -0.124777384), (0.41372815, 0.105943725, -0.9042151), (0.41372815, 0.105943725, -0.9042151), (-0.018680615, -0.99200886, -0.124777384), (0.9102087, -0.06851524, 0.40844318), (0.9102088, -0.06851521, 0.4084429), (0.41372815, 0.10594338, -0.90421516), (0.9102088, -0.06851521, 0.4084429), (0.9102088, -0.06851521, 0.4084429), (0.9102088, -0.06851521, 0.4084429), (0.9102088, -0.06851521, 0.4084429), (0.9102088, -0.06851521, 0.4084429), (0.9102088, -0.06851521, 0.4084429), (0.9102088, -0.06851521, 0.4084429), (0.9102088, -0.06851521, 0.4084429), (0.9102088, -0.06851521, 0.4084429), (0.9102088, -0.06851521, 0.4084429), (0.9102088, -0.06851521, 0.4084429), (0.41372815, 0.10594338, -0.90421516), (0.9102088, -0.06851521, 0.4084429), (0.9102088, -0.06851521, 0.4084429), (0.9102088, -0.06851521, 0.4084429), (0.9102088, -0.06851521, 0.4084429), (0.9102088, -0.06851521, 0.4084429), (0.9102088, -0.06851521, 0.4084429), (0.9102088, -0.06851521, 0.4084429), (0.9102088, -0.06851521, 0.4084429), (0.9102088, -0.06851521, 0.4084429), (0.9102088, -0.06851521, 0.4084429), (0.9102088, -0.06851521, 0.4084429), (0.41372815, 0.10594338, -0.90421516), (0.9102088, -0.06851521, 0.4084429), (0.9102088, -0.06851521, 0.4084429), (0.9102088, -0.06851521, 0.4084429), (0.9102088, -0.06851521, 0.4084429), (0.9102088, -0.06851521, 0.4084429), (0.9102088, -0.06851521, 0.4084429), (0.9102088, -0.06851521, 0.4084429), (0.9102088, -0.06851521, 0.4084429), (0.9102088, -0.06851521, 0.4084429), (0.9102088, -0.06851521, 0.4084429), (0.9102088, -0.06851521, 0.4084429), (0.41372815, 0.10594338, -0.90421516), (0.9102088, -0.06851521, 0.4084429), (0.9102088, -0.06851521, 0.4084429), (0.9102088, -0.06851521, 0.4084429), (0.9102088, -0.06851521, 0.4084429), (0.9102088, -0.06851521, 0.4084429), (0.9102088, -0.06851521, 0.4084429), (0.9102088, -0.06851521, 0.4084429), (0.9102088, -0.06851521, 0.4084429), (0.9102088, -0.06851521, 0.4084429), (0.9102088, -0.06851521, 0.4084429), (0.9102088, -0.06851521, 0.4084429), (0.41372815, 0.10594342, -0.90421516), (0.9102088, -0.06851521, 0.4084429), (0.9102088, -0.06851521, 0.4084429), (0.9102088, -0.06851521, 0.4084429), (0.9102088, -0.06851521, 0.4084429), (0.9102088, -0.06851521, 0.4084429), (0.9102088, -0.06851521, 0.4084429), (0.9102088, -0.06851521, 0.4084429), (0.9102088, -0.06851521, 0.4084429), (0.9102088, -0.06851521, 0.4084429), (0.9102088, -0.06851521, 0.4084429), (0.9102088, -0.06851521, 0.4084429), (0.41372815, 0.10594339, -0.90421516), (0.9102088, -0.06851521, 0.4084429), (0.9102088, -0.06851521, 0.4084429), (0.9102088, -0.06851521, 0.4084429), (0.9102088, -0.06851521, 0.4084429), (0.9102088, -0.06851521, 0.4084429), (0.9102088, -0.06851521, 0.4084429), (0.9102088, -0.06851521, 0.4084429), (0.9102088, -0.06851521, 0.4084429), (0.9102088, -0.06851521, 0.4084429), (0.9102088, -0.06851521, 0.4084429), (0.9102088, -0.06851521, 0.4084429), (0.41372815, 0.10594338, -0.90421516), (0.9102088, -0.06851521, 0.4084429), (0.9102088, -0.06851521, 0.4084429), (0.9102088, -0.06851521, 0.4084429), (0.9102088, -0.06851521, 0.4084429), (0.9102088, -0.06851521, 0.4084429), (0.9102088, -0.06851521, 0.4084429), (0.9102088, -0.06851521, 0.4084429), (0.9102088, -0.06851521, 0.4084429), (0.9102088, -0.06851521, 0.4084429), (0.9102088, -0.06851521, 0.4084429), (-0.018686108, -0.9920103, -0.12476538), (0.4137281, 0.10594077, -0.90421546), (-0.01868064, -0.9920089, -0.12477733), (0.4137281, 0.10594077, -0.90421546), (0.9102088, -0.06851521, 0.4084429), (-0.01868064, -0.9920089, -0.12477733), (-0.018680526, -0.99200886, -0.12477758), (-0.01868064, -0.9920089, -0.12477733), (0.9102088, -0.06851521, 0.4084429), (0.9102088, -0.06851521, 0.4084429), (0.9102088, -0.06851521, 0.4084429), (-0.018680526, -0.99200886, -0.12477758), (0.018680526, 0.99200886, 0.12477758), (0.018680526, 0.99200886, 0.12477758), (0.018680526, 0.99200886, 0.12477758), (0.018680526, 0.99200886, 0.12477758), (0.018680526, 0.99200886, 0.12477758), (0.018680189, 0.9920089, 0.12477716), (0.018679984, 0.9920089, 0.12477707), (0.018680189, 0.9920089, 0.12477716), (0.018680526, 0.99200886, 0.12477758), (0.018680189, 0.9920089, 0.12477716), (0.018679984, 0.9920089, 0.12477707), (0.018679788, 0.99200886, 0.124777675), (0.018679759, 0.9920088, 0.12477806), (0.018679788, 0.99200886, 0.124777675), (0.018679984, 0.9920089, 0.12477707), (0.018679788, 0.99200886, 0.124777675), (0.018679759, 0.9920088, 0.12477806), (0.018679786, 0.99200886, 0.12477768), (0.018679786, 0.99200886, 0.12477768), (0.018679762, 0.9920088, 0.12477807), (0.018679788, 0.99200886, 0.124777675), (0.018679762, 0.9920088, 0.12477807), (0.018679786, 0.99200886, 0.12477768), (0.018679976, 0.9920089, 0.12477707), (0.018680293, 0.9920089, 0.124776945), (0.018679976, 0.9920089, 0.12477707), (0.018679786, 0.99200886, 0.12477768), (0.018679976, 0.9920089, 0.12477707), (0.018680293, 0.9920089, 0.124776945), (0.018680869, 0.992009, 0.12477683), (0.018681062, 0.992009, 0.12477641), (0.018680869, 0.992009, 0.12477683), (0.018680293, 0.9920089, 0.124776945), (0.018680869, 0.992009, 0.12477683), (0.018681062, 0.992009, 0.12477641), (0.018681353, 0.99200886, 0.12477728), (0.018681353, 0.99200886, 0.12477728), (0.018681293, 0.9920089, 0.1247771), (0.018680869, 0.992009, 0.12477683), (0.018681293, 0.9920089, 0.1247771), (0.018681353, 0.99200886, 0.12477728), (0.01868161, 0.9920088, 0.12477807), (0.01868161, 0.9920088, 0.12477807), (0.01868161, 0.9920088, 0.12477807), (0.018681353, 0.99200886, 0.12477728), (0.01868161, 0.9920088, 0.12477807), (0.01868161, 0.9920088, 0.12477807), (0.018681357, 0.99200886, 0.12477729), (0.018681293, 0.9920089, 0.1247771), (0.018681357, 0.99200886, 0.12477729), (0.01868161, 0.9920088, 0.12477807), (0.018681357, 0.99200886, 0.12477729), (0.018681293, 0.9920089, 0.1247771), (0.01868078, 0.9920089, 0.12477703), (0.01868078, 0.9920089, 0.12477703), (0.018681064, 0.992009, 0.1247764), (0.018681357, 0.99200886, 0.12477729), (0.018681064, 0.992009, 0.1247764), (0.01868078, 0.9920089, 0.12477703), (0.018680086, 0.9920089, 0.124777384), (0.018679777, 0.99200886, 0.12477751), (0.018680086, 0.9920089, 0.124777384), (0.01868078, 0.9920089, 0.12477703), (0.018680086, 0.9920089, 0.124777384), (0.018679777, 0.99200886, 0.12477751), (0.018679699, 0.99200886, 0.124777876), (0.018679759, 0.9920088, 0.12477806), (0.018679699, 0.99200886, 0.124777876), (0.018679777, 0.99200886, 0.12477751), (0.018679699, 0.99200886, 0.124777876), (0.018679759, 0.9920088, 0.12477806), (0.018679786, 0.99200886, 0.12477768), (0.018679786, 0.99200886, 0.12477768), (0.018679759, 0.9920088, 0.12477806), (0.018679699, 0.99200886, 0.124777876), (0.018679759, 0.9920088, 0.12477806), (0.018679786, 0.99200886, 0.12477768), (0.018679984, 0.9920089, 0.12477707), (0.018680293, 0.9920089, 0.124776945), (0.018679984, 0.9920089, 0.12477707), (0.018679786, 0.99200886, 0.12477768), (0.018679984, 0.9920089, 0.12477707), (0.018680293, 0.9920089, 0.124776945), (0.018680869, 0.992009, 0.12477683), (0.018681062, 0.992009, 0.12477641), (0.018680869, 0.992009, 0.12477683), (0.018680293, 0.9920089, 0.124776945), (0.018680869, 0.992009, 0.12477683), (0.018681062, 0.992009, 0.12477641), (0.018681448, 0.9920089, 0.124777086), (0.018681448, 0.9920089, 0.124777086), (0.018681293, 0.9920089, 0.1247771), (0.018680869, 0.992009, 0.12477683), (0.018681293, 0.9920089, 0.1247771), (0.018681448, 0.9920089, 0.124777086), (0.018682154, 0.9920088, 0.12477805), (0.01868216, 0.9920087, 0.12477858), (0.018682154, 0.9920088, 0.12477805), (0.018681448, 0.9920089, 0.124777086), (0.018682154, 0.9920088, 0.12477805), (0.01868216, 0.9920087, 0.12477858), (0.018681496, 0.99200875, 0.124778494), (0.018680979, 0.9920087, 0.12477897), (0.018681496, 0.99200875, 0.124778494), (0.01868216, 0.9920087, 0.12477858), (0.018681496, 0.99200875, 0.124778494), (0.018680979, 0.9920087, 0.12477897), (0.018680435, 0.99200886, 0.12477778), (0.018680435, 0.99200886, 0.12477778), (0.018680526, 0.99200886, 0.12477758), (0.018681496, 0.99200875, 0.124778494), (0.018680526, 0.99200886, 0.12477758), (0.018680435, 0.99200886, 0.12477778), (0.018679982, 0.99200886, 0.1247776), (0.01867988, 0.9920089, 0.12477729), (0.018679982, 0.99200886, 0.1247776), (0.018680435, 0.99200886, 0.12477778), (0.018679982, 0.99200886, 0.1247776), (0.01867988, 0.9920089, 0.12477729), (0.018680042, 0.9920089, 0.12477712), (0.0186803, 0.992009, 0.12477689), (0.018680042, 0.9920089, 0.12477712), (0.01867988, 0.9920089, 0.12477729), (0.018680042, 0.9920089, 0.12477712), (0.0186803, 0.992009, 0.12477689), (0.018680217, 0.992009, 0.12477673), (0.018680217, 0.992009, 0.12477673), (0.018680297, 0.992009, 0.124776885), (0.018680042, 0.9920089, 0.12477712), (0.018680297, 0.992009, 0.124776885), (0.018680217, 0.992009, 0.12477673), (0.018680288, 0.99200904, 0.12477641), (0.018680386, 0.992009, 0.12477672), (0.018680288, 0.99200904, 0.12477641), (0.018680217, 0.992009, 0.12477673), (0.018680288, 0.99200904, 0.12477641), (0.018680386, 0.992009, 0.12477672), (0.018680615, 0.99200886, 0.124777384), (0.018680526, 0.99200886, 0.12477758), (0.018680615, 0.99200886, 0.124777384), (0.018680386, 0.992009, 0.12477672), (0.018680615, 0.99200886, 0.124777384), (0.018680526, 0.99200886, 0.12477758), (0.018680615, 0.99200886, 0.124777384), (0.018680615, 0.99200886, 0.124777384), (0.018680526, 0.99200886, 0.12477758), (0.018680615, 0.99200886, 0.124777384), (0.018680526, 0.99200886, 0.12477758), (0.018680615, 0.99200886, 0.124777384), (0.01868107, 0.99200886, 0.124777555), (0.018681176, 0.9920088, 0.124777876), (0.01868107, 0.99200886, 0.124777555), (0.018680615, 0.99200886, 0.124777384), (0.01868107, 0.99200886, 0.124777555), (0.018681176, 0.9920088, 0.124777876), (0.018681014, 0.9920088, 0.12477804), (0.018680755, 0.9920088, 0.12477827), (0.018681014, 0.9920088, 0.12477804), (0.018681176, 0.9920088, 0.124777876), (0.018681014, 0.9920088, 0.12477804), (0.018680755, 0.9920088, 0.12477827), (0.018680526, 0.99200886, 0.12477758), (0.018680526, 0.99200886, 0.12477758), (0.018680526, 0.99200886, 0.12477758), (0.018681014, 0.9920088, 0.12477804), (0.018680526, 0.99200886, 0.12477758), (0.018680526, 0.99200886, 0.12477758), (0.018680526, 0.99200886, 0.12477758), (0.018680526, 0.99200886, 0.12477758), (0.018680526, 0.99200886, 0.12477758), (0.018680526, 0.99200886, 0.12477758), (0.018680526, 0.99200886, 0.12477758), (0.018680526, 0.99200886, 0.12477758), (0.018680526, 0.99200886, 0.12477758), (0.018680526, 0.99200886, 0.12477758), (0.018680526, 0.99200886, 0.12477758), (0.018680526, 0.99200886, 0.12477758), (0.018680526, 0.99200886, 0.12477758), (0.018680526, 0.99200886, 0.12477758), (0.018680526, 0.99200886, 0.12477758), (0.018680526, 0.99200886, 0.12477758), (0.018680526, 0.99200886, 0.12477758), (0.018680526, 0.99200886, 0.12477758), (0.018680526, 0.99200886, 0.12477758), (0.018680526, 0.99200886, 0.12477758), (0.018680526, 0.99200886, 0.12477758), (0.018680526, 0.99200886, 0.12477758), (0.018680526, 0.99200886, 0.12477758), (0.018680526, 0.99200886, 0.12477758), (0.018680526, 0.99200886, 0.12477758), (0.018680526, 0.99200886, 0.12477758), (0.018680526, 0.99200886, 0.12477758), (0.018680526, 0.99200886, 0.12477758), (0.018680526, 0.99200886, 0.12477758), (0.018680526, 0.99200886, 0.12477758), (0.018680526, 0.99200886, 0.12477758), (0.018680526, 0.99200886, 0.12477758), (0.018680526, 0.99200886, 0.12477758), (0.9102088, -0.06851521, 0.4084429), (0.018680526, 0.99200886, 0.12477758), (0.018680526, 0.99200886, 0.12477758), (0.018680526, 0.99200886, 0.12477758), (0.9102088, -0.06851521, 0.4084429), (0.41372806, 0.10593781, -0.9042158), (0.018680526, 0.99200886, 0.12477758), (0.018680526, 0.99200886, 0.12477758), (0.41372806, 0.10593781, -0.9042158), (0.41372806, 0.10593781, -0.9042158), (0.9102088, -0.06851521, 0.4084429), (0.018680526, 0.99200886, 0.12477758), (-0.9102088, 0.06851521, -0.4084429), (0.018679699, 0.99200886, 0.124777876), (-0.9102088, 0.06851521, -0.4084429), (0.018679699, 0.99200886, 0.124777876), (-0.9102088, 0.06851521, -0.4084429), (0.018680086, 0.9920089, 0.124777384), (-0.9102088, 0.06851521, -0.4084429), (0.018680086, 0.9920089, 0.124777384), (-0.9102088, 0.06851521, -0.4084429), (0.018680086, 0.9920089, 0.124777384), (-0.9102088, 0.06851521, -0.4084429), (0.018681064, 0.992009, 0.1247764), (0.01868161, 0.9920088, 0.12477807), (0.018681357, 0.99200886, 0.12477729), (-0.9102088, 0.06851521, -0.4084429), (-0.9102088, 0.06851521, -0.4084429), (-0.9102088, 0.06851521, -0.4084429), (0.01868161, 0.9920088, 0.12477807), (0.018681293, 0.9920089, 0.1247771), (0.01868161, 0.9920088, 0.12477807), (-0.9102088, 0.06851521, -0.4084429), (-0.9102088, 0.06851521, -0.4084429), (-0.9102088, 0.06851521, -0.4084429), (0.018681293, 0.9920089, 0.1247771), (0.018679976, 0.9920089, 0.12477707), (0.018680869, 0.992009, 0.12477683), (-0.9102088, 0.06851521, -0.4084429), (-0.9102088, 0.06851521, -0.4084429), (-0.9102088, 0.06851521, -0.4084429), (0.018679976, 0.9920089, 0.12477707), (0.018679762, 0.9920088, 0.12477807), (0.018679976, 0.9920089, 0.12477707), (-0.9102088, 0.06851521, -0.4084429), (-0.9102088, 0.06851521, -0.4084429), (-0.9102088, 0.06851521, -0.4084429), (0.018679762, 0.9920088, 0.12477807), (-0.9102088, 0.06851521, -0.4084429), (0.018679788, 0.99200886, 0.124777675), (-0.9102088, 0.06851521, -0.4084429), (0.018679788, 0.99200886, 0.124777675), (-0.9102088, 0.06851521, -0.4084429), (0.018680189, 0.9920089, 0.12477716), (0.9102088, -0.06851521, 0.4084429), (0.018680189, 0.9920089, 0.12477716), (-0.9102088, 0.06851521, -0.4084429), (0.018680189, 0.9920089, 0.12477716), (0.9102088, -0.06851521, 0.4084429), (0.018680526, 0.99200886, 0.12477758), (0.01868107, 0.99200886, 0.124777555), (0.018681014, 0.9920088, 0.12477804), (-0.9102088, 0.06851521, -0.4084429), (-0.9102088, 0.06851521, -0.4084429), (-0.9102088, 0.06851521, -0.4084429), (0.01868107, 0.99200886, 0.124777555), (0.018680526, 0.99200886, 0.12477758), (0.01868107, 0.99200886, 0.124777555), (-0.9102088, 0.06851521, -0.4084429), (-0.9102088, 0.06851521, -0.4084429), (-0.9102088, 0.06851521, -0.4084429), (0.018680526, 0.99200886, 0.12477758), (0.018679982, 0.99200886, 0.1247776), (0.018680042, 0.9920089, 0.12477712), (-0.9102088, 0.06851521, -0.4084429), (-0.9102088, 0.06851521, -0.4084429), (-0.9102088, 0.06851521, -0.4084429), (0.018679982, 0.99200886, 0.1247776), (0.018680526, 0.99200886, 0.12477758), (0.018679982, 0.99200886, 0.1247776), (-0.9102088, 0.06851521, -0.4084429), (-0.9102088, 0.06851521, -0.4084429), (-0.9102088, 0.06851521, -0.4084429), (0.018680526, 0.99200886, 0.12477758), (0.018680293, 0.9920089, 0.124776945), (0.018679786, 0.99200886, 0.12477768), (0.9102087, -0.06851524, 0.40844318), (0.9102087, -0.06851524, 0.40844318), (0.9102086, -0.06851526, 0.40844333), (0.018680293, 0.9920089, 0.124776945), (0.018681062, 0.992009, 0.12477641), (0.018680293, 0.9920089, 0.124776945), (0.9102086, -0.06851526, 0.40844333), (0.9102086, -0.06851526, 0.40844333), (0.41372806, 0.10593781, -0.9042158), (0.018681062, 0.992009, 0.12477641), (0.91020864, -0.06851525, 0.40844324), (0.01868078, 0.9920089, 0.12477703), (0.9102087, -0.06851524, 0.40844318), (0.01868078, 0.9920089, 0.12477703), (0.91020864, -0.06851525, 0.40844324), (0.018679777, 0.99200886, 0.12477751), (0.41372815, 0.105943725, -0.9042151), (0.018679777, 0.99200886, 0.12477751), (0.91020864, -0.06851525, 0.40844324), (0.018679777, 0.99200886, 0.12477751), (0.41372815, 0.105943725, -0.9042151), (0.018679759, 0.9920088, 0.12477806), (0.018680293, 0.9920089, 0.124776945), (0.018679786, 0.99200886, 0.12477768), (0.9102087, -0.06851524, 0.40844318), (0.9102087, -0.06851524, 0.40844318), (0.9102087, -0.068515226, 0.40844306), (0.018680293, 0.9920089, 0.124776945), (0.018681062, 0.992009, 0.12477641), (0.018680293, 0.9920089, 0.124776945), (0.9102087, -0.068515226, 0.40844306), (0.9102087, -0.068515226, 0.40844306), (0.41372815, 0.105943725, -0.9042151), (0.018681062, 0.992009, 0.12477641), (0.018680526, 0.99200886, 0.12477758), (0.018680526, 0.99200886, 0.12477758), (0.9102088, -0.06851521, 0.4084429), (0.9102088, -0.06851521, 0.4084429), (0.018680526, 0.99200886, 0.12477758), (0.9102088, -0.06851521, 0.4084429), (0.018680526, 0.99200886, 0.12477758), (0.018680526, 0.99200886, 0.12477758), (0.9102088, -0.06851521, 0.4084429), (0.9102088, -0.06851521, 0.4084429), (0.018680526, 0.99200886, 0.12477758), (0.9102088, -0.06851521, 0.4084429), (0.018680386, 0.992009, 0.12477672), (0.018680217, 0.992009, 0.12477673), (0.9102087, -0.0685145, 0.4084433), (0.9102087, -0.0685145, 0.4084433), (0.91020864, -0.06851414, 0.40844348), (0.018680386, 0.992009, 0.12477672), (0.018680526, 0.99200886, 0.12477758), (0.018680386, 0.992009, 0.12477672), (0.91020864, -0.06851414, 0.40844348), (0.91020864, -0.06851414, 0.40844348), (0.41372815, 0.105943725, -0.9042151), (0.018680526, 0.99200886, 0.12477758), (0.018679984, 0.9920089, 0.12477707), (0.41372815, 0.105943725, -0.9042151), (0.018679759, 0.9920088, 0.12477806), (0.41372815, 0.105943725, -0.9042151), (0.018679984, 0.9920089, 0.12477707), (0.9102087, -0.06851524, 0.40844312), (0.018680526, 0.99200886, 0.12477758), (0.9102087, -0.06851524, 0.40844312), (0.018679984, 0.9920089, 0.12477707), (0.9102087, -0.06851524, 0.40844312), (0.018680526, 0.99200886, 0.12477758), (0.9102087, -0.06851523, 0.4084431), (0.9102088, -0.06851521, 0.4084429), (0.9102087, -0.06851523, 0.4084431), (0.018680526, 0.99200886, 0.12477758), (0.018680526, 0.99200886, 0.12477758), (0.018680526, 0.99200886, 0.12477758), (0.9102088, -0.06851521, 0.4084429), (-0.01868064, -0.9920089, -0.12477733), (-0.018681133, -0.99200904, -0.12477625), (-0.018686108, -0.9920103, -0.12476538), (-0.018686108, -0.9920103, -0.12476538), (-0.018681133, -0.99200904, -0.12477625), (0.9102088, -0.06851521, 0.4084429), (-0.018681133, -0.99200904, -0.12477625), (-0.01868612, -0.9920103, -0.12476535), (0.9102088, -0.06851521, 0.4084429), (0.9102088, -0.06851521, 0.4084429), (-0.01868612, -0.9920103, -0.12476535), (0.9102088, -0.06851521, 0.4084429), (-0.018686129, -0.9920103, -0.12476534), (0.9102088, -0.06851521, 0.4084429), (-0.01868612, -0.9920103, -0.12476535), (-0.01868612, -0.9920103, -0.12476535), (-0.41372806, -0.105937816, 0.9042158), (-0.018686129, -0.9920103, -0.12476534), (-0.01867999, -0.99200875, -0.124778755), (-0.018680396, -0.9920088, -0.12477786), (-0.01867999, -0.99200875, -0.124778755), (-0.018680396, -0.9920088, -0.12477786), (-0.01867999, -0.99200875, -0.124778755), (-0.01868131, -0.99200875, -0.124778196), (-0.01868192, -0.9920088, -0.12477794), (-0.018680396, -0.9920088, -0.12477786), (-0.01868131, -0.99200875, -0.124778196), (-0.01868192, -0.9920088, -0.12477794), (-0.01868131, -0.99200875, -0.124778196), (-0.01868244, -0.992009, -0.124776445), (-0.01868244, -0.992009, -0.124776445), (-0.018682597, -0.9920091, -0.12477544), (-0.01868192, -0.9920088, -0.12477794), (-0.018682597, -0.9920091, -0.12477544), (-0.01868244, -0.992009, -0.124776445), (-0.018681947, -0.99200904, -0.12477598), (-0.01868244, -0.992009, -0.124776445), (-0.018682366, -0.99200916, -0.12477474), (-0.018681947, -0.99200904, -0.12477598), (-0.018681947, -0.99200904, -0.12477598), (-0.018682366, -0.99200916, -0.12477474), (-0.01868127, -0.99200886, -0.124777645), (-0.01868127, -0.99200886, -0.124777645), (-0.01868096, -0.9920088, -0.12477778), (-0.018681947, -0.99200904, -0.12477598), (-0.01868096, -0.9920088, -0.12477778), (-0.01868127, -0.99200886, -0.124777645), (-0.018680869, -0.992009, -0.12477683), (-0.018680869, -0.992009, -0.12477683), (-0.018681062, -0.992009, -0.12477641), (-0.01868096, -0.9920088, -0.12477778), (-0.018681062, -0.992009, -0.12477641), (-0.018680869, -0.992009, -0.12477683), (-0.018681083, -0.9920088, -0.124777876), (-0.018680869, -0.992009, -0.12477683), (-0.018681293, -0.9920089, -0.1247771), (-0.018681083, -0.9920088, -0.124777876), (-0.018681083, -0.9920088, -0.124777876), (-0.018681293, -0.9920089, -0.1247771), (-0.018679984, -0.9920088, -0.12477814), (-0.018679984, -0.9920088, -0.12477814), (-0.018679574, -0.9920089, -0.12477742), (-0.018681083, -0.9920088, -0.124777876), (-0.018679574, -0.9920089, -0.12477742), (-0.018679984, -0.9920088, -0.12477814), (-0.01867955, -0.992009, -0.12477667), (-0.01867955, -0.992009, -0.12477667), (-0.01868007, -0.99200904, -0.12477619), (-0.018679574, -0.9920089, -0.12477742), (-0.01868007, -0.99200904, -0.12477619), (-0.01867955, -0.992009, -0.12477667), (-0.018680526, -0.99200886, -0.12477758), (-0.01867955, -0.992009, -0.12477667), (-0.018680526, -0.99200886, -0.12477758), (-0.018680526, -0.99200886, -0.12477758), (-0.018680526, -0.99200886, -0.12477758), (-0.018680526, -0.99200886, -0.12477758), (-0.018681204, -0.99200875, -0.12477842), (-0.018681204, -0.99200875, -0.12477842), (-0.018681712, -0.99200875, -0.12477838), (-0.018680526, -0.99200886, -0.12477758), (-0.018681712, -0.99200875, -0.12477838), (-0.018681204, -0.99200875, -0.12477842), (-0.01868235, -0.9920089, -0.12477664), (-0.01868235, -0.9920089, -0.12477664), (-0.018682597, -0.9920091, -0.12477544), (-0.018681712, -0.99200875, -0.12477838), (-0.018682597, -0.9920091, -0.12477544), (-0.01868235, -0.9920089, -0.12477664), (-0.018681947, -0.99200904, -0.12477598), (-0.01868235, -0.9920089, -0.12477664), (-0.018682366, -0.99200916, -0.12477474), (-0.018681947, -0.99200904, -0.12477598), (-0.018681947, -0.99200904, -0.12477598), (-0.018682366, -0.99200916, -0.12477474), (-0.01868127, -0.99200886, -0.124777645), (-0.01868127, -0.99200886, -0.124777645), (-0.018680656, -0.99200875, -0.124778435), (-0.018681947, -0.99200904, -0.12477598), (-0.018680656, -0.99200875, -0.124778435), (-0.01868127, -0.99200886, -0.124777645), (-0.018679839, -0.9920087, -0.12477908), (-0.018679839, -0.9920087, -0.12477908), (-0.018679447, -0.99200857, -0.12477994), (-0.018680656, -0.99200875, -0.124778435), (-0.018679447, -0.99200857, -0.12477994), (-0.018679839, -0.9920087, -0.12477908), (-0.018678868, -0.9920088, -0.12477817), (-0.018679839, -0.9920087, -0.12477908), (-0.018678995, -0.99200875, -0.12477855), (-0.018678868, -0.9920088, -0.12477817), (-0.018678868, -0.9920088, -0.12477817), (-0.018678995, -0.99200875, -0.12477855), (-0.018678356, -0.99200904, -0.12477661), (-0.018678356, -0.99200904, -0.12477661), (-0.018678559, -0.9920091, -0.12477617), (-0.018678868, -0.9920088, -0.12477817), (-0.018678559, -0.9920091, -0.12477617), (-0.018678356, -0.99200904, -0.12477661), (-0.018679557, -0.992009, -0.12477667), (-0.018679557, -0.992009, -0.12477667), (-0.01868007, -0.99200904, -0.12477619), (-0.018678559, -0.9920091, -0.12477617), (-0.01868007, -0.99200904, -0.12477619), (-0.018679557, -0.992009, -0.12477667), (-0.018680615, -0.99200886, -0.124777384), (-0.018679557, -0.992009, -0.12477667), (-0.018680526, -0.99200886, -0.12477758), (-0.018680615, -0.99200886, -0.124777384), (-0.018680615, -0.99200886, -0.124777384), (-0.018680526, -0.99200886, -0.12477758), (-0.01868107, -0.99200886, -0.124777555), (-0.01868157, -0.9920089, -0.12477699), (-0.018680615, -0.99200886, -0.124777384), (-0.01868107, -0.99200886, -0.124777555), (-0.01868157, -0.9920089, -0.12477699), (-0.01868107, -0.99200886, -0.124777555), (-0.018682381, -0.99200916, -0.12477504), (-0.018682381, -0.99200916, -0.12477504), (-0.018682906, -0.99200934, -0.12477357), (-0.01868157, -0.9920089, -0.12477699), (-0.018682906, -0.99200934, -0.12477357), (-0.018682381, -0.99200916, -0.12477504), (-0.01868348, -0.99200886, -0.12477719), (-0.018682381, -0.99200916, -0.12477504), (-0.018683592, -0.99200904, -0.12477565), (-0.01868348, -0.99200886, -0.12477719), (-0.01868348, -0.99200886, -0.12477719), (-0.018683592, -0.99200904, -0.12477565), (-0.018682698, -0.99200857, -0.12477962), (-0.018681992, -0.9920087, -0.12477904), (-0.01868348, -0.99200886, -0.12477719), (-0.018682698, -0.99200857, -0.12477962), (-0.018681992, -0.9920087, -0.12477904), (-0.018682698, -0.99200857, -0.12477962), (-0.018680869, -0.992009, -0.12477683), (-0.018680869, -0.992009, -0.12477683), (-0.018681062, -0.992009, -0.12477641), (-0.018681992, -0.9920087, -0.12477904), (-0.018681062, -0.992009, -0.12477641), (-0.018680869, -0.992009, -0.12477683), (-0.018681083, -0.9920088, -0.124777876), (-0.018680869, -0.992009, -0.12477683), (-0.018681288, -0.9920089, -0.12477709), (-0.018681083, -0.9920088, -0.124777876), (-0.018681083, -0.9920088, -0.124777876), (-0.018681288, -0.9920089, -0.12477709), (-0.018679984, -0.9920088, -0.12477814), (-0.018679583, -0.9920089, -0.12477742), (-0.018681083, -0.9920088, -0.124777876), (-0.018679984, -0.9920088, -0.12477814), (-0.018679583, -0.9920089, -0.12477742), (-0.018679984, -0.9920088, -0.12477814), (-0.01867955, -0.992009, -0.12477667), (-0.01867955, -0.992009, -0.12477667), (-0.01868007, -0.99200904, -0.12477619), (-0.018679583, -0.9920089, -0.12477742), (-0.01868007, -0.99200904, -0.12477619), (-0.01867955, -0.992009, -0.12477667), (-0.018680526, -0.99200886, -0.12477758), (-0.01867955, -0.992009, -0.12477667), (-0.018680526, -0.99200886, -0.12477758), (-0.018680526, -0.99200886, -0.12477758), (-0.018680526, -0.99200886, -0.12477758), (-0.018680526, -0.99200886, -0.12477758), (-0.018680526, -0.99200886, -0.12477758), (-0.01868064, -0.9920089, -0.12477733), (-0.018680526, -0.99200886, -0.12477758), (-0.018680526, -0.99200886, -0.12477758), (-0.01868064, -0.9920089, -0.12477733), (-0.018680526, -0.99200886, -0.12477758), (-0.018681133, -0.99200904, -0.12477625), (-0.018686108, -0.9920103, -0.12476538), (0.9102088, -0.06851521, 0.4084429), (0.4137281, 0.10594077, -0.90421546), (0.4137281, 0.10594077, -0.90421546), (0.9102088, -0.06851521, 0.4084429), (0.4137281, 0.10594077, -0.90421546), (0.9102088, -0.06851521, 0.4084429), (0.9102088, -0.06851521, 0.4084429), (0.4137281, 0.10594077, -0.90421546), (0.4137281, 0.10594077, -0.90421546), (0.9102088, -0.06851521, 0.4084429), (0.4137281, 0.10594077, -0.90421546), (-0.018680396, -0.9920088, -0.12477786), (0.9102088, -0.06851521, 0.4084429), (-0.01867999, -0.99200875, -0.124778755), (0.9102088, -0.06851521, 0.4084429), (-0.018680396, -0.9920088, -0.12477786), (0.9102088, -0.06851521, 0.4084429), (-0.01868192, -0.9920088, -0.12477794), (0.9102088, -0.06851521, 0.4084429), (-0.018680396, -0.9920088, -0.12477786), (0.9102088, -0.06851521, 0.4084429), (0.9102088, -0.06851521, 0.4084429), (-0.01868192, -0.9920088, -0.12477794), (-0.01868192, -0.9920088, -0.12477794), (0.41372815, 0.105943725, -0.9042151), (0.9102088, -0.06851521, 0.4084429), (0.41372815, 0.105943725, -0.9042151), (-0.01868192, -0.9920088, -0.12477794), (-0.018682597, -0.9920091, -0.12477544), (-0.01868127, -0.99200886, -0.124777645), (-0.9102088, 0.06851521, -0.4084429), (-0.018679839, -0.9920087, -0.12477908), (-0.9102088, 0.06851521, -0.4084429), (-0.9102088, 0.06851521, -0.4084429), (-0.01868127, -0.99200886, -0.124777645), (-0.018682366, -0.99200916, -0.12477474), (-0.9102088, 0.06851521, -0.4084429), (-0.01868127, -0.99200886, -0.124777645), (-0.9102088, 0.06851521, -0.4084429), (-0.9102088, 0.06851521, -0.4084429), (-0.018682366, -0.99200916, -0.12477474), (-0.01868127, -0.99200886, -0.124777645), (-0.9102088, 0.06851521, -0.4084429), (-0.018680869, -0.992009, -0.12477683), (-0.9102088, 0.06851521, -0.4084429), (-0.9102088, 0.06851521, -0.4084429), (-0.01868127, -0.99200886, -0.124777645), (-0.018682366, -0.99200916, -0.12477474), (-0.9102088, 0.06851521, -0.4084429), (-0.01868127, -0.99200886, -0.124777645), (-0.9102088, 0.06851521, -0.4084429), (-0.9102088, 0.06851521, -0.4084429), (-0.018682366, -0.99200916, -0.12477474), (-0.01868107, -0.99200886, -0.124777555), (-0.9102088, 0.06851521, -0.4084429), (-0.018682381, -0.99200916, -0.12477504), (-0.9102088, 0.06851521, -0.4084429), (-0.9102088, 0.06851521, -0.4084429), (-0.01868107, -0.99200886, -0.124777555), (-0.018680526, -0.99200886, -0.12477758), (-0.9102088, 0.06851521, -0.4084429), (-0.01868107, -0.99200886, -0.124777555), (-0.9102088, 0.06851521, -0.4084429), (-0.9102088, 0.06851521, -0.4084429), (-0.018680526, -0.99200886, -0.12477758), (-0.018680656, -0.99200875, -0.124778435), (0.9102087, -0.06851524, 0.40844318), (-0.018681947, -0.99200904, -0.12477598), (0.9102087, -0.06851524, 0.40844318), (-0.018680656, -0.99200875, -0.124778435), (0.9102086, -0.06851526, 0.40844333), (-0.018679447, -0.99200857, -0.12477994), (0.9102086, -0.06851526, 0.40844333), (-0.018680656, -0.99200875, -0.124778435), (0.9102086, -0.06851526, 0.40844333), (-0.018679447, -0.99200857, -0.12477994), (0.41372815, 0.105943725, -0.9042151), (-0.018680526, -0.99200886, -0.12477758), (0.91020864, -0.06851525, 0.40844324), (0.9102087, -0.06851524, 0.40844318), (0.91020864, -0.06851525, 0.40844324), (-0.018680526, -0.99200886, -0.12477758), (-0.018681712, -0.99200875, -0.12477838), (-0.018681712, -0.99200875, -0.12477838), (0.41372815, 0.105943725, -0.9042151), (0.91020864, -0.06851525, 0.40844324), (0.41372815, 0.105943725, -0.9042151), (-0.018681712, -0.99200875, -0.12477838), (-0.018682597, -0.9920091, -0.12477544), (-0.018681083, -0.9920088, -0.124777876), (0.91020864, -0.068515256, 0.4084433), (0.9102086, -0.06851526, 0.40844333), (0.91020864, -0.068515256, 0.4084433), (-0.018681083, -0.9920088, -0.124777876), (-0.018679574, -0.9920089, -0.12477742), (-0.018679574, -0.9920089, -0.12477742), (0.41372815, 0.105943725, -0.9042151), (0.91020864, -0.068515256, 0.4084433), (0.41372815, 0.105943725, -0.9042151), (-0.018679574, -0.9920089, -0.12477742), (-0.01868007, -0.99200904, -0.12477619), (-0.01868096, -0.9920088, -0.12477778), (0.9102087, -0.06851524, 0.40844318), (-0.018681947, -0.99200904, -0.12477598), (0.9102087, -0.068515226, 0.40844306), (0.9102087, -0.06851524, 0.40844318), (-0.01868096, -0.9920088, -0.12477778), (-0.018681062, -0.992009, -0.12477641), (0.9102087, -0.068515226, 0.40844306), (-0.01868096, -0.9920088, -0.12477778), (0.9102087, -0.068515226, 0.40844306), (-0.018681062, -0.992009, -0.12477641), (0.41372815, 0.105943725, -0.9042151), (-0.018681992, -0.9920087, -0.12477904), (0.91020864, -0.068515986, 0.40844312), (-0.01868348, -0.99200886, -0.12477719), (0.9102086, -0.06851639, 0.4084432), (0.91020864, -0.068515986, 0.40844312), (-0.018681992, -0.9920087, -0.12477904), (-0.018681062, -0.992009, -0.12477641), (0.9102086, -0.06851639, 0.4084432), (-0.018681992, -0.9920087, -0.12477904), (0.9102086, -0.06851639, 0.4084432), (-0.018681062, -0.992009, -0.12477641), (0.41372815, 0.105943725, -0.9042151), (-0.018680615, -0.99200886, -0.124777384), (0.91020864, -0.06851525, 0.40844324), (0.9102087, -0.06851524, 0.40844318), (0.91020864, -0.06851525, 0.40844324), (-0.018680615, -0.99200886, -0.124777384), (-0.01868157, -0.9920089, -0.12477699), (-0.01868157, -0.9920089, -0.12477699), (0.4137281, 0.10594077, -0.90421546), (0.91020864, -0.06851525, 0.40844324), (0.4137281, 0.10594077, -0.90421546), (-0.01868157, -0.9920089, -0.12477699), (-0.018682906, -0.99200934, -0.12477357), (0.9102088, -0.06851521, 0.4084429), (0.9102088, -0.06851521, 0.4084429), (0.9102088, -0.06851521, 0.4084429), (0.9102088, -0.06851521, 0.4084429), (0.9102088, -0.06851521, 0.4084429), (0.9102088, -0.06851521, 0.4084429), (0.9102088, -0.06851521, 0.4084429), (0.9102088, -0.06851521, 0.4084429), (0.9102088, -0.06851521, 0.4084429), (0.9102088, -0.06851521, 0.4084429), (0.41372815, 0.10594343, -0.90421516), (0.9102088, -0.06851521, 0.4084429), (0.9102088, -0.06851521, 0.4084429), (0.9102088, -0.06851521, 0.4084429), (0.9102088, -0.06851521, 0.4084429), (0.9102088, -0.06851521, 0.4084429), (0.9102088, -0.06851521, 0.4084429), (0.9102088, -0.06851521, 0.4084429), (0.9102088, -0.06851521, 0.4084429), (0.9102088, -0.06851521, 0.4084429), (0.9102088, -0.06851521, 0.4084429), (0.9102088, -0.06851521, 0.4084429), (0.41372815, 0.10594343, -0.90421516), (0.9102088, -0.06851521, 0.4084429), (0.9102088, -0.06851521, 0.4084429), (0.9102088, -0.06851521, 0.4084429), (0.9102088, -0.06851521, 0.4084429), (0.9102088, -0.06851521, 0.4084429), (0.9102088, -0.06851521, 0.4084429), (0.9102088, -0.06851521, 0.4084429), (0.9102088, -0.06851521, 0.4084429), (0.9102088, -0.06851521, 0.4084429), (0.9102088, -0.06851521, 0.4084429), (0.9102088, -0.06851521, 0.4084429), (0.41372815, 0.10594339, -0.90421516), (0.9102088, -0.06851521, 0.4084429), (0.018682154, 0.9920088, 0.12477805), (0.018681496, 0.99200875, 0.124778494), (-0.9102088, 0.06851521, -0.4084429), (-0.9102088, 0.06851521, -0.4084429), (-0.9102088, 0.06851521, -0.4084429), (0.018682154, 0.9920088, 0.12477805), (-0.9102088, 0.06851521, -0.4084429), (0.018682154, 0.9920088, 0.12477805), (-0.9102088, 0.06851521, -0.4084429), (0.018682154, 0.9920088, 0.12477805), (-0.9102088, 0.06851521, -0.4084429), (0.018681293, 0.9920089, 0.1247771), (-0.9102088, 0.06851521, -0.4084429), (0.018680869, 0.992009, 0.12477683), (-0.9102088, 0.06851521, -0.4084429), (0.018680869, 0.992009, 0.12477683), (-0.9102088, 0.06851521, -0.4084429), (0.018679984, 0.9920089, 0.12477707), (0.018679759, 0.9920088, 0.12477806), (0.018679984, 0.9920089, 0.12477707), (-0.9102088, 0.06851521, -0.4084429), (-0.9102088, 0.06851521, -0.4084429), (-0.9102088, 0.06851521, -0.4084429), (0.018679759, 0.9920088, 0.12477806), (-0.9102088, 0.06851521, -0.4084429), (0.018680526, 0.99200886, 0.12477758), (-0.9102088, 0.06851521, -0.4084429), (0.018680526, 0.99200886, 0.12477758), (0.018680526, 0.99200886, 0.12477758), (-0.9102088, 0.06851521, -0.4084429), (0.018680526, 0.99200886, 0.12477758), (0.018680526, 0.99200886, 0.12477758), (-0.9102088, 0.06851521, -0.4084429), (-0.9102088, 0.06851521, -0.4084429), (-0.9102088, 0.06851521, -0.4084429), (0.018680526, 0.99200886, 0.12477758), (-0.9102088, 0.06851521, -0.4084429), (0.018680615, 0.99200886, 0.124777384), (-0.9102088, 0.06851521, -0.4084429), (0.018680615, 0.99200886, 0.124777384), (-0.9102088, 0.06851521, -0.4084429), (0.018680288, 0.99200904, 0.12477641), (0.018680297, 0.992009, 0.124776885), (0.018680288, 0.99200904, 0.12477641), (-0.9102088, 0.06851521, -0.4084429), (-0.9102088, 0.06851521, -0.4084429), (-0.9102088, 0.06851521, -0.4084429), (0.018680297, 0.992009, 0.124776885), (0.01868216, 0.9920087, 0.12477858), (0.018681448, 0.9920089, 0.124777086), (0.9102087, -0.06851523, 0.40844312), (0.9102087, -0.06851523, 0.40844312), (0.91020864, -0.068515256, 0.40844327), (0.01868216, 0.9920087, 0.12477858), (0.41372815, 0.105943725, -0.9042151), (0.01868216, 0.9920087, 0.12477858), (0.91020864, -0.068515256, 0.40844327), (0.01868216, 0.9920087, 0.12477858), (0.41372815, 0.105943725, -0.9042151), (0.018680979, 0.9920087, 0.12477897), (0.01868161, 0.9920088, 0.12477807), (0.018681353, 0.99200886, 0.12477728), (0.9102086, -0.06851526, 0.40844333), (0.9102086, -0.06851526, 0.40844333), (0.91020864, -0.068515256, 0.4084433), (0.01868161, 0.9920088, 0.12477807), (0.41372815, 0.105943725, -0.9042151), (0.01868161, 0.9920088, 0.12477807), (0.91020864, -0.068515256, 0.4084433), (0.01868161, 0.9920088, 0.12477807), (0.41372815, 0.105943725, -0.9042151), (0.018681293, 0.9920089, 0.1247771), (0.018681176, 0.9920088, 0.124777876), (0.018680615, 0.99200886, 0.124777384), (0.9102086, -0.06851526, 0.40844333), (0.9102086, -0.06851526, 0.40844333), (0.91020864, -0.068515256, 0.4084433), (0.018681176, 0.9920088, 0.124777876), (0.41372815, 0.105943725, -0.9042151), (0.018681176, 0.9920088, 0.124777876), (0.91020864, -0.068515256, 0.4084433), (0.018681176, 0.9920088, 0.124777876), (0.41372815, 0.105943725, -0.9042151), (0.018680755, 0.9920088, 0.12477827), (0.91020864, -0.068515256, 0.4084433), (0.018680435, 0.99200886, 0.12477778), (0.9102087, -0.06851524, 0.40844318), (0.018680435, 0.99200886, 0.12477778), (0.91020864, -0.068515256, 0.4084433), (0.01867988, 0.9920089, 0.12477729), (0.0186803, 0.992009, 0.12477689), (0.01867988, 0.9920089, 0.12477729), (0.91020864, -0.068515256, 0.4084433), (0.91020864, -0.068515256, 0.4084433), (0.4137281, 0.10594077, -0.90421546), (0.0186803, 0.992009, 0.12477689), (-0.4137281, -0.10594077, 0.90421546), (-0.9102088, 0.06851521, -0.4084429), (0.018680526, 0.99200886, 0.12477758), (0.018680526, 0.99200886, 0.12477758), (0.018680526, 0.99200886, 0.12477758), (-0.4137281, -0.10594077, 0.90421546), (0.018680526, 0.99200886, 0.12477758), (0.018680526, 0.99200886, 0.12477758), (-0.4137281, -0.10594077, 0.90421546), (-0.4137281, -0.10594077, 0.90421546), (0.018680526, 0.99200886, 0.12477758), (-0.4137281, -0.10594077, 0.90421546), (-0.018679557, -0.992009, -0.12477667), (-0.9102088, 0.06851521, -0.4084429), (-0.9102088, 0.06851521, -0.4084429), (-0.9102088, 0.06851521, -0.4084429), (-0.018679557, -0.992009, -0.12477667), (-0.018678356, -0.99200904, -0.12477661), (-0.018678995, -0.99200875, -0.12477855), (-0.9102088, 0.06851521, -0.4084429), (-0.018678356, -0.99200904, -0.12477661), (-0.9102088, 0.06851521, -0.4084429), (-0.9102088, 0.06851521, -0.4084429), (-0.018678995, -0.99200875, -0.12477855), (-0.01868235, -0.9920089, -0.12477664), (-0.9102088, 0.06851521, -0.4084429), (-0.9102088, 0.06851521, -0.4084429), (-0.9102088, 0.06851521, -0.4084429), (-0.01868235, -0.9920089, -0.12477664), (-0.018681204, -0.99200875, -0.12477842), (-0.018680526, -0.99200886, -0.12477758), (-0.9102088, 0.06851521, -0.4084429), (-0.018681204, -0.99200875, -0.12477842), (-0.9102088, 0.06851521, -0.4084429), (-0.9102088, 0.06851521, -0.4084429), (-0.018680526, -0.99200886, -0.12477758), (-0.01867955, -0.992009, -0.12477667), (-0.9102088, 0.06851521, -0.4084429), (-0.9102088, 0.06851521, -0.4084429), (-0.9102088, 0.06851521, -0.4084429), (-0.01867955, -0.992009, -0.12477667), (-0.018679984, -0.9920088, -0.12477814), (-0.018681293, -0.9920089, -0.1247771), (-0.9102088, 0.06851521, -0.4084429), (-0.018679984, -0.9920088, -0.12477814), (-0.9102088, 0.06851521, -0.4084429), (-0.018681293, -0.9920089, -0.1247771), (-0.9102088, 0.06851521, -0.4084429), (-0.01868244, -0.992009, -0.124776445), (-0.9102088, 0.06851521, -0.4084429), (-0.9102088, 0.06851521, -0.4084429), (-0.9102088, 0.06851521, -0.4084429), (-0.01868244, -0.992009, -0.124776445), (-0.01868131, -0.99200875, -0.124778196), (-0.01867999, -0.99200875, -0.124778755), (-0.9102088, 0.06851521, -0.4084429), (-0.01868131, -0.99200875, -0.124778196), (-0.9102088, 0.06851521, -0.4084429), (-0.01867999, -0.99200875, -0.124778755), (-0.41372815, -0.105943725, 0.9042151), (-0.9102088, 0.06851521, -0.4084429), (-0.9102088, 0.06851521, -0.4084429), (-0.018681133, -0.99200904, -0.12477625), (-0.018681133, -0.99200904, -0.12477625), (-0.018680526, -0.99200886, -0.12477758), (-0.9102088, 0.06851521, -0.4084429), (-0.018680526, -0.99200886, -0.12477758), (-0.9102088, 0.06851521, -0.4084429), (-0.018680526, -0.99200886, -0.12477758), (-0.9102088, 0.06851521, -0.4084429), (-0.018680526, -0.99200886, -0.12477758), (-0.9102088, 0.06851521, -0.4084429), (-0.01867955, -0.992009, -0.12477667), (-0.9102088, 0.06851521, -0.4084429), (-0.9102088, 0.06851521, -0.4084429), (-0.9102088, 0.06851521, -0.4084429), (-0.01867955, -0.992009, -0.12477667), (-0.018679984, -0.9920088, -0.12477814), (-0.018681288, -0.9920089, -0.12477709), (-0.9102088, 0.06851521, -0.4084429), (-0.018679984, -0.9920088, -0.12477814), (-0.9102088, 0.06851521, -0.4084429), (-0.018681288, -0.9920089, -0.12477709), (-0.9102088, 0.06851521, -0.4084429), (-0.018680869, -0.992009, -0.12477683), (-0.9102088, 0.06851521, -0.4084429), (-0.9102088, 0.06851521, -0.4084429), (-0.9102088, 0.06851521, -0.4084429), (-0.018680869, -0.992009, -0.12477683), (-0.018682698, -0.99200857, -0.12477962), (-0.018683592, -0.99200904, -0.12477565), (-0.9102088, 0.06851521, -0.4084429), (-0.018682698, -0.99200857, -0.12477962), (-0.9102088, 0.06851521, -0.4084429), (-0.9102088, 0.06851521, -0.4084429), (-0.018683592, -0.99200904, -0.12477565), (-0.018678559, -0.9920091, -0.12477617), (0.9102087, -0.06851523, 0.40844312), (-0.018678868, -0.9920088, -0.12477817), (0.91020864, -0.068515256, 0.40844327), (0.9102087, -0.06851523, 0.40844312), (-0.018678559, -0.9920091, -0.12477617), (-0.018678559, -0.9920091, -0.12477617), (0.41372815, 0.105943725, -0.9042151), (0.91020864, -0.068515256, 0.40844327), (0.41372815, 0.105943725, -0.9042151), (-0.018678559, -0.9920091, -0.12477617), (-0.01868007, -0.99200904, -0.12477619), (-0.018679583, -0.9920089, -0.12477742), (0.9102086, -0.0685182, 0.40844283), (-0.018681083, -0.9920088, -0.124777876), (0.9102085, -0.06852117, 0.40844256), (0.9102086, -0.0685182, 0.40844283), (-0.018679583, -0.9920089, -0.12477742), (-0.018679583, -0.9920089, -0.12477742), (0.41372815, 0.105943725, -0.9042151), (0.9102085, -0.06852117, 0.40844256), (0.41372815, 0.105943725, -0.9042151), (-0.018679583, -0.9920089, -0.12477742), (-0.01868007, -0.99200904, -0.12477619), (-0.9102088, 0.06851521, -0.4084429), (-0.41372806, -0.10593781, 0.9042158), (-0.018681133, -0.99200904, -0.12477625), (-0.018681133, -0.99200904, -0.12477625), (-0.41372806, -0.10593781, 0.9042158), (-0.01868612, -0.9920103, -0.12476535), (-0.41372806, -0.105937816, 0.9042158), (-0.01868612, -0.9920103, -0.12476535), (-0.41372806, -0.10593781, 0.9042158), (-0.41372806, -0.10593781, 0.9042158), (-0.41372806, -0.10593781, 0.9042158), (-0.41372806, -0.105937816, 0.9042158), (0.9273874, -0.063829325, 0.36861718), (0.942746, -0.05904033, 0.32824418), (0.8912982, -0.07307068, 0.4474911), (0.9273874, -0.063829325, 0.36861718), (0.8912982, -0.07307068, 0.4474911), (0.87077194, -0.07747073, 0.48554555), (0.95622903, -0.054176945, 0.28756052), (0.95622903, -0.054176945, 0.28756052), (0.942746, -0.05904033, 0.32824418), (0.95622903, -0.054176945, 0.28756052), (0.942746, -0.05904033, 0.32824418), (0.9273874, -0.063829325, 0.36861718), (0.87077194, -0.07747073, 0.48554555), (0.8912982, -0.07307068, 0.4474911), (0.8487741, -0.081692986, 0.5224068), (0.87077194, -0.07747073, 0.48554555), (0.8487741, -0.081692986, 0.5224068), (0.8487734, -0.08169312, 0.522408), (0.92738724, -0.063829355, 0.36861745), (0.9427458, -0.0590404, 0.32824475), (0.8912982, -0.07307068, 0.4474911), (0.92738724, -0.063829355, 0.36861745), (0.8912982, -0.07307068, 0.4474911), (0.87077194, -0.07747073, 0.48554555), (0.9562286, -0.054177098, 0.2875618), (0.95622903, -0.05417694, 0.28756052), (0.9427458, -0.0590404, 0.32824475), (0.9562286, -0.054177098, 0.2875618), (0.9427458, -0.0590404, 0.32824475), (0.92738724, -0.063829355, 0.36861745), (0.87077194, -0.07747073, 0.48554555), (0.8912982, -0.07307068, 0.4474911), (0.8487741, -0.081692986, 0.5224068), (0.87077194, -0.07747073, 0.48554555), (0.8487741, -0.081692986, 0.5224068), (0.8487734, -0.08169312, 0.522408), (0.9273884, -0.06382902, 0.36861458), (0.94274807, -0.05903964, 0.32823837), (0.8912968, -0.073071, 0.44749388), (0.9273884, -0.06382902, 0.36861458), (0.8912968, -0.073071, 0.44749388), (0.8707689, -0.077471346, 0.4855509), (0.95623165, -0.05417589, 0.28755176), (0.95623165, -0.05417589, 0.28755176), (0.94274807, -0.05903964, 0.32823837), (0.95623165, -0.05417589, 0.28755176), (0.94274807, -0.05903964, 0.32823837), (0.9273884, -0.06382902, 0.36861458), (0.8707689, -0.077471346, 0.4855509), (0.8912968, -0.073071, 0.44749388), (0.8487685, -0.081694, 0.5224157), (0.8707689, -0.077471346, 0.4855509), (0.8487685, -0.081694, 0.5224157), (0.8487685, -0.081694, 0.5224157), (0.92738867, -0.06382895, 0.36861402), (0.94274807, -0.05903964, 0.32823837), (0.8912965, -0.07307107, 0.44749445), (0.92738867, -0.06382895, 0.36861402), (0.8912965, -0.07307107, 0.44749445), (0.8707689, -0.077471346, 0.4855509), (0.95623165, -0.05417589, 0.28755176), (0.95623165, -0.05417589, 0.28755176), (0.94274807, -0.05903964, 0.32823837), (0.95623165, -0.05417589, 0.28755176), (0.94274807, -0.05903964, 0.32823837), (0.92738867, -0.06382895, 0.36861402), (0.8707689, -0.077471346, 0.4855509), (0.8912965, -0.07307107, 0.44749445), (0.84877, -0.081693746, 0.52241343), (0.8707689, -0.077471346, 0.4855509), (0.84877, -0.081693746, 0.52241343), (0.84877145, -0.08169347, 0.5224111), (0.9273885, -0.063828975, 0.36861423), (0.9427475, -0.059039842, 0.32824004), (0.89129657, -0.07307103, 0.44749415), (0.9273885, -0.063828975, 0.36861423), (0.89129657, -0.07307103, 0.44749415), (0.87076926, -0.07747129, 0.48555046), (0.95623016, -0.054176513, 0.2875569), (0.95622927, -0.054176822, 0.28755948), (0.9427475, -0.059039842, 0.32824004), (0.95623016, -0.054176513, 0.2875569), (0.9427475, -0.059039842, 0.32824004), (0.9273885, -0.063828975, 0.36861423), (0.87076926, -0.07747129, 0.48555046), (0.89129657, -0.07307103, 0.44749415), (0.84876996, -0.08169375, 0.52241355), (0.87076926, -0.07747129, 0.48555046), (0.84876996, -0.08169375, 0.52241355), (0.84876996, -0.08169375, 0.52241355), (0.9273885, -0.063828975, 0.36861423), (0.9427475, -0.059039842, 0.32824004), (0.89129657, -0.07307103, 0.44749415), (0.9273885, -0.063828975, 0.36861423), (0.89129657, -0.07307103, 0.44749415), (0.87076926, -0.07747129, 0.48555046), (0.95623016, -0.054176513, 0.2875569), (0.95622927, -0.054176822, 0.28755948), (0.9427475, -0.059039842, 0.32824004), (0.95623016, -0.054176513, 0.2875569), (0.9427475, -0.059039842, 0.32824004), (0.9273885, -0.063828975, 0.36861423), (0.87076926, -0.07747129, 0.48555046), (0.89129657, -0.07307103, 0.44749415), (0.84876996, -0.08169375, 0.52241355), (0.87076926, -0.07747129, 0.48555046), (0.84876996, -0.08169375, 0.52241355), (0.84876996, -0.08169375, 0.52241355), (0.927388, -0.06382911, 0.3686154), (0.9427471, -0.05903998, 0.32824123), (0.8912969, -0.07307097, 0.44749364), (0.927388, -0.06382911, 0.3686154), (0.8912969, -0.07307097, 0.44749364), (0.87076926, -0.0774713, 0.4855505), (0.95623016, -0.054176506, 0.2875569), (0.95622927, -0.054176815, 0.28755948), (0.9427471, -0.05903998, 0.32824123), (0.95623016, -0.054176506, 0.2875569), (0.9427471, -0.05903998, 0.32824123), (0.927388, -0.06382911, 0.3686154), (0.87076926, -0.0774713, 0.4855505), (0.8912969, -0.07307097, 0.44749364), (0.8487685, -0.08169402, 0.5224159), (0.87076926, -0.0774713, 0.4855505), (0.8487685, -0.08169402, 0.5224159), (0.84876996, -0.08169375, 0.52241355), (0.927388, -0.06382911, 0.3686154), (0.9427471, -0.05903998, 0.32824123), (0.8812267, -0.075292006, 0.46665898), (0.927388, -0.06382911, 0.3686154), (0.8812267, -0.075292006, 0.46665898), (0.88122714, -0.07529194, 0.4666584), (0.95623016, -0.054176506, 0.2875569), (0.95622927, -0.054176815, 0.28755948), (0.9427471, -0.05903998, 0.32824123), (0.95623016, -0.054176506, 0.2875569), (0.9427471, -0.05903998, 0.32824123), (0.927388, -0.06382911, 0.3686154), (0.8812267, -0.075292006, 0.46665898), (0.8487685, -0.08169402, 0.5224159), (0.88122714, -0.07529194, 0.4666584), (0.8487685, -0.08169402, 0.5224159), (0.8812267, -0.075292006, 0.46665898), (0.84876704, -0.08169428, 0.5224182), (0.92738944, -0.06382873, 0.36861214), (0.94274986, -0.059039045, 0.32823342), (0.8912953, -0.073071346, 0.4474968), (0.92738944, -0.06382873, 0.36861214), (0.8912953, -0.073071346, 0.4474968), (0.87076634, -0.077471875, 0.48555553), (0.9562339, -0.054174982, 0.28754428), (0.9562339, -0.054174982, 0.28754428), (0.94274986, -0.059039045, 0.32823342), (0.9562339, -0.054174982, 0.28754428), (0.94274986, -0.059039045, 0.32823342), (0.92738944, -0.06382873, 0.36861214), (0.87076634, -0.077471875, 0.48555553), (0.8912953, -0.073071346, 0.4474968), (0.8487643, -0.08169475, 0.5224224), (0.87076634, -0.077471875, 0.48555553), (0.8487643, -0.08169475, 0.5224224), (0.8487673, -0.08169423, 0.5224178), (0.92738944, -0.06382873, 0.36861214), (0.94274986, -0.059039045, 0.32823342), (0.8912953, -0.073071346, 0.4474968), (0.92738944, -0.06382873, 0.36861214), (0.8912953, -0.073071346, 0.4474968), (0.87076634, -0.077471875, 0.48555553), (0.9562339, -0.054174982, 0.28754428), (0.9562339, -0.054174982, 0.28754428), (0.94274986, -0.059039045, 0.32823342), (0.9562339, -0.054174982, 0.28754428), (0.94274986, -0.059039045, 0.32823342), (0.92738944, -0.06382873, 0.36861214), (0.87076634, -0.077471875, 0.48555553), (0.8912953, -0.073071346, 0.4474968), (0.8487643, -0.08169475, 0.5224224), (0.87076634, -0.077471875, 0.48555553), (0.8487643, -0.08169475, 0.5224224), (0.8487673, -0.08169423, 0.5224178), (0.92738676, -0.063829504, 0.3686187), (0.94274473, -0.059040766, 0.32824782), (0.89129883, -0.07307055, 0.44748995), (0.92738676, -0.063829504, 0.3686187), (0.89129883, -0.07307055, 0.44748995), (0.8707739, -0.07747035, 0.48554218), (0.9562278, -0.05417739, 0.28756425), (0.9562278, -0.05417739, 0.28756425), (0.94274473, -0.059040766, 0.32824782), (0.9562278, -0.05417739, 0.28756425), (0.94274473, -0.059040766, 0.32824782), (0.92738676, -0.063829504, 0.3686187), (0.8707739, -0.07747035, 0.48554218), (0.89129883, -0.07307055, 0.44748995), (0.8487783, -0.08169221, 0.52239996), (0.8707739, -0.07747035, 0.48554218), (0.8487783, -0.08169221, 0.52239996), (0.84878135, -0.08169168, 0.5223954), (0.92738676, -0.0638295, 0.3686187), (0.94274473, -0.059040762, 0.32824782), (0.89129883, -0.07307055, 0.44748995), (0.92738676, -0.0638295, 0.3686187), (0.89129883, -0.07307055, 0.44748995), (0.8707739, -0.07747034, 0.48554218), (0.95622617, -0.054178007, 0.28756946), (0.9562247, -0.054178648, 0.28757474), (0.94274473, -0.059040762, 0.32824782), (0.95622617, -0.054178007, 0.28756946), (0.94274473, -0.059040762, 0.32824782), (0.92738676, -0.0638295, 0.3686187), (0.8707739, -0.07747034, 0.48554218), (0.89129883, -0.07307055, 0.44748995), (0.8487754, -0.08169273, 0.5224046), (0.8707739, -0.07747034, 0.48554218), (0.8487754, -0.08169273, 0.5224046), (0.8487754, -0.08169273, 0.5224046), (0.92738944, -0.06382871, 0.36861196), (0.9427494, -0.059039183, 0.32823455), (0.8912955, -0.07307129, 0.44749638), (0.92738944, -0.06382871, 0.36861196), (0.8912955, -0.07307129, 0.44749638), (0.87076694, -0.077471755, 0.48555443), (0.9562327, -0.05417546, 0.28754818), (0.9562327, -0.05417546, 0.28754818), (0.9427494, -0.059039183, 0.32823455), (0.9562327, -0.05417546, 0.28754818), (0.9427494, -0.059039183, 0.32823455), (0.92738944, -0.06382871, 0.36861196), (0.87076694, -0.077471755, 0.48555443), (0.8912955, -0.07307129, 0.44749638), (0.84876645, -0.08169436, 0.52241886), (0.87076694, -0.077471755, 0.48555443), (0.84876645, -0.08169436, 0.52241886), (0.84876645, -0.08169436, 0.52241886), (0.92738974, -0.06382865, 0.36861143), (0.9427494, -0.059039187, 0.32823455), (0.89129525, -0.07307136, 0.44749692), (0.92738974, -0.06382865, 0.36861143), (0.89129525, -0.07307136, 0.44749692), (0.87076694, -0.077471755, 0.48555443), (0.956233, -0.054175388, 0.28754756), (0.95623314, -0.054175302, 0.28754687), (0.9427494, -0.059039187, 0.32823455), (0.956233, -0.054175388, 0.28754756), (0.9427494, -0.059039187, 0.32823455), (0.92738974, -0.06382865, 0.36861143), (0.87076694, -0.077471755, 0.48555443), (0.89129525, -0.07307136, 0.44749692), (0.8487683, -0.08169404, 0.522416), (0.87076694, -0.077471755, 0.48555443), (0.8487683, -0.08169404, 0.522416), (0.8487702, -0.0816937, 0.52241313), (0.9273881, -0.06382911, 0.36861533), (0.9427472, -0.059039973, 0.32824117), (0.89129716, -0.07307091, 0.4474931), (0.9273881, -0.06382911, 0.36861533), (0.89129716, -0.07307091, 0.4474931), (0.87077045, -0.07747106, 0.4855484), (0.95622987, -0.054176606, 0.28755772), (0.9562298, -0.05417662, 0.28755787), (0.9427472, -0.059039973, 0.32824117), (0.95622987, -0.054176606, 0.28755772), (0.9427472, -0.059039973, 0.32824117), (0.9273881, -0.06382911, 0.36861533), (0.87077045, -0.07747106, 0.4855484), (0.89129716, -0.07307091, 0.4474931), (0.84877175, -0.08169342, 0.52241063), (0.87077045, -0.07747106, 0.4855484), (0.84877175, -0.08169342, 0.52241063), (0.84877175, -0.08169342, 0.52241063), (0.9273881, -0.06382911, 0.36861533), (0.9427472, -0.059039973, 0.32824117), (0.8912971, -0.07307091, 0.44749314), (0.9273881, -0.06382911, 0.36861533), (0.8912971, -0.07307091, 0.44749314), (0.87077034, -0.07747106, 0.48554844), (0.95622987, -0.054176603, 0.2875577), (0.9562299, -0.054176584, 0.28755754), (0.9427472, -0.059039973, 0.32824117), (0.95622987, -0.054176603, 0.2875577), (0.9427472, -0.059039973, 0.32824117), (0.9273881, -0.06382911, 0.36861533), (0.87077034, -0.07747106, 0.48554844), (0.8912971, -0.07307091, 0.44749314), (0.84877175, -0.08169342, 0.52241063), (0.87077034, -0.07747106, 0.48554844), (0.84877175, -0.08169342, 0.52241063), (0.84877175, -0.08169342, 0.52241063), (0.9273881, -0.0638291, 0.3686153), (0.9427471, -0.05903998, 0.32824123), (0.8912971, -0.07307091, 0.44749314), (0.9273881, -0.0638291, 0.3686153), (0.8912971, -0.07307091, 0.44749314), (0.87077034, -0.07747106, 0.48554844), (0.9562298, -0.05417662, 0.28755787), (0.95622975, -0.054176666, 0.2875582), (0.9427471, -0.05903998, 0.32824123), (0.9562298, -0.05417662, 0.28755787), (0.9427471, -0.05903998, 0.32824123), (0.9273881, -0.0638291, 0.3686153), (0.87077034, -0.07747106, 0.48554844), (0.8912971, -0.07307091, 0.44749314), (0.84877175, -0.08169342, 0.52241063), (0.87077034, -0.07747106, 0.48554844), (0.84877175, -0.08169342, 0.52241063), (0.84877175, -0.08169342, 0.52241063), (0.9273881, -0.0638291, 0.3686153), (0.9427471, -0.059039958, 0.32824105), (0.8912968, -0.073070996, 0.44749385), (0.9273881, -0.0638291, 0.3686153), (0.8912968, -0.073070996, 0.44749385), (0.87076885, -0.07747137, 0.48555112), (0.9562299, -0.054176584, 0.28755754), (0.9562299, -0.054176584, 0.28755754), (0.9427471, -0.059039958, 0.32824105), (0.9562299, -0.054176584, 0.28755754), (0.9427471, -0.059039958, 0.32824105), (0.9273881, -0.0638291, 0.3686153), (0.87076885, -0.07747137, 0.48555112), (0.8912968, -0.073070996, 0.44749385), (0.8487681, -0.08169408, 0.5224164), (0.87076885, -0.07747137, 0.48555112), (0.8487681, -0.08169408, 0.5224164), (0.8487681, -0.08169408, 0.5224164), (0.9273881, -0.063829094, 0.36861524), (0.9427472, -0.059039943, 0.3282409), (0.89129716, -0.073070906, 0.44749308), (0.9273881, -0.063829094, 0.36861524), (0.89129716, -0.073070906, 0.44749308), (0.87077063, -0.07747102, 0.48554808), (0.9562299, -0.054176588, 0.28755754), (0.95622975, -0.05417667, 0.2875582), (0.9427472, -0.059039943, 0.3282409), (0.9562299, -0.054176588, 0.28755754), (0.9427472, -0.059039943, 0.3282409), (0.9273881, -0.063829094, 0.36861524), (0.87077063, -0.07747102, 0.48554808), (0.89129716, -0.073070906, 0.44749308), (0.8487721, -0.08169335, 0.5224101), (0.87077063, -0.07747102, 0.48554808), (0.8487721, -0.08169335, 0.5224101), (0.8487721, -0.08169335, 0.5224101), (0.9273881, -0.063829094, 0.36861524), (0.9427472, -0.059039943, 0.3282409), (0.89129686, -0.07307099, 0.44749376), (0.9273881, -0.063829094, 0.36861524), (0.89129686, -0.07307099, 0.44749376), (0.8707689, -0.07747135, 0.485551), (0.9562299, -0.054176588, 0.28755754), (0.95622975, -0.05417667, 0.2875582), (0.9427472, -0.059039943, 0.3282409), (0.9562299, -0.054176588, 0.28755754), (0.9427472, -0.059039943, 0.3282409), (0.9273881, -0.063829094, 0.36861524), (0.8707689, -0.07747135, 0.485551), (0.89129686, -0.07307099, 0.44749376), (0.8487681, -0.08169408, 0.5224165), (0.8707689, -0.07747135, 0.485551), (0.8487681, -0.08169408, 0.5224165), (0.8487677, -0.08169414, 0.522417)] (
        interpolation = "faceVarying"
    )
    point3f[] points = [(-0.0032019, -1.139815, -0.30563992), (-0.09673409, 1.2555135, -0.06778469), (0.04170865, 1.2450924, -0.0056605297), (-0.14164464, -1.1293938, -0.3677641), (0.07537803, 1.2452997, -0.012349257), (0.03046748, -1.1396077, -0.31232864), (0.005072655, -1.137696, -0.3237242), (0.049983203, 1.2472113, -0.023744814), (0.0042461473, -1.1801307, 0.013764487), (-0.08928605, 1.2151979, 0.25161973), (0.0491567, 1.2047768, 0.3137439), (-0.1341966, -1.1697096, -0.048359677), (0.08282609, 1.2049841, 0.30705515), (0.03791554, -1.1799234, 0.0070757563), (0.012520705, -1.1780119, -0.004319805), (0.05743126, 1.2068956, 0.2956596), (0.011694294, -1.2204465, 0.33316875), (-0.08183796, 1.1748822, 0.57102406), (0.056604795, 1.164461, 0.63314825), (-0.12674846, -1.2100253, 0.27104458), (0.019968849, -1.2183275, 0.31508446), (0.09027417, 1.1646683, 0.62645954), (0.045363672, -1.2202392, 0.32648), (0.06487935, 1.16658, 0.61506397), (0.01914233, -1.2607621, 0.6525732), (-0.074389875, 1.1345664, 0.8904284), (0.06405288, 1.1241453, 0.9525526), (-0.119300425, -1.2503409, 0.59044904), (0.09772227, 1.1243526, 0.94586384), (0.05281172, -1.2605548, 0.6458845), (0.027416885, -1.2586433, 0.63448894), (0.072327435, 1.1262641, 0.9344683), (0.026590375, -1.3010778, 0.97197765), (-0.06694188, 1.0942507, 1.2098329), (0.071500875, 1.0838295, 1.2719572), (-0.11185238, -1.2906567, 0.90985346), (0.10517031, 1.0840368, 1.2652682), (0.060259763, -1.3008705, 0.9652888), (0.034864955, -1.2989589, 0.9538933), (0.079775505, 1.0859485, 1.2538726), (0.0340384, -1.3413935, 1.2913821), (-0.059493832, 1.0539349, 1.5292374), (0.0789489, 1.0435138, 1.5913616), (-0.10440433, -1.3309723, 1.229258), (0.042312954, -1.3392746, 1.2732978), (0.11261826, 1.0437211, 1.5846728), (0.06770776, -1.3411862, 1.2846934), (0.087223455, 1.0456327, 1.5732774), (-0.032994196, -0.97855204, -1.5832574), (-0.12652643, 1.4167764, -1.3454021), (0.011916303, 1.4063553, -1.283278), (-0.17143692, -0.9681309, -1.6453817), (0.04558572, 1.4065626, -1.2899667), (0.0006752199, -0.97834474, -1.5899462), (-0.024719642, -0.97643316, -1.6013417), (0.020190857, 1.4084742, -1.3013623), (-0.02554615, -1.0188679, -1.2638531), (-0.11907835, 1.3764607, -1.0259978), (0.019364398, 1.3660395, -0.9638736), (-0.1639889, -1.0084467, -1.3259772), (0.053033788, 1.3662468, -0.97056234), (0.0081232395, -1.0186605, -1.2705418), (-0.017271595, -1.016749, -1.2819374), (0.027638953, 1.3681583, -0.9819579), (-0.018098004, -1.0591836, -0.94444877), (-0.11163021, 1.336145, -0.7065935), (0.026812548, 1.3257239, -0.6444694), (-0.15654075, -1.0487624, -1.006573), (-0.009823424, -1.0570647, -0.9625331), (0.06048194, 1.3259312, -0.6511581), (0.015571412, -1.0589763, -0.95113754), (0.035087105, 1.3278428, -0.66255367), (-0.010649943, -1.0994991, -0.62504435), (-0.104182124, 1.2958293, -0.38718915), (0.034260605, 1.2854081, -0.325065), (-0.14909267, -1.089078, -0.68716854), (0.067930005, 1.2856154, -0.33175373), (0.02301946, -1.0992918, -0.6317331), (-0.002375375, -1.0973803, -0.6431287), (0.04253517, 1.287527, -0.3431493), (-0.06272119, -1.3745853, 1.5697497), (0.028299764, -1.3814368, 1.610594), (0.028486537, -1.3715184, 1.6118416), (-0.06253442, -1.3646668, 1.5709972), (0.15635668, -1.1797534, -0.012007249), (0.029114136, -1.1602428, -0.06794179), (0.15654348, -1.169835, -0.010759736), (0.02892734, -1.1701612, -0.0691893), (0.16380477, -1.2200689, 0.30739713), (0.036562204, -1.2005584, 0.25146264), (0.16399154, -1.2101505, 0.30864468), (0.03637543, -1.2104769, 0.25021505), (0.17125279, -1.2603849, 0.62680155), (0.044010233, -1.2408743, 0.57086706), (0.17143956, -1.2504665, 0.62804914), (0.043823462, -1.2507927, 0.56961954), (0.1787008, -1.3007007, 0.94620585), (0.051458303, -1.2811902, 0.8902714), (0.17888758, -1.2907822, 0.94745344), (0.051271528, -1.2911086, 0.88902384), (0.18614894, -1.3410163, 1.2656101), (0.05890645, -1.3215057, 1.2096757), (0.18633573, -1.3310978, 1.2668576), (0.058719676, -1.3314241, 1.208428), (0.12656438, -1.0184903, -1.2896247), (-0.00067816256, -0.9989797, -1.3455592), (0.12675117, -1.0085719, -1.2883772), (-0.00086493645, -1.0088981, -1.3468068), (0.13401245, -1.0588061, -0.9702203), (0.0067698816, -1.0392956, -1.0261548), (0.13419922, -1.0488876, -0.96897274), (0.0065831076, -1.049214, -1.0274024), (0.14146055, -1.0991217, -0.650816), (0.014217993, -1.0796111, -0.7067505), (0.14164732, -1.0892032, -0.64956844), (0.014031219, -1.0895295, -0.70799804), (0.14890864, -1.1394374, -0.3314117), (0.02166608, -1.1199269, -0.38734618), (0.14909542, -1.129519, -0.33016413), (0.021479307, -1.1298453, -0.38859373), (0.7679501, -0.7448537, -3.4809883), (-0.047693998, -0.95371634, -1.6983739), (0.7677633, -0.7547721, -3.4822357), (-0.047880773, -0.9636348, -1.6996214), (0.073209725, 1.0034702, 1.9105748), (-0.017811287, 1.0103217, 1.8697305), (0.07302295, 0.99355173, 1.9093273), (-0.017998062, 1.0004033, 1.8684828), (0.20107996, 1.1952357, 0.2867257), (0.07365063, 1.2048279, 0.22954364), (0.20126674, 1.2051538, 0.28797323), (0.07383739, 1.214746, 0.23079115), (0.20852804, 1.1549196, 0.60613), (0.081098706, 1.1645118, 0.54894793), (0.20871483, 1.1648381, 0.6073775), (0.081285484, 1.1744301, 0.5501955), (0.21597612, 1.1146039, 0.92553437), (0.08854679, 1.124196, 0.8683523), (0.21616289, 1.1245224, 0.92678195), (0.08873357, 1.1341146, 0.8695999), (0.22342414, 1.074288, 1.2449386), (0.09599486, 1.0838802, 1.1877567), (0.22361091, 1.0842068, 1.2461863), (0.09618164, 1.0937989, 1.1890042), (0.23087217, 1.0339721, 1.5643431), (0.1034429, 1.0435643, 1.507161), (0.23105896, 1.0438906, 1.5655906), (0.10362968, 1.0534828, 1.5084085), (0.17128767, 1.3564987, -0.9908918), (0.04385835, 1.3660909, -1.0480739), (0.17147446, 1.3664172, -0.9896442), (0.044045124, 1.3760093, -1.0468262), (0.17873576, 1.3161829, -0.67148745), (0.051306415, 1.325775, -0.7286695), (0.17892253, 1.3261017, -0.67023987), (0.051493198, 1.3356937, -0.72742194), (0.1861838, 1.2758666, -0.35208312), (0.058754466, 1.2854588, -0.40926516), (0.18637058, 1.2857854, -0.3508355), (0.05894125, 1.2953776, -0.40801755), (0.19363187, 1.2355514, -0.03267869), (0.066202536, 1.2451435, -0.089860745), (0.19381864, 1.2454698, -0.031431124), (0.066389315, 1.2550619, -0.088613175), (0.067103475, 1.2431809, 0.005735027), (0.022192925, -1.1417265, -0.29424435), (-0.055051044, 1.2119007, 0.27270734), (-0.099961594, -1.1730068, -0.02727205), (0.07455153, 1.2028651, 0.32513943), (0.029640982, -1.1820424, 0.025160048), (-0.047603004, 1.1715851, 0.5921118), (-0.0925135, -1.2133224, 0.29213232), (0.089447714, 1.1222336, 0.96394813), (0.044537164, -1.2626737, 0.66396874), (-0.032706853, 1.0909536, 1.2309206), (-0.0776174, -1.2939538, 0.9309412), (0.09689568, 1.081918, 1.2833526), (0.051985182, -1.3029894, 0.98337317), (-0.02525886, 1.0506378, 1.550325), (-0.07016926, -1.3342695, 1.2503453), (0.037311167, 1.4044437, -1.2718824), (-0.007599335, -0.9804636, -1.5718619), (-0.08484328, 1.3731635, -1.0049102), (-0.12975383, -1.0117438, -1.3048897), (0.044759233, 1.3641279, -0.9524781), (-0.00015131594, -1.0207795, -1.2524575), (-0.077395305, 1.332848, -0.6855057), (-0.12230583, -1.0520595, -0.98548514), (0.05965544, 1.2834965, -0.31366944), (0.014744892, -1.1014107, -0.6136488), (-0.062499147, 1.2522165, -0.04669696), (-0.10740967, -1.1326909, -0.3466764), (0.13438708, 1.3892726, -1.2459271), (0.13457385, 1.399191, -1.2446796), (0.13074581, 1.3883402, -1.2379689), (0.13093258, 1.3982587, -1.2367214), (0.066354424, -1.3618215, 1.5290802), (-0.024666535, -1.35497, 1.4882358), (0.14846773, -1.3407947, 1.3496193), (0.057446927, -1.3339432, 1.3087745), (-0.06998249, -1.3243512, 1.2515929), (-0.032114506, -1.3146542, 1.1688313), (0.14101978, -1.3004789, 1.0302147), (0.049998857, -1.2936274, 0.9893701), (-0.07743053, -1.2840353, 0.9321886), (-0.039562624, -1.2743385, 0.8494271), (0.1335718, -1.2601633, 0.7108102), (0.04255084, -1.2533116, 0.66996574), (-0.0848786, -1.2437196, 0.61278415), (-0.04701072, -1.2340229, 0.53002274), (0.12612371, -1.2198473, 0.39140582), (0.035102744, -1.2129959, 0.35056135), (-0.09232668, -1.2034038, 0.29337978), (-0.05445875, -1.193707, 0.21061829), (0.11867557, -1.1795317, 0.07200158), (0.02765466, -1.1726801, 0.031157017), (-0.09977472, -1.1630881, -0.02602467), (-0.061906833, -1.1533911, -0.10878605), (0.1112275, -1.1392161, -0.24740286), (0.020206604, -1.1323643, -0.28824738), (-0.107222795, -1.1227722, -0.345429), (-0.069354914, -1.1130754, -0.42819038), (0.10377947, -1.0989, -0.56680727), (0.012758596, -1.0920485, -0.6076519), (-0.114670865, -1.0824565, -0.66483337), (-0.076802954, -1.0727596, -0.74759483), (0.09633141, -1.0585845, -0.8862117), (0.0053105354, -1.0517329, -0.9270563), (-0.12211896, -1.0421408, -0.9842378), (-0.084251076, -1.032444, -1.0669992), (0.0888833, -1.0182688, -1.2056159), (-0.0021376344, -1.0114172, -1.2464604), (-0.12956695, -1.0018251, -1.3036423), (-0.09169907, -0.9921282, -1.3864037), (0.08620935, -0.97673035, -1.5354544), (-0.0048116026, -0.96987885, -1.5762987), (0.12524578, -0.9667343, -1.6207697), (0.034224823, -0.95988274, -1.6616141), (-0.08673043, -0.96371245, -1.6130587), (-0.12961276, -0.94755, -1.7351338), (-0.1686492, -0.9575461, -1.6498185), (0.68603134, -0.73868734, -3.517748), (0.12505901, -0.9766527, -1.6220173), (0.034038052, -0.9698012, -1.6628616), (-0.047197495, -1.2439412, 0.52877516), (0.03491597, -1.2229143, 0.3493138), (-0.08506537, -1.2536379, 0.61153656), (0.04236407, -1.2632301, 0.66871816), (-0.0397494, -1.2842569, 0.8481796), (-0.0776173, -1.2939538, 0.930941), (0.049812086, -1.3035458, 0.9881225), (-0.03230128, -1.3245727, 1.1675837), (-0.07016926, -1.3342696, 1.2503453), (-0.02485331, -1.3648884, 1.4869883), (0.057260152, -1.3438617, 1.307527), (-0.0023244084, -1.0213356, -1.2477081), (-0.08443785, -1.0423625, -1.0682467), (-0.12230573, -1.0520593, -0.9854853), (0.01257181, -1.101967, -0.6088994), (-0.069541685, -1.1229938, -0.42943797), (-0.10740962, -1.1326907, -0.34667647), (0.11848879, -1.1894501, 0.070754014), (0.12593693, -1.2297658, 0.39015827), (0.14083299, -1.3103974, 1.0289671), (0.08602258, -0.9866488, -1.536702), (0.09614465, -1.0685029, -0.8874592), (0.14828096, -1.3507131, 1.3483717), (0.066167645, -1.37174, 1.5278326), (0.03972486, 1.3951918, -1.2788132), (0.043366123, 1.3961241, -1.2867714), (-0.042194016, 1.4013581, -1.3155732), (-0.038552754, 1.4022905, -1.3235313), (-0.12047147, 1.4084568, -1.3602911), (-0.124112725, 1.4075245, -1.3523331), (0.110890836, 1.0032487, 1.8265659), (0.019869823, 1.0101002, 1.7857215), (0.19300419, 1.0242754, 1.6471046), (0.10198339, 1.0311272, 1.60626), (-0.025446028, 1.0407193, 1.5490783), (0.01242195, 1.050416, 1.4663167), (0.18555623, 1.0645913, 1.3277001), (0.094535366, 1.0714428, 1.2868555), (-0.032894023, 1.0810349, 1.2296739), (0.0049739326, 1.0907317, 1.1469123), (0.17810832, 1.1049073, 1.0082955), (0.08708735, 1.1117586, 0.96745104), (-0.040342096, 1.1213508, 0.91026944), (-0.0024741634, 1.1310476, 0.827508), (0.17066017, 1.1452229, 0.68889123), (0.079639204, 1.1520747, 0.6480468), (-0.047790214, 1.1616668, 0.59086525), (-0.009922239, 1.1713634, 0.5081036), (0.16321208, 1.1855386, 0.3694869), (0.07219117, 1.1923902, 0.32864234), (-0.055238258, 1.2019824, 0.27146077), (-0.017370326, 1.2116792, 0.18869929), (0.15576401, 1.2258548, 0.05008253), (0.06474311, 1.2327061, 0.00923794), (-0.06268633, 1.2422981, -0.04794358), (-0.024818402, 1.251995, -0.13070506), (0.14831595, 1.2661701, -0.26932192), (0.05729508, 1.2730218, -0.3101665), (-0.07013439, 1.282614, -0.36734796), (-0.032266464, 1.2923108, -0.45010942), (0.14086792, 1.3064861, -0.58872634), (0.049847048, 1.3133377, -0.6295709), (-0.07758244, 1.3229297, -0.6867524), (-0.039714538, 1.3326266, -0.76951385), (0.13341981, 1.3468021, -0.90813065), (0.042398877, 1.3536534, -0.94897515), (-0.08503044, 1.3632456, -1.0061569), (-0.047162555, 1.3729424, -1.0889183), (0.043552898, 1.4060425, -1.2855239), (-0.03836598, 1.4122089, -1.3222837), (0.11107761, 1.013167, 1.8278134), (0.19319098, 1.0341939, 1.6483523), (0.07237794, 1.2023087, 0.32988992), (-0.009735465, 1.1812818, 0.5093512), (-0.047603443, 1.1715852, 0.59211284), (0.09472214, 1.0813613, 1.288103), (0.012608724, 1.0603344, 1.4675643), (-0.025259255, 1.0506377, 1.5503259), (0.05748184, 1.2829403, -0.30891892), (-0.024631653, 1.2619134, -0.12945744), (-0.062499534, 1.2522166, -0.046696067), (0.16339885, 1.1954571, 0.37073448), (0.17084694, 1.1551414, 0.6901388), (0.17829503, 1.1148257, 1.0095432), (0.185743, 1.0745097, 1.3289477), (0.1410547, 1.3164046, -0.58747876), (0.14850271, 1.2760886, -0.2680743), (-0.085065424, -1.2536381, 0.6115367), (0.081999615, 1.1625495, 0.6445438), (-0.040154926, 1.1312692, 0.9115162), (0.037089117, -1.222358, 0.3445643), (-0.06272129, -1.3745852, 1.56975), (0.104343705, 1.0416023, 1.6027571), (-0.01781079, 1.0103221, 1.8697294), (0.059433203, -1.3433051, 1.3027776), (-0.114857756, -1.0923752, -0.6660807), (0.052207384, 1.3238124, -0.6330738), (-0.06994721, 1.2925321, -0.36610132), (0.0072968313, -1.0610951, -0.9330532), (0.02001983, -1.1422827, -0.28949496), (-0.062093608, -1.1633096, -0.11003362), (-0.09996149, -1.1730064, -0.027272236), (-0.05464552, -1.2036254, 0.20937073), (0.027467888, -1.1825986, 0.02990945), (-0.09251345, -1.2133223, 0.2921322), (-0.09188584, -1.0020466, -1.3876512), (-0.0049983766, -0.97979724, -1.5775464), (-0.12975372, -1.0117434, -1.3048898), (-0.076989725, -1.0826781, -0.74884236), (0.0051237615, -1.0616513, -0.92830384), (-0.11485765, -1.0923749, -0.6660809), (0.11104073, -1.1491345, -0.24865043), (0.13338503, -1.2700818, 0.7095626), (0.088696525, -1.0281873, -1.2068635), (0.10359269, -1.1088184, -0.5680548), (-0.0869172, -0.9736309, -1.6143062), (-0.16883597, -0.9674645, -1.6510661), (-0.017183552, 1.2215977, 0.18994685), (0.06492989, 1.2426245, 0.010485508), (-0.055051487, 1.2119007, 0.27270833), (-0.0022873871, 1.1409662, 0.82875556), (0.07982598, 1.1619931, 0.6492944), (-0.04015532, 1.1312691, 0.911517), (0.0051607066, 1.1006502, 1.1481599), (0.08727412, 1.121677, 0.9686986), (-0.03270725, 1.0909534, 1.2309214), (0.020056594, 1.0200186, 1.7869691), (0.10217016, 1.0410457, 1.6075075), (-0.04697578, 1.3828609, -1.0876707), (0.039911635, 1.4051102, -1.2775657), (-0.084843665, 1.373164, -1.0049094), (-0.039527763, 1.342545, -0.76826626), (0.042585652, 1.3635719, -0.94772756), (-0.07739567, 1.3328482, -0.68550485), (-0.032079697, 1.3022289, -0.4488619), (0.050033823, 1.3232561, -0.6283234), (-0.06994762, 1.2925323, -0.36610037), (0.15595078, 1.2357732, 0.051330097), (0.13360664, 1.3567206, -0.90688306), (-0.04200724, 1.4112766, -1.3143257), (-0.123925954, 1.4174429, -1.3510854), (0.019707454, -1.0818349, -0.2774307), (0.062321596, 1.1811255, 0.007209921), (0.061168637, 1.1808304, 0.009729748), (0.01855452, -1.0821302, -0.27491093), (0.020528166, -1.0815147, -0.2800995), (0.06314231, 1.1814458, 0.0045411326), (0.059683505, 1.1805601, 0.012100451), (0.01706941, -1.0824003, -0.2725403), (0.011383335, -1.0839665, -0.2592381), (0.05399748, 1.178994, 0.02540253), (0.052844517, 1.1786988, 0.027922355), (0.010230401, -1.0842617, -0.25671834), (0.012204068, -1.0836462, -0.26190692), (0.054818187, 1.1793143, 0.022733748), (0.051359385, 1.1784285, 0.030293059), (0.008745291, -1.0845319, -0.25434768), (0.027155537, -1.1221507, 0.041973643), (0.06976966, 1.1408099, 0.32661435), (0.068616696, 1.1405146, 0.32913417), (0.026002577, -1.122446, 0.04449347), (0.027976224, -1.1218305, 0.039304845), (0.07059035, 1.1411301, 0.32394555), (0.067131564, 1.1402444, 0.3315048), (0.024517445, -1.1227162, 0.046864107), (0.018831415, -1.1242822, 0.06016626), (0.061445534, 1.1386783, 0.34480697), (0.060292576, 1.138383, 0.3473268), (0.017678505, -1.1245775, 0.062685974), (0.019652102, -1.123962, 0.05749746), (0.062266223, 1.1389985, 0.34213817), (0.058807444, 1.1381129, 0.3496974), (0.016193323, -1.1248478, 0.06505673), (0.03460357, -1.1624664, 0.3613781), (0.07721769, 1.1004941, 0.6460188), (0.07606478, 1.100199, 0.64853853), (0.03345066, -1.1627617, 0.36389783), (0.035424266, -1.1621462, 0.3587093), (0.07803843, 1.1008145, 0.6433499), (0.074579656, 1.0999287, 0.6509092), (0.031965535, -1.1630318, 0.36626846), (0.02627945, -1.164598, 0.37957072), (0.06889357, 1.0983626, 0.6642114), (0.06774066, 1.0980674, 0.6667311), (0.02512654, -1.1648932, 0.38209045), (0.027100142, -1.1642778, 0.37690192), (0.069714315, 1.0986829, 0.66154253), (0.06625553, 1.0977972, 0.6691018), (0.023641413, -1.1651634, 0.38446108), (0.042051718, -1.202782, 0.6807824), (0.08466579, 1.0601784, 0.96542317), (0.08351283, 1.0598831, 0.967943), (0.04089876, -1.2030773, 0.68330216), (0.042872414, -1.2024618, 0.6781136), (0.08548653, 1.0604986, 0.96275425), (0.08202775, 1.0596129, 0.9703135), (0.039413635, -1.2033476, 0.6856728), (0.033727597, -1.2049136, 0.69897497), (0.07634167, 1.0580468, 0.98361576), (0.075188704, 1.0577515, 0.9861356), (0.03257464, -1.2052089, 0.7014948), (0.03454829, -1.2045934, 0.69630617), (0.07716241, 1.058367, 0.98094684), (0.03108951, -1.2054791, 0.70386547), (0.07370363, 1.0574815, 0.98850614), (0.04949974, -1.2430978, 1.0001868), (0.09211381, 1.0198628, 1.2848276), (0.09096085, 1.0195676, 1.2873474), (0.048346777, -1.2433931, 1.0027066), (0.050320406, -1.2427776, 0.99751794), (0.092934474, 1.0201831, 1.2821587), (0.08947574, 1.0192974, 1.2897179), (0.046861574, -1.2436632, 1.0050774), (0.041175615, -1.2452294, 1.0183793), (0.083789684, 1.0177312, 1.3030202), (0.08263673, 1.017436, 1.30554), (0.040022656, -1.2455245, 1.0208992), (0.04199628, -1.244909, 1.0157106), (0.08461035, 1.0180515, 1.3003514), (0.08115162, 1.0171658, 1.3079106), (0.038537454, -1.2457948, 1.0232699), (0.05694776, -1.2834134, 1.3195913), (0.09956188, 0.97954714, 1.604232), (0.09840887, 0.97925186, 1.6067519), (0.05579485, -1.2837087, 1.322111), (0.05776848, -1.2830932, 1.3169224), (0.1003826, 0.97986734, 1.6015631), (0.09692377, 0.9789816, 1.6091225), (0.05430965, -1.2839789, 1.3244818), (0.048623685, -1.285545, 1.3377837), (0.09123771, 0.97741556, 1.6224246), (0.0900848, 0.97712034, 1.6249443), (0.047470678, -1.2858403, 1.3403037), (0.049444407, -1.2852248, 1.335115), (0.092058524, 0.9777358, 1.6197556), (0.0885997, 0.9768501, 1.627315), (0.04598558, -1.2861105, 1.3426744), (-0.010084781, -0.92057204, -1.5550483), (0.032529287, 1.3423884, -1.2704076), (0.031376377, 1.3420932, -1.2678878), (-0.0112377405, -0.92086726, -1.5525285), (-0.009264114, -0.9202518, -1.5577171), (0.033350002, 1.3427087, -1.2730764), (0.029891174, 1.341823, -1.2655171), (-0.012722943, -0.9211375, -1.5501578), (-0.018408904, -0.92270356, -1.5368557), (0.024205215, 1.3402569, -1.252215), (0.023052257, 1.3399616, -1.2496952), (-0.019561812, -0.9229988, -1.534336), (-0.017588237, -0.92238337, -1.5395246), (0.025025882, 1.3405771, -1.2548839), (0.021567052, 1.3396914, -1.2473245), (-0.021047065, -0.92326903, -1.5319651), (-0.0026367614, -0.96088785, -1.2356439), (0.039977357, 1.3020728, -0.9510032), (0.03882445, 1.3017775, -0.94848347), (-0.0037896715, -0.9611831, -1.2331241), (-0.0018160185, -0.9605676, -1.2383127), (0.0407981, 1.302393, -0.95367205), (0.037339274, 1.3015072, -0.9461127), (-0.0052748467, -0.9614533, -1.2307534), (-0.010960859, -0.9630194, -1.2174513), (0.031653263, 1.2999412, -0.9328106), (0.030500302, 1.2996459, -0.93029076), (-0.012113794, -0.96331465, -1.2149315), (-0.010140141, -0.9626992, -1.2201202), (0.032473978, 1.3002614, -0.93547946), (0.029015152, 1.2993758, -0.9279201), (-0.013598969, -0.96358484, -1.2125608), (0.0048113368, -1.0012035, -0.9162395), (0.047425456, 1.261757, -0.63159883), (0.046272524, 1.2614619, -0.62907904), (0.003658402, -1.0014987, -0.9137197), (0.0056320797, -1.0008832, -0.9189084), (0.048246175, 1.2620773, -0.6342676), (0.044787347, 1.2611916, -0.62670827), (0.0021732512, -1.001769, -0.91134906), (-0.0035127609, -1.0033351, -0.8980469), (0.039101336, 1.2596256, -0.6134062), (0.0379484, 1.2593303, -0.6108864), (-0.0046657203, -1.0036303, -0.8955271), (-0.0026920426, -1.0030148, -0.90071577), (0.03992205, 1.2599458, -0.61607504), (0.036463298, 1.25906, -0.6085158), (-0.006150797, -1.0039005, -0.8931566), (0.012259385, -1.041519, -0.5968351), (0.054873515, 1.2214414, -0.3121944), (0.053720582, 1.2211461, -0.30967465), (0.011106438, -1.0418143, -0.5943153), (0.013080103, -1.0411988, -0.59950393), (0.055694245, 1.2217616, -0.3148633), (0.052235417, 1.2208759, -0.3073039), (0.009621275, -1.0420846, -0.5919446), (0.003935263, -1.0436506, -0.5786424), (0.046549395, 1.2193098, -0.2940018), (0.04539646, 1.2190145, -0.29148203), (0.002782316, -1.0439459, -0.57612264), (0.0047559813, -1.0433304, -0.5813113), (0.047370125, 1.21963, -0.29667068), (0.043911356, 1.2187444, -0.28911144), (0.0012972269, -1.0442162, -0.5737521)]
}

