#usda 1.0
(
    defaultPrim = "SM_Lobby_Pillar_01"
    upAxis = "Z"
)

def Mesh "SM_Lobby_Pillar_01"
{
    int[] faceVertexCounts = [3, 3, 3, 3, 3, 3, 3, 3, 3, 3, 3, 3, 3, 3, 3, 3, 3, 3, 3, 3, 3, 3, 3, 3, 3, 3, 3, 3, 3, 3, 3, 3, 3, 3, 3, 3, 3, 3, 3, 3, 3, 3, 3, 3, 3, 3, 3, 3, 3, 3, 3, 3, 3, 3, 3, 3, 3, 3, 3, 3, 3, 3, 3, 3, 3, 3, 3, 3, 3, 3, 3, 3, 3, 3, 3, 3, 3, 3, 3, 3, 3, 3, 3, 3, 3, 3, 3, 3, 3, 3, 3, 3, 3, 3, 3, 3, 3, 3, 3, 3, 3, 3, 3, 3, 3, 3, 3, 3]
    int[] faceVertexIndices = [0, 1, 2, 1, 0, 3, 4, 3, 0, 3, 4, 5, 6, 5, 4, 5, 6, 7, 8, 7, 6, 7, 8, 9, 10, 2, 1, 2, 10, 11, 12, 11, 10, 11, 12, 13, 14, 13, 12, 13, 14, 15, 16, 15, 14, 15, 16, 17, 18, 17, 16, 17, 18, 19, 20, 19, 18, 19, 20, 21, 22, 21, 20, 21, 22, 23, 24, 23, 22, 23, 24, 25, 26, 25, 24, 25, 26, 27, 28, 27, 26, 27, 28, 29, 30, 29, 28, 29, 30, 31, 32, 31, 30, 31, 32, 33, 34, 33, 32, 33, 34, 35, 9, 35, 34, 35, 9, 8, 36, 0, 37, 38, 37, 0, 0, 36, 4, 38, 0, 2, 39, 4, 36, 11, 38, 2, 4, 39, 6, 38, 11, 40, 41, 6, 39, 13, 40, 11, 6, 41, 8, 40, 13, 42, 43, 8, 41, 15, 42, 13, 8, 43, 35, 42, 15, 44, 45, 35, 43, 15, 46, 44, 35, 45, 33, 15, 17, 46, 47, 33, 45, 19, 46, 17, 33, 47, 31, 46, 19, 48, 29, 31, 47, 21, 48, 19, 47, 49, 29, 48, 21, 50, 27, 29, 49, 23, 50, 21, 27, 49, 51, 50, 23, 52, 25, 27, 51, 23, 53, 52, 25, 51, 53, 23, 25, 53, 48, 54, 55, 54, 48, 50, 56, 38, 57, 57, 38, 40, 57, 40, 58, 58, 40, 42, 58, 42, 59, 59, 42, 44, 59, 44, 60, 60, 44, 46, 60, 46, 55, 55, 46, 48, 54, 50, 61, 61, 50, 52, 61, 52, 62, 62, 52, 53, 62, 53, 63, 63, 53, 51, 63, 51, 64, 64, 51, 49, 64, 49, 65, 65, 49, 47, 65, 47, 66, 66, 47, 45, 66, 45, 67, 67, 45, 43, 67, 43, 68, 68, 43, 41, 68, 41, 69, 69, 41, 39, 69, 39, 70, 70, 39, 36, 70, 36, 71, 71, 36, 37, 37, 56, 71, 56, 37, 38]
    normal3f[] normals = [(0.91800594, 0.39656663, 0), (0.8024397, 0.5967332, 0), (0.7270094, 0.6866275, 0), (0.8024397, 0.5967332, 0), (0.91800594, 0.39656663, 0), (0.9581417, 0.2862948, 0), (0.99827725, 0.05867461, 0), (0.9581417, 0.2862948, 0), (0.91800594, 0.39656663, 0), (0.9581417, 0.2862948, 0), (0.99827725, 0.05867461, 0), (0.99827725, -0.058674492, 0), (0.9581413, -0.28629586, 0), (0.99827725, -0.058674492, 0), (0.99827725, 0.05867461, 0), (0.99827725, -0.058674492, 0), (0.9581413, -0.28629586, 0), (0.91800565, -0.39656752, 0), (0.8024398, -0.5967332, 0), (0.91800565, -0.39656752, 0), (0.9581413, -0.28629586, 0), (0.91800565, -0.39656752, 0), (0.8024398, -0.5967332, 0), (0.72700924, -0.68662775, 0), (0.54995215, 0.8351962, 0), (0.7270094, 0.6866275, 0), (0.8024397, 0.5967332, 0), (0.7270094, 0.6866275, 0), (0.54995215, 0.8351962, 0), (0.44832498, 0.89387065, 0), (0.23113191, 0.9729225, 0), (0.44832498, 0.89387065, 0), (0.54995215, 0.8351962, 0), (0.44832498, 0.89387065, 0), (0.23113191, 0.9729225, 0), (0.11556596, 0.9932999, 0), (-0.11556604, 0.9932999, 0), (0.11556596, 0.9932999, 0), (0.23113191, 0.9729225, 0), (0.11556596, 0.9932999, 0), (-0.11556604, 0.9932999, 0), (-0.23113202, 0.9729224, 0), (-0.44832492, 0.8938707, 0), (-0.23113202, 0.9729224, 0), (-0.11556604, 0.9932999, 0), (-0.23113202, 0.9729224, 0), (-0.44832492, 0.8938707, 0), (-0.54995203, 0.83519626, 0), (-0.7270096, 0.6866273, 0), (-0.54995203, 0.83519626, 0), (-0.44832492, 0.8938707, 0), (-0.54995203, 0.83519626, 0), (-0.7270096, 0.6866273, 0), (-0.80243987, 0.596733, 0), (-0.9180058, 0.39656705, 0), (-0.80243987, 0.596733, 0), (-0.7270096, 0.6866273, 0), (-0.80243987, 0.596733, 0), (-0.9180058, 0.39656705, 0), (-0.95814145, 0.28629532, 0), (-0.99827725, 0.05867477, 0), (-0.95814145, 0.28629532, 0), (-0.9180058, 0.39656705, 0), (-0.95814145, 0.28629532, 0), (-0.99827725, 0.05867477, 0), (-0.9982772, -0.05867414, 0), (-0.9581415, -0.28629506, 0), (-0.9982772, -0.05867414, 0), (-0.99827725, 0.05867477, 0), (-0.9982772, -0.05867414, 0), (-0.9581415, -0.28629506, 0), (-0.91800576, -0.39656702, 0), (-0.8024399, -0.5967329, 0), (-0.91800576, -0.39656702, 0), (-0.9581415, -0.28629506, 0), (-0.91800576, -0.39656702, 0), (-0.8024399, -0.5967329, 0), (-0.7270098, -0.68662715, 0), (-0.5499524, -0.8351961, 0), (-0.7270098, -0.68662715, 0), (-0.8024399, -0.5967329, 0), (-0.7270098, -0.68662715, 0), (-0.5499524, -0.8351961, 0), (-0.4483253, -0.8938705, 0), (-0.23113233, -0.9729224, 0), (-0.4483253, -0.8938705, 0), (-0.5499524, -0.8351961, 0), (-0.4483253, -0.8938705, 0), (-0.23113233, -0.9729224, 0), (-0.11556625, -0.9932998, 0), (0.11556571, -0.9932999, 0), (-0.11556625, -0.9932998, 0), (-0.23113233, -0.9729224, 0), (-0.11556625, -0.9932998, 0), (0.11556571, -0.9932999, 0), (0.23113163, -0.97292256, 0), (0.44832444, -0.89387095, 0), (0.23113163, -0.97292256, 0), (0.11556571, -0.9932999, 0), (0.23113163, -0.97292256, 0), (0.44832444, -0.89387095, 0), (0.54995143, -0.8351966, 0), (0.72700924, -0.68662775, 0), (0.54995143, -0.8351966, 0), (0.44832444, -0.89387095, 0), (0.54995143, -0.8351966, 0), (0.72700924, -0.68662775, 0), (0.8024398, -0.5967332, 0), (0.99827725, 0.05867411, 0), (0.91800594, 0.39656663, 0), (0.9180058, 0.39656693, 0), (0.72700953, 0.6866273, 0), (0.9180058, 0.39656693, 0), (0.91800594, 0.39656663, 0), (0.91800594, 0.39656663, 0), (0.99827725, 0.05867411, 0), (0.99827725, 0.05867461, 0), (0.72700953, 0.6866273, 0), (0.91800594, 0.39656663, 0), (0.7270094, 0.6866275, 0), (0.95814145, -0.28629535, 0), (0.99827725, 0.05867461, 0), (0.99827725, 0.05867411, 0), (0.44832498, 0.89387065, 0), (0.72700953, 0.6866273, 0), (0.7270094, 0.6866275, 0), (0.99827725, 0.05867461, 0), (0.95814145, -0.28629535, 0), (0.9581413, -0.28629586, 0), (0.72700953, 0.6866273, 0), (0.44832498, 0.89387065, 0), (0.44832492, 0.8938708, 0), (0.8024395, -0.59673345, 0), (0.9581413, -0.28629586, 0), (0.95814145, -0.28629535, 0), (0.11556596, 0.9932999, 0), (0.44832492, 0.8938708, 0), (0.44832498, 0.89387065, 0), (0.9581413, -0.28629586, 0), (0.8024395, -0.59673345, 0), (0.8024398, -0.5967332, 0), (0.44832492, 0.8938708, 0), (0.11556596, 0.9932999, 0), (0.11556589, 0.99329984, 0), (0.54995155, -0.8351967, 0), (0.8024398, -0.5967332, 0), (0.8024395, -0.59673345, 0), (-0.23113202, 0.9729224, 0), (0.11556589, 0.99329984, 0), (0.11556596, 0.9932999, 0), (0.8024398, -0.5967332, 0), (0.54995155, -0.8351967, 0), (0.54995143, -0.8351966, 0), (0.11556589, 0.99329984, 0), (-0.23113202, 0.9729224, 0), (-0.23113196, 0.97292244, 0), (0.23113163, -0.9729225, 0), (0.54995143, -0.8351966, 0), (0.54995155, -0.8351967, 0), (-0.23113202, 0.9729224, 0), (-0.5499522, 0.83519614, 0), (-0.23113196, 0.97292244, 0), (0.54995143, -0.8351966, 0), (0.23113163, -0.9729225, 0), (0.23113163, -0.97292256, 0), (-0.23113202, 0.9729224, 0), (-0.54995203, 0.83519626, 0), (-0.5499522, 0.83519614, 0), (-0.115566306, -0.9932998, 0), (0.23113163, -0.97292256, 0), (0.23113163, -0.9729225, 0), (-0.80243987, 0.596733, 0), (-0.5499522, 0.83519614, 0), (-0.54995203, 0.83519626, 0), (0.23113163, -0.97292256, 0), (-0.115566306, -0.9932998, 0), (-0.11556625, -0.9932998, 0), (-0.5499522, 0.83519614, 0), (-0.80243987, 0.596733, 0), (-0.80243987, 0.59673303, 0), (-0.4483253, -0.8938705, 0), (-0.11556625, -0.9932998, 0), (-0.115566306, -0.9932998, 0), (-0.95814145, 0.28629532, 0), (-0.80243987, 0.59673303, 0), (-0.80243987, 0.596733, 0), (-0.115566306, -0.9932998, 0), (-0.44832543, -0.89387053, 0), (-0.4483253, -0.8938705, 0), (-0.80243987, 0.59673303, 0), (-0.95814145, 0.28629532, 0), (-0.9581415, 0.28629515, 0), (-0.7270098, -0.68662715, 0), (-0.4483253, -0.8938705, 0), (-0.44832543, -0.89387053, 0), (-0.9982772, -0.05867414, 0), (-0.9581415, 0.28629515, 0), (-0.95814145, 0.28629532, 0), (-0.7270098, -0.68662715, 0), (-0.44832543, -0.89387053, 0), (-0.7270098, -0.6866272, 0), (-0.9581415, 0.28629515, 0), (-0.9982772, -0.05867414, 0), (-0.99827725, -0.05867445, 0), (-0.91800576, -0.39656702, 0), (-0.7270098, -0.68662715, 0), (-0.7270098, -0.6866272, 0), (-0.9982772, -0.05867414, 0), (-0.91800606, -0.39656645, 0), (-0.99827725, -0.05867445, 0), (-0.91800576, -0.39656702, 0), (-0.7270098, -0.6866272, 0), (-0.91800606, -0.39656645, 0), (-0.9982772, -0.05867414, 0), (-0.91800576, -0.39656702, 0), (-0.91800606, -0.39656645, 0), (-0.80243987, 0.59673303, 0), (-0.9180058, 0.39656696, 0), (-0.72700965, 0.6866273, 0), (-0.9180058, 0.39656696, 0), (-0.80243987, 0.59673303, 0), (-0.9581415, 0.28629515, 0), (0.8024399, 0.59673303, 0), (0.72700953, 0.6866273, 0), (0.5499521, 0.83519626, 0), (0.5499521, 0.83519626, 0), (0.72700953, 0.6866273, 0), (0.44832492, 0.8938708, 0), (0.5499521, 0.83519626, 0), (0.44832492, 0.8938708, 0), (0.23113178, 0.97292244, 0), (0.23113178, 0.97292244, 0), (0.44832492, 0.8938708, 0), (0.11556589, 0.99329984, 0), (0.23113178, 0.97292244, 0), (0.11556589, 0.99329984, 0), (-0.11556597, 0.9932999, 0), (-0.11556597, 0.9932999, 0), (0.11556589, 0.99329984, 0), (-0.23113196, 0.97292244, 0), (-0.11556597, 0.9932999, 0), (-0.23113196, 0.97292244, 0), (-0.4483251, 0.89387065, 0), (-0.4483251, 0.89387065, 0), (-0.23113196, 0.97292244, 0), (-0.5499522, 0.83519614, 0), (-0.4483251, 0.89387065, 0), (-0.5499522, 0.83519614, 0), (-0.72700965, 0.6866273, 0), (-0.72700965, 0.6866273, 0), (-0.5499522, 0.83519614, 0), (-0.80243987, 0.59673303, 0), (-0.9180058, 0.39656696, 0), (-0.9581415, 0.28629515, 0), (-0.99827725, 0.058674455, 0), (-0.99827725, 0.058674455, 0), (-0.9581415, 0.28629515, 0), (-0.99827725, -0.05867445, 0), (-0.99827725, 0.058674455, 0), (-0.99827725, -0.05867445, 0), (-0.95814157, -0.28629488, 0), (-0.95814157, -0.28629488, 0), (-0.99827725, -0.05867445, 0), (-0.91800606, -0.39656645, 0), (-0.95814157, -0.28629488, 0), (-0.91800606, -0.39656645, 0), (-0.80244017, -0.5967326, 0), (-0.80244017, -0.5967326, 0), (-0.91800606, -0.39656645, 0), (-0.7270098, -0.6866272, 0), (-0.80244017, -0.5967326, 0), (-0.7270098, -0.6866272, 0), (-0.5499523, -0.8351961, 0), (-0.5499523, -0.8351961, 0), (-0.7270098, -0.6866272, 0), (-0.44832543, -0.89387053, 0), (-0.5499523, -0.8351961, 0), (-0.44832543, -0.89387053, 0), (-0.23113237, -0.9729224, 0), (-0.23113237, -0.9729224, 0), (-0.44832543, -0.89387053, 0), (-0.115566306, -0.9932998, 0), (-0.23113237, -0.9729224, 0), (-0.115566306, -0.9932998, 0), (0.115565695, -0.99329984, 0), (0.115565695, -0.99329984, 0), (-0.115566306, -0.9932998, 0), (0.23113163, -0.9729225, 0), (0.115565695, -0.99329984, 0), (0.23113163, -0.9729225, 0), (0.44832453, -0.8938709, 0), (0.44832453, -0.8938709, 0), (0.23113163, -0.9729225, 0), (0.54995155, -0.8351967, 0), (0.44832453, -0.8938709, 0), (0.54995155, -0.8351967, 0), (0.72700906, -0.6866279, 0), (0.72700906, -0.6866279, 0), (0.54995155, -0.8351967, 0), (0.8024395, -0.59673345, 0), (0.72700906, -0.6866279, 0), (0.8024395, -0.59673345, 0), (0.91800576, -0.39656708, 0), (0.91800576, -0.39656708, 0), (0.8024395, -0.59673345, 0), (0.95814145, -0.28629535, 0), (0.91800576, -0.39656708, 0), (0.95814145, -0.28629535, 0), (0.9982771, -0.058674954, -1.8387354e-23), (0.9982771, -0.058674954, -1.8387354e-23), (0.95814145, -0.28629535, 0), (0.99827725, 0.05867411, 0), (0.9982771, -0.058674954, -1.8387354e-23), (0.99827725, 0.05867411, 0), (0.9581415, 0.28629512, 3.592773e-18), (0.9581415, 0.28629512, 3.592773e-18), (0.99827725, 0.05867411, 0), (0.9180058, 0.39656693, 0), (0.9180058, 0.39656693, 0), (0.8024399, 0.59673303, 0), (0.9581415, 0.28629512, 3.592773e-18), (0.8024399, 0.59673303, 0), (0.9180058, 0.39656693, 0), (0.72700953, 0.6866273, 0)] (
        interpolation = "faceVarying"
    )
    point3f[] points = [(0.19127764, 0.069619514, -1.800181), (0.155931, 0.13084166, -1.900181), (0.155931, 0.13084166, -1.800181), (0.19127764, 0.069619514, -1.900181), (0.20355347, -1.3750471e-7, -1.800181), (0.20355347, -1.3750471e-7, -1.900181), (0.19127765, -0.06961944, -1.800181), (0.19127765, -0.06961944, -1.900181), (0.15593086, -0.13084182, -1.800181), (0.15593086, -0.13084182, -1.900181), (0.101776734, 0.1762825, -1.900181), (0.101776734, 0.1762825, -1.800181), (0.03534668, 0.20046104, -1.900181), (0.03534668, 0.20046104, -1.800181), (-0.035346694, 0.20046104, -1.900181), (-0.035346694, 0.20046104, -1.800181), (-0.10177678, 0.17628248, -1.900181), (-0.10177678, 0.17628248, -1.800181), (-0.15593097, 0.13084172, -1.900181), (-0.15593097, 0.13084172, -1.800181), (-0.19127767, 0.06961946, -1.900181), (-0.19127767, 0.06961946, -1.800181), (-0.20355348, 3.601453e-8, -1.900181), (-0.20355348, 3.601453e-8, -1.800181), (-0.19127771, -0.06961937, -1.900181), (-0.19127771, -0.06961937, -1.800181), (-0.15593097, -0.13084169, -1.900181), (-0.15593097, -0.13084169, -1.800181), (-0.1017768, -0.17628247, -1.900181), (-0.1017768, -0.17628247, -1.800181), (-0.035346773, -0.20046104, -1.900181), (-0.035346773, -0.20046104, -1.800181), (0.035346594, -0.20046106, -1.900181), (0.035346594, -0.20046106, -1.800181), (0.10177663, -0.17628254, -1.900181), (0.10177663, -0.17628254, -1.800181), (0.19339922, -3.0390762e-10, -1.800181), (0.18173581, 0.066146426, -1.800181), (0.14815238, 0.12431463, -1.800181), (0.18173575, -0.06614656, -1.800181), (0.096699595, 0.16748865, -1.800181), (0.14815232, -0.12431472, -1.800181), (0.03358341, 0.19046104, -1.800181), (0.096699506, -0.16748868, -1.800181), (-0.03358344, 0.19046104, -1.800181), (0.033583328, -0.19046105, -1.800181), (-0.096699625, 0.16748863, -1.800181), (-0.0335835, -0.19046104, -1.800181), (-0.14815238, 0.12431463, -1.800181), (-0.09669966, -0.1674886, -1.800181), (-0.18173581, 0.06614644, -1.800181), (-0.14815244, -0.124314584, -1.800181), (-0.19339922, 2.8898562e-8, -1.800181), (-0.18173581, -0.06614639, -1.800181), (-0.18173581, 0.06614644, 1.9798503), (-0.14815238, 0.12431463, 1.9798503), (0.14815238, 0.12431463, 1.9798503), (0.096699595, 0.16748865, 1.9798503), (0.03358341, 0.19046104, 1.9798503), (-0.03358344, 0.19046104, 1.9798503), (-0.096699625, 0.16748863, 1.9798503), (-0.19339922, 2.8898562e-8, 1.9798503), (-0.18173581, -0.06614639, 1.9798503), (-0.14815244, -0.124314584, 1.9798503), (-0.09669966, -0.1674886, 1.9798503), (-0.0335835, -0.19046104, 1.9798503), (0.033583328, -0.19046105, 1.9798503), (0.096699506, -0.16748868, 1.9798503), (0.14815232, -0.12431472, 1.9798503), (0.18173575, -0.06614656, 1.9798503), (0.19339922, -3.0390784e-10, 1.9798503), (0.18173581, 0.066146426, 1.9798503)]
}

