#usda 1.0
(
    defaultPrim = "SM_Lobby_Wall_04"
    upAxis = "Z"
)

def Mesh "SM_Lobby_Wall_04"
{
    int[] faceVertexCounts = [3, 3, 3, 3, 3, 3, 3, 3, 3, 3, 3, 3, 3, 3, 3, 3, 3, 3, 3, 3, 3, 3, 3, 3, 3, 3, 3, 3, 3, 3, 3, 3, 3, 3, 3, 3, 3, 3, 3, 3, 3, 3, 3, 3, 3, 3, 3, 3, 3, 3, 3, 3, 3, 3, 3, 3, 3, 3, 3, 3, 3, 3, 3, 3, 3, 3, 3, 3, 3, 3, 3, 3, 3, 3, 3, 3, 3, 3, 3, 3, 3, 3, 3, 3, 3, 3, 3, 3, 3, 3]
    int[] faceVertexIndices = [0, 1, 2, 1, 0, 3, 4, 5, 6, 4, 6, 7, 8, 9, 10, 9, 8, 11, 12, 13, 14, 12, 14, 15, 16, 17, 18, 16, 18, 19, 20, 1, 21, 1, 20, 2, 0, 2, 20, 0, 20, 22, 3, 0, 22, 22, 13, 3, 1, 13, 21, 13, 1, 3, 23, 10, 19, 23, 19, 18, 24, 19, 10, 19, 24, 16, 16, 25, 17, 25, 16, 24, 18, 17, 25, 25, 23, 18, 14, 26, 15, 14, 5, 26, 5, 27, 26, 5, 4, 27, 9, 27, 4, 27, 9, 11, 28, 29, 30, 29, 28, 31, 31, 27, 29, 27, 31, 26, 30, 8, 32, 29, 8, 30, 29, 11, 8, 11, 29, 27, 12, 28, 33, 28, 12, 31, 15, 31, 12, 31, 15, 26, 24, 4, 7, 9, 4, 24, 9, 24, 10, 22, 6, 5, 5, 14, 22, 22, 14, 13, 34, 35, 28, 34, 28, 30, 30, 36, 34, 36, 30, 32, 28, 37, 33, 37, 28, 35, 7, 25, 24, 38, 25, 7, 7, 39, 38, 39, 7, 6, 22, 39, 6, 39, 22, 20, 20, 40, 39, 40, 41, 39, 42, 43, 44, 43, 42, 45, 46, 42, 44, 46, 44, 47, 47, 48, 46, 46, 48, 49, 45, 50, 51, 50, 45, 42, 52, 50, 53, 53, 50, 42, 54, 53, 42, 54, 42, 46, 55, 54, 46, 54, 55, 56, 46, 49, 55, 55, 49, 57, 58, 44, 43, 44, 58, 59, 60, 44, 59, 44, 60, 61, 61, 47, 44, 61, 62, 47, 62, 63, 47, 63, 64, 47, 65, 47, 64, 47, 65, 48]
    normal3f[] normals = [(0.99992317, 0.0046767574, -0.011481228), (0.99992317, 0.0046767634, -0.01148123), (0.99992317, 0.0046766945, -0.011481209), (0.99992317, 0.0046767634, -0.01148123), (0.99992317, 0.0046767574, -0.011481228), (0.99992317, 0.0046768324, -0.011481252), (0.99992317, 0.00467696, -0.011481154), (0.99992317, 0.004676927, -0.011481392), (0.99992317, 0.0046767294, -0.011481031), (0.99992317, 0.00467696, -0.011481154), (0.99992317, 0.0046767294, -0.011481031), (0.99992317, 0.0046767853, -0.01148124), (-0.009718743, -0.2792429, -0.96017134), (0.99992317, 0.004676879, -0.011481046), (0.007696774, -0.96020895, 0.2791765), (0.99992317, 0.004676879, -0.011481046), (-0.009718743, -0.2792429, -0.96017134), (0.99992317, 0.0046768663, -0.01148108), (0.009718743, 0.2792429, 0.96017134), (0.0076967673, -0.96020913, 0.27917588), (0.99992317, 0.004676764, -0.011481442), (0.009718743, 0.2792429, 0.96017134), (0.99992317, 0.004676764, -0.011481442), (0.99992317, 0.0046767695, -0.011481415), (0.99992317, 0.00467439, -0.011480566), (0.99992317, 0.0046738866, -0.011480444), (0.99992317, 0.004674394, -0.011480566), (0.99992317, 0.00467439, -0.011480566), (0.99992317, 0.004674394, -0.011480566), (0.99992317, 0.0046749096, -0.011480693), (0.99992317, 0.00467675, -0.011481275), (0.99992317, 0.0046767634, -0.01148123), (0.0076967687, -0.96020913, 0.279176), (0.99992317, 0.0046767634, -0.01148123), (0.99992317, 0.00467675, -0.011481275), (0.99992317, 0.0046766945, -0.011481209), (0.99992317, 0.0046767574, -0.011481228), (0.99992317, 0.0046766945, -0.011481209), (0.99992317, 0.00467675, -0.011481275), (0.99992317, 0.0046767574, -0.011481228), (0.99992317, 0.00467675, -0.011481275), (0.99992317, 0.004676733, -0.011481177), (0.99992317, 0.0046768324, -0.011481252), (0.99992317, 0.0046767574, -0.011481228), (0.99992317, 0.004676733, -0.011481177), (0.99992317, 0.004676733, -0.011481177), (0.0076967673, -0.96020913, 0.27917588), (0.99992317, 0.0046768324, -0.011481252), (0.99992317, 0.0046767634, -0.01148123), (0.0076967673, -0.96020913, 0.27917588), (0.0076967687, -0.96020913, 0.279176), (0.0076967673, -0.96020913, 0.27917588), (0.99992317, 0.0046767634, -0.01148123), (0.99992317, 0.0046768324, -0.011481252), (0.0076967687, -0.96020913, 0.279176), (0.007696774, -0.96020895, 0.2791765), (0.99992317, 0.0046749096, -0.011480693), (0.0076967687, -0.96020913, 0.279176), (0.99992317, 0.0046749096, -0.011480693), (0.99992317, 0.004674394, -0.011480566), (0.99992317, 0.004676881, -0.011481316), (0.99992317, 0.0046749096, -0.011480693), (0.007696774, -0.96020895, 0.2791765), (0.99992317, 0.0046749096, -0.011480693), (0.99992317, 0.004676881, -0.011481316), (0.99992317, 0.00467439, -0.011480566), (0.99992317, 0.00467439, -0.011480566), (0.99992317, 0.004676882, -0.011481314), (0.99992317, 0.0046738866, -0.011480444), (0.99992317, 0.004676882, -0.011481314), (0.99992317, 0.00467439, -0.011480566), (0.99992317, 0.004676881, -0.011481316), (0.99992317, 0.004674394, -0.011480566), (0.99992317, 0.0046738866, -0.011480444), (0.99992317, 0.004676882, -0.011481314), (0.99992317, 0.004676882, -0.011481314), (0.0076967687, -0.96020913, 0.279176), (0.99992317, 0.004674394, -0.011480566), (0.99992317, 0.004676764, -0.011481442), (0.99992317, 0.004676837, -0.011481411), (0.99992317, 0.0046767695, -0.011481415), (0.99992317, 0.004676764, -0.011481442), (0.99992317, 0.004676927, -0.011481392), (0.99992317, 0.004676837, -0.011481411), (0.99992317, 0.004676927, -0.011481392), (0.99992317, 0.0046769534, -0.011481165), (0.99992317, 0.004676837, -0.011481411), (0.99992317, 0.004676927, -0.011481392), (0.99992317, 0.00467696, -0.011481154), (0.99992317, 0.0046769534, -0.011481165), (0.99992317, 0.004676879, -0.011481046), (0.99992317, 0.0046769534, -0.011481165), (0.99992317, 0.00467696, -0.011481154), (0.99992317, 0.0046769534, -0.011481165), (0.99992317, 0.004676879, -0.011481046), (0.99992317, 0.0046768663, -0.01148108), (0.009718743, 0.2792429, 0.96017134), (-0.0076967687, 0.96020913, -0.279176), (-0.009718743, -0.2792429, -0.96017134), (-0.0076967687, 0.96020913, -0.279176), (0.009718743, 0.2792429, 0.96017134), (0.009718743, 0.2792429, 0.96017134), (0.009718743, 0.2792429, 0.96017134), (0.99992317, 0.0046769534, -0.011481165), (-0.0076967687, 0.96020913, -0.279176), (0.99992317, 0.0046769534, -0.011481165), (0.009718743, 0.2792429, 0.96017134), (0.99992317, 0.004676837, -0.011481411), (-0.009718743, -0.2792429, -0.96017134), (-0.009718743, -0.2792429, -0.96017134), (-0.009718743, -0.2792429, -0.96017134), (-0.0076967687, 0.96020913, -0.279176), (-0.009718743, -0.2792429, -0.96017134), (-0.009718743, -0.2792429, -0.96017134), (-0.0076967687, 0.96020913, -0.279176), (0.99992317, 0.0046768663, -0.01148108), (-0.009718743, -0.2792429, -0.96017134), (0.99992317, 0.0046768663, -0.01148108), (-0.0076967687, 0.96020913, -0.279176), (0.99992317, 0.0046769534, -0.011481165), (0.009718743, 0.2792429, 0.96017134), (0.009718743, 0.2792429, 0.96017134), (0.009718743, 0.2792429, 0.96017134), (0.009718743, 0.2792429, 0.96017134), (0.009718743, 0.2792429, 0.96017134), (0.009718743, 0.2792429, 0.96017134), (0.99992317, 0.0046767695, -0.011481415), (0.009718743, 0.2792429, 0.96017134), (0.009718743, 0.2792429, 0.96017134), (0.009718743, 0.2792429, 0.96017134), (0.99992317, 0.0046767695, -0.011481415), (0.99992317, 0.004676837, -0.011481411), (0.99992317, 0.004676881, -0.011481316), (0.99992317, 0.00467696, -0.011481154), (0.99992317, 0.0046767853, -0.01148124), (0.99992317, 0.004676879, -0.011481046), (0.99992317, 0.00467696, -0.011481154), (0.99992317, 0.004676881, -0.011481316), (0.99992317, 0.004676879, -0.011481046), (0.99992317, 0.004676881, -0.011481316), (0.007696774, -0.96020895, 0.2791765), (0.99992317, 0.004676733, -0.011481177), (0.99992317, 0.0046767294, -0.011481031), (0.99992317, 0.004676927, -0.011481392), (0.99992317, 0.004676927, -0.011481392), (0.99992317, 0.004676764, -0.011481442), (0.99992317, 0.004676733, -0.011481177), (0.99992317, 0.004676733, -0.011481177), (0.99992317, 0.004676764, -0.011481442), (0.0076967673, -0.96020913, 0.27917588), (0.0076967687, -0.96020913, 0.279176), (0.009718743, 0.2792429, 0.96017134), (0.009718743, 0.2792429, 0.96017134), (0.0076967687, -0.96020913, 0.279176), (0.009718743, 0.2792429, 0.96017134), (-0.009718743, -0.2792429, -0.96017134), (-0.009718743, -0.2792429, -0.96017134), (-0.009718743, -0.2792429, -0.96017134), (0.0076967687, -0.96020913, 0.279176), (-0.009718743, -0.2792429, -0.96017134), (-0.009718743, -0.2792429, -0.96017134), (-0.009718743, -0.2792429, -0.96017134), (0.009718743, 0.2792429, 0.96017134), (0.009718743, 0.2792429, 0.96017134), (0.009718743, 0.2792429, 0.96017134), (0.009718743, 0.2792429, 0.96017134), (0.009718743, 0.2792429, 0.96017134), (0.009718743, 0.2792429, 0.96017134), (0.99992317, 0.0046767853, -0.01148124), (0.99992317, 0.004676882, -0.011481314), (0.99992317, 0.004676881, -0.011481316), (0.99992317, 0.0046768016, -0.011481229), (0.99992317, 0.004676882, -0.011481314), (0.99992317, 0.0046767853, -0.01148124), (0.99992317, 0.0046767853, -0.01148124), (0.99992317, 0.0046767765, -0.011481244), (0.99992317, 0.0046768016, -0.011481229), (0.99992317, 0.0046767765, -0.011481244), (0.99992317, 0.0046767853, -0.01148124), (0.99992317, 0.0046767294, -0.011481031), (0.99992317, 0.004676733, -0.011481177), (0.99992317, 0.0046767765, -0.011481244), (0.99992317, 0.0046767294, -0.011481031), (0.99992317, 0.0046767765, -0.011481244), (0.99992317, 0.004676733, -0.011481177), (0.99992317, 0.00467675, -0.011481275), (0.99992317, 0.00467675, -0.011481275), (0.99992317, 0.0046768384, -0.011481317), (0.99992317, 0.0046767765, -0.011481244), (0.99992317, 0.0046768384, -0.011481317), (0.99992317, 0.0046769767, -0.0114812935), (0.99992317, 0.0046767765, -0.011481244), (-0.0076967687, 0.96020913, -0.279176), (0.009718743, 0.2792429, 0.96017134), (0.99992317, 0.0046769767, -0.0114812935), (0.009718743, 0.2792429, 0.96017134), (-0.0076967687, 0.96020913, -0.279176), (-0.99992317, -0.0046769767, 0.0114812935), (-0.0076967687, 0.96020913, -0.279176), (-0.0076967687, 0.96020913, -0.279176), (0.99992317, 0.0046769767, -0.0114812935), (-0.0076967687, 0.96020913, -0.279176), (0.99992317, 0.0046769767, -0.0114812935), (0.99992317, 0.0046769767, -0.0114812935), (0.99992317, 0.0046769767, -0.0114812935), (-0.009718743, -0.2792429, -0.96017134), (-0.0076967687, 0.96020913, -0.279176), (-0.0076967687, 0.96020913, -0.279176), (-0.009718743, -0.2792429, -0.96017134), (-0.99992317, -0.0046769767, 0.0114812935), (-0.99992317, -0.0046769767, 0.0114812935), (-0.99992317, -0.0046769767, 0.0114812935), (-0.99992317, -0.0046769767, 0.0114812935), (-0.99992317, -0.0046769767, 0.0114812935), (-0.99992317, -0.0046769767, 0.0114812935), (-0.0076967687, 0.96020913, -0.279176), (-0.99992317, -0.0046769767, 0.0114812935), (-0.99992317, -0.0046769767, 0.0114812935), (-0.99992317, -0.0046769767, 0.0114812935), (-0.99992317, -0.0046769767, 0.0114812935), (-0.99992317, -0.0046769767, 0.0114812935), (-0.0076967687, 0.96020913, -0.279176), (-0.99992317, -0.0046769767, 0.0114812935), (-0.99992317, -0.0046769767, 0.0114812935), (-0.0076967687, 0.96020913, -0.279176), (-0.99992317, -0.0046769767, 0.0114812935), (-0.0076967687, 0.96020913, -0.279176), (-0.0076967687, 0.96020913, -0.279176), (-0.99992317, -0.0046769767, 0.0114812935), (-0.99992317, -0.0046769767, 0.0114812935), (-0.0076967687, 0.96020913, -0.279176), (-0.99992317, -0.0046769767, 0.0114812935), (-0.99992317, -0.0046769767, 0.0114812935), (-0.99992317, -0.0046769767, 0.0114812935), (-0.0076967687, 0.96020913, -0.279176), (-0.99992317, -0.0046769767, 0.0114812935), (-0.99992317, -0.0046769767, 0.0114812935), (-0.99992317, -0.0046769767, 0.0114812935), (-0.99992317, -0.0046769767, 0.0114812935), (-0.99992317, -0.0046769767, 0.0114812935), (0.99992317, 0.0046769767, -0.0114812935), (0.99992317, 0.0046769767, -0.0114812935), (0.009718743, 0.2792429, 0.96017134), (0.99992317, 0.0046769767, -0.0114812935), (0.99992317, 0.0046769767, -0.0114812935), (0.99992317, 0.0046769767, -0.0114812935), (0.99992317, 0.0046769767, -0.0114812935), (0.99992317, 0.0046769767, -0.0114812935), (0.99992317, 0.0046769767, -0.0114812935), (0.99992317, 0.0046769767, -0.0114812935), (0.99992317, 0.0046769767, -0.0114812935), (0.99992317, 0.0046769767, -0.0114812935), (0.99992317, 0.0046769767, -0.0114812935), (0.99992317, 0.0046769767, -0.0114812935), (0.99992317, 0.0046769767, -0.0114812935), (0.99992317, 0.0046769767, -0.0114812935), (0.99992317, 0.0046769767, -0.0114812935), (0.99992317, 0.0046769767, -0.0114812935), (0.99992317, 0.0046769767, -0.0114812935), (0.99992317, 0.0046769767, -0.0114812935), (0.99992317, 0.0046769767, -0.0114812935), (0.99992317, 0.0046769767, -0.0114812935), (0.99992317, 0.0046769767, -0.0114812935), (0.99992317, 0.0046769767, -0.0114812935), (0.99992317, 0.0046769767, -0.0114812935), (0.99992317, 0.0046769767, -0.0114812935), (0.99992317, 0.0046769767, -0.0114812935), (0.99992317, 0.0046769767, -0.0114812935), (0.99992317, 0.0046769767, -0.0114812935), (-0.009718743, -0.2792429, -0.96017134)] (
        interpolation = "faceVarying"
    )
    point3f[] points = [(0.087815255, -1.4963334, 0.14163145), (0.028410641, -3.3213065, -5.7754188), (0.027640983, -3.2252855, -5.8033376), (0.088584915, -1.5923544, 0.1695491), (0.10940952, 1.4753188, 1.3847476), (0.0897424, 0.91023546, -0.5582811), (0.058526844, 0.91008943, -0.5579227), (0.07819396, 1.4751728, 1.3851061), (0.096543774, -1.0764236, 1.9438444), (0.12946837, -1.0271717, 2.1123343), (0.0982528, -1.0273176, 2.1126926), (0.12775934, -1.0762776, 1.943486), (0.08029479, -1.5432961, 0.33851242), (0.07858569, -1.5924011, 0.1696639), (0.109801255, -1.5922552, 0.16930549), (0.11151035, -1.5431502, 0.338154), (0.10748257, -0.9312501, 2.0846603), (0.1291751, -0.3079744, 4.227781), (0.12994444, -0.40399545, 4.2556987), (0.10825203, -1.0272709, 2.112578), (0.017641753, -3.2253325, -5.8032227), (0.018411411, -3.3213532, -5.775304), (0.077816024, -1.4963802, 0.14174627), (0.11994522, -0.4040422, 4.255813), (0.09748334, -0.9312969, 2.084775), (0.11917586, -0.30802116, 4.2278957), (0.09278363, 0.793149, -0.34111327), (0.109032616, 1.2600214, 1.2642188), (-0.067153715, 0.7924009, -0.33927685), (0.07781706, 1.2598755, 1.2645772), (-0.050904732, 1.2592734, 1.2660552), (0.061568074, 0.79300296, -0.34075484), (-0.03217802, -1.0770258, 1.9453225), (-0.048427016, -1.5438982, 0.33999044), (-0.17962652, 1.2586713, 1.2675332), (-0.19587551, 0.79179883, -0.33779883), (-0.16089982, -1.0776275, 1.9468004), (-0.1771488, -1.5445001, 0.34146836), (0.090082146, 3.3215997, 3.1726017), (0.034552384, 1.7260823, -2.3135526), (-0.029144216, 2.6115777, -7.5002737), (0.016859367, 3.9333715, -2.9553108), (-0.098813236, 0.75113577, -0.26787117), (-0.019645084, -1.5279247, 0.3941378), (-0.03791568, 0.7514206, -0.2685704), (-0.08054264, -1.5282096, 0.39483705), (-0.083665125, 1.1863773, 1.2286986), (-0.022767574, 1.1866622, 1.2279993), (-0.0044969814, -1.0926826, 1.8907074), (-0.065394536, -1.0929675, 1.8914067), (-0.099364586, 0.73529404, -0.32234263), (-0.08109399, -1.5440513, 0.3403656), (-0.09982111, 0.79224795, -0.3389017), (-0.09926976, 0.8080897, -0.28443024), (-0.08412165, 1.2433312, 1.2121395), (-0.0831156, 1.2021666, 1.2829894), (-0.08357213, 1.2591205, 1.2664304), (-0.06484501, -1.0771782, 1.9456974), (-0.020196438, -1.5437664, 0.33966634), (-0.038467035, 0.7355789, -0.32304186), (-0.03892356, 0.7925328, -0.33960092), (-0.038372207, 0.8083745, -0.28512946), (-0.0232241, 1.2436161, 1.2114402), (-0.022674575, 1.2594053, 1.2657311), (-0.022218049, 1.2024513, 1.2822902), (-0.0039474554, -1.0768934, 1.9449983)]
}

