#usda 1.0
(
    defaultPrim = "SM_Lift_Floor"
    upAxis = "Z"
)

def Mesh "SM_Lift_Floor"
{
    int[] faceVertexCounts = [3, 3, 3, 3, 3, 3, 3, 3, 3, 3, 3, 3, 3, 3, 3, 3, 3, 3, 3, 3, 3, 3, 3, 3, 3, 3, 3, 3, 3, 3, 3, 3, 3, 3, 3, 3, 3, 3, 3, 3, 3, 3, 3, 3, 3, 3, 3, 3, 3, 3, 3, 3, 3, 3, 3, 3, 3, 3, 3, 3, 3, 3]
    int[] faceVertexIndices = [0, 1, 2, 0, 2, 3, 4, 5, 6, 4, 6, 7, 5, 8, 6, 9, 4, 7, 5, 10, 8, 9, 7, 11, 10, 11, 8, 10, 9, 11, 12, 13, 14, 12, 14, 15, 13, 16, 14, 17, 12, 15, 13, 18, 16, 17, 15, 19, 18, 19, 16, 18, 17, 19, 20, 21, 22, 20, 22, 23, 24, 25, 26, 24, 26, 27, 28, 29, 30, 28, 30, 31, 31, 30, 32, 31, 32, 33, 33, 32, 21, 33, 21, 20, 34, 35, 36, 34, 36, 37, 37, 36, 38, 37, 38, 39, 39, 38, 25, 39, 25, 24, 23, 22, 40, 23, 40, 41, 41, 40, 42, 41, 42, 43, 43, 42, 44, 43, 44, 45, 27, 26, 46, 27, 46, 47, 47, 46, 48, 47, 48, 49, 49, 48, 50, 49, 50, 51, 7, 6, 13, 7, 13, 12, 6, 18, 13, 11, 7, 12, 6, 8, 18, 11, 12, 17, 8, 17, 18, 8, 11, 17, 15, 14, 3, 15, 3, 2, 14, 0, 3, 19, 15, 2, 14, 16, 0, 19, 2, 1, 16, 1, 0, 1, 16, 19]
    normal3f[] normals = [(0.9999996, -9.562538e-7, 0.00093751785), (0.9999996, -9.563354e-7, 0.00093751797), (0.9999996, -9.563288e-7, 0.00093751785), (0.9999996, -9.562538e-7, 0.00093751785), (0.9999996, -9.563288e-7, 0.00093751785), (0.9999996, -9.562614e-7, 0.0009375178), (0.9999996, -9.560716e-7, 0.0009375184), (0.9999996, -9.565443e-7, 0.00093751814), (0.9999996, -9.562599e-7, 0.00093751826), (0.9999996, -9.560716e-7, 0.0009375184), (0.9999996, -9.562599e-7, 0.00093751826), (0.9999996, -9.561353e-7, 0.00093751797), (0.9999996, -9.565443e-7, 0.00093751814), (0.9999996, -9.564059e-7, 0.00093751814), (0.9999996, -9.562599e-7, 0.00093751826), (0.9999996, -9.560385e-7, 0.0009375179), (0.9999996, -9.560716e-7, 0.0009375184), (0.9999996, -9.561353e-7, 0.00093751797), (0.9999996, -9.565443e-7, 0.00093751814), (0.9999996, -9.563446e-7, 0.00093751785), (0.9999996, -9.564059e-7, 0.00093751814), (0.9999996, -9.560385e-7, 0.0009375179), (0.9999996, -9.561353e-7, 0.00093751797), (0.9999996, -9.564886e-7, 0.00093751797), (0.9999996, -9.563446e-7, 0.00093751785), (0.9999996, -9.564886e-7, 0.00093751797), (0.9999996, -9.564059e-7, 0.00093751814), (0.9999996, -9.563446e-7, 0.00093751785), (0.9999996, -9.560385e-7, 0.0009375179), (0.9999996, -9.564886e-7, 0.00093751797), (0.9999996, -9.564137e-7, 0.0009375183), (0.9999996, -9.565339e-7, 0.00093751785), (0.9999996, -9.561916e-7, 0.0009375184), (0.9999996, -9.564137e-7, 0.0009375183), (0.9999996, -9.561916e-7, 0.0009375184), (0.9999996, -9.560201e-7, 0.00093751785), (0.9999996, -9.565339e-7, 0.00093751785), (0.9999996, -9.564834e-7, 0.00093751826), (0.9999996, -9.561916e-7, 0.0009375184), (0.9999996, -9.561306e-7, 0.0009375183), (0.9999996, -9.564137e-7, 0.0009375183), (0.9999996, -9.560201e-7, 0.00093751785), (0.9999996, -9.565339e-7, 0.00093751785), (0.9999996, -9.559625e-7, 0.00093751797), (0.9999996, -9.564834e-7, 0.00093751826), (0.9999996, -9.561306e-7, 0.0009375183), (0.9999996, -9.560201e-7, 0.00093751785), (0.9999996, -9.566071e-7, 0.0009375179), (0.9999996, -9.559625e-7, 0.00093751797), (0.9999996, -9.566071e-7, 0.0009375179), (0.9999996, -9.564834e-7, 0.00093751826), (0.9999996, -9.559625e-7, 0.00093751797), (0.9999996, -9.561306e-7, 0.0009375183), (0.9999996, -9.566071e-7, 0.0009375179), (0.9999996, -9.563221e-7, 0.00093754806), (0.9999996, -9.563221e-7, 0.00093754806), (0.9999996, -9.563221e-7, 0.00093754806), (0.9999996, -9.563221e-7, 0.00093754806), (0.9999996, -9.563221e-7, 0.00093754806), (0.9999996, -9.563221e-7, 0.00093754806), (0.9999996, -9.563221e-7, 0.00093754806), (0.9999996, -9.563221e-7, 0.00093754806), (0.9999996, -9.563221e-7, 0.00093754806), (0.9999996, -9.563221e-7, 0.00093754806), (0.9999996, -9.563221e-7, 0.00093754806), (0.9999996, -9.563221e-7, 0.00093754806), (0.8290656, 0.00057034777, -0.55915093), (0.8290656, 0.00057034777, -0.55915093), (0.95686185, 0.0002963613, -0.2905433), (0.8290656, 0.00057034777, -0.55915093), (0.95686185, 0.0002963613, -0.2905433), (0.98858404, 0.00015368778, -0.15067066), (0.98858404, 0.00015368778, -0.15067066), (0.95686185, 0.0002963613, -0.2905433), (0.99827915, 0.000059815786, -0.058641516), (0.98858404, 0.00015368778, -0.15067066), (0.99827915, 0.000059815786, -0.058641516), (0.9992314, 0.00003998544, -0.039200466), (0.9992314, 0.00003998544, -0.039200466), (0.99827915, 0.000059815786, -0.058641516), (0.9999996, -9.563221e-7, 0.00093754806), (0.9992314, 0.00003998544, -0.039200466), (0.9999996, -9.563221e-7, 0.00093754806), (0.9999996, -9.563221e-7, 0.00093754806), (0.829061, 0.0005703548, -0.5591579), (0.829061, 0.0005703548, -0.5591579), (0.9568616, 0.0002963623, -0.29054424), (0.829061, 0.0005703548, -0.5591579), (0.9568616, 0.0002963623, -0.29054424), (0.98858404, 0.0001536874, -0.15067029), (0.98858404, 0.0001536874, -0.15067029), (0.9568616, 0.0002963623, -0.29054424), (0.99827915, 0.000059815502, -0.058641236), (0.98858404, 0.0001536874, -0.15067029), (0.99827915, 0.000059815502, -0.058641236), (0.9992314, 0.000039985312, -0.03920034), (0.9992314, 0.000039985312, -0.03920034), (0.99827915, 0.000059815502, -0.058641236), (0.9999996, -9.563221e-7, 0.00093754806), (0.9992314, 0.000039985312, -0.03920034), (0.9999996, -9.563221e-7, 0.00093754806), (0.9999996, -9.563221e-7, 0.00093754806), (0.9999996, -9.563221e-7, 0.00093754806), (0.9999996, -9.563221e-7, 0.00093754806), (0.9991561, -0.000041896415, 0.041073926), (0.9999996, -9.563221e-7, 0.00093754806), (0.9991561, -0.000041896415, 0.041073926), (0.99816746, -0.00006172475, 0.060513), (0.99816746, -0.00006172475, 0.060513), (0.9991561, -0.000041896415, 0.041073926), (0.9882998, -0.00015557795, 0.15252373), (0.99816746, -0.00006172475, 0.060513), (0.9882998, -0.00015557795, 0.15252373), (0.95631504, -0.0002981919, 0.29233795), (0.95631504, -0.0002981919, 0.29233795), (0.9882998, -0.00015557795, 0.15252373), (0.82801104, -0.0005719395, 0.56071144), (0.95631504, -0.0002981919, 0.29233795), (0.82801104, -0.0005719395, 0.56071144), (0.82801104, -0.0005719395, 0.56071144), (0.9999996, -9.563221e-7, 0.00093754806), (0.9999996, -9.563221e-7, 0.00093754806), (0.9991561, -0.000041896415, 0.041073926), (0.9999996, -9.563221e-7, 0.00093754806), (0.9991561, -0.000041896415, 0.041073926), (0.99816746, -0.00006172475, 0.060513), (0.99816746, -0.00006172475, 0.060513), (0.9991561, -0.000041896415, 0.041073926), (0.9882998, -0.00015557795, 0.15252373), (0.99816746, -0.00006172475, 0.060513), (0.9882998, -0.00015557795, 0.15252373), (0.95631504, -0.0002981919, 0.29233795), (0.95631504, -0.0002981919, 0.29233795), (0.9882998, -0.00015557795, 0.15252373), (0.82801104, -0.0005719395, 0.56071144), (0.95631504, -0.0002981919, 0.29233795), (0.82801104, -0.0005719395, 0.56071144), (0.82801104, -0.0005719395, 0.56071144), (0.9999996, -9.561353e-7, 0.00093751797), (0.9999996, -9.562599e-7, 0.00093751826), (0.9999996, -9.565339e-7, 0.00093751785), (0.9999996, -9.561353e-7, 0.00093751797), (0.9999996, -9.565339e-7, 0.00093751785), (0.9999996, -9.564137e-7, 0.0009375183), (0.9999996, -9.562599e-7, 0.00093751826), (0.9999996, -9.559625e-7, 0.00093751797), (0.9999996, -9.565339e-7, 0.00093751785), (0.9999996, -9.564886e-7, 0.00093751797), (0.9999996, -9.561353e-7, 0.00093751797), (0.9999996, -9.564137e-7, 0.0009375183), (0.9999996, -9.562599e-7, 0.00093751826), (0.9999996, -9.564059e-7, 0.00093751814), (0.9999996, -9.559625e-7, 0.00093751797), (0.9999996, -9.564886e-7, 0.00093751797), (0.9999996, -9.564137e-7, 0.0009375183), (0.9999996, -9.561306e-7, 0.0009375183), (0.9999996, -9.564059e-7, 0.00093751814), (0.9999996, -9.561306e-7, 0.0009375183), (0.9999996, -9.559625e-7, 0.00093751797), (0.9999996, -9.564059e-7, 0.00093751814), (0.9999996, -9.564886e-7, 0.00093751797), (0.9999996, -9.561306e-7, 0.0009375183), (0.9999996, -9.560201e-7, 0.00093751785), (0.9999996, -9.561916e-7, 0.0009375184), (0.9999996, -9.562614e-7, 0.0009375178), (0.9999996, -9.560201e-7, 0.00093751785), (0.9999996, -9.562614e-7, 0.0009375178), (0.9999996, -9.563288e-7, 0.00093751785), (0.9999996, -9.561916e-7, 0.0009375184), (0.9999996, -9.562538e-7, 0.00093751785), (0.9999996, -9.562614e-7, 0.0009375178), (0.9999996, -9.566071e-7, 0.0009375179), (0.9999996, -9.560201e-7, 0.00093751785), (0.9999996, -9.563288e-7, 0.00093751785), (0.9999996, -9.561916e-7, 0.0009375184), (0.9999996, -9.564834e-7, 0.00093751826), (0.9999996, -9.562538e-7, 0.00093751785), (0.9999996, -9.566071e-7, 0.0009375179), (0.9999996, -9.563288e-7, 0.00093751785), (0.9999996, -9.563354e-7, 0.00093751797), (0.9999996, -9.564834e-7, 0.00093751826), (0.9999996, -9.563354e-7, 0.00093751797), (0.9999996, -9.562538e-7, 0.00093751785), (0.9999996, -9.563354e-7, 0.00093751797), (0.9999996, -9.564834e-7, 0.00093751826), (0.9999996, -9.566071e-7, 0.0009375179)] (
        interpolation = "faceVarying"
    )
    point3f[] points = [(0.00036892275, -0.77119076, -1.598381), (0.00036892275, 0.7731877, -1.5968057), (-0.0010938765, 0.7715962, -0.036518425), (-0.0010938765, -0.7727823, -0.038093727), (-0.0013282563, 1.0213411, 0.21373636), (-0.0013282563, -1.0230372, 0.21165103), (-0.0011876285, -0.8728843, 0.061804198), (-0.0011876285, 0.8714941, 0.06358351), (0.00046267474, -0.87108874, -1.698483), (0.00060330244, 1.0234426, -1.8465505), (0.00060330244, -1.0209357, -1.8486358), (0.00046267474, 0.8732897, -1.6967037), (-0.0011782533, 0.8615043, 0.053573325), (-0.0011782533, -0.8628741, 0.05181442), (-0.0011032518, -0.7827925, -0.028103884), (-0.0011032518, 0.78158593, -0.02650818), (0.000378298, -0.78118056, -1.6083912), (0.0004532995, 0.86327946, -1.6867138), (0.0004532995, -0.86109895, -1.6884727), (0.000378298, 0.7831979, -1.6067954), (0.0015862574, -0.73738194, 0.29797947), (0.0015862574, 0.7372022, 0.29948357), (0.0015840096, 0.7371998, 0.30188105), (0.0015840096, -0.7373844, 0.30037695), (0.001628265, -0.7373362, 0.25317362), (0.001628265, 0.73724794, 0.25467774), (0.0016260173, 0.7372455, 0.25707522), (0.0016260173, -0.73733866, 0.2555711), (-0.0013918183, -0.73736364, 0.2800244), (-0.0013918183, 0.7372206, 0.28152853), (0.00084834883, 0.7372172, 0.28485006), (0.00084834883, -0.737367, 0.28334594), (0.0015900811, 0.7372064, 0.29540506), (0.0015900811, -0.73737776, 0.29390097), (-0.0013498105, -0.7373179, 0.23521857), (-0.0013498105, 0.73726624, 0.23672268), (0.00089035655, 0.7372629, 0.24004416), (0.00089035655, -0.7373213, 0.23854005), (0.0016320888, 0.7372521, 0.25059924), (0.0016320888, -0.73733205, 0.24909511), (0.0015801858, 0.7371956, 0.30595955), (0.0015801858, -0.73738855, 0.30445543), (0.00081866304, 0.7371849, 0.3165132), (0.00081866304, -0.7373993, 0.3150091), (-0.0014277282, 0.7371815, 0.31983048), (-0.0014277282, -0.7374027, 0.31832638), (0.0016221935, 0.7372413, 0.2611537), (0.0016221935, -0.73734283, 0.2596496), (0.00086067076, 0.7372306, 0.2717074), (0.00086067076, -0.73735356, 0.27020326), (-0.0013857206, 0.7372272, 0.27502465), (-0.0013857206, -0.73735696, 0.27352053)]
}

