#usda 1.0
(
    defaultPrim = "SM_Lobby_Shadowbox"
    upAxis = "Z"
)

def Mesh "SM_Lobby_Shadowbox"
{
    int[] faceVertexCounts = [3, 3, 3, 3, 3, 3, 3, 3, 3, 3, 3, 3, 3, 3, 3, 3, 3, 3, 3, 3, 3, 3, 3, 3, 3, 3, 3, 3, 3, 3, 3, 3, 3, 3, 3, 3, 3, 3, 3, 3, 3, 3, 3, 3, 3, 3, 3, 3, 3, 3, 3, 3, 3, 3, 3, 3, 3, 3, 3, 3, 3, 3, 3, 3, 3, 3, 3, 3, 3, 3, 3, 3, 3, 3, 3, 3, 3, 3, 3, 3, 3, 3, 3, 3, 3, 3, 3, 3, 3, 3, 3, 3, 3, 3, 3, 3, 3, 3, 3, 3, 3, 3, 3]
    int[] faceVertexIndices = [0, 1, 2, 1, 0, 3, 0, 4, 5, 4, 0, 2, 6, 4, 7, 4, 6, 5, 3, 7, 1, 7, 3, 6, 8, 9, 10, 10, 11, 8, 12, 8, 11, 11, 13, 12, 14, 12, 13, 13, 15, 14, 9, 15, 10, 15, 9, 14, 16, 17, 18, 18, 19, 16, 20, 19, 21, 19, 20, 16, 22, 20, 21, 21, 23, 22, 17, 22, 23, 23, 18, 17, 24, 25, 26, 25, 24, 27, 28, 24, 29, 24, 28, 27, 30, 31, 32, 31, 30, 33, 34, 30, 32, 34, 32, 35, 34, 36, 37, 36, 34, 35, 36, 31, 33, 36, 33, 37, 38, 39, 40, 39, 38, 41, 42, 43, 44, 44, 28, 42, 45, 40, 46, 40, 45, 47, 47, 38, 40, 38, 47, 48, 49, 28, 29, 49, 39, 28, 39, 42, 28, 42, 39, 41, 50, 43, 51, 43, 50, 44, 52, 44, 50, 53, 44, 52, 44, 53, 54, 48, 55, 56, 55, 48, 51, 51, 57, 55, 51, 43, 57, 43, 58, 57, 58, 43, 42, 41, 58, 42, 58, 41, 59, 41, 60, 59, 38, 60, 41, 61, 59, 60, 52, 47, 45, 52, 50, 47, 51, 47, 50, 47, 51, 48, 45, 53, 52, 53, 45, 8, 8, 45, 9, 9, 45, 46, 46, 49, 9, 9, 49, 14, 49, 29, 14, 12, 14, 29, 8, 20, 53, 8, 12, 20, 20, 22, 53, 20, 12, 16, 16, 12, 29, 53, 22, 26, 29, 26, 16, 26, 29, 24, 17, 16, 26, 26, 22, 17, 28, 0, 5, 28, 5, 6, 0, 28, 44, 28, 6, 27, 44, 3, 0, 6, 25, 27, 3, 25, 6, 3, 44, 54, 25, 3, 54, 31, 54, 32, 54, 35, 32, 25, 54, 31, 35, 54, 53, 36, 25, 31, 36, 35, 53, 25, 36, 26, 53, 26, 36]
    normal3f[] normals = [(0.1911062, 0.92280143, 0.33453834), (0.84303963, -0.32887447, 0.42558873), (0.50275475, 0.20069614, -0.8408084), (0.84303963, -0.32887447, 0.42558873), (0.1911062, 0.92280143, 0.33453834), (0.1911064, 0.92280155, 0.33453798), (0.1911062, 0.92280143, 0.33453834), (0.50275475, 0.20069616, -0.8408084), (0.1911054, 0.92280155, 0.33453855), (0.50275475, 0.20069616, -0.8408084), (0.1911062, 0.92280143, 0.33453834), (0.50275475, 0.20069614, -0.8408084), (0.19110632, 0.92280155, 0.33453795), (0.50275475, 0.20069616, -0.8408084), (-0.50275475, -0.20069614, 0.8408084), (0.50275475, 0.20069616, -0.8408084), (0.19110632, 0.92280155, 0.33453795), (0.1911054, 0.92280155, 0.33453855), (0.1911064, 0.92280155, 0.33453798), (-0.50275475, -0.20069614, 0.8408084), (0.84303963, -0.32887447, 0.42558873), (-0.50275475, -0.20069614, 0.8408084), (0.1911064, 0.92280155, 0.33453798), (0.19110632, 0.92280155, 0.33453795), (-0.19110587, -0.92280173, -0.33453768), (-0.19110656, -0.9228017, -0.3345375), (0.84303963, -0.32887447, 0.42558873), (0.84303963, -0.32887447, 0.42558873), (-0.5027548, -0.20069613, 0.84080833), (-0.19110587, -0.92280173, -0.33453768), (-0.19110705, -0.92280126, -0.33453834), (-0.19110587, -0.92280173, -0.33453768), (-0.5027548, -0.20069613, 0.84080833), (-0.5027548, -0.20069613, 0.84080833), (0.84303963, -0.32887447, 0.42558873), (-0.19110705, -0.92280126, -0.33453834), (-0.1911073, -0.9228014, -0.334538), (-0.19110705, -0.92280126, -0.33453834), (0.84303963, -0.32887447, 0.42558873), (0.84303963, -0.32887447, 0.42558873), (0.5027548, 0.20069613, -0.84080833), (-0.1911073, -0.9228014, -0.334538), (-0.19110656, -0.9228017, -0.3345375), (0.5027548, 0.20069613, -0.84080833), (0.84303963, -0.32887447, 0.42558873), (0.5027548, 0.20069613, -0.84080833), (-0.19110656, -0.9228017, -0.3345375), (-0.1911073, -0.9228014, -0.334538), (-0.19110745, -0.9228012, -0.3345383), (-0.19110641, -0.92280143, -0.33453822), (0.84303963, -0.32887447, 0.42558873), (0.84303963, -0.32887447, 0.42558873), (0.5027549, 0.20069608, -0.8408083), (-0.19110745, -0.9228012, -0.3345383), (-0.19110613, -0.9228016, -0.33453786), (0.5027549, 0.20069608, -0.8408083), (0.84303963, -0.32887447, 0.42558873), (0.5027549, 0.20069608, -0.8408083), (-0.19110613, -0.9228016, -0.33453786), (-0.19110745, -0.9228012, -0.3345383), (-0.19110624, -0.9228015, -0.3345382), (-0.19110613, -0.9228016, -0.33453786), (0.84303963, -0.32887447, 0.42558873), (0.84303963, -0.32887447, 0.42558873), (-0.5027549, -0.20069608, 0.8408083), (-0.19110624, -0.9228015, -0.3345382), (-0.19110641, -0.92280143, -0.33453822), (-0.19110624, -0.9228015, -0.3345382), (-0.5027549, -0.20069608, 0.8408083), (-0.5027549, -0.20069608, 0.8408083), (0.84303963, -0.32887447, 0.42558873), (-0.19110641, -0.92280143, -0.33453822), (-0.8430397, 0.3288744, -0.42558867), (-0.8430397, 0.32887444, -0.42558867), (0.84303963, -0.32887447, 0.42558873), (-0.8430397, 0.32887444, -0.42558867), (-0.8430397, 0.3288744, -0.42558867), (-0.8430397, 0.32887444, -0.4255887), (-0.8430397, 0.3288744, -0.4255886), (-0.8430397, 0.3288744, -0.42558867), (0.84303963, -0.32887447, 0.42558873), (-0.8430397, 0.3288744, -0.42558867), (-0.8430397, 0.3288744, -0.4255886), (-0.8430397, 0.32887444, -0.4255887), (-0.19110633, -0.92280155, -0.33453798), (0.5027549, 0.20069608, -0.8408083), (0.84303963, -0.32887447, 0.42558873), (0.5027549, 0.20069608, -0.8408083), (-0.19110633, -0.92280155, -0.33453798), (0.84303963, -0.3288744, 0.42558876), (0.84303963, -0.32887447, 0.42558873), (-0.19110633, -0.92280155, -0.33453798), (0.84303963, -0.32887447, 0.42558873), (0.84303963, -0.32887447, 0.42558873), (0.84303963, -0.32887447, 0.42558873), (0.50275445, 0.20069686, -0.8408084), (0.84303963, -0.32887447, 0.42558873), (0.5027551, 0.20069641, -0.8408081), (0.84303963, -0.32887447, 0.42558873), (0.5027551, 0.20069641, -0.8408081), (0.84303963, -0.32887447, 0.42558873), (0.50275445, 0.20069686, -0.8408084), (0.5027551, 0.20069641, -0.8408081), (0.5027549, 0.20069608, -0.8408083), (0.84303963, -0.3288744, 0.42558876), (0.5027551, 0.20069641, -0.8408081), (0.84303963, -0.3288744, 0.42558876), (0.84303963, -0.32887447, 0.42558873), (-0.5027547, -0.20069616, 0.8408084), (-0.84303975, 0.3288744, -0.42558858), (-0.50275475, -0.20069616, 0.8408084), (-0.84303975, 0.3288744, -0.42558858), (-0.5027547, -0.20069616, 0.8408084), (0.84303963, -0.32887447, 0.42558873), (0.502755, 0.20069613, -0.8408082), (0.84303963, -0.32887447, 0.42558873), (0.84303963, -0.3288745, 0.42558867), (0.84303963, -0.3288745, 0.42558867), (-0.8430397, 0.3288744, -0.4255886), (0.502755, 0.20069613, -0.8408082), (-0.19110605, -0.9228017, -0.3345378), (-0.50275475, -0.20069616, 0.8408084), (-0.1911067, -0.9228017, -0.33453748), (-0.50275475, -0.20069616, 0.8408084), (-0.19110605, -0.9228017, -0.3345378), (-0.5027549, -0.20069608, 0.8408083), (-0.5027549, -0.20069608, 0.8408083), (-0.5027547, -0.20069616, 0.8408084), (-0.50275475, -0.20069616, 0.8408084), (-0.5027547, -0.20069616, 0.8408084), (-0.5027549, -0.20069608, 0.8408083), (-0.5027549, -0.20069608, 0.8408083), (-0.8430397, 0.3288744, -0.42558867), (-0.8430397, 0.3288744, -0.4255886), (0.84303963, -0.32887447, 0.42558873), (-0.8430397, 0.3288744, -0.42558867), (-0.84303975, 0.3288744, -0.42558858), (-0.8430397, 0.3288744, -0.4255886), (-0.84303975, 0.3288744, -0.42558858), (0.502755, 0.20069613, -0.8408082), (-0.8430397, 0.3288744, -0.4255886), (0.502755, 0.20069613, -0.8408082), (-0.84303975, 0.3288744, -0.42558858), (0.84303963, -0.32887447, 0.42558873), (0.8430397, -0.32887444, 0.42558864), (0.84303963, -0.32887447, 0.42558873), (0.84303963, -0.32887447, 0.42558873), (0.84303963, -0.32887447, 0.42558873), (0.8430397, -0.32887444, 0.42558864), (0.84303963, -0.3288745, 0.42558867), (0.8430397, -0.32887444, 0.42558864), (0.84303963, -0.3288745, 0.42558867), (0.8430397, -0.32887444, 0.42558864), (0.84303963, -0.32887447, 0.42558867), (0.84303963, -0.3288745, 0.42558867), (0.8430397, -0.32887444, 0.42558864), (0.84303963, -0.3288745, 0.42558867), (0.84303963, -0.32887447, 0.42558867), (0.84303963, -0.32887447, 0.42558873), (-0.5027549, -0.20069608, 0.8408083), (0.19110641, 0.92280155, 0.334538), (0.19110641, 0.92280155, 0.334538), (0.19110641, 0.92280155, 0.334538), (-0.5027549, -0.20069608, 0.8408083), (0.84303963, -0.32887447, 0.42558873), (0.84303963, -0.32887447, 0.42558873), (0.19110641, 0.92280155, 0.334538), (0.19110641, 0.92280155, 0.334538), (0.84303963, -0.32887447, 0.42558873), (0.84303963, -0.32887447, 0.42558873), (0.19110641, 0.92280155, 0.334538), (0.84303963, -0.32887447, 0.42558873), (0.19110633, 0.9228018, 0.3345373), (0.19110641, 0.92280155, 0.334538), (0.19110633, 0.9228018, 0.3345373), (0.84303963, -0.32887447, 0.42558873), (0.502755, 0.20069613, -0.8408082), (0.84303963, -0.32887447, 0.42558873), (0.19110633, 0.9228018, 0.3345373), (0.502755, 0.20069613, -0.8408082), (0.19110633, 0.9228018, 0.3345373), (0.84303963, -0.32887447, 0.42558873), (0.19110638, 0.9228015, 0.33453816), (0.84303963, -0.32887447, 0.42558873), (0.19110641, 0.92280155, 0.334538), (0.19110638, 0.9228015, 0.33453816), (-0.5027547, -0.20069616, 0.8408084), (0.19110641, 0.92280155, 0.334538), (0.84303963, -0.32887447, 0.42558873), (0.19110641, 0.92280155, 0.334538), (0.19110638, 0.9228015, 0.33453816), (0.19110641, 0.92280155, 0.334538), (0.8430397, -0.32887444, 0.42558864), (-0.5027549, -0.20069608, 0.8408083), (-0.19110605, -0.9228017, -0.3345378), (0.8430397, -0.32887444, 0.42558864), (0.8430397, -0.32887444, 0.42558864), (-0.5027549, -0.20069608, 0.8408083), (0.84303963, -0.32887447, 0.42558873), (-0.5027549, -0.20069608, 0.8408083), (0.8430397, -0.32887444, 0.42558864), (-0.5027549, -0.20069608, 0.8408083), (0.84303963, -0.32887447, 0.42558873), (-0.5027549, -0.20069608, 0.8408083), (-0.19110605, -0.9228017, -0.3345378), (0.84303963, -0.32887447, 0.42558867), (0.8430397, -0.32887444, 0.42558864), (0.84303963, -0.32887447, 0.42558867), (-0.19110605, -0.9228017, -0.3345378), (-0.19110587, -0.92280173, -0.33453768), (-0.19110587, -0.92280173, -0.33453768), (-0.19110605, -0.9228017, -0.3345378), (-0.19110656, -0.9228017, -0.3345375), (-0.19110656, -0.9228017, -0.3345375), (-0.19110605, -0.9228017, -0.3345378), (-0.1911067, -0.9228017, -0.33453748), (-0.1911067, -0.9228017, -0.33453748), (-0.8430397, 0.3288744, -0.42558867), (-0.19110656, -0.9228017, -0.3345375), (-0.19110656, -0.9228017, -0.3345375), (-0.8430397, 0.3288744, -0.42558867), (-0.1911073, -0.9228014, -0.334538), (-0.8430397, 0.3288744, -0.42558867), (0.84303963, -0.32887447, 0.42558873), (-0.1911073, -0.9228014, -0.334538), (-0.19110705, -0.92280126, -0.33453834), (-0.1911073, -0.9228014, -0.334538), (0.84303963, -0.32887447, 0.42558873), (-0.19110587, -0.92280173, -0.33453768), (-0.19110613, -0.9228016, -0.33453786), (0.84303963, -0.32887447, 0.42558867), (-0.19110587, -0.92280173, -0.33453768), (-0.19110705, -0.92280126, -0.33453834), (-0.19110613, -0.9228016, -0.33453786), (-0.19110613, -0.9228016, -0.33453786), (-0.19110624, -0.9228015, -0.3345382), (0.84303963, -0.32887447, 0.42558867), (-0.19110613, -0.9228016, -0.33453786), (-0.19110705, -0.92280126, -0.33453834), (-0.19110745, -0.9228012, -0.3345383), (-0.19110745, -0.9228012, -0.3345383), (-0.19110705, -0.92280126, -0.33453834), (0.84303963, -0.32887447, 0.42558873), (0.84303963, -0.32887447, 0.42558867), (-0.19110624, -0.9228015, -0.3345382), (0.84303963, -0.32887447, 0.42558873), (0.84303963, -0.32887447, 0.42558873), (0.84303963, -0.32887447, 0.42558873), (-0.19110745, -0.9228012, -0.3345383), (0.84303963, -0.32887447, 0.42558873), (0.84303963, -0.32887447, 0.42558873), (-0.8430397, 0.3288744, -0.42558867), (-0.19110641, -0.92280143, -0.33453822), (-0.19110745, -0.9228012, -0.3345383), (0.84303963, -0.32887447, 0.42558873), (0.84303963, -0.32887447, 0.42558873), (-0.19110624, -0.9228015, -0.3345382), (-0.19110641, -0.92280143, -0.33453822), (-0.8430397, 0.3288744, -0.4255886), (0.1911062, 0.92280143, 0.33453834), (0.1911054, 0.92280155, 0.33453855), (-0.8430397, 0.3288744, -0.4255886), (0.1911054, 0.92280155, 0.33453855), (0.19110632, 0.92280155, 0.33453795), (0.1911062, 0.92280143, 0.33453834), (-0.8430397, 0.3288744, -0.4255886), (0.84303963, -0.3288745, 0.42558867), (-0.8430397, 0.3288744, -0.4255886), (0.19110632, 0.92280155, 0.33453795), (-0.8430397, 0.32887444, -0.4255887), (0.84303963, -0.3288745, 0.42558867), (0.1911064, 0.92280155, 0.33453798), (0.1911062, 0.92280143, 0.33453834), (0.19110632, 0.92280155, 0.33453795), (-0.8430397, 0.32887444, -0.42558867), (-0.8430397, 0.32887444, -0.4255887), (0.1911064, 0.92280155, 0.33453798), (-0.8430397, 0.32887444, -0.42558867), (0.19110632, 0.92280155, 0.33453795), (0.1911064, 0.92280155, 0.33453798), (0.84303963, -0.3288745, 0.42558867), (0.84303963, -0.32887447, 0.42558873), (-0.8430397, 0.32887444, -0.42558867), (0.1911064, 0.92280155, 0.33453798), (0.84303963, -0.32887447, 0.42558873), (0.5027549, 0.20069608, -0.8408083), (0.84303963, -0.32887447, 0.42558873), (0.84303963, -0.32887447, 0.42558873), (0.84303963, -0.32887447, 0.42558873), (0.50275445, 0.20069686, -0.8408084), (0.84303963, -0.32887447, 0.42558873), (-0.8430397, 0.32887444, -0.42558867), (0.84303963, -0.32887447, 0.42558873), (0.5027549, 0.20069608, -0.8408083), (0.50275445, 0.20069686, -0.8408084), (0.84303963, -0.32887447, 0.42558873), (0.84303963, -0.32887447, 0.42558867), (0.5027551, 0.20069641, -0.8408081), (-0.8430397, 0.32887444, -0.42558867), (0.5027549, 0.20069608, -0.8408083), (0.5027551, 0.20069641, -0.8408081), (0.50275445, 0.20069686, -0.8408084), (0.84303963, -0.32887447, 0.42558867), (-0.8430397, 0.32887444, -0.42558867), (0.5027551, 0.20069641, -0.8408081), (0.84303963, -0.32887447, 0.42558873), (0.84303963, -0.32887447, 0.42558867), (0.84303963, -0.32887447, 0.42558873), (0.5027551, 0.20069641, -0.8408081)] (
        interpolation = "faceVarying"
    )
    point3f[] points = [(0.6051408, 3.202897, 3.9339263), (1.6543659, 3.4323056, 2.0328145), (0.56237465, 2.9963906, 3.8590627), (1.6971321, 3.6388118, 2.1076782), (-2.2413561, 4.0901413, 2.443666), (-2.1985903, 4.296648, 2.5185294), (-1.1065993, 4.732563, 0.692281), (-1.1493654, 4.526057, 0.6174174), (-1.0924425, -5.2794, 0.74192303), (-2.1829183, -5.7147098, 2.5656374), (-2.133381, -5.4755077, 2.6523538), (-1.0429053, -5.0401974, 0.8286396), (-3.8961742, -4.1856484, -0.67347443), (-3.846637, -3.9464462, -0.58675784), (-4.98665, -4.6209583, 1.1502398), (-4.937113, -4.3817563, 1.2369565), (-3.6425622, -4.0844083, -1.0976163), (-2.552087, -3.6490982, -2.9213295), (-2.50255, -3.4098961, -2.834613), (-3.593025, -3.845206, -1.0108998), (-0.83883095, -5.178159, 0.31778136), (-0.78929365, -4.938957, 0.40449795), (0.25164446, -4.74285, -1.5059316), (0.3011817, -4.5036473, -1.4192151), (-6.2008605, -3.3838093, -1.5687289), (-0.14544815, 6.8380995, -5.664769), (-1.9073988, -1.6698908, -8.749123), (-4.4389095, 5.124181, 1.5156244), (-2.7528298, 4.466432, 2.3668017), (-4.5147805, -4.0415583, -0.71755147), (6.9876122, 3.4971104, -1.7778506), (0.74188864, 6.07348, -5.316703), (7.164831, 3.567855, -2.0742316), (0.56466997, 6.0027356, -5.0203223), (5.3976293, -4.180491, -4.5611706), (5.574848, -4.109747, -4.8575516), (-0.84809375, -1.6041216, -8.10002), (-1.0253124, -1.674866, -7.803639), (0.1234299, 3.532814, 8.814662), (-4.82247, 3.7429883, 5.9074674), (-0.20600124, 1.9420785, 8.237982), (-4.4930396, 5.333724, 6.4841475), (-2.400204, 6.1691685, 2.9840853), (3.4808242, 3.8749475, 5.9529843), (3.1281981, 2.1722102, 5.335701), (-1.9449536, -6.659473, 5.0357714), (-1.9911474, -6.677913, 5.113026), (-0.15980737, 1.9605192, 8.160728), (0.16962378, 3.5512547, 8.737409), (-6.6076164, -4.877003, 2.7825108), (1.1047518, 1.4672076, 8.799111), (1.4341828, 3.0579433, 9.375792), (-0.68039435, -7.152785, 5.6741543), (5.6597095, -4.621861, -4.929049), (7.42166, 3.8861287, -1.8446926), (1.3221868, 3.1629522, 9.150109), (0.2473114, 3.582267, 8.607484), (3.1269288, 3.8824546, 6.134441), (-2.070185, 5.909878, 3.5108001), (-3.8737395, 5.189912, 6.527066), (0.16962327, 3.5512545, 8.737407), (0.24731137, 3.582267, 8.607481)]
}

