#usda 1.0
(
    defaultPrim = "SM_Lobby_Stairbase"
    upAxis = "Z"
)

def Mesh "SM_Lobby_Stairbase"
{
    int[] faceVertexCounts = [3, 3, 3, 3]
    int[] faceVertexIndices = [0, 1, 2, 1, 0, 3, 4, 5, 6, 4, 6, 7]
    normal3f[] normals = [(0.6026776, 0.7245185, -0.33444384), (0.6026776, 0.7245185, -0.33444384), (0.6026776, 0.7245185, -0.33444384), (0.6026776, 0.7245185, -0.33444384), (0.6026776, 0.7245185, -0.33444384), (0.6026776, 0.7245185, -0.33444384), (0.95187986, -0.2141853, -0.21920174), (0.95187986, -0.2141853, -0.21920174), (0.95187986, -0.2141853, -0.21920174), (0.95187986, -0.2141853, -0.21920174), (0.95187986, -0.2141853, -0.21920174), (0.95187986, -0.2141853, -0.21920174)] (
        interpolation = "faceVarying"
    )
    point3f[] points = [(0.94523543, -1.3511424, -4.0547233), (-0.90111053, 1.2711879, -1.7014283), (1.5500275, -0.8623659, -1.9060152), (-1.5059034, 0.78241324, -3.8501368), (-0.02495358, -1.8871, 5.188221), (-0.7466865, -2.470385, 2.6240444), (-0.02561839, 1.978737, 1.4090248), (0.6961137, 2.5620239, 3.973201)]
}

