#usda 1.0
(
    defaultPrim = "SM_Lobby_Wall_03"
    upAxis = "Z"
)

def Mesh "SM_Lobby_Wall_03"
{
    int[] faceVertexCounts = [3, 3, 3, 3, 3, 3, 3, 3, 3, 3, 3, 3, 3, 3, 3, 3, 3, 3, 3, 3, 3, 3, 3, 3, 3, 3, 3, 3, 3, 3, 3, 3, 3, 3, 3, 3, 3, 3, 3, 3, 3, 3, 3, 3, 3, 3, 3, 3, 3, 3, 3, 3, 3, 3, 3, 3, 3, 3, 3, 3, 3, 3, 3, 3, 3, 3, 3, 3, 3, 3, 3, 3, 3, 3, 3, 3, 3, 3, 3, 3, 3, 3, 3, 3]
    int[] faceVertexIndices = [0, 1, 2, 2, 3, 0, 3, 4, 0, 0, 4, 5, 6, 7, 8, 8, 9, 6, 9, 10, 6, 6, 10, 11, 12, 2, 1, 2, 12, 13, 7, 14, 8, 8, 14, 15, 16, 17, 18, 19, 17, 16, 20, 19, 16, 19, 20, 21, 22, 21, 20, 21, 22, 23, 22, 24, 23, 22, 20, 9, 9, 20, 10, 9, 25, 22, 25, 9, 8, 4, 8, 15, 3, 8, 4, 8, 3, 25, 2, 25, 3, 26, 25, 2, 2, 27, 26, 27, 2, 13, 28, 29, 30, 29, 28, 31, 32, 33, 34, 32, 34, 35, 28, 36, 37, 28, 37, 31, 38, 34, 33, 34, 38, 39, 40, 32, 35, 40, 35, 41, 42, 43, 44, 42, 44, 45, 46, 42, 45, 46, 45, 47, 30, 48, 27, 48, 30, 29, 13, 30, 27, 30, 13, 28, 36, 28, 13, 36, 13, 12, 37, 36, 12, 12, 49, 37, 40, 50, 5, 50, 40, 41, 39, 38, 14, 14, 51, 39, 46, 52, 11, 52, 46, 47, 44, 43, 20, 20, 16, 44, 38, 15, 14, 38, 33, 15, 33, 4, 15, 33, 32, 4, 40, 4, 32, 4, 40, 5, 53, 39, 51, 39, 53, 34, 54, 34, 53, 35, 34, 54, 41, 35, 54, 41, 54, 50, 55, 37, 49, 37, 55, 31, 29, 31, 55, 29, 55, 48, 56, 44, 16, 44, 56, 45, 47, 45, 56, 47, 56, 52, 10, 46, 11, 46, 10, 42, 43, 42, 10, 43, 10, 20]
    normal3f[] normals = [(-0.014220527, 0.06977807, 0.9974612), (0.014220527, -0.069778234, -0.99746114), (-0.9998973, 0.0007741497, -0.014309415), (-0.9998973, 0.0007741497, -0.014309415), (-0.9998973, 0.0007741497, -0.014309415), (-0.014220527, 0.06977807, 0.9974612), (-0.9998973, 0.0007741497, -0.014309415), (-0.9998973, 0.0007741497, -0.014309415), (-0.014220527, 0.06977807, 0.9974612), (-0.014220527, 0.06977807, 0.9974612), (-0.9998973, 0.0007741497, -0.014309415), (-0.014220527, 0.06977811, 0.9974612), (-0.014220527, 0.06977807, 0.9974612), (0.014220527, -0.06977807, -0.9974612), (-0.9998973, 0.0007741497, -0.014309415), (-0.9998973, 0.0007741497, -0.014309415), (-0.9998973, 0.0007741497, -0.014309415), (-0.014220527, 0.06977807, 0.9974612), (-0.9998973, 0.0007741497, -0.014309415), (-0.014220527, 0.06977807, 0.9974612), (-0.014220527, 0.06977807, 0.9974612), (-0.014220527, 0.06977807, 0.9974612), (-0.014220527, 0.06977807, 0.9974612), (-0.014220527, 0.06977807, 0.9974612), (0.014220527, -0.06977822, -0.99746114), (-0.9998973, 0.0007741497, -0.014309415), (0.014220527, -0.069778234, -0.99746114), (-0.9998973, 0.0007741497, -0.014309415), (0.014220527, -0.06977822, -0.99746114), (-0.9998973, 0.0007741497, -0.014309415), (0.014220527, -0.06977807, -0.9974612), (0.014220527, -0.06977807, -0.9974612), (-0.9998973, 0.0007741497, -0.014309415), (-0.9998973, 0.0007741497, -0.014309415), (0.014220527, -0.06977807, -0.9974612), (-0.9998973, 0.0007741497, -0.014309415), (-0.9998973, 0.0007741497, -0.014309415), (-0.9998973, 0.0007741497, -0.014309415), (-0.9998973, 0.0007741497, -0.014309415), (-0.9998973, 0.0007741497, -0.014309415), (-0.9998973, 0.0007741497, -0.014309415), (-0.9998973, 0.0007741497, -0.014309415), (-0.9998973, 0.0007741497, -0.014309415), (-0.9998973, 0.0007741497, -0.014309415), (-0.9998973, 0.0007741497, -0.014309415), (-0.9998973, 0.0007741497, -0.014309415), (-0.9998973, 0.0007741497, -0.014309415), (-0.9998973, 0.0007741497, -0.014309415), (-0.9998973, 0.0007741497, -0.014309415), (-0.9998973, 0.0007741497, -0.014309415), (-0.9998973, 0.0007741497, -0.014309415), (-0.9998973, 0.0007741497, -0.014309415), (-0.9998973, 0.0007741497, -0.014309415), (-0.9998973, 0.0007741497, -0.014309415), (-0.9998973, 0.0007741497, -0.014309415), (-0.9998973, 0.0007741497, -0.014309415), (-0.9998973, 0.0007741497, -0.014309415), (-0.9998973, 0.0007741497, -0.014309415), (-0.9998973, 0.0007741497, -0.014309415), (-0.9998973, 0.0007741497, -0.014309415), (-0.9998973, 0.0007741497, -0.014309415), (-0.9998973, 0.0007741497, -0.014309415), (-0.014220527, 0.06977807, 0.9974612), (-0.9998973, 0.0007741497, -0.014309415), (-0.9998973, 0.0007741497, -0.014309415), (-0.9998973, 0.0007741497, -0.014309415), (-0.9998973, 0.0007741497, -0.014309415), (-0.9998973, 0.0007741497, -0.014309415), (-0.9998973, 0.0007741497, -0.014309415), (-0.9998973, 0.0007741497, -0.014309415), (-0.9998973, 0.0007741497, -0.014309415), (-0.9998973, 0.0007741497, -0.014309415), (-0.9998973, 0.0007741497, -0.014309415), (-0.9998973, 0.0007741497, -0.014309415), (-0.9998973, 0.0007741497, -0.014309415), (-0.9998973, 0.0007741497, -0.014309415), (-0.9998973, 0.0007741497, -0.014309415), (-0.9998973, 0.0007741497, -0.014309415), (-0.9998973, 0.0007741497, -0.014309415), (-0.9998973, 0.0007741497, -0.014309415), (-0.9998973, 0.0007741497, -0.014309415), (-0.9998973, 0.0007741497, -0.014309415), (-0.9998973, 0.0007741497, -0.014309415), (-0.9998973, 0.0007741497, -0.014309415), (-0.9998973, 0.0007741497, -0.014309415), (-0.9998973, 0.0007741497, -0.014309415), (-0.9998973, 0.0007741497, -0.014309415), (-0.9998973, 0.0007741497, -0.014309415), (-0.9998973, 0.0007741497, -0.014309415), (-0.9998973, 0.0007741497, -0.014309415), (-0.9998973, 0.0007741497, -0.014309415), (-0.9998973, 0.0007741497, -0.014309415), (-0.9998973, 0.0007741497, -0.014309415), (-0.9998973, 0.0007741497, -0.014309415), (-0.9998973, 0.0007741497, -0.014309415), (-0.9998973, 0.0007741497, -0.014309415), (-0.9998975, 0.0007032748, -0.01430022), (-0.9998976, 0.0006814834, -0.014294457), (-0.9998975, 0.00070327724, -0.014300184), (-0.9998975, 0.0007032748, -0.01430022), (-0.9998975, 0.00070327724, -0.014300184), (0.0017706676, 0.9975622, -0.0697599), (-0.9998973, 0.0007741497, -0.014309415), (0.014220527, -0.06977807, -0.9974612), (0.014220527, -0.06977807, -0.9974612), (-0.9998973, 0.0007741497, -0.014309415), (0.014220527, -0.06977807, -0.9974612), (-0.9998973, 0.0007741497, -0.014309415), (0.014220527, -0.06977807, -0.9974612), (-0.9998975, 0.00070327724, -0.014300184), (-0.9998976, 0.0006814834, -0.014294457), (-0.9998975, 0.00070327724, -0.014300184), (0.014220527, -0.06977807, -0.9974612), (0.014220527, -0.06977807, -0.9974612), (-0.0142205255, 0.069779254, 0.9974611), (-0.9998975, 0.0007032748, -0.01430022), (0.0017706676, 0.9975622, -0.0697599), (-0.0142205255, 0.069779254, 0.9974611), (0.0017706676, 0.9975622, -0.0697599), (-0.0142205255, 0.069779254, 0.9974611), (-0.9998973, 0.0007741497, -0.014309415), (-0.9998973, 0.0007741497, -0.014309415), (-0.9998973, 0.0007741497, -0.014309415), (-0.9998973, 0.0007741497, -0.014309415), (-0.9998973, 0.0007741497, -0.014309415), (-0.014220527, 0.06977807, 0.9974612), (-0.014220527, 0.06977807, 0.9974612), (-0.9998973, 0.0007741497, -0.014309415), (-0.014220527, 0.06977807, 0.9974612), (-0.014220527, 0.06977807, 0.9974612), (-0.014220527, 0.06977807, 0.9974612), (-0.014220527, 0.06977807, 0.9974612), (-0.9998973, 0.0007741497, -0.014309415), (-0.0017706709, -0.9975622, 0.06976012), (-0.9998973, 0.0007741497, -0.014309415), (-0.0017706709, -0.9975622, 0.06976012), (-0.9998973, 0.0007741497, -0.014309415), (-0.9998973, 0.0007741497, -0.014309415), (-0.9998973, 0.0007741497, -0.014309415), (-0.9998973, 0.0007741497, -0.014309415), (-0.9998973, 0.0007741497, -0.014309415), (-0.9998973, 0.0007741497, -0.014309415), (-0.9998973, 0.0007741497, -0.014309415), (-0.9998973, 0.0007741497, -0.014309415), (0.014220527, -0.06977807, -0.9974612), (-0.9998973, 0.0007741497, -0.014309415), (-0.9998973, 0.0007741497, -0.014309415), (0.014220527, -0.06977807, -0.9974612), (-0.9998973, 0.0007741497, -0.014309415), (0.014220527, -0.06977822, -0.99746114), (0.014220527, -0.06977807, -0.9974612), (0.014220527, -0.06977807, -0.9974612), (0.014220527, -0.06977822, -0.99746114), (0.014220527, -0.06977822, -0.99746114), (-0.0017699806, -0.9975622, 0.069759905), (0.014220527, -0.06977807, -0.9974612), (-0.0142205255, 0.069779254, 0.9974611), (-0.0017706676, -0.9975622, 0.0697599), (-0.014220527, 0.06977811, 0.9974612), (-0.0017706676, -0.9975622, 0.0697599), (-0.0142205255, 0.069779254, 0.9974611), (-0.0142205255, 0.069779254, 0.9974611), (0.014220527, -0.06977807, -0.9974612), (0.014220527, -0.06977807, -0.9974612), (0.014220527, -0.06977807, -0.9974612), (0.014220527, -0.06977807, -0.9974612), (-0.0017706676, -0.9975622, 0.0697599), (0.014220527, -0.06977807, -0.9974612), (-0.014220527, 0.06977807, 0.9974612), (-0.0017706676, -0.9975622, 0.0697599), (-0.014220527, 0.06977807, 0.9974612), (-0.0017706676, -0.9975622, 0.0697599), (-0.014220527, 0.06977807, 0.9974612), (-0.014220527, 0.06977807, 0.9974612), (-0.9998973, 0.0007741497, -0.014309415), (-0.9998973, 0.0007741497, -0.014309415), (-0.9998973, 0.0007741497, -0.014309415), (-0.9998973, 0.0007741497, -0.014309415), (-0.9998973, 0.0007741497, -0.014309415), (-0.9998973, 0.0007741497, -0.014309415), (0.014220527, -0.06977807, -0.9974612), (-0.9998973, 0.0007741497, -0.014309415), (0.014220527, -0.06977807, -0.9974612), (0.014220527, -0.06977807, -0.9974612), (-0.9998976, 0.0006814834, -0.014294457), (-0.9998973, 0.0007741497, -0.014309415), (-0.9998976, 0.0006814834, -0.014294457), (-0.9998973, 0.0007741497, -0.014309415), (-0.9998973, 0.0007741497, -0.014309415), (-0.9998976, 0.0006814834, -0.014294457), (-0.9998975, 0.0007032748, -0.01430022), (-0.9998973, 0.0007741497, -0.014309415), (-0.0142205255, 0.069779254, 0.9974611), (-0.9998973, 0.0007741497, -0.014309415), (-0.9998975, 0.0007032748, -0.01430022), (-0.9998973, 0.0007741497, -0.014309415), (-0.0142205255, 0.069779254, 0.9974611), (-0.014220527, 0.06977811, 0.9974612), (-0.0017710733, -0.9975622, 0.06976029), (0.014220527, -0.06977807, -0.9974612), (-0.0017706676, -0.9975622, 0.0697599), (0.014220527, -0.06977807, -0.9974612), (-0.0017710733, -0.9975622, 0.06976029), (-0.9998975, 0.00070327724, -0.014300184), (-0.0017706755, -0.9975622, 0.06976045), (-0.9998975, 0.00070327724, -0.014300184), (-0.0017710733, -0.9975622, 0.06976029), (0.0017706676, 0.9975622, -0.0697599), (-0.9998975, 0.00070327724, -0.014300184), (-0.0017706755, -0.9975622, 0.06976045), (-0.0142205255, 0.069779254, 0.9974611), (0.0017706676, 0.9975622, -0.0697599), (-0.0017706755, -0.9975622, 0.06976045), (-0.0142205255, 0.069779254, 0.9974611), (-0.0017706755, -0.9975622, 0.06976045), (-0.0017706676, -0.9975622, 0.0697599), (-0.0017706698, -0.9975622, 0.06976005), (0.014220527, -0.06977807, -0.9974612), (-0.0017699806, -0.9975622, 0.069759905), (0.014220527, -0.06977807, -0.9974612), (-0.0017706698, -0.9975622, 0.06976005), (-0.9998973, 0.0007741497, -0.014309415), (-0.9998973, 0.0007741497, -0.014309415), (-0.9998973, 0.0007741497, -0.014309415), (-0.0017706698, -0.9975622, 0.06976005), (-0.9998973, 0.0007741497, -0.014309415), (-0.0017706698, -0.9975622, 0.06976005), (-0.0017706709, -0.9975622, 0.06976012), (-0.0017708485, -0.9975623, 0.069759525), (-0.9998973, 0.0007741497, -0.014309415), (-0.9998973, 0.0007741497, -0.014309415), (-0.9998973, 0.0007741497, -0.014309415), (-0.0017708485, -0.9975623, 0.069759525), (-0.014220527, 0.06977807, 0.9974612), (-0.014220527, 0.06977807, 0.9974612), (-0.014220527, 0.06977807, 0.9974612), (-0.0017708485, -0.9975623, 0.069759525), (-0.014220527, 0.06977807, 0.9974612), (-0.0017708485, -0.9975623, 0.069759525), (-0.0017706676, -0.9975622, 0.0697599), (-0.014220527, 0.06977807, 0.9974612), (-0.014220527, 0.06977807, 0.9974612), (-0.014220527, 0.06977807, 0.9974612), (-0.014220527, 0.06977807, 0.9974612), (-0.014220527, 0.06977807, 0.9974612), (-0.9998973, 0.0007741497, -0.014309415), (-0.9998973, 0.0007741497, -0.014309415), (-0.9998973, 0.0007741497, -0.014309415), (-0.014220527, 0.06977807, 0.9974612), (-0.9998973, 0.0007741497, -0.014309415), (-0.014220527, 0.06977807, 0.9974612), (-0.9998973, 0.0007741497, -0.014309415)] (
        interpolation = "faceVarying"
    )
    point3f[] points = [(0.21071881, 1.4115832, 0.42119548), (0.17987448, 1.5629321, 2.5846887), (-0.15893349, 1.5631945, 2.57984), (-0.12808916, 1.4118454, 0.41634682), (-0.133801, -1.8060955, 0.64137876), (0.20500697, -1.8063577, 0.6462274), (0.2487366, 1.2250347, -2.2454627), (0.21789229, 1.3763833, -0.08196899), (-0.12091569, 1.3766457, -0.08681764), (-0.09007136, 1.225297, -2.2503111), (-0.09578308, -1.9925815, -2.0252838), (0.2430249, -1.9928437, -2.020435), (0.17416266, -1.6550092, 2.809721), (-0.16464531, -1.6547468, 2.8048723), (0.21218045, -1.841557, 0.14306277), (-0.12662752, -1.8412946, 0.13821413), (-0.09181405, -2.1126816, -2.3091245), (-0.023583366, -3.8964794, -7.1733766), (-0.0956658, -3.542781, -2.1173458), (-0.021033607, -2.459991, -7.273831), (-0.09163698, -2.0129259, -2.3161006), (-0.020856533, -2.3602352, -7.2808075), (-0.08248865, 1.7458442, -2.752005), (-0.010093, 3.7037382, -7.704864), (-0.07841831, 4.039001, -2.9123664), (-0.1223958, 1.9416635, 0.047175653), (-0.18685932, 2.2579775, 4.5687985), (-0.19355218, -1.5126524, 4.8324814), (-0.17450209, -1.6554369, 2.7947547), (-0.20372856, -1.6125879, 4.8393273), (-0.20355116, -1.5126446, 4.8323383), (-0.17467906, -1.7551302, 2.8017263), (-0.1439471, -1.8053899, 0.6512102), (-0.13649362, -1.8419847, 0.1280963), (-0.13666125, -1.9416788, 0.13506807), (-0.14411913, -1.9050835, 0.65818197), (0.17430486, -1.6557069, 2.7997465), (0.17412789, -1.7554, 2.806718), (0.21232267, -1.8422548, 0.13308817), (0.2121457, -1.9419488, 0.1400598), (0.20486477, -1.80566, 0.656202), (0.20468782, -1.9053535, 0.66317374), (-0.105924256, -1.991876, -2.0154521), (-0.101635955, -2.012918, -2.3162436), (-0.101813026, -2.112674, -2.3092675), (-0.10610133, -2.0916321, -2.0084763), (0.24288268, -1.992146, -2.0104606), (0.24270563, -2.0919023, -2.0034845), (-0.19372958, -1.6125957, 4.8394704), (0.17398569, -1.7547022, 2.816693), (0.20483002, -1.9060514, 0.65319914), (0.2120035, -1.941251, 0.15003441), (0.24284783, -2.0925999, -2.0134592), (-0.12680447, -1.9409888, 0.14518577), (-0.13397795, -1.905789, 0.6483505), (-0.16482228, -1.7544401, 2.8118443), (-0.09596014, -2.0923376, -2.0183077)]
}

