#usda 1.0
(
    defaultPrim = "SM_Lift_Button_9Floor"
    upAxis = "Z"
)

def Mesh "SM_Lift_Button_9Floor"
{
    int[] faceVertexCounts = [3, 3, 3, 3, 3, 3, 3, 3, 3, 3, 3, 3, 3, 3, 3, 3, 3, 3, 3, 3, 3, 3, 3, 3, 3, 3, 3, 3, 3, 3, 3, 3, 3, 3, 3, 3, 3, 3, 3, 3, 3, 3, 3, 3, 3, 3, 3, 3, 3, 3, 3, 3, 3, 3, 3, 3, 3, 3, 3, 3, 3, 3, 3, 3, 3, 3, 3, 3, 3, 3, 3, 3, 3, 3, 3, 3, 3, 3, 3, 3, 3, 3, 3, 3, 3, 3, 3, 3, 3, 3, 3, 3, 3, 3, 3, 3, 3, 3, 3, 3, 3, 3, 3, 3, 3, 3, 3, 3, 3, 3, 3, 3, 3, 3, 3, 3, 3, 3, 3, 3, 3, 3, 3, 3, 3, 3, 3, 3, 3, 3, 3, 3, 3, 3, 3, 3, 3, 3, 3, 3, 3, 3, 3, 3, 3, 3, 3, 3, 3, 3, 3, 3, 3, 3, 3, 3, 3, 3, 3, 3, 3, 3, 3, 3, 3, 3, 3, 3, 3, 3, 3, 3, 3, 3, 3, 3, 3, 3, 3, 3, 3, 3, 3, 3, 3, 3, 3, 3, 3, 3, 3, 3, 3, 3, 3, 3, 3, 3, 3, 3, 3, 3, 3, 3, 3, 3, 3, 3, 3, 3, 3, 3, 3, 3, 3, 3, 3, 3, 3, 3, 3, 3, 3, 3, 3, 3, 3, 3, 3, 3, 3, 3, 3, 3, 3, 3, 3, 3, 3, 3, 3, 3, 3, 3, 3, 3, 3, 3, 3, 3, 3, 3, 3, 3, 3, 3, 3, 3, 3, 3, 3, 3, 3, 3, 3, 3, 3, 3, 3, 3, 3, 3, 3, 3, 3, 3, 3, 3, 3, 3, 3, 3, 3, 3, 3, 3, 3, 3, 3, 3, 3, 3, 3, 3, 3, 3, 3, 3, 3, 3, 3, 3, 3, 3, 3, 3, 3, 3, 3, 3, 3, 3, 3, 3, 3, 3, 3, 3, 3, 3, 3, 3, 3, 3, 3, 3, 3, 3, 3, 3, 3, 3, 3, 3, 3, 3, 3, 3, 3, 3, 3, 3, 3, 3, 3, 3, 3, 3, 3, 3, 3, 3, 3, 3, 3, 3, 3, 3, 3, 3, 3, 3, 3, 3, 3, 3, 3, 3, 3, 3, 3, 3, 3, 3, 3, 3, 3, 3, 3, 3, 3, 3, 3, 3, 3, 3, 3, 3, 3, 3, 3, 3, 3, 3, 3, 3, 3, 3, 3, 3, 3, 3, 3, 3, 3, 3, 3, 3, 3, 3, 3, 3, 3, 3, 3, 3, 3, 3, 3, 3, 3, 3, 3, 3, 3, 3, 3, 3, 3, 3, 3, 3, 3, 3, 3, 3, 3, 3, 3, 3, 3, 3, 3, 3, 3, 3, 3, 3, 3, 3, 3, 3, 3, 3, 3, 3, 3, 3, 3]
    int[] faceVertexIndices = [0, 1, 2, 2, 3, 0, 4, 0, 3, 3, 5, 4, 6, 4, 5, 5, 7, 6, 8, 6, 7, 7, 9, 8, 10, 8, 9, 9, 11, 10, 12, 10, 11, 11, 13, 12, 14, 12, 13, 13, 15, 14, 16, 14, 15, 15, 17, 16, 18, 16, 17, 17, 19, 18, 20, 18, 19, 19, 21, 20, 22, 23, 24, 24, 25, 22, 26, 22, 25, 25, 27, 26, 28, 26, 27, 27, 29, 28, 30, 28, 29, 29, 31, 30, 32, 30, 31, 31, 33, 32, 34, 32, 33, 33, 35, 34, 36, 34, 35, 35, 37, 36, 38, 36, 37, 37, 39, 38, 40, 38, 39, 39, 41, 40, 42, 40, 41, 41, 43, 42, 44, 20, 21, 21, 45, 44, 46, 44, 45, 45, 47, 46, 48, 46, 47, 47, 49, 48, 50, 48, 49, 49, 51, 50, 52, 50, 51, 51, 53, 52, 54, 52, 53, 53, 55, 54, 56, 54, 55, 55, 57, 56, 23, 56, 57, 57, 24, 23, 58, 42, 43, 43, 59, 58, 60, 58, 59, 59, 61, 60, 62, 60, 61, 61, 63, 62, 64, 62, 63, 63, 65, 64, 66, 64, 65, 65, 67, 66, 68, 66, 67, 67, 69, 68, 70, 68, 69, 69, 71, 70, 1, 70, 71, 71, 2, 1, 72, 73, 74, 74, 75, 72, 75, 74, 76, 77, 72, 75, 76, 78, 75, 75, 79, 77, 78, 80, 81, 81, 75, 78, 82, 83, 79, 79, 75, 82, 75, 81, 84, 85, 82, 75, 84, 86, 75, 75, 87, 85, 86, 88, 89, 89, 75, 86, 90, 91, 87, 87, 75, 90, 75, 89, 92, 93, 90, 75, 92, 94, 75, 75, 95, 93, 94, 96, 97, 97, 75, 94, 75, 97, 98, 99, 100, 95, 95, 75, 99, 101, 99, 75, 98, 102, 75, 75, 103, 101, 102, 104, 105, 105, 75, 102, 75, 105, 106, 106, 107, 75, 103, 75, 107, 107, 108, 103, 49, 47, 109, 109, 110, 49, 51, 49, 110, 45, 109, 47, 110, 111, 51, 53, 51, 111, 111, 112, 53, 55, 53, 112, 112, 113, 55, 57, 55, 113, 19, 17, 114, 115, 114, 17, 17, 15, 115, 57, 116, 24, 25, 24, 116, 117, 115, 15, 15, 13, 117, 116, 118, 25, 27, 25, 118, 119, 117, 13, 13, 11, 119, 120, 119, 11, 11, 9, 120, 27, 121, 29, 31, 29, 121, 122, 120, 9, 9, 7, 122, 121, 123, 31, 33, 31, 123, 5, 122, 7, 123, 124, 33, 35, 33, 124, 5, 3, 125, 124, 126, 35, 37, 35, 126, 127, 125, 3, 3, 2, 127, 126, 128, 37, 39, 37, 128, 71, 127, 2, 128, 129, 39, 41, 39, 129, 71, 69, 130, 131, 130, 69, 69, 67, 131, 132, 131, 67, 67, 65, 132, 133, 132, 65, 65, 63, 133, 63, 61, 134, 134, 133, 63, 59, 134, 61, 134, 59, 135, 133, 134, 108, 132, 133, 107, 108, 107, 133, 131, 132, 106, 107, 106, 132, 106, 105, 131, 130, 131, 105, 103, 108, 134, 134, 135, 103, 101, 103, 135, 135, 136, 101, 136, 135, 59, 59, 43, 136, 99, 101, 136, 137, 136, 43, 136, 137, 99, 43, 41, 137, 100, 99, 137, 129, 137, 41, 137, 129, 100, 95, 100, 129, 129, 128, 95, 93, 95, 128, 128, 126, 93, 90, 93, 126, 126, 124, 90, 91, 90, 124, 124, 123, 91, 87, 91, 123, 123, 121, 87, 85, 87, 121, 121, 138, 85, 121, 27, 138, 82, 85, 138, 118, 138, 27, 138, 118, 82, 83, 82, 118, 118, 116, 83, 79, 83, 116, 116, 139, 79, 116, 57, 139, 77, 79, 139, 113, 139, 57, 139, 113, 77, 72, 77, 113, 113, 112, 72, 73, 72, 112, 112, 111, 73, 74, 73, 111, 111, 110, 74, 76, 74, 110, 110, 109, 76, 78, 76, 109, 109, 140, 78, 109, 45, 140, 80, 78, 140, 141, 140, 45, 140, 141, 80, 45, 21, 141, 81, 80, 141, 142, 141, 21, 141, 142, 81, 21, 19, 142, 84, 81, 142, 114, 142, 19, 142, 114, 84, 86, 84, 114, 114, 115, 86, 88, 86, 115, 115, 117, 88, 89, 88, 117, 117, 119, 89, 92, 89, 119, 119, 120, 92, 94, 92, 120, 120, 122, 94, 96, 94, 122, 122, 143, 96, 122, 5, 143, 97, 96, 143, 125, 143, 5, 143, 125, 97, 98, 97, 125, 125, 127, 98, 102, 98, 127, 127, 144, 102, 127, 71, 144, 130, 144, 71, 104, 102, 144, 144, 130, 104, 105, 104, 130, 145, 146, 147, 148, 147, 146, 146, 149, 148, 150, 148, 149, 149, 151, 150, 152, 150, 151, 151, 153, 152, 154, 152, 153, 153, 155, 154, 156, 154, 155, 155, 157, 156, 158, 156, 157, 157, 159, 158, 160, 158, 159, 159, 161, 162, 162, 160, 159, 161, 163, 164, 164, 162, 161, 163, 165, 166, 166, 164, 163, 165, 167, 168, 168, 166, 165, 167, 169, 170, 170, 168, 167, 169, 171, 172, 172, 170, 169, 171, 173, 174, 174, 172, 171, 173, 175, 176, 176, 174, 173, 175, 145, 176, 147, 176, 145, 177, 178, 179, 178, 180, 181, 181, 179, 178, 180, 182, 183, 183, 181, 180, 182, 184, 185, 185, 183, 182, 184, 186, 187, 187, 185, 184, 186, 188, 189, 189, 187, 186, 188, 190, 191, 191, 189, 188, 190, 192, 193, 193, 191, 190, 192, 194, 195, 195, 193, 192, 194, 196, 197, 197, 195, 194, 196, 198, 199, 199, 197, 196, 198, 200, 201, 201, 199, 198, 200, 202, 203, 203, 201, 200, 202, 204, 205, 205, 203, 202, 204, 206, 207, 207, 205, 204, 206, 208, 209, 209, 207, 206, 208, 210, 211, 211, 209, 208, 210, 212, 213, 213, 211, 210, 212, 214, 215, 215, 213, 212, 214, 216, 217, 217, 215, 214, 216, 218, 219, 219, 217, 216, 218, 220, 221, 221, 219, 218, 220, 222, 223, 223, 221, 220, 222, 224, 225, 225, 223, 222, 224, 226, 227, 227, 225, 224, 226, 228, 229, 229, 227, 226, 228, 230, 231, 231, 229, 228, 230, 232, 233, 233, 231, 230, 232, 234, 235, 235, 233, 232, 234, 236, 237, 237, 235, 234, 236, 238, 239, 239, 237, 236, 238, 240, 241, 241, 239, 238, 240, 242, 243, 243, 241, 240, 242, 240, 241, 241, 243, 242, 240, 244, 245, 245, 241, 240, 244, 246, 247, 247, 245, 244, 246, 248, 249, 249, 247, 246, 248, 250, 251, 251, 249, 248, 250, 252, 253, 253, 251, 250, 252, 254, 255, 255, 253, 252, 254, 256, 257, 257, 255, 254, 256, 258, 259, 259, 257, 256, 258, 260, 261, 261, 259, 258, 260, 262, 263, 263, 261, 260, 262, 264, 265, 265, 263, 262, 264, 266, 267, 267, 265, 264, 266, 268, 269, 269, 267, 266, 268, 270, 271, 271, 269, 268, 270, 272, 273, 273, 271, 270, 272, 274, 275, 275, 273, 272, 274, 276, 277, 277, 275, 274, 276, 278, 279, 279, 277, 276, 278, 177, 280, 280, 279, 278, 179, 280, 177, 259, 261, 263, 257, 259, 263, 257, 263, 265, 257, 265, 267, 255, 257, 267, 255, 267, 269, 255, 269, 271, 255, 271, 273, 253, 255, 273, 253, 273, 275, 253, 275, 277, 251, 253, 277, 251, 277, 279, 249, 251, 279, 249, 279, 280, 179, 249, 280, 179, 247, 249, 179, 245, 247, 179, 241, 245, 179, 243, 241, 179, 147, 148, 179, 148, 243, 243, 148, 150, 241, 243, 150, 241, 150, 152, 239, 241, 152, 237, 239, 152, 237, 152, 154, 235, 237, 154, 233, 235, 154, 233, 154, 156, 231, 233, 156, 229, 231, 156, 229, 156, 158, 227, 229, 158, 225, 227, 158, 225, 158, 160, 223, 225, 160, 223, 160, 162, 221, 223, 162, 219, 221, 162, 219, 162, 164, 217, 219, 164, 217, 164, 166, 215, 217, 166, 213, 215, 166, 213, 166, 168, 211, 213, 168, 209, 211, 168, 209, 168, 170, 207, 209, 170, 205, 207, 170, 205, 170, 172, 203, 205, 172, 203, 172, 174, 201, 203, 174, 199, 201, 174, 199, 174, 176, 197, 199, 176, 197, 176, 147, 195, 197, 147, 193, 195, 147, 191, 193, 147, 189, 191, 147, 187, 189, 147, 185, 187, 147, 183, 185, 147, 181, 183, 147, 179, 181, 147]
    normal3f[] normals = [(-0.071722165, 0.76128256, -0.6444415), (-0.08598335, 0.6260539, -0.77502483), (-0.06850008, 0.6736436, -0.735875), (-0.06850008, 0.6736436, -0.735875), (-0.092189334, 0.801558, -0.5907672), (-0.071722165, 0.76128256, -0.6444415), (-0.10886374, 0.86236733, -0.49444056), (-0.071722165, 0.76128256, -0.6444415), (-0.092189334, 0.801558, -0.5907672), (-0.092189334, 0.801558, -0.5907672), (-0.11721254, 0.88664156, -0.44735667), (-0.10886374, 0.86236733, -0.49444056), (-0.109417014, 0.93029606, -0.35011014), (-0.10886374, 0.86236733, -0.49444056), (-0.11721254, 0.88664156, -0.44735667), (-0.11721254, 0.88664156, -0.44735667), (-0.10145903, 0.949857, -0.29576644), (-0.109417014, 0.93029606, -0.35011014), (-0.101515315, 0.97853154, -0.179362), (-0.109417014, 0.93029606, -0.35011014), (-0.10145903, 0.949857, -0.29576644), (-0.10145903, 0.949857, -0.29576644), (-0.101540975, 0.9873738, -0.12158294), (-0.101515315, 0.97853154, -0.179362), (-0.10157569, 0.9948081, -0.006268486), (-0.101515315, 0.97853154, -0.179362), (-0.101540975, 0.9873738, -0.12158294), (-0.101540975, 0.9873738, -0.12158294), (-0.10159784, 0.99350375, 0.051268246), (-0.10157569, 0.9948081, -0.006268486), (-0.10165802, 0.9808486, 0.16613805), (-0.10157569, 0.9948081, -0.006268486), (-0.10159784, 0.99350375, 0.051268246), (-0.10159784, 0.99350375, 0.051268246), (-0.101676434, 0.9693965, 0.22345565), (-0.10165802, 0.9808486, 0.16613805), (-0.101702265, 0.9369424, 0.33435887), (-0.10165802, 0.9808486, 0.16613805), (-0.101676434, 0.9693965, 0.22345565), (-0.101676434, 0.9693965, 0.22345565), (-0.09752739, 0.91732067, 0.38602), (-0.101702265, 0.9369424, 0.33435887), (-0.09342234, 0.86671805, 0.4899714), (-0.101702265, 0.9369424, 0.33435887), (-0.09752739, 0.91732067, 0.38602), (-0.09752739, 0.91732067, 0.38602), (-0.0952802, 0.83463573, 0.54249877), (-0.09342234, 0.86671805, 0.4899714), (-0.10129121, 0.76417136, 0.63701046), (-0.09342234, 0.86671805, 0.4899714), (-0.0952802, 0.83463573, 0.54249877), (-0.0952802, 0.83463573, 0.54249877), (-0.10302446, 0.7275702, 0.6782533), (-0.10129121, 0.76417136, 0.63701046), (-0.09870045, 0.6468096, 0.7562378), (-0.10129121, 0.76417136, 0.63701046), (-0.10302446, 0.7275702, 0.6782533), (-0.10302446, 0.7275702, 0.6782533), (-0.10508789, 0.59539026, 0.79653436), (-0.09870045, 0.6468096, 0.7562378), (-0.072050855, -0.7612999, 0.64438426), (-0.0864552, -0.6260779, 0.7749529), (-0.06892691, -0.67366415, 0.7358164), (-0.06892691, -0.67366415, 0.7358164), (-0.09246973, -0.80157816, 0.5906963), (-0.072050855, -0.7612999, 0.64438426), (-0.109058276, -0.8623907, 0.49435678), (-0.072050855, -0.7612999, 0.64438426), (-0.09246973, -0.80157816, 0.5906963), (-0.09246973, -0.80157816, 0.5906963), (-0.1173692, -0.88666874, 0.44726172), (-0.109058276, -0.8623907, 0.49435678), (-0.109484285, -0.930323, 0.35001785), (-0.109058276, -0.8623907, 0.49435678), (-0.1173692, -0.88666874, 0.44726172), (-0.1173692, -0.88666874, 0.44726172), (-0.10147193, -0.9498824, 0.2956806), (-0.109484285, -0.930323, 0.35001785), (-0.10142143, -0.978557, 0.1792761), (-0.109484285, -0.930323, 0.35001785), (-0.10147193, -0.9498824, 0.2956806), (-0.10147193, -0.9498824, 0.2956806), (-0.10139212, -0.9873993, 0.12150065), (-0.10142143, -0.978557, 0.1792761), (-0.10133083, -0.9948335, 0.0061863777), (-0.10142143, -0.978557, 0.1792761), (-0.10139212, -0.9873993, 0.12150065), (-0.10139212, -0.9873993, 0.12150065), (-0.10130738, -0.993529, -0.051351067), (-0.10133083, -0.9948335, 0.0061863777), (-0.10127879, -0.98087376, -0.16622052), (-0.10133083, -0.9948335, 0.0061863777), (-0.10130738, -0.993529, -0.051351067), (-0.10130738, -0.993529, -0.051351067), (-0.101255015, -0.96942174, -0.22353725), (-0.10127879, -0.98087376, -0.16622052), (-0.10119952, -0.936968, -0.3344392), (-0.10127879, -0.98087376, -0.16622052), (-0.101255015, -0.96942174, -0.22353725), (-0.101255015, -0.96942174, -0.22353725), (-0.09699099, -0.9173442, -0.38609916), (-0.10119952, -0.936968, -0.3344392), (-0.09281797, -0.8667391, -0.49004933), (-0.10119952, -0.936968, -0.3344392), (-0.09699099, -0.9173442, -0.38609916), (-0.09699099, -0.9173442, -0.38609916), (-0.09464239, -0.8346565, -0.54257864), (-0.09281797, -0.8667391, -0.49004933), (-0.10059249, -0.7641941, -0.6370941), (-0.09281797, -0.8667391, -0.49004933), (-0.09464239, -0.8346565, -0.54257864), (-0.09464239, -0.8346565, -0.54257864), (-0.10229803, -0.7275952, -0.6783365), (-0.10059249, -0.7641941, -0.6370941), (-0.09792946, -0.64683634, -0.75631523), (-0.10059249, -0.7641941, -0.6370941), (-0.10229803, -0.7275952, -0.6783365), (-0.10229803, -0.7275952, -0.6783365), (-0.10430057, -0.5954189, -0.7966165), (-0.09792946, -0.64683634, -0.75631523), (-0.11545123, 0.49649328, 0.8603287), (-0.09870045, 0.6468096, 0.7562378), (-0.10508789, 0.59539026, 0.79653436), (-0.10508789, 0.59539026, 0.79653436), (-0.11770195, 0.4506425, 0.88491106), (-0.11545123, 0.49649328, 0.8603287), (-0.10988354, 0.35046864, 0.93010616), (-0.11545123, 0.49649328, 0.8603287), (-0.11770195, 0.4506425, 0.88491106), (-0.11770195, 0.4506425, 0.88491106), (-0.1018968, 0.2952784, 0.94996196), (-0.10988354, 0.35046864, 0.93010616), (-0.101872094, 0.17887062, 0.97858447), (-0.10988354, 0.35046864, 0.93010616), (-0.1018968, 0.2952784, 0.94996196), (-0.1018968, 0.2952784, 0.94996196), (-0.10186856, 0.12197991, 0.9872911), (-0.101872094, 0.17887062, 0.97858447), (-0.101870425, 0.0066598593, 0.9947755), (-0.101872094, 0.17887062, 0.97858447), (-0.10186856, 0.12197991, 0.9872911), (-0.10186856, 0.12197991, 0.9872911), (-0.10186189, -0.051774688, 0.9934504), (-0.101870425, 0.0066598593, 0.9947755), (-0.10183249, -0.16663074, 0.9807468), (-0.101870425, 0.0066598593, 0.9947755), (-0.10186189, -0.051774688, 0.9934504), (-0.10186189, -0.051774688, 0.9934504), (-0.101818174, -0.22306821, 0.9694709), (-0.10183249, -0.16663074, 0.9807468), (-0.10180196, -0.33399203, 0.9370623), (-0.10183249, -0.16663074, 0.9807468), (-0.101818174, -0.22306821, 0.9694709), (-0.101818174, -0.22306821, 0.9694709), (-0.10980688, -0.39231268, 0.9132542), (-0.10180196, -0.33399203, 0.9370623), (-0.11761431, -0.49513474, 0.8608185), (-0.10180196, -0.33399203, 0.9370623), (-0.10980688, -0.39231268, 0.9132542), (-0.10980688, -0.39231268, 0.9132542), (-0.1062621, -0.5349184, 0.838195), (-0.11761431, -0.49513474, 0.8608185), (-0.0864552, -0.6260779, 0.7749529), (-0.11761431, -0.49513474, 0.8608185), (-0.1062621, -0.5349184, 0.838195), (-0.1062621, -0.5349184, 0.838195), (-0.06892691, -0.67366415, 0.7358164), (-0.0864552, -0.6260779, 0.7749529), (-0.114641525, -0.4965215, -0.86042064), (-0.09792946, -0.64683634, -0.75631523), (-0.10430057, -0.5954189, -0.7966165), (-0.10430057, -0.5954189, -0.7966165), (-0.11688293, -0.45066875, -0.88500625), (-0.114641525, -0.4965215, -0.86042064), (-0.10904739, -0.35049254, -0.93019557), (-0.114641525, -0.4965215, -0.86042064), (-0.11688293, -0.45066875, -0.88500625), (-0.11688293, -0.45066875, -0.88500625), (-0.10105158, -0.29530403, -0.9500443), (-0.10904739, -0.35049254, -0.93019557), (-0.101031706, -0.17889638, -0.9786669), (-0.10904739, -0.35049254, -0.93019557), (-0.10105158, -0.29530403, -0.9500443), (-0.10105158, -0.29530403, -0.9500443), (-0.10103553, -0.12200498, -0.98737365), (-0.101031706, -0.17889638, -0.9786669), (-0.10106122, -0.006684538, -0.9948578), (-0.101031706, -0.17889638, -0.9786669), (-0.10103553, -0.12200498, -0.98737365), (-0.10103553, -0.12200498, -0.98737365), (-0.10106793, 0.05174958, -0.99353284), (-0.10106122, -0.006684538, -0.9948578), (-0.10107519, 0.16660509, -0.9808296), (-0.10106122, -0.006684538, -0.9948578), (-0.10106793, 0.05174958, -0.99353284), (-0.10106793, 0.05174958, -0.99353284), (-0.10108431, 0.22304243, -0.96955353), (-0.10107519, 0.16660509, -0.9808296), (-0.10112422, 0.33396628, -0.9371449), (-0.10107519, 0.16660509, -0.9808296), (-0.10108431, 0.22304243, -0.96955353), (-0.10108431, 0.22304243, -0.96955353), (-0.109165385, 0.3922855, -0.9133427), (-0.10112422, 0.33396628, -0.9371449), (-0.1170412, 0.4951052, -0.8609136), (-0.10112422, 0.33396628, -0.9371449), (-0.109165385, 0.3922855, -0.9133427), (-0.109165385, 0.3922855, -0.9133427), (-0.10571622, 0.53489137, -0.8382813), (-0.1170412, 0.4951052, -0.8609136), (-0.08598335, 0.6260539, -0.77502483), (-0.1170412, 0.4951052, -0.8609136), (-0.10571622, 0.53489137, -0.8382813), (-0.10571622, 0.53489137, -0.8382813), (-0.06850008, 0.6736436, -0.735875), (-0.08598335, 0.6260539, -0.77502483), (-0.9997899, 0.0036271291, -0.020176332), (-0.98827386, 0.008007795, -0.15248173), (-0.99978864, -0.0021812622, -0.020447835), (-0.99978864, -0.0021812622, -0.020447835), (-0.9999999, -0.00012442336, -0.00040558), (-0.9997899, 0.0036271291, -0.020176332), (-0.9999999, -0.00012442336, -0.00040558), (-0.99978864, -0.0021812622, -0.020447835), (-0.9996546, -0.007853501, -0.02507933), (-0.999652, 0.01048523, -0.024208724), (-0.9997899, 0.0036271291, -0.020176332), (-0.9999999, -0.00012442336, -0.00040558), (-0.9996546, -0.007853501, -0.02507933), (-0.9997821, -0.010512766, -0.018035738), (-0.9999999, -0.00012442336, -0.00040558), (-0.9999999, -0.00012442336, -0.00040558), (-0.999785, 0.010980827, -0.01759058), (-0.999652, 0.01048523, -0.024208724), (-0.9997821, -0.010512766, -0.018035738), (-0.98214275, -0.112998955, -0.15042248), (-0.9997806, -0.014891668, -0.014727863), (-0.9997806, -0.014891668, -0.014727863), (-0.9999999, -0.00012442336, -0.00040558), (-0.9997821, -0.010512766, -0.018035738), (-0.99979246, 0.015808078, -0.012851607), (-0.9883026, 0.10386049, -0.11167443), (-0.999785, 0.010980827, -0.01759058), (-0.999785, 0.010980827, -0.01759058), (-0.9999999, -0.00012442336, -0.00040558), (-0.99979246, 0.015808078, -0.012851607), (-0.9999999, -0.00012442336, -0.00040558), (-0.9997806, -0.014891668, -0.014727863), (-0.99965173, -0.021723758, -0.014987261), (-0.99964863, 0.023024436, -0.013137847), (-0.99979246, 0.015808078, -0.012851607), (-0.9999999, -0.00012442336, -0.00040558), (-0.99965173, -0.021723758, -0.014987261), (-0.9997922, -0.018943403, -0.0075331577), (-0.9999999, -0.00012442336, -0.00040558), (-0.9999999, -0.00012442336, -0.00040558), (-0.99979717, 0.019256305, -0.0059114294), (-0.99964863, 0.023024436, -0.013137847), (-0.9997922, -0.018943403, -0.0075331577), (-0.98830235, -0.14848058, -0.034816578), (-0.99979395, -0.020219404, -0.0018602053), (-0.99979395, -0.020219404, -0.0018602053), (-0.9999999, -0.00012442336, -0.00040558), (-0.9997922, -0.018943403, -0.0075331577), (-0.9998, 0.01999747, -0.00014410084), (-0.9883462, 0.15105751, -0.018802024), (-0.99979717, 0.019256305, -0.0059114294), (-0.99979717, 0.019256305, -0.0059114294), (-0.9999999, -0.00012442336, -0.00040558), (-0.9998, 0.01999747, -0.00014410084), (-0.9999999, -0.00012442336, -0.00040558), (-0.99979395, -0.020219404, -0.0018602053), (-0.9996638, -0.02576554, 0.002921652), (-0.99967104, 0.02510839, 0.005237909), (-0.9998, 0.01999747, -0.00014410084), (-0.9999999, -0.00012442336, -0.00040558), (-0.9996638, -0.02576554, 0.002921652), (-0.9997978, -0.019122183, 0.0062309634), (-0.9999999, -0.00012442336, -0.00040558), (-0.9999999, -0.00012442336, -0.00040558), (-0.99980253, 0.018261198, 0.0078343265), (-0.99967104, 0.02510839, 0.005237909), (-0.9997978, -0.019122183, 0.0062309634), (-0.98463917, -0.15313396, 0.08388023), (-0.9997971, -0.016807558, 0.011104033), (-0.9997971, -0.016807558, 0.011104033), (-0.9999999, -0.00012442336, -0.00040558), (-0.9997978, -0.019122183, 0.0062309634), (-0.9999999, -0.00012442336, -0.00040558), (-0.9997971, -0.016807558, 0.011104033), (-0.9996711, -0.017628083, 0.018625036), (-0.99979615, 0.015443513, 0.013005147), (-0.9867482, 0.13312116, 0.092772864), (-0.99980253, 0.018261198, 0.0078343265), (-0.99980253, 0.018261198, 0.0078343265), (-0.9999999, -0.00012442336, -0.00040558), (-0.99979615, 0.015443513, 0.013005147), (-0.99965644, 0.016040009, 0.020733519), (-0.99979615, 0.015443513, 0.013005147), (-0.9999999, -0.00012442336, -0.00040558), (-0.9996711, -0.017628083, 0.018625036), (-0.9997965, -0.010198451, 0.01740619), (-0.9999999, -0.00012442336, -0.00040558), (-0.9999999, -0.00012442336, -0.00040558), (-0.99979913, 0.00920572, 0.017804375), (-0.99965644, 0.016040009, 0.020733519), (-0.9997965, -0.010198451, 0.01740619), (-0.98674494, -0.06874272, 0.14699951), (-0.9998043, -0.0050464408, 0.01913167), (-0.9998043, -0.0050464408, 0.01913167), (-0.9999999, -0.00012442336, -0.00040558), (-0.9997965, -0.010198451, 0.01740619), (-0.9999999, -0.00012442336, -0.00040558), (-0.9998043, -0.0050464408, 0.01913167), (-0.9996759, -0.0013004111, 0.02542391), (-0.9996759, -0.0013004111, 0.02542391), (-0.9998058, 0.003112325, 0.019456062), (-0.9999999, -0.00012442336, -0.00040558), (-0.99979913, 0.00920572, 0.017804375), (-0.9999999, -0.00012442336, -0.00040558), (-0.9998058, 0.003112325, 0.019456062), (-0.9998058, 0.003112325, 0.019456062), (-0.98839915, 0.044250943, 0.14528908), (-0.99979913, 0.00920572, 0.017804375), (-0.10186856, 0.12197991, 0.9872911), (-0.1018968, 0.2952784, 0.94996196), (-0.99989265, 0.0007437298, 0.014641885), (-0.99989265, 0.0007437298, 0.014641885), (-0.99990577, -0.0074450504, -0.011534493), (-0.10186856, 0.12197991, 0.9872911), (-0.10186189, -0.051774688, 0.9934504), (-0.10186856, 0.12197991, 0.9872911), (-0.99990577, -0.0074450504, -0.011534493), (-0.11770195, 0.4506425, 0.88491106), (-0.99989265, 0.0007437298, 0.014641885), (-0.1018968, 0.2952784, 0.94996196), (-0.99990577, -0.0074450504, -0.011534493), (-0.9999051, -0.0054869447, -0.012636845), (-0.10186189, -0.051774688, 0.9934504), (-0.101818174, -0.22306821, 0.9694709), (-0.10186189, -0.051774688, 0.9934504), (-0.9999051, -0.0054869447, -0.012636845), (-0.9999051, -0.0054869447, -0.012636845), (-0.9999056, -0.003197419, -0.013367013), (-0.101818174, -0.22306821, 0.9694709), (-0.10980688, -0.39231268, 0.9132542), (-0.101818174, -0.22306821, 0.9694709), (-0.9999056, -0.003197419, -0.013367013), (-0.9999056, -0.003197419, -0.013367013), (-0.99988824, 0.0013429481, -0.014889259), (-0.10980688, -0.39231268, 0.9132542), (-0.1062621, -0.5349184, 0.838195), (-0.10980688, -0.39231268, 0.9132542), (-0.99988824, 0.0013429481, -0.014889259), (-0.10302446, 0.7275702, 0.6782533), (-0.0952802, 0.83463573, 0.54249877), (-0.9999562, -0.009223659, 0.0016649314), (-0.9999167, -0.012899515, 0.0004959833), (-0.9999562, -0.009223659, 0.0016649314), (-0.0952802, 0.83463573, 0.54249877), (-0.0952802, 0.83463573, 0.54249877), (-0.09752739, 0.91732067, 0.38602), (-0.9999167, -0.012899515, 0.0004959833), (-0.1062621, -0.5349184, 0.838195), (-0.99915564, -0.031305566, 0.026610285), (-0.06892691, -0.67366415, 0.7358164), (-0.09246973, -0.80157816, 0.5906963), (-0.06892691, -0.67366415, 0.7358164), (-0.99915564, -0.031305566, 0.026610285), (-0.9999105, -0.013096134, 0.0027527674), (-0.9999167, -0.012899515, 0.0004959833), (-0.09752739, 0.91732067, 0.38602), (-0.09752739, 0.91732067, 0.38602), (-0.101676434, 0.9693965, 0.22345565), (-0.9999105, -0.013096134, 0.0027527674), (-0.99915564, -0.031305566, 0.026610285), (-0.999996, -0.001577093, -0.0023419464), (-0.09246973, -0.80157816, 0.5906963), (-0.1173692, -0.88666874, 0.44726172), (-0.09246973, -0.80157816, 0.5906963), (-0.999996, -0.001577093, -0.0023419464), (-0.9999119, -0.012350111, 0.0048716175), (-0.9999105, -0.013096134, 0.0027527674), (-0.101676434, 0.9693965, 0.22345565), (-0.101676434, 0.9693965, 0.22345565), (-0.10159784, 0.99350375, 0.051268246), (-0.9999119, -0.012350111, 0.0048716175), (-0.99991244, -0.011233788, 0.0069988817), (-0.9999119, -0.012350111, 0.0048716175), (-0.10159784, 0.99350375, 0.051268246), (-0.10159784, 0.99350375, 0.051268246), (-0.101540975, 0.9873738, -0.12158294), (-0.99991244, -0.011233788, 0.0069988817), (-0.1173692, -0.88666874, 0.44726172), (-0.9998849, -0.015165167, 0.0005047986), (-0.10147193, -0.9498824, 0.2956806), (-0.10139212, -0.9873993, 0.12150065), (-0.10147193, -0.9498824, 0.2956806), (-0.9998849, -0.015165167, 0.0005047986), (-0.999888, 0.014916613, -0.0013158636), (-0.99991244, -0.011233788, 0.0069988817), (-0.101540975, 0.9873738, -0.12158294), (-0.101540975, 0.9873738, -0.12158294), (-0.10145903, 0.949857, -0.29576644), (-0.999888, 0.014916613, -0.0013158636), (-0.9998849, -0.015165167, 0.0005047986), (-0.99990916, 0.01098477, -0.0078099566), (-0.10139212, -0.9873993, 0.12150065), (-0.10130738, -0.993529, -0.051351067), (-0.10139212, -0.9873993, 0.12150065), (-0.99990916, 0.01098477, -0.0078099566), (-0.11721254, 0.88664156, -0.44735667), (-0.999888, 0.014916613, -0.0013158636), (-0.10145903, 0.949857, -0.29576644), (-0.99990916, 0.01098477, -0.0078099566), (-0.9999107, 0.012101155, -0.005682764), (-0.10130738, -0.993529, -0.051351067), (-0.101255015, -0.96942174, -0.22353725), (-0.10130738, -0.993529, -0.051351067), (-0.9999107, 0.012101155, -0.005682764), (-0.11721254, 0.88664156, -0.44735667), (-0.092189334, 0.801558, -0.5907672), (-0.999998, 0.0013297837, 0.001529716), (-0.9999107, 0.012101155, -0.005682764), (-0.9999111, 0.012847063, -0.0035638358), (-0.101255015, -0.96942174, -0.22353725), (-0.09699099, -0.9173442, -0.38609916), (-0.101255015, -0.96942174, -0.22353725), (-0.9999111, 0.012847063, -0.0035638358), (-0.9991414, 0.031058542, -0.027423762), (-0.999998, 0.0013297837, 0.001529716), (-0.092189334, 0.801558, -0.5907672), (-0.092189334, 0.801558, -0.5907672), (-0.06850008, 0.6736436, -0.735875), (-0.9991414, 0.031058542, -0.027423762), (-0.9999111, 0.012847063, -0.0035638358), (-0.9999191, 0.012650779, -0.001307173), (-0.09699099, -0.9173442, -0.38609916), (-0.09464239, -0.8346565, -0.54257864), (-0.09699099, -0.9173442, -0.38609916), (-0.9999191, 0.012650779, -0.001307173), (-0.10571622, 0.53489137, -0.8382813), (-0.9991414, 0.031058542, -0.027423762), (-0.06850008, 0.6736436, -0.735875), (-0.9999191, 0.012650779, -0.001307173), (-0.9999567, 0.0089743715, -0.0024768903), (-0.09464239, -0.8346565, -0.54257864), (-0.10229803, -0.7275952, -0.6783365), (-0.09464239, -0.8346565, -0.54257864), (-0.9999567, 0.0089743715, -0.0024768903), (-0.10571622, 0.53489137, -0.8382813), (-0.109165385, 0.3922855, -0.9133427), (-0.9998997, -0.0015900957, 0.014073858), (-0.9999169, 0.0029497955, 0.012550779), (-0.9998997, -0.0015900957, 0.014073858), (-0.109165385, 0.3922855, -0.9133427), (-0.109165385, 0.3922855, -0.9133427), (-0.10108431, 0.22304243, -0.96955353), (-0.9999169, 0.0029497955, 0.012550779), (-0.99991643, 0.0052383086, 0.011820563), (-0.9999169, 0.0029497955, 0.012550779), (-0.10108431, 0.22304243, -0.96955353), (-0.10108431, 0.22304243, -0.96955353), (-0.10106793, 0.05174958, -0.99353284), (-0.99991643, 0.0052383086, 0.011820563), (-0.99991673, 0.007195693, 0.010718314), (-0.99991643, 0.0052383086, 0.011820563), (-0.10106793, 0.05174958, -0.99353284), (-0.10106793, 0.05174958, -0.99353284), (-0.10103553, -0.12200498, -0.98737365), (-0.99991673, 0.007195693, 0.010718314), (-0.10103553, -0.12200498, -0.98737365), (-0.10105158, -0.29530403, -0.9500443), (-0.99988, -0.0009945715, -0.015458493), (-0.99988, -0.0009945715, -0.015458493), (-0.99991673, 0.007195693, 0.010718314), (-0.10103553, -0.12200498, -0.98737365), (-0.11688293, -0.45066875, -0.88500625), (-0.99988, -0.0009945715, -0.015458493), (-0.10105158, -0.29530403, -0.9500443), (-0.99988, -0.0009945715, -0.015458493), (-0.11688293, -0.45066875, -0.88500625), (-0.99812424, 0.03363985, 0.051150728), (-0.99991673, 0.007195693, 0.010718314), (-0.99988, -0.0009945715, -0.015458493), (-0.98839915, 0.044250943, 0.14528908), (-0.99991643, 0.0052383086, 0.011820563), (-0.99991673, 0.007195693, 0.010718314), (-0.9998058, 0.003112325, 0.019456062), (-0.98839915, 0.044250943, 0.14528908), (-0.9998058, 0.003112325, 0.019456062), (-0.99991673, 0.007195693, 0.010718314), (-0.9999169, 0.0029497955, 0.012550779), (-0.99991643, 0.0052383086, 0.011820563), (-0.9996759, -0.0013004111, 0.02542391), (-0.9998058, 0.003112325, 0.019456062), (-0.9996759, -0.0013004111, 0.02542391), (-0.99991643, 0.0052383086, 0.011820563), (-0.9996759, -0.0013004111, 0.02542391), (-0.9998043, -0.0050464408, 0.01913167), (-0.9999169, 0.0029497955, 0.012550779), (-0.9998997, -0.0015900957, 0.014073858), (-0.9999169, 0.0029497955, 0.012550779), (-0.9998043, -0.0050464408, 0.01913167), (-0.99979913, 0.00920572, 0.017804375), (-0.98839915, 0.044250943, 0.14528908), (-0.99988, -0.0009945715, -0.015458493), (-0.99988, -0.0009945715, -0.015458493), (-0.99812424, 0.03363985, 0.051150728), (-0.99979913, 0.00920572, 0.017804375), (-0.99965644, 0.016040009, 0.020733519), (-0.99979913, 0.00920572, 0.017804375), (-0.99812424, 0.03363985, 0.051150728), (-0.99812424, 0.03363985, 0.051150728), (-0.99999446, 0.00024890248, -0.0033236276), (-0.99965644, 0.016040009, 0.020733519), (-0.99999446, 0.00024890248, -0.0033236276), (-0.99812424, 0.03363985, 0.051150728), (-0.11688293, -0.45066875, -0.88500625), (-0.11688293, -0.45066875, -0.88500625), (-0.10430057, -0.5954189, -0.7966165), (-0.99999446, 0.00024890248, -0.0033236276), (-0.99979615, 0.015443513, 0.013005147), (-0.99965644, 0.016040009, 0.020733519), (-0.99999446, 0.00024890248, -0.0033236276), (-0.9999643, 0.0014161153, -0.008340358), (-0.99999446, 0.00024890248, -0.0033236276), (-0.10430057, -0.5954189, -0.7966165), (-0.99999446, 0.00024890248, -0.0033236276), (-0.9999643, 0.0014161153, -0.008340358), (-0.99979615, 0.015443513, 0.013005147), (-0.10430057, -0.5954189, -0.7966165), (-0.10229803, -0.7275952, -0.6783365), (-0.9999643, 0.0014161153, -0.008340358), (-0.9867482, 0.13312116, 0.092772864), (-0.99979615, 0.015443513, 0.013005147), (-0.9999643, 0.0014161153, -0.008340358), (-0.9999567, 0.0089743715, -0.0024768903), (-0.9999643, 0.0014161153, -0.008340358), (-0.10229803, -0.7275952, -0.6783365), (-0.9999643, 0.0014161153, -0.008340358), (-0.9999567, 0.0089743715, -0.0024768903), (-0.9867482, 0.13312116, 0.092772864), (-0.99980253, 0.018261198, 0.0078343265), (-0.9867482, 0.13312116, 0.092772864), (-0.9999567, 0.0089743715, -0.0024768903), (-0.9999567, 0.0089743715, -0.0024768903), (-0.9999191, 0.012650779, -0.001307173), (-0.99980253, 0.018261198, 0.0078343265), (-0.99967104, 0.02510839, 0.005237909), (-0.99980253, 0.018261198, 0.0078343265), (-0.9999191, 0.012650779, -0.001307173), (-0.9999191, 0.012650779, -0.001307173), (-0.9999111, 0.012847063, -0.0035638358), (-0.99967104, 0.02510839, 0.005237909), (-0.9998, 0.01999747, -0.00014410084), (-0.99967104, 0.02510839, 0.005237909), (-0.9999111, 0.012847063, -0.0035638358), (-0.9999111, 0.012847063, -0.0035638358), (-0.9999107, 0.012101155, -0.005682764), (-0.9998, 0.01999747, -0.00014410084), (-0.9883462, 0.15105751, -0.018802024), (-0.9998, 0.01999747, -0.00014410084), (-0.9999107, 0.012101155, -0.005682764), (-0.9999107, 0.012101155, -0.005682764), (-0.99990916, 0.01098477, -0.0078099566), (-0.9883462, 0.15105751, -0.018802024), (-0.99979717, 0.019256305, -0.0059114294), (-0.9883462, 0.15105751, -0.018802024), (-0.99990916, 0.01098477, -0.0078099566), (-0.99990916, 0.01098477, -0.0078099566), (-0.9998849, -0.015165167, 0.0005047986), (-0.99979717, 0.019256305, -0.0059114294), (-0.99964863, 0.023024436, -0.013137847), (-0.99979717, 0.019256305, -0.0059114294), (-0.9998849, -0.015165167, 0.0005047986), (-0.9998849, -0.015165167, 0.0005047986), (-0.9983092, 0.049046278, -0.03120018), (-0.99964863, 0.023024436, -0.013137847), (-0.9998849, -0.015165167, 0.0005047986), (-0.1173692, -0.88666874, 0.44726172), (-0.9983092, 0.049046278, -0.03120018), (-0.99979246, 0.015808078, -0.012851607), (-0.99964863, 0.023024436, -0.013137847), (-0.9983092, 0.049046278, -0.03120018), (-0.999996, -0.001577093, -0.0023419464), (-0.9983092, 0.049046278, -0.03120018), (-0.1173692, -0.88666874, 0.44726172), (-0.9983092, 0.049046278, -0.03120018), (-0.999996, -0.001577093, -0.0023419464), (-0.99979246, 0.015808078, -0.012851607), (-0.9883026, 0.10386049, -0.11167443), (-0.99979246, 0.015808078, -0.012851607), (-0.999996, -0.001577093, -0.0023419464), (-0.999996, -0.001577093, -0.0023419464), (-0.99915564, -0.031305566, 0.026610285), (-0.9883026, 0.10386049, -0.11167443), (-0.999785, 0.010980827, -0.01759058), (-0.9883026, 0.10386049, -0.11167443), (-0.99915564, -0.031305566, 0.026610285), (-0.99915564, -0.031305566, 0.026610285), (-0.9982978, 0.027109921, -0.051640574), (-0.999785, 0.010980827, -0.01759058), (-0.99915564, -0.031305566, 0.026610285), (-0.1062621, -0.5349184, 0.838195), (-0.9982978, 0.027109921, -0.051640574), (-0.999652, 0.01048523, -0.024208724), (-0.999785, 0.010980827, -0.01759058), (-0.9982978, 0.027109921, -0.051640574), (-0.99988824, 0.0013429481, -0.014889259), (-0.9982978, 0.027109921, -0.051640574), (-0.1062621, -0.5349184, 0.838195), (-0.9982978, 0.027109921, -0.051640574), (-0.99988824, 0.0013429481, -0.014889259), (-0.999652, 0.01048523, -0.024208724), (-0.9997899, 0.0036271291, -0.020176332), (-0.999652, 0.01048523, -0.024208724), (-0.99988824, 0.0013429481, -0.014889259), (-0.99988824, 0.0013429481, -0.014889259), (-0.9999056, -0.003197419, -0.013367013), (-0.9997899, 0.0036271291, -0.020176332), (-0.98827386, 0.008007795, -0.15248173), (-0.9997899, 0.0036271291, -0.020176332), (-0.9999056, -0.003197419, -0.013367013), (-0.9999056, -0.003197419, -0.013367013), (-0.9999051, -0.0054869447, -0.012636845), (-0.98827386, 0.008007795, -0.15248173), (-0.99978864, -0.0021812622, -0.020447835), (-0.98827386, 0.008007795, -0.15248173), (-0.9999051, -0.0054869447, -0.012636845), (-0.9999051, -0.0054869447, -0.012636845), (-0.99990577, -0.0074450504, -0.011534493), (-0.99978864, -0.0021812622, -0.020447835), (-0.9996546, -0.007853501, -0.02507933), (-0.99978864, -0.0021812622, -0.020447835), (-0.99990577, -0.0074450504, -0.011534493), (-0.99990577, -0.0074450504, -0.011534493), (-0.99989265, 0.0007437298, 0.014641885), (-0.9996546, -0.007853501, -0.02507933), (-0.9997821, -0.010512766, -0.018035738), (-0.9996546, -0.007853501, -0.02507933), (-0.99989265, 0.0007437298, 0.014641885), (-0.99989265, 0.0007437298, 0.014641885), (-0.9980739, -0.03388923, -0.051962525), (-0.9997821, -0.010512766, -0.018035738), (-0.99989265, 0.0007437298, 0.014641885), (-0.11770195, 0.4506425, 0.88491106), (-0.9980739, -0.03388923, -0.051962525), (-0.98214275, -0.112998955, -0.15042248), (-0.9997821, -0.010512766, -0.018035738), (-0.9980739, -0.03388923, -0.051962525), (-0.9999968, -0.0004993334, 0.002510288), (-0.9980739, -0.03388923, -0.051962525), (-0.11770195, 0.4506425, 0.88491106), (-0.9980739, -0.03388923, -0.051962525), (-0.9999968, -0.0004993334, 0.002510288), (-0.98214275, -0.112998955, -0.15042248), (-0.11770195, 0.4506425, 0.88491106), (-0.10508789, 0.59539026, 0.79653436), (-0.9999968, -0.0004993334, 0.002510288), (-0.9997806, -0.014891668, -0.014727863), (-0.98214275, -0.112998955, -0.15042248), (-0.9999968, -0.0004993334, 0.002510288), (-0.9999703, -0.0016668921, 0.007527454), (-0.9999968, -0.0004993334, 0.002510288), (-0.10508789, 0.59539026, 0.79653436), (-0.9999968, -0.0004993334, 0.002510288), (-0.9999703, -0.0016668921, 0.007527454), (-0.9997806, -0.014891668, -0.014727863), (-0.10508789, 0.59539026, 0.79653436), (-0.10302446, 0.7275702, 0.6782533), (-0.9999703, -0.0016668921, 0.007527454), (-0.99965173, -0.021723758, -0.014987261), (-0.9997806, -0.014891668, -0.014727863), (-0.9999703, -0.0016668921, 0.007527454), (-0.9999562, -0.009223659, 0.0016649314), (-0.9999703, -0.0016668921, 0.007527454), (-0.10302446, 0.7275702, 0.6782533), (-0.9999703, -0.0016668921, 0.007527454), (-0.9999562, -0.009223659, 0.0016649314), (-0.99965173, -0.021723758, -0.014987261), (-0.9997922, -0.018943403, -0.0075331577), (-0.99965173, -0.021723758, -0.014987261), (-0.9999562, -0.009223659, 0.0016649314), (-0.9999562, -0.009223659, 0.0016649314), (-0.9999167, -0.012899515, 0.0004959833), (-0.9997922, -0.018943403, -0.0075331577), (-0.98830235, -0.14848058, -0.034816578), (-0.9997922, -0.018943403, -0.0075331577), (-0.9999167, -0.012899515, 0.0004959833), (-0.9999167, -0.012899515, 0.0004959833), (-0.9999105, -0.013096134, 0.0027527674), (-0.98830235, -0.14848058, -0.034816578), (-0.99979395, -0.020219404, -0.0018602053), (-0.98830235, -0.14848058, -0.034816578), (-0.9999105, -0.013096134, 0.0027527674), (-0.9999105, -0.013096134, 0.0027527674), (-0.9999119, -0.012350111, 0.0048716175), (-0.99979395, -0.020219404, -0.0018602053), (-0.9996638, -0.02576554, 0.002921652), (-0.99979395, -0.020219404, -0.0018602053), (-0.9999119, -0.012350111, 0.0048716175), (-0.9999119, -0.012350111, 0.0048716175), (-0.99991244, -0.011233788, 0.0069988817), (-0.9996638, -0.02576554, 0.002921652), (-0.9997978, -0.019122183, 0.0062309634), (-0.9996638, -0.02576554, 0.002921652), (-0.99991244, -0.011233788, 0.0069988817), (-0.99991244, -0.011233788, 0.0069988817), (-0.999888, 0.014916613, -0.0013158636), (-0.9997978, -0.019122183, 0.0062309634), (-0.98463917, -0.15313396, 0.08388023), (-0.9997978, -0.019122183, 0.0062309634), (-0.999888, 0.014916613, -0.0013158636), (-0.999888, 0.014916613, -0.0013158636), (-0.9983218, -0.049294796, 0.030390495), (-0.98463917, -0.15313396, 0.08388023), (-0.999888, 0.014916613, -0.0013158636), (-0.11721254, 0.88664156, -0.44735667), (-0.9983218, -0.049294796, 0.030390495), (-0.9997971, -0.016807558, 0.011104033), (-0.98463917, -0.15313396, 0.08388023), (-0.9983218, -0.049294796, 0.030390495), (-0.999998, 0.0013297837, 0.001529716), (-0.9983218, -0.049294796, 0.030390495), (-0.11721254, 0.88664156, -0.44735667), (-0.9983218, -0.049294796, 0.030390495), (-0.999998, 0.0013297837, 0.001529716), (-0.9997971, -0.016807558, 0.011104033), (-0.9996711, -0.017628083, 0.018625036), (-0.9997971, -0.016807558, 0.011104033), (-0.999998, 0.0013297837, 0.001529716), (-0.999998, 0.0013297837, 0.001529716), (-0.9991414, 0.031058542, -0.027423762), (-0.9996711, -0.017628083, 0.018625036), (-0.9997965, -0.010198451, 0.01740619), (-0.9996711, -0.017628083, 0.018625036), (-0.9991414, 0.031058542, -0.027423762), (-0.9991414, 0.031058542, -0.027423762), (-0.9983327, -0.02735679, 0.05082912), (-0.9997965, -0.010198451, 0.01740619), (-0.9991414, 0.031058542, -0.027423762), (-0.10571622, 0.53489137, -0.8382813), (-0.9983327, -0.02735679, 0.05082912), (-0.9998997, -0.0015900957, 0.014073858), (-0.9983327, -0.02735679, 0.05082912), (-0.10571622, 0.53489137, -0.8382813), (-0.98674494, -0.06874272, 0.14699951), (-0.9997965, -0.010198451, 0.01740619), (-0.9983327, -0.02735679, 0.05082912), (-0.9983327, -0.02735679, 0.05082912), (-0.9998997, -0.0015900957, 0.014073858), (-0.98674494, -0.06874272, 0.14699951), (-0.9998043, -0.0050464408, 0.01913167), (-0.98674494, -0.06874272, 0.14699951), (-0.9998997, -0.0015900957, 0.014073858), (-0.005153788, 0.9999646, 0.0066520437), (-0.0073946505, 0.9561791, 0.29268914), (-0.9999999, -0.0001243695, -0.00040562078), (-0.9999999, -0.00012434898, -0.0004056332), (-0.9999999, -0.0001243695, -0.00040562078), (-0.0073946505, 0.9561791, 0.29268914), (-0.0073946505, 0.9561791, 0.29268914), (-0.01693073, 0.719859, 0.69391376), (-0.9999999, -0.00012434898, -0.0004056332), (-0.9999999, -0.0001244569, -0.00040557934), (-0.9999999, -0.00012434898, -0.0004056332), (-0.01693073, 0.719859, 0.69391376), (-0.01693073, 0.719859, 0.69391376), (-0.013500812, 0.32519382, 0.9455511), (-0.9999999, -0.0001244569, -0.00040557934), (-0.9999999, -0.00012431345, -0.0004056496), (-0.9999999, -0.0001244569, -0.00040557934), (-0.013500812, 0.32519382, 0.9455511), (-0.013500812, 0.32519382, 0.9455511), (-0.0142632015, -0.17058359, 0.98524004), (-0.9999999, -0.00012431345, -0.0004056496), (-0.9999999, -0.00012432862, -0.00040557646), (-0.9999999, -0.00012431345, -0.0004056496), (-0.0142632015, -0.17058359, 0.98524004), (-0.0142632015, -0.17058359, 0.98524004), (-0.011217481, -0.6169296, 0.7869384), (-0.9999999, -0.00012432862, -0.00040557646), (-0.9999999, -0.00012443913, -0.0004055931), (-0.9999999, -0.00012432862, -0.00040557646), (-0.011217481, -0.6169296, 0.7869384), (-0.011217481, -0.6169296, 0.7869384), (-0.006330707, -0.89846283, 0.43900424), (-0.9999999, -0.00012443913, -0.0004055931), (-0.9999999, -0.00012444892, -0.00040566208), (-0.9999999, -0.00012443913, -0.0004055931), (-0.006330707, -0.89846283, 0.43900424), (-0.006330707, -0.89846283, 0.43900424), (-0.010246102, -0.9952554, 0.09675646), (-0.9999999, -0.00012444892, -0.00040566208), (-0.9999999, -0.00012439062, -0.00040567535), (-0.9999999, -0.00012444892, -0.00040566208), (-0.010246102, -0.9952554, 0.09675646), (-0.010246102, -0.9952554, 0.09675646), (0.00017003287, -0.99344945, -0.11427215), (-0.9999999, -0.00012436087, -0.00040559453), (-0.9999999, -0.00012436087, -0.00040559453), (-0.9999999, -0.00012439062, -0.00040567535), (-0.010246102, -0.9952554, 0.09675646), (0.00017003287, -0.99344945, -0.11427215), (0.00027584872, -0.91705173, -0.3987682), (-0.9999999, -0.00012442422, -0.00040562658), (-0.9999999, -0.00012442422, -0.00040562658), (-0.9999999, -0.00012436087, -0.00040559453), (0.00017003287, -0.99344945, -0.11427215), (0.00027584872, -0.91705173, -0.3987682), (0.00038762187, -0.656856, -0.754016), (-0.9999999, -0.00012439826, -0.0004056298), (-0.9999999, -0.00012439826, -0.0004056298), (-0.9999999, -0.00012442422, -0.00040562658), (0.00027584872, -0.91705173, -0.3987682), (0.00038762187, -0.656856, -0.754016), (0.0004220344, -0.19451247, -0.98090005), (-0.9999999, -0.00012438999, -0.0004056056), (-0.9999999, -0.00012438999, -0.0004056056), (-0.9999999, -0.00012439826, -0.0004056298), (0.00038762187, -0.656856, -0.754016), (0.0004220344, -0.19451247, -0.98090005), (0.00035286648, 0.2866612, -0.95803195), (-0.9999999, -0.0001243794, -0.0004055776), (-0.9999999, -0.0001243794, -0.0004055776), (-0.9999999, -0.00012438999, -0.0004056056), (0.0004220344, -0.19451247, -0.98090005), (0.00035286648, 0.2866612, -0.95803195), (0.00022111415, 0.6629665, -0.748649), (-0.9999999, -0.00012442529, -0.00040557864), (-0.9999999, -0.00012442529, -0.00040557864), (-0.9999999, -0.0001243794, -0.0004055776), (0.00035286648, 0.2866612, -0.95803195), (0.00022111415, 0.6629665, -0.748649), (0.0097386595, 0.8805254, -0.4738989), (-0.9999999, -0.00012442429, -0.0004056233), (-0.9999999, -0.00012442429, -0.0004056233), (-0.9999999, -0.00012442529, -0.00040557864), (0.00022111415, 0.6629665, -0.748649), (0.0097386595, 0.8805254, -0.4738989), (0.0016885771, 0.9774747, -0.21104592), (-0.9999999, -0.00012442455, -0.0004056116), (-0.9999999, -0.00012442455, -0.0004056116), (-0.9999999, -0.00012442429, -0.0004056233), (0.0097386595, 0.8805254, -0.4738989), (0.0016885771, 0.9774747, -0.21104592), (-0.005153788, 0.9999646, 0.0066520437), (-0.9999999, -0.00012442455, -0.0004056116), (-0.9999999, -0.0001243695, -0.00040562078), (-0.9999999, -0.00012442455, -0.0004056116), (-0.005153788, 0.9999646, 0.0066520437), (0.028598914, -0.7552466, -0.6548167), (-0.012593259, -0.88248837, -0.4701658), (-0.9999999, -0.00012439425, -0.0004056083), (-0.012593259, -0.88248837, -0.4701658), (0.00024105076, -0.9534989, -0.30139658), (-0.9999999, -0.0001244245, -0.00040561357), (-0.9999999, -0.0001244245, -0.00040561357), (-0.9999999, -0.00012439425, -0.0004056083), (-0.012593259, -0.88248837, -0.4701658), (0.00024105076, -0.9534989, -0.30139658), (0.00020784557, -0.97730035, -0.21185882), (-0.9999999, -0.0001243509, -0.00040565862), (-0.9999999, -0.0001243509, -0.00040565862), (-0.9999999, -0.0001244245, -0.00040561357), (0.00024105076, -0.9534989, -0.30139658), (0.00020784557, -0.97730035, -0.21185882), (0.0001783724, -0.9908422, -0.13502549), (-0.9999999, -0.00012431477, -0.00040565323), (-0.9999999, -0.00012431477, -0.00040565323), (-0.9999999, -0.0001243509, -0.00040565862), (0.00020784557, -0.97730035, -0.21185882), (0.0001783724, -0.9908422, -0.13502549), (0.00015265898, -0.9975781, -0.06955545), (-0.9999999, -0.00012442529, -0.00040557864), (-0.9999999, -0.00012442529, -0.00040557864), (-0.9999999, -0.00012431477, -0.00040565323), (0.0001783724, -0.9908422, -0.13502549), (0.00015265898, -0.9975781, -0.06955545), (0.00013027298, -0.99990326, -0.01391169), (-0.9999999, -0.00012438763, -0.00040565687), (-0.9999999, -0.00012438763, -0.00040565687), (-0.9999999, -0.00012442529, -0.00040557864), (0.00015265898, -0.9975781, -0.06955545), (0.00013027298, -0.99990326, -0.01391169), (0.00010646865, -0.99903256, 0.04397736), (-0.9999999, -0.00012434588, -0.00040566403), (-0.9999999, -0.00012434588, -0.00040566403), (-0.9999999, -0.00012438763, -0.00040565687), (0.00013027298, -0.99990326, -0.01391169), (0.00010646865, -0.99903256, 0.04397736), (0.00007825814, -0.99369127, 0.11215114), (-0.9999999, -0.00012433973, -0.00040558205), (-0.9999999, -0.00012433973, -0.00040558205), (-0.9999999, -0.00012434588, -0.00040566403), (0.00010646865, -0.99903256, 0.04397736), (0.00007825814, -0.99369127, 0.11215114), (0.000044195058, -0.9812766, 0.19260412), (-0.9999999, -0.00012433207, -0.00040558816), (-0.9999999, -0.00012433207, -0.00040558816), (-0.9999999, -0.00012433973, -0.00040558205), (0.00007825814, -0.99369127, 0.11215114), (0.000044195058, -0.9812766, 0.19260412), (-0.000012570414, -0.9469124, 0.32149196), (-0.9999999, -0.00012434657, -0.00040558993), (-0.9999999, -0.00012434657, -0.00040558993), (-0.9999999, -0.00012433207, -0.00040558816), (0.000044195058, -0.9812766, 0.19260412), (-0.000012570414, -0.9469124, 0.32149196), (-0.00009347261, -0.8678279, 0.49686506), (-0.9999999, -0.00012439668, -0.00040563277), (-0.9999999, -0.00012439668, -0.00040563277), (-0.9999999, -0.00012434657, -0.00040558993), (-0.000012570414, -0.9469124, 0.32149196), (-0.00009347261, -0.8678279, 0.49686506), (-0.00018662418, -0.7292025, 0.684298), (-0.9999999, -0.00012442529, -0.00040557864), (-0.9999999, -0.00012442529, -0.00040557864), (-0.9999999, -0.00012439668, -0.00040563277), (-0.00009347261, -0.8678279, 0.49686506), (-0.00018662418, -0.7292025, 0.684298), (-0.00027978333, -0.5245404, 0.8513855), (-0.9999999, -0.00012442529, -0.00040557864), (-0.9999999, -0.00012442529, -0.00040557864), (-0.9999999, -0.00012442529, -0.00040557864), (-0.00018662418, -0.7292025, 0.684298), (-0.00027978333, -0.5245404, 0.8513855), (-0.00035368712, -0.28172222, 0.95949596), (-0.9999999, -0.00012439274, -0.00040557788), (-0.9999999, -0.00012439274, -0.00040557788), (-0.9999999, -0.00012442529, -0.00040557864), (-0.00027978333, -0.5245404, 0.8513855), (-0.00035368712, -0.28172222, 0.95949596), (-0.0003983641, -0.05335042, 0.9985758), (-0.9999999, -0.00012438568, -0.00040557774), (-0.9999999, -0.00012438568, -0.00040557774), (-0.9999999, -0.00012439274, -0.00040557788), (-0.00035368712, -0.28172222, 0.95949596), (-0.0003983641, -0.05335042, 0.9985758), (-0.000420519, 0.16445747, 0.9863841), (-0.9999999, -0.00012440357, -0.00040557815), (-0.9999999, -0.00012440357, -0.00040557815), (-0.9999999, -0.00012438568, -0.00040557774), (-0.0003983641, -0.05335042, 0.9985758), (-0.000420519, 0.16445747, 0.9863841), (-0.00042186817, 0.39054358, 0.9205843), (-0.9999999, -0.00012439891, -0.00040562855), (-0.9999999, -0.00012439891, -0.00040562855), (-0.9999999, -0.00012440357, -0.00040557815), (-0.000420519, 0.16445747, 0.9863841), (-0.00042186817, 0.39054358, 0.9205843), (-0.00039898092, 0.5993388, 0.8004954), (-0.9999999, -0.00012440702, -0.00040561322), (-0.9999999, -0.00012440702, -0.00040561322), (-0.9999999, -0.00012439891, -0.00040562855), (-0.00042186817, 0.39054358, 0.9205843), (-0.00039898092, 0.5993388, 0.8004954), (-0.00035475654, 0.76930827, 0.6388777), (-0.9999999, -0.00012442424, -0.00040562544), (-0.9999999, -0.00012442424, -0.00040562544), (-0.9999999, -0.00012440702, -0.00040561322), (-0.00039898092, 0.5993388, 0.8004954), (-0.00035475654, 0.76930827, 0.6388777), (-0.0002899536, 0.89847, 0.43903488), (-0.9999999, -0.00012442315, -0.00040567367), (-0.9999999, -0.00012442315, -0.00040567367), (-0.9999999, -0.00012442424, -0.00040562544), (-0.00035475654, 0.76930827, 0.6388777), (-0.0002899536, 0.89847, 0.43903488), (-0.00021305551, 0.973879, 0.22706744), (-0.9999999, -0.0001243958, -0.00040562078), (-0.9999999, -0.0001243958, -0.00040562078), (-0.9999999, -0.00012442315, -0.00040567367), (-0.0002899536, 0.89847, 0.43903488), (-0.00021305551, 0.973879, 0.22706744), (-0.00013994914, 0.999206, 0.039841406), (-0.9999999, -0.00012434748, -0.0004056106), (-0.9999999, -0.00012434748, -0.0004056106), (-0.9999999, -0.0001243958, -0.00040562078), (-0.00021305551, 0.973879, 0.22706744), (-0.00013994914, 0.999206, 0.039841406), (-0.00006343592, 0.9892783, -0.14604333), (-0.9999999, -0.0001243393, -0.00040560868), (-0.9999999, -0.0001243393, -0.00040560868), (-0.9999999, -0.00012434748, -0.0004056106), (-0.00013994914, 0.999206, 0.039841406), (-0.00006343592, 0.9892783, -0.14604333), (0.000027985849, 0.9350176, -0.35460165), (-0.9999999, -0.00012439102, -0.0004056817), (-0.9999999, -0.00012439102, -0.0004056817), (-0.9999999, -0.0001243393, -0.00040560868), (-0.00006343592, 0.9892783, -0.14604333), (0.000027985849, 0.9350176, -0.35460165), (0.00012447512, 0.828256, -0.5603499), (-0.9999999, -0.00012442529, -0.00040557864), (-0.9999999, -0.00012442529, -0.00040557864), (-0.9999999, -0.00012439102, -0.0004056817), (0.000027985849, 0.9350176, -0.35460165), (0.00012447512, 0.828256, -0.5603499), (0.00021042711, 0.6851183, -0.72843176), (-0.9999999, -0.00012445894, -0.00040561383), (-0.9999999, -0.00012445894, -0.00040561383), (-0.9999999, -0.00012442529, -0.00040557864), (0.00012447512, 0.828256, -0.5603499), (0.00021042711, 0.6851183, -0.72843176), (0.00028912965, 0.50024056, -0.8658865), (-0.9999999, -0.00012442529, -0.00040557864), (-0.9999999, -0.00012442529, -0.00040557864), (-0.9999999, -0.00012445894, -0.00040561383), (0.00021042711, 0.6851183, -0.72843176), (0.00028912965, 0.50024056, -0.8658865), (0.000356106, 0.2738599, -0.9617695), (-0.9999999, -0.0001243954, -0.00040557794), (-0.9999999, -0.0001243954, -0.00040557794), (-0.9999999, -0.00012442529, -0.00040557864), (0.00028912965, 0.50024056, -0.8658865), (0.000356106, 0.2738599, -0.9617695), (0.00039982088, 0.04625834, -0.99892944), (-0.9999999, -0.00012438554, -0.00040557774), (-0.9999999, -0.00012438554, -0.00040557774), (-0.9999999, -0.0001243954, -0.00040557794), (0.000356106, 0.2738599, -0.9617695), (0.00039982088, 0.04625834, -0.99892944), (0.00042248442, -0.19359879, -0.9810808), (-0.9999999, -0.00012433005, -0.0004056236), (-0.9999999, -0.00012433005, -0.0004056236), (-0.9999999, -0.00012438554, -0.00040557774), (0.00039982088, 0.04625834, -0.99892944), (0.00042248442, -0.19359879, -0.9810808), (0.00042366245, -0.35121554, -0.9362946), (-0.00040267874, -0.022482514, 0.99974716), (-0.00040267874, -0.022482514, 0.99974716), (-0.9999999, -0.00012433005, -0.0004056236), (0.00042248442, -0.19359879, -0.9810808), (0.00042366245, -0.35121554, -0.9362946), (-0.00040267874, -0.022482514, 0.99974716), (-0.9999999, -0.0001244016, -0.00040563772), (-0.9999999, -0.0001244016, -0.00040563772), (-0.00040267874, -0.022482514, 0.99974716), (0.00042366245, -0.35121554, -0.9362946), (-0.00040267874, -0.022482514, 0.99974716), (-0.000327874, 0.8335232, 0.55248433), (-0.9999999, -0.00012448982, -0.00040556936), (-0.9999999, -0.00012448982, -0.00040556936), (-0.9999999, -0.0001244016, -0.00040563772), (-0.00040267874, -0.022482514, 0.99974716), (-0.000327874, 0.8335232, 0.55248433), (-0.00040267874, -0.022482514, 0.99974716), (-0.9999999, -0.0001244016, -0.00040563772), (-0.9999999, -0.0001244016, -0.00040563772), (-0.9999999, -0.00012448982, -0.00040556936), (-0.000327874, 0.8335232, 0.55248433), (-0.00040267874, -0.022482514, 0.99974716), (-0.0001712233, 0.99303836, 0.11779142), (-0.00040267874, -0.022482514, 0.99974716), (-0.00040267874, -0.022482514, 0.99974716), (-0.9999999, -0.0001244016, -0.00040563772), (-0.00040267874, -0.022482514, 0.99974716), (-0.0001712233, 0.99303836, 0.11779142), (-0.00027033495, 0.92367727, 0.38317132), (-0.9999999, -0.00012442529, -0.00040557864), (-0.9999999, -0.00012442529, -0.00040557864), (-0.00040267874, -0.022482514, 0.99974716), (-0.0001712233, 0.99303836, 0.11779142), (-0.00027033495, 0.92367727, 0.38317132), (-0.00036486107, 0.7400268, 0.6725773), (-0.9999999, -0.00012439954, -0.00040563906), (-0.9999999, -0.00012439954, -0.00040563906), (-0.9999999, -0.00012442529, -0.00040557864), (-0.00027033495, 0.92367727, 0.38317132), (-0.00036486107, 0.7400268, 0.6725773), (-0.00042275924, 0.36604103, 0.9305986), (-0.9999999, -0.000124338, -0.0004056113), (-0.9999999, -0.000124338, -0.0004056113), (-0.9999999, -0.00012439954, -0.00040563906), (-0.00036486107, 0.7400268, 0.6725773), (-0.00042275924, 0.36604103, 0.9305986), (-0.00038959167, -0.107636556, 0.9941903), (-0.9999999, -0.00012440307, -0.00040560475), (-0.9999999, -0.00012440307, -0.00040560475), (-0.9999999, -0.000124338, -0.0004056113), (-0.00042275924, 0.36604103, 0.9305986), (-0.00038959167, -0.107636556, 0.9941903), (-0.00023777233, -0.6280464, 0.7781759), (-0.9999999, -0.00012437646, -0.0004056017), (-0.9999999, -0.00012437646, -0.0004056017), (-0.9999999, -0.00012440307, -0.00040560475), (-0.00038959167, -0.107636556, 0.9941903), (-0.00023777233, -0.6280464, 0.7781759), (-0.00006080057, -0.9040703, 0.4273837), (-0.9999999, -0.00012438047, -0.00040564965), (-0.9999999, -0.00012438047, -0.00040564965), (-0.9999999, -0.00012437646, -0.0004056017), (-0.00023777233, -0.6280464, 0.7781759), (-0.00006080057, -0.9040703, 0.4273837), (-0.00041869216, 0.13795362, 0.9904386), (-0.00040267874, -0.022482514, 0.99974716), (-0.00040267874, -0.022482514, 0.99974716), (-0.9999999, -0.00012438047, -0.00040564965), (-0.00006080057, -0.9040703, 0.4273837), (-0.00041869216, 0.13795362, 0.9904386), (-0.00040267874, -0.022482514, 0.99974716), (-0.00041869262, 0.13795364, 0.9904386), (-0.00041869262, 0.13795364, 0.9904386), (-0.00040267874, -0.022482514, 0.99974716), (-0.00041869216, 0.13795362, 0.9904386), (-0.00040267874, -0.022482514, 0.99974716), (0.000031544143, 0.93160677, -0.3634679), (-0.9999999, -0.00012438705, -0.00040565972), (-0.9999999, -0.00012438705, -0.00040565972), (-0.00041869262, 0.13795364, 0.9904386), (-0.00040267874, -0.022482514, 0.99974716), (0.000031544143, 0.93160677, -0.3634679), (0.00011824046, 0.83664334, -0.54774815), (-0.9999999, -0.00012436864, -0.0004056328), (-0.9999999, -0.00012436864, -0.0004056328), (-0.9999999, -0.00012438705, -0.00040565972), (0.000031544143, 0.93160677, -0.3634679), (0.00011824046, 0.83664334, -0.54774815), (0.00020856768, 0.6883801, -0.72535014), (-0.9999999, -0.00012436614, -0.00040563516), (-0.9999999, -0.00012436614, -0.00040563516), (-0.9999999, -0.00012436864, -0.0004056328), (0.00011824046, 0.83664334, -0.54774815), (0.00020856768, 0.6883801, -0.72535014), (0.00028847516, 0.50169647, -0.8650437), (-0.9999999, -0.00012439326, -0.00040563924), (-0.9999999, -0.00012439326, -0.00040563924), (-0.9999999, -0.00012436614, -0.00040563516), (0.00020856768, 0.6883801, -0.72535014), (0.00028847516, 0.50169647, -0.8650437), (0.00034923476, 0.30218735, -0.9532485), (-0.9999999, -0.00012434872, -0.0004056371), (-0.9999999, -0.00012434872, -0.0004056371), (-0.9999999, -0.00012439326, -0.00040563924), (0.00028847516, 0.50169647, -0.8650437), (0.00034923476, 0.30218735, -0.9532485), (0.0003907587, 0.105963975, -0.99437), (-0.9999999, -0.0001243864, -0.00040557774), (-0.9999999, -0.0001243864, -0.00040557774), (-0.9999999, -0.00012434872, -0.0004056371), (0.00034923476, 0.30218735, -0.9532485), (0.0003907587, 0.105963975, -0.99437), (0.00041594694, -0.09194392, -0.9957642), (-0.9999999, -0.00012438923, -0.0004056245), (-0.9999999, -0.00012438923, -0.0004056245), (-0.9999999, -0.0001243864, -0.00040557774), (0.0003907587, 0.105963975, -0.99437), (0.00041594694, -0.09194392, -0.9957642), (0.00042457067, -0.31441438, -0.94928575), (-0.9999999, -0.00012437745, -0.000405609), (-0.9999999, -0.00012437745, -0.000405609), (-0.9999999, -0.00012438923, -0.0004056245), (0.00041594694, -0.09194392, -0.9957642), (0.00042457067, -0.31441438, -0.94928575), (0.03312204, -0.5596524, -0.82806534), (-0.9999999, -0.00012434043, -0.0004056104), (-0.9999999, -0.00012434043, -0.0004056104), (-0.9999999, -0.00012437745, -0.000405609), (0.00042457067, -0.31441438, -0.94928575), (0.03312204, -0.5596524, -0.82806534), (0.028598914, -0.7552466, -0.6548167), (-0.9999999, -0.0001244243, -0.00040562244), (-0.9999999, -0.0001244243, -0.00040562244), (-0.9999999, -0.00012434043, -0.0004056104), (0.03312204, -0.5596524, -0.82806534), (-0.9999999, -0.00012439425, -0.0004056083), (-0.9999999, -0.0001244243, -0.00040562244), (0.028598914, -0.7552466, -0.6548167), (-0.00040267874, -0.022482514, 0.99974716), (-0.00041869262, 0.13795364, 0.9904386), (-0.9999999, -0.00012438705, -0.00040565972), (-0.9999999, -0.00012438047, -0.00040564965), (-0.00040267874, -0.022482514, 0.99974716), (-0.9999999, -0.00012438705, -0.00040565972), (-0.9999999, -0.00012438047, -0.00040564965), (-0.9999999, -0.00012438705, -0.00040565972), (-0.9999999, -0.00012436864, -0.0004056328), (-0.9999999, -0.00012438047, -0.00040564965), (-0.9999999, -0.00012436864, -0.0004056328), (-0.9999999, -0.00012436614, -0.00040563516), (-0.9999999, -0.00012437646, -0.0004056017), (-0.9999999, -0.00012438047, -0.00040564965), (-0.9999999, -0.00012436614, -0.00040563516), (-0.9999999, -0.00012437646, -0.0004056017), (-0.9999999, -0.00012436614, -0.00040563516), (-0.9999999, -0.00012439326, -0.00040563924), (-0.9999999, -0.00012437646, -0.0004056017), (-0.9999999, -0.00012439326, -0.00040563924), (-0.9999999, -0.00012434872, -0.0004056371), (-0.9999999, -0.00012437646, -0.0004056017), (-0.9999999, -0.00012434872, -0.0004056371), (-0.9999999, -0.0001243864, -0.00040557774), (-0.9999999, -0.00012440307, -0.00040560475), (-0.9999999, -0.00012437646, -0.0004056017), (-0.9999999, -0.0001243864, -0.00040557774), (-0.9999999, -0.00012440307, -0.00040560475), (-0.9999999, -0.0001243864, -0.00040557774), (-0.9999999, -0.00012438923, -0.0004056245), (-0.9999999, -0.00012440307, -0.00040560475), (-0.9999999, -0.00012438923, -0.0004056245), (-0.9999999, -0.00012437745, -0.000405609), (-0.9999999, -0.000124338, -0.0004056113), (-0.9999999, -0.00012440307, -0.00040560475), (-0.9999999, -0.00012437745, -0.000405609), (-0.9999999, -0.000124338, -0.0004056113), (-0.9999999, -0.00012437745, -0.000405609), (-0.9999999, -0.00012434043, -0.0004056104), (-0.9999999, -0.00012439954, -0.00040563906), (-0.9999999, -0.000124338, -0.0004056113), (-0.9999999, -0.00012434043, -0.0004056104), (-0.9999999, -0.00012439954, -0.00040563906), (-0.9999999, -0.00012434043, -0.0004056104), (-0.9999999, -0.0001244243, -0.00040562244), (-0.9999999, -0.00012439425, -0.0004056083), (-0.9999999, -0.00012439954, -0.00040563906), (-0.9999999, -0.0001244243, -0.00040562244), (-0.9999999, -0.00012439425, -0.0004056083), (-0.9999999, -0.00012442529, -0.00040557864), (-0.9999999, -0.00012439954, -0.00040563906), (-0.9999999, -0.00012439425, -0.0004056083), (-0.00040267874, -0.022482514, 0.99974716), (-0.9999999, -0.00012442529, -0.00040557864), (-0.9999999, -0.00012439425, -0.0004056083), (-0.9999999, -0.0001244016, -0.00040563772), (-0.00040267874, -0.022482514, 0.99974716), (-0.9999999, -0.00012439425, -0.0004056083), (-0.9999999, -0.00012448982, -0.00040556936), (-0.9999999, -0.0001244016, -0.00040563772), (-0.9999999, -0.00012439425, -0.0004056083), (-0.9999999, -0.0001243695, -0.00040562078), (-0.9999999, -0.00012434898, -0.0004056332), (-0.9999999, -0.00012439425, -0.0004056083), (-0.9999999, -0.00012434898, -0.0004056332), (-0.9999999, -0.00012448982, -0.00040556936), (-0.9999999, -0.00012448982, -0.00040556936), (-0.9999999, -0.00012434898, -0.0004056332), (-0.9999999, -0.0001244569, -0.00040557934), (-0.9999999, -0.0001244016, -0.00040563772), (-0.9999999, -0.00012448982, -0.00040556936), (-0.9999999, -0.0001244569, -0.00040557934), (-0.9999999, -0.0001244016, -0.00040563772), (-0.9999999, -0.0001244569, -0.00040557934), (-0.9999999, -0.00012431345, -0.0004056496), (-0.00040267874, -0.022482514, 0.99974716), (-0.9999999, -0.0001244016, -0.00040563772), (-0.9999999, -0.00012431345, -0.0004056496), (-0.9999999, -0.00012433005, -0.0004056236), (-0.00040267874, -0.022482514, 0.99974716), (-0.9999999, -0.00012431345, -0.0004056496), (-0.9999999, -0.00012433005, -0.0004056236), (-0.9999999, -0.00012431345, -0.0004056496), (-0.9999999, -0.00012432862, -0.00040557646), (-0.9999999, -0.00012438554, -0.00040557774), (-0.9999999, -0.00012433005, -0.0004056236), (-0.9999999, -0.00012432862, -0.00040557646), (-0.9999999, -0.0001243954, -0.00040557794), (-0.9999999, -0.00012438554, -0.00040557774), (-0.9999999, -0.00012432862, -0.00040557646), (-0.9999999, -0.0001243954, -0.00040557794), (-0.9999999, -0.00012432862, -0.00040557646), (-0.9999999, -0.00012443913, -0.0004055931), (-0.9999999, -0.00012442529, -0.00040557864), (-0.9999999, -0.0001243954, -0.00040557794), (-0.9999999, -0.00012443913, -0.0004055931), (-0.9999999, -0.00012445894, -0.00040561383), (-0.9999999, -0.00012442529, -0.00040557864), (-0.9999999, -0.00012443913, -0.0004055931), (-0.9999999, -0.00012445894, -0.00040561383), (-0.9999999, -0.00012443913, -0.0004055931), (-0.9999999, -0.00012444892, -0.00040566208), (-0.9999999, -0.00012442529, -0.00040557864), (-0.9999999, -0.00012445894, -0.00040561383), (-0.9999999, -0.00012444892, -0.00040566208), (-0.9999999, -0.00012439102, -0.0004056817), (-0.9999999, -0.00012442529, -0.00040557864), (-0.9999999, -0.00012444892, -0.00040566208), (-0.9999999, -0.00012439102, -0.0004056817), (-0.9999999, -0.00012444892, -0.00040566208), (-0.9999999, -0.00012439062, -0.00040567535), (-0.9999999, -0.0001243393, -0.00040560868), (-0.9999999, -0.00012439102, -0.0004056817), (-0.9999999, -0.00012439062, -0.00040567535), (-0.9999999, -0.0001243393, -0.00040560868), (-0.9999999, -0.00012439062, -0.00040567535), (-0.9999999, -0.00012436087, -0.00040559453), (-0.9999999, -0.00012434748, -0.0004056106), (-0.9999999, -0.0001243393, -0.00040560868), (-0.9999999, -0.00012436087, -0.00040559453), (-0.9999999, -0.0001243958, -0.00040562078), (-0.9999999, -0.00012434748, -0.0004056106), (-0.9999999, -0.00012436087, -0.00040559453), (-0.9999999, -0.0001243958, -0.00040562078), (-0.9999999, -0.00012436087, -0.00040559453), (-0.9999999, -0.00012442422, -0.00040562658), (-0.9999999, -0.00012442315, -0.00040567367), (-0.9999999, -0.0001243958, -0.00040562078), (-0.9999999, -0.00012442422, -0.00040562658), (-0.9999999, -0.00012442315, -0.00040567367), (-0.9999999, -0.00012442422, -0.00040562658), (-0.9999999, -0.00012439826, -0.0004056298), (-0.9999999, -0.00012442424, -0.00040562544), (-0.9999999, -0.00012442315, -0.00040567367), (-0.9999999, -0.00012439826, -0.0004056298), (-0.9999999, -0.00012440702, -0.00040561322), (-0.9999999, -0.00012442424, -0.00040562544), (-0.9999999, -0.00012439826, -0.0004056298), (-0.9999999, -0.00012440702, -0.00040561322), (-0.9999999, -0.00012439826, -0.0004056298), (-0.9999999, -0.00012438999, -0.0004056056), (-0.9999999, -0.00012439891, -0.00040562855), (-0.9999999, -0.00012440702, -0.00040561322), (-0.9999999, -0.00012438999, -0.0004056056), (-0.9999999, -0.00012440357, -0.00040557815), (-0.9999999, -0.00012439891, -0.00040562855), (-0.9999999, -0.00012438999, -0.0004056056), (-0.9999999, -0.00012440357, -0.00040557815), (-0.9999999, -0.00012438999, -0.0004056056), (-0.9999999, -0.0001243794, -0.0004055776), (-0.9999999, -0.00012438568, -0.00040557774), (-0.9999999, -0.00012440357, -0.00040557815), (-0.9999999, -0.0001243794, -0.0004055776), (-0.9999999, -0.00012439274, -0.00040557788), (-0.9999999, -0.00012438568, -0.00040557774), (-0.9999999, -0.0001243794, -0.0004055776), (-0.9999999, -0.00012439274, -0.00040557788), (-0.9999999, -0.0001243794, -0.0004055776), (-0.9999999, -0.00012442529, -0.00040557864), (-0.9999999, -0.00012442529, -0.00040557864), (-0.9999999, -0.00012439274, -0.00040557788), (-0.9999999, -0.00012442529, -0.00040557864), (-0.9999999, -0.00012442529, -0.00040557864), (-0.9999999, -0.00012442529, -0.00040557864), (-0.9999999, -0.00012442429, -0.0004056233), (-0.9999999, -0.00012442529, -0.00040557864), (-0.9999999, -0.00012442529, -0.00040557864), (-0.9999999, -0.00012442429, -0.0004056233), (-0.9999999, -0.00012439668, -0.00040563277), (-0.9999999, -0.00012442529, -0.00040557864), (-0.9999999, -0.00012442429, -0.0004056233), (-0.9999999, -0.00012439668, -0.00040563277), (-0.9999999, -0.00012442429, -0.0004056233), (-0.9999999, -0.00012442455, -0.0004056116), (-0.9999999, -0.00012434657, -0.00040558993), (-0.9999999, -0.00012439668, -0.00040563277), (-0.9999999, -0.00012442455, -0.0004056116), (-0.9999999, -0.00012434657, -0.00040558993), (-0.9999999, -0.00012442455, -0.0004056116), (-0.9999999, -0.0001243695, -0.00040562078), (-0.9999999, -0.00012433207, -0.00040558816), (-0.9999999, -0.00012434657, -0.00040558993), (-0.9999999, -0.0001243695, -0.00040562078), (-0.9999999, -0.00012433973, -0.00040558205), (-0.9999999, -0.00012433207, -0.00040558816), (-0.9999999, -0.0001243695, -0.00040562078), (-0.9999999, -0.00012434588, -0.00040566403), (-0.9999999, -0.00012433973, -0.00040558205), (-0.9999999, -0.0001243695, -0.00040562078), (-0.9999999, -0.00012438763, -0.00040565687), (-0.9999999, -0.00012434588, -0.00040566403), (-0.9999999, -0.0001243695, -0.00040562078), (-0.9999999, -0.00012442529, -0.00040557864), (-0.9999999, -0.00012438763, -0.00040565687), (-0.9999999, -0.0001243695, -0.00040562078), (-0.9999999, -0.00012431477, -0.00040565323), (-0.9999999, -0.00012442529, -0.00040557864), (-0.9999999, -0.0001243695, -0.00040562078), (-0.9999999, -0.0001243509, -0.00040565862), (-0.9999999, -0.00012431477, -0.00040565323), (-0.9999999, -0.0001243695, -0.00040562078), (-0.9999999, -0.0001244245, -0.00040561357), (-0.9999999, -0.0001243509, -0.00040565862), (-0.9999999, -0.0001243695, -0.00040562078), (-0.9999999, -0.00012439425, -0.0004056083), (-0.9999999, -0.0001244245, -0.00040561357), (-0.9999999, -0.0001243695, -0.00040562078)] (
        interpolation = "faceVarying"
    )
    point3f[] points = [(0.0013976173, 0.016672188, -0.013196323), (0.0013990274, 0.01410474, -0.015885493), (-0.0005237795, 0.01402128, -0.015791511), (-0.0005577736, 0.016557032, -0.013105011), (0.0013961064, 0.018737797, -0.010104897), (-0.0006328086, 0.018512946, -0.009982696), (0.0013945397, 0.020230642, -0.0066997698), (-0.0006130361, 0.02003642, -0.006634878), (0.001392965, 0.021114407, -0.0030883278), (-0.00061459566, 0.020911664, -0.0030581153), (0.0013914305, 0.02135259, 0.00062203547), (-0.0006161154, 0.02114758, 0.0006166166), (0.001389982, 0.020947853, 0.0043179407), (-0.0006175501, 0.02074671, 0.0042770277), (0.0013886648, 0.019902634, 0.007886004), (-0.00061885454, 0.019711562, 0.00781083), (0.001387517, 0.018258225, 0.01122058), (-0.0006166776, 0.018105002, 0.011126802), (0.0013865762, 0.016055733, 0.014216024), (-0.00059332716, 0.015895283, 0.01407453), (0.0013858676, 0.013369993, 0.01678706), (-0.0005601717, 0.013254956, 0.01664305), (0.001390939, -0.016613008, 0.013481327), (0.0013895289, -0.014045559, 0.016170535), (-0.00053322833, -0.013962592, 0.016074982), (-0.0005644135, -0.01649834, 0.013388445), (0.0013924497, -0.018678656, 0.010389938), (-0.00063642144, -0.018454276, 0.010266093), (0.0013940166, -0.020171499, 0.0069848103), (-0.00061355415, -0.019977747, 0.006918291), (0.0013955913, -0.021055227, 0.0033733693), (-0.0006119946, -0.020852989, 0.0033415214), (0.0013971258, -0.021293411, -0.00033699404), (-0.00061047485, -0.021088907, -0.00033320373), (0.0013985743, -0.020888675, -0.004032899), (-0.00060904014, -0.020688027, -0.003993615), (0.0013998915, -0.019843454, -0.007601), (-0.0006077357, -0.019652883, -0.007527442), (0.0014010393, -0.018199045, -0.010935577), (-0.00060326874, -0.01804631, -0.010843395), (0.0014019801, -0.015996555, -0.013930982), (-0.0005780703, -0.015836585, -0.013791093), (0.0014026887, -0.013310812, -0.016502017), (-0.00054348947, -0.013196251, -0.016359588), (0.0013854165, 0.010275836, 0.018848525), (-0.00064337876, 0.010152556, 0.018623123), (0.0013852326, 0.006872704, 0.020345954), (-0.00062226655, 0.006806724, 0.020151129), (0.0013853257, 0.0032600362, 0.021224847), (-0.0006221744, 0.0032287836, 0.021021577), (0.0013856887, -0.00044998227, 0.021468036), (-0.00062181486, -0.00044562656, 0.021262426), (0.0013863146, -0.004145356, 0.021058314), (-0.00062119495, -0.004105508, 0.020856643), (0.0013871806, -0.0077148243, 0.020017909), (-0.00062033714, -0.0076407017, 0.019826233), (0.0013882641, -0.011047202, 0.01836901), (-0.00064056535, -0.010914466, 0.018149361), (0.0014031398, -0.010216656, -0.018563522), (-0.0006258598, -0.010093877, -0.01833973), (0.0014033237, -0.006813524, -0.020060912), (-0.00060433644, -0.0067480435, -0.019867718), (0.0014032306, -0.0032008558, -0.020939805), (-0.0006044286, -0.0031701026, -0.020738171), (0.0014028676, 0.00050916267, -0.021182995), (-0.00060478813, 0.0005043074, -0.020979011), (0.0014022416, 0.004204498, -0.020773273), (-0.00060540804, 0.004164176, -0.020573236), (0.0014013755, 0.0077740047, -0.019732866), (-0.00060626585, 0.0076993695, -0.019542823), (0.0014002922, 0.011106382, -0.018083967), (-0.0006286732, 0.01097313, -0.017865969), (-0.00058014516, -0.0036169568, 0.018409181), (-0.00058069185, -0.00038950366, 0.018767005), (-0.00058100885, 0.002850772, 0.01855463), (-0.00043441122, 0.00002936267, 0.00014177906), (-0.00058109016, 0.0060059875, 0.017787017), (-0.0005793887, -0.0067344937, 0.017500509), (-0.00058092945, 0.008978208, 0.016479189), (-0.0005784425, -0.009644899, 0.01606039), (-0.0005805355, 0.011680579, 0.014678747), (-0.00057991664, 0.014026272, 0.012433249), (-0.0005761063, -0.014505981, 0.011791611), (-0.0005773379, -0.01226364, 0.0141402865), (-0.0005790949, 0.015949894, 0.0098170955), (-0.0005747868, -0.016310053, 0.009091629), (-0.0005780924, 0.017386096, 0.0069047515), (-0.0005734184, -0.017613882, 0.006117638), (-0.0005769421, 0.018298933, 0.003788453), (-0.0005756769, 0.018652441, 0.00056052173), (-0.0005707029, -0.018593753, -0.00027707618), (-0.00057204306, -0.018385708, 0.0029634738), (-0.00057433674, 0.018444397, -0.002680038), (-0.0005694377, -0.018240243, -0.0035050076), (-0.0005729614, 0.017672572, -0.005834222), (-0.0005682874, -0.017327407, -0.0066213063), (-0.000571593, 0.016368743, -0.008808183), (-0.0005702735, 0.014564671, -0.011508164), (-0.00056904193, 0.012322293, -0.01385684), (-0.00056646316, -0.013967582, -0.012149802), (-0.0005672849, -0.015891204, -0.009533649), (-0.0005658443, -0.011621888, -0.0143953), (-0.0005679373, 0.009703591, -0.01577697), (-0.00056545035, -0.008919516, -0.016195768), (-0.0005669911, 0.0067931656, -0.017217062), (-0.0005662347, 0.0036756475, -0.018125735), (-0.00056568795, 0.00044819442, -0.018483557), (-0.00056537095, -0.0027920718, -0.018271182), (-0.00056528975, -0.005947296, -0.01750357), (-0.0008434969, 0.006491788, 0.019221306), (-0.00084340904, 0.003080084, 0.0200513), (-0.0008430662, -0.00042358445, 0.020280946), (-0.00084247504, -0.003913387, 0.01989403), (-0.00084165717, -0.00728435, 0.018911507), (-0.0008413395, 0.017244058, 0.010603502), (-0.0008402556, 0.018796992, 0.007454389), (-0.0008394396, -0.013262961, 0.015278117), (-0.00083901174, 0.019784044, 0.0040847873), (-0.00083810795, -0.015687594, 0.012738508), (-0.0008376437, 0.020166298, 0.0005944601), (-0.00083619455, 0.019941334, -0.0029095223), (-0.00083520147, -0.01904813, 0.0066033225), (-0.00083470746, 0.019106755, -0.0063201077), (-0.0008337144, -0.019882709, 0.0031927554), (-0.00083226524, -0.020107675, -0.00031122693), (-0.00083180104, 0.015746221, -0.012455274), (-0.00083089725, -0.01972542, -0.0038015542), (-0.0008304693, 0.013321588, -0.014994902), (-0.0008296534, -0.018738367, -0.0071711745), (-0.0008285694, -0.017185433, -0.010320269), (-0.0008282518, 0.007342957, -0.018628275), (-0.0008274339, 0.003972013, -0.019610796), (-0.00082684273, 0.00048221057, -0.019997733), (-0.00082649995, -0.003021458, -0.019768067), (-0.00082641206, -0.006433143, -0.018938074), (-0.0008299204, -0.009496283, -0.017248835), (-0.00083033973, -0.012372892, -0.015332356), (-0.0008309985, -0.014869736, -0.012942095), (-0.0008398586, -0.017363189, 0.009668348), (-0.0008437499, -0.010268456, 0.017086277), (-0.00084639725, 0.009554947, 0.017532067), (-0.00084597786, 0.012431516, 0.015615589), (-0.0008453191, 0.0149283605, 0.013225326), (-0.00083645905, 0.017421812, -0.009385117), (-0.00083256775, 0.010327081, -0.016803045), (0.000533583, -0.0026949572, 0.0019860603), (0.0005342194, -0.002436773, 0.0003380066), (-0.000898262, -0.0026713405, 0.0015354822), (-0.0008976917, -0.002292809, 0.000013394832), (0.00053453684, -0.001804146, -0.0006385979), (-0.0008974333, -0.0015749019, -0.0008438905), (0.0005346585, -0.0008011669, -0.0012462016), (-0.0008973757, -0.0005171253, -0.0013104393), (0.00053452817, 0.0003807804, -0.0012872781), (-0.0008975644, 0.00067041186, -0.0012085603), (0.0005341797, 0.0014430285, -0.0007539232), (-0.0008979633, 0.0016660759, -0.0005305247), (0.0005337132, 0.0021290493, 0.00018580683), (-0.0008984739, 0.002258855, 0.00054619164), (0.0005331878, 0.0024241894, 0.0013905521), (-0.0008989328, 0.002452134, 0.0016178392), (0.00053258066, 0.0024387178, 0.002882968), (-0.000899444, 0.0024385394, 0.002882387), (0.00053209084, 0.0021982354, 0.00416429), (-0.00089993374, 0.0021980575, 0.004163709), (0.0005317616, 0.0016082904, 0.0051568523), (-0.000900263, 0.0016081119, 0.005156271), (0.0005316418, 0.0006612357, 0.0057425546), (-0.0009003827, 0.0006610575, 0.005741974), (0.00053177297, -0.0004862235, 0.0057711448), (-0.0009002517, -0.0004864017, 0.005770564), (0.00053208723, -0.0014578961, 0.005294436), (-0.0008999374, -0.0014580744, 0.0052938554), (0.00053250237, -0.0021554446, 0.004484844), (-0.0008995223, -0.0021556227, 0.0044842632), (0.00053291954, -0.0025489624, 0.0035769197), (-0.00089901267, -0.002592859, 0.0033621525), (0.0005382344, -0.004711066, -0.008863114), (0.0005377319, -0.0057497323, -0.0073058777), (-0.00089402235, -0.005254262, -0.008124582), (0.00053738104, -0.006140014, -0.006321056), (-0.0008946435, -0.006140192, -0.0063216374), (0.0005369696, -0.006451338, -0.005211213), (-0.0008950549, -0.0064515164, -0.005211794), (0.00053649757, -0.0066836653, -0.003976348), (-0.0008955271, -0.006683844, -0.0039769285), (0.0005359651, -0.006836958, -0.002616459), (-0.0008960595, -0.006837137, -0.00261704), (0.000535372, -0.006911256, -0.0011315389), (-0.0008966525, -0.0069114342, -0.0011321197), (0.0005347789, -0.0069047525, 0.0003286321), (-0.0008972458, -0.006904931, 0.0003280513), (0.0005342246, -0.0068168975, 0.0016682165), (-0.0008978, -0.006817076, 0.0016676357), (0.0005337091, -0.006647651, 0.0028872057), (-0.00089831545, -0.0066478294, 0.002886625), (0.0005332324, -0.0063970517, 0.0039855987), (-0.0008987921, -0.00639723, 0.003985018), (0.0005325949, -0.0058583906, 0.005392012), (-0.00089942955, -0.0058585685, 0.0053914315), (0.0005318727, -0.004877793, 0.0068719373), (-0.0009001518, -0.0048779715, 0.006871357), (0.00053128786, -0.0036685814, 0.00794301), (-0.00090073666, -0.0036687597, 0.007942429), (0.00053083233, -0.0022748723, 0.008638639), (-0.0009011922, -0.0022750504, 0.00863806), (0.0005305062, -0.00069664605, 0.008958822), (-0.00090151833, -0.0006968243, 0.008958242), (0.00053032715, 0.0008565418, 0.008923871), (-0.00090169744, 0.0008563636, 0.008923291), (0.00053029385, 0.0022434315, 0.008580634), (-0.0009017308, 0.0022432534, 0.008580054), (0.00053040247, 0.0034777352, 0.007934435), (-0.0009016221, 0.003477557, 0.007933855), (0.00053065125, 0.004550965, 0.0069919294), (-0.0009013734, 0.0045507867, 0.0069913487), (0.00053102366, 0.0053791096, 0.0058198), (-0.000901001, 0.0053789313, 0.0058192187), (0.0005315115, 0.005920094, 0.0044513736), (-0.00090051314, 0.005919916, 0.0044507924), (0.0005321146, 0.006173957, 0.0028866564), (-0.00089991, 0.0061737797, 0.0028860753), (0.0005327654, 0.006141804, 0.001292017), (-0.00089925923, 0.0061416267, 0.0012914363), (0.0005333842, 0.0058290814, -0.00013790432), (-0.00089864025, 0.0058289045, -0.0001384851), (0.00053396885, 0.0052366173, -0.001397456), (-0.00089805573, 0.0052364394, -0.0013980368), (0.0005345148, 0.0043749837, -0.0024791271), (-0.0008975098, 0.0043748063, -0.002479708), (0.00053497846, 0.0033496555, -0.0033078522), (-0.0008970461, 0.0033494774, -0.0033084333), (0.00053533807, 0.0022133982, -0.0038461054), (-0.0008966864, 0.00221322, -0.0038466863), (0.0005355938, 0.00096621225, -0.0040938817), (-0.00089643087, 0.0009660341, -0.004094463), (0.0005357282, -0.00024205592, -0.004054823), (-0.00089629635, -0.00024223408, -0.0040554046), (0.00053573586, -0.0013268644, -0.00374107), (-0.00089628866, -0.0013270427, -0.003741651), (0.0005356847, -0.0024892525, -0.0032584579), (-0.00089634, -0.0024894306, -0.0032590393), (0.00053545367, -0.002963067, -0.0025436229), (-0.00089657085, -0.0029632451, -0.0025442035), (0.00053627667, -0.0026746062, -0.004661019), (-0.00089574786, -0.0026747843, -0.0046616), (0.00053675316, -0.0023475115, -0.0059359926), (-0.0008952714, -0.0023476896, -0.0059365733), (0.00053711113, -0.0018123806, -0.006982747), (-0.00089491345, -0.0018125589, -0.006983328), (0.0005373156, -0.00088850455, -0.007770295), (-0.0008947088, -0.0008886828, -0.0077708755), (0.0005372712, 0.00029330043, -0.008023069), (-0.0008947533, 0.00029312223, -0.008023649), (0.00053702464, 0.0012998121, -0.0077237366), (-0.00089499995, 0.001299634, -0.0077243187), (0.0005365897, 0.0020321852, -0.006876159), (-0.0008954348, 0.002032007, -0.006876739), (0.0005361857, 0.0022985619, -0.0059618494), (-0.0008958389, 0.0022983837, -0.0059624296), (0.00053593895, 0.0059337015, -0.0064681713), (-0.00089608564, 0.005933523, -0.006468752), (0.00053649175, 0.005606263, -0.0077306577), (-0.0008955327, 0.005606084, -0.0077312393), (0.00053698645, 0.005107506, -0.00879741), (-0.000895038, 0.0051073283, -0.008797991), (0.0005374231, 0.004437432, -0.009668427), (-0.0008946014, 0.0044372543, -0.009669008), (0.0005378005, 0.0036029085, -0.010342868), (-0.00089422404, 0.0036027306, -0.010343448), (0.0005381162, 0.0026176719, -0.01081905), (-0.0008939083, 0.0026174937, -0.010819631), (0.00053837, 0.0014830732, -0.011096799), (-0.0008936546, 0.0014828951, -0.011097381), (0.0005385714, 0.000091508366, -0.0111666685), (-0.00089345314, 0.00009133019, -0.01116725), (0.0005386785, -0.0016032056, -0.0109110065), (-0.00089334603, -0.0016033838, -0.010911589), (0.0005386015, -0.0031091722, -0.01025939), (-0.0008934231, -0.0031093506, -0.010259971), (-0.0008935958, -0.0041208593, -0.009523791)]
}

