#usda 1.0
(
    defaultPrim = "SM_Living_Exterior_Lawn"
    upAxis = "Z"
)

def Mesh "SM_Living_Exterior_Lawn"
{
    int[] faceVertexCounts = [3, 3, 3, 3, 3, 3, 3, 3, 3, 3, 3, 3, 3, 3, 3, 3, 3, 3, 3, 3, 3, 3, 3, 3, 3, 3, 3, 3, 3, 3, 3, 3, 3, 3, 3, 3, 3, 3, 3, 3, 3, 3, 3, 3, 3]
    int[] faceVertexIndices = [0, 1, 2, 1, 0, 3, 4, 5, 6, 5, 4, 7, 8, 9, 10, 10, 9, 11, 12, 13, 14, 13, 12, 15, 16, 17, 18, 18, 17, 19, 19, 20, 18, 20, 19, 21, 22, 21, 19, 21, 22, 23, 24, 25, 26, 25, 27, 26, 25, 28, 27, 29, 27, 28, 28, 30, 29, 28, 31, 30, 32, 33, 34, 35, 33, 32, 35, 36, 33, 37, 35, 32, 35, 38, 36, 39, 37, 40, 41, 38, 35, 41, 35, 37, 37, 39, 41, 42, 38, 41, 41, 39, 43, 43, 42, 41, 44, 45, 46, 44, 46, 47, 47, 46, 48, 47, 49, 44, 50, 47, 48, 47, 50, 51, 49, 47, 51, 52, 51, 50, 53, 49, 51, 51, 52, 53, 49, 53, 54, 55, 53, 52, 53, 55, 56]
    normal3f[] normals = [(0.9960828, 0.06080843, 0.06419892), (0.9966583, 0.062650174, 0.052412227), (0.9967635, 0.06304899, 0.04987274), (0.9966583, 0.062650174, 0.052412227), (0.9960828, 0.06080843, 0.06419892), (0.9959284, 0.06046138, 0.06686644), (0.23117657, -0.90087795, -0.3673912), (0.22883448, -0.90199995, -0.36610234), (0.22500753, -0.9038105, -0.36400306), (0.22883448, -0.90199995, -0.36610234), (0.23117657, -0.90087795, -0.3673912), (0.23520161, -0.8989502, -0.36955217), (0.98395085, -0.16225393, -0.07425925), (0.98317176, -0.16130717, -0.08575051), (0.98353183, -0.16179284, -0.08055015), (0.98353183, -0.16179284, -0.08055015), (0.98317176, -0.16130717, -0.08575051), (0.98294014, -0.16102746, -0.08887586), (0.9969322, 0.078072585, 0.005561834), (0.9967861, 0.080010004, 0.0039772512), (0.9970858, 0.07592959, 0.0073845447), (0.9967861, 0.080010004, 0.0039772512), (0.9969322, 0.078072585, 0.005561834), (0.9965631, 0.08282292, 0.0015632248), (0.99698263, 0.07432409, 0.02239482), (0.99698263, 0.07432409, 0.02239482), (0.99698263, 0.07432409, 0.02239482), (0.99698263, 0.07432409, 0.02239482), (0.99698263, 0.07432409, 0.02239482), (0.99698263, 0.07432409, 0.02239482), (0.99698263, 0.07432409, 0.02239482), (0.99698263, 0.07432409, 0.02239482), (0.99698263, 0.07432409, 0.02239482), (0.99698263, 0.07432409, 0.02239482), (0.99698263, 0.07432409, 0.02239482), (0.99698263, 0.07432409, 0.02239482), (0.99698263, 0.07432409, 0.02239482), (0.99698263, 0.07432409, 0.02239482), (0.99698263, 0.07432409, 0.02239482), (0.99698263, 0.07432409, 0.02239482), (0.99698263, 0.07432409, 0.02239482), (0.99698263, 0.07432409, 0.02239482), (0.99698263, 0.07432409, 0.02239482), (0.99698263, 0.07432409, 0.02239482), (0.99698263, 0.07432409, 0.02239482), (0.99698263, 0.07432409, 0.02239482), (0.99698263, 0.07432409, 0.02239482), (0.99698263, 0.07432409, 0.02239482), (0.99698263, 0.07432409, 0.02239482), (0.99698263, 0.07432409, 0.02239482), (0.99698263, 0.07432409, 0.02239482), (0.99698263, 0.07432409, 0.02239482), (0.99698263, 0.07432409, 0.02239482), (0.99698263, 0.07432409, 0.02239482), (0.99698263, 0.07432409, 0.02239482), (0.99698263, 0.07432409, 0.02239482), (0.99698263, 0.07432409, 0.02239482), (0.99698263, 0.07432409, 0.02239482), (0.99698263, 0.07432409, 0.02239482), (0.99698263, 0.07432409, 0.02239482), (0.99698263, 0.07432409, 0.02239482), (0.9968755, 0.065255515, 0.044509467), (0.99698263, 0.07432409, 0.02239482), (0.9968755, 0.065255515, 0.044509467), (0.9968755, 0.065255515, 0.044509467), (0.99698263, 0.07432409, 0.02239482), (0.9968755, 0.065255515, 0.044509467), (0.99619824, 0.056145485, 0.066608764), (0.9968755, 0.065255515, 0.044509467), (0.99681824, 0.07626137, 0.023188474), (0.9968755, 0.065255515, 0.044509467), (0.99698263, 0.07432409, 0.02239482), (0.9968755, 0.065255515, 0.044509467), (0.99619824, 0.056145485, 0.066608764), (0.99619824, 0.056145485, 0.066608764), (0.99666923, 0.07742456, 0.025610171), (0.99681824, 0.07626137, 0.023188474), (0.9966657, 0.07765176, 0.02505487), (0.9968541, 0.066134915, 0.04368144), (0.99619824, 0.056145485, 0.066608764), (0.9968755, 0.065255515, 0.044509467), (0.9968541, 0.066134915, 0.04368144), (0.9968755, 0.065255515, 0.044509467), (0.99681824, 0.07626137, 0.023188474), (0.99681824, 0.07626137, 0.023188474), (0.99666923, 0.07742456, 0.025610171), (0.9968541, 0.066134915, 0.04368144), (0.99630547, 0.054853857, 0.06607959), (0.99619824, 0.056145485, 0.066608764), (0.9968541, 0.066134915, 0.04368144), (0.9968541, 0.066134915, 0.04368144), (0.99666923, 0.07742456, 0.025610171), (0.996706, 0.07601151, 0.028273173), (0.996706, 0.07601151, 0.028273173), (0.99630547, 0.054853857, 0.06607959), (0.9968541, 0.066134915, 0.04368144), (0.99698263, 0.07432409, 0.02239482), (0.99698263, 0.07432409, 0.02239482), (0.99698263, 0.07432409, 0.02239482), (0.99698263, 0.07432409, 0.02239482), (0.99698263, 0.07432409, 0.02239482), (0.99698263, 0.07432409, 0.02239482), (0.99698263, 0.07432409, 0.02239482), (0.99698263, 0.07432409, 0.02239482), (0.99698263, 0.07432409, 0.02239482), (0.99698263, 0.07432409, 0.02239482), (0.99698263, 0.07432409, 0.02239482), (0.99698263, 0.07432409, 0.02239482), (0.99698263, 0.07432409, 0.02239482), (0.99698263, 0.07432409, 0.02239482), (0.99698263, 0.07432409, 0.02239482), (0.99698263, 0.07432409, 0.02239482), (0.99698263, 0.07432409, 0.02239482), (0.99698263, 0.07432409, 0.02239482), (0.99698263, 0.07432409, 0.02239482), (0.99698263, 0.07432409, 0.02239482), (0.99698263, 0.07432409, 0.02239482), (0.99698263, 0.07432409, 0.02239482), (0.99698263, 0.07432409, 0.02239482), (0.99698263, 0.07432409, 0.02239482), (0.99698263, 0.07432409, 0.02239482), (0.99698263, 0.07432409, 0.02239482), (0.99698263, 0.07432409, 0.02239482), (0.99698263, 0.07432409, 0.02239482), (0.99698263, 0.07432409, 0.02239482), (0.99698263, 0.07432409, 0.02239482), (0.99698263, 0.07432409, 0.02239482), (0.99698263, 0.07432409, 0.02239482), (0.99698263, 0.07432409, 0.02239482), (0.99698263, 0.07432409, 0.02239482), (0.99698263, 0.07432409, 0.02239482), (0.99698263, 0.07432409, 0.02239482), (0.99698263, 0.07432409, 0.02239482), (0.99698263, 0.07432409, 0.02239482), (0.99698263, 0.07432409, 0.02239482)] (
        interpolation = "faceVarying"
    )
    point3f[] points = [(0.7839981, -2.0854104, -5.719351), (0.17418918, 6.527392, -4.421809), (0.12848043, 5.741557, -2.512916), (0.86414963, -1.2970077, -7.6274705), (0.7839981, -2.0854104, -5.719351), (-0.55473834, -1.6042355, -7.7417345), (0.86414963, -1.2970077, -7.6274705), (-0.5394039, -2.3855197, -5.83147), (-0.47593254, -5.6193547, 2.0753574), (0.48030755, -0.8316834, 4.282386), (-0.46153444, -6.35293, 3.868973), (0.60301244, -2.9436805, 9.462896), (0.48030755, -0.8316834, 4.282386), (0.054155372, 4.1819305, 10.248634), (0.60301244, -2.9436805, 9.462896), (-0.05388166, 5.5466065, 6.895348), (0.60301244, -2.9436805, 9.462896), (0.054155372, 4.1819305, 10.248634), (0.40287694, -1.1690806, 12.483064), (0.039730895, 3.532321, 13.046719), (0.16898492, 1.4770417, 14.1136055), (0.052855153, 2.8636463, 14.681649), (-0.54727983, 10.5413065, 15.918055), (-0.53415555, 9.872632, 17.552986), (-0.32388836, -7.996443, 3.1956835), (-0.33828646, -7.262867, 1.4020678), (-0.46153444, -6.35293, 3.868973), (-0.47593254, -5.6193547, 2.0753574), (-0.4017578, -4.029032, -6.5047593), (-0.5394039, -2.3855197, -5.83147), (-0.55473834, -1.6042355, -7.7417345), (-0.4170923, -3.2477481, -8.415024), (-0.03544591, 9.030463, -3.3963888), (-0.124998875, 10.208388, -3.318936), (-0.12221362, 10.066481, -2.9719684), (-0.038231164, 9.17237, -3.7433565), (-0.09592039, 10.484264, -3.986411), (0.17418918, 6.527392, -4.421809), (-0.009152681, 9.448247, -4.4108315), (0.84928125, -0.9792568, -8.020108), (0.86414963, -1.2970077, -7.6274705), (0.17140393, 6.669299, -4.768777), (0.20048241, 6.9451756, -5.436252), (0.78558046, 0.08360623, -8.711685), (0.20048241, 6.9451756, -5.436252), (0.78558046, 0.08360623, -8.711685), (0.6815523, 1.6416639, -9.251406), (0.18977861, 7.4905295, -6.7696586), (0.2622815, 6.984257, -8.317155), (-0.009152681, 9.448247, -4.4108315), (0.004888425, 10.123689, -7.2775807), (-0.019856486, 9.9936, -5.7442384), (-0.11839872, 11.629524, -6.7866073), (-0.10662419, 11.029618, -5.319818), (-0.09592039, 10.484264, -3.986411), (-0.70644784, 18.65091, -3.9101915), (-0.69467336, 18.051003, -2.4434023)]
}

