#usda 1.0
(
    defaultPrim = "SM_Lamp_3"
    upAxis = "Z"
)

def Mesh "SM_Lamp_3"
{
    int[] faceVertexCounts = [3, 3, 3, 3, 3, 3, 3, 3, 3, 3, 3, 3, 3, 3, 3, 3, 3, 3, 3, 3, 3, 3, 3, 3, 3, 3, 3, 3, 3, 3, 3, 3, 3, 3, 3, 3, 3, 3, 3, 3, 3, 3, 3, 3, 3, 3, 3, 3, 3, 3, 3, 3, 3, 3, 3, 3, 3, 3, 3, 3, 3, 3, 3, 3, 3, 3, 3, 3, 3, 3, 3, 3, 3, 3, 3, 3, 3, 3, 3, 3, 3, 3, 3, 3, 3, 3, 3, 3, 3, 3, 3, 3, 3, 3, 3, 3, 3, 3, 3, 3, 3, 3, 3, 3, 3, 3, 3, 3, 3, 3, 3, 3, 3, 3, 3, 3, 3, 3, 3, 3, 3, 3, 3, 3, 3, 3, 3, 3, 3, 3, 3, 3, 3, 3, 3, 3, 3, 3, 3, 3, 3, 3, 3, 3, 3, 3, 3, 3, 3, 3, 3, 3, 3, 3, 3, 3, 3, 3, 3, 3, 3, 3, 3, 3, 3, 3, 3, 3, 3, 3, 3, 3, 3, 3, 3, 3, 3, 3, 3, 3, 3, 3, 3, 3, 3, 3, 3, 3, 3, 3, 3, 3, 3, 3, 3, 3, 3, 3, 3, 3, 3, 3, 3, 3, 3, 3, 3, 3, 3, 3, 3, 3, 3, 3, 3, 3, 3, 3, 3, 3, 3, 3, 3, 3, 3, 3, 3, 3, 3, 3, 3, 3, 3, 3, 3, 3, 3, 3, 3, 3, 3, 3, 3, 3, 3, 3, 3, 3, 3, 3, 3, 3, 3, 3, 3, 3, 3, 3, 3, 3, 3, 3, 3, 3, 3, 3, 3, 3, 3, 3, 3, 3, 3, 3, 3, 3, 3, 3, 3, 3, 3, 3, 3, 3, 3, 3, 3, 3, 3, 3, 3, 3, 3, 3, 3, 3, 3, 3, 3, 3, 3, 3, 3, 3, 3, 3, 3, 3, 3, 3, 3, 3, 3, 3, 3, 3, 3, 3, 3, 3, 3, 3, 3, 3, 3, 3, 3, 3, 3, 3, 3, 3, 3, 3, 3, 3, 3, 3, 3, 3, 3, 3, 3, 3, 3, 3, 3, 3, 3, 3, 3, 3, 3, 3, 3, 3, 3, 3, 3, 3, 3, 3, 3, 3, 3, 3, 3, 3, 3, 3, 3, 3, 3, 3, 3, 3, 3, 3, 3, 3, 3, 3, 3, 3, 3, 3, 3, 3, 3, 3, 3, 3, 3, 3, 3, 3, 3, 3, 3, 3, 3, 3, 3, 3, 3, 3, 3, 3, 3, 3, 3, 3, 3, 3, 3, 3, 3, 3, 3, 3, 3, 3, 3, 3, 3, 3, 3, 3, 3, 3, 3, 3, 3, 3, 3, 3, 3, 3, 3, 3, 3, 3, 3, 3, 3, 3, 3, 3, 3, 3, 3, 3, 3, 3, 3, 3, 3, 3, 3, 3, 3, 3, 3, 3, 3, 3, 3, 3, 3, 3, 3, 3, 3, 3, 3, 3, 3, 3, 3, 3, 3, 3, 3, 3, 3, 3, 3, 3, 3, 3, 3, 3, 3, 3, 3, 3, 3, 3, 3, 3, 3, 3, 3, 3, 3, 3, 3, 3, 3, 3]
    int[] faceVertexIndices = [0, 1, 2, 1, 3, 2, 4, 0, 2, 4, 2, 5, 2, 6, 5, 4, 5, 7, 6, 8, 5, 9, 10, 7, 5, 9, 7, 11, 12, 13, 13, 14, 11, 15, 16, 17, 17, 18, 15, 19, 20, 21, 21, 22, 19, 23, 24, 25, 25, 26, 23, 27, 28, 29, 29, 30, 27, 31, 27, 30, 30, 32, 31, 33, 31, 32, 32, 34, 33, 28, 33, 34, 34, 29, 28, 34, 32, 30, 30, 29, 34, 35, 36, 37, 37, 38, 35, 39, 40, 41, 41, 42, 39, 43, 44, 45, 46, 47, 48, 49, 50, 51, 52, 53, 54, 55, 56, 57, 57, 58, 55, 59, 55, 58, 58, 45, 59, 60, 59, 45, 61, 62, 63, 63, 64, 61, 65, 61, 64, 64, 66, 65, 67, 65, 66, 66, 68, 67, 69, 70, 71, 71, 72, 69, 73, 69, 72, 72, 74, 73, 75, 73, 74, 74, 76, 75, 77, 78, 79, 79, 80, 77, 44, 77, 80, 80, 81, 44, 82, 44, 81, 81, 83, 82, 84, 2, 3, 3, 85, 84, 48, 84, 85, 85, 86, 48, 86, 87, 48, 88, 5, 8, 8, 89, 88, 51, 88, 89, 89, 90, 51, 90, 47, 51, 91, 10, 9, 9, 92, 91, 54, 91, 92, 92, 93, 54, 93, 50, 54, 94, 0, 4, 4, 95, 94, 96, 94, 95, 95, 97, 96, 98, 96, 97, 97, 53, 98, 99, 100, 101, 102, 101, 100, 100, 103, 102, 104, 102, 103, 101, 105, 99, 106, 99, 105, 105, 107, 106, 108, 106, 107, 107, 109, 108, 110, 108, 109, 109, 111, 110, 112, 110, 111, 111, 113, 112, 114, 112, 113, 113, 115, 114, 116, 114, 115, 115, 117, 116, 118, 116, 117, 117, 119, 118, 120, 118, 119, 119, 121, 120, 122, 120, 121, 121, 104, 122, 103, 122, 104, 123, 124, 125, 126, 125, 124, 124, 127, 126, 128, 126, 127, 127, 129, 128, 125, 130, 123, 131, 123, 130, 130, 132, 131, 133, 131, 132, 132, 134, 133, 135, 133, 134, 134, 136, 135, 137, 135, 136, 136, 138, 137, 120, 137, 138, 138, 139, 120, 118, 120, 139, 139, 140, 118, 116, 118, 140, 140, 141, 116, 141, 142, 116, 129, 116, 142, 142, 128, 129, 143, 144, 145, 145, 146, 143, 147, 143, 146, 146, 148, 147, 149, 147, 148, 148, 150, 149, 151, 149, 150, 150, 152, 151, 153, 151, 152, 152, 154, 153, 155, 153, 154, 154, 156, 155, 157, 145, 144, 144, 158, 157, 159, 157, 158, 158, 160, 159, 36, 159, 160, 160, 37, 36, 161, 35, 38, 38, 162, 161, 163, 161, 162, 162, 164, 163, 165, 163, 164, 164, 166, 165, 167, 165, 166, 166, 168, 167, 169, 167, 168, 168, 170, 169, 171, 169, 170, 170, 172, 171, 173, 171, 172, 172, 174, 173, 175, 173, 174, 174, 176, 175, 177, 175, 176, 176, 178, 177, 179, 177, 178, 178, 180, 179, 181, 179, 180, 180, 182, 181, 183, 181, 182, 182, 184, 183, 185, 183, 184, 184, 186, 185, 156, 185, 186, 186, 155, 156, 187, 188, 189, 190, 189, 188, 188, 191, 190, 192, 190, 191, 189, 193, 187, 194, 187, 193, 193, 195, 194, 196, 194, 195, 195, 197, 196, 198, 196, 197, 197, 199, 198, 200, 198, 199, 199, 201, 200, 202, 200, 201, 201, 203, 202, 204, 202, 203, 203, 205, 204, 206, 204, 205, 205, 207, 206, 208, 206, 207, 207, 209, 208, 210, 208, 209, 209, 192, 210, 191, 210, 192, 211, 212, 213, 214, 213, 212, 212, 215, 214, 216, 214, 215, 213, 217, 211, 218, 211, 217, 217, 219, 218, 220, 218, 219, 219, 221, 220, 222, 220, 221, 221, 223, 222, 224, 222, 223, 223, 225, 224, 226, 224, 225, 208, 226, 225, 225, 227, 208, 206, 208, 227, 227, 228, 206, 204, 206, 228, 228, 229, 204, 229, 230, 204, 230, 216, 204, 215, 204, 216, 231, 232, 233, 233, 234, 231, 235, 231, 234, 234, 236, 235, 237, 235, 236, 236, 238, 237, 239, 237, 238, 238, 240, 239, 241, 239, 240, 240, 242, 241, 243, 241, 242, 242, 244, 243, 245, 233, 232, 232, 246, 245, 247, 245, 246, 246, 248, 247, 40, 247, 248, 248, 41, 40, 249, 39, 42, 42, 250, 249, 251, 249, 250, 250, 252, 251, 253, 251, 252, 252, 254, 253, 255, 253, 254, 254, 256, 255, 257, 255, 256, 256, 258, 257, 259, 257, 258, 258, 260, 259, 261, 259, 260, 260, 262, 261, 263, 261, 262, 262, 264, 263, 265, 263, 264, 264, 266, 265, 267, 265, 266, 266, 268, 267, 269, 267, 268, 268, 270, 269, 271, 269, 270, 270, 272, 271, 273, 271, 272, 272, 274, 273, 244, 273, 274, 274, 243, 244, 275, 13, 12, 12, 276, 275, 83, 275, 276, 276, 82, 83, 87, 11, 14, 14, 277, 87, 277, 48, 87, 278, 17, 16, 16, 279, 278, 76, 278, 279, 279, 75, 76, 47, 15, 18, 18, 280, 47, 280, 51, 47, 281, 21, 20, 20, 282, 281, 68, 281, 282, 282, 67, 68, 50, 19, 22, 22, 283, 50, 283, 54, 50, 284, 25, 24, 24, 285, 284, 285, 60, 284, 45, 284, 60, 53, 23, 26, 26, 98, 53, 55, 59, 286, 56, 55, 286, 286, 287, 56, 287, 286, 288, 61, 65, 289, 62, 61, 289, 289, 290, 62, 290, 289, 291, 69, 73, 292, 70, 69, 292, 292, 293, 70, 293, 292, 294, 43, 295, 44, 77, 44, 295, 78, 77, 295, 295, 296, 78, 296, 295, 297, 298, 48, 299, 48, 298, 84, 2, 84, 298, 298, 6, 2, 6, 298, 299, 300, 51, 301, 51, 300, 88, 5, 88, 300, 5, 300, 301, 302, 54, 303, 54, 302, 91, 10, 91, 302, 302, 7, 10, 7, 302, 303, 98, 304, 96, 94, 96, 304, 304, 305, 94, 0, 94, 305, 58, 57, 296, 296, 297, 58, 43, 58, 297, 45, 58, 43, 297, 295, 43, 64, 63, 287, 287, 288, 64, 66, 64, 288, 288, 286, 66, 66, 306, 68, 286, 306, 66, 286, 59, 306, 72, 71, 290, 290, 291, 72, 74, 72, 291, 291, 289, 74, 74, 307, 76, 289, 307, 74, 289, 65, 307, 80, 79, 293, 293, 294, 80, 81, 80, 294, 294, 292, 81, 81, 308, 83, 292, 308, 81, 292, 73, 308, 85, 3, 1, 1, 305, 85, 305, 1, 0, 86, 85, 305, 305, 304, 86, 87, 86, 304, 89, 8, 6, 6, 298, 89, 90, 89, 298, 298, 299, 90, 47, 90, 299, 299, 48, 47, 9, 300, 92, 300, 9, 5, 93, 92, 300, 300, 301, 93, 50, 93, 301, 301, 51, 50, 95, 4, 7, 7, 302, 95, 97, 95, 302, 302, 303, 97, 53, 97, 303, 303, 54, 53, 308, 309, 83, 275, 83, 309, 13, 275, 309, 73, 309, 308, 309, 310, 13, 14, 13, 310, 308, 311, 309, 310, 309, 311, 310, 312, 14, 14, 46, 277, 48, 277, 46, 312, 313, 14, 46, 14, 313, 313, 314, 46, 313, 312, 315, 46, 314, 47, 15, 47, 314, 314, 313, 15, 313, 315, 15, 16, 15, 315, 315, 316, 16, 316, 315, 312, 312, 310, 316, 279, 16, 316, 311, 316, 310, 316, 311, 279, 75, 279, 311, 311, 309, 75, 73, 75, 309, 11, 87, 317, 317, 87, 304, 317, 318, 11, 317, 304, 98, 318, 319, 11, 12, 11, 319, 319, 320, 12, 276, 12, 320, 320, 321, 276, 82, 276, 321, 44, 82, 321, 44, 321, 322, 322, 45, 44, 321, 320, 323, 321, 45, 322, 45, 321, 284, 25, 284, 321, 321, 323, 25, 26, 25, 323, 323, 324, 26, 324, 323, 320, 320, 319, 324, 318, 324, 319, 324, 318, 26, 98, 26, 318, 318, 317, 98, 307, 325, 76, 278, 76, 325, 17, 278, 325, 65, 325, 307, 325, 326, 17, 18, 17, 326, 307, 327, 325, 326, 325, 327, 326, 328, 18, 18, 49, 280, 51, 280, 49, 328, 329, 18, 49, 18, 329, 329, 330, 49, 329, 328, 331, 49, 330, 50, 19, 50, 330, 330, 329, 19, 329, 331, 19, 20, 19, 331, 331, 332, 20, 332, 331, 328, 328, 326, 332, 282, 20, 332, 327, 332, 326, 332, 327, 282, 67, 282, 327, 327, 325, 67, 65, 67, 325, 306, 333, 68, 281, 68, 333, 21, 281, 333, 59, 333, 306, 333, 334, 21, 22, 21, 334, 306, 335, 333, 334, 333, 335, 334, 336, 22, 22, 52, 283, 54, 283, 52, 336, 337, 22, 52, 22, 337, 337, 338, 52, 337, 336, 339, 52, 338, 53, 23, 53, 338, 338, 337, 23, 337, 339, 23, 24, 23, 339, 339, 340, 24, 340, 339, 336, 336, 334, 340, 285, 24, 340, 335, 340, 334, 340, 335, 285, 60, 285, 335, 335, 333, 60, 59, 60, 333, 79, 78, 341, 341, 342, 79, 78, 296, 341, 293, 79, 342, 296, 57, 341, 343, 341, 57, 70, 293, 342, 344, 343, 57, 57, 56, 344, 342, 345, 70, 71, 70, 345, 345, 346, 71, 56, 287, 344, 290, 71, 346, 347, 344, 287, 287, 63, 347, 62, 290, 346, 348, 347, 63, 346, 348, 62, 63, 62, 348]
    normal3f[] normals = [(-0.9999972, -0.0023396632, -0.00042065897), (-0.9999972, -0.0023397207, -0.00040829502), (-0.9999972, -0.0023397168, -0.00042065248), (-0.9999972, -0.0023397207, -0.00040829502), (-0.016392542, -0.000126196, 0.9998657), (-0.9999972, -0.0023397168, -0.00042065248), (-0.9999972, -0.0023397168, -0.0004206589), (-0.9999972, -0.0023396632, -0.00042065897), (-0.9999972, -0.0023397168, -0.00042065248), (-0.9999972, -0.0023397168, -0.0004206589), (-0.9999972, -0.0023397168, -0.00042065248), (-0.9999972, -0.002339769, -0.00042065882), (-0.9999972, -0.0023397168, -0.00042065248), (-0.9999972, -0.002339704, -0.00042064599), (-0.9999972, -0.002339769, -0.00042065882), (-0.9999972, -0.0023397168, -0.0004206589), (-0.9999972, -0.002339769, -0.00042065882), (-0.9999972, -0.0023397487, -0.00042586768), (-0.9999972, -0.002339704, -0.00042064599), (-0.06070583, 0.9981557, -0.0000050580147), (-0.9999972, -0.002339769, -0.00042065882), (-0.03188472, 0.0009177051, -0.9994912), (-0.019980397, -0.0035285032, -0.9997942), (-0.9999972, -0.0023397487, -0.00042586768), (-0.9999972, -0.002339769, -0.00042065882), (-0.03188472, 0.0009177051, -0.9994912), (-0.9999972, -0.0023397487, -0.00042586768), (-0.99966997, -0.0024927394, 0.025568582), (-0.99991393, -0.002394475, -0.0128983045), (-0.9999929, -0.002369153, -0.0029292991), (-0.9999929, -0.002369153, -0.0029292991), (-0.9980616, -0.002093771, 0.06219871), (-0.99966997, -0.0024927394, 0.025568582), (-0.9996844, 0.025121562, -0.00038659188), (-0.9998903, -0.014810814, -0.00040419283), (-0.9999889, -0.0046968907, -0.00041297037), (-0.9999889, -0.0046968907, -0.00041297037), (-0.9980752, 0.06201494, -0.00048741794), (-0.9996844, 0.025121562, -0.00038659188), (-0.99963284, -0.0021948726, -0.027008532), (-0.99992436, -0.0022813464, 0.01208424), (-0.9999951, -0.0023102795, 0.0020879782), (-0.9999951, -0.0023102795, 0.0020879782), (-0.997932, -0.0025859862, -0.064226426), (-0.99963284, -0.0021948726, -0.027008532), (-0.9995558, -0.029799215, -0.00045440864), (-0.9998844, 0.015197634, -0.00044066567), (-0.9999956, 0.0029649206, -0.0004251354), (-0.9999956, 0.0029649206, -0.0004251354), (-0.9967005, -0.081166014, -0.0003561484), (-0.9995558, -0.029799215, -0.00045440864), (-0.002339631, 0.99999726, -0.00012121414), (-0.002339631, 0.99999726, -0.00012121414), (-0.002339613, 0.99999726, -0.000121214136), (-0.002339613, 0.99999726, -0.000121214136), (-0.9999972, -0.0023397168, -0.0004206589), (-0.002339631, 0.99999726, -0.00012121414), (0.002339701, -0.99999726, 0.00012121417), (-0.002339631, 0.99999726, -0.00012121414), (-0.9999972, -0.0023397168, -0.0004206589), (-0.9999972, -0.0023397168, -0.0004206589), (0.002339719, -0.99999726, 0.00012121418), (0.002339701, -0.99999726, 0.00012121417), (0.002339701, -0.99999726, 0.00012121417), (0.002339701, -0.99999726, 0.00012121417), (0.002339719, -0.99999726, 0.00012121418), (0.002339719, -0.99999726, 0.00012121418), (-0.9999972, -0.0023397168, -0.0004206589), (0.002339701, -0.99999726, 0.00012121417), (-0.002339631, 0.99999726, -0.00012121414), (0.002339701, -0.99999726, 0.00012121417), (-0.9999972, -0.0023397168, -0.0004206589), (-0.9999972, -0.0023397168, -0.0004206589), (-0.002339613, 0.99999726, -0.000121214136), (-0.002339631, 0.99999726, -0.00012121414), (-0.9999972, -0.0023397168, -0.0004206589), (0.002339719, -0.99999726, 0.00012121418), (-0.9999972, -0.0023397168, -0.0004206589), (-0.9999972, -0.0023397168, -0.0004206589), (-0.002339613, 0.99999726, -0.000121214136), (-0.9999972, -0.0023397168, -0.0004206589), (0.0023753326, -0.97635967, -0.2161391), (0.0023189732, -0.9990315, 0.043940596), (0.0023558694, -0.99904126, -0.04371495), (0.0023558694, -0.99904126, -0.04371495), (0.002357892, -0.95368403, -0.30080128), (0.0023753326, -0.97635967, -0.2161391), (0.0023753324, -0.97635883, -0.21614309), (0.0023189557, -0.99903, 0.04397412), (0.002355875, -0.9990405, -0.043732345), (0.002355875, -0.9990405, -0.043732345), (0.0023578908, -0.9536831, -0.300804), (0.0023753324, -0.97635883, -0.21614309), (-0.51277834, 0.74338144, -0.42946756), (-0.30151972, 0.000023038638, -0.95346004), (-0.5475594, 0.83676666, -0.00051712943), (-0.9300519, 0.21696335, 0.2965305), (-0.86965, 0.4936689, -0.00026843132), (-0.43020767, 0.0000099254285, 0.90273), (-0.9300279, 0.2947318, -0.21950243), (-0.868606, -0.0014473847, -0.49550128), (-0.44523978, 0.8954112, -0.00053411996), (-0.9287761, -0.22138895, -0.29725757), (-0.8874391, -0.4609249, -0.0005692009), (-0.44359535, -0.002134338, -0.8962247), (-0.019605095, 0.9998079, 0.00007944267), (0.9999972, 0.0023397168, 0.0004206589), (0.9999972, 0.0023397168, 0.0004206589), (0.9999972, 0.0023397168, 0.0004206589), (-0.07354703, 0.9972915, -0.00079416885), (-0.019605095, 0.9998079, 0.00007944267), (-0.38826597, 0.92154735, -0.00018371709), (-0.019605095, 0.9998079, 0.00007944267), (-0.07354703, 0.9972915, -0.00079416885), (-0.07354703, 0.9972915, -0.00079416885), (-0.5475594, 0.83676666, -0.00051712943), (-0.38826597, 0.92154735, -0.00018371709), (-0.7745624, 0.63249755, -0.00011459337), (-0.38826597, 0.92154735, -0.00018371709), (-0.5475594, 0.83676666, -0.00051712943), (-0.017182767, -0.00072630984, 0.9998522), (0.9999972, 0.0023397158, 0.00042105693), (0.9999972, 0.002339744, 0.00042084613), (0.9999972, 0.002339744, 0.00042084613), (-0.042192344, 0.0023874554, 0.9991067), (-0.017182767, -0.00072630984, 0.9998522), (-0.30221727, -0.0013192034, 0.9532382), (-0.017182767, -0.00072630984, 0.9998522), (-0.042192344, 0.0023874554, 0.9991067), (-0.042192344, 0.0023874554, 0.9991067), (-0.40313584, 0.0005395625, 0.91514), (-0.30221727, -0.0013192034, 0.9532382), (-0.68298274, -0.002692973, 0.7304296), (-0.30221727, -0.0013192034, 0.9532382), (-0.40313584, 0.0005395625, 0.91514), (-0.40313584, 0.0005395625, 0.91514), (-0.7972185, -0.0012397777, 0.6036896), (-0.68298274, -0.002692973, 0.7304296), (-0.014425475, -0.999896, -0.00010095073), (0.9999972, 0.002339422, 0.00042063405), (0.9999972, 0.002339548, 0.00042065894), (0.9999972, 0.002339548, 0.00042065894), (-0.0396078, -0.999215, 0.00073564565), (-0.014425475, -0.999896, -0.00010095073), (-0.29941234, -0.95412385, -0.00020521905), (-0.014425475, -0.999896, -0.00010095073), (-0.0396078, -0.999215, 0.00073564565), (-0.0396078, -0.999215, 0.00073564565), (-0.40070894, -0.9162054, 0.00030714847), (-0.29941234, -0.95412385, -0.00020521905), (-0.6801686, -0.7330555, -0.0005131044), (-0.29941234, -0.95412385, -0.00020521905), (-0.40070894, -0.9162054, 0.00030714847), (-0.40070894, -0.9162054, 0.00030714847), (-0.79548365, -0.605975, -0.00011559211), (-0.6801686, -0.7330555, -0.0005131044), (-0.014023841, 0.0004796702, -0.99990165), (0.9999972, 0.0023397633, 0.0004206986), (0.9999972, 0.0023397172, 0.000420938), (0.9999972, 0.0023397172, 0.000420938), (-0.03723309, -0.0025881217, -0.9993032), (-0.014023841, 0.0004796702, -0.99990165), (-0.30151972, 0.000023038638, -0.95346004), (-0.014023841, 0.0004796702, -0.99990165), (-0.03723309, -0.0025881217, -0.9993032), (-0.03723309, -0.0025881217, -0.9993032), (-0.42225155, -0.0026461915, -0.9064748), (-0.30151972, 0.000023038638, -0.95346004), (-0.6972228, -0.00080256775, -0.716854), (-0.30151972, 0.000023038638, -0.95346004), (-0.42225155, -0.0026461915, -0.9064748), (-0.42225155, -0.0026461915, -0.9064748), (-0.796532, -0.0024887964, -0.6045914), (-0.6972228, -0.00080256775, -0.716854), (-0.057389352, 0.0012177693, 0.99835116), (-0.9999972, -0.0023397168, -0.00042065248), (-0.016392542, -0.000126196, 0.9998657), (-0.016392542, -0.000126196, 0.9998657), (-0.105372146, -0.0016617187, 0.9944315), (-0.057389352, 0.0012177693, 0.99835116), (-0.43020767, 0.0000099254285, 0.90273), (-0.057389352, 0.0012177693, 0.99835116), (-0.105372146, -0.0016617187, 0.9944315), (-0.105372146, -0.0016617187, 0.9944315), (-0.32348397, -0.004339475, 0.9462238), (-0.43020767, 0.0000099254285, 0.90273), (-0.32348397, -0.004339475, 0.9462238), (-0.86899686, -0.0028755441, 0.49480936), (-0.43020767, 0.0000099254285, 0.90273), (-0.091768324, 0.99578035, -0.0004986433), (-0.9999972, -0.002339769, -0.00042065882), (-0.06070583, 0.9981557, -0.0000050580147), (-0.06070583, 0.9981557, -0.0000050580147), (-0.11201637, 0.9937063, 0.00035410348), (-0.091768324, 0.99578035, -0.0004986433), (-0.44523978, 0.8954112, -0.00053411996), (-0.091768324, 0.99578035, -0.0004986433), (-0.11201637, 0.9937063, 0.00035410348), (-0.11201637, 0.9937063, 0.00035410348), (-0.36013556, 0.93290013, 0.00003253112), (-0.44523978, 0.8954112, -0.00053411996), (-0.36013556, 0.93290013, 0.00003253112), (-0.86965, 0.4936689, -0.00026843132), (-0.44523978, 0.8954112, -0.00053411996), (-0.06922481, -0.001402882, -0.99760014), (-0.019980397, -0.0035285032, -0.9997942), (-0.03188472, 0.0009177051, -0.9994912), (-0.03188472, 0.0009177051, -0.9994912), (-0.12090934, 0.0009731573, -0.992663), (-0.06922481, -0.001402882, -0.99760014), (-0.44359535, -0.002134338, -0.8962247), (-0.06922481, -0.001402882, -0.99760014), (-0.12090934, 0.0009731573, -0.992663), (-0.12090934, 0.0009731573, -0.992663), (-0.35789418, 0.0002681723, -0.9337622), (-0.44359535, -0.002134338, -0.8962247), (-0.35789418, 0.0002681723, -0.9337622), (-0.868606, -0.0014473847, -0.49550128), (-0.44359535, -0.002134338, -0.8962247), (-0.08109477, -0.9967063, 0.00047214233), (-0.9999972, -0.0023396632, -0.00042065897), (-0.9999972, -0.0023397168, -0.0004206589), (-0.9999972, -0.0023397168, -0.0004206589), (-0.10123087, -0.9948629, -0.00048992573), (-0.08109477, -0.9967063, 0.00047214233), (-0.34029448, -0.94031894, 0.000137746), (-0.08109477, -0.9967063, 0.00047214233), (-0.10123087, -0.9948629, -0.00048992573), (-0.10123087, -0.9948629, -0.00048992573), (-0.44260535, -0.89671654, -0.000317172), (-0.34029448, -0.94031894, 0.000137746), (-0.7814097, -0.6240185, 0.00013878626), (-0.34029448, -0.94031894, 0.000137746), (-0.44260535, -0.89671654, -0.000317172), (-0.44260535, -0.89671654, -0.000317172), (-0.8874391, -0.4609249, -0.0005692009), (-0.7814097, -0.6240185, 0.00013878626), (-0.3263543, -0.58221346, 0.7446613), (-0.10119695, -0.17978776, 0.9784864), (-0.2173965, -0.38704297, 0.89606726), (0.023705546, 0.0434708, 0.99877346), (-0.2173965, -0.38704297, 0.89606726), (-0.10119695, -0.17978776, 0.9784864), (-0.10119695, -0.17978776, 0.9784864), (0.1612383, 0.28851596, 0.9438012), (0.023705546, 0.0434708, 0.99877346), (0.26908883, 0.4812945, 0.8342343), (0.023705546, 0.0434708, 0.99877346), (0.1612383, 0.28851596, 0.9438012), (-0.2173965, -0.38704297, 0.89606726), (-0.429855, -0.76676655, 0.47675335), (-0.3263543, -0.58221346, 0.7446613), (-0.47312114, -0.8443586, 0.25142613), (-0.3263543, -0.58221346, 0.7446613), (-0.429855, -0.76676655, 0.47675335), (-0.429855, -0.76676655, 0.47675335), (-0.4881227, -0.8710622, -0.05465457), (-0.47312114, -0.8443586, 0.25142613), (-0.46152943, -0.8244008, -0.3276491), (-0.47312114, -0.8443586, 0.25142613), (-0.4881227, -0.8710622, -0.05465457), (-0.4881227, -0.8710622, -0.05465457), (-0.40416905, -0.7219748, -0.5616048), (-0.46152943, -0.8244008, -0.3276491), (-0.32572785, -0.5823611, -0.7448201), (-0.46152943, -0.8244008, -0.3276491), (-0.40416905, -0.7219748, -0.5616048), (-0.40416905, -0.7219748, -0.5616048), (-0.1906812, -0.34098437, -0.9205272), (-0.32572785, -0.5823611, -0.7448201), (-0.05273239, -0.09523816, -0.99405694), (-0.32572785, -0.5823611, -0.7448201), (-0.1906812, -0.34098437, -0.9205272), (-0.1906812, -0.34098437, -0.9205272), (0.06444592, 0.11416056, -0.99136984), (-0.05273239, -0.09523816, -0.99405694), (0.1684648, 0.2997261, -0.93903357), (-0.05273239, -0.09523816, -0.99405694), (0.06444592, 0.11416056, -0.99136984), (0.06444592, 0.11416056, -0.99136984), (0.2902414, 0.51789016, -0.8047048), (0.1684648, 0.2997261, -0.93903357), (0.40746957, -0.718194, -0.564062), (0.1684648, 0.2997261, -0.93903357), (0.2902414, 0.51789016, -0.8047048), (0.2902414, 0.51789016, -0.8047048), (0.46175742, 0.8240394, -0.3282364), (0.40746957, -0.718194, -0.564062), (0.9999972, 0.0023397168, 0.0004206589), (0.40746957, -0.718194, -0.564062), (0.46175742, 0.8240394, -0.3282364), (0.46175742, 0.8240394, -0.3282364), (0.48866692, 0.87240523, -0.010667618), (0.9999972, 0.0023397168, 0.0004206589), (0.2677331, 0.057357077, 0.9617845), (0.9999972, 0.0023397168, 0.0004206589), (0.48866692, 0.87240523, -0.010667618), (0.48866692, 0.87240523, -0.010667618), (0.39746782, 0.7108551, 0.58026236), (0.2677331, 0.057357077, 0.9617845), (0.3235257, 0.57846504, 0.7488053), (0.2677331, 0.057357077, 0.9617845), (0.39746782, 0.7108551, 0.58026236), (0.39746782, 0.7108551, 0.58026236), (0.26908883, 0.4812945, 0.8342343), (0.3235257, 0.57846504, 0.7488053), (0.1612383, 0.28851596, 0.9438012), (0.3235257, 0.57846504, 0.7488053), (0.26908883, 0.4812945, 0.8342343), (-0.4311691, 0.76173985, -0.48357588), (-0.22886766, 0.404616, -0.8853844), (-0.34747598, 0.6136188, -0.7090363), (-0.09396733, 0.16614321, -0.9816143), (-0.34747598, 0.6136188, -0.7090363), (-0.22886766, 0.404616, -0.8853844), (-0.22886766, 0.404616, -0.8853844), (0.04637195, -0.081269145, -0.99561286), (-0.09396733, 0.16614321, -0.9816143), (0.1532053, -0.27017286, -0.9505445), (-0.09396733, 0.16614321, -0.9816143), (0.04637195, -0.081269145, -0.99561286), (0.04637195, -0.081269145, -0.99561286), (0.3157669, -0.5565653, -0.7684573), (0.1532053, -0.27017286, -0.9505445), (-0.34747598, 0.6136188, -0.7090363), (-0.48470563, 0.85578865, -0.18079367), (-0.4311691, 0.76173985, -0.48357588), (-0.4911455, 0.8673398, 0.08060946), (-0.4311691, 0.76173985, -0.48357588), (-0.48470563, 0.85578865, -0.18079367), (-0.48470563, 0.85578865, -0.18079367), (-0.4558225, 0.80447143, 0.3808564), (-0.4911455, 0.8673398, 0.08060946), (-0.38941208, 0.6874404, 0.61301225), (-0.4911455, 0.8673398, 0.08060946), (-0.4558225, 0.80447143, 0.3808564), (-0.4558225, 0.80447143, 0.3808564), (-0.300934, 0.5308666, 0.79222435), (-0.38941208, 0.6874404, 0.61301225), (-0.19926216, 0.3514956, 0.91473794), (-0.38941208, 0.6874404, 0.61301225), (-0.300934, 0.5308666, 0.79222435), (-0.300934, 0.5308666, 0.79222435), (-0.05420147, 0.09484326, 0.9940157), (-0.19926216, 0.3514956, 0.91473794), (0.07166893, -0.12715247, 0.98929054), (-0.19926216, 0.3514956, 0.91473794), (-0.05420147, 0.09484326, 0.9940157), (-0.05420147, 0.09484326, 0.9940157), (0.17758487, -0.31448296, 0.9325043), (0.07166893, -0.12715247, 0.98929054), (0.2677331, 0.057357077, 0.9617845), (0.07166893, -0.12715247, 0.98929054), (0.17758487, -0.31448296, 0.9325043), (0.17758487, -0.31448296, 0.9325043), (0.42762798, -0.75517946, 0.49682835), (0.2677331, 0.057357077, 0.9617845), (0.9999972, 0.0023397168, 0.0004206589), (0.2677331, 0.057357077, 0.9617845), (0.42762798, -0.75517946, 0.49682835), (0.42762798, -0.75517946, 0.49682835), (0.48952213, -0.86352086, 0.121242985), (0.9999972, 0.0023397168, 0.0004206589), (0.40746957, -0.718194, -0.564062), (0.9999972, 0.0023397168, 0.0004206589), (0.48952213, -0.86352086, 0.121242985), (0.48952213, -0.86352086, 0.121242985), (0.4648973, -0.82018334, -0.3334216), (0.40746957, -0.718194, -0.564062), (0.4648973, -0.82018334, -0.3334216), (0.38073483, -0.67120695, -0.6360206), (0.40746957, -0.718194, -0.564062), (0.3157669, -0.5565653, -0.7684573), (0.40746957, -0.718194, -0.564062), (0.38073483, -0.67120695, -0.6360206), (0.38073483, -0.67120695, -0.6360206), (0.1532053, -0.27017286, -0.9505445), (0.3157669, -0.5565653, -0.7684573), (0.0009021025, -0.5372041, 0.8434518), (0.0014414256, -0.73748946, 0.6753571), (0.0012698066, -0.6753168, 0.73752666), (0.0012698066, -0.6753168, 0.73752666), (0.00070616516, -0.4613308, 0.88722795), (0.0009021025, -0.5372041, 0.8434518), (0.00030230853, -0.3006778, 0.9537258), (0.0009021025, -0.5372041, 0.8434518), (0.00070616516, -0.4613308, 0.88722795), (0.00070616516, -0.4613308, 0.88722795), (0.00009438743, -0.21589185, 0.97641736), (0.00030230853, -0.3006778, 0.9537258), (-0.0003181959, -0.04362214, 0.99904805), (0.00030230853, -0.3006778, 0.9537258), (0.00009438743, -0.21589185, 0.97641736), (0.00009438743, -0.21589185, 0.97641736), (-0.000522881, 0.043862365, 0.99903744), (-0.0003181959, -0.04362214, 0.99904805), (-0.00091637135, 0.21611643, 0.9763672), (-0.0003181959, -0.04362214, 0.99904805), (-0.000522881, 0.043862365, 0.99903744), (-0.000522881, 0.043862365, 0.99903744), (-0.0011051418, 0.30087936, 0.9536616), (-0.00091637135, 0.21611643, 0.9763672), (-0.0014529759, 0.46150455, 0.88713664), (-0.00091637135, 0.21611643, 0.9763672), (-0.0011051418, 0.30087936, 0.9536616), (-0.0011051418, 0.30087936, 0.9536616), (-0.0016120899, 0.53738505, 0.8433356), (-0.0014529759, 0.46150455, 0.88713664), (-0.0018906487, 0.67549413, 0.737363), (-0.0014529759, 0.46150455, 0.88713664), (-0.0016120899, 0.53738505, 0.8433356), (-0.0016120899, 0.53738505, 0.8433356), (-0.002009922, 0.7376519, 0.6751783), (-0.0018906487, 0.67549413, 0.737363), (0.0017468558, -0.8432489, 0.53752047), (0.0012698066, -0.6753168, 0.73752666), (0.0014414256, -0.73748946, 0.6753571), (0.0014414256, -0.73748946, 0.6753571), (0.0018810035, -0.8869731, 0.4618174), (0.0017468558, -0.8432489, 0.53752047), (0.002104423, -0.9535757, 0.30114642), (0.0017468558, -0.8432489, 0.53752047), (0.0018810035, -0.8869731, 0.4618174), (0.0018810035, -0.8869731, 0.4618174), (0.0021933424, -0.9763249, 0.216298), (0.002104423, -0.9535757, 0.30114642), (0.0023189732, -0.9990315, 0.043940596), (0.002104423, -0.9535757, 0.30114642), (0.0021933424, -0.9763249, 0.216298), (0.0021933424, -0.9763249, 0.216298), (0.0023558694, -0.99904126, -0.04371495), (0.0023189732, -0.9990315, 0.043940596), (0.0022698324, -0.88716465, -0.46144757), (0.0023753326, -0.97635967, -0.2161391), (0.002357892, -0.95368403, -0.30080128), (0.002357892, -0.95368403, -0.30080128), (0.0021991017, -0.84326077, -0.5375002), (0.0022698324, -0.88716465, -0.46144757), (0.0020095815, -0.73747087, -0.675376), (0.0022698324, -0.88716465, -0.46144757), (0.0021991017, -0.84326077, -0.5375002), (0.0021991017, -0.84326077, -0.5375002), (0.0018910703, -0.6757099, -0.7371653), (0.0020095815, -0.73747087, -0.675376), (0.0016133041, -0.5379712, -0.84296167), (0.0020095815, -0.73747087, -0.675376), (0.0018910703, -0.6757099, -0.7371653), (0.0018910703, -0.6757099, -0.7371653), (0.0014537224, -0.46185645, -0.8869536), (0.0016133041, -0.5379712, -0.84296167), (0.0011051842, -0.30089855, -0.95365554), (0.0016133041, -0.5379712, -0.84296167), (0.0014537224, -0.46185645, -0.8869536), (0.0014537224, -0.46185645, -0.8869536), (0.00091635383, -0.21610862, -0.9763689), (0.0011051842, -0.30089855, -0.95365554), (0.0005228591, -0.043852936, -0.99903786), (0.0011051842, -0.30089855, -0.95365554), (0.00091635383, -0.21610862, -0.9763689), (0.00091635383, -0.21610862, -0.9763689), (0.00031821814, 0.043612707, -0.9990485), (0.0005228591, -0.043852936, -0.99903786), (-0.000094318806, 0.21586365, -0.9764236), (0.0005228591, -0.043852936, -0.99903786), (0.00031821814, 0.043612707, -0.9990485), (0.00031821814, 0.043612707, -0.9990485), (-0.0003022185, 0.3006414, -0.9537372), (-0.000094318806, 0.21586365, -0.9764236), (-0.000706863, 0.46160358, -0.8870861), (-0.000094318806, 0.21586365, -0.9764236), (-0.0003022185, 0.3006414, -0.9537372), (-0.0003022185, 0.3006414, -0.9537372), (-0.0009035171, 0.53774655, -0.84310603), (-0.000706863, 0.46160358, -0.8870861), (-0.0012703945, 0.67553264, -0.7373291), (-0.000706863, 0.46160358, -0.8870861), (-0.0009035171, 0.53774655, -0.84310603), (-0.0009035171, 0.53774655, -0.84310603), (-0.001440919, 0.7373085, -0.6755548), (-0.0012703945, 0.67553264, -0.7373291), (-0.0017465038, 0.84313154, -0.5377045), (-0.0012703945, 0.67553264, -0.7373291), (-0.001440919, 0.7373085, -0.6755548), (-0.001440919, 0.7373085, -0.6755548), (-0.0018812573, 0.88705367, -0.4616626), (-0.0017465038, 0.84313154, -0.5377045), (-0.0021045553, 0.9536117, -0.30103248), (-0.0017465038, 0.84313154, -0.5377045), (-0.0018812573, 0.88705367, -0.4616626), (-0.0018812573, 0.88705367, -0.4616626), (-0.0021932693, 0.9763077, -0.2163758), (-0.0021045553, 0.9536117, -0.30103248), (-0.0023189646, 0.99903077, -0.043957148), (-0.0021045553, 0.9536117, -0.30103248), (-0.0021932693, 0.9763077, -0.2163758), (-0.0021932693, 0.9763077, -0.2163758), (-0.002355864, 0.999042, 0.0436984), (-0.0023189646, 0.99903077, -0.043957148), (-0.0023753406, 0.976377, 0.2160613), (-0.0023189646, 0.99903077, -0.043957148), (-0.002355864, 0.999042, 0.0436984), (-0.002355864, 0.999042, 0.0436984), (-0.0023578557, 0.95364803, 0.30091518), (-0.0023753406, 0.976377, 0.2160613), (-0.0022697092, 0.88708407, 0.46160236), (-0.0023753406, 0.976377, 0.2160613), (-0.0023578557, 0.95364803, 0.30091518), (-0.0023578557, 0.95364803, 0.30091518), (-0.0021992992, 0.8433782, 0.5373159), (-0.0022697092, 0.88708407, 0.46160236), (-0.002009922, 0.7376519, 0.6751783), (-0.0022697092, 0.88708407, 0.46160236), (-0.0021992992, 0.8433782, 0.5373159), (-0.0021992992, 0.8433782, 0.5373159), (-0.0018906487, 0.67549413, 0.737363), (-0.002009922, 0.7376519, 0.6751783), (-0.32635736, -0.58221895, 0.74465567), (-0.10119695, -0.17978776, 0.9784864), (-0.2173969, -0.38704365, 0.89606684), (0.023705496, 0.04347071, 0.99877346), (-0.2173969, -0.38704365, 0.89606684), (-0.10119695, -0.17978776, 0.9784864), (-0.10119695, -0.17978776, 0.9784864), (0.16124253, 0.28852352, 0.94379824), (0.023705496, 0.04347071, 0.99877346), (0.26909283, 0.48130158, 0.83422893), (0.023705496, 0.04347071, 0.99877346), (0.16124253, 0.28852352, 0.94379824), (-0.2173969, -0.38704365, 0.89606684), (-0.4298561, -0.7667686, 0.47674933), (-0.32635736, -0.58221895, 0.74465567), (-0.47312114, -0.8443586, 0.25142613), (-0.32635736, -0.58221895, 0.74465567), (-0.4298561, -0.7667686, 0.47674933), (-0.4298561, -0.7667686, 0.47674933), (-0.4881227, -0.8710622, -0.05465457), (-0.47312114, -0.8443586, 0.25142613), (-0.46152994, -0.8244017, -0.3276465), (-0.47312114, -0.8443586, 0.25142613), (-0.4881227, -0.8710622, -0.05465457), (-0.4881227, -0.8710622, -0.05465457), (-0.40417022, -0.72197694, -0.561601), (-0.46152994, -0.8244017, -0.3276465), (-0.32572547, -0.5823569, -0.7448244), (-0.46152994, -0.8244017, -0.3276465), (-0.40417022, -0.72197694, -0.561601), (-0.40417022, -0.72197694, -0.561601), (-0.19067717, -0.34097713, -0.92053074), (-0.32572547, -0.5823569, -0.7448244), (-0.052727718, -0.09522993, -0.9940579), (-0.32572547, -0.5823569, -0.7448244), (-0.19067717, -0.34097713, -0.92053074), (-0.19067717, -0.34097713, -0.92053074), (0.06445057, 0.11416865, -0.99136865), (-0.052727718, -0.09522993, -0.9940579), (0.16844879, 0.29969743, -0.9390455), (-0.052727718, -0.09522993, -0.9940579), (0.06445057, 0.11416865, -0.99136865), (0.06445057, 0.11416865, -0.99136865), (0.29022613, 0.5178631, -0.8047278), (0.16844879, 0.29969743, -0.9390455), (0.4082354, -0.7195929, -0.56172055), (0.16844879, 0.29969743, -0.9390455), (0.29022613, 0.5178631, -0.8047278), (0.29022613, 0.5178631, -0.8047278), (0.46175972, 0.82404375, -0.32822233), (0.4082354, -0.7195929, -0.56172055), (0.9999972, 0.0023397168, 0.0004206589), (0.4082354, -0.7195929, -0.56172055), (0.46175972, 0.82404375, -0.32822233), (0.46175972, 0.82404375, -0.32822233), (0.48866707, 0.87240523, -0.010666957), (0.9999972, 0.0023397168, 0.0004206589), (0.2802361, 0.11160155, 0.9534217), (0.9999972, 0.0023397168, 0.0004206589), (0.48866707, 0.87240523, -0.010666957), (0.48866707, 0.87240523, -0.010666957), (0.39749983, 0.71091115, 0.5801718), (0.2802361, 0.11160155, 0.9534217), (0.32358396, 0.5785682, 0.74870044), (0.2802361, 0.11160155, 0.9534217), (0.39749983, 0.71091115, 0.5801718), (0.39749983, 0.71091115, 0.5801718), (0.26909283, 0.48130158, 0.83422893), (0.32358396, 0.5785682, 0.74870044), (0.16124253, 0.28852352, 0.94379824), (0.32358396, 0.5785682, 0.74870044), (0.26909283, 0.48130158, 0.83422893), (-0.32845062, 0.5806849, -0.7449331), (-0.101221226, 0.17932709, -0.9785684), (-0.21845818, 0.38603523, -0.8962438), (0.02475905, -0.043375198, -0.99875206), (-0.21845818, 0.38603523, -0.8962438), (-0.101221226, 0.17932709, -0.9785684), (-0.101221226, 0.17932709, -0.9785684), (0.24982652, -0.44011807, -0.8624864), (0.02475905, -0.043375198, -0.99875206), (0.32897535, -0.57970285, -0.74546623), (0.02475905, -0.043375198, -0.99875206), (0.24982652, -0.44011807, -0.8624864), (-0.21845818, 0.38603523, -0.8962438), (-0.43303418, 0.7647425, -0.47712728), (-0.32845062, 0.5806849, -0.7449331), (-0.47685432, 0.84213406, -0.2518342), (-0.32845062, 0.5806849, -0.7449331), (-0.43303418, 0.7647425, -0.47712728), (-0.43303418, 0.7647425, -0.47712728), (-0.49223918, 0.8687684, 0.05424093), (-0.47685432, 0.84213406, -0.2518342), (-0.4656574, 0.8222311, 0.32726017), (-0.47685432, 0.84213406, -0.2518342), (-0.49223918, 0.8687684, 0.05424093), (-0.49223918, 0.8687684, 0.05424093), (-0.40801612, 0.7200759, 0.5612607), (-0.4656574, 0.8222311, 0.32726017), (-0.32907444, 0.58082646, 0.7445473), (-0.4656574, 0.8222311, 0.32726017), (-0.40801612, 0.7200759, 0.5612607), (-0.40801612, 0.7200759, 0.5612607), (-0.19304456, 0.3400786, 0.9203697), (-0.32907444, 0.58082646, 0.7445473), (-0.084468715, 0.14858574, 0.9852854), (-0.32907444, 0.58082646, 0.7445473), (-0.19304456, 0.3400786, 0.9203697), (-0.19304456, 0.3400786, 0.9203697), (0.08900063, -0.15794799, 0.98342836), (-0.084468715, 0.14858574, 0.9852854), (0.11479803, -0.2034805, 0.9723256), (-0.084468715, 0.14858574, 0.9852854), (0.08900063, -0.15794799, 0.98342836), (0.2802361, 0.11160155, 0.9534217), (0.11479803, -0.2034805, 0.9723256), (0.08900063, -0.15794799, 0.98342836), (0.08900063, -0.15794799, 0.98342836), (0.3687796, -0.6514661, 0.6630186), (0.2802361, 0.11160155, 0.9534217), (0.9999972, 0.0023397168, 0.0004206589), (0.2802361, 0.11160155, 0.9534217), (0.3687796, -0.6514661, 0.6630186), (0.3687796, -0.6514661, 0.6630186), (0.4693157, -0.8275662, 0.3080211), (0.9999972, 0.0023397168, 0.0004206589), (0.4082354, -0.7195929, -0.56172055), (0.9999972, 0.0023397168, 0.0004206589), (0.4693157, -0.8275662, 0.3080211), (0.4693157, -0.8275662, 0.3080211), (0.4924161, -0.86854154, -0.056230802), (0.4082354, -0.7195929, -0.56172055), (0.4924161, -0.86854154, -0.056230802), (0.42769054, -0.75396067, -0.49862248), (0.4082354, -0.7195929, -0.56172055), (0.42769054, -0.75396067, -0.49862248), (0.32897535, -0.57970285, -0.74546623), (0.4082354, -0.7195929, -0.56172055), (0.24982652, -0.44011807, -0.8624864), (0.4082354, -0.7195929, -0.56172055), (0.32897535, -0.57970285, -0.74546623), (0.0009021377, -0.5372176, 0.8434433), (0.0014414135, -0.7374852, 0.6753619), (0.0012698206, -0.67532194, 0.73752195), (0.0012698206, -0.67532194, 0.73752195), (0.00070618425, -0.46133828, 0.88722414), (0.0009021377, -0.5372176, 0.8434433), (0.00030228734, -0.30066922, 0.95372844), (0.0009021377, -0.5372176, 0.8434433), (0.00070618425, -0.46133828, 0.88722414), (0.00070618425, -0.46133828, 0.88722414), (0.00009434363, -0.21587384, 0.9764213), (0.00030228734, -0.30066922, 0.95372844), (-0.00031821814, -0.043612707, 0.9990485), (0.00030228734, -0.30066922, 0.95372844), (0.00009434363, -0.21587384, 0.9764213), (0.00009434363, -0.21587384, 0.9764213), (-0.0005228591, 0.043852936, 0.99903786), (-0.00031821814, -0.043612707, 0.9990485), (-0.00091633096, 0.21609843, 0.9763712), (-0.00031821814, -0.043612707, 0.9990485), (-0.0005228591, 0.043852936, 0.99903786), (-0.0005228591, 0.043852936, 0.99903786), (-0.0011051227, 0.30087072, 0.9536643), (-0.00091633096, 0.21609843, 0.9763712), (-0.0014529917, 0.461512, 0.88713276), (-0.00091633096, 0.21609843, 0.9763712), (-0.0011051227, 0.30087072, 0.9536643), (-0.0011051227, 0.30087072, 0.9536643), (-0.0016121177, 0.5373984, 0.843327), (-0.0014529917, 0.461512, 0.88713276), (-0.0018906586, 0.67549926, 0.7373582), (-0.0014529917, 0.461512, 0.88713276), (-0.0016121177, 0.5373984, 0.843327), (-0.0016121177, 0.5373984, 0.843327), (-0.0020099138, 0.73764753, 0.675183), (-0.0018906586, 0.67549926, 0.7373582), (0.0017471749, -0.84335524, 0.5373535), (0.0012698206, -0.67532194, 0.73752195), (0.0014414135, -0.7374852, 0.6753619), (0.0014414135, -0.7374852, 0.6753619), (0.001881517, -0.88713616, 0.46150413), (0.0017471749, -0.84335524, 0.5373535), (0.0021045553, -0.9536117, 0.30103248), (0.0017471749, -0.84335524, 0.5373535), (0.001881517, -0.88713616, 0.46150413), (0.001881517, -0.88713616, 0.46150413), (0.0021932693, -0.9763077, 0.2163758), (0.0021045553, -0.9536117, 0.30103248), (0.0023189557, -0.99903, 0.04397412), (0.0021045553, -0.9536117, 0.30103248), (0.0021932693, -0.9763077, 0.2163758), (0.0021932693, -0.9763077, 0.2163758), (0.002355875, -0.9990405, -0.043732345), (0.0023189557, -0.99903, 0.04397412), (0.0022698354, -0.8871666, -0.4614437), (0.0023753324, -0.97635883, -0.21614309), (0.0023578908, -0.9536831, -0.300804), (0.0023578908, -0.9536831, -0.300804), (0.002199111, -0.84326625, -0.5374916), (0.0022698354, -0.8871666, -0.4614437), (0.0020095978, -0.7374795, -0.6753665), (0.0022698354, -0.8871666, -0.4614437), (0.002199111, -0.84326625, -0.5374916), (0.002199111, -0.84326625, -0.5374916), (0.0018910803, -0.675715, -0.73716056), (0.0020095978, -0.7374795, -0.6753665), (0.0016132903, -0.5379645, -0.84296596), (0.0020095978, -0.7374795, -0.6753665), (0.0018910803, -0.675715, -0.73716056), (0.0018910803, -0.675715, -0.73716056), (0.0014536908, -0.46184158, -0.8869613), (0.0016132903, -0.5379645, -0.84296596), (0.0011051652, -0.30088994, -0.95365834), (0.0016132903, -0.5379645, -0.84296596), (0.0014536908, -0.46184158, -0.8869613), (0.0014536908, -0.46184158, -0.8869613), (0.000916374, -0.21611759, -0.9763669), (0.0011051652, -0.30088994, -0.95365834), (0.000522881, -0.04386237, -0.99903744), (0.0011051652, -0.30088994, -0.95365834), (0.000916374, -0.21611759, -0.9763669), (0.000916374, -0.21611759, -0.9763669), (0.0003181959, 0.043622136, -0.99904805), (0.000522881, -0.04386237, -0.99903744), (-0.00009434068, 0.21587263, -0.9764216), (0.000522881, -0.04386237, -0.99903744), (0.0003181959, 0.043622136, -0.99904805), (0.0003181959, 0.043622136, -0.99904805), (-0.00030219735, 0.30063283, -0.95373994), (-0.00009434068, 0.21587263, -0.9764216), (-0.00070682494, 0.4615887, -0.88709384), (-0.00009434068, 0.21587263, -0.9764216), (-0.00030219735, 0.30063283, -0.95373994), (-0.00030219735, 0.30063283, -0.95373994), (-0.00090349966, 0.5377399, -0.8431104), (-0.00070682494, 0.4615887, -0.88709384), (-0.0012704085, 0.6755377, -0.73732436), (-0.00070682494, 0.4615887, -0.88709384), (-0.00090349966, 0.5377399, -0.8431104), (-0.00090349966, 0.5377399, -0.8431104), (-0.0014409432, 0.73731714, -0.67554533), (-0.0012704085, 0.6755377, -0.73732436), (-0.0017465202, 0.843137, -0.537696), (-0.0012704085, 0.6755377, -0.73732436), (-0.0014409432, 0.73731714, -0.67554533), (-0.0014409432, 0.73731714, -0.67554533), (-0.0018812636, 0.88705564, -0.46165866), (-0.0017465202, 0.843137, -0.537696), (-0.002104552, 0.9536107, -0.30103517), (-0.0017465202, 0.843137, -0.537696), (-0.0018812636, 0.88705564, -0.46165866), (-0.0018812636, 0.88705564, -0.46165866), (-0.0021932656, 0.97630686, -0.21637978), (-0.002104552, 0.9536107, -0.30103517), (-0.0023189555, 0.99903, -0.04397454), (-0.002104552, 0.9536107, -0.30103517), (-0.0021932656, 0.97630686, -0.21637978), (-0.0021932656, 0.97630686, -0.21637978), (-0.0023558747, 0.9990405, 0.043731924), (-0.0023189555, 0.99903, -0.04397454), (-0.0023753326, 0.97635967, 0.2161391), (-0.0023189555, 0.99903, -0.04397454), (-0.0023558747, 0.9990405, 0.043731924), (-0.0023558747, 0.9990405, 0.043731924), (-0.002357892, 0.95368403, 0.30080128), (-0.0023753326, 0.97635967, 0.2161391), (-0.0022699588, 0.88724715, 0.461289), (-0.0023753326, 0.97635967, 0.2161391), (-0.002357892, 0.95368403, 0.30080128), (-0.002357892, 0.95368403, 0.30080128), (-0.0021994777, 0.8434846, 0.53714895), (-0.0022699588, 0.88724715, 0.461289), (-0.0020099138, 0.73764753, 0.675183), (-0.0022699588, 0.88724715, 0.461289), (-0.0021994777, 0.8434846, 0.53714895), (-0.0021994777, 0.8434846, 0.53714895), (-0.0018906586, 0.67549926, 0.7373582), (-0.0020099138, 0.73764753, 0.675183), (-0.97586465, -0.0026246177, -0.21836087), (-0.9999929, -0.002369153, -0.0029292991), (-0.99991393, -0.002394475, -0.0128983045), (-0.99991393, -0.002394475, -0.0128983045), (-0.9446447, -0.0018847813, -0.32808974), (-0.97586465, -0.0026246177, -0.21836087), (-0.796532, -0.0024887964, -0.6045914), (-0.97586465, -0.0026246177, -0.21836087), (-0.9446447, -0.0018847813, -0.32808974), (-0.9446447, -0.0018847813, -0.32808974), (-0.6972228, -0.00080256775, -0.716854), (-0.796532, -0.0024887964, -0.6045914), (-0.86899686, -0.0028755441, 0.49480936), (-0.99966997, -0.0024927394, 0.025568582), (-0.9980616, -0.002093771, 0.06219871), (-0.9980616, -0.002093771, 0.06219871), (-0.89515203, -0.0012454147, 0.44575933), (-0.86899686, -0.0028755441, 0.49480936), (-0.89515203, -0.0012454147, 0.44575933), (-0.43020767, 0.0000099254285, 0.90273), (-0.86899686, -0.0028755441, 0.49480936), (-0.9754664, -0.22014862, -0.0003011659), (-0.9999889, -0.0046968907, -0.00041297037), (-0.9998903, -0.014810814, -0.00040419283), (-0.9998903, -0.014810814, -0.00040419283), (-0.94379133, -0.33054167, -0.00042183296), (-0.9754664, -0.22014862, -0.0003011659), (-0.79548365, -0.605975, -0.00011559211), (-0.9754664, -0.22014862, -0.0003011659), (-0.94379133, -0.33054167, -0.00042183296), (-0.94379133, -0.33054167, -0.00042183296), (-0.6801686, -0.7330555, -0.0005131044), (-0.79548365, -0.605975, -0.00011559211), (-0.86965, 0.4936689, -0.00026843132), (-0.9996844, 0.025121562, -0.00038659188), (-0.9980752, 0.06201494, -0.00048741794), (-0.9980752, 0.06201494, -0.00048741794), (-0.89588326, 0.44428915, -0.0006634992), (-0.86965, 0.4936689, -0.00026843132), (-0.89588326, 0.44428915, -0.0006634992), (-0.44523978, 0.8954112, -0.00053411996), (-0.86965, 0.4936689, -0.00026843132), (-0.9760263, -0.0019426022, 0.21764435), (-0.9999951, -0.0023102795, 0.0020879782), (-0.99992436, -0.0022813464, 0.01208424), (-0.99992436, -0.0022813464, 0.01208424), (-0.9448437, -0.0024134174, 0.32751268), (-0.9760263, -0.0019426022, 0.21764435), (-0.7972185, -0.0012397777, 0.6036896), (-0.9760263, -0.0019426022, 0.21764435), (-0.9448437, -0.0024134174, 0.32751268), (-0.9448437, -0.0024134174, 0.32751268), (-0.68298274, -0.002692973, 0.7304296), (-0.7972185, -0.0012397777, 0.6036896), (-0.868606, -0.0014473847, -0.49550128), (-0.99963284, -0.0021948726, -0.027008532), (-0.997932, -0.0025859862, -0.064226426), (-0.997932, -0.0025859862, -0.064226426), (-0.8947995, -0.0031071657, -0.4464576), (-0.868606, -0.0014473847, -0.49550128), (-0.8947995, -0.0031071657, -0.4464576), (-0.44359535, -0.002134338, -0.8962247), (-0.868606, -0.0014473847, -0.49550128), (-0.94829005, 0.3174048, -0.00057271717), (-0.9999956, 0.0029649206, -0.0004251354), (-0.9998844, 0.015197634, -0.00044066567), (-0.9998844, 0.015197634, -0.00044066567), (-0.9625661, 0.27104712, -0.00035501193), (-0.94829005, 0.3174048, -0.00057271717), (-0.9625661, 0.27104712, -0.00035501193), (-0.7745624, 0.63249755, -0.00011459337), (-0.94829005, 0.3174048, -0.00057271717), (-0.5475594, 0.83676666, -0.00051712943), (-0.94829005, 0.3174048, -0.00057271717), (-0.7745624, 0.63249755, -0.00011459337), (-0.8874391, -0.4609249, -0.0005692009), (-0.9995558, -0.029799215, -0.00045440864), (-0.9967005, -0.081166014, -0.0003561484), (-0.9967005, -0.081166014, -0.0003561484), (-0.7814097, -0.6240185, 0.00013878626), (-0.8874391, -0.4609249, -0.0005692009), (-0.019605095, 0.9998079, 0.00007944267), (-0.38826597, 0.92154735, -0.00018371709), (-0.036172803, 0.91667914, 0.3979837), (0.9999972, 0.0023397168, 0.0004206589), (-0.019605095, 0.9998079, 0.00007944267), (-0.036172803, 0.91667914, 0.3979837), (-0.036172803, 0.91667914, 0.3979837), (0.9999972, 0.0023397168, 0.0004206589), (0.9999972, 0.0023397168, 0.0004206589), (0.9999972, 0.0023397168, 0.0004206589), (-0.036172803, 0.91667914, 0.3979837), (-0.025957843, 0.32115996, 0.94666916), (-0.017182767, -0.00072630984, 0.9998522), (-0.30221727, -0.0013192034, 0.9532382), (-0.033308037, -0.39812467, 0.91672647), (0.9999972, 0.0023397158, 0.00042105693), (-0.017182767, -0.00072630984, 0.9998522), (-0.033308037, -0.39812467, 0.91672647), (-0.033308037, -0.39812467, 0.91672647), (0.99999714, 0.0023432986, 0.00042567722), (0.9999972, 0.0023397158, 0.00042105693), (0.99999714, 0.0023432986, 0.00042567722), (-0.033308037, -0.39812467, 0.91672647), (-0.022725426, -0.9468093, 0.32099208), (-0.014425475, -0.999896, -0.00010095073), (-0.29941234, -0.95412385, -0.00020521905), (-0.03153273, -0.9169455, -0.39776474), (0.9999972, 0.002339422, 0.00042063405), (-0.014425475, -0.999896, -0.00010095073), (-0.03153273, -0.9169455, -0.39776474), (-0.03153273, -0.9169455, -0.39776474), (0.9999972, 0.0023359833, 0.00042552868), (0.9999972, 0.002339422, 0.00042063405), (0.9999972, 0.0023359833, 0.00042552868), (-0.03153273, -0.9169455, -0.39776474), (-0.023669222, -0.32074383, -0.94687027), (-0.51277834, 0.74338144, -0.42946756), (-0.024767032, 0.38654342, -0.9219386), (-0.30151972, 0.000023038638, -0.95346004), (-0.014023841, 0.0004796702, -0.99990165), (-0.30151972, 0.000023038638, -0.95346004), (-0.024767032, 0.38654342, -0.9219386), (0.9999972, 0.0023397633, 0.0004206986), (-0.014023841, 0.0004796702, -0.99990165), (-0.024767032, 0.38654342, -0.9219386), (-0.024767032, 0.38654342, -0.9219386), (0.9999972, 0.0023397168, 0.0004206589), (0.9999972, 0.0023397633, 0.0004206986), (0.9999972, 0.0023397168, 0.0004206589), (-0.024767032, 0.38654342, -0.9219386), (-0.022355424, 0.9029553, -0.42915264), (-0.12666593, 0.6230671, 0.7718441), (-0.43020767, 0.0000099254285, 0.90273), (-0.38220325, 0.75998664, 0.52568144), (-0.43020767, 0.0000099254285, 0.90273), (-0.12666593, 0.6230671, 0.7718441), (-0.057389352, 0.0012177693, 0.99835116), (-0.9999972, -0.0023397168, -0.00042065248), (-0.057389352, 0.0012177693, 0.99835116), (-0.12666593, 0.6230671, 0.7718441), (-0.12666593, 0.6230671, 0.7718441), (-0.9999972, -0.002339704, -0.00042064599), (-0.9999972, -0.0023397168, -0.00042065248), (-0.9999972, -0.002339704, -0.00042064599), (-0.12666593, 0.6230671, 0.7718441), (-0.38220325, 0.75998664, 0.52568144), (-0.14382176, 0.6920988, -0.7073293), (-0.44523978, 0.8954112, -0.00053411996), (-0.38138145, 0.5247931, -0.76101273), (-0.44523978, 0.8954112, -0.00053411996), (-0.14382176, 0.6920988, -0.7073293), (-0.091768324, 0.99578035, -0.0004986433), (-0.9999972, -0.002339769, -0.00042065882), (-0.091768324, 0.99578035, -0.0004986433), (-0.14382176, 0.6920988, -0.7073293), (-0.9999972, -0.002339769, -0.00042065882), (-0.14382176, 0.6920988, -0.7073293), (-0.38138145, 0.5247931, -0.76101273), (-0.12309576, -0.6235467, -0.77203435), (-0.44359535, -0.002134338, -0.8962247), (-0.37832963, -0.76174736, -0.525935), (-0.44359535, -0.002134338, -0.8962247), (-0.12309576, -0.6235467, -0.77203435), (-0.06922481, -0.001402882, -0.99760014), (-0.019980397, -0.0035285032, -0.9997942), (-0.06922481, -0.001402882, -0.99760014), (-0.12309576, -0.6235467, -0.77203435), (-0.12309576, -0.6235467, -0.77203435), (-0.9999972, -0.0023397487, -0.00042586768), (-0.019980397, -0.0035285032, -0.9997942), (-0.9999972, -0.0023397487, -0.00042586768), (-0.12309576, -0.6235467, -0.77203435), (-0.37832963, -0.76174736, -0.525935), (-0.7814097, -0.6240185, 0.00013878626), (-0.56847495, -0.6392946, 0.5178211), (-0.34029448, -0.94031894, 0.000137746), (-0.08109477, -0.9967063, 0.00047214233), (-0.34029448, -0.94031894, 0.000137746), (-0.56847495, -0.6392946, 0.5178211), (-0.56847495, -0.6392946, 0.5178211), (-0.114198305, -0.6862193, 0.71837443), (-0.08109477, -0.9967063, 0.00047214233), (-0.9999972, -0.0023396632, -0.00042065897), (-0.08109477, -0.9967063, 0.00047214233), (-0.114198305, -0.6862193, 0.71837443), (-0.07354703, 0.9972915, -0.00079416885), (0.9999972, 0.0023397168, 0.0004206589), (0.9999972, 0.0023397168, 0.0004206589), (0.9999972, 0.0023397168, 0.0004206589), (-0.022355424, 0.9029553, -0.42915264), (-0.07354703, 0.9972915, -0.00079416885), (-0.51277834, 0.74338144, -0.42946756), (-0.07354703, 0.9972915, -0.00079416885), (-0.022355424, 0.9029553, -0.42915264), (-0.5475594, 0.83676666, -0.00051712943), (-0.07354703, 0.9972915, -0.00079416885), (-0.51277834, 0.74338144, -0.42946756), (-0.022355424, 0.9029553, -0.42915264), (-0.024767032, 0.38654342, -0.9219386), (-0.51277834, 0.74338144, -0.42946756), (-0.042192344, 0.0023874554, 0.9991067), (0.9999972, 0.002339744, 0.00042084613), (0.9999972, 0.0023397168, 0.0004206589), (0.9999972, 0.0023397168, 0.0004206589), (-0.025957843, 0.32115996, 0.94666916), (-0.042192344, 0.0023874554, 0.9991067), (-0.40313584, 0.0005395625, 0.91514), (-0.042192344, 0.0023874554, 0.9991067), (-0.025957843, 0.32115996, 0.94666916), (-0.025957843, 0.32115996, 0.94666916), (-0.036172803, 0.91667914, 0.3979837), (-0.40313584, 0.0005395625, 0.91514), (-0.40313584, 0.0005395625, 0.91514), (-0.7269309, 0.4143944, 0.54758453), (-0.7972185, -0.0012397777, 0.6036896), (-0.036172803, 0.91667914, 0.3979837), (-0.7269309, 0.4143944, 0.54758453), (-0.40313584, 0.0005395625, 0.91514), (-0.036172803, 0.91667914, 0.3979837), (-0.38826597, 0.92154735, -0.00018371709), (-0.7269309, 0.4143944, 0.54758453), (-0.0396078, -0.999215, 0.00073564565), (0.9999972, 0.002339548, 0.00042065894), (0.99999714, 0.0023432986, 0.00042567722), (0.99999714, 0.0023432986, 0.00042567722), (-0.022725426, -0.9468093, 0.32099208), (-0.0396078, -0.999215, 0.00073564565), (-0.40070894, -0.9162054, 0.00030714847), (-0.0396078, -0.999215, 0.00073564565), (-0.022725426, -0.9468093, 0.32099208), (-0.022725426, -0.9468093, 0.32099208), (-0.033308037, -0.39812467, 0.91672647), (-0.40070894, -0.9162054, 0.00030714847), (-0.40070894, -0.9162054, 0.00030714847), (-0.72462976, -0.5495381, 0.41583613), (-0.79548365, -0.605975, -0.00011559211), (-0.033308037, -0.39812467, 0.91672647), (-0.72462976, -0.5495381, 0.41583613), (-0.40070894, -0.9162054, 0.00030714847), (-0.033308037, -0.39812467, 0.91672647), (-0.30221727, -0.0013192034, 0.9532382), (-0.72462976, -0.5495381, 0.41583613), (-0.03723309, -0.0025881217, -0.9993032), (0.9999972, 0.0023397172, 0.000420938), (0.9999972, 0.0023359833, 0.00042552868), (0.9999972, 0.0023359833, 0.00042552868), (-0.023669222, -0.32074383, -0.94687027), (-0.03723309, -0.0025881217, -0.9993032), (-0.42225155, -0.0026461915, -0.9064748), (-0.03723309, -0.0025881217, -0.9993032), (-0.023669222, -0.32074383, -0.94687027), (-0.023669222, -0.32074383, -0.94687027), (-0.03153273, -0.9169455, -0.39776474), (-0.42225155, -0.0026461915, -0.9064748), (-0.42225155, -0.0026461915, -0.9064748), (-0.7245291, -0.4177398, -0.54822546), (-0.796532, -0.0024887964, -0.6045914), (-0.03153273, -0.9169455, -0.39776474), (-0.7245291, -0.4177398, -0.54822546), (-0.42225155, -0.0026461915, -0.9064748), (-0.03153273, -0.9169455, -0.39776474), (-0.29941234, -0.95412385, -0.00020521905), (-0.7245291, -0.4177398, -0.54822546), (-0.105372146, -0.0016617187, 0.9944315), (-0.016392542, -0.000126196, 0.9998657), (-0.9999972, -0.0023397207, -0.00040829502), (-0.9999972, -0.0023397207, -0.00040829502), (-0.114198305, -0.6862193, 0.71837443), (-0.105372146, -0.0016617187, 0.9944315), (-0.114198305, -0.6862193, 0.71837443), (-0.9999972, -0.0023397207, -0.00040829502), (-0.9999972, -0.0023396632, -0.00042065897), (-0.32348397, -0.004339475, 0.9462238), (-0.105372146, -0.0016617187, 0.9944315), (-0.114198305, -0.6862193, 0.71837443), (-0.114198305, -0.6862193, 0.71837443), (-0.56847495, -0.6392946, 0.5178211), (-0.32348397, -0.004339475, 0.9462238), (-0.86899686, -0.0028755441, 0.49480936), (-0.32348397, -0.004339475, 0.9462238), (-0.56847495, -0.6392946, 0.5178211), (-0.11201637, 0.9937063, 0.00035410348), (-0.06070583, 0.9981557, -0.0000050580147), (-0.9999972, -0.002339704, -0.00042064599), (-0.9999972, -0.002339704, -0.00042064599), (-0.12666593, 0.6230671, 0.7718441), (-0.11201637, 0.9937063, 0.00035410348), (-0.36013556, 0.93290013, 0.00003253112), (-0.11201637, 0.9937063, 0.00035410348), (-0.12666593, 0.6230671, 0.7718441), (-0.12666593, 0.6230671, 0.7718441), (-0.38220325, 0.75998664, 0.52568144), (-0.36013556, 0.93290013, 0.00003253112), (-0.86965, 0.4936689, -0.00026843132), (-0.36013556, 0.93290013, 0.00003253112), (-0.38220325, 0.75998664, 0.52568144), (-0.38220325, 0.75998664, 0.52568144), (-0.43020767, 0.0000099254285, 0.90273), (-0.86965, 0.4936689, -0.00026843132), (-0.03188472, 0.0009177051, -0.9994912), (-0.14382176, 0.6920988, -0.7073293), (-0.12090934, 0.0009731573, -0.992663), (-0.14382176, 0.6920988, -0.7073293), (-0.03188472, 0.0009177051, -0.9994912), (-0.9999972, -0.002339769, -0.00042065882), (-0.35789418, 0.0002681723, -0.9337622), (-0.12090934, 0.0009731573, -0.992663), (-0.14382176, 0.6920988, -0.7073293), (-0.14382176, 0.6920988, -0.7073293), (-0.38138145, 0.5247931, -0.76101273), (-0.35789418, 0.0002681723, -0.9337622), (-0.868606, -0.0014473847, -0.49550128), (-0.35789418, 0.0002681723, -0.9337622), (-0.38138145, 0.5247931, -0.76101273), (-0.38138145, 0.5247931, -0.76101273), (-0.44523978, 0.8954112, -0.00053411996), (-0.868606, -0.0014473847, -0.49550128), (-0.10123087, -0.9948629, -0.00048992573), (-0.9999972, -0.0023397168, -0.0004206589), (-0.9999972, -0.0023397487, -0.00042586768), (-0.9999972, -0.0023397487, -0.00042586768), (-0.12309576, -0.6235467, -0.77203435), (-0.10123087, -0.9948629, -0.00048992573), (-0.44260535, -0.89671654, -0.000317172), (-0.10123087, -0.9948629, -0.00048992573), (-0.12309576, -0.6235467, -0.77203435), (-0.12309576, -0.6235467, -0.77203435), (-0.37832963, -0.76174736, -0.525935), (-0.44260535, -0.89671654, -0.000317172), (-0.8874391, -0.4609249, -0.0005692009), (-0.44260535, -0.89671654, -0.000317172), (-0.37832963, -0.76174736, -0.525935), (-0.37832963, -0.76174736, -0.525935), (-0.44359535, -0.002134338, -0.8962247), (-0.8874391, -0.4609249, -0.0005692009), (-0.7245291, -0.4177398, -0.54822546), (-0.94961995, -0.23044224, -0.21241102), (-0.796532, -0.0024887964, -0.6045914), (-0.97586465, -0.0026246177, -0.21836087), (-0.796532, -0.0024887964, -0.6045914), (-0.94961995, -0.23044224, -0.21241102), (-0.9999929, -0.002369153, -0.0029292991), (-0.97586465, -0.0026246177, -0.21836087), (-0.94961995, -0.23044224, -0.21241102), (-0.29941234, -0.95412385, -0.00020521905), (-0.94961995, -0.23044224, -0.21241102), (-0.7245291, -0.4177398, -0.54822546), (-0.94961995, -0.23044224, -0.21241102), (-0.9999145, 0.00017973859, -0.013077892), (-0.9999929, -0.002369153, -0.0029292991), (-0.9980616, -0.002093771, 0.06219871), (-0.9999929, -0.002369153, -0.0029292991), (-0.9999145, 0.00017973859, -0.013077892), (-0.7245291, -0.4177398, -0.54822546), (-0.977417, -0.18883894, -0.094846316), (-0.94961995, -0.23044224, -0.21241102), (-0.9999145, 0.00017973859, -0.013077892), (-0.94961995, -0.23044224, -0.21241102), (-0.977417, -0.18883894, -0.094846316), (-0.9999145, 0.00017973859, -0.013077892), (-0.9999864, 0.003949106, -0.0034156092), (-0.9980616, -0.002093771, 0.06219871), (-0.9980616, -0.002093771, 0.06219871), (-0.9300519, 0.21696335, 0.2965305), (-0.89515203, -0.0012454147, 0.44575933), (-0.43020767, 0.0000099254285, 0.90273), (-0.89515203, -0.0012454147, 0.44575933), (-0.9300519, 0.21696335, 0.2965305), (-0.9999864, 0.003949106, -0.0034156092), (-0.9825237, 0.14165227, 0.12075565), (-0.9980616, -0.002093771, 0.06219871), (-0.9300519, 0.21696335, 0.2965305), (-0.9980616, -0.002093771, 0.06219871), (-0.9825237, 0.14165227, 0.12075565), (-0.9825237, 0.14165227, 0.12075565), (-0.9490315, 0.2371383, 0.2076166), (-0.9300519, 0.21696335, 0.2965305), (-0.9825237, 0.14165227, 0.12075565), (-0.9999864, 0.003949106, -0.0034156092), (-0.99996877, -0.005099262, 0.006039771), (-0.9300519, 0.21696335, 0.2965305), (-0.9490315, 0.2371383, 0.2076166), (-0.86965, 0.4936689, -0.00026843132), (-0.9996844, 0.025121562, -0.00038659188), (-0.86965, 0.4936689, -0.00026843132), (-0.9490315, 0.2371383, 0.2076166), (-0.9490315, 0.2371383, 0.2076166), (-0.9825237, 0.14165227, 0.12075565), (-0.9996844, 0.025121562, -0.00038659188), (-0.9825237, 0.14165227, 0.12075565), (-0.99996877, -0.005099262, 0.006039771), (-0.9996844, 0.025121562, -0.00038659188), (-0.9998903, -0.014810814, -0.00040419283), (-0.9996844, 0.025121562, -0.00038659188), (-0.99996877, -0.005099262, 0.006039771), (-0.99996877, -0.005099262, 0.006039771), (-0.99996656, -0.007824225, -0.002410918), (-0.9998903, -0.014810814, -0.00040419283), (-0.99996656, -0.007824225, -0.002410918), (-0.99996877, -0.005099262, 0.006039771), (-0.9999864, 0.003949106, -0.0034156092), (-0.9999864, 0.003949106, -0.0034156092), (-0.9999145, 0.00017973859, -0.013077892), (-0.99996656, -0.007824225, -0.002410918), (-0.94379133, -0.33054167, -0.00042183296), (-0.9998903, -0.014810814, -0.00040419283), (-0.99996656, -0.007824225, -0.002410918), (-0.977417, -0.18883894, -0.094846316), (-0.99996656, -0.007824225, -0.002410918), (-0.9999145, 0.00017973859, -0.013077892), (-0.99996656, -0.007824225, -0.002410918), (-0.977417, -0.18883894, -0.094846316), (-0.94379133, -0.33054167, -0.00042183296), (-0.6801686, -0.7330555, -0.0005131044), (-0.94379133, -0.33054167, -0.00042183296), (-0.977417, -0.18883894, -0.094846316), (-0.977417, -0.18883894, -0.094846316), (-0.94961995, -0.23044224, -0.21241102), (-0.6801686, -0.7330555, -0.0005131044), (-0.29941234, -0.95412385, -0.00020521905), (-0.6801686, -0.7330555, -0.0005131044), (-0.94961995, -0.23044224, -0.21241102), (-0.99966997, -0.0024927394, 0.025568582), (-0.86899686, -0.0028755441, 0.49480936), (-0.9046727, -0.32298526, 0.27793533), (-0.9046727, -0.32298526, 0.27793533), (-0.86899686, -0.0028755441, 0.49480936), (-0.56847495, -0.6392946, 0.5178211), (-0.9046727, -0.32298526, 0.27793533), (-0.98431396, -0.12672877, 0.1227427), (-0.99966997, -0.0024927394, 0.025568582), (-0.9046727, -0.32298526, 0.27793533), (-0.56847495, -0.6392946, 0.5178211), (-0.7814097, -0.6240185, 0.00013878626), (-0.98431396, -0.12672877, 0.1227427), (-0.99996525, -0.0079404805, -0.0025559785), (-0.99966997, -0.0024927394, 0.025568582), (-0.99991393, -0.002394475, -0.0128983045), (-0.99966997, -0.0024927394, 0.025568582), (-0.99996525, -0.0079404805, -0.0025559785), (-0.99996525, -0.0079404805, -0.0025559785), (-0.99997795, 0.0015525834, -0.006473251), (-0.99991393, -0.002394475, -0.0128983045), (-0.9446447, -0.0018847813, -0.32808974), (-0.99991393, -0.002394475, -0.0128983045), (-0.99997795, 0.0015525834, -0.006473251), (-0.99997795, 0.0015525834, -0.006473251), (-0.97147846, 0.16729997, -0.16804901), (-0.9446447, -0.0018847813, -0.32808974), (-0.6972228, -0.00080256775, -0.716854), (-0.9446447, -0.0018847813, -0.32808974), (-0.97147846, 0.16729997, -0.16804901), (-0.30151972, 0.000023038638, -0.95346004), (-0.6972228, -0.00080256775, -0.716854), (-0.97147846, 0.16729997, -0.16804901), (-0.30151972, 0.000023038638, -0.95346004), (-0.97147846, 0.16729997, -0.16804901), (-0.7769235, 0.2413314, -0.5815061), (-0.7769235, 0.2413314, -0.5815061), (-0.5475594, 0.83676666, -0.00051712943), (-0.30151972, 0.000023038638, -0.95346004), (-0.97147846, 0.16729997, -0.16804901), (-0.99997795, 0.0015525834, -0.006473251), (-0.9999684, 0.0074971085, 0.00266562), (-0.97147846, 0.16729997, -0.16804901), (-0.5475594, 0.83676666, -0.00051712943), (-0.7769235, 0.2413314, -0.5815061), (-0.5475594, 0.83676666, -0.00051712943), (-0.97147846, 0.16729997, -0.16804901), (-0.94829005, 0.3174048, -0.00057271717), (-0.9999956, 0.0029649206, -0.0004251354), (-0.94829005, 0.3174048, -0.00057271717), (-0.97147846, 0.16729997, -0.16804901), (-0.97147846, 0.16729997, -0.16804901), (-0.9999684, 0.0074971085, 0.00266562), (-0.9999956, 0.0029649206, -0.0004251354), (-0.9967005, -0.081166014, -0.0003561484), (-0.9999956, 0.0029649206, -0.0004251354), (-0.9999684, 0.0074971085, 0.00266562), (-0.9999684, 0.0074971085, 0.00266562), (-0.9999795, 0.0010826578, 0.006325332), (-0.9967005, -0.081166014, -0.0003561484), (-0.9999795, 0.0010826578, 0.006325332), (-0.9999684, 0.0074971085, 0.00266562), (-0.99997795, 0.0015525834, -0.006473251), (-0.99997795, 0.0015525834, -0.006473251), (-0.99996525, -0.0079404805, -0.0025559785), (-0.9999795, 0.0010826578, 0.006325332), (-0.98431396, -0.12672877, 0.1227427), (-0.9999795, 0.0010826578, 0.006325332), (-0.99996525, -0.0079404805, -0.0025559785), (-0.9999795, 0.0010826578, 0.006325332), (-0.98431396, -0.12672877, 0.1227427), (-0.9967005, -0.081166014, -0.0003561484), (-0.7814097, -0.6240185, 0.00013878626), (-0.9967005, -0.081166014, -0.0003561484), (-0.98431396, -0.12672877, 0.1227427), (-0.98431396, -0.12672877, 0.1227427), (-0.9046727, -0.32298526, 0.27793533), (-0.7814097, -0.6240185, 0.00013878626), (-0.72462976, -0.5495381, 0.41583613), (-0.9498257, -0.2142729, 0.22785576), (-0.79548365, -0.605975, -0.00011559211), (-0.9754664, -0.22014862, -0.0003011659), (-0.79548365, -0.605975, -0.00011559211), (-0.9498257, -0.2142729, 0.22785576), (-0.9999889, -0.0046968907, -0.00041297037), (-0.9754664, -0.22014862, -0.0003011659), (-0.9498257, -0.2142729, 0.22785576), (-0.30221727, -0.0013192034, 0.9532382), (-0.9498257, -0.2142729, 0.22785576), (-0.72462976, -0.5495381, 0.41583613), (-0.9498257, -0.2142729, 0.22785576), (-0.99988323, -0.014995784, -0.0029379702), (-0.9999889, -0.0046968907, -0.00041297037), (-0.9980752, 0.06201494, -0.00048741794), (-0.9999889, -0.0046968907, -0.00041297037), (-0.99988323, -0.014995784, -0.0029379702), (-0.72462976, -0.5495381, 0.41583613), (-0.97775376, -0.09670475, 0.1861338), (-0.9498257, -0.2142729, 0.22785576), (-0.99988323, -0.014995784, -0.0029379702), (-0.9498257, -0.2142729, 0.22785576), (-0.97775376, -0.09670475, 0.1861338), (-0.99988323, -0.014995784, -0.0029379702), (-0.99996334, -0.0053323186, -0.0067067086), (-0.9980752, 0.06201494, -0.00048741794), (-0.9980752, 0.06201494, -0.00048741794), (-0.9300279, 0.2947318, -0.21950243), (-0.89588326, 0.44428915, -0.0006634992), (-0.44523978, 0.8954112, -0.00053411996), (-0.89588326, 0.44428915, -0.0006634992), (-0.9300279, 0.2947318, -0.21950243), (-0.99996334, -0.0053323186, -0.0067067086), (-0.9823643, 0.11883878, -0.14435346), (-0.9980752, 0.06201494, -0.00048741794), (-0.9300279, 0.2947318, -0.21950243), (-0.9980752, 0.06201494, -0.00048741794), (-0.9823643, 0.11883878, -0.14435346), (-0.9823643, 0.11883878, -0.14435346), (-0.9487714, 0.20574091, -0.2397993), (-0.9300279, 0.2947318, -0.21950243), (-0.9823643, 0.11883878, -0.14435346), (-0.99996334, -0.0053323186, -0.0067067086), (-0.99998885, 0.0041248836, 0.0023417086), (-0.9300279, 0.2947318, -0.21950243), (-0.9487714, 0.20574091, -0.2397993), (-0.868606, -0.0014473847, -0.49550128), (-0.99963284, -0.0021948726, -0.027008532), (-0.868606, -0.0014473847, -0.49550128), (-0.9487714, 0.20574091, -0.2397993), (-0.9487714, 0.20574091, -0.2397993), (-0.9823643, 0.11883878, -0.14435346), (-0.99963284, -0.0021948726, -0.027008532), (-0.9823643, 0.11883878, -0.14435346), (-0.99998885, 0.0041248836, 0.0023417086), (-0.99963284, -0.0021948726, -0.027008532), (-0.99992436, -0.0022813464, 0.01208424), (-0.99963284, -0.0021948726, -0.027008532), (-0.99998885, 0.0041248836, 0.0023417086), (-0.99998885, 0.0041248836, 0.0023417086), (-0.9999779, -0.0043294695, 0.0050631827), (-0.99992436, -0.0022813464, 0.01208424), (-0.9999779, -0.0043294695, 0.0050631827), (-0.99998885, 0.0041248836, 0.0023417086), (-0.99996334, -0.0053323186, -0.0067067086), (-0.99996334, -0.0053323186, -0.0067067086), (-0.99988323, -0.014995784, -0.0029379702), (-0.9999779, -0.0043294695, 0.0050631827), (-0.9448437, -0.0024134174, 0.32751268), (-0.99992436, -0.0022813464, 0.01208424), (-0.9999779, -0.0043294695, 0.0050631827), (-0.97775376, -0.09670475, 0.1861338), (-0.9999779, -0.0043294695, 0.0050631827), (-0.99988323, -0.014995784, -0.0029379702), (-0.9999779, -0.0043294695, 0.0050631827), (-0.97775376, -0.09670475, 0.1861338), (-0.9448437, -0.0024134174, 0.32751268), (-0.68298274, -0.002692973, 0.7304296), (-0.9448437, -0.0024134174, 0.32751268), (-0.97775376, -0.09670475, 0.1861338), (-0.97775376, -0.09670475, 0.1861338), (-0.9498257, -0.2142729, 0.22785576), (-0.68298274, -0.002692973, 0.7304296), (-0.30221727, -0.0013192034, 0.9532382), (-0.68298274, -0.002692973, 0.7304296), (-0.9498257, -0.2142729, 0.22785576), (-0.7269309, 0.4143944, 0.54758453), (-0.95085764, 0.22598554, 0.21166107), (-0.7972185, -0.0012397777, 0.6036896), (-0.9760263, -0.0019426022, 0.21764435), (-0.7972185, -0.0012397777, 0.6036896), (-0.95085764, 0.22598554, 0.21166107), (-0.9999951, -0.0023102795, 0.0020879782), (-0.9760263, -0.0019426022, 0.21764435), (-0.95085764, 0.22598554, 0.21166107), (-0.38826597, 0.92154735, -0.00018371709), (-0.95085764, 0.22598554, 0.21166107), (-0.7269309, 0.4143944, 0.54758453), (-0.95085764, 0.22598554, 0.21166107), (-0.99991345, -0.0048554335, 0.012235254), (-0.9999951, -0.0023102795, 0.0020879782), (-0.997932, -0.0025859862, -0.064226426), (-0.9999951, -0.0023102795, 0.0020879782), (-0.99991345, -0.0048554335, 0.012235254), (-0.7269309, 0.4143944, 0.54758453), (-0.9783731, 0.18425234, 0.09400613), (-0.95085764, 0.22598554, 0.21166107), (-0.99991345, -0.0048554335, 0.012235254), (-0.95085764, 0.22598554, 0.21166107), (-0.9783731, 0.18425234, 0.09400613), (-0.99991345, -0.0048554335, 0.012235254), (-0.9999595, -0.008627889, 0.0025745346), (-0.997932, -0.0025859862, -0.064226426), (-0.997932, -0.0025859862, -0.064226426), (-0.9287761, -0.22138895, -0.29725757), (-0.8947995, -0.0031071657, -0.4464576), (-0.44359535, -0.002134338, -0.8962247), (-0.8947995, -0.0031071657, -0.4464576), (-0.9287761, -0.22138895, -0.29725757), (-0.9999595, -0.008627889, 0.0025745346), (-0.9817544, -0.14624716, -0.121532485), (-0.997932, -0.0025859862, -0.064226426), (-0.9287761, -0.22138895, -0.29725757), (-0.997932, -0.0025859862, -0.064226426), (-0.9817544, -0.14624716, -0.121532485), (-0.9817544, -0.14624716, -0.121532485), (-0.94774246, -0.24161686, -0.20834003), (-0.9287761, -0.22138895, -0.29725757), (-0.9817544, -0.14624716, -0.121532485), (-0.9999595, -0.008627889, 0.0025745346), (-0.9999763, 0.00041877356, -0.0068809534), (-0.9287761, -0.22138895, -0.29725757), (-0.94774246, -0.24161686, -0.20834003), (-0.8874391, -0.4609249, -0.0005692009), (-0.9995558, -0.029799215, -0.00045440864), (-0.8874391, -0.4609249, -0.0005692009), (-0.94774246, -0.24161686, -0.20834003), (-0.94774246, -0.24161686, -0.20834003), (-0.9817544, -0.14624716, -0.121532485), (-0.9995558, -0.029799215, -0.00045440864), (-0.9817544, -0.14624716, -0.121532485), (-0.9999763, 0.00041877356, -0.0068809534), (-0.9995558, -0.029799215, -0.00045440864), (-0.9998844, 0.015197634, -0.00044066567), (-0.9995558, -0.029799215, -0.00045440864), (-0.9999763, 0.00041877356, -0.0068809534), (-0.9999763, 0.00041877356, -0.0068809534), (-0.9999939, 0.0031452132, 0.0015697568), (-0.9998844, 0.015197634, -0.00044066567), (-0.9999939, 0.0031452132, 0.0015697568), (-0.9999763, 0.00041877356, -0.0068809534), (-0.9999595, -0.008627889, 0.0025745346), (-0.9999595, -0.008627889, 0.0025745346), (-0.99991345, -0.0048554335, 0.012235254), (-0.9999939, 0.0031452132, 0.0015697568), (-0.9625661, 0.27104712, -0.00035501193), (-0.9998844, 0.015197634, -0.00044066567), (-0.9999939, 0.0031452132, 0.0015697568), (-0.9783731, 0.18425234, 0.09400613), (-0.9999939, 0.0031452132, 0.0015697568), (-0.99991345, -0.0048554335, 0.012235254), (-0.9999939, 0.0031452132, 0.0015697568), (-0.9783731, 0.18425234, 0.09400613), (-0.9625661, 0.27104712, -0.00035501193), (-0.7745624, 0.63249755, -0.00011459337), (-0.9625661, 0.27104712, -0.00035501193), (-0.9783731, 0.18425234, 0.09400613), (-0.9783731, 0.18425234, 0.09400613), (-0.95085764, 0.22598554, 0.21166107), (-0.7745624, 0.63249755, -0.00011459337), (-0.38826597, 0.92154735, -0.00018371709), (-0.7745624, 0.63249755, -0.00011459337), (-0.95085764, 0.22598554, 0.21166107), (0.9999972, 0.0023397172, 0.000420938), (0.9999972, 0.0023397633, 0.0004206986), (0.9999972, 0.0023397438, 0.00042086083), (0.9999972, 0.0023397438, 0.00042086083), (0.9999972, 0.0023397147, 0.00042105658), (0.9999972, 0.0023397172, 0.000420938), (0.9999972, 0.0023397633, 0.0004206986), (0.9999972, 0.0023397168, 0.0004206589), (0.9999972, 0.0023397438, 0.00042086083), (0.9999972, 0.0023359833, 0.00042552868), (0.9999972, 0.0023397172, 0.000420938), (0.9999972, 0.0023397147, 0.00042105658), (0.9999972, 0.0023397168, 0.0004206589), (0.9999972, 0.0023397168, 0.0004206589), (0.9999972, 0.0023397438, 0.00042086083), (0.9999972, 0.0023397168, 0.0004206589), (0.9999972, 0.0023397438, 0.00042086083), (0.9999972, 0.0023397168, 0.0004206589), (0.9999972, 0.002339422, 0.00042063405), (0.9999972, 0.0023359833, 0.00042552868), (0.9999972, 0.0023397147, 0.00042105658), (0.9999972, 0.0023397168, 0.0004206589), (0.9999972, 0.0023397168, 0.0004206589), (0.9999972, 0.0023397168, 0.0004206589), (0.9999972, 0.0023397168, 0.0004206589), (0.9999972, 0.0023397168, 0.0004206589), (0.9999972, 0.0023397168, 0.0004206589), (0.9999972, 0.0023397147, 0.00042105658), (0.9999972, 0.0023395645, 0.00042064607), (0.9999972, 0.002339422, 0.00042063405), (0.9999972, 0.002339548, 0.00042065894), (0.9999972, 0.002339422, 0.00042063405), (0.9999972, 0.0023395645, 0.00042064607), (0.9999972, 0.0023395645, 0.00042064607), (0.9999972, 0.0023397263, 0.00042067253), (0.9999972, 0.002339548, 0.00042065894), (0.9999972, 0.0023397168, 0.0004206589), (0.9999972, 0.0023397168, 0.0004206589), (0.9999972, 0.0023397168, 0.0004206589), (0.99999714, 0.0023432986, 0.00042567722), (0.9999972, 0.002339548, 0.00042065894), (0.9999972, 0.0023397263, 0.00042067253), (0.9999972, 0.0023397817, 0.00042057628), (0.9999972, 0.0023397168, 0.0004206589), (0.9999972, 0.0023397168, 0.0004206589), (0.9999972, 0.0023397168, 0.0004206589), (0.9999972, 0.002339744, 0.00042084613), (0.9999972, 0.0023397817, 0.00042057628), (0.9999972, 0.0023397158, 0.00042105693), (0.99999714, 0.0023432986, 0.00042567722), (0.9999972, 0.0023397263, 0.00042067253), (0.9999972, 0.0023397438, 0.0004208638), (0.9999972, 0.0023397817, 0.00042057628), (0.9999972, 0.002339744, 0.00042084613), (0.9999972, 0.0023397263, 0.00042067253), (0.9999972, 0.0023397438, 0.0004208638), (0.9999972, 0.0023397158, 0.00042105693), (0.9999972, 0.002339744, 0.00042084613), (0.9999972, 0.0023397158, 0.00042105693), (0.9999972, 0.0023397438, 0.0004208638)] (
        interpolation = "faceVarying"
    )
    point3f[] points = [(-0.053626426, 0.14080928, -0.58014673), (-0.053623807, 0.13987586, -0.5812134), (-0.052969806, -0.13963045, -0.5812962), (-0.05362173, 0.13901472, -0.5813525), (-0.05411452, 0.1411319, 0.578329), (-0.053454544, -0.14104092, 0.5789132), (-0.052967157, -0.14085418, -0.5807867), (-0.054113843, 0.14062254, 0.57955265), (-0.05296648, -0.14136353, -0.57956237), (-0.05345808, -0.13973841, 0.58003885), (-0.054111194, 0.13939881, 0.5800622), (-0.058603853, 0.14152649, -0.58400553), (-0.05865354, 0.15565266, -0.59833837), (-0.05792425, -0.15605481, -0.5983006), (-0.0579407, -0.14191969, -0.5839714), (-0.05793661, -0.14404888, -0.58184403), (-0.05791978, -0.15838172, -0.59596974), (-0.058421016, -0.15823853, 0.5947739), (-0.058425948, -0.14390916, 0.5806385), (-0.058431808, -0.14178143, 0.5827675), (-0.05842745, -0.15590769, 0.59710085), (-0.059156742, 0.1557999, 0.59706306), (-0.05909499, 0.14166477, 0.58273315), (-0.05909908, 0.14379396, 0.5806056), (-0.059161205, 0.15812668, 0.5947318), (-0.058659974, 0.15798348, -0.5960123), (-0.058609743, 0.14365423, -0.58187693), (0.27084455, 0.016167078, 0.3285267), (0.27112153, 0.016087964, -0.3294908), (0.24444813, 0.016025556, -0.32950202), (0.24417114, 0.01610467, 0.3285155), (0.270917, -0.014800854, 0.32853046), (0.24424359, -0.014863263, 0.32851925), (0.271194, -0.014879967, -0.32948706), (0.24452057, -0.014942376, -0.32949826), (0.24586914, -0.004583372, -0.30822086), (0.24586903, -0.0047214897, -0.30717102), (0.22356376, -0.004773678, -0.3071804), (0.22356388, -0.00463556, -0.30823025), (0.24560726, -0.00450857, 0.31393972), (0.24560714, -0.004646688, 0.31498954), (0.22330186, -0.004698876, 0.31498015), (0.22330198, -0.004560758, 0.31393033), (-0.05717429, 0.16027194, -0.6004235), (-0.057372257, 0.15905066, -0.600849), (-0.057830315, 0.16014166, -0.59927326), (-0.05730758, -0.14160912, -0.58175534), (-0.05713704, -0.14209598, -0.58049655), (-0.056773245, -0.14053991, -0.5816231), (-0.05779623, -0.14169164, 0.5803299), (-0.057629447, -0.14043263, 0.5808172), (-0.057259217, -0.14155856, 0.579262), (-0.058458567, 0.14135723, 0.5805178), (-0.05828924, 0.14184482, 0.579259), (-0.057919137, 0.14029047, 0.58038604), (-0.05611611, 0.16113584, 0.5982851), (-0.040388536, 0.16116649, 0.5983324), (-0.03988428, 0.16102247, -0.59959316), (-0.05598167, 0.16096793, -0.59944594), (-0.05786523, 0.16056287, 0.5984576), (-0.058595505, 0.16013806, 0.5971679), (-0.055366836, -0.15945217, 0.6001041), (-0.03963911, -0.15945612, 0.6001042), (-0.04038521, 0.15943341, 0.6000655), (-0.05611271, 0.15935586, 0.6000654), (-0.05711649, -0.15962961, 0.59953433), (-0.057493202, 0.15918589, 0.5998345), (-0.05785117, -0.1583417, 0.59911096), (-0.058591865, 0.15823346, 0.5990726), (-0.054857653, -0.16137658, -0.59952), (-0.03913007, -0.16133365, -0.5995541), (-0.039634313, -0.16118962, 0.59837145), (-0.055361874, -0.16123256, 0.5983241), (-0.056609288, -0.16081183, -0.59969455), (-0.056743395, -0.16100557, 0.59815663), (-0.057342626, -0.16039042, -0.5984051), (-0.057845924, -0.16024667, 0.5972068), (-0.05560699, 0.15921143, -0.60133946), (-0.039879493, 0.15928896, -0.6013267), (-0.03913338, -0.15960056, -0.601288), (-0.054861084, -0.15959662, -0.6013008), (-0.056242593, -0.15943307, -0.601071), (-0.058086965, 0.15808934, -0.60034835), (-0.057346296, -0.15848593, -0.60030997), (-0.055387054, -0.1395485, -0.5813471), (-0.056039155, 0.13916591, -0.58138084), (-0.05705033, 0.13946113, -0.58158755), (-0.057814486, 0.1403767, -0.5819854), (-0.055870883, -0.14127973, 0.57827455), (-0.05538351, -0.14141893, -0.57947576), (-0.056393467, -0.14162758, -0.57977456), (-0.056528136, 0.13930555, 0.580111), (-0.055876035, -0.13940892, 0.5801448), (-0.056885973, -0.13970888, 0.5803505), (-0.056044362, 0.1410367, -0.5795099), (-0.05653174, 0.14117591, 0.5782404), (-0.057055283, 0.14124063, -0.5798088), (-0.05754288, 0.1413799, 0.57853746), (-0.058003888, 0.1419073, -0.58052385), (0.2317205, -0.0033836367, -0.30538118), (0.2322162, -0.0023134851, -0.30478084), (-0.04560619, 0.15233651, -0.30527374), (-0.045016576, 0.15360911, -0.3049163), (0.2326976, -0.001274805, -0.3049553), (-0.04463097, 0.15444078, -0.3052706), (-0.045888875, 0.15172583, -0.3059235), (0.23148341, -0.003896121, -0.30629095), (-0.045987938, 0.15151095, -0.30707392), (0.23148939, -0.0038842303, -0.30725485), (-0.045818254, 0.15187588, -0.3082245), (0.23180203, -0.0032109, -0.30847046), (-0.04542576, 0.1527221, -0.3089105), (0.23218009, -0.0023955728, -0.30886817), (-0.04501485, 0.15360862, -0.30901536), (0.23269919, -0.0012752559, -0.30870533), (-0.044629544, 0.15444036, -0.30866092), (0.23309682, -0.0005097074, -0.30812162), (-0.044325747, 0.15509674, -0.30775675), (0.23317201, -0.00031774116, -0.30689907), (-0.04426243, 0.1552344, -0.30678585), (0.2329491, -0.000039242193, -0.3059124), (-0.044370316, 0.1550024, -0.30592325), (0.23294984, -0.0007310999, -0.30535567), (0.2315696, 0.0028392454, -0.30854914), (0.23198786, 0.0019484287, -0.30943355), (-0.045056377, -0.15411024, -0.30896318), (-0.044519972, -0.15525307, -0.3096708), (0.23243855, 0.0009880073, -0.30957302), (-0.04403384, -0.15628938, -0.3094961), (0.23276663, 0.00028850042, -0.30932924), (-0.045281697, -0.15363096, -0.30780223), (0.23144747, 0.0030986709, -0.30734488), (-0.045203026, -0.15379941, -0.3067475), (0.23160252, 0.002767378, -0.3063381), (-0.044941418, -0.15435761, -0.30598152), (0.23202185, 0.0018730119, -0.30557936), (-0.044559896, -0.15517117, -0.3055841), (0.23243682, 0.0009885001, -0.3054745), (-0.044035416, -0.15628894, -0.3057457), (-0.04371018, -0.15698166, -0.30636275), (-0.043530766, -0.1573632, -0.30744135), (-0.043594707, -0.15722618, -0.30841222), (-0.043779403, -0.156832, -0.30909476), (0.22355753, -0.0027443, -0.30366626), (0.22355977, -0.003584829, -0.30431068), (0.24586505, -0.0035326406, -0.3043013), (0.24586281, -0.0026921118, -0.30365688), (0.22355507, -0.0017657077, -0.3032611), (0.24586034, -0.0017135196, -0.3032517), (0.22355255, -0.0007154317, -0.3031233), (0.24585783, -0.0006632435, -0.3031139), (0.22355016, 0.00033481125, -0.30326137), (0.24585544, 0.00038699943, -0.30325198), (0.22354804, 0.0013134585, -0.30366677), (0.2458533, 0.0013656467, -0.30365738), (0.22354634, 0.002153833, -0.30431136), (0.24585162, 0.002206021, -0.30430198), (0.24586691, -0.0041775764, -0.30514228), (0.22356163, -0.004229765, -0.30515167), (0.24586827, -0.0045831194, -0.30612004), (0.22356299, -0.0046353075, -0.30612943), (0.24586861, -0.0041780644, -0.3091999), (0.22356334, -0.0042302525, -0.3092093), (0.24586746, -0.0035333307, -0.31003982), (0.22356218, -0.0035855188, -0.3100492), (0.24586576, -0.002692957, -0.31068566), (0.22356048, -0.002745145, -0.31069505), (0.24586365, -0.0017144621, -0.31109107), (0.22355837, -0.0017666502, -0.31110045), (0.24586125, -0.0006642192, -0.31122914), (0.22355597, -0.0007164074, -0.31123853), (0.24585873, 0.0003860569, -0.31109133), (0.22355345, 0.00033386872, -0.31110072), (0.24585627, 0.0013648017, -0.31068617), (0.22355099, 0.0013126135, -0.31069556), (0.24585404, 0.002205331, -0.3100405), (0.22354876, 0.0021531428, -0.3100499), (0.24585217, 0.0028502666, -0.30920076), (0.22354689, 0.0027980783, -0.30921015), (0.2458508, 0.0032558094, -0.30822182), (0.22354554, 0.0032036211, -0.30823117), (0.24585004, 0.0033941797, -0.307172), (0.22354476, 0.0033419917, -0.3071814), (0.24584992, 0.003256062, -0.306121), (0.22354464, 0.0032038738, -0.30613035), (0.24585046, 0.0028507544, -0.30514315), (0.22354518, 0.0027985664, -0.30515254), (0.23145862, -0.0033088345, 0.3167794), (0.23195429, -0.002238683, 0.31737974), (-0.04586808, 0.15241131, 0.31688684), (-0.04527847, 0.15368392, 0.3172443), (0.23243572, -0.0012000029, 0.31720528), (-0.044892866, 0.15451556, 0.31688997), (-0.04615077, 0.15180063, 0.3162371), (0.23122153, -0.003821319, 0.3158696), (-0.04624983, 0.15158576, 0.31508666), (0.23122749, -0.003809428, 0.31490573), (-0.046080146, 0.15195069, 0.31393605), (0.23154014, -0.0031360977, 0.3136901), (-0.045687657, 0.15279691, 0.3132501), (0.2319182, -0.0023207706, 0.3132924), (-0.045276742, 0.15368342, 0.3131452), (0.2324373, -0.0012004537, 0.31345528), (-0.04489144, 0.15451516, 0.31349966), (0.23283494, -0.00043490526, 0.3140388), (-0.044587642, 0.15517154, 0.31440383), (0.23291011, -0.00024293902, 0.3152615), (-0.044524327, 0.1553092, 0.31537473), (0.23268719, 0.000035559846, 0.31624767), (-0.04463221, 0.1550772, 0.31623733), (0.23268795, -0.0006562978, 0.3168049), (0.23144624, 0.002619138, 0.31318673), (0.23194744, 0.0015513184, 0.31258678), (-0.045148507, -0.15439703, 0.31284627), (-0.044552643, -0.15566684, 0.3124893), (0.23243357, 0.0005150547, 0.3127617), (-0.044163465, -0.1564966, 0.31284404), (-0.04543461, -0.15378769, 0.3134958), (0.23120598, 0.0031305053, 0.3140963), (-0.045535658, -0.15357326, 0.3146461), (0.23121122, 0.0031186407, 0.31506017), (-0.04536522, -0.15393738, 0.31579685), (0.23152599, 0.0024467781, 0.31627607), (-0.04496934, -0.15478179, 0.31648317), (0.23190753, 0.0016332283, 0.31667408), (-0.04455437, -0.15566635, 0.31658843), (0.23228952, 0.0008190433, 0.31665075), (-0.044164892, -0.1564962, 0.3162343), (-0.043857265, -0.15715118, 0.31533036), (-0.04379251, -0.15728845, 0.31435955), (-0.043900736, -0.15705712, 0.31349686), (0.22329563, -0.0026694979, 0.31849432), (0.22329788, -0.0035100267, 0.31784987), (0.24560314, -0.0034578387, 0.31785926), (0.24560091, -0.0026173098, 0.3185037), (0.22329317, -0.0016909057, 0.31889948), (0.24559845, -0.0016387175, 0.31890887), (0.22329067, -0.00064062956, 0.31903726), (0.24559593, -0.0005884414, 0.31904665), (0.22328827, 0.0004096134, 0.3188992), (0.24559353, 0.00046180157, 0.3189086), (0.22328614, 0.0013882607, 0.3184938), (0.24559142, 0.0014404489, 0.3185032), (0.22328445, 0.002228635, 0.3178492), (0.24558972, 0.0022808232, 0.31785858), (0.245605, -0.0041027744, 0.3170183), (0.22329974, -0.0041549625, 0.3170089), (0.24560638, -0.004508317, 0.31603932), (0.2233011, -0.0045605055, 0.31602994), (0.24560672, -0.0041032624, 0.31296068), (0.22330144, -0.0041554505, 0.3129513), (0.24560556, -0.0034585285, 0.31212074), (0.2233003, -0.0035107166, 0.31211135), (0.24560387, -0.0026181547, 0.3114749), (0.2232986, -0.002670343, 0.3114655), (0.24560176, -0.00163966, 0.31106952), (0.22329648, -0.0016918482, 0.31106013), (0.24559936, -0.00058941706, 0.3109314), (0.22329408, -0.00064160523, 0.31092203), (0.24559684, 0.00046085904, 0.31106925), (0.22329156, 0.00040867086, 0.31105986), (0.24559438, 0.0014396039, 0.31147438), (0.2232891, 0.0013874156, 0.311465), (0.24559213, 0.0022801333, 0.31212005), (0.22328687, 0.002227945, 0.31211066), (0.24559027, 0.0029250688, 0.31295982), (0.223285, 0.0028728805, 0.31295043), (0.24558891, 0.0033306114, 0.31393877), (0.22328363, 0.0032784233, 0.3139294), (0.24558815, 0.003468982, 0.31498855), (0.22328287, 0.0034167937, 0.31497917), (0.24558803, 0.003330864, 0.31603837), (0.22328275, 0.0032786757, 0.316029), (0.24558857, 0.0029255566, 0.31701744), (0.22328329, 0.0028733683, 0.31700805), (-0.057806384, -0.15758146, -0.5993618), (-0.05854283, 0.15718298, -0.5993999), (-0.057633344, -0.1407304, -0.5826535), (-0.05830535, -0.15929878, 0.5963008), (-0.057802826, -0.15944232, -0.59750044), (-0.058117844, -0.14259063, 0.57944983), (-0.059046917, 0.15732701, 0.5981232), (-0.05831047, -0.15743749, 0.59816134), (-0.05878097, 0.14047691, 0.58141625), (-0.05846067, 0.1592939, -0.59773266), (-0.059050504, 0.15918781, 0.59626216), (-0.056876402, 0.16061985, 0.59941685), (-0.040387858, 0.16065712, 0.599556), (-0.056138255, 0.160523, 0.5996743), (-0.056124955, -0.16058639, 0.5995894), (-0.039636035, -0.16067992, 0.59959495), (-0.05538627, -0.160842, 0.59949064), (-0.05561941, -0.16086417, -0.6006532), (-0.039130747, -0.16082428, -0.6007785), (-0.054881494, -0.16076386, -0.6009104), (-0.056324672, 0.16025142, -0.60093564), (-0.03988257, 0.16051282, -0.60081744), (-0.055633478, 0.16060115, -0.60072684), (-0.05500003, -0.14083585, -0.5807646), (-0.055542856, -0.14099996, -0.58079374), (-0.05548846, -0.14069635, 0.5795624), (-0.056031696, -0.14072669, 0.57972544), (-0.05614659, 0.14059469, 0.57952833), (-0.056690216, 0.14075626, 0.57955754), (-0.057159577, 0.14097331, -0.5809105), (-0.055656575, 0.14048295, -0.5808264), (-0.05834815, 0.1595356, 0.599075), (-0.057599705, -0.16024879, 0.5985078), (-0.057096504, -0.1597869, -0.6003128), (-0.057660315, -0.1591651, -0.59931636), (-0.05792101, -0.15751815, -0.59785914), (-0.057816107, -0.15902288, -0.5985926), (-0.05795966, -0.14351512, -0.58386123), (-0.057895936, -0.14300501, -0.5829272), (-0.0576298, -0.14236918, -0.5819594), (-0.05795854, -0.14411531, -0.58319163), (-0.05791989, -0.1581175, -0.5971889), (-0.058294598, 0.14179997, -0.5821511), (-0.058564182, 0.14261025, -0.58296186), (-0.058630295, 0.14312112, -0.583896), (-0.058657154, 0.1571182, -0.5978979), (-0.058500595, 0.1585262, -0.5990482), (-0.05832793, 0.15916818, -0.59952337), (-0.058658842, 0.15771857, -0.5972284), (-0.05863198, 0.14372064, -0.58322525), (-0.058163725, -0.15925369, 0.5978845), (-0.058422666, -0.15779702, 0.5962369), (-0.058320507, -0.1585301, 0.5977421), (-0.058449525, -0.14379935, 0.58223367), (-0.058386184, -0.14286499, 0.5817244), (-0.058120158, -0.14189601, 0.5810892), (-0.058451347, -0.14312933, 0.5828348), (-0.058424488, -0.15712602, 0.5968367), (-0.058908224, 0.15891114, 0.5980786), (-0.05915998, 0.1572631, 0.59662104), (-0.059062734, 0.15876833, 0.59735453), (-0.05912133, 0.14326009, 0.58262366), (-0.05905443, 0.14275028, 0.5816898), (-0.05878451, 0.1421157, 0.58072084), (-0.05912245, 0.14386027, 0.58195406), (-0.0591611, 0.15786247, 0.5959502), (-0.039787438, 0.11337349, -0.5647764), (-0.03925622, -0.11367634, -0.5647489), (-0.03978842, 0.11365406, -0.564001), (-0.040262707, 0.11368608, 0.5632962), (-0.039255872, -0.113956854, -0.5639734), (-0.039730642, -0.11371769, 0.5633238), (-0.04026176, 0.11320699, 0.5637149), (-0.03973194, -0.113238454, 0.5637424)]
}

