#usda 1.0
(
    defaultPrim = "SM_TV_Wandboard2"
    upAxis = "Z"
)

def Mesh "SM_TV_Wandboard2"
{
    int[] faceVertexCounts = [3, 3, 3, 3, 3, 3, 3, 3, 3, 3, 3, 3, 3, 3, 3, 3, 3, 3, 3, 3, 3, 3, 3, 3, 3, 3, 3, 3, 3, 3, 3, 3, 3, 3, 3, 3, 3, 3, 3, 3, 3, 3, 3, 3, 3, 3, 3, 3, 3, 3, 3, 3, 3, 3, 3, 3, 3, 3, 3, 3, 3, 3, 3, 3, 3, 3, 3, 3, 3, 3, 3, 3, 3, 3, 3, 3, 3, 3, 3, 3, 3, 3, 3, 3, 3, 3, 3, 3, 3, 3, 3, 3, 3, 3, 3, 3, 3, 3, 3, 3, 3, 3, 3, 3, 3, 3, 3, 3, 3, 3, 3, 3, 3, 3, 3, 3, 3, 3, 3, 3, 3, 3, 3, 3, 3, 3, 3, 3, 3, 3, 3, 3, 3, 3, 3, 3, 3, 3, 3, 3, 3, 3, 3, 3, 3, 3, 3, 3, 3, 3, 3, 3, 3, 3, 3, 3, 3, 3, 3, 3, 3, 3, 3, 3, 3, 3, 3, 3, 3, 3, 3, 3, 3, 3, 3, 3, 3, 3, 3, 3, 3, 3, 3, 3, 3, 3, 3, 3, 3, 3, 3, 3, 3, 3, 3, 3, 3, 3, 3, 3, 3, 3, 3, 3, 3, 3, 3, 3, 3, 3, 3, 3, 3, 3, 3, 3, 3, 3, 3, 3, 3, 3, 3, 3, 3, 3, 3, 3, 3, 3, 3, 3, 3, 3, 3, 3, 3, 3, 3, 3, 3, 3, 3, 3, 3, 3, 3, 3, 3, 3, 3, 3, 3, 3, 3, 3, 3, 3, 3, 3, 3, 3, 3, 3, 3, 3, 3, 3, 3, 3, 3, 3, 3, 3, 3, 3, 3, 3, 3, 3, 3, 3, 3, 3, 3, 3, 3, 3, 3, 3, 3, 3, 3, 3, 3, 3, 3, 3, 3, 3, 3, 3, 3, 3, 3, 3, 3, 3, 3, 3, 3, 3, 3, 3, 3, 3, 3, 3, 3, 3, 3, 3, 3, 3, 3, 3, 3, 3, 3, 3, 3, 3, 3, 3, 3, 3, 3, 3, 3, 3, 3, 3, 3, 3, 3, 3, 3, 3, 3, 3, 3, 3, 3, 3, 3, 3, 3, 3, 3, 3, 3, 3, 3, 3, 3, 3, 3, 3, 3, 3, 3, 3, 3, 3, 3, 3, 3, 3, 3, 3, 3, 3, 3, 3, 3, 3, 3, 3, 3, 3, 3, 3, 3, 3, 3, 3, 3, 3, 3, 3, 3, 3, 3, 3, 3, 3, 3, 3, 3, 3, 3, 3, 3, 3, 3, 3, 3, 3, 3, 3, 3, 3, 3, 3, 3, 3, 3, 3, 3, 3, 3, 3, 3, 3, 3, 3, 3, 3, 3, 3, 3, 3, 3, 3, 3, 3, 3, 3, 3, 3, 3, 3, 3, 3, 3, 3, 3, 3, 3, 3, 3, 3, 3, 3, 3, 3, 3, 3, 3, 3, 3, 3, 3, 3, 3, 3, 3, 3, 3, 3, 3, 3, 3, 3, 3, 3, 3, 3, 3, 3, 3, 3, 3, 3, 3, 3, 3, 3, 3, 3, 3, 3, 3, 3, 3, 3]
    int[] faceVertexIndices = [0, 1, 2, 3, 2, 1, 2, 3, 4, 5, 4, 3, 4, 5, 6, 4, 6, 7, 8, 9, 10, 9, 8, 11, 11, 12, 9, 12, 11, 13, 14, 12, 13, 14, 15, 12, 16, 11, 8, 11, 16, 17, 18, 17, 16, 17, 13, 11, 17, 18, 19, 20, 19, 18, 19, 20, 21, 13, 17, 22, 19, 22, 17, 21, 23, 19, 22, 19, 23, 23, 21, 24, 25, 13, 22, 25, 22, 23, 25, 14, 13, 26, 23, 24, 23, 26, 25, 24, 27, 26, 28, 26, 27, 29, 26, 28, 29, 25, 26, 30, 29, 28, 31, 14, 25, 31, 25, 29, 7, 14, 31, 32, 29, 30, 32, 31, 29, 33, 32, 30, 34, 7, 31, 31, 32, 34, 7, 34, 4, 32, 33, 35, 35, 34, 32, 36, 35, 33, 35, 36, 37, 38, 4, 34, 34, 35, 38, 37, 38, 35, 38, 2, 4, 38, 37, 39, 39, 2, 38, 39, 0, 2, 9, 40, 10, 9, 41, 40, 12, 41, 9, 41, 42, 40, 12, 43, 41, 15, 43, 12, 42, 41, 44, 43, 44, 41, 44, 45, 42, 45, 44, 46, 15, 47, 43, 6, 47, 15, 44, 43, 48, 48, 46, 44, 47, 48, 43, 46, 48, 49, 50, 47, 6, 51, 49, 48, 51, 48, 47, 50, 51, 47, 52, 49, 51, 5, 50, 6, 53, 52, 51, 53, 51, 50, 54, 52, 53, 53, 55, 54, 55, 53, 56, 50, 56, 53, 56, 57, 55, 50, 5, 58, 56, 50, 58, 57, 56, 59, 58, 59, 56, 59, 60, 57, 60, 59, 61, 58, 5, 62, 59, 58, 62, 62, 61, 59, 3, 62, 5, 61, 62, 63, 62, 3, 63, 1, 63, 3, 64, 65, 66, 67, 64, 66, 65, 64, 68, 68, 69, 65, 69, 68, 70, 64, 67, 71, 72, 71, 67, 73, 68, 64, 71, 73, 64, 74, 70, 68, 68, 73, 74, 70, 74, 75, 76, 75, 74, 74, 77, 76, 77, 74, 73, 77, 78, 76, 78, 77, 79, 79, 80, 78, 73, 81, 77, 81, 79, 77, 73, 71, 82, 82, 81, 73, 71, 72, 83, 83, 82, 71, 45, 83, 72, 83, 45, 46, 46, 84, 83, 82, 83, 84, 84, 46, 49, 52, 84, 49, 85, 84, 52, 85, 82, 84, 86, 85, 52, 87, 82, 85, 81, 82, 87, 88, 85, 86, 88, 87, 85, 55, 88, 86, 87, 89, 81, 79, 81, 89, 90, 87, 88, 89, 87, 90, 88, 55, 91, 91, 90, 88, 89, 92, 79, 80, 79, 92, 55, 93, 91, 93, 55, 94, 95, 80, 92, 96, 80, 95, 92, 89, 97, 97, 95, 92, 90, 97, 89, 96, 95, 98, 97, 98, 95, 98, 99, 96, 98, 100, 99, 100, 98, 101, 97, 101, 98, 101, 102, 100, 97, 103, 101, 102, 101, 103, 97, 90, 104, 97, 104, 103, 90, 91, 104, 104, 91, 93, 103, 105, 102, 105, 103, 104, 106, 102, 105, 107, 106, 105, 104, 107, 105, 106, 107, 108, 104, 93, 109, 104, 109, 107, 109, 108, 107, 94, 109, 93, 60, 108, 109, 109, 94, 60, 110, 65, 69, 69, 111, 110, 65, 110, 112, 112, 66, 65, 110, 111, 113, 114, 113, 111, 66, 112, 115, 113, 114, 116, 115, 67, 66, 117, 116, 114, 67, 115, 118, 116, 117, 119, 120, 119, 117, 67, 118, 121, 67, 121, 72, 119, 120, 122, 123, 122, 120, 124, 72, 121, 72, 124, 45, 124, 42, 45, 125, 121, 118, 125, 124, 121, 115, 125, 118, 42, 124, 126, 125, 126, 124, 126, 40, 42, 40, 126, 127, 125, 127, 126, 127, 10, 40, 127, 128, 10, 125, 128, 127, 128, 8, 10, 129, 125, 115, 129, 115, 112, 129, 112, 110, 129, 110, 113, 129, 113, 116, 119, 129, 116, 129, 119, 130, 130, 125, 129, 122, 130, 119, 125, 130, 131, 125, 131, 128, 130, 122, 132, 132, 131, 130, 131, 133, 128, 131, 132, 133, 134, 128, 133, 8, 128, 134, 135, 132, 122, 122, 123, 135, 123, 136, 135, 133, 132, 137, 132, 135, 137, 136, 138, 135, 135, 138, 137, 138, 136, 139, 139, 140, 138, 138, 140, 141, 138, 141, 137, 140, 142, 141, 142, 143, 141, 137, 144, 133, 141, 144, 137, 133, 144, 134, 141, 143, 145, 144, 141, 145, 145, 143, 146, 147, 134, 144, 134, 147, 8, 16, 8, 147, 147, 18, 16, 144, 145, 148, 144, 148, 147, 145, 146, 148, 147, 148, 18, 148, 146, 20, 148, 20, 18, 149, 150, 151, 152, 149, 151, 150, 149, 153, 153, 139, 150, 139, 153, 140, 154, 149, 152, 155, 154, 152, 156, 153, 149, 154, 156, 149, 157, 140, 153, 153, 156, 157, 140, 157, 142, 157, 143, 142, 158, 154, 155, 159, 158, 155, 143, 157, 160, 158, 159, 161, 162, 161, 159, 143, 160, 163, 163, 146, 143, 157, 164, 160, 164, 163, 160, 164, 157, 156, 146, 163, 165, 164, 165, 163, 146, 165, 20, 165, 21, 20, 21, 165, 166, 164, 166, 165, 166, 24, 21, 164, 167, 166, 24, 166, 167, 168, 164, 156, 168, 156, 154, 158, 168, 154, 169, 167, 164, 168, 169, 164, 170, 24, 167, 167, 169, 170, 24, 170, 27, 171, 168, 158, 171, 169, 168, 161, 171, 158, 172, 170, 169, 172, 169, 171, 173, 27, 170, 173, 170, 172, 28, 27, 173, 174, 172, 171, 171, 161, 174, 175, 173, 172, 174, 175, 172, 176, 28, 173, 173, 175, 176, 30, 28, 176, 33, 30, 176, 177, 33, 176, 177, 176, 175, 36, 33, 177, 177, 178, 36, 179, 177, 175, 178, 177, 179, 174, 179, 175, 180, 178, 179, 181, 180, 179, 179, 174, 181, 180, 181, 182, 182, 181, 183, 181, 174, 184, 183, 181, 184, 184, 174, 161, 185, 183, 184, 184, 161, 162, 185, 184, 162, 186, 150, 139, 136, 186, 139, 150, 186, 187, 187, 151, 150, 136, 188, 186, 188, 136, 123, 189, 187, 186, 189, 186, 188, 151, 187, 190, 189, 190, 187, 123, 191, 188, 189, 188, 191, 192, 151, 190, 152, 151, 192, 193, 190, 189, 192, 190, 193, 194, 152, 192, 155, 152, 194, 194, 159, 155, 194, 192, 195, 195, 192, 193, 159, 194, 196, 195, 196, 194, 197, 159, 196, 162, 159, 197, 196, 195, 198, 198, 197, 196, 162, 197, 199, 198, 199, 197, 199, 185, 162, 199, 200, 185, 200, 199, 201, 198, 201, 199, 201, 202, 200, 198, 203, 201, 202, 201, 203, 198, 204, 203, 195, 204, 198, 203, 205, 202, 205, 203, 204, 206, 202, 205, 204, 195, 207, 195, 193, 207, 205, 208, 206, 209, 206, 208, 210, 209, 208, 204, 211, 205, 208, 205, 211, 211, 204, 207, 210, 208, 212, 212, 208, 211, 210, 212, 213, 211, 207, 214, 213, 212, 215, 99, 213, 215, 99, 215, 96, 212, 211, 216, 212, 216, 215, 214, 216, 211, 215, 217, 96, 215, 216, 217, 96, 217, 80, 218, 217, 216, 216, 214, 218, 217, 219, 80, 217, 218, 219, 80, 219, 78, 219, 76, 78, 76, 219, 220, 218, 220, 219, 75, 76, 220, 220, 221, 75, 221, 70, 75, 220, 218, 222, 221, 220, 222, 70, 221, 223, 223, 69, 70, 69, 223, 111, 224, 223, 221, 222, 224, 221, 225, 111, 223, 223, 224, 225, 111, 225, 114, 222, 226, 224, 226, 225, 224, 227, 114, 225, 225, 226, 227, 114, 227, 117, 222, 228, 226, 218, 228, 222, 214, 228, 218, 229, 227, 226, 228, 229, 226, 230, 117, 227, 227, 229, 230, 117, 230, 120, 230, 123, 120, 230, 191, 123, 229, 191, 230, 229, 189, 191, 228, 231, 229, 231, 189, 229, 214, 231, 228, 231, 193, 189, 214, 207, 231, 207, 193, 231, 232, 100, 102, 106, 232, 102, 100, 232, 233, 233, 99, 100, 99, 233, 213, 234, 232, 106, 108, 234, 106, 235, 233, 232, 234, 235, 232, 236, 213, 233, 233, 235, 236, 213, 236, 210, 236, 209, 210, 236, 237, 209, 235, 237, 236, 237, 206, 209, 206, 237, 238, 238, 202, 206, 235, 239, 237, 239, 238, 237, 202, 238, 240, 240, 200, 202, 238, 239, 241, 241, 240, 238, 242, 239, 235, 242, 235, 234, 243, 241, 239, 239, 242, 243, 200, 240, 244, 244, 185, 200, 185, 244, 183, 240, 241, 245, 245, 244, 240, 246, 183, 244, 244, 245, 246, 183, 246, 182, 247, 245, 241, 243, 247, 241, 248, 182, 246, 180, 182, 248, 249, 246, 245, 248, 246, 249, 245, 247, 249, 250, 180, 248, 249, 250, 248, 178, 180, 250, 178, 250, 251, 249, 251, 250, 251, 36, 178, 251, 37, 36, 37, 251, 252, 249, 252, 251, 252, 39, 37, 39, 252, 253, 249, 253, 252, 0, 39, 253, 254, 253, 249, 0, 253, 254, 254, 249, 247, 254, 1, 0, 247, 255, 254, 1, 254, 255, 255, 247, 243, 242, 255, 243, 256, 1, 255, 255, 242, 256, 1, 256, 63, 63, 256, 61, 256, 242, 257, 61, 256, 257, 257, 242, 234, 60, 61, 257, 257, 234, 108, 60, 257, 108]
    normal3f[] normals = [(0.7069908, 0.70722276, 3.3062662e-7), (0.70705736, 0.7071562, 3.035088e-7), (0.9246221, 0.38088572, 3.8191675e-7), (0.9668749, 0.25525117, 2.9231097e-7), (0.9246221, 0.38088572, 3.8191675e-7), (0.70705736, 0.7071562, 3.035088e-7), (0.9246221, 0.38088572, 3.8191675e-7), (0.9668749, 0.25525117, 2.9231097e-7), (0.9999333, 0.011557404, 1.6127171e-7), (0.9999327, 0.011602064, 1.5132973e-7), (0.9999333, 0.011557404, 1.6127171e-7), (0.9668749, 0.25525117, 2.9231097e-7), (0.9999333, 0.011557404, 1.6127171e-7), (0.9999327, 0.011602064, 1.5132973e-7), (1, -1.157507e-8, 1.1155432e-7), (0.9999333, 0.011557404, 1.6127171e-7), (1, -1.157507e-8, 1.1155432e-7), (1, -1.1555842e-8, 1.1136901e-7), (0.70705736, -0.7071562, -8.907324e-8), (0.9246221, -0.38088572, -1.0163045e-7), (0.7069908, -0.70722276, -1.1643329e-7), (0.9246221, -0.38088572, -1.0163045e-7), (0.70705736, -0.7071562, -8.907324e-8), (0.9668749, -0.25525117, 8.301548e-10), (0.9668749, -0.25525117, 8.301548e-10), (0.9999333, -0.011557404, 1.4205433e-7), (0.9246221, -0.38088572, -1.0163045e-7), (0.9999333, -0.011557404, 1.4205433e-7), (0.9668749, -0.25525117, 8.301548e-10), (0.9999327, -0.011602064, 1.5132973e-7), (1, -1.157507e-8, 1.1155432e-7), (0.9999333, -0.011557404, 1.4205433e-7), (0.9999327, -0.011602064, 1.5132973e-7), (1, -1.157507e-8, 1.1155432e-7), (1, -1.155584e-8, 1.11369e-7), (0.9999333, -0.011557404, 1.4205433e-7), (0.7592583, -0.6506917, -0.0112842955), (0.9668749, -0.25525117, 8.301548e-10), (0.70705736, -0.7071562, -8.907324e-8), (0.9668749, -0.25525117, 8.301548e-10), (0.7592583, -0.6506917, -0.0112842955), (0.96330523, -0.26800197, -0.014764359), (0.68164647, -0.6816522, -0.26591074), (0.96330523, -0.26800197, -0.014764359), (0.7592583, -0.6506917, -0.0112842955), (0.96330523, -0.26800197, -0.014764359), (0.9999327, -0.011602064, 1.5132973e-7), (0.9668749, -0.25525117, 8.301548e-10), (0.96330523, -0.26800197, -0.014764359), (0.68164647, -0.6816522, -0.26591074), (0.90738547, -0.28401408, -0.30981877), (0.53233135, -0.5324098, -0.6581513), (0.90738547, -0.28401408, -0.30981877), (0.68164647, -0.6816522, -0.26591074), (0.90738547, -0.28401408, -0.30981877), (0.53233135, -0.5324098, -0.6581513), (0.6939869, -0.20401552, -0.690478), (0.9999327, -0.011602064, 1.5132973e-7), (0.96330523, -0.26800197, -0.014764359), (0.99978423, -0.012672264, -0.016460381), (0.90738547, -0.28401408, -0.30981877), (0.99978423, -0.012672264, -0.016460381), (0.96330523, -0.26800197, -0.014764359), (0.6939869, -0.20401552, -0.690478), (0.9649119, -0.008990203, -0.26242012), (0.90738547, -0.28401408, -0.30981877), (0.99978423, -0.012672264, -0.016460381), (0.90738547, -0.28401408, -0.30981877), (0.9649119, -0.008990203, -0.26242012), (0.9649119, -0.008990203, -0.26242012), (0.6939869, -0.20401552, -0.690478), (0.70545125, -0.0039125243, -0.7087476), (0.9996205, -1.17947124e-7, -0.02754962), (0.9999327, -0.011602064, 1.5132973e-7), (0.99978423, -0.012672264, -0.016460381), (0.9996205, -1.17947124e-7, -0.02754962), (0.99978423, -0.012672264, -0.016460381), (0.9649119, -0.008990203, -0.26242012), (0.9996205, -1.17947124e-7, -0.02754962), (1, -1.157507e-8, 1.1155432e-7), (0.9999327, -0.011602064, 1.5132973e-7), (0.92477286, -8.1828904e-7, -0.38051957), (0.9649119, -0.008990203, -0.26242012), (0.70545125, -0.0039125243, -0.7087476), (0.9649119, -0.008990203, -0.26242012), (0.92477286, -8.1828904e-7, -0.38051957), (0.9996205, -1.17947124e-7, -0.02754962), (0.70545125, -0.0039125243, -0.7087476), (0.64596933, -6.4258495e-7, -0.7633634), (0.92477286, -8.1828904e-7, -0.38051957), (0.76290584, -7.378824e-7, -0.64650965), (0.92477286, -8.1828904e-7, -0.38051957), (0.64596933, -6.4258495e-7, -0.7633634), (0.9671971, -5.1254375e-7, -0.25402704), (0.92477286, -8.1828904e-7, -0.38051957), (0.76290584, -7.378824e-7, -0.64650965), (0.9671971, -5.1254375e-7, -0.25402704), (0.9996205, -1.17947124e-7, -0.02754962), (0.92477286, -8.1828904e-7, -0.38051957), (0.7605012, 0.008333649, -0.64928305), (0.9671971, -5.1254375e-7, -0.25402704), (0.76290584, -7.378824e-7, -0.64650965), (0.99996734, -4.3733703e-8, -0.008085036), (1, -1.157507e-8, 1.1155432e-7), (0.9996205, -1.17947124e-7, -0.02754962), (0.99996734, -4.3733703e-8, -0.008085036), (0.9996205, -1.17947124e-7, -0.02754962), (0.9671971, -5.1254375e-7, -0.25402704), (1, -1.1555842e-8, 1.1136901e-7), (1, -1.157507e-8, 1.1155432e-7), (0.99996734, -4.3733703e-8, -0.008085036), (0.96495825, 0.010982217, -0.26217398), (0.9671971, -5.1254375e-7, -0.25402704), (0.7605012, 0.008333649, -0.64928305), (0.96495825, 0.010982217, -0.26217398), (0.99996734, -4.3733703e-8, -0.008085036), (0.9671971, -5.1254375e-7, -0.25402704), (0.681509, 0.26626143, -0.6816527), (0.96495825, 0.010982217, -0.26217398), (0.7605012, 0.008333649, -0.64928305), (0.9999361, 0.006925385, -0.008944243), (1, -1.1555842e-8, 1.1136901e-7), (0.99996734, -4.3733703e-8, -0.008085036), (0.99996734, -4.3733703e-8, -0.008085036), (0.96495825, 0.010982217, -0.26217398), (0.9999361, 0.006925385, -0.008944243), (1, -1.1555842e-8, 1.1136901e-7), (0.9999361, 0.006925385, -0.008944243), (0.9999333, 0.011557404, 1.6127171e-7), (0.96495825, 0.010982217, -0.26217398), (0.681509, 0.26626143, -0.6816527), (0.9079904, 0.31018555, -0.2816707), (0.9079904, 0.31018555, -0.2816707), (0.9999361, 0.006925385, -0.008944243), (0.96495825, 0.010982217, -0.26217398), (0.5320497, 0.65863544, -0.5320925), (0.9079904, 0.31018555, -0.2816707), (0.681509, 0.26626143, -0.6816527), (0.9079904, 0.31018555, -0.2816707), (0.5320497, 0.65863544, -0.5320925), (0.6942144, 0.6908162, -0.20208754), (0.96411216, 0.26523116, -0.01184378), (0.9999333, 0.011557404, 1.6127171e-7), (0.9999361, 0.006925385, -0.008944243), (0.9999361, 0.006925385, -0.008944243), (0.9079904, 0.31018555, -0.2816707), (0.96411216, 0.26523116, -0.01184378), (0.6942144, 0.6908162, -0.20208754), (0.96411216, 0.26523116, -0.01184378), (0.9079904, 0.31018555, -0.2816707), (0.96411216, 0.26523116, -0.01184378), (0.9246221, 0.38088572, 3.8191675e-7), (0.9999333, 0.011557404, 1.6127171e-7), (0.96411216, 0.26523116, -0.01184378), (0.6942144, 0.6908162, -0.20208754), (0.7568302, 0.6535762, -0.0067951363), (0.7568302, 0.6535762, -0.0067951363), (0.9246221, 0.38088572, 3.8191675e-7), (0.96411216, 0.26523116, -0.01184378), (0.7568302, 0.6535762, -0.0067951363), (0.7069908, 0.70722276, 3.3062662e-7), (0.9246221, 0.38088572, 3.8191675e-7), (0.9246221, -0.38088572, -1.0163045e-7), (0.7568303, -0.65357625, 0.0067951363), (0.7069908, -0.70722276, -1.1643329e-7), (0.9246221, -0.38088572, -1.0163045e-7), (0.96411216, -0.26523116, 0.01184378), (0.7568303, -0.65357625, 0.0067951363), (0.9999333, -0.011557404, 1.4205433e-7), (0.96411216, -0.26523116, 0.01184378), (0.9246221, -0.38088572, -1.0163045e-7), (0.96411216, -0.26523116, 0.01184378), (0.69421434, -0.6908163, 0.20208755), (0.7568303, -0.65357625, 0.0067951363), (0.9999333, -0.011557404, 1.4205433e-7), (0.9999361, -0.006925385, 0.008944243), (0.96411216, -0.26523116, 0.01184378), (1, -1.155584e-8, 1.11369e-7), (0.9999361, -0.006925385, 0.008944243), (0.9999333, -0.011557404, 1.4205433e-7), (0.69421434, -0.6908163, 0.20208755), (0.96411216, -0.26523116, 0.01184378), (0.9079905, -0.31018558, 0.28167066), (0.9999361, -0.006925385, 0.008944243), (0.9079905, -0.31018558, 0.28167066), (0.96411216, -0.26523116, 0.01184378), (0.9079905, -0.31018558, 0.28167066), (0.5320497, -0.65863544, 0.5320925), (0.69421434, -0.6908163, 0.20208755), (0.5320497, -0.65863544, 0.5320925), (0.9079905, -0.31018558, 0.28167066), (0.68150896, -0.2662614, 0.6816527), (1, -1.155584e-8, 1.11369e-7), (0.99996734, -4.355564e-8, 0.008085036), (0.9999361, -0.006925385, 0.008944243), (1, -1.157507e-8, 1.1155432e-7), (0.99996734, -4.355564e-8, 0.008085036), (1, -1.155584e-8, 1.11369e-7), (0.9079905, -0.31018558, 0.28167066), (0.9999361, -0.006925385, 0.008944243), (0.96495825, -0.010982215, 0.26217392), (0.96495825, -0.010982215, 0.26217392), (0.68150896, -0.2662614, 0.6816527), (0.9079905, -0.31018558, 0.28167066), (0.99996734, -4.355564e-8, 0.008085036), (0.96495825, -0.010982215, 0.26217392), (0.9999361, -0.006925385, 0.008944243), (0.68150896, -0.2662614, 0.6816527), (0.96495825, -0.010982215, 0.26217392), (0.7605012, -0.008333649, 0.64928305), (0.9996205, 3.0979624e-8, 0.027549207), (0.99996734, -4.355564e-8, 0.008085036), (1, -1.157507e-8, 1.1155432e-7), (0.9671976, 4.2727328e-7, 0.25402564), (0.7605012, -0.008333649, 0.64928305), (0.96495825, -0.010982215, 0.26217392), (0.9671976, 4.2727328e-7, 0.25402564), (0.96495825, -0.010982215, 0.26217392), (0.99996734, -4.355564e-8, 0.008085036), (0.9996205, 3.0979624e-8, 0.027549207), (0.9671976, 4.2727328e-7, 0.25402564), (0.99996734, -4.355564e-8, 0.008085036), (0.7629059, 6.7017123e-7, 0.6465097), (0.7605012, -0.008333649, 0.64928305), (0.9671976, 4.2727328e-7, 0.25402564), (0.9999327, 0.011602064, 1.5132973e-7), (0.9996205, 3.0979624e-8, 0.027549207), (1, -1.157507e-8, 1.1155432e-7), (0.9247735, 7.366879e-7, 0.38051826), (0.7629059, 6.7017123e-7, 0.6465097), (0.9671976, 4.2727328e-7, 0.25402564), (0.9247735, 7.366879e-7, 0.38051826), (0.9671976, 4.2727328e-7, 0.25402564), (0.9996205, 3.0979624e-8, 0.027549207), (0.8574578, 8.3659586e-7, 0.51455444), (0.7629059, 6.7017123e-7, 0.6465097), (0.9247735, 7.366879e-7, 0.38051826), (0.9247735, 7.366879e-7, 0.38051826), (0.70545065, 0.0039125206, 0.70874834), (0.8574578, 8.3659586e-7, 0.51455444), (0.70545065, 0.0039125206, 0.70874834), (0.9247735, 7.366879e-7, 0.38051826), (0.9649123, 0.0089903325, 0.26241872), (0.9996205, 3.0979624e-8, 0.027549207), (0.9649123, 0.0089903325, 0.26241872), (0.9247735, 7.366879e-7, 0.38051826), (0.9649123, 0.0089903325, 0.26241872), (0.8275554, 0.21030372, 0.52050406), (0.70545065, 0.0039125206, 0.70874834), (0.9996205, 3.0979624e-8, 0.027549207), (0.9999327, 0.011602064, 1.5132973e-7), (0.99978423, 0.0126722995, 0.016459929), (0.9649123, 0.0089903325, 0.26241872), (0.9996205, 3.0979624e-8, 0.027549207), (0.99978423, 0.0126722995, 0.016459929), (0.8275554, 0.21030372, 0.52050406), (0.9649123, 0.0089903325, 0.26241872), (0.90738577, 0.28401482, 0.30981722), (0.99978423, 0.0126722995, 0.016459929), (0.90738577, 0.28401482, 0.30981722), (0.9649123, 0.0089903325, 0.26241872), (0.90738577, 0.28401482, 0.30981722), (0.5323317, 0.5324092, 0.6581516), (0.8275554, 0.21030372, 0.52050406), (0.5323317, 0.5324092, 0.6581516), (0.90738577, 0.28401482, 0.30981722), (0.68164736, 0.6816514, 0.26591024), (0.99978423, 0.0126722995, 0.016459929), (0.9999327, 0.011602064, 1.5132973e-7), (0.9633053, 0.26800185, 0.0147642335), (0.90738577, 0.28401482, 0.30981722), (0.99978423, 0.0126722995, 0.016459929), (0.9633053, 0.26800185, 0.0147642335), (0.9633053, 0.26800185, 0.0147642335), (0.68164736, 0.6816514, 0.26591024), (0.90738577, 0.28401482, 0.30981722), (0.9668749, 0.25525117, 2.9231097e-7), (0.9633053, 0.26800185, 0.0147642335), (0.9999327, 0.011602064, 1.5132973e-7), (0.68164736, 0.6816514, 0.26591024), (0.9633053, 0.26800185, 0.0147642335), (0.7592583, 0.6506917, 0.01128407), (0.9633053, 0.26800185, 0.0147642335), (0.9668749, 0.25525117, 2.9231097e-7), (0.7592583, 0.6506917, 0.01128407), (0.70705736, 0.7071562, 3.035088e-7), (0.7592583, 0.6506917, 0.01128407), (0.9668749, 0.25525117, 2.9231097e-7), (-0.0014023491, -0.38064492, 0.9247202), (-0.20347364, -0.6905841, 0.6940404), (-0.0011091749, -0.707529, 0.70668346), (0.0005578266, -0.7072988, 0.7069145), (-0.0014023491, -0.38064492, 0.9247202), (-0.0011091749, -0.707529, 0.70668346), (-0.20347364, -0.6905841, 0.6940404), (-0.0014023491, -0.38064492, 0.9247202), (-0.2832582, -0.31000397, 0.90755844), (-0.2832582, -0.31000397, 0.90755844), (-0.53231835, -0.6583266, 0.532206), (-0.20347364, -0.6905841, 0.6940404), (-0.53231835, -0.6583266, 0.532206), (-0.2832582, -0.31000397, 0.90755844), (-0.68160945, -0.26618433, 0.68158233), (-0.0014023491, -0.38064492, 0.9247202), (0.0005578266, -0.7072988, 0.7069145), (0.001313247, -0.25563028, 0.9667738), (0.20293646, -0.6906043, 0.6941775), (0.001313247, -0.25563028, 0.9667738), (0.0005578266, -0.7072988, 0.7069145), (-0.0031328988, -0.021044511, 0.9997736), (-0.2832582, -0.31000397, 0.90755844), (-0.0014023491, -0.38064492, 0.9247202), (0.001313247, -0.25563028, 0.9667738), (-0.0031328988, -0.021044511, 0.9997736), (-0.0014023491, -0.38064492, 0.9247202), (-0.3805043, -0.011677225, 0.9247055), (-0.68160945, -0.26618433, 0.68158233), (-0.2832582, -0.31000397, 0.90755844), (-0.2832582, -0.31000397, 0.90755844), (-0.0031328988, -0.021044511, 0.9997736), (-0.3805043, -0.011677225, 0.9247055), (-0.68160945, -0.26618433, 0.68158233), (-0.3805043, -0.011677225, 0.9247055), (-0.76046294, -0.008336372, 0.64932793), (-0.7629524, 1.5718696e-8, 0.6464547), (-0.76046294, -0.008336372, 0.64932793), (-0.3805043, -0.011677225, 0.9247055), (-0.3805043, -0.011677225, 0.9247055), (-0.38020015, 1.658534e-8, 0.9249042), (-0.7629524, 1.5718696e-8, 0.6464547), (-0.38020015, 1.658534e-8, 0.9249042), (-0.3805043, -0.011677225, 0.9247055), (-0.0031328988, -0.021044511, 0.9997736), (-0.38020015, 1.658534e-8, 0.9249042), (-0.64610785, 2.81834e-8, 0.7632462), (-0.7629524, 1.5718696e-8, 0.6464547), (-0.64610785, 2.81834e-8, 0.7632462), (-0.38020015, 1.658534e-8, 0.9249042), (-0.2549555, 1.1169212e-8, 0.96695286), (-0.2549555, 1.1169212e-8, 0.96695286), (-0.705451, 0.0038765874, 0.7087481), (-0.64610785, 2.81834e-8, 0.7632462), (-0.0031328988, -0.021044511, 0.9997736), (-0.0033673153, 1.4964828e-10, 0.9999944), (-0.38020015, 1.658534e-8, 0.9249042), (-0.0033673153, 1.4964828e-10, 0.9999944), (-0.2549555, 1.1169212e-8, 0.96695286), (-0.38020015, 1.658534e-8, 0.9249042), (-0.0031328988, -0.021044511, 0.9997736), (0.001313247, -0.25563028, 0.9667738), (0.0017808921, -0.0060513048, 0.9999802), (0.0017808921, -0.0060513048, 0.9999802), (-0.0033673153, 1.4964828e-10, 0.9999944), (-0.0031328988, -0.021044511, 0.9997736), (0.001313247, -0.25563028, 0.9667738), (0.20293646, -0.6906043, 0.6941775), (0.28265536, -0.30997407, 0.90775657), (0.28265536, -0.30997407, 0.90775657), (0.0017808921, -0.0060513048, 0.9999802), (0.001313247, -0.25563028, 0.9667738), (0.5320497, -0.65863544, 0.5320925), (0.28265536, -0.30997407, 0.90775657), (0.20293646, -0.6906043, 0.6941775), (0.28265536, -0.30997407, 0.90775657), (0.5320497, -0.65863544, 0.5320925), (0.68150896, -0.2662614, 0.6816527), (0.68150896, -0.2662614, 0.6816527), (0.38003007, -0.011674355, 0.9249005), (0.28265536, -0.30997407, 0.90775657), (0.0017808921, -0.0060513048, 0.9999802), (0.28265536, -0.30997407, 0.90775657), (0.38003007, -0.011674355, 0.9249005), (0.38003007, -0.011674355, 0.9249005), (0.68150896, -0.2662614, 0.6816527), (0.7605012, -0.008333649, 0.64928305), (0.7629059, 6.7017123e-7, 0.6465097), (0.38003007, -0.011674355, 0.9249005), (0.7605012, -0.008333649, 0.64928305), (0.37982607, 3.148996e-7, 0.925058), (0.38003007, -0.011674355, 0.9249005), (0.7629059, 6.7017123e-7, 0.6465097), (0.37982607, 3.148996e-7, 0.925058), (0.0017808921, -0.0060513048, 0.9999802), (0.38003007, -0.011674355, 0.9249005), (0.5143466, 4.3711475e-7, 0.8575824), (0.37982607, 3.148996e-7, 0.925058), (0.7629059, 6.7017123e-7, 0.6465097), (0.0017142993, 5.8141875e-10, 0.99999857), (0.0017808921, -0.0060513048, 0.9999802), (0.37982607, 3.148996e-7, 0.925058), (-0.0033673153, 1.4964828e-10, 0.9999944), (0.0017808921, -0.0060513048, 0.9999802), (0.0017142993, 5.8141875e-10, 0.99999857), (0.25477123, 1.4598108e-7, 0.96700144), (0.37982607, 3.148996e-7, 0.925058), (0.5143466, 4.3711475e-7, 0.8575824), (0.25477123, 1.4598108e-7, 0.96700144), (0.0017142993, 5.8141875e-10, 0.99999857), (0.37982607, 3.148996e-7, 0.925058), (0.70545065, 0.0039125206, 0.70874834), (0.25477123, 1.4598108e-7, 0.96700144), (0.5143466, 4.3711475e-7, 0.8575824), (0.0017142993, 5.8141875e-10, 0.99999857), (-0.0008677182, 3.8994415e-11, 0.99999964), (-0.0033673153, 1.4964828e-10, 0.9999944), (-0.2549555, 1.1169212e-8, 0.96695286), (-0.0033673153, 1.4964828e-10, 0.9999944), (-0.0008677182, 3.8994415e-11, 0.99999964), (0.0017143211, -6.907028e-11, 0.99999857), (0.0017142993, 5.8141875e-10, 0.99999857), (0.25477123, 1.4598108e-7, 0.96700144), (-0.0008677182, 3.8994415e-11, 0.99999964), (0.0017142993, 5.8141875e-10, 0.99999857), (0.0017143211, -6.907028e-11, 0.99999857), (0.25477123, 1.4598108e-7, 0.96700144), (0.70545065, 0.0039125206, 0.70874834), (0.25595117, 0.0010970334, 0.96668917), (0.25595117, 0.0010970334, 0.96668917), (0.0017143211, -6.907028e-11, 0.99999857), (0.25477123, 1.4598108e-7, 0.96700144), (-0.0008677182, 3.8994415e-11, 0.99999964), (-0.25595123, 0.0010870277, 0.96668917), (-0.2549555, 1.1169212e-8, 0.96695286), (-0.705451, 0.0038765874, 0.7087481), (-0.2549555, 1.1169212e-8, 0.96695286), (-0.25595123, 0.0010870277, 0.96668917), (0.70545065, 0.0039125206, 0.70874834), (0.3609603, 0.09124565, 0.9281066), (0.25595117, 0.0010970334, 0.96668917), (0.3609603, 0.09124565, 0.9281066), (0.70545065, 0.0039125206, 0.70874834), (0.46898824, 0.18118933, 0.86441916), (-0.36094597, 0.0908326, 0.92815274), (-0.705451, 0.0038765874, 0.7087481), (-0.25595123, 0.0010870277, 0.96668917), (-0.69406414, 0.20329846, 0.6906119), (-0.705451, 0.0038765874, 0.7087481), (-0.36094597, 0.0908326, 0.92815274), (-0.25595123, 0.0010870277, 0.96668917), (-0.0008677182, 3.8994415e-11, 0.99999964), (-0.00089796784, 0.006019272, 0.99998146), (-0.00089796784, 0.006019272, 0.99998146), (-0.36094597, 0.0908326, 0.92815274), (-0.25595123, 0.0010870277, 0.96668917), (0.0017143211, -6.907028e-11, 0.99999857), (-0.00089796784, 0.006019272, 0.99998146), (-0.0008677182, 3.8994415e-11, 0.99999964), (-0.69406414, 0.20329846, 0.6906119), (-0.36094597, 0.0908326, 0.92815274), (-0.2732554, 0.27329135, 0.9223034), (-0.00089796784, 0.006019272, 0.99998146), (-0.2732554, 0.27329135, 0.9223034), (-0.36094597, 0.0908326, 0.92815274), (-0.2732554, 0.27329135, 0.9223034), (-0.5321977, 0.5322777, 0.65836626), (-0.69406414, 0.20329846, 0.6906119), (-0.2732554, 0.27329135, 0.9223034), (-0.20327997, 0.69407684, 0.69060457), (-0.5321977, 0.5322777, 0.65836626), (-0.20327997, 0.69407684, 0.69060457), (-0.2732554, 0.27329135, 0.9223034), (-0.09083164, 0.36096936, 0.9281438), (-0.00089796784, 0.006019272, 0.99998146), (-0.09083164, 0.36096936, 0.9281438), (-0.2732554, 0.27329135, 0.9223034), (-0.09083164, 0.36096936, 0.9281438), (-0.00073988276, 0.6460759, 0.7632728), (-0.20327997, 0.69407684, 0.69060457), (-0.00089796784, 0.006019272, 0.99998146), (-0.00015385108, 0.2546652, 0.9670294), (-0.09083164, 0.36096936, 0.9281438), (-0.00073988276, 0.6460759, 0.7632728), (-0.09083164, 0.36096936, 0.9281438), (-0.00015385108, 0.2546652, 0.9670294), (-0.00089796784, 0.006019272, 0.99998146), (0.0017143211, -6.907028e-11, 0.99999857), (0.001586802, 0.021145638, 0.9997752), (-0.00089796784, 0.006019272, 0.99998146), (0.001586802, 0.021145638, 0.9997752), (-0.00015385108, 0.2546652, 0.9670294), (0.0017143211, -6.907028e-11, 0.99999857), (0.25595117, 0.0010970334, 0.96668917), (0.001586802, 0.021145638, 0.9997752), (0.001586802, 0.021145638, 0.9997752), (0.25595117, 0.0010970334, 0.96668917), (0.3609603, 0.09124565, 0.9281066), (-0.00015385108, 0.2546652, 0.9670294), (0.00016437256, 0.380513, 0.92477566), (-0.00073988276, 0.6460759, 0.7632728), (0.00016437256, 0.380513, 0.92477566), (-0.00015385108, 0.2546652, 0.9670294), (0.001586802, 0.021145638, 0.9997752), (0.00073997985, 0.7626355, 0.6468282), (-0.00073988276, 0.6460759, 0.7632728), (0.00016437256, 0.380513, 0.92477566), (0.090933256, 0.36096117, 0.928137), (0.00073997985, 0.7626355, 0.6468282), (0.00016437256, 0.380513, 0.92477566), (0.001586802, 0.021145638, 0.9997752), (0.090933256, 0.36096117, 0.928137), (0.00016437256, 0.380513, 0.92477566), (0.00073997985, 0.7626355, 0.6468282), (0.090933256, 0.36096117, 0.928137), (0.20348871, 0.6940412, 0.69057894), (0.001586802, 0.021145638, 0.9997752), (0.3609603, 0.09124565, 0.9281066), (0.27337953, 0.27338415, 0.922239), (0.001586802, 0.021145638, 0.9997752), (0.27337953, 0.27338415, 0.922239), (0.090933256, 0.36096117, 0.928137), (0.27337953, 0.27338415, 0.922239), (0.20348871, 0.6940412, 0.69057894), (0.090933256, 0.36096117, 0.928137), (0.46898824, 0.18118933, 0.86441916), (0.27337953, 0.27338415, 0.922239), (0.3609603, 0.09124565, 0.9281066), (0.5323317, 0.5324092, 0.6581516), (0.20348871, 0.6940412, 0.69057894), (0.27337953, 0.27338415, 0.922239), (0.27337953, 0.27338415, 0.922239), (0.46898824, 0.18118933, 0.86441916), (0.5323317, 0.5324092, 0.6581516), (-0.27333575, -0.92228466, 0.27327418), (-0.20347364, -0.6905841, 0.6940404), (-0.53231835, -0.6583266, 0.532206), (-0.53231835, -0.6583266, 0.532206), (-0.69410586, -0.69055647, 0.20334436), (-0.27333575, -0.92228466, 0.27327418), (-0.20347364, -0.6905841, 0.6940404), (-0.27333575, -0.92228466, 0.27327418), (-0.09093195, -0.9281674, 0.36088312), (-0.09093195, -0.9281674, 0.36088312), (-0.0011091749, -0.707529, 0.70668346), (-0.20347364, -0.6905841, 0.6940404), (-0.27333575, -0.92228466, 0.27327418), (-0.69410586, -0.69055647, 0.20334436), (-0.36094537, -0.9281497, 0.090865456), (-0.75683105, -0.65357417, 0.0068966025), (-0.36094537, -0.9281497, 0.090865456), (-0.69410586, -0.69055647, 0.20334436), (-0.0011091749, -0.707529, 0.70668346), (-0.09093195, -0.9281674, 0.36088312), (-0.00012008544, -0.9486984, 0.31618255), (-0.36094537, -0.9281497, 0.090865456), (-0.75683105, -0.65357417, 0.0068966025), (-0.37850767, -0.92559683, 0.0015889677), (-0.00012008544, -0.9486984, 0.31618255), (0.0005578266, -0.7072988, 0.7069145), (-0.0011091749, -0.707529, 0.70668346), (-0.76323605, -0.6461198, -1.1561774e-7), (-0.37850767, -0.92559683, 0.0015889677), (-0.75683105, -0.65357417, 0.0068966025), (0.0005578266, -0.7072988, 0.7069145), (-0.00012008544, -0.9486984, 0.31618255), (0.00023953311, -0.94869834, 0.31618252), (-0.37850767, -0.92559683, 0.0015889677), (-0.76323605, -0.6461198, -1.1561774e-7), (-0.38055116, -0.92475986, -5.7577417e-8), (-0.64602715, -0.76331455, -9.7454986e-8), (-0.38055116, -0.92475986, -5.7577417e-8), (-0.76323605, -0.6461198, -1.1561774e-7), (0.0005578266, -0.7072988, 0.7069145), (0.00023953311, -0.94869834, 0.31618252), (0.09070257, -0.928171, 0.3609316), (0.0005578266, -0.7072988, 0.7069145), (0.09070257, -0.928171, 0.3609316), (0.20293646, -0.6906043, 0.6941775), (-0.38055116, -0.92475986, -5.7577417e-8), (-0.64602715, -0.76331455, -9.7454986e-8), (-0.2546355, -0.9670372, -3.8373535e-8), (-0.7093197, -0.7048672, -0.0052834842), (-0.2546355, -0.9670372, -3.8373535e-8), (-0.64602715, -0.76331455, -9.7454986e-8), (0.27306217, -0.92243254, 0.27304843), (0.20293646, -0.6906043, 0.6941775), (0.09070257, -0.928171, 0.3609316), (0.20293646, -0.6906043, 0.6941775), (0.27306217, -0.92243254, 0.27304843), (0.5320497, -0.65863544, 0.5320925), (0.27306217, -0.92243254, 0.27304843), (0.69421434, -0.6908163, 0.20208755), (0.5320497, -0.65863544, 0.5320925), (0.0016218942, -0.99988115, 0.015334665), (0.09070257, -0.928171, 0.3609316), (0.00023953311, -0.94869834, 0.31618252), (0.0016218942, -0.99988115, 0.015334665), (0.27306217, -0.92243254, 0.27304843), (0.09070257, -0.928171, 0.3609316), (-0.00012008544, -0.9486984, 0.31618255), (0.0016218942, -0.99988115, 0.015334665), (0.00023953311, -0.94869834, 0.31618252), (0.69421434, -0.6908163, 0.20208755), (0.27306217, -0.92243254, 0.27304843), (0.360927, -0.9282254, 0.09016381), (0.0016218942, -0.99988115, 0.015334665), (0.360927, -0.9282254, 0.09016381), (0.27306217, -0.92243254, 0.27304843), (0.360927, -0.9282254, 0.09016381), (0.7568303, -0.65357625, 0.0067951363), (0.69421434, -0.6908163, 0.20208755), (0.7568303, -0.65357625, 0.0067951363), (0.360927, -0.9282254, 0.09016381), (0.3785088, -0.9255964, 0.0015658872), (0.0016218942, -0.99988115, 0.015334665), (0.3785088, -0.9255964, 0.0015658872), (0.360927, -0.9282254, 0.09016381), (0.3785088, -0.9255964, 0.0015658872), (0.7069908, -0.70722276, -1.1643329e-7), (0.7568303, -0.65357625, 0.0067951363), (0.3785088, -0.9255964, 0.0015658872), (0.3162798, -0.948666, -2.7370612e-8), (0.7069908, -0.70722276, -1.1643329e-7), (0.0016218942, -0.99988115, 0.015334665), (0.3162798, -0.948666, -2.7370612e-8), (0.3785088, -0.9255964, 0.0015658872), (0.3162798, -0.948666, -2.7370612e-8), (0.70705736, -0.7071562, -8.907324e-8), (0.7069908, -0.70722276, -1.1643329e-7), (-0.0032060605, -0.99987864, 0.015247848), (0.0016218942, -0.99988115, 0.015334665), (-0.00012008544, -0.9486984, 0.31618255), (-0.0032060605, -0.99987864, 0.015247848), (-0.00012008544, -0.9486984, 0.31618255), (-0.09093195, -0.9281674, 0.36088312), (-0.0032060605, -0.99987864, 0.015247848), (-0.09093195, -0.9281674, 0.36088312), (-0.27333575, -0.92228466, 0.27327418), (-0.0032060605, -0.99987864, 0.015247848), (-0.27333575, -0.92228466, 0.27327418), (-0.36094537, -0.9281497, 0.090865456), (-0.0032060605, -0.99987864, 0.015247848), (-0.36094537, -0.9281497, 0.090865456), (-0.37850767, -0.92559683, 0.0015889677), (-0.38055116, -0.92475986, -5.7577417e-8), (-0.0032060605, -0.99987864, 0.015247848), (-0.37850767, -0.92559683, 0.0015889677), (-0.0032060605, -0.99987864, 0.015247848), (-0.38055116, -0.92475986, -5.7577417e-8), (-0.0033804823, -0.9999943, -5.1012994e-10), (-0.0033804823, -0.9999943, -5.1012994e-10), (0.0016218942, -0.99988115, 0.015334665), (-0.0032060605, -0.99987864, 0.015247848), (-0.2546355, -0.9670372, -3.8373535e-8), (-0.0033804823, -0.9999943, -5.1012994e-10), (-0.38055116, -0.92475986, -5.7577417e-8), (0.0016218942, -0.99988115, 0.015334665), (-0.0033804823, -0.9999943, -5.1012994e-10), (0.00086298486, -0.99999964, 1.3013014e-10), (0.0016218942, -0.99988115, 0.015334665), (0.00086298486, -0.99999964, 1.3013014e-10), (0.3162798, -0.948666, -2.7370612e-8), (-0.0033804823, -0.9999943, -5.1012994e-10), (-0.2546355, -0.9670372, -3.8373535e-8), (-0.0008642778, -0.99999964, -1.3079973e-10), (-0.0008642778, -0.99999964, -1.3079973e-10), (0.00086298486, -0.99999964, 1.3013014e-10), (-0.0033804823, -0.9999943, -5.1012994e-10), (0.00086298486, -0.99999964, 1.3013014e-10), (0.0033805338, -0.9999943, 1.0781262e-10), (0.3162798, -0.948666, -2.7370612e-8), (0.00086298486, -0.99999964, 1.3013014e-10), (-0.0008642778, -0.99999964, -1.3079973e-10), (0.0033805338, -0.9999943, 1.0781262e-10), (0.31635225, -0.9486418, -2.7529504e-8), (0.3162798, -0.948666, -2.7370612e-8), (0.0033805338, -0.9999943, 1.0781262e-10), (0.70705736, -0.7071562, -8.907324e-8), (0.3162798, -0.948666, -2.7370612e-8), (0.31635225, -0.9486418, -2.7529504e-8), (-0.26519826, -0.964119, -0.012022677), (-0.0008642778, -0.99999964, -1.3079973e-10), (-0.2546355, -0.9670372, -3.8373535e-8), (-0.2546355, -0.9670372, -3.8373535e-8), (-0.7093197, -0.7048672, -0.0052834842), (-0.26519826, -0.964119, -0.012022677), (-0.7093197, -0.7048672, -0.0052834842), (-0.6905868, -0.69411165, -0.20322129), (-0.26519826, -0.964119, -0.012022677), (0.0033805338, -0.9999943, 1.0781262e-10), (-0.0008642778, -0.99999964, -1.3079973e-10), (-0.0010029676, -0.99996525, -0.008286344), (-0.0008642778, -0.99999964, -1.3079973e-10), (-0.26519826, -0.964119, -0.012022677), (-0.0010029676, -0.99996525, -0.008286344), (-0.6905868, -0.69411165, -0.20322129), (-0.3099901, -0.9076175, -0.2830841), (-0.26519826, -0.964119, -0.012022677), (-0.26519826, -0.964119, -0.012022677), (-0.3099901, -0.9076175, -0.2830841), (-0.0010029676, -0.99996525, -0.008286344), (-0.3099901, -0.9076175, -0.2830841), (-0.6905868, -0.69411165, -0.20322129), (-0.6583174, -0.5322857, -0.53225005), (-0.6583174, -0.5322857, -0.53225005), (-0.26602462, -0.6815581, -0.68169606), (-0.3099901, -0.9076175, -0.2830841), (-0.3099901, -0.9076175, -0.2830841), (-0.26602462, -0.6815581, -0.68169606), (-0.001267027, -0.9485187, -0.3167186), (-0.3099901, -0.9076175, -0.2830841), (-0.001267027, -0.9485187, -0.3167186), (-0.0010029676, -0.99996525, -0.008286344), (-0.26602462, -0.6815581, -0.68169606), (-0.0018194686, -0.7070635, -0.7071478), (-0.001267027, -0.9485187, -0.3167186), (-0.0018194686, -0.7070635, -0.7071478), (0.00055792887, -0.70683146, -0.70738184), (-0.001267027, -0.9485187, -0.3167186), (-0.0010029676, -0.99996525, -0.008286344), (0.0030535054, -0.9996156, -0.027556952), (0.0033805338, -0.9999943, 1.0781262e-10), (-0.001267027, -0.9485187, -0.3167186), (0.0030535054, -0.9996156, -0.027556952), (-0.0010029676, -0.99996525, -0.008286344), (0.0033805338, -0.9999943, 1.0781262e-10), (0.0030535054, -0.9996156, -0.027556952), (0.31635225, -0.9486418, -2.7529504e-8), (-0.001267027, -0.9485187, -0.3167186), (0.00055792887, -0.70683146, -0.70738184), (0.0020276054, -0.94841236, -0.31703308), (0.0030535054, -0.9996156, -0.027556952), (-0.001267027, -0.9485187, -0.3167186), (0.0020276054, -0.94841236, -0.31703308), (0.0020276054, -0.94841236, -0.31703308), (0.00055792887, -0.70683146, -0.70738184), (0.20348836, -0.69404155, -0.69057864), (0.38069865, -0.9245665, -0.015665986), (0.31635225, -0.9486418, -2.7529504e-8), (0.0030535054, -0.9996156, -0.027556952), (0.31635225, -0.9486418, -2.7529504e-8), (0.38069865, -0.9245665, -0.015665986), (0.70705736, -0.7071562, -8.907324e-8), (0.7592583, -0.6506917, -0.0112842955), (0.70705736, -0.7071562, -8.907324e-8), (0.38069865, -0.9245665, -0.015665986), (0.38069865, -0.9245665, -0.015665986), (0.68164647, -0.6816522, -0.26591074), (0.7592583, -0.6506917, -0.0112842955), (0.0030535054, -0.9996156, -0.027556952), (0.0020276054, -0.94841236, -0.31703308), (0.28339687, -0.9075359, -0.30994323), (0.0030535054, -0.9996156, -0.027556952), (0.28339687, -0.9075359, -0.30994323), (0.38069865, -0.9245665, -0.015665986), (0.0020276054, -0.94841236, -0.31703308), (0.20348836, -0.69404155, -0.69057864), (0.28339687, -0.9075359, -0.30994323), (0.38069865, -0.9245665, -0.015665986), (0.28339687, -0.9075359, -0.30994323), (0.68164647, -0.6816522, -0.26591074), (0.28339687, -0.9075359, -0.30994323), (0.20348836, -0.69404155, -0.69057864), (0.53233135, -0.5324098, -0.6581513), (0.28339687, -0.9075359, -0.30994323), (0.53233135, -0.5324098, -0.6581513), (0.68164647, -0.6816522, -0.26591074), (-0.3800601, -0.009478601, -0.92491335), (-0.6905865, -0.20324183, -0.694106), (-0.76241904, -0.005083071, -0.6470637), (-0.7629047, 3.371843e-8, -0.64651096), (-0.3800601, -0.009478601, -0.92491335), (-0.76241904, -0.005083071, -0.6470637), (-0.6905865, -0.20324183, -0.694106), (-0.3800601, -0.009478601, -0.92491335), (-0.30991915, -0.28310257, -0.907636), (-0.30991915, -0.28310257, -0.907636), (-0.6583174, -0.5322857, -0.53225005), (-0.6905865, -0.20324183, -0.694106), (-0.6583174, -0.5322857, -0.53225005), (-0.30991915, -0.28310257, -0.907636), (-0.26602462, -0.6815581, -0.68169606), (-0.38020015, 1.658534e-8, -0.9249042), (-0.3800601, -0.009478601, -0.92491335), (-0.7629047, 3.371843e-8, -0.64651096), (-0.64610785, 2.81834e-8, -0.7632462), (-0.38020015, 1.658534e-8, -0.9249042), (-0.7629047, 3.371843e-8, -0.64651096), (-0.0033796015, -0.011483015, -0.99992836), (-0.30991915, -0.28310257, -0.907636), (-0.3800601, -0.009478601, -0.92491335), (-0.38020015, 1.658534e-8, -0.9249042), (-0.0033796015, -0.011483015, -0.99992836), (-0.3800601, -0.009478601, -0.92491335), (-0.0012676168, -0.31674042, -0.9485114), (-0.26602462, -0.6815581, -0.68169606), (-0.30991915, -0.28310257, -0.907636), (-0.30991915, -0.28310257, -0.907636), (-0.0033796015, -0.011483015, -0.99992836), (-0.0012676168, -0.31674042, -0.9485114), (-0.26602462, -0.6815581, -0.68169606), (-0.0012676168, -0.31674042, -0.9485114), (-0.0018194686, -0.7070635, -0.7071478), (-0.0012676168, -0.31674042, -0.9485114), (0.00055792887, -0.70683146, -0.70738184), (-0.0018194686, -0.7070635, -0.7071478), (-0.2549559, 1.10900436e-8, -0.9669527), (-0.38020015, 1.658534e-8, -0.9249042), (-0.64610785, 2.81834e-8, -0.7632462), (-0.70870024, 0.0038767788, -0.70549905), (-0.2549559, 1.10900436e-8, -0.9669527), (-0.64610785, 2.81834e-8, -0.7632462), (0.00055792887, -0.70683146, -0.70738184), (-0.0012676168, -0.31674042, -0.9485114), (0.00023851304, -0.31620517, -0.9486909), (-0.2549559, 1.10900436e-8, -0.9669527), (-0.70870024, 0.0038767788, -0.70549905), (-0.26241875, 0.008914666, -0.96491295), (-0.6905966, 0.20318927, -0.69411135), (-0.26241875, 0.008914666, -0.96491295), (-0.70870024, 0.0038767788, -0.70549905), (0.00055792887, -0.70683146, -0.70738184), (0.00023851304, -0.31620517, -0.9486909), (0.09093294, -0.36096108, -0.9281371), (0.09093294, -0.36096108, -0.9281371), (0.20348836, -0.69404155, -0.69057864), (0.00055792887, -0.70683146, -0.70738184), (-0.0012676168, -0.31674042, -0.9485114), (0.00086202007, -0.0114872325, -0.99993366), (0.00023851304, -0.31620517, -0.9486909), (0.00086202007, -0.0114872325, -0.99993366), (0.09093294, -0.36096108, -0.9281371), (0.00023851304, -0.31620517, -0.9486909), (0.00086202007, -0.0114872325, -0.99993366), (-0.0012676168, -0.31674042, -0.9485114), (-0.0033796015, -0.011483015, -0.99992836), (0.20348836, -0.69404155, -0.69057864), (0.09093294, -0.36096108, -0.9281371), (0.27337998, -0.2733836, -0.9222391), (0.00086202007, -0.0114872325, -0.99993366), (0.27337998, -0.2733836, -0.9222391), (0.09093294, -0.36096108, -0.9281371), (0.20348836, -0.69404155, -0.69057864), (0.27337998, -0.2733836, -0.9222391), (0.53233135, -0.5324098, -0.6581513), (0.27337998, -0.2733836, -0.9222391), (0.6939869, -0.20401552, -0.690478), (0.53233135, -0.5324098, -0.6581513), (0.6939869, -0.20401552, -0.690478), (0.27337998, -0.2733836, -0.9222391), (0.3609603, -0.09124652, -0.92810655), (0.00086202007, -0.0114872325, -0.99993366), (0.3609603, -0.09124652, -0.92810655), (0.27337998, -0.2733836, -0.9222391), (0.3609603, -0.09124652, -0.92810655), (0.70545125, -0.0039125243, -0.7087476), (0.6939869, -0.20401552, -0.690478), (0.00086202007, -0.0114872325, -0.99993366), (0.25595078, -0.0010970318, -0.9666892), (0.3609603, -0.09124652, -0.92810655), (0.70545125, -0.0039125243, -0.7087476), (0.3609603, -0.09124652, -0.92810655), (0.25595078, -0.0010970318, -0.9666892), (-0.0033673153, 1.4702288e-10, -0.9999944), (0.00086202007, -0.0114872325, -0.99993366), (-0.0033796015, -0.011483015, -0.99992836), (-0.0033673153, 1.4702288e-10, -0.9999944), (-0.0033796015, -0.011483015, -0.99992836), (-0.38020015, 1.658534e-8, -0.9249042), (-0.2549559, 1.10900436e-8, -0.9669527), (-0.0033673153, 1.4702288e-10, -0.9999944), (-0.38020015, 1.658534e-8, -0.9249042), (0.0008677182, -4.0339048e-11, -0.99999964), (0.25595078, -0.0010970318, -0.9666892), (0.00086202007, -0.0114872325, -0.99993366), (-0.0033673153, 1.4702288e-10, -0.9999944), (0.0008677182, -4.0339048e-11, -0.99999964), (0.00086202007, -0.0114872325, -0.99993366), (0.25477123, -1.6798668e-7, -0.96700144), (0.70545125, -0.0039125243, -0.7087476), (0.25595078, -0.0010970318, -0.9666892), (0.25595078, -0.0010970318, -0.9666892), (0.0008677182, -4.0339048e-11, -0.99999964), (0.25477123, -1.6798668e-7, -0.96700144), (0.70545125, -0.0039125243, -0.7087476), (0.25477123, -1.6798668e-7, -0.96700144), (0.64596933, -6.4258495e-7, -0.7633634), (-0.0008677182, 3.764978e-11, -0.99999964), (-0.0033673153, 1.4702288e-10, -0.9999944), (-0.2549559, 1.10900436e-8, -0.9669527), (-0.0008677182, 3.764978e-11, -0.99999964), (0.0008677182, -4.0339048e-11, -0.99999964), (-0.0033673153, 1.4702288e-10, -0.9999944), (-0.26241875, 0.008914666, -0.96491295), (-0.0008677182, 3.764978e-11, -0.99999964), (-0.2549559, 1.10900436e-8, -0.9669527), (0.003367232, -1.4413136e-9, -0.9999944), (0.25477123, -1.6798668e-7, -0.96700144), (0.0008677182, -4.0339048e-11, -0.99999964), (0.003367232, -1.4413136e-9, -0.9999944), (0.0008677182, -4.0339048e-11, -0.99999964), (-0.0008677182, 3.764978e-11, -0.99999964), (0.37982607, -3.4862938e-7, -0.925058), (0.64596933, -6.4258495e-7, -0.7633634), (0.25477123, -1.6798668e-7, -0.96700144), (0.37982607, -3.4862938e-7, -0.925058), (0.25477123, -1.6798668e-7, -0.96700144), (0.003367232, -1.4413136e-9, -0.9999944), (0.76290584, -7.378824e-7, -0.64650965), (0.64596933, -6.4258495e-7, -0.7633634), (0.37982607, -3.4862938e-7, -0.925058), (-0.0009270315, 0.011550413, -0.99993294), (0.003367232, -1.4413136e-9, -0.9999944), (-0.0008677182, 3.764978e-11, -0.99999964), (-0.0008677182, 3.764978e-11, -0.99999964), (-0.26241875, 0.008914666, -0.96491295), (-0.0009270315, 0.011550413, -0.99993294), (0.003379434, 0.011483001, -0.9999284), (0.37982607, -3.4862938e-7, -0.925058), (0.003367232, -1.4413136e-9, -0.9999944), (-0.0009270315, 0.011550413, -0.99993294), (0.003379434, 0.011483001, -0.9999284), (0.003367232, -1.4413136e-9, -0.9999944), (0.38003004, 0.011674355, -0.9249005), (0.76290584, -7.378824e-7, -0.64650965), (0.37982607, -3.4862938e-7, -0.925058), (0.37982607, -3.4862938e-7, -0.925058), (0.003379434, 0.011483001, -0.9999284), (0.38003004, 0.011674355, -0.9249005), (0.7605012, 0.008333649, -0.64928305), (0.76290584, -7.378824e-7, -0.64650965), (0.38003004, 0.011674355, -0.9249005), (0.681509, 0.26626143, -0.6816527), (0.7605012, 0.008333649, -0.64928305), (0.38003004, 0.011674355, -0.9249005), (0.28265536, 0.3099741, -0.9077567), (0.681509, 0.26626143, -0.6816527), (0.38003004, 0.011674355, -0.9249005), (0.28265536, 0.3099741, -0.9077567), (0.38003004, 0.011674355, -0.9249005), (0.003379434, 0.011483001, -0.9999284), (0.5320497, 0.65863544, -0.5320925), (0.681509, 0.26626143, -0.6816527), (0.28265536, 0.3099741, -0.9077567), (0.28265536, 0.3099741, -0.9077567), (0.20293646, 0.6906043, -0.6941775), (0.5320497, 0.65863544, -0.5320925), (0.001314065, 0.2555946, -0.96678317), (0.28265536, 0.3099741, -0.9077567), (0.003379434, 0.011483001, -0.9999284), (0.20293646, 0.6906043, -0.6941775), (0.28265536, 0.3099741, -0.9077567), (0.001314065, 0.2555946, -0.96678317), (-0.0009270315, 0.011550413, -0.99993294), (0.001314065, 0.2555946, -0.96678317), (0.003379434, 0.011483001, -0.9999284), (0.000743727, 0.6467165, -0.7627302), (0.20293646, 0.6906043, -0.6941775), (0.001314065, 0.2555946, -0.96678317), (-0.0017363768, 0.38063723, -0.92472285), (0.000743727, 0.6467165, -0.7627302), (0.001314065, 0.2555946, -0.96678317), (0.001314065, 0.2555946, -0.96678317), (-0.0009270315, 0.011550413, -0.99993294), (-0.0017363768, 0.38063723, -0.92472285), (0.000743727, 0.6467165, -0.7627302), (-0.0017363768, 0.38063723, -0.92472285), (-0.0012084424, 0.762903, -0.646512), (-0.0012084424, 0.762903, -0.646512), (-0.0017363768, 0.38063723, -0.92472285), (-0.2661067, 0.6815687, -0.6816534), (-0.0017363768, 0.38063723, -0.92472285), (-0.0009270315, 0.011550413, -0.99993294), (-0.30994633, 0.28300163, -0.90765816), (-0.2661067, 0.6815687, -0.6816534), (-0.0017363768, 0.38063723, -0.92472285), (-0.30994633, 0.28300163, -0.90765816), (-0.30994633, 0.28300163, -0.90765816), (-0.0009270315, 0.011550413, -0.99993294), (-0.26241875, 0.008914666, -0.96491295), (-0.65841216, 0.53221816, -0.53220046), (-0.2661067, 0.6815687, -0.6816534), (-0.30994633, 0.28300163, -0.90765816), (-0.30994633, 0.28300163, -0.90765816), (-0.26241875, 0.008914666, -0.96491295), (-0.6905966, 0.20318927, -0.69411135), (-0.65841216, 0.53221816, -0.53220046), (-0.30994633, 0.28300163, -0.90765816), (-0.6905966, 0.20318927, -0.69411135), (-0.9223304, -0.27323577, -0.27321944), (-0.6905865, -0.20324183, -0.694106), (-0.6583174, -0.5322857, -0.53225005), (-0.6905868, -0.69411165, -0.20322129), (-0.9223304, -0.27323577, -0.27321944), (-0.6583174, -0.5322857, -0.53225005), (-0.6905865, -0.20324183, -0.694106), (-0.9223304, -0.27323577, -0.27321944), (-0.9281602, -0.09085301, -0.36092147), (-0.9281602, -0.09085301, -0.36092147), (-0.76241904, -0.005083071, -0.6470637), (-0.6905865, -0.20324183, -0.694106), (-0.6905868, -0.69411165, -0.20322129), (-0.92814374, -0.36097246, -0.090819016), (-0.9223304, -0.27323577, -0.27321944), (-0.92814374, -0.36097246, -0.090819016), (-0.6905868, -0.69411165, -0.20322129), (-0.7093197, -0.7048672, -0.0052834842), (-0.9999445, -0.006297719, -0.008453626), (-0.9281602, -0.09085301, -0.36092147), (-0.9223304, -0.27323577, -0.27321944), (-0.9999445, -0.006297719, -0.008453626), (-0.9223304, -0.27323577, -0.27321944), (-0.92814374, -0.36097246, -0.090819016), (-0.76241904, -0.005083071, -0.6470637), (-0.9281602, -0.09085301, -0.36092147), (-0.9666883, -0.0010898412, -0.25595444), (-0.9999445, -0.006297719, -0.008453626), (-0.9666883, -0.0010898412, -0.25595444), (-0.9281602, -0.09085301, -0.36092147), (-0.7093197, -0.7048672, -0.0052834842), (-0.96653086, -0.25654632, -0.0014880864), (-0.92814374, -0.36097246, -0.090819016), (-0.9999445, -0.006297719, -0.008453626), (-0.92814374, -0.36097246, -0.090819016), (-0.96653086, -0.25654632, -0.0014880864), (-0.96695155, 4.3099867e-8, -0.25496036), (-0.76241904, -0.005083071, -0.6470637), (-0.9666883, -0.0010898412, -0.25595444), (-0.7629047, 3.371843e-8, -0.64651096), (-0.76241904, -0.005083071, -0.6470637), (-0.96695155, 4.3099867e-8, -0.25496036), (-0.9999663, 4.290978e-8, -0.008205834), (-0.9666883, -0.0010898412, -0.25595444), (-0.9999445, -0.006297719, -0.008453626), (-0.96695155, 4.3099867e-8, -0.25496036), (-0.9666883, -0.0010898412, -0.25595444), (-0.9999663, 4.290978e-8, -0.008205834), (-0.9246791, 4.1304574e-8, -0.38074735), (-0.7629047, 3.371843e-8, -0.64651096), (-0.96695155, 4.3099867e-8, -0.25496036), (-0.64610785, 2.81834e-8, -0.7632462), (-0.7629047, 3.371843e-8, -0.64651096), (-0.9246791, 4.1304574e-8, -0.38074735), (-0.9246791, 4.1304574e-8, -0.38074735), (-0.70870024, 0.0038767788, -0.70549905), (-0.64610785, 2.81834e-8, -0.7632462), (-0.9246791, 4.1304574e-8, -0.38074735), (-0.96695155, 4.3099867e-8, -0.25496036), (-0.9996149, 4.4806995e-8, -0.027753744), (-0.9996149, 4.4806995e-8, -0.027753744), (-0.96695155, 4.3099867e-8, -0.25496036), (-0.9999663, 4.290978e-8, -0.008205834), (-0.70870024, 0.0038767788, -0.70549905), (-0.9246791, 4.1304574e-8, -0.38074735), (-0.9666878, 0.0010898327, -0.25595626), (-0.9996149, 4.4806995e-8, -0.027753744), (-0.9666878, 0.0010898327, -0.25595626), (-0.9246791, 4.1304574e-8, -0.38074735), (-0.92816156, 0.090830244, -0.36092398), (-0.70870024, 0.0038767788, -0.70549905), (-0.9666878, 0.0010898327, -0.25595626), (-0.6905966, 0.20318927, -0.69411135), (-0.70870024, 0.0038767788, -0.70549905), (-0.92816156, 0.090830244, -0.36092398), (-0.9666878, 0.0010898327, -0.25595626), (-0.9996149, 4.4806995e-8, -0.027753744), (-0.99981683, 0.011433711, -0.015347831), (-0.99981683, 0.011433711, -0.015347831), (-0.92816156, 0.090830244, -0.36092398), (-0.9666878, 0.0010898327, -0.25595626), (-0.6905966, 0.20318927, -0.69411135), (-0.92816156, 0.090830244, -0.36092398), (-0.922348, 0.27319375, -0.27320188), (-0.99981683, 0.011433711, -0.015347831), (-0.922348, 0.27319375, -0.27320188), (-0.92816156, 0.090830244, -0.36092398), (-0.922348, 0.27319375, -0.27320188), (-0.65841216, 0.53221816, -0.53220046), (-0.6905966, 0.20318927, -0.69411135), (-0.922348, 0.27319375, -0.27320188), (-0.6906226, 0.6941205, -0.20306924), (-0.65841216, 0.53221816, -0.53220046), (-0.6906226, 0.6941205, -0.20306924), (-0.922348, 0.27319375, -0.27320188), (-0.92816824, 0.36094218, -0.09068983), (-0.99981683, 0.011433711, -0.015347831), (-0.92816824, 0.36094218, -0.09068983), (-0.922348, 0.27319375, -0.27320188), (-0.92816824, 0.36094218, -0.09068983), (-0.70932186, 0.70486516, -0.005264963), (-0.6906226, 0.6941205, -0.20306924), (-0.99981683, 0.011433711, -0.015347831), (-0.96653086, 0.25654632, -0.0014851418), (-0.92816824, 0.36094218, -0.09068983), (-0.70932186, 0.70486516, -0.005264963), (-0.92816824, 0.36094218, -0.09068983), (-0.96653086, 0.25654632, -0.0014851418), (-0.99981683, 0.011433711, -0.015347831), (-0.9999339, 0.01149723, -1.5132993e-7), (-0.96653086, 0.25654632, -0.0014851418), (-0.9996149, 4.4806995e-8, -0.027753744), (-0.9999339, 0.01149723, -1.5132993e-7), (-0.99981683, 0.011433711, -0.015347831), (-0.96653086, 0.25654632, -0.0014851418), (-0.9670271, 0.2546737, -1.4631668e-7), (-0.70932186, 0.70486516, -0.005264963), (-0.9670271, 0.2546737, -1.4631668e-7), (-0.96653086, 0.25654632, -0.0014851418), (-0.9999339, 0.01149723, -1.5132993e-7), (-0.7071226, 0.70709103, -1.0670797e-7), (-0.70932186, 0.70486516, -0.005264963), (-0.9670271, 0.2546737, -1.4631668e-7), (-0.9999339, 0.01149723, -1.5132993e-7), (-0.9996149, 4.4806995e-8, -0.027753744), (-1, 4.3390223e-8, -1.5056666e-7), (-0.9996149, 4.4806995e-8, -0.027753744), (-0.9999663, 4.290978e-8, -0.008205834), (-1, 4.3390223e-8, -1.5056666e-7), (-0.9670271, 0.2546737, -1.4631668e-7), (-0.9246791, 0.38074735, -1.3964446e-7), (-0.7071226, 0.70709103, -1.0670797e-7), (-0.70698947, 0.70722413, -1.0730243e-7), (-0.7071226, 0.70709103, -1.0670797e-7), (-0.9246791, 0.38074735, -1.3964446e-7), (-0.75933826, 0.6505982, 0.01128369), (-0.70698947, 0.70722413, -1.0730243e-7), (-0.9246791, 0.38074735, -1.3964446e-7), (-0.9999339, 0.01149723, -1.5132993e-7), (-0.99993384, 0.01150503, -1.5052778e-7), (-0.9670271, 0.2546737, -1.4631668e-7), (-0.9246791, 0.38074735, -1.3964446e-7), (-0.9670271, 0.2546737, -1.4631668e-7), (-0.99993384, 0.01150503, -1.5052778e-7), (-0.99993384, 0.01150503, -1.5052778e-7), (-0.9999339, 0.01149723, -1.5132993e-7), (-1, 4.3390223e-8, -1.5056666e-7), (-0.75933826, 0.6505982, 0.01128369), (-0.9246791, 0.38074735, -1.3964446e-7), (-0.96357876, 0.26701665, 0.014769172), (-0.96357876, 0.26701665, 0.014769172), (-0.9246791, 0.38074735, -1.3964446e-7), (-0.99993384, 0.01150503, -1.5052778e-7), (-0.75933826, 0.6505982, 0.01128369), (-0.96357876, 0.26701665, 0.014769172), (-0.6816221, 0.68162775, 0.2660358), (-0.99993384, 0.01150503, -1.5052778e-7), (-1, 4.3390223e-8, -1.5056666e-7), (-1, 4.288246e-8, -1.5051403e-7), (-0.6816221, 0.68162775, 0.2660358), (-0.96357876, 0.26701665, 0.014769172), (-0.90762025, 0.28312162, 0.30994776), (-0.5321977, 0.5322777, 0.65836626), (-0.6816221, 0.68162775, 0.2660358), (-0.90762025, 0.28312162, 0.30994776), (-0.5321977, 0.5322777, 0.65836626), (-0.90762025, 0.28312162, 0.30994776), (-0.69406414, 0.20329846, 0.6906119), (-0.96357876, 0.26701665, 0.014769172), (-0.99993384, 0.01150503, -1.5052778e-7), (-0.99993485, 0.006925373, 0.00907788), (-0.96357876, 0.26701665, 0.014769172), (-0.99993485, 0.006925373, 0.00907788), (-0.90762025, 0.28312162, 0.30994776), (-1, 4.288246e-8, -1.5051403e-7), (-0.99993485, 0.006925373, 0.00907788), (-0.99993384, 0.01150503, -1.5052778e-7), (-0.90762025, 0.28312162, 0.30994776), (-0.9649126, 0.008908473, 0.26242015), (-0.69406414, 0.20329846, 0.6906119), (-0.90762025, 0.28312162, 0.30994776), (-0.99993485, 0.006925373, 0.00907788), (-0.9649126, 0.008908473, 0.26242015), (-0.69406414, 0.20329846, 0.6906119), (-0.9649126, 0.008908473, 0.26242015), (-0.705451, 0.0038765874, 0.7087481), (-0.9998805, 4.3656183e-8, 0.015460829), (-0.9649126, 0.008908473, 0.26242015), (-0.99993485, 0.006925373, 0.00907788), (-0.99993485, 0.006925373, 0.00907788), (-1, 4.288246e-8, -1.5051403e-7), (-0.9998805, 4.3656183e-8, 0.015460829), (-0.9649126, 0.008908473, 0.26242015), (-0.92469525, 1.8624014e-8, 0.3807082), (-0.705451, 0.0038765874, 0.7087481), (-0.9649126, 0.008908473, 0.26242015), (-0.9998805, 4.3656183e-8, 0.015460829), (-0.92469525, 1.8624014e-8, 0.3807082), (-0.705451, 0.0038765874, 0.7087481), (-0.92469525, 1.8624014e-8, 0.3807082), (-0.64610785, 2.81834e-8, 0.7632462), (-0.92469525, 1.8624014e-8, 0.3807082), (-0.7629524, 1.5718696e-8, 0.6464547), (-0.64610785, 2.81834e-8, 0.7632462), (-0.7629524, 1.5718696e-8, 0.6464547), (-0.92469525, 1.8624014e-8, 0.3807082), (-0.96695197, 2.2424604e-8, 0.2549588), (-0.9998805, 4.3656183e-8, 0.015460829), (-0.96695197, 2.2424604e-8, 0.2549588), (-0.92469525, 1.8624014e-8, 0.3807082), (-0.76046294, -0.008336372, 0.64932793), (-0.7629524, 1.5718696e-8, 0.6464547), (-0.96695197, 2.2424604e-8, 0.2549588), (-0.96695197, 2.2424604e-8, 0.2549588), (-0.9645156, -0.010978749, 0.26379782), (-0.76046294, -0.008336372, 0.64932793), (-0.9645156, -0.010978749, 0.26379782), (-0.68160945, -0.26618433, 0.68158233), (-0.76046294, -0.008336372, 0.64932793), (-0.96695197, 2.2424604e-8, 0.2549588), (-0.9998805, 4.3656183e-8, 0.015460829), (-0.9998809, 4.6315716e-8, 0.015432273), (-0.9645156, -0.010978749, 0.26379782), (-0.96695197, 2.2424604e-8, 0.2549588), (-0.9998809, 4.6315716e-8, 0.015432273), (-0.68160945, -0.26618433, 0.68158233), (-0.9645156, -0.010978749, 0.26379782), (-0.9075916, -0.31001258, 0.28314266), (-0.9075916, -0.31001258, 0.28314266), (-0.53231835, -0.6583266, 0.532206), (-0.68160945, -0.26618433, 0.68158233), (-0.53231835, -0.6583266, 0.532206), (-0.9075916, -0.31001258, 0.28314266), (-0.69410586, -0.69055647, 0.20334436), (-0.9997857, -0.012557467, 0.016461374), (-0.9075916, -0.31001258, 0.28314266), (-0.9645156, -0.010978749, 0.26379782), (-0.9998809, 4.6315716e-8, 0.015432273), (-0.9997857, -0.012557467, 0.016461374), (-0.9645156, -0.010978749, 0.26379782), (-0.9641106, -0.2652288, 0.012021082), (-0.69410586, -0.69055647, 0.20334436), (-0.9075916, -0.31001258, 0.28314266), (-0.9075916, -0.31001258, 0.28314266), (-0.9997857, -0.012557467, 0.016461374), (-0.9641106, -0.2652288, 0.012021082), (-0.69410586, -0.69055647, 0.20334436), (-0.9641106, -0.2652288, 0.012021082), (-0.75683105, -0.65357417, 0.0068966025), (-0.9998809, 4.6315716e-8, 0.015432273), (-0.9999339, -0.0114968885, -1.5204351e-7), (-0.9997857, -0.012557467, 0.016461374), (-0.9999339, -0.0114968885, -1.5204351e-7), (-0.9641106, -0.2652288, 0.012021082), (-0.9997857, -0.012557467, 0.016461374), (-0.96702677, -0.25467512, -1.4631664e-7), (-0.75683105, -0.65357417, 0.0068966025), (-0.9641106, -0.2652288, 0.012021082), (-0.9641106, -0.2652288, 0.012021082), (-0.9999339, -0.0114968885, -1.5204351e-7), (-0.96702677, -0.25467512, -1.4631664e-7), (-0.75683105, -0.65357417, 0.0068966025), (-0.96702677, -0.25467512, -1.4631664e-7), (-0.76323605, -0.6461198, -1.1561774e-7), (-0.9998809, 4.6315716e-8, 0.015432273), (-1, 4.4939878e-8, -1.5134277e-7), (-0.9999339, -0.0114968885, -1.5204351e-7), (-0.9998805, 4.3656183e-8, 0.015460829), (-1, 4.4939878e-8, -1.5134277e-7), (-0.9998809, 4.6315716e-8, 0.015432273), (-1, 4.288246e-8, -1.5051403e-7), (-1, 4.4939878e-8, -1.5134277e-7), (-0.9998805, 4.3656183e-8, 0.015460829), (-0.99993384, -0.011504859, -1.5127422e-7), (-0.96702677, -0.25467512, -1.4631664e-7), (-0.9999339, -0.0114968885, -1.5204351e-7), (-1, 4.4939878e-8, -1.5134277e-7), (-0.99993384, -0.011504859, -1.5127422e-7), (-0.9999339, -0.0114968885, -1.5204351e-7), (-0.9246792, -0.38074738, -1.3943308e-7), (-0.76323605, -0.6461198, -1.1561774e-7), (-0.96702677, -0.25467512, -1.4631664e-7), (-0.96702677, -0.25467512, -1.4631664e-7), (-0.99993384, -0.011504859, -1.5127422e-7), (-0.9246792, -0.38074738, -1.3943308e-7), (-0.76323605, -0.6461198, -1.1561774e-7), (-0.9246792, -0.38074738, -1.3943308e-7), (-0.64602715, -0.76331455, -9.7454986e-8), (-0.9246792, -0.38074738, -1.3943308e-7), (-0.7093197, -0.7048672, -0.0052834842), (-0.64602715, -0.76331455, -9.7454986e-8), (-0.9246792, -0.38074738, -1.3943308e-7), (-0.96653086, -0.25654632, -0.0014880864), (-0.7093197, -0.7048672, -0.0052834842), (-0.99993384, -0.011504859, -1.5127422e-7), (-0.96653086, -0.25654632, -0.0014880864), (-0.9246792, -0.38074738, -1.3943308e-7), (-0.99993384, -0.011504859, -1.5127422e-7), (-0.9999445, -0.006297719, -0.008453626), (-0.96653086, -0.25654632, -0.0014880864), (-1, 4.4939878e-8, -1.5134277e-7), (-1, 4.2881283e-8, -1.5051566e-7), (-0.99993384, -0.011504859, -1.5127422e-7), (-1, 4.2881283e-8, -1.5051566e-7), (-0.9999445, -0.006297719, -0.008453626), (-0.99993384, -0.011504859, -1.5127422e-7), (-1, 4.288246e-8, -1.5051403e-7), (-1, 4.2881283e-8, -1.5051566e-7), (-1, 4.4939878e-8, -1.5134277e-7), (-1, 4.2881283e-8, -1.5051566e-7), (-0.9999663, 4.290978e-8, -0.008205834), (-0.9999445, -0.006297719, -0.008453626), (-1, 4.288246e-8, -1.5051403e-7), (-1, 4.3390223e-8, -1.5056666e-7), (-1, 4.2881283e-8, -1.5051566e-7), (-1, 4.3390223e-8, -1.5056666e-7), (-0.9999663, 4.290978e-8, -0.008205834), (-1, 4.2881283e-8, -1.5051566e-7), (-0.0014017413, 0.9247199, 0.38064575), (-0.20327997, 0.69407684, 0.69060457), (-0.00073988276, 0.6460759, 0.7632728), (0.00073997985, 0.7626355, 0.6468282), (-0.0014017413, 0.9247199, 0.38064575), (-0.00073988276, 0.6460759, 0.7632728), (-0.20327997, 0.69407684, 0.69060457), (-0.0014017413, 0.9247199, 0.38064575), (-0.2830767, 0.90762514, 0.30997464), (-0.2830767, 0.90762514, 0.30997464), (-0.5321977, 0.5322777, 0.65836626), (-0.20327997, 0.69407684, 0.69060457), (-0.5321977, 0.5322777, 0.65836626), (-0.2830767, 0.90762514, 0.30997464), (-0.6816221, 0.68162775, 0.2660358), (0.0013125387, 0.966784, 0.25559154), (-0.0014017413, 0.9247199, 0.38064575), (0.00073997985, 0.7626355, 0.6468282), (0.20348871, 0.6940412, 0.69057894), (0.0013125387, 0.966784, 0.25559154), (0.00073997985, 0.7626355, 0.6468282), (-0.0030534202, 0.9996156, 0.0275566), (-0.2830767, 0.90762514, 0.30997464), (-0.0014017413, 0.9247199, 0.38064575), (0.0013125387, 0.966784, 0.25559154), (-0.0030534202, 0.9996156, 0.0275566), (-0.0014017413, 0.9247199, 0.38064575), (-0.38040316, 0.9246882, 0.015664564), (-0.6816221, 0.68162775, 0.2660358), (-0.2830767, 0.90762514, 0.30997464), (-0.2830767, 0.90762514, 0.30997464), (-0.0030534202, 0.9996156, 0.0275566), (-0.38040316, 0.9246882, 0.015664564), (-0.6816221, 0.68162775, 0.2660358), (-0.38040316, 0.9246882, 0.015664564), (-0.75933826, 0.6505982, 0.01128369), (-0.38040316, 0.9246882, 0.015664564), (-0.70698947, 0.70722413, -1.0730243e-7), (-0.75933826, 0.6505982, 0.01128369), (-0.38040316, 0.9246882, 0.015664564), (-0.38055062, 0.9247601, -5.7577335e-8), (-0.70698947, 0.70722413, -1.0730243e-7), (-0.0030534202, 0.9996156, 0.0275566), (-0.38055062, 0.9247601, -5.7577335e-8), (-0.38040316, 0.9246882, 0.015664564), (-0.38055062, 0.9247601, -5.7577335e-8), (-0.7071226, 0.70709103, -1.0670797e-7), (-0.70698947, 0.70722413, -1.0730243e-7), (-0.7071226, 0.70709103, -1.0670797e-7), (-0.38055062, 0.9247601, -5.7577335e-8), (-0.25463513, 0.9670372, -3.833393e-8), (-0.25463513, 0.9670372, -3.833393e-8), (-0.70932186, 0.70486516, -0.005264963), (-0.7071226, 0.70709103, -1.0670797e-7), (-0.0030534202, 0.9996156, 0.0275566), (-0.0033804823, 0.9999943, -5.0881516e-10), (-0.38055062, 0.9247601, -5.7577335e-8), (-0.0033804823, 0.9999943, -5.0881516e-10), (-0.25463513, 0.9670372, -3.833393e-8), (-0.38055062, 0.9247601, -5.7577335e-8), (-0.70932186, 0.70486516, -0.005264963), (-0.25463513, 0.9670372, -3.833393e-8), (-0.26519182, 0.96412116, -0.011992896), (-0.26519182, 0.96412116, -0.011992896), (-0.6906226, 0.6941205, -0.20306924), (-0.70932186, 0.70486516, -0.005264963), (-0.25463513, 0.9670372, -3.833393e-8), (-0.0033804823, 0.9999943, -5.0881516e-10), (-0.0008642778, 0.99999964, -1.3012898e-10), (-0.0008642778, 0.99999964, -1.3012898e-10), (-0.26519182, 0.96412116, -0.011992896), (-0.25463513, 0.9670372, -3.833393e-8), (0.0018049765, 0.9999645, 0.008239351), (-0.0033804823, 0.9999943, -5.0881516e-10), (-0.0030534202, 0.9996156, 0.0275566), (0.0018049765, 0.9999645, 0.008239351), (-0.0030534202, 0.9996156, 0.0275566), (0.0013125387, 0.966784, 0.25559154), (0.0008629918, 0.99999964, 1.3080197e-10), (-0.0008642778, 0.99999964, -1.3012898e-10), (-0.0033804823, 0.9999943, -5.0881516e-10), (-0.0033804823, 0.9999943, -5.0881516e-10), (0.0018049765, 0.9999645, 0.008239351), (0.0008629918, 0.99999964, 1.3080197e-10), (-0.6906226, 0.6941205, -0.20306924), (-0.26519182, 0.96412116, -0.011992896), (-0.3100369, 0.9076951, -0.28278387), (-0.3100369, 0.9076951, -0.28278387), (-0.65841216, 0.53221816, -0.53220046), (-0.6906226, 0.6941205, -0.20306924), (-0.65841216, 0.53221816, -0.53220046), (-0.3100369, 0.9076951, -0.28278387), (-0.2661067, 0.6815687, -0.6816534), (-0.26519182, 0.96412116, -0.011992896), (-0.0008642778, 0.99999964, -1.3012898e-10), (-0.0010030441, 0.9999654, -0.008262701), (-0.0010030441, 0.9999654, -0.008262701), (-0.3100369, 0.9076951, -0.28278387), (-0.26519182, 0.96412116, -0.011992896), (-0.0016248409, 0.9667762, -0.25561926), (-0.2661067, 0.6815687, -0.6816534), (-0.3100369, 0.9076951, -0.28278387), (-0.3100369, 0.9076951, -0.28278387), (-0.0010030441, 0.9999654, -0.008262701), (-0.0016248409, 0.9667762, -0.25561926), (-0.2661067, 0.6815687, -0.6816534), (-0.0016248409, 0.9667762, -0.25561926), (-0.0012084424, 0.762903, -0.646512), (0.0033805342, 0.9999943, 9.1640723e-10), (-0.0010030441, 0.9999654, -0.008262701), (-0.0008642778, 0.99999964, -1.3012898e-10), (0.0008629918, 0.99999964, 1.3080197e-10), (0.0033805342, 0.9999943, 9.1640723e-10), (-0.0008642778, 0.99999964, -1.3012898e-10), (0.00017011634, 0.92479414, -0.38046786), (-0.0012084424, 0.762903, -0.646512), (-0.0016248409, 0.9667762, -0.25561926), (0.000743727, 0.6467165, -0.7627302), (-0.0012084424, 0.762903, -0.646512), (0.00017011634, 0.92479414, -0.38046786), (0.0028996838, 0.9996212, -0.027372418), (-0.0016248409, 0.9667762, -0.25561926), (-0.0010030441, 0.9999654, -0.008262701), (0.00017011634, 0.92479414, -0.38046786), (-0.0016248409, 0.9667762, -0.25561926), (0.0028996838, 0.9996212, -0.027372418), (-0.0010030441, 0.9999654, -0.008262701), (0.0033805342, 0.9999943, 9.1640723e-10), (0.0028996838, 0.9996212, -0.027372418), (0.09070257, 0.928171, -0.3609316), (0.000743727, 0.6467165, -0.7627302), (0.00017011634, 0.92479414, -0.38046786), (0.0028996838, 0.9996212, -0.027372418), (0.09070257, 0.928171, -0.3609316), (0.00017011634, 0.92479414, -0.38046786), (0.20293646, 0.6906043, -0.6941775), (0.000743727, 0.6467165, -0.7627302), (0.09070257, 0.928171, -0.3609316), (0.20293646, 0.6906043, -0.6941775), (0.09070257, 0.928171, -0.3609316), (0.27306217, 0.92243254, -0.27304846), (0.0028996838, 0.9996212, -0.027372418), (0.27306217, 0.92243254, -0.27304846), (0.09070257, 0.928171, -0.3609316), (0.27306217, 0.92243254, -0.27304846), (0.5320497, 0.65863544, -0.5320925), (0.20293646, 0.6906043, -0.6941775), (0.27306217, 0.92243254, -0.27304846), (0.6942144, 0.6908162, -0.20208754), (0.5320497, 0.65863544, -0.5320925), (0.6942144, 0.6908162, -0.20208754), (0.27306217, 0.92243254, -0.27304846), (0.360927, 0.9282254, -0.09016381), (0.0028996838, 0.9996212, -0.027372418), (0.360927, 0.9282254, -0.09016381), (0.27306217, 0.92243254, -0.27304846), (0.360927, 0.9282254, -0.09016381), (0.7568302, 0.6535762, -0.0067951363), (0.6942144, 0.6908162, -0.20208754), (0.7568302, 0.6535762, -0.0067951363), (0.360927, 0.9282254, -0.09016381), (0.3785088, 0.9255964, -0.0015658872), (0.0028996838, 0.9996212, -0.027372418), (0.3785088, 0.9255964, -0.0015658872), (0.360927, 0.9282254, -0.09016381), (0.7069908, 0.70722276, 3.3062662e-7), (0.7568302, 0.6535762, -0.0067951363), (0.3785088, 0.9255964, -0.0015658872), (0.38060874, 0.9247362, 1.6125925e-7), (0.3785088, 0.9255964, -0.0015658872), (0.0028996838, 0.9996212, -0.027372418), (0.7069908, 0.70722276, 3.3062662e-7), (0.3785088, 0.9255964, -0.0015658872), (0.38060874, 0.9247362, 1.6125925e-7), (0.38060874, 0.9247362, 1.6125925e-7), (0.0028996838, 0.9996212, -0.027372418), (0.0033805342, 0.9999943, 9.1640723e-10), (0.38060874, 0.9247362, 1.6125925e-7), (0.70705736, 0.7071562, 3.035088e-7), (0.7069908, 0.70722276, 3.3062662e-7), (0.0033805342, 0.9999943, 9.1640723e-10), (0.254606, 0.9670449, 8.719854e-8), (0.38060874, 0.9247362, 1.6125925e-7), (0.70705736, 0.7071562, 3.035088e-7), (0.38060874, 0.9247362, 1.6125925e-7), (0.254606, 0.9670449, 8.719854e-8), (0.254606, 0.9670449, 8.719854e-8), (0.0033805342, 0.9999943, 9.1640723e-10), (0.0008629918, 0.99999964, 1.3080197e-10), (0.0018049765, 0.9999645, 0.008239351), (0.254606, 0.9670449, 8.719854e-8), (0.0008629918, 0.99999964, 1.3080197e-10), (0.38069922, 0.92456627, 0.015665816), (0.70705736, 0.7071562, 3.035088e-7), (0.254606, 0.9670449, 8.719854e-8), (0.254606, 0.9670449, 8.719854e-8), (0.0018049765, 0.9999645, 0.008239351), (0.38069922, 0.92456627, 0.015665816), (0.70705736, 0.7071562, 3.035088e-7), (0.38069922, 0.92456627, 0.015665816), (0.7592583, 0.6506917, 0.01128407), (0.7592583, 0.6506917, 0.01128407), (0.38069922, 0.92456627, 0.015665816), (0.68164736, 0.6816514, 0.26591024), (0.38069922, 0.92456627, 0.015665816), (0.0018049765, 0.9999645, 0.008239351), (0.28339735, 0.9075358, 0.3099431), (0.68164736, 0.6816514, 0.26591024), (0.38069922, 0.92456627, 0.015665816), (0.28339735, 0.9075358, 0.3099431), (0.28339735, 0.9075358, 0.3099431), (0.0018049765, 0.9999645, 0.008239351), (0.0013125387, 0.966784, 0.25559154), (0.5323317, 0.5324092, 0.6581516), (0.68164736, 0.6816514, 0.26591024), (0.28339735, 0.9075358, 0.3099431), (0.28339735, 0.9075358, 0.3099431), (0.0013125387, 0.966784, 0.25559154), (0.20348871, 0.6940412, 0.69057894), (0.5323317, 0.5324092, 0.6581516), (0.28339735, 0.9075358, 0.3099431), (0.20348871, 0.6940412, 0.69057894)] (
        interpolation = "faceVarying"
    )
    point3f[] points = [(0.0116344355, 0.30087498, -0.598194), (0.011633875, 0.30087498, 0.598194), (0.011728186, 0.30071872, -0.598194), (0.011727719, 0.30071872, 0.598194), (0.011759436, 0.30049998, -0.598194), (0.011759254, 0.30049998, 0.598194), (0.011759254, 0.2980008, 0.598194), (0.011759436, 0.2980008, -0.598194), (0.01163403, -0.30087498, -0.598194), (0.0117279785, -0.30071872, 0.598194), (0.011634228, -0.30087498, 0.598194), (0.011727874, -0.30071872, -0.598194), (0.011759228, -0.30049998, 0.598194), (0.01175941, -0.30049998, -0.598194), (0.01175941, -0.2980008, -0.598194), (0.011759228, -0.2980008, 0.598194), (0.01163403, -0.30087498, -0.59999996), (0.011727874, -0.30071872, -0.59999996), (0.011610616, -0.30085152, -0.6002188), (0.011698595, -0.30070508, -0.6002188), (0.011540375, -0.30078125, -0.600375), (0.011610758, -0.30066407, -0.600375), (0.01175941, -0.30049998, -0.59999996), (0.01172816, -0.30049998, -0.6002188), (0.011634409, -0.30049998, -0.600375), (0.01175941, -0.2980008, -0.59999996), (0.011728161, -0.2980008, -0.6002188), (0.011634412, -0.2980008, -0.600375), (0.0116350455, 0.2980008, -0.600375), (0.011728645, 0.2980008, -0.6002188), (0.011635049, 0.30049998, -0.600375), (0.011759436, 0.2980008, -0.59999996), (0.011728646, 0.30049998, -0.6002188), (0.011611573, 0.30071872, -0.6003516), (0.011759436, 0.30049998, -0.59999996), (0.011699321, 0.30071872, -0.6002051), (0.011541146, 0.30087498, -0.6002813), (0.011611343, 0.30087498, -0.60016406), (0.011728186, 0.30071872, -0.59999996), (0.0116344355, 0.30087498, -0.59999996), (0.011634228, -0.30087498, 0.59999996), (0.0117279785, -0.30071872, 0.59999996), (0.011611136, -0.30087498, 0.60016406), (0.011759228, -0.30049998, 0.59999996), (0.011699113, -0.30071872, 0.6002051), (0.011540938, -0.30087498, 0.6002813), (0.011611366, -0.30071872, 0.6003516), (0.011759228, -0.2980008, 0.59999996), (0.011728439, -0.30049998, 0.6002188), (0.011634842, -0.30049998, 0.600375), (0.011759254, 0.2980008, 0.59999996), (0.011728438, -0.2980008, 0.6002188), (0.011634838, -0.2980008, 0.600375), (0.011728006, 0.2980008, 0.6002188), (0.011634258, 0.2980008, 0.600375), (0.011634254, 0.30049998, 0.600375), (0.0117280055, 0.30049998, 0.6002188), (0.011610603, 0.30066407, 0.600375), (0.011759254, 0.30049998, 0.59999996), (0.01169844, 0.30070508, 0.6002188), (0.011540219, 0.30078125, 0.600375), (0.011610461, 0.30085152, 0.6002188), (0.011727719, 0.30071872, 0.59999996), (0.011633875, 0.30087498, 0.59999996), (-0.006740771, -0.30071872, 0.60046875), (-0.0069048335, -0.30087498, 0.6003516), (-0.006740771, -0.30087498, 0.600375), (0.011259229, -0.30087498, 0.600375), (-0.006945849, -0.30071872, 0.6004394), (-0.007022021, -0.30087498, 0.6002812), (-0.007092333, -0.30071872, 0.6003515), (0.011259229, -0.30071872, 0.60046875), (0.011423636, -0.30087498, 0.6003516), (-0.006740771, -0.30049998, 0.6005), (-0.0069595207, -0.30049998, 0.60046875), (-0.0071157706, -0.30049998, 0.600375), (-0.0071157706, -0.2980008, 0.600375), (-0.0069595207, -0.2980008, 0.60046875), (-0.0071157445, 0.2980008, 0.600375), (-0.0069594947, 0.2980008, 0.60046875), (-0.0071157445, 0.30049998, 0.600375), (-0.006740771, -0.2980008, 0.6005), (0.011259229, -0.30049998, 0.6005), (0.011464737, -0.30071872, 0.6004394), (0.011478439, -0.30049998, 0.60046875), (0.011478438, -0.2980008, 0.60046875), (0.011634258, 0.2980008, 0.600375), (0.011259229, -0.2980008, 0.6005), (0.011478007, 0.2980008, 0.60046875), (-0.0067407438, 0.2980008, 0.6005), (0.011259255, 0.2980008, 0.6005), (0.011478005, 0.30049998, 0.60046875), (-0.0069594947, 0.30049998, 0.60046875), (0.011464208, 0.30059567, 0.60046875), (0.011610603, 0.30066407, 0.600375), (-0.006945822, 0.3005957, 0.60046875), (-0.007092307, 0.30066407, 0.600375), (-0.0067407438, 0.30049998, 0.6005), (-0.0069048065, 0.30066407, 0.60046875), (-0.007021994, 0.30078125, 0.600375), (-0.0069048065, 0.30085152, 0.600375), (-0.0068364474, 0.30070508, 0.60046875), (-0.0067407438, 0.30087498, 0.600375), (-0.0067407438, 0.30071872, 0.60046875), (0.011259255, 0.30049998, 0.6005), (0.011259255, 0.30071872, 0.60046875), (0.011259255, 0.30087498, 0.600375), (0.011354832, 0.30070508, 0.60046875), (0.0114231035, 0.30085152, 0.600375), (0.011423151, 0.30066407, 0.60046875), (-0.0069048326, -0.30096874, 0.600164), (-0.007092333, -0.30087498, 0.600164), (-0.0068364735, -0.30096874, 0.60020506), (-0.006945849, -0.30096874, 0.6000957), (-0.0071157706, -0.30087498, 0.59999996), (-0.006740771, -0.30096874, 0.6002188), (-0.0069595207, -0.30096874, 0.59999996), (-0.0071157697, -0.30087498, 0.598194), (0.011259229, -0.30096874, 0.6002188), (-0.00695952, -0.30096874, 0.598194), (-0.007115589, -0.30087498, -0.598194), (0.011355133, -0.30096874, 0.60020506), (-0.006959339, -0.30096874, -0.598194), (-0.007115589, -0.30087498, -0.59999996), (0.01142356, -0.30096874, 0.60016406), (0.011259229, -0.30099997, 0.59999996), (0.011464507, -0.30096874, 0.6000957), (0.011477979, -0.30096874, 0.59999996), (0.011477979, -0.30096874, 0.598194), (-0.006740771, -0.30099997, 0.59999996), (-0.006740771, -0.30099997, 0.598194), (0.011259229, -0.30099997, 0.598194), (-0.00674059, -0.30099997, -0.598194), (0.01125941, -0.30099997, -0.598194), (0.011477875, -0.30096874, -0.598194), (-0.006959339, -0.30096874, -0.59999996), (-0.007115589, -0.30085152, -0.60016406), (-0.006740589, -0.30099997, -0.59999996), (-0.006959339, -0.30093944, -0.6002051), (-0.007115589, -0.30078125, -0.6002813), (-0.006959339, -0.30085152, -0.6003516), (-0.006740589, -0.30096874, -0.6002188), (-0.006740589, -0.30087498, -0.600375), (0.01125941, -0.30087498, -0.600375), (0.01125941, -0.30099997, -0.59999996), (0.01125941, -0.30096874, -0.6002188), (0.011423258, -0.30085152, -0.600375), (0.011477875, -0.30096874, -0.59999996), (0.01146422, -0.30093944, -0.6002188), (-0.006959339, -0.30049998, -0.60046875), (-0.007115589, -0.30066407, -0.6003516), (-0.007115589, -0.30049998, -0.600375), (-0.007115589, -0.2980008, -0.600375), (-0.006959339, -0.30070508, -0.6004394), (-0.006959339, -0.2980008, -0.60046875), (-0.007115563, 0.2980008, -0.600375), (-0.006740589, -0.30049998, -0.6005), (-0.006740589, -0.30071872, -0.60046875), (-0.006959313, 0.2980008, -0.60046875), (-0.007115563, 0.30049998, -0.600375), (0.01125941, -0.30071872, -0.60046875), (-0.006959313, 0.30049998, -0.60046875), (-0.007115563, 0.30066413, -0.6003516), (0.0113549875, -0.30070508, -0.60046875), (0.01125941, -0.30049998, -0.6005), (0.011423307, -0.30066407, -0.60046875), (0.011464363, -0.30059567, -0.60046875), (0.0114781605, -0.30049998, -0.60046875), (-0.006740589, -0.2980008, -0.6005), (0.01125941, -0.2980008, -0.6005), (0.011478161, -0.2980008, -0.60046875), (-0.006740563, 0.2980008, -0.6005), (0.011259437, 0.2980008, -0.6005), (0.011478646, 0.2980008, -0.60046875), (-0.006740563, 0.30049998, -0.6005), (0.011259437, 0.30049998, -0.6005), (0.011478647, 0.30049998, -0.60046875), (0.011464945, 0.30071872, -0.6004394), (0.011423844, 0.30087498, -0.6003516), (0.011259437, 0.30071872, -0.60046875), (0.011259437, 0.30087498, -0.600375), (-0.006740563, 0.3007188, -0.60046875), (-0.006740563, 0.3008751, -0.600375), (-0.006959313, 0.30085167, -0.6003516), (-0.006959313, 0.30070516, -0.6004394), (-0.007115563, 0.3007813, -0.6002813), (-0.0072093396, -0.30066407, -0.60016406), (-0.0072093396, -0.30059567, -0.60020506), (-0.0072093396, -0.30070508, -0.6000957), (-0.0072405892, -0.30049998, -0.59999996), (-0.0072093396, -0.30049998, -0.6002188), (-0.0072093396, -0.30071872, -0.59999996), (-0.0072093396, -0.2980008, -0.6002188), (-0.0072405892, -0.2980008, -0.59999996), (-0.0072093126, 0.2980008, -0.6002188), (-0.007240563, 0.2980008, -0.59999996), (-0.0072093126, 0.30049998, -0.6002188), (-0.0072093126, 0.3005957, -0.60020506), (-0.007240563, 0.30049998, -0.59999996), (-0.0072093126, 0.3006641, -0.60016406), (-0.007115563, 0.3008516, -0.60016406), (-0.0072093126, 0.3007051, -0.6000957), (-0.007115563, 0.30087498, -0.59999996), (-0.0072093126, 0.30071872, -0.59999996), (-0.007240563, 0.30049998, -0.598194), (-0.0072093136, 0.30071872, -0.598194), (-0.007115563, 0.30087498, -0.598194), (-0.007240564, 0.2980008, -0.598194), (-0.0072094942, 0.30071872, 0.598194), (-0.0071157436, 0.30087498, 0.598194), (-0.0071157445, 0.30087498, 0.59999996), (-0.007240744, 0.30049998, 0.598194), (-0.0072094942, 0.30071872, 0.59999996), (-0.007092307, 0.30085155, 0.6002188), (-0.007240744, 0.2980008, 0.598194), (-0.0071801976, 0.30070508, 0.6002188), (-0.007240744, 0.30049998, 0.59999996), (-0.0072094942, 0.30049998, 0.6002188), (-0.007240744, 0.2980008, 0.59999996), (-0.0072094942, 0.2980008, 0.6002188), (-0.0072095203, -0.2980008, 0.6002187), (-0.0072095203, -0.30049998, 0.6002187), (-0.007240771, -0.2980008, 0.59999996), (-0.0071802237, -0.30071872, 0.60020506), (-0.007240771, -0.30049998, 0.59999996), (-0.0072095203, -0.30071872, 0.59999996), (-0.007240771, -0.30049998, 0.598194), (-0.0072095203, -0.30071872, 0.598194), (-0.00724077, -0.2980008, 0.598194), (-0.0072405892, -0.30049998, -0.598194), (-0.0072093396, -0.30071872, -0.598194), (-0.0072405892, -0.2980008, -0.598194), (-0.0067407438, 0.30096874, 0.6002188), (-0.006945822, 0.30093944, 0.6002188), (0.011259255, 0.30096874, 0.6002188), (-0.0067407438, 0.30099997, 0.59999996), (-0.0069594947, 0.30096874, 0.59999996), (-0.0069594937, 0.30096874, 0.598194), (-0.006959313, 0.30096874, -0.598194), (-0.0067407438, 0.30099997, 0.598194), (-0.006959313, 0.30096874, -0.59999996), (-0.006740564, 0.30099997, -0.598194), (0.011259255, 0.30099997, 0.59999996), (0.011259255, 0.30099997, 0.598194), (-0.006959313, 0.3009395, -0.6002051), (-0.006740563, 0.30099997, -0.59999996), (-0.006740563, 0.30096883, -0.6002188), (0.011259437, 0.30099997, -0.598194), (0.011259437, 0.30096874, -0.6002188), (0.011259437, 0.30099997, -0.59999996), (0.0113553405, 0.30096874, -0.60020506), (0.011423768, 0.30096874, -0.60016406), (0.011464715, 0.30096874, -0.6000957), (0.011478187, 0.30096874, -0.59999996), (0.011478187, 0.30096874, -0.598194), (0.011477719, 0.30096874, 0.598194), (0.011477719, 0.30096874, 0.59999996), (0.011464065, 0.30093944, 0.6002188)]
}

