#usda 1.0
(
    defaultPrim = "SM_Vents3"
    upAxis = "Z"
)

def Mesh "SM_Vents3"
{
    int[] faceVertexCounts = [3, 3, 3, 3, 3, 3, 3, 3, 3, 3, 3, 3, 3, 3, 3, 3, 3, 3, 3, 3, 3, 3, 3, 3, 3, 3, 3, 3, 3, 3, 3, 3, 3, 3, 3, 3, 3, 3, 3, 3, 3, 3, 3, 3, 3, 3, 3, 3, 3, 3, 3, 3, 3, 3, 3, 3, 3, 3, 3, 3, 3, 3, 3, 3, 3, 3, 3, 3, 3, 3, 3, 3, 3, 3, 3, 3, 3, 3, 3, 3, 3, 3, 3, 3, 3, 3, 3, 3, 3, 3, 3, 3, 3, 3, 3, 3, 3, 3, 3, 3, 3, 3, 3, 3, 3, 3]
    int[] faceVertexIndices = [0, 1, 2, 1, 0, 3, 4, 3, 0, 4, 0, 5, 4, 5, 6, 5, 7, 6, 1, 6, 7, 1, 7, 2, 8, 9, 10, 9, 8, 11, 12, 11, 8, 12, 8, 13, 12, 13, 14, 13, 15, 14, 9, 14, 15, 9, 15, 10, 16, 17, 18, 17, 16, 19, 20, 19, 16, 20, 16, 21, 20, 21, 22, 21, 23, 22, 17, 22, 23, 17, 23, 18, 24, 25, 26, 27, 24, 26, 28, 27, 26, 27, 28, 29, 30, 29, 28, 29, 30, 31, 32, 33, 34, 35, 32, 34, 36, 35, 34, 35, 36, 37, 38, 37, 36, 37, 38, 39, 40, 31, 30, 41, 31, 40, 42, 41, 40, 43, 41, 42, 44, 43, 42, 44, 45, 43, 46, 45, 44, 45, 46, 47, 48, 47, 46, 49, 47, 48, 48, 50, 49, 50, 48, 51, 39, 50, 51, 38, 50, 39, 52, 25, 24, 53, 25, 52, 54, 53, 52, 55, 53, 54, 56, 55, 54, 56, 57, 55, 58, 57, 56, 59, 57, 58, 60, 59, 58, 61, 59, 60, 62, 61, 60, 63, 61, 62, 62, 32, 63, 32, 62, 33, 53, 26, 25, 53, 18, 26, 55, 18, 53, 18, 28, 26, 55, 16, 18, 18, 23, 28, 57, 16, 55, 23, 30, 28, 23, 40, 30, 21, 40, 23, 21, 42, 40, 57, 2, 16, 2, 21, 16, 59, 2, 57, 7, 42, 21, 2, 7, 21, 7, 44, 42, 0, 2, 59, 5, 44, 7, 61, 0, 59, 5, 46, 44, 10, 0, 61, 10, 5, 0, 63, 10, 61, 15, 46, 5, 5, 10, 15, 48, 46, 15, 10, 63, 8, 13, 48, 15, 32, 8, 63, 48, 13, 51, 35, 8, 32, 35, 13, 8, 35, 37, 13, 37, 51, 13, 51, 37, 39, 6, 3, 4, 3, 6, 1, 11, 12, 14, 11, 14, 9, 19, 20, 22, 19, 22, 17]
    normal3f[] normals = [(-0.7621596, -0.6473892, 0), (0.92967796, 0.36837322, 0), (0.983028, 0.18345575, 0), (0.92967796, 0.36837322, 0), (-0.7621596, -0.6473892, 0), (0.99999905, 0.0013991348, 0), (-0.0013991348, 0.99999905, 0), (0.99999905, 0.0013991348, 0), (-0.7621596, -0.6473892, 0), (-0.0013991348, 0.99999905, 0), (-0.7621596, -0.6473892, 0), (0.99999905, 0.0013991348, 0), (-0.0013991348, 0.99999905, 0), (0.99999905, 0.0013991348, 0), (0.98848623, 0.15131137, 0), (0.99999905, 0.0013991348, 0), (0.91530603, 0.4027593, 0), (0.98848623, 0.15131137, 0), (0.92967796, 0.36837322, 0), (0.98848623, 0.15131137, 0), (0.91530603, 0.4027593, 0), (0.92967796, 0.36837322, 0), (0.91530603, 0.4027593, 0), (0.983028, 0.18345575, 0), (-0.0013991348, 0.99999905, 0), (0.9359084, 0.3522435, 0), (0.96751773, 0.2528036, 0), (0.9359084, 0.3522435, 0), (-0.0013991348, 0.99999905, 0), (0.9999365, -0.011269141, 0), (-0.0013991348, 0.99999905, 0), (0.9999365, -0.011269141, 0), (-0.0013991348, 0.99999905, 0), (-0.0013991348, 0.99999905, 0), (-0.0013991348, 0.99999905, 0), (0.99991584, 0.012975361, 0), (-0.0013991348, 0.99999905, 0), (0.99991584, 0.012975361, 0), (0.990861, 0.1348877, 0), (0.99991584, 0.012975361, 0), (0.8829578, 0.46945244, 0), (0.990861, 0.1348877, 0), (0.9359084, 0.3522435, 0), (0.990861, 0.1348877, 0), (0.8829578, 0.46945244, 0), (0.9359084, 0.3522435, 0), (0.8829578, 0.46945244, 0), (0.96751773, 0.2528036, 0), (-0.0013991348, 0.99999905, 0), (0.93217707, 0.36200258, 0), (0.99099934, 0.13386749, 0), (0.93217707, 0.36200258, 0), (-0.0013991348, 0.99999905, 0), (0.99999905, 0.0013991348, 0), (-0.0013991348, 0.99999905, 0), (0.99999905, 0.0013991348, 0), (-0.0013991348, 0.99999905, 0), (-0.0013991348, 0.99999905, 0), (-0.0013991348, 0.99999905, 0), (0.99999905, 0.0013991348, 0), (-0.0013991348, 0.99999905, 0), (0.99999905, 0.0013991348, 0), (0.98915875, 0.14685021, 0), (0.99999905, 0.0013991348, 0), (0.9422127, 0.33501515, 0), (0.98915875, 0.14685021, 0), (0.93217707, 0.36200258, 0), (0.98915875, 0.14685021, 0), (0.9422127, 0.33501515, 0), (0.93217707, 0.36200258, 0), (0.9422127, 0.33501515, 0), (0.99099934, 0.13386749, 0), (-0.0013991348, 0.99999905, 0), (2.7755576e-17, 0, -1), (0.99999905, 0.0013991348, 0), (0.0013991348, -0.99999905, 0), (-0.0013991348, 0.99999905, 0), (0.99999905, 0.0013991348, 0), (0.99999905, 0.0013991348, 0), (0.0013991348, -0.99999905, 0), (0.99999905, 0.0013991348, 0), (0.0013991348, -0.99999905, 0), (0.99999905, 0.0013991348, 0), (0.0013991348, -0.99999905, 0), (0.99999905, 0.0013991348, 0), (0.0013991348, -0.99999905, 0), (0.99999905, 0.0013991348, 0), (0.0013991348, -0.99999905, 0), (0.99999905, 0.0013991348, 0), (-2.7755576e-17, 0, 1), (-0.0013991348, 0.99999905, 0), (2.7755576e-17, 0, -1), (-0.0013991348, 0.99999905, 0), (0.9999064, 0.013681522, 0), (-0.0013991348, 0.99999905, 0), (-0.0013991348, 0.99999905, 0), (-0.0013991348, 0.99999905, 0), (0.9999064, 0.013681522, 0), (-0.0013991348, 0.99999905, 0), (0.9999064, 0.013681522, 0), (-0.0013991348, 0.99999905, 0), (0.9999065, 0.013681617, 0), (-0.0013991348, 0.99999905, 0), (0.9999065, 0.013681617, 0), (-0.0013991348, 0.99999905, 0), (0.9999065, 0.013681617, 0), (-0.0013991348, 0.99999905, 0), (-2.7755576e-17, 0, 1), (-0.0013991348, 0.99999905, 0), (-2.7755576e-17, 0, 1), (0.99999905, 0.0013991348, 0), (-2.7755576e-17, 0, 1), (-2.7755576e-17, 0, 1), (-0.0013991348, 0.99999905, 0), (-0.0013991348, 0.99999905, 0), (-2.7755576e-17, 0, 1), (-0.0013991348, 0.99999905, 0), (-2.7755576e-17, 0, 1), (-2.7755576e-17, 0, 1), (-0.0013991348, 0.99999905, 0), (0.99999905, 0.0013991348, 0), (-2.7755576e-17, 0, 1), (-0.0013991348, 0.99999905, 0), (0.99999905, 0.0013991348, 0), (-2.7755576e-17, 0, 1), (-2.7755576e-17, 0, 1), (-0.0013991348, 0.99999905, 0), (-2.7755576e-17, 0, 1), (0.99999905, 0.0013991348, 0), (-2.7755576e-17, 0, 1), (-0.0013991348, 0.99999905, 0), (-2.7755576e-17, 0, 1), (-0.0013991348, 0.99999905, 0), (-2.7755576e-17, 0, 1), (-0.0013991348, 0.99999905, 0), (-2.7755576e-17, 0, 1), (-2.7755576e-17, 0, 1), (-0.0013991348, 0.99999905, 0), (-0.0013991348, 0.99999905, 0), (-2.7755576e-17, 0, 1), (-2.7755576e-17, 0, 1), (-2.7755576e-17, 0, 1), (-0.0013991348, 0.99999905, 0), (0.9999847, 0.0055363076, 0), (-2.7755576e-17, 0, 1), (-2.7755576e-17, 0, 1), (0.9999847, 0.0055363076, 0), (-0.0013991348, 0.99999905, 0), (-2.7755576e-17, 0, 1), (-2.7755576e-17, 0, 1), (2.7755576e-17, 0, -1), (2.7755576e-17, 0, -1), (-0.0013991348, 0.99999905, 0), (-0.0013991348, 0.99999905, 0), (2.7755576e-17, 0, -1), (2.7755576e-17, 0, -1), (2.7755576e-17, 0, -1), (-0.0013991348, 0.99999905, 0), (2.7755576e-17, 0, -1), (0.99999905, 0.0013991348, 0), (-0.0013991348, 0.99999905, 0), (2.7755576e-17, 0, -1), (2.7755576e-17, 0, -1), (0.99999905, 0.0013991348, 0), (2.7755576e-17, 0, -1), (2.7755576e-17, 0, -1), (-0.0013991348, 0.99999905, 0), (0.99999905, 0.0013991348, 0), (2.7755576e-17, 0, -1), (-0.0013991348, 0.99999905, 0), (2.7755576e-17, 0, -1), (0.99999905, 0.0013991348, 0), (-0.0013991348, 0.99999905, 0), (2.7755576e-17, 0, -1), (2.7755576e-17, 0, -1), (0.99999905, 0.0013991348, 0), (2.7755576e-17, 0, -1), (-0.0013991348, 0.99999905, 0), (0.99999905, 0.0013991348, 0), (2.7755576e-17, 0, -1), (2.7755576e-17, 0, -1), (-0.0013991348, 0.99999905, 0), (2.7755576e-17, 0, -1), (0.99999624, -0.0027816964, 0), (-0.0013991348, 0.99999905, 0), (2.7755576e-17, 0, -1), (2.7755576e-17, 0, -1), (-0.0013991348, 0.99999905, 0), (0.99999624, -0.0027816964, 0), (-0.0013991348, 0.99999905, 0), (2.7755576e-17, 0, -1), (2.7755576e-17, 0, -1), (-0.0013991348, 0.99999905, 0), (0.99999905, 0.0013991348, 0), (2.7755576e-17, 0, -1), (-0.0013991348, 0.99999905, 0), (0.99099934, 0.13386749, 0), (0.99999905, 0.0013991348, 0), (0.99999905, 0.0013991348, 0), (0.99099934, 0.13386749, 0), (-0.0013991348, 0.99999905, 0), (0.99099934, 0.13386749, 0), (0.99999905, 0.0013991348, 0), (0.99999905, 0.0013991348, 0), (0.99999905, 0.0013991348, 0), (-0.0013991348, 0.99999905, 0), (0.99099934, 0.13386749, 0), (0.99099934, 0.13386749, 0), (0.9422127, 0.33501515, 0), (0.99999905, 0.0013991348, 0), (-0.0013991348, 0.99999905, 0), (-0.0013991348, 0.99999905, 0), (0.99999905, 0.0013991348, 0), (0.9422127, 0.33501515, 0), (0.99999905, 0.0013991348, 0), (0.99999905, 0.0013991348, 0), (0.9422127, 0.33501515, 0), (-0.0013991348, 0.99999905, 0), (0.99999905, 0.0013991348, 0), (0.99999905, 0.0013991348, 0), (-0.0013991348, 0.99999905, 0), (0.9422127, 0.33501515, 0), (0.99999905, 0.0013991348, 0), (-0.0013991348, 0.99999905, 0), (-0.0013991348, 0.99999905, 0), (-0.0013991348, 0.99999905, 0), (0.983028, 0.18345575, 0), (-0.0013991348, 0.99999905, 0), (0.983028, 0.18345575, 0), (0.99999905, 0.0013991348, 0), (-0.0013991348, 0.99999905, 0), (0.99999905, 0.0013991348, 0), (0.983028, 0.18345575, 0), (-0.0013991348, 0.99999905, 0), (0.91530603, 0.4027593, 0), (-0.0013991348, 0.99999905, 0), (0.99999905, 0.0013991348, 0), (0.983028, 0.18345575, 0), (0.91530603, 0.4027593, 0), (0.99999905, 0.0013991348, 0), (0.91530603, 0.4027593, 0), (0.99999905, 0.0013991348, 0), (-0.0013991348, 0.99999905, 0), (-0.7621596, -0.6473892, 0), (0.983028, 0.18345575, 0), (0.99999905, 0.0013991348, 0), (0.99999905, 0.0013991348, 0), (0.99999905, 0.0013991348, 0), (0.91530603, 0.4027593, 0), (-0.0013991348, 0.99999905, 0), (-0.7621596, -0.6473892, 0), (0.99999905, 0.0013991348, 0), (0.99999905, 0.0013991348, 0), (-0.0013991348, 0.99999905, 0), (0.99999905, 0.0013991348, 0), (0.96751773, 0.2528036, 0), (-0.7621596, -0.6473892, 0), (-0.0013991348, 0.99999905, 0), (0.96751773, 0.2528036, 0), (0.99999905, 0.0013991348, 0), (-0.7621596, -0.6473892, 0), (0.99999624, -0.0027816964, 0), (0.96751773, 0.2528036, 0), (-0.0013991348, 0.99999905, 0), (0.8829578, 0.46945244, 0), (-0.0013991348, 0.99999905, 0), (0.99999905, 0.0013991348, 0), (0.99999905, 0.0013991348, 0), (0.96751773, 0.2528036, 0), (0.8829578, 0.46945244, 0), (-0.0013991348, 0.99999905, 0), (-0.0013991348, 0.99999905, 0), (0.8829578, 0.46945244, 0), (0.96751773, 0.2528036, 0), (0.99999624, -0.0027816964, 0), (-0.0013991348, 0.99999905, 0), (0.99991584, 0.012975361, 0), (-0.0013991348, 0.99999905, 0), (0.8829578, 0.46945244, 0), (-0.0013991348, 0.99999905, 0), (-0.0013991348, 0.99999905, 0), (0.99999624, -0.0027816964, 0), (-0.0013991348, 0.99999905, 0), (0.99991584, 0.012975361, 0), (0.9999847, 0.0055363076, 0), (0.9999064, 0.013681522, 0), (-0.0013991348, 0.99999905, 0), (-0.0013991348, 0.99999905, 0), (0.9999064, 0.013681522, 0), (0.99991584, 0.012975361, 0), (-0.0013991348, 0.99999905, 0), (0.9999064, 0.013681522, 0), (0.9999065, 0.013681617, 0), (0.99991584, 0.012975361, 0), (0.9999065, 0.013681617, 0), (0.9999847, 0.0055363076, 0), (0.99991584, 0.012975361, 0), (0.9999847, 0.0055363076, 0), (0.9999065, 0.013681617, 0), (-2.7755576e-17, 0, 1), (0.98848623, 0.15131137, 0), (0.99999905, 0.0013991348, 0), (-0.0013991348, 0.99999905, 0), (0.99999905, 0.0013991348, 0), (0.98848623, 0.15131137, 0), (0.92967796, 0.36837322, 0), (0.9999365, -0.011269141, 0), (-0.0013991348, 0.99999905, 0), (0.990861, 0.1348877, 0), (0.9999365, -0.011269141, 0), (0.990861, 0.1348877, 0), (0.9359084, 0.3522435, 0), (0.99999905, 0.0013991348, 0), (-0.0013991348, 0.99999905, 0), (0.98915875, 0.14685021, 0), (0.99999905, 0.0013991348, 0), (0.98915875, 0.14685021, 0), (0.93217707, 0.36200258, 0)] (
        interpolation = "faceVarying"
    )
    point3f[] points = [(0.00471848, 0.011439566, -0.24388716), (-0.0028260958, -0.00011091801, -0.24388716), (0.0047471155, -0.009026722, -0.24388716), (-0.002854731, 0.02035537, -0.24388716), (-0.002854731, 0.02035537, 0.24388626), (0.00471848, 0.011439566, 0.24388626), (-0.0028260958, -0.00011091801, 0.24388626), (0.0047471155, -0.009026722, 0.24388626), (0.004948194, 0.042144876, -0.24388716), (-0.0028668568, 0.029676348, -0.24388716), (0.0047056163, 0.020633893, -0.24388716), (-0.0026244314, 0.05118733, -0.24388716), (-0.0026244314, 0.05118733, 0.24388626), (0.004948194, 0.042144876, 0.24388626), (-0.0028668568, 0.029676348, 0.24388626), (0.0047056163, 0.020633893, 0.24388626), (0.0047682384, -0.024123752, -0.24388716), (-0.0027752433, -0.036456708, -0.24388716), (0.0047979676, -0.045372207, -0.24388716), (-0.0028049727, -0.015208255, -0.24388716), (-0.0028049727, -0.015208255, 0.24388626), (0.0047682384, -0.024123752, 0.24388626), (-0.0027752433, -0.036456708, 0.24388626), (0.0047979676, -0.045372207, 0.24388626), (-0.0071775327, -0.06821308, -0.25876996), (0.0048299017, -0.06819628, -0.25876996), (0.0048299017, -0.06819628, -0.24388716), (-0.0071775327, -0.06821308, -0.24388716), (0.0048299017, -0.06819628, 0.24388626), (-0.0071775327, -0.06821308, 0.24388626), (0.0048299017, -0.06819628, 0.25877032), (-0.0071775327, -0.06821308, 0.25877032), (0.0046444614, 0.06434296, -0.25876996), (-0.007362973, 0.06432616, -0.25876996), (-0.007362973, 0.06432616, -0.24388716), (0.0046444614, 0.06434296, -0.24388716), (-0.007362973, 0.06432616, 0.24388626), (0.0046444614, 0.06434296, 0.24388626), (-0.007362973, 0.06432616, 0.25877032), (0.0046444614, 0.06434296, 0.25877032), (0.0047979676, -0.045372207, 0.25877032), (-0.0072094663, -0.045389008, 0.25877032), (0.0047682384, -0.024123752, 0.25877032), (-0.007239196, -0.024140552, 0.25877032), (0.0047471155, -0.009026722, 0.25877032), (-0.007260319, -0.009043522, 0.25877032), (0.00471848, 0.011439566, 0.25877032), (-0.0072889538, 0.011422765, 0.25877032), (0.0047056163, 0.020633893, 0.25877032), (-0.007301818, 0.020617094, 0.25877032), (-0.0070590875, 0.042128075, 0.25877032), (0.004948194, 0.042144876, 0.25877032), (-0.0072094663, -0.045389008, -0.25876996), (0.0047979676, -0.045372207, -0.25876996), (-0.007239196, -0.024140552, -0.25876996), (0.0047682384, -0.024123752, -0.25876996), (-0.007260319, -0.009043522, -0.25876996), (0.0047471155, -0.009026722, -0.25876996), (-0.0072889538, 0.011422765, -0.25876996), (0.00471848, 0.011439566, -0.25876996), (-0.007301818, 0.020617094, -0.25876996), (0.0047056163, 0.020633893, -0.25876996), (-0.0070590875, 0.042128075, -0.25876996), (0.004948194, 0.042144876, -0.25876996)]
}

