#usda 1.0
(
    defaultPrim = "SM_Window_Handle23"
    upAxis = "Z"
)

def Mesh "SM_Window_Handle23"
{
    int[] faceVertexCounts = [3, 3, 3, 3, 3, 3, 3, 3, 3, 3, 3, 3, 3, 3, 3, 3, 3, 3, 3, 3, 3, 3, 3, 3, 3, 3, 3, 3, 3, 3, 3, 3, 3, 3, 3, 3, 3, 3, 3, 3, 3, 3, 3, 3, 3, 3, 3, 3, 3, 3, 3, 3, 3, 3, 3, 3, 3, 3, 3, 3, 3, 3, 3, 3, 3, 3, 3, 3, 3, 3, 3, 3, 3, 3, 3, 3, 3, 3, 3, 3, 3, 3, 3, 3, 3, 3, 3, 3, 3, 3, 3, 3, 3, 3, 3, 3, 3, 3, 3, 3, 3, 3, 3, 3, 3, 3, 3, 3, 3, 3, 3, 3, 3, 3, 3, 3, 3, 3, 3, 3, 3, 3, 3, 3, 3, 3, 3, 3, 3, 3, 3, 3, 3, 3, 3, 3, 3, 3, 3, 3, 3, 3, 3, 3, 3, 3, 3, 3, 3, 3, 3, 3, 3, 3, 3, 3, 3, 3, 3, 3, 3, 3, 3, 3, 3, 3, 3, 3, 3, 3, 3, 3, 3, 3, 3, 3, 3, 3, 3, 3, 3, 3, 3, 3, 3, 3, 3, 3, 3, 3, 3, 3, 3, 3, 3, 3, 3, 3, 3, 3, 3, 3, 3, 3, 3, 3, 3, 3, 3, 3, 3, 3, 3, 3, 3, 3, 3, 3, 3, 3, 3, 3, 3, 3, 3, 3, 3, 3, 3, 3, 3, 3, 3, 3, 3, 3, 3, 3, 3, 3, 3, 3, 3, 3, 3, 3, 3, 3, 3, 3, 3, 3, 3, 3, 3, 3, 3, 3, 3, 3, 3, 3, 3, 3, 3, 3, 3, 3, 3, 3, 3, 3, 3, 3, 3, 3, 3, 3, 3, 3, 3, 3, 3, 3, 3, 3, 3, 3, 3, 3, 3, 3, 3, 3, 3, 3, 3, 3, 3, 3, 3, 3, 3, 3, 3, 3, 3, 3, 3, 3, 3, 3, 3, 3, 3, 3, 3, 3, 3, 3, 3, 3, 3, 3, 3, 3, 3, 3, 3, 3, 3, 3, 3, 3, 3, 3, 3, 3, 3, 3, 3, 3, 3, 3, 3, 3, 3, 3, 3, 3, 3, 3, 3, 3, 3, 3, 3, 3, 3, 3, 3, 3, 3, 3, 3, 3, 3, 3, 3, 3, 3, 3, 3, 3, 3, 3, 3, 3, 3, 3, 3, 3, 3, 3, 3, 3, 3, 3, 3, 3, 3, 3, 3, 3, 3, 3, 3, 3, 3, 3, 3, 3, 3, 3, 3, 3, 3, 3]
    int[] faceVertexIndices = [0, 1, 2, 1, 0, 3, 4, 5, 6, 7, 4, 6, 8, 7, 9, 7, 8, 10, 11, 10, 8, 10, 11, 12, 11, 13, 12, 13, 11, 14, 15, 16, 17, 16, 15, 18, 19, 20, 21, 20, 19, 22, 23, 24, 25, 25, 26, 23, 27, 28, 29, 28, 27, 30, 31, 32, 33, 32, 31, 34, 35, 36, 37, 36, 35, 38, 39, 40, 41, 39, 41, 42, 43, 44, 45, 45, 46, 43, 47, 48, 49, 49, 50, 47, 51, 52, 53, 51, 53, 54, 55, 56, 57, 56, 55, 58, 59, 60, 61, 60, 59, 62, 63, 64, 65, 64, 63, 66, 67, 68, 69, 68, 67, 70, 71, 72, 73, 72, 71, 74, 75, 76, 77, 76, 75, 78, 79, 80, 81, 80, 79, 82, 83, 84, 85, 85, 86, 83, 87, 88, 89, 89, 90, 87, 90, 89, 91, 92, 91, 93, 91, 94, 90, 91, 92, 94, 95, 90, 94, 96, 94, 92, 94, 97, 95, 94, 96, 97, 98, 95, 97, 99, 97, 96, 97, 100, 98, 97, 99, 100, 98, 100, 101, 102, 100, 99, 100, 103, 101, 100, 102, 103, 104, 105, 106, 105, 104, 107, 107, 108, 105, 108, 107, 109, 109, 110, 108, 110, 109, 111, 112, 111, 113, 111, 112, 110, 114, 110, 112, 110, 114, 115, 116, 117, 118, 117, 116, 119, 120, 119, 116, 119, 120, 121, 122, 121, 120, 121, 122, 123, 123, 124, 125, 124, 123, 122, 122, 126, 124, 126, 122, 127, 128, 129, 130, 129, 128, 131, 132, 129, 131, 132, 131, 133, 134, 132, 133, 133, 135, 134, 136, 137, 138, 137, 136, 139, 140, 141, 137, 141, 140, 142, 142, 143, 141, 143, 142, 144, 145, 143, 144, 143, 145, 146, 147, 148, 149, 148, 147, 150, 151, 150, 147, 150, 151, 152, 153, 152, 151, 152, 153, 154, 155, 156, 157, 155, 158, 156, 158, 159, 156, 159, 158, 160, 161, 159, 160, 159, 161, 162, 163, 162, 161, 162, 163, 164, 163, 165, 164, 165, 163, 166, 167, 168, 169, 168, 167, 170, 171, 170, 167, 170, 171, 172, 171, 173, 172, 173, 171, 174, 174, 175, 173, 175, 174, 176, 177, 175, 176, 175, 177, 178, 179, 180, 181, 181, 182, 179, 183, 179, 182, 182, 184, 183, 185, 183, 184, 186, 184, 187, 184, 188, 185, 184, 186, 188, 189, 185, 188, 190, 188, 186, 191, 189, 188, 188, 190, 191, 192, 193, 194, 193, 192, 195, 196, 195, 192, 195, 196, 197, 198, 197, 196, 197, 198, 199, 198, 200, 199, 200, 198, 201, 202, 203, 204, 202, 204, 205, 206, 202, 205, 206, 205, 207, 208, 206, 207, 208, 207, 209, 210, 208, 209, 208, 210, 211, 212, 213, 214, 213, 212, 215, 216, 215, 212, 215, 216, 217, 218, 217, 216, 216, 219, 218, 220, 221, 222, 221, 220, 223, 224, 223, 220, 223, 224, 225, 226, 227, 228, 228, 229, 226, 230, 226, 229, 229, 231, 230, 232, 233, 234, 233, 232, 235, 236, 235, 232, 235, 236, 237, 238, 237, 236, 239, 240, 237, 237, 238, 241, 237, 241, 239, 242, 241, 238, 243, 239, 241, 241, 242, 244, 244, 243, 241, 245, 246, 247, 246, 245, 248, 248, 249, 246, 249, 248, 250, 250, 251, 249, 251, 252, 249, 251, 250, 253, 252, 251, 254, 253, 255, 251, 255, 254, 251, 255, 253, 256, 254, 255, 257, 258, 259, 260, 259, 258, 261, 262, 263, 261, 261, 264, 262, 264, 261, 258, 258, 265, 264, 266, 264, 265, 267, 265, 268, 265, 269, 266, 265, 267, 269, 270, 269, 267, 271, 266, 269, 269, 270, 272, 269, 272, 271, 271, 272, 273, 272, 274, 273, 275, 276, 277, 276, 275, 278, 279, 278, 275, 279, 275, 280, 281, 279, 280, 281, 280, 282, 283, 281, 282, 283, 282, 284, 285, 283, 284, 283, 285, 286, 287, 288, 289, 288, 290, 289, 288, 291, 290, 291, 288, 292, 293, 294, 295, 294, 293, 296, 293, 297, 296, 297, 293, 298, 299, 300, 301, 300, 299, 302, 303, 300, 302, 300, 303, 304, 305, 306, 307, 306, 305, 308, 309, 306, 308, 306, 309, 310, 311, 312, 313, 312, 311, 314, 311, 315, 314, 315, 311, 316, 317, 318, 319, 318, 317, 320, 317, 321, 320, 321, 317, 322, 323, 324, 325, 324, 323, 326, 327, 326, 323, 326, 328, 324, 327, 329, 326, 329, 330, 326, 328, 326, 330, 330, 329, 331, 332, 330, 331, 333, 328, 330, 330, 332, 333, 328, 333, 334, 335, 333, 332, 336, 334, 333, 333, 335, 336, 334, 336, 337, 336, 338, 337, 335, 339, 336, 338, 336, 339, 339, 335, 340, 339, 341, 338, 342, 339, 340, 341, 339, 342, 342, 340, 343, 344, 341, 342, 345, 342, 343, 342, 345, 344, 343, 346, 345, 347, 345, 346, 348, 344, 345, 345, 347, 348, 344, 348, 349, 350, 349, 348, 351, 348, 347, 348, 351, 350, 347, 352, 351, 350, 351, 353, 352, 354, 351, 351, 354, 353, 352, 355, 354, 356, 354, 355, 357, 353, 354, 354, 356, 357, 353, 357, 358, 359, 357, 356, 360, 358, 357, 357, 359, 360, 358, 360, 361, 362, 360, 359, 363, 361, 360, 360, 362, 363, 361, 363, 364, 363, 365, 364, 362, 366, 363, 365, 363, 366, 366, 362, 367, 366, 368, 365, 367, 369, 366, 368, 366, 369, 369, 367, 370, 371, 369, 370, 372, 368, 369, 369, 371, 372, 373, 372, 371, 368, 372, 374, 372, 373, 375, 375, 374, 372, 374, 375, 376, 377, 378, 379, 378, 377, 380, 380, 381, 378, 382, 380, 377, 381, 380, 383, 384, 383, 380, 380, 382, 384, 383, 384, 385, 384, 386, 385, 382, 387, 384, 386, 384, 387, 387, 382, 388, 387, 389, 386, 388, 390, 387, 389, 387, 390, 390, 388, 391, 392, 390, 391, 393, 389, 390, 390, 392, 393, 389, 393, 394, 395, 393, 392, 396, 394, 393, 393, 395, 396, 394, 396, 397, 398, 396, 395, 399, 397, 396, 396, 398, 399, 397, 399, 400, 399, 401, 400, 399, 398, 402, 399, 402, 401, 398, 403, 402, 404, 401, 402, 405, 402, 403, 402, 405, 404, 403, 406, 405, 407, 405, 406, 408, 404, 405, 405, 407, 408, 404, 408, 409, 410, 409, 408, 411, 408, 407, 410, 408, 411, 411, 407, 412, 413, 410, 411, 414, 411, 412, 413, 411, 414, 414, 412, 415, 416, 413, 414, 415, 417, 414, 416, 414, 417, 417, 415, 418, 419, 417, 418, 420, 416, 417, 417, 419, 420, 416, 420, 421, 422, 420, 419, 423, 421, 420, 420, 422, 423, 421, 423, 424, 423, 425, 424, 422, 426, 423, 425, 423, 426, 426, 427, 425, 426, 422, 428, 426, 429, 427, 428, 429, 426, 428, 430, 429, 431, 432, 433, 433, 434, 431, 434, 433, 435, 435, 433, 436, 433, 437, 436, 435, 438, 434, 436, 437, 439, 437, 440, 439, 436, 441, 435, 440, 442, 443, 439, 440, 443, 441, 436, 444, 439, 444, 436, 444, 439, 445, 443, 445, 439, 445, 443, 446, 447, 435, 441, 435, 447, 438, 447, 441, 448, 448, 449, 447, 450, 438, 447, 450, 434, 438, 451, 450, 447, 434, 450, 452, 453, 450, 451, 453, 452, 450, 454, 453, 451, 452, 453, 455, 456, 453, 454, 456, 455, 453, 457, 456, 454, 455, 456, 458]
    normal3f[] normals = [(-0.70710737, -0.091520496, 0.7011586), (-0.70710737, -0.091520496, 0.7011586), (-0.70710737, -0.091520496, 0.7011586), (-0.70710737, -0.091520496, 0.7011586), (-0.70710737, -0.091520496, 0.7011586), (-0.70710737, -0.091520496, 0.7011586), (0.25880143, -0.7656773, 0.58886343), (0.25880143, -0.7656773, 0.58886343), (0.25880143, -0.7656773, 0.58886343), (0.4941972, -0.639419, 0.5889929), (0.25880143, -0.7656773, 0.58886343), (0.25880143, -0.7656773, 0.58886343), (0.70928895, -0.38915148, 0.5877671), (0.4941972, -0.639419, 0.5889929), (0.70707566, -0.45353162, 0.5425432), (0.4941972, -0.639419, 0.5889929), (0.70928895, -0.38915148, 0.5877671), (0.70928895, -0.38915148, 0.5877671), (0.70937824, -0.24769363, 0.6598716), (0.70928895, -0.38915148, 0.5877671), (0.70928895, -0.38915148, 0.5877671), (0.70928895, -0.38915148, 0.5877671), (0.70937824, -0.24769363, 0.6598716), (0.70937824, -0.24769363, 0.6598716), (0.70937824, -0.24769363, 0.6598716), (0.707073, -0.1713437, 0.686068), (0.70937824, -0.24769363, 0.6598716), (0.707073, -0.1713437, 0.686068), (0.70937824, -0.24769363, 0.6598716), (0.7070787, -0.17124593, 0.6860865), (0.25881013, 0.76567435, -0.58886343), (0.25881013, 0.76567435, -0.58886343), (0.25881013, 0.76567435, -0.58886343), (0.25881013, 0.76567435, -0.58886343), (0.25881013, 0.76567435, -0.58886343), (0.25881013, 0.76567435, -0.58886343), (-0.25881013, -0.76567435, 0.58886343), (-0.25881013, -0.76567435, 0.58886343), (-0.25881013, -0.76567435, 0.58886343), (-0.25881013, -0.76567435, 0.58886343), (-0.25881013, -0.76567435, 0.58886343), (-0.25881013, -0.76567435, 0.58886343), (0.7070972, 0.69102, -0.15001686), (0.7070972, 0.69102, -0.15001686), (0.7070972, 0.69102, -0.15001686), (0.7070972, 0.69102, -0.15001686), (0.7070972, 0.69102, -0.15001686), (0.7070972, 0.69102, -0.15001686), (-0.7070972, -0.69102, 0.15001686), (-0.7070972, -0.69102, 0.15001686), (-0.7070972, -0.69102, 0.15001686), (-0.7070972, -0.69102, 0.15001686), (-0.7070972, -0.69102, 0.15001686), (-0.7070972, -0.69102, 0.15001686), (0.70706993, -0.70706564, -0.0105100535), (0.70706993, -0.70706564, -0.0105100535), (0.70706993, -0.70706564, -0.0105100535), (0.70706993, -0.70706564, -0.0105100535), (0.70706993, -0.70706564, -0.0105100535), (0.70706993, -0.70706564, -0.0105100535), (0.7070779, 0.7070576, 0.0105100535), (0.7070779, 0.7070576, 0.0105100535), (0.7070779, 0.7070576, 0.0105100535), (0.7070779, 0.7070576, 0.0105100535), (0.7070779, 0.7070576, 0.0105100535), (0.7070779, 0.7070576, 0.0105100535), (-0.70706993, 0.70706564, 0.0105100535), (-0.70706993, 0.70706564, 0.0105100535), (-0.70706993, 0.70706564, 0.0105100535), (-0.70706993, 0.70706564, 0.0105100535), (-0.70706993, 0.70706564, 0.0105100535), (-0.70706993, 0.70706564, 0.0105100535), (-0.7070779, -0.7070576, -0.0105100535), (-0.7070779, -0.7070576, -0.0105100535), (-0.7070779, -0.7070576, -0.0105100535), (-0.7070779, -0.7070576, -0.0105100535), (-0.7070779, -0.7070576, -0.0105100535), (-0.7070779, -0.7070576, -0.0105100535), (-0.7071108, -0.70115453, -0.091524504), (-0.7071108, -0.70115453, -0.091524504), (-0.7071108, -0.70115453, -0.091524504), (-0.7071108, -0.70115453, -0.091524504), (-0.7071108, -0.70115453, -0.091524504), (-0.7071108, -0.70115453, -0.091524504), (0.7070778, 0.686064, 0.17133969), (0.7070778, 0.686064, 0.17133969), (0.7070778, 0.686064, 0.17133969), (0.7070778, 0.686064, 0.17133969), (0.7070778, 0.686064, 0.17133969), (0.7070778, 0.686064, 0.17133969), (-0.7070778, -0.686064, -0.17133969), (-0.7070778, -0.686064, -0.17133969), (-0.7070778, -0.686064, -0.17133969), (-0.7070778, -0.686064, -0.17133969), (-0.7070778, -0.686064, -0.17133969), (-0.7070778, -0.686064, -0.17133969), (-0.25881186, -0.7410653, -0.6195471), (-0.25881186, -0.7410653, -0.6195471), (-0.25890514, -0.7410462, -0.61953115), (-0.25881186, -0.7410653, -0.6195471), (-0.25881186, -0.7410653, -0.6195471), (-0.25881186, -0.7410653, -0.6195471), (0.25880912, 0.58886194, 0.76567584), (0.25880912, 0.58886194, 0.76567584), (0.25880912, 0.58886194, 0.76567584), (0.25880912, 0.58886194, 0.76567584), (0.25880912, 0.58886194, 0.76567584), (0.25880912, 0.58886194, 0.76567584), (-0.25880244, 0.58886486, 0.76567584), (-0.25880244, 0.58886486, 0.76567584), (-0.25880244, 0.58886486, 0.76567584), (-0.25880244, 0.58886486, 0.76567584), (-0.25880244, 0.58886486, 0.76567584), (-0.25880244, 0.58886486, 0.76567584), (0.70710737, 0.091520496, -0.7011586), (0.70710737, 0.091520496, -0.7011586), (0.70710737, 0.091520496, -0.7011586), (0.70710737, 0.091520496, -0.7011586), (0.70710737, 0.091520496, -0.7011586), (0.70710737, 0.091520496, -0.7011586), (0.7071063, -0.09152852, 0.7011586), (0.7071063, -0.09152852, 0.7011586), (0.7071063, -0.09152852, 0.7011586), (0.7071063, -0.09152852, 0.7011586), (0.7071063, -0.09152852, 0.7011586), (0.7071063, -0.09152852, 0.7011586), (-0.70710737, -0.091520496, 0.7011586), (-0.70710737, -0.091520496, 0.7011586), (-0.70710737, -0.091520496, 0.7011586), (-0.70710737, -0.091520496, 0.7011586), (-0.70710737, -0.091520496, 0.7011586), (-0.70710737, -0.091520496, 0.7011586), (-0.7071063, 0.09152852, -0.7011586), (-0.7071063, 0.09152852, -0.7011586), (-0.7071063, 0.09152852, -0.7011586), (-0.7071063, 0.09152852, -0.7011586), (-0.7071063, 0.09152852, -0.7011586), (-0.7071063, 0.09152852, -0.7011586), (0.7071063, -0.09152852, 0.7011586), (0.7071063, -0.09152852, 0.7011586), (0.5000104, -0.112096176, 0.858734), (0.5000104, -0.112096176, 0.858734), (0.41768736, -0.1556754, 0.8951551), (0.7071063, -0.09152852, 0.7011586), (0.41768736, -0.1556754, 0.8951551), (0.5000104, -0.112096176, 0.858734), (-7.343035e-7, -0.1294352, 0.9915879), (-0.2592094, -0.17973971, 0.94894904), (-7.343035e-7, -0.1294352, 0.9915879), (-0.25880846, -0.12502372, 0.9578034), (-7.343035e-7, -0.1294352, 0.9915879), (-0.000001055976, -0.18613619, 0.9825239), (0.41768736, -0.1556754, 0.8951551), (-7.343035e-7, -0.1294352, 0.9915879), (-0.2592094, -0.17973971, 0.94894904), (-0.000001055976, -0.18613619, 0.9825239), (0.26040843, -0.33926433, 0.9039288), (0.41768736, -0.1556754, 0.8951551), (-0.000001055976, -0.18613619, 0.9825239), (-0.2604123, -0.33926138, 0.9039288), (-0.000001055976, -0.18613619, 0.9825239), (-0.2592094, -0.17973971, 0.94894904), (-0.000001055976, -0.18613619, 0.9825239), (-0.000001993252, -0.3513492, 0.9362444), (0.26040843, -0.33926433, 0.9039288), (-0.000001055976, -0.18613619, 0.9825239), (-0.2604123, -0.33926138, 0.9039288), (-0.000001993252, -0.3513492, 0.9362444), (0.2602865, -0.533069, 0.8050394), (0.26040843, -0.33926433, 0.9039288), (-0.000001993252, -0.3513492, 0.9362444), (-0.2603151, -0.53309935, 0.8050101), (-0.000001993252, -0.3513492, 0.9362444), (-0.2604123, -0.33926138, 0.9039288), (-0.000001993252, -0.3513492, 0.9362444), (-0.0000031320408, -0.5520828, 0.8337894), (0.2602865, -0.533069, 0.8050394), (-0.000001993252, -0.3513492, 0.9362444), (-0.2603151, -0.53309935, 0.8050101), (-0.0000031320408, -0.5520828, 0.8337894), (0.2602865, -0.533069, 0.8050394), (-0.0000031320408, -0.5520828, 0.8337894), (0.2587907, -0.6196156, 0.74101543), (-0.25881118, -0.6195457, 0.7410668), (-0.0000031320408, -0.5520828, 0.8337894), (-0.2603151, -0.53309935, 0.8050101), (-0.0000031320408, -0.5520828, 0.8337894), (-0.0000036386823, -0.6413881, 0.7672166), (0.2587907, -0.6196156, 0.74101543), (-0.0000031320408, -0.5520828, 0.8337894), (-0.25881118, -0.6195457, 0.7410668), (-0.0000036386823, -0.6413881, 0.7672166), (0.25881118, 0.6195457, -0.7410668), (0.26029253, 0.5330661, -0.8050394), (0.25881118, 0.6195457, -0.7410668), (0.26029253, 0.5330661, -0.8050394), (0.25881118, 0.6195457, -0.7410668), (0.26029253, 0.5330661, -0.8050394), (0.26029253, 0.5330661, -0.8050394), (0.2604123, 0.33926138, -0.9039288), (0.26029253, 0.5330661, -0.8050394), (0.2604123, 0.33926138, -0.9039288), (0.26029253, 0.5330661, -0.8050394), (0.2604123, 0.33926138, -0.9039288), (0.2604123, 0.33926138, -0.9039288), (0.42528814, 0.15442407, -0.8917865), (0.2604123, 0.33926138, -0.9039288), (0.42528814, 0.15442407, -0.8917865), (0.2604123, 0.33926138, -0.9039288), (0.2592094, 0.17973971, -0.94894904), (0.5000117, 0.112090506, -0.858734), (0.2592094, 0.17973971, -0.94894904), (0.25880846, 0.12502372, -0.9578034), (0.2592094, 0.17973971, -0.94894904), (0.5000117, 0.112090506, -0.858734), (0.42528814, 0.15442407, -0.8917865), (0.70710737, 0.091520496, -0.7011586), (0.42528814, 0.15442407, -0.8917865), (0.5000117, 0.112090506, -0.858734), (0.42528814, 0.15442407, -0.8917865), (0.70710737, 0.091520496, -0.7011586), (0.70710737, 0.091520496, -0.7011586), (-0.26030907, 0.5331023, -0.8050101), (-0.25880414, 0.6195486, -0.7410668), (-0.25880414, 0.6195486, -0.7410668), (-0.25880414, 0.6195486, -0.7410668), (-0.26030907, 0.5331023, -0.8050101), (-0.26030907, 0.5331023, -0.8050101), (-0.26040843, 0.33926433, -0.9039288), (-0.26030907, 0.5331023, -0.8050101), (-0.26030907, 0.5331023, -0.8050101), (-0.26030907, 0.5331023, -0.8050101), (-0.26040843, 0.33926433, -0.9039288), (-0.26040843, 0.33926433, -0.9039288), (-0.4252864, 0.1544289, -0.8917865), (-0.26040843, 0.33926433, -0.9039288), (-0.26040843, 0.33926433, -0.9039288), (-0.26040843, 0.33926433, -0.9039288), (-0.4252864, 0.1544289, -0.8917865), (-0.25920737, 0.17974266, -0.94894904), (-0.25920737, 0.17974266, -0.94894904), (-0.5000104, 0.112096176, -0.858734), (-0.25880703, 0.12502666, -0.9578034), (-0.5000104, 0.112096176, -0.858734), (-0.25920737, 0.17974266, -0.94894904), (-0.4252864, 0.1544289, -0.8917865), (-0.4252864, 0.1544289, -0.8917865), (-0.7071063, 0.09152852, -0.7011586), (-0.5000104, 0.112096176, -0.858734), (-0.7071063, 0.09152852, -0.7011586), (-0.4252864, 0.1544289, -0.8917865), (-0.7071063, 0.09152852, -0.7011586), (0.7071003, -0.56051826, 0.43107846), (0.70918465, -0.60246104, 0.36619386), (0.7071003, -0.56051826, 0.43107846), (0.70918465, -0.60246104, 0.36619386), (0.7071003, -0.56051826, 0.43107846), (0.70918465, -0.60246104, 0.36619386), (0.70928746, -0.66796833, 0.22523278), (0.70918465, -0.60246104, 0.36619386), (0.70918465, -0.60246104, 0.36619386), (0.70928746, -0.66796833, 0.22523278), (0.70918465, -0.60246104, 0.36619386), (0.70928746, -0.66796833, 0.22523278), (0.7070893, -0.69102806, 0.15001686), (0.70928746, -0.66796833, 0.22523278), (0.70928746, -0.66796833, 0.22523278), (0.70928746, -0.66796833, 0.22523278), (0.7070893, -0.69102806, 0.15001686), (0.7070893, -0.69102806, 0.15001686), (-0.25880143, 0.7656773, -0.58886343), (-0.50988203, 0.62850124, -0.5873726), (-0.25880143, 0.7656773, -0.58886343), (-0.50988203, 0.62850124, -0.5873726), (-0.25880143, 0.7656773, -0.58886343), (-0.25880143, 0.7656773, -0.58886343), (-0.70707566, 0.45353162, -0.5425432), (-0.70928895, 0.38915148, -0.5877671), (-0.50988203, 0.62850124, -0.5873726), (-0.70928895, 0.38915148, -0.5877671), (-0.70707566, 0.45353162, -0.5425432), (-0.70928895, 0.38915148, -0.5877671), (-0.70928895, 0.38915148, -0.5877671), (-0.70937824, 0.24769363, -0.6598716), (-0.70928895, 0.38915148, -0.5877671), (-0.70937824, 0.24769363, -0.6598716), (-0.70928895, 0.38915148, -0.5877671), (-0.70937824, 0.24769363, -0.6598716), (-0.7070787, 0.17124593, -0.6860865), (-0.70937824, 0.24769363, -0.6598716), (-0.70937824, 0.24769363, -0.6598716), (-0.70937824, 0.24769363, -0.6598716), (-0.7070787, 0.17124593, -0.6860865), (-0.7070787, 0.17124593, -0.6860865), (-0.70918465, 0.60246104, -0.36619386), (-0.7071003, 0.56051826, -0.43107846), (-0.7071003, 0.56051826, -0.43107846), (-0.7071003, 0.56051826, -0.43107846), (-0.70918465, 0.60246104, -0.36619386), (-0.70918465, 0.60246104, -0.36619386), (-0.70928746, 0.66796833, -0.22523278), (-0.70918465, 0.60246104, -0.36619386), (-0.70918465, 0.60246104, -0.36619386), (-0.70918465, 0.60246104, -0.36619386), (-0.70928746, 0.66796833, -0.22523278), (-0.70928746, 0.66796833, -0.22523278), (-0.7070893, 0.69102806, -0.15001686), (-0.70928746, 0.66796833, -0.22523278), (-0.70928746, 0.66796833, -0.22523278), (-0.70928746, 0.66796833, -0.22523278), (-0.7070893, 0.69102806, -0.15001686), (-0.7070893, 0.69102806, -0.15001686), (0.70708185, 0.6407774, -0.29906443), (0.70919144, 0.602453, -0.36619386), (0.70708185, 0.6407774, -0.29906443), (0.70708185, 0.6407774, -0.29906443), (0.70919144, 0.602453, -0.36619386), (0.70919144, 0.602453, -0.36619386), (0.70919144, 0.602453, -0.36619386), (0.7091909, 0.50856614, -0.48827124), (0.70919144, 0.602453, -0.36619386), (0.7091909, 0.50856614, -0.48827124), (0.70919144, 0.602453, -0.36619386), (0.7091909, 0.50856614, -0.48827124), (0.70929337, 0.38914344, -0.5877671), (0.7091909, 0.50856614, -0.48827124), (0.7091909, 0.50856614, -0.48827124), (0.7091909, 0.50856614, -0.48827124), (0.70929337, 0.38914344, -0.5877671), (0.70929337, 0.38914344, -0.5877671), (0.7093811, 0.24768558, -0.6598716), (0.70929337, 0.38914344, -0.5877671), (0.70929337, 0.38914344, -0.5877671), (0.70929337, 0.38914344, -0.5877671), (0.7093811, 0.24768558, -0.6598716), (0.7093811, 0.24768558, -0.6598716), (0.7093811, 0.24768558, -0.6598716), (0.7070806, 0.1712379, -0.6860865), (0.7093811, 0.24768558, -0.6598716), (0.7070806, 0.1712379, -0.6860865), (0.7093811, 0.24768558, -0.6598716), (0.7070806, 0.1712379, -0.6860865), (-0.70919144, -0.602453, 0.36619386), (-0.70708185, -0.6407774, 0.29906443), (-0.7071241, -0.64071655, 0.29909524), (-0.70708185, -0.6407774, 0.29906443), (-0.70919144, -0.602453, 0.36619386), (-0.70919144, -0.602453, 0.36619386), (-0.7091909, -0.50856614, 0.48827124), (-0.70919144, -0.602453, 0.36619386), (-0.70919144, -0.602453, 0.36619386), (-0.70919144, -0.602453, 0.36619386), (-0.7091909, -0.50856614, 0.48827124), (-0.7091909, -0.50856614, 0.48827124), (-0.7091909, -0.50856614, 0.48827124), (-0.70929337, -0.38914344, 0.5877671), (-0.7091909, -0.50856614, 0.48827124), (-0.70929337, -0.38914344, 0.5877671), (-0.7091909, -0.50856614, 0.48827124), (-0.70929337, -0.38914344, 0.5877671), (-0.70929337, -0.38914344, 0.5877671), (-0.7093811, -0.24768558, 0.6598716), (-0.70929337, -0.38914344, 0.5877671), (-0.7093811, -0.24768558, 0.6598716), (-0.70929337, -0.38914344, 0.5877671), (-0.7093811, -0.24768558, 0.6598716), (-0.7070749, -0.17133568, 0.686068), (-0.7093811, -0.24768558, 0.6598716), (-0.7093811, -0.24768558, 0.6598716), (-0.7093811, -0.24768558, 0.6598716), (-0.7070749, -0.17133568, 0.686068), (-0.7070806, -0.1712379, 0.6860865), (-0.25921384, -0.96328944, -0.069869705), (-0.25881317, -0.95780194, -0.1250252), (-0.25881317, -0.95780194, -0.1250252), (-0.25881317, -0.95780194, -0.1250252), (-0.25921384, -0.96328944, -0.069869705), (-0.25921384, -0.96328944, -0.069869705), (-0.26041582, -0.9607257, 0.09586324), (-0.25921384, -0.96328944, -0.069869705), (-0.25921384, -0.96328944, -0.069869705), (-0.25921384, -0.96328944, -0.069869705), (-0.0895016, -0.98655504, 0.13674353), (-0.26041582, -0.9607257, 0.09586324), (-0.26031727, -0.9148783, 0.308598), (-0.26041582, -0.9607257, 0.09586324), (-0.0895016, -0.98655504, 0.13674353), (0.26028433, -0.9149011, 0.30855832), (-0.0895016, -0.98655504, 0.13674353), (0.25878778, -0.94394386, 0.20493597), (-0.0895016, -0.98655504, 0.13674353), (-0.000005375679, -0.94756734, 0.31955647), (-0.26031727, -0.9148783, 0.308598), (-0.0895016, -0.98655504, 0.13674353), (0.26028433, -0.9149011, 0.30855832), (-0.000005375679, -0.94756734, 0.31955647), (-0.25881264, -0.87526774, 0.40856156), (-0.26031727, -0.9148783, 0.308598), (-0.000005375679, -0.94756734, 0.31955647), (0.25880268, -0.87527066, 0.40856156), (-0.000005375679, -0.94756734, 0.31955647), (0.26028433, -0.9149011, 0.30855832), (-0.000005140708, -0.9061492, 0.42295823), (-0.25881264, -0.87526774, 0.40856156), (-0.000005375679, -0.94756734, 0.31955647), (-0.000005375679, -0.94756734, 0.31955647), (0.25880268, -0.87527066, 0.40856156), (-0.000005140708, -0.9061492, 0.42295823), (0.7092946, 0.5877632, 0.3891475), (0.7070968, 0.6293577, 0.3223711), (0.7070968, 0.6293577, 0.3223711), (0.7070968, 0.6293577, 0.3223711), (0.7092946, 0.5877632, 0.3891475), (0.7092946, 0.5877632, 0.3891475), (0.7091908, 0.4882672, 0.50857013), (0.7092946, 0.5877632, 0.3891475), (0.7092946, 0.5877632, 0.3891475), (0.7092946, 0.5877632, 0.3891475), (0.7091908, 0.4882672, 0.50857013), (0.7091908, 0.4882672, 0.50857013), (0.70919013, 0.36618984, 0.60245705), (0.7091908, 0.4882672, 0.50857013), (0.7091908, 0.4882672, 0.50857013), (0.7091908, 0.4882672, 0.50857013), (0.70919013, 0.36618984, 0.60245705), (0.70919013, 0.36618984, 0.60245705), (0.70919013, 0.36618984, 0.60245705), (0.7070799, 0.2990604, 0.64078146), (0.70919013, 0.36618984, 0.60245705), (0.7070799, 0.2990604, 0.64078146), (0.70919013, 0.36618984, 0.60245705), (0.7070799, 0.2990604, 0.64078146), (-0.7092946, -0.5877632, -0.3891475), (-0.7070968, -0.6293577, -0.3223711), (-0.7070968, -0.6293577, -0.3223711), (-0.7092946, -0.5877632, -0.3891475), (-0.7070968, -0.6293577, -0.3223711), (-0.7092946, -0.5877632, -0.3891475), (-0.7091908, -0.4882672, -0.50857013), (-0.7092946, -0.5877632, -0.3891475), (-0.7092946, -0.5877632, -0.3891475), (-0.7091908, -0.4882672, -0.50857013), (-0.7092946, -0.5877632, -0.3891475), (-0.7091908, -0.4882672, -0.50857013), (-0.70919013, -0.36618984, -0.60245705), (-0.7091908, -0.4882672, -0.50857013), (-0.7091908, -0.4882672, -0.50857013), (-0.70919013, -0.36618984, -0.60245705), (-0.7091908, -0.4882672, -0.50857013), (-0.70919013, -0.36618984, -0.60245705), (-0.70712215, -0.29909122, -0.64072055), (-0.70919013, -0.36618984, -0.60245705), (-0.70919013, -0.36618984, -0.60245705), (-0.70919013, -0.36618984, -0.60245705), (-0.70712215, -0.29909122, -0.64072055), (-0.70712215, -0.29909122, -0.64072055), (0.70928794, -0.58777124, -0.3891475), (0.7070751, -0.54254717, -0.45352763), (0.7070751, -0.54254717, -0.45352763), (0.7070751, -0.54254717, -0.45352763), (0.70928794, -0.58777124, -0.3891475), (0.70928794, -0.58777124, -0.3891475), (0.7093759, -0.6598756, -0.2476896), (0.70928794, -0.58777124, -0.3891475), (0.70928794, -0.58777124, -0.3891475), (0.70928794, -0.58777124, -0.3891475), (0.7093759, -0.6598756, -0.2476896), (0.7093759, -0.6598756, -0.2476896), (0.70707005, -0.68607205, -0.17133969), (0.7093759, -0.6598756, -0.2476896), (0.7093759, -0.6598756, -0.2476896), (0.7093759, -0.6598756, -0.2476896), (0.70707005, -0.68607205, -0.17133969), (0.70707005, -0.68607205, -0.17133969), (0.259208, -0.06987118, 0.9632909), (0.25879166, -0.014438241, 0.9658253), (0.25879166, -0.014438241, 0.9658253), (0.25879166, -0.014438241, 0.9658253), (0.259208, -0.06987118, 0.9632909), (0.259208, -0.06987118, 0.9632909), (0.25880703, -0.12502666, 0.9578034), (0.259208, -0.06987118, 0.9632909), (0.259208, -0.06987118, 0.9632909), (0.259208, -0.06987118, 0.9632909), (0.25880703, -0.12502666, 0.9578034), (0.25880703, -0.12502666, 0.9578034), (-0.259208, 0.06987118, -0.9632909), (-0.25879166, 0.014438241, -0.9658253), (-0.25879166, 0.014438241, -0.9658253), (-0.25879166, 0.014438241, -0.9658253), (-0.259208, 0.06987118, -0.9632909), (-0.259208, 0.06987118, -0.9632909), (-0.25880703, 0.12502666, -0.9578034), (-0.259208, 0.06987118, -0.9632909), (-0.259208, 0.06987118, -0.9632909), (-0.259208, 0.06987118, -0.9632909), (-0.25880703, 0.12502666, -0.9578034), (-0.25880703, 0.12502666, -0.9578034), (0.25920877, 0.06986824, -0.9632909), (0.25880846, 0.12502372, -0.9578034), (0.25880846, 0.12502372, -0.9578034), (0.25880846, 0.12502372, -0.9578034), (0.25920877, 0.06986824, -0.9632909), (0.25920877, 0.06986824, -0.9632909), (0.26040983, -0.09586471, -0.9607272), (0.25920877, 0.06986824, -0.9632909), (0.25920877, 0.06986824, -0.9632909), (0.25920877, 0.06986824, -0.9632909), (0.26040983, -0.09586471, -0.9607272), (0.08949523, -0.13674404, -0.9865556), (0.26028776, -0.3085598, -0.9148996), (0.08949523, -0.13674404, -0.9865556), (0.26040983, -0.09586471, -0.9607272), (-0.26031384, -0.30859652, -0.91487974), (-0.2587943, -0.2049345, -0.9439424), (0.08949523, -0.13674404, -0.9865556), (0.08949523, -0.13674404, -0.9865556), (0.26028776, -0.3085598, -0.9148996), (-0.0000018128874, -0.31955647, -0.94756734), (0.08949523, -0.13674404, -0.9865556), (-0.0000018128874, -0.31955647, -0.94756734), (-0.26031384, -0.30859652, -0.91487974), (0.25880533, -0.40856305, -0.8752692), (-0.0000018128874, -0.31955647, -0.94756734), (0.26028776, -0.3085598, -0.9148996), (-0.25880998, -0.4085601, -0.8752692), (-0.26031384, -0.30859652, -0.91487974), (-0.0000018128874, -0.31955647, -0.94756734), (-0.0000018128874, -0.31955647, -0.94756734), (0.25880533, -0.40856305, -0.8752692), (-0.0000023994999, -0.42295823, -0.9061492), (-0.0000023994999, -0.42295823, -0.9061492), (-0.25880998, -0.4085601, -0.8752692), (-0.0000018128874, -0.31955647, -0.94756734), (-0.25880846, -0.12502372, 0.9578034), (-0.25920877, -0.06986824, 0.9632909), (-0.25880846, -0.12502372, 0.9578034), (-0.25920877, -0.06986824, 0.9632909), (-0.25880846, -0.12502372, 0.9578034), (-0.25920877, -0.06986824, 0.9632909), (-0.25920877, -0.06986824, 0.9632909), (-0.08949523, 0.13674404, 0.9865556), (-0.25920877, -0.06986824, 0.9632909), (-0.08949523, 0.13674404, 0.9865556), (-0.25920877, -0.06986824, 0.9632909), (-0.26040983, 0.09586471, 0.9607272), (-0.26040983, 0.09586471, 0.9607272), (0.0000018128874, 0.31955647, 0.94756734), (-0.08949523, 0.13674404, 0.9865556), (0.0000018128874, 0.31955647, 0.94756734), (0.2587943, 0.2049345, 0.9439424), (-0.08949523, 0.13674404, 0.9865556), (0.0000018128874, 0.31955647, 0.94756734), (-0.26040983, 0.09586471, 0.9607272), (-0.26031032, 0.30859947, 0.91487974), (0.2587943, 0.2049345, 0.9439424), (0.0000018128874, 0.31955647, 0.94756734), (0.26029128, 0.30855685, 0.9148996), (-0.26031032, 0.30859947, 0.91487974), (0.0000023994999, 0.42295823, 0.9061492), (0.0000018128874, 0.31955647, 0.94756734), (0.0000023994999, 0.42295823, 0.9061492), (0.26029128, 0.30855685, 0.9148996), (0.0000018128874, 0.31955647, 0.94756734), (0.0000023994999, 0.42295823, 0.9061492), (-0.26031032, 0.30859947, 0.91487974), (-0.25880533, 0.40856305, 0.8752692), (0.26029128, 0.30855685, 0.9148996), (0.0000023994999, 0.42295823, 0.9061492), (0.25880998, 0.4085601, 0.8752692), (0.25920293, -0.96329236, -0.069869705), (0.25878626, -0.9658268, -0.014436773), (0.25878626, -0.9658268, -0.014436773), (0.25878626, -0.9658268, -0.014436773), (0.25920293, -0.96329236, -0.069869705), (0.41768312, -0.9051237, -0.079322904), (0.70710284, -0.7011626, -0.091524504), (0.70710284, -0.7011626, -0.091524504), (0.41768312, -0.9051237, -0.079322904), (0.41768312, -0.9051237, -0.079322904), (0.41768318, -0.89515746, -0.15567303), (0.70710284, -0.7011626, -0.091524504), (0.41768318, -0.89515746, -0.15567303), (0.41768312, -0.9051237, -0.079322904), (0.25920293, -0.96329236, -0.069869705), (0.25920293, -0.96329236, -0.069869705), (0.089094795, -0.97488695, -0.20410182), (0.41768318, -0.89515746, -0.15567303), (0.26040524, -0.9039303, -0.33926284), (0.41768318, -0.89515746, -0.15567303), (0.089094795, -0.97488695, -0.20410182), (-0.2604155, -0.9039273, -0.33926284), (0.089094795, -0.97488695, -0.20410182), (-0.25879705, -0.9371678, -0.2339673), (0.089094795, -0.97488695, -0.20410182), (-0.0000053114427, -0.9362444, -0.3513492), (0.26040524, -0.9039303, -0.33926284), (0.089094795, -0.97488695, -0.20410182), (-0.2604155, -0.9039273, -0.33926284), (-0.0000053114427, -0.9362444, -0.3513492), (-0.25879803, -0.85970676, -0.44037235), (-0.0000053114427, -0.9362444, -0.3513492), (-0.2604155, -0.9039273, -0.33926284), (0.26028496, -0.8050409, -0.5330675), (0.26040524, -0.9039303, -0.33926284), (-0.0000053114427, -0.9362444, -0.3513492), (-0.0000053114427, -0.9362444, -0.3513492), (-0.25879803, -0.85970676, -0.44037235), (0.08939808, -0.85036576, -0.51854235), (-0.0000053114427, -0.9362444, -0.3513492), (0.08939808, -0.85036576, -0.51854235), (0.26028496, -0.8050409, -0.5330675), (0.26028496, -0.8050409, -0.5330675), (0.08939808, -0.85036576, -0.51854235), (0.25880346, -0.7410683, -0.6195471), (0.08939808, -0.85036576, -0.51854235), (0.25880346, -0.7410683, -0.6195471), (0.25880346, -0.7410683, -0.6195471), (-0.7093759, 0.6598756, 0.2476896), (-0.70707005, 0.68607205, 0.17133969), (-0.70707005, 0.68607205, 0.17133969), (-0.70707005, 0.68607205, 0.17133969), (-0.7093759, 0.6598756, 0.2476896), (-0.7093759, 0.6598756, 0.2476896), (-0.70928794, 0.58777124, 0.3891475), (-0.7093759, 0.6598756, 0.2476896), (-0.7093759, 0.6598756, 0.2476896), (-0.70928794, 0.58777124, 0.3891475), (-0.7093759, 0.6598756, 0.2476896), (-0.70928794, 0.58777124, 0.3891475), (-0.7091853, 0.48827526, 0.50857013), (-0.70928794, 0.58777124, 0.3891475), (-0.70928794, 0.58777124, 0.3891475), (-0.7091853, 0.48827526, 0.50857013), (-0.70928794, 0.58777124, 0.3891475), (-0.7091853, 0.48827526, 0.50857013), (-0.70918596, 0.36619788, 0.60245705), (-0.7091853, 0.48827526, 0.50857013), (-0.7091853, 0.48827526, 0.50857013), (-0.70918596, 0.36619788, 0.60245705), (-0.7091853, 0.48827526, 0.50857013), (-0.70918596, 0.36619788, 0.60245705), (-0.70707655, 0.29906842, 0.64078146), (-0.70918596, 0.36619788, 0.60245705), (-0.70918596, 0.36619788, 0.60245705), (-0.70918596, 0.36619788, 0.60245705), (-0.70707655, 0.29906842, 0.64078146), (-0.70707655, 0.29906842, 0.64078146), (0.25880244, -0.58886486, -0.76567584), (-0.000003458537, -0.60963404, -0.79268306), (0.25880244, -0.58886486, -0.76567584), (-0.000003458537, -0.60963404, -0.79268306), (-0.000003458537, -0.60963404, -0.79268306), (0.25880244, -0.58886486, -0.76567584), (-0.000003458537, -0.60963404, -0.79268306), (-0.25880912, -0.58886194, -0.76567584), (-0.000003458537, -0.60963404, -0.79268306), (-0.25880912, -0.58886194, -0.76567584), (-0.000003458537, -0.60963404, -0.79268306), (-0.2589024, -0.58884674, -0.76565605), (0.70918596, -0.36619788, -0.60245705), (0.707101, -0.43108246, -0.5605143), (0.707101, -0.43108246, -0.5605143), (0.707101, -0.43108246, -0.5605143), (0.70918596, -0.36619788, -0.60245705), (0.70918596, -0.36619788, -0.60245705), (0.70918596, -0.36619788, -0.60245705), (0.7071188, -0.29909924, -0.64072055), (0.70918596, -0.36619788, -0.60245705), (0.7071188, -0.29909924, -0.64072055), (0.70918596, -0.36619788, -0.60245705), (0.7071188, -0.29909924, -0.64072055), (0.7070924, -0.15002087, -0.691024), (0.70937926, -0.07001007, -0.7013414), (0.7070924, -0.15002087, -0.691024), (0.70937926, -0.07001007, -0.7013414), (0.7070924, -0.15002087, -0.691024), (0.70937926, -0.07001007, -0.7013414), (0.707074, 0.010506042, -0.70706165), (0.70937926, -0.07001007, -0.7013414), (0.70937926, -0.07001007, -0.7013414), (0.70937926, -0.07001007, -0.7013414), (0.707074, 0.010506042, -0.70706165), (0.7070797, 0.010605278, -0.7070544), (0.7070941, 0.15001285, 0.691024), (0.7093801, 0.07000203, 0.7013414), (0.7070941, 0.15001285, 0.691024), (0.7093801, 0.07000203, 0.7013414), (0.7070941, 0.15001285, 0.691024), (0.7093801, 0.07000203, 0.7013414), (0.7070796, -0.010613301, 0.7070544), (0.7093801, 0.07000203, 0.7013414), (0.7093801, 0.07000203, 0.7013414), (0.7093801, 0.07000203, 0.7013414), (0.7070796, -0.010613301, 0.7070544), (0.7070796, -0.010613301, 0.7070544), (-0.70937926, 0.07001007, 0.7013414), (-0.7070924, 0.15002087, 0.691024), (-0.7070924, 0.15002087, 0.691024), (-0.7070924, 0.15002087, 0.691024), (-0.70937926, 0.07001007, 0.7013414), (-0.70937926, 0.07001007, 0.7013414), (-0.70937926, 0.07001007, 0.7013414), (-0.7070797, -0.010605278, 0.7070544), (-0.70937926, 0.07001007, 0.7013414), (-0.7070797, -0.010605278, 0.7070544), (-0.70937926, 0.07001007, 0.7013414), (-0.7070797, -0.010605278, 0.7070544), (-0.7093801, -0.07000203, -0.7013414), (-0.7070941, -0.15001285, -0.691024), (-0.7070941, -0.15001285, -0.691024), (-0.7070941, -0.15001285, -0.691024), (-0.7093801, -0.07000203, -0.7013414), (-0.7093801, -0.07000203, -0.7013414), (-0.7093801, -0.07000203, -0.7013414), (-0.70707387, 0.010514065, -0.70706165), (-0.7093801, -0.07000203, -0.7013414), (-0.70707387, 0.010514065, -0.70706165), (-0.7093801, -0.07000203, -0.7013414), (-0.7070796, 0.010613301, -0.7070544), (1, -0.0000056731365, 0), (0.9660298, 0.048065763, -0.25392178), (0.9659291, 0.03349335, -0.25663063), (0.9660298, 0.048065763, -0.25392178), (1, -0.0000056731365, 0), (0.9999558, -0.0017180819, 0.009255799), (0.96592873, -0.03350431, 0.25663063), (0.9999558, -0.0017180819, 0.009255799), (1, -0.0000056731365, 0), (0.9999558, -0.0017180819, 0.009255799), (0.9663449, 0.09043007, -0.24083185), (0.9660298, 0.048065763, -0.25392178), (0.96592873, -0.03350431, 0.25663063), (0.9660292, -0.048076723, 0.25392178), (0.9999558, -0.0017180819, 0.009255799), (0.9660292, -0.048076723, 0.25392178), (0.9998251, -0.0066253874, 0.017490769), (0.9999558, -0.0017180819, 0.009255799), (0.9663449, 0.09043007, -0.24083185), (0.9999558, -0.0017180819, 0.009255799), (0.9998251, -0.0066253874, 0.017490769), (0.9998251, -0.0066253874, 0.017490769), (0.9660292, -0.048076723, 0.25392178), (0.9663438, -0.09044104, 0.24083185), (0.9663308, -0.1420712, 0.21452385), (0.9998251, -0.0066253874, 0.017490769), (0.9663438, -0.09044104, 0.24083185), (0.99983346, -0.01006145, 0.01522707), (0.9663449, 0.09043007, -0.24083185), (0.9998251, -0.0066253874, 0.017490769), (0.9998251, -0.0066253874, 0.017490769), (0.9663308, -0.1420712, 0.21452385), (0.99983346, -0.01006145, 0.01522707), (0.9663449, 0.09043007, -0.24083185), (0.99983346, -0.01006145, 0.01522707), (0.9663325, 0.14206024, -0.21452385), (0.9663099, -0.1856438, 0.17827381), (0.99983346, -0.01006145, 0.01522707), (0.9663308, -0.1420712, 0.21452385), (0.9998392, -0.012924056, 0.012433045), (0.9663325, 0.14206024, -0.21452385), (0.99983346, -0.01006145, 0.01522707), (0.99983346, -0.01006145, 0.01522707), (0.9663099, -0.1856438, 0.17827381), (0.9998392, -0.012924056, 0.012433045), (0.9663325, 0.14206024, -0.21452385), (0.9998392, -0.012924056, 0.012433045), (0.96631205, 0.18563285, -0.17827381), (0.9998392, -0.012924056, 0.012433045), (0.9663122, 0.21994692, -0.13365658), (0.96631205, 0.18563285, -0.17827381), (0.9663099, -0.1856438, 0.17827381), (0.9998392, -0.015338179, 0.009294056), (0.9998392, -0.012924056, 0.012433045), (0.9663122, 0.21994692, -0.13365658), (0.9998392, -0.012924056, 0.012433045), (0.9998392, -0.015338179, 0.009294056), (0.9998392, -0.015338179, 0.009294056), (0.9663099, -0.1856438, 0.17827381), (0.9663097, -0.21995789, 0.13365658), (0.9998392, -0.015338179, 0.009294056), (0.96633303, 0.24379757, -0.082238816), (0.9663122, 0.21994692, -0.13365658), (0.9998334, -0.017303774, 0.005810161), (0.9998392, -0.015338179, 0.009294056), (0.9663097, -0.21995789, 0.13365658), (0.96633303, 0.24379757, -0.082238816), (0.9998392, -0.015338179, 0.009294056), (0.9998334, -0.017303774, 0.005810161), (0.9998334, -0.017303774, 0.005810161), (0.9663097, -0.21995789, 0.13365658), (0.9663303, -0.24380854, 0.082238816), (0.9663458, 0.25597098, -0.02558555), (0.96633303, 0.24379757, -0.082238816), (0.9998334, -0.017303774, 0.005810161), (0.99982506, -0.018609611, 0.0019081553), (0.9998334, -0.017303774, 0.005810161), (0.9663303, -0.24380854, 0.082238816), (0.9998334, -0.017303774, 0.005810161), (0.99982506, -0.018609611, 0.0019081553), (0.9663458, 0.25597098, -0.02558555), (0.9663303, -0.24380854, 0.082238816), (0.9663429, -0.25598195, 0.02558555), (0.99982506, -0.018609611, 0.0019081553), (0.96602803, -0.25775865, -0.018719347), (0.99982506, -0.018609611, 0.0019081553), (0.9663429, -0.25598195, 0.02558555), (0.9999557, -0.009390902, -0.000720865), (0.9663458, 0.25597098, -0.02558555), (0.99982506, -0.018609611, 0.0019081553), (0.99982506, -0.018609611, 0.0019081553), (0.96602803, -0.25775865, -0.018719347), (0.9999557, -0.009390902, -0.000720865), (0.9663458, 0.25597098, -0.02558555), (0.9999557, -0.009390902, -0.000720865), (0.966031, 0.25774768, 0.018719347), (0.96603096, 0.2539163, 0.048071243), (0.966031, 0.25774768, 0.018719347), (0.9999557, -0.009390902, -0.000720865), (0.9999557, -0.009261472, -0.0017124091), (0.9999557, -0.009390902, -0.000720865), (0.96602803, -0.25775865, -0.018719347), (0.9999557, -0.009390902, -0.000720865), (0.9999557, -0.009261472, -0.0017124091), (0.96603096, 0.2539163, 0.048071243), (0.96602803, -0.25775865, -0.018719347), (0.9660281, -0.25392723, -0.048071243), (0.9999557, -0.009261472, -0.0017124091), (0.96603096, 0.2539163, 0.048071243), (0.9999557, -0.009261472, -0.0017124091), (0.9663457, 0.24082638, 0.09043556), (0.9660281, -0.25392723, -0.048071243), (0.99982506, -0.01749644, -0.006619715), (0.9999557, -0.009261472, -0.0017124091), (0.9999557, -0.009261472, -0.0017124091), (0.99982506, -0.01749644, -0.006619715), (0.9663457, 0.24082638, 0.09043556), (0.9660281, -0.25392723, -0.048071243), (0.966343, -0.24083734, -0.09043556), (0.99982506, -0.01749644, -0.006619715), (0.96633047, -0.21452934, -0.14206572), (0.99982506, -0.01749644, -0.006619715), (0.966343, -0.24083734, -0.09043556), (0.99983346, -0.015232742, -0.010055778), (0.9663457, 0.24082638, 0.09043556), (0.99982506, -0.01749644, -0.006619715), (0.99982506, -0.01749644, -0.006619715), (0.96633047, -0.21452934, -0.14206572), (0.99983346, -0.015232742, -0.010055778), (0.9663457, 0.24082638, 0.09043556), (0.99983346, -0.015232742, -0.010055778), (0.96633285, 0.21451838, 0.14206572), (0.96630996, -0.1782793, -0.18563834), (0.99983346, -0.015232742, -0.010055778), (0.96633047, -0.21452934, -0.14206572), (0.9998392, -0.012438717, -0.012918384), (0.96633285, 0.21451838, 0.14206572), (0.99983346, -0.015232742, -0.010055778), (0.99983346, -0.015232742, -0.010055778), (0.96630996, -0.1782793, -0.18563834), (0.9998392, -0.012438717, -0.012918384), (0.96633285, 0.21451838, 0.14206572), (0.9998392, -0.012438717, -0.012918384), (0.966312, 0.17826833, 0.18563834), (0.9663102, -0.13366205, -0.2199524), (0.9998392, -0.012438717, -0.012918384), (0.96630996, -0.1782793, -0.18563834), (0.9998392, -0.009299728, -0.015332507), (0.966312, 0.17826833, 0.18563834), (0.9998392, -0.012438717, -0.012918384), (0.9998392, -0.012438717, -0.012918384), (0.9663102, -0.13366205, -0.2199524), (0.9998392, -0.009299728, -0.015332507), (0.966312, 0.17826833, 0.18563834), (0.9998392, -0.009299728, -0.015332507), (0.96631175, 0.1336511, 0.2199524), (0.9998392, -0.009299728, -0.015332507), (0.96633214, 0.08223333, 0.24380305), (0.96631175, 0.1336511, 0.2199524), (0.9663102, -0.13366205, -0.2199524), (0.99983346, -0.0058158333, -0.017298102), (0.9998392, -0.009299728, -0.015332507), (0.96633214, 0.08223333, 0.24380305), (0.9998392, -0.009299728, -0.015332507), (0.99983346, -0.0058158333, -0.017298102), (0.99983346, -0.0058158333, -0.017298102), (0.9663102, -0.13366205, -0.2199524), (0.9663312, -0.0822443, -0.24380305), (0.99983346, -0.0058158333, -0.017298102), (0.9663445, 0.025580069, 0.25597647), (0.96633214, 0.08223333, 0.24380305), (0.9663312, -0.0822443, -0.24380305), (0.9998252, -0.0019138275, -0.01860394), (0.99983346, -0.0058158333, -0.017298102), (0.9663445, 0.025580069, 0.25597647), (0.99983346, -0.0058158333, -0.017298102), (0.9998252, -0.0019138275, -0.01860394), (0.9998252, -0.0019138275, -0.01860394), (0.9663312, -0.0822443, -0.24380305), (0.96634424, -0.025591033, -0.25597647), (0.96602964, 0.018713867, -0.25775316), (0.9998252, -0.0019138275, -0.01860394), (0.96634424, -0.025591033, -0.25597647), (0.9999558, 0.00071519206, -0.009385229), (0.9663445, 0.025580069, 0.25597647), (0.9998252, -0.0019138275, -0.01860394), (0.9998252, -0.0019138275, -0.01860394), (0.96602964, 0.018713867, -0.25775316), (0.9999558, 0.00071519206, -0.009385229), (0.9659291, 0.03349335, -0.25663063), (0.9999558, 0.00071519206, -0.009385229), (0.96602964, 0.018713867, -0.25775316), (0.9663445, 0.025580069, 0.25597647), (0.9999558, 0.00071519206, -0.009385229), (0.9660294, -0.018724827, 0.25775316), (0.9999558, 0.00071519206, -0.009385229), (0.9659291, 0.03349335, -0.25663063), (1, -0.0000056731365, 0), (1, -0.0000056731365, 0), (0.9660294, -0.018724827, 0.25775316), (0.9999558, 0.00071519206, -0.009385229), (0.9660294, -0.018724827, 0.25775316), (1, -0.0000056731365, 0), (0.96592873, -0.03350431, 0.25663063), (-0.9660292, 0.048076723, -0.25392178), (-1, 0.0000056731365, -0), (-0.96592873, 0.03350431, -0.25663063), (-1, 0.0000056731365, -0), (-0.9660292, 0.048076723, -0.25392178), (-0.9999558, -0.0017067362, 0.009255799), (-0.9999558, -0.0017067362, 0.009255799), (-0.9659291, -0.03349335, 0.25663063), (-1, 0.0000056731365, -0), (-0.9663438, 0.09044104, -0.24083185), (-0.9999558, -0.0017067362, 0.009255799), (-0.9660292, 0.048076723, -0.25392178), (-0.9659291, -0.03349335, 0.25663063), (-0.9999558, -0.0017067362, 0.009255799), (-0.9660298, -0.048065763, 0.25392178), (-0.99982524, -0.006614043, 0.017490769), (-0.9660298, -0.048065763, 0.25392178), (-0.9999558, -0.0017067362, 0.009255799), (-0.9999558, -0.0017067362, 0.009255799), (-0.9663438, 0.09044104, -0.24083185), (-0.99982524, -0.006614043, 0.017490769), (-0.9660298, -0.048065763, 0.25392178), (-0.99982524, -0.006614043, 0.017490769), (-0.9663449, -0.09043007, 0.24083185), (-0.99982524, -0.006614043, 0.017490769), (-0.9663325, -0.14206024, 0.21452385), (-0.9663449, -0.09043007, 0.24083185), (-0.9663438, 0.09044104, -0.24083185), (-0.9998336, -0.010050106, 0.01522707), (-0.99982524, -0.006614043, 0.017490769), (-0.9663325, -0.14206024, 0.21452385), (-0.99982524, -0.006614043, 0.017490769), (-0.9998336, -0.010050106, 0.01522707), (-0.9998336, -0.010050106, 0.01522707), (-0.9663438, 0.09044104, -0.24083185), (-0.9663308, 0.1420712, -0.21452385), (-0.9998336, -0.010050106, 0.01522707), (-0.96631205, -0.18563285, 0.17827381), (-0.9663325, -0.14206024, 0.21452385), (-0.9663308, 0.1420712, -0.21452385), (-0.9998393, -0.012912711, 0.012433045), (-0.9998336, -0.010050106, 0.01522707), (-0.96631205, -0.18563285, 0.17827381), (-0.9998336, -0.010050106, 0.01522707), (-0.9998393, -0.012912711, 0.012433045), (-0.9998393, -0.012912711, 0.012433045), (-0.9663308, 0.1420712, -0.21452385), (-0.9663099, 0.1856438, -0.17827381), (-0.9663097, 0.21995789, -0.13365658), (-0.9998393, -0.012912711, 0.012433045), (-0.9663099, 0.1856438, -0.17827381), (-0.9998393, -0.015326834, 0.009294056), (-0.96631205, -0.18563285, 0.17827381), (-0.9998393, -0.012912711, 0.012433045), (-0.9998393, -0.012912711, 0.012433045), (-0.9663097, 0.21995789, -0.13365658), (-0.9998393, -0.015326834, 0.009294056), (-0.96631205, -0.18563285, 0.17827381), (-0.9998393, -0.015326834, 0.009294056), (-0.9663122, -0.21994692, 0.13365658), (-0.9663303, 0.24380854, -0.082238816), (-0.9998393, -0.015326834, 0.009294056), (-0.9663097, 0.21995789, -0.13365658), (-0.99983364, -0.01729243, 0.005810161), (-0.9663122, -0.21994692, 0.13365658), (-0.9998393, -0.015326834, 0.009294056), (-0.9998393, -0.015326834, 0.009294056), (-0.9663303, 0.24380854, -0.082238816), (-0.99983364, -0.01729243, 0.005810161), (-0.9663122, -0.21994692, 0.13365658), (-0.99983364, -0.01729243, 0.005810161), (-0.96633303, -0.24379757, 0.082238816), (-0.9663429, 0.25598195, -0.02558555), (-0.99983364, -0.01729243, 0.005810161), (-0.9663303, 0.24380854, -0.082238816), (-0.9998253, -0.018598268, 0.0019081553), (-0.96633303, -0.24379757, 0.082238816), (-0.99983364, -0.01729243, 0.005810161), (-0.99983364, -0.01729243, 0.005810161), (-0.9663429, 0.25598195, -0.02558555), (-0.9998253, -0.018598268, 0.0019081553), (-0.96633303, -0.24379757, 0.082238816), (-0.9998253, -0.018598268, 0.0019081553), (-0.9663458, -0.25597098, 0.02558555), (-0.9998253, -0.018598268, 0.0019081553), (-0.966031, -0.25774768, -0.018719347), (-0.9663458, -0.25597098, 0.02558555), (-0.9998253, -0.018598268, 0.0019081553), (-0.9663429, 0.25598195, -0.02558555), (-0.99995583, -0.009379556, -0.000720865), (-0.9998253, -0.018598268, 0.0019081553), (-0.99995583, -0.009379556, -0.000720865), (-0.966031, -0.25774768, -0.018719347), (-0.9663429, 0.25598195, -0.02558555), (-0.96602803, 0.25775865, 0.018719347), (-0.99995583, -0.009379556, -0.000720865), (-0.96603096, -0.2539163, -0.048071243), (-0.966031, -0.25774768, -0.018719347), (-0.99995583, -0.009379556, -0.000720865), (-0.99995583, -0.009250127, -0.0017124091), (-0.99995583, -0.009379556, -0.000720865), (-0.96602803, 0.25775865, 0.018719347), (-0.99995583, -0.009379556, -0.000720865), (-0.99995583, -0.009250127, -0.0017124091), (-0.96603096, -0.2539163, -0.048071243), (-0.96602803, 0.25775865, 0.018719347), (-0.9660281, 0.25392723, 0.048071243), (-0.99995583, -0.009250127, -0.0017124091), (-0.966343, 0.24083734, 0.09043556), (-0.99995583, -0.009250127, -0.0017124091), (-0.9660281, 0.25392723, 0.048071243), (-0.9998253, -0.017485097, -0.006619715), (-0.96603096, -0.2539163, -0.048071243), (-0.99995583, -0.009250127, -0.0017124091), (-0.99995583, -0.009250127, -0.0017124091), (-0.966343, 0.24083734, 0.09043556), (-0.9998253, -0.017485097, -0.006619715), (-0.96603096, -0.2539163, -0.048071243), (-0.9998253, -0.017485097, -0.006619715), (-0.9663457, -0.24082638, -0.09043556), (-0.96633285, -0.21451838, -0.14206572), (-0.9663457, -0.24082638, -0.09043556), (-0.9998253, -0.017485097, -0.006619715), (-0.9998336, -0.015221397, -0.010055778), (-0.9998253, -0.017485097, -0.006619715), (-0.966343, 0.24083734, 0.09043556), (-0.96633285, -0.21451838, -0.14206572), (-0.9998253, -0.017485097, -0.006619715), (-0.9998336, -0.015221397, -0.010055778), (-0.9998336, -0.015221397, -0.010055778), (-0.966343, 0.24083734, 0.09043556), (-0.96633047, 0.21452934, 0.14206572), (-0.966312, -0.17826833, -0.18563834), (-0.96633285, -0.21451838, -0.14206572), (-0.9998336, -0.015221397, -0.010055778), (-0.9998393, -0.012427373, -0.012918384), (-0.9998336, -0.015221397, -0.010055778), (-0.96633047, 0.21452934, 0.14206572), (-0.966312, -0.17826833, -0.18563834), (-0.9998336, -0.015221397, -0.010055778), (-0.9998393, -0.012427373, -0.012918384), (-0.9998393, -0.012427373, -0.012918384), (-0.96633047, 0.21452934, 0.14206572), (-0.96630996, 0.1782793, 0.18563834), (-0.96631175, -0.1336511, -0.2199524), (-0.966312, -0.17826833, -0.18563834), (-0.9998393, -0.012427373, -0.012918384), (-0.96630996, 0.1782793, 0.18563834), (-0.9998393, -0.009288384, -0.015332507), (-0.9998393, -0.012427373, -0.012918384), (-0.96631175, -0.1336511, -0.2199524), (-0.9998393, -0.012427373, -0.012918384), (-0.9998393, -0.009288384, -0.015332507), (-0.9998393, -0.009288384, -0.015332507), (-0.96630996, 0.1782793, 0.18563834), (-0.9663102, 0.13366205, 0.2199524), (-0.9663312, 0.0822443, 0.24380305), (-0.9998393, -0.009288384, -0.015332507), (-0.9663102, 0.13366205, 0.2199524), (-0.9998336, -0.005804489, -0.017298102), (-0.96631175, -0.1336511, -0.2199524), (-0.9998393, -0.009288384, -0.015332507), (-0.9998393, -0.009288384, -0.015332507), (-0.9663312, 0.0822443, 0.24380305), (-0.9998336, -0.005804489, -0.017298102), (-0.96631175, -0.1336511, -0.2199524), (-0.9998336, -0.005804489, -0.017298102), (-0.96633214, -0.08223333, -0.24380305), (-0.96634424, 0.025591033, 0.25597647), (-0.9998336, -0.005804489, -0.017298102), (-0.9663312, 0.0822443, 0.24380305), (-0.9998252, -0.0019024832, -0.01860394), (-0.96633214, -0.08223333, -0.24380305), (-0.9998336, -0.005804489, -0.017298102), (-0.9998336, -0.005804489, -0.017298102), (-0.96634424, 0.025591033, 0.25597647), (-0.9998252, -0.0019024832, -0.01860394), (-0.96633214, -0.08223333, -0.24380305), (-0.9998252, -0.0019024832, -0.01860394), (-0.9663445, -0.025580069, -0.25597647), (-0.9998252, -0.0019024832, -0.01860394), (-0.9660294, 0.018724827, -0.25775316), (-0.9663445, -0.025580069, -0.25597647), (-0.96634424, 0.025591033, 0.25597647), (-0.9999558, 0.00072653784, -0.009385229), (-0.9998252, -0.0019024832, -0.01860394), (-0.9660294, 0.018724827, -0.25775316), (-0.9998252, -0.0019024832, -0.01860394), (-0.9999558, 0.00072653784, -0.009385229), (-0.9999558, 0.00072653784, -0.009385229), (-0.96592873, 0.03350431, -0.25663063), (-0.9660294, 0.018724827, -0.25775316), (-0.9999558, 0.00072653784, -0.009385229), (-0.96634424, 0.025591033, 0.25597647), (-0.96602964, -0.018713867, 0.25775316), (-0.9999558, 0.00072653784, -0.009385229), (-1, 0.0000056731365, -0), (-0.96592873, 0.03350431, -0.25663063), (-0.96602964, -0.018713867, 0.25775316), (-1, 0.0000056731365, -0), (-0.9999558, 0.00072653784, -0.009385229), (-0.96602964, -0.018713867, 0.25775316), (-0.9659291, -0.03349335, 0.25663063), (-1, 0.0000056731365, -0), (0.7071108, 0.70115453, 0.091524504), (0.7071108, 0.70115453, 0.091524504), (0.42529234, 0.8917841, 0.15442649), (0.42529234, 0.8917841, 0.15442649), (0.4252924, 0.9015432, 0.07966299), (0.7071108, 0.70115453, 0.091524504), (0.4252924, 0.9015432, 0.07966299), (0.42529234, 0.8917841, 0.15442649), (0.0000055739924, 0.9825239, 0.18613619), (0.0000055739924, 0.9825239, 0.18613619), (0.42529234, 0.8917841, 0.15442649), (0.0000053114427, 0.9362444, 0.3513492), (0.42529234, 0.8917841, 0.15442649), (0.2604155, 0.9039273, 0.33926284), (0.0000053114427, 0.9362444, 0.3513492), (0.0000055739924, 0.9825239, 0.18613619), (0.000005658286, 0.99738234, 0.07230742), (0.4252924, 0.9015432, 0.07966299), (0.0000053114427, 0.9362444, 0.3513492), (0.2604155, 0.9039273, 0.33926284), (0.000004730201, 0.8337894, 0.5520828), (0.2604155, 0.9039273, 0.33926284), (0.26029408, 0.805038, 0.5330675), (0.000004730201, 0.8337894, 0.5520828), (0.0000053114427, 0.9362444, 0.3513492), (-0.4252822, 0.8917889, 0.15442649), (0.0000055739924, 0.9825239, 0.18613619), (0.26029408, 0.805038, 0.5330675), (0.25879842, 0.741014, 0.6196141), (0.000004352329, 0.7671822, 0.6414293), (0.000004730201, 0.8337894, 0.5520828), (0.26029408, 0.805038, 0.5330675), (0.000004352329, 0.7671822, 0.6414293), (-0.4252822, 0.8917889, 0.15442649), (0.0000053114427, 0.9362444, 0.3513492), (-0.26040524, 0.9039303, 0.33926284), (0.000004730201, 0.8337894, 0.5520828), (-0.26040524, 0.9039303, 0.33926284), (0.0000053114427, 0.9362444, 0.3513492), (-0.26040524, 0.9039303, 0.33926284), (0.000004730201, 0.8337894, 0.5520828), (-0.26040074, 0.80499065, 0.53308696), (0.000004352329, 0.7671822, 0.6414293), (-0.26040074, 0.80499065, 0.53308696), (0.000004730201, 0.8337894, 0.5520828), (-0.26040074, 0.80499065, 0.53308696), (0.000004352329, 0.7671822, 0.6414293), (-0.25879002, 0.7410169, 0.6196141), (-0.42528215, 0.901548, 0.07966299), (0.0000055739924, 0.9825239, 0.18613619), (-0.4252822, 0.8917889, 0.15442649), (0.0000055739924, 0.9825239, 0.18613619), (-0.42528215, 0.901548, 0.07966299), (0.000005658286, 0.99738234, 0.07230742), (-0.42528215, 0.901548, 0.07966299), (-0.4252822, 0.8917889, 0.15442649), (-0.70710284, 0.7011626, 0.091524504), (-0.70710284, 0.7011626, 0.091524504), (-0.70710284, 0.7011626, 0.091524504), (-0.42528215, 0.901548, 0.07966299), (0.000005645126, 0.99506253, -0.09924943), (0.000005658286, 0.99738234, 0.07230742), (-0.42528215, 0.901548, 0.07966299), (0.000005645126, 0.99506253, -0.09924943), (0.4252924, 0.9015432, 0.07966299), (0.000005658286, 0.99738234, 0.07230742), (-0.2604049, 0.9607287, -0.09586324), (0.000005645126, 0.99506253, -0.09924943), (-0.42528215, 0.901548, 0.07966299), (0.4252924, 0.9015432, 0.07966299), (0.000005645126, 0.99506253, -0.09924943), (0.26041582, 0.9607257, -0.09586324), (0.000005375679, 0.94756734, -0.31955647), (0.000005645126, 0.99506253, -0.09924943), (-0.2604049, 0.9607287, -0.09586324), (0.000005375679, 0.94756734, -0.31955647), (0.26041582, 0.9607257, -0.09586324), (0.000005645126, 0.99506253, -0.09924943), (-0.26040012, 0.91485745, -0.30858997), (0.000005375679, 0.94756734, -0.31955647), (-0.2604049, 0.9607287, -0.09586324), (0.26041582, 0.9607257, -0.09586324), (0.000005375679, 0.94756734, -0.31955647), (0.2602947, 0.9148981, -0.30855832), (0.000005140708, 0.9061492, -0.42295823), (0.000005375679, 0.94756734, -0.31955647), (-0.26040012, 0.91485745, -0.30858997), (0.000005140708, 0.9061492, -0.42295823), (0.2602947, 0.9148981, -0.30855832), (0.000005375679, 0.94756734, -0.31955647), (-0.25878924, 0.87523824, -0.4086395), (0.000005140708, 0.9061492, -0.42295823), (-0.26040012, 0.91485745, -0.30858997), (0.2602947, 0.9148981, -0.30855832), (0.000005140708, 0.9061492, -0.42295823), (0.2587992, 0.87523526, -0.4086395)] (
        interpolation = "faceVarying"
    )
    point3f[] points = [(-0.0039999117, 0.038376834, 0.065121874), (-0.006928121, 0.0014514376, 0.057348028), (-0.0040001245, 0.00090571895, 0.060230646), (-0.00692791, 0.03875597, 0.062217508), (-2.5005878e-7, -0.02126184, 0.05006386), (-2.7875004e-7, -0.026319228, 0.04348794), (0.003999727, -0.025398087, 0.042928465), (0.0039997543, -0.020483684, 0.049317304), (0.0069287987, -0.012639676, 0.052059665), (0.006928766, -0.018358765, 0.047277182), (0.0039997897, -0.014266252, 0.05451579), (0.006928837, -0.0058960067, 0.055513587), (0.0039998316, -0.0069319615, 0.058273714), (0.003999876, 0.00090567354, 0.060230646), (0.006928879, 0.001451359, 0.057348028), (-2.007173e-7, -0.012564448, 0.035127968), (0.0039998116, -0.01042857, 0.039663583), (0.0039997944, -0.013485634, 0.035687443), (-1.8418534e-7, -0.00965037, 0.038917024), (-2.5005878e-7, -0.02126184, 0.05006386), (-0.0040002735, -0.02539804, 0.042928465), (-2.7875004e-7, -0.026319228, 0.04348794), (-0.004000246, -0.02048364, 0.049317304), (0.003999776, -0.016696718, 0.026146553), (0.0039997823, -0.01561446, 0.031128548), (0.006928766, -0.018405836, 0.03207017), (0.006928759, -0.019629315, 0.02643944), (-0.0069282865, -0.027642135, 0.027239015), (-0.004000293, -0.028826369, 0.03558494), (-0.006928277, -0.026034001, 0.034643453), (-0.004000303, -0.030574601, 0.027530907), (0.0069287135, -0.027642213, 0.027239015), (0.003999698, -0.030454269, 0.01945455), (0.0069287145, -0.02752904, 0.019665958), (0.0039996975, -0.030574646, 0.027530907), (0.003999776, -0.016696718, 0.026146553), (0.0069287596, -0.019536797, 0.020245308), (0.0039997767, -0.016611665, 0.02045771), (0.006928759, -0.019629315, 0.02643944), (-0.004000224, -0.016696673, 0.026146553), (-0.0040002237, -0.01661162, 0.02045771), (-0.0069282404, -0.019536717, 0.020245308), (-0.006928241, -0.019629234, 0.02643944), (-0.0040003024, -0.030454222, 0.01945455), (-0.004000303, -0.030574601, 0.027530907), (-0.0069282865, -0.027642135, 0.027239015), (-0.0069282856, -0.027528962, 0.019665958), (-0.004000261, -0.023110587, -0.03680418), (-0.0040003024, -0.030454222, 0.01945455), (-0.0069282856, -0.027528962, 0.019665958), (-0.006928244, -0.020228947, -0.036258604), (0.0069288, -0.012355862, -0.034766994), (0.006928809, -0.010855291, -0.040777326), (0.0039998246, -0.008096139, -0.039741483), (0.003999817, -0.009474223, -0.03422142), (-0.004000261, -0.023110587, -0.03680418), (-0.006928234, -0.018394507, -0.043605972), (-0.00400025, -0.02115366, -0.044641815), (-0.006928244, -0.020228947, -0.036258604), (-2.3322818e-7, -0.01829512, -0.05257253), (-0.004000199, -0.012198112, -0.058194656), (-2.028752e-7, -0.012944819, -0.058971845), (-0.0040002284, -0.017396595, -0.05197723), (0.0039998787, 0.0014317061, -0.05119661), (-1.3963205e-7, -0.0017969933, -0.04736024), (0.0039998563, -0.0025435719, -0.048138417), (-1.1813547e-7, 0.001992196, -0.050275315), (-0.0040001217, 0.0014317515, -0.05119661), (-1.3963205e-7, -0.0017969933, -0.04736024), (-1.1813547e-7, 0.001992196, -0.050275315), (-0.004000144, -0.0025435265, -0.048138417), (0.0069289696, 0.017453043, -0.06523901), (0.0040000584, 0.033041023, -0.0661571), (0.006929056, 0.03266202, -0.06325373), (0.003999971, 0.01766546, -0.068164125), (0.0069290497, 0.031626537, -0.055321027), (0.0039999653, 0.016662301, -0.054321524), (0.0069289664, 0.016873691, -0.057246763), (0.004000048, 0.031247567, -0.05241766), (-0.0069279503, 0.031626616, -0.055321027), (-0.004000035, 0.016662346, -0.054321524), (-0.003999952, 0.031247614, -0.05241766), (-0.0069280337, 0.01687377, -0.057246763), (-0.003999942, 0.033041067, -0.0661571), (-0.0040000295, 0.017665505, -0.068164125), (-0.0069280304, 0.017453123, -0.06523901), (-0.0069279443, 0.032662097, -0.06325373), (0.006928879, 0.001451359, 0.057348028), (0.0069290902, 0.03875589, 0.062217508), (0.0040000887, 0.03837679, 0.065121874), (0.003999876, 0.00090567354, 0.060230646), (8.7492985e-8, 0.038238186, 0.066183865), (-0.0040001245, 0.00090571895, 0.060230646), (-0.0039999117, 0.038376834, 0.065121874), (-1.2543454e-7, 0.00070559286, 0.06128461), (0.0039998316, -0.0069319615, 0.058273714), (-0.0040001688, -0.0069319163, 0.058273714), (-1.7091256e-7, -0.0073107863, 0.059283175), (0.0039997897, -0.014266252, 0.05451579), (-0.0040002107, -0.014266206, 0.05451579), (-2.137497e-7, -0.014861663, 0.055415284), (0.0039997543, -0.020483684, 0.049317304), (-0.004000246, -0.02048364, 0.049317304), (-2.5005878e-7, -0.02126184, 0.05006386), (-1.8418534e-7, -0.00965037, 0.038917024), (0.0039998335, -0.0065687546, 0.04289032), (0.0039998116, -0.01042857, 0.039663583), (-1.6332552e-7, -0.0059734257, 0.04199182), (0.003999859, -0.0020305098, 0.04521529), (-1.3880673e-7, -0.001651512, 0.044204842), (0.0039998908, 0.0034895528, 0.046593368), (-1.0851031e-7, 0.0036888162, 0.045538284), (0.0040000984, 0.04017037, 0.051381435), (9.924184e-8, 0.04030915, 0.050318457), (0.0069290963, 0.03979137, 0.054284804), (0.006928887, 0.002942971, 0.049474865), (-0.004000167, -0.006568709, 0.04289032), (-1.8418534e-7, -0.00965037, 0.038917024), (-0.004000189, -0.010428525, 0.039663583), (-1.6332552e-7, -0.0059734257, 0.04199182), (-0.0040001413, -0.0020304644, 0.04521529), (-1.3880673e-7, -0.001651512, 0.044204842), (-0.0040001096, 0.0034895982, 0.046593368), (-1.0851031e-7, 0.0036888162, 0.045538284), (-0.003999902, 0.04017042, 0.051381435), (9.924184e-8, 0.04030915, 0.050318457), (-0.0069279037, 0.03979145, 0.054284804), (-0.006928113, 0.0029430497, 0.049474865), (0.0039997543, -0.020483684, 0.049317304), (0.0069287405, -0.022880884, 0.04139841), (0.006928766, -0.018358765, 0.047277182), (0.003999727, -0.025398087, 0.042928465), (0.006928723, -0.02603408, 0.034643453), (0.0039997073, -0.028826416, 0.03558494), (0.0069287135, -0.027642213, 0.027239015), (0.0039996975, -0.030574646, 0.027530907), (-2.007173e-7, -0.012564448, 0.035127968), (-0.004000189, -0.010428525, 0.039663583), (-1.8418534e-7, -0.00965037, 0.038917024), (-0.004000206, -0.013485588, 0.035687443), (-0.006928201, -0.012553446, 0.0417037), (-0.004000167, -0.006568709, 0.04289032), (-0.006928176, -0.008195414, 0.045347437), (-0.0040001413, -0.0020304644, 0.04521529), (-0.006928147, -0.003066291, 0.047974423), (-0.006928113, 0.0029430497, 0.049474865), (-0.0040001096, 0.0034895982, 0.046593368), (-0.004000206, -0.013485588, 0.035687443), (-0.006928201, -0.012553446, 0.0417037), (-0.004000189, -0.010428525, 0.039663583), (-0.0069282204, -0.016003782, 0.037217367), (-0.004000218, -0.015614415, 0.031128548), (-0.006928234, -0.018405758, 0.03207017), (-0.004000224, -0.016696673, 0.026146553), (-0.006928241, -0.019629234, 0.02643944), (0.0039997823, -0.01561446, 0.031128548), (0.0069287797, -0.01600386, 0.037217367), (0.006928766, -0.018405836, 0.03207017), (0.0039997944, -0.013485634, 0.035687443), (0.006928799, -0.012553525, 0.0417037), (0.0039998116, -0.01042857, 0.039663583), (0.0039998335, -0.0065687546, 0.04289032), (0.006928824, -0.008195492, 0.045347437), (0.003999859, -0.0020305098, 0.04521529), (0.006928853, -0.0030663698, 0.047974423), (0.006928887, 0.002942971, 0.049474865), (0.0039998908, 0.0034895528, 0.046593368), (-0.0040002735, -0.02539804, 0.042928465), (-0.006928277, -0.026034001, 0.034643453), (-0.004000293, -0.028826369, 0.03558494), (-0.0069282595, -0.022880806, 0.04139841), (-0.004000246, -0.02048364, 0.049317304), (-0.006928234, -0.018358685, 0.047277182), (-0.0069282013, -0.012639597, 0.052059665), (-0.0040002107, -0.014266206, 0.05451579), (-0.006928163, -0.0058959285, 0.055513587), (-0.0040001688, -0.0069319163, 0.058273714), (-0.0040001245, 0.00090571895, 0.060230646), (-0.006928121, 0.0014514376, 0.057348028), (-0.0040003024, -0.030454222, 0.01945455), (-0.004000261, -0.023110587, -0.03680418), (-2.6653203e-7, -0.024165569, -0.03700441), (-3.082838e-7, -0.031525124, 0.019376282), (-0.004000303, -0.030574601, 0.027530907), (-3.0898443e-7, -0.03164862, 0.027638806), (-0.004000293, -0.028826369, 0.03558494), (0.0039997073, -0.028826416, 0.03558494), (0.0039996975, -0.030574646, 0.027530907), (-2.9876696e-7, -0.0298476, 0.03592966), (-0.0040002735, -0.02539804, 0.042928465), (0.003999727, -0.025398087, 0.042928465), (-2.7875004e-7, -0.026319228, 0.04348794), (0.006928824, -0.0082274405, -0.045905326), (0.0039998246, -0.008096139, -0.039741483), (0.006928809, -0.010855291, -0.040777326), (0.003999838, -0.005771302, -0.044278733), (0.0069288444, -0.004584699, -0.05026349), (0.0039998563, -0.0025435719, -0.048138417), (0.00692887, -0.00009836509, -0.053713825), (0.0039998787, 0.0014317061, -0.05119661), (0.0039999047, 0.0059904708, -0.05332444), (0.0069288993, 0.005048963, -0.056116793), (-0.0040002284, -0.017396595, -0.05197723), (-0.00400025, -0.02115366, -0.044641815), (-0.006928234, -0.018394507, -0.043605972), (-0.0069282143, -0.014939593, -0.050349507), (-0.004000199, -0.012198112, -0.058194656), (-0.0069281873, -0.0101579735, -0.05606972), (-0.0040001627, -0.005808407, -0.06310794), (-0.006928154, -0.0042783376, -0.06059072), (-0.0069281156, 0.0024767504, -0.06374491), (-0.004000121, 0.0015351125, -0.06653627), (0.0069287857, -0.014939671, -0.050349507), (0.0039998014, -0.012198157, -0.058194656), (0.0069288127, -0.010158053, -0.05606972), (0.003999772, -0.01739664, -0.05197723), (0.006928766, -0.018394588, -0.043605972), (0.0039997506, -0.021153707, -0.044641815), (0.0039997394, -0.023110634, -0.03680418), (0.006928756, -0.020229027, -0.036258604), (0.0039999653, 0.016662301, -0.054321524), (-6.657695e-8, 0.0110803805, -0.0533327), (0.003999933, 0.010973456, -0.054406576), (-3.5353857e-8, 0.016584055, -0.05325064), (0.004000048, 0.031247567, -0.05241766), (4.70472e-8, 0.031108836, -0.051354673), (-2.8780374e-8, 0.017742759, -0.06923513), (-7.5649154e-8, 0.00948123, -0.069358505), (-0.004000075, 0.009588157, -0.06828463), (-0.0040000295, 0.017665505, -0.068164125), (5.8796065e-8, 0.0331798, -0.067220084), (-0.003999942, 0.033041067, -0.0661571), (0.003999971, 0.01766546, -0.068164125), (5.8796065e-8, 0.0331798, -0.067220084), (0.0040000584, 0.033041023, -0.0661571), (-2.8780374e-8, 0.017742759, -0.06923513), (0.003999925, 0.009588111, -0.06828463), (-7.5649154e-8, 0.00948123, -0.069358505), (0.0039998796, 0.0015350671, -0.06653627), (-0.004000121, 0.0015351125, -0.06653627), (-0.004000075, 0.009588157, -0.06828463), (-1.2268359e-7, 0.0011905014, -0.06755847), (0.0039998377, -0.005808452, -0.06310794), (-0.0040001627, -0.005808407, -0.06310794), (-1.6556909e-7, -0.0063688965, -0.06402923), (-0.003999952, 0.031247614, -0.05241766), (-3.5353857e-8, 0.016584055, -0.05325064), (4.70472e-8, 0.031108836, -0.051354673), (-0.004000035, 0.016662346, -0.054321524), (-6.657695e-8, 0.0110803805, -0.0533327), (-0.0040000672, 0.010973501, -0.054406576), (-9.3496936e-8, 0.006335214, -0.052303236), (0.003999933, 0.010973456, -0.054406576), (-0.0040000957, 0.005990516, -0.05332444), (0.0039999047, 0.0059904708, -0.05332444), (-1.1813547e-7, 0.001992196, -0.050275315), (-0.0040001217, 0.0014317515, -0.05119661), (0.0039998787, 0.0014317061, -0.05119661), (-3.082838e-7, -0.031525124, 0.019376282), (0.0039996975, -0.030574646, 0.027530907), (-3.0898443e-7, -0.03164862, 0.027638806), (0.003999698, -0.030454269, 0.01945455), (0.006928756, -0.020229027, -0.036258604), (0.0069287145, -0.02752904, 0.019665958), (0.0039997394, -0.023110634, -0.03680418), (-2.6653203e-7, -0.024165569, -0.03700441), (0.0039997506, -0.021153707, -0.044641815), (-0.00400025, -0.02115366, -0.044641815), (-0.004000261, -0.023110587, -0.03680418), (-2.5517758e-7, -0.022164129, -0.045020785), (-0.0040002284, -0.017396595, -0.05197723), (0.003999772, -0.01739664, -0.05197723), (-2.3322818e-7, -0.01829512, -0.05257253), (0.0039998014, -0.012198157, -0.058194656), (-2.028752e-7, -0.012944819, -0.058971845), (-0.0040001757, -0.008096093, -0.039741483), (-0.0069282, -0.012355783, -0.034766994), (-0.004000183, -0.009474177, -0.03422142), (-0.006928191, -0.010855212, -0.040777326), (-0.006928176, -0.008227362, -0.045905326), (-0.0040001622, -0.005771257, -0.044278733), (-0.0069281557, -0.0045846202, -0.05026349), (-0.004000144, -0.0025435265, -0.048138417), (-0.00692813, -0.00009828647, -0.053713825), (-0.0040001217, 0.0014317515, -0.05119661), (-0.0040000957, 0.005990516, -0.05332444), (-0.0069281007, 0.0050490415, -0.056116793), (0.0039998014, -0.012198157, -0.058194656), (-2.028752e-7, -0.012944819, -0.058971845), (0.0039998377, -0.005808452, -0.06310794), (-1.6556909e-7, -0.0063688965, -0.06402923), (-0.0040001627, -0.005808407, -0.06310794), (-0.004000199, -0.012198112, -0.058194656), (0.0039998377, -0.005808452, -0.06310794), (0.0069288127, -0.010158053, -0.05606972), (0.0039998014, -0.012198157, -0.058194656), (0.0069288462, -0.0042784163, -0.06059072), (0.0069288844, 0.0024766717, -0.06374491), (0.0039998796, 0.0015350671, -0.06653627), (0.0039998796, 0.0015350671, -0.06653627), (0.0069289263, 0.009880979, -0.06535205), (0.0069288844, 0.0024766717, -0.06374491), (0.003999925, 0.009588111, -0.06828463), (0.003999971, 0.01766546, -0.068164125), (0.0069289696, 0.017453043, -0.06523901), (0.0069288993, 0.005048963, -0.056116793), (0.003999933, 0.010973456, -0.054406576), (0.0039999047, 0.0059904708, -0.05332444), (0.006928931, 0.010680553, -0.057339147), (0.0069289664, 0.016873691, -0.057246763), (0.0039999653, 0.016662301, -0.054321524), (-0.0040000672, 0.010973501, -0.054406576), (-0.0069281007, 0.0050490415, -0.056116793), (-0.0040000957, 0.005990516, -0.05332444), (-0.006928069, 0.010680632, -0.057339147), (-0.0069280337, 0.01687377, -0.057246763), (-0.004000035, 0.016662346, -0.054321524), (-0.0069280737, 0.009881057, -0.06535205), (-0.004000121, 0.0015351125, -0.06653627), (-0.0069281156, 0.0024767504, -0.06374491), (-0.004000075, 0.009588157, -0.06828463), (-0.0040000295, 0.017665505, -0.068164125), (-0.0069280304, 0.017453123, -0.06523901), (0.0080000935, 0.039273623, 0.058251157), (0.006928887, 0.002942971, 0.049474865), (0.0069290963, 0.03979137, 0.054284804), (0.007999883, 0.0021971595, 0.053411447), (0.0069290902, 0.03875589, 0.062217508), (0.006928853, -0.0030663698, 0.047974423), (0.006928879, 0.001451359, 0.057348028), (0.007999846, -0.0044811945, 0.051744007), (0.006928837, -0.0058960067, 0.055513587), (0.0069287987, -0.012639676, 0.052059665), (0.007999812, -0.010417525, 0.048703056), (0.006928824, -0.008195492, 0.045347437), (0.006928766, -0.018358765, 0.047277182), (0.007999783, -0.015456647, 0.04449038), (0.006928799, -0.012553525, 0.0417037), (0.0069287797, -0.01600386, 0.037217367), (0.007999761, -0.019442378, 0.03930789), (0.0069287405, -0.022880884, 0.04139841), (0.006928766, -0.018405836, 0.03207017), (0.007999745, -0.022220396, 0.03335625), (0.006928723, -0.02603408, 0.034643453), (0.006928759, -0.019629315, 0.02643944), (0.007999737, -0.023635767, 0.026839228), (0.0069287135, -0.027642213, 0.027239015), (0.0069287145, -0.02752904, 0.019665958), (0.007999738, -0.023532925, 0.019955635), (0.0069287596, -0.019536797, 0.020245308), (0.0069288, -0.012355862, -0.034766994), (0.007999779, -0.01629245, -0.035512798), (0.006928756, -0.020229027, -0.036258604), (0.006928809, -0.010855291, -0.040777326), (0.007999788, -0.014625007, -0.04219115), (0.006928766, -0.018394588, -0.043605972), (0.0069287857, -0.014939671, -0.050349507), (0.007999805, -0.011584058, -0.048127484), (0.006928824, -0.0082274405, -0.045905326), (0.0069288127, -0.010158053, -0.05606972), (0.007999829, -0.007371382, -0.053166606), (0.0069288444, -0.004584699, -0.05026349), (0.0069288462, -0.0042784163, -0.06059072), (0.007999859, -0.0021888933, -0.057152335), (0.00692887, -0.00009836509, -0.053713825), (0.0069288993, 0.005048963, -0.056116793), (0.007999892, 0.0037627474, -0.059930354), (0.0069288844, 0.0024766717, -0.06374491), (0.006928931, 0.010680553, -0.057339147), (0.00799993, 0.010280759, -0.0613456), (0.0069289263, 0.009880979, -0.06535205), (0.0069289696, 0.017453043, -0.06523901), (0.007999969, 0.017163362, -0.06124289), (0.006929056, 0.03266202, -0.06325373), (0.0069289664, 0.016873691, -0.057246763), (0.008000053, 0.03214427, -0.05928738), (0.0069290497, 0.031626537, -0.055321027), (-0.006928113, 0.0029430497, 0.049474865), (-0.007999907, 0.039273713, 0.058251157), (-0.0069279037, 0.03979145, 0.054284804), (-0.008000118, 0.00219725, 0.053411447), (-0.00692791, 0.03875597, 0.062217508), (-0.006928147, -0.003066291, 0.047974423), (-0.006928121, 0.0014514376, 0.057348028), (-0.008000155, -0.0044811037, 0.051744007), (-0.006928163, -0.0058959285, 0.055513587), (-0.0069282013, -0.012639597, 0.052059665), (-0.0080001885, -0.010417433, 0.048703056), (-0.006928176, -0.008195414, 0.045347437), (-0.006928234, -0.018358685, 0.047277182), (-0.008000217, -0.015456556, 0.04449038), (-0.006928201, -0.012553446, 0.0417037), (-0.0069282204, -0.016003782, 0.037217367), (-0.00800024, -0.019442288, 0.03930789), (-0.0069282595, -0.022880806, 0.04139841), (-0.006928234, -0.018405758, 0.03207017), (-0.008000256, -0.022220304, 0.03335625), (-0.006928277, -0.026034001, 0.034643453), (-0.006928241, -0.019629234, 0.02643944), (-0.008000264, -0.023635676, 0.026839228), (-0.0069282865, -0.027642135, 0.027239015), (-0.0069282856, -0.027528962, 0.019665958), (-0.008000263, -0.023532834, 0.019955635), (-0.0069282404, -0.019536717, 0.020245308), (-0.006928244, -0.020228947, -0.036258604), (-0.008000222, -0.01629236, -0.035512798), (-0.0069282, -0.012355783, -0.034766994), (-0.006928191, -0.010855212, -0.040777326), (-0.008000213, -0.014624917, -0.04219115), (-0.006928234, -0.018394507, -0.043605972), (-0.0069282143, -0.014939593, -0.050349507), (-0.008000196, -0.011583968, -0.048127484), (-0.006928176, -0.008227362, -0.045905326), (-0.0069281873, -0.0101579735, -0.05606972), (-0.008000172, -0.0073712915, -0.053166606), (-0.0069281557, -0.0045846202, -0.05026349), (-0.006928154, -0.0042783376, -0.06059072), (-0.008000142, -0.0021888027, -0.057152335), (-0.00692813, -0.00009828647, -0.053713825), (-0.0069281007, 0.0050490415, -0.056116793), (-0.008000108, 0.0037628382, -0.059930354), (-0.0069281156, 0.0024767504, -0.06374491), (-0.006928069, 0.010680632, -0.057339147), (-0.008000071, 0.01028085, -0.0613456), (-0.0069280737, 0.009881057, -0.06535205), (-0.0069280304, 0.017453123, -0.06523901), (-0.008000032, 0.017163454, -0.06124289), (-0.0069279443, 0.032662097, -0.06325373), (-0.0069280337, 0.01687377, -0.057246763), (-0.007999947, 0.032144364, -0.05928738), (-0.0069279503, 0.031626616, -0.055321027), (0.0069287596, -0.019536797, 0.020245308), (0.0069288, -0.012355862, -0.034766994), (0.003999817, -0.009474223, -0.03422142), (0.0039997767, -0.016611665, 0.02045771), (-1.7720097e-7, -0.008419241, -0.034021188), (-1.6963544e-7, -0.0070856707, -0.03936251), (0.0039998246, -0.008096139, -0.039741483), (-2.1760161e-7, -0.015540636, 0.020534985), (-1.5707576e-7, -0.004871783, -0.0436833), (0.003999838, -0.005771302, -0.044278733), (-0.004000183, -0.009474177, -0.03422142), (0.0039998563, -0.0025435719, -0.048138417), (-1.3963205e-7, -0.0017969933, -0.04736024), (-0.0040001757, -0.008096093, -0.039741483), (-0.0040001622, -0.005771257, -0.044278733), (-0.004000144, -0.0025435265, -0.048138417), (-0.0040002237, -0.01661162, 0.02045771), (-0.0069282, -0.012355783, -0.034766994), (-0.0069282404, -0.019536717, 0.020245308), (-2.180679e-7, -0.015622827, 0.026039653), (-0.004000224, -0.016696673, 0.026146553), (0.003999776, -0.016696718, 0.026146553), (-2.1222121e-7, -0.014592236, 0.030783957), (-0.004000218, -0.015614415, 0.031128548), (0.0039997823, -0.01561446, 0.031128548), (-2.007173e-7, -0.012564448, 0.035127968), (-0.004000206, -0.013485588, 0.035687443), (0.0039997944, -0.013485634, 0.035687443)]
}

