#usda 1.0
(
    defaultPrim = "UCX_Dishwasher_Tray_02_022"
    upAxis = "Z"
)

def Mesh "UCX_Dishwasher_Tray_02_022"
{
    int[] faceVertexCounts = [3, 3, 3, 3, 3, 3, 3, 3, 3, 3, 3, 3, 3, 3, 3, 3, 3, 3, 3, 3, 3, 3, 3, 3, 3, 3, 3, 3]
    int[] faceVertexIndices = [0, 1, 2, 0, 2, 3, 3, 2, 4, 3, 4, 5, 5, 4, 6, 5, 6, 7, 7, 6, 8, 7, 8, 9, 9, 8, 10, 9, 10, 11, 11, 10, 12, 11, 12, 13, 4, 2, 1, 1, 14, 12, 12, 10, 8, 8, 6, 4, 4, 1, 12, 12, 8, 4, 13, 12, 14, 13, 14, 15, 15, 14, 1, 15, 1, 0, 15, 0, 3, 3, 5, 7, 7, 9, 11, 11, 13, 15, 15, 3, 7, 7, 11, 15]
    normal3f[] normals = [(0.13677426, 0.99060225, -2.8111039e-8), (-0.13677426, 0.99060225, -4.2645436e-8), (0.6037477, 0.7971755, -1.6364726e-8), (0.13677426, 0.99060225, -2.8111039e-8), (0.6037477, 0.7971755, -1.6364726e-8), (0.7971733, 0.6037507, -3.3221394e-8), (0.7971733, 0.6037507, -3.3221394e-8), (0.6037477, 0.7971755, -1.6364726e-8), (0.990602, 0.13677566, -1.7971424e-9), (0.7971733, 0.6037507, -3.3221394e-8), (0.990602, 0.13677566, -1.7971424e-9), (0.990602, -0.13677566, -1.2737254e-8), (0.990602, -0.13677566, -1.2737254e-8), (0.990602, 0.13677566, -1.7971424e-9), (0.79717386, -0.60374993, -2.847166e-8), (0.990602, -0.13677566, -1.2737254e-8), (0.79717386, -0.60374993, -2.847166e-8), (0.6037477, -0.79717547, -7.223318e-8), (0.6037477, -0.79717547, -7.223318e-8), (0.79717386, -0.60374993, -2.847166e-8), (0.13677426, -0.9906023, -1.01306995e-7), (0.6037477, -0.79717547, -7.223318e-8), (0.13677426, -0.9906023, -1.01306995e-7), (-0.13677426, -0.9906023, -8.67726e-8), (-0.13677426, -0.9906023, -8.67726e-8), (0.13677426, -0.9906023, -1.01306995e-7), (-0.6037488, -0.79717463, -4.8111385e-8), (-0.13677426, -0.9906023, -8.67726e-8), (-0.6037488, -0.79717463, -4.8111385e-8), (-0.79717386, -0.60374993, -4.3006057e-8), (-0.79717386, -0.60374993, -4.3006057e-8), (-0.6037488, -0.79717463, -4.8111385e-8), (-0.990602, -0.13677563, -2.5322207e-9), (-0.79717386, -0.60374993, -4.3006057e-8), (-0.990602, -0.13677563, -2.5322207e-9), (-0.990602, 0.13677588, -5.198574e-9), (0.990602, 0.13677566, -1.7971424e-9), (0.6037477, 0.7971755, -1.6364726e-8), (-0.13677426, 0.99060225, -4.2645436e-8), (-0.13677426, 0.99060225, -4.2645436e-8), (-0.7971733, 0.6037507, -1.8686999e-8), (-0.990602, -0.13677563, -2.5322207e-9), (-0.990602, -0.13677563, -2.5322207e-9), (-0.6037488, -0.79717463, -4.8111385e-8), (0.13677426, -0.9906023, -1.01306995e-7), (0.13677426, -0.9906023, -1.01306995e-7), (0.79717386, -0.60374993, -2.847166e-8), (0.990602, 0.13677566, -1.7971424e-9), (0.990602, 0.13677566, -1.7971424e-9), (-0.13677426, 0.99060225, -4.2645436e-8), (-0.990602, -0.13677563, -2.5322207e-9), (-0.990602, -0.13677563, -2.5322207e-9), (0.13677426, -0.9906023, -1.01306995e-7), (0.990602, 0.13677566, -1.7971424e-9), (-0.990602, 0.13677588, -5.198574e-9), (-0.990602, -0.13677563, -2.5322207e-9), (-0.7971733, 0.6037507, -1.8686999e-8), (-0.990602, 0.13677588, -5.198574e-9), (-0.7971733, 0.6037507, -1.8686999e-8), (-0.6037477, 0.7971755, -1.6364726e-8), (-0.6037477, 0.7971755, -1.6364726e-8), (-0.7971733, 0.6037507, -1.8686999e-8), (-0.13677426, 0.99060225, -4.2645436e-8), (-0.6037477, 0.7971755, -1.6364726e-8), (-0.13677426, 0.99060225, -4.2645436e-8), (0.13677426, 0.99060225, -2.8111039e-8), (-0.6037477, 0.7971755, -1.6364726e-8), (0.13677426, 0.99060225, -2.8111039e-8), (0.7971733, 0.6037507, -3.3221394e-8), (0.7971733, 0.6037507, -3.3221394e-8), (0.990602, -0.13677566, -1.2737254e-8), (0.6037477, -0.79717547, -7.223318e-8), (0.6037477, -0.79717547, -7.223318e-8), (-0.13677426, -0.9906023, -8.67726e-8), (-0.79717386, -0.60374993, -4.3006057e-8), (-0.79717386, -0.60374993, -4.3006057e-8), (-0.990602, 0.13677588, -5.198574e-9), (-0.6037477, 0.7971755, -1.6364726e-8), (-0.6037477, 0.7971755, -1.6364726e-8), (0.7971733, 0.6037507, -3.3221394e-8), (0.6037477, -0.79717547, -7.223318e-8), (0.6037477, -0.79717547, -7.223318e-8), (-0.79717386, -0.60374993, -4.3006057e-8), (-0.6037477, 0.7971755, -1.6364726e-8)] (
        interpolation = "faceVarying"
    )
    point3f[] points = [(-2.8249791e-11, 0.0019999978, -0.03520003), (-2.8249791e-11, 0.002000001, 0.035200007), (0.0014142096, 0.0014142136, 0.035200004), (0.0014142096, 0.0014142103, -0.035200033), (0.002000004, 3.8217034e-9, 0.035200007), (0.002000004, 1.0199016e-9, -0.03520003), (0.0014142096, -0.0014142126, 0.035200007), (0.0014142096, -0.0014142077, -0.03520003), (-2.8249791e-11, -0.002, 0.035200004), (-2.8249791e-11, -0.0019999952, -0.035200033), (-0.0014142096, -0.0014142126, 0.035200007), (-0.0014142096, -0.0014142077, -0.03520003), (-0.002000004, 3.8217034e-9, 0.035200007), (-0.002000004, 1.0199016e-9, -0.03520003), (-0.0014142096, 0.0014142136, 0.035200004), (-0.0014142096, 0.0014142103, -0.035200033)]
}

