#usda 1.0
(
    defaultPrim = "UCX_Dishwasher_Tray_01_008"
    upAxis = "Z"
)

def Mesh "UCX_Dishwasher_Tray_01_008"
{
    int[] faceVertexCounts = [3, 3, 3, 3, 3, 3, 3, 3, 3, 3, 3, 3]
    int[] faceVertexIndices = [0, 1, 2, 0, 2, 3, 3, 2, 4, 3, 4, 5, 1, 6, 4, 1, 4, 2, 6, 7, 5, 6, 5, 4, 7, 0, 3, 7, 3, 5, 0, 7, 6, 0, 6, 1]
    normal3f[] normals = [(1, -3.2687606e-7, -2.3429298e-7), (1, 0, 0), (1, -3.2687606e-7, -2.3429298e-7), (1, -3.2687606e-7, -2.3429298e-7), (1, -3.2687606e-7, -2.3429298e-7), (0, 0.81429017, 0.5804582), (0, 0.81429017, 0.5804582), (1, -3.2687606e-7, -2.3429298e-7), (0, 0.88333887, -0.46873492), (0, 0.81429017, 0.5804582), (0, 0.88333887, -0.46873492), (-1, 7.0997504e-7, 2.3919377e-8), (1, 0, 0), (-1, 7.176131e-7, 1.6925345e-8), (0, 0.88333887, -0.46873492), (1, 0, 0), (0, 0.88333887, -0.46873492), (1, -3.2687606e-7, -2.3429298e-7), (-1, 7.176131e-7, 1.6925345e-8), (-1, 7.099842e-7, 3.1249964e-8), (-1, 7.0997504e-7, 2.3919377e-8), (-1, 7.176131e-7, 1.6925345e-8), (-1, 7.0997504e-7, 2.3919377e-8), (0, 0.88333887, -0.46873492), (-1, 7.099842e-7, 3.1249964e-8), (1, -3.2687606e-7, -2.3429298e-7), (0, 0.81429017, 0.5804582), (-1, 7.099842e-7, 3.1249964e-8), (0, 0.81429017, 0.5804582), (-1, 7.0997504e-7, 2.3919377e-8), (1, -3.2687606e-7, -2.3429298e-7), (-1, 7.099842e-7, 3.1249964e-8), (-1, 7.176131e-7, 1.6925345e-8), (1, -3.2687606e-7, -2.3429298e-7), (-1, 7.176131e-7, 1.6925345e-8), (1, 0, 0)] (
        interpolation = "faceVarying"
    )
    point3f[] points = [(0.0021554923, -0.0044570607, 0.013491031), (0.0021554923, -0.003612389, -0.0145915365), (0.0021554923, 0.0064930595, -0.0018702432), (0.0021554998, 0.006146148, 0.003798591), (-0.0021554881, 0.0064930595, -0.0018702432), (-0.0021554881, 0.006146148, 0.003798591), (-0.0021554956, -0.003612389, -0.0145915365), (-0.0021554956, -0.0044570607, 0.013491031)]
}

