#usda 1.0
(
    defaultPrim = "UCX_Fridge_Egg_Tray_006"
    upAxis = "Z"
)

def Mesh "UCX_Fridge_Egg_Tray_006"
{
    int[] faceVertexCounts = [3, 3, 3, 3, 3, 3, 3, 3, 3, 3, 3, 3]
    int[] faceVertexIndices = [0, 1, 2, 0, 2, 3, 4, 2, 1, 4, 1, 5, 5, 6, 7, 5, 7, 4, 6, 5, 1, 6, 1, 0, 7, 6, 0, 7, 0, 3, 7, 3, 2, 7, 2, 4]
    normal3f[] normals = [(1, -1.8243216e-7, 0), (1, -1.2373029e-7, 0), (1, -1.677567e-7, 0), (1, -1.8243216e-7, 0), (1, -1.677567e-7, 0), (1, -1.677567e-7, 0), (-1, 6.326524e-9, -0), (1, -1.677567e-7, 0), (1, -1.2373029e-7, 0), (-1, 6.326524e-9, -0), (1, -1.2373029e-7, 0), (-1.0000001, -5.8368986e-8, -0), (-1.0000001, -5.8368986e-8, -0), (-1.0000001, -1.4342576e-8, -0), (-1.0000001, -5.8368986e-8, -0), (-1.0000001, -5.8368986e-8, -0), (-1.0000001, -5.8368986e-8, -0), (-1, 6.326524e-9, -0), (-1.0000001, -1.4342576e-8, -0), (-1.0000001, -5.8368986e-8, -0), (1, -1.2373029e-7, 0), (-1.0000001, -1.4342576e-8, -0), (1, -1.2373029e-7, 0), (1, -1.8243216e-7, 0), (-1.0000001, -5.8368986e-8, -0), (-1.0000001, -1.4342576e-8, -0), (1, -1.8243216e-7, 0), (-1.0000001, -5.8368986e-8, -0), (1, -1.8243216e-7, 0), (1, -1.677567e-7, 0), (-1.0000001, -5.8368986e-8, -0), (1, -1.677567e-7, 0), (1, -1.677567e-7, 0), (-1.0000001, -5.8368986e-8, -0), (1, -1.677567e-7, 0), (-1, 6.326524e-9, -0)] (
        interpolation = "faceVarying"
    )
    point3f[] points = [(0.0009000018, -0.0046718023, -0.017643321), (0.00090000336, 0.0046717967, -0.017643321), (0.00090000336, 0.0046717967, 0.017643318), (0.0009000018, -0.0046718023, 0.017643318), (-0.00090000266, 0.0046718, 0.017643318), (-0.00090000266, 0.0046718, -0.017643318), (-0.0009000023, -0.0046717986, -0.017643318), (-0.0009000023, -0.0046717986, 0.017643318)]
}

