#usda 1.0
(
    defaultPrim = "UCX_Kitchen_06_Base_Drawer_03_005"
    upAxis = "Z"
)

def Mesh "UCX_Kitchen_06_Base_Drawer_03_005"
{
    int[] faceVertexCounts = [3, 3, 3, 3, 3, 3, 3, 3, 3, 3, 3, 3]
    int[] faceVertexIndices = [0, 1, 2, 0, 2, 3, 4, 2, 1, 4, 1, 5, 6, 4, 5, 6, 5, 7, 3, 2, 4, 3, 4, 6, 7, 5, 1, 7, 1, 0, 6, 7, 0, 6, 0, 3]
    normal3f[] normals = [(0.9941577, 0.107937604, 1.200605e-7), (-0.9994192, 0.034078714, -1.5928318e-7), (-0.9994192, 0.034078747, -1.5836248e-7), (0.9941577, 0.107937604, 1.200605e-7), (-0.9994192, 0.034078747, -1.5836248e-7), (0.99415773, 0.10793728, 1.4442064e-7), (-0.9994192, 0.0340788, -1.5928319e-7), (-0.9994192, 0.034078747, -1.5836248e-7), (-0.9994192, 0.034078714, -1.5928318e-7), (-0.9994192, 0.0340788, -1.5928319e-7), (-0.9994192, 0.034078714, -1.5928318e-7), (-0.99941915, 0.034078766, -1.5836247e-7), (0.9941577, 0.107937604, 1.200605e-7), (-0.9994192, 0.0340788, -1.5928319e-7), (-0.99941915, 0.034078766, -1.5836247e-7), (0.9941577, 0.107937604, 1.200605e-7), (-0.99941915, 0.034078766, -1.5836247e-7), (0.99415773, 0.10793792, 9.5700386e-8), (0.99415773, 0.10793728, 1.4442064e-7), (-0.9994192, 0.034078747, -1.5836248e-7), (-0.9994192, 0.0340788, -1.5928319e-7), (0.99415773, 0.10793728, 1.4442064e-7), (-0.9994192, 0.0340788, -1.5928319e-7), (0.9941577, 0.107937604, 1.200605e-7), (0.99415773, 0.10793792, 9.5700386e-8), (-0.99941915, 0.034078766, -1.5836247e-7), (-0.9994192, 0.034078714, -1.5928318e-7), (0.99415773, 0.10793792, 9.5700386e-8), (-0.9994192, 0.034078714, -1.5928318e-7), (0.9941577, 0.107937604, 1.200605e-7), (0.9941577, 0.107937604, 1.200605e-7), (0.99415773, 0.10793792, 9.5700386e-8), (0.9941577, 0.107937604, 1.200605e-7), (0.9941577, 0.107937604, 1.200605e-7), (0.9941577, 0.107937604, 1.200605e-7), (0.99415773, 0.10793728, 1.4442064e-7)] (
        interpolation = "faceVarying"
    )
    point3f[] points = [(0.002470269, 0.02142043, 0.2376263), (-0.004112953, 0.015578137, 0.2376263), (-0.00524628, -0.01765868, 0.2376263), (0.0062690657, -0.013568419, 0.2376263), (-0.005246206, -0.017658731, -0.23762639), (-0.0041128783, 0.0155780865, -0.23762639), (0.0062691397, -0.013568469, -0.23762639), (0.0024703185, 0.021420397, -0.23762639)]
}

