#usda 1.0
(
    defaultPrim = "UCX_Dishwasher_Tray_02_034"
    upAxis = "Z"
)

def Mesh "UCX_Dishwasher_Tray_02_034"
{
    int[] faceVertexCounts = [3, 3, 3, 3, 3, 3, 3, 3, 3, 3, 3, 3, 3, 3, 3, 3, 3, 3, 3, 3, 3, 3, 3, 3, 3, 3, 3, 3]
    int[] faceVertexIndices = [0, 1, 2, 0, 2, 3, 3, 2, 4, 3, 4, 5, 5, 4, 6, 5, 6, 7, 7, 6, 8, 7, 8, 9, 9, 8, 10, 9, 10, 11, 11, 10, 12, 11, 12, 13, 4, 2, 1, 1, 14, 12, 12, 10, 8, 8, 6, 4, 4, 1, 12, 12, 8, 4, 13, 12, 14, 13, 14, 15, 15, 14, 1, 15, 1, 0, 15, 0, 3, 3, 5, 7, 7, 9, 11, 11, 13, 15, 15, 3, 7, 7, 11, 15]
    normal3f[] normals = [(0.13677539, 0.9906021, 0), (-0.13677491, 0.99060214, 0), (0.60375154, 0.79717267, 0), (0.13677539, 0.9906021, 0), (0.60375154, 0.79717267, 0), (0.7971772, 0.6037454, 0), (0.7971772, 0.6037454, 0), (0.60375154, 0.79717267, 0), (0.9906025, 0.13677244, 0), (0.7971772, 0.6037454, 0), (0.9906025, 0.13677244, 0), (0.9906025, -0.13677245, 0), (0.9906025, -0.13677245, 0), (0.9906025, 0.13677244, 0), (0.7971772, -0.6037454, 0), (0.9906025, -0.13677245, 0), (0.7971772, -0.6037454, 0), (0.60375154, -0.79717267, 0), (0.60375154, -0.79717267, 0), (0.7971772, -0.6037454, 0), (0.13677539, -0.9906021, 0), (0.60375154, -0.79717267, 0), (0.13677539, -0.9906021, 0), (-0.13677491, -0.99060214, 0), (-0.13677491, -0.99060214, 0), (0.13677539, -0.9906021, 0), (-0.60374814, -0.7971751, 0), (-0.13677491, -0.99060214, 0), (-0.60374814, -0.7971751, 0), (-0.7971755, -0.6037476, 0), (-0.7971755, -0.6037476, 0), (-0.60374814, -0.7971751, 0), (-0.9906025, -0.13677244, 0), (-0.7971755, -0.6037476, 0), (-0.9906025, -0.13677244, 0), (-0.9906025, 0.13677245, 0), (0.9906025, 0.13677244, 0), (0.60375154, 0.79717267, 0), (-0.13677491, 0.99060214, 0), (-0.13677491, 0.99060214, 0), (-0.7971755, 0.6037476, 0), (-0.9906025, -0.13677244, 0), (-0.9906025, -0.13677244, 0), (-0.60374814, -0.7971751, 0), (0.13677539, -0.9906021, 0), (0.13677539, -0.9906021, 0), (0.7971772, -0.6037454, 0), (0.9906025, 0.13677244, 0), (0.9906025, 0.13677244, 0), (-0.13677491, 0.99060214, 0), (-0.9906025, -0.13677244, 0), (-0.9906025, -0.13677244, 0), (0.13677539, -0.9906021, 0), (0.9906025, 0.13677244, 0), (-0.9906025, 0.13677245, 0), (-0.9906025, -0.13677244, 0), (-0.7971755, 0.6037476, 0), (-0.9906025, 0.13677245, 0), (-0.7971755, 0.6037476, 0), (-0.60374814, 0.7971751, 0), (-0.60374814, 0.7971751, 0), (-0.7971755, 0.6037476, 0), (-0.13677491, 0.99060214, 0), (-0.60374814, 0.7971751, 0), (-0.13677491, 0.99060214, 0), (0.13677539, 0.9906021, 0), (-0.60374814, 0.7971751, 0), (0.13677539, 0.9906021, 0), (0.7971772, 0.6037454, 0), (0.7971772, 0.6037454, 0), (0.9906025, -0.13677245, 0), (0.60375154, -0.79717267, 0), (0.60375154, -0.79717267, 0), (-0.13677491, -0.99060214, 0), (-0.7971755, -0.6037476, 0), (-0.7971755, -0.6037476, 0), (-0.9906025, 0.13677245, 0), (-0.60374814, 0.7971751, 0), (-0.60374814, 0.7971751, 0), (0.7971772, 0.6037454, 0), (0.60375154, -0.79717267, 0), (0.60375154, -0.79717267, 0), (-0.7971755, -0.6037476, 0), (-0.60374814, 0.7971751, 0)] (
        interpolation = "faceVarying"
    )
    point3f[] points = [(5.0083946e-9, 0.0020000031, -0.080000035), (5.0083946e-9, 0.0020000031, 0.08000005), (0.0014142146, 0.0014142086, 0.08000005), (0.0014142146, 0.0014142086, -0.080000035), (0.0019999943, -1.017686e-9, 0.08000005), (0.0019999943, -1.017686e-9, -0.080000035), (0.0014142146, -0.0014142107, 0.08000005), (0.0014142146, -0.0014142107, -0.080000035), (5.0083946e-9, -0.002000005, 0.08000005), (5.0083946e-9, -0.002000005, -0.080000035), (-0.0014142195, -0.0014142107, 0.08000005), (-0.0014142195, -0.0014142107, -0.080000035), (-0.001999999, -1.017686e-9, 0.08000005), (-0.001999999, -1.017686e-9, -0.080000035), (-0.0014142195, 0.0014142086, 0.08000005), (-0.0014142195, 0.0014142086, -0.080000035)]
}

