#usda 1.0
(
    defaultPrim = "UCX_Dishwasher_Tray_01_054"
    upAxis = "Z"
)

def Mesh "UCX_Dishwasher_Tray_01_054"
{
    int[] faceVertexCounts = [3, 3, 3, 3, 3, 3, 3, 3, 3, 3, 3, 3, 3, 3, 3, 3, 3, 3, 3, 3, 3, 3, 3, 3, 3, 3, 3, 3]
    int[] faceVertexIndices = [0, 1, 2, 0, 2, 3, 3, 2, 4, 3, 4, 5, 5, 4, 6, 5, 6, 7, 7, 6, 8, 7, 8, 9, 9, 8, 10, 9, 10, 11, 11, 10, 12, 11, 12, 13, 4, 2, 1, 1, 14, 12, 12, 10, 8, 8, 6, 4, 4, 1, 12, 12, 8, 4, 13, 12, 14, 13, 14, 15, 15, 14, 1, 15, 1, 0, 15, 0, 3, 3, 5, 7, 7, 9, 11, 11, 13, 15, 15, 3, 7, 7, 11, 15]
    normal3f[] normals = [(0.1441794, 0.98955154, -4.423212e-9), (-0.1441794, 0.98955154, 7.94371e-9), (0.6243182, 0.7811701, -1.5635557e-8), (0.1441794, 0.98955154, -4.423212e-9), (0.6243182, 0.7811701, -1.5635557e-8), (0.8124179, 0.58307564, -1.9255877e-9), (0.8124179, 0.58307564, -1.9255877e-9), (0.6243182, 0.7811701, -1.5635557e-8), (0.9915486, 0.12973627, 2.5553685e-8), (0.8124179, 0.58307564, -1.9255877e-9), (0.9915486, 0.12973627, 2.5553685e-8), (0.9915486, -0.12973574, 2.5553685e-8), (0.9915486, -0.12973574, 2.5553685e-8), (0.9915486, 0.12973627, 2.5553685e-8), (0.8124182, -0.5830752, -1.48854875e-8), (0.9915486, -0.12973574, 2.5553685e-8), (0.8124182, -0.5830752, -1.48854875e-8), (0.624318, -0.7811704, -2.7574403e-8), (0.624318, -0.7811704, -2.7574403e-8), (0.8124182, -0.5830752, -1.48854875e-8), (0.1441794, -0.98955154, -9.027146e-10), (0.624318, -0.7811704, -2.7574403e-8), (0.1441794, -0.98955154, -9.027146e-10), (-0.14417934, -0.98955166, 2.5353317e-9), (-0.14417934, -0.98955166, 2.5353317e-9), (0.1441794, -0.98955154, -9.027146e-10), (-0.62431794, -0.78117037, 2.2166025e-8), (-0.14417934, -0.98955166, 2.5353317e-9), (-0.62431794, -0.78117037, 2.2166025e-8), (-0.8124184, -0.58307487, 1.7028631e-8), (-0.8124184, -0.58307487, 1.7028631e-8), (-0.62431794, -0.78117037, 2.2166025e-8), (-0.9915487, -0.12973517, 1.34270515e-8), (-0.8124184, -0.58307487, 1.7028631e-8), (-0.9915487, -0.12973517, 1.34270515e-8), (-0.9915487, 0.12973574, 1.34270515e-8), (0.9915486, 0.12973627, 2.5553685e-8), (0.6243182, 0.7811701, -1.5635557e-8), (-0.1441794, 0.98955154, 7.94371e-9), (-0.1441794, 0.98955154, 7.94371e-9), (-0.8124184, 0.58307487, 1.7028631e-8), (-0.9915487, -0.12973517, 1.34270515e-8), (-0.9915487, -0.12973517, 1.34270515e-8), (-0.62431794, -0.78117037, 2.2166025e-8), (0.1441794, -0.98955154, -9.027146e-10), (0.1441794, -0.98955154, -9.027146e-10), (0.8124182, -0.5830752, -1.48854875e-8), (0.9915486, 0.12973627, 2.5553685e-8), (0.9915486, 0.12973627, 2.5553685e-8), (-0.1441794, 0.98955154, 7.94371e-9), (-0.9915487, -0.12973517, 1.34270515e-8), (-0.9915487, -0.12973517, 1.34270515e-8), (0.1441794, -0.98955154, -9.027146e-10), (0.9915486, 0.12973627, 2.5553685e-8), (-0.9915487, 0.12973574, 1.34270515e-8), (-0.9915487, -0.12973517, 1.34270515e-8), (-0.8124184, 0.58307487, 1.7028631e-8), (-0.9915487, 0.12973574, 1.34270515e-8), (-0.8124184, 0.58307487, 1.7028631e-8), (-0.6243182, 0.7811701, 1.5635557e-8), (-0.6243182, 0.7811701, 1.5635557e-8), (-0.8124184, 0.58307487, 1.7028631e-8), (-0.1441794, 0.98955154, 7.94371e-9), (-0.6243182, 0.7811701, 1.5635557e-8), (-0.1441794, 0.98955154, 7.94371e-9), (0.1441794, 0.98955154, -4.423212e-9), (-0.6243182, 0.7811701, 1.5635557e-8), (0.1441794, 0.98955154, -4.423212e-9), (0.8124179, 0.58307564, -1.9255877e-9), (0.8124179, 0.58307564, -1.9255877e-9), (0.9915486, -0.12973574, 2.5553685e-8), (0.624318, -0.7811704, -2.7574403e-8), (0.624318, -0.7811704, -2.7574403e-8), (-0.14417934, -0.98955166, 2.5353317e-9), (-0.8124184, -0.58307487, 1.7028631e-8), (-0.8124184, -0.58307487, 1.7028631e-8), (-0.9915487, 0.12973574, 1.34270515e-8), (-0.6243182, 0.7811701, 1.5635557e-8), (-0.6243182, 0.7811701, 1.5635557e-8), (0.8124179, 0.58307564, -1.9255877e-9), (0.624318, -0.7811704, -2.7574403e-8), (0.624318, -0.7811704, -2.7574403e-8), (-0.8124184, -0.58307487, 1.7028631e-8), (-0.6243182, 0.7811701, 1.5635557e-8)] (
        interpolation = "faceVarying"
    )
    point3f[] points = [(-3.6180856e-10, 0.0020000055, -0.030801212), (2.1220574e-9, 0.0020000055, 0.030801212), (0.0013401683, 0.001414211, 0.030801205), (0.0013401683, 0.001414211, -0.03080121), (0.0018952803, 1.4363716e-9, 0.030801205), (0.0018952827, 1.4363716e-9, -0.030801205), (0.0013401683, -0.0014142082, 0.030801205), (0.0013401683, -0.0014142082, -0.03080121), (2.1220574e-9, -0.0020000027, 0.030801212), (-3.6180856e-10, -0.0020000027, -0.030801212), (-0.0013401665, -0.0014142082, 0.03080121), (-0.001340169, -0.0014142082, -0.030801214), (-0.0018952785, 1.4363716e-9, 0.03080121), (-0.0018952786, 1.4363716e-9, -0.030801207), (-0.0013401665, 0.001414211, 0.03080121), (-0.001340169, 0.001414211, -0.030801214)]
}

