#usda 1.0
(
    defaultPrim = "UCX_Fridge_Base_005"
    upAxis = "Z"
)

def Mesh "UCX_Fridge_Base_005"
{
    int[] faceVertexCounts = [3, 3, 3, 3, 3, 3, 3, 3, 3, 3, 3, 3]
    int[] faceVertexIndices = [0, 1, 2, 0, 2, 3, 3, 2, 4, 3, 4, 5, 5, 4, 6, 5, 6, 7, 7, 6, 1, 7, 1, 0, 3, 5, 7, 3, 7, 0, 4, 2, 1, 4, 1, 6]
    normal3f[] normals = [(-0.99704236, -0.07685397, 0), (-0.99704236, -0.07685397, 0), (0.99704236, 0.07685397, 0), (-0.99704236, -0.07685397, 0), (0.99704236, 0.07685397, 0), (0.99704236, 0.07685397, 0), (0.99704236, 0.07685397, 0), (0.99704236, 0.07685397, 0), (0.99704236, 0.07685397, 0), (0.99704236, 0.07685397, 0), (0.99704236, 0.07685397, 0), (0.99704236, 0.07685397, 0), (0.99704236, 0.07685397, 0), (0.99704236, 0.07685397, 0), (-0.99704236, -0.07685397, 0), (0.99704236, 0.07685397, 0), (-0.99704236, -0.07685397, 0), (-0.99704236, -0.07685397, 0), (-0.99704236, -0.07685397, 0), (-0.99704236, -0.07685397, 0), (-0.99704236, -0.07685397, 0), (-0.99704236, -0.07685397, 0), (-0.99704236, -0.07685397, 0), (-0.99704236, -0.07685397, 0), (0.99704236, 0.07685397, 0), (0.99704236, 0.07685397, 0), (-0.99704236, -0.07685397, 0), (0.99704236, 0.07685397, 0), (-0.99704236, -0.07685397, 0), (-0.99704236, -0.07685397, 0), (0.99704236, 0.07685397, 0), (0.99704236, 0.07685397, 0), (-0.99704236, -0.07685397, 0), (0.99704236, 0.07685397, 0), (-0.99704236, -0.07685397, 0), (-0.99704236, -0.07685397, 0)] (
        interpolation = "faceVarying"
    )
    point3f[] points = [(-0.039949637, -0.093726434, -0.23404902), (-0.05210884, 0.0640174, -0.23404902), (0.034729034, 0.11419068, -0.23404902), (0.05021994, -0.08677599, -0.23404902), (0.034729034, 0.11419068, 0.23404902), (0.05021994, -0.08677599, 0.23404902), (-0.05210884, 0.0640174, 0.23404902), (-0.039949637, -0.093726434, 0.23404902)]
}

