#usda 1.0
(
    defaultPrim = "UCX_Dishwasher_Tray_02_008"
    upAxis = "Z"
)

def Mesh "UCX_Dishwasher_Tray_02_008"
{
    int[] faceVertexCounts = [3, 3, 3, 3, 3, 3, 3, 3, 3, 3, 3, 3, 3, 3, 3, 3, 3, 3, 3, 3, 3, 3, 3, 3, 3, 3, 3, 3]
    int[] faceVertexIndices = [0, 1, 2, 0, 2, 3, 3, 2, 4, 3, 4, 5, 5, 4, 6, 5, 6, 7, 7, 6, 8, 7, 8, 9, 9, 8, 10, 9, 10, 11, 11, 10, 12, 11, 12, 13, 4, 2, 1, 1, 14, 12, 12, 10, 8, 8, 6, 4, 4, 1, 12, 12, 8, 4, 13, 12, 14, 13, 14, 15, 15, 14, 1, 15, 1, 0, 15, 0, 3, 3, 5, 7, 7, 9, 11, 11, 13, 15, 15, 3, 7, 7, 11, 15]
    normal3f[] normals = [(0.1367739, 0.9906023, -3.2636983e-8), (-0.13677391, 0.9906023, -9.077456e-8), (0.6037477, 0.7971755, -3.0583493e-8), (0.1367739, 0.9906023, -3.2636983e-8), (0.6037477, 0.7971755, -3.0583493e-8), (0.7971745, 0.60374904, -3.409612e-8), (0.7971745, 0.60374904, -3.409612e-8), (0.6037477, 0.7971755, -3.0583493e-8), (0.9906023, 0.13677394, -8.877097e-9), (0.7971745, 0.60374904, -3.409612e-8), (0.9906023, 0.13677394, -8.877097e-9), (0.9906023, -0.13677396, -1.0759814e-8), (0.9906023, -0.13677396, -1.0759814e-8), (0.9906023, 0.13677394, -8.877097e-9), (0.7971751, -0.6037482, 1.4718451e-9), (0.9906023, -0.13677396, -1.0759814e-8), (0.7971751, -0.6037482, 1.4718451e-9), (0.6037477, -0.79717547, -5.801441e-8), (0.6037477, -0.79717547, -5.801441e-8), (0.7971751, -0.6037482, 1.4718451e-9), (0.1367739, -0.9906023, -2.5500603e-8), (0.6037477, -0.79717547, -5.801441e-8), (0.1367739, -0.9906023, -2.5500603e-8), (-0.1367739, -0.9906023, -5.4569394e-8), (-0.1367739, -0.9906023, -5.4569394e-8), (0.1367739, -0.9906023, -2.5500603e-8), (-0.6037488, -0.79717463, -3.3892636e-8), (-0.1367739, -0.9906023, -5.4569394e-8), (-0.6037488, -0.79717463, -3.3892636e-8), (-0.7971751, -0.6037482, -1.3062551e-8), (-0.7971751, -0.6037482, -1.3062551e-8), (-0.6037488, -0.79717463, -3.3892636e-8), (-0.9906023, -0.13677397, -1.4045531e-8), (-0.7971751, -0.6037482, -1.3062551e-8), (-0.9906023, -0.13677397, -1.4045531e-8), (-0.9906023, 0.13677421, -2.5670147e-10), (0.9906023, 0.13677394, -8.877097e-9), (0.6037477, 0.7971755, -3.0583493e-8), (-0.13677391, 0.9906023, -9.077456e-8), (-0.13677391, 0.9906023, -9.077456e-8), (-0.7971745, 0.6037491, -2.0953257e-8), (-0.9906023, -0.13677397, -1.4045531e-8), (-0.9906023, -0.13677397, -1.4045531e-8), (-0.6037488, -0.79717463, -3.3892636e-8), (0.1367739, -0.9906023, -2.5500603e-8), (0.1367739, -0.9906023, -2.5500603e-8), (0.7971751, -0.6037482, 1.4718451e-9), (0.9906023, 0.13677394, -8.877097e-9), (0.9906023, 0.13677394, -8.877097e-9), (-0.13677391, 0.9906023, -9.077456e-8), (-0.9906023, -0.13677397, -1.4045531e-8), (-0.9906023, -0.13677397, -1.4045531e-8), (0.1367739, -0.9906023, -2.5500603e-8), (0.9906023, 0.13677394, -8.877097e-9), (-0.9906023, 0.13677421, -2.5670147e-10), (-0.9906023, -0.13677397, -1.4045531e-8), (-0.7971745, 0.6037491, -2.0953257e-8), (-0.9906023, 0.13677421, -2.5670147e-10), (-0.7971745, 0.6037491, -2.0953257e-8), (-0.6037477, 0.7971755, -1.5147015e-9), (-0.6037477, 0.7971755, -1.5147015e-9), (-0.7971745, 0.6037491, -2.0953257e-8), (-0.13677391, 0.9906023, -9.077456e-8), (-0.6037477, 0.7971755, -1.5147015e-9), (-0.13677391, 0.9906023, -9.077456e-8), (0.1367739, 0.9906023, -3.2636983e-8), (-0.6037477, 0.7971755, -1.5147015e-9), (0.1367739, 0.9906023, -3.2636983e-8), (0.7971745, 0.60374904, -3.409612e-8), (0.7971745, 0.60374904, -3.409612e-8), (0.9906023, -0.13677396, -1.0759814e-8), (0.6037477, -0.79717547, -5.801441e-8), (0.6037477, -0.79717547, -5.801441e-8), (-0.1367739, -0.9906023, -5.4569394e-8), (-0.7971751, -0.6037482, -1.3062551e-8), (-0.7971751, -0.6037482, -1.3062551e-8), (-0.9906023, 0.13677421, -2.5670147e-10), (-0.6037477, 0.7971755, -1.5147015e-9), (-0.6037477, 0.7971755, -1.5147015e-9), (0.7971745, 0.60374904, -3.409612e-8), (0.6037477, -0.79717547, -5.801441e-8), (0.6037477, -0.79717547, -5.801441e-8), (-0.7971751, -0.6037482, -1.3062551e-8), (-0.6037477, 0.7971755, -1.5147015e-9)] (
        interpolation = "faceVarying"
    )
    point3f[] points = [(1.2750511e-9, 0.0019999975, -0.035200033), (1.2750511e-9, 0.0020000008, 0.035200007), (0.0014142146, 0.0014142132, 0.035200004), (0.0014142146, 0.00141421, -0.035200037), (0.0020000015, 3.995346e-9, 0.035200007), (0.0020000015, 7.5928797e-10, -0.035200033), (0.0014142146, -0.0014142125, 0.035200007), (0.0014142146, -0.0014142084, -0.035200033), (1.2750511e-9, -0.002, 0.035200004), (1.2750511e-9, -0.001999996, -0.035200037), (-0.001414212, -0.0014142125, 0.035200007), (-0.001414212, -0.0014142084, -0.035200033), (-0.0019999992, 3.995346e-9, 0.035200007), (-0.0019999992, 7.5928797e-10, -0.035200033), (-0.001414212, 0.0014142132, 0.035200004), (-0.001414212, 0.00141421, -0.035200037)]
}

