#usda 1.0
(
    defaultPrim = "UCX_Dishwasher_Tray_02_025"
    upAxis = "Z"
)

def Mesh "UCX_Dishwasher_Tray_02_025"
{
    int[] faceVertexCounts = [3, 3, 3, 3, 3, 3, 3, 3, 3, 3, 3, 3, 3, 3, 3, 3, 3, 3, 3, 3, 3, 3, 3, 3, 3, 3, 3, 3]
    int[] faceVertexIndices = [0, 1, 2, 0, 2, 3, 3, 2, 4, 3, 4, 5, 5, 4, 6, 5, 6, 7, 7, 6, 8, 7, 8, 9, 9, 8, 10, 9, 10, 11, 11, 10, 12, 11, 12, 13, 4, 2, 1, 1, 14, 12, 12, 10, 8, 8, 6, 4, 4, 1, 12, 12, 8, 4, 13, 12, 14, 13, 14, 15, 15, 14, 1, 15, 1, 0, 15, 0, 3, 3, 5, 7, 7, 9, 11, 11, 13, 15, 15, 3, 7, 7, 11, 15]
    normal3f[] normals = [(0.13677426, 0.9906023, -9.87138e-8), (-0.13677427, 0.9906023, -1.2778258e-7), (0.6037499, 0.7971738, -9.345843e-8), (0.13677426, 0.9906023, -9.87138e-8), (0.6037499, 0.7971738, -9.345843e-8), (0.7971745, 0.6037491, -4.3668198e-8), (0.7971745, 0.6037491, -4.3668198e-8), (0.6037499, 0.7971738, -9.345843e-8), (0.99060214, 0.13677543, -1.6087995e-8), (0.7971745, 0.6037491, -4.3668198e-8), (0.99060214, 0.13677543, -1.6087995e-8), (0.990602, -0.13677588, -1.1628341e-8), (0.990602, -0.13677588, -1.1628341e-8), (0.99060214, 0.13677543, -1.6087995e-8), (0.7971732, -0.6037507, -4.9570133e-8), (0.990602, -0.13677588, -1.1628341e-8), (0.7971732, -0.6037507, -4.9570133e-8), (0.6037477, -0.79717547, -8.559474e-8), (0.6037477, -0.79717547, -8.559474e-8), (0.7971732, -0.6037507, -4.9570133e-8), (0.13677426, -0.9906023, -1.03376216e-7), (0.6037477, -0.79717547, -8.559474e-8), (0.13677426, -0.9906023, -1.03376216e-7), (-0.13677426, -0.9906023, -1.03376216e-7), (-0.13677426, -0.9906023, -1.03376216e-7), (0.13677426, -0.9906023, -1.03376216e-7), (-0.6037477, -0.79717547, -7.106035e-8), (-0.13677426, -0.9906023, -1.03376216e-7), (-0.6037477, -0.79717547, -7.106035e-8), (-0.7971733, -0.6037507, -4.9570133e-8), (-0.7971733, -0.6037507, -4.9570133e-8), (-0.6037477, -0.79717547, -7.106035e-8), (-0.99060214, -0.1367754, -1.514548e-8), (-0.7971733, -0.6037507, -4.9570133e-8), (-0.99060214, -0.1367754, -1.514548e-8), (-0.99060214, 0.13677545, -1.6435877e-8), (0.99060214, 0.13677543, -1.6087995e-8), (0.6037499, 0.7971738, -9.345843e-8), (-0.13677427, 0.9906023, -1.2778258e-7), (-0.13677427, 0.9906023, -1.2778258e-7), (-0.7971745, 0.6037491, -4.3668198e-8), (-0.99060214, -0.1367754, -1.514548e-8), (-0.99060214, -0.1367754, -1.514548e-8), (-0.6037477, -0.79717547, -7.106035e-8), (0.13677426, -0.9906023, -1.03376216e-7), (0.13677426, -0.9906023, -1.03376216e-7), (0.7971732, -0.6037507, -4.9570133e-8), (0.99060214, 0.13677543, -1.6087995e-8), (0.99060214, 0.13677543, -1.6087995e-8), (-0.13677427, 0.9906023, -1.2778258e-7), (-0.99060214, -0.1367754, -1.514548e-8), (-0.99060214, -0.1367754, -1.514548e-8), (0.13677426, -0.9906023, -1.03376216e-7), (0.99060214, 0.13677543, -1.6087995e-8), (-0.99060214, 0.13677545, -1.6435877e-8), (-0.99060214, -0.1367754, -1.514548e-8), (-0.7971745, 0.6037491, -4.3668198e-8), (-0.99060214, 0.13677545, -1.6435877e-8), (-0.7971745, 0.6037491, -4.3668198e-8), (-0.6037477, 0.7971756, -6.1140746e-8), (-0.6037477, 0.7971756, -6.1140746e-8), (-0.7971745, 0.6037491, -4.3668198e-8), (-0.13677427, 0.9906023, -1.2778258e-7), (-0.6037477, 0.7971756, -6.1140746e-8), (-0.13677427, 0.9906023, -1.2778258e-7), (0.13677426, 0.9906023, -9.87138e-8), (-0.6037477, 0.7971756, -6.1140746e-8), (0.13677426, 0.9906023, -9.87138e-8), (0.7971745, 0.6037491, -4.3668198e-8), (0.7971745, 0.6037491, -4.3668198e-8), (0.990602, -0.13677588, -1.1628341e-8), (0.6037477, -0.79717547, -8.559474e-8), (0.6037477, -0.79717547, -8.559474e-8), (-0.13677426, -0.9906023, -1.03376216e-7), (-0.7971733, -0.6037507, -4.9570133e-8), (-0.7971733, -0.6037507, -4.9570133e-8), (-0.99060214, 0.13677545, -1.6435877e-8), (-0.6037477, 0.7971756, -6.1140746e-8), (-0.6037477, 0.7971756, -6.1140746e-8), (0.7971745, 0.6037491, -4.3668198e-8), (0.6037477, -0.79717547, -8.559474e-8), (0.6037477, -0.79717547, -8.559474e-8), (-0.7971733, -0.6037507, -4.9570133e-8), (-0.6037477, 0.7971756, -6.1140746e-8)] (
        interpolation = "faceVarying"
    )
    point3f[] points = [(3.183089e-10, 0.0019999961, -0.03520005), (3.183089e-10, 0.0020000045, 0.035199992), (0.00141421, 0.0014142172, 0.03519999), (0.00141421, 0.0014142086, -0.035200052), (0.0020000043, -7.108568e-9, 0.03519999), (0.0020000043, -6.4175776e-10, -0.035200052), (0.00141421, -0.0014142164, 0.03519999), (0.00141421, -0.0014142095, -0.03520005), (3.183089e-10, -0.0020000038, 0.03519999), (3.183089e-10, -0.0019999968, -0.035200052), (-0.0014142093, -0.0014142164, 0.03519999), (-0.0014142093, -0.0014142095, -0.03520005), (-0.0020000038, -7.108568e-9, 0.03519999), (-0.0020000038, -6.4175776e-10, -0.035200052), (-0.0014142093, 0.0014142172, 0.03519999), (-0.0014142093, 0.0014142086, -0.035200052)]
}

