#usda 1.0
(
    defaultPrim = "UCX_Dishwasher_Tray_01_089"
    upAxis = "Z"
)

def Mesh "UCX_Dishwasher_Tray_01_089"
{
    int[] faceVertexCounts = [3, 3, 3, 3, 3, 3, 3, 3, 3, 3, 3, 3, 3, 3, 3, 3, 3, 3, 3, 3, 3, 3, 3, 3, 3, 3, 3, 3]
    int[] faceVertexIndices = [0, 1, 2, 0, 2, 3, 3, 2, 4, 3, 4, 5, 5, 4, 6, 5, 6, 7, 7, 6, 8, 7, 8, 9, 9, 8, 10, 9, 10, 11, 11, 10, 12, 11, 12, 13, 4, 2, 1, 1, 14, 12, 12, 10, 8, 8, 6, 4, 4, 1, 12, 12, 8, 4, 13, 12, 14, 13, 14, 15, 15, 14, 1, 15, 1, 0, 15, 0, 3, 3, 5, 7, 7, 9, 11, 11, 13, 15, 15, 3, 7, 7, 11, 15]
    normal3f[] normals = [(0.1441794, 0.98955154, -4.9835793e-9), (-0.1441794, 0.98955154, 8.5040766e-9), (0.6243182, 0.7811701, -1.806203e-8), (0.1441794, 0.98955154, -4.9835793e-9), (0.6243182, 0.7811701, -1.806203e-8), (0.8124179, 0.58307564, -5.0831273e-9), (0.8124179, 0.58307564, -5.0831273e-9), (0.6243182, 0.7811701, -1.806203e-8), (0.9915486, 0.12973627, 2.1699938e-8), (0.8124179, 0.58307564, -5.0831273e-9), (0.9915486, 0.12973627, 2.1699938e-8), (0.9915486, -0.12973574, 2.1699938e-8), (0.9915486, -0.12973574, 2.1699938e-8), (0.9915486, 0.12973627, 2.1699938e-8), (0.8124182, -0.5830752, -1.8043028e-8), (0.9915486, -0.12973574, 2.1699938e-8), (0.8124182, -0.5830752, -1.8043028e-8), (0.624318, -0.7811704, -3.0000876e-8), (0.624318, -0.7811704, -3.0000876e-8), (0.8124182, -0.5830752, -1.8043028e-8), (0.1441794, -0.98955154, -1.4630817e-9), (0.624318, -0.7811704, -3.0000876e-8), (0.1441794, -0.98955154, -1.4630817e-9), (-0.14417934, -0.98955166, 3.0956986e-9), (-0.14417934, -0.98955166, 3.0956986e-9), (0.1441794, -0.98955154, -1.4630817e-9), (-0.62431794, -0.78117037, 2.4592497e-8), (-0.14417934, -0.98955166, 3.0956986e-9), (-0.62431794, -0.78117037, 2.4592497e-8), (-0.8124184, -0.58307487, 2.0186173e-8), (-0.8124184, -0.58307487, 2.0186173e-8), (-0.62431794, -0.78117037, 2.4592497e-8), (-0.9915487, -0.12973517, 1.7280799e-8), (-0.8124184, -0.58307487, 2.0186173e-8), (-0.9915487, -0.12973517, 1.7280799e-8), (-0.9915487, 0.12973574, 1.7280799e-8), (0.9915486, 0.12973627, 2.1699938e-8), (0.6243182, 0.7811701, -1.806203e-8), (-0.1441794, 0.98955154, 8.5040766e-9), (-0.1441794, 0.98955154, 8.5040766e-9), (-0.8124184, 0.58307487, 2.0186173e-8), (-0.9915487, -0.12973517, 1.7280799e-8), (-0.9915487, -0.12973517, 1.7280799e-8), (-0.62431794, -0.78117037, 2.4592497e-8), (0.1441794, -0.98955154, -1.4630817e-9), (0.1441794, -0.98955154, -1.4630817e-9), (0.8124182, -0.5830752, -1.8043028e-8), (0.9915486, 0.12973627, 2.1699938e-8), (0.9915486, 0.12973627, 2.1699938e-8), (-0.1441794, 0.98955154, 8.5040766e-9), (-0.9915487, -0.12973517, 1.7280799e-8), (-0.9915487, -0.12973517, 1.7280799e-8), (0.1441794, -0.98955154, -1.4630817e-9), (0.9915486, 0.12973627, 2.1699938e-8), (-0.9915487, 0.12973574, 1.7280799e-8), (-0.9915487, -0.12973517, 1.7280799e-8), (-0.8124184, 0.58307487, 2.0186173e-8), (-0.9915487, 0.12973574, 1.7280799e-8), (-0.8124184, 0.58307487, 2.0186173e-8), (-0.6243182, 0.7811701, 1.806203e-8), (-0.6243182, 0.7811701, 1.806203e-8), (-0.8124184, 0.58307487, 2.0186173e-8), (-0.1441794, 0.98955154, 8.5040766e-9), (-0.6243182, 0.7811701, 1.806203e-8), (-0.1441794, 0.98955154, 8.5040766e-9), (0.1441794, 0.98955154, -4.9835793e-9), (-0.6243182, 0.7811701, 1.806203e-8), (0.1441794, 0.98955154, -4.9835793e-9), (0.8124179, 0.58307564, -5.0831273e-9), (0.8124179, 0.58307564, -5.0831273e-9), (0.9915486, -0.12973574, 2.1699938e-8), (0.624318, -0.7811704, -3.0000876e-8), (0.624318, -0.7811704, -3.0000876e-8), (-0.14417934, -0.98955166, 3.0956986e-9), (-0.8124184, -0.58307487, 2.0186173e-8), (-0.8124184, -0.58307487, 2.0186173e-8), (-0.9915487, 0.12973574, 1.7280799e-8), (-0.6243182, 0.7811701, 1.806203e-8), (-0.6243182, 0.7811701, 1.806203e-8), (0.8124179, 0.58307564, -5.0831273e-9), (0.624318, -0.7811704, -3.0000876e-8), (0.624318, -0.7811704, -3.0000876e-8), (-0.8124184, -0.58307487, 2.0186173e-8), (-0.6243182, 0.7811701, 1.806203e-8)] (
        interpolation = "faceVarying"
    )
    point3f[] points = [(-1.9037456e-9, 0.0020000043, -0.030801209), (8.1954404e-10, 0.0020000043, 0.030801216), (0.001340167, 0.0014142098, 0.03080121), (0.0013401668, 0.0014142098, -0.030801207), (0.001895279, 2.6406777e-10, 0.03080121), (0.0018952811, 2.6406777e-10, -0.0308012), (0.001340167, -0.0014142094, 0.03080121), (0.0013401668, -0.0014142094, -0.030801207), (8.1954404e-10, -0.0020000038, 0.030801216), (-1.9037456e-9, -0.0020000038, -0.030801209), (-0.0013401678, -0.0014142094, 0.030801214), (-0.0013401706, -0.0014142094, -0.030801209), (-0.0018952797, 2.6406777e-10, 0.030801214), (-0.0018952801, 2.6406777e-10, -0.030801201), (-0.0013401678, 0.0014142098, 0.030801214), (-0.0013401706, 0.0014142098, -0.030801209)]
}

