#usda 1.0
(
    defaultPrim = "UCX_Kitchen_05_Base_Drawer_01_006"
    upAxis = "Z"
)

def Mesh "UCX_Kitchen_05_Base_Drawer_01_006"
{
    int[] faceVertexCounts = [3, 3, 3, 3, 3, 3, 3, 3, 3, 3, 3, 3]
    int[] faceVertexIndices = [0, 1, 2, 0, 2, 3, 1, 4, 5, 1, 5, 2, 4, 6, 7, 4, 7, 5, 6, 0, 3, 6, 3, 7, 5, 7, 3, 5, 3, 2, 1, 0, 6, 1, 6, 4]
    normal3f[] normals = [(0.9874473, 0.15794869, 2.8386651e-8), (0.9169243, -0.39906123, -5.1890677e-8), (0.9874473, 0.15794869, 2.6359032e-8), (0.9874473, 0.15794869, 2.8386651e-8), (0.9874473, 0.15794869, 2.6359032e-8), (0.9874473, 0.15794866, 2.4331415e-8), (0.9169243, -0.39906123, -5.1890677e-8), (-0.99971557, 0.023852238, 0), (-0.99971557, 0.023852227, 0), (0.9169243, -0.39906123, -5.1890677e-8), (-0.99971557, 0.023852227, 0), (0.9874473, 0.15794869, 2.6359032e-8), (-0.99971557, 0.023852238, 0), (0.023147399, 0.9997321, 0), (-0.99971557, 0.023852238, 0), (-0.99971557, 0.023852238, 0), (-0.99971557, 0.023852238, 0), (-0.99971557, 0.023852227, 0), (0.023147399, 0.9997321, 0), (0.9874473, 0.15794869, 2.8386651e-8), (0.9874473, 0.15794866, 2.4331415e-8), (0.023147399, 0.9997321, 0), (0.9874473, 0.15794866, 2.4331415e-8), (-0.99971557, 0.023852238, 0), (-0.99971557, 0.023852227, 0), (-0.99971557, 0.023852238, 0), (0.9874473, 0.15794866, 2.4331415e-8), (-0.99971557, 0.023852227, 0), (0.9874473, 0.15794866, 2.4331415e-8), (0.9874473, 0.15794869, 2.6359032e-8), (0.9169243, -0.39906123, -5.1890677e-8), (0.9874473, 0.15794869, 2.8386651e-8), (0.023147399, 0.9997321, 0), (0.9169243, -0.39906123, -5.1890677e-8), (0.023147399, 0.9997321, 0), (-0.99971557, 0.023852238, 0)] (
        interpolation = "faceVarying"
    )
    point3f[] points = [(0.015860027, -0.021205286, 0.23762634), (0.015860029, -0.021205215, -0.23762634), (0.006319213, 0.03844107, -0.23762634), (0.0063192113, 0.038441, 0.23762634), (-0.011516029, -0.043323148, -0.23762634), (-0.009507588, 0.040856358, -0.23762634), (-0.011516031, -0.04332322, 0.23762633), (-0.00950759, 0.040856287, 0.23762634)]
}

