#usda 1.0
(
    defaultPrim = "UCX_Dishwasher_Tray_02_029"
    upAxis = "Z"
)

def Mesh "UCX_Dishwasher_Tray_02_029"
{
    int[] faceVertexCounts = [3, 3, 3, 3, 3, 3, 3, 3, 3, 3, 3, 3, 3, 3, 3, 3, 3, 3, 3, 3, 3, 3, 3, 3, 3, 3, 3, 3]
    int[] faceVertexIndices = [0, 1, 2, 0, 2, 3, 3, 2, 4, 3, 4, 5, 5, 4, 6, 5, 6, 7, 7, 6, 8, 7, 8, 9, 9, 8, 10, 9, 10, 11, 11, 10, 12, 11, 12, 13, 4, 2, 1, 1, 14, 12, 12, 10, 8, 8, 6, 4, 4, 1, 12, 12, 8, 4, 13, 12, 14, 13, 14, 15, 15, 14, 1, 15, 1, 0, 15, 0, 3, 3, 5, 7, 7, 9, 11, 11, 13, 15, 15, 3, 7, 7, 11, 15]
    normal3f[] normals = [(0.13677426, 0.99060225, -4.3005947e-8), (-0.13677426, 0.99060225, -5.7540344e-8), (0.6037477, 0.7971755, -2.8351229e-8), (0.13677426, 0.99060225, -4.3005947e-8), (0.6037477, 0.7971755, -2.8351229e-8), (0.7971733, 0.6037507, -4.229952e-8), (0.7971733, 0.6037507, -4.229952e-8), (0.6037477, 0.7971755, -2.8351229e-8), (0.990602, 0.13677566, -3.8537307e-9), (0.7971733, 0.6037507, -4.229952e-8), (0.990602, 0.13677566, -3.8537307e-9), (0.990602, -0.13677566, -1.0680665e-8), (0.990602, -0.13677566, -1.0680665e-8), (0.990602, 0.13677566, -3.8537307e-9), (0.79717386, -0.60374993, -1.9393548e-8), (0.990602, -0.13677566, -1.0680665e-8), (0.79717386, -0.60374993, -1.9393548e-8), (0.6037477, -0.79717547, -6.024668e-8), (0.6037477, -0.79717547, -6.024668e-8), (0.79717386, -0.60374993, -1.9393548e-8), (0.13677426, -0.9906023, -8.6412086e-8), (0.6037477, -0.79717547, -6.024668e-8), (0.13677426, -0.9906023, -8.6412086e-8), (-0.13677426, -0.9906023, -7.187769e-8), (-0.13677426, -0.9906023, -7.187769e-8), (0.13677426, -0.9906023, -8.6412086e-8), (-0.6037488, -0.79717463, -3.61249e-8), (-0.13677426, -0.9906023, -7.187769e-8), (-0.6037488, -0.79717463, -3.61249e-8), (-0.79717386, -0.60374993, -3.3927943e-8), (-0.79717386, -0.60374993, -3.3927943e-8), (-0.6037488, -0.79717463, -3.61249e-8), (-0.990602, -0.13677563, -4.7563314e-10), (-0.79717386, -0.60374993, -3.3927943e-8), (-0.990602, -0.13677563, -4.7563314e-10), (-0.990602, 0.13677588, -7.2551654e-9), (0.990602, 0.13677566, -3.8537307e-9), (0.6037477, 0.7971755, -2.8351229e-8), (-0.13677426, 0.99060225, -5.7540344e-8), (-0.13677426, 0.99060225, -5.7540344e-8), (-0.7971733, 0.6037507, -2.7765124e-8), (-0.990602, -0.13677563, -4.7563314e-10), (-0.990602, -0.13677563, -4.7563314e-10), (-0.6037488, -0.79717463, -3.61249e-8), (0.13677426, -0.9906023, -8.6412086e-8), (0.13677426, -0.9906023, -8.6412086e-8), (0.79717386, -0.60374993, -1.9393548e-8), (0.990602, 0.13677566, -3.8537307e-9), (0.990602, 0.13677566, -3.8537307e-9), (-0.13677426, 0.99060225, -5.7540344e-8), (-0.990602, -0.13677563, -4.7563314e-10), (-0.990602, -0.13677563, -4.7563314e-10), (0.13677426, -0.9906023, -8.6412086e-8), (0.990602, 0.13677566, -3.8537307e-9), (-0.990602, 0.13677588, -7.2551654e-9), (-0.990602, -0.13677563, -4.7563314e-10), (-0.7971733, 0.6037507, -2.7765124e-8), (-0.990602, 0.13677588, -7.2551654e-9), (-0.7971733, 0.6037507, -2.7765124e-8), (-0.6037477, 0.7971755, -2.8351229e-8), (-0.6037477, 0.7971755, -2.8351229e-8), (-0.7971733, 0.6037507, -2.7765124e-8), (-0.13677426, 0.99060225, -5.7540344e-8), (-0.6037477, 0.7971755, -2.8351229e-8), (-0.13677426, 0.99060225, -5.7540344e-8), (0.13677426, 0.99060225, -4.3005947e-8), (-0.6037477, 0.7971755, -2.8351229e-8), (0.13677426, 0.99060225, -4.3005947e-8), (0.7971733, 0.6037507, -4.229952e-8), (0.7971733, 0.6037507, -4.229952e-8), (0.990602, -0.13677566, -1.0680665e-8), (0.6037477, -0.79717547, -6.024668e-8), (0.6037477, -0.79717547, -6.024668e-8), (-0.13677426, -0.9906023, -7.187769e-8), (-0.79717386, -0.60374993, -3.3927943e-8), (-0.79717386, -0.60374993, -3.3927943e-8), (-0.990602, 0.13677588, -7.2551654e-9), (-0.6037477, 0.7971755, -2.8351229e-8), (-0.6037477, 0.7971755, -2.8351229e-8), (0.7971733, 0.6037507, -4.229952e-8), (0.6037477, -0.79717547, -6.024668e-8), (0.6037477, -0.79717547, -6.024668e-8), (-0.79717386, -0.60374993, -3.3927943e-8), (-0.6037477, 0.7971755, -2.8351229e-8)] (
        interpolation = "faceVarying"
    )
    point3f[] points = [(1.2412468e-10, 0.001999999, -0.035200033), (1.2412468e-10, 0.0020000034, 0.035200004), (0.0014142097, 0.0014142158, 0.0352), (0.0014142097, 0.0014142115, -0.035200037), (0.0020000043, 6.080807e-9, 0.035200004), (0.0020000043, 2.2204554e-9, -0.035200033), (0.0014142097, -0.0014142104, 0.035200004), (0.0014142097, -0.0014142066, -0.035200033), (1.2412468e-10, -0.001999998, 0.0352), (1.2412468e-10, -0.001999994, -0.035200037), (-0.0014142095, -0.0014142104, 0.035200004), (-0.0014142095, -0.0014142066, -0.035200033), (-0.0020000038, 6.080807e-9, 0.035200004), (-0.0020000038, 2.2204554e-9, -0.035200033), (-0.0014142095, 0.0014142158, 0.0352), (-0.0014142095, 0.0014142115, -0.035200037)]
}

