#usda 1.0
(
    defaultPrim = "UCX_Dishwasher_Tray_02_011"
    upAxis = "Z"
)

def Mesh "UCX_Dishwasher_Tray_02_011"
{
    int[] faceVertexCounts = [3, 3, 3, 3, 3, 3, 3, 3, 3, 3, 3, 3, 3, 3, 3, 3, 3, 3, 3, 3, 3, 3, 3, 3, 3, 3, 3, 3]
    int[] faceVertexIndices = [0, 1, 2, 0, 2, 3, 3, 2, 4, 3, 4, 5, 5, 4, 6, 5, 6, 7, 7, 6, 8, 7, 8, 9, 9, 8, 10, 9, 10, 11, 11, 10, 12, 11, 12, 13, 4, 2, 1, 1, 14, 12, 12, 10, 8, 8, 6, 4, 4, 1, 12, 12, 8, 4, 13, 12, 14, 13, 14, 15, 15, 14, 1, 15, 1, 0, 15, 0, 3, 3, 5, 7, 7, 9, 11, 11, 13, 15, 15, 3, 7, 7, 11, 15]
    normal3f[] normals = [(0.13677356, 0.9906024, -1.1589633e-7), (-0.13677356, 0.9906024, -1.1589633e-7), (0.6037499, 0.7971738, -9.446967e-8), (0.13677356, 0.9906024, -1.1589633e-7), (0.6037499, 0.7971738, -9.446967e-8), (0.79717696, 0.60374576, -1.2894778e-8), (0.79717696, 0.60374576, -1.2894778e-8), (0.6037499, 0.7971738, -9.446967e-8), (0.9906026, 0.13677204, -9.88691e-9), (0.79717696, 0.60374576, -1.2894778e-8), (0.9906026, 0.13677204, -9.88691e-9), (0.9906025, -0.13677247, -9.44119e-9), (0.9906025, -0.13677247, -9.44119e-9), (0.9906026, 0.13677204, -9.88691e-9), (0.7971757, -0.60374737, -5.2666284e-8), (0.9906025, -0.13677247, -9.44119e-9), (0.7971757, -0.60374737, -5.2666284e-8), (0.6037477, -0.79717547, -5.5514715e-8), (0.6037477, -0.79717547, -5.5514715e-8), (0.7971757, -0.60374737, -5.2666284e-8), (0.13677356, -0.99060243, -7.026777e-8), (0.6037477, -0.79717547, -5.5514715e-8), (0.13677356, -0.99060243, -7.026777e-8), (-0.13677356, -0.99060243, -7.026777e-8), (-0.13677356, -0.99060243, -7.026777e-8), (0.13677356, -0.99060243, -7.026777e-8), (-0.6037477, -0.79717547, -7.004911e-8), (-0.13677356, -0.99060243, -7.026777e-8), (-0.6037477, -0.79717547, -7.004911e-8), (-0.7971757, -0.60374737, -3.8131887e-8), (-0.7971757, -0.60374737, -3.8131887e-8), (-0.6037477, -0.79717547, -7.004911e-8), (-0.9906026, -0.13677205, -2.6101198e-8), (-0.7971757, -0.60374737, -3.8131887e-8), (-0.9906026, -0.13677205, -2.6101198e-8), (-0.9906026, 0.13677202, -1.6806226e-8), (0.9906026, 0.13677204, -9.88691e-9), (0.6037499, 0.7971738, -9.446967e-8), (-0.13677356, 0.9906024, -1.1589633e-7), (-0.13677356, 0.9906024, -1.1589633e-7), (-0.79717696, 0.60374576, -2.7429174e-8), (-0.9906026, -0.13677205, -2.6101198e-8), (-0.9906026, -0.13677205, -2.6101198e-8), (-0.6037477, -0.79717547, -7.004911e-8), (0.13677356, -0.99060243, -7.026777e-8), (0.13677356, -0.99060243, -7.026777e-8), (0.7971757, -0.60374737, -5.2666284e-8), (0.9906026, 0.13677204, -9.88691e-9), (0.9906026, 0.13677204, -9.88691e-9), (-0.13677356, 0.9906024, -1.1589633e-7), (-0.9906026, -0.13677205, -2.6101198e-8), (-0.9906026, -0.13677205, -2.6101198e-8), (0.13677356, -0.99060243, -7.026777e-8), (0.9906026, 0.13677204, -9.88691e-9), (-0.9906026, 0.13677202, -1.6806226e-8), (-0.9906026, -0.13677205, -2.6101198e-8), (-0.79717696, 0.60374576, -2.7429174e-8), (-0.9906026, 0.13677202, -1.6806226e-8), (-0.79717696, 0.60374576, -2.7429174e-8), (-0.60374767, 0.7971755, -6.0760456e-8), (-0.60374767, 0.7971755, -6.0760456e-8), (-0.79717696, 0.60374576, -2.7429174e-8), (-0.13677356, 0.9906024, -1.1589633e-7), (-0.60374767, 0.7971755, -6.0760456e-8), (-0.13677356, 0.9906024, -1.1589633e-7), (0.13677356, 0.9906024, -1.1589633e-7), (-0.60374767, 0.7971755, -6.0760456e-8), (0.13677356, 0.9906024, -1.1589633e-7), (0.79717696, 0.60374576, -1.2894778e-8), (0.79717696, 0.60374576, -1.2894778e-8), (0.9906025, -0.13677247, -9.44119e-9), (0.6037477, -0.79717547, -5.5514715e-8), (0.6037477, -0.79717547, -5.5514715e-8), (-0.13677356, -0.99060243, -7.026777e-8), (-0.7971757, -0.60374737, -3.8131887e-8), (-0.7971757, -0.60374737, -3.8131887e-8), (-0.9906026, 0.13677202, -1.6806226e-8), (-0.60374767, 0.7971755, -6.0760456e-8), (-0.60374767, 0.7971755, -6.0760456e-8), (0.79717696, 0.60374576, -1.2894778e-8), (0.6037477, -0.79717547, -5.5514715e-8), (0.6037477, -0.79717547, -5.5514715e-8), (-0.7971757, -0.60374737, -3.8131887e-8), (-0.60374767, 0.7971755, -6.0760456e-8)] (
        interpolation = "faceVarying"
    )
    point3f[] points = [(3.1830344e-10, 0.0019999961, -0.03520005), (3.1830344e-10, 0.0020000038, 0.035199992), (0.0014142174, 0.0014142162, 0.03519999), (0.0014142174, 0.0014142086, -0.035200052), (0.0019999968, -7.0639157e-9, 0.03519999), (0.0019999968, -6.864098e-10, -0.035200052), (0.0014142174, -0.0014142164, 0.03519999), (0.0014142174, -0.0014142104, -0.03520005), (3.1830344e-10, -0.0020000038, 0.03519999), (3.1830344e-10, -0.0019999978, -0.035200052), (-0.0014142167, -0.0014142164, 0.03519999), (-0.0014142167, -0.0014142104, -0.03520005), (-0.0019999964, -7.0639157e-9, 0.03519999), (-0.0019999964, -6.864098e-10, -0.035200052), (-0.0014142167, 0.0014142162, 0.03519999), (-0.0014142167, 0.0014142086, -0.035200052)]
}

