#usda 1.0
(
    defaultPrim = "UCX_Kitchen_05_Base_Drawer_03_006"
    upAxis = "Z"
)

def Mesh "UCX_Kitchen_05_Base_Drawer_03_006"
{
    int[] faceVertexCounts = [3, 3, 3, 3, 3, 3, 3, 3, 3, 3, 3, 3]
    int[] faceVertexIndices = [0, 1, 2, 0, 2, 3, 1, 4, 5, 1, 5, 2, 4, 6, 7, 4, 7, 5, 6, 0, 3, 6, 3, 7, 5, 7, 3, 5, 3, 2, 1, 0, 6, 1, 6, 4]
    normal3f[] normals = [(0.9874473, 0.15794863, -2.8386642e-8), (0.9169243, -0.3990612, 6.053912e-8), (0.9874473, 0.15794858, -2.8386642e-8), (0.9874473, 0.15794863, -2.8386642e-8), (0.9874473, 0.15794858, -2.8386642e-8), (0.9874473, 0.15794861, -2.4331406e-8), (0.9169243, -0.3990612, 6.053912e-8), (-0.99971557, 0.023852246, 0), (-0.99971557, 0.023852257, 0), (0.9169243, -0.3990612, 6.053912e-8), (-0.99971557, 0.023852257, 0), (0.9874473, 0.15794858, -2.8386642e-8), (-0.99971557, 0.023852246, 0), (0.023147406, 0.9997321, 0), (-0.99971557, 0.023852246, 0), (-0.99971557, 0.023852246, 0), (-0.99971557, 0.023852246, 0), (-0.99971557, 0.023852257, 0), (0.023147406, 0.9997321, 0), (0.9874473, 0.15794863, -2.8386642e-8), (0.9874473, 0.15794861, -2.4331406e-8), (0.023147406, 0.9997321, 0), (0.9874473, 0.15794861, -2.4331406e-8), (-0.99971557, 0.023852246, 0), (-0.99971557, 0.023852257, 0), (-0.99971557, 0.023852246, 0), (0.9874473, 0.15794861, -2.4331406e-8), (-0.99971557, 0.023852257, 0), (0.9874473, 0.15794861, -2.4331406e-8), (0.9874473, 0.15794858, -2.8386642e-8), (0.9169243, -0.3990612, 6.053912e-8), (0.9874473, 0.15794863, -2.8386642e-8), (0.023147406, 0.9997321, 0), (0.9169243, -0.3990612, 6.053912e-8), (0.023147406, 0.9997321, 0), (-0.99971557, 0.023852246, 0)] (
        interpolation = "faceVarying"
    )
    point3f[] points = [(0.015860029, -0.021205224, 0.23762636), (0.015860027, -0.021205299, -0.23762633), (0.0063192113, 0.038441006, -0.23762636), (0.006319213, 0.03844108, 0.23762634), (-0.011516032, -0.043323223, -0.23762633), (-0.00950759, 0.040856287, -0.23762636), (-0.01151603, -0.043323148, 0.23762636), (-0.009507589, 0.04085636, 0.23762634)]
}

