#usda 1.0
(
    defaultPrim = "UCX_Dishwasher_Tray_01_028"
    upAxis = "Z"
)

def Mesh "UCX_Dishwasher_Tray_01_028"
{
    int[] faceVertexCounts = [3, 3, 3, 3, 3, 3, 3, 3, 3, 3, 3, 3]
    int[] faceVertexIndices = [0, 1, 2, 0, 2, 3, 1, 4, 5, 1, 5, 2, 3, 2, 5, 3, 5, 6, 6, 5, 4, 6, 4, 7, 7, 4, 1, 7, 1, 0, 0, 3, 6, 0, 6, 7]
    normal3f[] normals = [(1, -3.2687606e-7, 2.3429298e-7), (0, 0.81429017, -0.5804582), (1, -3.2687606e-7, 2.3429298e-7), (1, -3.2687606e-7, 2.3429298e-7), (1, -3.2687606e-7, 2.3429298e-7), (1, 0, 0), (0, 0.81429017, -0.5804582), (-1, 7.0997504e-7, -2.391937e-8), (0, 0.88333887, 0.46873492), (0, 0.81429017, -0.5804582), (0, 0.88333887, 0.46873492), (1, -3.2687606e-7, 2.3429298e-7), (1, 0, 0), (1, -3.2687606e-7, 2.3429298e-7), (0, 0.88333887, 0.46873492), (1, 0, 0), (0, 0.88333887, 0.46873492), (-1, 7.176131e-7, -1.6925338e-8), (-1, 7.176131e-7, -1.6925338e-8), (0, 0.88333887, 0.46873492), (-1, 7.0997504e-7, -2.391937e-8), (-1, 7.176131e-7, -1.6925338e-8), (-1, 7.0997504e-7, -2.391937e-8), (-1, 7.099842e-7, -3.1249957e-8), (-1, 7.099842e-7, -3.1249957e-8), (-1, 7.0997504e-7, -2.391937e-8), (0, 0.81429017, -0.5804582), (-1, 7.099842e-7, -3.1249957e-8), (0, 0.81429017, -0.5804582), (1, -3.2687606e-7, 2.3429298e-7), (1, -3.2687606e-7, 2.3429298e-7), (1, 0, 0), (-1, 7.176131e-7, -1.6925338e-8), (1, -3.2687606e-7, 2.3429298e-7), (-1, 7.176131e-7, -1.6925338e-8), (-1, 7.099842e-7, -3.1249957e-8)] (
        interpolation = "faceVarying"
    )
    point3f[] points = [(0.0021554918, -0.0044570626, -0.013491033), (0.0021554993, 0.006146146, -0.0037985926), (0.0021554918, 0.0064930576, 0.0018702417), (0.0021554918, -0.003612391, 0.014591536), (-0.0021554886, 0.006146146, -0.0037985926), (-0.0021554886, 0.0064930576, 0.0018702417), (-0.002155496, -0.003612391, 0.014591536), (-0.002155496, -0.0044570626, -0.013491033)]
}

