#usda 1.0
(
    defaultPrim = "UCX_Dishwasher_Tray_02_016"
    upAxis = "Z"
)

def Mesh "UCX_Dishwasher_Tray_02_016"
{
    int[] faceVertexCounts = [3, 3, 3, 3, 3, 3, 3, 3, 3, 3, 3, 3, 3, 3, 3, 3, 3, 3, 3, 3, 3, 3, 3, 3, 3, 3, 3, 3]
    int[] faceVertexIndices = [0, 1, 2, 0, 2, 3, 3, 2, 4, 3, 4, 5, 5, 4, 6, 5, 6, 7, 7, 6, 8, 7, 8, 9, 9, 8, 10, 9, 10, 11, 11, 10, 12, 11, 12, 13, 4, 2, 1, 1, 14, 12, 12, 10, 8, 8, 6, 4, 4, 1, 12, 12, 8, 4, 13, 12, 14, 13, 14, 15, 15, 14, 1, 15, 1, 0, 15, 0, 3, 3, 5, 7, 7, 9, 11, 11, 13, 15, 15, 3, 7, 7, 11, 15]
    normal3f[] normals = [(0.1367739, 0.9906023, -3.1336068e-8), (-0.13677391, 0.9906023, -8.947365e-8), (0.6037477, 0.7971755, -2.9536597e-8), (0.1367739, 0.9906023, -3.1336068e-8), (0.6037477, 0.7971755, -2.9536597e-8), (0.7971745, 0.60374904, -3.3303245e-8), (0.7971745, 0.60374904, -3.3303245e-8), (0.6037477, 0.7971755, -2.9536597e-8), (0.9906023, 0.13677394, -8.697478e-9), (0.7971745, 0.60374904, -3.3303245e-8), (0.9906023, 0.13677394, -8.697478e-9), (0.9906023, -0.13677396, -1.0939434e-8), (0.9906023, -0.13677396, -1.0939434e-8), (0.9906023, 0.13677394, -8.697478e-9), (0.7971751, -0.6037482, 6.7896866e-10), (0.9906023, -0.13677396, -1.0939434e-8), (0.7971751, -0.6037482, 6.7896866e-10), (0.6037477, -0.79717547, -5.9061307e-8), (0.6037477, -0.79717547, -5.9061307e-8), (0.7971751, -0.6037482, 6.7896866e-10), (0.1367739, -0.9906023, -2.6801517e-8), (0.6037477, -0.79717547, -5.9061307e-8), (0.1367739, -0.9906023, -2.6801517e-8), (-0.1367739, -0.9906023, -5.587031e-8), (-0.1367739, -0.9906023, -5.587031e-8), (0.1367739, -0.9906023, -2.6801517e-8), (-0.6037488, -0.79717463, -3.493953e-8), (-0.1367739, -0.9906023, -5.587031e-8), (-0.6037488, -0.79717463, -3.493953e-8), (-0.7971751, -0.6037482, -1.3855427e-8), (-0.7971751, -0.6037482, -1.3855427e-8), (-0.6037488, -0.79717463, -3.493953e-8), (-0.9906023, -0.13677397, -1.4225151e-8), (-0.7971751, -0.6037482, -1.3855427e-8), (-0.9906023, -0.13677397, -1.4225151e-8), (-0.9906023, 0.13677421, -7.708183e-11), (0.9906023, 0.13677394, -8.697478e-9), (0.6037477, 0.7971755, -2.9536597e-8), (-0.13677391, 0.9906023, -8.947365e-8), (-0.13677391, 0.9906023, -8.947365e-8), (-0.7971745, 0.6037491, -2.0160378e-8), (-0.9906023, -0.13677397, -1.4225151e-8), (-0.9906023, -0.13677397, -1.4225151e-8), (-0.6037488, -0.79717463, -3.493953e-8), (0.1367739, -0.9906023, -2.6801517e-8), (0.1367739, -0.9906023, -2.6801517e-8), (0.7971751, -0.6037482, 6.7896866e-10), (0.9906023, 0.13677394, -8.697478e-9), (0.9906023, 0.13677394, -8.697478e-9), (-0.13677391, 0.9906023, -8.947365e-8), (-0.9906023, -0.13677397, -1.4225151e-8), (-0.9906023, -0.13677397, -1.4225151e-8), (0.1367739, -0.9906023, -2.6801517e-8), (0.9906023, 0.13677394, -8.697478e-9), (-0.9906023, 0.13677421, -7.708183e-11), (-0.9906023, -0.13677397, -1.4225151e-8), (-0.7971745, 0.6037491, -2.0160378e-8), (-0.9906023, 0.13677421, -7.708183e-11), (-0.7971745, 0.6037491, -2.0160378e-8), (-0.6037477, 0.7971755, -4.6780546e-10), (-0.6037477, 0.7971755, -4.6780546e-10), (-0.7971745, 0.6037491, -2.0160378e-8), (-0.13677391, 0.9906023, -8.947365e-8), (-0.6037477, 0.7971755, -4.6780546e-10), (-0.13677391, 0.9906023, -8.947365e-8), (0.1367739, 0.9906023, -3.1336068e-8), (-0.6037477, 0.7971755, -4.6780546e-10), (0.1367739, 0.9906023, -3.1336068e-8), (0.7971745, 0.60374904, -3.3303245e-8), (0.7971745, 0.60374904, -3.3303245e-8), (0.9906023, -0.13677396, -1.0939434e-8), (0.6037477, -0.79717547, -5.9061307e-8), (0.6037477, -0.79717547, -5.9061307e-8), (-0.1367739, -0.9906023, -5.587031e-8), (-0.7971751, -0.6037482, -1.3855427e-8), (-0.7971751, -0.6037482, -1.3855427e-8), (-0.9906023, 0.13677421, -7.708183e-11), (-0.6037477, 0.7971755, -4.6780546e-10), (-0.6037477, 0.7971755, -4.6780546e-10), (0.7971745, 0.60374904, -3.3303245e-8), (0.6037477, -0.79717547, -5.9061307e-8), (0.6037477, -0.79717547, -5.9061307e-8), (-0.7971751, -0.6037482, -1.3855427e-8), (-0.6037477, 0.7971755, -4.6780546e-10)] (
        interpolation = "faceVarying"
    )
    point3f[] points = [(1.4274235e-9, 0.0019999996, -0.035200037), (1.4274235e-9, 0.0020000024, 0.035200004), (0.0014142147, 0.001414215, 0.0352), (0.0014142147, 0.0014142123, -0.03520004), (0.0020000017, 6.133148e-9, 0.035200004), (0.0020000017, 2.9895435e-9, -0.035200037), (0.0014142147, -0.0014142104, 0.035200004), (0.0014142147, -0.0014142067, -0.035200037), (1.4274235e-9, -0.0019999978, 0.0352), (1.4274235e-9, -0.0019999943, -0.03520004), (-0.0014142119, -0.0014142104, 0.035200004), (-0.0014142119, -0.0014142067, -0.035200037), (-0.001999999, 6.133148e-9, 0.035200004), (-0.001999999, 2.9895435e-9, -0.035200037), (-0.0014142119, 0.001414215, 0.0352), (-0.0014142119, 0.0014142123, -0.03520004)]
}

