#usda 1.0
(
    defaultPrim = "UCX_Dishwasher_Tray_02_020"
    upAxis = "Z"
)

def Mesh "UCX_Dishwasher_Tray_02_020"
{
    int[] faceVertexCounts = [3, 3, 3, 3, 3, 3, 3, 3, 3, 3, 3, 3, 3, 3, 3, 3, 3, 3, 3, 3, 3, 3, 3, 3, 3, 3, 3, 3]
    int[] faceVertexIndices = [0, 1, 2, 0, 2, 3, 3, 2, 4, 3, 4, 5, 5, 4, 6, 5, 6, 7, 7, 6, 8, 7, 8, 9, 9, 8, 10, 9, 10, 11, 11, 10, 12, 11, 12, 13, 4, 2, 1, 1, 14, 12, 12, 10, 8, 8, 6, 4, 4, 1, 12, 12, 8, 4, 13, 12, 14, 13, 14, 15, 15, 14, 1, 15, 1, 0, 15, 0, 3, 3, 5, 7, 7, 9, 11, 11, 13, 15, 15, 3, 7, 7, 11, 15]
    normal3f[] normals = [(0.13677344, 0.99060243, 2.6308292e-8), (-0.13677426, 0.99060225, 1.594848e-8), (0.603748, 0.7971752, -1.1877875e-8), (0.13677344, 0.99060243, 2.6308292e-8), (0.603748, 0.7971752, -1.1877875e-8), (0.797174, 0.6037497, -1.4963302e-8), (0.797174, 0.6037497, -1.4963302e-8), (0.603748, 0.7971752, -1.1877875e-8), (0.99060214, 0.13677543, 1.8573042e-9), (0.797174, 0.6037497, -1.4963302e-8), (0.99060214, 0.13677543, 1.8573042e-9), (0.99060214, -0.1367755, -7.732975e-9), (0.99060214, -0.1367755, -7.732975e-9), (0.99060214, 0.13677543, 1.8573042e-9), (0.7971737, -0.60375005, -5.7563265e-9), (0.99060214, -0.1367755, -7.732975e-9), (0.7971737, -0.60375005, -5.7563265e-9), (0.6037477, -0.79717547, -2.6159205e-8), (0.6037477, -0.79717547, -2.6159205e-8), (0.7971737, -0.60375005, -5.7563265e-9), (0.13677426, -0.99060225, -1.594848e-8), (0.6037477, -0.79717547, -2.6159205e-8), (0.13677426, -0.99060225, -1.594848e-8), (-0.13677344, -0.99060243, 2.7604987e-9), (-0.13677344, -0.99060243, 2.7604987e-9), (0.13677426, -0.99060225, -1.594848e-8), (-0.603748, -0.7971752, -2.6565212e-9), (-0.13677344, -0.99060243, 2.7604987e-9), (-0.603748, -0.7971752, -2.6565212e-9), (-0.797174, -0.6037497, -1.4105491e-8), (-0.797174, -0.6037497, -1.4105491e-8), (-0.603748, -0.7971752, -2.6565212e-9), (-0.99060214, -0.1367754, 8.347729e-9), (-0.797174, -0.6037497, -1.4105491e-8), (-0.99060214, -0.1367754, 8.347729e-9), (-0.99060214, 0.1367755, -1.3510226e-9), (0.99060214, 0.13677543, 1.8573042e-9), (0.603748, 0.7971752, -1.1877875e-8), (-0.13677426, 0.99060225, 1.594848e-8), (-0.13677426, 0.99060225, 1.594848e-8), (-0.79717374, 0.60375005, -2.3312465e-8), (-0.99060214, -0.1367754, 8.347729e-9), (-0.99060214, -0.1367754, 8.347729e-9), (-0.603748, -0.7971752, -2.6565212e-9), (0.13677426, -0.99060225, -1.594848e-8), (0.13677426, -0.99060225, -1.594848e-8), (0.7971737, -0.60375005, -5.7563265e-9), (0.99060214, 0.13677543, 1.8573042e-9), (0.99060214, 0.13677543, 1.8573042e-9), (-0.13677426, 0.99060225, 1.594848e-8), (-0.99060214, -0.1367754, 8.347729e-9), (-0.99060214, -0.1367754, 8.347729e-9), (0.13677426, -0.99060225, -1.594848e-8), (0.99060214, 0.13677543, 1.8573042e-9), (-0.99060214, 0.1367755, -1.3510226e-9), (-0.99060214, -0.1367754, 8.347729e-9), (-0.79717374, 0.60375005, -2.3312465e-8), (-0.99060214, 0.1367755, -1.3510226e-9), (-0.79717374, 0.60375005, -2.3312465e-8), (-0.6037477, 0.7971755, 1.0233281e-8), (-0.6037477, 0.7971755, 1.0233281e-8), (-0.79717374, 0.60375005, -2.3312465e-8), (-0.13677426, 0.99060225, 1.594848e-8), (-0.6037477, 0.7971755, 1.0233281e-8), (-0.13677426, 0.99060225, 1.594848e-8), (0.13677344, 0.99060243, 2.6308292e-8), (-0.6037477, 0.7971755, 1.0233281e-8), (0.13677344, 0.99060243, 2.6308292e-8), (0.797174, 0.6037497, -1.4963302e-8), (0.797174, 0.6037497, -1.4963302e-8), (0.99060214, -0.1367755, -7.732975e-9), (0.6037477, -0.79717547, -2.6159205e-8), (0.6037477, -0.79717547, -2.6159205e-8), (-0.13677344, -0.99060243, 2.7604987e-9), (-0.797174, -0.6037497, -1.4105491e-8), (-0.797174, -0.6037497, -1.4105491e-8), (-0.99060214, 0.1367755, -1.3510226e-9), (-0.6037477, 0.7971755, 1.0233281e-8), (-0.6037477, 0.7971755, 1.0233281e-8), (0.797174, 0.6037497, -1.4963302e-8), (0.6037477, -0.79717547, -2.6159205e-8), (0.6037477, -0.79717547, -2.6159205e-8), (-0.797174, -0.6037497, -1.4105491e-8), (-0.6037477, 0.7971755, 1.0233281e-8)] (
        interpolation = "faceVarying"
    )
    point3f[] points = [(6.087583e-11, 0.0020000003, -0.03520002), (6.087583e-11, 0.001999999, 0.03520002), (0.0014142097, 0.0014142151, 0.035200015), (0.0014142097, 0.0014142129, -0.035200022), (0.002000004, -8.366397e-11, 0.035200015), (0.002000004, -3.3064862e-12, -0.03520002), (0.0014142097, -0.0014142147, 0.03520002), (0.0014142097, -0.0014142124, -0.03520002), (6.087583e-11, -0.0019999987, 0.035200015), (6.087583e-11, -0.0019999999, -0.035200022), (-0.0014142095, -0.0014142147, 0.03520002), (-0.0014142095, -0.0014142124, -0.03520002), (-0.002000004, -8.366397e-11, 0.035200015), (-0.002000004, -3.3064862e-12, -0.03520002), (-0.0014142095, 0.0014142151, 0.035200015), (-0.0014142095, 0.0014142129, -0.035200022)]
}

