#usda 1.0
(
    defaultPrim = "UCX_Dishwasher_Tray_01_024"
    upAxis = "Z"
)

def Mesh "UCX_Dishwasher_Tray_01_024"
{
    int[] faceVertexCounts = [3, 3, 3, 3, 3, 3, 3, 3, 3, 3, 3, 3]
    int[] faceVertexIndices = [0, 1, 2, 0, 2, 3, 3, 2, 4, 3, 4, 5, 1, 6, 4, 1, 4, 2, 6, 7, 5, 6, 5, 4, 7, 0, 3, 7, 3, 5, 0, 7, 6, 0, 6, 1]
    normal3f[] normals = [(1, -1.3877788e-17, 0), (1, -1.3877788e-17, 0), (1, -1.3877788e-17, 0), (1, -1.3877788e-17, 0), (1, -1.3877788e-17, 0), (-1.3572634e-17, 0.81429017, 0.580458), (-1.3572634e-17, 0.81429017, 0.580458), (1, -1.3877788e-17, 0), (-3.4811793e-18, 0.88333887, -0.46873498), (-1.3572634e-17, 0.81429017, 0.580458), (-3.4811793e-18, 0.88333887, -0.46873498), (-1, 1.3877788e-17, 0), (1, -1.3877788e-17, 0), (-1, 1.3877788e-17, 0), (-3.4811793e-18, 0.88333887, -0.46873498), (1, -1.3877788e-17, 0), (-3.4811793e-18, 0.88333887, -0.46873498), (1, -1.3877788e-17, 0), (-1, 1.3877788e-17, 0), (-1, 1.3877788e-17, 0), (-1, 1.3877788e-17, 0), (-1, 1.3877788e-17, 0), (-1, 1.3877788e-17, 0), (-3.4811793e-18, 0.88333887, -0.46873498), (-1, 1.3877788e-17, 0), (1, -1.3877788e-17, 0), (-1.3572634e-17, 0.81429017, 0.580458), (-1, 1.3877788e-17, 0), (-1.3572634e-17, 0.81429017, 0.580458), (-1, 1.3877788e-17, 0), (1, -1.3877788e-17, 0), (-1, 1.3877788e-17, 0), (-1, 1.3877788e-17, 0), (1, -1.3877788e-17, 0), (-1, 1.3877788e-17, 0), (1, -1.3877788e-17, 0)] (
        interpolation = "faceVarying"
    )
    point3f[] points = [(0.002155494, -0.0044570607, 0.013491032), (0.002155494, -0.0036123907, -0.014591536), (0.002155494, 0.0064930585, -0.0018702432), (0.002155494, 0.006146147, 0.003798591), (-0.0021555014, 0.0064930585, -0.0018702432), (-0.0021555014, 0.006146147, 0.003798591), (-0.0021555014, -0.0036123907, -0.014591536), (-0.0021555014, -0.0044570607, 0.013491032)]
}

