#usda 1.0
(
    defaultPrim = "UCX_Dishwasher_Front_007"
    upAxis = "Z"
)

def Mesh "UCX_Dishwasher_Front_007"
{
    int[] faceVertexCounts = [3, 3, 3, 3, 3, 3, 3, 3, 3, 3, 3, 3, 3, 3, 3, 3, 3, 3, 3, 3, 3, 3, 3, 3, 3, 3, 3, 3, 3, 3, 3, 3, 3, 3, 3, 3, 3, 3, 3, 3, 3, 3, 3, 3, 3, 3, 3, 3, 3, 3, 3, 3, 3, 3, 3, 3, 3, 3, 3, 3, 3, 3, 3, 3, 3, 3, 3, 3, 3, 3, 3, 3, 3, 3, 3, 3, 3, 3, 3, 3, 3, 3, 3, 3, 3, 3, 3, 3, 3, 3, 3, 3, 3, 3, 3, 3, 3, 3, 3, 3, 3, 3, 3, 3, 3, 3, 3, 3, 3, 3, 3, 3, 3, 3, 3, 3, 3, 3, 3, 3, 3, 3, 3, 3]
    int[] faceVertexIndices = [0, 1, 2, 0, 2, 3, 3, 2, 4, 3, 4, 5, 5, 4, 6, 5, 6, 7, 7, 6, 8, 7, 8, 9, 9, 8, 10, 9, 10, 11, 11, 10, 12, 11, 12, 13, 13, 12, 14, 13, 14, 15, 15, 14, 16, 15, 16, 17, 17, 16, 18, 17, 18, 19, 19, 18, 20, 19, 20, 21, 21, 20, 22, 21, 22, 23, 23, 22, 24, 23, 24, 25, 25, 24, 26, 25, 26, 27, 27, 26, 28, 27, 28, 29, 29, 28, 30, 29, 30, 31, 31, 30, 32, 31, 32, 33, 33, 32, 34, 33, 34, 35, 35, 34, 36, 35, 36, 37, 37, 36, 38, 37, 38, 39, 39, 38, 40, 39, 40, 41, 41, 40, 42, 41, 42, 43, 43, 42, 44, 43, 44, 45, 45, 44, 46, 45, 46, 47, 47, 46, 48, 47, 48, 49, 49, 48, 50, 49, 50, 51, 51, 50, 52, 51, 52, 53, 53, 52, 54, 53, 54, 55, 55, 54, 56, 55, 56, 57, 57, 56, 58, 57, 58, 59, 59, 58, 60, 59, 60, 61, 4, 2, 1, 1, 62, 60, 60, 58, 56, 56, 54, 52, 52, 50, 48, 48, 46, 44, 44, 42, 40, 40, 38, 36, 36, 34, 32, 32, 30, 28, 28, 26, 24, 24, 22, 20, 20, 18, 16, 16, 14, 12, 12, 10, 8, 8, 6, 4, 4, 1, 60, 60, 56, 52, 52, 48, 44, 44, 40, 36, 36, 32, 28, 28, 24, 20, 20, 16, 12, 12, 8, 4, 4, 60, 52, 52, 44, 36, 36, 28, 20, 20, 12, 4, 4, 52, 36, 36, 20, 4, 61, 60, 62, 61, 62, 63, 63, 62, 1, 63, 1, 0, 63, 0, 3, 3, 5, 7, 7, 9, 11, 11, 13, 15, 15, 17, 19, 19, 21, 23, 23, 25, 27, 27, 29, 31, 31, 33, 35, 35, 37, 39, 39, 41, 43, 43, 45, 47, 47, 49, 51, 51, 53, 55, 55, 57, 59, 59, 61, 63, 63, 3, 7, 7, 11, 15, 15, 19, 23, 23, 27, 31, 31, 35, 39, 39, 43, 47, 47, 51, 55, 55, 59, 63, 63, 7, 15, 15, 23, 31, 31, 39, 47, 47, 55, 63, 63, 15, 31, 31, 47, 63]
    normal3f[] normals = [(0, 0.99946153, 0.032812983), (0, 0.99946153, -0.03281298), (0, 0.98665863, 0.16280334), (0, 0.99946153, 0.032812983), (0, 0.98665863, 0.16280334), (0, 0.9738557, 0.22716773), (0, 0.9738557, 0.22716773), (0, 0.98665863, 0.16280334), (-1, 0, 0), (0, 0.9738557, 0.22716773), (-1, 0, 0), (0, 0.9108249, 0.41279292), (0, 0.9108249, 0.41279292), (-1, 0, 0), (0, 0.84925157, 0.52798843), (0, 0.9108249, 0.41279292), (0, 0.84925157, 0.52798843), (1, 5.7815733e-8, -3.854382e-8), (1, 5.7815733e-8, -3.854382e-8), (0, 0.84925157, 0.52798843), (0, 0.72992843, 0.68352365), (1, 5.7815733e-8, -3.854382e-8), (0, 0.72992843, 0.68352365), (0, 0.68352383, 0.7299282), (0, 0.68352383, 0.7299282), (0, 0.72992843, 0.68352365), (0, 0.58255374, 0.8127922), (0, 0.68352383, 0.7299282), (0, 0.58255374, 0.8127922), (0, 0.5279883, 0.84925175), (0, 0.5279883, 0.84925175), (0, 0.58255374, 0.8127922), (-1, 0, 0), (0, 0.5279883, 0.84925175), (-1, 0, 0), (0, 0.35216236, 0.935939), (0, 0.35216236, 0.935939), (-1, 0, 0), (0, 0.2271676, 0.9738557), (0, 0.35216236, 0.935939), (0, 0.2271676, 0.9738557), (1, 5.773927e-8, 1.4212744e-8), (1, 5.773927e-8, 1.4212744e-8), (0, 0.2271676, 0.9738557), (0, 0.03281286, 0.99946153), (1, 5.773927e-8, 1.4212744e-8), (0, 0.03281286, 0.99946153), (0, -0.03281286, 0.99946153), (0, -0.03281286, 0.99946153), (0, 0.03281286, 0.99946153), (0, -0.1628031, 0.9866586), (0, -0.03281286, 0.99946153), (0, -0.1628031, 0.9866586), (0, -0.2271676, 0.9738557), (0, -0.2271676, 0.9738557), (0, -0.1628031, 0.9866586), (-1, 0, 0), (0, -0.2271676, 0.9738557), (-1, 0, 0), (0, -0.41279262, 0.9108251), (0, -0.41279262, 0.9108251), (-1, 0, 0), (0, -0.5279883, 0.8492516), (0, -0.41279262, 0.9108251), (0, -0.5279883, 0.8492516), (1, 0, 9.635955e-8), (1, 0, 9.635955e-8), (0, -0.5279883, 0.8492516), (0, -0.68352383, 0.7299282), (1, 0, 9.635955e-8), (0, -0.68352383, 0.7299282), (0, -0.72992843, 0.68352365), (0, -0.72992843, 0.68352365), (0, -0.68352383, 0.7299282), (0, -0.8127923, 0.5825536), (0, -0.72992843, 0.68352365), (0, -0.8127923, 0.5825536), (0, -0.8492516, 0.5279884), (0, -0.8492516, 0.5279884), (0, -0.8127923, 0.5825536), (-1, 0, 0), (0, -0.8492516, 0.5279884), (-1, 0, 0), (0, -0.9359389, 0.35216257), (0, -0.9359389, 0.35216257), (-1, 0, 0), (0, -0.9738557, 0.22716773), (0, -0.9359389, 0.35216257), (0, -0.9738557, 0.22716773), (1, 7.2094714e-8, -1.0602164e-9), (1, 7.2094714e-8, -1.0602164e-9), (0, -0.9738557, 0.22716773), (0, -0.99946153, 0.032812983), (1, 7.2094714e-8, -1.0602164e-9), (0, -0.99946153, 0.032812983), (0, -0.99946153, -0.032812983), (0, -0.99946153, -0.032812983), (0, -0.99946153, 0.032812983), (0, -0.98665863, -0.16280334), (0, -0.99946153, -0.032812983), (0, -0.98665863, -0.16280334), (0, -0.9738557, -0.22716773), (0, -0.9738557, -0.22716773), (0, -0.98665863, -0.16280334), (-1, 0, 0), (0, -0.9738557, -0.22716773), (-1, 0, 0), (0, -0.91082495, -0.41279307), (0, -0.91082495, -0.41279307), (-1, 0, 0), (0, -0.8492516, -0.52798843), (0, -0.91082495, -0.41279307), (0, -0.8492516, -0.52798843), (1, 5.7815733e-8, -3.854382e-8), (1, 5.7815733e-8, -3.854382e-8), (0, -0.8492516, -0.52798843), (0, -0.7299286, -0.6835235), (1, 5.7815733e-8, -3.854382e-8), (0, -0.7299286, -0.6835235), (0, -0.68352383, -0.7299282), (0, -0.68352383, -0.7299282), (0, -0.7299286, -0.6835235), (0, -0.5825536, -0.81279236), (0, -0.68352383, -0.7299282), (0, -0.5825536, -0.81279236), (0, -0.52798826, -0.8492518), (0, -0.52798826, -0.8492518), (0, -0.5825536, -0.81279236), (-1, 0, 0), (0, -0.52798826, -0.8492518), (-1, 0, 0), (0, -0.35216236, -0.935939), (0, -0.35216236, -0.935939), (-1, 0, 0), (0, -0.22716773, -0.9738557), (0, -0.35216236, -0.935939), (0, -0.22716773, -0.9738557), (1, 5.773927e-8, 1.4212744e-8), (1, 5.773927e-8, 1.4212744e-8), (0, -0.22716773, -0.9738557), (0, -0.032812983, -0.99946153), (1, 5.773927e-8, 1.4212744e-8), (0, -0.032812983, -0.99946153), (0, 0.03281298, -0.99946153), (0, 0.03281298, -0.99946153), (0, -0.032812983, -0.99946153), (0, 0.16280332, -0.98665863), (0, 0.03281298, -0.99946153), (0, 0.16280332, -0.98665863), (0, 0.22716773, -0.9738557), (0, 0.22716773, -0.9738557), (0, 0.16280332, -0.98665863), (-1, 0, 0), (0, 0.22716773, -0.9738557), (-1, 0, 0), (0, 0.41279262, -0.9108251), (0, 0.41279262, -0.9108251), (-1, 0, 0), (0, 0.52798826, -0.84925175), (0, 0.41279262, -0.9108251), (0, 0.52798826, -0.84925175), (1, 0, 9.635955e-8), (1, 0, 9.635955e-8), (0, 0.52798826, -0.84925175), (0, 0.68352383, -0.7299282), (1, 0, 9.635955e-8), (0, 0.68352383, -0.7299282), (0, 0.7299286, -0.6835235), (0, 0.7299286, -0.6835235), (0, 0.68352383, -0.7299282), (0, 0.8127924, -0.58255345), (0, 0.7299286, -0.6835235), (0, 0.8127924, -0.58255345), (0, 0.8492516, -0.5279885), (0, 0.8492516, -0.5279885), (0, 0.8127924, -0.58255345), (-1, 0, 0), (0, 0.8492516, -0.5279885), (-1, 0, 0), (0, 0.93593884, -0.3521626), (-1, 0, 0), (0, 0.98665863, 0.16280334), (0, 0.99946153, -0.03281298), (0, 0.99946153, -0.03281298), (0, 0.9738557, -0.22716774), (-1, 0, 0), (-1, 0, 0), (0, 0.8127924, -0.58255345), (0, 0.68352383, -0.7299282), (0, 0.68352383, -0.7299282), (0, 0.52798826, -0.84925175), (-1, 0, 0), (-1, 0, 0), (0, 0.16280332, -0.98665863), (0, -0.032812983, -0.99946153), (0, -0.032812983, -0.99946153), (0, -0.22716773, -0.9738557), (-1, 0, 0), (-1, 0, 0), (0, -0.5825536, -0.81279236), (0, -0.7299286, -0.6835235), (0, -0.7299286, -0.6835235), (0, -0.8492516, -0.52798843), (-1, 0, 0), (-1, 0, 0), (0, -0.98665863, -0.16280334), (0, -0.99946153, 0.032812983), (0, -0.99946153, 0.032812983), (0, -0.9738557, 0.22716773), (-1, 0, 0), (-1, 0, 0), (0, -0.8127923, 0.5825536), (0, -0.68352383, 0.7299282), (0, -0.68352383, 0.7299282), (0, -0.5279883, 0.8492516), (-1, 0, 0), (-1, 0, 0), (0, -0.1628031, 0.9866586), (0, 0.03281286, 0.99946153), (0, 0.03281286, 0.99946153), (0, 0.2271676, 0.9738557), (-1, 0, 0), (-1, 0, 0), (0, 0.58255374, 0.8127922), (0, 0.72992843, 0.68352365), (0, 0.72992843, 0.68352365), (0, 0.84925157, 0.52798843), (-1, 0, 0), (-1, 0, 0), (0, 0.99946153, -0.03281298), (-1, 0, 0), (-1, 0, 0), (0, 0.68352383, -0.7299282), (-1, 0, 0), (-1, 0, 0), (0, -0.032812983, -0.99946153), (-1, 0, 0), (-1, 0, 0), (0, -0.7299286, -0.6835235), (-1, 0, 0), (-1, 0, 0), (0, -0.99946153, 0.032812983), (-1, 0, 0), (-1, 0, 0), (0, -0.68352383, 0.7299282), (-1, 0, 0), (-1, 0, 0), (0, 0.03281286, 0.99946153), (-1, 0, 0), (-1, 0, 0), (0, 0.72992843, 0.68352365), (-1, 0, 0), (-1, 0, 0), (-1, 0, 0), (-1, 0, 0), (-1, 0, 0), (-1, 0, 0), (-1, 0, 0), (-1, 0, 0), (-1, 0, 0), (-1, 0, 0), (-1, 0, 0), (-1, 0, 0), (-1, 0, 0), (-1, 0, 0), (-1, 0, 0), (-1, 0, 0), (-1, 0, 0), (-1, 0, 0), (-1, 0, 0), (0, 0.93593884, -0.3521626), (-1, 0, 0), (0, 0.9738557, -0.22716774), (0, 0.93593884, -0.3521626), (0, 0.9738557, -0.22716774), (1, 7.2094714e-8, -1.0602164e-9), (1, 7.2094714e-8, -1.0602164e-9), (0, 0.9738557, -0.22716774), (0, 0.99946153, -0.03281298), (1, 7.2094714e-8, -1.0602164e-9), (0, 0.99946153, -0.03281298), (0, 0.99946153, 0.032812983), (1, 7.2094714e-8, -1.0602164e-9), (0, 0.99946153, 0.032812983), (0, 0.9738557, 0.22716773), (0, 0.9738557, 0.22716773), (0, 0.9108249, 0.41279292), (1, 5.7815733e-8, -3.854382e-8), (1, 5.7815733e-8, -3.854382e-8), (0, 0.68352383, 0.7299282), (0, 0.5279883, 0.84925175), (0, 0.5279883, 0.84925175), (0, 0.35216236, 0.935939), (1, 5.773927e-8, 1.4212744e-8), (1, 5.773927e-8, 1.4212744e-8), (0, -0.03281286, 0.99946153), (0, -0.2271676, 0.9738557), (0, -0.2271676, 0.9738557), (0, -0.41279262, 0.9108251), (1, 0, 9.635955e-8), (1, 0, 9.635955e-8), (0, -0.72992843, 0.68352365), (0, -0.8492516, 0.5279884), (0, -0.8492516, 0.5279884), (0, -0.9359389, 0.35216257), (1, 7.2094714e-8, -1.0602164e-9), (1, 7.2094714e-8, -1.0602164e-9), (0, -0.99946153, -0.032812983), (0, -0.9738557, -0.22716773), (0, -0.9738557, -0.22716773), (0, -0.91082495, -0.41279307), (1, 5.7815733e-8, -3.854382e-8), (1, 5.7815733e-8, -3.854382e-8), (0, -0.68352383, -0.7299282), (0, -0.52798826, -0.8492518), (0, -0.52798826, -0.8492518), (0, -0.35216236, -0.935939), (1, 5.773927e-8, 1.4212744e-8), (1, 5.773927e-8, 1.4212744e-8), (0, 0.03281298, -0.99946153), (0, 0.22716773, -0.9738557), (0, 0.22716773, -0.9738557), (0, 0.41279262, -0.9108251), (1, 0, 9.635955e-8), (1, 0, 9.635955e-8), (0, 0.7299286, -0.6835235), (0, 0.8492516, -0.5279885), (0, 0.8492516, -0.5279885), (0, 0.93593884, -0.3521626), (1, 7.2094714e-8, -1.0602164e-9), (1, 7.2094714e-8, -1.0602164e-9), (0, 0.9738557, 0.22716773), (1, 5.7815733e-8, -3.854382e-8), (1, 5.7815733e-8, -3.854382e-8), (0, 0.5279883, 0.84925175), (1, 5.773927e-8, 1.4212744e-8), (1, 5.773927e-8, 1.4212744e-8), (0, -0.2271676, 0.9738557), (1, 0, 9.635955e-8), (1, 0, 9.635955e-8), (0, -0.8492516, 0.5279884), (1, 7.2094714e-8, -1.0602164e-9), (1, 7.2094714e-8, -1.0602164e-9), (0, -0.9738557, -0.22716773), (1, 5.7815733e-8, -3.854382e-8), (1, 5.7815733e-8, -3.854382e-8), (0, -0.52798826, -0.8492518), (1, 5.773927e-8, 1.4212744e-8), (1, 5.773927e-8, 1.4212744e-8), (0, 0.22716773, -0.9738557), (1, 0, 9.635955e-8), (1, 0, 9.635955e-8), (0, 0.8492516, -0.5279885), (1, 7.2094714e-8, -1.0602164e-9), (1, 7.2094714e-8, -1.0602164e-9), (1, 5.7815733e-8, -3.854382e-8), (1, 5.773927e-8, 1.4212744e-8), (1, 5.773927e-8, 1.4212744e-8), (1, 0, 9.635955e-8), (1, 7.2094714e-8, -1.0602164e-9), (1, 7.2094714e-8, -1.0602164e-9), (1, 5.7815733e-8, -3.854382e-8), (1, 5.773927e-8, 1.4212744e-8), (1, 5.773927e-8, 1.4212744e-8), (1, 0, 9.635955e-8), (1, 7.2094714e-8, -1.0602164e-9), (1, 7.2094714e-8, -1.0602164e-9), (1, 5.773927e-8, 1.4212744e-8), (1, 7.2094714e-8, -1.0602164e-9), (1, 7.2094714e-8, -1.0602164e-9), (1, 5.773927e-8, 1.4212744e-8), (1, 7.2094714e-8, -1.0602164e-9)] (
        interpolation = "faceVarying"
    )
    point3f[] points = [(0.017071964, 0.10520942, -8.5086327e-10), (-0.017071972, 0.10520942, -8.5086327e-10), (-0.017071972, 0.10318784, 0.020525336), (0.017071964, 0.10318784, 0.020525336), (-0.017071972, 0.09720082, 0.040261894), (0.017071964, 0.09720082, 0.040261894), (-0.017071972, 0.08747841, 0.058451213), (0.017071964, 0.08747841, 0.058451213), (-0.017071972, 0.07439429, 0.07439428), (0.017071972, 0.07439429, 0.07439428), (-0.017071972, 0.058451213, 0.087478414), (0.017071972, 0.058451213, 0.087478414), (-0.017071972, 0.040261902, 0.09720081), (0.017071972, 0.040261902, 0.09720081), (-0.017071972, 0.020525344, 0.10318783), (0.017071972, 0.020525344, 0.10318783), (-0.017071972, 6.5277206e-9, 0.1052094), (0.017071972, 6.5277206e-9, 0.1052094), (-0.017071972, -0.020525329, 0.10318783), (0.017071972, -0.020525329, 0.10318783), (-0.017071972, -0.040261887, 0.09720081), (0.017071972, -0.040261887, 0.09720081), (-0.017071972, -0.058451198, 0.087478414), (0.017071972, -0.058451198, 0.087478414), (-0.017071972, -0.07439428, 0.07439428), (0.017071972, -0.07439428, 0.07439428), (-0.017071972, -0.08747839, 0.058451213), (0.01707198, -0.08747839, 0.058451213), (-0.017071972, -0.0972008, 0.040261894), (0.01707198, -0.0972008, 0.040261894), (-0.017071972, -0.10318782, 0.020525336), (0.01707198, -0.10318782, 0.020525336), (-0.017071972, -0.1052094, -8.5086327e-10), (0.01707198, -0.1052094, -8.5086327e-10), (-0.017071972, -0.10318782, -0.020525336), (0.01707198, -0.10318782, -0.020525336), (-0.017071972, -0.0972008, -0.040261894), (0.01707198, -0.0972008, -0.040261894), (-0.017071972, -0.08747839, -0.058451205), (0.01707198, -0.08747839, -0.058451205), (-0.017071972, -0.07439428, -0.074394286), (0.017071972, -0.07439428, -0.074394286), (-0.017071972, -0.058451198, -0.087478414), (0.017071972, -0.058451198, -0.087478414), (-0.017071972, -0.040261887, -0.09720081), (0.017071972, -0.040261887, -0.09720081), (-0.017071972, -0.020525329, -0.10318783), (0.017071972, -0.020525329, -0.10318783), (-0.017071972, 6.5277206e-9, -0.10520941), (0.017071972, 6.5277206e-9, -0.10520941), (-0.017071972, 0.020525344, -0.10318783), (0.017071972, 0.020525344, -0.10318783), (-0.017071972, 0.040261902, -0.09720081), (0.017071972, 0.040261902, -0.09720081), (-0.017071972, 0.058451213, -0.087478414), (0.017071972, 0.058451213, -0.087478414), (-0.017071972, 0.07439429, -0.074394286), (0.017071972, 0.07439429, -0.074394286), (-0.017071972, 0.08747841, -0.058451205), (0.017071964, 0.08747841, -0.058451205), (-0.017071972, 0.09720082, -0.040261894), (0.017071964, 0.09720082, -0.040261894), (-0.017071972, 0.10318784, -0.020525336), (0.017071964, 0.10318784, -0.020525336)]
}

