#usda 1.0
(
    defaultPrim = "UCX_Dishwasher_Tray_01_105"
    upAxis = "Z"
)

def Mesh "UCX_Dishwasher_Tray_01_105"
{
    int[] faceVertexCounts = [3, 3, 3, 3, 3, 3, 3, 3, 3, 3, 3, 3, 3, 3, 3, 3, 3, 3, 3, 3, 3, 3, 3, 3, 3, 3, 3, 3]
    int[] faceVertexIndices = [0, 1, 2, 0, 2, 3, 1, 4, 5, 1, 5, 2, 4, 6, 7, 4, 7, 5, 6, 8, 9, 6, 9, 7, 8, 10, 11, 8, 11, 9, 10, 12, 13, 10, 13, 11, 3, 2, 5, 5, 7, 9, 9, 11, 13, 13, 14, 3, 3, 5, 9, 9, 13, 3, 12, 15, 14, 12, 14, 13, 15, 0, 3, 15, 3, 14, 1, 0, 15, 15, 12, 10, 10, 8, 6, 6, 4, 1, 1, 15, 10, 10, 6, 1]
    normal3f[] normals = [(-0.1441794, 0.98955154, -5.5959397e-9), (-0.812418, 0.58307564, -2.8024008e-8), (-0.62431824, 0.7811702, -1.204003e-8), (-0.1441794, 0.98955154, -5.5959397e-9), (-0.62431824, 0.7811702, -1.204003e-8), (0.1441794, 0.98955154, 2.0754423e-9), (-0.812418, 0.58307564, -2.8024008e-8), (-0.9915486, -0.12973574, 1.748862e-8), (-0.9915486, 0.12973627, 1.748862e-8), (-0.812418, 0.58307564, -2.8024008e-8), (-0.9915486, 0.12973627, 1.748862e-8), (-0.62431824, 0.7811702, -1.204003e-8), (-0.9915486, -0.12973574, 1.748862e-8), (-0.624318, -0.7811704, -3.2652487e-8), (-0.8124182, -0.5830752, -2.1493541e-8), (-0.9915486, -0.12973574, 1.748862e-8), (-0.8124182, -0.5830752, -2.1493541e-8), (-0.9915486, 0.12973627, 1.748862e-8), (-0.624318, -0.7811704, -3.2652487e-8), (0.14417934, -0.98955166, 3.7080587e-9), (-0.14417942, -0.98955154, -6.9480346e-9), (-0.624318, -0.7811704, -3.2652487e-8), (-0.14417942, -0.98955154, -6.9480346e-9), (-0.8124182, -0.5830752, -2.1493541e-8), (0.14417934, -0.98955166, 3.7080587e-9), (0.8124184, -0.58307487, 2.3636687e-8), (0.62431794, -0.78117037, 2.7244107e-8), (0.14417934, -0.98955166, 3.7080587e-9), (0.62431794, -0.78117037, 2.7244107e-8), (-0.14417942, -0.98955154, -6.9480346e-9), (0.8124184, -0.58307487, 2.3636687e-8), (0.9915487, 0.12973574, 2.1492118e-8), (0.9915487, -0.12973516, 4.9656098e-8), (0.8124184, -0.58307487, 2.3636687e-8), (0.9915487, -0.12973516, 4.9656098e-8), (0.62431794, -0.78117037, 2.7244107e-8), (0.1441794, 0.98955154, 2.0754423e-9), (-0.62431824, 0.7811702, -1.204003e-8), (-0.9915486, 0.12973627, 1.748862e-8), (-0.9915486, 0.12973627, 1.748862e-8), (-0.8124182, -0.5830752, -2.1493541e-8), (-0.14417942, -0.98955154, -6.9480346e-9), (-0.14417942, -0.98955154, -6.9480346e-9), (0.62431794, -0.78117037, 2.7244107e-8), (0.9915487, -0.12973516, 4.9656098e-8), (0.9915487, -0.12973516, 4.9656098e-8), (0.8124184, 0.58307487, 2.3636687e-8), (0.1441794, 0.98955154, 2.0754423e-9), (0.1441794, 0.98955154, 2.0754423e-9), (-0.9915486, 0.12973627, 1.748862e-8), (-0.14417942, -0.98955154, -6.9480346e-9), (-0.14417942, -0.98955154, -6.9480346e-9), (0.9915487, -0.12973516, 4.9656098e-8), (0.1441794, 0.98955154, 2.0754423e-9), (0.9915487, 0.12973574, 2.1492118e-8), (0.62431824, 0.7811701, 2.612202e-8), (0.8124184, 0.58307487, 2.3636687e-8), (0.9915487, 0.12973574, 2.1492118e-8), (0.8124184, 0.58307487, 2.3636687e-8), (0.9915487, -0.12973516, 4.9656098e-8), (0.62431824, 0.7811701, 2.612202e-8), (-0.1441794, 0.98955154, -5.5959397e-9), (0.1441794, 0.98955154, 2.0754423e-9), (0.62431824, 0.7811701, 2.612202e-8), (0.1441794, 0.98955154, 2.0754423e-9), (0.8124184, 0.58307487, 2.3636687e-8), (-0.812418, 0.58307564, -2.8024008e-8), (-0.1441794, 0.98955154, -5.5959397e-9), (0.62431824, 0.7811701, 2.612202e-8), (0.62431824, 0.7811701, 2.612202e-8), (0.9915487, 0.12973574, 2.1492118e-8), (0.8124184, -0.58307487, 2.3636687e-8), (0.8124184, -0.58307487, 2.3636687e-8), (0.14417934, -0.98955166, 3.7080587e-9), (-0.624318, -0.7811704, -3.2652487e-8), (-0.624318, -0.7811704, -3.2652487e-8), (-0.9915486, -0.12973574, 1.748862e-8), (-0.812418, 0.58307564, -2.8024008e-8), (-0.812418, 0.58307564, -2.8024008e-8), (0.62431824, 0.7811701, 2.612202e-8), (0.8124184, -0.58307487, 2.3636687e-8), (0.8124184, -0.58307487, 2.3636687e-8), (-0.624318, -0.7811704, -3.2652487e-8), (-0.812418, 0.58307564, -2.8024008e-8)] (
        interpolation = "faceVarying"
    )
    point3f[] points = [(2.7431604e-10, 0.0020000043, -0.030801209), (-0.0013401684, 0.0014142098, -0.030801207), (-0.001340169, 0.0014142098, 0.030801209), (-2.7106122e-9, 0.0020000043, 0.030801216), (-0.0018952828, 1.888863e-10, -0.0308012), (-0.0018952809, 1.888863e-10, 0.03080121), (-0.0013401684, -0.0014142094, -0.030801207), (-0.001340169, -0.0014142094, 0.030801209), (2.7431604e-10, -0.0020000038, -0.030801209), (-2.7106122e-9, -0.0020000038, 0.030801216), (0.001340169, -0.0014142094, -0.030801209), (0.001340166, -0.0014142094, 0.030801214), (0.0018952785, 1.888863e-10, -0.030801203), (0.0018952779, 1.888863e-10, 0.030801214), (0.001340166, 0.0014142098, 0.030801214), (0.001340169, 0.0014142098, -0.030801209)]
}

