#usda 1.0
(
    defaultPrim = "UCX_Fridge_Egg_Tray_009"
    upAxis = "Z"
)

def Mesh "UCX_Fridge_Egg_Tray_009"
{
    int[] faceVertexCounts = [3, 3, 3, 3, 3, 3, 3, 3, 3, 3, 3, 3]
    int[] faceVertexIndices = [0, 1, 2, 0, 2, 3, 4, 5, 6, 4, 6, 7, 5, 4, 1, 5, 1, 0, 1, 4, 7, 1, 7, 2, 6, 3, 2, 6, 2, 7, 3, 6, 5, 3, 5, 0]
    normal3f[] normals = [(-1, -0, 2.148628e-8), (-1, -0, 3.6161747e-8), (1, 0, 2.2540132e-8), (-1, -0, 2.148628e-8), (1, 0, 2.2540132e-8), (1, 0, 2.2540132e-8), (-1, -0, 2.148628e-8), (-1, -0, 6.8108084e-9), (1, 0, 7.864662e-9), (-1, -0, 2.148628e-8), (1, 0, 7.864662e-9), (1, 0, 7.864662e-9), (-1, -0, 6.8108084e-9), (-1, -0, 2.148628e-8), (-1, -0, 3.6161747e-8), (-1, -0, 6.8108084e-9), (-1, -0, 3.6161747e-8), (-1, -0, 2.148628e-8), (-1, -0, 3.6161747e-8), (-1, -0, 2.148628e-8), (1, 0, 7.864662e-9), (-1, -0, 3.6161747e-8), (1, 0, 7.864662e-9), (1, 0, 2.2540132e-8), (1, 0, 7.864662e-9), (1, 0, 2.2540132e-8), (1, 0, 2.2540132e-8), (1, 0, 7.864662e-9), (1, 0, 2.2540132e-8), (1, 0, 7.864662e-9), (1, 0, 2.2540132e-8), (1, 0, 7.864662e-9), (-1, -0, 6.8108084e-9), (1, 0, 2.2540132e-8), (-1, -0, 6.8108084e-9), (-1, -0, 2.148628e-8)] (
        interpolation = "faceVarying"
    )
    point3f[] points = [(-0.0009000018, 0.0030669197, 0.051750027), (-0.0009000018, -0.0030669197, 0.051750027), (0.0009000024, -0.0030669197, 0.05175003), (0.0009000024, 0.0030669197, 0.05175003), (-0.00090000307, -0.0030669197, -0.051750008), (-0.00090000307, 0.0030669197, -0.051750008), (0.0009000029, 0.0030669197, -0.051750004), (0.0009000029, -0.0030669197, -0.051750004)]
}

