#usda 1.0
(
    defaultPrim = "UCX_Fridge_Egg_Tray_003"
    upAxis = "Z"
)

def Mesh "UCX_Fridge_Egg_Tray_003"
{
    int[] faceVertexCounts = [3, 3, 3, 3, 3, 3, 3, 3, 3, 3, 3, 3]
    int[] faceVertexIndices = [0, 1, 2, 0, 2, 3, 4, 2, 1, 4, 1, 5, 5, 6, 7, 5, 7, 4, 7, 3, 2, 7, 2, 4, 7, 6, 0, 7, 0, 3, 6, 5, 1, 6, 1, 0]
    normal3f[] normals = [(1, -1.7905528e-7, 0), (1, -1.643798e-7, 0), (1, -1.643798e-7, 0), (1, -1.7905528e-7, 0), (1, -1.643798e-7, 0), (1, -1.4970433e-7, 0), (-1, -7.384917e-9, -0), (1, -1.643798e-7, 0), (1, -1.643798e-7, 0), (-1, -7.384917e-9, -0), (1, -1.643798e-7, 0), (-1, -7.384917e-9, -0), (-1, -7.384917e-9, -0), (-1, -3.673586e-8, -0), (-1.0000001, -3.2394937e-8, -0), (-1, -7.384917e-9, -0), (-1.0000001, -3.2394937e-8, -0), (-1, -7.384917e-9, -0), (-1.0000001, -3.2394937e-8, -0), (1, -1.4970433e-7, 0), (1, -1.643798e-7, 0), (-1.0000001, -3.2394937e-8, -0), (1, -1.643798e-7, 0), (-1, -7.384917e-9, -0), (-1.0000001, -3.2394937e-8, -0), (-1, -3.673586e-8, -0), (1, -1.7905528e-7, 0), (-1.0000001, -3.2394937e-8, -0), (1, -1.7905528e-7, 0), (1, -1.4970433e-7, 0), (-1, -3.673586e-8, -0), (-1, -7.384917e-9, -0), (1, -1.643798e-7, 0), (-1, -3.673586e-8, -0), (1, -1.643798e-7, 0), (1, -1.7905528e-7, 0)] (
        interpolation = "faceVarying"
    )
    point3f[] points = [(0.00090000185, -0.0046718023, -0.018692862), (0.0009000033, 0.0046717967, -0.018692862), (0.0009000033, 0.0046717967, 0.018692862), (0.00090000185, -0.0046718023, 0.018692862), (-0.00090000266, 0.0046718, 0.018692862), (-0.00090000266, 0.0046718, -0.018692862), (-0.0009000023, -0.0046717986, -0.018692862), (-0.0009000023, -0.0046717986, 0.018692862)]
}

