#usda 1.0
(
    defaultPrim = "UCX_Dishwasher_Tray_02_001"
    upAxis = "Z"
)

def Mesh "UCX_Dishwasher_Tray_02_001"
{
    int[] faceVertexCounts = [3, 3, 3, 3, 3, 3, 3, 3, 3, 3, 3, 3]
    int[] faceVertexIndices = [0, 1, 2, 0, 2, 3, 3, 2, 4, 3, 4, 5, 5, 4, 6, 5, 6, 7, 7, 6, 1, 7, 1, 0, 3, 5, 7, 3, 7, 0, 4, 2, 1, 4, 1, 6]
    normal3f[] normals = [(-0.9999995, -0.0010522003, 0), (0.99999946, 0.0010521435, 0), (0.99999946, 0.0010520868, 0), (-0.9999995, -0.0010522003, 0), (0.99999946, 0.0010520868, 0), (-0.9999995, -0.0010522003, 0), (-0.9999995, -0.0010522003, 0), (0.99999946, 0.0010520868, 0), (0.99999946, 0.0010521152, 0), (-0.9999995, -0.0010522003, 0), (0.99999946, 0.0010521152, 0), (-0.9999995, -0.0010522003, 0), (-0.9999995, -0.0010522003, 0), (0.99999946, 0.0010521152, 0), (0.99999946, 0.0010521152, 0), (-0.9999995, -0.0010522003, 0), (0.99999946, 0.0010521152, 0), (-0.9999995, -0.0010522286, 0), (-0.9999995, -0.0010522286, 0), (0.99999946, 0.0010521152, 0), (0.99999946, 0.0010521435, 0), (-0.9999995, -0.0010522286, 0), (0.99999946, 0.0010521435, 0), (-0.9999995, -0.0010522003, 0), (-0.9999995, -0.0010522003, 0), (-0.9999995, -0.0010522003, 0), (-0.9999995, -0.0010522286, 0), (-0.9999995, -0.0010522003, 0), (-0.9999995, -0.0010522286, 0), (-0.9999995, -0.0010522003, 0), (0.99999946, 0.0010521152, 0), (0.99999946, 0.0010520868, 0), (0.99999946, 0.0010521435, 0), (0.99999946, 0.0010521152, 0), (0.99999946, 0.0010521435, 0), (0.99999946, 0.0010521152, 0)] (
        interpolation = "faceVarying"
    )
    point3f[] points = [(-0.0031214599, 0.045221675, 0.21631385), (0.0030247786, 0.046667136, 0.21631385), (0.0030247786, 0.046667136, -0.21631385), (-0.0031214599, 0.045221675, -0.21631385), (0.0031214575, -0.045221683, -0.21631385), (-0.0030247737, -0.046667144, -0.21631385), (0.0031214575, -0.045221683, 0.21631385), (-0.0030247737, -0.046667144, 0.21631385)]
}

