#usda 1.0
(
    defaultPrim = "UCX_Dishwasher_Tray_02_032"
    upAxis = "Z"
)

def Mesh "UCX_Dishwasher_Tray_02_032"
{
    int[] faceVertexCounts = [3, 3, 3, 3, 3, 3, 3, 3, 3, 3, 3, 3, 3, 3, 3, 3, 3, 3, 3, 3, 3, 3, 3, 3, 3, 3, 3, 3]
    int[] faceVertexIndices = [0, 1, 2, 0, 2, 3, 3, 2, 4, 3, 4, 5, 5, 4, 6, 5, 6, 7, 7, 6, 8, 7, 8, 9, 9, 8, 10, 9, 10, 11, 11, 10, 12, 11, 12, 13, 4, 2, 1, 1, 14, 12, 12, 10, 8, 8, 6, 4, 4, 1, 12, 12, 8, 4, 13, 12, 14, 13, 14, 15, 15, 14, 1, 15, 1, 0, 15, 0, 3, 3, 5, 7, 7, 9, 11, 11, 13, 15, 15, 3, 7, 7, 11, 15]
    normal3f[] normals = [(0.13677426, 0.9906023, -8.887513e-8), (-0.13677427, 0.9906023, -1.1794393e-7), (0.6037499, 0.7971738, -8.5540904e-8), (0.13677426, 0.9906023, -8.887513e-8), (0.6037499, 0.7971738, -8.5540904e-8), (0.7971745, 0.6037491, -3.767176e-8), (0.7971745, 0.6037491, -3.767176e-8), (0.6037499, 0.7971738, -8.5540904e-8), (0.99060214, 0.13677543, -1.472954e-8), (0.7971745, 0.6037491, -3.767176e-8), (0.99060214, 0.13677543, -1.472954e-8), (0.990602, -0.13677588, -1.2986799e-8), (0.990602, -0.13677588, -1.2986799e-8), (0.99060214, 0.13677543, -1.472954e-8), (0.7971732, -0.6037507, -5.5566584e-8), (0.990602, -0.13677588, -1.2986799e-8), (0.7971732, -0.6037507, -5.5566584e-8), (0.6037477, -0.79717547, -9.351229e-8), (0.6037477, -0.79717547, -9.351229e-8), (0.7971732, -0.6037507, -5.5566584e-8), (0.13677426, -0.9906023, -1.1321488e-7), (0.6037477, -0.79717547, -9.351229e-8), (0.13677426, -0.9906023, -1.1321488e-7), (-0.13677426, -0.9906023, -1.1321488e-7), (-0.13677426, -0.9906023, -1.1321488e-7), (0.13677426, -0.9906023, -1.1321488e-7), (-0.6037477, -0.79717547, -7.897789e-8), (-0.13677426, -0.9906023, -1.1321488e-7), (-0.6037477, -0.79717547, -7.897789e-8), (-0.7971733, -0.6037507, -5.5566584e-8), (-0.7971733, -0.6037507, -5.5566584e-8), (-0.6037477, -0.79717547, -7.897789e-8), (-0.99060214, -0.1367754, -1.6503932e-8), (-0.7971733, -0.6037507, -5.5566584e-8), (-0.99060214, -0.1367754, -1.6503932e-8), (-0.99060214, 0.13677545, -1.5077422e-8), (0.99060214, 0.13677543, -1.472954e-8), (0.6037499, 0.7971738, -8.5540904e-8), (-0.13677427, 0.9906023, -1.1794393e-7), (-0.13677427, 0.9906023, -1.1794393e-7), (-0.7971745, 0.6037491, -3.767176e-8), (-0.99060214, -0.1367754, -1.6503932e-8), (-0.99060214, -0.1367754, -1.6503932e-8), (-0.6037477, -0.79717547, -7.897789e-8), (0.13677426, -0.9906023, -1.1321488e-7), (0.13677426, -0.9906023, -1.1321488e-7), (0.7971732, -0.6037507, -5.5566584e-8), (0.99060214, 0.13677543, -1.472954e-8), (0.99060214, 0.13677543, -1.472954e-8), (-0.13677427, 0.9906023, -1.1794393e-7), (-0.99060214, -0.1367754, -1.6503932e-8), (-0.99060214, -0.1367754, -1.6503932e-8), (0.13677426, -0.9906023, -1.1321488e-7), (0.99060214, 0.13677543, -1.472954e-8), (-0.99060214, 0.13677545, -1.5077422e-8), (-0.99060214, -0.1367754, -1.6503932e-8), (-0.7971745, 0.6037491, -3.767176e-8), (-0.99060214, 0.13677545, -1.5077422e-8), (-0.7971745, 0.6037491, -3.767176e-8), (-0.6037477, 0.7971756, -5.3223197e-8), (-0.6037477, 0.7971756, -5.3223197e-8), (-0.7971745, 0.6037491, -3.767176e-8), (-0.13677427, 0.9906023, -1.1794393e-7), (-0.6037477, 0.7971756, -5.3223197e-8), (-0.13677427, 0.9906023, -1.1794393e-7), (0.13677426, 0.9906023, -8.887513e-8), (-0.6037477, 0.7971756, -5.3223197e-8), (0.13677426, 0.9906023, -8.887513e-8), (0.7971745, 0.6037491, -3.767176e-8), (0.7971745, 0.6037491, -3.767176e-8), (0.990602, -0.13677588, -1.2986799e-8), (0.6037477, -0.79717547, -9.351229e-8), (0.6037477, -0.79717547, -9.351229e-8), (-0.13677426, -0.9906023, -1.1321488e-7), (-0.7971733, -0.6037507, -5.5566584e-8), (-0.7971733, -0.6037507, -5.5566584e-8), (-0.99060214, 0.13677545, -1.5077422e-8), (-0.6037477, 0.7971756, -5.3223197e-8), (-0.6037477, 0.7971756, -5.3223197e-8), (0.7971745, 0.6037491, -3.767176e-8), (0.6037477, -0.79717547, -9.351229e-8), (0.6037477, -0.79717547, -9.351229e-8), (-0.7971733, -0.6037507, -5.5566584e-8), (-0.6037477, 0.7971756, -5.3223197e-8)] (
        interpolation = "faceVarying"
    )
    point3f[] points = [(1.2062071e-10, 0.0019999966, -0.035200037), (1.2062071e-10, 0.0020000045, 0.035200004), (0.0014142097, 0.001414217, 0.0352), (0.0014142097, 0.0014142093, -0.03520004), (0.0020000043, -7.197263e-9, 0.0352), (0.0020000043, -3.1239566e-11, -0.03520004), (0.0014142097, -0.0014142165, 0.035200004), (0.0014142097, -0.0014142088, -0.035200037), (1.2062071e-10, -0.0020000038, 0.0352), (1.2062071e-10, -0.0019999964, -0.03520004), (-0.0014142095, -0.0014142165, 0.035200004), (-0.0014142095, -0.0014142088, -0.035200037), (-0.0020000038, -7.197263e-9, 0.0352), (-0.0020000038, -3.1239566e-11, -0.03520004), (-0.0014142095, 0.001414217, 0.0352), (-0.0014142095, 0.0014142093, -0.03520004)]
}

