#usda 1.0
(
    defaultPrim = "UCX_Counter_Watertab_005"
    upAxis = "Z"
)

def Mesh "UCX_Counter_Watertab_005"
{
    int[] faceVertexCounts = [3, 3, 3, 3, 3, 3, 3, 3, 3, 3, 3, 3, 3, 3, 3, 3, 3, 3, 3, 3, 3, 3, 3, 3, 3, 3, 3, 3, 3, 3, 3, 3, 3, 3, 3, 3, 3, 3, 3, 3, 3, 3, 3, 3, 3, 3, 3, 3, 3, 3, 3, 3, 3, 3, 3, 3, 3, 3, 3, 3, 3, 3, 3, 3]
    int[] faceVertexIndices = [0, 1, 2, 0, 2, 3, 3, 2, 4, 3, 4, 5, 5, 4, 6, 5, 6, 7, 7, 6, 8, 7, 8, 9, 9, 8, 10, 9, 10, 11, 11, 10, 12, 11, 12, 13, 13, 12, 14, 13, 14, 15, 15, 14, 16, 15, 16, 17, 17, 16, 18, 17, 18, 19, 19, 18, 20, 19, 20, 21, 21, 20, 22, 21, 22, 23, 23, 22, 24, 23, 24, 25, 25, 24, 26, 25, 26, 27, 27, 26, 28, 27, 28, 29, 29, 28, 30, 29, 30, 31, 31, 30, 32, 31, 32, 33, 33, 32, 34, 33, 34, 35, 35, 34, 36, 35, 36, 37, 37, 36, 38, 37, 38, 39, 39, 38, 40, 39, 40, 41, 41, 40, 42, 41, 42, 43, 43, 42, 44, 43, 44, 45, 45, 44, 46, 45, 46, 47, 47, 46, 48, 47, 48, 49, 49, 48, 50, 49, 50, 51, 51, 50, 52, 51, 52, 53, 53, 52, 54, 53, 54, 55, 55, 54, 56, 55, 56, 57, 57, 56, 58, 57, 58, 59, 59, 58, 60, 59, 60, 61, 61, 60, 62, 61, 62, 63, 63, 62, 1, 63, 1, 0]
    normal3f[] normals = [(-0.51117516, 0.8561946, -0.075039476), (-0.5110815, 0.84842926, -0.13770832), (-0.5052441, 0.8613688, 0.052653294), (-0.51117516, 0.8561946, -0.075039476), (-0.5052441, 0.8613688, 0.052653294), (-0.5000918, 0.8587109, 0.11191016), (-0.5000918, 0.8587109, 0.11191016), (-0.5052441, 0.8613688, 0.052653294), (-0.48161095, 0.8424133, 0.24164206), (-0.5000918, 0.8587109, 0.11191016), (-0.48161095, 0.8424133, 0.24164206), (-0.47185767, 0.8304406, 0.29617354), (-0.47185767, 0.8304406, 0.29617354), (-0.48161095, 0.8424133, 0.24164206), (-0.44055754, 0.79188925, 0.42287198), (-0.47185767, 0.8304406, 0.29617354), (-0.44055754, 0.79188925, 0.42287198), (-0.426606, 0.77153575, 0.4719533), (-0.426606, 0.77153575, 0.4719533), (-0.44055754, 0.79188925, 0.42287198), (-0.38282204, 0.7110594, 0.5897813), (-0.426606, 0.77153575, 0.4719533), (-0.38282204, 0.7110594, 0.5897813), (-0.3647445, 0.68288726, 0.63295066), (-0.3647445, 0.68288726, 0.63295066), (-0.38282204, 0.7110594, 0.5897813), (-0.30964273, 0.60231745, 0.7357548), (-0.3647445, 0.68288726, 0.63295066), (-0.30964273, 0.60231745, 0.7357548), (-0.28721032, 0.56650376, 0.77238834), (-0.28721032, 0.56650376, 0.77238834), (-0.30964273, 0.60231745, 0.7357548), (-0.2229244, 0.46939614, 0.85438406), (-0.28721032, 0.56650376, 0.77238834), (-0.2229244, 0.46939614, 0.85438406), (-0.19577517, 0.4259413, 0.8833154), (-0.19577517, 0.4259413, 0.8833154), (-0.2229244, 0.46939614, 0.85438406), (-0.12533815, 0.31743988, 0.93995863), (-0.19577517, 0.4259413, 0.8833154), (-0.12533815, 0.31743988, 0.93995863), (-0.09329089, 0.26659566, 0.95928293), (-0.09329089, 0.26659566, 0.95928293), (-0.12533815, 0.31743988, 0.93995863), (-0.020347532, 0.15289357, 0.9880332), (-0.09329089, 0.26659566, 0.95928293), (-0.020347532, 0.15289357, 0.9880332), (0.016210295, 0.09569214, 0.9952791), (0.016210295, 0.09569214, 0.9952791), (-0.020347532, 0.15289357, 0.9880332), (0.08789834, -0.016868051, 0.99598664), (0.016210295, 0.09569214, 0.9952791), (0.08789834, -0.016868051, 0.99598664), (0.12769608, -0.07821668, 0.98872435), (0.12769608, -0.07821668, 0.98872435), (0.08789834, -0.016868051, 0.99598664), (0.19479513, -0.18413356, 0.9634053), (0.12769608, -0.07821668, 0.98872435), (0.19479513, -0.18413356, 0.9634053), (0.2356073, -0.24622792, 0.9401389), (0.2356073, -0.24622792, 0.9401389), (0.19479513, -0.18413356, 0.9634053), (0.2955993, -0.34155738, 0.89216566), (0.2356073, -0.24622792, 0.9401389), (0.2955993, -0.34155738, 0.89216566), (0.3345211, -0.40029514, 0.8531468), (0.3345211, -0.40029514, 0.8531468), (0.2955993, -0.34155738, 0.89216566), (0.38577032, -0.48280486, 0.7861811), (0.3345211, -0.40029514, 0.8531468), (0.38577032, -0.48280486, 0.7861811), (0.41977593, -0.5342247, 0.7337521), (0.41977593, -0.5342247, 0.7337521), (0.38577032, -0.48280486, 0.7861811), (0.46127775, -0.6029761, 0.6508785), (0.41977593, -0.5342247, 0.7337521), (0.46127775, -0.6029761, 0.6508785), (0.48787913, -0.6441412, 0.58911467), (0.48787913, -0.6441412, 0.58911467), (0.46127775, -0.6029761, 0.6508785), (0.518845, -0.6987347, 0.49251363), (0.48787913, -0.6441412, 0.58911467), (0.518845, -0.6987347, 0.49251363), (0.53656995, -0.72824556, 0.4263231), (0.53656995, -0.72824556, 0.4263231), (0.518845, -0.6987347, 0.49251363), (0.5560698, -0.7680744, 0.31756595), (0.53656995, -0.72824556, 0.4263231), (0.5560698, -0.7680744, 0.31756595), (0.56462294, -0.7860731, 0.2515751), (0.56462294, -0.7860731, 0.2515751), (0.5560698, -0.7680744, 0.31756595), (0.57147014, -0.8098865, 0.13230994), (0.56462294, -0.7860731, 0.2515751), (0.57147014, -0.8098865, 0.13230994), (0.5715403, -0.8175854, 0.06997141), (0.5715403, -0.8175854, 0.06997141), (0.57147014, -0.8098865, 0.13230994), (0.5644578, -0.82347316, -0.057265833), (0.5715403, -0.8175854, 0.06997141), (0.5644578, -0.82347316, -0.057265833), (0.55728954, -0.82244486, -0.11407449), (0.55728954, -0.82244486, -0.11407449), (0.5644578, -0.82347316, -0.057265833), (0.5353135, -0.80825716, -0.24527542), (0.55728954, -0.82244486, -0.11407449), (0.5353135, -0.80825716, -0.24527542), (0.52221584, -0.7997514, -0.29612207), (0.52221584, -0.7997514, -0.29612207), (0.5353135, -0.80825716, -0.24527542), (0.48518512, -0.76381683, -0.4256518), (0.52221584, -0.7997514, -0.29612207), (0.48518512, -0.76381683, -0.4256518), (0.46714827, -0.74830705, -0.47096613), (0.46714827, -0.74830705, -0.47096613), (0.48518512, -0.76381683, -0.4256518), (0.41610923, -0.6902415, -0.5919627), (0.46714827, -0.74830705, -0.47096613), (0.41610923, -0.6902415, -0.5919627), (0.3936532, -0.66733867, -0.6322154), (0.3936532, -0.66733867, -0.6322154), (0.41610923, -0.6902415, -0.5919627), (0.33100706, -0.5886619, -0.7375036), (0.3936532, -0.66733867, -0.6322154), (0.33100706, -0.5886619, -0.7375036), (0.30430463, -0.5574298, -0.7724448), (0.30430463, -0.5574298, -0.7724448), (0.33100706, -0.5886619, -0.7375036), (0.23360643, -0.46172675, -0.8557082), (0.30430463, -0.5574298, -0.7724448), (0.23360643, -0.46172675, -0.8557082), (0.20283194, -0.4213349, -0.88393223), (0.20283194, -0.4213349, -0.88393223), (0.23360643, -0.46172675, -0.8557082), (0.12826766, -0.31384107, -0.9407717), (0.20283194, -0.4213349, -0.88393223), (0.12826766, -0.31384107, -0.9407717), (0.0939894, -0.26431075, -0.9598468), (0.0939894, -0.26431075, -0.9598468), (0.12826766, -0.31384107, -0.9407717), (0.019705225, -0.15105484, -0.988329), (0.0939894, -0.26431075, -0.9598468), (0.019705225, -0.15105484, -0.988329), (-0.01685554, -0.0938118, -0.9954472), (-0.01685554, -0.0938118, -0.9954472), (0.019705225, -0.15105484, -0.988329), (-0.08734099, 0.019364998, -0.9959903), (-0.01685554, -0.0938118, -0.9954472), (-0.08734099, 0.019364998, -0.9959903), (-0.12433766, 0.08141666, -0.98889405), (-0.12433766, 0.08141666, -0.98889405), (-0.08734099, 0.019364998, -0.9959903), (-0.1884514, 0.18960021, -0.9636067), (-0.12433766, 0.08141666, -0.98889405), (-0.1884514, 0.18960021, -0.9636067), (-0.22370392, 0.25251386, -0.94137853), (-0.22370392, 0.25251386, -0.94137853), (-0.1884514, 0.18960021, -0.9636067), (-0.27981767, 0.3520111, -0.8931911), (-0.22370392, 0.25251386, -0.94137853), (-0.27981767, 0.3520111, -0.8931911), (-0.31122696, 0.41154462, -0.8566031), (-0.31122696, 0.41154462, -0.8566031), (-0.27981767, 0.3520111, -0.8931911), (-0.35840946, 0.4997292, -0.78855145), (-0.31122696, 0.41154462, -0.8566031), (-0.35840946, 0.4997292, -0.78855145), (-0.38432583, 0.55211216, -0.7399093), (-0.38432583, 0.55211216, -0.7399093), (-0.35840946, 0.4997292, -0.78855145), (-0.4220191, 0.62705314, -0.65475523), (-0.38432583, 0.55211216, -0.7399093), (-0.4220191, 0.62705314, -0.65475523), (-0.44144893, 0.6695242, -0.59737796), (-0.44144893, 0.6695242, -0.59737796), (-0.4220191, 0.62705314, -0.65475523), (-0.4691781, 0.72956514, -0.49760106), (-0.44144893, 0.6695242, -0.59737796), (-0.4691781, 0.72956514, -0.49760106), (-0.4818055, 0.76058257, -0.43517545), (-0.4818055, 0.76058257, -0.43517545), (-0.4691781, 0.72956514, -0.49760106), (-0.4990137, 0.8040736, -0.3231889), (-0.4818055, 0.76058257, -0.43517545), (-0.4990137, 0.8040736, -0.3231889), (-0.5050772, 0.82323277, -0.25920054), (-0.5050772, 0.82323277, -0.25920054), (-0.4990137, 0.8040736, -0.3231889), (-0.5110815, 0.84842926, -0.13770832), (-0.5050772, 0.82323277, -0.25920054), (-0.5110815, 0.84842926, -0.13770832), (-0.51117516, 0.8561946, -0.075039476)] (
        interpolation = "faceVarying"
    )
    point3f[] points = [(0.009472687, 0.019053267, -0.0023580354), (-0.018805264, 0.0023537895, -0.0003310474), (-0.01865948, 0.0024701722, 0.0022105612), (0.009512737, 0.019124098, 0.00018904534), (-0.018217703, 0.0021869293, 0.0047043934), (0.009641351, 0.018705977, 0.0026990813), (-0.017496923, 0.0015149594, 0.0070546097), (0.009853607, 0.017814958, 0.005075611), (-0.016524836, 0.00048008322, 0.009170892), (0.010141325, 0.016485302, 0.0072273053), (-0.0153388055, -0.0008779224, 0.010971913), (0.010493472, 0.014768076, 0.009071481), (-0.013984385, -0.0025068992, 0.012388465), (0.010896486, 0.012729309, 0.01053726), (-0.0125136515, -0.0043442147, 0.013366105), (0.011334902, 0.010447314, 0.011568321), (-0.010983119, -0.006319266, 0.013867266), (0.011791867, 0.008009823, 0.012125034), (-0.009451591, -0.008356172, 0.013872687), (0.012249813, 0.0055104834, 0.012186008), (-0.0079779355, -0.010376641, 0.013382161), (0.012691141, 0.0030453475, 0.011748899), (-0.006618772, -0.012303041, 0.012414539), (0.013098914, 0.00070914853, 0.010830508), (-0.005426357, -0.014061313, 0.0110070035), (0.01345743, -0.0014083347, 0.009466123), (-0.004446492, -0.015583914, 0.009213649), (0.013752935, -0.003225729, 0.007708182), (-0.0037168371, -0.016812325, 0.0071033896), (0.013974057, -0.004673178, 0.005624237), (-0.0032654363, -0.017699337, 0.004757323), (0.014112304, -0.0056950795, 0.0032943736), (-0.003109633, -0.018210864, 0.0022656082), (0.014162369, -0.006252152, 0.0008081306), (-0.003255422, -0.01832724, -0.00027600108), (0.0141223185, -0.0063229837, -0.00173895), (-0.0036971935, -0.018044004, -0.002769832), (0.013993701, -0.005904856, -0.0042489856), (-0.0044179736, -0.017372033, -0.0051200483), (0.0137814535, -0.005013849, -0.006625515), (-0.00539006, -0.016337158, -0.0072363312), (0.013493727, -0.0036841794, -0.008777211), (-0.006576092, -0.014979152, -0.009037352), (0.013141595, -0.0019669617, -0.010621385), (-0.007930512, -0.013350175, -0.010453903), (0.012738566, 0.00007181329, -0.012087164), (-0.009401246, -0.011512859, -0.011431544), (0.012300159, 0.0023537963, -0.013118224), (-0.010931787, -0.0095377965, -0.0119327055), (0.011843199, 0.0047912924, -0.013674937), (-0.012463306, -0.007500902, -0.011938126), (0.011385247, 0.0072906264, -0.013735911), (-0.013936961, -0.0054804333, -0.011447598), (0.01094391, 0.009755774, -0.013298803), (-0.015296125, -0.0035540326, -0.010479978), (0.010536153, 0.012091966, -0.012380411), (-0.016488539, -0.0017957614, -0.009072443), (0.010177622, 0.014209457, -0.011016029), (-0.017468406, -0.0002731604, -0.0072790873), (0.009882125, 0.01602684, -0.009258086), (-0.01819806, 0.00095525116, -0.005168828), (0.009660995, 0.0174743, -0.0071741412), (-0.018649464, 0.0018422682, -0.0028227626), (0.009522752, 0.018496195, -0.0048442786)]
}

