#usda 1.0
(
    defaultPrim = "UCX_Fridge_Egg_Tray_013"
    upAxis = "Z"
)

def Mesh "UCX_Fridge_Egg_Tray_013"
{
    int[] faceVertexCounts = [3, 3, 3, 3, 3, 3, 3, 3, 3, 3, 3, 3]
    int[] faceVertexIndices = [0, 1, 2, 0, 2, 3, 4, 5, 6, 4, 6, 7, 7, 0, 3, 7, 3, 4, 3, 2, 5, 3, 5, 4, 6, 5, 2, 6, 2, 1, 1, 0, 7, 1, 7, 6]
    normal3f[] normals = [(-1, -0, 1.4731768e-8), (1, 0, 2.9294643e-8), (1, 0, 2.9294643e-8), (-1, -0, 1.4731768e-8), (1, 0, 2.9294643e-8), (-1, -0, 2.9407238e-8), (-1, -0, 1.4731768e-8), (1, 0, 1.46191725e-8), (1, 0, 1.46191725e-8), (-1, -0, 1.4731768e-8), (1, 0, 1.46191725e-8), (-1, -0, 5.629769e-11), (-1, -0, 5.629769e-11), (-1, -0, 1.4731768e-8), (-1, -0, 2.9407238e-8), (-1, -0, 5.629769e-11), (-1, -0, 2.9407238e-8), (-1, -0, 1.4731768e-8), (-1, -0, 2.9407238e-8), (1, 0, 2.9294643e-8), (1, 0, 1.46191725e-8), (-1, -0, 2.9407238e-8), (1, 0, 1.46191725e-8), (-1, -0, 1.4731768e-8), (1, 0, 1.46191725e-8), (1, 0, 1.46191725e-8), (1, 0, 2.9294643e-8), (1, 0, 1.46191725e-8), (1, 0, 2.9294643e-8), (1, 0, 2.9294643e-8), (1, 0, 2.9294643e-8), (-1, -0, 1.4731768e-8), (-1, -0, 5.629769e-11), (1, 0, 2.9294643e-8), (-1, -0, 5.629769e-11), (1, 0, 1.46191725e-8)] (
        interpolation = "faceVarying"
    )
    point3f[] points = [(-0.00090000214, -0.0030669197, 0.051750027), (0.000900002, -0.0030669197, 0.05175003), (0.000900002, 0.0030669197, 0.05175003), (-0.00090000214, 0.0030669197, 0.051750027), (-0.0009000027, 0.0030669197, -0.051750008), (0.00090000324, 0.0030669197, -0.051750004), (0.00090000324, -0.0030669197, -0.051750004), (-0.0009000027, -0.0030669197, -0.051750008)]
}

