#usda 1.0
(
    defaultPrim = "UCX_Dishwasher_Tray_01_071"
    upAxis = "Z"
)

def Mesh "UCX_Dishwasher_Tray_01_071"
{
    int[] faceVertexCounts = [3, 3, 3, 3, 3, 3, 3, 3, 3, 3, 3, 3, 3, 3, 3, 3, 3, 3, 3, 3, 3, 3, 3, 3, 3, 3, 3, 3]
    int[] faceVertexIndices = [0, 1, 2, 0, 2, 3, 3, 2, 4, 3, 4, 5, 5, 4, 6, 5, 6, 7, 7, 6, 8, 7, 8, 9, 9, 8, 10, 9, 10, 11, 11, 10, 12, 11, 12, 13, 4, 2, 1, 1, 14, 12, 12, 10, 8, 8, 6, 4, 4, 1, 12, 12, 8, 4, 13, 12, 14, 13, 14, 15, 15, 14, 1, 15, 1, 0, 15, 0, 3, 3, 5, 7, 7, 9, 11, 11, 13, 15, 15, 3, 7, 7, 11, 15]
    normal3f[] normals = [(0.9906023, -0.13677368, -3.992027e-9), (0.9906023, 0.13677368, 4.147561e-9), (0.7971756, -0.60374767, -2.1515497e-8), (0.9906023, -0.13677368, -3.992027e-9), (0.7971756, -0.60374767, -2.1515497e-8), (0.60374844, -0.7971749, -2.3226399e-8), (0.60374844, -0.7971749, -2.3226399e-8), (0.7971756, -0.60374767, -2.1515497e-8), (0.13677244, -0.9906025, -2.9033034e-8), (0.60374844, -0.7971749, -2.3226399e-8), (0.13677244, -0.9906025, -2.9033034e-8), (-0.13677244, -0.9906025, -2.8825655e-8), (-0.13677244, -0.9906025, -2.8825655e-8), (0.13677244, -0.9906025, -2.9033034e-8), (-0.6037454, -0.79717726, -2.3226415e-8), (-0.13677244, -0.9906025, -2.8825655e-8), (-0.6037454, -0.79717726, -2.3226415e-8), (-0.7971738, -0.6037499, -2.1567294e-8), (-0.7971738, -0.6037499, -2.1567294e-8), (-0.6037454, -0.79717726, -2.3226415e-8), (-0.99060214, -0.1367749, -4.1475454e-9), (-0.7971738, -0.6037499, -2.1567294e-8), (-0.99060214, -0.1367749, -4.1475454e-9), (-0.99060214, 0.1367749, 3.940168e-9), (-0.99060214, 0.1367749, 3.940168e-9), (-0.99060214, -0.1367749, -4.1475454e-9), (-0.79717386, 0.6037499, 2.1567296e-8), (-0.99060214, 0.1367749, 3.940168e-9), (-0.79717386, 0.6037499, 2.1567296e-8), (-0.6037454, 0.7971772, 2.3226415e-8), (-0.6037454, 0.7971772, 2.3226415e-8), (-0.79717386, 0.6037499, 2.1567296e-8), (-0.13677244, 0.9906025, 2.9862548e-8), (-0.6037454, 0.7971772, 2.3226415e-8), (-0.13677244, 0.9906025, 2.9862548e-8), (0.13677244, 0.9906025, 2.8825655e-8), (0.13677244, -0.9906025, -2.9033034e-8), (0.7971756, -0.60374767, -2.1515497e-8), (0.9906023, 0.13677368, 4.147561e-9), (0.9906023, 0.13677368, 4.147561e-9), (0.60374844, 0.7971749, 2.3174554e-8), (-0.13677244, 0.9906025, 2.9862548e-8), (-0.13677244, 0.9906025, 2.9862548e-8), (-0.79717386, 0.6037499, 2.1567296e-8), (-0.99060214, -0.1367749, -4.1475454e-9), (-0.99060214, -0.1367749, -4.1475454e-9), (-0.6037454, -0.79717726, -2.3226415e-8), (0.13677244, -0.9906025, -2.9033034e-8), (0.13677244, -0.9906025, -2.9033034e-8), (0.9906023, 0.13677368, 4.147561e-9), (-0.13677244, 0.9906025, 2.9862548e-8), (-0.13677244, 0.9906025, 2.9862548e-8), (-0.99060214, -0.1367749, -4.1475454e-9), (0.13677244, -0.9906025, -2.9033034e-8), (0.13677244, 0.9906025, 2.8825655e-8), (-0.13677244, 0.9906025, 2.9862548e-8), (0.60374844, 0.7971749, 2.3174554e-8), (0.13677244, 0.9906025, 2.8825655e-8), (0.60374844, 0.7971749, 2.3174554e-8), (0.79717547, 0.60374767, 2.156734e-8), (0.79717547, 0.60374767, 2.156734e-8), (0.60374844, 0.7971749, 2.3174554e-8), (0.9906023, 0.13677368, 4.147561e-9), (0.79717547, 0.60374767, 2.156734e-8), (0.9906023, 0.13677368, 4.147561e-9), (0.9906023, -0.13677368, -3.992027e-9), (0.79717547, 0.60374767, 2.156734e-8), (0.9906023, -0.13677368, -3.992027e-9), (0.60374844, -0.7971749, -2.3226399e-8), (0.60374844, -0.7971749, -2.3226399e-8), (-0.13677244, -0.9906025, -2.8825655e-8), (-0.7971738, -0.6037499, -2.1567294e-8), (-0.7971738, -0.6037499, -2.1567294e-8), (-0.99060214, 0.1367749, 3.940168e-9), (-0.6037454, 0.7971772, 2.3226415e-8), (-0.6037454, 0.7971772, 2.3226415e-8), (0.13677244, 0.9906025, 2.8825655e-8), (0.79717547, 0.60374767, 2.156734e-8), (0.79717547, 0.60374767, 2.156734e-8), (0.60374844, -0.7971749, -2.3226399e-8), (-0.7971738, -0.6037499, -2.1567294e-8), (-0.7971738, -0.6037499, -2.1567294e-8), (-0.6037454, 0.7971772, 2.3226415e-8), (0.79717547, 0.60374767, 2.156734e-8)] (
        interpolation = "faceVarying"
    )
    point3f[] points = [(0.0019999975, 1.4250421e-8, -0.25600016), (0.0019999975, -1.5551901e-8, 0.2560001), (0.0014142107, -0.0014142252, 0.2560001), (0.0014142107, -0.0014142103, -0.25600016), (1.0157535e-9, -0.0020000048, 0.2560001), (1.0157535e-9, -0.0019999899, -0.25600016), (-0.0014142086, -0.0014142252, 0.2560001), (-0.0014142086, -0.0014142103, -0.25600016), (-0.0020000031, -1.5551901e-8, 0.2560001), (-0.0020000031, 1.4250421e-8, -0.25600016), (-0.0014142086, 0.0014142089, 0.2560001), (-0.0014142086, 0.0014142238, -0.25600016), (1.0157535e-9, 0.0019999885, 0.2560001), (1.0157535e-9, 0.0020000034, -0.25600016), (0.0014142107, 0.0014142089, 0.2560001), (0.0014142107, 0.0014142238, -0.25600016)]
}

