#usda 1.0
(
    defaultPrim = "UCX_Dishwasher_Tray_02_013"
    upAxis = "Z"
)

def Mesh "UCX_Dishwasher_Tray_02_013"
{
    int[] faceVertexCounts = [3, 3, 3, 3, 3, 3, 3, 3, 3, 3, 3, 3, 3, 3, 3, 3, 3, 3, 3, 3, 3, 3, 3, 3, 3, 3, 3, 3]
    int[] faceVertexIndices = [0, 1, 2, 0, 2, 3, 3, 2, 4, 3, 4, 5, 5, 4, 6, 5, 6, 7, 7, 6, 8, 7, 8, 9, 9, 8, 10, 9, 10, 11, 11, 10, 12, 11, 12, 13, 4, 2, 1, 1, 14, 12, 12, 10, 8, 8, 6, 4, 4, 1, 12, 12, 8, 4, 13, 12, 14, 13, 14, 15, 15, 14, 1, 15, 1, 0, 15, 0, 3, 3, 5, 7, 7, 9, 11, 11, 13, 15, 15, 3, 7, 7, 11, 15]
    normal3f[] normals = [(0.13677382, 0.9906023, 2.1085373e-8), (-0.13677405, 0.99060225, 7.942505e-9), (0.60374814, 0.7971752, 1.0748206e-8), (0.13677382, 0.9906023, 2.1085373e-8), (0.60374814, 0.7971752, 1.0748206e-8), (0.7971739, 0.6037498, -8.091421e-9), (0.7971739, 0.6037498, -8.091421e-9), (0.60374814, 0.7971752, 1.0748206e-8), (0.99060214, 0.1367755, 2.9939664e-9), (0.7971739, 0.6037498, -8.091421e-9), (0.99060214, 0.1367755, 2.9939664e-9), (0.99060214, -0.13677552, -2.2982025e-9), (0.99060214, -0.13677552, -2.2982025e-9), (0.99060214, 0.1367755, 2.9939664e-9), (0.79717374, -0.60375, -1.6802787e-8), (0.99060214, -0.13677552, -2.2982025e-9), (0.79717374, -0.60375, -1.6802787e-8), (0.603748, -0.7971752, -1.0748206e-8), (0.603748, -0.7971752, -1.0748206e-8), (0.79717374, -0.60375, -1.6802787e-8), (0.13677445, -0.99060225, -7.942505e-9), (0.603748, -0.7971752, -1.0748206e-8), (0.13677445, -0.99060225, -7.942505e-9), (-0.13677363, -0.9906023, -2.1085373e-8), (-0.13677363, -0.9906023, -2.1085373e-8), (0.13677445, -0.99060225, -7.942505e-9), (-0.603748, -0.7971752, 3.7861896e-9), (-0.13677363, -0.9906023, -2.1085373e-8), (-0.603748, -0.7971752, 3.7861896e-9), (-0.7971739, -0.6037498, -6.442975e-9), (-0.7971739, -0.6037498, -6.442975e-9), (-0.603748, -0.7971752, 3.7861896e-9), (-0.99060214, -0.13677543, 2.8817038e-9), (-0.7971739, -0.6037498, -6.442975e-9), (-0.99060214, -0.13677543, 2.8817038e-9), (-0.99060214, 0.1367755, -2.456432e-9), (0.99060214, 0.1367755, 2.9939664e-9), (0.60374814, 0.7971752, 1.0748206e-8), (-0.13677405, 0.99060225, 7.942505e-9), (-0.13677405, 0.99060225, 7.942505e-9), (-0.79717374, 0.60375, 2.2683913e-9), (-0.99060214, -0.13677543, 2.8817038e-9), (-0.99060214, -0.13677543, 2.8817038e-9), (-0.603748, -0.7971752, 3.7861896e-9), (0.13677445, -0.99060225, -7.942505e-9), (0.13677445, -0.99060225, -7.942505e-9), (0.79717374, -0.60375, -1.6802787e-8), (0.99060214, 0.1367755, 2.9939664e-9), (0.99060214, 0.1367755, 2.9939664e-9), (-0.13677405, 0.99060225, 7.942505e-9), (-0.99060214, -0.13677543, 2.8817038e-9), (-0.99060214, -0.13677543, 2.8817038e-9), (0.13677445, -0.99060225, -7.942505e-9), (0.99060214, 0.1367755, 2.9939664e-9), (-0.99060214, 0.1367755, -2.456432e-9), (-0.99060214, -0.13677543, 2.8817038e-9), (-0.79717374, 0.60375, 2.2683913e-9), (-0.99060214, 0.1367755, -2.456432e-9), (-0.79717374, 0.60375, 2.2683913e-9), (-0.6037479, 0.79717547, 5.1820948e-9), (-0.6037479, 0.79717547, 5.1820948e-9), (-0.79717374, 0.60375, 2.2683913e-9), (-0.13677405, 0.99060225, 7.942505e-9), (-0.6037479, 0.79717547, 5.1820948e-9), (-0.13677405, 0.99060225, 7.942505e-9), (0.13677382, 0.9906023, 2.1085373e-8), (-0.6037479, 0.79717547, 5.1820948e-9), (0.13677382, 0.9906023, 2.1085373e-8), (0.7971739, 0.6037498, -8.091421e-9), (0.7971739, 0.6037498, -8.091421e-9), (0.99060214, -0.13677552, -2.2982025e-9), (0.603748, -0.7971752, -1.0748206e-8), (0.603748, -0.7971752, -1.0748206e-8), (-0.13677363, -0.9906023, -2.1085373e-8), (-0.7971739, -0.6037498, -6.442975e-9), (-0.7971739, -0.6037498, -6.442975e-9), (-0.99060214, 0.1367755, -2.456432e-9), (-0.6037479, 0.79717547, 5.1820948e-9), (-0.6037479, 0.79717547, 5.1820948e-9), (0.7971739, 0.6037498, -8.091421e-9), (0.603748, -0.7971752, -1.0748206e-8), (0.603748, -0.7971752, -1.0748206e-8), (-0.7971739, -0.6037498, -6.442975e-9), (-0.6037479, 0.79717547, 5.1820948e-9)] (
        interpolation = "faceVarying"
    )
    point3f[] points = [(3.5515313e-11, 0.0020000006, -0.03520002), (3.5515313e-11, 0.0019999992, 0.035200022), (0.0014142096, 0.0014142136, 0.03520002), (0.0014142096, 0.0014142131, -0.035200022), (0.002000004, -1.6640944e-10, 0.03520002), (0.002000004, 1.6640944e-10, -0.03520002), (0.0014142096, -0.0014142139, 0.035200022), (0.0014142096, -0.0014142127, -0.03520002), (3.5515313e-11, -0.0019999996, 0.03520002), (3.5515313e-11, -0.002, -0.035200022), (-0.0014142096, -0.0014142139, 0.035200022), (-0.0014142096, -0.0014142127, -0.03520002), (-0.002000004, -1.6640944e-10, 0.03520002), (-0.002000004, 1.6640944e-10, -0.03520002), (-0.0014142096, 0.0014142136, 0.03520002), (-0.0014142096, 0.0014142131, -0.035200022)]
}

