#usda 1.0
(
    defaultPrim = "UCX_Dishwasher_Tray_01_077"
    upAxis = "Z"
)

def Mesh "UCX_Dishwasher_Tray_01_077"
{
    int[] faceVertexCounts = [3, 3, 3, 3, 3, 3, 3, 3, 3, 3, 3, 3, 3, 3, 3, 3, 3, 3, 3, 3, 3, 3, 3, 3, 3, 3, 3, 3]
    int[] faceVertexIndices = [0, 1, 2, 0, 2, 3, 3, 2, 4, 3, 4, 5, 5, 4, 6, 5, 6, 7, 7, 6, 8, 7, 8, 9, 9, 8, 10, 9, 10, 11, 11, 10, 12, 11, 12, 13, 4, 2, 1, 1, 14, 12, 12, 10, 8, 8, 6, 4, 4, 1, 12, 12, 8, 4, 13, 12, 14, 13, 14, 15, 15, 14, 1, 15, 1, 0, 15, 0, 3, 3, 5, 7, 7, 9, 11, 11, 13, 15, 15, 3, 7, 7, 11, 15]
    normal3f[] normals = [(0.1441794, 0.98955154, -2.9141884e-9), (-0.1441794, 0.98955154, 6.434686e-9), (0.6243182, 0.7811701, -9.101261e-9), (0.1441794, 0.98955154, -2.9141884e-9), (0.6243182, 0.7811701, -9.101261e-9), (0.8124179, 0.58307564, 6.577415e-9), (0.8124179, 0.58307564, 6.577415e-9), (0.6243182, 0.7811701, -9.101261e-9), (0.9915486, 0.12973627, 3.593152e-8), (0.8124179, 0.58307564, 6.577415e-9), (0.9915486, 0.12973627, 3.593152e-8), (0.9915486, -0.12973574, 3.593152e-8), (0.9915486, -0.12973574, 3.593152e-8), (0.9915486, 0.12973627, 3.593152e-8), (0.8124182, -0.5830752, -6.3824817e-9), (0.9915486, -0.12973574, 3.593152e-8), (0.8124182, -0.5830752, -6.3824817e-9), (0.624318, -0.7811704, -2.104011e-8), (0.624318, -0.7811704, -2.104011e-8), (0.8124182, -0.5830752, -6.3824817e-9), (0.1441794, -0.98955154, 6.063091e-10), (0.624318, -0.7811704, -2.104011e-8), (0.1441794, -0.98955154, 6.063091e-10), (-0.14417934, -0.98955166, 1.0263086e-9), (-0.14417934, -0.98955166, 1.0263086e-9), (0.1441794, -0.98955154, 6.063091e-10), (-0.62431794, -0.78117037, 1.5631732e-8), (-0.14417934, -0.98955166, 1.0263086e-9), (-0.62431794, -0.78117037, 1.5631732e-8), (-0.8124184, -0.58307487, 8.525624e-9), (-0.8124184, -0.58307487, 8.525624e-9), (-0.62431794, -0.78117037, 1.5631732e-8), (-0.9915487, -0.12973517, 3.0492133e-9), (-0.8124184, -0.58307487, 8.525624e-9), (-0.9915487, -0.12973517, 3.0492133e-9), (-0.9915487, 0.12973574, 3.0492133e-9), (0.9915486, 0.12973627, 3.593152e-8), (0.6243182, 0.7811701, -9.101261e-9), (-0.1441794, 0.98955154, 6.434686e-9), (-0.1441794, 0.98955154, 6.434686e-9), (-0.8124184, 0.58307487, 8.525624e-9), (-0.9915487, -0.12973517, 3.0492133e-9), (-0.9915487, -0.12973517, 3.0492133e-9), (-0.62431794, -0.78117037, 1.5631732e-8), (0.1441794, -0.98955154, 6.063091e-10), (0.1441794, -0.98955154, 6.063091e-10), (0.8124182, -0.5830752, -6.3824817e-9), (0.9915486, 0.12973627, 3.593152e-8), (0.9915486, 0.12973627, 3.593152e-8), (-0.1441794, 0.98955154, 6.434686e-9), (-0.9915487, -0.12973517, 3.0492133e-9), (-0.9915487, -0.12973517, 3.0492133e-9), (0.1441794, -0.98955154, 6.063091e-10), (0.9915486, 0.12973627, 3.593152e-8), (-0.9915487, 0.12973574, 3.0492133e-9), (-0.9915487, -0.12973517, 3.0492133e-9), (-0.8124184, 0.58307487, 8.525624e-9), (-0.9915487, 0.12973574, 3.0492133e-9), (-0.8124184, 0.58307487, 8.525624e-9), (-0.6243182, 0.7811701, 9.101261e-9), (-0.6243182, 0.7811701, 9.101261e-9), (-0.8124184, 0.58307487, 8.525624e-9), (-0.1441794, 0.98955154, 6.434686e-9), (-0.6243182, 0.7811701, 9.101261e-9), (-0.1441794, 0.98955154, 6.434686e-9), (0.1441794, 0.98955154, -2.9141884e-9), (-0.6243182, 0.7811701, 9.101261e-9), (0.1441794, 0.98955154, -2.9141884e-9), (0.8124179, 0.58307564, 6.577415e-9), (0.8124179, 0.58307564, 6.577415e-9), (0.9915486, -0.12973574, 3.593152e-8), (0.624318, -0.7811704, -2.104011e-8), (0.624318, -0.7811704, -2.104011e-8), (-0.14417934, -0.98955166, 1.0263086e-9), (-0.8124184, -0.58307487, 8.525624e-9), (-0.8124184, -0.58307487, 8.525624e-9), (-0.9915487, 0.12973574, 3.0492133e-9), (-0.6243182, 0.7811701, 9.101261e-9), (-0.6243182, 0.7811701, 9.101261e-9), (0.8124179, 0.58307564, 6.577415e-9), (0.624318, -0.7811704, -2.104011e-8), (0.624318, -0.7811704, -2.104011e-8), (-0.8124184, -0.58307487, 8.525624e-9), (-0.6243182, 0.7811701, 9.101261e-9)] (
        interpolation = "faceVarying"
    )
    point3f[] points = [(1.7877879e-9, 0.002000005, -0.030801207), (3.6269048e-9, 0.002000005, 0.030801216), (0.0013401698, 0.0014142104, 0.03080121), (0.0013401705, 0.0014142104, -0.030801207), (0.0018952818, 8.2195617e-10, 0.03080121), (0.0018952849, 8.2195617e-10, -0.0308012), (0.0013401698, -0.0014142088, 0.03080121), (0.0013401705, -0.0014142088, -0.030801207), (3.6269048e-9, -0.0020000031, 0.030801216), (1.7877879e-9, -0.0020000031, -0.030801207), (-0.001340165, -0.0014142088, 0.030801216), (-0.0013401669, -0.0014142088, -0.030801209), (-0.001895277, 8.2195617e-10, 0.030801216), (-0.0018952764, 8.2195617e-10, -0.030801201), (-0.001340165, 0.0014142104, 0.030801216), (-0.0013401669, 0.0014142104, -0.030801209)]
}

