#usda 1.0
(
    defaultPrim = "UCX_Dishwasher_Tray_02_012"
    upAxis = "Z"
)

def Mesh "UCX_Dishwasher_Tray_02_012"
{
    int[] faceVertexCounts = [3, 3, 3, 3, 3, 3, 3, 3, 3, 3, 3, 3, 3, 3, 3, 3, 3, 3, 3, 3, 3, 3, 3, 3, 3, 3, 3, 3]
    int[] faceVertexIndices = [0, 1, 2, 0, 2, 3, 3, 2, 4, 3, 4, 5, 5, 4, 6, 5, 6, 7, 7, 6, 8, 7, 8, 9, 9, 8, 10, 9, 10, 11, 11, 10, 12, 11, 12, 13, 4, 2, 1, 1, 14, 12, 12, 10, 8, 8, 6, 4, 4, 1, 12, 12, 8, 4, 13, 12, 14, 13, 14, 15, 15, 14, 1, 15, 1, 0, 15, 0, 3, 3, 5, 7, 7, 9, 11, 11, 13, 15, 15, 3, 7, 7, 11, 15]
    normal3f[] normals = [(0.1367739, 0.9906023, -9.129841e-8), (-0.13677391, 0.9906023, -1.203672e-7), (0.6037499, 0.7971738, -7.5794645e-8), (0.1367739, 0.9906023, -9.129841e-8), (0.6037499, 0.7971738, -7.5794645e-8), (0.7971757, 0.6037474, -2.1787907e-8), (0.7971757, 0.6037474, -2.1787907e-8), (0.6037499, 0.7971738, -7.5794645e-8), (0.9906023, 0.13677372, -1.0430587e-8), (0.7971757, 0.6037474, -2.1787907e-8), (0.9906023, 0.13677372, -1.0430587e-8), (0.9906023, -0.1367742, -1.8406794e-8), (0.9906023, -0.1367742, -1.8406794e-8), (0.9906023, 0.13677372, -1.0430587e-8), (0.79717445, -0.603749, -5.8307588e-8), (0.9906023, -0.1367742, -1.8406794e-8), (0.79717445, -0.603749, -5.8307588e-8), (0.6037477, -0.79717547, -1.0325857e-7), (0.6037477, -0.79717547, -1.0325857e-7), (0.79717445, -0.603749, -5.8307588e-8), (0.1367739, -0.9906023, -1.107916e-7), (0.6037477, -0.79717547, -1.0325857e-7), (0.1367739, -0.9906023, -1.107916e-7), (-0.1367739, -0.9906023, -1.107916e-7), (-0.1367739, -0.9906023, -1.107916e-7), (0.1367739, -0.9906023, -1.107916e-7), (-0.6037477, -0.79717547, -8.872417e-8), (-0.1367739, -0.9906023, -1.107916e-7), (-0.6037477, -0.79717547, -8.872417e-8), (-0.7971745, -0.603749, -5.8307588e-8), (-0.7971745, -0.603749, -5.8307588e-8), (-0.6037477, -0.79717547, -8.872417e-8), (-0.9906023, -0.13677375, -1.9759241e-8), (-0.7971745, -0.603749, -5.8307588e-8), (-0.9906023, -0.13677375, -1.9759241e-8), (-0.9906023, 0.13677374, -1.2595268e-8), (0.9906023, 0.13677372, -1.0430587e-8), (0.6037499, 0.7971738, -7.5794645e-8), (-0.13677391, 0.9906023, -1.203672e-7), (-0.13677391, 0.9906023, -1.203672e-7), (-0.7971757, 0.6037474, -2.1787907e-8), (-0.9906023, -0.13677375, -1.9759241e-8), (-0.9906023, -0.13677375, -1.9759241e-8), (-0.6037477, -0.79717547, -8.872417e-8), (0.1367739, -0.9906023, -1.107916e-7), (0.1367739, -0.9906023, -1.107916e-7), (0.79717445, -0.603749, -5.8307588e-8), (0.9906023, 0.13677372, -1.0430587e-8), (0.9906023, 0.13677372, -1.0430587e-8), (-0.13677391, 0.9906023, -1.203672e-7), (-0.9906023, -0.13677375, -1.9759241e-8), (-0.9906023, -0.13677375, -1.9759241e-8), (0.1367739, -0.9906023, -1.107916e-7), (0.9906023, 0.13677372, -1.0430587e-8), (-0.9906023, 0.13677374, -1.2595268e-8), (-0.9906023, -0.13677375, -1.9759241e-8), (-0.7971757, 0.6037474, -2.1787907e-8), (-0.9906023, 0.13677374, -1.2595268e-8), (-0.7971757, 0.6037474, -2.1787907e-8), (-0.6037477, 0.7971756, -4.3476916e-8), (-0.6037477, 0.7971756, -4.3476916e-8), (-0.7971757, 0.6037474, -2.1787907e-8), (-0.13677391, 0.9906023, -1.203672e-7), (-0.6037477, 0.7971756, -4.3476916e-8), (-0.13677391, 0.9906023, -1.203672e-7), (0.1367739, 0.9906023, -9.129841e-8), (-0.6037477, 0.7971756, -4.3476916e-8), (0.1367739, 0.9906023, -9.129841e-8), (0.7971757, 0.6037474, -2.1787907e-8), (0.7971757, 0.6037474, -2.1787907e-8), (0.9906023, -0.1367742, -1.8406794e-8), (0.6037477, -0.79717547, -1.0325857e-7), (0.6037477, -0.79717547, -1.0325857e-7), (-0.1367739, -0.9906023, -1.107916e-7), (-0.7971745, -0.603749, -5.8307588e-8), (-0.7971745, -0.603749, -5.8307588e-8), (-0.9906023, 0.13677374, -1.2595268e-8), (-0.6037477, 0.7971756, -4.3476916e-8), (-0.6037477, 0.7971756, -4.3476916e-8), (0.7971757, 0.6037474, -2.1787907e-8), (0.6037477, -0.79717547, -1.0325857e-7), (0.6037477, -0.79717547, -1.0325857e-7), (-0.7971745, -0.603749, -5.8307588e-8), (-0.6037477, 0.7971756, -4.3476916e-8)] (
        interpolation = "faceVarying"
    )
    point3f[] points = [(1.6475803e-9, 0.0019999985, -0.03520004), (1.6475803e-9, 0.0020000057, 0.035199996), (0.001414215, 0.0014142182, 0.035199992), (0.001414215, 0.0014142109, -0.035200045), (0.002000002, -5.53056e-9, 0.035199992), (0.002000002, 1.6747459e-9, -0.035200045), (0.001414215, -0.0014142147, 0.035199996), (0.001414215, -0.0014142076, -0.03520004), (1.6475803e-9, -0.0020000022, 0.035199992), (1.6475803e-9, -0.001999995, -0.035200045), (-0.0014142117, -0.0014142147, 0.035199996), (-0.0014142117, -0.0014142076, -0.03520004), (-0.0019999987, -5.53056e-9, 0.035199992), (-0.0019999987, 1.6747459e-9, -0.035200045), (-0.0014142117, 0.0014142182, 0.035199992), (-0.0014142117, 0.0014142109, -0.035200045)]
}

