#usda 1.0
(
    defaultPrim = "UCX_Counter_Sink_Stove_001"
    upAxis = "Z"
)

def Mesh "UCX_Counter_Sink_Stove_001"
{
    int[] faceVertexCounts = [3, 3, 3, 3, 3, 3, 3, 3, 3, 3, 3, 3]
    int[] faceVertexIndices = [0, 1, 2, 0, 2, 3, 4, 5, 1, 4, 1, 0, 6, 2, 1, 6, 1, 5, 3, 2, 6, 3, 6, 7, 3, 7, 4, 3, 4, 0, 7, 6, 5, 7, 5, 4]
    normal3f[] normals = [(-1, 0, 0), (1, 0, 0), (1, 0, 0), (-1, 0, 0), (1, 0, 0), (-1, 0, 0), (-1, 0, 0), (1, 0, 0), (1, 0, 0), (-1, 0, 0), (1, 0, 0), (-1, 0, 0), (1, 0, 0), (1, 0, 0), (1, 0, 0), (1, 0, 0), (1, 0, 0), (1, 0, 0), (-1, 0, 0), (1, 0, 0), (1, 0, 0), (-1, 0, 0), (1, 0, 0), (-1, 0, 0), (-1, 0, 0), (-1, 0, 0), (-1, 0, 0), (-1, 0, 0), (-1, 0, 0), (-1, 0, 0), (-1, 0, 0), (1, 0, 0), (1, 0, 0), (-1, 0, 0), (1, 0, 0), (-1, 0, 0)] (
        interpolation = "faceVarying"
    )
    point3f[] points = [(-0.0150001645, 0.367789, 0.50049996), (0.0150001645, 0.367789, 0.50049996), (0.0150001645, 0.367789, -0.50049996), (-0.0150001645, 0.367789, -0.50049996), (-0.0150001645, -0.36778894, 0.50049996), (0.0150001645, -0.36778894, 0.50049996), (0.0150001645, -0.36778894, -0.50049996), (-0.0150001645, -0.36778894, -0.50049996)]
}

