#usda 1.0
(
    defaultPrim = "UCX_Dishwasher_Tray_01_130"
    upAxis = "Z"
)

def Mesh "UCX_Dishwasher_Tray_01_130"
{
    int[] faceVertexCounts = [3, 3, 3, 3, 3, 3, 3, 3, 3, 3, 3, 3]
    int[] faceVertexIndices = [0, 1, 2, 0, 2, 3, 3, 2, 4, 3, 4, 5, 5, 4, 6, 5, 6, 7, 7, 6, 1, 7, 1, 0, 3, 5, 7, 3, 7, 0, 4, 2, 1, 4, 1, 6]
    normal3f[] normals = [(1, 4.7074415e-8, 0), (1, 2.687329e-8, 0), (0, 0, 1), (1, 4.7074415e-8, 0), (0, 0, 1), (-1, -2.687329e-8, 0), (-1, -2.687329e-8, 0), (0, 0, 1), (-1, -4.030993e-8, 0), (-1, -2.687329e-8, 0), (-1, -4.030993e-8, 0), (-1, 0, 0), (-1, 0, 0), (-1, -4.030993e-8, 0), (0, 0, 1), (-1, 0, 0), (0, 0, 1), (1, 2.687329e-8, 0), (1, 2.687329e-8, 0), (0, 0, 1), (1, 2.687329e-8, 0), (1, 2.687329e-8, 0), (1, 2.687329e-8, 0), (1, 4.7074415e-8, 0), (-1, -2.687329e-8, 0), (-1, 0, 0), (1, 2.687329e-8, 0), (-1, -2.687329e-8, 0), (1, 2.687329e-8, 0), (1, 4.7074415e-8, 0), (-1, -4.030993e-8, 0), (0, 0, 1), (1, 2.687329e-8, 0), (-1, -4.030993e-8, 0), (1, 2.687329e-8, 0), (0, 0, 1)] (
        interpolation = "faceVarying"
    )
    point3f[] points = [(0.0041476046, -0.013907684, -0.0847074), (0.0041476046, -0.010454653, 0.09310839), (-0.0041476036, -0.010454653, 0.09310839), (-0.0041476036, -0.013907684, -0.0847074), (-0.0041476046, 0.010454657, 0.09310839), (-0.0041476046, 0.013907688, -0.0847074), (0.0041476036, 0.010454657, 0.09310839), (0.0041476036, 0.013907688, -0.0847074)]
}

