#usda 1.0
(
    defaultPrim = "UCX_Dishwasher_Tray_01_125"
    upAxis = "Z"
)

def Mesh "UCX_Dishwasher_Tray_01_125"
{
    int[] faceVertexCounts = [3, 3, 3, 3, 3, 3, 3, 3, 3, 3, 3, 3, 3, 3, 3, 3, 3, 3, 3, 3, 3, 3, 3, 3, 3, 3, 3, 3]
    int[] faceVertexIndices = [0, 1, 2, 0, 2, 3, 1, 4, 5, 1, 5, 2, 4, 6, 7, 4, 7, 5, 6, 8, 9, 6, 9, 7, 8, 10, 11, 8, 11, 9, 10, 12, 13, 10, 13, 11, 3, 2, 5, 5, 7, 9, 9, 11, 13, 13, 14, 3, 3, 5, 9, 9, 13, 3, 12, 15, 14, 12, 14, 13, 15, 0, 3, 15, 3, 14, 1, 0, 15, 15, 12, 10, 10, 8, 6, 6, 4, 1, 1, 15, 10, 10, 6, 1]
    normal3f[] normals = [(0.13676856, 0.9906031, 4.416387e-8), (0.79717815, 0.6037443, 2.5806926e-7), (0.6037454, 0.79717726, 2.098749e-7), (0.13676856, 0.9906031, 4.416387e-8), (0.6037454, 0.79717726, 2.098749e-7), (-0.13676856, 0.9906031, -4.3011767e-8), (0.79717815, 0.6037443, 2.5806926e-7), (0.9906026, -0.13677149, 3.2047478e-7), (0.9906028, 0.13677055, 3.195125e-7), (0.79717815, 0.6037443, 2.5806926e-7), (0.9906028, 0.13677055, 3.195125e-7), (0.6037454, 0.79717726, 2.098749e-7), (0.9906026, -0.13677149, 3.2047478e-7), (0.60374105, -0.79718053, 2.1045184e-7), (0.79717475, -0.6037488, 2.5768864e-7), (0.9906026, -0.13677149, 3.2047478e-7), (0.79717475, -0.6037488, 2.5768864e-7), (0.9906028, 0.13677055, 3.195125e-7), (0.60374105, -0.79718053, 2.1045184e-7), (-0.1367681, -0.9906032, -4.416372e-8), (0.1367681, -0.9906032, 4.6083887e-8), (0.60374105, -0.79718053, 2.1045184e-7), (0.1367681, -0.9906032, 4.6083887e-8), (0.79717475, -0.6037488, 2.5768864e-7), (-0.1367681, -0.9906032, -4.416372e-8), (-0.79717463, -0.6037488, -2.5807267e-7), (-0.603741, -0.79718053, -2.0987576e-7), (-0.1367681, -0.9906032, -4.416372e-8), (-0.603741, -0.79718053, -2.0987576e-7), (0.1367681, -0.9906032, 4.6083887e-8), (-0.79717463, -0.6037488, -2.5807267e-7), (-0.9906028, 0.13677056, -3.2028058e-7), (-0.9906026, -0.1367715, -3.2105086e-7), (-0.79717463, -0.6037488, -2.5807267e-7), (-0.9906026, -0.1367715, -3.2105086e-7), (-0.603741, -0.79718053, -2.0987576e-7), (-0.13676856, 0.9906031, -4.3011767e-8), (0.6037454, 0.79717726, 2.098749e-7), (0.9906028, 0.13677055, 3.195125e-7), (0.9906028, 0.13677055, 3.195125e-7), (0.79717475, -0.6037488, 2.5768864e-7), (0.1367681, -0.9906032, 4.6083887e-8), (0.1367681, -0.9906032, 4.6083887e-8), (-0.603741, -0.79718053, -2.0987576e-7), (-0.9906026, -0.1367715, -3.2105086e-7), (-0.9906026, -0.1367715, -3.2105086e-7), (-0.7971781, 0.60374427, -2.5768523e-7), (-0.13676856, 0.9906031, -4.3011767e-8), (-0.13676856, 0.9906031, -4.3011767e-8), (0.9906028, 0.13677055, 3.195125e-7), (0.1367681, -0.9906032, 4.6083887e-8), (0.1367681, -0.9906032, 4.6083887e-8), (-0.9906026, -0.1367715, -3.2105086e-7), (-0.13676856, 0.9906031, -4.3011767e-8), (-0.9906028, 0.13677056, -3.2028058e-7), (-0.60374546, 0.79717726, -2.0891483e-7), (-0.7971781, 0.60374427, -2.5768523e-7), (-0.9906028, 0.13677056, -3.2028058e-7), (-0.7971781, 0.60374427, -2.5768523e-7), (-0.9906026, -0.1367715, -3.2105086e-7), (-0.60374546, 0.79717726, -2.0891483e-7), (0.13676856, 0.9906031, 4.416387e-8), (-0.13676856, 0.9906031, -4.3011767e-8), (-0.60374546, 0.79717726, -2.0891483e-7), (-0.13676856, 0.9906031, -4.3011767e-8), (-0.7971781, 0.60374427, -2.5768523e-7), (0.79717815, 0.6037443, 2.5806926e-7), (0.13676856, 0.9906031, 4.416387e-8), (-0.60374546, 0.79717726, -2.0891483e-7), (-0.60374546, 0.79717726, -2.0891483e-7), (-0.9906028, 0.13677056, -3.2028058e-7), (-0.79717463, -0.6037488, -2.5807267e-7), (-0.79717463, -0.6037488, -2.5807267e-7), (-0.1367681, -0.9906032, -4.416372e-8), (0.60374105, -0.79718053, 2.1045184e-7), (0.60374105, -0.79718053, 2.1045184e-7), (0.9906026, -0.13677149, 3.2047478e-7), (0.79717815, 0.6037443, 2.5806926e-7), (0.79717815, 0.6037443, 2.5806926e-7), (-0.60374546, 0.79717726, -2.0891483e-7), (-0.79717463, -0.6037488, -2.5807267e-7), (-0.79717463, -0.6037488, -2.5807267e-7), (0.60374105, -0.79718053, 2.1045184e-7), (0.79717815, 0.6037443, 2.5806926e-7)] (
        interpolation = "faceVarying"
    )
    point3f[] points = [(-2.8715773e-8, 0.0019999908, 0.06912006), (0.0014141958, 0.001414226, 0.06912006), (0.0014142405, 0.001414226, -0.069120035), (3.088887e-8, 0.0019999908, -0.069120035), (0.0019999754, -1.3342243e-8, 0.06912006), (0.0020000201, -1.3342243e-8, -0.069120035), (0.0014141958, -0.001414223, 0.06912006), (0.0014142405, -0.001414223, -0.069120035), (-2.8715773e-8, -0.0019999875, 0.06912006), (3.088887e-8, -0.0019999875, -0.069120035), (-0.0014142384, -0.001414223, 0.06912006), (-0.0014141937, -0.001414223, -0.069120035), (-0.0020000178, -1.3342243e-8, 0.06912006), (-0.001999973, -1.3342243e-8, -0.069120035), (-0.0014141937, 0.001414226, -0.069120035), (-0.0014142384, 0.001414226, 0.06912006)]
}

