#usda 1.0
(
    defaultPrim = "UCX_Counter_Sink_Tap_001"
    upAxis = "Z"
)

def Mesh "UCX_Counter_Sink_Tap_001"
{
    int[] faceVertexCounts = [3, 3, 3, 3, 3, 3, 3, 3, 3, 3, 3, 3, 3, 3, 3, 3, 3, 3, 3, 3, 3, 3, 3, 3, 3, 3, 3, 3, 3, 3, 3, 3, 3, 3, 3, 3, 3, 3, 3, 3, 3, 3, 3, 3, 3, 3, 3, 3, 3, 3, 3, 3, 3, 3, 3, 3, 3, 3, 3, 3, 3, 3, 3, 3, 3, 3, 3, 3, 3, 3, 3, 3, 3, 3, 3, 3, 3, 3, 3, 3, 3, 3, 3, 3, 3, 3, 3, 3, 3, 3, 3, 3, 3, 3, 3, 3, 3, 3, 3, 3, 3, 3, 3, 3, 3, 3, 3, 3, 3, 3, 3, 3, 3, 3, 3, 3, 3, 3, 3, 3, 3, 3, 3, 3]
    int[] faceVertexIndices = [0, 1, 2, 0, 2, 3, 3, 2, 4, 3, 4, 5, 5, 4, 6, 5, 6, 7, 7, 6, 8, 7, 8, 9, 9, 8, 10, 9, 10, 11, 11, 10, 12, 11, 12, 13, 13, 12, 14, 13, 14, 15, 15, 14, 16, 15, 16, 17, 17, 16, 18, 17, 18, 19, 19, 18, 20, 19, 20, 21, 21, 20, 22, 21, 22, 23, 23, 22, 24, 23, 24, 25, 25, 24, 26, 25, 26, 27, 27, 26, 28, 27, 28, 29, 29, 28, 30, 29, 30, 31, 31, 30, 32, 31, 32, 33, 33, 32, 34, 33, 34, 35, 35, 34, 36, 35, 36, 37, 37, 36, 38, 37, 38, 39, 39, 38, 40, 39, 40, 41, 41, 40, 42, 41, 42, 43, 43, 42, 44, 43, 44, 45, 45, 44, 46, 45, 46, 47, 47, 46, 48, 47, 48, 49, 49, 48, 50, 49, 50, 51, 51, 50, 52, 51, 52, 53, 53, 52, 54, 53, 54, 55, 55, 54, 56, 55, 56, 57, 57, 56, 58, 57, 58, 59, 59, 58, 60, 59, 60, 61, 10, 8, 6, 6, 4, 2, 2, 1, 62, 62, 60, 58, 58, 56, 54, 54, 52, 50, 50, 48, 46, 46, 44, 42, 42, 40, 38, 38, 36, 34, 34, 32, 30, 30, 28, 26, 26, 24, 22, 22, 20, 18, 18, 16, 14, 14, 12, 10, 10, 6, 2, 2, 62, 58, 58, 54, 50, 50, 46, 42, 42, 38, 34, 34, 30, 26, 26, 22, 18, 18, 14, 10, 10, 2, 58, 58, 50, 42, 42, 34, 26, 26, 18, 10, 10, 58, 42, 42, 26, 10, 61, 60, 62, 61, 62, 63, 63, 62, 1, 63, 1, 0, 17, 19, 21, 21, 23, 25, 25, 27, 29, 29, 31, 33, 33, 35, 37, 37, 39, 41, 41, 43, 45, 45, 47, 49, 49, 17, 21, 21, 25, 29, 29, 33, 37, 37, 41, 45, 45, 49, 21, 21, 29, 37, 21, 37, 45, 0, 3, 5, 5, 7, 9, 9, 11, 13, 13, 15, 17, 17, 49, 51, 51, 53, 55, 55, 57, 59, 59, 61, 63, 63, 0, 5, 5, 9, 13, 13, 17, 51, 51, 55, 59, 59, 63, 5, 5, 13, 51, 5, 51, 59]
    normal3f[] normals = [(0.99975085, -0.02232524, -0.0000034639029), (0.9997511, 0.022314623, 0.000008631278), (0.9937623, -0.11151972, -0.000027646653), (0.99975085, -0.02232524, -0.0000034639029), (0.9937623, -0.11151972, -0.000027646653), (0.9876495, -0.1566801, -0.000039898674), (0.9876495, -0.1566801, -0.000039898674), (0.9937623, -0.11151972, -0.000027646653), (0.96878475, -0.24790344, -0.00006466444), (0.9876495, -0.1566801, -0.000039898674), (0.96878475, -0.24790344, -0.00006466444), (0.9556392, -0.29454008, -0.00007733463), (0.9556392, -0.29454008, -0.00007733463), (0.96878475, -0.24790344, -0.00006466444), (0.9210564, -0.38942942, -0.00010313435), (0.9556392, -0.29454008, -0.00007733463), (0.9210564, -0.38942942, -0.00010313435), (0.8989035, -0.43814686, -0.00011639164), (0.8989035, -0.43814686, -0.00011639164), (0.9210564, -0.38942942, -0.00010313435), (0.84348303, -0.53715587, -0.00014336145), (0.8989035, -0.43814686, -0.00011639164), (0.84348303, -0.53715587, -0.00014336145), (0.8091382, -0.5876185, -0.00015712313), (0.8091382, -0.5876185, -0.00015712313), (0.84348303, -0.53715587, -0.00014336145), (0.72542286, -0.68830353, -0.00018462022), (0.8091382, -0.5876185, -0.00015712313), (0.72542286, -0.68830353, -0.00018462022), (0.67473984, -0.73805565, -0.00019823162), (0.67473984, -0.73805565, -0.00019823162), (0.72542286, -0.68830353, -0.00018462022), (0.5545685, -0.83213806, -0.00022403403), (0.67473984, -0.73805565, -0.00019823162), (0.5545685, -0.83213806, -0.00022403403), (0.48413852, -0.8749914, -0.00023582726), (0.48413852, -0.8749914, -0.00023582726), (0.5545685, -0.83213806, -0.00022403403), (0.32447368, -0.94589466, -0.00025545136), (0.48413852, -0.8749914, -0.00023582726), (0.32447368, -0.94589466, -0.00025545136), (0.23581976, -0.97179675, -0.0002626988), (0.23581976, -0.97179675, -0.0002626988), (0.32447368, -0.94589466, -0.00025545136), (0.04825629, -0.9988349, -0.00027050977), (0.23581976, -0.97179675, -0.0002626988), (0.04825629, -0.9988349, -0.00027050977), (-0.04825696, -0.9988349, -0.00027075934), (-0.04825696, -0.9988349, -0.00027075934), (0.04825629, -0.9988349, -0.00027050977), (-0.23582041, -0.9717967, -0.00026391834), (-0.04825696, -0.9988349, -0.00027075934), (-0.23582041, -0.9717967, -0.00026391834), (-0.32447425, -0.9458945, -0.00025712934), (-0.32447425, -0.9458945, -0.00025712934), (-0.23582041, -0.9717967, -0.00026391834), (-0.484139, -0.87499106, -0.0002383309), (-0.32447425, -0.9458945, -0.00025712934), (-0.484139, -0.87499106, -0.0002383309), (-0.55456895, -0.83213776, -0.00022690192), (-0.55456895, -0.83213776, -0.00022690192), (-0.484139, -0.87499106, -0.0002383309), (-0.6747402, -0.73805535, -0.00020172098), (-0.55456895, -0.83213776, -0.00022690192), (-0.6747402, -0.73805535, -0.00020172098), (-0.72542286, -0.68830353, -0.00018837178), (-0.72542286, -0.68830353, -0.00018837178), (-0.6747402, -0.73805535, -0.00020172098), (-0.8091382, -0.58761847, -0.0001613076), (-0.72542286, -0.68830353, -0.00018837178), (-0.8091382, -0.58761847, -0.0001613076), (-0.843483, -0.5371561, -0.00014772362), (-0.843483, -0.5371561, -0.00014772362), (-0.8091382, -0.58761847, -0.0001613076), (-0.89890337, -0.4381471, -0.00012104042), (-0.843483, -0.5371561, -0.00014772362), (-0.89890337, -0.4381471, -0.00012104042), (-0.9210563, -0.3894296, -0.00010789768), (-0.9210563, -0.3894296, -0.00010789768), (-0.89890337, -0.4381471, -0.00012104042), (-0.95563906, -0.29454023, -0.000082276805), (-0.9210563, -0.3894296, -0.00010789768), (-0.95563906, -0.29454023, -0.000082276805), (-0.9687848, -0.24790351, -0.00006967457), (-0.9687848, -0.24790351, -0.00006967457), (-0.95563906, -0.29454023, -0.000082276805), (-0.9876494, -0.15668018, -0.000045006364), (-0.9687848, -0.24790351, -0.00006967457), (-0.9876494, -0.15668018, -0.000045006364), (-0.9937623, -0.11151975, -0.00003278594), (-0.9937623, -0.11151975, -0.00003278594), (-0.9876494, -0.15668018, -0.000045006364), (-0.99975085, -0.022325272, -0.000008634163), (-0.9937623, -0.11151975, -0.00003278594), (-0.99975085, -0.022325272, -0.000008634163), (-0.9997511, 0.022314653, 0.0000034610337), (-0.9997511, 0.022314653, 0.0000034610337), (-0.99975085, -0.022325272, -0.000008634163), (-0.99376345, 0.11150904, 0.000027643757), (-0.9997511, 0.022314653, 0.0000034610337), (-0.99376345, 0.11150904, 0.000027643757), (-0.98765117, 0.15666969, 0.000039895847), (-0.98765117, 0.15666969, 0.000039895847), (-0.99376345, 0.11150904, 0.000027643757), (-0.96878755, 0.24789278, 0.000064661544), (-0.98765117, 0.15666969, 0.000039895847), (-0.96878755, 0.24789278, 0.000064661544), (-0.9556423, 0.29453012, 0.00007733193), (-0.9556423, 0.29453012, 0.00007733193), (-0.96878755, 0.24789278, 0.000064661544), (-0.92106074, 0.38941914, 0.00010313155), (-0.9556423, 0.29453012, 0.00007733193), (-0.92106074, 0.38941914, 0.00010313155), (-0.89890796, 0.43813768, 0.00011638914), (-0.89890796, 0.43813768, 0.00011638914), (-0.92106074, 0.38941914, 0.00010313155), (-0.843489, 0.5371465, 0.00014335889), (-0.89890796, 0.43813768, 0.00011638914), (-0.843489, 0.5371465, 0.00014335889), (-0.8091439, 0.58761066, 0.00015712097), (-0.8091439, 0.58761066, 0.00015712097), (-0.843489, 0.5371465, 0.00014335889), (-0.72543025, 0.6882957, 0.00018461808), (-0.8091439, 0.58761066, 0.00015712097), (-0.72543025, 0.6882957, 0.00018461808), (-0.67474645, 0.7380496, 0.00019822997), (-0.67474645, 0.7380496, 0.00019822997), (-0.72543025, 0.6882957, 0.00018461808), (-0.5545769, 0.83213246, 0.00022403248), (-0.67474645, 0.7380496, 0.00019822997), (-0.5545769, 0.83213246, 0.00022403248), (-0.48414466, 0.874988, 0.00023582633), (-0.48414466, 0.874988, 0.00023582633), (-0.5545769, 0.83213246, 0.00022403248), (-0.32448068, 0.9458923, 0.0002554507), (-0.48414466, 0.874988, 0.00023582633), (-0.32448068, 0.9458923, 0.0002554507), (-0.23582253, 0.97179615, 0.00026269862), (-0.23582253, 0.97179615, 0.00026269862), (-0.32448068, 0.9458923, 0.0002554507), (-0.04825919, 0.99883485, 0.00027050974), (-0.23582253, 0.97179615, 0.00026269862), (-0.04825919, 0.99883485, 0.00027050974), (0.048258822, 0.9988348, 0.0002707593), (0.048258822, 0.9988348, 0.0002707593), (-0.04825919, 0.99883485, 0.00027050974), (0.2358222, 0.9717963, 0.00026391822), (0.048258822, 0.9988348, 0.0002707593), (0.2358222, 0.9717963, 0.00026391822), (0.32448062, 0.94589233, 0.0002571288), (0.32448062, 0.94589233, 0.0002571288), (0.2358222, 0.9717963, 0.00026391822), (0.4841446, 0.87498796, 0.00023833009), (0.32448062, 0.94589233, 0.0002571288), (0.4841446, 0.87498796, 0.00023833009), (0.5545769, 0.8321326, 0.00022690053), (0.5545769, 0.8321326, 0.00022690053), (0.4841446, 0.87498796, 0.00023833009), (0.6747464, 0.7380497, 0.00020171946), (0.5545769, 0.8321326, 0.00022690053), (0.6747464, 0.7380497, 0.00020171946), (0.72543025, 0.6882958, 0.0001883697), (0.72543025, 0.6882958, 0.0001883697), (0.6747464, 0.7380497, 0.00020171946), (0.80914384, 0.58761066, 0.0001613055), (0.72543025, 0.6882958, 0.0001883697), (0.80914384, 0.58761066, 0.0001613055), (0.84348893, 0.53714657, 0.00014772105), (0.84348893, 0.53714657, 0.00014772105), (0.80914384, 0.58761066, 0.0001613055), (0.8989079, 0.43813774, 0.0001210379), (0.84348893, 0.53714657, 0.00014772105), (0.8989079, 0.43813774, 0.0001210379), (0.92106074, 0.38941923, 0.00010789488), (0.92106074, 0.38941923, 0.00010789488), (0.8989079, 0.43813774, 0.0001210379), (0.9556423, 0.2945302, 0.0000822741), (0.92106074, 0.38941923, 0.00010789488), (0.9556423, 0.2945302, 0.0000822741), (0.9687875, 0.24789284, 0.00006967169), (0.72542286, -0.68830353, -0.00018462022), (0.84348303, -0.53715587, -0.00014336145), (0.9210564, -0.38942942, -0.00010313435), (0.9210564, -0.38942942, -0.00010313435), (0.96878475, -0.24790344, -0.00006466444), (0.9937623, -0.11151972, -0.000027646653), (0.9937623, -0.11151972, -0.000027646653), (0.9997511, 0.022314623, 0.000008631278), (0.9876511, 0.15666975, 0.000045003544), (0.9876511, 0.15666975, 0.000045003544), (0.9556423, 0.2945302, 0.0000822741), (0.8989079, 0.43813774, 0.0001210379), (0.8989079, 0.43813774, 0.0001210379), (0.80914384, 0.58761066, 0.0001613055), (0.6747464, 0.7380497, 0.00020171946), (0.6747464, 0.7380497, 0.00020171946), (0.4841446, 0.87498796, 0.00023833009), (0.2358222, 0.9717963, 0.00026391822), (0.2358222, 0.9717963, 0.00026391822), (-0.04825919, 0.99883485, 0.00027050974), (-0.32448068, 0.9458923, 0.0002554507), (-0.32448068, 0.9458923, 0.0002554507), (-0.5545769, 0.83213246, 0.00022403248), (-0.72543025, 0.6882957, 0.00018461808), (-0.72543025, 0.6882957, 0.00018461808), (-0.843489, 0.5371465, 0.00014335889), (-0.92106074, 0.38941914, 0.00010313155), (-0.92106074, 0.38941914, 0.00010313155), (-0.96878755, 0.24789278, 0.000064661544), (-0.99376345, 0.11150904, 0.000027643757), (-0.99376345, 0.11150904, 0.000027643757), (-0.99975085, -0.022325272, -0.000008634163), (-0.9876494, -0.15668018, -0.000045006364), (-0.9876494, -0.15668018, -0.000045006364), (-0.95563906, -0.29454023, -0.000082276805), (-0.89890337, -0.4381471, -0.00012104042), (-0.89890337, -0.4381471, -0.00012104042), (-0.8091382, -0.58761847, -0.0001613076), (-0.6747402, -0.73805535, -0.00020172098), (-0.6747402, -0.73805535, -0.00020172098), (-0.484139, -0.87499106, -0.0002383309), (-0.23582041, -0.9717967, -0.00026391834), (-0.23582041, -0.9717967, -0.00026391834), (0.04825629, -0.9988349, -0.00027050977), (0.32447368, -0.94589466, -0.00025545136), (0.32447368, -0.94589466, -0.00025545136), (0.5545685, -0.83213806, -0.00022403403), (0.72542286, -0.68830353, -0.00018462022), (0.72542286, -0.68830353, -0.00018462022), (0.9210564, -0.38942942, -0.00010313435), (0.9937623, -0.11151972, -0.000027646653), (0.9937623, -0.11151972, -0.000027646653), (0.9876511, 0.15666975, 0.000045003544), (0.8989079, 0.43813774, 0.0001210379), (0.8989079, 0.43813774, 0.0001210379), (0.6747464, 0.7380497, 0.00020171946), (0.2358222, 0.9717963, 0.00026391822), (0.2358222, 0.9717963, 0.00026391822), (-0.32448068, 0.9458923, 0.0002554507), (-0.72543025, 0.6882957, 0.00018461808), (-0.72543025, 0.6882957, 0.00018461808), (-0.92106074, 0.38941914, 0.00010313155), (-0.99376345, 0.11150904, 0.000027643757), (-0.99376345, 0.11150904, 0.000027643757), (-0.9876494, -0.15668018, -0.000045006364), (-0.89890337, -0.4381471, -0.00012104042), (-0.89890337, -0.4381471, -0.00012104042), (-0.6747402, -0.73805535, -0.00020172098), (-0.23582041, -0.9717967, -0.00026391834), (-0.23582041, -0.9717967, -0.00026391834), (0.32447368, -0.94589466, -0.00025545136), (0.72542286, -0.68830353, -0.00018462022), (0.72542286, -0.68830353, -0.00018462022), (0.9937623, -0.11151972, -0.000027646653), (0.8989079, 0.43813774, 0.0001210379), (0.8989079, 0.43813774, 0.0001210379), (0.2358222, 0.9717963, 0.00026391822), (-0.72543025, 0.6882957, 0.00018461808), (-0.72543025, 0.6882957, 0.00018461808), (-0.99376345, 0.11150904, 0.000027643757), (-0.89890337, -0.4381471, -0.00012104042), (-0.89890337, -0.4381471, -0.00012104042), (-0.23582041, -0.9717967, -0.00026391834), (0.72542286, -0.68830353, -0.00018462022), (0.72542286, -0.68830353, -0.00018462022), (0.8989079, 0.43813774, 0.0001210379), (-0.72543025, 0.6882957, 0.00018461808), (-0.72543025, 0.6882957, 0.00018461808), (-0.89890337, -0.4381471, -0.00012104042), (0.72542286, -0.68830353, -0.00018462022), (0.9687875, 0.24789284, 0.00006967169), (0.9556423, 0.2945302, 0.0000822741), (0.9876511, 0.15666975, 0.000045003544), (0.9687875, 0.24789284, 0.00006967169), (0.9876511, 0.15666975, 0.000045003544), (0.99376345, 0.11150901, 0.00003278304), (0.99376345, 0.11150901, 0.00003278304), (0.9876511, 0.15666975, 0.000045003544), (0.9997511, 0.022314623, 0.000008631278), (0.99376345, 0.11150901, 0.00003278304), (0.9997511, 0.022314623, 0.000008631278), (0.99975085, -0.02232524, -0.0000034639029), (-0.04825696, -0.9988349, -0.00027075934), (-0.32447425, -0.9458945, -0.00025712934), (-0.55456895, -0.83213776, -0.00022690192), (-0.55456895, -0.83213776, -0.00022690192), (-0.72542286, -0.68830353, -0.00018837178), (-0.843483, -0.5371561, -0.00014772362), (-0.843483, -0.5371561, -0.00014772362), (-0.9210563, -0.3894296, -0.00010789768), (-0.9687848, -0.24790351, -0.00006967457), (-0.9687848, -0.24790351, -0.00006967457), (-0.9937623, -0.11151975, -0.00003278594), (-0.9997511, 0.022314653, 0.0000034610337), (-0.9997511, 0.022314653, 0.0000034610337), (-0.98765117, 0.15666969, 0.000039895847), (-0.9556423, 0.29453012, 0.00007733193), (-0.9556423, 0.29453012, 0.00007733193), (-0.89890796, 0.43813768, 0.00011638914), (-0.8091439, 0.58761066, 0.00015712097), (-0.8091439, 0.58761066, 0.00015712097), (-0.67474645, 0.7380496, 0.00019822997), (-0.48414466, 0.874988, 0.00023582633), (-0.48414466, 0.874988, 0.00023582633), (-0.23582253, 0.97179615, 0.00026269862), (0.048258822, 0.9988348, 0.0002707593), (0.048258822, 0.9988348, 0.0002707593), (-0.04825696, -0.9988349, -0.00027075934), (-0.55456895, -0.83213776, -0.00022690192), (-0.55456895, -0.83213776, -0.00022690192), (-0.843483, -0.5371561, -0.00014772362), (-0.9687848, -0.24790351, -0.00006967457), (-0.9687848, -0.24790351, -0.00006967457), (-0.9997511, 0.022314653, 0.0000034610337), (-0.9556423, 0.29453012, 0.00007733193), (-0.9556423, 0.29453012, 0.00007733193), (-0.8091439, 0.58761066, 0.00015712097), (-0.48414466, 0.874988, 0.00023582633), (-0.48414466, 0.874988, 0.00023582633), (0.048258822, 0.9988348, 0.0002707593), (-0.55456895, -0.83213776, -0.00022690192), (-0.55456895, -0.83213776, -0.00022690192), (-0.9687848, -0.24790351, -0.00006967457), (-0.9556423, 0.29453012, 0.00007733193), (-0.55456895, -0.83213776, -0.00022690192), (-0.9556423, 0.29453012, 0.00007733193), (-0.48414466, 0.874988, 0.00023582633), (0.99975085, -0.02232524, -0.0000034639029), (0.9876495, -0.1566801, -0.000039898674), (0.9556392, -0.29454008, -0.00007733463), (0.9556392, -0.29454008, -0.00007733463), (0.8989035, -0.43814686, -0.00011639164), (0.8091382, -0.5876185, -0.00015712313), (0.8091382, -0.5876185, -0.00015712313), (0.67473984, -0.73805565, -0.00019823162), (0.48413852, -0.8749914, -0.00023582726), (0.48413852, -0.8749914, -0.00023582726), (0.23581976, -0.97179675, -0.0002626988), (-0.04825696, -0.9988349, -0.00027075934), (-0.04825696, -0.9988349, -0.00027075934), (0.048258822, 0.9988348, 0.0002707593), (0.32448062, 0.94589233, 0.0002571288), (0.32448062, 0.94589233, 0.0002571288), (0.5545769, 0.8321326, 0.00022690053), (0.72543025, 0.6882958, 0.0001883697), (0.72543025, 0.6882958, 0.0001883697), (0.84348893, 0.53714657, 0.00014772105), (0.92106074, 0.38941923, 0.00010789488), (0.92106074, 0.38941923, 0.00010789488), (0.9687875, 0.24789284, 0.00006967169), (0.99376345, 0.11150901, 0.00003278304), (0.99376345, 0.11150901, 0.00003278304), (0.99975085, -0.02232524, -0.0000034639029), (0.9556392, -0.29454008, -0.00007733463), (0.9556392, -0.29454008, -0.00007733463), (0.8091382, -0.5876185, -0.00015712313), (0.48413852, -0.8749914, -0.00023582726), (0.48413852, -0.8749914, -0.00023582726), (-0.04825696, -0.9988349, -0.00027075934), (0.32448062, 0.94589233, 0.0002571288), (0.32448062, 0.94589233, 0.0002571288), (0.72543025, 0.6882958, 0.0001883697), (0.92106074, 0.38941923, 0.00010789488), (0.92106074, 0.38941923, 0.00010789488), (0.99376345, 0.11150901, 0.00003278304), (0.9556392, -0.29454008, -0.00007733463), (0.9556392, -0.29454008, -0.00007733463), (0.48413852, -0.8749914, -0.00023582726), (0.32448062, 0.94589233, 0.0002571288), (0.9556392, -0.29454008, -0.00007733463), (0.32448062, 0.94589233, 0.0002571288), (0.92106074, 0.38941923, 0.00010789488)] (
        interpolation = "faceVarying"
    )
    point3f[] points = [(0.0035150882, 0.00000979287, -0.027332902), (0.0035149474, -0.000004965172, 0.02713482), (0.0034474079, -0.0010132894, 0.027134547), (0.0034475487, -0.000998528, -0.027345963), (0.0032473844, -0.0019828642, 0.027134284), (0.0032475253, -0.001968103, -0.027345218), (0.0029225638, -0.0028764291, 0.02713404), (0.0029227047, -0.0028616718, -0.027330697), (0.0024854294, -0.0036596453, 0.027133828), (0.00248557, -0.0036448957, -0.027302954), (0.0019527791, -0.004302414, 0.027133651), (0.0019529199, -0.0042876755, -0.02726329), (0.001345083, -0.0047800355, 0.02713352), (0.0013452235, -0.0047653103, -0.02721393), (0.0006856943, -0.0050741523, 0.027133439), (0.0006858346, -0.0050594425, -0.02715592), (-4.712661e-8, -0.0051734634, 0.02713341), (9.308653e-8, -0.0051587713, -0.027091492), (-0.00068578846, -0.0050741523, 0.027133435), (-0.0006856481, -0.0050594425, -0.02715706), (-0.0013451773, -0.0047800355, 0.027133513), (-0.0013450367, -0.0047653094, -0.027216168), (-0.0019528734, -0.004302414, 0.027133642), (-0.0019527327, -0.0042876746, -0.02726654), (-0.0024855235, -0.0036596453, 0.027133815), (-0.0024853828, -0.0036448948, -0.02730624), (-0.0029226579, -0.0028764291, 0.027134025), (-0.002922517, -0.0028616711, -0.027333317), (-0.0032474785, -0.0019828642, 0.027134268), (-0.0032473376, -0.0019681025, -0.0273473), (-0.003447502, -0.0010132894, 0.027134528), (-0.003447361, -0.0009985275, -0.027347714), (-0.0035150414, -0.000004965172, 0.027134802), (-0.0035149006, 0.000009793309, -0.02733454), (-0.003447502, 0.0010033591, 0.027135076), (-0.0034473613, 0.0010181105, -0.027308287), (-0.0032474785, 0.0019729338, 0.027135339), (-0.0032473379, 0.0019876747, -0.027269451), (-0.0029226579, 0.0028664987, 0.02713558), (-0.0029225175, 0.0028812264, -0.027219715), (-0.0024855235, 0.0036497149, 0.027135795), (-0.002485383, 0.0036644267, -0.02716111), (-0.0019528734, 0.004292484, 0.02713597), (-0.0019527331, 0.004307178, -0.027095886), (-0.0013451773, 0.0047701052, 0.027136102), (-0.0013450372, 0.0047847806, -0.027026547), (-0.00068578846, 0.0050642225, 0.027136182), (-0.00068564864, 0.0050788787, -0.026955761), (-4.7133852e-8, 0.005163533, 0.027136212), (9.255581e-8, 0.0051781703, -0.026886247), (0.0006856943, 0.0050642225, 0.027136186), (0.0006858341, 0.0050788787, -0.026955152), (0.001345083, 0.0047701052, 0.027136108), (0.001345223, 0.0047847806, -0.027025845), (0.0019527791, 0.004292484, 0.027135981), (0.0019529194, 0.004307178, -0.027095031), (0.0024854294, 0.0036497149, 0.027135808), (0.0024855698, 0.0036644263, -0.027160058), (0.0029225638, 0.0028664987, 0.027135598), (0.0029227042, 0.002881226, -0.027218422), (0.0032473844, 0.0019729338, 0.027135355), (0.003247525, 0.0019876745, -0.027267883), (0.0034474079, 0.0010033591, 0.027135093), (0.0034475485, 0.0010181101, -0.027306538)]
}

