#usda 1.0
(
    defaultPrim = "UCX_Dishwasher_Tray_02_052"
    upAxis = "Z"
)

def Mesh "UCX_Dishwasher_Tray_02_052"
{
    int[] faceVertexCounts = [3, 3, 3, 3, 3, 3, 3, 3, 3, 3, 3, 3, 3, 3, 3, 3, 3, 3, 3, 3, 3, 3, 3, 3, 3, 3, 3, 3]
    int[] faceVertexIndices = [0, 1, 2, 0, 2, 3, 3, 2, 4, 3, 4, 5, 5, 4, 6, 5, 6, 7, 7, 6, 8, 7, 8, 9, 9, 8, 10, 9, 10, 11, 11, 10, 12, 11, 12, 13, 4, 2, 1, 1, 14, 12, 12, 10, 8, 8, 6, 4, 4, 1, 12, 12, 8, 4, 13, 12, 14, 13, 14, 15, 15, 14, 1, 15, 1, 0, 15, 0, 3, 3, 5, 7, 7, 9, 11, 11, 13, 15, 15, 3, 7, 7, 11, 15]
    normal3f[] normals = [(0.13677493, 0.9906022, 0), (-0.13677537, 0.99060214, 0), (0.6037499, 0.79717386, 0), (0.13677493, 0.9906022, 0), (0.6037499, 0.79717386, 0), (0.7971789, 0.60374326, 0), (0.7971789, 0.60374326, 0), (0.6037499, 0.79717386, 0), (0.990603, 0.13676903, 0), (0.7971789, 0.60374326, 0), (0.990603, 0.13676903, 0), (0.990603, -0.13676901, 0), (0.990603, -0.13676901, 0), (0.990603, 0.13676903, 0), (0.7971789, -0.60374326, 0), (0.990603, -0.13676901, 0), (0.7971789, -0.60374326, 0), (0.6037499, -0.79717386, 0), (0.6037499, -0.79717386, 0), (0.7971789, -0.60374326, 0), (0.13677493, -0.9906022, 0), (0.6037499, -0.79717386, 0), (0.13677493, -0.9906022, 0), (-0.13677537, -0.99060214, 0), (-0.13677537, -0.99060214, 0), (0.13677493, -0.9906022, 0), (-0.6037499, -0.79717386, 0), (-0.13677537, -0.99060214, 0), (-0.6037499, -0.79717386, 0), (-0.79717386, -0.6037499, 0), (-0.79717386, -0.6037499, 0), (-0.6037499, -0.79717386, 0), (-0.9906021, -0.13677587, 0), (-0.79717386, -0.6037499, 0), (-0.9906021, -0.13677587, 0), (-0.9906021, 0.13677585, 0), (0.990603, 0.13676903, 0), (0.6037499, 0.79717386, 0), (-0.13677537, 0.99060214, 0), (-0.13677537, 0.99060214, 0), (-0.79717386, 0.6037499, 0), (-0.9906021, -0.13677587, 0), (-0.9906021, -0.13677587, 0), (-0.6037499, -0.79717386, 0), (0.13677493, -0.9906022, 0), (0.13677493, -0.9906022, 0), (0.7971789, -0.60374326, 0), (0.990603, 0.13676903, 0), (0.990603, 0.13676903, 0), (-0.13677537, 0.99060214, 0), (-0.9906021, -0.13677587, 0), (-0.9906021, -0.13677587, 0), (0.13677493, -0.9906022, 0), (0.990603, 0.13676903, 0), (-0.9906021, 0.13677585, 0), (-0.9906021, -0.13677587, 0), (-0.79717386, 0.6037499, 0), (-0.9906021, 0.13677585, 0), (-0.79717386, 0.6037499, 0), (-0.6037499, 0.79717386, 0), (-0.6037499, 0.79717386, 0), (-0.79717386, 0.6037499, 0), (-0.13677537, 0.99060214, 0), (-0.6037499, 0.79717386, 0), (-0.13677537, 0.99060214, 0), (0.13677493, 0.9906022, 0), (-0.6037499, 0.79717386, 0), (0.13677493, 0.9906022, 0), (0.7971789, 0.60374326, 0), (0.7971789, 0.60374326, 0), (0.990603, -0.13676901, 0), (0.6037499, -0.79717386, 0), (0.6037499, -0.79717386, 0), (-0.13677537, -0.99060214, 0), (-0.79717386, -0.6037499, 0), (-0.79717386, -0.6037499, 0), (-0.9906021, 0.13677585, 0), (-0.6037499, 0.79717386, 0), (-0.6037499, 0.79717386, 0), (0.7971789, 0.60374326, 0), (0.6037499, -0.79717386, 0), (0.6037499, -0.79717386, 0), (-0.79717386, -0.6037499, 0), (-0.6037499, 0.79717386, 0)] (
        interpolation = "faceVarying"
    )
    point3f[] points = [(-2.7302371e-10, 0.0020000031, -0.057475403), (-2.7302371e-10, 0.0020000031, 0.057475403), (0.0014142243, 0.0014142087, 0.057475403), (0.0014142243, 0.0014142087, -0.057475403), (0.001999989, -9.533887e-10, 0.057475403), (0.001999989, -9.533887e-10, -0.057475403), (0.0014142243, -0.0014142105, 0.057475403), (0.0014142243, -0.0014142105, -0.057475403), (-2.7302371e-10, -0.002000005, 0.057475403), (-2.7302371e-10, -0.002000005, -0.057475403), (-0.0014142098, -0.0014142105, 0.057475403), (-0.0014142098, -0.0014142105, -0.057475403), (-0.0020000043, -9.533887e-10, 0.057475403), (-0.0020000043, -9.533887e-10, -0.057475403), (-0.0014142098, 0.0014142087, 0.057475403), (-0.0014142098, 0.0014142087, -0.057475403)]
}

