#usda 1.0
(
    defaultPrim = "UCX_Fridge_Drawer_05_008"
    upAxis = "Z"
)

def Mesh "UCX_Fridge_Drawer_05_008"
{
    int[] faceVertexCounts = [3, 3, 3, 3, 3, 3, 3, 3, 3, 3, 3, 3]
    int[] faceVertexIndices = [0, 1, 2, 0, 2, 3, 3, 2, 4, 3, 4, 5, 5, 4, 6, 5, 6, 7, 7, 6, 1, 7, 1, 0, 3, 5, 7, 3, 7, 0, 4, 2, 1, 4, 1, 6]
    normal3f[] normals = [(-0.99997884, 0.00650365, 0), (0.99997884, -0.00650365, 0), (0.99997884, -0.00650365, 0), (-0.99997884, 0.00650365, 0), (0.99997884, -0.00650365, 0), (-0.99824244, -0.059262075, 0), (-0.99824244, -0.059262075, 0), (0.99997884, -0.00650365, 0), (0.99997884, -0.00650365, 0), (-0.99824244, -0.059262075, 0), (0.99997884, -0.00650365, 0), (-0.99824244, -0.059262075, 0), (-0.99824244, -0.059262075, 0), (0.99997884, -0.00650365, 0), (0.99997884, -0.00650365, 0), (-0.99824244, -0.059262075, 0), (0.99997884, -0.00650365, 0), (-0.99997884, 0.00650365, 0), (-0.99997884, 0.00650365, 0), (0.99997884, -0.00650365, 0), (0.99997884, -0.00650365, 0), (-0.99997884, 0.00650365, 0), (0.99997884, -0.00650365, 0), (-0.99997884, 0.00650365, 0), (-0.99824244, -0.059262075, 0), (-0.99824244, -0.059262075, 0), (-0.99997884, 0.00650365, 0), (-0.99824244, -0.059262075, 0), (-0.99997884, 0.00650365, 0), (-0.99997884, 0.00650365, 0), (0.99997884, -0.00650365, 0), (0.99997884, -0.00650365, 0), (0.99997884, -0.00650365, 0), (0.99997884, -0.00650365, 0), (0.99997884, -0.00650365, 0), (0.99997884, -0.00650365, 0)] (
        interpolation = "faceVarying"
    )
    point3f[] points = [(-0.0065831095, 0.091676265, -0.1899795), (0.0072052027, 0.099848725, -0.1899795), (0.00579589, -0.1168423, -0.1899795), (-0.0076545607, -0.073066376, -0.1899795), (0.00579589, -0.1168423, 0.1899795), (-0.0076545607, -0.073066376, 0.1899795), (0.0072052027, 0.099848725, 0.1899795), (-0.0065831095, 0.091676265, 0.1899795)]
}

