#usda 1.0
(
    defaultPrim = "UCX_Kitchen_06_Base_Drawer_02_005"
    upAxis = "Z"
)

def Mesh "UCX_Kitchen_06_Base_Drawer_02_005"
{
    int[] faceVertexCounts = [3, 3, 3, 3, 3, 3, 3, 3, 3, 3, 3, 3]
    int[] faceVertexIndices = [0, 1, 2, 0, 2, 3, 4, 2, 1, 4, 1, 5, 6, 4, 5, 6, 5, 7, 3, 2, 4, 3, 4, 6, 7, 5, 1, 7, 1, 0, 6, 7, 0, 6, 0, 3]
    normal3f[] normals = [(0.9941576, 0.1079378, 1.1832047e-7), (-0.99941915, 0.034079038, -1.3258254e-7), (-0.9994191, 0.034079004, -1.3258254e-7), (0.9941576, 0.1079378, 1.1832047e-7), (-0.9994191, 0.034079004, -1.3258254e-7), (0.9941578, 0.10793769, 1.2006049e-7), (-0.99941915, 0.034079038, -1.3258254e-7), (-0.9994191, 0.034079004, -1.3258254e-7), (-0.99941915, 0.034079038, -1.3258254e-7), (-0.99941915, 0.034079038, -1.3258254e-7), (-0.99941915, 0.034079038, -1.3258254e-7), (-0.9994191, 0.034079004, -1.3258254e-7), (0.9941577, 0.10793776, 1.1832047e-7), (-0.99941915, 0.034079038, -1.3258254e-7), (-0.9994191, 0.034079004, -1.3258254e-7), (0.9941577, 0.10793776, 1.1832047e-7), (-0.9994191, 0.034079004, -1.3258254e-7), (0.9941578, 0.10793769, 1.2006048e-7), (0.9941578, 0.10793769, 1.2006049e-7), (-0.9994191, 0.034079004, -1.3258254e-7), (-0.99941915, 0.034079038, -1.3258254e-7), (0.9941578, 0.10793769, 1.2006049e-7), (-0.99941915, 0.034079038, -1.3258254e-7), (0.9941577, 0.10793776, 1.1832047e-7), (0.9941578, 0.10793769, 1.2006048e-7), (-0.9994191, 0.034079004, -1.3258254e-7), (-0.99941915, 0.034079038, -1.3258254e-7), (0.9941578, 0.10793769, 1.2006048e-7), (-0.99941915, 0.034079038, -1.3258254e-7), (0.9941576, 0.1079378, 1.1832047e-7), (0.9941577, 0.10793776, 1.1832047e-7), (0.9941578, 0.10793769, 1.2006048e-7), (0.9941576, 0.1079378, 1.1832047e-7), (0.9941577, 0.10793776, 1.1832047e-7), (0.9941576, 0.1079378, 1.1832047e-7), (0.9941578, 0.10793769, 1.2006049e-7)] (
        interpolation = "faceVarying"
    )
    point3f[] points = [(0.0024702626, 0.021420442, 0.23762634), (-0.004112942, 0.015578135, 0.23762634), (-0.0052462765, -0.017658677, 0.23762634), (0.006269075, -0.013568422, 0.23762634), (-0.0052462146, -0.017658718, -0.23762636), (-0.00411288, 0.015578093, -0.23762636), (0.0062691364, -0.013568463, -0.23762633), (0.0024703243, 0.0214204, -0.23762636)]
}

