#usda 1.0
(
    defaultPrim = "UCX_Kitchen_06_Base_Drawer_03_003"
    upAxis = "Z"
)

def Mesh "UCX_Kitchen_06_Base_Drawer_03_003"
{
    int[] faceVertexCounts = [3, 3, 3, 3, 3, 3, 3, 3, 3, 3, 3, 3]
    int[] faceVertexIndices = [0, 1, 2, 0, 2, 3, 4, 5, 3, 4, 3, 2, 6, 7, 5, 6, 5, 4, 1, 6, 4, 1, 4, 2, 7, 0, 3, 7, 3, 5, 6, 1, 0, 6, 0, 7]
    normal3f[] normals = [(0.9941577, -0.107937485, 0), (0.99415773, -0.10793745, 0), (-0.9994193, -0.034078572, -0), (0.9941577, -0.107937485, 0), (-0.9994193, -0.034078572, -0), (-0.99941915, -0.03407859, -0), (-0.9994192, -0.034078624, -0), (-0.99941915, -0.03407859, -0), (-0.99941915, -0.03407859, -0), (-0.9994192, -0.034078624, -0), (-0.99941915, -0.03407859, -0), (-0.9994193, -0.034078572, -0), (0.99415773, -0.10793742, 0), (0.9941577, -0.107937485, 0), (-0.99941915, -0.03407859, -0), (0.99415773, -0.10793742, 0), (-0.99941915, -0.03407859, -0), (-0.9994192, -0.034078624, -0), (0.99415773, -0.10793745, 0), (0.99415773, -0.10793742, 0), (-0.9994192, -0.034078624, -0), (0.99415773, -0.10793745, 0), (-0.9994192, -0.034078624, -0), (-0.9994193, -0.034078572, -0), (0.9941577, -0.107937485, 0), (0.9941577, -0.107937485, 0), (-0.99941915, -0.03407859, -0), (0.9941577, -0.107937485, 0), (-0.99941915, -0.03407859, -0), (-0.99941915, -0.03407859, -0), (0.99415773, -0.10793742, 0), (0.99415773, -0.10793745, 0), (0.9941577, -0.107937485, 0), (0.99415773, -0.10793742, 0), (0.9941577, -0.107937485, 0), (0.9941577, -0.107937485, 0)] (
        interpolation = "faceVarying"
    )
    point3f[] points = [(0.0024703043, -0.021420406, 0.23762636), (0.0062691057, 0.013568444, 0.23762636), (-0.0052462383, 0.017658705, 0.23762636), (-0.0041129175, -0.015578111, 0.23762636), (-0.0052462383, 0.017658705, -0.23762633), (-0.0041129175, -0.015578111, -0.23762633), (0.0062691057, 0.013568444, -0.23762633), (0.0024703043, -0.021420406, -0.23762633)]
}

