#usda 1.0
(
    defaultPrim = "UCX_Kitchen_08_Sink_Drawer_01_005"
    upAxis = "Z"
)

def Mesh "UCX_Kitchen_08_Sink_Drawer_01_005"
{
    int[] faceVertexCounts = [3, 3, 3, 3, 3, 3, 3, 3, 3, 3, 3, 3]
    int[] faceVertexIndices = [0, 1, 2, 0, 2, 3, 0, 4, 5, 0, 5, 1, 2, 6, 7, 2, 7, 3, 5, 4, 7, 5, 7, 6, 6, 2, 1, 6, 1, 5, 3, 7, 4, 3, 4, 0]
    normal3f[] normals = [(-1, 0, 0), (1, 0, 0), (1, 0, 0), (-1, 0, 0), (1, 0, 0), (-1, 0, 0), (-1, 0, 0), (-1, 0, 0), (1, 0, 0), (-1, 0, 0), (1, 0, 0), (1, 0, 0), (1, 0, 0), (1, 0, 0), (-1, 0, 0), (1, 0, 0), (-1, 0, 0), (-1, 0, 0), (1, 0, 0), (-1, 0, 0), (-1, 0, 0), (1, 0, 0), (-1, 0, 0), (1, 0, 0), (1, 0, 0), (1, 0, 0), (1, 0, 0), (1, 0, 0), (1, 0, 0), (1, 0, 0), (-1, 0, 0), (-1, 0, 0), (-1, 0, 0), (-1, 0, 0), (-1, 0, 0), (-1, 0, 0)] (
        interpolation = "faceVarying"
    )
    point3f[] points = [(-0.0107772425, 0.13498014, -0.17048152), (0.0107772425, 0.13498014, -0.17048152), (0.0107772425, -0.13498013, -0.17048152), (-0.0107772425, -0.13498013, -0.17048152), (-0.0107772425, 0.13498014, 0.17048155), (0.0107772425, 0.13498014, 0.17048155), (0.0107772425, -0.13498013, 0.17048155), (-0.0107772425, -0.13498013, 0.17048155)]
}

