#usda 1.0
(
    defaultPrim = "UCX_Fridge_Egg_Tray_008"
    upAxis = "Z"
)

def Mesh "UCX_Fridge_Egg_Tray_008"
{
    int[] faceVertexCounts = [3, 3, 3, 3, 3, 3, 3, 3, 3, 3, 3, 3]
    int[] faceVertexIndices = [0, 1, 2, 0, 2, 3, 1, 4, 5, 1, 5, 2, 4, 6, 7, 4, 7, 5, 6, 4, 1, 6, 1, 0, 7, 6, 0, 7, 0, 3, 7, 3, 2, 7, 2, 5]
    normal3f[] normals = [(-1, 5.1251885e-8, -0), (-1, 6.592735e-8, -0), (-1, 9.5278295e-8, -0), (-1, 5.1251885e-8, -0), (-1, 9.5278295e-8, -0), (-1, 9.5278295e-8, -0), (-1, 6.592735e-8, -0), (1, -1.6865565e-7, 0), (1, -1.6865565e-7, 0), (-1, 6.592735e-8, -0), (1, -1.6865565e-7, 0), (-1, 9.5278295e-8, -0), (1, -1.6865565e-7, 0), (1, -1.6865565e-7, 0), (1.0000001, -1.9800659e-7, 0), (1, -1.6865565e-7, 0), (1.0000001, -1.9800659e-7, 0), (1, -1.6865565e-7, 0), (1, -1.6865565e-7, 0), (1, -1.6865565e-7, 0), (-1, 6.592735e-8, -0), (1, -1.6865565e-7, 0), (-1, 6.592735e-8, -0), (-1, 5.1251885e-8, -0), (1.0000001, -1.9800659e-7, 0), (1, -1.6865565e-7, 0), (-1, 5.1251885e-8, -0), (1.0000001, -1.9800659e-7, 0), (-1, 5.1251885e-8, -0), (-1, 9.5278295e-8, -0), (1.0000001, -1.9800659e-7, 0), (-1, 9.5278295e-8, -0), (-1, 9.5278295e-8, -0), (1.0000001, -1.9800659e-7, 0), (-1, 9.5278295e-8, -0), (1, -1.6865565e-7, 0)] (
        interpolation = "faceVarying"
    )
    point3f[] points = [(-0.0009000019, 0.0036741477, -0.018692862), (-0.0009000026, -0.0036741435, -0.018692862), (-0.0009000026, -0.0036741435, 0.018692862), (-0.0009000019, 0.0036741477, 0.018692862), (0.0009000015, -0.0036741472, -0.018692862), (0.0009000015, -0.0036741472, 0.018692862), (0.0009000027, 0.003674144, -0.018692862), (0.0009000027, 0.003674144, 0.018692862)]
}

