#usda 1.0
(
    defaultPrim = "UCX_Dishwasher_Tray_01_104"
    upAxis = "Z"
)

def Mesh "UCX_Dishwasher_Tray_01_104"
{
    int[] faceVertexCounts = [3, 3, 3, 3, 3, 3, 3, 3, 3, 3, 3, 3, 3, 3, 3, 3, 3, 3, 3, 3, 3, 3, 3, 3, 3, 3, 3, 3]
    int[] faceVertexIndices = [0, 1, 2, 0, 2, 3, 1, 4, 5, 1, 5, 2, 4, 6, 7, 4, 7, 5, 6, 8, 9, 6, 9, 7, 8, 10, 11, 8, 11, 9, 10, 12, 13, 10, 13, 11, 3, 2, 5, 5, 7, 9, 9, 11, 13, 13, 14, 3, 3, 5, 9, 9, 13, 3, 12, 15, 14, 12, 14, 13, 15, 0, 3, 15, 3, 14, 1, 0, 15, 15, 12, 10, 10, 8, 6, 6, 4, 1, 1, 15, 10, 10, 6, 1]
    normal3f[] normals = [(-0.1441794, 0.98955154, -5.3686597e-9), (-0.812418, 0.58307564, -2.6743336e-8), (-0.62431824, 0.7811702, -1.1055874e-8), (-0.1441794, 0.98955154, -5.3686597e-9), (-0.62431824, 0.7811702, -1.1055874e-8), (0.1441794, 0.98955154, 1.8481623e-9), (-0.812418, 0.58307564, -2.6743336e-8), (-0.9915486, -0.12973574, 1.9051667e-8), (-0.9915486, 0.12973627, 1.9051667e-8), (-0.812418, 0.58307564, -2.6743336e-8), (-0.9915486, 0.12973627, 1.9051667e-8), (-0.62431824, 0.7811702, -1.1055874e-8), (-0.9915486, -0.12973574, 1.9051667e-8), (-0.624318, -0.7811704, -3.1668332e-8), (-0.8124182, -0.5830752, -2.0212871e-8), (-0.9915486, -0.12973574, 1.9051667e-8), (-0.8124182, -0.5830752, -2.0212871e-8), (-0.9915486, 0.12973627, 1.9051667e-8), (-0.624318, -0.7811704, -3.1668332e-8), (0.14417934, -0.98955166, 3.480779e-9), (-0.14417942, -0.98955154, -6.7207546e-9), (-0.624318, -0.7811704, -3.1668332e-8), (-0.14417942, -0.98955154, -6.7207546e-9), (-0.8124182, -0.5830752, -2.0212871e-8), (0.14417934, -0.98955166, 3.480779e-9), (0.8124184, -0.58307487, 2.2356016e-8), (0.62431794, -0.78117037, 2.6259952e-8), (0.14417934, -0.98955166, 3.480779e-9), (0.62431794, -0.78117037, 2.6259952e-8), (-0.14417942, -0.98955154, -6.7207546e-9), (0.8124184, -0.58307487, 2.2356016e-8), (0.9915487, 0.12973574, 1.9929072e-8), (0.9915487, -0.12973516, 4.8093053e-8), (0.8124184, -0.58307487, 2.2356016e-8), (0.9915487, -0.12973516, 4.8093053e-8), (0.62431794, -0.78117037, 2.6259952e-8), (0.1441794, 0.98955154, 1.8481623e-9), (-0.62431824, 0.7811702, -1.1055874e-8), (-0.9915486, 0.12973627, 1.9051667e-8), (-0.9915486, 0.12973627, 1.9051667e-8), (-0.8124182, -0.5830752, -2.0212871e-8), (-0.14417942, -0.98955154, -6.7207546e-9), (-0.14417942, -0.98955154, -6.7207546e-9), (0.62431794, -0.78117037, 2.6259952e-8), (0.9915487, -0.12973516, 4.8093053e-8), (0.9915487, -0.12973516, 4.8093053e-8), (0.8124184, 0.58307487, 2.2356016e-8), (0.1441794, 0.98955154, 1.8481623e-9), (0.1441794, 0.98955154, 1.8481623e-9), (-0.9915486, 0.12973627, 1.9051667e-8), (-0.14417942, -0.98955154, -6.7207546e-9), (-0.14417942, -0.98955154, -6.7207546e-9), (0.9915487, -0.12973516, 4.8093053e-8), (0.1441794, 0.98955154, 1.8481623e-9), (0.9915487, 0.12973574, 1.9929072e-8), (0.62431824, 0.7811701, 2.5137865e-8), (0.8124184, 0.58307487, 2.2356016e-8), (0.9915487, 0.12973574, 1.9929072e-8), (0.8124184, 0.58307487, 2.2356016e-8), (0.9915487, -0.12973516, 4.8093053e-8), (0.62431824, 0.7811701, 2.5137865e-8), (-0.1441794, 0.98955154, -5.3686597e-9), (0.1441794, 0.98955154, 1.8481623e-9), (0.62431824, 0.7811701, 2.5137865e-8), (0.1441794, 0.98955154, 1.8481623e-9), (0.8124184, 0.58307487, 2.2356016e-8), (-0.812418, 0.58307564, -2.6743336e-8), (-0.1441794, 0.98955154, -5.3686597e-9), (0.62431824, 0.7811701, 2.5137865e-8), (0.62431824, 0.7811701, 2.5137865e-8), (0.9915487, 0.12973574, 1.9929072e-8), (0.8124184, -0.58307487, 2.2356016e-8), (0.8124184, -0.58307487, 2.2356016e-8), (0.14417934, -0.98955166, 3.480779e-9), (-0.624318, -0.7811704, -3.1668332e-8), (-0.624318, -0.7811704, -3.1668332e-8), (-0.9915486, -0.12973574, 1.9051667e-8), (-0.812418, 0.58307564, -2.6743336e-8), (-0.812418, 0.58307564, -2.6743336e-8), (0.62431824, 0.7811701, 2.5137865e-8), (0.8124184, -0.58307487, 2.2356016e-8), (0.8124184, -0.58307487, 2.2356016e-8), (-0.624318, -0.7811704, -3.1668332e-8), (-0.812418, 0.58307564, -2.6743336e-8)] (
        interpolation = "faceVarying"
    )
    point3f[] points = [(4.9681237e-10, 0.0020000045, -0.030801207), (-0.0013401682, 0.0014142101, -0.030801205), (-0.0013401686, 0.0014142101, 0.030801212), (-2.3910076e-9, 0.0020000045, 0.030801218), (-0.0018952825, 4.0779355e-10, -0.030801198), (-0.0018952806, 4.0779355e-10, 0.030801212), (-0.0013401682, -0.0014142091, -0.030801205), (-0.0013401686, -0.0014142091, 0.030801212), (4.9681237e-10, -0.0020000036, -0.030801207), (-2.3910076e-9, -0.0020000036, 0.030801218), (0.0013401691, -0.0014142091, -0.030801207), (0.0013401663, -0.0014142091, 0.030801216), (0.0018952787, 4.0779355e-10, -0.030801201), (0.0018952782, 4.0779355e-10, 0.030801216), (0.0013401663, 0.0014142101, 0.030801216), (0.0013401691, 0.0014142101, -0.030801207)]
}

