#usda 1.0
(
    defaultPrim = "UCX_Dishwasher_Tray_01_081"
    upAxis = "Z"
)

def Mesh "UCX_Dishwasher_Tray_01_081"
{
    int[] faceVertexCounts = [3, 3, 3, 3, 3, 3, 3, 3, 3, 3, 3, 3, 3, 3, 3, 3, 3, 3, 3, 3, 3, 3, 3, 3, 3, 3, 3, 3]
    int[] faceVertexIndices = [0, 1, 2, 0, 2, 3, 3, 2, 4, 3, 4, 5, 5, 4, 6, 5, 6, 7, 7, 6, 8, 7, 8, 9, 9, 8, 10, 9, 10, 11, 11, 10, 12, 11, 12, 13, 4, 2, 1, 1, 14, 12, 12, 10, 8, 8, 6, 4, 4, 1, 12, 12, 8, 4, 13, 12, 14, 13, 14, 15, 15, 14, 1, 15, 1, 0, 15, 0, 3, 3, 5, 7, 7, 9, 11, 11, 13, 15, 15, 3, 7, 7, 11, 15]
    normal3f[] normals = [(0.14417991, 0.9895515, 1.3131509e-8), (-0.1441794, 0.98955154, -1.06320615e-8), (0.6243183, 0.7811702, 3.9498488e-8), (0.14417991, 0.9895515, 1.3131509e-8), (0.6243183, 0.7811702, 3.9498488e-8), (0.8124164, 0.5830779, -7.460198e-9), (0.8124164, 0.5830779, -7.460198e-9), (0.6243183, 0.7811702, 3.9498488e-8), (0.99154854, 0.1297363, -2.4080824e-8), (0.8124164, 0.5830779, -7.460198e-9), (0.99154854, 0.1297363, -2.4080824e-8), (0.99154824, -0.12973897, 1.7043055e-8), (0.99154824, -0.12973897, 1.7043055e-8), (0.99154854, 0.1297363, -2.4080824e-8), (0.8124182, -0.5830752, 1.8762725e-8), (0.99154824, -0.12973897, 1.7043055e-8), (0.8124182, -0.5830752, 1.8762725e-8), (0.6243196, -0.781169, 1.04144995e-8), (0.6243196, -0.781169, 1.04144995e-8), (0.8124182, -0.5830752, 1.8762725e-8), (0.1441794, -0.98955166, 1.06320615e-8), (0.6243196, -0.781169, 1.04144995e-8), (0.1441794, -0.98955166, 1.06320615e-8), (-0.14417885, -0.98955166, -8.6684e-9), (-0.14417885, -0.98955166, -8.6684e-9), (0.1441794, -0.98955166, 1.06320615e-8), (-0.62431794, -0.78117037, -2.4294406e-8), (-0.14417885, -0.98955166, -8.6684e-9), (-0.62431794, -0.78117037, -2.4294406e-8), (-0.8124201, -0.5830727, 2.668702e-9), (-0.8124201, -0.5830727, 2.668702e-9), (-0.62431794, -0.78117037, -2.4294406e-8), (-0.9915487, -0.12973519, 3.4897578e-8), (-0.8124201, -0.5830727, 2.668702e-9), (-0.9915487, -0.12973519, 3.4897578e-8), (-0.99154913, 0.1297325, 3.051025e-8), (0.99154854, 0.1297363, -2.4080824e-8), (0.6243183, 0.7811702, 3.9498488e-8), (-0.1441794, 0.98955154, -1.06320615e-8), (-0.1441794, 0.98955154, -1.06320615e-8), (-0.8124184, 0.5830749, -1.6619582e-8), (-0.9915487, -0.12973519, 3.4897578e-8), (-0.9915487, -0.12973519, 3.4897578e-8), (-0.62431794, -0.78117037, -2.4294406e-8), (0.1441794, -0.98955166, 1.06320615e-8), (0.1441794, -0.98955166, 1.06320615e-8), (0.8124182, -0.5830752, 1.8762725e-8), (0.99154854, 0.1297363, -2.4080824e-8), (0.99154854, 0.1297363, -2.4080824e-8), (-0.1441794, 0.98955154, -1.06320615e-8), (-0.9915487, -0.12973519, 3.4897578e-8), (-0.9915487, -0.12973519, 3.4897578e-8), (0.1441794, -0.98955166, 1.06320615e-8), (0.99154854, 0.1297363, -2.4080824e-8), (-0.99154913, 0.1297325, 3.051025e-8), (-0.9915487, -0.12973519, 3.4897578e-8), (-0.8124184, 0.5830749, -1.6619582e-8), (-0.99154913, 0.1297325, 3.051025e-8), (-0.8124184, 0.5830749, -1.6619582e-8), (-0.6243166, 0.78117144, -1.65408e-8), (-0.6243166, 0.78117144, -1.65408e-8), (-0.8124184, 0.5830749, -1.6619582e-8), (-0.1441794, 0.98955154, -1.06320615e-8), (-0.6243166, 0.78117144, -1.65408e-8), (-0.1441794, 0.98955154, -1.06320615e-8), (0.14417991, 0.9895515, 1.3131509e-8), (-0.6243166, 0.78117144, -1.65408e-8), (0.14417991, 0.9895515, 1.3131509e-8), (0.8124164, 0.5830779, -7.460198e-9), (0.8124164, 0.5830779, -7.460198e-9), (0.99154824, -0.12973897, 1.7043055e-8), (0.6243196, -0.781169, 1.04144995e-8), (0.6243196, -0.781169, 1.04144995e-8), (-0.14417885, -0.98955166, -8.6684e-9), (-0.8124201, -0.5830727, 2.668702e-9), (-0.8124201, -0.5830727, 2.668702e-9), (-0.99154913, 0.1297325, 3.051025e-8), (-0.6243166, 0.78117144, -1.65408e-8), (-0.6243166, 0.78117144, -1.65408e-8), (0.8124164, 0.5830779, -7.460198e-9), (0.6243196, -0.781169, 1.04144995e-8), (0.6243196, -0.781169, 1.04144995e-8), (-0.8124201, -0.5830727, 2.668702e-9), (-0.6243166, 0.78117144, -1.65408e-8)] (
        interpolation = "faceVarying"
    )
    point3f[] points = [(-9.670361e-10, 0.0020000052, -0.030801207), (8.141978e-9, 0.0020000052, 0.030801216), (0.0013401603, 0.0014142108, 0.030801214), (0.0013401677, 0.0014142108, -0.030801205), (0.0018952864, 1.217465e-9, 0.03080121), (0.0018952821, 1.217465e-9, -0.030801198), (0.0013401603, -0.0014142084, 0.030801214), (0.0013401677, -0.0014142084, -0.030801205), (8.141978e-9, -0.002000003, 0.030801216), (-9.670361e-10, -0.002000003, -0.030801207), (-0.0013401746, -0.0014142084, 0.03080122), (-0.0013401696, -0.0014142084, -0.030801207), (-0.0018952725, 1.217465e-9, 0.030801214), (-0.0018952792, 1.217465e-9, -0.0308012), (-0.0013401746, 0.0014142108, 0.03080122), (-0.0013401696, 0.0014142108, -0.030801207)]
}

