#usda 1.0
(
    defaultPrim = "UCX_Dishwasher_Tray_01_122"
    upAxis = "Z"
)

def Mesh "UCX_Dishwasher_Tray_01_122"
{
    int[] faceVertexCounts = [3, 3, 3, 3, 3, 3, 3, 3, 3, 3, 3, 3, 3, 3, 3, 3, 3, 3, 3, 3, 3, 3, 3, 3, 3, 3, 3, 3]
    int[] faceVertexIndices = [0, 1, 2, 0, 2, 3, 3, 2, 4, 3, 4, 5, 5, 4, 6, 5, 6, 7, 7, 6, 8, 7, 8, 9, 9, 8, 10, 9, 10, 11, 11, 10, 12, 11, 12, 13, 4, 2, 1, 1, 14, 12, 12, 10, 8, 8, 6, 4, 4, 1, 12, 12, 8, 4, 13, 12, 14, 13, 14, 15, 15, 14, 1, 15, 1, 0, 15, 0, 3, 3, 5, 7, 7, 9, 11, 11, 13, 15, 15, 3, 7, 7, 11, 15]
    normal3f[] normals = [(-0.13676856, 0.9906031, 4.416387e-8), (0.13676856, 0.9906031, -4.45479e-8), (-0.6037454, 0.79717726, 2.098749e-7), (-0.13676856, 0.9906031, 4.416387e-8), (-0.6037454, 0.79717726, 2.098749e-7), (-0.79717815, 0.6037443, 2.5806926e-7), (-0.79717815, 0.6037443, 2.5806926e-7), (-0.6037454, 0.79717726, 2.098749e-7), (-0.9906028, 0.13677055, 3.195125e-7), (-0.79717815, 0.6037443, 2.5806926e-7), (-0.9906028, 0.13677055, 3.195125e-7), (-0.9906026, -0.13677149, 3.2047478e-7), (-0.9906026, -0.13677149, 3.2047478e-7), (-0.9906028, 0.13677055, 3.195125e-7), (-0.79717475, -0.6037488, 2.5768864e-7), (-0.9906026, -0.13677149, 3.2047478e-7), (-0.79717475, -0.6037488, 2.5768864e-7), (-0.603741, -0.79718053, 2.0891568e-7), (-0.603741, -0.79718053, 2.0891568e-7), (-0.79717475, -0.6037488, 2.5768864e-7), (-0.1367681, -0.9906032, 4.3011624e-8), (-0.603741, -0.79718053, 2.0891568e-7), (-0.1367681, -0.9906032, 4.3011624e-8), (0.13676809, -0.9906032, -4.4163716e-8), (0.13676809, -0.9906032, -4.4163716e-8), (-0.1367681, -0.9906032, 4.3011624e-8), (0.603741, -0.79718053, -2.0987576e-7), (0.13676809, -0.9906032, -4.4163716e-8), (0.603741, -0.79718053, -2.0987576e-7), (0.79717463, -0.6037488, -2.5807267e-7), (0.79717463, -0.6037488, -2.5807267e-7), (0.603741, -0.79718053, -2.0987576e-7), (0.9906026, -0.1367715, -3.22587e-7), (0.79717463, -0.6037488, -2.5807267e-7), (0.9906026, -0.1367715, -3.22587e-7), (0.9906028, 0.13677056, -3.2028058e-7), (-0.9906028, 0.13677055, 3.195125e-7), (-0.6037454, 0.79717726, 2.098749e-7), (0.13676856, 0.9906031, -4.45479e-8), (0.13676856, 0.9906031, -4.45479e-8), (0.7971781, 0.60374427, -2.5768523e-7), (0.9906026, -0.1367715, -3.22587e-7), (0.9906026, -0.1367715, -3.22587e-7), (0.603741, -0.79718053, -2.0987576e-7), (-0.1367681, -0.9906032, 4.3011624e-8), (-0.1367681, -0.9906032, 4.3011624e-8), (-0.79717475, -0.6037488, 2.5768864e-7), (-0.9906028, 0.13677055, 3.195125e-7), (-0.9906028, 0.13677055, 3.195125e-7), (0.13676856, 0.9906031, -4.45479e-8), (0.9906026, -0.1367715, -3.22587e-7), (0.9906026, -0.1367715, -3.22587e-7), (-0.1367681, -0.9906032, 4.3011624e-8), (-0.9906028, 0.13677055, 3.195125e-7), (0.9906028, 0.13677056, -3.2028058e-7), (0.9906026, -0.1367715, -3.22587e-7), (0.7971781, 0.60374427, -2.5768523e-7), (0.9906028, 0.13677056, -3.2028058e-7), (0.7971781, 0.60374427, -2.5768523e-7), (0.60374546, 0.7971772, -2.0891481e-7), (0.60374546, 0.7971772, -2.0891481e-7), (0.7971781, 0.60374427, -2.5768523e-7), (0.13676856, 0.9906031, -4.45479e-8), (0.60374546, 0.7971772, -2.0891481e-7), (0.13676856, 0.9906031, -4.45479e-8), (-0.13676856, 0.9906031, 4.416387e-8), (0.60374546, 0.7971772, -2.0891481e-7), (-0.13676856, 0.9906031, 4.416387e-8), (-0.79717815, 0.6037443, 2.5806926e-7), (-0.79717815, 0.6037443, 2.5806926e-7), (-0.9906026, -0.13677149, 3.2047478e-7), (-0.603741, -0.79718053, 2.0891568e-7), (-0.603741, -0.79718053, 2.0891568e-7), (0.13676809, -0.9906032, -4.4163716e-8), (0.79717463, -0.6037488, -2.5807267e-7), (0.79717463, -0.6037488, -2.5807267e-7), (0.9906028, 0.13677056, -3.2028058e-7), (0.60374546, 0.7971772, -2.0891481e-7), (0.60374546, 0.7971772, -2.0891481e-7), (-0.79717815, 0.6037443, 2.5806926e-7), (-0.603741, -0.79718053, 2.0891568e-7), (-0.603741, -0.79718053, 2.0891568e-7), (0.79717463, -0.6037488, -2.5807267e-7), (0.60374546, 0.7971772, -2.0891481e-7)] (
        interpolation = "faceVarying"
    )
    point3f[] points = [(3.2013073e-8, 0.0019999899, 0.06912005), (-2.7591572e-8, 0.0019999899, -0.06912004), (-0.0014142372, 0.0014142251, -0.06912004), (-0.0014141925, 0.0014142251, 0.06912005), (-0.0020000169, -1.43158045e-8, -0.06912004), (-0.0019999722, -1.43158045e-8, 0.06912005), (-0.0014142372, -0.0014142239, -0.06912004), (-0.0014141925, -0.0014142239, 0.06912005), (-2.7591572e-8, -0.0019999885, -0.06912004), (3.2013073e-8, -0.0019999885, 0.06912005), (0.0014141969, -0.0014142239, -0.06912004), (0.0014142416, -0.0014142239, 0.06912005), (0.0019999763, -1.43158045e-8, -0.06912004), (0.002000021, -1.43158045e-8, 0.06912005), (0.0014141969, 0.0014142251, -0.06912004), (0.0014142416, 0.0014142251, 0.06912005)]
}

