#usda 1.0
(
    defaultPrim = "UCX_Counter_Watertab_007"
    upAxis = "Z"
)

def Mesh "UCX_Counter_Watertab_007"
{
    int[] faceVertexCounts = [3, 3, 3, 3, 3, 3, 3, 3, 3, 3, 3, 3, 3, 3, 3, 3, 3, 3, 3, 3, 3, 3, 3, 3, 3, 3, 3, 3, 3, 3, 3, 3, 3, 3, 3, 3, 3, 3, 3, 3, 3, 3, 3, 3, 3, 3, 3, 3, 3, 3, 3, 3, 3, 3, 3, 3, 3, 3, 3, 3, 3, 3, 3, 3, 3, 3, 3, 3, 3, 3, 3, 3, 3, 3, 3, 3, 3, 3, 3, 3, 3, 3, 3, 3, 3, 3, 3, 3, 3, 3, 3, 3, 3, 3, 3, 3, 3, 3, 3, 3, 3, 3, 3, 3, 3, 3, 3, 3, 3, 3, 3, 3, 3, 3, 3, 3, 3, 3, 3, 3, 3, 3, 3, 3, 3, 3, 3, 3, 3, 3, 3, 3]
    int[] faceVertexIndices = [0, 1, 2, 3, 4, 2, 3, 2, 5, 6, 3, 5, 6, 5, 7, 8, 6, 7, 8, 7, 9, 10, 8, 9, 10, 9, 11, 12, 13, 10, 12, 10, 11, 14, 15, 13, 14, 13, 12, 16, 17, 15, 16, 15, 14, 18, 19, 17, 18, 17, 16, 20, 21, 19, 20, 19, 18, 22, 23, 21, 22, 21, 20, 24, 25, 23, 24, 23, 22, 26, 27, 25, 26, 25, 24, 28, 29, 27, 28, 27, 26, 30, 31, 29, 30, 29, 28, 32, 33, 31, 32, 31, 30, 34, 35, 36, 35, 37, 33, 35, 33, 32, 35, 34, 38, 39, 40, 37, 39, 37, 35, 41, 42, 40, 41, 40, 39, 43, 44, 42, 43, 42, 41, 45, 46, 44, 45, 44, 43, 47, 46, 45, 47, 45, 48, 49, 47, 48, 49, 48, 50, 51, 49, 50, 51, 50, 52, 53, 51, 52, 53, 52, 54, 55, 53, 54, 55, 54, 56, 57, 55, 56, 57, 56, 58, 59, 57, 58, 59, 58, 60, 61, 59, 60, 61, 60, 62, 63, 61, 62, 63, 62, 64, 65, 63, 64, 65, 64, 66, 0, 67, 1, 38, 34, 36, 68, 65, 66, 68, 66, 69, 67, 0, 2, 4, 68, 69, 4, 69, 2, 65, 68, 4, 4, 3, 6, 6, 8, 10, 10, 13, 15, 15, 17, 19, 19, 21, 23, 23, 25, 27, 27, 29, 31, 31, 33, 37, 37, 40, 42, 42, 44, 46, 46, 47, 49, 49, 51, 53, 53, 55, 57, 57, 59, 61, 61, 63, 65, 65, 4, 6, 6, 10, 15, 15, 19, 23, 23, 27, 31, 31, 37, 42, 42, 46, 49, 49, 53, 57, 57, 61, 65, 65, 6, 15, 15, 23, 31, 31, 42, 49, 49, 57, 65, 65, 15, 31, 31, 49, 65, 5, 2, 69, 7, 5, 69, 7, 69, 66, 9, 7, 66, 9, 66, 64, 11, 9, 64, 11, 64, 62, 12, 11, 62, 12, 62, 60, 14, 12, 60, 14, 60, 58, 16, 14, 58, 16, 58, 56, 18, 16, 56, 18, 56, 54, 52, 20, 18, 52, 18, 54, 50, 22, 20, 50, 20, 52, 48, 24, 22, 48, 22, 50, 26, 24, 48, 26, 48, 45, 26, 45, 43, 26, 43, 28, 28, 43, 41, 28, 41, 30, 30, 41, 39, 30, 39, 32, 32, 39, 35, 36, 35, 38, 2, 1, 67]
    normal3f[] normals = [(7.674412e-10, 1, 0), (0, -0.9951847, -0.098017484), (0.03154637, 0.99950236, 0), (0.16154234, 0.9868658, 0), (-0.031560097, 0.9995019, 0), (0.03154637, 0.99950236, 0), (0.16154234, 0.9868658, 0), (0.03154637, 0.99950236, 0), (0.22592291, 0.9741452, 0), (0.35094187, 0.93639725, 0), (0.16154234, 0.9868658, 0), (0.22592291, 0.9741452, 0), (0.35094187, 0.93639725, 0), (0.22592291, 0.9741452, 0), (0.41165432, 0.91134006, 0), (0.5269065, 0.84992325, 0), (0.35094187, 0.93639725, 0), (0.41165432, 0.91134006, 0), (0.5269065, 0.84992325, 0), (0.41165432, 0.91134006, 0), (0.58161205, 0.8134663, 0), (0.70536876, 0.7088406, 0), (0.5269065, 0.84992325, 0), (0.58161205, 0.8134663, 0), (0.70536876, 0.7088406, 0), (0.58161205, 0.8134663, 0), (0, 0, 1), (0.8122001, 0.5833789, 0), (0.84884197, 0.5286467, 0), (0.70536876, 0.7088406, 0), (0.8122001, 0.5833789, 0), (0.70536876, 0.7088406, 0), (0, 0, 1), (0.9569405, 0.29028428, 0), (0, 0, -1), (0.84884197, 0.5286467, 0), (0.9569405, 0.29028428, 0), (0.84884197, 0.5286467, 0), (0.8122001, 0.5833789, 0), (0, 0, 1), (0.986631, 0.16297033, 0), (0, 0, -1), (0, 0, 1), (0, 0, -1), (0.9569405, 0.29028428, 0), (0, 0, 1), (0.9994559, -0.03298269, 0), (0.986631, 0.16297033, 0), (0, 0, 1), (0.986631, 0.16297033, 0), (0, 0, 1), (0, 0, 1), (0.9737428, -0.227651, 0), (0.9994559, -0.03298269, 0), (0, 0, 1), (0.9994559, -0.03298269, 0), (0, 0, 1), (0.9569405, -0.2902842, 0), (0.910501, -0.41350695, 0), (0.9737428, -0.227651, 0), (0.9569405, -0.2902842, 0), (0.9737428, -0.227651, 0), (0, 0, 1), (0.84884197, -0.5286467, 0), (0.8122002, -0.583379, 0), (0.910501, -0.41350695, 0), (0.84884197, -0.5286467, 0), (0.910501, -0.41350695, 0), (0.9569405, -0.2902842, 0), (0, 0, 1), (0.682663, -0.73073334, 0), (0.8122002, -0.583379, 0), (0, 0, 1), (0.8122002, -0.583379, 0), (0.84884197, -0.5286467, 0), (0.5816121, -0.81346625, 0), (0.5269065, -0.84992325, 0), (0.682663, -0.73073334, 0), (0.5816121, -0.81346625, 0), (0.682663, -0.73073334, 0), (0, 0, 1), (0.4116543, -0.91134006, 0), (0, 0, -1), (0.5269065, -0.84992325, 0), (0.4116543, -0.91134006, 0), (0.5269065, -0.84992325, 0), (0.5816121, -0.81346625, 0), (0.22592291, -0.9741452, 0), (0.16154234, -0.9868658, 0), (0, 0, -1), (0.22592291, -0.9741452, 0), (0, 0, -1), (0.4116543, -0.91134006, 0), (7.674412e-10, -1, 0), (0.03154637, -0.99950236, 0), (0, 0.9951847, -0.098017484), (0.03154637, -0.99950236, 0), (-0.031560097, -0.9995019, 0), (0.16154234, -0.9868658, 0), (0.03154637, -0.99950236, 0), (0.16154234, -0.9868658, 0), (0.22592291, -0.9741452, 0), (0.03154637, -0.99950236, 0), (7.674412e-10, -1, 0), (0, 0.9951847, -0.098017484), (-0.16154236, -0.9868659, 0), (-0.2259229, -0.9741452, 0), (-0.031560097, -0.9995019, 0), (-0.16154236, -0.9868659, 0), (-0.031560097, -0.9995019, 0), (0.03154637, -0.99950236, 0), (-0.3509419, -0.93639725, 0), (-0.4116543, -0.91134006, 0), (-0.2259229, -0.9741452, 0), (-0.3509419, -0.93639725, 0), (-0.2259229, -0.9741452, 0), (-0.16154236, -0.9868659, 0), (-0.5269065, -0.8499233, 0), (-0.58161205, -0.8134663, 0), (-0.4116543, -0.91134006, 0), (-0.5269065, -0.8499233, 0), (-0.4116543, -0.91134006, 0), (-0.3509419, -0.93639725, 0), (-0.70536876, -0.7088406, 0), (-0.7071068, -0.7071068, 0), (-0.58161205, -0.8134663, 0), (-0.70536876, -0.7088406, 0), (-0.58161205, -0.8134663, 0), (-0.5269065, -0.8499233, 0), (-0.8122002, -0.58337885, 0), (-0.7071068, -0.7071068, 0), (-0.70536876, -0.7088406, 0), (-0.8122002, -0.58337885, 0), (-0.70536876, -0.7088406, 0), (0, 0, 1), (0, 0, -1), (-0.8122002, -0.58337885, 0), (0, 0, 1), (0, 0, -1), (0, 0, 1), (0, 0, 1), (-0.9737428, -0.22765113, 0), (0, 0, -1), (0, 0, 1), (-0.9737428, -0.22765113, 0), (0, 0, 1), (0, 0, 1), (-0.9994559, -0.032982543, 0), (-0.9737428, -0.22765113, 0), (0, 0, 1), (-0.9994559, -0.032982543, 0), (0, 0, 1), (-0.9994559, 0.032982543, 0), (-0.986631, 0.1629702, 0), (-0.9994559, -0.032982543, 0), (-0.9994559, 0.032982543, 0), (-0.986631, 0.1629702, 0), (-0.9994559, 0.032982543, 0), (0, 0, 1), (-0.93576545, 0.3526233, 0), (-0.986631, 0.1629702, 0), (0, 0, 1), (-0.93576545, 0.3526233, 0), (0, 0, 1), (0, 0, 1), (-0.8488421, 0.5286465, 0), (-0.93576545, 0.3526233, 0), (0, 0, 1), (-0.8488421, 0.5286465, 0), (0, 0, 1), (-0.8819214, 0.4713966, 0), (-0.7292443, 0.68425345, 0), (-0.8488421, 0.5286465, 0), (-0.8819214, 0.4713966, 0), (-0.7292443, 0.68425345, 0), (-0.8819214, 0.4713966, 0), (-0.682663, 0.73073334, 0), (-0.5816121, 0.81346637, 0), (-0.7292443, 0.68425345, 0), (-0.682663, 0.73073334, 0), (-0.5816121, 0.81346637, 0), (-0.682663, 0.73073334, 0), (-0.52690655, 0.84992325, 0), (0, 0, -1), (-0.5816121, 0.81346637, 0), (-0.52690655, 0.84992325, 0), (0, 0, -1), (-0.52690655, 0.84992325, 0), (-0.3509419, 0.93639725, 0), (7.674412e-10, 1, 0), (0, -0.9951847, -0.098017484), (0, -0.9951847, -0.098017484), (0, 0.9951847, -0.098017484), (7.674412e-10, -1, 0), (0, 0.9951847, -0.098017484), (-0.2259229, 0.9741452, 0), (0, 0, -1), (-0.3509419, 0.93639725, 0), (-0.2259229, 0.9741452, 0), (-0.3509419, 0.93639725, 0), (-0.16154236, 0.9868659, 0), (0, -0.9951847, -0.098017484), (7.674412e-10, 1, 0), (0.03154637, 0.99950236, 0), (-0.031560097, 0.9995019, 0), (-0.2259229, 0.9741452, 0), (-0.16154236, 0.9868659, 0), (-0.031560097, 0.9995019, 0), (-0.16154236, 0.9868659, 0), (0.03154637, 0.99950236, 0), (0, 0, -1), (-0.2259229, 0.9741452, 0), (-0.031560097, 0.9995019, 0), (-0.031560097, 0.9995019, 0), (0.16154234, 0.9868658, 0), (0.35094187, 0.93639725, 0), (0.35094187, 0.93639725, 0), (0.5269065, 0.84992325, 0), (0.70536876, 0.7088406, 0), (0.70536876, 0.7088406, 0), (0.84884197, 0.5286467, 0), (0, 0, -1), (0, 0, -1), (0.986631, 0.16297033, 0), (0.9994559, -0.03298269, 0), (0.9994559, -0.03298269, 0), (0.9737428, -0.227651, 0), (0.910501, -0.41350695, 0), (0.910501, -0.41350695, 0), (0.8122002, -0.583379, 0), (0.682663, -0.73073334, 0), (0.682663, -0.73073334, 0), (0.5269065, -0.84992325, 0), (0, 0, -1), (0, 0, -1), (0.16154234, -0.9868658, 0), (-0.031560097, -0.9995019, 0), (-0.031560097, -0.9995019, 0), (-0.2259229, -0.9741452, 0), (-0.4116543, -0.91134006, 0), (-0.4116543, -0.91134006, 0), (-0.58161205, -0.8134663, 0), (-0.7071068, -0.7071068, 0), (-0.7071068, -0.7071068, 0), (-0.8122002, -0.58337885, 0), (0, 0, -1), (0, 0, -1), (-0.9737428, -0.22765113, 0), (-0.9994559, -0.032982543, 0), (-0.9994559, -0.032982543, 0), (-0.986631, 0.1629702, 0), (-0.93576545, 0.3526233, 0), (-0.93576545, 0.3526233, 0), (-0.8488421, 0.5286465, 0), (-0.7292443, 0.68425345, 0), (-0.7292443, 0.68425345, 0), (-0.5816121, 0.81346637, 0), (0, 0, -1), (0, 0, -1), (-0.031560097, 0.9995019, 0), (0.35094187, 0.93639725, 0), (0.35094187, 0.93639725, 0), (0.70536876, 0.7088406, 0), (0, 0, -1), (0, 0, -1), (0.9994559, -0.03298269, 0), (0.910501, -0.41350695, 0), (0.910501, -0.41350695, 0), (0.682663, -0.73073334, 0), (0, 0, -1), (0, 0, -1), (-0.031560097, -0.9995019, 0), (-0.4116543, -0.91134006, 0), (-0.4116543, -0.91134006, 0), (-0.7071068, -0.7071068, 0), (0, 0, -1), (0, 0, -1), (-0.9994559, -0.032982543, 0), (-0.93576545, 0.3526233, 0), (-0.93576545, 0.3526233, 0), (-0.7292443, 0.68425345, 0), (0, 0, -1), (0, 0, -1), (0.35094187, 0.93639725, 0), (0, 0, -1), (0, 0, -1), (0.910501, -0.41350695, 0), (0, 0, -1), (0, 0, -1), (-0.4116543, -0.91134006, 0), (0, 0, -1), (0, 0, -1), (-0.93576545, 0.3526233, 0), (0, 0, -1), (0, 0, -1), (0, 0, -1), (0, 0, -1), (0, 0, -1), (0, 0, -1), (0, 0, -1), (0.22592291, 0.9741452, 0), (0.03154637, 0.99950236, 0), (-0.16154236, 0.9868659, 0), (0.41165432, 0.91134006, 0), (0.22592291, 0.9741452, 0), (-0.16154236, 0.9868659, 0), (0.41165432, 0.91134006, 0), (-0.16154236, 0.9868659, 0), (-0.3509419, 0.93639725, 0), (0.58161205, 0.8134663, 0), (0.41165432, 0.91134006, 0), (-0.3509419, 0.93639725, 0), (0.58161205, 0.8134663, 0), (-0.3509419, 0.93639725, 0), (-0.52690655, 0.84992325, 0), (0, 0, 1), (0.58161205, 0.8134663, 0), (-0.52690655, 0.84992325, 0), (0, 0, 1), (-0.52690655, 0.84992325, 0), (-0.682663, 0.73073334, 0), (0.8122001, 0.5833789, 0), (0, 0, 1), (-0.682663, 0.73073334, 0), (0.8122001, 0.5833789, 0), (-0.682663, 0.73073334, 0), (-0.8819214, 0.4713966, 0), (0.9569405, 0.29028428, 0), (0.8122001, 0.5833789, 0), (-0.8819214, 0.4713966, 0), (0.9569405, 0.29028428, 0), (-0.8819214, 0.4713966, 0), (0, 0, 1), (0, 0, 1), (0.9569405, 0.29028428, 0), (0, 0, 1), (0, 0, 1), (0, 0, 1), (0, 0, 1), (0, 0, 1), (0, 0, 1), (0, 0, 1), (0, 0, 1), (0, 0, 1), (-0.9994559, 0.032982543, 0), (0, 0, 1), (0, 0, 1), (0, 0, 1), (0, 0, 1), (0, 0, 1), (-0.9994559, 0.032982543, 0), (0, 0, 1), (0.9569405, -0.2902842, 0), (0, 0, 1), (0, 0, 1), (0, 0, 1), (0, 0, 1), (0, 0, 1), (0.84884197, -0.5286467, 0), (0.9569405, -0.2902842, 0), (0, 0, 1), (0.9569405, -0.2902842, 0), (0, 0, 1), (0, 0, 1), (0.84884197, -0.5286467, 0), (0, 0, 1), (0, 0, 1), (0, 0, 1), (-0.70536876, -0.7088406, 0), (0, 0, 1), (-0.70536876, -0.7088406, 0), (-0.5269065, -0.8499233, 0), (0, 0, 1), (-0.5269065, -0.8499233, 0), (0.5816121, -0.81346625, 0), (0.5816121, -0.81346625, 0), (-0.5269065, -0.8499233, 0), (-0.3509419, -0.93639725, 0), (0.5816121, -0.81346625, 0), (-0.3509419, -0.93639725, 0), (0.4116543, -0.91134006, 0), (0.4116543, -0.91134006, 0), (-0.3509419, -0.93639725, 0), (-0.16154236, -0.9868659, 0), (0.4116543, -0.91134006, 0), (-0.16154236, -0.9868659, 0), (0.22592291, -0.9741452, 0), (0.22592291, -0.9741452, 0), (-0.16154236, -0.9868659, 0), (0.03154637, -0.99950236, 0), (0, 0.9951847, -0.098017484), (0.03154637, -0.99950236, 0), (0, 0.9951847, -0.098017484), (0.03154637, 0.99950236, 0), (0, -0.9951847, -0.098017484), (0, -0.9951847, -0.098017484)] (
        interpolation = "faceVarying"
    )
    point3f[] points = [(-2.0269213e-10, 0.022360003, 0.04811721), (0.00046582872, 0.022314122, 0.04811721), (-2.0269213e-10, 0.022360003, 0.047651377), (0.00436222, 0.021930357, -0.029882846), (-2.0269213e-10, 0.022360003, -0.029882846), (0.00436222, 0.021930357, 0.04328916), (0.008556804, 0.020657947, -0.029882846), (0.008556804, 0.020657947, 0.03909457), (0.012422554, 0.018591663, -0.029882846), (0.012422554, 0.018591663, 0.035228822), (0.01581091, 0.015810912, -0.029882846), (0.01581091, 0.015810912, 0.031840462), (0.018591665, 0.012422553, 0.02905971), (0.018591665, 0.012422553, -0.029882846), (0.020657951, 0.008556805, 0.026993426), (0.020657951, 0.008556805, -0.029882846), (0.021930363, 0.004362217, 0.025721015), (0.021930363, 0.004362217, -0.029882846), (0.022360006, -1.1400418e-9, 0.02529137), (0.022360006, -1.1400418e-9, -0.029882846), (0.021930363, -0.004362219, 0.025721015), (0.021930363, -0.004362219, -0.029882846), (0.020657951, -0.0085568065, 0.026993426), (0.020657951, -0.0085568065, -0.029882846), (0.018591665, -0.012422555, 0.02905971), (0.018591665, -0.012422555, -0.029882846), (0.01581091, -0.015810916, 0.031840462), (0.01581091, -0.015810916, -0.029882846), (0.012422554, -0.018591667, 0.035228822), (0.012422554, -0.018591667, -0.029882846), (0.008556804, -0.020657951, 0.03909457), (0.008556804, -0.020657951, -0.029882846), (0.00436222, -0.021930361, 0.04328916), (0.00436222, -0.021930361, -0.029882846), (-2.0269213e-10, -0.022360006, 0.04811721), (-2.0269213e-10, -0.022360006, 0.047651377), (0.00046582872, -0.022314126, 0.04811721), (-2.0269213e-10, -0.022360006, -0.029882846), (-0.00046582913, -0.022314126, 0.04811721), (-0.00436222, -0.021930361, 0.04328916), (-0.00436222, -0.021930361, -0.029882846), (-0.008556804, -0.020657951, 0.03909457), (-0.008556804, -0.020657951, -0.029882846), (-0.012422554, -0.018591667, 0.035228822), (-0.012422554, -0.018591667, -0.029882846), (-0.01581091, -0.015810916, 0.031840462), (-0.01581091, -0.015810916, -0.029882846), (-0.018591665, -0.012422555, -0.029882846), (-0.018591665, -0.012422555, 0.02905971), (-0.02065795, -0.0085568065, -0.029882846), (-0.02065795, -0.0085568065, 0.026993426), (-0.021930363, -0.004362219, -0.029882846), (-0.021930363, -0.004362219, 0.025721015), (-0.022360004, -1.1400418e-9, -0.029882846), (-0.022360004, -1.1400418e-9, 0.02529137), (-0.021930363, 0.004362217, -0.029882846), (-0.021930363, 0.004362217, 0.025721015), (-0.02065795, 0.008556805, -0.029882846), (-0.02065795, 0.008556805, 0.026993426), (-0.018591665, 0.012422553, -0.029882846), (-0.018591665, 0.012422553, 0.02905971), (-0.01581091, 0.015810912, -0.029882846), (-0.01581091, 0.015810912, 0.031840462), (-0.012422554, 0.018591663, -0.029882846), (-0.012422554, 0.018591663, 0.035228822), (-0.008556804, 0.020657947, -0.029882846), (-0.008556804, 0.020657947, 0.03909457), (-0.00046582913, 0.022314122, 0.04811721), (-0.00436222, 0.021930357, -0.029882846), (-0.00436222, 0.021930357, 0.04328916)]
}

