#usda 1.0
(
    defaultPrim = "UCX_Kitchen_05_Base_Drawer_02_004"
    upAxis = "Z"
)

def Mesh "UCX_Kitchen_05_Base_Drawer_02_004"
{
    int[] faceVertexCounts = [3, 3, 3, 3, 3, 3, 3, 3, 3, 3, 3, 3]
    int[] faceVertexIndices = [0, 1, 2, 0, 2, 3, 4, 5, 3, 4, 3, 2, 6, 7, 5, 6, 5, 4, 1, 6, 4, 1, 4, 2, 7, 0, 3, 7, 3, 5, 6, 1, 0, 6, 0, 7]
    normal3f[] normals = [(0.9941576, -0.10793783, 0), (0.9941578, -0.10793773, 0), (-0.9994191, -0.03407897, -0), (0.9941576, -0.10793783, 0), (-0.9994191, -0.03407897, -0), (-0.99941915, -0.034079004, -0), (-0.9994192, -0.034079038, -0), (-0.99941915, -0.034079004, -0), (-0.99941915, -0.034079004, -0), (-0.9994192, -0.034079038, -0), (-0.99941915, -0.034079004, -0), (-0.9994191, -0.03407897, -0), (0.99415773, -0.10793776, 0), (0.99415773, -0.10793776, 0), (-0.99941915, -0.034079004, -0), (0.99415773, -0.10793776, 0), (-0.99941915, -0.034079004, -0), (-0.9994192, -0.034079038, -0), (0.9941578, -0.10793773, 0), (0.99415773, -0.10793776, 0), (-0.9994192, -0.034079038, -0), (0.9941578, -0.10793773, 0), (-0.9994192, -0.034079038, -0), (-0.9994191, -0.03407897, -0), (0.99415773, -0.10793776, 0), (0.9941576, -0.10793783, 0), (-0.99941915, -0.034079004, -0), (0.99415773, -0.10793776, 0), (-0.99941915, -0.034079004, -0), (-0.99941915, -0.034079004, -0), (0.99415773, -0.10793776, 0), (0.9941578, -0.10793773, 0), (0.9941576, -0.10793783, 0), (0.99415773, -0.10793776, 0), (0.9941576, -0.10793783, 0), (0.99415773, -0.10793776, 0)] (
        interpolation = "faceVarying"
    )
    point3f[] points = [(0.0024702912, -0.021420415, 0.23762637), (0.006269105, 0.013568447, 0.23762637), (-0.0052462467, 0.017658703, 0.23762637), (-0.004112913, -0.015578109, 0.23762637), (-0.0052462467, 0.017658703, -0.23762631), (-0.004112913, -0.015578109, -0.23762631), (0.006269105, 0.013568447, -0.23762631), (0.0024702912, -0.021420415, -0.23762631)]
}

