#usda 1.0
(
    defaultPrim = "UCX_Dishwasher_Tray_01_046"
    upAxis = "Z"
)

def Mesh "UCX_Dishwasher_Tray_01_046"
{
    int[] faceVertexCounts = [3, 3, 3, 3, 3, 3, 3, 3, 3, 3, 3, 3]
    int[] faceVertexIndices = [0, 1, 2, 0, 2, 3, 1, 4, 5, 1, 5, 2, 3, 2, 5, 3, 5, 6, 6, 5, 4, 6, 4, 7, 7, 4, 1, 7, 1, 0, 0, 3, 6, 0, 6, 7]
    normal3f[] normals = [(1, -5.551115e-17, 0), (-5.4290537e-17, 0.81429017, -0.580458), (1, -5.551115e-17, 0), (1, -5.551115e-17, 0), (1, -5.551115e-17, 0), (1, -5.551115e-17, 0), (-5.4290537e-17, 0.81429017, -0.580458), (-1, 5.551115e-17, 0), (-1.3924717e-17, 0.88333887, 0.46873498), (-5.4290537e-17, 0.81429017, -0.580458), (-1.3924717e-17, 0.88333887, 0.46873498), (1, -5.551115e-17, 0), (1, -5.551115e-17, 0), (1, -5.551115e-17, 0), (-1.3924717e-17, 0.88333887, 0.46873498), (1, -5.551115e-17, 0), (-1.3924717e-17, 0.88333887, 0.46873498), (-1, 5.551115e-17, 0), (-1, 5.551115e-17, 0), (-1.3924717e-17, 0.88333887, 0.46873498), (-1, 5.551115e-17, 0), (-1, 5.551115e-17, 0), (-1, 5.551115e-17, 0), (-1, 5.551115e-17, 0), (-1, 5.551115e-17, 0), (-1, 5.551115e-17, 0), (-5.4290537e-17, 0.81429017, -0.580458), (-1, 5.551115e-17, 0), (-5.4290537e-17, 0.81429017, -0.580458), (1, -5.551115e-17, 0), (1, -5.551115e-17, 0), (1, -5.551115e-17, 0), (-1, 5.551115e-17, 0), (1, -5.551115e-17, 0), (-1, 5.551115e-17, 0), (-1, 5.551115e-17, 0)] (
        interpolation = "faceVarying"
    )
    point3f[] points = [(0.0021554937, -0.004457063, -0.013491034), (0.0021554937, 0.006146145, -0.0037985924), (0.0021554937, 0.0064930567, 0.0018702417), (0.0021554937, -0.0036123926, 0.014591535), (-0.0021555016, 0.006146145, -0.0037985924), (-0.0021555016, 0.0064930567, 0.0018702417), (-0.0021555016, -0.0036123926, 0.014591535), (-0.0021555016, -0.004457063, -0.013491034)]
}

