#usda 1.0
(
    defaultPrim = "UCX_Kitchen_05_Base_Drawer_01_002"
    upAxis = "Z"
)

def Mesh "UCX_Kitchen_05_Base_Drawer_01_002"
{
    int[] faceVertexCounts = [3, 3, 3, 3, 3, 3, 3, 3, 3, 3, 3, 3]
    int[] faceVertexIndices = [0, 1, 2, 0, 2, 3, 4, 5, 6, 4, 6, 7, 1, 0, 7, 1, 7, 6, 2, 1, 6, 2, 6, 5, 2, 5, 4, 2, 4, 3, 3, 4, 7, 3, 7, 0]
    normal3f[] normals = [(1, 0, 0), (1, 0, 0), (1, 0, 0), (1, 0, 0), (1, 0, 0), (1, 0, 0), (-0.99997246, 0, 0.007424604), (-0.99989206, -0, -0.014699863), (-0.99989206, -0, -0.014699864), (-0.99997246, 0, 0.007424604), (-0.99989206, -0, -0.014699864), (-0.99958473, 0, 0.028815653), (1, 0, 0), (1, 0, 0), (-0.99958473, 0, 0.028815653), (1, 0, 0), (-0.99958473, 0, 0.028815653), (-0.99989206, -0, -0.014699864), (1, 0, 0), (1, 0, 0), (-0.99989206, -0, -0.014699864), (1, 0, 0), (-0.99989206, -0, -0.014699864), (-0.99989206, -0, -0.014699863), (1, 0, 0), (-0.99989206, -0, -0.014699863), (-0.99997246, 0, 0.007424604), (1, 0, 0), (-0.99997246, 0, 0.007424604), (1, 0, 0), (1, 0, 0), (-0.99997246, 0, 0.007424604), (-0.99958473, 0, 0.028815653), (1, 0, 0), (-0.99958473, 0, 0.028815653), (1, 0, 0)] (
        interpolation = "faceVarying"
    )
    point3f[] points = [(0.0035999636, -0.23762634, 0.2514304), (0.0035999636, -0.23762634, -0.2514304), (0.0035999636, 0.23762634, -0.2514304), (0.0035999636, 0.23762634, 0.2514304), (-0.0036481773, 0.23762634, 0.2415918), (-0.0036481773, 0.23762634, -0.2415918), (-0.0036481773, -0.23762634, -0.2415918), (-0.0036481773, -0.23762634, 0.2415918)]
}

