#usda 1.0
(
    defaultPrim = "UCX_Dishwasher_Tray_01_115"
    upAxis = "Z"
)

def Mesh "UCX_Dishwasher_Tray_01_115"
{
    int[] faceVertexCounts = [3, 3, 3, 3, 3, 3, 3, 3, 3, 3, 3, 3, 3, 3, 3, 3, 3, 3, 3, 3, 3, 3, 3, 3, 3, 3, 3, 3]
    int[] faceVertexIndices = [0, 1, 2, 0, 2, 3, 1, 4, 5, 1, 5, 2, 4, 6, 7, 4, 7, 5, 6, 8, 9, 6, 9, 7, 8, 10, 11, 8, 11, 9, 10, 12, 13, 10, 13, 11, 3, 2, 5, 5, 7, 9, 9, 11, 13, 13, 14, 3, 3, 5, 9, 9, 13, 3, 12, 15, 14, 12, 14, 13, 15, 0, 3, 15, 3, 14, 1, 0, 15, 15, 12, 10, 10, 8, 6, 6, 4, 1, 1, 15, 10, 10, 6, 1]
    normal3f[] normals = [(-0.14417891, 0.98955166, -6.4086465e-9), (-0.8124195, 0.5830734, -1.9719305e-8), (-0.6243166, 0.78117144, -3.7083396e-8), (-0.14417891, 0.98955166, -6.4086465e-9), (-0.6243166, 0.78117144, -3.7083396e-8), (0.1441799, 0.9895515, -1.2944189e-9), (-0.8124195, 0.5830734, -1.9719305e-8), (-0.99154913, -0.1297325, 7.746636e-9), (-0.991549, 0.12973304, -9.600587e-9), (-0.8124195, 0.5830734, -1.9719305e-8), (-0.991549, 0.12973304, -9.600587e-9), (-0.6243166, 0.78117144, -3.7083396e-8), (-0.99154913, -0.1297325, 7.746636e-9), (-0.6243163, -0.7811717, -4.3613863e-8), (-0.8124199, -0.5830731, 4.158383e-9), (-0.99154913, -0.1297325, 7.746636e-9), (-0.8124199, -0.5830731, 4.158383e-9), (-0.991549, 0.12973304, -9.600587e-9), (-0.6243163, -0.7811717, -4.3613863e-8), (0.14417984, -0.9895516, 3.858695e-9), (-0.14417894, -0.98955166, -1.26333335e-8), (-0.6243163, -0.7811717, -4.3613863e-8), (-0.14417894, -0.98955166, -1.26333335e-8), (-0.8124199, -0.5830731, 4.158383e-9), (0.14417984, -0.9895516, 3.858695e-9), (0.8124168, -0.5830771, 4.6043223e-8), (0.6243196, -0.781169, 2.9127763e-8), (0.14417984, -0.9895516, 3.858695e-9), (0.6243196, -0.781169, 2.9127763e-8), (-0.14417894, -0.98955166, -1.26333335e-8), (0.8124168, -0.5830771, 4.6043223e-8), (0.99154824, 0.12973897, 2.9191982e-8), (0.99154824, -0.12973838, 5.735596e-8), (0.8124168, -0.5830771, 4.6043223e-8), (0.99154824, -0.12973838, 5.735596e-8), (0.6243196, -0.781169, 2.9127763e-8), (0.1441799, 0.9895515, -1.2944189e-9), (-0.6243166, 0.78117144, -3.7083396e-8), (-0.991549, 0.12973304, -9.600587e-9), (-0.991549, 0.12973304, -9.600587e-9), (-0.8124199, -0.5830731, 4.158383e-9), (-0.14417894, -0.98955166, -1.26333335e-8), (-0.14417894, -0.98955166, -1.26333335e-8), (0.6243196, -0.781169, 2.9127763e-8), (0.99154824, -0.12973838, 5.735596e-8), (0.99154824, -0.12973838, 5.735596e-8), (0.81241685, 0.5830771, 1.7879241e-8), (0.1441799, 0.9895515, -1.2944189e-9), (0.1441799, 0.9895515, -1.2944189e-9), (-0.991549, 0.12973304, -9.600587e-9), (-0.14417894, -0.98955166, -1.26333335e-8), (-0.14417894, -0.98955166, -1.26333335e-8), (0.99154824, -0.12973838, 5.735596e-8), (0.1441799, 0.9895515, -1.2944189e-9), (0.99154824, 0.12973897, 2.9191982e-8), (0.6243199, 0.7811688, 2.8005676e-8), (0.81241685, 0.5830771, 1.7879241e-8), (0.99154824, 0.12973897, 2.9191982e-8), (0.81241685, 0.5830771, 1.7879241e-8), (0.99154824, -0.12973838, 5.735596e-8), (0.6243199, 0.7811688, 2.8005676e-8), (-0.14417891, 0.98955166, -6.4086465e-9), (0.1441799, 0.9895515, -1.2944189e-9), (0.6243199, 0.7811688, 2.8005676e-8), (0.1441799, 0.9895515, -1.2944189e-9), (0.81241685, 0.5830771, 1.7879241e-8), (-0.8124195, 0.5830734, -1.9719305e-8), (-0.14417891, 0.98955166, -6.4086465e-9), (0.6243199, 0.7811688, 2.8005676e-8), (0.6243199, 0.7811688, 2.8005676e-8), (0.99154824, 0.12973897, 2.9191982e-8), (0.8124168, -0.5830771, 4.6043223e-8), (0.8124168, -0.5830771, 4.6043223e-8), (0.14417984, -0.9895516, 3.858695e-9), (-0.6243163, -0.7811717, -4.3613863e-8), (-0.6243163, -0.7811717, -4.3613863e-8), (-0.99154913, -0.1297325, 7.746636e-9), (-0.8124195, 0.5830734, -1.9719305e-8), (-0.8124195, 0.5830734, -1.9719305e-8), (0.6243199, 0.7811688, 2.8005676e-8), (0.8124168, -0.5830771, 4.6043223e-8), (0.8124168, -0.5830771, 4.6043223e-8), (-0.6243163, -0.7811717, -4.3613863e-8), (-0.8124195, 0.5830734, -1.9719305e-8)] (
        interpolation = "faceVarying"
    )
    point3f[] points = [(7.689262e-9, 0.002000004, -0.030801203), (-0.001340175, 0.0014142096, -0.030801209), (-0.0013401759, 0.0014142096, 0.030801209), (4.498533e-9, 0.002000004, 0.03080122), (-0.0018952753, 4.8837476e-11, -0.030801196), (-0.0018952737, 4.8837476e-11, 0.030801214), (-0.001340175, -0.0014142096, -0.030801209), (-0.0013401759, -0.0014142096, 0.030801209), (7.689262e-9, -0.002000004, -0.030801203), (4.498533e-9, -0.002000004, 0.03080122), (0.0013401622, -0.0014142096, -0.03080121), (0.0013401591, -0.0014142096, 0.030801214), (0.0018952859, 4.8837476e-11, -0.030801198), (0.0018952851, 4.8837476e-11, 0.030801218), (0.0013401591, 0.0014142096, 0.030801214), (0.0013401622, 0.0014142096, -0.03080121)]
}

