#usda 1.0
(
    defaultPrim = "UCX_Dishwasher_Tray_01_135"
    upAxis = "Z"
)

def Mesh "UCX_Dishwasher_Tray_01_135"
{
    int[] faceVertexCounts = [3, 3, 3, 3, 3, 3, 3, 3, 3, 3, 3, 3, 3, 3, 3, 3, 3, 3, 3, 3, 3, 3, 3, 3, 3, 3, 3, 3]
    int[] faceVertexIndices = [0, 1, 2, 0, 2, 3, 3, 2, 4, 3, 4, 5, 5, 4, 6, 5, 6, 7, 7, 6, 8, 7, 8, 9, 9, 8, 10, 9, 10, 11, 11, 10, 12, 11, 12, 13, 4, 2, 1, 1, 14, 12, 12, 10, 8, 8, 6, 4, 4, 1, 12, 12, 8, 4, 13, 12, 14, 13, 14, 15, 15, 14, 1, 15, 1, 0, 15, 0, 3, 3, 5, 7, 7, 9, 11, 11, 13, 15, 15, 3, 7, 7, 11, 15]
    normal3f[] normals = [(-0.9906023, -0.13677369, 5.2820955e-8), (-0.9906026, 0.13677198, 3.8344112e-8), (-0.7971764, -0.6037466, 7.1601896e-8), (-0.9906023, -0.13677369, 5.2820955e-8), (-0.7971764, -0.6037466, 7.1601896e-8), (-0.60374844, -0.7971749, 6.33853e-8), (-0.60374844, -0.7971749, 6.33853e-8), (-0.7971764, -0.6037466, 7.1601896e-8), (-0.13677198, -0.9906026, 5.790743e-8), (-0.60374844, -0.7971749, 6.33853e-8), (-0.13677198, -0.9906026, 5.790743e-8), (0.13677172, -0.9906026, 4.6854073e-8), (0.13677172, -0.9906026, 4.6854073e-8), (-0.13677198, -0.9906026, 5.790743e-8), (0.60374457, -0.79717785, 1.0662027e-8), (0.13677172, -0.9906026, 4.6854073e-8), (0.60374457, -0.79717785, 1.0662027e-8), (0.7971755, -0.6037476, 6.2602683e-9), (0.7971755, -0.6037476, 6.2602683e-9), (0.60374457, -0.79717785, 1.0662027e-8), (0.9906026, -0.1367715, -2.8171085e-8), (0.7971755, -0.6037476, 6.2602683e-9), (0.9906026, -0.1367715, -2.8171085e-8), (0.99060243, 0.13677321, -4.382168e-8), (0.99060243, 0.13677321, -4.382168e-8), (0.9906026, -0.1367715, -2.8171085e-8), (0.7971755, 0.6037476, -7.5416665e-8), (0.99060243, 0.13677321, -4.382168e-8), (0.7971755, 0.6037476, -7.5416665e-8), (0.6037455, 0.79717726, -7.7470986e-8), (0.6037455, 0.79717726, -7.7470986e-8), (0.7971755, 0.6037476, -7.5416665e-8), (0.13677198, 0.9906026, -6.103757e-8), (0.6037455, 0.79717726, -7.7470986e-8), (0.13677198, 0.9906026, -6.103757e-8), (-0.13677198, 0.9906026, -5.0669005e-8), (-0.13677198, -0.9906026, 5.790743e-8), (-0.7971764, -0.6037466, 7.1601896e-8), (-0.9906026, 0.13677198, 3.8344112e-8), (-0.9906026, 0.13677198, 3.8344112e-8), (-0.6037476, 0.7971755, -2.3476005e-8), (0.13677198, 0.9906026, -6.103757e-8), (0.13677198, 0.9906026, -6.103757e-8), (0.7971755, 0.6037476, -7.5416665e-8), (0.9906026, -0.1367715, -2.8171085e-8), (0.9906026, -0.1367715, -2.8171085e-8), (0.60374457, -0.79717785, 1.0662027e-8), (-0.13677198, -0.9906026, 5.790743e-8), (-0.13677198, -0.9906026, 5.790743e-8), (-0.9906026, 0.13677198, 3.8344112e-8), (0.13677198, 0.9906026, -6.103757e-8), (0.13677198, 0.9906026, -6.103757e-8), (0.9906026, -0.1367715, -2.8171085e-8), (-0.13677198, -0.9906026, 5.790743e-8), (-0.13677198, 0.9906026, -5.0669005e-8), (0.13677198, 0.9906026, -6.103757e-8), (-0.6037476, 0.7971755, -2.3476005e-8), (-0.13677198, 0.9906026, -5.0669005e-8), (-0.6037476, 0.7971755, -2.3476005e-8), (-0.7971755, 0.6037476, -9.390402e-9), (-0.7971755, 0.6037476, -9.390402e-9), (-0.6037476, 0.7971755, -2.3476005e-8), (-0.9906026, 0.13677198, 3.8344112e-8), (-0.7971755, 0.6037476, -9.390402e-9), (-0.9906026, 0.13677198, 3.8344112e-8), (-0.9906023, -0.13677369, 5.2820955e-8), (-0.7971755, 0.6037476, -9.390402e-9), (-0.9906023, -0.13677369, 5.2820955e-8), (-0.60374844, -0.7971749, 6.33853e-8), (-0.60374844, -0.7971749, 6.33853e-8), (0.13677172, -0.9906026, 4.6854073e-8), (0.7971755, -0.6037476, 6.2602683e-9), (0.7971755, -0.6037476, 6.2602683e-9), (0.99060243, 0.13677321, -4.382168e-8), (0.6037455, 0.79717726, -7.7470986e-8), (0.6037455, 0.79717726, -7.7470986e-8), (-0.13677198, 0.9906026, -5.0669005e-8), (-0.7971755, 0.6037476, -9.390402e-9), (-0.7971755, 0.6037476, -9.390402e-9), (-0.60374844, -0.7971749, 6.33853e-8), (0.7971755, -0.6037476, 6.2602683e-9), (0.7971755, -0.6037476, 6.2602683e-9), (0.6037455, 0.79717726, -7.7470986e-8), (-0.7971755, 0.6037476, -9.390402e-9)] (
        interpolation = "faceVarying"
    )
    point3f[] points = [(-0.0019999936, 1.5174038e-8, 0.13568456), (-0.0020000085, -1.4628284e-8, -0.1356846), (-0.0014142216, -0.0014142243, -0.1356846), (-0.0014142141, -0.0014142094, 0.13568456), (-1.1983361e-8, -0.0020000038, -0.1356846), (2.9178002e-9, -0.001999989, 0.13568456), (0.0014142051, -0.0014142243, -0.1356846), (0.00141422, -0.0014142094, 0.13568456), (0.0019999922, -1.4628284e-8, -0.1356846), (0.0019999996, 1.5174038e-8, 0.13568456), (0.0014142051, 0.0014142098, -0.1356846), (0.00141422, 0.0014142247, 0.13568456), (-1.1983361e-8, 0.0019999894, -0.1356846), (2.9178002e-9, 0.0020000043, 0.13568456), (-0.0014142216, 0.0014142098, -0.1356846), (-0.0014142141, 0.0014142247, 0.13568456)]
}

