#usda 1.0
(
    defaultPrim = "UCX_Kitchen_11_Base_Drawer_01_002"
    upAxis = "Z"
)

def Mesh "UCX_Kitchen_11_Base_Drawer_01_002"
{
    int[] faceVertexCounts = [3, 3, 3, 3, 3, 3, 3, 3, 3, 3, 3, 3]
    int[] faceVertexIndices = [0, 1, 2, 0, 2, 3, 4, 5, 3, 4, 3, 2, 6, 7, 5, 6, 5, 4, 1, 6, 4, 1, 4, 2, 7, 0, 3, 7, 3, 5, 6, 1, 0, 6, 0, 7]
    normal3f[] normals = [(0.9941577, -0.10793761, 0), (0.99415773, -0.107937545, 0), (-0.99941915, -0.034078956, -0), (0.9941577, -0.10793761, 0), (-0.99941915, -0.034078956, -0), (-0.9994192, -0.03407899, -0), (-0.9994192, -0.03407899, -0), (-0.9994192, -0.03407899, -0), (-0.9994192, -0.03407899, -0), (-0.9994192, -0.03407899, -0), (-0.9994192, -0.03407899, -0), (-0.99941915, -0.034078956, -0), (0.99415773, -0.107937545, 0), (0.99415773, -0.107937545, 0), (-0.9994192, -0.03407899, -0), (0.99415773, -0.107937545, 0), (-0.9994192, -0.03407899, -0), (-0.9994192, -0.03407899, -0), (0.99415773, -0.107937545, 0), (0.99415773, -0.107937545, 0), (-0.9994192, -0.03407899, -0), (0.99415773, -0.107937545, 0), (-0.9994192, -0.03407899, -0), (-0.99941915, -0.034078956, -0), (0.99415773, -0.107937545, 0), (0.9941577, -0.10793761, 0), (-0.9994192, -0.03407899, -0), (0.99415773, -0.107937545, 0), (-0.9994192, -0.03407899, -0), (-0.9994192, -0.03407899, -0), (0.99415773, -0.107937545, 0), (0.99415773, -0.107937545, 0), (0.9941577, -0.10793761, 0), (0.99415773, -0.107937545, 0), (0.9941577, -0.10793761, 0), (0.99415773, -0.107937545, 0)] (
        interpolation = "faceVarying"
    )
    point3f[] points = [(0.002470291, -0.02142041, 0.23762636), (0.006269097, 0.013568454, 0.23762636), (-0.0052462467, 0.017658696, 0.23762636), (-0.004112914, -0.015578104, 0.23762636), (-0.0052462467, 0.017658696, -0.23762633), (-0.004112914, -0.015578104, -0.23762633), (0.006269097, 0.013568454, -0.23762633), (0.002470291, -0.02142041, -0.23762633)]
}

