#usda 1.0
(
    defaultPrim = "UCX_Kitchen_08_Sink_Drawer_01_002"
    upAxis = "Z"
)

def Mesh "UCX_Kitchen_08_Sink_Drawer_01_002"
{
    int[] faceVertexCounts = [3, 3, 3, 3, 3, 3, 3, 3, 3, 3, 3, 3]
    int[] faceVertexIndices = [0, 1, 2, 0, 2, 3, 3, 2, 4, 3, 4, 5, 0, 3, 5, 0, 5, 6, 5, 4, 7, 5, 7, 6, 2, 1, 7, 2, 7, 4, 6, 7, 1, 6, 1, 0]
    normal3f[] normals = [(-1, 0, 0), (-1, 0, 0), (1, 0, 0), (-1, 0, 0), (1, 0, 0), (1, 0, 0), (1, 0, 0), (1, 0, 0), (1, 0, 0), (1, 0, 0), (1, 0, 0), (1, 0, 0), (-1, 0, 0), (1, 0, 0), (1, 0, 0), (-1, 0, 0), (1, 0, 0), (-1, 0, 0), (1, 0, 0), (1, 0, 0), (-1, 0, 0), (1, 0, 0), (-1, 0, 0), (-1, 0, 0), (1, 0, 0), (-1, 0, 0), (-1, 0, 0), (1, 0, 0), (-1, 0, 0), (1, 0, 0), (-1, 0, 0), (-1, 0, 0), (-1, 0, 0), (-1, 0, 0), (-1, 0, 0), (-1, 0, 0)] (
        interpolation = "faceVarying"
    )
    point3f[] points = [(-0.028136268, -0.17048152, -0.24642494), (-0.028136268, 0.17048155, -0.24642494), (0.028136268, 0.17048155, -0.24642494), (0.028136268, -0.17048152, -0.24642494), (0.028136268, 0.17048155, 0.24642494), (0.028136268, -0.17048152, 0.24642494), (-0.028136268, -0.17048152, 0.24642494), (-0.028136268, 0.17048155, 0.24642494)]
}

