#usda 1.0
(
    defaultPrim = "UCX_Kitchen_11_Base_Drawer_03_001"
    upAxis = "Z"
)

def Mesh "UCX_Kitchen_11_Base_Drawer_03_001"
{
    int[] faceVertexCounts = [3, 3, 3, 3, 3, 3, 3, 3, 3, 3, 3, 3]
    int[] faceVertexIndices = [0, 1, 2, 0, 2, 3, 4, 5, 6, 4, 6, 7, 1, 0, 7, 1, 7, 6, 2, 1, 6, 2, 6, 5, 2, 5, 4, 2, 4, 3, 3, 4, 7, 3, 7, 0]
    normal3f[] normals = [(1, 0, 0), (1, 0, 0), (1, 0, 0), (1, 0, 0), (1, 0, 0), (1, 0, 0), (-0.9999895, 0, 0.0045986166), (-0.9999583, -0, -0.009139893), (-0.9999583, -0, -0.009139893), (-0.9999895, 0, 0.0045986166), (-0.9999583, -0, -0.009139893), (-0.99983704, 0, 0.01805358), (1, 0, 0), (1, 0, 0), (-0.99983704, 0, 0.01805358), (1, 0, 0), (-0.99983704, 0, 0.01805358), (-0.9999583, -0, -0.009139893), (1, 0, 0), (1, 0, 0), (-0.9999583, -0, -0.009139893), (1, 0, 0), (-0.9999583, -0, -0.009139893), (-0.9999583, -0, -0.009139893), (1, 0, 0), (-0.9999583, -0, -0.009139893), (-0.9999895, 0, 0.0045986166), (1, 0, 0), (-0.9999895, 0, 0.0045986166), (1, 0, 0), (1, 0, 0), (-0.9999895, 0, 0.0045986166), (-0.99983704, 0, 0.01805358), (1, 0, 0), (-0.99983704, 0, 0.01805358), (1, 0, 0)] (
        interpolation = "faceVarying"
    )
    point3f[] points = [(0.0036090882, -0.23762634, 0.4014144), (0.0036090882, -0.23762634, -0.4014144), (0.0036090882, 0.23762634, -0.4014144), (0.0036090882, 0.23762634, 0.4014144), (-0.00363906, 0.23762634, 0.3915758), (-0.00363906, 0.23762634, -0.3915758), (-0.00363906, -0.23762634, -0.3915758), (-0.00363906, -0.23762634, 0.3915758)]
}

