#usda 1.0
(
    defaultPrim = "UCX_Dishwasher_Tray_02_045"
    upAxis = "Z"
)

def Mesh "UCX_Dishwasher_Tray_02_045"
{
    int[] faceVertexCounts = [3, 3, 3, 3, 3, 3, 3, 3, 3, 3, 3, 3, 3, 3, 3, 3, 3, 3, 3, 3, 3, 3, 3, 3, 3, 3, 3, 3]
    int[] faceVertexIndices = [0, 1, 2, 0, 2, 3, 1, 4, 5, 1, 5, 2, 4, 6, 7, 4, 7, 5, 6, 8, 9, 6, 9, 7, 8, 10, 11, 8, 11, 9, 10, 12, 13, 10, 13, 11, 3, 2, 5, 5, 7, 9, 9, 11, 13, 13, 14, 3, 3, 5, 9, 9, 13, 3, 12, 15, 14, 12, 14, 13, 15, 0, 3, 15, 3, 14, 1, 0, 15, 15, 12, 10, 10, 8, 6, 6, 4, 1, 1, 15, 10, 10, 6, 1]
    normal3f[] normals = [(0.9906021, -0.13677539, 5.083287e-9), (0.6037476, -0.7971755, 2.996468e-8), (0.7971739, -0.6037499, 1.7523952e-8), (0.9906021, -0.13677539, 5.083287e-9), (0.7971739, -0.6037499, 1.7523952e-8), (0.9906021, 0.13677536, -4.2806625e-9), (0.6037476, -0.7971755, 2.996468e-8), (-0.13677414, -0.99060225, 3.7188393e-8), (0.13677414, -0.99060225, 3.7455933e-8), (0.6037476, -0.7971755, 2.996468e-8), (0.13677414, -0.99060225, 3.7455933e-8), (0.7971739, -0.6037499, 1.7523952e-8), (-0.13677414, -0.99060225, 3.7188393e-8), (-0.79717386, -0.6037498, 1.8192804e-8), (-0.60374874, -0.7971747, 2.9964646e-8), (-0.13677414, -0.99060225, 3.7188393e-8), (-0.60374874, -0.7971747, 2.9964646e-8), (0.13677414, -0.99060225, 3.7455933e-8), (-0.79717386, -0.6037498, 1.8192804e-8), (-0.99060214, 0.13677563, -5.083296e-9), (-0.99060214, -0.13677563, 6.421006e-9), (-0.79717386, -0.6037498, 1.8192804e-8), (-0.99060214, -0.13677563, 6.421006e-9), (-0.60374874, -0.7971747, 2.9964646e-8), (-0.99060214, 0.13677563, -5.083296e-9), (-0.60374874, 0.7971747, -2.9964646e-8), (-0.79717386, 0.6037498, -1.765772e-8), (-0.99060214, 0.13677563, -5.083296e-9), (-0.79717386, 0.6037498, -1.765772e-8), (-0.99060214, -0.13677563, 6.421006e-9), (-0.60374874, 0.7971747, -2.9964646e-8), (0.13677414, 0.99060225, -3.7188393e-8), (-0.13677414, 0.99060225, -3.7455933e-8), (-0.60374874, 0.7971747, -2.9964646e-8), (-0.13677414, 0.99060225, -3.7455933e-8), (-0.79717386, 0.6037498, -1.765772e-8), (0.9906021, 0.13677536, -4.2806625e-9), (0.7971739, -0.6037499, 1.7523952e-8), (0.13677414, -0.99060225, 3.7455933e-8), (0.13677414, -0.99060225, 3.7455933e-8), (-0.60374874, -0.7971747, 2.9964646e-8), (-0.99060214, -0.13677563, 6.421006e-9), (-0.99060214, -0.13677563, 6.421006e-9), (-0.79717386, 0.6037498, -1.765772e-8), (-0.13677414, 0.99060225, -3.7455933e-8), (-0.13677414, 0.99060225, -3.7455933e-8), (0.6037476, 0.7971755, -2.996468e-8), (0.9906021, 0.13677536, -4.2806625e-9), (0.9906021, 0.13677536, -4.2806625e-9), (0.13677414, -0.99060225, 3.7455933e-8), (-0.99060214, -0.13677563, 6.421006e-9), (-0.99060214, -0.13677563, 6.421006e-9), (-0.13677414, 0.99060225, -3.7455933e-8), (0.9906021, 0.13677536, -4.2806625e-9), (0.13677414, 0.99060225, -3.7188393e-8), (0.79717386, 0.6037498, -1.7122638e-8), (0.6037476, 0.7971755, -2.996468e-8), (0.13677414, 0.99060225, -3.7188393e-8), (0.6037476, 0.7971755, -2.996468e-8), (-0.13677414, 0.99060225, -3.7455933e-8), (0.79717386, 0.6037498, -1.7122638e-8), (0.9906021, -0.13677539, 5.083287e-9), (0.9906021, 0.13677536, -4.2806625e-9), (0.79717386, 0.6037498, -1.7122638e-8), (0.9906021, 0.13677536, -4.2806625e-9), (0.6037476, 0.7971755, -2.996468e-8), (0.6037476, -0.7971755, 2.996468e-8), (0.9906021, -0.13677539, 5.083287e-9), (0.79717386, 0.6037498, -1.7122638e-8), (0.79717386, 0.6037498, -1.7122638e-8), (0.13677414, 0.99060225, -3.7188393e-8), (-0.60374874, 0.7971747, -2.9964646e-8), (-0.60374874, 0.7971747, -2.9964646e-8), (-0.99060214, 0.13677563, -5.083296e-9), (-0.79717386, -0.6037498, 1.8192804e-8), (-0.79717386, -0.6037498, 1.8192804e-8), (-0.13677414, -0.99060225, 3.7188393e-8), (0.6037476, -0.7971755, 2.996468e-8), (0.6037476, -0.7971755, 2.996468e-8), (0.79717386, 0.6037498, -1.7122638e-8), (-0.60374874, 0.7971747, -2.9964646e-8), (-0.60374874, 0.7971747, -2.9964646e-8), (-0.79717386, -0.6037498, 1.8192804e-8), (0.6037476, -0.7971755, 2.996468e-8)] (
        interpolation = "faceVarying"
    )
    point3f[] points = [(0.0020000036, -3.7083492e-10, 0.09921604), (0.0014142091, -0.00141421, 0.09921604), (0.0014142091, -0.0014142174, -0.09921603), (0.0020000036, -3.7083492e-10, -0.09921603), (-4.1975132e-10, -0.001999997, 0.09921604), (-4.1975132e-10, -0.0020000045, -0.09921603), (-0.0014142101, -0.00141421, 0.09921604), (-0.0014142101, -0.0014142174, -0.09921603), (-0.0020000045, -3.7083492e-10, 0.09921604), (-0.0020000045, -3.7083492e-10, -0.09921603), (-0.0014142101, 0.0014142167, 0.09921604), (-0.0014142101, 0.0014142093, -0.09921603), (-4.1975132e-10, 0.0020000036, 0.09921604), (-4.1975132e-10, 0.0019999961, -0.09921603), (0.0014142091, 0.0014142093, -0.09921603), (0.0014142091, 0.0014142167, 0.09921604)]
}

