#usda 1.0
(
    defaultPrim = "UCX_Kitchen_06_Base_Drawer_03_002"
    upAxis = "Z"
)

def Mesh "UCX_Kitchen_06_Base_Drawer_03_002"
{
    int[] faceVertexCounts = [3, 3, 3, 3, 3, 3, 3, 3, 3, 3, 3, 3]
    int[] faceVertexIndices = [0, 1, 2, 0, 2, 3, 4, 5, 6, 4, 6, 7, 1, 0, 7, 1, 7, 6, 2, 1, 6, 2, 6, 5, 2, 5, 4, 2, 4, 3, 3, 4, 7, 3, 7, 0]
    normal3f[] normals = [(1, 0, 0), (1, 0, 0), (1, 0, 0), (1, 0, 0), (1, 0, 0), (1, 0, 0), (-0.9999215, -0.012533624, 0), (-0.9996963, 0.024642322, -0), (-0.9996963, 0.024642324, -0), (-0.9999215, -0.012533624, 0), (-0.9996963, 0.024642324, -0), (-0.9988642, -0.047649298, 0), (1, 0, 0), (1, 0, 0), (-0.9988642, -0.047649298, 0), (1, 0, 0), (-0.9988642, -0.047649298, 0), (-0.9996963, 0.024642324, -0), (1, 0, 0), (1, 0, 0), (-0.9996963, 0.024642324, -0), (1, 0, 0), (-0.9996963, 0.024642324, -0), (-0.9996963, 0.024642322, -0), (1, 0, 0), (-0.9996963, 0.024642322, -0), (-0.9999215, -0.012533624, 0), (1, 0, 0), (-0.9999215, -0.012533624, 0), (1, 0, 0), (1, 0, 0), (-0.9999215, -0.012533624, 0), (-0.9988642, -0.047649298, 0), (1, 0, 0), (-0.9988642, -0.047649298, 0), (1, 0, 0)] (
        interpolation = "faceVarying"
    )
    point3f[] points = [(0.0035836468, -0.15194139, -0.23762634), (0.0035836468, 0.15194139, -0.23762634), (0.0035836468, 0.15194139, 0.23762634), (0.0035836468, -0.15194139, 0.23762634), (-0.0036644866, -0.1421028, 0.23762634), (-0.0036644866, 0.1421028, 0.23762634), (-0.0036644866, 0.1421028, -0.23762634), (-0.0036644866, -0.1421028, -0.23762634)]
}

