#usda 1.0
(
    defaultPrim = "UCX_Dishwasher_Tray_02_047"
    upAxis = "Z"
)

def Mesh "UCX_Dishwasher_Tray_02_047"
{
    int[] faceVertexCounts = [3, 3, 3, 3, 3, 3, 3, 3, 3, 3, 3, 3, 3, 3, 3, 3, 3, 3, 3, 3, 3, 3, 3, 3, 3, 3, 3, 3]
    int[] faceVertexIndices = [0, 1, 2, 0, 2, 3, 1, 4, 5, 1, 5, 2, 4, 6, 7, 4, 7, 5, 6, 8, 9, 6, 9, 7, 8, 10, 11, 8, 11, 9, 10, 12, 13, 10, 13, 11, 3, 2, 5, 5, 7, 9, 9, 11, 13, 13, 14, 3, 3, 5, 9, 9, 13, 3, 12, 15, 14, 12, 14, 13, 15, 0, 3, 15, 3, 14, 1, 0, 15, 15, 12, 10, 10, 8, 6, 6, 4, 1, 1, 15, 10, 10, 6, 1]
    normal3f[] normals = [(0.95167404, -0.3071041, 0.001954563), (0.18879162, 0.7654122, -0.615225), (0.8677799, -0.4969354, -0.0036497032), (0.95167404, -0.3071041, 0.001954563), (0.8677799, -0.4969354, -0.0036497032), (0.9829106, -0.18403736, -0.004133848), (0.18879162, 0.7654122, -0.615225), (-0.9657745, -0.25935143, 0.0040618237), (-0.92727464, -0.37230805, -0.03935004), (0.18879162, 0.7654122, -0.615225), (-0.92727464, -0.37230805, -0.03935004), (0.8677799, -0.4969354, -0.0036497032), (-0.9657745, -0.25935143, 0.0040618237), (-0.9998763, 0.015153459, 0.0042052073), (-0.99778634, -0.066502295, -0.00012331507), (-0.9657745, -0.25935143, 0.0040618237), (-0.99778634, -0.066502295, -0.00012331507), (-0.92727464, -0.37230805, -0.03935004), (-0.9998763, 0.015153459, 0.0042052073), (-0.9498115, 0.31279755, 0.0039946786), (-0.986848, 0.15532707, -0.04477291), (-0.9998763, 0.015153459, 0.0042052073), (-0.986848, 0.15532707, -0.04477291), (-0.99778634, -0.066502295, -0.00012331507), (-0.9498115, 0.31279755, 0.0039946786), (0.72863674, 0.6848935, -0.003064428), (-0.8677799, 0.4969354, 0.0036497032), (-0.9498115, 0.31279755, 0.0039946786), (-0.8677799, 0.4969354, 0.0036497032), (-0.986848, 0.15532707, -0.04477291), (0.72863674, 0.6848935, -0.003064428), (0.96695554, 0.254941, 0.0014095395), (0.90420496, 0.4270819, -0.0038028706), (0.72863674, 0.6848935, -0.003064428), (0.90420496, 0.4270819, -0.0038028706), (-0.8677799, 0.4969354, 0.0036497032), (0.9829106, -0.18403736, -0.004133848), (0.8677799, -0.4969354, -0.0036497032), (-0.92727464, -0.37230805, -0.03935004), (-0.92727464, -0.37230805, -0.03935004), (-0.99778634, -0.066502295, -0.00012331507), (-0.986848, 0.15532707, -0.04477291), (-0.986848, 0.15532707, -0.04477291), (-0.8677799, 0.4969354, 0.0036497032), (0.90420496, 0.4270819, -0.0038028706), (0.90420496, 0.4270819, -0.0038028706), (0.99771476, 0.06743649, -0.0041961437), (0.9829106, -0.18403736, -0.004133848), (0.9829106, -0.18403736, -0.004133848), (-0.92727464, -0.37230805, -0.03935004), (-0.986848, 0.15532707, -0.04477291), (-0.986848, 0.15532707, -0.04477291), (0.90420496, 0.4270819, -0.0038028706), (0.9829106, -0.18403736, -0.004133848), (0.96695554, 0.254941, 0.0014095395), (0.99965, -0.013847002, 0.022540903), (0.99771476, 0.06743649, -0.0041961437), (0.96695554, 0.254941, 0.0014095395), (0.99771476, 0.06743649, -0.0041961437), (0.90420496, 0.4270819, -0.0038028706), (0.99965, -0.013847002, 0.022540903), (0.95167404, -0.3071041, 0.001954563), (0.9829106, -0.18403736, -0.004133848), (0.99965, -0.013847002, 0.022540903), (0.9829106, -0.18403736, -0.004133848), (0.99771476, 0.06743649, -0.0041961437), (0.18879162, 0.7654122, -0.615225), (0.95167404, -0.3071041, 0.001954563), (0.99965, -0.013847002, 0.022540903), (0.99965, -0.013847002, 0.022540903), (0.96695554, 0.254941, 0.0014095395), (0.72863674, 0.6848935, -0.003064428), (0.72863674, 0.6848935, -0.003064428), (-0.9498115, 0.31279755, 0.0039946786), (-0.9998763, 0.015153459, 0.0042052073), (-0.9998763, 0.015153459, 0.0042052073), (-0.9657745, -0.25935143, 0.0040618237), (0.18879162, 0.7654122, -0.615225), (0.18879162, 0.7654122, -0.615225), (0.99965, -0.013847002, 0.022540903), (0.72863674, 0.6848935, -0.003064428), (0.72863674, 0.6848935, -0.003064428), (-0.9998763, 0.015153459, 0.0042052073), (0.18879162, 0.7654122, -0.615225)] (
        interpolation = "faceVarying"
    )
    point3f[] points = [(0.0005055955, -0.0012870864, 0.0119723445), (0.000107067695, -0.0019925574, 0.013271048), (-0.0000059476165, -0.001992557, -0.013600579), (0.0003925816, -0.0012870802, -0.014899287), (-0.00032107692, -0.001530825, 0.014666265), (-0.00043409222, -0.0015308246, -0.012205362), (-0.0005280382, -0.0001723556, 0.015340701), (-0.0006410535, -0.0001723552, -0.011530927), (-0.00039258416, 0.00128708, 0.014899289), (-0.00050559803, 0.0012870862, -0.011972343), (0.000005945066, 0.0019925567, 0.013600581), (-0.00010707024, 0.0019925572, -0.013271046), (0.00043408968, 0.0015308243, 0.012205364), (0.00032107436, 0.0015308248, -0.014666263), (0.0005280356, 0.00017235537, -0.015340699), (0.0006410509, 0.00017235498, 0.011530929)]
}

