#usda 1.0
(
    defaultPrim = "UCX_Kitchen_06_Base_Drawer_01_005"
    upAxis = "Z"
)

def Mesh "UCX_Kitchen_06_Base_Drawer_01_005"
{
    int[] faceVertexCounts = [3, 3, 3, 3, 3, 3, 3, 3, 3, 3, 3, 3]
    int[] faceVertexIndices = [0, 1, 2, 0, 2, 3, 4, 2, 1, 4, 1, 5, 6, 4, 5, 6, 5, 7, 3, 2, 4, 3, 4, 6, 7, 5, 1, 7, 1, 0, 6, 7, 0, 6, 0, 3]
    normal3f[] normals = [(0.9941577, 0.10793779, 1.1484046e-7), (-0.9994191, 0.034078974, -1.2613756e-7), (-0.9994191, 0.034078974, -1.2521684e-7), (0.9941577, 0.10793779, 1.1484046e-7), (-0.9994191, 0.034078974, -1.2521684e-7), (0.9941578, 0.10793772, 1.1310047e-7), (-0.9994192, 0.03407904, -1.2613758e-7), (-0.9994191, 0.034078974, -1.2521684e-7), (-0.9994191, 0.034078974, -1.2613756e-7), (-0.9994192, 0.03407904, -1.2613758e-7), (-0.9994191, 0.034078974, -1.2613756e-7), (-0.99941915, 0.034079008, -1.2521684e-7), (0.99415773, 0.10793776, 1.14840475e-7), (-0.9994192, 0.03407904, -1.2613758e-7), (-0.99941915, 0.034079008, -1.2521684e-7), (0.99415773, 0.10793776, 1.14840475e-7), (-0.99941915, 0.034079008, -1.2521684e-7), (0.99415773, 0.10793776, 1.1310047e-7), (0.9941578, 0.10793772, 1.1310047e-7), (-0.9994191, 0.034078974, -1.2521684e-7), (-0.9994192, 0.03407904, -1.2613758e-7), (0.9941578, 0.10793772, 1.1310047e-7), (-0.9994192, 0.03407904, -1.2613758e-7), (0.99415773, 0.10793776, 1.14840475e-7), (0.99415773, 0.10793776, 1.1310047e-7), (-0.99941915, 0.034079008, -1.2521684e-7), (-0.9994191, 0.034078974, -1.2613756e-7), (0.99415773, 0.10793776, 1.1310047e-7), (-0.9994191, 0.034078974, -1.2613756e-7), (0.9941577, 0.10793779, 1.1484046e-7), (0.99415773, 0.10793776, 1.14840475e-7), (0.99415773, 0.10793776, 1.1310047e-7), (0.9941577, 0.10793779, 1.1484046e-7), (0.99415773, 0.10793776, 1.14840475e-7), (0.9941577, 0.10793779, 1.1484046e-7), (0.9941578, 0.10793772, 1.1310047e-7)] (
        interpolation = "faceVarying"
    )
    point3f[] points = [(0.002470265, 0.021420438, 0.23762634), (-0.004112939, 0.015578131, 0.23762634), (-0.005246273, -0.01765868, 0.23762636), (0.0062690787, -0.013568425, 0.23762636), (-0.005246214, -0.017658722, -0.23762633), (-0.0041128807, 0.015578091, -0.23762633), (0.0062691374, -0.013568465, -0.23762633), (0.0024703234, 0.021420399, -0.23762633)]
}

