#usda 1.0
(
    defaultPrim = "UCX_Dishwasher_Tray_02_021"
    upAxis = "Z"
)

def Mesh "UCX_Dishwasher_Tray_02_021"
{
    int[] faceVertexCounts = [3, 3, 3, 3, 3, 3, 3, 3, 3, 3, 3, 3, 3, 3, 3, 3, 3, 3, 3, 3, 3, 3, 3, 3, 3, 3, 3, 3]
    int[] faceVertexIndices = [0, 1, 2, 0, 2, 3, 3, 2, 4, 3, 4, 5, 5, 4, 6, 5, 6, 7, 7, 6, 8, 7, 8, 9, 9, 8, 10, 9, 10, 11, 11, 10, 12, 11, 12, 13, 4, 2, 1, 1, 14, 12, 12, 10, 8, 8, 6, 4, 4, 1, 12, 12, 8, 4, 13, 12, 14, 13, 14, 15, 15, 14, 1, 15, 1, 0, 15, 0, 3, 3, 5, 7, 7, 9, 11, 11, 13, 15, 15, 3, 7, 7, 11, 15]
    normal3f[] normals = [(0.13677344, 0.99060243, 2.1874834e-8), (-0.13677426, 0.99060225, 1.1515022e-8), (0.6037477, 0.7971755, 6.6655073e-9), (0.13677344, 0.99060243, 2.1874834e-8), (0.6037477, 0.7971755, 6.6655073e-9), (0.79717386, 0.60374993, -2.3231504e-8), (0.79717386, 0.60374993, -2.3231504e-8), (0.6037477, 0.7971755, 6.6655073e-9), (0.99060214, 0.13677543, -2.3884357e-9), (0.79717386, 0.60374993, -2.3231504e-8), (0.99060214, 0.13677543, -2.3884357e-9), (0.99060214, -0.13677543, -3.061963e-9), (0.99060214, -0.13677543, -3.061963e-9), (0.99060214, 0.13677543, -2.3884357e-9), (0.79717386, -0.60374993, -2.0371683e-8), (0.99060214, -0.13677543, -3.061963e-9), (0.79717386, -0.60374993, -2.0371683e-8), (0.6037477, -0.79717547, -2.2591431e-8), (0.6037477, -0.79717547, -2.2591431e-8), (0.79717386, -0.60374993, -2.0371683e-8), (0.13677426, -0.99060225, 1.755377e-8), (0.6037477, -0.79717547, -2.2591431e-8), (0.13677426, -0.99060225, 1.755377e-8), (-0.13677344, -0.99060243, 7.1939574e-9), (-0.13677344, -0.99060243, 7.1939574e-9), (0.13677426, -0.99060225, 1.755377e-8), (-0.60374826, -0.79717505, -1.7797728e-8), (-0.13677344, -0.99060243, 7.1939574e-9), (-0.60374826, -0.79717505, -1.7797728e-8), (-0.79717416, -0.6037495, -1.5577982e-8), (-0.79717416, -0.6037495, -1.5577982e-8), (-0.60374826, -0.79717505, -1.7797728e-8), (-0.99060214, -0.1367754, 3.5094714e-9), (-0.79717416, -0.6037495, -1.5577982e-8), (-0.99060214, -0.1367754, 3.5094714e-9), (-0.990602, 0.13677554, -1.19001e-9), (0.99060214, 0.13677543, -2.3884357e-9), (0.6037477, 0.7971755, 6.6655073e-9), (-0.13677426, 0.99060225, 1.1515022e-8), (-0.13677426, 0.99060225, 1.1515022e-8), (-0.7971736, 0.6037503, -1.7046274e-8), (-0.99060214, -0.1367754, 3.5094714e-9), (-0.99060214, -0.1367754, 3.5094714e-9), (-0.60374826, -0.79717505, -1.7797728e-8), (0.13677426, -0.99060225, 1.755377e-8), (0.13677426, -0.99060225, 1.755377e-8), (0.79717386, -0.60374993, -2.0371683e-8), (0.99060214, 0.13677543, -2.3884357e-9), (0.99060214, 0.13677543, -2.3884357e-9), (-0.13677426, 0.99060225, 1.1515022e-8), (-0.99060214, -0.1367754, 3.5094714e-9), (-0.99060214, -0.1367754, 3.5094714e-9), (0.13677426, -0.99060225, 1.755377e-8), (0.99060214, 0.13677543, -2.3884357e-9), (-0.990602, 0.13677554, -1.19001e-9), (-0.99060214, -0.1367754, 3.5094714e-9), (-0.7971736, 0.6037503, -1.7046274e-8), (-0.990602, 0.13677554, -1.19001e-9), (-0.7971736, 0.6037503, -1.7046274e-8), (-0.6037477, 0.7971755, 6.6655073e-9), (-0.6037477, 0.7971755, 6.6655073e-9), (-0.7971736, 0.6037503, -1.7046274e-8), (-0.13677426, 0.99060225, 1.1515022e-8), (-0.6037477, 0.7971755, 6.6655073e-9), (-0.13677426, 0.99060225, 1.1515022e-8), (0.13677344, 0.99060243, 2.1874834e-8), (-0.6037477, 0.7971755, 6.6655073e-9), (0.13677344, 0.99060243, 2.1874834e-8), (0.79717386, 0.60374993, -2.3231504e-8), (0.79717386, 0.60374993, -2.3231504e-8), (0.99060214, -0.13677543, -3.061963e-9), (0.6037477, -0.79717547, -2.2591431e-8), (0.6037477, -0.79717547, -2.2591431e-8), (-0.13677344, -0.99060243, 7.1939574e-9), (-0.79717416, -0.6037495, -1.5577982e-8), (-0.79717416, -0.6037495, -1.5577982e-8), (-0.990602, 0.13677554, -1.19001e-9), (-0.6037477, 0.7971755, 6.6655073e-9), (-0.6037477, 0.7971755, 6.6655073e-9), (0.79717386, 0.60374993, -2.3231504e-8), (0.6037477, -0.79717547, -2.2591431e-8), (0.6037477, -0.79717547, -2.2591431e-8), (-0.79717416, -0.6037495, -1.5577982e-8), (-0.6037477, 0.7971755, 6.6655073e-9)] (
        interpolation = "faceVarying"
    )
    point3f[] points = [(2.4342778e-11, 0.0019999999, -0.035200015), (2.4342778e-11, 0.0019999982, 0.035200022), (0.0014142096, 0.0014142144, 0.03520002), (0.0014142096, 0.0014142124, -0.03520002), (0.002000004, 1.5234444e-9, 0.035200022), (0.002000004, -5.280742e-10, -0.035200015), (0.0014142096, -0.001414215, 0.035200022), (0.0014142096, -0.0014142134, -0.035200015), (2.4342778e-11, -0.001999999, 0.03520002), (2.4342778e-11, -0.0020000008, -0.03520002), (-0.0014142096, -0.001414215, 0.035200022), (-0.0014142096, -0.0014142134, -0.035200015), (-0.002000004, 1.5234444e-9, 0.035200022), (-0.002000004, -5.280742e-10, -0.035200015), (-0.0014142096, 0.0014142144, 0.03520002), (-0.0014142096, 0.0014142124, -0.03520002)]
}

