#usda 1.0
(
    defaultPrim = "UCX_Kitchen_11_Base_Drawer_01_003"
    upAxis = "Z"
)

def Mesh "UCX_Kitchen_11_Base_Drawer_01_003"
{
    int[] faceVertexCounts = [3, 3, 3, 3, 3, 3, 3, 3, 3, 3, 3, 3]
    int[] faceVertexIndices = [0, 1, 2, 0, 2, 3, 3, 2, 4, 3, 4, 5, 5, 4, 6, 5, 6, 7, 7, 6, 1, 7, 1, 0, 4, 2, 1, 4, 1, 6, 3, 5, 7, 3, 7, 0]
    normal3f[] normals = [(-0.9874473, 0.15794867, 0), (-0.9874473, 0.15794867, 0), (-0.9874473, 0.15794867, 0), (-0.9874473, 0.15794867, 0), (-0.9874473, 0.15794867, 0), (-0.9169243, -0.39906123, -0), (-0.9169243, -0.39906123, -0), (-0.9874473, 0.15794867, 0), (0.99971557, 0.023852235, 0), (-0.9169243, -0.39906123, -0), (0.99971557, 0.023852235, 0), (0.99971557, 0.023852246, 0), (0.99971557, 0.023852246, 0), (0.99971557, 0.023852235, 0), (0.99971557, 0.023852246, 0), (0.99971557, 0.023852246, 0), (0.99971557, 0.023852246, 0), (-0.023147406, 0.9997321, 0), (-0.023147406, 0.9997321, 0), (0.99971557, 0.023852246, 0), (-0.9874473, 0.15794867, 0), (-0.023147406, 0.9997321, 0), (-0.9874473, 0.15794867, 0), (-0.9874473, 0.15794867, 0), (0.99971557, 0.023852235, 0), (-0.9874473, 0.15794867, 0), (-0.9874473, 0.15794867, 0), (0.99971557, 0.023852235, 0), (-0.9874473, 0.15794867, 0), (0.99971557, 0.023852246, 0), (-0.9169243, -0.39906123, -0), (0.99971557, 0.023852246, 0), (-0.023147406, 0.9997321, 0), (-0.9169243, -0.39906123, -0), (-0.023147406, 0.9997321, 0), (-0.9874473, 0.15794867, 0)] (
        interpolation = "faceVarying"
    )
    point3f[] points = [(-0.015860021, -0.02120525, 0.23762636), (-0.0063192076, 0.038441036, 0.23762636), (-0.0063192076, 0.038441036, -0.23762633), (-0.015860021, -0.02120525, -0.23762633), (0.009507594, 0.040856324, -0.23762633), (0.011516036, -0.04332318, -0.23762633), (0.009507594, 0.040856324, 0.23762636), (0.011516036, -0.04332318, 0.23762636)]
}

