#usda 1.0
(
    defaultPrim = "UCX_Fridge_Egg_Tray_001"
    upAxis = "Z"
)

def Mesh "UCX_Fridge_Egg_Tray_001"
{
    int[] faceVertexCounts = [3, 3, 3, 3, 3, 3, 3, 3, 3, 3, 3, 3]
    int[] faceVertexIndices = [0, 1, 2, 0, 2, 3, 4, 5, 6, 4, 6, 7, 7, 0, 3, 7, 3, 4, 6, 5, 2, 6, 2, 1, 1, 0, 7, 1, 7, 6, 2, 5, 4, 2, 4, 3]
    normal3f[] normals = [(-1.0000001, -0, 2.7228195e-8), (1, 0, 2.2791845e-8), (1, 0, 8.116375e-9), (-1.0000001, -0, 2.7228195e-8), (1, 0, 8.116375e-9), (-1.0000001, -0, 1.2552724e-8), (-1.0000001, -0, 2.7228195e-8), (1, 0, 2.2791845e-8), (1, 0, 3.7467316e-8), (-1.0000001, -0, 2.7228195e-8), (1, 0, 3.7467316e-8), (-1.0000001, -0, 1.2552724e-8), (-1.0000001, -0, 1.2552724e-8), (-1.0000001, -0, 2.7228195e-8), (-1.0000001, -0, 1.2552724e-8), (-1.0000001, -0, 1.2552724e-8), (-1.0000001, -0, 1.2552724e-8), (-1.0000001, -0, 2.7228195e-8), (1, 0, 3.7467316e-8), (1, 0, 2.2791845e-8), (1, 0, 8.116375e-9), (1, 0, 3.7467316e-8), (1, 0, 8.116375e-9), (1, 0, 2.2791845e-8), (1, 0, 2.2791845e-8), (-1.0000001, -0, 2.7228195e-8), (-1.0000001, -0, 1.2552724e-8), (1, 0, 2.2791845e-8), (-1.0000001, -0, 1.2552724e-8), (1, 0, 3.7467316e-8), (1, 0, 8.116375e-9), (1, 0, 2.2791845e-8), (-1.0000001, -0, 2.7228195e-8), (1, 0, 8.116375e-9), (-1.0000001, -0, 2.7228195e-8), (-1.0000001, -0, 1.2552724e-8)] (
        interpolation = "faceVarying"
    )
    point3f[] points = [(-0.000900002, -0.0068433452, 0.051750027), (0.00090000214, -0.0068433452, 0.05175003), (0.00090000214, 0.0068433452, 0.05175003), (-0.000900002, 0.0068433415, 0.051750027), (-0.00090000284, 0.0068433452, -0.051750008), (0.0009000031, 0.0068433415, -0.051750004), (0.0009000031, -0.0068433452, -0.051750004), (-0.00090000284, -0.0068433452, -0.051750008)]
}

