#usda 1.0
(
    defaultPrim = "UCX_Dishwasher_Tray_01_131"
    upAxis = "Z"
)

def Mesh "UCX_Dishwasher_Tray_01_131"
{
    int[] faceVertexCounts = [3, 3, 3, 3, 3, 3, 3, 3, 3, 3, 3, 3, 3, 3, 3, 3, 3, 3, 3, 3, 3, 3, 3, 3, 3, 3, 3, 3]
    int[] faceVertexIndices = [0, 1, 2, 0, 2, 3, 3, 2, 4, 3, 4, 5, 5, 4, 6, 5, 6, 7, 7, 6, 8, 7, 8, 9, 9, 8, 10, 9, 10, 11, 11, 10, 12, 11, 12, 13, 4, 2, 1, 1, 14, 12, 12, 10, 8, 8, 6, 4, 4, 1, 12, 12, 8, 4, 13, 12, 14, 13, 14, 15, 15, 14, 1, 15, 1, 0, 15, 0, 3, 3, 5, 7, 7, 9, 11, 11, 13, 15, 15, 3, 7, 7, 11, 15]
    normal3f[] normals = [(-0.9906023, -0.13677368, 5.333288e-8), (-0.9906023, 0.13677368, 4.4492854e-8), (-0.7971747, -0.6037487, 6.3636485e-8), (-0.9906023, -0.13677368, 5.333288e-8), (-0.7971747, -0.6037487, 6.3636485e-8), (-0.60374683, -0.7971761, 5.5733135e-8), (-0.60374683, -0.7971761, 5.5733135e-8), (-0.7971747, -0.6037487, 6.3636485e-8), (-0.13677196, -0.99060255, 3.9341057e-8), (-0.60374683, -0.7971761, 5.5733135e-8), (-0.13677196, -0.99060255, 3.9341057e-8), (0.1367722, -0.99060255, 2.5817615e-8), (0.1367722, -0.99060255, 2.5817615e-8), (-0.13677196, -0.99060255, 3.9341057e-8), (0.60374624, -0.7971766, -3.5711532e-9), (0.1367722, -0.99060255, 2.5817615e-8), (0.60374624, -0.7971766, -3.5711532e-9), (0.7971755, -0.60374767, -1.4987082e-8), (0.7971755, -0.60374767, -1.4987082e-8), (0.60374624, -0.7971766, -3.5711532e-9), (0.99060243, -0.13677321, -4.44927e-8), (0.7971755, -0.60374767, -1.4987082e-8), (0.99060243, -0.13677321, -4.44927e-8), (0.99060243, 0.13677321, -5.33327e-8), (0.99060243, 0.13677321, -5.33327e-8), (0.99060243, -0.13677321, -4.44927e-8), (0.7971756, 0.6037476, -6.3636556e-8), (0.99060243, 0.13677321, -5.33327e-8), (0.7971756, 0.6037476, -6.3636556e-8), (0.6037463, 0.79717654, -5.6201753e-8), (0.6037463, 0.79717654, -5.6201753e-8), (0.7971756, 0.6037476, -6.3636556e-8), (0.1367722, 0.99060255, -3.8404433e-8), (0.6037463, 0.79717654, -5.6201753e-8), (0.1367722, 0.99060255, -3.8404433e-8), (-0.13677196, 0.99060255, -2.5817569e-8), (-0.13677196, -0.99060255, 3.9341057e-8), (-0.7971747, -0.6037487, 6.3636485e-8), (-0.9906023, 0.13677368, 4.4492854e-8), (-0.9906023, 0.13677368, 4.4492854e-8), (-0.6037468, 0.7971762, 3.5711358e-9), (0.1367722, 0.99060255, -3.8404433e-8), (0.1367722, 0.99060255, -3.8404433e-8), (0.7971756, 0.6037476, -6.3636556e-8), (0.99060243, -0.13677321, -4.44927e-8), (0.99060243, -0.13677321, -4.44927e-8), (0.60374624, -0.7971766, -3.5711532e-9), (-0.13677196, -0.99060255, 3.9341057e-8), (-0.13677196, -0.99060255, 3.9341057e-8), (-0.9906023, 0.13677368, 4.4492854e-8), (0.1367722, 0.99060255, -3.8404433e-8), (0.1367722, 0.99060255, -3.8404433e-8), (0.99060243, -0.13677321, -4.44927e-8), (-0.13677196, -0.99060255, 3.9341057e-8), (-0.13677196, 0.99060255, -2.5817569e-8), (0.1367722, 0.99060255, -3.8404433e-8), (-0.6037468, 0.7971762, 3.5711358e-9), (-0.13677196, 0.99060255, -2.5817569e-8), (-0.6037468, 0.7971762, 3.5711358e-9), (-0.7971747, 0.6037488, 1.4987068e-8), (-0.7971747, 0.6037488, 1.4987068e-8), (-0.6037468, 0.7971762, 3.5711358e-9), (-0.9906023, 0.13677368, 4.4492854e-8), (-0.7971747, 0.6037488, 1.4987068e-8), (-0.9906023, 0.13677368, 4.4492854e-8), (-0.9906023, -0.13677368, 5.333288e-8), (-0.7971747, 0.6037488, 1.4987068e-8), (-0.9906023, -0.13677368, 5.333288e-8), (-0.60374683, -0.7971761, 5.5733135e-8), (-0.60374683, -0.7971761, 5.5733135e-8), (0.1367722, -0.99060255, 2.5817615e-8), (0.7971755, -0.60374767, -1.4987082e-8), (0.7971755, -0.60374767, -1.4987082e-8), (0.99060243, 0.13677321, -5.33327e-8), (0.6037463, 0.79717654, -5.6201753e-8), (0.6037463, 0.79717654, -5.6201753e-8), (-0.13677196, 0.99060255, -2.5817569e-8), (-0.7971747, 0.6037488, 1.4987068e-8), (-0.7971747, 0.6037488, 1.4987068e-8), (-0.60374683, -0.7971761, 5.5733135e-8), (0.7971755, -0.60374767, -1.4987082e-8), (0.7971755, -0.60374767, -1.4987082e-8), (0.6037463, 0.79717654, -5.6201753e-8), (-0.7971747, 0.6037488, 1.4987068e-8)] (
        interpolation = "faceVarying"
    )
    point3f[] points = [(-0.0019999899, 1.504192e-8, 0.22670771), (-0.0020000122, -1.4760403e-8, -0.22670774), (-0.0014142252, -0.0014142244, -0.22670774), (-0.0014142029, -0.0014142095, 0.22670771), (-8.15692e-9, -0.0020000038, -0.22670774), (1.4194822e-8, -0.001999989, 0.22670771), (0.0014142015, -0.0014142244, -0.22670774), (0.0014142238, -0.0014142095, 0.22670771), (0.0019999885, -1.4760403e-8, -0.22670774), (0.0020000108, 1.504192e-8, 0.22670771), (0.0014142015, 0.0014142097, -0.22670774), (0.0014142238, 0.0014142246, 0.22670771), (-8.15692e-9, 0.0019999894, -0.22670774), (1.4194822e-8, 0.0020000043, 0.22670771), (-0.0014142252, 0.0014142097, -0.22670774), (-0.0014142029, 0.0014142246, 0.22670771)]
}

