#usda 1.0
(
    defaultPrim = "UCX_Counter_Watertab_006"
    upAxis = "Z"
)

def Mesh "UCX_Counter_Watertab_006"
{
    int[] faceVertexCounts = [3, 3, 3, 3, 3, 3, 3, 3, 3, 3, 3, 3, 3, 3, 3, 3, 3, 3, 3, 3, 3, 3, 3, 3, 3, 3, 3, 3, 3, 3, 3, 3, 3, 3, 3, 3, 3, 3, 3, 3, 3, 3, 3, 3, 3, 3, 3, 3, 3, 3, 3, 3, 3, 3, 3, 3, 3, 3, 3, 3, 3, 3, 3, 3, 3, 3, 3, 3, 3, 3, 3, 3, 3, 3, 3, 3, 3, 3, 3, 3, 3, 3, 3, 3, 3, 3, 3, 3, 3, 3, 3, 3, 3, 3]
    int[] faceVertexIndices = [0, 1, 2, 2, 3, 4, 4, 5, 6, 6, 7, 8, 8, 9, 10, 10, 11, 12, 12, 13, 14, 14, 15, 16, 16, 17, 18, 18, 19, 20, 20, 21, 22, 22, 23, 24, 24, 25, 26, 26, 27, 28, 28, 29, 30, 30, 31, 0, 0, 2, 4, 4, 6, 8, 8, 10, 12, 12, 14, 16, 16, 18, 20, 20, 22, 24, 24, 26, 28, 28, 30, 0, 0, 4, 8, 8, 12, 16, 16, 20, 24, 24, 28, 0, 0, 8, 16, 16, 24, 0, 0, 32, 33, 0, 33, 1, 31, 34, 32, 31, 32, 0, 30, 35, 34, 30, 34, 31, 29, 36, 35, 29, 35, 30, 28, 37, 36, 28, 36, 29, 27, 38, 37, 27, 37, 28, 26, 39, 38, 26, 38, 27, 25, 40, 39, 25, 39, 26, 24, 41, 40, 24, 40, 25, 23, 42, 41, 23, 41, 24, 22, 43, 42, 22, 42, 23, 21, 44, 43, 21, 43, 22, 20, 45, 44, 20, 44, 21, 19, 46, 45, 19, 45, 20, 18, 47, 46, 18, 46, 19, 17, 48, 47, 17, 47, 18, 16, 49, 48, 16, 48, 17, 15, 50, 49, 15, 49, 16, 14, 51, 50, 14, 50, 15, 13, 52, 51, 13, 51, 14, 12, 53, 52, 12, 52, 13, 11, 54, 53, 11, 53, 12, 10, 55, 54, 10, 54, 11, 9, 56, 55, 9, 55, 10, 8, 57, 56, 8, 56, 9, 7, 58, 57, 7, 57, 8, 6, 59, 58, 6, 58, 7, 5, 60, 59, 5, 59, 6, 4, 61, 60, 4, 60, 5, 3, 62, 61, 3, 61, 4, 2, 63, 62, 2, 62, 3, 1, 33, 63, 1, 63, 2]
    normal3f[] normals = [(0.5542794, -0.009377063, -0.8322779), (0.7929424, -0.029738706, 0.60857046), (0.77351886, -0.21903254, 0.5947213), (0.77351886, -0.21903254, 0.5947213), (0.7262313, -0.4012155, 0.5582243), (0.6519213, -0.5699206, 0.5001891), (0.6519213, -0.5699206, 0.5001891), (0.55216694, -0.7187143, 0.42256543), (0.42951334, -0.8412862, 0.32826197), (0.42951334, -0.8412862, 0.32826197), (0.28768063, -0.93183136, 0.22120212), (0.5542794, -0.009377063, -0.8322779), (0.5542794, -0.009377063, -0.8322779), (-0.032333918, -0.9994156, -0.011092951), (-0.19723658, -0.9723437, -0.12508212), (-0.19723658, -0.9723437, -0.12508212), (-0.35559058, -0.90579957, -0.23039682), (-0.50022024, -0.8035224, -0.32269427), (-0.50022024, -0.8035224, -0.32269427), (-0.62485516, -0.6710626, -0.3990377), (-0.72458005, -0.514998, -0.45799667), (-0.72458005, -0.514998, -0.45799667), (-0.79599, -0.3420931, -0.49937207), (0.5542794, -0.009377063, -0.8322779), (0.5542794, -0.009377063, -0.8322779), (-0.84671384, 0.029496081, -0.53123033), (-0.82474583, 0.21705645, -0.5221887), (-0.82474583, 0.21705645, -0.5221887), (-0.77156115, 0.39841947, -0.49593905), (-0.68849313, 0.56741995, -0.45167682), (-0.68849313, 0.56741995, -0.45167682), (-0.578135, 0.7172628, -0.38896543), (-0.4446027, 0.8409669, -0.30838814), (-0.4446027, 0.8409669, -0.30838814), (-0.29351807, 0.93215257, -0.21198753), (0.5542794, -0.009377063, -0.8322779), (0.5542794, -0.009377063, -0.8322779), (0.033547234, 0.9993567, 0.012688021), (0.19482026, 0.9721137, 0.13053714), (0.19482026, 0.9721137, 0.13053714), (0.3454711, 0.90602213, 0.2444864), (0.47987545, 0.80483663, 0.34922457), (0.47987545, 0.80483663, 0.34922457), (0.593636, 0.6736567, 0.4402079), (0.6835683, 0.51836437, 0.5138414), (0.6835683, 0.51836437, 0.5138414), (0.7475318, 0.34518552, 0.5674885), (0.5542794, -0.009377063, -0.8322779), (0.5542794, -0.009377063, -0.8322779), (0.77351886, -0.21903254, 0.5947213), (0.6519213, -0.5699206, 0.5001891), (0.6519213, -0.5699206, 0.5001891), (0.42951334, -0.8412862, 0.32826197), (0.5542794, -0.009377063, -0.8322779), (0.5542794, -0.009377063, -0.8322779), (-0.19723658, -0.9723437, -0.12508212), (-0.50022024, -0.8035224, -0.32269427), (-0.50022024, -0.8035224, -0.32269427), (-0.72458005, -0.514998, -0.45799667), (0.5542794, -0.009377063, -0.8322779), (0.5542794, -0.009377063, -0.8322779), (-0.82474583, 0.21705645, -0.5221887), (-0.68849313, 0.56741995, -0.45167682), (-0.68849313, 0.56741995, -0.45167682), (-0.4446027, 0.8409669, -0.30838814), (0.5542794, -0.009377063, -0.8322779), (0.5542794, -0.009377063, -0.8322779), (0.19482026, 0.9721137, 0.13053714), (0.47987545, 0.80483663, 0.34922457), (0.47987545, 0.80483663, 0.34922457), (0.6835683, 0.51836437, 0.5138414), (0.5542794, -0.009377063, -0.8322779), (0.5542794, -0.009377063, -0.8322779), (0.6519213, -0.5699206, 0.5001891), (0.5542794, -0.009377063, -0.8322779), (0.5542794, -0.009377063, -0.8322779), (-0.50022024, -0.8035224, -0.32269427), (0.5542794, -0.009377063, -0.8322779), (0.5542794, -0.009377063, -0.8322779), (-0.68849313, 0.56741995, -0.45167682), (0.5542794, -0.009377063, -0.8322779), (0.5542794, -0.009377063, -0.8322779), (0.47987545, 0.80483663, 0.34922457), (0.5542794, -0.009377063, -0.8322779), (0.5542794, -0.009377063, -0.8322779), (0.5542794, -0.009377063, -0.8322779), (0.5542794, -0.009377063, -0.8322779), (0.5542794, -0.009377063, -0.8322779), (0.5542794, -0.009377063, -0.8322779), (0.5542794, -0.009377063, -0.8322779), (0.5542794, -0.009377063, -0.8322779), (0.77627224, 0.21752715, 0.5916784), (0.7932165, 0.03311607, 0.6080386), (0.5542794, -0.009377063, -0.8322779), (0.7932165, 0.03311607, 0.6080386), (0.7929424, -0.029738706, 0.60857046), (0.7475318, 0.34518552, 0.5674885), (0.7326714, 0.3956756, 0.553745), (0.77627224, 0.21752715, 0.5916784), (0.7475318, 0.34518552, 0.5674885), (0.77627224, 0.21752715, 0.5916784), (0.5542794, -0.009377063, -0.8322779), (0.6835683, 0.51836437, 0.5138414), (0.6626261, 0.56206155, 0.49498847), (0.7326714, 0.3956756, 0.553745), (0.6835683, 0.51836437, 0.5138414), (0.7326714, 0.3956756, 0.553745), (0.7475318, 0.34518552, 0.5674885), (0.593636, 0.6736567, 0.4402079), (0.5667729, 0.7106814, 0.41677397), (0.6626261, 0.56206155, 0.49498847), (0.593636, 0.6736567, 0.4402079), (0.6626261, 0.56206155, 0.49498847), (0.6835683, 0.51836437, 0.5138414), (0.47987545, 0.80483663, 0.34922457), (0.44658512, 0.8350398, 0.32135704), (0.5667729, 0.7106814, 0.41677397), (0.47987545, 0.80483663, 0.34922457), (0.5667729, 0.7106814, 0.41677397), (0.593636, 0.6736567, 0.4402079), (0.3454711, 0.90602213, 0.2444864), (0.304881, 0.928456, 0.2121723), (0.44658512, 0.8350398, 0.32135704), (0.3454711, 0.90602213, 0.2444864), (0.44658512, 0.8350398, 0.32135704), (0.47987545, 0.80483663, 0.34922457), (0.19482026, 0.9721137, 0.13053714), (0.14629196, 0.9847647, 0.0940069), (0.304881, 0.928456, 0.2121723), (0.19482026, 0.9721137, 0.13053714), (0.304881, 0.928456, 0.2121723), (0.3454711, 0.90602213, 0.2444864), (0.033547234, 0.9993567, 0.012688021), (-0.022551693, 0.9993777, -0.027125241), (0.14629196, 0.9847647, 0.0940069), (0.033547234, 0.9993567, 0.012688021), (0.14629196, 0.9847647, 0.0940069), (0.19482026, 0.9721137, 0.13053714), (0.5542794, -0.009377063, -0.8322779), (-0.19331555, 0.97043496, -0.14451694), (-0.022551693, 0.9993777, -0.027125241), (0.5542794, -0.009377063, -0.8322779), (-0.022551693, 0.9993777, -0.027125241), (0.033547234, 0.9993567, 0.012688021), (-0.29351807, 0.93215257, -0.21198753), (-0.356889, 0.8995928, -0.25172052), (-0.19331555, 0.97043496, -0.14451694), (-0.29351807, 0.93215257, -0.21198753), (-0.19331555, 0.97043496, -0.14451694), (0.5542794, -0.009377063, -0.8322779), (-0.4446027, 0.8409669, -0.30838814), (-0.5046938, 0.7919685, -0.34361318), (-0.356889, 0.8995928, -0.25172052), (-0.4446027, 0.8409669, -0.30838814), (-0.356889, 0.8995928, -0.25172052), (-0.29351807, 0.93215257, -0.21198753), (-0.578135, 0.7172628, -0.38896543), (-0.6299161, 0.65511864, -0.41716337), (-0.5046938, 0.7919685, -0.34361318), (-0.578135, 0.7172628, -0.38896543), (-0.5046938, 0.7919685, -0.34361318), (-0.4446027, 0.8409669, -0.30838814), (-0.68849313, 0.56741995, -0.45167682), (-0.7281599, 0.49741364, -0.47155383), (-0.6299161, 0.65511864, -0.41716337), (-0.68849313, 0.56741995, -0.45167682), (-0.6299161, 0.65511864, -0.41716337), (-0.578135, 0.7172628, -0.38896543), (-0.77156115, 0.39841947, -0.49593905), (-0.79731995, 0.32649365, -0.5076246), (-0.7281599, 0.49741364, -0.47155383), (-0.77156115, 0.39841947, -0.49593905), (-0.7281599, 0.49741364, -0.47155383), (-0.68849313, 0.56741995, -0.45167682), (-0.82474583, 0.21705645, -0.5221887), (-0.8368651, 0.14838731, -0.5269137), (-0.79731995, 0.32649365, -0.5076246), (-0.82474583, 0.21705645, -0.5221887), (-0.79731995, 0.32649365, -0.5076246), (-0.77156115, 0.39841947, -0.49593905), (-0.84671384, 0.029496081, -0.53123033), (-0.84694386, -0.03248703, -0.5306891), (-0.8368651, 0.14838731, -0.5269137), (-0.84671384, 0.029496081, -0.53123033), (-0.8368651, 0.14838731, -0.5269137), (-0.82474583, 0.21705645, -0.5221887), (0.5542794, -0.009377063, -0.8322779), (-0.827721, -0.21260391, -0.51930493), (-0.84694386, -0.03248703, -0.5306891), (0.5542794, -0.009377063, -0.8322779), (-0.84694386, -0.03248703, -0.5306891), (-0.84671384, 0.029496081, -0.53123033), (-0.79599, -0.3420931, -0.49937207), (-0.7791822, -0.388278, -0.49205208), (-0.827721, -0.21260391, -0.51930493), (-0.79599, -0.3420931, -0.49937207), (-0.827721, -0.21260391, -0.51930493), (0.5542794, -0.009377063, -0.8322779), (-0.72458005, -0.514998, -0.45799667), (-0.70145565, -0.55468345, -0.44753373), (-0.7791822, -0.388278, -0.49205208), (-0.72458005, -0.514998, -0.45799667), (-0.7791822, -0.388278, -0.49205208), (-0.79599, -0.3420931, -0.49937207), (-0.62485516, -0.6710626, -0.3990377), (-0.59553003, -0.7053656, -0.384452), (-0.70145565, -0.55468345, -0.44753373), (-0.62485516, -0.6710626, -0.3990377), (-0.70145565, -0.55468345, -0.44753373), (-0.72458005, -0.514998, -0.45799667), (-0.50022024, -0.8035224, -0.32269427), (-0.46408382, -0.83251154, -0.30257368), (-0.59553003, -0.7053656, -0.384452), (-0.50022024, -0.8035224, -0.32269427), (-0.59553003, -0.7053656, -0.384452), (-0.62485516, -0.6710626, -0.3990377), (-0.35559058, -0.90579957, -0.23039682), (-0.31204623, -0.92800754, -0.203542), (-0.46408382, -0.83251154, -0.30257368), (-0.35559058, -0.90579957, -0.23039682), (-0.46408382, -0.83251154, -0.30257368), (-0.50022024, -0.8035224, -0.32269427), (-0.19723658, -0.9723437, -0.12508212), (-0.14655808, -0.9849891, -0.091199845), (-0.31204623, -0.92800754, -0.203542), (-0.19723658, -0.9723437, -0.12508212), (-0.31204623, -0.92800754, -0.203542), (-0.35559058, -0.90579957, -0.23039682), (-0.032333918, -0.9994156, -0.011092951), (0.02377707, -0.9993038, 0.02875126), (-0.14655808, -0.9849891, -0.091199845), (-0.032333918, -0.9994156, -0.011092951), (-0.14655808, -0.9849891, -0.091199845), (-0.19723658, -0.9723437, -0.12508212), (0.5542794, -0.009377063, -0.8322779), (0.19009796, -0.9702962, 0.14962688), (0.02377707, -0.9993038, 0.02875126), (0.5542794, -0.009377063, -0.8322779), (0.02377707, -0.9993038, 0.02875126), (-0.032333918, -0.9994156, -0.011092951), (0.28768063, -0.93183136, 0.22120212), (0.34449297, -0.9006645, 0.26481715), (0.19009796, -0.9702962, 0.14962688), (0.28768063, -0.93183136, 0.22120212), (0.19009796, -0.9702962, 0.14962688), (0.5542794, -0.009377063, -0.8322779), (0.42951334, -0.8412862, 0.32826197), (0.48078647, -0.79558426, 0.36863273), (0.34449297, -0.9006645, 0.26481715), (0.42951334, -0.8412862, 0.32826197), (0.34449297, -0.9006645, 0.26481715), (0.28768063, -0.93183136, 0.22120212), (0.55216694, -0.7187143, 0.42256543), (0.594758, -0.6615577, 0.45673236), (0.48078647, -0.79558426, 0.36863273), (0.55216694, -0.7187143, 0.42256543), (0.48078647, -0.79558426, 0.36863273), (0.42951334, -0.8412862, 0.32826197), (0.6519213, -0.5699206, 0.5001891), (0.68390304, -0.5054154, 0.52614826), (0.594758, -0.6615577, 0.45673236), (0.6519213, -0.5699206, 0.5001891), (0.594758, -0.6615577, 0.45673236), (0.55216694, -0.7187143, 0.42256543), (0.7262313, -0.4012155, 0.5582243), (0.7469651, -0.33368754, 0.5750615), (0.68390304, -0.5054154, 0.52614826), (0.7262313, -0.4012155, 0.5582243), (0.68390304, -0.5054154, 0.52614826), (0.6519213, -0.5699206, 0.5001891), (0.77351886, -0.21903254, 0.5947213), (0.783447, -0.15235044, 0.6024951), (0.7469651, -0.33368754, 0.5750615), (0.77351886, -0.21903254, 0.5947213), (0.7469651, -0.33368754, 0.5750615), (0.7262313, -0.4012155, 0.5582243), (0.7929424, -0.029738706, 0.60857046), (0.7932165, 0.03311607, 0.6080386), (0.783447, -0.15235044, 0.6024951), (0.7929424, -0.029738706, 0.60857046), (0.783447, -0.15235044, 0.6024951), (0.77351886, -0.21903254, 0.5947213)] (
        interpolation = "faceVarying"
    )
    point3f[] points = [(0.016266285, 0.002431714, -0.002294073), (0.01646064, -0.00010439143, -0.0021360628), (0.01623919, -0.0026404108, -0.0022549701), (0.015610433, -0.005078888, -0.0026462355), (0.01459855, -0.00732611, -0.0032948093), (0.013242413, -0.00929572, -0.0041757766), (0.011594138, -0.010912026, -0.0052552824), (0.009717074, -0.012112915, -0.006491837), (0.0076833516, -0.012852236, -0.007837923), (0.0055711227, -0.01310158, -0.009241814), (0.0034615619, -0.012851361, -0.010649555), (0.0014357425, -0.012111198, -0.012007047), (-0.00042848822, -0.010909534, -0.013262124), (-0.002059492, -0.0092925485, -0.014366556), (-0.0033945846, -0.0073223813, -0.015277897), (-0.0043824585, -0.0050747446, -0.015961124), (-0.004985158, -0.0026360126, -0.016389985), (-0.0051795198, -0.000099907025, -0.016548), (-0.0049580648, 0.0024361121, -0.016429087), (-0.0043293135, 0.0048745903, -0.016037827), (-0.0033174306, 0.0071218116, -0.015389253), (-0.0019612934, 0.009091421, -0.014508286), (-0.0003130188, 0.010707729, -0.01342878), (0.0015640452, 0.011908618, -0.012192225), (0.0035977673, 0.012647936, -0.01084614), (0.0057099964, 0.012897284, -0.009442249), (0.007819558, 0.012647062, -0.008034508), (0.009845377, 0.011906901, -0.0066770157), (0.011709607, 0.010705237, -0.005421939), (0.013340612, 0.00908825, -0.004317506), (0.014675705, 0.0071180826, -0.0034061654), (0.01566358, 0.0048704473, -0.002722939), (-0.0032936162, 0.002732946, 0.02322701), (-0.0031826857, 0.00019788629, 0.023462852), (-0.0036492527, 0.005168581, 0.02256766), (-0.00423592, 0.0074111894, 0.021510128), (-0.005031082, 0.00937459, 0.020095067), (-0.0060041645, 0.01098333, 0.018376846), (-0.007117788, 0.012175582, 0.016421512), (-0.008329147, 0.012905538, 0.014304188), (-0.009591697, 0.013145144, 0.012106248), (-0.010856911, 0.01288518, 0.009912165), (-0.012076179, 0.01213565, 0.0078062434), (-0.013202631, 0.010925356, 0.005869424), (-0.014192988, 0.009300803, 0.0041761366), (-0.015009183, 0.0073244255, 0.0027914469), (-0.01561986, 0.0050721737, 0.0017685682), (-0.016001552, 0.0026306012, 0.0011468246), (-0.016139576, 0.000093536175, 0.000950085), (-0.016028646, -0.0024415236, 0.0011859275), (-0.015673006, -0.0048771603, 0.0018452716), (-0.015086338, -0.0071197674, 0.0029028028), (-0.014291187, -0.009083166, 0.0043178657), (-0.0133181, -0.010691906, 0.0060360804), (-0.012204481, -0.011884161, 0.007991422), (-0.010993116, -0.012614117, 0.010108749), (-0.009730571, -0.012853718, 0.012306684), (-0.0084653525, -0.012593759, 0.014500773), (-0.0072460906, -0.011844228, 0.01660669), (-0.006119634, -0.010633932, 0.018543502), (-0.0051292805, -0.009009379, 0.020236798), (-0.004313074, -0.0070330035, 0.021621484), (-0.0037023972, -0.0047807535, 0.022644363), (-0.0033207093, -0.0023391787, 0.023266112)]
}

