#usda 1.0
(
    defaultPrim = "UCX_Fridge_Base_012"
    upAxis = "Z"
)

def Mesh "UCX_Fridge_Base_012"
{
    int[] faceVertexCounts = [3, 3, 3, 3, 3, 3, 3, 3, 3, 3, 3, 3, 3, 3, 3, 3, 3, 3, 3, 3]
    int[] faceVertexIndices = [0, 1, 2, 0, 2, 3, 3, 2, 4, 3, 4, 5, 6, 7, 8, 6, 8, 9, 9, 8, 10, 9, 10, 11, 0, 6, 9, 0, 9, 11, 7, 1, 10, 7, 10, 8, 4, 2, 1, 4, 1, 7, 3, 5, 6, 3, 6, 0, 5, 4, 7, 5, 7, 6, 11, 10, 1, 11, 1, 0]
    normal3f[] normals = [(-1, 0, 0), (1, 0, 0), (1, 0, 0), (-1, 0, 0), (1, 0, 0), (-1, 0, 0), (-1, 0, 0), (1, 0, 0), (1, 0, 0), (-1, 0, 0), (1, 0, 0), (0, -0.8629802, -0.50523776), (-1, 0, 0), (1, 0, 0), (0, -0.8629802, 0.5052377), (-1, 0, 0), (0, -0.8629802, 0.5052377), (1, 0, 0), (1, 0, 0), (0, -0.8629802, 0.5052377), (1, 0, 0), (1, 0, 0), (1, 0, 0), (1, 0, 0), (-1, 0, 0), (-1, 0, 0), (1, 0, 0), (-1, 0, 0), (1, 0, 0), (1, 0, 0), (1, 0, 0), (1, 0, 0), (1, 0, 0), (1, 0, 0), (1, 0, 0), (0, -0.8629802, 0.5052377), (1, 0, 0), (1, 0, 0), (1, 0, 0), (1, 0, 0), (1, 0, 0), (1, 0, 0), (-1, 0, 0), (0, -0.8629802, -0.50523776), (-1, 0, 0), (-1, 0, 0), (-1, 0, 0), (-1, 0, 0), (0, -0.8629802, -0.50523776), (1, 0, 0), (1, 0, 0), (0, -0.8629802, -0.50523776), (1, 0, 0), (-1, 0, 0), (1, 0, 0), (1, 0, 0), (1, 0, 0), (1, 0, 0), (1, 0, 0), (-1, 0, 0)] (
        interpolation = "faceVarying"
    )
    point3f[] points = [(-0.0041944385, 0.006396952, -3.9951897e-10), (0.0041944385, 0.006396952, -3.9951897e-10), (0.0041944385, 0.006396952, -0.025452442), (-0.0041944385, 0.006396952, -0.025452442), (0.0041944385, -0.008448255, -0.0075468053), (-0.0041944385, -0.008448255, -0.0075468053), (-0.0041944385, -0.010685471, -3.9951897e-10), (0.0041944385, -0.010685471, -3.9951897e-10), (0.0041944385, -0.008448255, 0.0075468044), (-0.0041944385, -0.008448255, 0.0075468044), (0.0041944385, 0.006396952, 0.025452442), (-0.0041944385, 0.006396952, 0.025452442)]
}

