#usda 1.0
(
    defaultPrim = "UCX_Fridge_Drawer_05_002"
    upAxis = "Z"
)

def Mesh "UCX_Fridge_Drawer_05_002"
{
    int[] faceVertexCounts = [3, 3, 3, 3, 3, 3, 3, 3, 3, 3, 3, 3]
    int[] faceVertexIndices = [0, 1, 2, 0, 2, 3, 3, 2, 4, 3, 4, 5, 5, 4, 6, 5, 6, 7, 7, 6, 1, 7, 1, 0, 3, 5, 7, 3, 7, 0, 4, 2, 1, 4, 1, 6]
    normal3f[] normals = [(-1, 0, 0), (-1, 0, 0), (1, 0, 0), (-1, 0, 0), (1, 0, 0), (1, 0, 0), (1, 0, 0), (1, 0, 0), (1, 0, 0), (1, 0, 0), (1, 0, 0), (1, 0, 0), (1, 0, 0), (1, 0, 0), (-1, 0, 0), (1, 0, 0), (-1, 0, 0), (-1, 0, 0), (-1, 0, 0), (-1, 0, 0), (-1, 0, 0), (-1, 0, 0), (-1, 0, 0), (-1, 0, 0), (1, 0, 0), (1, 0, 0), (-1, 0, 0), (1, 0, 0), (-1, 0, 0), (-1, 0, 0), (1, 0, 0), (1, 0, 0), (-1, 0, 0), (1, 0, 0), (-1, 0, 0), (-1, 0, 0)] (
        interpolation = "faceVarying"
    )
    point3f[] points = [(-0.013203575, -0.044279765, -0.20437984), (-0.013203575, 0.044279754, -0.20437984), (0.013203577, 0.044279754, -0.20437984), (0.013203577, -0.044279743, -0.20437984), (0.013203577, 0.044279754, 0.20437984), (0.013203577, -0.044279743, 0.20437984), (-0.013203575, 0.044279754, 0.20437984), (-0.013203575, -0.044279765, 0.20437984)]
}

