#usda 1.0
(
    defaultPrim = "UCX_Kitchen_05_Base_Drawer_01_005"
    upAxis = "Z"
)

def Mesh "UCX_Kitchen_05_Base_Drawer_01_005"
{
    int[] faceVertexCounts = [3, 3, 3, 3, 3, 3, 3, 3, 3, 3, 3, 3]
    int[] faceVertexIndices = [0, 1, 2, 0, 2, 3, 4, 2, 1, 4, 1, 5, 6, 4, 5, 6, 5, 7, 3, 2, 4, 3, 4, 6, 7, 5, 1, 7, 1, 0, 6, 7, 0, 6, 0, 3]
    normal3f[] normals = [(0.9941577, 0.1079378, 1.1484046e-7), (-0.9994191, 0.03407897, -1.2613756e-7), (-0.9994191, 0.03407897, -1.2521684e-7), (0.9941577, 0.1079378, 1.1484046e-7), (-0.9994191, 0.03407897, -1.2521684e-7), (0.9941578, 0.10793773, 1.1310047e-7), (-0.9994192, 0.034079038, -1.2613758e-7), (-0.9994191, 0.03407897, -1.2521684e-7), (-0.9994191, 0.03407897, -1.2613756e-7), (-0.9994192, 0.034079038, -1.2613758e-7), (-0.9994191, 0.03407897, -1.2613756e-7), (-0.99941915, 0.034079004, -1.2521684e-7), (0.99415773, 0.10793776, 1.14840475e-7), (-0.9994192, 0.034079038, -1.2613758e-7), (-0.99941915, 0.034079004, -1.2521684e-7), (0.99415773, 0.10793776, 1.14840475e-7), (-0.99941915, 0.034079004, -1.2521684e-7), (0.99415773, 0.10793776, 1.1310047e-7), (0.9941578, 0.10793773, 1.1310047e-7), (-0.9994191, 0.03407897, -1.2521684e-7), (-0.9994192, 0.034079038, -1.2613758e-7), (0.9941578, 0.10793773, 1.1310047e-7), (-0.9994192, 0.034079038, -1.2613758e-7), (0.99415773, 0.10793776, 1.14840475e-7), (0.99415773, 0.10793776, 1.1310047e-7), (-0.99941915, 0.034079004, -1.2521684e-7), (-0.9994191, 0.03407897, -1.2613756e-7), (0.99415773, 0.10793776, 1.1310047e-7), (-0.9994191, 0.03407897, -1.2613756e-7), (0.9941577, 0.1079378, 1.1484046e-7), (0.99415773, 0.10793776, 1.14840475e-7), (0.99415773, 0.10793776, 1.1310047e-7), (0.9941577, 0.1079378, 1.1484046e-7), (0.99415773, 0.10793776, 1.14840475e-7), (0.9941577, 0.1079378, 1.1484046e-7), (0.9941578, 0.10793773, 1.1310047e-7)] (
        interpolation = "faceVarying"
    )
    point3f[] points = [(0.0024702619, 0.021420436, 0.23762634), (-0.004112942, 0.015578128, 0.23762634), (-0.0052462765, -0.017658684, 0.23762636), (0.0062690754, -0.013568427, 0.23762636), (-0.005246218, -0.017658724, -0.23762633), (-0.0041128835, 0.015578089, -0.23762633), (0.006269134, -0.013568467, -0.23762633), (0.0024703206, 0.021420395, -0.23762633)]
}

