#usda 1.0
(
    defaultPrim = "UCX_Fridge_Egg_Tray_005"
    upAxis = "Z"
)

def Mesh "UCX_Fridge_Egg_Tray_005"
{
    int[] faceVertexCounts = [3, 3, 3, 3, 3, 3, 3, 3, 3, 3, 3, 3]
    int[] faceVertexIndices = [0, 1, 2, 0, 2, 3, 1, 4, 5, 1, 5, 2, 4, 6, 7, 4, 7, 5, 6, 4, 1, 6, 1, 0, 7, 6, 0, 7, 0, 3, 7, 3, 2, 7, 2, 5]
    normal3f[] normals = [(-1, 7.580231e-8, -0), (-1, 7.580231e-8, -0), (-1, 7.580231e-8, -0), (-1, 7.580231e-8, -0), (-1, 7.580231e-8, -0), (-1, 7.580231e-8, -0), (-1, 7.580231e-8, -0), (1, -1.785306e-7, 0), (1, -1.4917967e-7, 0), (-1, 7.580231e-8, -0), (1, -1.4917967e-7, 0), (-1, 7.580231e-8, -0), (1, -1.785306e-7, 0), (1, -1.4917967e-7, 0), (1, -1.3450419e-7, 0), (1, -1.785306e-7, 0), (1, -1.3450419e-7, 0), (1, -1.4917967e-7, 0), (1, -1.4917967e-7, 0), (1, -1.785306e-7, 0), (-1, 7.580231e-8, -0), (1, -1.4917967e-7, 0), (-1, 7.580231e-8, -0), (-1, 7.580231e-8, -0), (1, -1.3450419e-7, 0), (1, -1.4917967e-7, 0), (-1, 7.580231e-8, -0), (1, -1.3450419e-7, 0), (-1, 7.580231e-8, -0), (-1, 7.580231e-8, -0), (1, -1.3450419e-7, 0), (-1, 7.580231e-8, -0), (-1, 7.580231e-8, -0), (1, -1.3450419e-7, 0), (-1, 7.580231e-8, -0), (1, -1.4917967e-7, 0)] (
        interpolation = "faceVarying"
    )
    point3f[] points = [(-0.0009000019, 0.0036741477, -0.017643321), (-0.0009000026, -0.0036741435, -0.017643321), (-0.0009000026, -0.0036741435, 0.017643318), (-0.0009000019, 0.0036741477, 0.017643318), (0.0009000015, -0.0036741472, -0.017643318), (0.0009000015, -0.0036741472, 0.017643318), (0.0009000027, 0.003674144, -0.017643318), (0.0009000027, 0.003674144, 0.017643318)]
}

