#usda 1.0
(
    defaultPrim = "UCX_Dishwasher_Tray_02_030"
    upAxis = "Z"
)

def Mesh "UCX_Dishwasher_Tray_02_030"
{
    int[] faceVertexCounts = [3, 3, 3, 3, 3, 3, 3, 3, 3, 3, 3, 3, 3, 3, 3, 3, 3, 3, 3, 3, 3, 3, 3, 3, 3, 3, 3, 3]
    int[] faceVertexIndices = [0, 1, 2, 0, 2, 3, 3, 2, 4, 3, 4, 5, 5, 4, 6, 5, 6, 7, 7, 6, 8, 7, 8, 9, 9, 8, 10, 9, 10, 11, 11, 10, 12, 11, 12, 13, 4, 2, 1, 1, 14, 12, 12, 10, 8, 8, 6, 4, 4, 1, 12, 12, 8, 4, 13, 12, 14, 13, 14, 15, 15, 14, 1, 15, 1, 0, 15, 0, 3, 3, 5, 7, 7, 9, 11, 11, 13, 15, 15, 3, 7, 7, 11, 15]
    normal3f[] normals = [(0.13677426, 0.9906023, 8.40095e-8), (-0.13677426, 0.99060225, 7.086663e-8), (0.6037477, 0.79717547, 5.5475212e-8), (0.13677426, 0.9906023, 8.40095e-8), (0.6037477, 0.79717547, 5.5475212e-8), (0.7971733, 0.6037507, 3.7766537e-8), (0.7971733, 0.6037507, 3.7766537e-8), (0.6037477, 0.79717547, 5.5475212e-8), (0.990602, 0.13677566, 1.2355744e-8), (0.7971733, 0.6037507, 3.7766537e-8), (0.990602, 0.13677566, 1.2355744e-8), (0.99060214, -0.1367752, 4.4597854e-9), (0.99060214, -0.1367752, 4.4597854e-9), (0.990602, 0.13677566, 1.2355744e-8), (0.7971751, -0.60374826, 8.313099e-9), (0.99060214, -0.1367752, 4.4597854e-9), (0.7971751, -0.60374826, 8.313099e-9), (0.6037499, -0.7971739, 3.9154614e-8), (0.6037499, -0.7971739, 3.9154614e-8), (0.7971751, -0.60374826, 8.313099e-9), (0.13677426, -0.99060225, 1.8053462e-9), (0.6037499, -0.7971739, 3.9154614e-8), (0.13677426, -0.99060225, 1.8053462e-9), (-0.13677426, -0.99060225, 3.0874137e-8), (-0.13677426, -0.99060225, 3.0874137e-8), (0.13677426, -0.99060225, 1.8053462e-9), (-0.6037488, -0.79717463, 2.6784164e-8), (-0.13677426, -0.99060225, 3.0874137e-8), (-0.6037488, -0.79717463, 2.6784164e-8), (-0.7971751, -0.60374826, 8.313099e-9), (-0.7971751, -0.60374826, 8.313099e-9), (-0.6037488, -0.79717463, 2.6784164e-8), (-0.99060214, -0.13677518, 7.745503e-9), (-0.7971751, -0.60374826, 8.313099e-9), (-0.99060214, -0.13677518, 7.745503e-9), (-0.99060214, 0.13677542, 1.0306778e-8), (0.990602, 0.13677566, 1.2355744e-8), (0.6037477, 0.79717547, 5.5475212e-8), (-0.13677426, 0.99060225, 7.086663e-8), (-0.13677426, 0.99060225, 7.086663e-8), (-0.7971733, 0.6037507, 3.7766537e-8), (-0.99060214, -0.13677518, 7.745503e-9), (-0.99060214, -0.13677518, 7.745503e-9), (-0.6037488, -0.79717463, 2.6784164e-8), (0.13677426, -0.99060225, 1.8053462e-9), (0.13677426, -0.99060225, 1.8053462e-9), (0.7971751, -0.60374826, 8.313099e-9), (0.990602, 0.13677566, 1.2355744e-8), (0.990602, 0.13677566, 1.2355744e-8), (-0.13677426, 0.99060225, 7.086663e-8), (-0.99060214, -0.13677518, 7.745503e-9), (-0.99060214, -0.13677518, 7.745503e-9), (0.13677426, -0.99060225, 1.8053462e-9), (0.990602, 0.13677566, 1.2355744e-8), (-0.99060214, 0.13677542, 1.0306778e-8), (-0.99060214, -0.13677518, 7.745503e-9), (-0.7971733, 0.6037507, 3.7766537e-8), (-0.99060214, 0.13677542, 1.0306778e-8), (-0.7971733, 0.6037507, 3.7766537e-8), (-0.6037477, 0.79717547, 7.0009605e-8), (-0.6037477, 0.79717547, 7.0009605e-8), (-0.7971733, 0.6037507, 3.7766537e-8), (-0.13677426, 0.99060225, 7.086663e-8), (-0.6037477, 0.79717547, 7.0009605e-8), (-0.13677426, 0.99060225, 7.086663e-8), (0.13677426, 0.9906023, 8.40095e-8), (-0.6037477, 0.79717547, 7.0009605e-8), (0.13677426, 0.9906023, 8.40095e-8), (0.7971733, 0.6037507, 3.7766537e-8), (0.7971733, 0.6037507, 3.7766537e-8), (0.99060214, -0.1367752, 4.4597854e-9), (0.6037499, -0.7971739, 3.9154614e-8), (0.6037499, -0.7971739, 3.9154614e-8), (-0.13677426, -0.99060225, 3.0874137e-8), (-0.7971751, -0.60374826, 8.313099e-9), (-0.7971751, -0.60374826, 8.313099e-9), (-0.99060214, 0.13677542, 1.0306778e-8), (-0.6037477, 0.79717547, 7.0009605e-8), (-0.6037477, 0.79717547, 7.0009605e-8), (0.7971733, 0.6037507, 3.7766537e-8), (0.6037499, -0.7971739, 3.9154614e-8), (0.6037499, -0.7971739, 3.9154614e-8), (-0.7971751, -0.60374826, 8.313099e-9), (-0.6037477, 0.79717547, 7.0009605e-8)] (
        interpolation = "faceVarying"
    )
    point3f[] points = [(3.0969852e-10, 0.0020000034, -0.035200004), (3.0969852e-10, 0.001999999, 0.035200033), (0.00141421, 0.0014142115, 0.03520003), (0.00141421, 0.0014142158, -0.035200007), (0.0020000043, 2.2576814e-9, 0.035200033), (0.0020000043, 6.5267103e-9, -0.035200004), (0.00141421, -0.0014142143, 0.035200033), (0.00141421, -0.0014142173, -0.035200004), (3.0969852e-10, -0.0020000017, 0.03520003), (3.0969852e-10, -0.0020000048, -0.035200007), (-0.0014142093, -0.0014142143, 0.035200033), (-0.0014142093, -0.0014142173, -0.035200004), (-0.0020000038, 2.2576814e-9, 0.035200033), (-0.0020000038, 6.5267103e-9, -0.035200004), (-0.0014142093, 0.0014142115, 0.03520003), (-0.0014142093, 0.0014142158, -0.035200007)]
}

