#usda 1.0
(
    defaultPrim = "UCX_Dishwasher_Tray_02_038"
    upAxis = "Z"
)

def Mesh "UCX_Dishwasher_Tray_02_038"
{
    int[] faceVertexCounts = [3, 3, 3, 3, 3, 3, 3, 3, 3, 3, 3, 3, 3, 3, 3, 3, 3, 3, 3, 3, 3, 3, 3, 3, 3, 3, 3, 3]
    int[] faceVertexIndices = [0, 1, 2, 0, 2, 3, 1, 4, 5, 1, 5, 2, 4, 6, 7, 4, 7, 5, 6, 8, 9, 6, 9, 7, 8, 10, 11, 8, 11, 9, 10, 12, 13, 10, 13, 11, 3, 2, 5, 5, 7, 9, 9, 11, 13, 13, 14, 3, 3, 5, 9, 9, 13, 3, 12, 15, 14, 12, 14, 13, 15, 0, 3, 15, 3, 14, 1, 0, 15, 15, 12, 10, 10, 8, 6, 6, 4, 1, 1, 15, 10, 10, 6, 1]
    normal3f[] normals = [(-0.13677539, 0.9906021, 0), (-0.79717636, 0.60374653, 0), (-0.6037499, 0.7971739, 0), (-0.13677539, 0.9906021, 0), (-0.6037499, 0.7971739, 0), (0.13677561, 0.9906021, 0), (-0.79717636, 0.60374653, 0), (-0.9906025, -0.13677245, 0), (-0.9906025, 0.13677244, 0), (-0.79717636, 0.60374653, 0), (-0.9906025, 0.13677244, 0), (-0.6037499, 0.7971739, 0), (-0.9906025, -0.13677245, 0), (-0.6037499, -0.7971739, 0), (-0.79717636, -0.60374653, 0), (-0.9906025, -0.13677245, 0), (-0.79717636, -0.60374653, 0), (-0.9906025, 0.13677244, 0), (-0.6037499, -0.7971739, 0), (0.13677561, -0.9906021, 0), (-0.13677539, -0.9906021, 0), (-0.6037499, -0.7971739, 0), (-0.13677539, -0.9906021, 0), (-0.79717636, -0.60374653, 0), (0.13677561, -0.9906021, 0), (0.7971739, -0.6037499, 0), (0.6037499, -0.7971739, 0), (0.13677561, -0.9906021, 0), (0.6037499, -0.7971739, 0), (-0.13677539, -0.9906021, 0), (0.7971739, -0.6037499, 0), (0.9906021, 0.13677587, 0), (0.9906021, -0.13677587, 0), (0.7971739, -0.6037499, 0), (0.9906021, -0.13677587, 0), (0.6037499, -0.7971739, 0), (0.13677561, 0.9906021, 0), (-0.6037499, 0.7971739, 0), (-0.9906025, 0.13677244, 0), (-0.9906025, 0.13677244, 0), (-0.79717636, -0.60374653, 0), (-0.13677539, -0.9906021, 0), (-0.13677539, -0.9906021, 0), (0.6037499, -0.7971739, 0), (0.9906021, -0.13677587, 0), (0.9906021, -0.13677587, 0), (0.7971739, 0.6037499, 0), (0.13677561, 0.9906021, 0), (0.13677561, 0.9906021, 0), (-0.9906025, 0.13677244, 0), (-0.13677539, -0.9906021, 0), (-0.13677539, -0.9906021, 0), (0.9906021, -0.13677587, 0), (0.13677561, 0.9906021, 0), (0.9906021, 0.13677587, 0), (0.6037499, 0.7971739, 0), (0.7971739, 0.6037499, 0), (0.9906021, 0.13677587, 0), (0.7971739, 0.6037499, 0), (0.9906021, -0.13677587, 0), (0.6037499, 0.7971739, 0), (-0.13677539, 0.9906021, 0), (0.13677561, 0.9906021, 0), (0.6037499, 0.7971739, 0), (0.13677561, 0.9906021, 0), (0.7971739, 0.6037499, 0), (-0.79717636, 0.60374653, 0), (-0.13677539, 0.9906021, 0), (0.6037499, 0.7971739, 0), (0.6037499, 0.7971739, 0), (0.9906021, 0.13677587, 0), (0.7971739, -0.6037499, 0), (0.7971739, -0.6037499, 0), (0.13677561, -0.9906021, 0), (-0.6037499, -0.7971739, 0), (-0.6037499, -0.7971739, 0), (-0.9906025, -0.13677245, 0), (-0.79717636, 0.60374653, 0), (-0.79717636, 0.60374653, 0), (0.6037499, 0.7971739, 0), (0.7971739, -0.6037499, 0), (0.7971739, -0.6037499, 0), (-0.6037499, -0.7971739, 0), (-0.79717636, 0.60374653, 0)] (
        interpolation = "faceVarying"
    )
    point3f[] points = [(-6.321341e-10, 0.0020000038, -0.08000004), (-0.0014142176, 0.0014142093, -0.08000004), (-0.0014142176, 0.0014142093, 0.08000004), (-6.321341e-10, 0.0020000038, 0.08000004), (-0.0019999973, -2.9484368e-10, -0.08000004), (-0.0019999973, -2.9484368e-10, 0.08000004), (-0.0014142176, -0.00141421, -0.08000004), (-0.0014142176, -0.00141421, 0.08000004), (-6.321341e-10, -0.0020000043, -0.08000004), (-6.321341e-10, -0.0020000043, 0.08000004), (0.001414209, -0.00141421, -0.08000004), (0.001414209, -0.00141421, 0.08000004), (0.0020000034, -2.9484368e-10, -0.08000004), (0.0020000034, -2.9484368e-10, 0.08000004), (0.001414209, 0.0014142093, 0.08000004), (0.001414209, 0.0014142093, -0.08000004)]
}

