#usda 1.0
(
    defaultPrim = "UCX_Kitchen_11_Base_Drawer_03_005"
    upAxis = "Z"
)

def Mesh "UCX_Kitchen_11_Base_Drawer_03_005"
{
    int[] faceVertexCounts = [3, 3, 3, 3, 3, 3, 3, 3, 3, 3, 3, 3]
    int[] faceVertexIndices = [0, 1, 2, 0, 2, 3, 1, 4, 5, 1, 5, 2, 4, 6, 7, 4, 7, 5, 6, 0, 3, 6, 3, 7, 5, 7, 3, 5, 3, 2, 1, 0, 6, 1, 6, 4]
    normal3f[] normals = [(0.9874473, 0.15794876, 2.8386653e-8), (0.9169243, -0.3990612, -6.486334e-8), (0.9874474, 0.15794878, 2.8386657e-8), (0.9874473, 0.15794876, 2.8386653e-8), (0.9874474, 0.15794878, 2.8386657e-8), (0.9874473, 0.15794873, 2.433142e-8), (0.9169243, -0.3990612, -6.486334e-8), (-0.99971557, 0.023852205, 0), (-0.99971557, 0.023852192, 0), (0.9169243, -0.3990612, -6.486334e-8), (-0.99971557, 0.023852192, 0), (0.9874474, 0.15794878, 2.8386657e-8), (-0.99971557, 0.023852205, 0), (0.023147363, 0.9997321, 0), (-0.99971557, 0.023852205, 0), (-0.99971557, 0.023852205, 0), (-0.99971557, 0.023852205, 0), (-0.99971557, 0.023852192, 0), (0.023147363, 0.9997321, 0), (0.9874473, 0.15794876, 2.8386653e-8), (0.9874473, 0.15794873, 2.433142e-8), (0.023147363, 0.9997321, 0), (0.9874473, 0.15794873, 2.433142e-8), (-0.99971557, 0.023852205, 0), (-0.99971557, 0.023852192, 0), (-0.99971557, 0.023852205, 0), (0.9874473, 0.15794873, 2.433142e-8), (-0.99971557, 0.023852192, 0), (0.9874473, 0.15794873, 2.433142e-8), (0.9874474, 0.15794878, 2.8386657e-8), (0.9169243, -0.3990612, -6.486334e-8), (0.9874473, 0.15794876, 2.8386653e-8), (0.023147363, 0.9997321, 0), (0.9169243, -0.3990612, -6.486334e-8), (0.023147363, 0.9997321, 0), (-0.99971557, 0.023852205, 0)] (
        interpolation = "faceVarying"
    )
    point3f[] points = [(0.015860029, -0.02120528, 0.23762636), (0.01586003, -0.021205205, -0.23762636), (0.0063192127, 0.03844107, -0.23762633), (0.006319211, 0.038440995, 0.23762637), (-0.011516026, -0.043323144, -0.23762636), (-0.009507589, 0.04085635, -0.23762633), (-0.011516028, -0.04332322, 0.23762636), (-0.00950759, 0.040856276, 0.23762637)]
}

