#usda 1.0
(
    defaultPrim = "UCX_Dishwasher_Tray_02_035"
    upAxis = "Z"
)

def Mesh "UCX_Dishwasher_Tray_02_035"
{
    int[] faceVertexCounts = [3, 3, 3, 3, 3, 3, 3, 3, 3, 3, 3, 3, 3, 3, 3, 3, 3, 3, 3, 3, 3, 3, 3, 3, 3, 3, 3, 3]
    int[] faceVertexIndices = [0, 1, 2, 0, 2, 3, 3, 2, 4, 3, 4, 5, 5, 4, 6, 5, 6, 7, 7, 6, 8, 7, 8, 9, 9, 8, 10, 9, 10, 11, 11, 10, 12, 11, 12, 13, 4, 2, 1, 1, 14, 12, 12, 10, 8, 8, 6, 4, 4, 1, 12, 12, 8, 4, 13, 12, 14, 13, 14, 15, 15, 14, 1, 15, 1, 0, 15, 0, 3, 3, 5, 7, 7, 9, 11, 11, 13, 15, 15, 3, 7, 7, 11, 15]
    normal3f[] normals = [(0.13677587, 0.9906021, 0), (-0.13677587, 0.9906021, 0), (0.6037499, 0.7971739, 0), (0.13677587, 0.9906021, 0), (0.6037499, 0.7971739, 0), (0.7971739, 0.6037499, 0), (0.7971739, 0.6037499, 0), (0.6037499, 0.7971739, 0), (0.9906021, 0.13677587, 0), (0.7971739, 0.6037499, 0), (0.9906021, 0.13677587, 0), (0.9906021, -0.13677587, 0), (0.9906021, -0.13677587, 0), (0.9906021, 0.13677587, 0), (0.7971739, -0.6037499, 0), (0.9906021, -0.13677587, 0), (0.7971739, -0.6037499, 0), (0.6037499, -0.7971739, 0), (0.6037499, -0.7971739, 0), (0.7971739, -0.6037499, 0), (0.13677587, -0.9906021, 0), (0.6037499, -0.7971739, 0), (0.13677587, -0.9906021, 0), (-0.13677587, -0.9906021, 0), (-0.13677587, -0.9906021, 0), (0.13677587, -0.9906021, 0), (-0.6037499, -0.7971739, 0), (-0.13677587, -0.9906021, 0), (-0.6037499, -0.7971739, 0), (-0.7971739, -0.6037499, 0), (-0.7971739, -0.6037499, 0), (-0.6037499, -0.7971739, 0), (-0.9906021, -0.13677587, 0), (-0.7971739, -0.6037499, 0), (-0.9906021, -0.13677587, 0), (-0.9906021, 0.13677587, 0), (0.9906021, 0.13677587, 0), (0.6037499, 0.7971739, 0), (-0.13677587, 0.9906021, 0), (-0.13677587, 0.9906021, 0), (-0.7971739, 0.6037499, 0), (-0.9906021, -0.13677587, 0), (-0.9906021, -0.13677587, 0), (-0.6037499, -0.7971739, 0), (0.13677587, -0.9906021, 0), (0.13677587, -0.9906021, 0), (0.7971739, -0.6037499, 0), (0.9906021, 0.13677587, 0), (0.9906021, 0.13677587, 0), (-0.13677587, 0.9906021, 0), (-0.9906021, -0.13677587, 0), (-0.9906021, -0.13677587, 0), (0.13677587, -0.9906021, 0), (0.9906021, 0.13677587, 0), (-0.9906021, 0.13677587, 0), (-0.9906021, -0.13677587, 0), (-0.7971739, 0.6037499, 0), (-0.9906021, 0.13677587, 0), (-0.7971739, 0.6037499, 0), (-0.6037499, 0.7971739, 0), (-0.6037499, 0.7971739, 0), (-0.7971739, 0.6037499, 0), (-0.13677587, 0.9906021, 0), (-0.6037499, 0.7971739, 0), (-0.13677587, 0.9906021, 0), (0.13677587, 0.9906021, 0), (-0.6037499, 0.7971739, 0), (0.13677587, 0.9906021, 0), (0.7971739, 0.6037499, 0), (0.7971739, 0.6037499, 0), (0.9906021, -0.13677587, 0), (0.6037499, -0.7971739, 0), (0.6037499, -0.7971739, 0), (-0.13677587, -0.9906021, 0), (-0.7971739, -0.6037499, 0), (-0.7971739, -0.6037499, 0), (-0.9906021, 0.13677587, 0), (-0.6037499, 0.7971739, 0), (-0.6037499, 0.7971739, 0), (0.7971739, 0.6037499, 0), (0.6037499, -0.7971739, 0), (0.6037499, -0.7971739, 0), (-0.7971739, -0.6037499, 0), (-0.6037499, 0.7971739, 0)] (
        interpolation = "faceVarying"
    )
    point3f[] points = [(-5.551115e-17, 0.0020000031, -0.08000004), (-5.551115e-17, 0.0020000031, 0.08000004), (0.0014142096, 0.0014142087, 0.08000004), (0.0014142096, 0.0014142087, -0.08000004), (0.002000004, -9.533909e-10, 0.08000004), (0.002000004, -9.533909e-10, -0.08000004), (0.0014142096, -0.0014142105, 0.08000004), (0.0014142096, -0.0014142105, -0.08000004), (-5.551115e-17, -0.002000005, 0.08000004), (-5.551115e-17, -0.002000005, -0.08000004), (-0.0014142096, -0.0014142105, 0.08000004), (-0.0014142096, -0.0014142105, -0.08000004), (-0.002000004, -9.533909e-10, 0.08000004), (-0.002000004, -9.533909e-10, -0.08000004), (-0.0014142096, 0.0014142087, 0.08000004), (-0.0014142096, 0.0014142087, -0.08000004)]
}

