#usda 1.0
(
    defaultPrim = "UCX_Kitchen_08_Sink_Drawer_01_004"
    upAxis = "Z"
)

def Mesh "UCX_Kitchen_08_Sink_Drawer_01_004"
{
    int[] faceVertexCounts = [3, 3, 3, 3, 3, 3, 3, 3, 3, 3, 3, 3]
    int[] faceVertexIndices = [0, 1, 2, 0, 2, 3, 4, 5, 2, 4, 2, 1, 6, 7, 0, 6, 0, 3, 6, 5, 4, 6, 4, 7, 1, 0, 7, 1, 7, 4, 3, 2, 5, 3, 5, 6]
    normal3f[] normals = [(1, 0, 0), (1, 0, 0), (-1, -3.2819173e-8, 2.1879448e-8), (1, 0, 0), (-1, -3.2819173e-8, 2.1879448e-8), (-1, 0, 0), (1, 0, 0), (-1, 0, 0), (-1, -3.2819173e-8, 2.1879448e-8), (1, 0, 0), (-1, -3.2819173e-8, 2.1879448e-8), (1, 0, 0), (-1, 3.2819173e-8, -2.1879448e-8), (1, 0, 0), (1, 0, 0), (-1, 3.2819173e-8, -2.1879448e-8), (1, 0, 0), (-1, 0, 0), (-1, 3.2819173e-8, -2.1879448e-8), (-1, 0, 0), (1, 0, 0), (-1, 3.2819173e-8, -2.1879448e-8), (1, 0, 0), (1, 0, 0), (1, 0, 0), (1, 0, 0), (1, 0, 0), (1, 0, 0), (1, 0, 0), (1, 0, 0), (-1, 0, 0), (-1, -3.2819173e-8, 2.1879448e-8), (-1, 0, 0), (-1, 0, 0), (-1, 0, 0), (-1, 3.2819173e-8, -2.1879448e-8)] (
        interpolation = "faceVarying"
    )
    point3f[] points = [(0.010795386, -0.124840766, -0.17048152), (0.010795386, -0.124840766, 0.17048155), (-0.010795376, -0.124840766, 0.17048155), (-0.010795384, -0.124840766, -0.17048152), (0.010795386, 0.124840766, 0.17048155), (-0.010795384, 0.124840766, 0.17048155), (-0.010795376, 0.124840766, -0.17048152), (0.010795386, 0.124840766, -0.17048152)]
}

