#usda 1.0
(
    defaultPrim = "UCX_Dishwasher_Tray_01_004"
    upAxis = "Z"
)

def Mesh "UCX_Dishwasher_Tray_01_004"
{
    int[] faceVertexCounts = [3, 3, 3, 3, 3, 3, 3, 3, 3, 3, 3, 3]
    int[] faceVertexIndices = [0, 1, 2, 0, 2, 3, 3, 2, 4, 3, 4, 5, 1, 6, 4, 1, 4, 2, 6, 7, 5, 6, 5, 4, 7, 0, 3, 7, 3, 5, 0, 7, 6, 0, 6, 1]
    normal3f[] normals = [(1, -3.2687606e-7, -2.34293e-7), (1, 2.7755576e-17, 0), (1, -3.2687606e-7, -2.34293e-7), (1, -3.2687606e-7, -2.34293e-7), (1, -3.2687606e-7, -2.34293e-7), (2.7145272e-17, 0.8142901, 0.5804582), (2.7145272e-17, 0.8142901, 0.5804582), (1, -3.2687606e-7, -2.34293e-7), (6.9623585e-18, 0.8833389, -0.4687349), (2.7145272e-17, 0.8142901, 0.5804582), (6.9623585e-18, 0.8833389, -0.4687349), (-1, 7.0997504e-7, 2.39194e-8), (1, 2.7755576e-17, 0), (-1, 7.176131e-7, 1.6925366e-8), (6.9623585e-18, 0.8833389, -0.4687349), (1, 2.7755576e-17, 0), (6.9623585e-18, 0.8833389, -0.4687349), (1, -3.2687606e-7, -2.34293e-7), (-1, 7.176131e-7, 1.6925366e-8), (-1, 7.099842e-7, 3.1249986e-8), (-1, 7.0997504e-7, 2.39194e-8), (-1, 7.176131e-7, 1.6925366e-8), (-1, 7.0997504e-7, 2.39194e-8), (6.9623585e-18, 0.8833389, -0.4687349), (-1, 7.099842e-7, 3.1249986e-8), (1, -3.2687606e-7, -2.34293e-7), (2.7145272e-17, 0.8142901, 0.5804582), (-1, 7.099842e-7, 3.1249986e-8), (2.7145272e-17, 0.8142901, 0.5804582), (-1, 7.0997504e-7, 2.39194e-8), (1, -3.2687606e-7, -2.34293e-7), (-1, 7.099842e-7, 3.1249986e-8), (-1, 7.176131e-7, 1.6925366e-8), (1, -3.2687606e-7, -2.34293e-7), (-1, 7.176131e-7, 1.6925366e-8), (1, 2.7755576e-17, 0)] (
        interpolation = "faceVarying"
    )
    point3f[] points = [(0.0021554925, -0.0044570616, 0.013491032), (0.0021554925, -0.0036123886, -0.0145915365), (0.0021554925, 0.00649306, -0.0018702429), (0.0021555, 0.006146148, 0.0037985917), (-0.002155488, 0.00649306, -0.0018702429), (-0.002155488, 0.006146148, 0.0037985917), (-0.0021554953, -0.0036123886, -0.0145915365), (-0.0021554953, -0.0044570616, 0.013491032)]
}

