#usda 1.0
(
    defaultPrim = "UCX_Fridge_Egg_Tray_004"
    upAxis = "Z"
)

def Mesh "UCX_Fridge_Egg_Tray_004"
{
    int[] faceVertexCounts = [3, 3, 3, 3, 3, 3, 3, 3, 3, 3, 3, 3]
    int[] faceVertexIndices = [0, 1, 2, 0, 2, 3, 4, 5, 6, 4, 6, 7, 3, 6, 5, 3, 5, 0, 5, 4, 1, 5, 1, 0, 2, 1, 4, 2, 4, 7, 6, 3, 2, 6, 2, 7]
    normal3f[] normals = [(1.0000001, 3.2228616e-8, 0), (1.0000001, 3.2228616e-8, 0), (1, 1.1559513e-8, 0), (1.0000001, 3.2228616e-8, 0), (1, 1.1559513e-8, 0), (1, -1.7791427e-8, 0), (-1.0000001, -3.2228616e-8, -0), (-1.0000001, -4.6904084e-8, -0), (-1.0000001, -3.2228616e-8, -0), (-1.0000001, -3.2228616e-8, -0), (-1.0000001, -3.2228616e-8, -0), (-1, -1.1559513e-8, -0), (1, -1.7791427e-8, 0), (-1.0000001, -3.2228616e-8, -0), (-1.0000001, -4.6904084e-8, -0), (1, -1.7791427e-8, 0), (-1.0000001, -4.6904084e-8, -0), (1.0000001, 3.2228616e-8, 0), (-1.0000001, -4.6904084e-8, -0), (-1.0000001, -3.2228616e-8, -0), (1.0000001, 3.2228616e-8, 0), (-1.0000001, -4.6904084e-8, -0), (1.0000001, 3.2228616e-8, 0), (1.0000001, 3.2228616e-8, 0), (1, 1.1559513e-8, 0), (1.0000001, 3.2228616e-8, 0), (-1.0000001, -3.2228616e-8, -0), (1, 1.1559513e-8, 0), (-1.0000001, -3.2228616e-8, -0), (-1, -1.1559513e-8, -0), (-1.0000001, -3.2228616e-8, -0), (1, -1.7791427e-8, 0), (1, 1.1559513e-8, 0), (-1.0000001, -3.2228616e-8, -0), (1, 1.1559513e-8, 0), (-1, -1.1559513e-8, -0)] (
        interpolation = "faceVarying"
    )
    point3f[] points = [(0.00090000214, -0.0066522057, -0.017643318), (0.00090000173, 0.006652209, -0.017643318), (0.00090000173, 0.006652209, 0.017643318), (0.00090000214, -0.0066522057, 0.017643318), (-0.00090000214, 0.0066522053, -0.017643318), (-0.0009000017, -0.0066522094, -0.017643318), (-0.0009000017, -0.0066522094, 0.017643318), (-0.00090000214, 0.0066522053, 0.017643318)]
}

