#usda 1.0
(
    defaultPrim = "UCX_Dishwasher_Tray_02_054"
    upAxis = "Z"
)

def Mesh "UCX_Dishwasher_Tray_02_054"
{
    int[] faceVertexCounts = [3, 3, 3, 3, 3, 3, 3, 3, 3, 3, 3, 3]
    int[] faceVertexIndices = [0, 1, 2, 0, 2, 3, 1, 4, 5, 1, 5, 2, 4, 6, 7, 4, 7, 5, 6, 0, 3, 6, 3, 7, 1, 0, 6, 1, 6, 4, 5, 7, 3, 5, 3, 2]
    normal3f[] normals = [(-1, 0, 0), (1, 0, 0), (1, 0, 0), (-1, 0, 0), (1, 0, 0), (-1, 0, 0), (1, 0, 0), (1, 0, 0), (1, 0, 0), (1, 0, 0), (1, 0, 0), (1, 0, 0), (1, 0, 0), (-1, 0, 0), (-1, 0, 0), (1, 0, 0), (-1, 0, 0), (1, 0, 0), (-1, 0, 0), (-1, 0, 0), (-1, 0, 0), (-1, 0, 0), (-1, 0, 0), (-1, 0, 0), (1, 0, 0), (-1, 0, 0), (-1, 0, 0), (1, 0, 0), (-1, 0, 0), (1, 0, 0), (1, 0, 0), (-1, 0, 0), (-1, 0, 0), (1, 0, 0), (-1, 0, 0), (1, 0, 0)] (
        interpolation = "faceVarying"
    )
    point3f[] points = [(-0.004147608, 0.008547508, -0.07835794), (0.0041476004, 0.008547508, -0.07835794), (0.0041476004, -0.008222556, -0.08303657), (-0.004147608, -0.008222556, -0.08303657), (0.0041476004, 0.008306673, 0.080721244), (0.0041476004, -0.008470436, 0.080695845), (-0.004147608, 0.008306673, 0.080721244), (-0.004147608, -0.008470436, 0.080695845)]
}

