#usda 1.0
(
    defaultPrim = "UCX_Dishwasher_Tray_02_024"
    upAxis = "Z"
)

def Mesh "UCX_Dishwasher_Tray_02_024"
{
    int[] faceVertexCounts = [3, 3, 3, 3, 3, 3, 3, 3, 3, 3, 3, 3, 3, 3, 3, 3, 3, 3, 3, 3, 3, 3, 3, 3, 3, 3, 3, 3]
    int[] faceVertexIndices = [0, 1, 2, 0, 2, 3, 3, 2, 4, 3, 4, 5, 5, 4, 6, 5, 6, 7, 7, 6, 8, 7, 8, 9, 9, 8, 10, 9, 10, 11, 11, 10, 12, 11, 12, 13, 4, 2, 1, 1, 14, 12, 12, 10, 8, 8, 6, 4, 4, 1, 12, 12, 8, 4, 13, 12, 14, 13, 14, 15, 15, 14, 1, 15, 1, 0, 15, 0, 3, 3, 5, 7, 7, 9, 11, 11, 13, 15, 15, 3, 7, 7, 11, 15]
    normal3f[] normals = [(0.13677426, 0.9906023, -8.118782e-8), (-0.13677427, 0.9906023, -1.10256615e-7), (0.6037499, 0.7971738, -7.935464e-8), (0.13677426, 0.9906023, -8.118782e-8), (0.6037499, 0.7971738, -7.935464e-8), (0.7971745, 0.6037491, -3.298652e-8), (0.7971745, 0.6037491, -3.298652e-8), (0.6037499, 0.7971738, -7.935464e-8), (0.99060214, 0.13677543, -1.3668131e-8), (0.7971745, 0.6037491, -3.298652e-8), (0.99060214, 0.13677543, -1.3668131e-8), (0.990602, -0.13677588, -1.4048213e-8), (0.990602, -0.13677588, -1.4048213e-8), (0.99060214, 0.13677543, -1.3668131e-8), (0.7971732, -0.6037507, -6.0251836e-8), (0.990602, -0.13677588, -1.4048213e-8), (0.7971732, -0.6037507, -6.0251836e-8), (0.6037477, -0.79717547, -9.969856e-8), (0.6037477, -0.79717547, -9.969856e-8), (0.7971732, -0.6037507, -6.0251836e-8), (0.13677426, -0.9906023, -1.209022e-7), (0.6037477, -0.79717547, -9.969856e-8), (0.13677426, -0.9906023, -1.209022e-7), (-0.13677426, -0.9906023, -1.209022e-7), (-0.13677426, -0.9906023, -1.209022e-7), (0.13677426, -0.9906023, -1.209022e-7), (-0.6037477, -0.79717547, -8.516417e-8), (-0.13677426, -0.9906023, -1.209022e-7), (-0.6037477, -0.79717547, -8.516417e-8), (-0.7971733, -0.6037507, -6.0251836e-8), (-0.7971733, -0.6037507, -6.0251836e-8), (-0.6037477, -0.79717547, -8.516417e-8), (-0.99060214, -0.1367754, -1.7565343e-8), (-0.7971733, -0.6037507, -6.0251836e-8), (-0.99060214, -0.1367754, -1.7565343e-8), (-0.99060214, 0.13677545, -1.40160115e-8), (0.99060214, 0.13677543, -1.3668131e-8), (0.6037499, 0.7971738, -7.935464e-8), (-0.13677427, 0.9906023, -1.10256615e-7), (-0.13677427, 0.9906023, -1.10256615e-7), (-0.7971745, 0.6037491, -3.298652e-8), (-0.99060214, -0.1367754, -1.7565343e-8), (-0.99060214, -0.1367754, -1.7565343e-8), (-0.6037477, -0.79717547, -8.516417e-8), (0.13677426, -0.9906023, -1.209022e-7), (0.13677426, -0.9906023, -1.209022e-7), (0.7971732, -0.6037507, -6.0251836e-8), (0.99060214, 0.13677543, -1.3668131e-8), (0.99060214, 0.13677543, -1.3668131e-8), (-0.13677427, 0.9906023, -1.10256615e-7), (-0.99060214, -0.1367754, -1.7565343e-8), (-0.99060214, -0.1367754, -1.7565343e-8), (0.13677426, -0.9906023, -1.209022e-7), (0.99060214, 0.13677543, -1.3668131e-8), (-0.99060214, 0.13677545, -1.40160115e-8), (-0.99060214, -0.1367754, -1.7565343e-8), (-0.7971745, 0.6037491, -3.298652e-8), (-0.99060214, 0.13677545, -1.40160115e-8), (-0.7971745, 0.6037491, -3.298652e-8), (-0.6037477, 0.7971756, -4.7036924e-8), (-0.6037477, 0.7971756, -4.7036924e-8), (-0.7971745, 0.6037491, -3.298652e-8), (-0.13677427, 0.9906023, -1.10256615e-7), (-0.6037477, 0.7971756, -4.7036924e-8), (-0.13677427, 0.9906023, -1.10256615e-7), (0.13677426, 0.9906023, -8.118782e-8), (-0.6037477, 0.7971756, -4.7036924e-8), (0.13677426, 0.9906023, -8.118782e-8), (0.7971745, 0.6037491, -3.298652e-8), (0.7971745, 0.6037491, -3.298652e-8), (0.990602, -0.13677588, -1.4048213e-8), (0.6037477, -0.79717547, -9.969856e-8), (0.6037477, -0.79717547, -9.969856e-8), (-0.13677426, -0.9906023, -1.209022e-7), (-0.7971733, -0.6037507, -6.0251836e-8), (-0.7971733, -0.6037507, -6.0251836e-8), (-0.99060214, 0.13677545, -1.40160115e-8), (-0.6037477, 0.7971756, -4.7036924e-8), (-0.6037477, 0.7971756, -4.7036924e-8), (0.7971745, 0.6037491, -3.298652e-8), (0.6037477, -0.79717547, -9.969856e-8), (0.6037477, -0.79717547, -9.969856e-8), (-0.7971733, -0.6037507, -6.0251836e-8), (-0.6037477, 0.7971756, -4.7036924e-8)] (
        interpolation = "faceVarying"
    )
    point3f[] points = [(2.2864466e-10, 0.0019999954, -0.035200045), (2.2864466e-10, 0.0020000031, 0.035199992), (0.0014142098, 0.0014142155, 0.03519999), (0.0014142098, 0.001414208, -0.03520005), (0.0020000043, -8.185534e-9, 0.03519999), (0.0020000043, -1.2946192e-9, -0.03520005), (0.0014142098, -0.0014142174, 0.03519999), (0.0014142098, -0.0014142105, -0.035200045), (2.2864466e-10, -0.002000005, 0.03519999), (2.2864466e-10, -0.001999998, -0.03520005), (-0.0014142094, -0.0014142174, 0.03519999), (-0.0014142094, -0.0014142105, -0.035200045), (-0.0020000038, -8.185534e-9, 0.03519999), (-0.0020000038, -1.2946192e-9, -0.03520005), (-0.0014142094, 0.0014142155, 0.03519999), (-0.0014142094, 0.001414208, -0.03520005)]
}

