#usda 1.0
(
    defaultPrim = "UCX_Fridge_Drawer_04_003"
    upAxis = "Z"
)

def Mesh "UCX_Fridge_Drawer_04_003"
{
    int[] faceVertexCounts = [3, 3, 3, 3, 3, 3, 3, 3, 3, 3, 3, 3]
    int[] faceVertexIndices = [0, 1, 2, 0, 2, 3, 3, 2, 4, 3, 4, 5, 5, 4, 6, 5, 6, 7, 7, 6, 1, 7, 1, 0, 3, 5, 7, 3, 7, 0, 4, 2, 1, 4, 1, 6]
    normal3f[] normals = [(-0.9992857, 0.03778977, 0), (-0.9992857, 0.03778977, 0), (0.9992857, -0.03778977, 0), (-0.9992857, 0.03778977, 0), (0.9992857, -0.03778977, 0), (0.9992857, -0.03778977, 0), (0.9992857, -0.03778977, 0), (0.9992857, -0.03778977, 0), (0.9992857, -0.03778977, 0), (0.9992857, -0.03778977, 0), (0.9992857, -0.03778977, 0), (0.9992857, -0.03778977, 0), (0.9992857, -0.03778977, 0), (0.9992857, -0.03778977, 0), (-0.9992857, 0.03778977, 0), (0.9992857, -0.03778977, 0), (-0.9992857, 0.03778977, 0), (-0.9992857, 0.03778977, 0), (-0.9992857, 0.03778977, 0), (-0.9992857, 0.03778977, 0), (-0.9992857, 0.03778977, 0), (-0.9992857, 0.03778977, 0), (-0.9992857, 0.03778977, 0), (-0.9992857, 0.03778977, 0), (0.9992857, -0.03778977, 0), (0.9992857, -0.03778977, 0), (-0.9992857, 0.03778977, 0), (0.9992857, -0.03778977, 0), (-0.9992857, 0.03778977, 0), (-0.9992857, 0.03778977, 0), (0.9992857, -0.03778977, 0), (0.9992857, -0.03778977, 0), (-0.9992857, 0.03778977, 0), (0.9992857, -0.03778977, 0), (-0.9992857, 0.03778977, 0), (-0.9992857, 0.03778977, 0)] (
        interpolation = "faceVarying"
    )
    point3f[] points = [(-0.014778257, -0.029911034, -0.20437984), (-0.012184028, 0.038688935, -0.20437984), (0.014204263, 0.037691016, -0.20437984), (0.011042723, -0.045910485, -0.20437984), (0.014204263, 0.037691016, 0.20437984), (0.011042723, -0.045910485, 0.20437984), (-0.012184028, 0.038688935, 0.20437984), (-0.014778257, -0.029911034, 0.20437984)]
}

