#usda 1.0
(
    defaultPrim = "UCX_Dishwasher_Tray_02_043"
    upAxis = "Z"
)

def Mesh "UCX_Dishwasher_Tray_02_043"
{
    int[] faceVertexCounts = [3, 3, 3, 3, 3, 3, 3, 3, 3, 3, 3, 3, 3, 3, 3, 3, 3, 3, 3, 3, 3, 3, 3, 3, 3, 3, 3, 3]
    int[] faceVertexIndices = [0, 1, 2, 0, 2, 3, 3, 2, 4, 3, 4, 5, 5, 4, 6, 5, 6, 7, 7, 6, 8, 7, 8, 9, 9, 8, 10, 9, 10, 11, 11, 10, 12, 11, 12, 13, 4, 2, 1, 1, 14, 12, 12, 10, 8, 8, 6, 4, 4, 1, 12, 12, 8, 4, 13, 12, 14, 13, 14, 15, 15, 14, 1, 15, 1, 0, 15, 0, 3, 3, 5, 7, 7, 9, 11, 11, 13, 15, 15, 3, 7, 7, 11, 15]
    normal3f[] normals = [(0.9906021, -0.13677537, -1.1894889e-8), (0.9906021, 0.13677537, 1.2520935e-8), (0.7971739, -0.6037499, -4.1006036e-8), (0.9906021, -0.13677537, -1.1894889e-8), (0.7971739, -0.6037499, -4.1006036e-8), (0.60374767, -0.7971755, -7.011734e-8), (0.60374767, -0.7971755, -7.011734e-8), (0.7971739, -0.6037499, -4.1006036e-8), (0.13677415, -0.99060225, -9.015107e-8), (0.60374767, -0.7971755, -7.011734e-8), (0.13677415, -0.99060225, -9.015107e-8), (-0.13677414, -0.99060225, -8.702082e-8), (-0.13677414, -0.99060225, -8.702082e-8), (0.13677415, -0.99060225, -9.015107e-8), (-0.6037488, -0.79717475, -7.011727e-8), (-0.13677414, -0.99060225, -8.702082e-8), (-0.6037488, -0.79717475, -7.011727e-8), (-0.7971739, -0.6037499, -4.006697e-8), (-0.7971739, -0.6037499, -4.006697e-8), (-0.6037488, -0.79717475, -7.011727e-8), (-0.99060214, -0.13677563, -1.0016767e-8), (-0.7971739, -0.6037499, -4.006697e-8), (-0.99060214, -0.13677563, -1.0016767e-8), (-0.99060214, 0.13677563, 1.1894911e-8), (-0.99060214, 0.13677563, 1.1894911e-8), (-0.99060214, -0.13677563, -1.0016767e-8), (-0.7971739, 0.6037499, 4.131906e-8), (-0.99060214, 0.13677563, 1.1894911e-8), (-0.7971739, 0.6037499, 4.131906e-8), (-0.6037488, 0.79717475, 7.011727e-8), (-0.6037488, 0.79717475, 7.011727e-8), (-0.7971739, 0.6037499, 4.131906e-8), (-0.13677415, 0.99060225, 9.015107e-8), (-0.6037488, 0.79717475, 7.011727e-8), (-0.13677415, 0.99060225, 9.015107e-8), (0.13677414, 0.99060225, 8.702082e-8), (0.13677415, -0.99060225, -9.015107e-8), (0.7971739, -0.6037499, -4.1006036e-8), (0.9906021, 0.13677537, 1.2520935e-8), (0.9906021, 0.13677537, 1.2520935e-8), (0.60374767, 0.7971755, 7.011734e-8), (-0.13677415, 0.99060225, 9.015107e-8), (-0.13677415, 0.99060225, 9.015107e-8), (-0.7971739, 0.6037499, 4.131906e-8), (-0.99060214, -0.13677563, -1.0016767e-8), (-0.99060214, -0.13677563, -1.0016767e-8), (-0.6037488, -0.79717475, -7.011727e-8), (0.13677415, -0.99060225, -9.015107e-8), (0.13677415, -0.99060225, -9.015107e-8), (0.9906021, 0.13677537, 1.2520935e-8), (-0.13677415, 0.99060225, 9.015107e-8), (-0.13677415, 0.99060225, 9.015107e-8), (-0.99060214, -0.13677563, -1.0016767e-8), (0.13677415, -0.99060225, -9.015107e-8), (0.13677414, 0.99060225, 8.702082e-8), (-0.13677415, 0.99060225, 9.015107e-8), (0.60374767, 0.7971755, 7.011734e-8), (0.13677414, 0.99060225, 8.702082e-8), (0.60374767, 0.7971755, 7.011734e-8), (0.7971739, 0.6037499, 4.006697e-8), (0.7971739, 0.6037499, 4.006697e-8), (0.60374767, 0.7971755, 7.011734e-8), (0.9906021, 0.13677537, 1.2520935e-8), (0.7971739, 0.6037499, 4.006697e-8), (0.9906021, 0.13677537, 1.2520935e-8), (0.9906021, -0.13677537, -1.1894889e-8), (0.7971739, 0.6037499, 4.006697e-8), (0.9906021, -0.13677537, -1.1894889e-8), (0.60374767, -0.7971755, -7.011734e-8), (0.60374767, -0.7971755, -7.011734e-8), (-0.13677414, -0.99060225, -8.702082e-8), (-0.7971739, -0.6037499, -4.006697e-8), (-0.7971739, -0.6037499, -4.006697e-8), (-0.99060214, 0.13677563, 1.1894911e-8), (-0.6037488, 0.79717475, 7.011727e-8), (-0.6037488, 0.79717475, 7.011727e-8), (0.13677414, 0.99060225, 8.702082e-8), (0.7971739, 0.6037499, 4.006697e-8), (0.7971739, 0.6037499, 4.006697e-8), (0.60374767, -0.7971755, -7.011734e-8), (-0.7971739, -0.6037499, -4.006697e-8), (-0.7971739, -0.6037499, -4.006697e-8), (-0.6037488, 0.79717475, 7.011727e-8), (0.7971739, 0.6037499, 4.006697e-8)] (
        interpolation = "faceVarying"
    )
    point3f[] points = [(0.0020000038, -1.2417601e-9, -0.04240002), (0.0020000038, -1.2417601e-9, 0.04240002), (0.0014142094, -0.0014142183, 0.04240002), (0.0014142094, -0.0014142109, -0.04240002), (-2.4408536e-10, -0.0020000052, 0.04240002), (-2.4408536e-10, -0.0019999978, -0.04240002), (-0.0014142098, -0.0014142183, 0.04240002), (-0.0014142098, -0.0014142109, -0.04240002), (-0.0020000043, -1.2417601e-9, 0.04240002), (-0.0020000043, -1.2417601e-9, -0.04240002), (-0.0014142098, 0.0014142083, 0.04240002), (-0.0014142098, 0.0014142158, -0.04240002), (-2.4408536e-10, 0.0019999954, 0.04240002), (-2.4408536e-10, 0.002000003, -0.04240002), (0.0014142094, 0.0014142083, 0.04240002), (0.0014142094, 0.0014142158, -0.04240002)]
}

