#usda 1.0
(
    defaultPrim = "UCX_Kitchen_05_Base_Drawer_02_006"
    upAxis = "Z"
)

def Mesh "UCX_Kitchen_05_Base_Drawer_02_006"
{
    int[] faceVertexCounts = [3, 3, 3, 3, 3, 3, 3, 3, 3, 3, 3, 3]
    int[] faceVertexIndices = [0, 1, 2, 0, 2, 3, 4, 2, 1, 4, 1, 5, 6, 4, 5, 6, 5, 7, 3, 2, 4, 3, 4, 6, 7, 5, 1, 7, 1, 0, 6, 7, 0, 6, 0, 3]
    normal3f[] normals = [(0.99415773, 0.107937686, 1.1310047e-7), (-0.99941915, 0.034078863, -1.2613756e-7), (-0.9994192, 0.034078766, -1.1785115e-7), (0.99415773, 0.107937686, 1.1310047e-7), (-0.9994192, 0.034078766, -1.1785115e-7), (0.99415773, 0.10793755, 1.200605e-7), (-0.99941915, 0.034078915, -1.2613756e-7), (-0.9994192, 0.034078766, -1.1785115e-7), (-0.99941915, 0.034078863, -1.2613756e-7), (-0.99941915, 0.034078915, -1.2613756e-7), (-0.99941915, 0.034078863, -1.2613756e-7), (-0.99941915, 0.034078997, -1.3258254e-7), (0.9941577, 0.10793767, 1.1310047e-7), (-0.99941915, 0.034078915, -1.2613756e-7), (-0.99941915, 0.034078997, -1.3258254e-7), (0.9941577, 0.10793767, 1.1310047e-7), (-0.99941915, 0.034078997, -1.3258254e-7), (0.9941576, 0.107937835, 1.0788043e-7), (0.99415773, 0.10793755, 1.200605e-7), (-0.9994192, 0.034078766, -1.1785115e-7), (-0.99941915, 0.034078915, -1.2613756e-7), (0.99415773, 0.10793755, 1.200605e-7), (-0.99941915, 0.034078915, -1.2613756e-7), (0.9941577, 0.10793767, 1.1310047e-7), (0.9941576, 0.107937835, 1.0788043e-7), (-0.99941915, 0.034078997, -1.3258254e-7), (-0.99941915, 0.034078863, -1.2613756e-7), (0.9941576, 0.107937835, 1.0788043e-7), (-0.99941915, 0.034078863, -1.2613756e-7), (0.99415773, 0.107937686, 1.1310047e-7), (0.9941577, 0.10793767, 1.1310047e-7), (0.9941576, 0.107937835, 1.0788043e-7), (0.99415773, 0.107937686, 1.1310047e-7), (0.9941577, 0.10793767, 1.1310047e-7), (0.99415773, 0.107937686, 1.1310047e-7), (0.99415773, 0.10793755, 1.200605e-7)] (
        interpolation = "faceVarying"
    )
    point3f[] points = [(0.0024702658, 0.021420429, 0.23762634), (-0.0041129435, 0.015578127, 0.23762634), (-0.005246272, -0.017658692, 0.23762636), (0.006269074, -0.01356843, 0.23762636), (-0.0052462164, -0.01765873, -0.23762633), (-0.004112882, 0.015578085, -0.23762633), (0.006269136, -0.013568471, -0.23762633), (0.0024703215, 0.021420391, -0.23762633)]
}

