#usda 1.0
(
    defaultPrim = "UCX_Kitchen_05_Base_Drawer_02_007"
    upAxis = "Z"
)

def Mesh "UCX_Kitchen_05_Base_Drawer_02_007"
{
    int[] faceVertexCounts = [3, 3, 3, 3, 3, 3, 3, 3, 3, 3, 3, 3]
    int[] faceVertexIndices = [0, 1, 2, 0, 2, 3, 1, 4, 5, 1, 5, 2, 4, 6, 7, 4, 7, 5, 6, 0, 3, 6, 3, 7, 5, 7, 3, 5, 3, 2, 1, 0, 6, 1, 6, 4]
    normal3f[] normals = [(0.9874473, 0.15794866, 2.8386648e-8), (0.9169243, -0.39906126, -6.053912e-8), (0.9874473, 0.15794867, 2.737284e-8), (0.9874473, 0.15794866, 2.8386648e-8), (0.9874473, 0.15794867, 2.737284e-8), (0.9874473, 0.15794863, 2.4331412e-8), (0.9169243, -0.39906126, -6.053912e-8), (-0.99971557, 0.023852244, 0), (-0.99971557, 0.023852231, 0), (0.9169243, -0.39906126, -6.053912e-8), (-0.99971557, 0.023852231, 0), (0.9874473, 0.15794867, 2.737284e-8), (-0.99971557, 0.023852244, 0), (0.023147404, 0.9997321, 0), (-0.99971557, 0.023852244, 0), (-0.99971557, 0.023852244, 0), (-0.99971557, 0.023852244, 0), (-0.99971557, 0.023852231, 0), (0.023147404, 0.9997321, 0), (0.9874473, 0.15794866, 2.8386648e-8), (0.9874473, 0.15794863, 2.4331412e-8), (0.023147404, 0.9997321, 0), (0.9874473, 0.15794863, 2.4331412e-8), (-0.99971557, 0.023852244, 0), (-0.99971557, 0.023852231, 0), (-0.99971557, 0.023852244, 0), (0.9874473, 0.15794863, 2.4331412e-8), (-0.99971557, 0.023852231, 0), (0.9874473, 0.15794863, 2.4331412e-8), (0.9874473, 0.15794867, 2.737284e-8), (0.9169243, -0.39906126, -6.053912e-8), (0.9874473, 0.15794866, 2.8386648e-8), (0.023147404, 0.9997321, 0), (0.9169243, -0.39906126, -6.053912e-8), (0.023147404, 0.9997321, 0), (-0.99971557, 0.023852244, 0)] (
        interpolation = "faceVarying"
    )
    point3f[] points = [(0.015860027, -0.02120529, 0.23762634), (0.015860029, -0.021205215, -0.23762636), (0.0063192137, 0.038441073, -0.23762633), (0.006319212, 0.038441002, 0.23762636), (-0.011516029, -0.043323144, -0.23762636), (-0.009507588, 0.04085636, -0.23762633), (-0.011516031, -0.04332322, 0.23762634), (-0.009507589, 0.04085629, 0.23762636)]
}

