#usda 1.0
(
    defaultPrim = "UCX_Counter_Watertab_002"
    upAxis = "Z"
)

def Mesh "UCX_Counter_Watertab_002"
{
    int[] faceVertexCounts = [3, 3, 3, 3, 3, 3, 3, 3, 3, 3, 3, 3, 3, 3, 3, 3, 3, 3, 3, 3, 3, 3, 3, 3, 3, 3, 3, 3, 3, 3, 3, 3, 3, 3, 3, 3, 3, 3, 3, 3, 3, 3, 3, 3, 3, 3, 3, 3, 3, 3, 3, 3, 3, 3, 3, 3, 3, 3, 3, 3, 3, 3, 3, 3, 3, 3, 3, 3, 3, 3, 3, 3, 3, 3, 3, 3, 3, 3, 3, 3, 3, 3, 3, 3, 3, 3, 3, 3, 3, 3, 3, 3, 3, 3, 3, 3, 3, 3, 3, 3, 3, 3, 3, 3, 3, 3, 3, 3, 3, 3, 3, 3, 3, 3, 3, 3, 3, 3, 3, 3, 3, 3, 3, 3]
    int[] faceVertexIndices = [0, 1, 2, 0, 2, 3, 3, 2, 4, 3, 4, 5, 5, 4, 6, 5, 6, 7, 7, 6, 8, 7, 8, 9, 9, 8, 10, 9, 10, 11, 11, 10, 12, 11, 12, 13, 13, 12, 14, 13, 14, 15, 15, 14, 16, 15, 16, 17, 17, 16, 18, 17, 18, 19, 19, 18, 20, 19, 20, 21, 21, 20, 22, 21, 22, 23, 23, 22, 24, 23, 24, 25, 25, 24, 26, 25, 26, 27, 27, 26, 28, 27, 28, 29, 29, 28, 30, 29, 30, 31, 31, 30, 32, 31, 32, 33, 33, 32, 34, 33, 34, 35, 35, 34, 36, 35, 36, 37, 37, 36, 38, 37, 38, 39, 39, 38, 40, 39, 40, 41, 41, 40, 42, 41, 42, 43, 43, 42, 44, 43, 44, 45, 45, 44, 46, 45, 46, 47, 47, 46, 48, 47, 48, 49, 49, 48, 50, 49, 50, 51, 51, 50, 52, 51, 52, 53, 53, 52, 54, 53, 54, 55, 55, 54, 56, 55, 56, 57, 57, 56, 58, 57, 58, 59, 59, 58, 60, 59, 60, 61, 4, 2, 1, 1, 62, 60, 60, 58, 56, 56, 54, 52, 52, 50, 48, 48, 46, 44, 44, 42, 40, 40, 38, 36, 36, 34, 32, 32, 30, 28, 28, 26, 24, 24, 22, 20, 20, 18, 16, 16, 14, 12, 12, 10, 8, 8, 6, 4, 4, 1, 60, 60, 56, 52, 52, 48, 44, 44, 40, 36, 36, 32, 28, 28, 24, 20, 20, 16, 12, 12, 8, 4, 4, 60, 52, 52, 44, 36, 36, 28, 20, 20, 12, 4, 4, 52, 36, 36, 20, 4, 61, 60, 62, 61, 62, 63, 63, 62, 1, 63, 1, 0, 63, 0, 3, 3, 5, 7, 7, 9, 11, 11, 13, 15, 15, 17, 19, 19, 21, 23, 23, 25, 27, 27, 29, 31, 31, 33, 35, 35, 37, 39, 39, 41, 43, 43, 45, 47, 47, 49, 51, 51, 53, 55, 55, 57, 59, 59, 61, 63, 63, 3, 7, 7, 11, 15, 15, 19, 23, 23, 27, 31, 31, 35, 39, 39, 43, 47, 47, 51, 55, 55, 59, 63, 63, 7, 15, 15, 23, 31, 31, 39, 47, 47, 55, 63, 63, 15, 31, 31, 47, 63]
    normal3f[] normals = [(0.9994616, -0.032813076, 2.746668e-9), (0.9994616, 0.032813095, -3.1390508e-9), (0.9866586, -0.16280329, 1.3733339e-8), (0.9994616, -0.032813076, 2.746668e-9), (0.9866586, -0.16280329, 1.3733339e-8), (0.9738557, -0.22716747, 1.8834305e-8), (0.9738557, -0.22716747, 1.8834305e-8), (0.9866586, -0.16280329, 1.3733339e-8), (0, 0, 1), (0.9738557, -0.22716747, 1.8834305e-8), (0, 0, 1), (0.9108253, -0.41279218, 3.4921957e-8), (0.9108253, -0.41279218, 3.4921957e-8), (0, 0, 1), (0.8492519, -0.52798784, 4.453529e-8), (0.9108253, -0.41279218, 3.4921957e-8), (0.8492519, -0.52798784, 4.453529e-8), (0.8127925, -0.5825534, 5.0224816e-8), (0.8127925, -0.5825534, 5.0224816e-8), (0.8492519, -0.52798784, 4.453529e-8), (0.7299284, -0.6835237, 5.964197e-8), (0.8127925, -0.5825534, 5.0224816e-8), (0.7299284, -0.6835237, 5.964197e-8), (0.68352365, -0.72992843, 6.140768e-8), (0.68352365, -0.72992843, 6.140768e-8), (0.7299284, -0.6835237, 5.964197e-8), (0.58255345, -0.8127925, 6.847055e-8), (0.68352365, -0.72992843, 6.140768e-8), (0.58255345, -0.8127925, 6.847055e-8), (0.5279879, -0.8492519, 6.9059126e-8), (0.5279879, -0.8492519, 6.9059126e-8), (0.58255345, -0.8127925, 6.847055e-8), (0.41279244, -0.91082513, 7.5337205e-8), (0.5279879, -0.8492519, 6.9059126e-8), (0.41279244, -0.91082513, 7.5337205e-8), (0.35216257, -0.93593884, 7.886858e-8), (0.35216257, -0.93593884, 7.886858e-8), (0.41279244, -0.91082513, 7.5337205e-8), (0.22716789, -0.9738556, 8.2007645e-8), (0.35216257, -0.93593884, 7.886858e-8), (0.22716789, -0.9738556, 8.2007645e-8), (0, 1, 0), (0, 1, 0), (0.22716789, -0.9738556, 8.2007645e-8), (0.032812543, -0.9994616, 8.475442e-8), (0, 1, 0), (0.032812543, -0.9994616, 8.475442e-8), (-0.032812543, -0.9994616, 8.416585e-8), (-0.032812543, -0.9994616, 8.416585e-8), (0.032812543, -0.9994616, 8.475442e-8), (-0.16280282, -0.9866587, 8.2988656e-8), (-0.032812543, -0.9994616, 8.416585e-8), (-0.16280282, -0.9866587, 8.2988656e-8), (-0.22716789, -0.9738556, 8.161526e-8), (-0.22716789, -0.9738556, 8.161526e-8), (-0.16280282, -0.9866587, 8.2988656e-8), (0, 1, 0), (-0.22716789, -0.9738556, 8.161526e-8), (0, 1, 0), (-0.41279247, -0.91082513, 7.6710535e-8), (-0.41279247, -0.91082513, 7.6710535e-8), (0, 1, 0), (-0.52798814, -0.84925187, 7.141346e-8), (-0.41279247, -0.91082513, 7.6710535e-8), (-0.52798814, -0.84925187, 7.141346e-8), (-0.5825539, -0.81279206, 7.533729e-8), (-0.5825539, -0.81279206, 7.533729e-8), (-0.52798814, -0.84925187, 7.141346e-8), (-0.68352395, -0.7299281, 5.964199e-8), (-0.5825539, -0.81279206, 7.533729e-8), (-0.68352395, -0.7299281, 5.964199e-8), (-0.72992814, -0.68352395, 5.748385e-8), (-0.72992814, -0.68352395, 5.748385e-8), (-0.68352395, -0.7299281, 5.964199e-8), (-0.812792, -0.58255416, 4.9047646e-8), (-0.72992814, -0.68352395, 5.748385e-8), (-0.812792, -0.58255416, 4.9047646e-8), (-0.84925175, -0.5279883, 4.394671e-8), (-0.84925175, -0.5279883, 4.394671e-8), (-0.812792, -0.58255416, 4.9047646e-8), (-0.9108253, -0.41279218, 5.0224838e-8), (-0.84925175, -0.5279883, 4.394671e-8), (-0.9108253, -0.41279218, 5.0224838e-8), (-0.93593913, -0.352162, 2.962481e-8), (-0.93593913, -0.352162, 2.962481e-8), (-0.9108253, -0.41279218, 5.0224838e-8), (-0.9738557, -0.22716747, 1.9226686e-8), (-0.93593913, -0.352162, 2.962481e-8), (-0.9738557, -0.22716747, 1.9226686e-8), (0, 0, -1), (0, 0, -1), (-0.9738557, -0.22716747, 1.9226686e-8), (-0.9994616, -0.032813076, 3.1390492e-9), (0, 0, -1), (-0.9994616, -0.032813076, 3.1390492e-9), (-0.9994616, 0.032813095, -2.7466693e-9), (-0.9994616, 0.032813095, -2.7466693e-9), (-0.9994616, -0.032813076, 3.1390492e-9), (-0.9866586, 0.16280347, -1.3537163e-8), (-0.9994616, 0.032813095, -2.7466693e-9), (-0.9866586, 0.16280347, -1.3537163e-8), (-0.9738557, 0.22716759, -2.1973365e-8), (-0.9738557, 0.22716759, -2.1973365e-8), (-0.9866586, 0.16280347, -1.3537163e-8), (0, 0, 1), (-0.9738557, 0.22716759, -2.1973365e-8), (0, 0, 1), (-0.9108254, 0.41279197, -3.4725748e-8), (-0.9108254, 0.41279197, -3.4725748e-8), (0, 0, 1), (-0.8492518, 0.5279882, -4.4339078e-8), (-0.9108254, 0.41279197, -3.4725748e-8), (-0.8492518, 0.5279882, -4.4339078e-8), (-0.8127919, 0.58255434, -5.0224802e-8), (-0.8127919, 0.58255434, -5.0224802e-8), (-0.8492518, 0.5279882, -4.4339078e-8), (-0.72992784, 0.6835243, -5.964198e-8), (-0.8127919, 0.58255434, -5.0224802e-8), (-0.72992784, 0.6835243, -5.964198e-8), (-0.6835238, 0.72992826, -6.160391e-8), (-0.6835238, 0.72992826, -6.160391e-8), (-0.72992784, 0.6835243, -5.964198e-8), (-0.5825539, 0.81279206, -6.847061e-8), (-0.6835238, 0.72992826, -6.160391e-8), (-0.5825539, 0.81279206, -6.847061e-8), (-0.52798814, 0.84925175, -7.219822e-8), (-0.52798814, 0.84925175, -7.219822e-8), (-0.5825539, 0.81279206, -6.847061e-8), (-0.41279244, 0.91082513, -7.5337205e-8), (-0.52798814, 0.84925175, -7.219822e-8), (-0.41279244, 0.91082513, -7.5337205e-8), (-0.35216257, 0.93593884, -7.8672386e-8), (-0.35216257, 0.93593884, -7.8672386e-8), (-0.41279244, 0.91082513, -7.5337205e-8), (-0.22716789, 0.9738556, -8.2007645e-8), (-0.35216257, 0.93593884, -7.8672386e-8), (-0.22716789, 0.9738556, -8.2007645e-8), (0, 1, 0), (0, 1, 0), (-0.22716789, 0.9738556, -8.2007645e-8), (-0.032812543, 0.9994616, -8.475442e-8), (0, 1, 0), (-0.032812543, 0.9994616, -8.475442e-8), (0.032812543, 0.9994616, -8.416585e-8), (0.032812543, 0.9994616, -8.416585e-8), (-0.032812543, 0.9994616, -8.475442e-8), (0.16280282, 0.9866587, -8.3184844e-8), (0.032812543, 0.9994616, -8.416585e-8), (0.16280282, 0.9866587, -8.3184844e-8), (0.22716789, 0.9738556, -8.161526e-8), (0.22716789, 0.9738556, -8.161526e-8), (0.16280282, 0.9866587, -8.3184844e-8), (0, 1, 0), (0.22716789, 0.9738556, -8.161526e-8), (0, 1, 0), (0.41279247, 0.91082513, -7.651435e-8), (0.41279247, 0.91082513, -7.651435e-8), (0, 1, 0), (0.52798784, 0.8492519, -7.141342e-8), (0.41279247, 0.91082513, -7.651435e-8), (0.52798784, 0.8492519, -7.141342e-8), (0.5825534, 0.8127925, -7.5337226e-8), (0.5825534, 0.8127925, -7.5337226e-8), (0.52798784, 0.8492519, -7.141342e-8), (0.68352354, 0.7299285, -5.9641984e-8), (0.5825534, 0.8127925, -7.5337226e-8), (0.68352354, 0.7299285, -5.9641984e-8), (0.72992814, 0.68352395, -5.7483902e-8), (0.72992814, 0.68352395, -5.7483902e-8), (0.68352354, 0.7299285, -5.9641984e-8), (0.81279236, 0.58255357, -4.904768e-8), (0.72992814, 0.68352395, -5.7483902e-8), (0.81279236, 0.58255357, -4.904768e-8), (0.84925205, 0.5279878, -4.394671e-8), (0.84925205, 0.5279878, -4.394671e-8), (0.81279236, 0.58255357, -4.904768e-8), (0.9108254, 0.41279197, -2.5112406e-8), (0.84925205, 0.5279878, -4.394671e-8), (0.9108254, 0.41279197, -2.5112406e-8), (0.93593913, 0.3521619, -2.9624802e-8), (0, 0, 1), (0.9866586, -0.16280329, 1.3733339e-8), (0.9994616, 0.032813095, -3.1390508e-9), (0.9994616, 0.032813095, -3.1390508e-9), (0.9738557, 0.2271676, -1.9226697e-8), (0.9108254, 0.41279197, -2.5112406e-8), (0.9108254, 0.41279197, -2.5112406e-8), (0.81279236, 0.58255357, -4.904768e-8), (0.68352354, 0.7299285, -5.9641984e-8), (0.68352354, 0.7299285, -5.9641984e-8), (0.52798784, 0.8492519, -7.141342e-8), (0, 1, 0), (0, 1, 0), (0.16280282, 0.9866587, -8.3184844e-8), (-0.032812543, 0.9994616, -8.475442e-8), (-0.032812543, 0.9994616, -8.475442e-8), (-0.22716789, 0.9738556, -8.2007645e-8), (-0.41279244, 0.91082513, -7.5337205e-8), (-0.41279244, 0.91082513, -7.5337205e-8), (-0.5825539, 0.81279206, -6.847061e-8), (-0.72992784, 0.6835243, -5.964198e-8), (-0.72992784, 0.6835243, -5.964198e-8), (-0.8492518, 0.5279882, -4.4339078e-8), (0, 0, 1), (0, 0, 1), (-0.9866586, 0.16280347, -1.3537163e-8), (-0.9994616, -0.032813076, 3.1390492e-9), (-0.9994616, -0.032813076, 3.1390492e-9), (-0.9738557, -0.22716747, 1.9226686e-8), (-0.9108253, -0.41279218, 5.0224838e-8), (-0.9108253, -0.41279218, 5.0224838e-8), (-0.812792, -0.58255416, 4.9047646e-8), (-0.68352395, -0.7299281, 5.964199e-8), (-0.68352395, -0.7299281, 5.964199e-8), (-0.52798814, -0.84925187, 7.141346e-8), (0, 1, 0), (0, 1, 0), (-0.16280282, -0.9866587, 8.2988656e-8), (0.032812543, -0.9994616, 8.475442e-8), (0.032812543, -0.9994616, 8.475442e-8), (0.22716789, -0.9738556, 8.2007645e-8), (0.41279244, -0.91082513, 7.5337205e-8), (0.41279244, -0.91082513, 7.5337205e-8), (0.58255345, -0.8127925, 6.847055e-8), (0.7299284, -0.6835237, 5.964197e-8), (0.7299284, -0.6835237, 5.964197e-8), (0.8492519, -0.52798784, 4.453529e-8), (0, 0, 1), (0, 0, 1), (0.9994616, 0.032813095, -3.1390508e-9), (0.9108254, 0.41279197, -2.5112406e-8), (0.9108254, 0.41279197, -2.5112406e-8), (0.68352354, 0.7299285, -5.9641984e-8), (0, 1, 0), (0, 1, 0), (-0.032812543, 0.9994616, -8.475442e-8), (-0.41279244, 0.91082513, -7.5337205e-8), (-0.41279244, 0.91082513, -7.5337205e-8), (-0.72992784, 0.6835243, -5.964198e-8), (0, 0, 1), (0, 0, 1), (-0.9994616, -0.032813076, 3.1390492e-9), (-0.9108253, -0.41279218, 5.0224838e-8), (-0.9108253, -0.41279218, 5.0224838e-8), (-0.68352395, -0.7299281, 5.964199e-8), (0, 1, 0), (0, 1, 0), (0.032812543, -0.9994616, 8.475442e-8), (0.41279244, -0.91082513, 7.5337205e-8), (0.41279244, -0.91082513, 7.5337205e-8), (0.7299284, -0.6835237, 5.964197e-8), (0, 0, 1), (0, 0, 1), (0.9108254, 0.41279197, -2.5112406e-8), (0, 1, 0), (0, 1, 0), (-0.41279244, 0.91082513, -7.5337205e-8), (0, 0, 1), (0, 0, 1), (-0.9108253, -0.41279218, 5.0224838e-8), (0, 1, 0), (0, 1, 0), (0.41279244, -0.91082513, 7.5337205e-8), (0, 0, 1), (0, 0, 1), (0, 1, 0), (0, 0, 1), (0, 0, 1), (0, 1, 0), (0, 0, 1), (0.93593913, 0.3521619, -2.9624802e-8), (0.9108254, 0.41279197, -2.5112406e-8), (0.9738557, 0.2271676, -1.9226697e-8), (0.93593913, 0.3521619, -2.9624802e-8), (0.9738557, 0.2271676, -1.9226697e-8), (0, 0, -1), (0, 0, -1), (0.9738557, 0.2271676, -1.9226697e-8), (0.9994616, 0.032813095, -3.1390508e-9), (0, 0, -1), (0.9994616, 0.032813095, -3.1390508e-9), (0.9994616, -0.032813076, 2.746668e-9), (0, 0, -1), (0.9994616, -0.032813076, 2.746668e-9), (0.9738557, -0.22716747, 1.8834305e-8), (0.9738557, -0.22716747, 1.8834305e-8), (0.9108253, -0.41279218, 3.4921957e-8), (0.8127925, -0.5825534, 5.0224816e-8), (0.8127925, -0.5825534, 5.0224816e-8), (0.68352365, -0.72992843, 6.140768e-8), (0.5279879, -0.8492519, 6.9059126e-8), (0.5279879, -0.8492519, 6.9059126e-8), (0.35216257, -0.93593884, 7.886858e-8), (0, 1, 0), (0, 1, 0), (-0.032812543, -0.9994616, 8.416585e-8), (-0.22716789, -0.9738556, 8.161526e-8), (-0.22716789, -0.9738556, 8.161526e-8), (-0.41279247, -0.91082513, 7.6710535e-8), (-0.5825539, -0.81279206, 7.533729e-8), (-0.5825539, -0.81279206, 7.533729e-8), (-0.72992814, -0.68352395, 5.748385e-8), (-0.84925175, -0.5279883, 4.394671e-8), (-0.84925175, -0.5279883, 4.394671e-8), (-0.93593913, -0.352162, 2.962481e-8), (0, 0, -1), (0, 0, -1), (-0.9994616, 0.032813095, -2.7466693e-9), (-0.9738557, 0.22716759, -2.1973365e-8), (-0.9738557, 0.22716759, -2.1973365e-8), (-0.9108254, 0.41279197, -3.4725748e-8), (-0.8127919, 0.58255434, -5.0224802e-8), (-0.8127919, 0.58255434, -5.0224802e-8), (-0.6835238, 0.72992826, -6.160391e-8), (-0.52798814, 0.84925175, -7.219822e-8), (-0.52798814, 0.84925175, -7.219822e-8), (-0.35216257, 0.93593884, -7.8672386e-8), (0, 1, 0), (0, 1, 0), (0.032812543, 0.9994616, -8.416585e-8), (0.22716789, 0.9738556, -8.161526e-8), (0.22716789, 0.9738556, -8.161526e-8), (0.41279247, 0.91082513, -7.651435e-8), (0.5825534, 0.8127925, -7.5337226e-8), (0.5825534, 0.8127925, -7.5337226e-8), (0.72992814, 0.68352395, -5.7483902e-8), (0.84925205, 0.5279878, -4.394671e-8), (0.84925205, 0.5279878, -4.394671e-8), (0.93593913, 0.3521619, -2.9624802e-8), (0, 0, -1), (0, 0, -1), (0.9738557, -0.22716747, 1.8834305e-8), (0.8127925, -0.5825534, 5.0224816e-8), (0.8127925, -0.5825534, 5.0224816e-8), (0.5279879, -0.8492519, 6.9059126e-8), (0, 1, 0), (0, 1, 0), (-0.22716789, -0.9738556, 8.161526e-8), (-0.5825539, -0.81279206, 7.533729e-8), (-0.5825539, -0.81279206, 7.533729e-8), (-0.84925175, -0.5279883, 4.394671e-8), (0, 0, -1), (0, 0, -1), (-0.9738557, 0.22716759, -2.1973365e-8), (-0.8127919, 0.58255434, -5.0224802e-8), (-0.8127919, 0.58255434, -5.0224802e-8), (-0.52798814, 0.84925175, -7.219822e-8), (0, 1, 0), (0, 1, 0), (0.22716789, 0.9738556, -8.161526e-8), (0.5825534, 0.8127925, -7.5337226e-8), (0.5825534, 0.8127925, -7.5337226e-8), (0.84925205, 0.5279878, -4.394671e-8), (0, 0, -1), (0, 0, -1), (0.8127925, -0.5825534, 5.0224816e-8), (0, 1, 0), (0, 1, 0), (-0.5825539, -0.81279206, 7.533729e-8), (0, 0, -1), (0, 0, -1), (-0.8127919, 0.58255434, -5.0224802e-8), (0, 1, 0), (0, 1, 0), (0.5825534, 0.8127925, -7.5337226e-8), (0, 0, -1), (0, 0, -1), (0, 1, 0), (0, 0, -1), (0, 0, -1), (0, 1, 0), (0, 0, -1)] (
        interpolation = "faceVarying"
    )
    point3f[] points = [(0.022360003, -3.055124e-10, -0.044255685), (0.022360003, 7.145068e-9, 0.044255685), (0.021930357, -0.0043622185, 0.044255685), (0.021930357, -0.004362226, -0.044255685), (0.020657947, -0.008556798, 0.044255685), (0.020657947, -0.008556806, -0.044255685), (0.018591663, -0.012422547, 0.044255685), (0.018591663, -0.012422554, -0.044255685), (0.015810912, -0.015810907, 0.044255685), (0.015810912, -0.015810914, -0.044255685), (0.012422553, -0.018591657, 0.044255685), (0.012422553, -0.018591665, -0.044255685), (0.008556805, -0.020657942, 0.044255685), (0.008556805, -0.02065795, -0.044255685), (0.0043622167, -0.02193036, 0.044255685), (0.0043622167, -0.021930367, -0.044255685), (-1.2859231e-9, -0.022359997, 0.044255685), (-1.2859231e-9, -0.022360004, -0.044255685), (-0.0043622195, -0.02193036, 0.044255685), (-0.0043622195, -0.021930367, -0.044255685), (-0.0085568065, -0.020657942, 0.044255685), (-0.0085568065, -0.02065795, -0.044255685), (-0.012422555, -0.018591657, 0.044255685), (-0.012422555, -0.018591665, -0.044255685), (-0.015810909, -0.015810907, 0.044255685), (-0.015810909, -0.015810914, -0.044255685), (-0.018591667, -0.012422547, 0.044255685), (-0.018591667, -0.012422554, -0.044255685), (-0.020657951, -0.008556798, 0.044255685), (-0.020657951, -0.008556806, -0.044255685), (-0.021930361, -0.0043622185, 0.044255685), (-0.021930361, -0.004362226, -0.044255685), (-0.022360006, 7.145068e-9, 0.044255685), (-0.022360006, -3.055124e-10, -0.044255685), (-0.021930361, 0.004362225, 0.044255685), (-0.021930361, 0.0043622176, -0.044255685), (-0.020657951, 0.008556806, 0.044255685), (-0.020657951, 0.008556798, -0.044255685), (-0.018591667, 0.012422558, 0.044255685), (-0.018591667, 0.0124225505, -0.044255685), (-0.015810909, 0.015810914, 0.044255685), (-0.015810909, 0.015810907, -0.044255685), (-0.012422555, 0.018591665, 0.044255685), (-0.012422555, 0.018591657, -0.044255685), (-0.0085568065, 0.02065795, 0.044255685), (-0.0085568065, 0.020657942, -0.044255685), (-0.0043622195, 0.021930367, 0.044255685), (-0.0043622195, 0.02193036, -0.044255685), (-1.2859231e-9, 0.022360004, 0.044255685), (-1.2859231e-9, 0.022359997, -0.044255685), (0.0043622167, 0.021930367, 0.044255685), (0.0043622167, 0.02193036, -0.044255685), (0.008556805, 0.02065795, 0.044255685), (0.008556805, 0.020657942, -0.044255685), (0.012422553, 0.018591665, 0.044255685), (0.012422553, 0.018591657, -0.044255685), (0.015810912, 0.015810914, 0.044255685), (0.015810912, 0.015810907, -0.044255685), (0.018591663, 0.012422558, 0.044255685), (0.018591663, 0.0124225505, -0.044255685), (0.020657947, 0.008556806, 0.044255685), (0.020657947, 0.008556798, -0.044255685), (0.021930357, 0.004362225, 0.044255685), (0.021930357, 0.0043622176, -0.044255685)]
}

