#usda 1.0
(
    defaultPrim = "UCX_Kitchen_05_Base_Drawer_03_004"
    upAxis = "Z"
)

def Mesh "UCX_Kitchen_05_Base_Drawer_03_004"
{
    int[] faceVertexCounts = [3, 3, 3, 3, 3, 3, 3, 3, 3, 3, 3, 3]
    int[] faceVertexIndices = [0, 1, 2, 0, 2, 3, 3, 2, 4, 3, 4, 5, 5, 4, 6, 5, 6, 7, 7, 6, 1, 7, 1, 0, 4, 2, 1, 4, 1, 6, 3, 5, 7, 3, 7, 0]
    normal3f[] normals = [(-0.9874473, 0.15794866, 0), (-0.9874473, 0.15794867, 0), (-0.9874473, 0.15794866, 0), (-0.9874473, 0.15794866, 0), (-0.9874473, 0.15794866, 0), (-0.9169243, -0.3990612, -0), (-0.9169243, -0.3990612, -0), (-0.9874473, 0.15794866, 0), (0.99971557, 0.023852216, 0), (-0.9169243, -0.3990612, -0), (0.99971557, 0.023852216, 0), (0.99971557, 0.023852227, 0), (0.99971557, 0.023852227, 0), (0.99971557, 0.023852216, 0), (0.99971557, 0.023852227, 0), (0.99971557, 0.023852227, 0), (0.99971557, 0.023852227, 0), (-0.023147387, 0.9997321, 0), (-0.023147387, 0.9997321, 0), (0.99971557, 0.023852227, 0), (-0.9874473, 0.15794867, 0), (-0.023147387, 0.9997321, 0), (-0.9874473, 0.15794867, 0), (-0.9874473, 0.15794866, 0), (0.99971557, 0.023852216, 0), (-0.9874473, 0.15794866, 0), (-0.9874473, 0.15794867, 0), (0.99971557, 0.023852216, 0), (-0.9874473, 0.15794867, 0), (0.99971557, 0.023852227, 0), (-0.9169243, -0.3990612, -0), (0.99971557, 0.023852227, 0), (-0.023147387, 0.9997321, 0), (-0.9169243, -0.3990612, -0), (-0.023147387, 0.9997321, 0), (-0.9874473, 0.15794866, 0)] (
        interpolation = "faceVarying"
    )
    point3f[] points = [(-0.015860023, -0.02120526, 0.23762634), (-0.0063192085, 0.038441036, 0.23762634), (-0.0063192085, 0.038441036, -0.23762634), (-0.015860023, -0.02120526, -0.23762634), (0.009507593, 0.040856317, -0.23762634), (0.011516033, -0.043323185, -0.23762634), (0.009507593, 0.040856317, 0.23762634), (0.011516033, -0.043323185, 0.23762634)]
}

