#usda 1.0
(
    defaultPrim = "UCX_Fridge_Egg_Tray_011"
    upAxis = "Z"
)

def Mesh "UCX_Fridge_Egg_Tray_011"
{
    int[] faceVertexCounts = [3, 3, 3, 3, 3, 3, 3, 3, 3, 3, 3, 3]
    int[] faceVertexIndices = [0, 1, 2, 0, 2, 3, 3, 2, 4, 3, 4, 5, 5, 4, 6, 5, 6, 7, 7, 0, 3, 7, 3, 5, 6, 1, 0, 6, 0, 7, 6, 4, 2, 6, 2, 1]
    normal3f[] normals = [(-1, 7.790557e-8, -0), (-1, 7.790557e-8, -0), (-1, 7.790557e-8, -0), (-1, 7.790557e-8, -0), (-1, 7.790557e-8, -0), (-1, 4.855463e-8, -0), (-1, 4.855463e-8, -0), (-1, 7.790557e-8, -0), (1, -1.5128292e-7, 0), (-1, 4.855463e-8, -0), (1, -1.5128292e-7, 0), (1, -1.8063386e-7, 0), (1, -1.8063386e-7, 0), (1, -1.5128292e-7, 0), (1, -1.3660745e-7, 0), (1, -1.8063386e-7, 0), (1, -1.3660745e-7, 0), (1, -1.5128292e-7, 0), (1, -1.5128292e-7, 0), (-1, 7.790557e-8, -0), (-1, 4.855463e-8, -0), (1, -1.5128292e-7, 0), (-1, 4.855463e-8, -0), (1, -1.8063386e-7, 0), (1, -1.3660745e-7, 0), (-1, 7.790557e-8, -0), (-1, 7.790557e-8, -0), (1, -1.3660745e-7, 0), (-1, 7.790557e-8, -0), (1, -1.5128292e-7, 0), (1, -1.3660745e-7, 0), (1, -1.5128292e-7, 0), (-1, 7.790557e-8, -0), (1, -1.3660745e-7, 0), (-1, 7.790557e-8, -0), (-1, 7.790557e-8, -0)] (
        interpolation = "faceVarying"
    )
    point3f[] points = [(-0.00090000185, 0.0036741477, 0.017643321), (-0.00090000185, 0.0036741477, -0.017643318), (-0.0009000026, -0.0036741435, -0.017643318), (-0.0009000026, -0.0036741435, 0.017643321), (0.0009000015, -0.0036741472, -0.017643318), (0.0009000015, -0.0036741472, 0.017643318), (0.0009000028, 0.003674144, -0.017643318), (0.0009000028, 0.003674144, 0.017643318)]
}

