#usda 1.0
(
    defaultPrim = "UCX_Dishwasher_Tray_01_016"
    upAxis = "Z"
)

def Mesh "UCX_Dishwasher_Tray_01_016"
{
    int[] faceVertexCounts = [3, 3, 3, 3, 3, 3, 3, 3, 3, 3, 3, 3]
    int[] faceVertexIndices = [0, 1, 2, 0, 2, 3, 3, 2, 4, 3, 4, 5, 1, 6, 4, 1, 4, 2, 6, 7, 5, 6, 5, 4, 7, 0, 3, 7, 3, 5, 0, 7, 6, 0, 6, 1]
    normal3f[] normals = [(1, -3.2687606e-7, -2.3429298e-7), (1, -1.3877788e-17, 0), (1, -3.2687606e-7, -2.3429298e-7), (1, -3.2687606e-7, -2.3429298e-7), (1, -3.2687606e-7, -2.3429298e-7), (4.0717906e-17, 0.81429017, 0.58045816), (4.0717906e-17, 0.81429017, 0.58045816), (1, -3.2687606e-7, -2.3429298e-7), (1.0443537e-17, 0.88333887, -0.46873492), (4.0717906e-17, 0.81429017, 0.58045816), (1.0443537e-17, 0.88333887, -0.46873492), (-1, 7.0997504e-7, 2.3919362e-8), (1, -1.3877788e-17, 0), (-1, 7.176131e-7, 1.692533e-8), (1.0443537e-17, 0.88333887, -0.46873492), (1, -1.3877788e-17, 0), (1.0443537e-17, 0.88333887, -0.46873492), (1, -3.2687606e-7, -2.3429298e-7), (-1, 7.176131e-7, 1.692533e-8), (-1, 7.099842e-7, 3.124995e-8), (-1, 7.0997504e-7, 2.3919362e-8), (-1, 7.176131e-7, 1.692533e-8), (-1, 7.0997504e-7, 2.3919362e-8), (1.0443537e-17, 0.88333887, -0.46873492), (-1, 7.099842e-7, 3.124995e-8), (1, -3.2687606e-7, -2.3429298e-7), (4.0717906e-17, 0.81429017, 0.58045816), (-1, 7.099842e-7, 3.124995e-8), (4.0717906e-17, 0.81429017, 0.58045816), (-1, 7.0997504e-7, 2.3919362e-8), (1, -3.2687606e-7, -2.3429298e-7), (-1, 7.099842e-7, 3.124995e-8), (-1, 7.176131e-7, 1.692533e-8), (1, -3.2687606e-7, -2.3429298e-7), (-1, 7.176131e-7, 1.692533e-8), (1, -1.3877788e-17, 0)] (
        interpolation = "faceVarying"
    )
    point3f[] points = [(0.0021554923, -0.004457061, 0.013491032), (0.0021554923, -0.0036123896, -0.0145915365), (0.0021554923, 0.0064930595, -0.0018702436), (0.0021554998, 0.006146148, 0.0037985907), (-0.0021554881, 0.0064930595, -0.0018702436), (-0.0021554881, 0.006146148, 0.0037985907), (-0.0021554956, -0.0036123896, -0.0145915365), (-0.0021554956, -0.004457061, 0.013491032)]
}

