#usda 1.0
(
    defaultPrim = "UCX_Counter_Sink_Stove_002"
    upAxis = "Z"
)

def Mesh "UCX_Counter_Sink_Stove_002"
{
    int[] faceVertexCounts = [3, 3, 3, 3, 3, 3, 3, 3, 3, 3, 3, 3]
    int[] faceVertexIndices = [0, 1, 2, 0, 2, 3, 3, 2, 4, 3, 4, 5, 0, 3, 5, 0, 5, 6, 2, 1, 7, 2, 7, 4, 5, 4, 7, 5, 7, 6, 7, 1, 0, 7, 0, 6]
    normal3f[] normals = [(-1, 0, 0), (1, 0, 0), (1, 0, 0), (-1, 0, 0), (1, 0, 0), (-1, 0, 0), (-1, 0, 0), (1, 0, 0), (1, 0, 0), (-1, 0, 0), (1, 0, 0), (-1, 0, 0), (-1, 0, 0), (-1, 0, 0), (-1, 0, 0), (-1, 0, 0), (-1, 0, 0), (-1, 0, 0), (1, 0, 0), (1, 0, 0), (1, 0, 0), (1, 0, 0), (1, 0, 0), (1, 0, 0), (-1, 0, 0), (1, 0, 0), (1, 0, 0), (-1, 0, 0), (1, 0, 0), (-1, 0, 0), (1, 0, 0), (1, 0, 0), (-1, 0, 0), (1, 0, 0), (-1, 0, 0), (-1, 0, 0)] (
        interpolation = "faceVarying"
    )
    point3f[] points = [(-0.0150001645, -0.50049996, -1.0142465), (0.0150001645, -0.50049996, -1.0142465), (0.0150001645, -0.50049996, 1.0142465), (-0.0150001645, -0.50049996, 1.0142465), (0.0150001645, 0.50049996, 1.0142465), (-0.0150001645, 0.50049996, 1.0142465), (-0.0150001645, 0.50049996, -1.0142465), (0.0150001645, 0.50049996, -1.0142465)]
}

