#usda 1.0
(
    defaultPrim = "UCX_Dishwasher_Tray_02_055"
    upAxis = "Z"
)

def Mesh "UCX_Dishwasher_Tray_02_055"
{
    int[] faceVertexCounts = [3, 3, 3, 3, 3, 3, 3, 3, 3, 3, 3, 3]
    int[] faceVertexIndices = [0, 1, 2, 0, 2, 3, 3, 2, 4, 3, 4, 5, 5, 4, 6, 5, 6, 7, 7, 6, 1, 7, 1, 0, 3, 5, 7, 3, 7, 0, 4, 2, 1, 4, 1, 6]
    normal3f[] normals = [(-1, 0, 0), (-1, 0, 0), (1, 0, 0), (-1, 0, 0), (1, 0, 0), (1, 0, 0), (1, 0, 0), (1, 0, 0), (1, 0, 0), (1, 0, 0), (1, 0, 0), (1, 0, 0), (1, 0, 0), (1, 0, 0), (-1, 0, 0), (1, 0, 0), (-1, 0, 0), (-1, 0, 0), (-1, 0, 0), (-1, 0, 0), (-1, 0, 0), (-1, 0, 0), (-1, 0, 0), (-1, 0, 0), (1, 0, 0), (1, 0, 0), (-1, 0, 0), (1, 0, 0), (-1, 0, 0), (-1, 0, 0), (1, 0, 0), (1, 0, 0), (-1, 0, 0), (1, 0, 0), (-1, 0, 0), (-1, 0, 0)] (
        interpolation = "faceVarying"
    )
    point3f[] points = [(-0.004147608, 0.008547508, 0.07835794), (-0.004147608, -0.008222556, 0.08303657), (0.0041476004, -0.008222556, 0.08303657), (0.0041476004, 0.008547508, 0.07835794), (0.0041476004, -0.008470436, -0.080695845), (0.0041476004, 0.008306673, -0.080721244), (-0.004147608, -0.008470436, -0.080695845), (-0.004147608, 0.008306673, -0.080721244)]
}

