#usda 1.0
(
    defaultPrim = "UCX_Dishwasher_Tray_01_017"
    upAxis = "Z"
)

def Mesh "UCX_Dishwasher_Tray_01_017"
{
    int[] faceVertexCounts = [3, 3, 3, 3, 3, 3, 3, 3, 3, 3, 3, 3, 3, 3, 3, 3, 3, 3, 3, 3]
    int[] faceVertexIndices = [0, 1, 2, 0, 2, 3, 3, 2, 4, 3, 4, 5, 5, 4, 6, 5, 6, 7, 7, 6, 1, 7, 1, 0, 8, 9, 10, 8, 10, 11, 4, 2, 1, 4, 1, 6, 10, 7, 0, 10, 0, 11, 8, 3, 5, 8, 5, 9, 11, 0, 3, 11, 3, 8, 9, 5, 7, 9, 7, 10]
    normal3f[] normals = [(-1, -0, 0), (-1, -0, 0), (1, 0, 0), (-1, -0, 0), (1, 0, 0), (1, 0, 0), (1, 0, 0), (1, 0, 0), (1, 0, 0), (1, 0, 0), (1, 0, 0), (1, 0, 0), (1, 0, 0), (1, 0, 0), (0, -0.46305424, 0.88632995), (1, 0, 0), (0, -0.46305424, 0.88632995), (-1, -0, 0), (-1, -0, 0), (0, -0.46305424, 0.88632995), (-1, -0, 0), (-1, -0, 0), (-1, -0, 0), (-1, -0, 0), (1, 0, 0), (1, 0, 0), (-1, -0, 0), (1, 0, 0), (-1, -0, 0), (-1, -0, 0), (1, 0, 0), (1, 0, 0), (-1, -0, 0), (1, 0, 0), (-1, -0, 0), (0, -0.46305424, 0.88632995), (-1, -0, 0), (-1, -0, 0), (-1, -0, 0), (-1, -0, 0), (-1, -0, 0), (-1, -0, 0), (1, 0, 0), (1, 0, 0), (1, 0, 0), (1, 0, 0), (1, 0, 0), (1, 0, 0), (-1, -0, 0), (-1, -0, 0), (1, 0, 0), (-1, -0, 0), (1, 0, 0), (1, 0, 0), (1, 0, 0), (1, 0, 0), (-1, -0, 0), (1, 0, 0), (-1, -0, 0), (-1, -0, 0)] (
        interpolation = "faceVarying"
    )
    point3f[] points = [(-0.0021554935, 0.012478323, 0.013511267), (-0.0021554935, -0.0012759552, 0.03913114), (0.0021554944, -0.0012759552, 0.03913114), (0.0021554944, 0.012478323, 0.013511267), (0.0021554944, -0.0134990895, 0.03318773), (0.0021554944, -0.012894417, -0.010892508), (-0.0021554935, -0.0134990895, 0.03318773), (-0.0021554935, -0.012894417, -0.010892508), (0.0021554944, 0.02612397, -0.0126078045), (0.0021554944, -0.021675628, -0.03758023), (-0.0021554935, -0.021675628, -0.03758023), (-0.0021554935, 0.02612397, -0.0126078045)]
}

