#usda 1.0
(
    defaultPrim = "UCX_Kitchen_08_Sink_Drawer_01_001"
    upAxis = "Z"
)

def Mesh "UCX_Kitchen_08_Sink_Drawer_01_001"
{
    int[] faceVertexCounts = [3, 3, 3, 3, 3, 3, 3, 3, 3, 3, 3, 3]
    int[] faceVertexIndices = [0, 1, 2, 0, 2, 3, 4, 0, 3, 4, 3, 5, 3, 2, 6, 3, 6, 5, 7, 4, 5, 7, 5, 6, 6, 2, 1, 6, 1, 7, 7, 1, 0, 7, 0, 4]
    normal3f[] normals = [(1, 0, 0), (1, 0, 0), (-1, 0, 0), (1, 0, 0), (-1, 0, 0), (-1, 0, 0), (1, 0, 0), (1, 0, 0), (-1, 0, 0), (1, 0, 0), (-1, 0, 0), (-1, 0, 0), (-1, 0, 0), (-1, 0, 0), (-1, 0, 0), (-1, 0, 0), (-1, 0, 0), (-1, 0, 0), (1, 0, 0), (1, 0, 0), (-1, 0, 0), (1, 0, 0), (-1, 0, 0), (-1, 0, 0), (-1, 0, 0), (-1, 0, 0), (1, 0, 0), (-1, 0, 0), (1, 0, 0), (1, 0, 0), (1, 0, 0), (1, 0, 0), (1, 0, 0), (1, 0, 0), (1, 0, 0), (1, 0, 0)] (
        interpolation = "faceVarying"
    )
    point3f[] points = [(0.013395944, -0.14420606, 0.1704815), (0.013395944, 0.14420606, 0.1704815), (-0.013395942, 0.14420606, 0.1704815), (-0.013395942, -0.14420606, 0.1704815), (0.013395944, -0.14420606, -0.1704815), (-0.013395942, -0.14420606, -0.1704815), (-0.013395942, 0.14420606, -0.1704815), (0.013395944, 0.14420606, -0.1704815)]
}

