#usda 1.0
(
    defaultPrim = "UCX_Dishwasher_Tray_02_005"
    upAxis = "Z"
)

def Mesh "UCX_Dishwasher_Tray_02_005"
{
    int[] faceVertexCounts = [3, 3, 3, 3, 3, 3, 3, 3, 3, 3, 3, 3, 3, 3, 3, 3, 3, 3, 3, 3, 3, 3, 3, 3, 3, 3, 3, 3]
    int[] faceVertexIndices = [0, 1, 2, 0, 2, 3, 3, 2, 4, 3, 4, 5, 5, 4, 6, 5, 6, 7, 7, 6, 8, 7, 8, 9, 9, 8, 10, 9, 10, 11, 11, 10, 12, 11, 12, 13, 4, 2, 1, 1, 14, 12, 12, 10, 8, 8, 6, 4, 4, 1, 12, 12, 8, 4, 13, 12, 14, 13, 14, 15, 15, 14, 1, 15, 1, 0, 15, 0, 3, 3, 5, 7, 7, 9, 11, 11, 13, 15, 15, 3, 7, 7, 11, 15]
    normal3f[] normals = [(0.13677312, 0.99060243, 1.582739e-8), (-0.13677335, 0.99060243, 3.0361786e-8), (0.60374814, 0.7971752, 3.4987313e-8), (0.13677312, 0.99060243, 1.582739e-8), (0.60374814, 0.7971752, 3.4987313e-8), (0.7971765, 0.60374653, 1.6263431e-8), (0.7971765, 0.60374653, 1.6263431e-8), (0.60374814, 0.7971752, 3.4987313e-8), (0.9906026, 0.1367721, 1.3283091e-10), (0.7971765, 0.60374653, 1.6263431e-8), (0.9906026, 0.1367721, 1.3283091e-10), (0.9906026, -0.1367721, -1.3283091e-10), (0.9906026, -0.1367721, -1.3283091e-10), (0.9906026, 0.1367721, 1.3283091e-10), (0.79717624, -0.6037467, -1.2088851e-8), (0.9906026, -0.1367721, -1.3283091e-10), (0.79717624, -0.6037467, -1.2088851e-8), (0.603748, -0.7971752, -5.91852e-9), (0.603748, -0.7971752, -5.91852e-9), (0.79717624, -0.6037467, -1.2088851e-8), (0.13677374, -0.9906023, -3.314484e-8), (0.603748, -0.7971752, -5.91852e-9), (0.13677374, -0.9906023, -3.314484e-8), (-0.13677293, -0.99060243, -1.582739e-8), (-0.13677293, -0.99060243, -1.582739e-8), (0.13677374, -0.9906023, -3.314484e-8), (-0.603748, -0.7971752, -5.91852e-9), (-0.13677293, -0.99060243, -1.582739e-8), (-0.603748, -0.7971752, -5.91852e-9), (-0.7971765, -0.60374653, -1.6263431e-8), (-0.7971765, -0.60374653, -1.6263431e-8), (-0.603748, -0.7971752, -5.91852e-9), (-0.9906026, -0.13677207, -2.645394e-9), (-0.7971765, -0.60374653, -1.6263431e-8), (-0.9906026, -0.13677207, -2.645394e-9), (-0.9906026, 0.13677207, -2.8050045e-9), (0.9906026, 0.1367721, 1.3283091e-10), (0.60374814, 0.7971752, 3.4987313e-8), (-0.13677335, 0.99060243, 3.0361786e-8), (-0.13677335, 0.99060243, 3.0361786e-8), (-0.7971763, 0.6037467, 1.2088851e-8), (-0.9906026, -0.13677207, -2.645394e-9), (-0.9906026, -0.13677207, -2.645394e-9), (-0.603748, -0.7971752, -5.91852e-9), (0.13677374, -0.9906023, -3.314484e-8), (0.13677374, -0.9906023, -3.314484e-8), (0.79717624, -0.6037467, -1.2088851e-8), (0.9906026, 0.1367721, 1.3283091e-10), (0.9906026, 0.1367721, 1.3283091e-10), (-0.13677335, 0.99060243, 3.0361786e-8), (-0.9906026, -0.13677207, -2.645394e-9), (-0.9906026, -0.13677207, -2.645394e-9), (0.13677374, -0.9906023, -3.314484e-8), (0.9906026, 0.1367721, 1.3283091e-10), (-0.9906026, 0.13677207, -2.8050045e-9), (-0.9906026, -0.13677207, -2.645394e-9), (-0.7971763, 0.6037467, 1.2088851e-8), (-0.9906026, 0.13677207, -2.8050045e-9), (-0.7971763, 0.6037467, 1.2088851e-8), (-0.60374784, 0.79717547, 4.39556e-8), (-0.60374784, 0.79717547, 4.39556e-8), (-0.7971763, 0.6037467, 1.2088851e-8), (-0.13677335, 0.99060243, 3.0361786e-8), (-0.60374784, 0.79717547, 4.39556e-8), (-0.13677335, 0.99060243, 3.0361786e-8), (0.13677312, 0.99060243, 1.582739e-8), (-0.60374784, 0.79717547, 4.39556e-8), (0.13677312, 0.99060243, 1.582739e-8), (0.7971765, 0.60374653, 1.6263431e-8), (0.7971765, 0.60374653, 1.6263431e-8), (0.9906026, -0.1367721, -1.3283091e-10), (0.603748, -0.7971752, -5.91852e-9), (0.603748, -0.7971752, -5.91852e-9), (-0.13677293, -0.99060243, -1.582739e-8), (-0.7971765, -0.60374653, -1.6263431e-8), (-0.7971765, -0.60374653, -1.6263431e-8), (-0.9906026, 0.13677207, -2.8050045e-9), (-0.60374784, 0.79717547, 4.39556e-8), (-0.60374784, 0.79717547, 4.39556e-8), (0.7971765, 0.60374653, 1.6263431e-8), (0.603748, -0.7971752, -5.91852e-9), (0.603748, -0.7971752, -5.91852e-9), (-0.7971765, -0.60374653, -1.6263431e-8), (-0.60374784, 0.79717547, 4.39556e-8)] (
        interpolation = "faceVarying"
    )
    point3f[] points = [(3.5514633e-11, 0.0020000006, -0.03520002), (3.5514633e-11, 0.0019999996, 0.03520002), (0.001414217, 0.001414214, 0.035200015), (0.001414217, 0.001414213, -0.035200022), (0.0019999966, -2.2770055e-10, 0.035200015), (0.0019999966, 1.4073011e-10, -0.03520002), (0.001414217, -0.001414214, 0.03520002), (0.001414217, -0.0014142123, -0.03520002), (3.5514633e-11, -0.0019999996, 0.035200015), (3.5514633e-11, -0.0019999999, -0.035200022), (-0.001414217, -0.001414214, 0.03520002), (-0.001414217, -0.0014142123, -0.03520002), (-0.0019999966, -2.2770055e-10, 0.035200015), (-0.0019999966, 1.4073011e-10, -0.03520002), (-0.001414217, 0.001414214, 0.035200015), (-0.001414217, 0.001414213, -0.035200022)]
}

