#usda 1.0
(
    defaultPrim = "UCX_Fridge_Egg_Tray_007"
    upAxis = "Z"
)

def Mesh "UCX_Fridge_Egg_Tray_007"
{
    int[] faceVertexCounts = [3, 3, 3, 3, 3, 3, 3, 3, 3, 3, 3, 3]
    int[] faceVertexIndices = [0, 1, 2, 0, 2, 3, 4, 5, 6, 4, 6, 7, 5, 4, 1, 5, 1, 0, 3, 6, 5, 3, 5, 0, 2, 1, 4, 2, 4, 7, 6, 3, 2, 6, 2, 7]
    normal3f[] normals = [(1, 2.1894065e-8, 0), (1, 3.6569535e-8, 0), (1, 3.6569535e-8, 0), (1, 2.1894065e-8, 0), (1, 3.6569535e-8, 0), (1, 2.1894065e-8, 0), (-1, -3.6569535e-8, -0), (-1, -3.6569535e-8, -0), (-1, -3.6569535e-8, -0), (-1, -3.6569535e-8, -0), (-1, -3.6569535e-8, -0), (-1, -3.6569535e-8, -0), (-1, -3.6569535e-8, -0), (-1, -3.6569535e-8, -0), (1, 3.6569535e-8, 0), (-1, -3.6569535e-8, -0), (1, 3.6569535e-8, 0), (1, 2.1894065e-8, 0), (1, 2.1894065e-8, 0), (-1, -3.6569535e-8, -0), (-1, -3.6569535e-8, -0), (1, 2.1894065e-8, 0), (-1, -3.6569535e-8, -0), (1, 2.1894065e-8, 0), (1, 3.6569535e-8, 0), (1, 3.6569535e-8, 0), (-1, -3.6569535e-8, -0), (1, 3.6569535e-8, 0), (-1, -3.6569535e-8, -0), (-1, -3.6569535e-8, -0), (-1, -3.6569535e-8, -0), (1, 2.1894065e-8, 0), (1, 3.6569535e-8, 0), (-1, -3.6569535e-8, -0), (1, 3.6569535e-8, 0), (-1, -3.6569535e-8, -0)] (
        interpolation = "faceVarying"
    )
    point3f[] points = [(0.00090000214, -0.0066522057, -0.018692862), (0.00090000173, 0.006652209, -0.018692862), (0.00090000173, 0.006652209, 0.018692862), (0.00090000214, -0.0066522057, 0.018692862), (-0.00090000214, 0.0066522053, -0.018692862), (-0.0009000017, -0.0066522094, -0.018692862), (-0.0009000017, -0.0066522094, 0.018692862), (-0.00090000214, 0.0066522053, 0.018692862)]
}

