#usda 1.0
(
    defaultPrim = "UCX_Kitchen_01_Base_003"
    upAxis = "Z"
)

def Mesh "UCX_Kitchen_01_Base_003"
{
    int[] faceVertexCounts = [3, 3, 3, 3, 3, 3, 3, 3, 3, 3, 3, 3]
    int[] faceVertexIndices = [0, 1, 2, 0, 2, 3, 1, 4, 5, 1, 5, 2, 4, 6, 7, 4, 7, 5, 6, 0, 3, 6, 3, 7, 1, 0, 6, 1, 6, 4, 5, 7, 3, 5, 3, 2]
    normal3f[] normals = [(-1, 0, 0), (1, -1.0731585e-7, 0), (1, -1.0731585e-7, 0), (-1, 0, 0), (1, -1.0731585e-7, 0), (-1, 0, 0), (1, -1.0731585e-7, 0), (1, -1.0731585e-7, 0), (1, -1.0731585e-7, 0), (1, -1.0731585e-7, 0), (1, -1.0731585e-7, 0), (1, -1.0731585e-7, 0), (1, -1.0731585e-7, 0), (-1, 0, 0), (-1, 0, 0), (1, -1.0731585e-7, 0), (-1, 0, 0), (1, -1.0731585e-7, 0), (-1, 0, 0), (-1, 0, 0), (-1, 0, 0), (-1, 0, 0), (-1, 0, 0), (-1, 0, 0), (1, -1.0731585e-7, 0), (-1, 0, 0), (-1, 0, 0), (1, -1.0731585e-7, 0), (-1, 0, 0), (1, -1.0731585e-7, 0), (1, -1.0731585e-7, 0), (-1, 0, 0), (-1, 0, 0), (1, -1.0731585e-7, 0), (-1, 0, 0), (1, -1.0731585e-7, 0)] (
        interpolation = "faceVarying"
    )
    point3f[] points = [(-0.009602977, -0.27735797, -1.0638362), (0.009602951, -0.27735797, -1.0638362), (0.009602951, -0.27735797, 1.0638362), (-0.009602977, -0.27735797, 1.0638362), (0.0096030105, 0.2773577, -1.0638362), (0.0096030105, 0.2773577, 1.0638362), (-0.009602977, 0.2773577, -1.0638362), (-0.009602977, 0.2773577, 1.0638362)]
}

