#usda 1.0
(
    defaultPrim = "UCX_Kitchen_11_Base_Drawer_03_009"
    upAxis = "Z"
)

def Mesh "UCX_Kitchen_11_Base_Drawer_03_009"
{
    int[] faceVertexCounts = [3, 3, 3, 3, 3, 3, 3, 3, 3, 3, 3, 3]
    int[] faceVertexIndices = [0, 1, 2, 0, 2, 3, 1, 4, 5, 1, 5, 2, 4, 6, 7, 4, 7, 5, 6, 0, 3, 6, 3, 7, 1, 0, 6, 1, 6, 4, 5, 7, 3, 5, 3, 2]
    normal3f[] normals = [(1, 0, 0), (0, 1, 0), (1, 0, 0), (1, 0, 0), (1, 0, 0), (0, 1, 0), (0, 1, 0), (-1, 0, 0), (0, 1, 0), (0, 1, 0), (0, 1, 0), (1, 0, 0), (-1, 0, 0), (0, 1, 0), (-1, 0, 0), (-1, 0, 0), (-1, 0, 0), (0, 1, 0), (0, 1, 0), (1, 0, 0), (0, 1, 0), (0, 1, 0), (0, 1, 0), (-1, 0, 0), (0, 1, 0), (1, 0, 0), (0, 1, 0), (0, 1, 0), (0, 1, 0), (-1, 0, 0), (0, 1, 0), (-1, 0, 0), (0, 1, 0), (0, 1, 0), (0, 1, 0), (1, 0, 0)] (
        interpolation = "faceVarying"
    )
    point3f[] points = [(0.0075953305, -0.012460099, 0.23762622), (0.0075953305, -0.012460028, -0.23762622), (0.0075953305, 0.012460099, -0.23762622), (0.0075953305, 0.012460027, 0.23762622), (-0.0075953305, -0.012460028, -0.23762622), (-0.0075953305, 0.012460099, -0.23762622), (-0.0075953305, -0.012460099, 0.23762622), (-0.0075953305, 0.012460027, 0.23762622)]
}

