#usda 1.0
(
    defaultPrim = "UCX_Dishwasher_Tray_01_137"
    upAxis = "Z"
)

def Mesh "UCX_Dishwasher_Tray_01_137"
{
    int[] faceVertexCounts = [3, 3, 3, 3, 3, 3, 3, 3, 3, 3, 3, 3, 3, 3, 3, 3, 3, 3, 3, 3, 3, 3, 3, 3, 3, 3, 3, 3]
    int[] faceVertexIndices = [0, 1, 2, 0, 2, 3, 3, 2, 4, 3, 4, 5, 5, 4, 6, 5, 6, 7, 7, 6, 8, 7, 8, 9, 9, 8, 10, 9, 10, 11, 11, 10, 12, 11, 12, 13, 4, 2, 1, 1, 14, 12, 12, 10, 8, 8, 6, 4, 4, 1, 12, 12, 8, 4, 13, 12, 14, 13, 14, 15, 15, 14, 1, 15, 1, 0, 15, 0, 3, 3, 5, 7, 7, 9, 11, 11, 13, 15, 15, 3, 7, 7, 11, 15]
    normal3f[] normals = [(-0.9906021, -0.13677539, 8.001395e-8), (-0.9906031, 0.13676856, 6.416773e-8), (-0.7971772, -0.60374546, 7.69819e-8), (-0.9906021, -0.13677539, 8.001395e-8), (-0.7971772, -0.60374546, 7.69819e-8), (-0.60374933, -0.7971743, 5.1647355e-8), (-0.60374933, -0.7971743, 5.1647355e-8), (-0.7971772, -0.60374546, 7.69819e-8), (-0.13677198, -0.9906026, 5.4777303e-8), (-0.60374933, -0.7971743, 5.1647355e-8), (-0.13677198, -0.9906026, 5.4777303e-8), (0.1367715, -0.9906026, 3.9419955e-8), (0.1367715, -0.9906026, 3.9419955e-8), (-0.13677198, -0.9906026, 5.4777303e-8), (0.6037438, -0.79717857, -1.4965945e-8), (0.1367715, -0.9906026, 3.9419955e-8), (0.6037438, -0.79717857, -1.4965945e-8), (0.7971755, -0.6037476, -1.0955469e-8), (0.7971755, -0.6037476, -1.0955469e-8), (0.6037438, -0.79717857, -1.4965945e-8), (0.99060315, -0.13676809, -2.895363e-8), (0.7971755, -0.6037476, -1.0955469e-8), (0.99060315, -0.13676809, -2.895363e-8), (0.99060214, 0.13677491, -4.3821665e-8), (0.99060214, 0.13677491, -4.3821665e-8), (0.99060315, -0.13676809, -2.895363e-8), (0.7971772, 0.60374546, -9.194788e-8), (0.99060214, 0.13677491, -4.3821665e-8), (0.7971772, 0.60374546, -9.194788e-8), (0.6037471, 0.79717594, -1.02512395e-7), (0.6037471, 0.79717594, -1.02512395e-7), (0.7971772, 0.60374546, -9.194788e-8), (0.13677198, 0.9906026, -7.042796e-8), (0.6037471, 0.79717594, -1.02512395e-7), (0.13677198, 0.9906026, -7.042796e-8), (-0.1367715, 0.9906026, -5.4385843e-8), (-0.13677198, -0.9906026, 5.4777303e-8), (-0.7971772, -0.60374546, 7.69819e-8), (-0.9906031, 0.13676856, 6.416773e-8), (-0.9906031, 0.13676856, 6.416773e-8), (-0.603746, 0.79717684, -3.6289894e-8), (0.13677198, 0.9906026, -7.042796e-8), (0.13677198, 0.9906026, -7.042796e-8), (0.7971772, 0.60374546, -9.194788e-8), (0.99060315, -0.13676809, -2.895363e-8), (0.99060315, -0.13676809, -2.895363e-8), (0.6037438, -0.79717857, -1.4965945e-8), (-0.13677198, -0.9906026, 5.4777303e-8), (-0.13677198, -0.9906026, 5.4777303e-8), (-0.9906031, 0.13676856, 6.416773e-8), (0.13677198, 0.9906026, -7.042796e-8), (0.13677198, 0.9906026, -7.042796e-8), (0.99060315, -0.13676809, -2.895363e-8), (-0.13677198, -0.9906026, 5.4777303e-8), (-0.1367715, 0.9906026, -5.4385843e-8), (0.13677198, 0.9906026, -7.042796e-8), (-0.603746, 0.79717684, -3.6289894e-8), (-0.1367715, 0.9906026, -5.4385843e-8), (-0.603746, 0.79717684, -3.6289894e-8), (-0.7971755, 0.6037476, -4.695201e-9), (-0.7971755, 0.6037476, -4.695201e-9), (-0.603746, 0.79717684, -3.6289894e-8), (-0.9906031, 0.13676856, 6.416773e-8), (-0.7971755, 0.6037476, -4.695201e-9), (-0.9906031, 0.13676856, 6.416773e-8), (-0.9906021, -0.13677539, 8.001395e-8), (-0.7971755, 0.6037476, -4.695201e-9), (-0.9906021, -0.13677539, 8.001395e-8), (-0.60374933, -0.7971743, 5.1647355e-8), (-0.60374933, -0.7971743, 5.1647355e-8), (0.1367715, -0.9906026, 3.9419955e-8), (0.7971755, -0.6037476, -1.0955469e-8), (0.7971755, -0.6037476, -1.0955469e-8), (0.99060214, 0.13677491, -4.3821665e-8), (0.6037471, 0.79717594, -1.02512395e-7), (0.6037471, 0.79717594, -1.02512395e-7), (-0.1367715, 0.9906026, -5.4385843e-8), (-0.7971755, 0.6037476, -4.695201e-9), (-0.7971755, 0.6037476, -4.695201e-9), (-0.60374933, -0.7971743, 5.1647355e-8), (0.7971755, -0.6037476, -1.0955469e-8), (0.7971755, -0.6037476, -1.0955469e-8), (0.6037471, 0.79717594, -1.02512395e-7), (-0.7971755, 0.6037476, -4.695201e-9)] (
        interpolation = "faceVarying"
    )
    point3f[] points = [(-0.0019999817, 1.5425911e-8, 0.13568452), (-0.0020000115, -1.437641e-8, -0.13568464), (-0.0014142172, -0.0014142239, -0.13568464), (-0.0014142172, -0.001414209, 0.13568452), (-7.553628e-9, -0.0020000036, -0.13568464), (7.3475332e-9, -0.0019999887, 0.13568452), (0.001414202, -0.0014142239, -0.13568464), (0.0014142318, -0.001414209, 0.13568452), (0.0019999966, -1.437641e-8, -0.13568464), (0.0019999966, 1.5425911e-8, 0.13568452), (0.001414202, 0.0014142102, -0.13568464), (0.0014142318, 0.0014142251, 0.13568452), (-7.553628e-9, 0.0019999896, -0.13568464), (7.3475332e-9, 0.0020000045, 0.13568452), (-0.0014142172, 0.0014142102, -0.13568464), (-0.0014142172, 0.0014142251, 0.13568452)]
}

