#usda 1.0
(
    defaultPrim = "UCX_Kitchen_11_Base_Drawer_02_005"
    upAxis = "Z"
)

def Mesh "UCX_Kitchen_11_Base_Drawer_02_005"
{
    int[] faceVertexCounts = [3, 3, 3, 3, 3, 3, 3, 3, 3, 3, 3, 3]
    int[] faceVertexIndices = [0, 1, 2, 0, 2, 3, 4, 2, 1, 4, 1, 5, 6, 4, 5, 6, 5, 7, 3, 2, 4, 3, 4, 6, 7, 5, 1, 7, 1, 0, 6, 7, 0, 6, 0, 3]
    normal3f[] normals = [(0.9941578, 0.1079375, 1.1832048e-7), (-0.9994192, 0.03407892, -1.325826e-7), (-0.99941915, 0.034078967, -1.3258258e-7), (0.9941578, 0.1079375, 1.1832048e-7), (-0.99941915, 0.034078967, -1.3258258e-7), (0.9941577, 0.10793757, 1.2006048e-7), (-0.9994193, 0.034078866, -1.325826e-7), (-0.99941915, 0.034078967, -1.3258258e-7), (-0.9994192, 0.03407892, -1.325826e-7), (-0.9994193, 0.034078866, -1.325826e-7), (-0.9994192, 0.03407892, -1.325826e-7), (-0.9994192, 0.03407892, -1.325826e-7), (0.99415773, 0.10793754, 1.1832048e-7), (-0.9994193, 0.034078866, -1.325826e-7), (-0.9994192, 0.03407892, -1.325826e-7), (0.99415773, 0.10793754, 1.1832048e-7), (-0.9994192, 0.03407892, -1.325826e-7), (0.9941578, 0.1079375, 1.2006048e-7), (0.9941577, 0.10793757, 1.2006048e-7), (-0.99941915, 0.034078967, -1.3258258e-7), (-0.9994193, 0.034078866, -1.325826e-7), (0.9941577, 0.10793757, 1.2006048e-7), (-0.9994193, 0.034078866, -1.325826e-7), (0.99415773, 0.10793754, 1.1832048e-7), (0.9941578, 0.1079375, 1.2006048e-7), (-0.9994192, 0.03407892, -1.325826e-7), (-0.9994192, 0.03407892, -1.325826e-7), (0.9941578, 0.1079375, 1.2006048e-7), (-0.9994192, 0.03407892, -1.325826e-7), (0.9941578, 0.1079375, 1.1832048e-7), (0.99415773, 0.10793754, 1.1832048e-7), (0.9941578, 0.1079375, 1.2006048e-7), (0.9941578, 0.1079375, 1.1832048e-7), (0.99415773, 0.10793754, 1.1832048e-7), (0.9941578, 0.1079375, 1.1832048e-7), (0.9941577, 0.10793757, 1.2006048e-7)] (
        interpolation = "faceVarying"
    )
    point3f[] points = [(0.0024702586, 0.02142043, 0.23762637), (-0.004112946, 0.015578127, 0.23762637), (-0.0052462793, -0.017658673, 0.23762637), (0.0062690647, -0.013568432, 0.23762637), (-0.0052462174, -0.017658716, -0.23762634), (-0.0041128844, 0.015578085, -0.23762634), (0.006269126, -0.013568474, -0.23762634), (0.0024703206, 0.02142039, -0.23762634)]
}

