#usda 1.0
(
    defaultPrim = "UCX_Counter_Sink_Tap_002"
    upAxis = "Z"
)

def Mesh "UCX_Counter_Sink_Tap_002"
{
    int[] faceVertexCounts = [3, 3, 3, 3, 3, 3, 3, 3, 3, 3, 3, 3, 3, 3, 3, 3, 3, 3, 3, 3, 3, 3, 3, 3, 3, 3, 3, 3, 3, 3, 3, 3, 3, 3, 3, 3, 3, 3, 3, 3, 3, 3, 3, 3, 3, 3, 3, 3, 3, 3, 3, 3, 3, 3, 3, 3, 3, 3, 3, 3, 3, 3, 3, 3, 3, 3, 3, 3, 3, 3, 3, 3, 3, 3, 3, 3, 3, 3, 3, 3, 3, 3, 3, 3, 3, 3, 3, 3, 3, 3, 3, 3, 3, 3, 3, 3, 3, 3, 3, 3, 3, 3, 3, 3, 3, 3, 3, 3, 3, 3, 3, 3, 3, 3, 3, 3, 3, 3, 3, 3, 3, 3, 3, 3]
    int[] faceVertexIndices = [0, 1, 2, 0, 2, 3, 3, 2, 4, 3, 4, 5, 5, 4, 6, 5, 6, 7, 7, 6, 8, 7, 8, 9, 9, 8, 10, 9, 10, 11, 11, 10, 12, 11, 12, 13, 13, 12, 14, 13, 14, 15, 15, 14, 16, 15, 16, 17, 17, 16, 18, 17, 18, 19, 19, 18, 20, 19, 20, 21, 21, 20, 22, 21, 22, 23, 23, 22, 24, 23, 24, 25, 25, 24, 26, 25, 26, 27, 27, 26, 28, 27, 28, 29, 29, 28, 30, 29, 30, 31, 31, 30, 32, 31, 32, 33, 33, 32, 34, 33, 34, 35, 35, 34, 36, 35, 36, 37, 37, 36, 38, 37, 38, 39, 39, 38, 40, 39, 40, 41, 41, 40, 42, 41, 42, 43, 43, 42, 44, 43, 44, 45, 45, 44, 46, 45, 46, 47, 47, 46, 48, 47, 48, 49, 49, 48, 50, 49, 50, 51, 51, 50, 52, 51, 52, 53, 53, 52, 54, 53, 54, 55, 55, 54, 56, 55, 56, 57, 57, 56, 58, 57, 58, 59, 59, 58, 60, 59, 60, 61, 4, 2, 1, 1, 62, 60, 60, 58, 56, 56, 54, 52, 52, 50, 48, 48, 46, 44, 44, 42, 40, 40, 38, 36, 36, 34, 32, 32, 30, 28, 28, 26, 24, 24, 22, 20, 20, 18, 16, 16, 14, 12, 12, 10, 8, 8, 6, 4, 4, 1, 60, 60, 56, 52, 52, 48, 44, 44, 40, 36, 36, 32, 28, 28, 24, 20, 20, 16, 12, 12, 8, 4, 4, 60, 52, 52, 44, 36, 36, 28, 20, 20, 12, 4, 4, 52, 36, 36, 20, 4, 61, 60, 62, 61, 62, 63, 63, 62, 1, 63, 1, 0, 63, 0, 3, 3, 5, 7, 7, 9, 11, 11, 13, 15, 15, 17, 19, 19, 21, 23, 23, 25, 27, 27, 29, 31, 31, 33, 35, 35, 37, 39, 39, 41, 43, 43, 45, 47, 47, 49, 51, 51, 53, 55, 55, 57, 59, 59, 61, 63, 63, 3, 7, 7, 11, 15, 15, 19, 23, 23, 27, 31, 31, 35, 39, 39, 43, 47, 47, 51, 55, 55, 59, 63, 63, 7, 15, 15, 23, 31, 31, 39, 47, 47, 55, 63, 63, 15, 31, 31, 47, 63]
    normal3f[] normals = [(0.0045655468, -0.04808989, -0.9988326), (-0.0045321602, 0.017563667, -0.9998355), (0.02315806, -0.17857867, -0.9836531), (0.0045655468, -0.04808989, -0.9988326), (0.02315806, -0.17857867, -0.9836531), (0.032866903, -0.2413125, -0.96989083), (0.032866903, -0.2413125, -0.96989083), (0.02315806, -0.17857867, -0.9836531), (0.99776596, -0.06679759, 0.0011125029), (0.032866903, -0.2413125, -0.96989083), (0.99776596, -0.06679759, 0.0011125029), (0.061863057, -0.4247406, -0.90319914), (0.061863057, -0.4247406, -0.90319914), (0.99776596, -0.06679759, 0.0011125029), (0.080447175, -0.5407876, -0.8373036), (0.061863057, -0.4247406, -0.90319914), (0.080447175, -0.5407876, -0.8373036), (-0.13718814, 0.9904116, -0.016257199), (-0.13718814, 0.9904116, -0.016257199), (0.080447175, -0.5407876, -0.8373036), (0.10738783, -0.69211906, -0.71375), (-0.13718814, 0.9904116, -0.016257199), (0.10738783, -0.69211906, -0.71375), (0.1164538, -0.7339251, -0.669173), (0.1164538, -0.7339251, -0.669173), (0.10738783, -0.69211906, -0.71375), (0.1311144, -0.81566614, -0.56346947), (0.1164538, -0.7339251, -0.669173), (0.1311144, -0.81566614, -0.56346947), (0.13881488, -0.8479771, -0.51153225), (0.13881488, -0.8479771, -0.51153225), (0.1311144, -0.81566614, -0.56346947), (0.997766, -0.06679757, 0.0011125277), (0.13881488, -0.8479771, -0.51153225), (0.997766, -0.06679757, 0.0011125277), (0.1556957, -0.9293041, -0.33489245), (0.1556957, -0.9293041, -0.33489245), (0.997766, -0.06679757, 0.0011125277), (0.16270813, -0.96443313, -0.20831427), (0.1556957, -0.9293041, -0.33489245), (0.16270813, -0.96443313, -0.20831427), (-0.990545, -0.13717002, 0.0022351812), (-0.990545, -0.13717002, 0.0022351812), (0.16270813, -0.96443313, -0.20831427), (0.1681306, -0.9856224, -0.016751291), (-0.990545, -0.13717002, 0.0022351812), (0.1681306, -0.9856224, -0.016751291), (0.16813442, -0.984585, 0.04820095), (0.16813442, -0.984585, 0.04820095), (0.1681306, -0.9856224, -0.016751291), (0.16581413, -0.97043914, 0.17536698), (0.16813442, -0.984585, 0.04820095), (0.16581413, -0.97043914, 0.17536698), (0.16266854, -0.95687306, 0.24069253), (0.16266854, -0.95687306, 0.24069253), (0.16581413, -0.97043914, 0.17536698), (0.997766, -0.066797584, 0.0011124981), (0.16266854, -0.95687306, 0.24069253), (0.997766, -0.066797584, 0.0011124981), (0.14985548, -0.8929574, 0.42446497), (0.14985548, -0.8929574, 0.42446497), (0.997766, -0.066797584, 0.0011124981), (0.13920337, -0.8332522, 0.5350825), (0.14985548, -0.8929574, 0.42446497), (0.13920337, -0.8332522, 0.5350825), (-0.13718814, 0.9904116, -0.016257199), (-0.13718814, 0.9904116, -0.016257199), (0.13920337, -0.8332522, 0.5350825), (0.11695386, -0.7148692, 0.6894083), (-0.13718814, 0.9904116, -0.016257199), (0.11695386, -0.7148692, 0.6894083), (0.10695411, -0.6656848, 0.73852855), (0.10695411, -0.6656848, 0.73852855), (0.11695386, -0.7148692, 0.6894083), (0.09074639, -0.56790346, 0.8180776), (0.10695411, -0.6656848, 0.73852855), (0.09074639, -0.56790346, 0.8180776), (0.08000107, -0.5102487, 0.85629785), (0.08000107, -0.5102487, 0.85629785), (0.09074639, -0.56790346, 0.8180776), (-0.13718814, 0.9904116, -0.016257199), (0.08000107, -0.5102487, 0.85629785), (-0.13718814, 0.9904116, -0.016257199), (0.051533166, -0.33440796, 0.94101846), (0.051533166, -0.33440796, 0.94101846), (-0.13718814, 0.9904116, -0.016257199), (0.03307501, -0.21100543, 0.9769252), (0.051533166, -0.33440796, 0.94101846), (0.03307501, -0.21100543, 0.9769252), (-0.990545, -0.13717002, 0.0022351777), (-0.990545, -0.13717002, 0.0022351777), (0.03307501, -0.21100543, 0.9769252), (0.004565611, -0.015513029, 0.9998692), (-0.990545, -0.13717002, 0.0022351777), (0.004565611, -0.015513029, 0.9998692), (-0.004533336, 0.05013115, 0.9987323), (-0.004533336, 0.05013115, 0.9987323), (0.004565611, -0.015513029, 0.9998692), (-0.022181645, 0.1806025, 0.98330605), (-0.004533336, 0.05013115, 0.9987323), (-0.022181645, 0.1806025, 0.98330605), (-0.03007273, 0.24342993, 0.9694522), (-0.03007273, 0.24342993, 0.9694522), (-0.022181645, 0.1806025, 0.98330605), (0.99776596, -0.06679759, 0.0011125029), (-0.03007273, 0.24342993, 0.9694522), (0.99776596, -0.06679759, 0.0011125029), (-0.05299062, 0.42713234, 0.9026351), (-0.05299062, 0.42713234, 0.9026351), (0.99776596, -0.06679759, 0.0011125029), (-0.06742089, 0.54288965, 0.83709335), (-0.05299062, 0.42713234, 0.9026351), (-0.06742089, 0.54288965, 0.83709335), (-0.13718814, 0.9904116, -0.016257199), (-0.13718814, 0.9904116, -0.016257199), (-0.06742089, 0.54288965, 0.83709335), (-0.085006684, 0.6948521, 0.7141109), (-0.13718814, 0.9904116, -0.016257199), (-0.085006684, 0.6948521, 0.7141109), (-0.08924986, 0.73783946, 0.6690497), (-0.08924986, 0.73783946, 0.6690497), (-0.085006684, 0.6948521, 0.7141109), (-0.09891487, 0.8195767, 0.5643669), (-0.08924986, 0.73783946, 0.6690497), (-0.09891487, 0.8195767, 0.5643669), (-0.10206871, 0.8530876, 0.5116869), (-0.10206871, 0.8530876, 0.5116869), (-0.09891487, 0.8195767, 0.5643669), (-0.13718814, 0.9904116, -0.016257199), (-0.10206871, 0.8530876, 0.5116869), (-0.13718814, 0.9904116, -0.016257199), (-0.11114783, 0.9355958, 0.3351218), (-0.11114783, 0.9355958, 0.3351218), (-0.13718814, 0.9904116, -0.016257199), (-0.115341365, 0.9711132, 0.20889126), (-0.11114783, 0.9355958, 0.3351218), (-0.115341365, 0.9711132, 0.20889126), (-0.990545, -0.13717002, 0.0022351812), (-0.990545, -0.13717002, 0.0022351812), (-0.115341365, 0.9711132, 0.20889126), (-0.11780465, 0.99290085, 0.016433017), (-0.990545, -0.13717002, 0.0022351812), (-0.11780465, 0.99290085, 0.016433017), (-0.11780571, 0.99185365, -0.048458256), (-0.11780571, 0.99185365, -0.048458256), (-0.11780465, 0.99290085, 0.016433017), (-0.11643404, 0.9773683, -0.1766193), (-0.11780571, 0.99185365, -0.048458256), (-0.11643404, 0.9773683, -0.1766193), (-0.1153196, 0.9636052, -0.2411773), (-0.1153196, 0.9636052, -0.2411773), (-0.11643404, 0.9773683, -0.1766193), (0.9977659, -0.06679763, 0.0011125035), (-0.1153196, 0.9636052, -0.2411773), (0.9977659, -0.06679763, 0.0011125035), (-0.10895297, 0.8986466, -0.42492786), (-0.10895297, 0.8986466, -0.42492786), (0.9977659, -0.06679763, 0.0011125035), (-0.102249034, 0.83751345, -0.5367646), (-0.10895297, 0.8986466, -0.42492786), (-0.102249034, 0.83751345, -0.5367646), (-0.13718814, 0.9904116, -0.016257199), (-0.13718814, 0.9904116, -0.016257199), (-0.102249034, 0.83751345, -0.5367646), (-0.089507334, 0.7178035, -0.6904684), (-0.13718814, 0.9904116, -0.016257199), (-0.089507334, 0.7178035, -0.6904684), (-0.084745795, 0.66910714, -0.73831826), (-0.084745795, 0.66910714, -0.73831826), (-0.089507334, 0.7178035, -0.6904684), (-0.07311521, 0.57003623, -0.81835985), (-0.084745795, 0.66910714, -0.73831826), (-0.07311521, 0.57003623, -0.81835985), (-0.06711681, 0.512934, -0.8558004), (-0.06711681, 0.512934, -0.8558004), (-0.07311521, 0.57003623, -0.81835985), (-0.13718814, 0.9904116, -0.016257199), (-0.06711681, 0.512934, -0.8558004), (-0.13718814, 0.9904116, -0.016257199), (-0.046082273, 0.3366802, -0.94049084), (0.99776596, -0.06679759, 0.0011125029), (0.02315806, -0.17857867, -0.9836531), (-0.0045321602, 0.017563667, -0.9998355), (-0.0045321602, 0.017563667, -0.9998355), (-0.030234933, 0.21295772, -0.97659355), (-0.13718814, 0.9904116, -0.016257199), (-0.13718814, 0.9904116, -0.016257199), (-0.07311521, 0.57003623, -0.81835985), (-0.089507334, 0.7178035, -0.6904684), (-0.089507334, 0.7178035, -0.6904684), (-0.102249034, 0.83751345, -0.5367646), (0.9977659, -0.06679763, 0.0011125035), (0.9977659, -0.06679763, 0.0011125035), (-0.11643404, 0.9773683, -0.1766193), (-0.11780465, 0.99290085, 0.016433017), (-0.11780465, 0.99290085, 0.016433017), (-0.115341365, 0.9711132, 0.20889126), (-0.13718814, 0.9904116, -0.016257199), (-0.13718814, 0.9904116, -0.016257199), (-0.09891487, 0.8195767, 0.5643669), (-0.085006684, 0.6948521, 0.7141109), (-0.085006684, 0.6948521, 0.7141109), (-0.06742089, 0.54288965, 0.83709335), (0.99776596, -0.06679759, 0.0011125029), (0.99776596, -0.06679759, 0.0011125029), (-0.022181645, 0.1806025, 0.98330605), (0.004565611, -0.015513029, 0.9998692), (0.004565611, -0.015513029, 0.9998692), (0.03307501, -0.21100543, 0.9769252), (-0.13718814, 0.9904116, -0.016257199), (-0.13718814, 0.9904116, -0.016257199), (0.09074639, -0.56790346, 0.8180776), (0.11695386, -0.7148692, 0.6894083), (0.11695386, -0.7148692, 0.6894083), (0.13920337, -0.8332522, 0.5350825), (0.997766, -0.066797584, 0.0011124981), (0.997766, -0.066797584, 0.0011124981), (0.16581413, -0.97043914, 0.17536698), (0.1681306, -0.9856224, -0.016751291), (0.1681306, -0.9856224, -0.016751291), (0.16270813, -0.96443313, -0.20831427), (0.997766, -0.06679757, 0.0011125277), (0.997766, -0.06679757, 0.0011125277), (0.1311144, -0.81566614, -0.56346947), (0.10738783, -0.69211906, -0.71375), (0.10738783, -0.69211906, -0.71375), (0.080447175, -0.5407876, -0.8373036), (0.99776596, -0.06679759, 0.0011125029), (0.99776596, -0.06679759, 0.0011125029), (-0.0045321602, 0.017563667, -0.9998355), (-0.13718814, 0.9904116, -0.016257199), (-0.13718814, 0.9904116, -0.016257199), (-0.089507334, 0.7178035, -0.6904684), (0.9977659, -0.06679763, 0.0011125035), (0.9977659, -0.06679763, 0.0011125035), (-0.11780465, 0.99290085, 0.016433017), (-0.13718814, 0.9904116, -0.016257199), (-0.13718814, 0.9904116, -0.016257199), (-0.085006684, 0.6948521, 0.7141109), (0.99776596, -0.06679759, 0.0011125029), (0.99776596, -0.06679759, 0.0011125029), (0.004565611, -0.015513029, 0.9998692), (-0.13718814, 0.9904116, -0.016257199), (-0.13718814, 0.9904116, -0.016257199), (0.11695386, -0.7148692, 0.6894083), (0.997766, -0.066797584, 0.0011124981), (0.997766, -0.066797584, 0.0011124981), (0.1681306, -0.9856224, -0.016751291), (0.997766, -0.06679757, 0.0011125277), (0.997766, -0.06679757, 0.0011125277), (0.10738783, -0.69211906, -0.71375), (0.99776596, -0.06679759, 0.0011125029), (0.99776596, -0.06679759, 0.0011125029), (-0.13718814, 0.9904116, -0.016257199), (0.9977659, -0.06679763, 0.0011125035), (0.9977659, -0.06679763, 0.0011125035), (-0.13718814, 0.9904116, -0.016257199), (0.99776596, -0.06679759, 0.0011125029), (0.99776596, -0.06679759, 0.0011125029), (-0.13718814, 0.9904116, -0.016257199), (0.997766, -0.066797584, 0.0011124981), (0.997766, -0.066797584, 0.0011124981), (0.997766, -0.06679757, 0.0011125277), (0.99776596, -0.06679759, 0.0011125029), (0.99776596, -0.06679759, 0.0011125029), (0.9977659, -0.06679763, 0.0011125035), (0.99776596, -0.06679759, 0.0011125029), (0.99776596, -0.06679759, 0.0011125029), (0.997766, -0.066797584, 0.0011124981), (0.99776596, -0.06679759, 0.0011125029), (-0.046082273, 0.3366802, -0.94049084), (-0.13718814, 0.9904116, -0.016257199), (-0.030234933, 0.21295772, -0.97659355), (-0.046082273, 0.3366802, -0.94049084), (-0.030234933, 0.21295772, -0.97659355), (-0.990545, -0.13717002, 0.0022351777), (-0.990545, -0.13717002, 0.0022351777), (-0.030234933, 0.21295772, -0.97659355), (-0.0045321602, 0.017563667, -0.9998355), (-0.990545, -0.13717002, 0.0022351777), (-0.0045321602, 0.017563667, -0.9998355), (0.0045655468, -0.04808989, -0.9988326), (-0.990545, -0.13717002, 0.0022351777), (0.0045655468, -0.04808989, -0.9988326), (0.032866903, -0.2413125, -0.96989083), (0.032866903, -0.2413125, -0.96989083), (0.061863057, -0.4247406, -0.90319914), (-0.13718814, 0.9904116, -0.016257199), (-0.13718814, 0.9904116, -0.016257199), (0.1164538, -0.7339251, -0.669173), (0.13881488, -0.8479771, -0.51153225), (0.13881488, -0.8479771, -0.51153225), (0.1556957, -0.9293041, -0.33489245), (-0.990545, -0.13717002, 0.0022351812), (-0.990545, -0.13717002, 0.0022351812), (0.16813442, -0.984585, 0.04820095), (0.16266854, -0.95687306, 0.24069253), (0.16266854, -0.95687306, 0.24069253), (0.14985548, -0.8929574, 0.42446497), (-0.13718814, 0.9904116, -0.016257199), (-0.13718814, 0.9904116, -0.016257199), (0.10695411, -0.6656848, 0.73852855), (0.08000107, -0.5102487, 0.85629785), (0.08000107, -0.5102487, 0.85629785), (0.051533166, -0.33440796, 0.94101846), (-0.990545, -0.13717002, 0.0022351777), (-0.990545, -0.13717002, 0.0022351777), (-0.004533336, 0.05013115, 0.9987323), (-0.03007273, 0.24342993, 0.9694522), (-0.03007273, 0.24342993, 0.9694522), (-0.05299062, 0.42713234, 0.9026351), (-0.13718814, 0.9904116, -0.016257199), (-0.13718814, 0.9904116, -0.016257199), (-0.08924986, 0.73783946, 0.6690497), (-0.10206871, 0.8530876, 0.5116869), (-0.10206871, 0.8530876, 0.5116869), (-0.11114783, 0.9355958, 0.3351218), (-0.990545, -0.13717002, 0.0022351812), (-0.990545, -0.13717002, 0.0022351812), (-0.11780571, 0.99185365, -0.048458256), (-0.1153196, 0.9636052, -0.2411773), (-0.1153196, 0.9636052, -0.2411773), (-0.10895297, 0.8986466, -0.42492786), (-0.13718814, 0.9904116, -0.016257199), (-0.13718814, 0.9904116, -0.016257199), (-0.084745795, 0.66910714, -0.73831826), (-0.06711681, 0.512934, -0.8558004), (-0.06711681, 0.512934, -0.8558004), (-0.046082273, 0.3366802, -0.94049084), (-0.990545, -0.13717002, 0.0022351777), (-0.990545, -0.13717002, 0.0022351777), (0.032866903, -0.2413125, -0.96989083), (-0.13718814, 0.9904116, -0.016257199), (-0.13718814, 0.9904116, -0.016257199), (0.13881488, -0.8479771, -0.51153225), (-0.990545, -0.13717002, 0.0022351812), (-0.990545, -0.13717002, 0.0022351812), (0.16266854, -0.95687306, 0.24069253), (-0.13718814, 0.9904116, -0.016257199), (-0.13718814, 0.9904116, -0.016257199), (0.08000107, -0.5102487, 0.85629785), (-0.990545, -0.13717002, 0.0022351777), (-0.990545, -0.13717002, 0.0022351777), (-0.03007273, 0.24342993, 0.9694522), (-0.13718814, 0.9904116, -0.016257199), (-0.13718814, 0.9904116, -0.016257199), (-0.10206871, 0.8530876, 0.5116869), (-0.990545, -0.13717002, 0.0022351812), (-0.990545, -0.13717002, 0.0022351812), (-0.1153196, 0.9636052, -0.2411773), (-0.13718814, 0.9904116, -0.016257199), (-0.13718814, 0.9904116, -0.016257199), (-0.06711681, 0.512934, -0.8558004), (-0.990545, -0.13717002, 0.0022351777), (-0.990545, -0.13717002, 0.0022351777), (-0.13718814, 0.9904116, -0.016257199), (-0.990545, -0.13717002, 0.0022351812), (-0.990545, -0.13717002, 0.0022351812), (-0.13718814, 0.9904116, -0.016257199), (-0.990545, -0.13717002, 0.0022351777), (-0.990545, -0.13717002, 0.0022351777), (-0.13718814, 0.9904116, -0.016257199), (-0.990545, -0.13717002, 0.0022351812), (-0.990545, -0.13717002, 0.0022351812), (-0.13718814, 0.9904116, -0.016257199), (-0.990545, -0.13717002, 0.0022351777), (-0.990545, -0.13717002, 0.0022351777), (-0.990545, -0.13717002, 0.0022351812), (-0.990545, -0.13717002, 0.0022351777), (-0.990545, -0.13717002, 0.0022351777), (-0.990545, -0.13717002, 0.0022351812), (-0.990545, -0.13717002, 0.0022351777)] (
        interpolation = "faceVarying"
    )
    point3f[] points = [(-0.009721812, -0.003084284, -0.022952637), (0.009887223, -0.00036883893, -0.022996886), (0.009587448, -0.0048380373, -0.022481542), (-0.009106245, -0.0075210854, -0.02243781), (0.00929918, -0.009120982, -0.021102246), (-0.008514348, -0.011772879, -0.02105901), (0.009033495, -0.013053083, -0.018911999), (-0.007968867, -0.01567627, -0.018869223), (0.008800604, -0.016483232, -0.015994975), (-0.007490766, -0.019081254, -0.0159526), (0.008609457, -0.019279609, -0.012463274), (-0.007098417, -0.021856979, -0.012421228), (0.008467399, -0.021334749, -0.008452615), (-0.006806898, -0.023896774, -0.008410814), (0.00837989, -0.022569677, -0.0041171247), (-0.0066274116, -0.025122253, -0.0040754746), (0.008350292, -0.022936936, 0.0003765843), (-0.0065668556, -0.02548632, 0.00041818348), (0.008379744, -0.022422409, 0.0048558223), (-0.0066275573, -0.024974985, 0.0048974724), (0.008467113, -0.021045873, 0.009148455), (-0.006807184, -0.023607899, 0.009190256), (0.008609042, -0.018860226, 0.013089517), (-0.0070988317, -0.021437597, 0.013131564), (0.008800076, -0.015949462, 0.016527558), (-0.007491294, -0.018547483, 0.016569933), (0.009032873, -0.012425435, 0.019330455), (-0.007969487, -0.015048621, 0.01937323), (0.009298489, -0.008423577, 0.021390494), (-0.0085150385, -0.011075474, 0.02143373), (0.009586716, -0.004097676, 0.022628509), (-0.009106978, -0.006780724, 0.022672242), (0.009886476, 0.00038602707, 0.022996925), (-0.009722559, -0.0023294182, 0.023041172), (0.01018625, 0.004855225, 0.022481581), (-0.010338125, 0.0021073837, 0.022526346), (0.01047452, 0.00913817, 0.021102283), (-0.010930021, 0.0063591767, 0.021147545), (0.010740205, 0.01307027, 0.018912038), (-0.011475503, 0.010262567, 0.018957758), (0.010973095, 0.016500417, 0.015995014), (-0.011953604, 0.01366755, 0.016041137), (0.011164243, 0.019296791, 0.012463313), (-0.012345953, 0.016443273, 0.012509764), (0.011306302, 0.021351932, 0.008452654), (-0.012637472, 0.018483069, 0.0084993495), (0.01139381, 0.02258686, 0.004117164), (-0.012816958, 0.019708548, 0.0041640108), (0.011423407, 0.022954121, -0.00037654542), (-0.012877514, 0.020072617, -0.00032964768), (0.011393956, 0.022439593, -0.004855783), (-0.012816813, 0.019561281, -0.0048089363), (0.011306587, 0.021063058, -0.009148416), (-0.012637186, 0.018194195, -0.00910172), (0.011164658, 0.018877411, -0.013089478), (-0.012345538, 0.016023893, -0.013043027), (0.010973623, 0.015966646, -0.016527519), (-0.011953076, 0.013133779, -0.016481398), (0.010740826, 0.012442622, -0.019330416), (-0.011474882, 0.0096349185, -0.019284695), (0.010475209, 0.008440765, -0.021390455), (-0.010929331, 0.0056617716, -0.021345193), (0.010186983, 0.0041148635, -0.022628471), (-0.010337393, 0.0013670222, -0.022583704)]
}

