#usda 1.0
(
    defaultPrim = "UCX_Dishwasher_Tray_02_028"
    upAxis = "Z"
)

def Mesh "UCX_Dishwasher_Tray_02_028"
{
    int[] faceVertexCounts = [3, 3, 3, 3, 3, 3, 3, 3, 3, 3, 3, 3, 3, 3, 3, 3, 3, 3, 3, 3, 3, 3, 3, 3, 3, 3, 3, 3]
    int[] faceVertexIndices = [0, 1, 2, 0, 2, 3, 3, 2, 4, 3, 4, 5, 5, 4, 6, 5, 6, 7, 7, 6, 8, 7, 8, 9, 9, 8, 10, 9, 10, 11, 11, 10, 12, 11, 12, 13, 4, 2, 1, 1, 14, 12, 12, 10, 8, 8, 6, 4, 4, 1, 12, 12, 8, 4, 13, 12, 14, 13, 14, 15, 15, 14, 1, 15, 1, 0, 15, 0, 3, 3, 5, 7, 7, 9, 11, 11, 13, 15, 15, 3, 7, 7, 11, 15]
    normal3f[] normals = [(0.13677344, 0.99060243, -3.5221095e-8), (-0.13677426, 0.99060225, -4.5580904e-8), (0.6037477, 0.7971755, -3.3261408e-8), (0.13677344, 0.99060243, -3.5221095e-8), (0.6037477, 0.7971755, -3.3261408e-8), (0.7971736, 0.6037503, -6.887299e-8), (0.7971736, 0.6037503, -6.887299e-8), (0.6037477, 0.7971755, -3.3261408e-8), (0.990602, 0.13677554, -8.503393e-9), (0.7971736, 0.6037503, -6.887299e-8), (0.990602, 0.13677554, -8.503393e-9), (0.990602, -0.13677566, -1.23319435e-8), (0.990602, -0.13677566, -1.23319435e-8), (0.990602, 0.13677554, -8.503393e-9), (0.79717386, -0.60374993, -2.6682558e-8), (0.990602, -0.13677566, -1.23319435e-8), (0.79717386, -0.60374993, -2.6682558e-8), (0.6037477, -0.79717547, -6.987089e-8), (0.6037477, -0.79717547, -6.987089e-8), (0.79717386, -0.60374993, -2.6682558e-8), (0.13677426, -0.9906023, -9.837153e-8), (0.6037477, -0.79717547, -6.987089e-8), (0.13677426, -0.9906023, -9.837153e-8), (-0.13677426, -0.9906023, -8.383713e-8), (-0.13677426, -0.9906023, -8.383713e-8), (0.13677426, -0.9906023, -9.837153e-8), (-0.6037488, -0.79717463, -4.5749104e-8), (-0.13677426, -0.9906023, -8.383713e-8), (-0.6037488, -0.79717463, -4.5749104e-8), (-0.79717386, -0.60374993, -4.1216953e-8), (-0.79717386, -0.60374993, -4.1216953e-8), (-0.6037488, -0.79717463, -4.5749104e-8), (-0.99060214, -0.13677552, -9.2848684e-10), (-0.79717386, -0.60374993, -4.1216953e-8), (-0.99060214, -0.13677552, -9.2848684e-10), (-0.990602, 0.13677578, -8.619108e-9), (0.990602, 0.13677554, -8.503393e-9), (0.6037477, 0.7971755, -3.3261408e-8), (-0.13677426, 0.99060225, -4.5580904e-8), (-0.13677426, 0.99060225, -4.5580904e-8), (-0.7971732, 0.60375065, -4.8153368e-8), (-0.99060214, -0.13677552, -9.2848684e-10), (-0.99060214, -0.13677552, -9.2848684e-10), (-0.6037488, -0.79717463, -4.5749104e-8), (0.13677426, -0.9906023, -9.837153e-8), (0.13677426, -0.9906023, -9.837153e-8), (0.79717386, -0.60374993, -2.6682558e-8), (0.990602, 0.13677554, -8.503393e-9), (0.990602, 0.13677554, -8.503393e-9), (-0.13677426, 0.99060225, -4.5580904e-8), (-0.99060214, -0.13677552, -9.2848684e-10), (-0.99060214, -0.13677552, -9.2848684e-10), (0.13677426, -0.9906023, -9.837153e-8), (0.990602, 0.13677554, -8.503393e-9), (-0.990602, 0.13677578, -8.619108e-9), (-0.99060214, -0.13677552, -9.2848684e-10), (-0.7971732, 0.60375065, -4.8153368e-8), (-0.990602, 0.13677578, -8.619108e-9), (-0.7971732, 0.60375065, -4.8153368e-8), (-0.6037472, 0.79717594, -4.1610576e-8), (-0.6037472, 0.79717594, -4.1610576e-8), (-0.7971732, 0.60375065, -4.8153368e-8), (-0.13677426, 0.99060225, -4.5580904e-8), (-0.6037472, 0.79717594, -4.1610576e-8), (-0.13677426, 0.99060225, -4.5580904e-8), (0.13677344, 0.99060243, -3.5221095e-8), (-0.6037472, 0.79717594, -4.1610576e-8), (0.13677344, 0.99060243, -3.5221095e-8), (0.7971736, 0.6037503, -6.887299e-8), (0.7971736, 0.6037503, -6.887299e-8), (0.990602, -0.13677566, -1.23319435e-8), (0.6037477, -0.79717547, -6.987089e-8), (0.6037477, -0.79717547, -6.987089e-8), (-0.13677426, -0.9906023, -8.383713e-8), (-0.79717386, -0.60374993, -4.1216953e-8), (-0.79717386, -0.60374993, -4.1216953e-8), (-0.990602, 0.13677578, -8.619108e-9), (-0.6037472, 0.79717594, -4.1610576e-8), (-0.6037472, 0.79717594, -4.1610576e-8), (0.7971736, 0.6037503, -6.887299e-8), (0.6037477, -0.79717547, -6.987089e-8), (0.6037477, -0.79717547, -6.987089e-8), (-0.79717386, -0.60374993, -4.1216953e-8), (-0.6037472, 0.79717594, -4.1610576e-8)] (
        interpolation = "faceVarying"
    )
    point3f[] points = [(-6.483064e-11, 0.0019999975, -0.035200033), (-6.483064e-11, 0.0019999994, 0.035200007), (0.0014142095, 0.0014142154, 0.035200004), (0.0014142095, 0.0014142101, -0.035200037), (0.002000004, 3.0176124e-9, 0.035200004), (0.002000004, 8.286222e-10, -0.035200033), (0.0014142095, -0.0014142134, 0.035200007), (0.0014142095, -0.0014142089, -0.035200033), (-6.483064e-11, -0.002000001, 0.035200004), (-6.483064e-11, -0.0019999964, -0.035200037), (-0.0014142097, -0.0014142134, 0.035200007), (-0.0014142097, -0.0014142089, -0.035200033), (-0.002000004, 3.0176124e-9, 0.035200004), (-0.002000004, 8.286222e-10, -0.035200033), (-0.0014142097, 0.0014142154, 0.035200004), (-0.0014142097, 0.0014142101, -0.035200037)]
}

