#usda 1.0
(
    defaultPrim = "UCX_Dishwasher_Tray_01_042"
    upAxis = "Z"
)

def Mesh "UCX_Dishwasher_Tray_01_042"
{
    int[] faceVertexCounts = [3, 3, 3, 3, 3, 3, 3, 3, 3, 3, 3, 3]
    int[] faceVertexIndices = [0, 1, 2, 0, 2, 3, 1, 4, 5, 1, 5, 2, 3, 2, 5, 3, 5, 6, 6, 5, 4, 6, 4, 7, 7, 4, 1, 7, 1, 0, 0, 3, 6, 0, 6, 7]
    normal3f[] normals = [(1, -6.537521e-7, 4.68586e-7), (0, 0.8142899, -0.58045834), (1, -6.537521e-7, 4.68586e-7), (1, -6.537521e-7, 4.68586e-7), (1, -6.537521e-7, 4.68586e-7), (1, 0, 0), (0, 0.8142899, -0.58045834), (-1, 0.0000014377572, -5.96178e-8), (0, 0.8833389, 0.46873486), (0, 0.8142899, -0.58045834), (0, 0.8833389, 0.46873486), (1, -6.537521e-7, 4.68586e-7), (1, 0, 0), (1, -6.537521e-7, 4.68586e-7), (0, 0.8833389, 0.46873486), (1, 0, 0), (0, 0.8833389, 0.46873486), (-1, 0.0000014199501, -4.7838828e-8), (-1, 0.0000014199501, -4.7838828e-8), (0, 0.8833389, 0.46873486), (-1, 0.0000014377572, -5.96178e-8), (-1, 0.0000014199501, -4.7838828e-8), (-1, 0.0000014377572, -5.96178e-8), (-1, 0.0000014570302, -2.8563283e-8), (-1, 0.0000014570302, -2.8563283e-8), (-1, 0.0000014377572, -5.96178e-8), (0, 0.8142899, -0.58045834), (-1, 0.0000014570302, -2.8563283e-8), (0, 0.8142899, -0.58045834), (1, -6.537521e-7, 4.68586e-7), (1, -6.537521e-7, 4.68586e-7), (1, 0, 0), (-1, 0.0000014199501, -4.7838828e-8), (1, -6.537521e-7, 4.68586e-7), (-1, 0.0000014199501, -4.7838828e-8), (-1, 0.0000014570302, -2.8563283e-8)] (
        interpolation = "faceVarying"
    )
    point3f[] points = [(0.0021554835, -0.004457062, -0.013491033), (0.0021554984, 0.006146147, -0.0037985933), (0.0021554835, 0.0064930585, 0.0018702411), (0.0021554835, -0.003612389, 0.014591535), (-0.002155482, 0.006146147, -0.0037985933), (-0.002155482, 0.0064930585, 0.0018702411), (-0.002155497, -0.003612389, 0.014591535), (-0.002155497, -0.004457062, -0.013491033)]
}

