#usda 1.0
(
    defaultPrim = "UCX_Kitchen_05_Base_Drawer_03_003"
    upAxis = "Z"
)

def Mesh "UCX_Kitchen_05_Base_Drawer_03_003"
{
    int[] faceVertexCounts = [3, 3, 3, 3, 3, 3, 3, 3, 3, 3, 3, 3]
    int[] faceVertexIndices = [0, 1, 2, 0, 2, 3, 4, 5, 3, 4, 3, 2, 6, 7, 5, 6, 5, 4, 1, 6, 4, 1, 4, 2, 7, 0, 3, 7, 3, 5, 6, 1, 0, 6, 0, 7]
    normal3f[] normals = [(0.9941577, -0.107937634, 0), (0.99415773, -0.10793755, 0), (-0.9994192, -0.03407877, -0), (0.9941577, -0.107937634, 0), (-0.9994192, -0.03407877, -0), (-0.99941915, -0.034078784, -0), (-0.9994192, -0.034078818, -0), (-0.99941915, -0.034078784, -0), (-0.99941915, -0.034078784, -0), (-0.9994192, -0.034078818, -0), (-0.99941915, -0.034078784, -0), (-0.9994192, -0.03407877, -0), (0.9941577, -0.10793758, 0), (0.9941577, -0.107937634, 0), (-0.99941915, -0.034078784, -0), (0.9941577, -0.10793758, 0), (-0.99941915, -0.034078784, -0), (-0.9994192, -0.034078818, -0), (0.99415773, -0.10793755, 0), (0.9941577, -0.10793758, 0), (-0.9994192, -0.034078818, -0), (0.99415773, -0.10793755, 0), (-0.9994192, -0.034078818, -0), (-0.9994192, -0.03407877, -0), (0.9941577, -0.107937634, 0), (0.9941577, -0.107937634, 0), (-0.99941915, -0.034078784, -0), (0.9941577, -0.107937634, 0), (-0.99941915, -0.034078784, -0), (-0.99941915, -0.034078784, -0), (0.9941577, -0.10793758, 0), (0.99415773, -0.10793755, 0), (0.9941577, -0.107937634, 0), (0.9941577, -0.10793758, 0), (0.9941577, -0.107937634, 0), (0.9941577, -0.107937634, 0)] (
        interpolation = "faceVarying"
    )
    point3f[] points = [(0.0024702947, -0.02142041, 0.23762637), (0.006269102, 0.013568449, 0.23762637), (-0.005246243, 0.017658709, 0.23762637), (-0.004112916, -0.015578108, 0.23762637), (-0.005246243, 0.017658709, -0.2376263), (-0.004112916, -0.015578108, -0.2376263), (0.006269102, 0.013568449, -0.2376263), (0.0024702947, -0.02142041, -0.2376263)]
}

