#usda 1.0
(
    defaultPrim = "UCX_Dishwasher_Tray_01_040"
    upAxis = "Z"
)

def Mesh "UCX_Dishwasher_Tray_01_040"
{
    int[] faceVertexCounts = [3, 3, 3, 3, 3, 3, 3, 3, 3, 3, 3, 3]
    int[] faceVertexIndices = [0, 1, 2, 0, 2, 3, 1, 4, 5, 1, 5, 2, 3, 2, 5, 3, 5, 6, 6, 5, 4, 6, 4, 7, 7, 4, 1, 7, 1, 0, 0, 3, 6, 0, 6, 7]
    normal3f[] normals = [(1, -3.2687606e-7, 2.34293e-7), (0, 0.8142901, -0.5804582), (1, -3.2687606e-7, 2.34293e-7), (1, -3.2687606e-7, 2.34293e-7), (1, -3.2687606e-7, 2.34293e-7), (1, 0, 0), (0, 0.8142901, -0.5804582), (-1, 7.0997504e-7, -2.3919387e-8), (0, 0.8833389, 0.4687349), (0, 0.8142901, -0.5804582), (0, 0.8833389, 0.4687349), (1, -3.2687606e-7, 2.34293e-7), (1, 0, 0), (1, -3.2687606e-7, 2.34293e-7), (0, 0.8833389, 0.4687349), (1, 0, 0), (0, 0.8833389, 0.4687349), (-1, 7.176131e-7, -1.6925355e-8), (-1, 7.176131e-7, -1.6925355e-8), (0, 0.8833389, 0.4687349), (-1, 7.0997504e-7, -2.3919387e-8), (-1, 7.176131e-7, -1.6925355e-8), (-1, 7.0997504e-7, -2.3919387e-8), (-1, 7.099842e-7, -3.1249975e-8), (-1, 7.099842e-7, -3.1249975e-8), (-1, 7.0997504e-7, -2.3919387e-8), (0, 0.8142901, -0.5804582), (-1, 7.099842e-7, -3.1249975e-8), (0, 0.8142901, -0.5804582), (1, -3.2687606e-7, 2.34293e-7), (1, -3.2687606e-7, 2.34293e-7), (1, 0, 0), (-1, 7.176131e-7, -1.6925355e-8), (1, -3.2687606e-7, 2.34293e-7), (-1, 7.176131e-7, -1.6925355e-8), (-1, 7.099842e-7, -3.1249975e-8)] (
        interpolation = "faceVarying"
    )
    point3f[] points = [(0.0021554937, -0.004457062, -0.013491032), (0.0021555012, 0.0061461465, -0.0037985921), (0.0021554937, 0.0064930585, 0.0018702417), (0.0021554937, -0.0036123903, 0.014591536), (-0.0021554867, 0.0061461465, -0.0037985921), (-0.0021554867, 0.0064930585, 0.0018702417), (-0.0021554942, -0.0036123903, 0.014591536), (-0.0021554942, -0.004457062, -0.013491032)]
}

