#usda 1.0
(
    defaultPrim = "UCX_Dishwasher_Tray_01_132"
    upAxis = "Z"
)

def Mesh "UCX_Dishwasher_Tray_01_132"
{
    int[] faceVertexCounts = [3, 3, 3, 3, 3, 3, 3, 3, 3, 3, 3, 3, 3, 3, 3, 3, 3, 3, 3, 3, 3, 3, 3, 3, 3, 3, 3, 3]
    int[] faceVertexIndices = [0, 1, 2, 0, 2, 3, 3, 2, 4, 3, 4, 5, 5, 4, 6, 5, 6, 7, 7, 6, 8, 7, 8, 9, 9, 8, 10, 9, 10, 11, 11, 10, 12, 11, 12, 13, 4, 2, 1, 1, 14, 12, 12, 10, 8, 8, 6, 4, 4, 1, 12, 12, 8, 4, 13, 12, 14, 13, 14, 15, 15, 14, 1, 15, 1, 0, 15, 0, 3, 3, 5, 7, 7, 9, 11, 11, 13, 15, 15, 3, 7, 7, 11, 15]
    normal3f[] normals = [(-0.99060255, -0.13677196, 4.7946916e-8), (-0.9906021, 0.13677537, 3.934104e-8), (-0.7971756, -0.6037476, 6.591974e-8), (-0.99060255, -0.13677196, 4.7946916e-8), (-0.7971756, -0.6037476, 6.591974e-8), (-0.60374767, -0.7971755, 6.603683e-8), (-0.60374767, -0.7971755, 6.603683e-8), (-0.7971756, -0.6037476, 6.591974e-8), (-0.13677196, -0.99060255, 4.2151132e-8), (-0.60374767, -0.7971755, 6.603683e-8), (-0.13677196, -0.99060255, 4.2151132e-8), (0.13677196, -0.99060255, 2.8042212e-8), (0.13677196, -0.99060255, 2.8042212e-8), (-0.13677196, -0.99060255, 4.2151132e-8), (0.6037454, -0.79717726, 1.8733892e-9), (0.13677196, -0.99060255, 2.8042212e-8), (0.6037454, -0.79717726, 1.8733892e-9), (0.7971755, -0.60374767, -1.2177004e-8), (0.7971755, -0.60374767, -1.2177004e-8), (0.6037454, -0.79717726, 1.8733892e-9), (0.9906022, -0.13677491, -5.011282e-8), (0.7971755, -0.60374767, -1.2177004e-8), (0.9906022, -0.13677491, -5.011282e-8), (0.9906027, 0.1367715, -5.871867e-8), (0.9906027, 0.1367715, -5.871867e-8), (0.9906022, -0.13677491, -5.011282e-8), (0.79717386, 0.6037498, -6.141178e-8), (0.9906027, 0.1367715, -5.871867e-8), (0.79717386, 0.6037498, -6.141178e-8), (0.6037438, 0.79717845, -5.058137e-8), (0.6037438, 0.79717845, -5.058137e-8), (0.79717386, 0.6037498, -6.141178e-8), (0.13677196, 0.99060255, -3.653098e-8), (0.6037438, 0.79717845, -5.058137e-8), (0.13677196, 0.99060255, -3.653098e-8), (-0.13677244, 0.9906025, -2.3593007e-8), (-0.13677196, -0.99060255, 4.2151132e-8), (-0.7971756, -0.6037476, 6.591974e-8), (-0.9906021, 0.13677537, 3.934104e-8), (-0.9906021, 0.13677537, 3.934104e-8), (-0.6037493, 0.7971743, 1.3464994e-8), (0.13677196, 0.99060255, -3.653098e-8), (0.13677196, 0.99060255, -3.653098e-8), (0.79717386, 0.6037498, -6.141178e-8), (0.9906022, -0.13677491, -5.011282e-8), (0.9906022, -0.13677491, -5.011282e-8), (0.6037454, -0.79717726, 1.8733892e-9), (-0.13677196, -0.99060255, 4.2151132e-8), (-0.13677196, -0.99060255, 4.2151132e-8), (-0.9906021, 0.13677537, 3.934104e-8), (0.13677196, 0.99060255, -3.653098e-8), (0.13677196, 0.99060255, -3.653098e-8), (0.9906022, -0.13677491, -5.011282e-8), (-0.13677196, -0.99060255, 4.2151132e-8), (-0.13677244, 0.9906025, -2.3593007e-8), (0.13677196, 0.99060255, -3.653098e-8), (-0.6037493, 0.7971743, 1.3464994e-8), (-0.13677244, 0.9906025, -2.3593007e-8), (-0.6037493, 0.7971743, 1.3464994e-8), (-0.7971755, 0.60374767, 1.7797161e-8), (-0.7971755, 0.60374767, 1.7797161e-8), (-0.6037493, 0.7971743, 1.3464994e-8), (-0.9906021, 0.13677537, 3.934104e-8), (-0.7971755, 0.60374767, 1.7797161e-8), (-0.9906021, 0.13677537, 3.934104e-8), (-0.99060255, -0.13677196, 4.7946916e-8), (-0.7971755, 0.60374767, 1.7797161e-8), (-0.99060255, -0.13677196, 4.7946916e-8), (-0.60374767, -0.7971755, 6.603683e-8), (-0.60374767, -0.7971755, 6.603683e-8), (0.13677196, -0.99060255, 2.8042212e-8), (0.7971755, -0.60374767, -1.2177004e-8), (0.7971755, -0.60374767, -1.2177004e-8), (0.9906027, 0.1367715, -5.871867e-8), (0.6037438, 0.79717845, -5.058137e-8), (0.6037438, 0.79717845, -5.058137e-8), (-0.13677244, 0.9906025, -2.3593007e-8), (-0.7971755, 0.60374767, 1.7797161e-8), (-0.7971755, 0.60374767, 1.7797161e-8), (-0.60374767, -0.7971755, 6.603683e-8), (0.7971755, -0.60374767, -1.2177004e-8), (0.7971755, -0.60374767, -1.2177004e-8), (0.6037438, 0.79717845, -5.058137e-8), (-0.7971755, 0.60374767, 1.7797161e-8)] (
        interpolation = "faceVarying"
    )
    point3f[] points = [(-0.0019999947, 1.4796165e-8, 0.22670773), (-0.0020000096, -1.5006158e-8, -0.22670773), (-0.00141423, -0.0014142246, -0.22670773), (-0.0014142002, -0.0014142097, 0.22670773), (-2.0422199e-8, -0.002000004, -0.22670773), (9.380123e-9, -0.0019999892, 0.22670773), (0.0014142041, -0.0014142246, -0.22670773), (0.001414219, -0.0014142097, 0.22670773), (0.0019999836, -1.5006158e-8, -0.22670773), (0.0020000134, 1.4796165e-8, 0.22670773), (0.0014142041, 0.0014142095, -0.22670773), (0.001414219, 0.0014142244, 0.22670773), (-2.0422199e-8, 0.0019999892, -0.22670773), (9.380123e-9, 0.002000004, 0.22670773), (-0.00141423, 0.0014142095, -0.22670773), (-0.0014142002, 0.0014142244, 0.22670773)]
}

