#usda 1.0
(
    defaultPrim = "UCX_Kitchen_06_Base_Drawer_01_003"
    upAxis = "Z"
)

def Mesh "UCX_Kitchen_06_Base_Drawer_01_003"
{
    int[] faceVertexCounts = [3, 3, 3, 3, 3, 3, 3, 3, 3, 3, 3, 3]
    int[] faceVertexIndices = [0, 1, 2, 0, 2, 3, 4, 5, 3, 4, 3, 2, 6, 7, 5, 6, 5, 4, 1, 6, 4, 1, 4, 2, 7, 0, 3, 7, 3, 5, 6, 1, 0, 6, 0, 7]
    normal3f[] normals = [(0.9941576, -0.10793784, 0), (0.9941578, -0.107937746, 0), (-0.9994191, -0.034078952, -0), (0.9941576, -0.10793784, 0), (-0.9994191, -0.034078952, -0), (-0.99941915, -0.034078985, -0), (-0.9994192, -0.03407902, -0), (-0.99941915, -0.034078985, -0), (-0.99941915, -0.034078985, -0), (-0.9994192, -0.03407902, -0), (-0.99941915, -0.034078985, -0), (-0.9994191, -0.034078952, -0), (0.99415773, -0.107937776, 0), (0.99415773, -0.107937776, 0), (-0.99941915, -0.034078985, -0), (0.99415773, -0.107937776, 0), (-0.99941915, -0.034078985, -0), (-0.9994192, -0.03407902, -0), (0.9941578, -0.107937746, 0), (0.99415773, -0.107937776, 0), (-0.9994192, -0.03407902, -0), (0.9941578, -0.107937746, 0), (-0.9994192, -0.03407902, -0), (-0.9994191, -0.034078952, -0), (0.99415773, -0.107937776, 0), (0.9941576, -0.10793784, 0), (-0.99941915, -0.034078985, -0), (0.99415773, -0.107937776, 0), (-0.99941915, -0.034078985, -0), (-0.99941915, -0.034078985, -0), (0.99415773, -0.107937776, 0), (0.9941578, -0.107937746, 0), (0.9941576, -0.10793784, 0), (0.99415773, -0.107937776, 0), (0.9941576, -0.10793784, 0), (0.99415773, -0.107937776, 0)] (
        interpolation = "faceVarying"
    )
    point3f[] points = [(0.0024702942, -0.021420423, 0.23762634), (0.006269108, 0.013568441, 0.23762634), (-0.005246243, 0.017658697, 0.23762634), (-0.0041129095, -0.015578115, 0.23762634), (-0.005246243, 0.017658697, -0.23762634), (-0.0041129095, -0.015578115, -0.23762634), (0.006269108, 0.013568441, -0.23762634), (0.0024702942, -0.021420423, -0.23762634)]
}

