#usda 1.0
(
    defaultPrim = "UCX_Counter_Watertab_003"
    upAxis = "Z"
)

def Mesh "UCX_Counter_Watertab_003"
{
    int[] faceVertexCounts = [3, 3, 3, 3, 3, 3, 3, 3, 3, 3, 3, 3, 3, 3, 3, 3, 3, 3, 3, 3, 3, 3, 3, 3, 3, 3, 3, 3, 3, 3, 3, 3, 3, 3, 3, 3, 3, 3, 3, 3, 3, 3, 3, 3, 3, 3, 3, 3, 3, 3, 3, 3, 3, 3, 3, 3, 3, 3, 3, 3, 3, 3, 3, 3]
    int[] faceVertexIndices = [0, 1, 2, 0, 2, 3, 4, 5, 1, 4, 1, 0, 6, 7, 5, 6, 5, 4, 8, 9, 7, 8, 7, 6, 10, 11, 9, 10, 9, 8, 12, 13, 11, 12, 11, 10, 14, 15, 13, 14, 13, 12, 16, 17, 15, 16, 15, 14, 18, 19, 17, 18, 17, 16, 20, 21, 19, 20, 19, 18, 22, 23, 21, 22, 21, 20, 24, 25, 23, 24, 23, 22, 26, 27, 25, 26, 25, 24, 28, 29, 27, 28, 27, 26, 30, 31, 29, 30, 29, 28, 32, 33, 31, 32, 31, 30, 34, 35, 33, 34, 33, 32, 36, 37, 35, 36, 35, 34, 38, 39, 37, 38, 37, 36, 40, 41, 39, 40, 39, 38, 42, 43, 41, 42, 41, 40, 44, 45, 43, 44, 43, 42, 46, 47, 45, 46, 45, 44, 48, 49, 47, 48, 47, 46, 50, 51, 49, 50, 49, 48, 52, 53, 51, 52, 51, 50, 54, 55, 53, 54, 53, 52, 56, 57, 55, 56, 55, 54, 58, 59, 57, 58, 57, 56, 60, 61, 59, 60, 59, 58, 62, 63, 61, 62, 61, 60, 3, 2, 63, 3, 63, 62]
    normal3f[] normals = [(0.98663145, 0.15294625, 0.05626703), (0.9753511, 0.21355587, 0.055535946), (0.99794483, 0.029349614, 0.056963373), (0.98663145, 0.15294625, 0.05626703), (0.99794483, 0.029349614, 0.056963373), (0.99784225, -0.032633204, 0.056973696), (0.9409338, 0.33433867, 0.053490914), (0.91850454, 0.39196792, 0.052063588), (0.9753511, 0.21355587, 0.055535946), (0.9409338, 0.33433867, 0.053490914), (0.9753511, 0.21355587, 0.055535946), (0.98663145, 0.15294625, 0.05626703), (0.86106926, 0.5061509, 0.04869275), (0.82779354, 0.5590934, 0.046608694), (0.91850454, 0.39196792, 0.052063588), (0.86106926, 0.5061509, 0.04869275), (0.91850454, 0.39196792, 0.052063588), (0.9409338, 0.33433867, 0.053490914), (0.74799997, 0.66236985, 0.041978646), (0.7043793, 0.7087351, 0.03929961), (0.82779354, 0.5590934, 0.046608694), (0.74799997, 0.66236985, 0.041978646), (0.82779354, 0.5590934, 0.046608694), (0.86106926, 0.5061509, 0.04869275), (0.60390824, 0.7963477, 0.033545364), (0.55085397, 0.8340492, 0.0303661), (0.7043793, 0.7087351, 0.03929961), (0.60390824, 0.7963477, 0.033545364), (0.7043793, 0.7087351, 0.03929961), (0.74799997, 0.66236985, 0.041978646), (0.43284702, 0.90115553, 0.02371143), (0.37189025, 0.9280576, 0.020168629), (0.55085397, 0.8340492, 0.0303661), (0.43284702, 0.90115553, 0.02371143), (0.55085397, 0.8340492, 0.0303661), (0.60390824, 0.7963477, 0.033545364), (0.24116722, 0.9703975, 0.012931975), (0.17460229, 0.9845961, 0.009205666), (0.37189025, 0.9280576, 0.020168629), (0.24116722, 0.9703975, 0.012931975), (0.37189025, 0.9280576, 0.020168629), (0.43284702, 0.90115553, 0.02371143), (0.03746134, 0.9992965, 0.0017784334), (-0.031704497, 0.99949545, -0.0019203787), (0.17460229, 0.9845961, 0.009205666), (0.03746134, 0.9992965, 0.0017784334), (0.17460229, 0.9845961, 0.009205666), (0.24116722, 0.9703975, 0.012931975), (-0.1681723, 0.98571545, -0.009123125), (-0.23648013, 0.9715549, -0.012578547), (-0.031704497, 0.99949545, -0.0019203787), (-0.1681723, 0.98571545, -0.009123125), (-0.031704497, 0.99949545, -0.0019203787), (0.03746134, 0.9992965, 0.0017784334), (-0.36538443, 0.93065906, -0.019181741), (-0.42936316, 0.9028589, -0.02220796), (-0.23648013, 0.9715549, -0.012578547), (-0.36538443, 0.93065906, -0.019181741), (-0.23648013, 0.9715549, -0.012578547), (-0.1681723, 0.98571545, -0.009123125), (-0.5449283, 0.83801734, -0.027930763), (-0.6015307, 0.7982711, -0.030402595), (-0.42936316, 0.9028589, -0.02220796), (-0.5449283, 0.83801734, -0.027930763), (-0.42936316, 0.9028589, -0.02220796), (-0.36538443, 0.93065906, -0.019181741), (-0.69958615, 0.7136865, -0.035082012), (-0.7464991, 0.6643596, -0.03695036), (-0.6015307, 0.7982711, -0.030402595), (-0.69958615, 0.7136865, -0.035082012), (-0.6015307, 0.7982711, -0.030402595), (-0.5449283, 0.83801734, -0.027930763), (-0.82445943, 0.56446785, -0.040531088), (-0.8602122, 0.50821865, -0.041818283), (-0.7464991, 0.6643596, -0.03695036), (-0.82445943, 0.56446785, -0.040531088), (-0.7464991, 0.6643596, -0.03695036), (-0.69958615, 0.7136865, -0.035082012), (-0.9166825, 0.39715126, -0.04431798), (-0.9405657, 0.3366046, -0.045095067), (-0.8602122, 0.50821865, -0.041818283), (-0.9166825, 0.39715126, -0.04431798), (-0.8602122, 0.50821865, -0.041818283), (-0.82445943, 0.56446785, -0.040531088), (-0.9748323, 0.21802315, -0.046561413), (-0.9867146, 0.15554237, -0.04691318), (-0.9405657, 0.3366046, -0.045095067), (-0.9748323, 0.21802315, -0.046561413), (-0.9405657, 0.3366046, -0.045095067), (-0.9166825, 0.39715126, -0.04431798), (-0.9983398, 0.03274867, -0.047384035), (-0.99843687, -0.02965902, -0.047373373), (-0.9867146, 0.15554237, -0.04691318), (-0.9983398, 0.03274867, -0.047384035), (-0.9867146, 0.15554237, -0.04691318), (-0.9748323, 0.21802315, -0.046561413), (-0.9870495, -0.15342118, -0.0468534), (-0.97571313, -0.21406077, -0.046497494), (-0.99843687, -0.02965902, -0.047373373), (-0.9870495, -0.15342118, -0.0468534), (-0.99843687, -0.02965902, -0.047373373), (-0.9983398, 0.03274867, -0.047384035), (-0.9410362, -0.33530617, -0.044952493), (-0.91861874, -0.39266354, -0.044216853), (-0.97571313, -0.21406077, -0.046497494), (-0.9410362, -0.33530617, -0.044952493), (-0.97571313, -0.21406077, -0.046497494), (-0.9870495, -0.15342118, -0.0468534), (-0.8606917, -0.507425, -0.04159085), (-0.8275295, -0.5599666, -0.04040296), (-0.91861874, -0.39266354, -0.044216853), (-0.8606917, -0.507425, -0.04159085), (-0.91861874, -0.39266354, -0.044216853), (-0.9410362, -0.33530617, -0.044952493), (-0.74707335, -0.6637307, -0.036648963), (-0.70361406, -0.7097233, -0.03492811), (-0.8275295, -0.5599666, -0.04040296), (-0.74707335, -0.6637307, -0.036648963), (-0.8275295, -0.5599666, -0.04040296), (-0.8606917, -0.507425, -0.04159085), (-0.6024615, -0.79758203, -0.030050537), (-0.54951775, -0.83502126, -0.027744139), (-0.70361406, -0.7097233, -0.03492811), (-0.6024615, -0.79758203, -0.030050537), (-0.70361406, -0.7097233, -0.03492811), (-0.74707335, -0.6637307, -0.036648963), (-0.43097535, -0.9020995, -0.021836223), (-0.3700214, -0.9288299, -0.018952005), (-0.54951775, -0.83502126, -0.027744139), (-0.43097535, -0.9020995, -0.021836223), (-0.54951775, -0.83502126, -0.027744139), (-0.6024615, -0.79758203, -0.030050537), (-0.239009, -0.9709405, -0.012218203), (-0.17237584, -0.9849916, -0.008843391), (-0.3700214, -0.9288299, -0.018952005), (-0.239009, -0.9709405, -0.012218203), (-0.3700214, -0.9288299, -0.018952005), (-0.43097535, -0.9020995, -0.021836223), (-0.03516981, -0.9993802, -0.0015946024), (0.034000196, -0.9994196, 0.0021046314), (-0.17237584, -0.9849916, -0.008843391), (-0.03516981, -0.9993802, -0.0015946024), (-0.17237584, -0.9849916, -0.008843391), (-0.239009, -0.9709405, -0.012218203), (0.1704338, -0.9853235, 0.009486163), (0.23852731, -0.9710449, 0.0132884), (0.034000196, -0.9994196, 0.0021046314), (0.1704338, -0.9853235, 0.009486163), (0.034000196, -0.9994196, 0.0021046314), (-0.03516981, -0.9993802, -0.0015946024), (0.36744645, -0.9298209, 0.020404654), (0.4309099, -0.90207386, 0.024071472), (0.23852731, -0.9710449, 0.0132884), (0.36744645, -0.9298209, 0.020404654), (0.23852731, -0.9710449, 0.0132884), (0.1704338, -0.9853235, 0.009486163), (0.5466232, -0.8368208, 0.03056475), (0.6024612, -0.7974289, 0.033879053), (0.4309099, -0.90207386, 0.024071472), (0.5466232, -0.8368208, 0.03056475), (0.4309099, -0.90207386, 0.024071472), (0.36744645, -0.9298209, 0.020404654), (0.7007764, -0.71228844, 0.039467715), (0.7468449, -0.6636542, 0.042259604), (0.6024612, -0.7974289, 0.033879053), (0.7007764, -0.71228844, 0.039467715), (0.6024612, -0.7974289, 0.033879053), (0.5466232, -0.8368208, 0.03056475), (0.8250801, -0.56307864, 0.04674853), (0.8601047, -0.5077681, 0.04890329), (0.7468449, -0.6636542, 0.042259604), (0.8250801, -0.56307864, 0.04674853), (0.7468449, -0.6636542, 0.042259604), (0.7007764, -0.71228844, 0.039467715), (0.91676307, -0.39600986, 0.05217097), (0.9401771, -0.33643946, 0.053623583), (0.8601047, -0.5077681, 0.04890329), (0.91676307, -0.39600986, 0.05217097), (0.8601047, -0.5077681, 0.04890329), (0.8250801, -0.56307864, 0.04674853), (0.9745131, -0.21733077, 0.05560109), (0.9862079, -0.15563315, 0.056323804), (0.9401771, -0.33643946, 0.053623583), (0.9745131, -0.21733077, 0.05560109), (0.9401771, -0.33643946, 0.053623583), (0.91676307, -0.39600986, 0.05217097), (0.99784225, -0.032633204, 0.056973696), (0.99794483, 0.029349614, 0.056963373), (0.9862079, -0.15563315, 0.056323804), (0.99784225, -0.032633204, 0.056973696), (0.9862079, -0.15563315, 0.056323804), (0.9745131, -0.21733077, 0.05560109)] (
        interpolation = "faceVarying"
    )
    point3f[] points = [(0.012211906, 0.0025111132, -0.019278996), (0.009924059, 0.0025216287, 0.020822564), (0.01014988, -0.000014940787, 0.020917753), (0.012448937, -0.000025501691, -0.019341102), (0.011500794, 0.004951138, -0.019094242), (0.009246145, 0.0049615195, 0.020541482), (0.01034292, 0.0072008036, -0.018793946), (0.008142183, 0.0072109676, 0.020085284), (0.008782789, 0.009173656, -0.018389642), (0.006654609, 0.009183527, 0.019471528), (0.006880349, 0.0107938815, -0.017896881), (0.00484057, 0.010803393, 0.01872377), (0.0047087222, 0.011999209, -0.017334586), (0.0027698039, 0.012008316, 0.017870782), (0.0023513485, 0.012743329, -0.016724374), (0.0005218598, 0.012751993, 0.016945317), (-0.00010117645, 0.012997642, -0.016089687), (-0.0018168404, 0.013005843, 0.015982948), (-0.0025545955, 0.012752365, -0.015454926), (-0.0041564456, 0.01276011, 0.015020665), (-0.0049146395, 0.012016936, -0.014844472), (-0.0064070444, 0.012024239, 0.014095447), (-0.0070905983, 0.010819616, -0.014281797), (-0.008482142, 0.01082651, 0.013242827), (-0.008998857, 0.0092064105, -0.013788517), (-0.010302001, 0.009212949, 0.012495601), (-0.010566082, 0.007239319, -0.013383594), (-0.011796679, 0.0072455644, 0.011882462), (-0.01173205, 0.0049939337, -0.0130825825), (-0.012908726, 0.0049999617, 0.011426991), (-0.01245194, 0.002556545, -0.0128970435), (-0.013595428, 0.0025624388, 0.011146681), (-0.012698106, 0.000020820076, -0.01283413), (-0.013830384, 0.000026668664, 0.011052302), (-0.012461075, -0.0025157947, -0.012896235), (-0.013604562, -0.0025099008, 0.011147491), (-0.011749968, -0.0049558217, -0.0130809955), (-0.012926644, -0.0049497928, 0.011428578), (-0.010592094, -0.007205486, -0.01338129), (-0.011822691, -0.00719924, 0.011884766), (-0.009031964, -0.009178337, -0.013785585), (-0.010335107, -0.009171798, 0.012498533), (-0.0071295276, -0.010798562, -0.0142783495), (-0.008521072, -0.010791667, 0.013246275), (-0.0049578957, -0.012003892, -0.014840641), (-0.0064503, -0.01199659, 0.014099278), (-0.0026005157, -0.012748011, -0.0154508585), (-0.004202366, -0.0127402665, 0.015024732), (-0.00014799634, -0.013002321, -0.01608554), (-0.0018636603, -0.012994117, 0.015987096), (0.0023054283, -0.012757048, -0.016720306), (0.00047593954, -0.012748384, 0.016949384), (0.0046654665, -0.012021619, -0.017330755), (0.002726548, -0.012012512, 0.017874613), (0.0068414197, -0.010824298, -0.017893434), (0.0048016408, -0.010814783, 0.018727217), (0.008749682, -0.009211091, -0.01838671), (0.0066215023, -0.00920122, 0.01947446), (0.010316908, -0.0072440007, -0.018791644), (0.008116171, -0.007233837, 0.020087589), (0.011482877, -0.0049986173, -0.019092655), (0.009228229, -0.004988235, 0.020543069), (0.012202771, -0.0025612263, -0.019278187), (0.009914925, -0.0025507107, 0.020823374)]
}

