#usda 1.0
(
    defaultPrim = "UCX_Dishwasher_Tray_02_009"
    upAxis = "Z"
)

def Mesh "UCX_Dishwasher_Tray_02_009"
{
    int[] faceVertexCounts = [3, 3, 3, 3, 3, 3, 3, 3, 3, 3, 3, 3, 3, 3, 3, 3, 3, 3, 3, 3, 3, 3, 3, 3, 3, 3, 3, 3]
    int[] faceVertexIndices = [0, 1, 2, 0, 2, 3, 3, 2, 4, 3, 4, 5, 5, 4, 6, 5, 6, 7, 7, 6, 8, 7, 8, 9, 9, 8, 10, 9, 10, 11, 11, 10, 12, 11, 12, 13, 4, 2, 1, 1, 14, 12, 12, 10, 8, 8, 6, 4, 4, 1, 12, 12, 8, 4, 13, 12, 14, 13, 14, 15, 15, 14, 1, 15, 1, 0, 15, 0, 3, 3, 5, 7, 7, 9, 11, 11, 13, 15, 15, 3, 7, 7, 11, 15]
    normal3f[] normals = [(0.13677357, 0.99060243, -4.623846e-8), (-0.13677356, 0.9906023, -7.2524195e-8), (0.6037477, 0.7971755, -2.7593105e-8), (0.13677357, 0.99060243, -4.623846e-8), (0.6037477, 0.7971755, -2.7593105e-8), (0.7971757, 0.60374737, -8.794431e-9), (0.7971757, 0.60374737, -8.794431e-9), (0.6037477, 0.7971755, -2.7593105e-8), (0.9906026, 0.13677227, -8.249765e-9), (0.7971757, 0.60374737, -8.794431e-9), (0.9906026, 0.13677227, -8.249765e-9), (0.9906026, -0.13677225, -6.632513e-9), (0.9906026, -0.13677225, -6.632513e-9), (0.9906026, 0.13677227, -8.249765e-9), (0.79717636, -0.60374653, -2.3829845e-8), (0.9906026, -0.13677225, -6.632513e-9), (0.79717636, -0.60374653, -2.3829845e-8), (0.6037477, -0.79717547, -3.1936008e-8), (0.6037477, -0.79717547, -3.1936008e-8), (0.79717636, -0.60374653, -2.3829845e-8), (0.13677356, -0.99060243, -7.003671e-8), (0.6037477, -0.79717547, -3.1936008e-8), (0.13677356, -0.99060243, -7.003671e-8), (-0.13677356, -0.99060243, -4.096792e-8), (-0.13677356, -0.99060243, -4.096792e-8), (0.13677356, -0.99060243, -7.003671e-8), (-0.6037488, -0.79717463, -3.688302e-8), (-0.13677356, -0.99060243, -4.096792e-8), (-0.6037488, -0.79717463, -3.688302e-8), (-0.79717636, -0.60374653, -2.3829845e-8), (-0.79717636, -0.60374653, -2.3829845e-8), (-0.6037488, -0.79717463, -3.688302e-8), (-0.9906026, -0.13677226, -1.3551829e-8), (-0.79717636, -0.60374653, -2.3829845e-8), (-0.9906026, -0.13677226, -1.3551829e-8), (-0.9906025, 0.13677247, -5.505037e-9), (0.9906026, 0.13677227, -8.249765e-9), (0.6037477, 0.7971755, -2.7593105e-8), (-0.13677356, 0.9906023, -7.2524195e-8), (-0.13677356, 0.9906023, -7.2524195e-8), (-0.7971757, 0.60374737, -2.3328827e-8), (-0.9906026, -0.13677226, -1.3551829e-8), (-0.9906026, -0.13677226, -1.3551829e-8), (-0.6037488, -0.79717463, -3.688302e-8), (0.13677356, -0.99060243, -7.003671e-8), (0.13677356, -0.99060243, -7.003671e-8), (0.79717636, -0.60374653, -2.3829845e-8), (0.9906026, 0.13677227, -8.249765e-9), (0.9906026, 0.13677227, -8.249765e-9), (-0.13677356, 0.9906023, -7.2524195e-8), (-0.9906026, -0.13677226, -1.3551829e-8), (-0.9906026, -0.13677226, -1.3551829e-8), (0.13677356, -0.99060243, -7.003671e-8), (0.9906026, 0.13677227, -8.249765e-9), (-0.9906025, 0.13677247, -5.505037e-9), (-0.9906026, -0.13677226, -1.3551829e-8), (-0.7971757, 0.60374737, -2.3328827e-8), (-0.9906025, 0.13677247, -5.505037e-9), (-0.7971757, 0.60374737, -2.3328827e-8), (-0.60374767, 0.79717547, -2.6201576e-8), (-0.60374767, 0.79717547, -2.6201576e-8), (-0.7971757, 0.60374737, -2.3328827e-8), (-0.13677356, 0.9906023, -7.2524195e-8), (-0.60374767, 0.79717547, -2.6201576e-8), (-0.13677356, 0.9906023, -7.2524195e-8), (0.13677357, 0.99060243, -4.623846e-8), (-0.60374767, 0.79717547, -2.6201576e-8), (0.13677357, 0.99060243, -4.623846e-8), (0.7971757, 0.60374737, -8.794431e-9), (0.7971757, 0.60374737, -8.794431e-9), (0.9906026, -0.13677225, -6.632513e-9), (0.6037477, -0.79717547, -3.1936008e-8), (0.6037477, -0.79717547, -3.1936008e-8), (-0.13677356, -0.99060243, -4.096792e-8), (-0.79717636, -0.60374653, -2.3829845e-8), (-0.79717636, -0.60374653, -2.3829845e-8), (-0.9906025, 0.13677247, -5.505037e-9), (-0.60374767, 0.79717547, -2.6201576e-8), (-0.60374767, 0.79717547, -2.6201576e-8), (0.7971757, 0.60374737, -8.794431e-9), (0.6037477, -0.79717547, -3.1936008e-8), (0.6037477, -0.79717547, -3.1936008e-8), (-0.79717636, -0.60374653, -2.3829845e-8), (-0.60374767, 0.79717547, -2.6201576e-8)] (
        interpolation = "faceVarying"
    )
    point3f[] points = [(-5.960449e-11, 0.0019999982, -0.03520003), (-5.960449e-11, 0.0020000024, 0.035200007), (0.0014142169, 0.001414215, 0.035200004), (0.0014142169, 0.0014142107, -0.035200033), (0.0019999966, 5.2259024e-9, 0.035200007), (0.0019999966, 1.4325018e-9, -0.03520003), (0.0014142169, -0.0014142112, 0.035200007), (0.0014142169, -0.0014142074, -0.03520003), (-5.960449e-11, -0.0019999987, 0.035200004), (-5.960449e-11, -0.0019999947, -0.035200033), (-0.0014142172, -0.0014142112, 0.035200007), (-0.0014142172, -0.0014142074, -0.03520003), (-0.0019999966, 5.2259024e-9, 0.035200007), (-0.0019999966, 1.4325018e-9, -0.03520003), (-0.0014142172, 0.001414215, 0.035200004), (-0.0014142172, 0.0014142107, -0.035200033)]
}

