#usda 1.0
(
    defaultPrim = "UCX_Kitchen_05_Base_Drawer_01_003"
    upAxis = "Z"
)

def Mesh "UCX_Kitchen_05_Base_Drawer_01_003"
{
    int[] faceVertexCounts = [3, 3, 3, 3, 3, 3, 3, 3, 3, 3, 3, 3]
    int[] faceVertexIndices = [0, 1, 2, 0, 2, 3, 4, 5, 3, 4, 3, 2, 6, 7, 5, 6, 5, 4, 1, 6, 4, 1, 4, 2, 7, 0, 3, 7, 3, 5, 6, 1, 0, 6, 0, 7]
    normal3f[] normals = [(0.9941576, -0.107937865, 0), (0.9941578, -0.10793776, 0), (-0.9994191, -0.034078937, -0), (0.9941576, -0.107937865, 0), (-0.9994191, -0.034078937, -0), (-0.99941915, -0.03407897, -0), (-0.9994192, -0.034079004, -0), (-0.99941915, -0.03407897, -0), (-0.99941915, -0.03407897, -0), (-0.9994192, -0.034079004, -0), (-0.99941915, -0.03407897, -0), (-0.9994191, -0.034078937, -0), (0.99415773, -0.1079378, 0), (0.99415773, -0.1079378, 0), (-0.99941915, -0.03407897, -0), (0.99415773, -0.1079378, 0), (-0.99941915, -0.03407897, -0), (-0.9994192, -0.034079004, -0), (0.9941578, -0.10793776, 0), (0.99415773, -0.1079378, 0), (-0.9994192, -0.034079004, -0), (0.9941578, -0.10793776, 0), (-0.9994192, -0.034079004, -0), (-0.9994191, -0.034078937, -0), (0.99415773, -0.1079378, 0), (0.9941576, -0.107937865, 0), (-0.99941915, -0.03407897, -0), (0.99415773, -0.1079378, 0), (-0.99941915, -0.03407897, -0), (-0.99941915, -0.03407897, -0), (0.99415773, -0.1079378, 0), (0.9941578, -0.10793776, 0), (0.9941576, -0.107937865, 0), (0.99415773, -0.1079378, 0), (0.9941576, -0.107937865, 0), (0.99415773, -0.1079378, 0)] (
        interpolation = "faceVarying"
    )
    point3f[] points = [(0.0024702924, -0.021420417, 0.23762636), (0.0062691066, 0.013568447, 0.23762636), (-0.005246245, 0.017658703, 0.23762636), (-0.004112912, -0.015578109, 0.23762636), (-0.005246245, 0.017658703, -0.23762633), (-0.004112912, -0.015578109, -0.23762633), (0.0062691066, 0.013568447, -0.23762633), (0.0024702924, -0.021420417, -0.23762633)]
}

