#usda 1.0
(
    defaultPrim = "UCX_Dishwasher_Tray_02_026"
    upAxis = "Z"
)

def Mesh "UCX_Dishwasher_Tray_02_026"
{
    int[] faceVertexCounts = [3, 3, 3, 3, 3, 3, 3, 3, 3, 3, 3, 3, 3, 3, 3, 3, 3, 3, 3, 3, 3, 3, 3, 3, 3, 3, 3, 3]
    int[] faceVertexIndices = [0, 1, 2, 0, 2, 3, 3, 2, 4, 3, 4, 5, 5, 4, 6, 5, 6, 7, 7, 6, 8, 7, 8, 9, 9, 8, 10, 9, 10, 11, 11, 10, 12, 11, 12, 13, 4, 2, 1, 1, 14, 12, 12, 10, 8, 8, 6, 4, 4, 1, 12, 12, 8, 4, 13, 12, 14, 13, 14, 15, 15, 14, 1, 15, 1, 0, 15, 0, 3, 3, 5, 7, 7, 9, 11, 11, 13, 15, 15, 3, 7, 7, 11, 15]
    normal3f[] normals = [(0.13677426, 0.9906023, -8.8015966e-8), (-0.13677427, 0.9906023, -1.1708476e-7), (0.6037499, 0.7971738, -8.4849496e-8), (0.13677426, 0.9906023, -8.8015966e-8), (0.6037499, 0.7971738, -8.4849496e-8), (0.7971745, 0.6037491, -3.7148116e-8), (0.7971745, 0.6037491, -3.7148116e-8), (0.6037499, 0.7971738, -8.4849496e-8), (0.99060214, 0.13677543, -1.46109125e-8), (0.7971745, 0.6037491, -3.7148116e-8), (0.99060214, 0.13677543, -1.46109125e-8), (0.990602, -0.13677588, -1.3105428e-8), (0.990602, -0.13677588, -1.3105428e-8), (0.99060214, 0.13677543, -1.46109125e-8), (0.7971732, -0.6037507, -5.609023e-8), (0.990602, -0.13677588, -1.3105428e-8), (0.7971732, -0.6037507, -5.609023e-8), (0.6037477, -0.79717547, -9.42037e-8), (0.6037477, -0.79717547, -9.42037e-8), (0.7971732, -0.6037507, -5.609023e-8), (0.13677426, -0.9906023, -1.1407405e-7), (0.6037477, -0.79717547, -9.42037e-8), (0.13677426, -0.9906023, -1.1407405e-7), (-0.13677426, -0.9906023, -1.1407405e-7), (-0.13677426, -0.9906023, -1.1407405e-7), (0.13677426, -0.9906023, -1.1407405e-7), (-0.6037477, -0.79717547, -7.96693e-8), (-0.13677426, -0.9906023, -1.1407405e-7), (-0.6037477, -0.79717547, -7.96693e-8), (-0.7971733, -0.6037507, -5.609023e-8), (-0.7971733, -0.6037507, -5.609023e-8), (-0.6037477, -0.79717547, -7.96693e-8), (-0.99060214, -0.1367754, -1.6622561e-8), (-0.7971733, -0.6037507, -5.609023e-8), (-0.99060214, -0.1367754, -1.6622561e-8), (-0.99060214, 0.13677545, -1.4958793e-8), (0.99060214, 0.13677543, -1.46109125e-8), (0.6037499, 0.7971738, -8.4849496e-8), (-0.13677427, 0.9906023, -1.1708476e-7), (-0.13677427, 0.9906023, -1.1708476e-7), (-0.7971745, 0.6037491, -3.7148116e-8), (-0.99060214, -0.1367754, -1.6622561e-8), (-0.99060214, -0.1367754, -1.6622561e-8), (-0.6037477, -0.79717547, -7.96693e-8), (0.13677426, -0.9906023, -1.1407405e-7), (0.13677426, -0.9906023, -1.1407405e-7), (0.7971732, -0.6037507, -5.609023e-8), (0.99060214, 0.13677543, -1.46109125e-8), (0.99060214, 0.13677543, -1.46109125e-8), (-0.13677427, 0.9906023, -1.1708476e-7), (-0.99060214, -0.1367754, -1.6622561e-8), (-0.99060214, -0.1367754, -1.6622561e-8), (0.13677426, -0.9906023, -1.1407405e-7), (0.99060214, 0.13677543, -1.46109125e-8), (-0.99060214, 0.13677545, -1.4958793e-8), (-0.99060214, -0.1367754, -1.6622561e-8), (-0.7971745, 0.6037491, -3.7148116e-8), (-0.99060214, 0.13677545, -1.4958793e-8), (-0.7971745, 0.6037491, -3.7148116e-8), (-0.6037477, 0.7971756, -5.253179e-8), (-0.6037477, 0.7971756, -5.253179e-8), (-0.7971745, 0.6037491, -3.7148116e-8), (-0.13677427, 0.9906023, -1.1708476e-7), (-0.6037477, 0.7971756, -5.253179e-8), (-0.13677427, 0.9906023, -1.1708476e-7), (0.13677426, 0.9906023, -8.8015966e-8), (-0.6037477, 0.7971756, -5.253179e-8), (0.13677426, 0.9906023, -8.8015966e-8), (0.7971745, 0.6037491, -3.7148116e-8), (0.7971745, 0.6037491, -3.7148116e-8), (0.990602, -0.13677588, -1.3105428e-8), (0.6037477, -0.79717547, -9.42037e-8), (0.6037477, -0.79717547, -9.42037e-8), (-0.13677426, -0.9906023, -1.1407405e-7), (-0.7971733, -0.6037507, -5.609023e-8), (-0.7971733, -0.6037507, -5.609023e-8), (-0.99060214, 0.13677545, -1.4958793e-8), (-0.6037477, 0.7971756, -5.253179e-8), (-0.6037477, 0.7971756, -5.253179e-8), (0.7971745, 0.6037491, -3.7148116e-8), (0.6037477, -0.79717547, -9.42037e-8), (0.6037477, -0.79717547, -9.42037e-8), (-0.7971733, -0.6037507, -5.609023e-8), (-0.6037477, 0.7971756, -5.253179e-8)] (
        interpolation = "faceVarying"
    )
    point3f[] points = [(3.442852e-10, 0.001999998, -0.03520004), (3.442852e-10, 0.0020000052, 0.0352), (0.00141421, 0.0014142179, 0.035199996), (0.00141421, 0.0014142105, -0.035200045), (0.0020000043, -5.952163e-9, 0.035199996), (0.0020000043, 1.2749194e-9, -0.035200045), (0.00141421, -0.0014142152, 0.0352), (0.00141421, -0.001414208, -0.03520004), (3.442852e-10, -0.0020000027, 0.035199996), (3.442852e-10, -0.0019999954, -0.035200045), (-0.0014142093, -0.0014142152, 0.0352), (-0.0014142093, -0.001414208, -0.03520004), (-0.0020000038, -5.952163e-9, 0.035199996), (-0.0020000038, 1.2749194e-9, -0.035200045), (-0.0014142093, 0.0014142179, 0.035199996), (-0.0014142093, 0.0014142105, -0.035200045)]
}

