#usda 1.0
(
    defaultPrim = "UCX_Kitchen_05_Base_Drawer_03_009"
    upAxis = "Z"
)

def Mesh "UCX_Kitchen_05_Base_Drawer_03_009"
{
    int[] faceVertexCounts = [3, 3, 3, 3, 3, 3, 3, 3, 3, 3, 3, 3]
    int[] faceVertexIndices = [0, 1, 2, 0, 3, 1, 3, 4, 1, 3, 5, 4, 5, 6, 4, 5, 7, 6, 7, 2, 6, 7, 0, 2, 3, 7, 5, 3, 0, 7, 4, 2, 1, 4, 6, 2]
    normal3f[] normals = [(1, 0, 0), (1, 0, 0), (0, 1, 0), (1, 0, 0), (0, 1, 0), (1, 0, 0), (0, 1, 0), (0, 1, 0), (1, 0, 0), (0, 1, 0), (-1, 0, 0), (0, 1, 0), (-1, 0, 0), (-1, 0, 0), (0, 1, 0), (-1, 0, 0), (0, 1, 0), (-1, 0, 0), (0, 1, 0), (0, 1, 0), (-1, 0, 0), (0, 1, 0), (1, 0, 0), (0, 1, 0), (0, 1, 0), (0, 1, 0), (-1, 0, 0), (0, 1, 0), (1, 0, 0), (0, 1, 0), (0, 1, 0), (0, 1, 0), (1, 0, 0), (0, 1, 0), (-1, 0, 0), (0, 1, 0)] (
        interpolation = "faceVarying"
    )
    point3f[] points = [(0.0075953305, -0.012460063, 0.23762622), (0.0075953305, 0.012460063, -0.23762622), (0.0075953305, 0.012460063, 0.23762622), (0.0075953305, -0.012460063, -0.23762622), (-0.0075953305, 0.012460063, -0.23762622), (-0.0075953305, -0.012460063, -0.23762622), (-0.0075953305, 0.012460063, 0.23762622), (-0.0075953305, -0.012460063, 0.23762622)]
}

