#usda 1.0
(
    defaultPrim = "UCX_Dishwasher_Tray_01_133"
    upAxis = "Z"
)

def Mesh "UCX_Dishwasher_Tray_01_133"
{
    int[] faceVertexCounts = [3, 3, 3, 3, 3, 3, 3, 3, 3, 3, 3, 3, 3, 3, 3, 3, 3, 3, 3, 3, 3, 3, 3, 3, 3, 3, 3, 3]
    int[] faceVertexIndices = [0, 1, 2, 0, 2, 3, 1, 4, 5, 1, 5, 2, 4, 6, 7, 4, 7, 5, 6, 8, 9, 6, 9, 7, 8, 10, 11, 8, 11, 9, 10, 12, 13, 10, 13, 11, 3, 2, 5, 5, 7, 9, 9, 11, 13, 13, 14, 3, 3, 5, 9, 9, 13, 3, 12, 15, 14, 12, 14, 13, 15, 0, 3, 15, 3, 14, 1, 0, 15, 15, 12, 10, 10, 8, 6, 6, 4, 1, 1, 15, 10, 10, 6, 1]
    normal3f[] normals = [(0.9906023, -0.13677368, -1.1767189e-8), (0.60374767, -0.7971755, 1.8733854e-8), (0.7971756, -0.6037476, 1.1240312e-8), (0.9906023, -0.13677368, -1.1767189e-8), (0.7971756, -0.6037476, 1.1240312e-8), (0.9906023, 0.13677368, -2.0607215e-8), (0.60374767, -0.7971755, 1.8733854e-8), (-0.13677196, -0.99060255, 3.4833228e-8), (0.13677196, -0.99060255, 3.0442486e-8), (0.60374767, -0.7971755, 1.8733854e-8), (0.13677196, -0.99060255, 3.0442486e-8), (0.7971756, -0.6037476, 1.1240312e-8), (-0.13677196, -0.99060255, 3.4833228e-8), (-0.7971755, -0.60374767, 3.7467707e-8), (-0.6037454, -0.79717726, 3.3896637e-8), (-0.13677196, -0.99060255, 3.4833228e-8), (-0.6037454, -0.79717726, 3.3896637e-8), (0.13677196, -0.99060255, 3.0442486e-8), (-0.7971755, -0.60374767, 3.7467707e-8), (-0.99060243, 0.13677321, 1.1767148e-8), (-0.99060243, -0.13677321, 2.0607146e-8), (-0.7971755, -0.60374767, 3.7467707e-8), (-0.99060243, -0.13677321, 2.0607146e-8), (-0.6037454, -0.79717726, 3.3896637e-8), (-0.99060243, 0.13677321, 1.1767148e-8), (-0.60374546, 0.7971772, -1.8733893e-8), (-0.7971747, 0.6037487, -1.1240299e-8), (-0.99060243, 0.13677321, 1.1767148e-8), (-0.7971747, 0.6037487, -1.1240299e-8), (-0.99060243, -0.13677321, 2.0607146e-8), (-0.60374546, 0.7971772, -1.8733893e-8), (0.1367722, 0.99060255, -3.4774747e-8), (-0.1367722, 0.99060255, -2.9974192e-8), (-0.60374546, 0.7971772, -1.8733893e-8), (-0.1367722, 0.99060255, -2.9974192e-8), (-0.7971747, 0.6037487, -1.1240299e-8), (0.9906023, 0.13677368, -2.0607215e-8), (0.7971756, -0.6037476, 1.1240312e-8), (0.13677196, -0.99060255, 3.0442486e-8), (0.13677196, -0.99060255, 3.0442486e-8), (-0.6037454, -0.79717726, 3.3896637e-8), (-0.99060243, -0.13677321, 2.0607146e-8), (-0.99060243, -0.13677321, 2.0607146e-8), (-0.7971747, 0.6037487, -1.1240299e-8), (-0.1367722, 0.99060255, -2.9974192e-8), (-0.1367722, 0.99060255, -2.9974192e-8), (0.6037476, 0.7971756, -3.383802e-8), (0.9906023, 0.13677368, -2.0607215e-8), (0.9906023, 0.13677368, -2.0607215e-8), (0.13677196, -0.99060255, 3.0442486e-8), (-0.99060243, -0.13677321, 2.0607146e-8), (-0.99060243, -0.13677321, 2.0607146e-8), (-0.1367722, 0.99060255, -2.9974192e-8), (0.9906023, 0.13677368, -2.0607215e-8), (0.1367722, 0.99060255, -3.4774747e-8), (0.7971747, 0.6037488, -3.7467668e-8), (0.6037476, 0.7971756, -3.383802e-8), (0.1367722, 0.99060255, -3.4774747e-8), (0.6037476, 0.7971756, -3.383802e-8), (-0.1367722, 0.99060255, -2.9974192e-8), (0.7971747, 0.6037488, -3.7467668e-8), (0.9906023, -0.13677368, -1.1767189e-8), (0.9906023, 0.13677368, -2.0607215e-8), (0.7971747, 0.6037488, -3.7467668e-8), (0.9906023, 0.13677368, -2.0607215e-8), (0.6037476, 0.7971756, -3.383802e-8), (0.60374767, -0.7971755, 1.8733854e-8), (0.9906023, -0.13677368, -1.1767189e-8), (0.7971747, 0.6037488, -3.7467668e-8), (0.7971747, 0.6037488, -3.7467668e-8), (0.1367722, 0.99060255, -3.4774747e-8), (-0.60374546, 0.7971772, -1.8733893e-8), (-0.60374546, 0.7971772, -1.8733893e-8), (-0.99060243, 0.13677321, 1.1767148e-8), (-0.7971755, -0.60374767, 3.7467707e-8), (-0.7971755, -0.60374767, 3.7467707e-8), (-0.13677196, -0.99060255, 3.4833228e-8), (0.60374767, -0.7971755, 1.8733854e-8), (0.60374767, -0.7971755, 1.8733854e-8), (0.7971747, 0.6037488, -3.7467668e-8), (-0.60374546, 0.7971772, -1.8733893e-8), (-0.60374546, 0.7971772, -1.8733893e-8), (-0.7971755, -0.60374767, 3.7467707e-8), (0.60374767, -0.7971755, 1.8733854e-8)] (
        interpolation = "faceVarying"
    )
    point3f[] points = [(0.0020000043, 1.7930589e-8, 0.22670773), (0.0014142173, -0.0014142066, 0.22670773), (0.0014142098, -0.0014142215, -0.22670773), (0.0019999968, -1.1871735e-8, -0.22670773), (1.829298e-10, -0.0019999861, 0.22670773), (1.829298e-10, -0.002000001, -0.22670773), (-0.0014142094, -0.0014142066, 0.22670773), (-0.0014142168, -0.0014142215, -0.22670773), (-0.0019999964, 1.7930589e-8, 0.22670773), (-0.0020000038, -1.1871735e-8, -0.22670773), (-0.0014142094, 0.0014142275, 0.22670773), (-0.0014142168, 0.0014142126, -0.22670773), (1.829298e-10, 0.002000007, 0.22670773), (1.829298e-10, 0.0019999922, -0.22670773), (0.0014142098, 0.0014142126, -0.22670773), (0.0014142173, 0.0014142275, 0.22670773)]
}

