#usda 1.0
(
    defaultPrim = "UCX_Kitchen_08_Sink_Drawer_01_003"
    upAxis = "Z"
)

def Mesh "UCX_Kitchen_08_Sink_Drawer_01_003"
{
    int[] faceVertexCounts = [3, 3, 3, 3, 3, 3, 3, 3, 3, 3, 3, 3]
    int[] faceVertexIndices = [0, 1, 2, 0, 2, 3, 4, 5, 1, 4, 1, 0, 6, 2, 1, 6, 1, 5, 3, 2, 6, 3, 6, 7, 3, 7, 4, 3, 4, 0, 7, 6, 5, 7, 5, 4]
    normal3f[] normals = [(-1, 0, 0), (-1, 0, 0), (-1, 0, 0), (-1, 0, 0), (-1, 0, 0), (-1, 0, 0), (1, 0, 0), (1, 0, 0), (-1, 0, 0), (1, 0, 0), (-1, 0, 0), (-1, 0, 0), (1, 0, 0), (-1, 0, 0), (-1, 0, 0), (1, 0, 0), (-1, 0, 0), (1, 0, 0), (-1, 0, 0), (-1, 0, 0), (1, 0, 0), (-1, 0, 0), (1, 0, 0), (1, 0, 0), (-1, 0, 0), (1, 0, 0), (1, 0, 0), (-1, 0, 0), (1, 0, 0), (-1, 0, 0), (1, 0, 0), (1, 0, 0), (1, 0, 0), (1, 0, 0), (1, 0, 0), (1, 0, 0)] (
        interpolation = "faceVarying"
    )
    point3f[] points = [(-0.028936837, -0.17048152, 0.24642494), (-0.028936837, 0.17048155, 0.24642494), (-0.028936837, 0.17048155, -0.24642494), (-0.028936837, -0.17048152, -0.24642494), (0.028936844, -0.17048152, 0.24642494), (0.028936844, 0.17048155, 0.24642494), (0.028936844, 0.17048155, -0.24642494), (0.028936844, -0.17048152, -0.24642494)]
}

