#usda 1.0
(
    defaultPrim = "UCX_Kitchen_05_Base_Drawer_03_005"
    upAxis = "Z"
)

def Mesh "UCX_Kitchen_05_Base_Drawer_03_005"
{
    int[] faceVertexCounts = [3, 3, 3, 3, 3, 3, 3, 3, 3, 3, 3, 3]
    int[] faceVertexIndices = [0, 1, 2, 0, 2, 3, 4, 2, 1, 4, 1, 5, 6, 4, 5, 6, 5, 7, 3, 2, 4, 3, 4, 6, 7, 5, 1, 7, 1, 0, 6, 7, 0, 6, 0, 3]
    normal3f[] normals = [(0.9941577, 0.107937664, 1.183205e-7), (-0.99941915, 0.034078754, -1.3258253e-7), (-0.9994192, 0.03407874, -1.3258254e-7), (0.9941577, 0.107937664, 1.183205e-7), (-0.9994192, 0.03407874, -1.3258254e-7), (0.99415773, 0.10793758, 1.200605e-7), (-0.9994192, 0.034078788, -1.3258254e-7), (-0.9994192, 0.03407874, -1.3258254e-7), (-0.99941915, 0.034078754, -1.3258253e-7), (-0.9994192, 0.034078788, -1.3258254e-7), (-0.99941915, 0.034078754, -1.3258253e-7), (-0.99941915, 0.034078754, -1.3258253e-7), (0.9941577, 0.10793761, 1.183205e-7), (-0.9994192, 0.034078788, -1.3258254e-7), (-0.99941915, 0.034078754, -1.3258253e-7), (0.9941577, 0.10793761, 1.183205e-7), (-0.99941915, 0.034078754, -1.3258253e-7), (0.9941577, 0.107937664, 1.200605e-7), (0.99415773, 0.10793758, 1.200605e-7), (-0.9994192, 0.03407874, -1.3258254e-7), (-0.9994192, 0.034078788, -1.3258254e-7), (0.99415773, 0.10793758, 1.200605e-7), (-0.9994192, 0.034078788, -1.3258254e-7), (0.9941577, 0.10793761, 1.183205e-7), (0.9941577, 0.107937664, 1.200605e-7), (-0.99941915, 0.034078754, -1.3258253e-7), (-0.99941915, 0.034078754, -1.3258253e-7), (0.9941577, 0.107937664, 1.200605e-7), (-0.99941915, 0.034078754, -1.3258253e-7), (0.9941577, 0.107937664, 1.183205e-7), (0.9941577, 0.10793761, 1.183205e-7), (0.9941577, 0.107937664, 1.200605e-7), (0.9941577, 0.107937664, 1.183205e-7), (0.9941577, 0.10793761, 1.183205e-7), (0.9941577, 0.107937664, 1.183205e-7), (0.99415773, 0.10793758, 1.200605e-7)] (
        interpolation = "faceVarying"
    )
    point3f[] points = [(0.0024702635, 0.021420434, 0.23762633), (-0.004112947, 0.01557813, 0.23762633), (-0.005246273, -0.017658686, 0.23762633), (0.0062690717, -0.013568426, 0.23762633), (-0.005246211, -0.017658727, -0.23762634), (-0.0041128853, 0.015578088, -0.23762634), (0.0062691336, -0.0135684665, -0.23762634), (0.0024703252, 0.021420391, -0.23762634)]
}

