#usda 1.0
(
    defaultPrim = "UCX_Dishwasher_Tray_01_134"
    upAxis = "Z"
)

def Mesh "UCX_Dishwasher_Tray_01_134"
{
    int[] faceVertexCounts = [3, 3, 3, 3, 3, 3, 3, 3, 3, 3, 3, 3, 3, 3, 3, 3, 3, 3, 3, 3, 3, 3, 3, 3, 3, 3, 3, 3]
    int[] faceVertexIndices = [0, 1, 2, 0, 2, 3, 1, 4, 5, 1, 5, 2, 4, 6, 7, 4, 7, 5, 6, 8, 9, 6, 9, 7, 8, 10, 11, 8, 11, 9, 10, 12, 13, 10, 13, 11, 3, 2, 5, 5, 7, 9, 9, 11, 13, 13, 14, 3, 3, 5, 9, 9, 13, 3, 12, 15, 14, 12, 14, 13, 15, 0, 3, 15, 3, 14, 1, 0, 15, 15, 12, 10, 10, 8, 6, 6, 4, 1, 1, 15, 10, 10, 6, 1]
    normal3f[] normals = [(0.9906021, -0.13677537, 4.5078274e-9), (0.60374767, -0.7971755, 2.6227394e-8), (0.79717386, -0.6037498, 2.4353957e-8), (0.9906021, -0.13677537, 4.5078274e-9), (0.79717386, -0.6037498, 2.4353957e-8), (0.9906021, 0.13677537, -4.683457e-9), (0.60374767, -0.7971755, 2.6227394e-8), (-0.13677244, -0.9906025, 3.2550155e-8), (0.13677244, -0.9906025, 3.231598e-8), (0.60374767, -0.7971755, 2.6227394e-8), (0.13677244, -0.9906025, 3.231598e-8), (0.79717386, -0.6037498, 2.4353957e-8), (-0.13677244, -0.9906025, 3.2550155e-8), (-0.7971738, -0.6037499, 2.4353957e-8), (-0.6037454, -0.79717726, 2.6227449e-8), (-0.13677244, -0.9906025, 3.2550155e-8), (-0.6037454, -0.79717726, 2.6227449e-8), (0.13677244, -0.9906025, 3.231598e-8), (-0.7971738, -0.6037499, 2.4353957e-8), (-0.9906022, 0.13677491, -4.449269e-9), (-0.9906022, -0.13677491, 4.683441e-9), (-0.7971738, -0.6037499, 2.4353957e-8), (-0.9906022, -0.13677491, 4.683441e-9), (-0.6037454, -0.79717726, 2.6227449e-8), (-0.9906022, 0.13677491, -4.449269e-9), (-0.60374546, 0.7971772, -2.6227449e-8), (-0.79717386, 0.6037498, -2.4353957e-8), (-0.9906022, 0.13677491, -4.449269e-9), (-0.79717386, 0.6037498, -2.4353957e-8), (-0.9906022, -0.13677491, 4.683441e-9), (-0.60374546, 0.7971772, -2.6227449e-8), (0.13677244, 0.9906025, -3.2550155e-8), (-0.13677244, 0.9906025, -3.231598e-8), (-0.60374546, 0.7971772, -2.6227449e-8), (-0.13677244, 0.9906025, -3.231598e-8), (-0.79717386, 0.6037498, -2.4353957e-8), (0.9906021, 0.13677537, -4.683457e-9), (0.79717386, -0.6037498, 2.4353957e-8), (0.13677244, -0.9906025, 3.231598e-8), (0.13677244, -0.9906025, 3.231598e-8), (-0.6037454, -0.79717726, 2.6227449e-8), (-0.9906022, -0.13677491, 4.683441e-9), (-0.9906022, -0.13677491, 4.683441e-9), (-0.79717386, 0.6037498, -2.4353957e-8), (-0.13677244, 0.9906025, -3.231598e-8), (-0.13677244, 0.9906025, -3.231598e-8), (0.6037476, 0.7971756, -2.616885e-8), (0.9906021, 0.13677537, -4.683457e-9), (0.9906021, 0.13677537, -4.683457e-9), (0.13677244, -0.9906025, 3.231598e-8), (-0.9906022, -0.13677491, 4.683441e-9), (-0.9906022, -0.13677491, 4.683441e-9), (-0.13677244, 0.9906025, -3.231598e-8), (0.9906021, 0.13677537, -4.683457e-9), (0.13677244, 0.9906025, -3.2550155e-8), (0.7971738, 0.6037499, -2.4353957e-8), (0.6037476, 0.7971756, -2.616885e-8), (0.13677244, 0.9906025, -3.2550155e-8), (0.6037476, 0.7971756, -2.616885e-8), (-0.13677244, 0.9906025, -3.231598e-8), (0.7971738, 0.6037499, -2.4353957e-8), (0.9906021, -0.13677537, 4.5078274e-9), (0.9906021, 0.13677537, -4.683457e-9), (0.7971738, 0.6037499, -2.4353957e-8), (0.9906021, 0.13677537, -4.683457e-9), (0.6037476, 0.7971756, -2.616885e-8), (0.60374767, -0.7971755, 2.6227394e-8), (0.9906021, -0.13677537, 4.5078274e-9), (0.7971738, 0.6037499, -2.4353957e-8), (0.7971738, 0.6037499, -2.4353957e-8), (0.13677244, 0.9906025, -3.2550155e-8), (-0.60374546, 0.7971772, -2.6227449e-8), (-0.60374546, 0.7971772, -2.6227449e-8), (-0.9906022, 0.13677491, -4.449269e-9), (-0.7971738, -0.6037499, 2.4353957e-8), (-0.7971738, -0.6037499, 2.4353957e-8), (-0.13677244, -0.9906025, 3.2550155e-8), (0.60374767, -0.7971755, 2.6227394e-8), (0.60374767, -0.7971755, 2.6227394e-8), (0.7971738, 0.6037499, -2.4353957e-8), (-0.60374546, 0.7971772, -2.6227449e-8), (-0.60374546, 0.7971772, -2.6227449e-8), (-0.7971738, -0.6037499, 2.4353957e-8), (0.60374767, -0.7971755, 2.6227394e-8)] (
        interpolation = "faceVarying"
    )
    point3f[] points = [(0.002000004, 1.7778236e-8, 0.22670774), (0.0014142097, -0.0014142067, 0.22670774), (0.0014142097, -0.0014142216, -0.22670771), (0.002000004, -1.2024087e-8, -0.22670771), (1.07608145e-10, -0.0019999864, 0.22670774), (1.07608145e-10, -0.0020000013, -0.22670771), (-0.0014142095, -0.0014142067, 0.22670774), (-0.0014142095, -0.0014142216, -0.22670771), (-0.002000004, 1.7778236e-8, 0.22670774), (-0.002000004, -1.2024087e-8, -0.22670771), (-0.0014142095, 0.0014142274, 0.22670774), (-0.0014142095, 0.0014142125, -0.22670771), (1.07608145e-10, 0.0020000068, 0.22670774), (1.07608145e-10, 0.001999992, -0.22670771), (0.0014142097, 0.0014142125, -0.22670771), (0.0014142097, 0.0014142274, 0.22670774)]
}

