#usda 1.0
(
    defaultPrim = "UCX_Dishwasher_Tray_01_020"
    upAxis = "Z"
)

def Mesh "UCX_Dishwasher_Tray_01_020"
{
    int[] faceVertexCounts = [3, 3, 3, 3, 3, 3, 3, 3, 3, 3, 3, 3]
    int[] faceVertexIndices = [0, 1, 2, 0, 2, 3, 3, 2, 4, 3, 4, 5, 1, 6, 4, 1, 4, 2, 6, 7, 5, 6, 5, 4, 7, 0, 3, 7, 3, 5, 0, 7, 6, 0, 6, 1]
    normal3f[] normals = [(1, -6.537521e-7, -4.6858597e-7), (1, 0, 0), (1, -6.537521e-7, -4.6858597e-7), (1, -6.537521e-7, -4.6858597e-7), (1, -6.537521e-7, -4.6858597e-7), (0, 0.81429, 0.5804583), (0, 0.81429, 0.5804583), (1, -6.537521e-7, -4.6858597e-7), (0, 0.88333887, -0.46873492), (0, 0.81429, 0.5804583), (0, 0.88333887, -0.46873492), (-1, 0.0000014377572, 5.961772e-8), (1, 0, 0), (-1, 0.0000014199501, 4.783875e-8), (0, 0.88333887, -0.46873492), (1, 0, 0), (0, 0.88333887, -0.46873492), (1, -6.537521e-7, -4.6858597e-7), (-1, 0.0000014199501, 4.783875e-8), (-1, 0.0000014570302, 2.8563202e-8), (-1, 0.0000014377572, 5.961772e-8), (-1, 0.0000014199501, 4.783875e-8), (-1, 0.0000014377572, 5.961772e-8), (0, 0.88333887, -0.46873492), (-1, 0.0000014570302, 2.8563202e-8), (1, -6.537521e-7, -4.6858597e-7), (0, 0.81429, 0.5804583), (-1, 0.0000014570302, 2.8563202e-8), (0, 0.81429, 0.5804583), (-1, 0.0000014377572, 5.961772e-8), (1, -6.537521e-7, -4.6858597e-7), (-1, 0.0000014570302, 2.8563202e-8), (-1, 0.0000014199501, 4.783875e-8), (1, -6.537521e-7, -4.6858597e-7), (-1, 0.0000014199501, 4.783875e-8), (1, 0, 0)] (
        interpolation = "faceVarying"
    )
    point3f[] points = [(0.0021554867, -0.00445706, 0.013491031), (0.0021554867, -0.0036123877, -0.014591537), (0.0021554867, 0.006493061, -0.0018702437), (0.0021555016, 0.006146149, 0.0037985903), (-0.0021554788, 0.006493061, -0.0018702437), (-0.0021554788, 0.006146149, 0.0037985903), (-0.0021554937, -0.0036123877, -0.014591537), (-0.0021554937, -0.00445706, 0.013491031)]
}

