#usda 1.0
(
    defaultPrim = "UCX_Kitchen_06_Base_Drawer_03_006"
    upAxis = "Z"
)

def Mesh "UCX_Kitchen_06_Base_Drawer_03_006"
{
    int[] faceVertexCounts = [3, 3, 3, 3, 3, 3, 3, 3, 3, 3, 3, 3]
    int[] faceVertexIndices = [0, 1, 2, 0, 2, 3, 1, 4, 5, 1, 5, 2, 4, 6, 7, 4, 7, 5, 6, 0, 3, 6, 3, 7, 5, 7, 3, 5, 3, 2, 1, 0, 6, 1, 6, 4]
    normal3f[] normals = [(0.9874473, 0.15794869, 3.0414267e-8), (0.91692436, -0.39906138, -5.6214915e-8), (0.9874473, 0.15794869, 3.1428076e-8), (0.9874473, 0.15794869, 3.0414267e-8), (0.9874473, 0.15794869, 3.1428076e-8), (0.9874473, 0.15794864, 2.4331412e-8), (0.91692436, -0.39906138, -5.6214915e-8), (-0.99971557, 0.023852235, 0), (-0.99971557, 0.023852224, 0), (0.91692436, -0.39906138, -5.6214915e-8), (-0.99971557, 0.023852224, 0), (0.9874473, 0.15794869, 3.1428076e-8), (-0.99971557, 0.023852235, 0), (0.023147395, 0.9997321, 0), (-0.99971557, 0.023852235, 0), (-0.99971557, 0.023852235, 0), (-0.99971557, 0.023852235, 0), (-0.99971557, 0.023852224, 0), (0.023147395, 0.9997321, 0), (0.9874473, 0.15794869, 3.0414267e-8), (0.9874473, 0.15794864, 2.4331412e-8), (0.023147395, 0.9997321, 0), (0.9874473, 0.15794864, 2.4331412e-8), (-0.99971557, 0.023852235, 0), (-0.99971557, 0.023852224, 0), (-0.99971557, 0.023852235, 0), (0.9874473, 0.15794864, 2.4331412e-8), (-0.99971557, 0.023852224, 0), (0.9874473, 0.15794864, 2.4331412e-8), (0.9874473, 0.15794869, 3.1428076e-8), (0.91692436, -0.39906138, -5.6214915e-8), (0.9874473, 0.15794869, 3.0414267e-8), (0.023147395, 0.9997321, 0), (0.91692436, -0.39906138, -5.6214915e-8), (0.023147395, 0.9997321, 0), (-0.99971557, 0.023852235, 0)] (
        interpolation = "faceVarying"
    )
    point3f[] points = [(0.015860023, -0.021205295, 0.23762633), (0.015860025, -0.021205205, -0.23762636), (0.0063192085, 0.038441073, -0.23762633), (0.0063192067, 0.038441, 0.23762634), (-0.011516034, -0.043323148, -0.23762636), (-0.009507593, 0.040856354, -0.23762633), (-0.011516035, -0.043323208, 0.23762633), (-0.009507595, 0.04085628, 0.23762634)]
}

