#usda 1.0
(
    defaultPrim = "UCX_Kitchen_05_Base_Drawer_02_005"
    upAxis = "Z"
)

def Mesh "UCX_Kitchen_05_Base_Drawer_02_005"
{
    int[] faceVertexCounts = [3, 3, 3, 3, 3, 3, 3, 3, 3, 3, 3, 3]
    int[] faceVertexIndices = [0, 1, 2, 0, 2, 3, 3, 2, 4, 3, 4, 5, 5, 4, 6, 5, 6, 7, 7, 6, 1, 7, 1, 0, 4, 2, 1, 4, 1, 6, 3, 5, 7, 3, 7, 0]
    normal3f[] normals = [(-0.9874473, 0.15794867, 0), (-0.9874473, 0.15794867, 0), (-0.9874473, 0.15794867, 0), (-0.9874473, 0.15794867, 0), (-0.9874473, 0.15794867, 0), (-0.9169243, -0.39906123, -0), (-0.9169243, -0.39906123, -0), (-0.9874473, 0.15794867, 0), (0.99971557, 0.023852233, 0), (-0.9169243, -0.39906123, -0), (0.99971557, 0.023852233, 0), (0.99971557, 0.023852244, 0), (0.99971557, 0.023852244, 0), (0.99971557, 0.023852233, 0), (0.99971557, 0.023852244, 0), (0.99971557, 0.023852244, 0), (0.99971557, 0.023852244, 0), (-0.023147404, 0.9997321, 0), (-0.023147404, 0.9997321, 0), (0.99971557, 0.023852244, 0), (-0.9874473, 0.15794867, 0), (-0.023147404, 0.9997321, 0), (-0.9874473, 0.15794867, 0), (-0.9874473, 0.15794867, 0), (0.99971557, 0.023852233, 0), (-0.9874473, 0.15794867, 0), (-0.9874473, 0.15794867, 0), (0.99971557, 0.023852233, 0), (-0.9874473, 0.15794867, 0), (0.99971557, 0.023852244, 0), (-0.9169243, -0.39906123, -0), (0.99971557, 0.023852244, 0), (-0.023147404, 0.9997321, 0), (-0.9169243, -0.39906123, -0), (-0.023147404, 0.9997321, 0), (-0.9874473, 0.15794867, 0)] (
        interpolation = "faceVarying"
    )
    point3f[] points = [(-0.015860025, -0.02120525, 0.23762634), (-0.0063192095, 0.038441036, 0.23762634), (-0.0063192095, 0.038441036, -0.23762634), (-0.015860025, -0.02120525, -0.23762634), (0.009507592, 0.040856324, -0.23762634), (0.011516034, -0.04332318, -0.23762634), (0.009507592, 0.040856324, 0.23762634), (0.011516034, -0.04332318, 0.23762634)]
}

