#usda 1.0
(
    defaultPrim = "UCX_Fridge_Drawer_02_002"
    upAxis = "Z"
)

def Mesh "UCX_Fridge_Drawer_02_002"
{
    int[] faceVertexCounts = [3, 3, 3, 3, 3, 3, 3, 3, 3, 3, 3, 3, 3, 3, 3, 3, 3, 3, 3, 3, 3, 3, 3, 3, 3, 3, 3, 3]
    int[] faceVertexIndices = [0, 1, 2, 0, 2, 3, 3, 2, 4, 3, 4, 5, 6, 7, 8, 6, 8, 9, 9, 8, 10, 9, 10, 11, 12, 13, 14, 12, 14, 15, 7, 1, 10, 7, 10, 8, 14, 9, 11, 14, 11, 15, 13, 6, 9, 13, 9, 14, 13, 5, 6, 15, 11, 0, 15, 0, 12, 3, 12, 0, 4, 2, 1, 4, 1, 7, 13, 12, 3, 13, 3, 5, 5, 4, 7, 5, 7, 6, 11, 10, 1, 11, 1, 0]
    normal3f[] normals = [(5.551115e-17, -0, -1), (0.99991906, -0.012723758, 0), (0.99991906, -0.012723758, 0), (5.551115e-17, -0, -1), (0.99991906, -0.012723758, 0), (-0.9143665, -0.4048876, 0), (-0.9143665, -0.4048876, 0), (0.99991906, -0.012723758, 0), (0.99991906, -0.012723758, 0), (-0.9143665, -0.4048876, 0), (0.99991906, -0.012723758, 0), (-0.9143665, -0.4048876, 0), (-5.551115e-17, 0, 1), (0.99991906, -0.012723758, 0), (0.99991906, -0.012723758, 0), (-5.551115e-17, 0, 1), (0.99991906, -0.012723758, 0), (0.012723758, 0.99991906, 0), (0.012723758, 0.99991906, 0), (0.99991906, -0.012723758, 0), (0.99991906, -0.012723758, 0), (0.012723758, 0.99991906, 0), (0.99991906, -0.012723758, 0), (0.99991906, -0.012723758, 0), (-0.9998204, -0.018950766, 0), (-0.99578404, -0.091729514, 0), (-0.99991906, 0.012723758, 0), (-0.9998204, -0.018950766, 0), (-0.99991906, 0.012723758, 0), (-0.99991906, 0.012723758, 0), (0.99991906, -0.012723758, 0), (0.99991906, -0.012723758, 0), (0.99991906, -0.012723758, 0), (0.99991906, -0.012723758, 0), (0.99991906, -0.012723758, 0), (0.99991906, -0.012723758, 0), (-0.99991906, 0.012723758, 0), (0.012723758, 0.99991906, 0), (0.99991906, -0.012723758, 0), (-0.99991906, 0.012723758, 0), (0.99991906, -0.012723758, 0), (-0.99991906, 0.012723758, 0), (-0.99578404, -0.091729514, 0), (-5.551115e-17, 0, 1), (0.012723758, 0.99991906, 0), (-0.99578404, -0.091729514, 0), (0.012723758, 0.99991906, 0), (-0.99991906, 0.012723758, 0), (-0.99578404, -0.091729514, 0), (-0.9143665, -0.4048876, 0), (-5.551115e-17, 0, 1), (-0.99991906, 0.012723758, 0), (0.99991906, -0.012723758, 0), (5.551115e-17, -0, -1), (-0.99991906, 0.012723758, 0), (5.551115e-17, -0, -1), (-0.9998204, -0.018950766, 0), (-0.9143665, -0.4048876, 0), (-0.9998204, -0.018950766, 0), (5.551115e-17, -0, -1), (0.99991906, -0.012723758, 0), (0.99991906, -0.012723758, 0), (0.99991906, -0.012723758, 0), (0.99991906, -0.012723758, 0), (0.99991906, -0.012723758, 0), (0.99991906, -0.012723758, 0), (-0.99578404, -0.091729514, 0), (-0.9998204, -0.018950766, 0), (-0.9143665, -0.4048876, 0), (-0.99578404, -0.091729514, 0), (-0.9143665, -0.4048876, 0), (-0.9143665, -0.4048876, 0), (-0.9143665, -0.4048876, 0), (0.99991906, -0.012723758, 0), (0.99991906, -0.012723758, 0), (-0.9143665, -0.4048876, 0), (0.99991906, -0.012723758, 0), (-5.551115e-17, 0, 1), (0.99991906, -0.012723758, 0), (0.99991906, -0.012723758, 0), (0.99991906, -0.012723758, 0), (0.99991906, -0.012723758, 0), (0.99991906, -0.012723758, 0), (5.551115e-17, -0, -1)] (
        interpolation = "faceVarying"
    )
    point3f[] points = [(-0.013210695, -0.014286687, -0.19733602), (0.011262167, -0.014598099, -0.19733602), (0.009279158, -0.17043643, -0.19733602), (0.0061579226, -0.17039672, -0.19733602), (0.009279158, -0.17043643, 0.19733602), (0.0061579226, -0.17039672, 0.19733602), (-0.013210695, -0.014286687, 0.19733602), (0.011262167, -0.014598099, 0.19733602), (0.013245177, 0.14124024, 0.19733602), (-0.011227686, 0.14155164, 0.19733602), (0.013245177, 0.14124024, -0.19733602), (-0.011227686, 0.14155164, -0.19733602), (-0.011803064, -0.12983502, -0.19733602), (-0.011803064, -0.12983502, 0.19733602), (-0.008350192, 0.14151503, 0.19733602), (-0.008350192, 0.14151503, -0.19733602)]
}

