#usda 1.0
(
    defaultPrim = "UCX_Counter_Sink_Stove_003"
    upAxis = "Z"
)

def Mesh "UCX_Counter_Sink_Stove_003"
{
    int[] faceVertexCounts = [3, 3, 3, 3, 3, 3, 3, 3, 3, 3, 3, 3]
    int[] faceVertexIndices = [0, 1, 2, 0, 2, 3, 4, 5, 6, 4, 6, 7, 2, 7, 6, 2, 6, 3, 0, 3, 6, 0, 6, 5, 7, 2, 1, 7, 1, 4, 4, 1, 0, 4, 0, 5]
    normal3f[] normals = [(-1, 0, 0), (-1, 0, 0), (-1, 0, 0), (-1, 0, 0), (-1, 0, 0), (-1, 0, 0), (1, 0, 0), (1, 0, 0), (1, 0, 0), (1, 0, 0), (1, 0, 0), (1, 0, 0), (-1, 0, 0), (1, 0, 0), (1, 0, 0), (-1, 0, 0), (1, 0, 0), (-1, 0, 0), (-1, 0, 0), (-1, 0, 0), (1, 0, 0), (-1, 0, 0), (1, 0, 0), (1, 0, 0), (1, 0, 0), (-1, 0, 0), (-1, 0, 0), (1, 0, 0), (-1, 0, 0), (1, 0, 0), (1, 0, 0), (-1, 0, 0), (-1, 0, 0), (1, 0, 0), (-1, 0, 0), (1, 0, 0)] (
        interpolation = "faceVarying"
    )
    point3f[] points = [(-0.0150001645, -0.049129486, -0.19346452), (-0.0150001645, -0.049129486, 0.19346446), (-0.0150001645, 0.049129486, 0.19346446), (-0.0150001645, 0.049129486, -0.19346452), (0.0150001645, -0.049129486, 0.19346446), (0.0150001645, -0.049129486, -0.19346452), (0.0150001645, 0.049129486, -0.19346452), (0.0150001645, 0.049129486, 0.19346446)]
}

