#usda 1.0
(
    defaultPrim = "UCX_Milchbehaelter_001"
    upAxis = "Z"
)

def Mesh "UCX_Milchbehaelter_001"
{
    int[] faceVertexCounts = [3, 3, 3, 3, 3, 3, 3, 3, 3, 3, 3, 3, 3, 3, 3, 3, 3, 3, 3, 3, 3, 3, 3, 3, 3, 3, 3, 3, 3, 3, 3, 3, 3, 3, 3, 3, 3, 3, 3, 3, 3, 3, 3, 3]
    int[] faceVertexIndices = [0, 1, 2, 0, 2, 3, 3, 2, 4, 3, 4, 5, 5, 4, 6, 5, 6, 7, 7, 6, 8, 7, 8, 9, 9, 8, 10, 9, 10, 11, 11, 10, 12, 11, 12, 13, 13, 12, 14, 13, 14, 15, 15, 14, 16, 15, 16, 17, 17, 16, 18, 17, 18, 19, 19, 18, 20, 19, 20, 21, 4, 2, 1, 1, 22, 20, 20, 18, 16, 16, 14, 12, 12, 10, 8, 8, 6, 4, 4, 1, 20, 20, 16, 12, 12, 8, 4, 20, 12, 4, 21, 20, 22, 21, 22, 23, 23, 22, 1, 23, 1, 0, 23, 0, 3, 3, 5, 7, 7, 9, 11, 11, 13, 15, 15, 17, 19, 19, 21, 23, 23, 3, 7, 7, 11, 15, 15, 19, 23, 7, 15, 23]
    normal3f[] normals = [(0.7277513, 0.68584114, 0), (0.59468794, 0.8039567, 0), (0.91699326, 0.39890295, 0), (0.7277513, 0.68584114, 0), (0.91699326, 0.39890295, 0), (0.97317165, 0.23008019, 0), (0.97317165, 0.23008019, 0), (0.91699326, 0.39890295, 0), (0, 0, 1), (0.97317165, 0.23008019, 0), (0, 0, 1), (0.9578315, -0.28733057, 0), (0.9578315, -0.28733057, 0), (0, 0, 1), (0.8039567, -0.59468794, 0), (0.9578315, -0.28733057, 0), (0.8039567, -0.59468794, 0), (0, 0, 1), (0, 0, 1), (0.8039567, -0.59468794, 0), (0.39890295, -0.91699326, 0), (0, 0, 1), (0.39890295, -0.91699326, 0), (0.23008019, -0.97317165, 0), (0.23008019, -0.97317165, 0), (0.39890295, -0.91699326, 0), (-0.11303658, -0.9935909, 0), (0.23008019, -0.97317165, 0), (-0.11303658, -0.9935909, 0), (-0.28733057, -0.9578315, 0), (-0.28733057, -0.9578315, 0), (-0.11303658, -0.9935909, 0), (0, 0, 1), (-0.28733057, -0.9578315, 0), (0, 0, 1), (-0.7277513, -0.68584114, 0), (-0.7277513, -0.68584114, 0), (0, 0, 1), (-0.91699326, -0.39890295, 0), (-0.7277513, -0.68584114, 0), (-0.91699326, -0.39890295, 0), (0, 0, 1), (0, 0, 1), (-0.91699326, -0.39890295, 0), (-0.9935909, 0.11303658, 0), (0, 0, 1), (-0.9935909, 0.11303658, 0), (-0.9578315, 0.28733057, 0), (-0.9578315, 0.28733057, 0), (-0.9935909, 0.11303658, 0), (-0.8039567, 0.59468794, 0), (-0.9578315, 0.28733057, 0), (-0.8039567, 0.59468794, 0), (-0.68584114, 0.7277513, 0), (-0.68584114, 0.7277513, 0), (-0.8039567, 0.59468794, 0), (0, 0, 1), (-0.68584114, 0.7277513, 0), (0, 0, 1), (-0.23008019, 0.97317165, 0), (0, 0, 1), (0.91699326, 0.39890295, 0), (0.59468794, 0.8039567, 0), (0.59468794, 0.8039567, 0), (0.11303658, 0.9935909, 0), (0, 0, 1), (0, 0, 1), (-0.8039567, 0.59468794, 0), (-0.9935909, 0.11303658, 0), (-0.9935909, 0.11303658, 0), (-0.91699326, -0.39890295, 0), (0, 0, 1), (0, 0, 1), (-0.11303658, -0.9935909, 0), (0.39890295, -0.91699326, 0), (0.39890295, -0.91699326, 0), (0.8039567, -0.59468794, 0), (0, 0, 1), (0, 0, 1), (0.59468794, 0.8039567, 0), (0, 0, 1), (0, 0, 1), (-0.9935909, 0.11303658, 0), (0, 0, 1), (0, 0, 1), (0.39890295, -0.91699326, 0), (0, 0, 1), (0, 0, 1), (0, 0, 1), (0, 0, 1), (-0.23008019, 0.97317165, 0), (0, 0, 1), (0.11303658, 0.9935909, 0), (-0.23008019, 0.97317165, 0), (0.11303658, 0.9935909, 0), (0, 0, 1), (0, 0, 1), (0.11303658, 0.9935909, 0), (0.59468794, 0.8039567, 0), (0, 0, 1), (0.59468794, 0.8039567, 0), (0.7277513, 0.68584114, 0), (0, 0, 1), (0.7277513, 0.68584114, 0), (0.97317165, 0.23008019, 0), (0.97317165, 0.23008019, 0), (0.9578315, -0.28733057, 0), (0, 0, 1), (0, 0, 1), (0.23008019, -0.97317165, 0), (-0.28733057, -0.9578315, 0), (-0.28733057, -0.9578315, 0), (-0.7277513, -0.68584114, 0), (0, 0, 1), (0, 0, 1), (-0.9578315, 0.28733057, 0), (-0.68584114, 0.7277513, 0), (-0.68584114, 0.7277513, 0), (-0.23008019, 0.97317165, 0), (0, 0, 1), (0, 0, 1), (0.97317165, 0.23008019, 0), (0, 0, 1), (0, 0, 1), (-0.28733057, -0.9578315, 0), (0, 0, 1), (0, 0, 1), (-0.68584114, 0.7277513, 0), (0, 0, 1), (0, 0, 1), (0, 0, 1), (0, 0, 1)] (
        interpolation = "faceVarying"
    )
    point3f[] points = [(0.03385644, 0.03814107, -0.06520176), (0.03385644, 0.03814107, 0.06520176), (0.048391074, 0.016102917, 0.06520176), (0.048391074, 0.016102917, -0.06520176), (0.049959358, -0.010250001, 0.06520176), (0.049959358, -0.010250001, -0.06520176), (0.03814107, -0.03385644, 0.06520176), (0.03814107, -0.03385644, -0.06520176), (0.016102917, -0.048391074, 0.06520176), (0.016102917, -0.048391074, -0.06520176), (-0.010250001, -0.049959358, 0.06520176), (-0.010250001, -0.049959358, -0.06520176), (-0.03385644, -0.03814107, 0.06520176), (-0.03385644, -0.03814107, -0.06520176), (-0.048391074, -0.016102917, 0.06520176), (-0.048391074, -0.016102917, -0.06520176), (-0.049959358, 0.010250001, 0.06520176), (-0.049959358, 0.010250001, -0.06520176), (-0.03814107, 0.03385644, 0.06520176), (-0.03814107, 0.03385644, -0.06520176), (-0.016102917, 0.048391074, 0.06520176), (-0.016102917, 0.048391074, -0.06520176), (0.010250001, 0.049959358, 0.06520176), (0.010250001, 0.049959358, -0.06520176)]
}

