#usda 1.0
(
    defaultPrim = "UCX_Dishwasher_Tray_01_018"
    upAxis = "Z"
)

def Mesh "UCX_Dishwasher_Tray_01_018"
{
    int[] faceVertexCounts = [3, 3, 3, 3, 3, 3, 3, 3, 3, 3, 3, 3]
    int[] faceVertexIndices = [0, 1, 2, 0, 2, 3, 3, 2, 4, 3, 4, 5, 1, 6, 4, 1, 4, 2, 6, 7, 5, 6, 5, 4, 7, 0, 3, 7, 3, 5, 0, 7, 6, 0, 6, 1]
    normal3f[] normals = [(1, -3.2687606e-7, -2.3429298e-7), (1, -1.3877788e-17, 0), (1, -3.2687606e-7, -2.3429298e-7), (1, -3.2687606e-7, -2.3429298e-7), (1, -3.2687606e-7, -2.3429298e-7), (-1.3572636e-17, 0.81429017, 0.5804582), (-1.3572636e-17, 0.81429017, 0.5804582), (1, -3.2687606e-7, -2.3429298e-7), (-3.4811793e-18, 0.88333887, -0.46873492), (-1.3572636e-17, 0.81429017, 0.5804582), (-3.4811793e-18, 0.88333887, -0.46873492), (-1, 7.0997504e-7, 2.3919371e-8), (1, -1.3877788e-17, 0), (-1, 7.176131e-7, 1.6925338e-8), (-3.4811793e-18, 0.88333887, -0.46873492), (1, -1.3877788e-17, 0), (-3.4811793e-18, 0.88333887, -0.46873492), (1, -3.2687606e-7, -2.3429298e-7), (-1, 7.176131e-7, 1.6925338e-8), (-1, 7.099842e-7, 3.1249957e-8), (-1, 7.0997504e-7, 2.3919371e-8), (-1, 7.176131e-7, 1.6925338e-8), (-1, 7.0997504e-7, 2.3919371e-8), (-3.4811793e-18, 0.88333887, -0.46873492), (-1, 7.099842e-7, 3.1249957e-8), (1, -3.2687606e-7, -2.3429298e-7), (-1.3572636e-17, 0.81429017, 0.5804582), (-1, 7.099842e-7, 3.1249957e-8), (-1.3572636e-17, 0.81429017, 0.5804582), (-1, 7.0997504e-7, 2.3919371e-8), (1, -3.2687606e-7, -2.3429298e-7), (-1, 7.099842e-7, 3.1249957e-8), (-1, 7.176131e-7, 1.6925338e-8), (1, -3.2687606e-7, -2.3429298e-7), (-1, 7.176131e-7, 1.6925338e-8), (1, -1.3877788e-17, 0)] (
        interpolation = "faceVarying"
    )
    point3f[] points = [(0.0021554905, -0.004457061, 0.013491032), (0.0021554905, -0.0036123893, -0.0145915365), (0.0021554905, 0.00649306, -0.0018702431), (0.002155498, 0.0061461474, 0.003798591), (-0.00215549, 0.00649306, -0.0018702431), (-0.00215549, 0.0061461474, 0.003798591), (-0.0021554974, -0.0036123893, -0.0145915365), (-0.0021554974, -0.004457061, 0.013491032)]
}

