#usda 1.0
(
    defaultPrim = "UCX_Fridge_Base_024"
    upAxis = "Z"
)

def Mesh "UCX_Fridge_Base_024"
{
    int[] faceVertexCounts = [3, 3, 3, 3, 3, 3, 3, 3, 3, 3, 3, 3, 3, 3, 3, 3, 3, 3, 3, 3]
    int[] faceVertexIndices = [0, 1, 2, 0, 2, 3, 1, 4, 5, 1, 5, 2, 6, 7, 8, 6, 8, 9, 7, 10, 11, 7, 11, 8, 0, 10, 7, 0, 7, 6, 9, 8, 11, 9, 11, 3, 5, 9, 3, 5, 3, 2, 1, 0, 6, 1, 6, 4, 4, 6, 9, 4, 9, 5, 10, 0, 3, 10, 3, 11]
    normal3f[] normals = [(-1, 0, 0), (-1, 0, 0), (1, 0, 0), (-1, 0, 0), (1, 0, 0), (1, 0, 0), (-1, 0, 0), (0, 0.8629802, -0.50523776), (1, 0, 0), (-1, 0, 0), (1, 0, 0), (1, 0, 0), (-1, 0, 0), (1, 0, 0), (0, 0.8629802, 0.5052377), (-1, 0, 0), (0, 0.8629802, 0.5052377), (1, 0, 0), (1, 0, 0), (1, 0, 0), (1, 0, 0), (1, 0, 0), (1, 0, 0), (0, 0.8629802, 0.5052377), (-1, 0, 0), (1, 0, 0), (1, 0, 0), (-1, 0, 0), (1, 0, 0), (-1, 0, 0), (1, 0, 0), (0, 0.8629802, 0.5052377), (1, 0, 0), (1, 0, 0), (1, 0, 0), (1, 0, 0), (1, 0, 0), (1, 0, 0), (1, 0, 0), (1, 0, 0), (1, 0, 0), (1, 0, 0), (-1, 0, 0), (-1, 0, 0), (-1, 0, 0), (-1, 0, 0), (-1, 0, 0), (0, 0.8629802, -0.50523776), (0, 0.8629802, -0.50523776), (-1, 0, 0), (1, 0, 0), (0, 0.8629802, -0.50523776), (1, 0, 0), (1, 0, 0), (1, 0, 0), (-1, 0, 0), (1, 0, 0), (1, 0, 0), (1, 0, 0), (1, 0, 0)] (
        interpolation = "faceVarying"
    )
    point3f[] points = [(-0.0041944385, -0.006396953, -6.0715977e-10), (-0.0041944385, -0.006396953, -0.025452442), (0.0041944385, -0.006396953, -0.025452442), (0.0041944385, -0.006396953, -6.0715977e-10), (-0.0041944385, 0.008448254, -0.0075468053), (0.0041944385, 0.008448254, -0.0075468053), (-0.0041944385, 0.01068547, -6.0715977e-10), (-0.0041944385, 0.008448254, 0.0075468044), (0.0041944385, 0.008448254, 0.0075468044), (0.0041944385, 0.01068547, -6.0715977e-10), (-0.0041944385, -0.006396953, 0.025452442), (0.0041944385, -0.006396953, 0.025452442)]
}

