#usda 1.0
(
    defaultPrim = "UCX_Fridge_Egg_Tray_010"
    upAxis = "Z"
)

def Mesh "UCX_Fridge_Egg_Tray_010"
{
    int[] faceVertexCounts = [3, 3, 3, 3, 3, 3, 3, 3, 3, 3, 3, 3]
    int[] faceVertexIndices = [0, 1, 2, 0, 2, 3, 4, 5, 6, 4, 6, 7, 1, 0, 7, 1, 7, 6, 7, 0, 3, 7, 3, 4, 2, 5, 4, 2, 4, 3, 6, 5, 2, 6, 2, 1]
    normal3f[] normals = [(1.0000001, 2.5920642e-8, 0), (1, -2.40994e-8, 0), (1, 5.2515396e-9, 0), (1.0000001, 2.5920642e-8, 0), (1, 5.2515396e-9, 0), (1.0000001, 2.5920642e-8, 0), (-1.0000001, -2.5920642e-8, -0), (-1, -5.2515396e-9, -0), (-1.0000001, -2.5920642e-8, -0), (-1.0000001, -2.5920642e-8, -0), (-1.0000001, -2.5920642e-8, -0), (-1.0000001, -4.059611e-8, -0), (1, -2.40994e-8, 0), (1.0000001, 2.5920642e-8, 0), (-1.0000001, -4.059611e-8, -0), (1, -2.40994e-8, 0), (-1.0000001, -4.059611e-8, -0), (-1.0000001, -2.5920642e-8, -0), (-1.0000001, -4.059611e-8, -0), (1.0000001, 2.5920642e-8, 0), (1.0000001, 2.5920642e-8, 0), (-1.0000001, -4.059611e-8, -0), (1.0000001, 2.5920642e-8, 0), (-1.0000001, -2.5920642e-8, -0), (1, 5.2515396e-9, 0), (-1, -5.2515396e-9, -0), (-1.0000001, -2.5920642e-8, -0), (1, 5.2515396e-9, 0), (-1.0000001, -2.5920642e-8, -0), (1.0000001, 2.5920642e-8, 0), (-1.0000001, -2.5920642e-8, -0), (-1, -5.2515396e-9, -0), (1, 5.2515396e-9, 0), (-1.0000001, -2.5920642e-8, -0), (1, 5.2515396e-9, 0), (1, -2.40994e-8, 0)] (
        interpolation = "faceVarying"
    )
    point3f[] points = [(0.000900002, -0.0066522057, 0.017643318), (0.000900002, -0.0066522057, -0.017643318), (0.00090000156, 0.0066522085, -0.017643318), (0.00090000156, 0.0066522085, 0.017643318), (-0.0009000022, 0.0066522053, 0.017643318), (-0.0009000022, 0.0066522053, -0.017643318), (-0.00090000196, -0.0066522094, -0.017643318), (-0.00090000196, -0.0066522094, 0.017643318)]
}

