#usda 1.0
(
    defaultPrim = "UCX_Dishwasher_Tray_02_007"
    upAxis = "Z"
)

def Mesh "UCX_Dishwasher_Tray_02_007"
{
    int[] faceVertexCounts = [3, 3, 3, 3, 3, 3, 3, 3, 3, 3, 3, 3, 3, 3, 3, 3, 3, 3, 3, 3, 3, 3, 3, 3, 3, 3, 3, 3]
    int[] faceVertexIndices = [0, 1, 2, 0, 2, 3, 3, 2, 4, 3, 4, 5, 5, 4, 6, 5, 6, 7, 7, 6, 8, 7, 8, 9, 9, 8, 10, 9, 10, 11, 11, 10, 12, 11, 12, 13, 4, 2, 1, 1, 14, 12, 12, 10, 8, 8, 6, 4, 4, 1, 12, 12, 8, 4, 13, 12, 14, 13, 14, 15, 15, 14, 1, 15, 1, 0, 15, 0, 3, 3, 5, 7, 7, 9, 11, 11, 13, 15, 15, 3, 7, 7, 11, 15]
    normal3f[] normals = [(0.13677274, 0.9906025, 4.1632844e-9), (-0.13677357, 0.99060243, 2.0089209e-8), (0.6037477, 0.7971755, 1.9762942e-8), (0.13677274, 0.9906025, 4.1632844e-9), (0.6037477, 0.7971755, 1.9762942e-8), (0.79717636, 0.6037466, 8.6110346e-9), (0.79717636, 0.6037466, 8.6110346e-9), (0.6037477, 0.7971755, 1.9762942e-8), (0.9906026, 0.13677204, -1.7107716e-9), (0.79717636, 0.6037466, 8.6110346e-9), (0.9906026, 0.13677204, -1.7107716e-9), (0.9906026, -0.136772, -2.6185913e-9), (0.9906026, -0.136772, -2.6185913e-9), (0.9906026, 0.13677204, -1.7107716e-9), (0.79717636, -0.6037466, -8.6110346e-9), (0.9906026, -0.136772, -2.6185913e-9), (0.79717636, -0.6037466, -8.6110346e-9), (0.6037477, -0.7971755, -1.9762942e-8), (0.6037477, -0.7971755, -1.9762942e-8), (0.79717636, -0.6037466, -8.6110346e-9), (0.13677356, -0.99060243, -4.9158e-8), (0.6037477, -0.7971755, -1.9762942e-8), (0.13677356, -0.99060243, -4.9158e-8), (-0.13677274, -0.9906025, 2.4905507e-8), (-0.13677274, -0.9906025, 2.4905507e-8), (0.13677356, -0.99060243, -4.9158e-8), (-0.60374826, -0.79717505, -1.6360767e-8), (-0.13677274, -0.9906025, 2.4905507e-8), (-0.60374826, -0.79717505, -1.6360767e-8), (-0.7971767, -0.6037462, -2.4258051e-9), (-0.7971767, -0.6037462, -2.4258051e-9), (-0.60374826, -0.79717505, -1.6360767e-8), (-0.9906026, -0.13677204, -1.2823625e-8), (-0.7971767, -0.6037462, -2.4258051e-9), (-0.9906026, -0.13677204, -1.2823625e-8), (-0.9906026, 0.13677213, -1.9812638e-9), (0.9906026, 0.13677204, -1.7107716e-9), (0.6037477, 0.7971755, 1.9762942e-8), (-0.13677357, 0.99060243, 2.0089209e-8), (-0.13677357, 0.99060243, 2.0089209e-8), (-0.797176, 0.60374695, 2.618681e-10), (-0.9906026, -0.13677204, -1.2823625e-8), (-0.9906026, -0.13677204, -1.2823625e-8), (-0.60374826, -0.79717505, -1.6360767e-8), (0.13677356, -0.99060243, -4.9158e-8), (0.13677356, -0.99060243, -4.9158e-8), (0.79717636, -0.6037466, -8.6110346e-9), (0.9906026, 0.13677204, -1.7107716e-9), (0.9906026, 0.13677204, -1.7107716e-9), (-0.13677357, 0.99060243, 2.0089209e-8), (-0.9906026, -0.13677204, -1.2823625e-8), (-0.9906026, -0.13677204, -1.2823625e-8), (0.13677356, -0.99060243, -4.9158e-8), (0.9906026, 0.13677204, -1.7107716e-9), (-0.9906026, 0.13677213, -1.9812638e-9), (-0.9906026, -0.13677204, -1.2823625e-8), (-0.797176, 0.60374695, 2.618681e-10), (-0.9906026, 0.13677213, -1.9812638e-9), (-0.797176, 0.60374695, 2.618681e-10), (-0.60374767, 0.79717547, 2.115447e-8), (-0.60374767, 0.79717547, 2.115447e-8), (-0.797176, 0.60374695, 2.618681e-10), (-0.13677357, 0.99060243, 2.0089209e-8), (-0.60374767, 0.79717547, 2.115447e-8), (-0.13677357, 0.99060243, 2.0089209e-8), (0.13677274, 0.9906025, 4.1632844e-9), (-0.60374767, 0.79717547, 2.115447e-8), (0.13677274, 0.9906025, 4.1632844e-9), (0.79717636, 0.6037466, 8.6110346e-9), (0.79717636, 0.6037466, 8.6110346e-9), (0.9906026, -0.136772, -2.6185913e-9), (0.6037477, -0.7971755, -1.9762942e-8), (0.6037477, -0.7971755, -1.9762942e-8), (-0.13677274, -0.9906025, 2.4905507e-8), (-0.7971767, -0.6037462, -2.4258051e-9), (-0.7971767, -0.6037462, -2.4258051e-9), (-0.9906026, 0.13677213, -1.9812638e-9), (-0.60374767, 0.79717547, 2.115447e-8), (-0.60374767, 0.79717547, 2.115447e-8), (0.79717636, 0.6037466, 8.6110346e-9), (0.6037477, -0.7971755, -1.9762942e-8), (0.6037477, -0.7971755, -1.9762942e-8), (-0.7971767, -0.6037462, -2.4258051e-9), (-0.60374767, 0.79717547, 2.115447e-8)] (
        interpolation = "faceVarying"
    )
    point3f[] points = [(2.4344124e-11, 0.0020000006, -0.03520002), (2.4344124e-11, 0.0019999982, 0.035200022), (0.001414217, 0.0014142145, 0.03520002), (0.001414217, 0.0014142131, -0.035200022), (0.0019999966, 1.5868948e-9, 0.035200022), (0.0019999966, 2.2990472e-10, -0.03520002), (0.001414217, -0.001414215, 0.035200022), (0.001414217, -0.0014142126, -0.03520002), (2.4344124e-11, -0.0019999987, 0.03520002), (2.4344124e-11, -0.002, -0.035200022), (-0.001414217, -0.001414215, 0.035200022), (-0.001414217, -0.0014142126, -0.03520002), (-0.0019999966, 1.5868948e-9, 0.035200022), (-0.0019999966, 2.2990472e-10, -0.03520002), (-0.001414217, 0.0014142145, 0.03520002), (-0.001414217, 0.0014142131, -0.035200022)]
}

