#usda 1.0
(
    defaultPrim = "UCX_Dishwasher_Tray_01_102"
    upAxis = "Z"
)

def Mesh "UCX_Dishwasher_Tray_01_102"
{
    int[] faceVertexCounts = [3, 3, 3, 3, 3, 3, 3, 3, 3, 3, 3, 3, 3, 3, 3, 3, 3, 3, 3, 3, 3, 3, 3, 3, 3, 3, 3, 3]
    int[] faceVertexIndices = [0, 1, 2, 0, 2, 3, 1, 4, 5, 1, 5, 2, 4, 6, 7, 4, 7, 5, 6, 8, 9, 6, 9, 7, 8, 10, 11, 8, 11, 9, 10, 12, 13, 10, 13, 11, 3, 2, 5, 5, 7, 9, 9, 11, 13, 13, 14, 3, 3, 5, 9, 9, 13, 3, 12, 15, 14, 12, 14, 13, 15, 0, 3, 15, 3, 14, 1, 0, 15, 15, 12, 10, 10, 8, 6, 6, 4, 1, 1, 15, 10, 10, 6, 1]
    normal3f[] normals = [(-0.14417891, 0.98955166, -6.375873e-9), (-0.8124195, 0.5830734, -1.9534635e-8), (-0.6243166, 0.78117144, -3.6941483e-8), (-0.14417891, 0.98955166, -6.375873e-9), (-0.6243166, 0.78117144, -3.6941483e-8), (0.1441799, 0.9895515, -1.3271924e-9), (-0.8124195, 0.5830734, -1.9534635e-8), (-0.99154913, -0.1297325, 7.972025e-9), (-0.991549, 0.12973304, -9.3751975e-9), (-0.8124195, 0.5830734, -1.9534635e-8), (-0.991549, 0.12973304, -9.3751975e-9), (-0.6243166, 0.78117144, -3.6941483e-8), (-0.99154913, -0.1297325, 7.972025e-9), (-0.6243163, -0.7811717, -4.347195e-8), (-0.8124199, -0.5830731, 4.343054e-9), (-0.99154913, -0.1297325, 7.972025e-9), (-0.8124199, -0.5830731, 4.343054e-9), (-0.991549, 0.12973304, -9.3751975e-9), (-0.6243163, -0.7811717, -4.347195e-8), (0.14417984, -0.9895516, 3.8259214e-9), (-0.14417894, -0.98955166, -1.2600561e-8), (-0.6243163, -0.7811717, -4.347195e-8), (-0.14417894, -0.98955166, -1.2600561e-8), (-0.8124199, -0.5830731, 4.343054e-9), (0.14417984, -0.9895516, 3.8259214e-9), (0.8124168, -0.5830771, 4.585855e-8), (0.6243196, -0.781169, 2.8985848e-8), (0.14417984, -0.9895516, 3.8259214e-9), (0.6243196, -0.781169, 2.8985848e-8), (-0.14417894, -0.98955166, -1.2600561e-8), (0.8124168, -0.5830771, 4.585855e-8), (0.99154824, 0.12973897, 2.8966594e-8), (0.99154824, -0.12973838, 5.7130574e-8), (0.8124168, -0.5830771, 4.585855e-8), (0.99154824, -0.12973838, 5.7130574e-8), (0.6243196, -0.781169, 2.8985848e-8), (0.1441799, 0.9895515, -1.3271924e-9), (-0.6243166, 0.78117144, -3.6941483e-8), (-0.991549, 0.12973304, -9.3751975e-9), (-0.991549, 0.12973304, -9.3751975e-9), (-0.8124199, -0.5830731, 4.343054e-9), (-0.14417894, -0.98955166, -1.2600561e-8), (-0.14417894, -0.98955166, -1.2600561e-8), (0.6243196, -0.781169, 2.8985848e-8), (0.99154824, -0.12973838, 5.7130574e-8), (0.99154824, -0.12973838, 5.7130574e-8), (0.81241685, 0.5830771, 1.769457e-8), (0.1441799, 0.9895515, -1.3271924e-9), (0.1441799, 0.9895515, -1.3271924e-9), (-0.991549, 0.12973304, -9.3751975e-9), (-0.14417894, -0.98955166, -1.2600561e-8), (-0.14417894, -0.98955166, -1.2600561e-8), (0.99154824, -0.12973838, 5.7130574e-8), (0.1441799, 0.9895515, -1.3271924e-9), (0.99154824, 0.12973897, 2.8966594e-8), (0.6243199, 0.7811688, 2.7863761e-8), (0.81241685, 0.5830771, 1.769457e-8), (0.99154824, 0.12973897, 2.8966594e-8), (0.81241685, 0.5830771, 1.769457e-8), (0.99154824, -0.12973838, 5.7130574e-8), (0.6243199, 0.7811688, 2.7863761e-8), (-0.14417891, 0.98955166, -6.375873e-9), (0.1441799, 0.9895515, -1.3271924e-9), (0.6243199, 0.7811688, 2.7863761e-8), (0.1441799, 0.9895515, -1.3271924e-9), (0.81241685, 0.5830771, 1.769457e-8), (-0.8124195, 0.5830734, -1.9534635e-8), (-0.14417891, 0.98955166, -6.375873e-9), (0.6243199, 0.7811688, 2.7863761e-8), (0.6243199, 0.7811688, 2.7863761e-8), (0.99154824, 0.12973897, 2.8966594e-8), (0.8124168, -0.5830771, 4.585855e-8), (0.8124168, -0.5830771, 4.585855e-8), (0.14417984, -0.9895516, 3.8259214e-9), (-0.6243163, -0.7811717, -4.347195e-8), (-0.6243163, -0.7811717, -4.347195e-8), (-0.99154913, -0.1297325, 7.972025e-9), (-0.8124195, 0.5830734, -1.9534635e-8), (-0.8124195, 0.5830734, -1.9534635e-8), (0.6243199, 0.7811688, 2.7863761e-8), (0.8124168, -0.5830771, 4.585855e-8), (0.8124168, -0.5830771, 4.585855e-8), (-0.6243163, -0.7811717, -4.347195e-8), (-0.8124195, 0.5830734, -1.9534635e-8)] (
        interpolation = "faceVarying"
    )
    point3f[] points = [(7.68226e-9, 0.0020000043, -0.030801203), (-0.001340175, 0.00141421, -0.030801209), (-0.0013401757, 0.00141421, 0.030801209), (4.5055346e-9, 0.0020000043, 0.03080122), (-0.0018952753, 3.4368017e-10, -0.030801196), (-0.0018952737, 3.4368017e-10, 0.030801214), (-0.001340175, -0.0014142093, -0.030801209), (-0.0013401757, -0.0014142093, 0.030801209), (7.68226e-9, -0.0020000038, -0.030801203), (4.5055346e-9, -0.0020000038, 0.03080122), (0.0013401622, -0.0014142093, -0.03080121), (0.0013401591, -0.0014142093, 0.030801214), (0.0018952859, 3.4368017e-10, -0.030801198), (0.0018952851, 3.4368017e-10, 0.030801218), (0.0013401591, 0.00141421, 0.030801214), (0.0013401622, 0.00141421, -0.03080121)]
}

