#usda 1.0
(
    defaultPrim = "UCX_Dishwasher_Tray_02_017"
    upAxis = "Z"
)

def Mesh "UCX_Dishwasher_Tray_02_017"
{
    int[] faceVertexCounts = [3, 3, 3, 3, 3, 3, 3, 3, 3, 3, 3, 3, 3, 3, 3, 3, 3, 3, 3, 3, 3, 3, 3, 3, 3, 3, 3, 3]
    int[] faceVertexIndices = [0, 1, 2, 0, 2, 3, 3, 2, 4, 3, 4, 5, 5, 4, 6, 5, 6, 7, 7, 6, 8, 7, 8, 9, 9, 8, 10, 9, 10, 11, 11, 10, 12, 11, 12, 13, 4, 2, 1, 1, 14, 12, 12, 10, 8, 8, 6, 4, 4, 1, 12, 12, 8, 4, 13, 12, 14, 13, 14, 15, 15, 14, 1, 15, 1, 0, 15, 0, 3, 3, 5, 7, 7, 9, 11, 11, 13, 15, 15, 3, 7, 7, 11, 15]
    normal3f[] normals = [(0.13677357, 0.99060243, 5.2193975e-8), (-0.13677356, 0.99060243, 5.2193975e-8), (0.6037477, 0.79717547, 5.5504444e-8), (0.13677357, 0.99060243, 5.2193975e-8), (0.6037477, 0.79717547, 5.5504444e-8), (0.7971757, 0.60374737, 4.165076e-8), (0.7971757, 0.60374737, 4.165076e-8), (0.6037477, 0.79717547, 5.5504444e-8), (0.9906026, 0.13677226, 9.65141e-9), (0.7971757, 0.60374737, 4.165076e-8), (0.9906026, 0.13677226, 9.65141e-9), (0.9906026, -0.13677178, 8.285155e-9), (0.9906026, -0.13677178, 8.285155e-9), (0.9906026, 0.13677226, 9.65141e-9), (0.79717755, -0.6037449, 4.4288746e-9), (0.9906026, -0.13677178, 8.285155e-9), (0.79717755, -0.6037449, 4.4288746e-9), (0.6037499, -0.7971739, 2.4590987e-8), (0.6037499, -0.7971739, 2.4590987e-8), (0.79717755, -0.6037449, 4.4288746e-9), (0.13677356, -0.99060243, 2.0478003e-8), (0.6037499, -0.7971739, 2.4590987e-8), (0.13677356, -0.99060243, 2.0478003e-8), (-0.13677357, -0.99060243, 3.50124e-8), (-0.13677357, -0.99060243, 3.50124e-8), (0.13677356, -0.99060243, 2.0478003e-8), (-0.6037488, -0.79717463, 2.6754932e-8), (-0.13677357, -0.99060243, 3.50124e-8), (-0.6037488, -0.79717463, 2.6754932e-8), (-0.79717755, -0.6037449, 4.4288746e-9), (-0.79717755, -0.6037449, 4.4288746e-9), (-0.6037488, -0.79717463, 2.6754932e-8), (-0.9906026, -0.13677181, 1.7137206e-9), (-0.79717755, -0.6037449, 4.4288746e-9), (-0.9906026, -0.13677181, 1.7137206e-9), (-0.9906026, 0.136772, 1.01150075e-8), (0.9906026, 0.13677226, 9.65141e-9), (0.6037477, 0.79717547, 5.5504444e-8), (-0.13677356, 0.99060243, 5.2193975e-8), (-0.13677356, 0.99060243, 5.2193975e-8), (-0.7971757, 0.60374737, 4.165076e-8), (-0.9906026, -0.13677181, 1.7137206e-9), (-0.9906026, -0.13677181, 1.7137206e-9), (-0.6037488, -0.79717463, 2.6754932e-8), (0.13677356, -0.99060243, 2.0478003e-8), (0.13677356, -0.99060243, 2.0478003e-8), (0.79717755, -0.6037449, 4.4288746e-9), (0.9906026, 0.13677226, 9.65141e-9), (0.9906026, 0.13677226, 9.65141e-9), (-0.13677356, 0.99060243, 5.2193975e-8), (-0.9906026, -0.13677181, 1.7137206e-9), (-0.9906026, -0.13677181, 1.7137206e-9), (0.13677356, -0.99060243, 2.0478003e-8), (0.9906026, 0.13677226, 9.65141e-9), (-0.9906026, 0.136772, 1.01150075e-8), (-0.9906026, -0.13677181, 1.7137206e-9), (-0.7971757, 0.60374737, 4.165076e-8), (-0.9906026, 0.136772, 1.01150075e-8), (-0.7971757, 0.60374737, 4.165076e-8), (-0.60374767, 0.79717547, 8.457324e-8), (-0.60374767, 0.79717547, 8.457324e-8), (-0.7971757, 0.60374737, 4.165076e-8), (-0.13677356, 0.99060243, 5.2193975e-8), (-0.60374767, 0.79717547, 8.457324e-8), (-0.13677356, 0.99060243, 5.2193975e-8), (0.13677357, 0.99060243, 5.2193975e-8), (-0.60374767, 0.79717547, 8.457324e-8), (0.13677357, 0.99060243, 5.2193975e-8), (0.7971757, 0.60374737, 4.165076e-8), (0.7971757, 0.60374737, 4.165076e-8), (0.9906026, -0.13677178, 8.285155e-9), (0.6037499, -0.7971739, 2.4590987e-8), (0.6037499, -0.7971739, 2.4590987e-8), (-0.13677357, -0.99060243, 3.50124e-8), (-0.79717755, -0.6037449, 4.4288746e-9), (-0.79717755, -0.6037449, 4.4288746e-9), (-0.9906026, 0.136772, 1.01150075e-8), (-0.60374767, 0.79717547, 8.457324e-8), (-0.60374767, 0.79717547, 8.457324e-8), (0.7971757, 0.60374737, 4.165076e-8), (0.6037499, -0.7971739, 2.4590987e-8), (0.6037499, -0.7971739, 2.4590987e-8), (-0.79717755, -0.6037449, 4.4288746e-9), (-0.60374767, 0.79717547, 8.457324e-8)] (
        interpolation = "faceVarying"
    )
    point3f[] points = [(3.0969446e-10, 0.0020000034, -0.035200004), (3.0969446e-10, 0.001999999, 0.035200033), (0.0014142174, 0.0014142115, 0.03520003), (0.0014142174, 0.0014142158, -0.035200007), (0.0019999968, 2.2563906e-9, 0.035200033), (0.0019999968, 6.528001e-9, -0.035200004), (0.0014142174, -0.0014142143, 0.035200033), (0.0014142174, -0.0014142173, -0.035200004), (3.0969446e-10, -0.0020000017, 0.03520003), (3.0969446e-10, -0.0020000048, -0.035200007), (-0.0014142167, -0.0014142143, 0.035200033), (-0.0014142167, -0.0014142173, -0.035200004), (-0.0019999964, 2.2563906e-9, 0.035200033), (-0.0019999964, 6.528001e-9, -0.035200004), (-0.0014142167, 0.0014142115, 0.03520003), (-0.0014142167, 0.0014142158, -0.035200007)]
}

