#usda 1.0
(
    defaultPrim = "UCX_Dishwasher_Tray_02_018"
    upAxis = "Z"
)

def Mesh "UCX_Dishwasher_Tray_02_018"
{
    int[] faceVertexCounts = [3, 3, 3, 3, 3, 3, 3, 3, 3, 3, 3, 3, 3, 3, 3, 3, 3, 3, 3, 3, 3, 3, 3, 3, 3, 3, 3, 3]
    int[] faceVertexIndices = [0, 1, 2, 0, 2, 3, 3, 2, 4, 3, 4, 5, 5, 4, 6, 5, 6, 7, 7, 6, 8, 7, 8, 9, 9, 8, 10, 9, 10, 11, 11, 10, 12, 11, 12, 13, 4, 2, 1, 1, 14, 12, 12, 10, 8, 8, 6, 4, 4, 1, 12, 12, 8, 4, 13, 12, 14, 13, 14, 15, 15, 14, 1, 15, 1, 0, 15, 0, 3, 3, 5, 7, 7, 9, 11, 11, 13, 15, 15, 3, 7, 7, 11, 15]
    normal3f[] normals = [(0.1367739, 0.9906023, -8.694355e-8), (-0.13677391, 0.9906023, -1.1601234e-7), (0.6037499, 0.7971738, -7.229013e-8), (0.1367739, 0.9906023, -8.694355e-8), (0.6037499, 0.7971738, -7.229013e-8), (0.7971757, 0.6037474, -1.9133726e-8), (0.7971757, 0.6037474, -1.9133726e-8), (0.6037499, 0.7971738, -7.229013e-8), (0.9906023, 0.13677372, -9.829305e-9), (0.7971757, 0.6037474, -1.9133726e-8), (0.9906023, 0.13677372, -9.829305e-9), (0.9906023, -0.1367742, -1.9008079e-8), (0.9906023, -0.1367742, -1.9008079e-8), (0.9906023, 0.13677372, -9.829305e-9), (0.79717445, -0.603749, -6.0961774e-8), (0.9906023, -0.1367742, -1.9008079e-8), (0.79717445, -0.603749, -6.0961774e-8), (0.6037477, -0.79717547, -1.06763096e-7), (0.6037477, -0.79717547, -1.06763096e-7), (0.79717445, -0.603749, -6.0961774e-8), (0.1367739, -0.9906023, -1.1514647e-7), (0.6037477, -0.79717547, -1.06763096e-7), (0.1367739, -0.9906023, -1.1514647e-7), (-0.1367739, -0.9906023, -1.1514647e-7), (-0.1367739, -0.9906023, -1.1514647e-7), (0.1367739, -0.9906023, -1.1514647e-7), (-0.6037477, -0.79717547, -9.2228696e-8), (-0.1367739, -0.9906023, -1.1514647e-7), (-0.6037477, -0.79717547, -9.2228696e-8), (-0.7971745, -0.603749, -6.0961774e-8), (-0.7971745, -0.603749, -6.0961774e-8), (-0.6037477, -0.79717547, -9.2228696e-8), (-0.9906023, -0.13677375, -2.0360524e-8), (-0.7971745, -0.603749, -6.0961774e-8), (-0.9906023, -0.13677375, -2.0360524e-8), (-0.9906023, 0.13677374, -1.1993986e-8), (0.9906023, 0.13677372, -9.829305e-9), (0.6037499, 0.7971738, -7.229013e-8), (-0.13677391, 0.9906023, -1.1601234e-7), (-0.13677391, 0.9906023, -1.1601234e-7), (-0.7971757, 0.6037474, -1.9133726e-8), (-0.9906023, -0.13677375, -2.0360524e-8), (-0.9906023, -0.13677375, -2.0360524e-8), (-0.6037477, -0.79717547, -9.2228696e-8), (0.1367739, -0.9906023, -1.1514647e-7), (0.1367739, -0.9906023, -1.1514647e-7), (0.79717445, -0.603749, -6.0961774e-8), (0.9906023, 0.13677372, -9.829305e-9), (0.9906023, 0.13677372, -9.829305e-9), (-0.13677391, 0.9906023, -1.1601234e-7), (-0.9906023, -0.13677375, -2.0360524e-8), (-0.9906023, -0.13677375, -2.0360524e-8), (0.1367739, -0.9906023, -1.1514647e-7), (0.9906023, 0.13677372, -9.829305e-9), (-0.9906023, 0.13677374, -1.1993986e-8), (-0.9906023, -0.13677375, -2.0360524e-8), (-0.7971757, 0.6037474, -1.9133726e-8), (-0.9906023, 0.13677374, -1.1993986e-8), (-0.7971757, 0.6037474, -1.9133726e-8), (-0.6037477, 0.7971756, -3.997239e-8), (-0.6037477, 0.7971756, -3.997239e-8), (-0.7971757, 0.6037474, -1.9133726e-8), (-0.13677391, 0.9906023, -1.1601234e-7), (-0.6037477, 0.7971756, -3.997239e-8), (-0.13677391, 0.9906023, -1.1601234e-7), (0.1367739, 0.9906023, -8.694355e-8), (-0.6037477, 0.7971756, -3.997239e-8), (0.1367739, 0.9906023, -8.694355e-8), (0.7971757, 0.6037474, -1.9133726e-8), (0.7971757, 0.6037474, -1.9133726e-8), (0.9906023, -0.1367742, -1.9008079e-8), (0.6037477, -0.79717547, -1.06763096e-7), (0.6037477, -0.79717547, -1.06763096e-7), (-0.1367739, -0.9906023, -1.1514647e-7), (-0.7971745, -0.603749, -6.0961774e-8), (-0.7971745, -0.603749, -6.0961774e-8), (-0.9906023, 0.13677374, -1.1993986e-8), (-0.6037477, 0.7971756, -3.997239e-8), (-0.6037477, 0.7971756, -3.997239e-8), (0.7971757, 0.6037474, -1.9133726e-8), (0.6037477, -0.79717547, -1.06763096e-7), (0.6037477, -0.79717547, -1.06763096e-7), (-0.7971745, -0.603749, -6.0961774e-8), (-0.6037477, 0.7971756, -3.997239e-8)] (
        interpolation = "faceVarying"
    )
    point3f[] points = [(1.3447798e-9, 0.001999999, -0.03520004), (1.3447798e-9, 0.0020000057, 0.035199996), (0.0014142147, 0.0014142181, 0.035199992), (0.0014142147, 0.0014142116, -0.035200045), (0.0020000017, -5.2311053e-9, 0.035199992), (0.0020000017, 2.2836915e-9, -0.035200045), (0.0014142147, -0.0014142145, 0.035199996), (0.0014142147, -0.0014142074, -0.03520004), (1.3447798e-9, -0.002000002, 0.035199992), (1.3447798e-9, -0.001999995, -0.035200045), (-0.0014142119, -0.0014142145, 0.035199996), (-0.0014142119, -0.0014142074, -0.03520004), (-0.001999999, -5.2311053e-9, 0.035199992), (-0.001999999, 2.2836915e-9, -0.035200045), (-0.0014142119, 0.0014142181, 0.035199992), (-0.0014142119, 0.0014142116, -0.035200045)]
}

