#usda 1.0
(
    defaultPrim = "UCX_Dishwasher_Tray_01_140"
    upAxis = "Z"
)

def Mesh "UCX_Dishwasher_Tray_01_140"
{
    int[] faceVertexCounts = [3, 3, 3, 3, 3, 3, 3, 3, 3, 3, 3, 3, 3, 3, 3, 3, 3, 3, 3, 3, 3, 3, 3, 3, 3, 3, 3, 3]
    int[] faceVertexIndices = [0, 1, 2, 0, 2, 3, 1, 4, 5, 1, 5, 2, 4, 6, 7, 4, 7, 5, 6, 8, 9, 6, 9, 7, 8, 10, 11, 8, 11, 9, 10, 12, 13, 10, 13, 11, 3, 2, 5, 5, 7, 9, 9, 11, 13, 13, 14, 3, 3, 5, 9, 9, 13, 3, 12, 15, 14, 12, 14, 13, 15, 0, 3, 15, 3, 14, 1, 0, 15, 15, 12, 10, 10, 8, 6, 6, 4, 1, 1, 15, 10, 10, 6, 1]
    normal3f[] normals = [(0.9906026, -0.13677198, 6.1917916e-8), (0.6037476, -0.7971755, 8.451362e-8), (0.7971772, -0.60374546, 8.45138e-8), (0.9906026, -0.13677198, 6.1917916e-8), (0.7971772, -0.60374546, 8.45138e-8), (0.9906026, 0.13677198, 4.8517037e-8), (0.6037476, -0.7971755, 8.451362e-8), (-0.1367715, -0.9906026, 4.685399e-8), (0.1367715, -0.9906026, 6.181988e-8), (0.6037476, -0.7971755, 8.451362e-8), (0.1367715, -0.9906026, 6.181988e-8), (0.7971772, -0.60374546, 8.45138e-8), (-0.1367715, -0.9906026, 4.685399e-8), (-0.7971772, -0.60374546, -3.1301406e-9), (-0.60374546, -0.7971772, 3.1301406e-9), (-0.1367715, -0.9906026, 4.685399e-8), (-0.60374546, -0.7971772, 3.1301406e-9), (0.1367715, -0.9906026, 6.181988e-8), (-0.7971772, -0.60374546, -3.1301406e-9), (-0.9906026, 0.1367715, -6.1917696e-8), (-0.9906026, -0.1367715, -4.6951808e-8), (-0.7971772, -0.60374546, -3.1301406e-9), (-0.9906026, -0.1367715, -4.6951808e-8), (-0.60374546, -0.7971772, 3.1301406e-9), (-0.9906026, 0.1367715, -6.1917696e-8), (-0.60374546, 0.7971772, -8.45138e-8), (-0.7971755, 0.6037476, -8.451362e-8), (-0.9906026, 0.1367715, -6.1917696e-8), (-0.7971755, 0.6037476, -8.451362e-8), (-0.9906026, -0.1367715, -4.6951808e-8), (-0.60374546, 0.7971772, -8.45138e-8), (0.13677198, 0.9906026, -4.6951975e-8), (-0.13677198, 0.9906026, -6.260263e-8), (-0.60374546, 0.7971772, -8.45138e-8), (-0.13677198, 0.9906026, -6.260263e-8), (-0.7971755, 0.6037476, -8.451362e-8), (0.9906026, 0.13677198, 4.8517037e-8), (0.7971772, -0.60374546, 8.45138e-8), (0.1367715, -0.9906026, 6.181988e-8), (0.1367715, -0.9906026, 6.181988e-8), (-0.60374546, -0.7971772, 3.1301406e-9), (-0.9906026, -0.1367715, -4.6951808e-8), (-0.9906026, -0.1367715, -4.6951808e-8), (-0.7971755, 0.6037476, -8.451362e-8), (-0.13677198, 0.9906026, -6.260263e-8), (-0.13677198, 0.9906026, -6.260263e-8), (0.6037476, 0.7971755, -3.1301342e-9), (0.9906026, 0.13677198, 4.8517037e-8), (0.9906026, 0.13677198, 4.8517037e-8), (0.1367715, -0.9906026, 6.181988e-8), (-0.9906026, -0.1367715, -4.6951808e-8), (-0.9906026, -0.1367715, -4.6951808e-8), (-0.13677198, 0.9906026, -6.260263e-8), (0.9906026, 0.13677198, 4.8517037e-8), (0.13677198, 0.9906026, -4.6951975e-8), (0.7971755, 0.6037476, 2.3476006e-9), (0.6037476, 0.7971755, -3.1301342e-9), (0.13677198, 0.9906026, -4.6951975e-8), (0.6037476, 0.7971755, -3.1301342e-9), (-0.13677198, 0.9906026, -6.260263e-8), (0.7971755, 0.6037476, 2.3476006e-9), (0.9906026, -0.13677198, 6.1917916e-8), (0.9906026, 0.13677198, 4.8517037e-8), (0.7971755, 0.6037476, 2.3476006e-9), (0.9906026, 0.13677198, 4.8517037e-8), (0.6037476, 0.7971755, -3.1301342e-9), (0.6037476, -0.7971755, 8.451362e-8), (0.9906026, -0.13677198, 6.1917916e-8), (0.7971755, 0.6037476, 2.3476006e-9), (0.7971755, 0.6037476, 2.3476006e-9), (0.13677198, 0.9906026, -4.6951975e-8), (-0.60374546, 0.7971772, -8.45138e-8), (-0.60374546, 0.7971772, -8.45138e-8), (-0.9906026, 0.1367715, -6.1917696e-8), (-0.7971772, -0.60374546, -3.1301406e-9), (-0.7971772, -0.60374546, -3.1301406e-9), (-0.1367715, -0.9906026, 4.685399e-8), (0.6037476, -0.7971755, 8.451362e-8), (0.6037476, -0.7971755, 8.451362e-8), (0.7971755, 0.6037476, 2.3476006e-9), (-0.60374546, 0.7971772, -8.45138e-8), (-0.60374546, 0.7971772, -8.45138e-8), (-0.7971772, -0.60374546, -3.1301406e-9), (0.6037476, -0.7971755, 8.451362e-8)] (
        interpolation = "faceVarying"
    )
    point3f[] points = [(0.0019999892, 1.7942334e-8, 0.13568458), (0.0014142097, -0.0014142066, 0.13568458), (0.0014142246, -0.0014142215, -0.13568458), (0.002000004, -1.18599885e-8, -0.13568458), (-1.4824771e-8, -0.0019999861, 0.13568458), (1.4977552e-8, -0.002000001, -0.13568458), (-0.0014142244, -0.0014142066, 0.13568458), (-0.0014142095, -0.0014142215, -0.13568458), (-0.002000004, 1.7942334e-8, 0.13568458), (-0.0019999892, -1.18599885e-8, -0.13568458), (-0.0014142244, 0.0014142275, 0.13568458), (-0.0014142095, 0.0014142126, -0.13568458), (-1.4824771e-8, 0.002000007, 0.13568458), (1.4977552e-8, 0.0019999922, -0.13568458), (0.0014142246, 0.0014142126, -0.13568458), (0.0014142097, 0.0014142275, 0.13568458)]
}

