#usda 1.0
(
    defaultPrim = "UCX_Dishwasher_Tray_02_006"
    upAxis = "Z"
)

def Mesh "UCX_Dishwasher_Tray_02_006"
{
    int[] faceVertexCounts = [3, 3, 3, 3, 3, 3, 3, 3, 3, 3, 3, 3, 3, 3, 3, 3, 3, 3, 3, 3, 3, 3, 3, 3, 3, 3, 3, 3]
    int[] faceVertexIndices = [0, 1, 2, 0, 2, 3, 3, 2, 4, 3, 4, 5, 5, 4, 6, 5, 6, 7, 7, 6, 8, 7, 8, 9, 9, 8, 10, 9, 10, 11, 11, 10, 12, 11, 12, 13, 4, 2, 1, 1, 14, 12, 12, 10, 8, 8, 6, 4, 4, 1, 12, 12, 8, 4, 13, 12, 14, 13, 14, 15, 15, 14, 1, 15, 1, 0, 15, 0, 3, 3, 5, 7, 7, 9, 11, 11, 13, 15, 15, 3, 7, 7, 11, 15]
    normal3f[] normals = [(0.13677308, 0.99060243, 2.1675397e-8), (-0.13677391, 0.9906023, -4.610339e-9), (0.603748, 0.7971752, -1.0717451e-9), (0.13677308, 0.99060243, 2.1675397e-8), (0.603748, 0.7971752, -1.0717451e-9), (0.7971753, 0.603748, -9.284491e-9), (0.7971753, 0.603748, -9.284491e-9), (0.603748, 0.7971752, -1.0717451e-9), (0.9906023, 0.13677372, 3.8444106e-9), (0.7971753, 0.603748, -9.284491e-9), (0.9906023, 0.13677372, 3.8444106e-9), (0.9906023, -0.13677378, -7.903282e-9), (0.9906023, -0.13677378, -7.903282e-9), (0.9906023, 0.13677372, 3.8444106e-9), (0.79717505, -0.60374844, -1.0043607e-8), (0.9906023, -0.13677378, -7.903282e-9), (0.79717505, -0.60374844, -1.0043607e-8), (0.6037477, -0.7971755, -6.5050125e-9), (0.6037477, -0.7971755, -6.5050125e-9), (0.79717505, -0.60374844, -1.0043607e-8), (0.1367739, -0.9906023, 4.610339e-9), (0.6037477, -0.7971755, -6.5050125e-9), (0.1367739, -0.9906023, 4.610339e-9), (-0.13677308, -0.99060243, 7.393395e-9), (-0.13677308, -0.99060243, 7.393395e-9), (0.1367739, -0.9906023, 4.610339e-9), (-0.603748, -0.7971752, 1.0717451e-9), (-0.13677308, -0.99060243, 7.393395e-9), (-0.603748, -0.7971752, 1.0717451e-9), (-0.7971753, -0.603748, -5.2499045e-9), (-0.7971753, -0.603748, -5.2499045e-9), (-0.603748, -0.7971752, 1.0717451e-9), (-0.9906023, -0.13677374, -8.946927e-9), (-0.7971753, -0.603748, -5.2499045e-9), (-0.9906023, -0.13677374, -8.946927e-9), (-0.9906023, 0.13677378, 2.452883e-9), (0.9906023, 0.13677372, 3.8444106e-9), (0.603748, 0.7971752, -1.0717451e-9), (-0.13677391, 0.9906023, -4.610339e-9), (-0.13677391, 0.9906023, -4.610339e-9), (-0.79717493, 0.60374844, 1.0043607e-8), (-0.9906023, -0.13677374, -8.946927e-9), (-0.9906023, -0.13677374, -8.946927e-9), (-0.603748, -0.7971752, 1.0717451e-9), (0.1367739, -0.9906023, 4.610339e-9), (0.1367739, -0.9906023, 4.610339e-9), (0.79717505, -0.60374844, -1.0043607e-8), (0.9906023, 0.13677372, 3.8444106e-9), (0.9906023, 0.13677372, 3.8444106e-9), (-0.13677391, 0.9906023, -4.610339e-9), (-0.9906023, -0.13677374, -8.946927e-9), (-0.9906023, -0.13677374, -8.946927e-9), (0.1367739, -0.9906023, 4.610339e-9), (0.9906023, 0.13677372, 3.8444106e-9), (-0.9906023, 0.13677378, 2.452883e-9), (-0.9906023, -0.13677374, -8.946927e-9), (-0.79717493, 0.60374844, 1.0043607e-8), (-0.9906023, 0.13677378, 2.452883e-9), (-0.79717493, 0.60374844, 1.0043607e-8), (-0.6037477, 0.7971755, 2.1039408e-8), (-0.6037477, 0.7971755, 2.1039408e-8), (-0.79717493, 0.60374844, 1.0043607e-8), (-0.13677391, 0.9906023, -4.610339e-9), (-0.6037477, 0.7971755, 2.1039408e-8), (-0.13677391, 0.9906023, -4.610339e-9), (0.13677308, 0.99060243, 2.1675397e-8), (-0.6037477, 0.7971755, 2.1039408e-8), (0.13677308, 0.99060243, 2.1675397e-8), (0.7971753, 0.603748, -9.284491e-9), (0.7971753, 0.603748, -9.284491e-9), (0.9906023, -0.13677378, -7.903282e-9), (0.6037477, -0.7971755, -6.5050125e-9), (0.6037477, -0.7971755, -6.5050125e-9), (-0.13677308, -0.99060243, 7.393395e-9), (-0.7971753, -0.603748, -5.2499045e-9), (-0.7971753, -0.603748, -5.2499045e-9), (-0.9906023, 0.13677378, 2.452883e-9), (-0.6037477, 0.7971755, 2.1039408e-8), (-0.6037477, 0.7971755, 2.1039408e-8), (0.7971753, 0.603748, -9.284491e-9), (0.6037477, -0.7971755, -6.5050125e-9), (0.6037477, -0.7971755, -6.5050125e-9), (-0.7971753, -0.603748, -5.2499045e-9), (-0.6037477, 0.7971755, 2.1039408e-8)] (
        interpolation = "faceVarying"
    )
    point3f[] points = [(1.3641747e-9, 0.0019999996, -0.03520002), (1.3641747e-9, 0.0019999982, 0.03520002), (0.0014142147, 0.0014142144, 0.035200015), (0.0014142147, 0.0014142123, -0.035200022), (0.0020000017, -3.7323877e-10, 0.035200015), (0.0020000017, -6.2213146e-10, -0.03520002), (0.0014142147, -0.0014142151, 0.03520002), (0.0014142147, -0.0014142134, -0.03520002), (1.3641747e-9, -0.001999999, 0.035200015), (1.3641747e-9, -0.002000001, -0.035200022), (-0.0014142119, -0.0014142151, 0.03520002), (-0.0014142119, -0.0014142134, -0.03520002), (-0.001999999, -3.7323877e-10, 0.035200015), (-0.001999999, -6.2213146e-10, -0.03520002), (-0.0014142119, 0.0014142144, 0.035200015), (-0.0014142119, 0.0014142123, -0.035200022)]
}

