#usda 1.0
(
    defaultPrim = "UCX_Dishwasher_Tray_01_053"
    upAxis = "Z"
)

def Mesh "UCX_Dishwasher_Tray_01_053"
{
    int[] faceVertexCounts = [3, 3, 3, 3, 3, 3, 3, 3, 3, 3, 3, 3, 3, 3, 3, 3, 3, 3, 3, 3, 3, 3, 3, 3, 3, 3, 3, 3]
    int[] faceVertexIndices = [0, 1, 2, 0, 2, 3, 3, 2, 4, 3, 4, 5, 5, 4, 6, 5, 6, 7, 7, 6, 8, 7, 8, 9, 9, 8, 10, 9, 10, 11, 11, 10, 12, 11, 12, 13, 4, 2, 1, 1, 14, 12, 12, 10, 8, 8, 6, 4, 4, 1, 12, 12, 8, 4, 13, 12, 14, 13, 14, 15, 15, 14, 1, 15, 1, 0, 15, 0, 3, 3, 5, 7, 7, 9, 11, 11, 13, 15, 15, 3, 7, 7, 11, 15]
    normal3f[] normals = [(0.990603, -0.13676856, -4.1583648e-9), (0.990603, 0.13676855, 4.320379e-9), (0.7971772, -0.6037454, -2.2466025e-8), (0.990603, -0.13676856, -4.1583648e-9), (0.7971772, -0.6037454, -2.2466025e-8), (0.6037443, -0.79717803, -2.4193998e-8), (0.6037443, -0.79717803, -2.4193998e-8), (0.7971772, -0.6037454, -2.2466025e-8), (0.13677055, -0.99060273, -3.0242326e-8), (0.6037443, -0.79717803, -2.4193998e-8), (0.13677055, -0.99060273, -3.0242326e-8), (-0.1367715, -0.9906027, -3.008052e-8), (-0.1367715, -0.9906027, -3.008052e-8), (0.13677055, -0.99060273, -3.0242326e-8), (-0.60374874, -0.79717475, -2.4140315e-8), (-0.1367715, -0.9906027, -3.008052e-8), (-0.60374874, -0.79717475, -2.4140315e-8), (-0.79718053, -0.603741, -2.246612e-8), (-0.79718053, -0.603741, -2.246612e-8), (-0.60374874, -0.79717475, -2.4140315e-8), (-0.9906032, -0.13676809, -3.888328e-9), (-0.79718053, -0.603741, -2.246612e-8), (-0.9906032, -0.13676809, -3.888328e-9), (-0.9906032, 0.13676807, 4.1583506e-9), (-0.9906032, 0.13676807, 4.1583506e-9), (-0.9906032, -0.13676809, -3.888328e-9), (-0.7971806, 0.603741, 2.2412115e-8), (-0.9906032, 0.13676807, 4.1583506e-9), (-0.7971806, 0.603741, 2.2412115e-8), (-0.6037488, 0.7971747, 2.419432e-8), (-0.6037488, 0.7971747, 2.419432e-8), (-0.7971806, 0.603741, 2.2412115e-8), (-0.13677149, 0.9906027, 3.0242532e-8), (-0.6037488, 0.7971747, 2.419432e-8), (-0.13677149, 0.9906027, 3.0242532e-8), (0.13677053, 0.99060273, 3.0026307e-8), (0.13677055, -0.99060273, -3.0242326e-8), (0.7971772, -0.6037454, -2.2466025e-8), (0.990603, 0.13676855, 4.320379e-9), (0.990603, 0.13676855, 4.320379e-9), (0.6037443, 0.79717815, 2.4139997e-8), (-0.13677149, 0.9906027, 3.0242532e-8), (-0.13677149, 0.9906027, 3.0242532e-8), (-0.7971806, 0.603741, 2.2412115e-8), (-0.9906032, -0.13676809, -3.888328e-9), (-0.9906032, -0.13676809, -3.888328e-9), (-0.60374874, -0.79717475, -2.4140315e-8), (0.13677055, -0.99060273, -3.0242326e-8), (0.13677055, -0.99060273, -3.0242326e-8), (0.990603, 0.13676855, 4.320379e-9), (-0.13677149, 0.9906027, 3.0242532e-8), (-0.13677149, 0.9906027, 3.0242532e-8), (-0.9906032, -0.13676809, -3.888328e-9), (0.13677055, -0.99060273, -3.0242326e-8), (0.13677053, 0.99060273, 3.0026307e-8), (-0.13677149, 0.9906027, 3.0242532e-8), (0.6037443, 0.79717815, 2.4139997e-8), (0.13677053, 0.99060273, 3.0026307e-8), (0.6037443, 0.79717815, 2.4139997e-8), (0.79717726, 0.60374546, 2.2466029e-8), (0.79717726, 0.60374546, 2.2466029e-8), (0.6037443, 0.79717815, 2.4139997e-8), (0.990603, 0.13676855, 4.320379e-9), (0.79717726, 0.60374546, 2.2466029e-8), (0.990603, 0.13676855, 4.320379e-9), (0.990603, -0.13676856, -4.1583648e-9), (0.79717726, 0.60374546, 2.2466029e-8), (0.990603, -0.13676856, -4.1583648e-9), (0.6037443, -0.79717803, -2.4193998e-8), (0.6037443, -0.79717803, -2.4193998e-8), (-0.1367715, -0.9906027, -3.008052e-8), (-0.79718053, -0.603741, -2.246612e-8), (-0.79718053, -0.603741, -2.246612e-8), (-0.9906032, 0.13676807, 4.1583506e-9), (-0.6037488, 0.7971747, 2.419432e-8), (-0.6037488, 0.7971747, 2.419432e-8), (0.13677053, 0.99060273, 3.0026307e-8), (0.79717726, 0.60374546, 2.2466029e-8), (0.79717726, 0.60374546, 2.2466029e-8), (0.6037443, -0.79717803, -2.4193998e-8), (-0.79718053, -0.603741, -2.246612e-8), (-0.79718053, -0.603741, -2.246612e-8), (-0.6037488, 0.7971747, 2.419432e-8), (0.79717726, 0.60374546, 2.2466029e-8)] (
        interpolation = "faceVarying"
    )
    point3f[] points = [(0.0019999924, 1.5329313e-8, -0.24576013), (0.0019999924, -1.4473009e-8, 0.24576013), (0.0014142278, -0.001414224, 0.24576013), (0.0014142278, -0.0014142091, -0.24576013), (-1.1615586e-8, -0.0020000036, 0.24576013), (-1.1615586e-8, -0.0019999887, -0.24576013), (-0.0014142212, -0.001414224, 0.24576013), (-0.0014142212, -0.0014142091, -0.24576013), (-0.001999986, -1.4473009e-8, 0.24576013), (-0.001999986, 1.5329313e-8, -0.24576013), (-0.0014142212, 0.0014142101, 0.24576013), (-0.0014142212, 0.001414225, -0.24576013), (-1.1615586e-8, 0.0019999896, 0.24576013), (-1.1615586e-8, 0.0020000045, -0.24576013), (0.0014142278, 0.0014142101, 0.24576013), (0.0014142278, 0.001414225, -0.24576013)]
}

