#usda 1.0
(
    defaultPrim = "UCX_Kitchen_11_Base_Drawer_02_003"
    upAxis = "Z"
)

def Mesh "UCX_Kitchen_11_Base_Drawer_02_003"
{
    int[] faceVertexCounts = [3, 3, 3, 3, 3, 3, 3, 3, 3, 3, 3, 3]
    int[] faceVertexIndices = [0, 1, 2, 0, 2, 3, 4, 5, 3, 4, 3, 2, 6, 7, 5, 6, 5, 4, 1, 6, 4, 1, 4, 2, 7, 0, 3, 7, 3, 5, 6, 1, 0, 6, 0, 7]
    normal3f[] normals = [(0.9941576, -0.10793763, 0), (0.99415773, -0.10793756, 0), (-0.99941915, -0.034078944, -0), (0.9941576, -0.10793763, 0), (-0.99941915, -0.034078944, -0), (-0.9994192, -0.034078978, -0), (-0.9994192, -0.034078978, -0), (-0.9994192, -0.034078978, -0), (-0.9994192, -0.034078978, -0), (-0.9994192, -0.034078978, -0), (-0.9994192, -0.034078978, -0), (-0.99941915, -0.034078944, -0), (0.99415773, -0.10793756, 0), (0.99415773, -0.10793756, 0), (-0.9994192, -0.034078978, -0), (0.99415773, -0.10793756, 0), (-0.9994192, -0.034078978, -0), (-0.9994192, -0.034078978, -0), (0.99415773, -0.10793756, 0), (0.99415773, -0.10793756, 0), (-0.9994192, -0.034078978, -0), (0.99415773, -0.10793756, 0), (-0.9994192, -0.034078978, -0), (-0.99941915, -0.034078944, -0), (0.99415773, -0.10793756, 0), (0.9941576, -0.10793763, 0), (-0.9994192, -0.034078978, -0), (0.99415773, -0.10793756, 0), (-0.9994192, -0.034078978, -0), (-0.9994192, -0.034078978, -0), (0.99415773, -0.10793756, 0), (0.99415773, -0.10793756, 0), (0.9941576, -0.10793763, 0), (0.99415773, -0.10793756, 0), (0.9941576, -0.10793763, 0), (0.99415773, -0.10793756, 0)] (
        interpolation = "faceVarying"
    )
    point3f[] points = [(0.0024702915, -0.021420408, 0.23762636), (0.006269098, 0.013568454, 0.23762636), (-0.0052462462, 0.017658696, 0.23762636), (-0.0041129137, -0.015578103, 0.23762636), (-0.0052462462, 0.017658696, -0.23762634), (-0.0041129137, -0.015578103, -0.23762634), (0.006269098, 0.013568454, -0.23762634), (0.0024702915, -0.021420408, -0.23762634)]
}

