#usda 1.0
(
    defaultPrim = "UCX_Dishwasher_Tray_01_058"
    upAxis = "Z"
)

def Mesh "UCX_Dishwasher_Tray_01_058"
{
    int[] faceVertexCounts = [3, 3, 3, 3, 3, 3, 3, 3, 3, 3, 3, 3, 3, 3, 3, 3, 3, 3, 3, 3, 3, 3, 3, 3, 3, 3, 3, 3]
    int[] faceVertexIndices = [0, 1, 2, 0, 2, 3, 3, 2, 4, 3, 4, 5, 5, 4, 6, 5, 6, 7, 7, 6, 8, 7, 8, 9, 9, 8, 10, 9, 10, 11, 11, 10, 12, 11, 12, 13, 4, 2, 1, 1, 14, 12, 12, 10, 8, 8, 6, 4, 4, 1, 12, 12, 8, 4, 13, 12, 14, 13, 14, 15, 15, 14, 1, 15, 1, 0, 15, 0, 3, 3, 5, 7, 7, 9, 11, 11, 13, 15, 15, 3, 7, 7, 11, 15]
    normal3f[] normals = [(0.99060214, -0.13677537, -3.9920267e-9), (0.99060214, 0.13677537, 4.14756e-9), (0.79717386, -0.6037499, -2.1567296e-8), (0.99060214, -0.13677537, -3.9920267e-9), (0.79717386, -0.6037499, -2.1567296e-8), (0.60374767, -0.79717547, -2.3226365e-8), (0.60374767, -0.79717547, -2.3226365e-8), (0.79717386, -0.6037499, -2.1567296e-8), (0.13677244, -0.9906025, -2.9033034e-8), (0.60374767, -0.79717547, -2.3226365e-8), (0.13677244, -0.9906025, -2.9033034e-8), (-0.13677244, -0.9906025, -2.8825655e-8), (-0.13677244, -0.9906025, -2.8825655e-8), (0.13677244, -0.9906025, -2.9033034e-8), (-0.6037454, -0.79717726, -2.3226415e-8), (-0.13677244, -0.9906025, -2.8825655e-8), (-0.6037454, -0.79717726, -2.3226415e-8), (-0.7971738, -0.6037499, -2.1567294e-8), (-0.7971738, -0.6037499, -2.1567294e-8), (-0.6037454, -0.79717726, -2.3226415e-8), (-0.99060214, -0.1367749, -4.1475454e-9), (-0.7971738, -0.6037499, -2.1567294e-8), (-0.99060214, -0.1367749, -4.1475454e-9), (-0.99060214, 0.1367749, 3.940168e-9), (-0.99060214, 0.1367749, 3.940168e-9), (-0.99060214, -0.1367749, -4.1475454e-9), (-0.79717386, 0.6037499, 2.1567296e-8), (-0.99060214, 0.1367749, 3.940168e-9), (-0.79717386, 0.6037499, 2.1567296e-8), (-0.6037454, 0.7971772, 2.3226415e-8), (-0.6037454, 0.7971772, 2.3226415e-8), (-0.79717386, 0.6037499, 2.1567296e-8), (-0.13677244, 0.9906025, 2.9862548e-8), (-0.6037454, 0.7971772, 2.3226415e-8), (-0.13677244, 0.9906025, 2.9862548e-8), (0.13677244, 0.9906025, 2.8825655e-8), (0.13677244, -0.9906025, -2.9033034e-8), (0.79717386, -0.6037499, -2.1567296e-8), (0.99060214, 0.13677537, 4.14756e-9), (0.99060214, 0.13677537, 4.14756e-9), (0.6037476, 0.7971755, 2.3174522e-8), (-0.13677244, 0.9906025, 2.9862548e-8), (-0.13677244, 0.9906025, 2.9862548e-8), (-0.79717386, 0.6037499, 2.1567296e-8), (-0.99060214, -0.1367749, -4.1475454e-9), (-0.99060214, -0.1367749, -4.1475454e-9), (-0.6037454, -0.79717726, -2.3226415e-8), (0.13677244, -0.9906025, -2.9033034e-8), (0.13677244, -0.9906025, -2.9033034e-8), (0.99060214, 0.13677537, 4.14756e-9), (-0.13677244, 0.9906025, 2.9862548e-8), (-0.13677244, 0.9906025, 2.9862548e-8), (-0.99060214, -0.1367749, -4.1475454e-9), (0.13677244, -0.9906025, -2.9033034e-8), (0.13677244, 0.9906025, 2.8825655e-8), (-0.13677244, 0.9906025, 2.9862548e-8), (0.6037476, 0.7971755, 2.3174522e-8), (0.13677244, 0.9906025, 2.8825655e-8), (0.6037476, 0.7971755, 2.3174522e-8), (0.7971738, 0.6037499, 2.1567294e-8), (0.7971738, 0.6037499, 2.1567294e-8), (0.6037476, 0.7971755, 2.3174522e-8), (0.99060214, 0.13677537, 4.14756e-9), (0.7971738, 0.6037499, 2.1567294e-8), (0.99060214, 0.13677537, 4.14756e-9), (0.99060214, -0.13677537, -3.9920267e-9), (0.7971738, 0.6037499, 2.1567294e-8), (0.99060214, -0.13677537, -3.9920267e-9), (0.60374767, -0.79717547, -2.3226365e-8), (0.60374767, -0.79717547, -2.3226365e-8), (-0.13677244, -0.9906025, -2.8825655e-8), (-0.7971738, -0.6037499, -2.1567294e-8), (-0.7971738, -0.6037499, -2.1567294e-8), (-0.99060214, 0.1367749, 3.940168e-9), (-0.6037454, 0.7971772, 2.3226415e-8), (-0.6037454, 0.7971772, 2.3226415e-8), (0.13677244, 0.9906025, 2.8825655e-8), (0.7971738, 0.6037499, 2.1567294e-8), (0.7971738, 0.6037499, 2.1567294e-8), (0.60374767, -0.79717547, -2.3226365e-8), (-0.7971738, -0.6037499, -2.1567294e-8), (-0.7971738, -0.6037499, -2.1567294e-8), (-0.6037454, 0.7971772, 2.3226415e-8), (0.7971738, 0.6037499, 2.1567294e-8)] (
        interpolation = "faceVarying"
    )
    point3f[] points = [(0.0020000036, 1.4250419e-8, -0.25600016), (0.0020000036, -1.5551903e-8, 0.2560001), (0.001414209, -0.0014142252, 0.2560001), (0.001414209, -0.0014142103, -0.25600016), (-5.6977534e-10, -0.0020000048, 0.2560001), (-5.6977534e-10, -0.0019999899, -0.25600016), (-0.0014142102, -0.0014142252, 0.2560001), (-0.0014142102, -0.0014142103, -0.25600016), (-0.0020000045, -1.5551903e-8, 0.2560001), (-0.0020000045, 1.4250419e-8, -0.25600016), (-0.0014142102, 0.0014142089, 0.2560001), (-0.0014142102, 0.0014142238, -0.25600016), (-5.6977534e-10, 0.0019999885, 0.2560001), (-5.6977534e-10, 0.0020000034, -0.25600016), (0.001414209, 0.0014142089, 0.2560001), (0.001414209, 0.0014142238, -0.25600016)]
}

