#usda 1.0
(
    defaultPrim = "UCX_Dishwasher_Tray_02_019"
    upAxis = "Z"
)

def Mesh "UCX_Dishwasher_Tray_02_019"
{
    int[] faceVertexCounts = [3, 3, 3, 3, 3, 3, 3, 3, 3, 3, 3, 3, 3, 3, 3, 3, 3, 3, 3, 3, 3, 3, 3, 3, 3, 3, 3, 3]
    int[] faceVertexIndices = [0, 1, 2, 0, 2, 3, 3, 2, 4, 3, 4, 5, 5, 4, 6, 5, 6, 7, 7, 6, 8, 7, 8, 9, 9, 8, 10, 9, 10, 11, 11, 10, 12, 11, 12, 13, 4, 2, 1, 1, 14, 12, 12, 10, 8, 8, 6, 4, 4, 1, 12, 12, 8, 4, 13, 12, 14, 13, 14, 15, 15, 14, 1, 15, 1, 0, 15, 0, 3, 3, 5, 7, 7, 9, 11, 11, 13, 15, 15, 3, 7, 7, 11, 15]
    normal3f[] normals = [(0.13677356, 0.9906024, -9.436846e-8), (-0.13677356, 0.9906024, -9.436846e-8), (0.6037499, 0.7971738, -7.714541e-8), (0.13677356, 0.9906024, -9.436846e-8), (0.6037499, 0.7971738, -7.714541e-8), (0.79717696, 0.60374576, 2.2588312e-10), (0.79717696, 0.60374576, 2.2588312e-10), (0.6037499, 0.7971738, -7.714541e-8), (0.9906026, 0.13677204, -6.914567e-9), (0.79717696, 0.60374576, 2.2588312e-10), (0.9906026, 0.13677204, -6.914567e-9), (0.9906025, -0.13677247, -1.2413543e-8), (0.9906025, -0.13677247, -1.2413543e-8), (0.9906026, 0.13677204, -6.914567e-9), (0.7971757, -0.60374737, -6.578698e-8), (0.9906025, -0.13677247, -1.2413543e-8), (0.7971757, -0.60374737, -6.578698e-8), (0.6037477, -0.79717547, -7.283901e-8), (0.6037477, -0.79717547, -7.283901e-8), (0.7971757, -0.60374737, -6.578698e-8), (0.13677356, -0.99060243, -9.1795634e-8), (0.6037477, -0.79717547, -7.283901e-8), (0.13677356, -0.99060243, -9.1795634e-8), (-0.13677356, -0.99060243, -9.1795634e-8), (-0.13677356, -0.99060243, -9.1795634e-8), (0.13677356, -0.99060243, -9.1795634e-8), (-0.6037477, -0.79717547, -8.737341e-8), (-0.13677356, -0.99060243, -9.1795634e-8), (-0.6037477, -0.79717547, -8.737341e-8), (-0.7971757, -0.60374737, -5.1252584e-8), (-0.7971757, -0.60374737, -5.1252584e-8), (-0.6037477, -0.79717547, -8.737341e-8), (-0.9906026, -0.13677205, -2.9073542e-8), (-0.7971757, -0.60374737, -5.1252584e-8), (-0.9906026, -0.13677205, -2.9073542e-8), (-0.9906026, 0.13677202, -1.3833883e-8), (0.9906026, 0.13677204, -6.914567e-9), (0.6037499, 0.7971738, -7.714541e-8), (-0.13677356, 0.9906024, -9.436846e-8), (-0.13677356, 0.9906024, -9.436846e-8), (-0.79717696, 0.60374576, -1.4308513e-8), (-0.9906026, -0.13677205, -2.9073542e-8), (-0.9906026, -0.13677205, -2.9073542e-8), (-0.6037477, -0.79717547, -8.737341e-8), (0.13677356, -0.99060243, -9.1795634e-8), (0.13677356, -0.99060243, -9.1795634e-8), (0.7971757, -0.60374737, -6.578698e-8), (0.9906026, 0.13677204, -6.914567e-9), (0.9906026, 0.13677204, -6.914567e-9), (-0.13677356, 0.9906024, -9.436846e-8), (-0.9906026, -0.13677205, -2.9073542e-8), (-0.9906026, -0.13677205, -2.9073542e-8), (0.13677356, -0.99060243, -9.1795634e-8), (0.9906026, 0.13677204, -6.914567e-9), (-0.9906026, 0.13677202, -1.3833883e-8), (-0.9906026, -0.13677205, -2.9073542e-8), (-0.79717696, 0.60374576, -1.4308513e-8), (-0.9906026, 0.13677202, -1.3833883e-8), (-0.79717696, 0.60374576, -1.4308513e-8), (-0.60374767, 0.7971755, -4.343616e-8), (-0.60374767, 0.7971755, -4.343616e-8), (-0.79717696, 0.60374576, -1.4308513e-8), (-0.13677356, 0.9906024, -9.436846e-8), (-0.60374767, 0.7971755, -4.343616e-8), (-0.13677356, 0.9906024, -9.436846e-8), (0.13677356, 0.9906024, -9.436846e-8), (-0.60374767, 0.7971755, -4.343616e-8), (0.13677356, 0.9906024, -9.436846e-8), (0.79717696, 0.60374576, 2.2588312e-10), (0.79717696, 0.60374576, 2.2588312e-10), (0.9906025, -0.13677247, -1.2413543e-8), (0.6037477, -0.79717547, -7.283901e-8), (0.6037477, -0.79717547, -7.283901e-8), (-0.13677356, -0.99060243, -9.1795634e-8), (-0.7971757, -0.60374737, -5.1252584e-8), (-0.7971757, -0.60374737, -5.1252584e-8), (-0.9906026, 0.13677202, -1.3833883e-8), (-0.60374767, 0.7971755, -4.343616e-8), (-0.60374767, 0.7971755, -4.343616e-8), (0.79717696, 0.60374576, 2.2588312e-10), (0.6037477, -0.79717547, -7.283901e-8), (0.6037477, -0.79717547, -7.283901e-8), (-0.7971757, -0.60374737, -5.1252584e-8), (-0.60374767, 0.7971755, -4.343616e-8)] (
        interpolation = "faceVarying"
    )
    point3f[] points = [(1.2061521e-10, 0.001999997, -0.035200037), (1.2061521e-10, 0.002000004, 0.0352), (0.0014142172, 0.0014142166, 0.035199996), (0.0014142172, 0.0014142096, -0.03520004), (0.0019999968, -6.7465447e-9, 0.035199996), (0.0019999968, 3.3947217e-10, -0.03520004), (0.0014142172, -0.001414216, 0.0352), (0.0014142172, -0.0014142094, -0.035200037), (1.2061521e-10, -0.0020000034, 0.035199996), (1.2061521e-10, -0.0019999968, -0.03520004), (-0.0014142169, -0.001414216, 0.0352), (-0.0014142169, -0.0014142094, -0.035200037), (-0.0019999964, -6.7465447e-9, 0.035199996), (-0.0019999964, 3.3947217e-10, -0.03520004), (-0.0014142169, 0.0014142166, 0.035199996), (-0.0014142169, 0.0014142096, -0.03520004)]
}

