#usda 1.0
(
    defaultPrim = "UCX_Dishwasher_Tray_01_119"
    upAxis = "Z"
)

def Mesh "UCX_Dishwasher_Tray_01_119"
{
    int[] faceVertexCounts = [3, 3, 3, 3, 3, 3, 3, 3, 3, 3, 3, 3, 3, 3, 3, 3, 3, 3, 3, 3, 3, 3, 3, 3, 3, 3, 3, 3]
    int[] faceVertexIndices = [0, 1, 2, 0, 2, 3, 1, 4, 5, 1, 5, 2, 4, 6, 7, 4, 7, 5, 6, 8, 9, 6, 9, 7, 8, 10, 11, 8, 11, 9, 10, 12, 13, 10, 13, 11, 3, 2, 5, 5, 7, 9, 9, 11, 13, 13, 14, 3, 3, 5, 9, 9, 13, 3, 12, 15, 14, 12, 14, 13, 15, 0, 3, 15, 3, 14, 1, 0, 15, 15, 12, 10, 10, 8, 6, 6, 4, 1, 1, 15, 10, 10, 6, 1]
    normal3f[] normals = [(-0.1441794, 0.98955154, -5.887604e-9), (-0.812418, 0.58307564, -2.966747e-8), (-0.62431824, 0.7811702, -1.3302981e-8), (-0.1441794, 0.98955154, -5.887604e-9), (-0.62431824, 0.7811702, -1.3302981e-8), (0.1441794, 0.98955154, 2.3671067e-9), (-0.812418, 0.58307564, -2.966747e-8), (-0.9915486, -0.12973574, 1.5482788e-8), (-0.9915486, 0.12973627, 1.5482788e-8), (-0.812418, 0.58307564, -2.966747e-8), (-0.9915486, 0.12973627, 1.5482788e-8), (-0.62431824, 0.7811702, -1.3302981e-8), (-0.9915486, -0.12973574, 1.5482788e-8), (-0.624318, -0.7811704, -3.3915438e-8), (-0.8124182, -0.5830752, -2.3137005e-8), (-0.9915486, -0.12973574, 1.5482788e-8), (-0.8124182, -0.5830752, -2.3137005e-8), (-0.9915486, 0.12973627, 1.5482788e-8), (-0.624318, -0.7811704, -3.3915438e-8), (0.14417934, -0.98955166, 3.999723e-9), (-0.14417942, -0.98955154, -7.239699e-9), (-0.624318, -0.7811704, -3.3915438e-8), (-0.14417942, -0.98955154, -7.239699e-9), (-0.8124182, -0.5830752, -2.3137005e-8), (0.14417934, -0.98955166, 3.999723e-9), (0.8124184, -0.58307487, 2.5280151e-8), (0.62431794, -0.78117037, 2.8507058e-8), (0.14417934, -0.98955166, 3.999723e-9), (0.62431794, -0.78117037, 2.8507058e-8), (-0.14417942, -0.98955154, -7.239699e-9), (0.8124184, -0.58307487, 2.5280151e-8), (0.9915487, 0.12973574, 2.3497948e-8), (0.9915487, -0.12973516, 5.1661928e-8), (0.8124184, -0.58307487, 2.5280151e-8), (0.9915487, -0.12973516, 5.1661928e-8), (0.62431794, -0.78117037, 2.8507058e-8), (0.1441794, 0.98955154, 2.3671067e-9), (-0.62431824, 0.7811702, -1.3302981e-8), (-0.9915486, 0.12973627, 1.5482788e-8), (-0.9915486, 0.12973627, 1.5482788e-8), (-0.8124182, -0.5830752, -2.3137005e-8), (-0.14417942, -0.98955154, -7.239699e-9), (-0.14417942, -0.98955154, -7.239699e-9), (0.62431794, -0.78117037, 2.8507058e-8), (0.9915487, -0.12973516, 5.1661928e-8), (0.9915487, -0.12973516, 5.1661928e-8), (0.8124184, 0.58307487, 2.5280151e-8), (0.1441794, 0.98955154, 2.3671067e-9), (0.1441794, 0.98955154, 2.3671067e-9), (-0.9915486, 0.12973627, 1.5482788e-8), (-0.14417942, -0.98955154, -7.239699e-9), (-0.14417942, -0.98955154, -7.239699e-9), (0.9915487, -0.12973516, 5.1661928e-8), (0.1441794, 0.98955154, 2.3671067e-9), (0.9915487, 0.12973574, 2.3497948e-8), (0.62431824, 0.7811701, 2.738497e-8), (0.8124184, 0.58307487, 2.5280151e-8), (0.9915487, 0.12973574, 2.3497948e-8), (0.8124184, 0.58307487, 2.5280151e-8), (0.9915487, -0.12973516, 5.1661928e-8), (0.62431824, 0.7811701, 2.738497e-8), (-0.1441794, 0.98955154, -5.887604e-9), (0.1441794, 0.98955154, 2.3671067e-9), (0.62431824, 0.7811701, 2.738497e-8), (0.1441794, 0.98955154, 2.3671067e-9), (0.8124184, 0.58307487, 2.5280151e-8), (-0.812418, 0.58307564, -2.966747e-8), (-0.1441794, 0.98955154, -5.887604e-9), (0.62431824, 0.7811701, 2.738497e-8), (0.62431824, 0.7811701, 2.738497e-8), (0.9915487, 0.12973574, 2.3497948e-8), (0.8124184, -0.58307487, 2.5280151e-8), (0.8124184, -0.58307487, 2.5280151e-8), (0.14417934, -0.98955166, 3.999723e-9), (-0.624318, -0.7811704, -3.3915438e-8), (-0.624318, -0.7811704, -3.3915438e-8), (-0.9915486, -0.12973574, 1.5482788e-8), (-0.812418, 0.58307564, -2.966747e-8), (-0.812418, 0.58307564, -2.966747e-8), (0.62431824, 0.7811701, 2.738497e-8), (0.8124184, -0.58307487, 2.5280151e-8), (0.8124184, -0.58307487, 2.5280151e-8), (-0.624318, -0.7811704, -3.3915438e-8), (-0.812418, 0.58307564, -2.966747e-8)] (
        interpolation = "faceVarying"
    )
    point3f[] points = [(2.0968733e-9, 0.002000004, -0.030801209), (-0.0013401665, 0.0014142095, -0.030801207), (-0.0013401672, 0.0014142095, 0.03080121), (-1.012672e-9, 0.002000004, 0.030801216), (-0.0018952809, -8.416361e-11, -0.0308012), (-0.0018952792, -8.416361e-11, 0.03080121), (-0.0013401665, -0.0014142097, -0.030801207), (-0.0013401672, -0.0014142097, 0.03080121), (2.0968733e-9, -0.002000004, -0.030801209), (-1.012672e-9, -0.002000004, 0.030801216), (0.0013401707, -0.0014142097, -0.030801209), (0.0013401676, -0.0014142097, 0.030801214), (0.0018952803, -8.416361e-11, -0.030801201), (0.0018952796, -8.416361e-11, 0.030801214), (0.0013401676, 0.0014142095, 0.030801214), (0.0013401707, 0.0014142095, -0.030801209)]
}

