#usda 1.0
(
    defaultPrim = "UCX_Dishwasher_Tray_02_046"
    upAxis = "Z"
)

def Mesh "UCX_Dishwasher_Tray_02_046"
{
    int[] faceVertexCounts = [3, 3, 3, 3, 3, 3, 3, 3, 3, 3, 3, 3, 3, 3, 3, 3, 3, 3, 3, 3, 3, 3, 3, 3, 3, 3, 3, 3]
    int[] faceVertexIndices = [0, 1, 2, 0, 2, 3, 3, 2, 4, 3, 4, 5, 5, 4, 6, 5, 6, 7, 7, 6, 8, 7, 8, 9, 9, 8, 10, 9, 10, 11, 11, 10, 12, 11, 12, 13, 4, 2, 1, 1, 14, 12, 12, 10, 8, 8, 6, 4, 4, 1, 12, 12, 8, 4, 13, 12, 14, 13, 14, 15, 15, 14, 1, 15, 1, 0, 15, 0, 3, 3, 5, 7, 7, 9, 11, 11, 13, 15, 15, 3, 7, 7, 11, 15]
    normal3f[] normals = [(-0.95167404, -0.3071041, 0.0019545632), (-0.9829106, -0.18403737, -0.0041338727), (-0.8677799, -0.4969354, -0.0036497023), (-0.95167404, -0.3071041, 0.0019545632), (-0.8677799, -0.4969354, -0.0036497023), (-0.18879162, 0.7654122, -0.615225), (-0.18879162, 0.7654122, -0.615225), (-0.8677799, -0.4969354, -0.0036497023), (0.9380774, -0.34054026, -0.06358703), (-0.18879162, 0.7654122, -0.615225), (0.9380774, -0.34054026, -0.06358703), (0.9657745, -0.25935143, 0.0040618256), (0.9657745, -0.25935143, 0.0040618256), (0.9380774, -0.34054026, -0.06358703), (0.99778634, -0.066502295, -0.00012331382), (0.9657745, -0.25935143, 0.0040618256), (0.99778634, -0.066502295, -0.00012331382), (0.9998763, 0.015153451, 0.0042051976), (0.9998763, 0.015153451, 0.0042051976), (0.99778634, -0.066502295, -0.00012331382), (0.98574924, 0.16612026, -0.026504181), (0.9998763, 0.015153451, 0.0042051976), (0.98574924, 0.16612026, -0.026504181), (0.9498115, 0.31279758, 0.0039946977), (0.9498115, 0.31279758, 0.0039946977), (0.98574924, 0.16612026, -0.026504181), (0.8677799, 0.4969354, 0.0036497023), (0.9498115, 0.31279758, 0.0039946977), (0.8677799, 0.4969354, 0.0036497023), (-0.7286368, 0.6848935, -0.0030644136), (-0.7286368, 0.6848935, -0.0030644136), (0.8677799, 0.4969354, 0.0036497023), (-0.90420496, 0.4270819, -0.0038028732), (-0.7286368, 0.6848935, -0.0030644136), (-0.90420496, 0.4270819, -0.0038028732), (-0.96695554, 0.254941, 0.0014095375), (0.9380774, -0.34054026, -0.06358703), (-0.8677799, -0.4969354, -0.0036497023), (-0.9829106, -0.18403737, -0.0041338727), (-0.9829106, -0.18403737, -0.0041338727), (-0.99771476, 0.06743649, -0.004196145), (-0.90420496, 0.4270819, -0.0038028732), (-0.90420496, 0.4270819, -0.0038028732), (0.8677799, 0.4969354, 0.0036497023), (0.98574924, 0.16612026, -0.026504181), (0.98574924, 0.16612026, -0.026504181), (0.99778634, -0.066502295, -0.00012331382), (0.9380774, -0.34054026, -0.06358703), (0.9380774, -0.34054026, -0.06358703), (-0.9829106, -0.18403737, -0.0041338727), (-0.90420496, 0.4270819, -0.0038028732), (-0.90420496, 0.4270819, -0.0038028732), (0.98574924, 0.16612026, -0.026504181), (0.9380774, -0.34054026, -0.06358703), (-0.96695554, 0.254941, 0.0014095375), (-0.90420496, 0.4270819, -0.0038028732), (-0.99771476, 0.06743649, -0.004196145), (-0.96695554, 0.254941, 0.0014095375), (-0.99771476, 0.06743649, -0.004196145), (-0.99916124, -0.013046783, 0.038816083), (-0.99916124, -0.013046783, 0.038816083), (-0.99771476, 0.06743649, -0.004196145), (-0.9829106, -0.18403737, -0.0041338727), (-0.99916124, -0.013046783, 0.038816083), (-0.9829106, -0.18403737, -0.0041338727), (-0.95167404, -0.3071041, 0.0019545632), (-0.99916124, -0.013046783, 0.038816083), (-0.95167404, -0.3071041, 0.0019545632), (-0.18879162, 0.7654122, -0.615225), (-0.18879162, 0.7654122, -0.615225), (0.9657745, -0.25935143, 0.0040618256), (0.9998763, 0.015153451, 0.0042051976), (0.9998763, 0.015153451, 0.0042051976), (0.9498115, 0.31279758, 0.0039946977), (-0.7286368, 0.6848935, -0.0030644136), (-0.7286368, 0.6848935, -0.0030644136), (-0.96695554, 0.254941, 0.0014095375), (-0.99916124, -0.013046783, 0.038816083), (-0.99916124, -0.013046783, 0.038816083), (-0.18879162, 0.7654122, -0.615225), (0.9998763, 0.015153451, 0.0042051976), (0.9998763, 0.015153451, 0.0042051976), (-0.7286368, 0.6848935, -0.0030644136), (-0.99916124, -0.013046783, 0.038816083)] (
        interpolation = "faceVarying"
    )
    point3f[] points = [(-0.0005055953, -0.0012870857, 0.011972345), (-0.00039258137, -0.0012870798, -0.014899286), (0.0000059477534, -0.001992556, -0.013600579), (-0.00010706749, -0.0019925567, 0.013271049), (0.00043409236, -0.0015308236, -0.012205362), (0.00032107712, -0.0015308243, 0.014666266), (0.0006410536, -0.0001723543, -0.011530926), (0.00052803836, -0.00017235495, 0.015340702), (0.00050559826, 0.0012870868, -0.011972343), (0.00039258436, 0.0012870807, 0.01489929), (0.00010707046, 0.0019925577, -0.013271046), (-0.0000059449603, 0.0019925577, 0.013600582), (-0.00032107416, 0.0015308253, -0.014666262), (-0.00043408957, 0.0015308254, 0.012205365), (-0.0005280354, 0.00017235593, -0.015340698), (-0.0006410508, 0.00017235597, 0.011530929)]
}

