#usda 1.0
(
    defaultPrim = "UCX_Dishwasher_Tray_02_014"
    upAxis = "Z"
)

def Mesh "UCX_Dishwasher_Tray_02_014"
{
    int[] faceVertexCounts = [3, 3, 3, 3, 3, 3, 3, 3, 3, 3, 3, 3, 3, 3, 3, 3, 3, 3, 3, 3, 3, 3, 3, 3, 3, 3, 3, 3]
    int[] faceVertexIndices = [0, 1, 2, 0, 2, 3, 3, 2, 4, 3, 4, 5, 5, 4, 6, 5, 6, 7, 7, 6, 8, 7, 8, 9, 9, 8, 10, 9, 10, 11, 11, 10, 12, 11, 12, 13, 4, 2, 1, 1, 14, 12, 12, 10, 8, 8, 6, 4, 4, 1, 12, 12, 8, 4, 13, 12, 14, 13, 14, 15, 15, 14, 1, 15, 1, 0, 15, 0, 3, 3, 5, 7, 7, 9, 11, 11, 13, 15, 15, 3, 7, 7, 11, 15]
    normal3f[] normals = [(0.13677308, 0.99060243, 2.0243922e-8), (-0.13677391, 0.9906023, -6.041814e-9), (0.6037477, 0.7971755, 1.9887446e-8), (0.13677308, 0.99060243, 2.0243922e-8), (0.6037477, 0.7971755, 1.9887446e-8), (0.7971751, 0.6037482, 2.0287205e-10), (0.7971751, 0.6037482, 2.0287205e-10), (0.6037477, 0.7971755, 1.9887446e-8), (0.9906023, 0.13677372, -1.8036335e-9), (0.7971751, 0.6037482, 2.0287205e-10), (0.9906023, 0.13677372, -1.8036335e-9), (0.9906023, -0.13677372, -5.4635647e-9), (0.9906023, -0.13677372, -5.4635647e-9), (0.9906023, 0.13677372, -1.8036335e-9), (0.7971751, -0.6037482, -1.4737268e-8), (0.9906023, -0.13677372, -5.4635647e-9), (0.7971751, -0.6037482, -1.4737268e-8), (0.6037477, -0.7971755, -5.35305e-9), (0.6037477, -0.7971755, -5.35305e-9), (0.7971751, -0.6037482, -1.4737268e-8), (0.1367739, -0.9906023, -8.492582e-9), (0.6037477, -0.7971755, -5.35305e-9), (0.1367739, -0.9906023, -8.492582e-9), (-0.13677308, -0.99060243, 8.82487e-9), (-0.13677308, -0.99060243, 8.82487e-9), (0.1367739, -0.9906023, -8.492582e-9), (-0.60374826, -0.79717505, -1.6485272e-8), (-0.13677308, -0.99060243, 8.82487e-9), (-0.60374826, -0.79717505, -1.6485272e-8), (-0.7971754, -0.6037478, -9.943566e-9), (-0.7971754, -0.6037478, -9.943566e-9), (-0.60374826, -0.79717505, -1.6485272e-8), (-0.9906023, -0.13677374, -8.749281e-9), (-0.7971754, -0.6037478, -9.943566e-9), (-0.9906023, -0.13677374, -8.749281e-9), (-0.9906023, 0.13677384, -9.530899e-10), (0.9906023, 0.13677372, -1.8036335e-9), (0.6037477, 0.7971755, 1.9887446e-8), (-0.13677391, 0.9906023, -6.041814e-9), (-0.13677391, 0.9906023, -6.041814e-9), (-0.7971749, 0.6037487, 3.6050463e-9), (-0.9906023, -0.13677374, -8.749281e-9), (-0.9906023, -0.13677374, -8.749281e-9), (-0.60374826, -0.79717505, -1.6485272e-8), (0.1367739, -0.9906023, -8.492582e-9), (0.1367739, -0.9906023, -8.492582e-9), (0.7971751, -0.6037482, -1.4737268e-8), (0.9906023, 0.13677372, -1.8036335e-9), (0.9906023, 0.13677372, -1.8036335e-9), (-0.13677391, 0.9906023, -6.041814e-9), (-0.9906023, -0.13677374, -8.749281e-9), (-0.9906023, -0.13677374, -8.749281e-9), (0.1367739, -0.9906023, -8.492582e-9), (0.9906023, 0.13677372, -1.8036335e-9), (-0.9906023, 0.13677384, -9.530899e-10), (-0.9906023, -0.13677374, -8.749281e-9), (-0.7971749, 0.6037487, 3.6050463e-9), (-0.9906023, 0.13677384, -9.530899e-10), (-0.7971749, 0.6037487, 3.6050463e-9), (-0.6037477, 0.7971755, 1.9887446e-8), (-0.6037477, 0.7971755, 1.9887446e-8), (-0.7971749, 0.6037487, 3.6050463e-9), (-0.13677391, 0.9906023, -6.041814e-9), (-0.6037477, 0.7971755, 1.9887446e-8), (-0.13677391, 0.9906023, -6.041814e-9), (0.13677308, 0.99060243, 2.0243922e-8), (-0.6037477, 0.7971755, 1.9887446e-8), (0.13677308, 0.99060243, 2.0243922e-8), (0.7971751, 0.6037482, 2.0287205e-10), (0.7971751, 0.6037482, 2.0287205e-10), (0.9906023, -0.13677372, -5.4635647e-9), (0.6037477, -0.7971755, -5.35305e-9), (0.6037477, -0.7971755, -5.35305e-9), (-0.13677308, -0.99060243, 8.82487e-9), (-0.7971754, -0.6037478, -9.943566e-9), (-0.7971754, -0.6037478, -9.943566e-9), (-0.9906023, 0.13677384, -9.530899e-10), (-0.6037477, 0.7971755, 1.9887446e-8), (-0.6037477, 0.7971755, 1.9887446e-8), (0.7971751, 0.6037482, 2.0287205e-10), (0.6037477, -0.7971755, -5.35305e-9), (0.6037477, -0.7971755, -5.35305e-9), (-0.7971754, -0.6037478, -9.943566e-9), (-0.6037477, 0.7971755, 1.9887446e-8)] (
        interpolation = "faceVarying"
    )
    point3f[] points = [(1.3008794e-9, 0.002, -0.03520002), (1.3008794e-9, 0.0019999982, 0.035200022), (0.0014142146, 0.0014142145, 0.03520002), (0.0014142146, 0.0014142126, -0.035200022), (0.0020000017, 1.1271973e-9, 0.03520002), (0.0020000017, -2.1879755e-10, -0.03520002), (0.0014142146, -0.0014142154, 0.035200022), (0.0014142146, -0.0014142126, -0.03520002), (1.3008794e-9, -0.0019999992, 0.03520002), (1.3008794e-9, -0.002, -0.035200022), (-0.001414212, -0.0014142154, 0.035200022), (-0.001414212, -0.0014142126, -0.03520002), (-0.001999999, 1.1271973e-9, 0.03520002), (-0.001999999, -2.1879755e-10, -0.03520002), (-0.001414212, 0.0014142145, 0.03520002), (-0.001414212, 0.0014142126, -0.035200022)]
}

