#usda 1.0
(
    defaultPrim = "UCX_Counter_Watertab_001"
    upAxis = "Z"
)

def Mesh "UCX_Counter_Watertab_001"
{
    int[] faceVertexCounts = [3, 3, 3, 3, 3, 3, 3, 3, 3, 3, 3, 3, 3, 3, 3, 3, 3, 3, 3, 3, 3, 3, 3, 3, 3, 3, 3, 3, 3, 3, 3, 3, 3, 3, 3, 3, 3, 3, 3, 3, 3, 3, 3, 3, 3, 3, 3, 3, 3, 3, 3, 3, 3, 3, 3, 3, 3, 3, 3, 3, 3, 3, 3, 3, 3, 3, 3, 3, 3, 3, 3, 3, 3, 3, 3, 3, 3, 3, 3, 3, 3, 3, 3, 3, 3, 3, 3, 3, 3, 3, 3, 3, 3, 3, 3, 3, 3, 3, 3, 3, 3, 3, 3, 3, 3, 3, 3, 3, 3, 3, 3, 3, 3, 3, 3, 3, 3, 3, 3, 3, 3, 3, 3, 3, 3, 3, 3, 3, 3, 3, 3, 3, 3, 3, 3, 3, 3, 3, 3, 3, 3, 3, 3, 3, 3, 3, 3, 3]
    int[] faceVertexIndices = [0, 1, 2, 0, 2, 3, 4, 3, 2, 2, 5, 6, 2, 6, 4, 6, 5, 7, 6, 7, 8, 8, 7, 9, 8, 9, 10, 11, 10, 9, 9, 12, 13, 9, 13, 11, 13, 12, 14, 13, 14, 15, 16, 15, 14, 14, 17, 18, 14, 18, 16, 18, 17, 19, 18, 19, 20, 20, 19, 21, 20, 21, 22, 23, 22, 21, 21, 24, 25, 21, 25, 23, 25, 24, 26, 25, 26, 27, 28, 27, 26, 26, 29, 30, 26, 30, 28, 30, 29, 31, 30, 31, 32, 32, 31, 33, 32, 33, 34, 35, 34, 33, 33, 36, 37, 33, 37, 35, 37, 36, 38, 37, 38, 39, 39, 38, 40, 39, 40, 41, 42, 41, 40, 40, 43, 44, 40, 44, 42, 44, 43, 45, 44, 45, 46, 46, 45, 47, 46, 47, 48, 49, 48, 47, 47, 50, 51, 47, 51, 49, 51, 50, 52, 51, 52, 53, 54, 53, 52, 52, 55, 56, 52, 56, 54, 56, 55, 57, 56, 57, 58, 59, 60, 58, 59, 58, 57, 59, 61, 62, 63, 60, 59, 62, 63, 59, 64, 65, 62, 64, 62, 61, 64, 66, 67, 68, 65, 64, 67, 68, 64, 69, 70, 67, 69, 67, 66, 71, 72, 70, 71, 70, 69, 12, 9, 7, 7, 5, 2, 2, 1, 73, 73, 71, 69, 69, 66, 64, 64, 61, 59, 59, 57, 55, 55, 52, 50, 50, 47, 45, 45, 43, 40, 40, 38, 36, 36, 33, 31, 31, 29, 26, 26, 24, 21, 21, 19, 17, 17, 14, 12, 12, 7, 2, 2, 73, 69, 69, 64, 59, 59, 55, 50, 50, 45, 40, 40, 36, 31, 31, 26, 21, 21, 17, 12, 12, 2, 69, 69, 59, 50, 50, 40, 31, 31, 21, 12, 12, 69, 50, 50, 31, 12, 71, 73, 74, 75, 72, 71, 74, 75, 71, 1, 0, 74, 1, 74, 73, 39, 41, 42, 42, 35, 37, 42, 37, 39, 44, 46, 48, 48, 49, 28, 28, 30, 32, 32, 34, 35, 35, 42, 44, 44, 48, 28, 28, 32, 35, 28, 35, 44, 25, 27, 28, 28, 49, 51, 51, 53, 54, 54, 23, 25, 25, 28, 51, 51, 54, 25, 20, 22, 23, 23, 54, 56, 56, 58, 20, 23, 56, 20, 63, 16, 18, 18, 20, 58, 58, 60, 63, 18, 58, 63, 68, 11, 13, 13, 15, 16, 16, 63, 62, 62, 65, 68, 68, 13, 16, 16, 62, 68, 75, 4, 6, 6, 8, 10, 10, 11, 68, 68, 67, 70, 70, 72, 75, 75, 6, 10, 10, 68, 70, 10, 70, 75, 74, 0, 3, 3, 4, 75, 3, 75, 74]
    normal3f[] normals = [(0.03278047, 0.99946266, 0), (-0.032780472, 0.99946266, 0), (0.19496268, 0.98081076, -5.116636e-9), (0.03278047, 0.99946266, 0), (0.19496268, 0.98081076, -5.116636e-9), (0.15768152, 0.98749, 0), (0.29028752, 0.9569396, -7.6362525e-9), (0.15768152, 0.98749, 0), (0.19496268, 0.98081076, -5.116636e-9), (0.19496268, 0.98081076, -5.116636e-9), (0.382684, 0.9238794, 0), (0.39383665, 0.9191806, -1.4437233e-9), (0.19496268, 0.98081076, -5.116636e-9), (0.39383665, 0.9191806, -1.4437233e-9), (0.29028752, 0.9569396, -7.6362525e-9), (0.39383665, 0.9191806, -1.4437233e-9), (0.382684, 0.9238794, 0), (0.52790177, 0.8493055, 0), (0.39383665, 0.9191806, -1.4437233e-9), (0.52790177, 0.8493055, 0), (0.58244276, 0.81287175, 0), (0.58244276, 0.81287175, 0), (0.52790177, 0.8493055, 0), (0.70689183, 0.7073217, 7.2944706e-10), (0.58244276, 0.81287175, 0), (0.70689183, 0.7073217, 7.2944706e-10), (0.6705874, 0.7418305, 0), (0.77301085, 0.63439286, 0), (0.6705874, 0.7418305, 0), (0.70689183, 0.7073217, 7.2944706e-10), (0.70689183, 0.7073217, 7.2944706e-10), (0, 0, 1), (0.83612585, 0.54853785, 5.6759433e-9), (0.70689183, 0.7073217, 7.2944706e-10), (0.83612585, 0.54853785, 5.6759433e-9), (0.77301085, 0.63439286, 0), (0.83612585, 0.54853785, 5.6759433e-9), (0, 0, 1), (0.9238009, 0.38287327, -1.8010152e-9), (0.83612585, 0.54853785, 5.6759433e-9), (0.9238009, 0.38287327, -1.8010152e-9), (0.8997626, 0.43637973, 0), (0.95694035, 0.29028484, 0), (0.8997626, 0.43637973, 0), (0.9238009, 0.38287327, -1.8010152e-9), (0.9238009, 0.38287327, -1.8010152e-9), (0.98078537, 0.19509035, 0), (0.9820361, 0.18869303, 0), (0.9238009, 0.38287327, -1.8010152e-9), (0.9820361, 0.18869303, 0), (0.95694035, 0.29028484, 0), (0.9820361, 0.18869303, 0), (0.98078537, 0.19509035, 0), (0.9994602, 0.032852862, 0), (0.9820361, 0.18869303, 0), (0.9994602, 0.032852862, 0), (0.9994602, -0.032852855, 0), (0.9994602, -0.032852855, 0), (0.9994602, 0.032852862, 0), (0.980767, -0.19518264, -5.255273e-9), (0.9994602, -0.032852855, 0), (0.980767, -0.19518264, -5.255273e-9), (0.98344725, -0.18119515, 0), (0.9569403, -0.2902848, -4.1870287e-8), (0.98344725, -0.18119515, 0), (0.980767, -0.19518264, -5.255273e-9), (0.980767, -0.19518264, -5.255273e-9), (0.9238795, -0.38268355, 0), (0.9148966, -0.4036885, 0), (0.980767, -0.19518264, -5.255273e-9), (0.9148966, -0.4036885, 0), (0.9569403, -0.2902848, -4.1870287e-8), (0.9148966, -0.4036885, 0), (0.9238795, -0.38268355, 0), (0.8313377, -0.55576766, 1.3039504e-9), (0.9148966, -0.4036885, 0), (0.8313377, -0.55576766, 1.3039504e-9), (0.8418438, -0.5397214, 0), (0, 0, 1), (0.8418438, -0.5397214, 0), (0.8313377, -0.55576766, 1.3039504e-9), (0.8313377, -0.55576766, 1.3039504e-9), (0.70710695, -0.7071066, 0), (0.6926001, -0.7213218, 8.526431e-10), (0.8313377, -0.55576766, 1.3039504e-9), (0.6926001, -0.7213218, 8.526431e-10), (0, 0, 1), (0.6926001, -0.7213218, 8.526431e-10), (0.70710695, -0.7071066, 0), (0.58244276, -0.81287175, 0), (0.6926001, -0.7213218, 8.526431e-10), (0.58244276, -0.81287175, 0), (0.52790177, -0.84930545, 0), (0.52790177, -0.84930545, 0), (0.58244276, -0.81287175, 0), (0.38250703, -0.9239527, 5.21356e-9), (0.52790177, -0.84930545, 0), (0.38250703, -0.9239527, 5.21356e-9), (0.40840623, -0.9128003, 0), (0.2902848, -0.9569403, 2.043465e-8), (0.40840623, -0.9128003, 0), (0.38250703, -0.9239527, 5.21356e-9), (0.38250703, -0.9239527, 5.21356e-9), (0.19509129, -0.9807852, 0), (0.17934076, -0.98378706, 5.9409984e-9), (0.38250703, -0.9239527, 5.21356e-9), (0.17934076, -0.98378706, 5.9409984e-9), (0.2902848, -0.9569403, 2.043465e-8), (0.17934076, -0.98378706, 5.9409984e-9), (0.19509129, -0.9807852, 0), (0.032781444, -0.99946254, 0), (0.17934076, -0.98378706, 5.9409984e-9), (0.032781444, -0.99946254, 0), (-0.032781444, -0.99946254, 0), (-0.032781444, -0.99946254, 0), (0.032781444, -0.99946254, 0), (-0.19496265, -0.98081076, 5.1166347e-9), (-0.032781444, -0.99946254, 0), (-0.19496265, -0.98081076, 5.1166347e-9), (-0.15768152, -0.98749, 0), (-0.29028475, -0.9569404, 2.0363348e-8), (-0.15768152, -0.98749, 0), (-0.19496265, -0.98081076, 5.1166347e-9), (-0.19496265, -0.98081076, 5.1166347e-9), (-0.38268274, -0.9238799, 0), (-0.3938359, -0.91918075, 5.7748943e-9), (-0.19496265, -0.98081076, 5.1166347e-9), (-0.3938359, -0.91918075, 5.7748943e-9), (-0.29028475, -0.9569404, 2.0363348e-8), (-0.3938359, -0.91918075, 5.7748943e-9), (-0.38268274, -0.9238799, 0), (-0.5279019, -0.84930533, 0), (-0.3938359, -0.91918075, 5.7748943e-9), (-0.5279019, -0.84930533, 0), (-0.582443, -0.81287163, 0), (-0.582443, -0.81287163, 0), (-0.5279019, -0.84930533, 0), (-0.7068919, -0.70732164, 1.539944e-9), (-0.582443, -0.81287163, 0), (-0.7068919, -0.70732164, 1.539944e-9), (-0.67058736, -0.7418306, 0), (-0.7730107, -0.63439304, 1.0332208e-8), (-0.67058736, -0.7418306, 0), (-0.7068919, -0.70732164, 1.539944e-9), (-0.7068919, -0.70732164, 1.539944e-9), (0, 0, 1), (-0.8361257, -0.54853797, 0), (-0.7068919, -0.70732164, 1.539944e-9), (-0.8361257, -0.54853797, 0), (-0.7730107, -0.63439304, 1.0332208e-8), (-0.8361257, -0.54853797, 0), (0, 0, 1), (-0.92380106, -0.38287297, 1.0642365e-9), (-0.8361257, -0.54853797, 0), (-0.92380106, -0.38287297, 1.0642365e-9), (-0.89976233, -0.4363802, 0), (-0.9569406, -0.29028383, 0), (-0.89976233, -0.4363802, 0), (-0.92380106, -0.38287297, 1.0642365e-9), (-0.92380106, -0.38287297, 1.0642365e-9), (-0.98078525, -0.19509052, 0), (-0.9820361, -0.18869312, 0), (-0.92380106, -0.38287297, 1.0642365e-9), (-0.9820361, -0.18869312, 0), (-0.9569406, -0.29028383, 0), (-0.9820361, -0.18869312, 0), (-0.98078525, -0.19509052, 0), (-0.9994602, -0.032853354, 0), (-0.9820361, -0.18869312, 0), (-0.9994602, -0.032853354, 0), (-0.9994602, 0.032853346, 0), (-0.9807669, 0.19518279, 5.255272e-9), (-0.98344725, 0.18119514, 0), (-0.9994602, 0.032853346, 0), (-0.9807669, 0.19518279, 5.255272e-9), (-0.9994602, 0.032853346, 0), (-0.9994602, -0.032853354, 0), (-0.9807669, 0.19518279, 5.255272e-9), (-0.9238796, 0.38268325, 0), (-0.9148966, 0.40368846, 0), (-0.95694065, 0.29028383, 0), (-0.98344725, 0.18119514, 0), (-0.9807669, 0.19518279, 5.255272e-9), (-0.9148966, 0.40368846, 0), (-0.95694065, 0.29028383, 0), (-0.9807669, 0.19518279, 5.255272e-9), (-0.8313375, 0.5557679, 1.3039502e-9), (-0.8418436, 0.53972155, 0), (-0.9148966, 0.40368846, 0), (-0.8313375, 0.5557679, 1.3039502e-9), (-0.9148966, 0.40368846, 0), (-0.9238796, 0.38268325, 0), (-0.8313375, 0.5557679, 1.3039502e-9), (-0.70710695, 0.7071066, 0), (-0.6926001, 0.7213219, 1.9001765e-9), (0, 0, 1), (-0.8418436, 0.53972155, 0), (-0.8313375, 0.5557679, 1.3039502e-9), (-0.6926001, 0.7213219, 1.9001765e-9), (0, 0, 1), (-0.8313375, 0.5557679, 1.3039502e-9), (-0.582443, 0.81287163, 0), (-0.5279019, 0.84930533, 0), (-0.6926001, 0.7213219, 1.9001765e-9), (-0.582443, 0.81287163, 0), (-0.6926001, 0.7213219, 1.9001765e-9), (-0.70710695, 0.7071066, 0), (-0.38250822, 0.9239521, -2.1656312e-9), (-0.40840626, 0.9128003, 0), (-0.5279019, 0.84930533, 0), (-0.38250822, 0.9239521, -2.1656312e-9), (-0.5279019, 0.84930533, 0), (-0.582443, 0.81287163, 0), (0, 0, 1), (0.70689183, 0.7073217, 7.2944706e-10), (0.52790177, 0.8493055, 0), (0.52790177, 0.8493055, 0), (0.382684, 0.9238794, 0), (0.19496268, 0.98081076, -5.116636e-9), (0.19496268, 0.98081076, -5.116636e-9), (-0.032780472, 0.99946266, 0), (-0.19509125, 0.9807852, 0), (-0.19509125, 0.9807852, 0), (-0.38250822, 0.9239521, -2.1656312e-9), (-0.582443, 0.81287163, 0), (-0.582443, 0.81287163, 0), (-0.70710695, 0.7071066, 0), (-0.8313375, 0.5557679, 1.3039502e-9), (-0.8313375, 0.5557679, 1.3039502e-9), (-0.9238796, 0.38268325, 0), (-0.9807669, 0.19518279, 5.255272e-9), (-0.9807669, 0.19518279, 5.255272e-9), (-0.9994602, -0.032853354, 0), (-0.98078525, -0.19509052, 0), (-0.98078525, -0.19509052, 0), (-0.92380106, -0.38287297, 1.0642365e-9), (0, 0, 1), (0, 0, 1), (-0.7068919, -0.70732164, 1.539944e-9), (-0.5279019, -0.84930533, 0), (-0.5279019, -0.84930533, 0), (-0.38268274, -0.9238799, 0), (-0.19496265, -0.98081076, 5.1166347e-9), (-0.19496265, -0.98081076, 5.1166347e-9), (0.032781444, -0.99946254, 0), (0.19509129, -0.9807852, 0), (0.19509129, -0.9807852, 0), (0.38250703, -0.9239527, 5.21356e-9), (0.58244276, -0.81287175, 0), (0.58244276, -0.81287175, 0), (0.70710695, -0.7071066, 0), (0.8313377, -0.55576766, 1.3039504e-9), (0.8313377, -0.55576766, 1.3039504e-9), (0.9238795, -0.38268355, 0), (0.980767, -0.19518264, -5.255273e-9), (0.980767, -0.19518264, -5.255273e-9), (0.9994602, 0.032852862, 0), (0.98078537, 0.19509035, 0), (0.98078537, 0.19509035, 0), (0.9238009, 0.38287327, -1.8010152e-9), (0, 0, 1), (0, 0, 1), (0.52790177, 0.8493055, 0), (0.19496268, 0.98081076, -5.116636e-9), (0.19496268, 0.98081076, -5.116636e-9), (-0.19509125, 0.9807852, 0), (-0.582443, 0.81287163, 0), (-0.582443, 0.81287163, 0), (-0.8313375, 0.5557679, 1.3039502e-9), (-0.9807669, 0.19518279, 5.255272e-9), (-0.9807669, 0.19518279, 5.255272e-9), (-0.98078525, -0.19509052, 0), (0, 0, 1), (0, 0, 1), (-0.5279019, -0.84930533, 0), (-0.19496265, -0.98081076, 5.1166347e-9), (-0.19496265, -0.98081076, 5.1166347e-9), (0.19509129, -0.9807852, 0), (0.58244276, -0.81287175, 0), (0.58244276, -0.81287175, 0), (0.8313377, -0.55576766, 1.3039504e-9), (0.980767, -0.19518264, -5.255273e-9), (0.980767, -0.19518264, -5.255273e-9), (0.98078537, 0.19509035, 0), (0, 0, 1), (0, 0, 1), (0.19496268, 0.98081076, -5.116636e-9), (-0.582443, 0.81287163, 0), (-0.582443, 0.81287163, 0), (-0.9807669, 0.19518279, 5.255272e-9), (0, 0, 1), (0, 0, 1), (-0.19496265, -0.98081076, 5.1166347e-9), (0.58244276, -0.81287175, 0), (0.58244276, -0.81287175, 0), (0.980767, -0.19518264, -5.255273e-9), (0, 0, 1), (0, 0, 1), (-0.582443, 0.81287163, 0), (0, 0, 1), (0, 0, 1), (0.58244276, -0.81287175, 0), (0, 0, 1), (-0.38250822, 0.9239521, -2.1656312e-9), (-0.19509125, 0.9807852, 0), (-0.17934075, 0.98378706, -2.5991869e-9), (-0.29028738, 0.9569395, -2.0434628e-8), (-0.40840626, 0.9128003, 0), (-0.38250822, 0.9239521, -2.1656312e-9), (-0.17934075, 0.98378706, -2.5991869e-9), (-0.29028738, 0.9569395, -2.0434628e-8), (-0.38250822, 0.9239521, -2.1656312e-9), (-0.032780472, 0.99946266, 0), (0.03278047, 0.99946266, 0), (-0.17934075, 0.98378706, -2.5991869e-9), (-0.032780472, 0.99946266, 0), (-0.17934075, 0.98378706, -2.5991869e-9), (-0.19509125, 0.9807852, 0), (-0.032781444, -0.99946254, 0), (-0.15768152, -0.98749, 0), (-0.29028475, -0.9569404, 2.0363348e-8), (-0.29028475, -0.9569404, 2.0363348e-8), (0.2902848, -0.9569403, 2.043465e-8), (0.17934076, -0.98378706, 5.9409984e-9), (-0.29028475, -0.9569404, 2.0363348e-8), (0.17934076, -0.98378706, 5.9409984e-9), (-0.032781444, -0.99946254, 0), (-0.3938359, -0.91918075, 5.7748943e-9), (-0.582443, -0.81287163, 0), (-0.67058736, -0.7418306, 0), (-0.67058736, -0.7418306, 0), (-0.7730107, -0.63439304, 1.0332208e-8), (0, 0, 1), (0, 0, 1), (0.6926001, -0.7213218, 8.526431e-10), (0.52790177, -0.84930545, 0), (0.52790177, -0.84930545, 0), (0.40840623, -0.9128003, 0), (0.2902848, -0.9569403, 2.043465e-8), (0.2902848, -0.9569403, 2.043465e-8), (-0.29028475, -0.9569404, 2.0363348e-8), (-0.3938359, -0.91918075, 5.7748943e-9), (-0.3938359, -0.91918075, 5.7748943e-9), (-0.67058736, -0.7418306, 0), (0, 0, 1), (0, 0, 1), (0.52790177, -0.84930545, 0), (0.2902848, -0.9569403, 2.043465e-8), (0, 0, 1), (0.2902848, -0.9569403, 2.043465e-8), (-0.3938359, -0.91918075, 5.7748943e-9), (0.9148966, -0.4036885, 0), (0.8418438, -0.5397214, 0), (0, 0, 1), (0, 0, 1), (-0.7730107, -0.63439304, 1.0332208e-8), (-0.8361257, -0.54853797, 0), (-0.8361257, -0.54853797, 0), (-0.89976233, -0.4363802, 0), (-0.9569406, -0.29028383, 0), (-0.9569406, -0.29028383, 0), (0.9569403, -0.2902848, -4.1870287e-8), (0.9148966, -0.4036885, 0), (0.9148966, -0.4036885, 0), (0, 0, 1), (-0.8361257, -0.54853797, 0), (-0.8361257, -0.54853797, 0), (-0.9569406, -0.29028383, 0), (0.9148966, -0.4036885, 0), (0.9994602, -0.032852855, 0), (0.98344725, -0.18119515, 0), (0.9569403, -0.2902848, -4.1870287e-8), (0.9569403, -0.2902848, -4.1870287e-8), (-0.9569406, -0.29028383, 0), (-0.9820361, -0.18869312, 0), (-0.9820361, -0.18869312, 0), (-0.9994602, 0.032853346, 0), (0.9994602, -0.032852855, 0), (0.9569403, -0.2902848, -4.1870287e-8), (-0.9820361, -0.18869312, 0), (0.9994602, -0.032852855, 0), (-0.95694065, 0.29028383, 0), (0.95694035, 0.29028484, 0), (0.9820361, 0.18869303, 0), (0.9820361, 0.18869303, 0), (0.9994602, -0.032852855, 0), (-0.9994602, 0.032853346, 0), (-0.9994602, 0.032853346, 0), (-0.98344725, 0.18119514, 0), (-0.95694065, 0.29028383, 0), (0.9820361, 0.18869303, 0), (-0.9994602, 0.032853346, 0), (-0.95694065, 0.29028383, 0), (0, 0, 1), (0.77301085, 0.63439286, 0), (0.83612585, 0.54853785, 5.6759433e-9), (0.83612585, 0.54853785, 5.6759433e-9), (0.8997626, 0.43637973, 0), (0.95694035, 0.29028484, 0), (0.95694035, 0.29028484, 0), (-0.95694065, 0.29028383, 0), (-0.9148966, 0.40368846, 0), (-0.9148966, 0.40368846, 0), (-0.8418436, 0.53972155, 0), (0, 0, 1), (0, 0, 1), (0.83612585, 0.54853785, 5.6759433e-9), (0.95694035, 0.29028484, 0), (0.95694035, 0.29028484, 0), (-0.9148966, 0.40368846, 0), (0, 0, 1), (-0.29028738, 0.9569395, -2.0434628e-8), (0.29028752, 0.9569396, -7.6362525e-9), (0.39383665, 0.9191806, -1.4437233e-9), (0.39383665, 0.9191806, -1.4437233e-9), (0.58244276, 0.81287175, 0), (0.6705874, 0.7418305, 0), (0.6705874, 0.7418305, 0), (0.77301085, 0.63439286, 0), (0, 0, 1), (0, 0, 1), (-0.6926001, 0.7213219, 1.9001765e-9), (-0.5279019, 0.84930533, 0), (-0.5279019, 0.84930533, 0), (-0.40840626, 0.9128003, 0), (-0.29028738, 0.9569395, -2.0434628e-8), (-0.29028738, 0.9569395, -2.0434628e-8), (0.39383665, 0.9191806, -1.4437233e-9), (0.6705874, 0.7418305, 0), (0.6705874, 0.7418305, 0), (0, 0, 1), (-0.5279019, 0.84930533, 0), (0.6705874, 0.7418305, 0), (-0.5279019, 0.84930533, 0), (-0.29028738, 0.9569395, -2.0434628e-8), (-0.17934075, 0.98378706, -2.5991869e-9), (0.03278047, 0.99946266, 0), (0.15768152, 0.98749, 0), (0.15768152, 0.98749, 0), (0.29028752, 0.9569396, -7.6362525e-9), (-0.29028738, 0.9569395, -2.0434628e-8), (0.15768152, 0.98749, 0), (-0.29028738, 0.9569395, -2.0434628e-8), (-0.17934075, 0.98378706, -2.5991869e-9)] (
        interpolation = "faceVarying"
    )
    point3f[] points = [(-5.958731e-11, 0.013000002, -0.07181974), (-5.958731e-11, 0.013000002, 0.068643026), (0.002536174, 0.012750214, 0.068643026), (0.002536174, 0.012750214, -0.07161474), (0.0036163144, 0.012422552, -0.071345836), (0.004974886, 0.012010431, 0.068643026), (0.004974886, 0.012010431, -0.07112556), (0.007222414, 0.010809107, 0.068643026), (0.007222414, 0.010809107, -0.07048343), (0.009192389, 0.00919239, 0.068643026), (0.009192389, 0.00919239, -0.06961928), (0.009714002, 0.008556804, -0.06927955), (0.010809107, 0.007222412, 0.068643026), (0.010809107, 0.007222412, -0.06887477), (0.012010436, 0.004974885, 0.068643026), (0.012010436, 0.004974885, -0.06819299), (0.012196286, 0.004362216, -0.06800714), (0.01275021, 0.0025361758, 0.068643026), (0.01275021, 0.0025361758, -0.06782729), (0.013000002, -1.8094184e-9, 0.068643026), (0.013000002, -1.8094184e-9, -0.067577496), (0.01275021, -0.0025361795, 0.068643026), (0.01275021, -0.0025361795, -0.06782729), (0.012196286, -0.00436222, -0.06800714), (0.012010436, -0.0049748886, 0.068643026), (0.012010436, -0.0049748886, -0.06819299), (0.010809107, -0.007222416, 0.068643026), (0.010809107, -0.007222416, -0.06887477), (0.009714002, -0.008556807, -0.06927955), (0.009192389, -0.009192394, 0.068643026), (0.009192389, -0.009192394, -0.06961928), (0.007222414, -0.0108091105, 0.068643026), (0.007222414, -0.0108091105, -0.07048343), (0.004974886, -0.012010435, 0.068643026), (0.004974886, -0.012010435, -0.07112556), (0.0036163144, -0.012422556, -0.071345836), (0.002536174, -0.01275021, 0.068643026), (0.002536174, -0.01275021, -0.07161474), (-5.958731e-11, -0.013000006, 0.068643026), (-5.958731e-11, -0.013000006, -0.07181974), (-0.002536174, -0.01275021, 0.068643026), (-0.002536174, -0.01275021, -0.07161474), (-0.0036163144, -0.012422556, -0.071345836), (-0.004974887, -0.012010435, 0.068643026), (-0.004974887, -0.012010435, -0.07112556), (-0.007222414, -0.0108091105, 0.068643026), (-0.007222414, -0.0108091105, -0.07048343), (-0.0091923885, -0.009192394, 0.068643026), (-0.0091923885, -0.009192394, -0.06961928), (-0.009714002, -0.008556807, -0.06927955), (-0.010809107, -0.007222416, 0.068643026), (-0.010809107, -0.007222416, -0.06887477), (-0.0120104365, -0.0049748886, 0.068643026), (-0.0120104365, -0.0049748886, -0.06819299), (-0.0121962875, -0.00436222, -0.06800714), (-0.012750208, -0.0025361795, 0.068643026), (-0.012750208, -0.0025361795, -0.06782729), (-0.013000004, -1.8094184e-9, 0.068643026), (-0.013000004, -1.8094184e-9, -0.067577496), (-0.012750208, 0.0025361758, 0.068643026), (-0.012750208, 0.0025361758, -0.06782729), (-0.0120104365, 0.004974885, 0.068643026), (-0.0120104365, 0.004974885, -0.06819299), (-0.0121962875, 0.004362216, -0.06800714), (-0.010809107, 0.007222412, 0.068643026), (-0.010809107, 0.007222412, -0.06887477), (-0.0091923885, 0.00919239, 0.068643026), (-0.0091923885, 0.00919239, -0.06961928), (-0.009714002, 0.008556804, -0.06927955), (-0.007222414, 0.010809107, 0.068643026), (-0.007222414, 0.010809107, -0.07048343), (-0.004974887, 0.012010431, 0.068643026), (-0.004974887, 0.012010431, -0.07112556), (-0.002536174, 0.012750214, 0.068643026), (-0.002536174, 0.012750214, -0.07161474), (-0.0036163144, 0.012422552, -0.071345836)]
}

