#usda 1.0
(
    defaultPrim = "UCX_Dishwasher_Tray_01_037"
    upAxis = "Z"
)

def Mesh "UCX_Dishwasher_Tray_01_037"
{
    int[] faceVertexCounts = [3, 3, 3, 3, 3, 3, 3, 3, 3, 3, 3, 3, 3, 3, 3, 3, 3, 3, 3, 3]
    int[] faceVertexIndices = [0, 1, 2, 0, 2, 3, 1, 4, 5, 1, 5, 2, 4, 6, 7, 4, 7, 5, 6, 0, 3, 6, 3, 7, 8, 9, 10, 8, 10, 11, 5, 7, 3, 5, 3, 2, 10, 9, 0, 10, 0, 6, 8, 11, 4, 8, 4, 1, 9, 8, 1, 9, 1, 0, 11, 10, 6, 11, 6, 4]
    normal3f[] normals = [(-1, 0, 0), (1, 0, 0), (1, 0, 0), (-1, 0, 0), (1, 0, 0), (-1, 0, 0), (1, 0, 0), (1, 0, 0), (1, 0, 0), (1, 0, 0), (1, 0, 0), (1, 0, 0), (1, 0, 0), (-1, 0, 0), (0, 0.4630542, 0.88632995), (1, 0, 0), (0, 0.4630542, 0.88632995), (1, 0, 0), (-1, 0, 0), (-1, 0, 0), (-1, 0, 0), (-1, 0, 0), (-1, 0, 0), (0, 0.4630542, 0.88632995), (1, 0, 0), (-1, 0, 0), (-1, 0, 0), (1, 0, 0), (-1, 0, 0), (1, 0, 0), (1, 0, 0), (0, 0.4630542, 0.88632995), (-1, 0, 0), (1, 0, 0), (-1, 0, 0), (1, 0, 0), (-1, 0, 0), (-1, 0, 0), (-1, 0, 0), (-1, 0, 0), (-1, 0, 0), (-1, 0, 0), (1, 0, 0), (1, 0, 0), (1, 0, 0), (1, 0, 0), (1, 0, 0), (1, 0, 0), (-1, 0, 0), (1, 0, 0), (1, 0, 0), (-1, 0, 0), (1, 0, 0), (-1, 0, 0), (1, 0, 0), (-1, 0, 0), (-1, 0, 0), (1, 0, 0), (-1, 0, 0), (1, 0, 0)] (
        interpolation = "faceVarying"
    )
    point3f[] points = [(-0.0021554958, -0.012478323, 0.013511267), (0.002155492, -0.012478323, 0.013511267), (0.002155492, 0.0012759543, 0.03913114), (-0.0021554958, 0.0012759543, 0.03913114), (0.002155492, 0.012894417, -0.010892507), (0.002155492, 0.0134990895, 0.03318773), (-0.0021554958, 0.012894417, -0.010892507), (-0.0021554958, 0.0134990895, 0.03318773), (0.002155492, -0.02612397, -0.012607805), (-0.0021554958, -0.02612397, -0.012607805), (-0.0021554958, 0.02167563, -0.037580226), (0.002155492, 0.02167563, -0.037580226)]
}

