#usda 1.0
(
    defaultPrim = "UCX_Fridge_Egg_Tray_012"
    upAxis = "Z"
)

def Mesh "UCX_Fridge_Egg_Tray_012"
{
    int[] faceVertexCounts = [3, 3, 3, 3, 3, 3, 3, 3, 3, 3, 3, 3]
    int[] faceVertexIndices = [0, 1, 2, 0, 2, 3, 4, 5, 3, 4, 3, 2, 5, 4, 6, 5, 6, 7, 7, 0, 3, 7, 3, 5, 6, 1, 0, 6, 0, 7, 6, 4, 2, 6, 2, 1]
    normal3f[] normals = [(1, -1.5156736e-7, 0), (1, -1.6624284e-7, 0), (1, -1.6624284e-7, 0), (1, -1.5156736e-7, 0), (1, -1.6624284e-7, 0), (1, -1.2221643e-7, 0), (-1, 4.8126667e-9, -0), (-1.0000001, -5.9882844e-8, -0), (1, -1.2221643e-7, 0), (-1, 4.8126667e-9, -0), (1, -1.2221643e-7, 0), (1, -1.6624284e-7, 0), (-1.0000001, -5.9882844e-8, -0), (-1, 4.8126667e-9, -0), (-1.0000001, -5.9882844e-8, -0), (-1.0000001, -5.9882844e-8, -0), (-1.0000001, -5.9882844e-8, -0), (-1.0000001, -1.5856433e-8, -0), (-1.0000001, -1.5856433e-8, -0), (1, -1.5156736e-7, 0), (1, -1.2221643e-7, 0), (-1.0000001, -1.5856433e-8, -0), (1, -1.2221643e-7, 0), (-1.0000001, -5.9882844e-8, -0), (-1.0000001, -5.9882844e-8, -0), (1, -1.6624284e-7, 0), (1, -1.5156736e-7, 0), (-1.0000001, -5.9882844e-8, -0), (1, -1.5156736e-7, 0), (-1.0000001, -1.5856433e-8, -0), (-1.0000001, -5.9882844e-8, -0), (-1, 4.8126667e-9, -0), (1, -1.6624284e-7, 0), (-1.0000001, -5.9882844e-8, -0), (1, -1.6624284e-7, 0), (1, -1.6624284e-7, 0)] (
        interpolation = "faceVarying"
    )
    point3f[] points = [(0.0009000018, -0.0046718023, 0.017643321), (0.0009000018, -0.0046718023, -0.017643318), (0.00090000336, 0.0046717967, -0.017643318), (0.00090000336, 0.0046717967, 0.017643321), (-0.00090000266, 0.0046718, -0.017643318), (-0.00090000266, 0.0046718, 0.017643318), (-0.0009000023, -0.0046717986, -0.017643318), (-0.0009000023, -0.0046717986, 0.017643318)]
}

