#usda 1.0
(
    defaultPrim = "UCX_Dishwasher_Tray_01_085"
    upAxis = "Z"
)

def Mesh "UCX_Dishwasher_Tray_01_085"
{
    int[] faceVertexCounts = [3, 3, 3, 3, 3, 3, 3, 3, 3, 3, 3, 3, 3, 3, 3, 3, 3, 3, 3, 3, 3, 3, 3, 3, 3, 3, 3, 3]
    int[] faceVertexIndices = [0, 1, 2, 0, 2, 3, 3, 2, 4, 3, 4, 5, 5, 4, 6, 5, 6, 7, 7, 6, 8, 7, 8, 9, 9, 8, 10, 9, 10, 11, 11, 10, 12, 11, 12, 13, 4, 2, 1, 1, 14, 12, 12, 10, 8, 8, 6, 4, 4, 1, 12, 12, 8, 4, 13, 12, 14, 13, 14, 15, 15, 14, 1, 15, 1, 0, 15, 0, 3, 3, 5, 7, 7, 9, 11, 11, 13, 15, 15, 3, 7, 7, 11, 15]
    normal3f[] normals = [(0.1441794, 0.98955154, -5.2701346e-9), (-0.1441794, 0.98955154, 8.790632e-9), (0.6243182, 0.7811701, -1.9302858e-8), (0.1441794, 0.98955154, -5.2701346e-9), (0.6243182, 0.7811701, -1.9302858e-8), (0.8124179, 0.58307564, -6.697802e-9), (0.8124179, 0.58307564, -6.697802e-9), (0.6243182, 0.7811701, -1.9302858e-8), (0.9915486, 0.12973627, 1.9729242e-8), (0.8124179, 0.58307564, -6.697802e-9), (0.9915486, 0.12973627, 1.9729242e-8), (0.9915486, -0.12973574, 1.9729242e-8), (0.9915486, -0.12973574, 1.9729242e-8), (0.9915486, 0.12973627, 1.9729242e-8), (0.8124182, -0.5830752, -1.9657703e-8), (0.9915486, -0.12973574, 1.9729242e-8), (0.8124182, -0.5830752, -1.9657703e-8), (0.624318, -0.7811704, -3.1241704e-8), (0.624318, -0.7811704, -3.1241704e-8), (0.8124182, -0.5830752, -1.9657703e-8), (0.1441794, -0.98955154, -1.7496371e-9), (0.624318, -0.7811704, -3.1241704e-8), (0.1441794, -0.98955154, -1.7496371e-9), (-0.14417934, -0.98955166, 3.3822538e-9), (-0.14417934, -0.98955166, 3.3822538e-9), (0.1441794, -0.98955154, -1.7496371e-9), (-0.62431794, -0.78117037, 2.5833325e-8), (-0.14417934, -0.98955166, 3.3822538e-9), (-0.62431794, -0.78117037, 2.5833325e-8), (-0.8124184, -0.58307487, 2.180085e-8), (-0.8124184, -0.58307487, 2.180085e-8), (-0.62431794, -0.78117037, 2.5833325e-8), (-0.9915487, -0.12973517, 1.9251495e-8), (-0.8124184, -0.58307487, 2.180085e-8), (-0.9915487, -0.12973517, 1.9251495e-8), (-0.9915487, 0.12973574, 1.9251495e-8), (0.9915486, 0.12973627, 1.9729242e-8), (0.6243182, 0.7811701, -1.9302858e-8), (-0.1441794, 0.98955154, 8.790632e-9), (-0.1441794, 0.98955154, 8.790632e-9), (-0.8124184, 0.58307487, 2.180085e-8), (-0.9915487, -0.12973517, 1.9251495e-8), (-0.9915487, -0.12973517, 1.9251495e-8), (-0.62431794, -0.78117037, 2.5833325e-8), (0.1441794, -0.98955154, -1.7496371e-9), (0.1441794, -0.98955154, -1.7496371e-9), (0.8124182, -0.5830752, -1.9657703e-8), (0.9915486, 0.12973627, 1.9729242e-8), (0.9915486, 0.12973627, 1.9729242e-8), (-0.1441794, 0.98955154, 8.790632e-9), (-0.9915487, -0.12973517, 1.9251495e-8), (-0.9915487, -0.12973517, 1.9251495e-8), (0.1441794, -0.98955154, -1.7496371e-9), (0.9915486, 0.12973627, 1.9729242e-8), (-0.9915487, 0.12973574, 1.9251495e-8), (-0.9915487, -0.12973517, 1.9251495e-8), (-0.8124184, 0.58307487, 2.180085e-8), (-0.9915487, 0.12973574, 1.9251495e-8), (-0.8124184, 0.58307487, 2.180085e-8), (-0.6243182, 0.7811701, 1.9302858e-8), (-0.6243182, 0.7811701, 1.9302858e-8), (-0.8124184, 0.58307487, 2.180085e-8), (-0.1441794, 0.98955154, 8.790632e-9), (-0.6243182, 0.7811701, 1.9302858e-8), (-0.1441794, 0.98955154, 8.790632e-9), (0.1441794, 0.98955154, -5.2701346e-9), (-0.6243182, 0.7811701, 1.9302858e-8), (0.1441794, 0.98955154, -5.2701346e-9), (0.8124179, 0.58307564, -6.697802e-9), (0.8124179, 0.58307564, -6.697802e-9), (0.9915486, -0.12973574, 1.9729242e-8), (0.624318, -0.7811704, -3.1241704e-8), (0.624318, -0.7811704, -3.1241704e-8), (-0.14417934, -0.98955166, 3.3822538e-9), (-0.8124184, -0.58307487, 2.180085e-8), (-0.8124184, -0.58307487, 2.180085e-8), (-0.9915487, 0.12973574, 1.9251495e-8), (-0.6243182, 0.7811701, 1.9302858e-8), (-0.6243182, 0.7811701, 1.9302858e-8), (0.8124179, 0.58307564, -6.697802e-9), (0.624318, -0.7811704, -3.1241704e-8), (0.624318, -0.7811704, -3.1241704e-8), (-0.8124184, -0.58307487, 2.180085e-8), (-0.6243182, 0.7811701, 1.9302858e-8)] (
        interpolation = "faceVarying"
    )
    point3f[] points = [(-1.0848383e-9, 0.0020000052, -0.030801209), (1.7608857e-9, 0.0020000052, 0.030801216), (0.001340168, 0.0014142108, 0.03080121), (0.0013401676, 0.0014142108, -0.030801207), (0.00189528, 1.2014272e-9, 0.03080121), (0.001895282, 1.2014272e-9, -0.0308012), (0.001340168, -0.0014142084, 0.03080121), (0.0013401676, -0.0014142084, -0.030801207), (1.7608857e-9, -0.002000003, 0.030801216), (-1.0848383e-9, -0.002000003, -0.030801209), (-0.0013401669, -0.0014142084, 0.030801214), (-0.0013401697, -0.0014142084, -0.030801209), (-0.0018952788, 1.2014272e-9, 0.030801214), (-0.0018952793, 1.2014272e-9, -0.030801203), (-0.0013401669, 0.0014142108, 0.030801214), (-0.0013401697, 0.0014142108, -0.030801209)]
}

