#usda 1.0
(
    defaultPrim = "UCX_Dishwasher_Tray_02_002"
    upAxis = "Z"
)

def Mesh "UCX_Dishwasher_Tray_02_002"
{
    int[] faceVertexCounts = [3, 3, 3, 3, 3, 3, 3, 3, 3, 3, 3, 3]
    int[] faceVertexIndices = [0, 1, 2, 0, 2, 3, 1, 4, 5, 1, 5, 2, 4, 6, 7, 4, 7, 5, 6, 0, 3, 6, 3, 7, 1, 0, 6, 1, 6, 4, 5, 7, 3, 5, 3, 2]
    normal3f[] normals = [(-0.9999995, 0.0010522169, -0), (-0.9999995, 0.0010522169, -0), (0.99999946, -0.0010521034, 0), (-0.9999995, 0.0010522169, -0), (0.99999946, -0.0010521034, 0), (0.99999946, -0.00105216, 0), (-0.9999995, 0.0010522169, -0), (-0.9999995, 0.0010522169, -0), (0.99999946, -0.0010521318, 0), (-0.9999995, 0.0010522169, -0), (0.99999946, -0.0010521318, 0), (0.99999946, -0.0010521034, 0), (-0.9999995, 0.0010522169, -0), (-0.9999995, 0.0010522451, -0), (0.99999946, -0.0010521318, 0), (-0.9999995, 0.0010522169, -0), (0.99999946, -0.0010521318, 0), (0.99999946, -0.0010521318, 0), (-0.9999995, 0.0010522451, -0), (-0.9999995, 0.0010522169, -0), (0.99999946, -0.00105216, 0), (-0.9999995, 0.0010522451, -0), (0.99999946, -0.00105216, 0), (0.99999946, -0.0010521318, 0), (-0.9999995, 0.0010522169, -0), (-0.9999995, 0.0010522169, -0), (-0.9999995, 0.0010522451, -0), (-0.9999995, 0.0010522169, -0), (-0.9999995, 0.0010522451, -0), (-0.9999995, 0.0010522169, -0), (0.99999946, -0.0010521318, 0), (0.99999946, -0.0010521318, 0), (0.99999946, -0.00105216, 0), (0.99999946, -0.0010521318, 0), (0.99999946, -0.00105216, 0), (0.99999946, -0.0010521034, 0)] (
        interpolation = "faceVarying"
    )
    point3f[] points = [(-0.0031214617, -0.04522167, 0.21631385), (-0.0031214617, -0.04522167, -0.21631385), (0.0030247767, -0.046667133, -0.21631385), (0.0030247767, -0.046667133, 0.21631385), (-0.0030247741, 0.046667147, -0.21631385), (0.003121457, 0.045221686, -0.21631385), (-0.0030247741, 0.046667147, 0.21631385), (0.003121457, 0.045221686, 0.21631385)]
}

