#usda 1.0
(
    defaultPrim = "UCX_Dishwasher_Tray_02_044"
    upAxis = "Z"
)

def Mesh "UCX_Dishwasher_Tray_02_044"
{
    int[] faceVertexCounts = [3, 3, 3, 3, 3, 3, 3, 3, 3, 3, 3, 3, 3, 3, 3, 3, 3, 3, 3, 3, 3, 3, 3, 3, 3, 3, 3, 3]
    int[] faceVertexIndices = [0, 1, 2, 0, 2, 3, 3, 2, 4, 3, 4, 5, 5, 4, 6, 5, 6, 7, 7, 6, 8, 7, 8, 9, 9, 8, 10, 9, 10, 11, 11, 10, 12, 11, 12, 13, 4, 2, 1, 1, 14, 12, 12, 10, 8, 8, 6, 4, 4, 1, 12, 12, 8, 4, 13, 12, 14, 13, 14, 15, 15, 14, 1, 15, 1, 0, 15, 0, 3, 3, 5, 7, 7, 9, 11, 11, 13, 15, 15, 3, 7, 7, 11, 15]
    normal3f[] normals = [(0.9906021, -0.13677537, -5.0832867e-9), (0.9906021, 0.13677536, 5.3508282e-9), (0.79717386, -0.6037498, -1.752395e-8), (0.9906021, -0.13677537, -5.0832867e-9), (0.79717386, -0.6037498, -1.752395e-8), (0.6037476, -0.7971755, -2.996468e-8), (0.6037476, -0.7971755, -2.996468e-8), (0.79717386, -0.6037498, -1.752395e-8), (0.13677414, -0.99060225, -3.8526103e-8), (0.6037476, -0.7971755, -2.996468e-8), (0.13677414, -0.99060225, -3.8526103e-8), (-0.13677414, -0.99060225, -3.7188393e-8), (-0.13677414, -0.99060225, -3.7188393e-8), (0.13677414, -0.99060225, -3.8526103e-8), (-0.60374874, -0.7971747, -2.9964646e-8), (-0.13677414, -0.99060225, -3.7188393e-8), (-0.60374874, -0.7971747, -2.9964646e-8), (-0.79717386, -0.6037498, -1.7122638e-8), (-0.79717386, -0.6037498, -1.7122638e-8), (-0.60374874, -0.7971747, -2.9964646e-8), (-0.9906021, -0.13677561, -4.2806696e-9), (-0.79717386, -0.6037498, -1.7122638e-8), (-0.9906021, -0.13677561, -4.2806696e-9), (-0.99060214, 0.13677563, 5.083296e-9), (-0.99060214, 0.13677563, 5.083296e-9), (-0.9906021, -0.13677561, -4.2806696e-9), (-0.7971739, 0.6037499, 1.7657722e-8), (-0.99060214, 0.13677563, 5.083296e-9), (-0.7971739, 0.6037499, 1.7657722e-8), (-0.60374874, 0.7971747, 2.9964646e-8), (-0.60374874, 0.7971747, 2.9964646e-8), (-0.7971739, 0.6037499, 1.7657722e-8), (-0.13677414, 0.99060225, 3.8526103e-8), (-0.60374874, 0.7971747, 2.9964646e-8), (-0.13677414, 0.99060225, 3.8526103e-8), (0.13677414, 0.99060225, 3.7188393e-8), (0.13677414, -0.99060225, -3.8526103e-8), (0.79717386, -0.6037498, -1.752395e-8), (0.9906021, 0.13677536, 5.3508282e-9), (0.9906021, 0.13677536, 5.3508282e-9), (0.6037476, 0.7971755, 2.996468e-8), (-0.13677414, 0.99060225, 3.8526103e-8), (-0.13677414, 0.99060225, 3.8526103e-8), (-0.7971739, 0.6037499, 1.7657722e-8), (-0.9906021, -0.13677561, -4.2806696e-9), (-0.9906021, -0.13677561, -4.2806696e-9), (-0.60374874, -0.7971747, -2.9964646e-8), (0.13677414, -0.99060225, -3.8526103e-8), (0.13677414, -0.99060225, -3.8526103e-8), (0.9906021, 0.13677536, 5.3508282e-9), (-0.13677414, 0.99060225, 3.8526103e-8), (-0.13677414, 0.99060225, 3.8526103e-8), (-0.9906021, -0.13677561, -4.2806696e-9), (0.13677414, -0.99060225, -3.8526103e-8), (0.13677414, 0.99060225, 3.7188393e-8), (-0.13677414, 0.99060225, 3.8526103e-8), (0.6037476, 0.7971755, 2.996468e-8), (0.13677414, 0.99060225, 3.7188393e-8), (0.6037476, 0.7971755, 2.996468e-8), (0.79717386, 0.6037498, 1.7122638e-8), (0.79717386, 0.6037498, 1.7122638e-8), (0.6037476, 0.7971755, 2.996468e-8), (0.9906021, 0.13677536, 5.3508282e-9), (0.79717386, 0.6037498, 1.7122638e-8), (0.9906021, 0.13677536, 5.3508282e-9), (0.9906021, -0.13677537, -5.0832867e-9), (0.79717386, 0.6037498, 1.7122638e-8), (0.9906021, -0.13677537, -5.0832867e-9), (0.6037476, -0.7971755, -2.996468e-8), (0.6037476, -0.7971755, -2.996468e-8), (-0.13677414, -0.99060225, -3.7188393e-8), (-0.79717386, -0.6037498, -1.7122638e-8), (-0.79717386, -0.6037498, -1.7122638e-8), (-0.99060214, 0.13677563, 5.083296e-9), (-0.60374874, 0.7971747, 2.9964646e-8), (-0.60374874, 0.7971747, 2.9964646e-8), (0.13677414, 0.99060225, 3.7188393e-8), (0.79717386, 0.6037498, 1.7122638e-8), (0.79717386, 0.6037498, 1.7122638e-8), (0.6037476, -0.7971755, -2.996468e-8), (-0.79717386, -0.6037498, -1.7122638e-8), (-0.79717386, -0.6037498, -1.7122638e-8), (-0.60374874, 0.7971747, 2.9964646e-8), (0.79717386, 0.6037498, 1.7122638e-8)] (
        interpolation = "faceVarying"
    )
    point3f[] points = [(0.002000003, -1.241757e-9, -0.09921604), (0.002000003, -1.241757e-9, 0.09921603), (0.0014142084, -0.0014142183, 0.09921603), (0.0014142084, -0.0014142109, -0.09921604), (-1.1974794e-9, -0.0020000052, 0.09921603), (-1.1974794e-9, -0.0019999978, -0.09921604), (-0.0014142108, -0.0014142183, 0.09921603), (-0.0014142108, -0.0014142109, -0.09921604), (-0.0020000052, -1.241757e-9, 0.09921603), (-0.0020000052, -1.241757e-9, -0.09921604), (-0.0014142108, 0.0014142083, 0.09921603), (-0.0014142108, 0.0014142158, -0.09921604), (-1.1974794e-9, 0.0019999954, 0.09921603), (-1.1974794e-9, 0.002000003, -0.09921604), (0.0014142084, 0.0014142083, 0.09921603), (0.0014142084, 0.0014142158, -0.09921604)]
}

