#usda 1.0
(
    defaultPrim = "UCX_Kitchen_Handle_003"
    upAxis = "Z"
)

def Mesh "UCX_Kitchen_Handle_003"
{
    int[] faceVertexCounts = [3, 3, 3, 3, 3, 3, 3, 3, 3, 3, 3, 3]
    int[] faceVertexIndices = [0, 1, 2, 0, 2, 3, 3, 2, 4, 3, 4, 5, 5, 4, 6, 5, 6, 7, 7, 6, 1, 7, 1, 0, 3, 5, 7, 3, 7, 0, 4, 2, 1, 4, 1, 6]
    normal3f[] normals = [(0, 1, 0), (1, 0, 0), (0, 1, 0), (0, 1, 0), (0, 1, 0), (-1, 0, 0), (-1, 0, 0), (0, 1, 0), (1, 0, 0), (-1, 0, 0), (1, 0, 0), (0, -1, 0), (0, -1, 0), (1, 0, 0), (0, -1, 0), (0, -1, 0), (0, -1, 0), (-1, 0, 0), (-1, 0, 0), (0, -1, 0), (1, 0, 0), (-1, 0, 0), (1, 0, 0), (0, 1, 0), (-1, 0, 0), (0, -1, 0), (-1, 0, 0), (-1, 0, 0), (-1, 0, 0), (0, 1, 0), (1, 0, 0), (0, 1, 0), (1, 0, 0), (1, 0, 0), (1, 0, 0), (0, -1, 0)] (
        interpolation = "faceVarying"
    )
    point3f[] points = [(-0.00604445, 0.0064994954, 0.08651051), (0.0060444507, 0.0064994954, 0.08651051), (0.0060444507, 0.0064994954, -0.08651051), (-0.00604445, 0.0064994954, -0.08651051), (0.0060444507, -0.0064994954, -0.08651051), (-0.00604445, -0.0064994954, -0.08651051), (0.0060444507, -0.0064994954, 0.08651051), (-0.00604445, -0.0064994954, 0.08651051)]
}

