#usda 1.0
(
    defaultPrim = "UCX_Kitchen_08_Sink_Drawer_01_011"
    upAxis = "Z"
)

def Mesh "UCX_Kitchen_08_Sink_Drawer_01_011"
{
    int[] faceVertexCounts = [3, 3, 3, 3, 3, 3, 3, 3, 3, 3, 3, 3]
    int[] faceVertexIndices = [0, 1, 2, 0, 2, 3, 4, 0, 3, 4, 3, 5, 3, 2, 6, 3, 6, 5, 7, 4, 5, 7, 5, 6, 6, 2, 1, 6, 1, 7, 7, 1, 0, 7, 0, 4]
    normal3f[] normals = [(1, 0, 0), (0, 0, 1), (0, 0, 1), (1, 0, 0), (0, 0, 1), (-1, 0, 0), (0, 0, 1), (1, 0, 0), (-1, 0, 0), (0, 0, 1), (-1, 0, 0), (0, 0, 1), (-1, 0, 0), (0, 0, 1), (-1, 0, 0), (-1, 0, 0), (-1, 0, 0), (0, 0, 1), (1, 0, 0), (0, 0, 1), (0, 0, 1), (1, 0, 0), (0, 0, 1), (-1, 0, 0), (-1, 0, 0), (0, 0, 1), (0, 0, 1), (-1, 0, 0), (0, 0, 1), (1, 0, 0), (1, 0, 0), (0, 0, 1), (1, 0, 0), (1, 0, 0), (1, 0, 0), (0, 0, 1)] (
        interpolation = "faceVarying"
    )
    point3f[] points = [(0.058826108, -0.10340959, 0.1704815), (0.058826108, 0.10340959, 0.1704815), (-0.0588261, 0.10340959, 0.1704815), (-0.0588261, -0.10340959, 0.1704815), (0.058826108, -0.10340959, -0.1704815), (-0.0588261, -0.10340959, -0.1704815), (-0.0588261, 0.10340959, -0.1704815), (0.058826108, 0.10340959, -0.1704815)]
}

