#usda 1.0
(
    defaultPrim = "UCX_Dishwasher_Tray_01_139"
    upAxis = "Z"
)

def Mesh "UCX_Dishwasher_Tray_01_139"
{
    int[] faceVertexCounts = [3, 3, 3, 3, 3, 3, 3, 3, 3, 3, 3, 3, 3, 3, 3, 3, 3, 3, 3, 3, 3, 3, 3, 3, 3, 3, 3, 3]
    int[] faceVertexIndices = [0, 1, 2, 0, 2, 3, 1, 4, 5, 1, 5, 2, 4, 6, 7, 4, 7, 5, 6, 8, 9, 6, 9, 7, 8, 10, 11, 8, 11, 9, 10, 12, 13, 10, 13, 11, 3, 2, 5, 5, 7, 9, 9, 11, 13, 13, 14, 3, 3, 5, 9, 9, 13, 3, 12, 15, 14, 12, 14, 13, 15, 0, 3, 15, 3, 14, 1, 0, 15, 15, 12, 10, 10, 8, 6, 6, 4, 1, 1, 15, 10, 10, 6, 1]
    normal3f[] normals = [(0.9906023, -0.13677366, 5.2820955e-8), (0.60374844, -0.7971749, 6.4167835e-8), (0.7971764, -0.60374653, 7.1601896e-8), (0.9906023, -0.13677366, 5.2820955e-8), (0.7971764, -0.60374653, 7.1601896e-8), (0.9906026, 0.13677198, 3.9126643e-8), (0.60374844, -0.7971749, 6.4167835e-8), (-0.13677172, -0.9906026, 4.6854073e-8), (0.13677198, -0.9906026, 5.790743e-8), (0.60374844, -0.7971749, 6.4167835e-8), (0.13677198, -0.9906026, 5.790743e-8), (0.7971764, -0.60374653, 7.1601896e-8), (-0.13677172, -0.9906026, 4.6854073e-8), (-0.7971755, -0.60374767, 5.4777347e-9), (-0.60374457, -0.79717785, 1.0662027e-8), (-0.13677172, -0.9906026, 4.6854073e-8), (-0.60374457, -0.79717785, 1.0662027e-8), (0.13677198, -0.9906026, 5.790743e-8), (-0.7971755, -0.60374767, 5.4777347e-9), (-0.99060243, 0.13677321, -4.382168e-8), (-0.9906026, -0.13677149, -2.9736146e-8), (-0.7971755, -0.60374767, 5.4777347e-9), (-0.9906026, -0.13677149, -2.9736146e-8), (-0.60374457, -0.79717785, 1.0662027e-8), (-0.99060243, 0.13677321, -4.382168e-8), (-0.6037455, 0.79717726, -7.668845e-8), (-0.7971755, 0.6037476, -7.5416665e-8), (-0.99060243, 0.13677321, -4.382168e-8), (-0.7971755, 0.6037476, -7.5416665e-8), (-0.9906026, -0.13677149, -2.9736146e-8), (-0.6037455, 0.79717726, -7.668845e-8), (0.13677198, 0.9906026, -5.0669005e-8), (-0.13677198, 0.9906026, -6.1820096e-8), (-0.6037455, 0.79717726, -7.668845e-8), (-0.13677198, 0.9906026, -6.1820096e-8), (-0.7971755, 0.6037476, -7.5416665e-8), (0.9906026, 0.13677198, 3.9126643e-8), (0.7971764, -0.60374653, 7.1601896e-8), (0.13677198, -0.9906026, 5.790743e-8), (0.13677198, -0.9906026, 5.790743e-8), (-0.60374457, -0.79717785, 1.0662027e-8), (-0.9906026, -0.13677149, -2.9736146e-8), (-0.9906026, -0.13677149, -2.9736146e-8), (-0.7971755, 0.6037476, -7.5416665e-8), (-0.13677198, 0.9906026, -6.1820096e-8), (-0.13677198, 0.9906026, -6.1820096e-8), (0.6037476, 0.7971755, -2.3476005e-8), (0.9906026, 0.13677198, 3.9126643e-8), (0.9906026, 0.13677198, 3.9126643e-8), (0.13677198, -0.9906026, 5.790743e-8), (-0.9906026, -0.13677149, -2.9736146e-8), (-0.9906026, -0.13677149, -2.9736146e-8), (-0.13677198, 0.9906026, -6.1820096e-8), (0.9906026, 0.13677198, 3.9126643e-8), (0.13677198, 0.9906026, -5.0669005e-8), (0.7971755, 0.60374767, -1.0172935e-8), (0.6037476, 0.7971755, -2.3476005e-8), (0.13677198, 0.9906026, -5.0669005e-8), (0.6037476, 0.7971755, -2.3476005e-8), (-0.13677198, 0.9906026, -6.1820096e-8), (0.7971755, 0.60374767, -1.0172935e-8), (0.9906023, -0.13677366, 5.2820955e-8), (0.9906026, 0.13677198, 3.9126643e-8), (0.7971755, 0.60374767, -1.0172935e-8), (0.9906026, 0.13677198, 3.9126643e-8), (0.6037476, 0.7971755, -2.3476005e-8), (0.60374844, -0.7971749, 6.4167835e-8), (0.9906023, -0.13677366, 5.2820955e-8), (0.7971755, 0.60374767, -1.0172935e-8), (0.7971755, 0.60374767, -1.0172935e-8), (0.13677198, 0.9906026, -5.0669005e-8), (-0.6037455, 0.79717726, -7.668845e-8), (-0.6037455, 0.79717726, -7.668845e-8), (-0.99060243, 0.13677321, -4.382168e-8), (-0.7971755, -0.60374767, 5.4777347e-9), (-0.7971755, -0.60374767, 5.4777347e-9), (-0.13677172, -0.9906026, 4.6854073e-8), (0.60374844, -0.7971749, 6.4167835e-8), (0.60374844, -0.7971749, 6.4167835e-8), (0.7971755, 0.60374767, -1.0172935e-8), (-0.6037455, 0.79717726, -7.668845e-8), (-0.6037455, 0.79717726, -7.668845e-8), (-0.7971755, -0.60374767, 5.4777347e-9), (0.60374844, -0.7971749, 6.4167835e-8)] (
        interpolation = "faceVarying"
    )
    point3f[] points = [(0.0019999912, 1.788036e-8, 0.13568458), (0.0014142118, -0.0014142066, 0.13568458), (0.0014142193, -0.0014142215, -0.13568458), (0.0020000061, -1.1921962e-8, -0.13568458), (-5.2556066e-9, -0.0019999861, 0.13568458), (9.645555e-9, -0.002000001, -0.13568458), (-0.0014142223, -0.0014142066, 0.13568458), (-0.0014142074, -0.0014142215, -0.13568458), (-0.002000002, 1.788036e-8, 0.13568458), (-0.0019999945, -1.1921962e-8, -0.13568458), (-0.0014142223, 0.0014142275, 0.13568458), (-0.0014142074, 0.0014142126, -0.13568458), (-5.2556066e-9, 0.002000007, 0.13568458), (9.645555e-9, 0.0019999922, -0.13568458), (0.0014142193, 0.0014142126, -0.13568458), (0.0014142118, 0.0014142275, 0.13568458)]
}

