#usda 1.0
(
    defaultPrim = "UCX_Kitchen_06_Base_Drawer_02_006"
    upAxis = "Z"
)

def Mesh "UCX_Kitchen_06_Base_Drawer_02_006"
{
    int[] faceVertexCounts = [3, 3, 3, 3, 3, 3, 3, 3, 3, 3, 3, 3]
    int[] faceVertexIndices = [0, 1, 2, 0, 2, 3, 1, 4, 5, 1, 5, 2, 4, 6, 7, 4, 7, 5, 6, 0, 3, 6, 3, 7, 5, 7, 3, 5, 3, 2, 1, 0, 6, 1, 6, 4]
    normal3f[] normals = [(0.9874473, 0.15794866, 2.8386648e-8), (0.9169243, -0.3990612, -6.053912e-8), (0.9874473, 0.15794867, 2.737284e-8), (0.9874473, 0.15794866, 2.8386648e-8), (0.9874473, 0.15794867, 2.737284e-8), (0.9874473, 0.15794863, 2.4331412e-8), (0.9169243, -0.3990612, -6.053912e-8), (-0.99971557, 0.023852244, 0), (-0.99971557, 0.023852255, 0), (0.9169243, -0.3990612, -6.053912e-8), (-0.99971557, 0.023852255, 0), (0.9874473, 0.15794867, 2.737284e-8), (-0.99971557, 0.023852244, 0), (0.023147404, 0.9997321, 0), (-0.99971557, 0.023852244, 0), (-0.99971557, 0.023852244, 0), (-0.99971557, 0.023852244, 0), (-0.99971557, 0.023852255, 0), (0.023147404, 0.9997321, 0), (0.9874473, 0.15794866, 2.8386648e-8), (0.9874473, 0.15794863, 2.4331412e-8), (0.023147404, 0.9997321, 0), (0.9874473, 0.15794863, 2.4331412e-8), (-0.99971557, 0.023852244, 0), (-0.99971557, 0.023852255, 0), (-0.99971557, 0.023852244, 0), (0.9874473, 0.15794863, 2.4331412e-8), (-0.99971557, 0.023852255, 0), (0.9874473, 0.15794863, 2.4331412e-8), (0.9874473, 0.15794867, 2.737284e-8), (0.9169243, -0.3990612, -6.053912e-8), (0.9874473, 0.15794866, 2.8386648e-8), (0.023147404, 0.9997321, 0), (0.9169243, -0.3990612, -6.053912e-8), (0.023147404, 0.9997321, 0), (-0.99971557, 0.023852244, 0)] (
        interpolation = "faceVarying"
    )
    point3f[] points = [(0.015860023, -0.021205287, 0.23762633), (0.015860025, -0.021205213, -0.23762634), (0.0063192095, 0.038441073, -0.23762634), (0.0063192076, 0.038441002, 0.23762634), (-0.011516034, -0.043323144, -0.23762637), (-0.009507593, 0.04085636, -0.23762634), (-0.011516036, -0.04332322, 0.23762633), (-0.009507594, 0.04085629, 0.23762634)]
}

