#usda 1.0
(
    defaultPrim = "UCX_Counter_Sink_Stove_004"
    upAxis = "Z"
)

def Mesh "UCX_Counter_Sink_Stove_004"
{
    int[] faceVertexCounts = [3, 3, 3, 3, 3, 3, 3, 3, 3, 3, 3, 3]
    int[] faceVertexIndices = [0, 1, 2, 0, 2, 3, 4, 5, 3, 4, 3, 2, 0, 6, 7, 0, 7, 1, 2, 1, 7, 2, 7, 4, 0, 3, 5, 0, 5, 6, 7, 6, 5, 7, 5, 4]
    normal3f[] normals = [(-1, 0, 0), (1, 0, 0), (1, 0, 0), (-1, 0, 0), (1, 0, 0), (-1, 0, 0), (1, 0, 0), (-1, 0, 0), (-1, 0, 0), (1, 0, 0), (-1, 0, 0), (1, 0, 0), (-1, 0, 0), (-1, 0, 0), (1, 0, 0), (-1, 0, 0), (1, 0, 0), (1, 0, 0), (1, 0, 0), (1, 0, 0), (1, 0, 0), (1, 0, 0), (1, 0, 0), (1, 0, 0), (-1, 0, 0), (-1, 0, 0), (-1, 0, 0), (-1, 0, 0), (-1, 0, 0), (-1, 0, 0), (1, 0, 0), (-1, 0, 0), (-1, 0, 0), (1, 0, 0), (-1, 0, 0), (1, 0, 0)] (
        interpolation = "faceVarying"
    )
    point3f[] points = [(-0.0150001645, 0.1934645, -0.23753148), (0.0150001645, 0.1934645, -0.23753148), (0.0150001645, -0.19346447, -0.23753148), (-0.0150001645, -0.19346447, -0.23753148), (0.0150001645, -0.19346447, 0.23753148), (-0.0150001645, -0.19346447, 0.23753148), (-0.0150001645, 0.1934645, 0.23753148), (0.0150001645, 0.1934645, 0.23753148)]
}

