#usda 1.0
(
    defaultPrim = "UCX_Dishwasher_Tray_01_044"
    upAxis = "Z"
)

def Mesh "UCX_Dishwasher_Tray_01_044"
{
    int[] faceVertexCounts = [3, 3, 3, 3, 3, 3, 3, 3, 3, 3, 3, 3]
    int[] faceVertexIndices = [0, 1, 2, 0, 2, 3, 1, 4, 5, 1, 5, 2, 3, 2, 5, 3, 5, 6, 6, 5, 4, 6, 4, 7, 7, 4, 1, 7, 1, 0, 0, 3, 6, 0, 6, 7]
    normal3f[] normals = [(1, 0, 0), (0, 0.81429017, -0.580458), (1, 0, 0), (1, 0, 0), (1, 0, 0), (1, 0, 0), (0, 0.81429017, -0.580458), (-1, 0, 0), (0, 0.88333887, 0.46873495), (0, 0.81429017, -0.580458), (0, 0.88333887, 0.46873495), (1, 0, 0), (1, 0, 0), (1, 0, 0), (0, 0.88333887, 0.46873495), (1, 0, 0), (0, 0.88333887, 0.46873495), (-1, 0, 0), (-1, 0, 0), (0, 0.88333887, 0.46873495), (-1, 0, 0), (-1, 0, 0), (-1, 0, 0), (-1, 0, 0), (-1, 0, 0), (-1, 0, 0), (0, 0.81429017, -0.580458), (-1, 0, 0), (0, 0.81429017, -0.580458), (1, 0, 0), (1, 0, 0), (1, 0, 0), (-1, 0, 0), (1, 0, 0), (-1, 0, 0), (-1, 0, 0)] (
        interpolation = "faceVarying"
    )
    point3f[] points = [(0.0021554974, -0.004457063, -0.013491034), (0.0021554974, 0.006146145, -0.0037985926), (0.0021554974, 0.0064930567, 0.0018702417), (0.0021554974, -0.0036123923, 0.014591535), (-0.002155498, 0.006146145, -0.0037985926), (-0.002155498, 0.0064930567, 0.0018702417), (-0.002155498, -0.0036123923, 0.014591535), (-0.002155498, -0.004457063, -0.013491034)]
}

