#usda 1.0
(
    defaultPrim = "UCX_Dishwasher_Tray_02_031"
    upAxis = "Z"
)

def Mesh "UCX_Dishwasher_Tray_02_031"
{
    int[] faceVertexCounts = [3, 3, 3, 3, 3, 3, 3, 3, 3, 3, 3, 3, 3, 3, 3, 3, 3, 3, 3, 3, 3, 3, 3, 3, 3, 3, 3, 3]
    int[] faceVertexIndices = [0, 1, 2, 0, 2, 3, 3, 2, 4, 3, 4, 5, 5, 4, 6, 5, 6, 7, 7, 6, 8, 7, 8, 9, 9, 8, 10, 9, 10, 11, 11, 10, 12, 11, 12, 13, 4, 2, 1, 1, 14, 12, 12, 10, 8, 8, 6, 4, 4, 1, 12, 12, 8, 4, 13, 12, 14, 13, 14, 15, 15, 14, 1, 15, 1, 0, 15, 0, 3, 3, 5, 7, 7, 9, 11, 11, 13, 15, 15, 3, 7, 7, 11, 15]
    normal3f[] normals = [(0.13677426, 0.9906023, -9.1105484e-8), (-0.13677427, 0.9906023, -1.2017428e-7), (0.6037499, 0.7971738, -8.733574e-8), (0.13677426, 0.9906023, -9.1105484e-8), (0.6037499, 0.7971738, -8.733574e-8), (0.7971745, 0.6037491, -3.9031104e-8), (0.7971745, 0.6037491, -3.9031104e-8), (0.6037499, 0.7971738, -8.733574e-8), (0.99060214, 0.13677543, -1.5037491e-8), (0.7971745, 0.6037491, -3.9031104e-8), (0.99060214, 0.13677543, -1.5037491e-8), (0.990602, -0.13677588, -1.2678847e-8), (0.990602, -0.13677588, -1.2678847e-8), (0.99060214, 0.13677543, -1.5037491e-8), (0.7971732, -0.6037507, -5.4207234e-8), (0.990602, -0.13677588, -1.2678847e-8), (0.7971732, -0.6037507, -5.4207234e-8), (0.6037477, -0.79717547, -9.1717446e-8), (0.6037477, -0.79717547, -9.1717446e-8), (0.7971732, -0.6037507, -5.4207234e-8), (0.13677426, -0.9906023, -1.1098454e-7), (0.6037477, -0.79717547, -9.1717446e-8), (0.13677426, -0.9906023, -1.1098454e-7), (-0.13677426, -0.9906023, -1.1098454e-7), (-0.13677426, -0.9906023, -1.1098454e-7), (0.13677426, -0.9906023, -1.1098454e-7), (-0.6037477, -0.79717547, -7.7183046e-8), (-0.13677426, -0.9906023, -1.1098454e-7), (-0.6037477, -0.79717547, -7.7183046e-8), (-0.7971733, -0.6037507, -5.4207234e-8), (-0.7971733, -0.6037507, -5.4207234e-8), (-0.6037477, -0.79717547, -7.7183046e-8), (-0.99060214, -0.1367754, -1.6195981e-8), (-0.7971733, -0.6037507, -5.4207234e-8), (-0.99060214, -0.1367754, -1.6195981e-8), (-0.99060214, 0.13677545, -1.5385373e-8), (0.99060214, 0.13677543, -1.5037491e-8), (0.6037499, 0.7971738, -8.733574e-8), (-0.13677427, 0.9906023, -1.2017428e-7), (-0.13677427, 0.9906023, -1.2017428e-7), (-0.7971745, 0.6037491, -3.9031104e-8), (-0.99060214, -0.1367754, -1.6195981e-8), (-0.99060214, -0.1367754, -1.6195981e-8), (-0.6037477, -0.79717547, -7.7183046e-8), (0.13677426, -0.9906023, -1.1098454e-7), (0.13677426, -0.9906023, -1.1098454e-7), (0.7971732, -0.6037507, -5.4207234e-8), (0.99060214, 0.13677543, -1.5037491e-8), (0.99060214, 0.13677543, -1.5037491e-8), (-0.13677427, 0.9906023, -1.2017428e-7), (-0.99060214, -0.1367754, -1.6195981e-8), (-0.99060214, -0.1367754, -1.6195981e-8), (0.13677426, -0.9906023, -1.1098454e-7), (0.99060214, 0.13677543, -1.5037491e-8), (-0.99060214, 0.13677545, -1.5385373e-8), (-0.99060214, -0.1367754, -1.6195981e-8), (-0.7971745, 0.6037491, -3.9031104e-8), (-0.99060214, 0.13677545, -1.5385373e-8), (-0.7971745, 0.6037491, -3.9031104e-8), (-0.6037477, 0.7971756, -5.501804e-8), (-0.6037477, 0.7971756, -5.501804e-8), (-0.7971745, 0.6037491, -3.9031104e-8), (-0.13677427, 0.9906023, -1.2017428e-7), (-0.6037477, 0.7971756, -5.501804e-8), (-0.13677427, 0.9906023, -1.2017428e-7), (0.13677426, 0.9906023, -9.1105484e-8), (-0.6037477, 0.7971756, -5.501804e-8), (0.13677426, 0.9906023, -9.1105484e-8), (0.7971745, 0.6037491, -3.9031104e-8), (0.7971745, 0.6037491, -3.9031104e-8), (0.990602, -0.13677588, -1.2678847e-8), (0.6037477, -0.79717547, -9.1717446e-8), (0.6037477, -0.79717547, -9.1717446e-8), (-0.13677426, -0.9906023, -1.1098454e-7), (-0.7971733, -0.6037507, -5.4207234e-8), (-0.7971733, -0.6037507, -5.4207234e-8), (-0.99060214, 0.13677545, -1.5385373e-8), (-0.6037477, 0.7971756, -5.501804e-8), (-0.6037477, 0.7971756, -5.501804e-8), (0.7971745, 0.6037491, -3.9031104e-8), (0.6037477, -0.79717547, -9.1717446e-8), (0.6037477, -0.79717547, -9.1717446e-8), (-0.7971733, -0.6037507, -5.4207234e-8), (-0.6037477, 0.7971756, -5.501804e-8)] (
        interpolation = "faceVarying"
    )
    point3f[] points = [(4.1480958e-11, 0.0019999987, -0.03520004), (4.1480958e-11, 0.0020000064, 0.0352), (0.0014142096, 0.0014142188, 0.035199996), (0.0014142096, 0.0014142114, -0.035200045), (0.002000004, -4.933981e-9, 0.035199996), (0.002000004, 2.0735362e-9, -0.03520004), (0.0014142096, -0.0014142141, 0.0352), (0.0014142096, -0.0014142072, -0.03520004), (4.1480958e-11, -0.0020000017, 0.035199996), (4.1480958e-11, -0.0019999947, -0.035200045), (-0.0014142096, -0.0014142141, 0.0352), (-0.0014142096, -0.0014142072, -0.03520004), (-0.002000004, -4.933981e-9, 0.035199996), (-0.002000004, 2.0735362e-9, -0.03520004), (-0.0014142096, 0.0014142188, 0.035199996), (-0.0014142096, 0.0014142114, -0.035200045)]
}

