#usda 1.0
(
    defaultPrim = "UCX_Dishwasher_Tray_01_080"
    upAxis = "Z"
)

def Mesh "UCX_Dishwasher_Tray_01_080"
{
    int[] faceVertexCounts = [3, 3, 3, 3, 3, 3, 3, 3, 3, 3, 3, 3, 3, 3, 3, 3, 3, 3, 3, 3, 3, 3, 3, 3, 3, 3, 3, 3]
    int[] faceVertexIndices = [0, 1, 2, 0, 2, 3, 3, 2, 4, 3, 4, 5, 5, 4, 6, 5, 6, 7, 7, 6, 8, 7, 8, 9, 9, 8, 10, 9, 10, 11, 11, 10, 12, 11, 12, 13, 4, 2, 1, 1, 14, 12, 12, 10, 8, 8, 6, 4, 4, 1, 12, 12, 8, 4, 13, 12, 14, 13, 14, 15, 15, 14, 1, 15, 1, 0, 15, 0, 3, 3, 5, 7, 7, 9, 11, 11, 13, 15, 15, 3, 7, 7, 11, 15]
    normal3f[] normals = [(0.1441794, 0.98955154, -5.288417e-9), (-0.1441794, 0.98955154, 8.8089145e-9), (0.6243182, 0.7811701, -1.9382021e-8), (0.1441794, 0.98955154, -5.288417e-9), (0.6243182, 0.7811701, -1.9382021e-8), (0.8124179, 0.58307564, -6.800817e-9), (0.8124179, 0.58307564, -6.800817e-9), (0.6243182, 0.7811701, -1.9382021e-8), (0.9915486, 0.12973627, 1.9603513e-8), (0.8124179, 0.58307564, -6.800817e-9), (0.9915486, 0.12973627, 1.9603513e-8), (0.9915486, -0.12973574, 1.9603513e-8), (0.9915486, -0.12973574, 1.9603513e-8), (0.9915486, 0.12973627, 1.9603513e-8), (0.8124182, -0.5830752, -1.976072e-8), (0.9915486, -0.12973574, 1.9603513e-8), (0.8124182, -0.5830752, -1.976072e-8), (0.624318, -0.7811704, -3.1320866e-8), (0.624318, -0.7811704, -3.1320866e-8), (0.8124182, -0.5830752, -1.976072e-8), (0.1441794, -0.98955154, -1.7679191e-9), (0.624318, -0.7811704, -3.1320866e-8), (0.1441794, -0.98955154, -1.7679191e-9), (-0.14417934, -0.98955166, 3.4005359e-9), (-0.14417934, -0.98955166, 3.4005359e-9), (0.1441794, -0.98955154, -1.7679191e-9), (-0.62431794, -0.78117037, 2.5912488e-8), (-0.14417934, -0.98955166, 3.4005359e-9), (-0.62431794, -0.78117037, 2.5912488e-8), (-0.8124184, -0.58307487, 2.1903864e-8), (-0.8124184, -0.58307487, 2.1903864e-8), (-0.62431794, -0.78117037, 2.5912488e-8), (-0.9915487, -0.12973517, 1.9377225e-8), (-0.8124184, -0.58307487, 2.1903864e-8), (-0.9915487, -0.12973517, 1.9377225e-8), (-0.9915487, 0.12973574, 1.9377225e-8), (0.9915486, 0.12973627, 1.9603513e-8), (0.6243182, 0.7811701, -1.9382021e-8), (-0.1441794, 0.98955154, 8.8089145e-9), (-0.1441794, 0.98955154, 8.8089145e-9), (-0.8124184, 0.58307487, 2.1903864e-8), (-0.9915487, -0.12973517, 1.9377225e-8), (-0.9915487, -0.12973517, 1.9377225e-8), (-0.62431794, -0.78117037, 2.5912488e-8), (0.1441794, -0.98955154, -1.7679191e-9), (0.1441794, -0.98955154, -1.7679191e-9), (0.8124182, -0.5830752, -1.976072e-8), (0.9915486, 0.12973627, 1.9603513e-8), (0.9915486, 0.12973627, 1.9603513e-8), (-0.1441794, 0.98955154, 8.8089145e-9), (-0.9915487, -0.12973517, 1.9377225e-8), (-0.9915487, -0.12973517, 1.9377225e-8), (0.1441794, -0.98955154, -1.7679191e-9), (0.9915486, 0.12973627, 1.9603513e-8), (-0.9915487, 0.12973574, 1.9377225e-8), (-0.9915487, -0.12973517, 1.9377225e-8), (-0.8124184, 0.58307487, 2.1903864e-8), (-0.9915487, 0.12973574, 1.9377225e-8), (-0.8124184, 0.58307487, 2.1903864e-8), (-0.6243182, 0.7811701, 1.9382021e-8), (-0.6243182, 0.7811701, 1.9382021e-8), (-0.8124184, 0.58307487, 2.1903864e-8), (-0.1441794, 0.98955154, 8.8089145e-9), (-0.6243182, 0.7811701, 1.9382021e-8), (-0.1441794, 0.98955154, 8.8089145e-9), (0.1441794, 0.98955154, -5.288417e-9), (-0.6243182, 0.7811701, 1.9382021e-8), (0.1441794, 0.98955154, -5.288417e-9), (0.8124179, 0.58307564, -6.800817e-9), (0.8124179, 0.58307564, -6.800817e-9), (0.9915486, -0.12973574, 1.9603513e-8), (0.624318, -0.7811704, -3.1320866e-8), (0.624318, -0.7811704, -3.1320866e-8), (-0.14417934, -0.98955166, 3.4005359e-9), (-0.8124184, -0.58307487, 2.1903864e-8), (-0.8124184, -0.58307487, 2.1903864e-8), (-0.9915487, 0.12973574, 1.9377225e-8), (-0.6243182, 0.7811701, 1.9382021e-8), (-0.6243182, 0.7811701, 1.9382021e-8), (0.8124179, 0.58307564, -6.800817e-9), (0.624318, -0.7811704, -3.1320866e-8), (0.624318, -0.7811704, -3.1320866e-8), (-0.8124184, -0.58307487, 2.1903864e-8), (-0.6243182, 0.7811701, 1.9382021e-8)] (
        interpolation = "faceVarying"
    )
    point3f[] points = [(-1.088744e-9, 0.002000005, -0.030801209), (1.7647912e-9, 0.002000005, 0.030801216), (0.001340168, 0.0014142107, 0.03080121), (0.0013401676, 0.0014142107, -0.030801207), (0.00189528, 9.938823e-10, 0.03080121), (0.001895282, 9.938823e-10, -0.0308012), (0.001340168, -0.0014142086, 0.03080121), (0.0013401676, -0.0014142086, -0.030801207), (1.7647912e-9, -0.0020000031, 0.030801216), (-1.088744e-9, -0.0020000031, -0.030801209), (-0.0013401669, -0.0014142086, 0.030801214), (-0.0013401698, -0.0014142086, -0.030801209), (-0.0018952788, 9.938823e-10, 0.030801214), (-0.0018952793, 9.938823e-10, -0.030801203), (-0.0013401669, 0.0014142107, 0.030801214), (-0.0013401698, 0.0014142107, -0.030801209)]
}

