#usda 1.0
(
    defaultPrim = "UCX_Dishwasher_Tray_01_036"
    upAxis = "Z"
)

def Mesh "UCX_Dishwasher_Tray_01_036"
{
    int[] faceVertexCounts = [3, 3, 3, 3, 3, 3, 3, 3, 3, 3, 3, 3]
    int[] faceVertexIndices = [0, 1, 2, 0, 2, 3, 1, 4, 5, 1, 5, 2, 3, 2, 5, 3, 5, 6, 6, 5, 4, 6, 4, 7, 7, 4, 1, 7, 1, 0, 0, 3, 6, 0, 6, 7]
    normal3f[] normals = [(1, -3.2687606e-7, 2.34293e-7), (5.4290544e-17, 0.8142901, -0.5804582), (1, -3.2687606e-7, 2.34293e-7), (1, -3.2687606e-7, 2.34293e-7), (1, -3.2687606e-7, 2.34293e-7), (1, 0, 0), (5.4290544e-17, 0.8142901, -0.5804582), (-1, 7.0997504e-7, -2.3919403e-8), (1.3924717e-17, 0.8833389, 0.4687349), (5.4290544e-17, 0.8142901, -0.5804582), (1.3924717e-17, 0.8833389, 0.4687349), (1, -3.2687606e-7, 2.34293e-7), (1, 0, 0), (1, -3.2687606e-7, 2.34293e-7), (1.3924717e-17, 0.8833389, 0.4687349), (1, 0, 0), (1.3924717e-17, 0.8833389, 0.4687349), (-1, 7.176131e-7, -1.692537e-8), (-1, 7.176131e-7, -1.692537e-8), (1.3924717e-17, 0.8833389, 0.4687349), (-1, 7.0997504e-7, -2.3919403e-8), (-1, 7.176131e-7, -1.692537e-8), (-1, 7.0997504e-7, -2.3919403e-8), (-1, 7.099842e-7, -3.124999e-8), (-1, 7.099842e-7, -3.124999e-8), (-1, 7.0997504e-7, -2.3919403e-8), (5.4290544e-17, 0.8142901, -0.5804582), (-1, 7.099842e-7, -3.124999e-8), (5.4290544e-17, 0.8142901, -0.5804582), (1, -3.2687606e-7, 2.34293e-7), (1, -3.2687606e-7, 2.34293e-7), (1, 0, 0), (-1, 7.176131e-7, -1.692537e-8), (1, -3.2687606e-7, 2.34293e-7), (-1, 7.176131e-7, -1.692537e-8), (-1, 7.099842e-7, -3.124999e-8)] (
        interpolation = "faceVarying"
    )
    point3f[] points = [(0.0021554918, -0.004457063, -0.013491033), (0.0021554993, 0.006146146, -0.0037985933), (0.0021554918, 0.006493058, 0.0018702412), (0.0021554918, -0.0036123905, 0.014591536), (-0.0021554886, 0.006146146, -0.0037985933), (-0.0021554886, 0.006493058, 0.0018702412), (-0.002155496, -0.0036123905, 0.014591536), (-0.002155496, -0.004457063, -0.013491033)]
}

