#usda 1.0
(
    defaultPrim = "UCX_Kitchen_11_Base_Drawer_01_004"
    upAxis = "Z"
)

def Mesh "UCX_Kitchen_11_Base_Drawer_01_004"
{
    int[] faceVertexCounts = [3, 3, 3, 3, 3, 3, 3, 3, 3, 3, 3, 3]
    int[] faceVertexIndices = [0, 1, 2, 0, 2, 3, 4, 2, 1, 4, 1, 5, 6, 4, 5, 6, 5, 7, 3, 2, 4, 3, 4, 6, 7, 5, 1, 7, 1, 0, 6, 7, 0, 6, 0, 3]
    normal3f[] normals = [(0.9941577, 0.107937574, 1.1484046e-7), (-0.99941915, 0.034078963, -1.2613762e-7), (-0.99941915, 0.034078963, -1.252169e-7), (0.9941577, 0.107937574, 1.1484046e-7), (-0.99941915, 0.034078963, -1.252169e-7), (0.99415773, 0.10793754, 1.1310047e-7), (-0.9994192, 0.034078997, -1.2613764e-7), (-0.99941915, 0.034078963, -1.252169e-7), (-0.99941915, 0.034078963, -1.2613762e-7), (-0.9994192, 0.034078997, -1.2613764e-7), (-0.99941915, 0.034078963, -1.2613762e-7), (-0.9994192, 0.034078997, -1.252169e-7), (0.99415773, 0.10793754, 1.14840475e-7), (-0.9994192, 0.034078997, -1.2613764e-7), (-0.9994192, 0.034078997, -1.252169e-7), (0.99415773, 0.10793754, 1.14840475e-7), (-0.9994192, 0.034078997, -1.252169e-7), (0.99415773, 0.10793754, 1.1310047e-7), (0.99415773, 0.10793754, 1.1310047e-7), (-0.99941915, 0.034078963, -1.252169e-7), (-0.9994192, 0.034078997, -1.2613764e-7), (0.99415773, 0.10793754, 1.1310047e-7), (-0.9994192, 0.034078997, -1.2613764e-7), (0.99415773, 0.10793754, 1.14840475e-7), (0.99415773, 0.10793754, 1.1310047e-7), (-0.9994192, 0.034078997, -1.252169e-7), (-0.99941915, 0.034078963, -1.2613762e-7), (0.99415773, 0.10793754, 1.1310047e-7), (-0.99941915, 0.034078963, -1.2613762e-7), (0.9941577, 0.107937574, 1.1484046e-7), (0.99415773, 0.10793754, 1.14840475e-7), (0.99415773, 0.10793754, 1.1310047e-7), (0.9941577, 0.107937574, 1.1484046e-7), (0.99415773, 0.10793754, 1.14840475e-7), (0.9941577, 0.107937574, 1.1484046e-7), (0.99415773, 0.10793754, 1.1310047e-7)] (
        interpolation = "faceVarying"
    )
    point3f[] points = [(0.0024702626, 0.021420429, 0.23762634), (-0.004112943, 0.015578123, 0.23762634), (-0.0052462756, -0.017658677, 0.23762636), (0.006269068, -0.013568436, 0.23762636), (-0.0052462174, -0.017658716, -0.23762633), (-0.0041128844, 0.015578083, -0.23762633), (0.0062691267, -0.013568475, -0.23762633), (0.0024703213, 0.02142039, -0.23762633)]
}

