#usda 1.0
(
    defaultPrim = "UCX_Dishwasher_Tray_01_079"
    upAxis = "Z"
)

def Mesh "UCX_Dishwasher_Tray_01_079"
{
    int[] faceVertexCounts = [3, 3, 3, 3, 3, 3, 3, 3, 3, 3, 3, 3, 3, 3, 3, 3, 3, 3, 3, 3, 3, 3, 3, 3, 3, 3, 3, 3]
    int[] faceVertexIndices = [0, 1, 2, 0, 2, 3, 3, 2, 4, 3, 4, 5, 5, 4, 6, 5, 6, 7, 7, 6, 8, 7, 8, 9, 9, 8, 10, 9, 10, 11, 11, 10, 12, 11, 12, 13, 4, 2, 1, 1, 14, 12, 12, 10, 8, 8, 6, 4, 4, 1, 12, 12, 8, 4, 13, 12, 14, 13, 14, 15, 15, 14, 1, 15, 1, 0, 15, 0, 3, 3, 5, 7, 7, 9, 11, 11, 13, 15, 15, 3, 7, 7, 11, 15]
    normal3f[] normals = [(0.14417891, 0.98955166, -4.2600825e-9), (-0.1441799, 0.9895515, 7.118495e-9), (0.6243166, 0.78117144, -2.7779787e-8), (0.14417891, 0.98955166, -4.2600825e-9), (0.6243166, 0.78117144, -2.7779787e-8), (0.81241953, 0.58307344, 1.0610379e-9), (0.81241953, 0.58307344, 1.0610379e-9), (0.6243166, 0.78117144, -2.7779787e-8), (0.991549, 0.12973304, 5.175545e-9), (0.81241953, 0.58307344, 1.0610379e-9), (0.991549, 0.12973304, 5.175545e-9), (0.99154913, -0.1297325, 2.252277e-8), (0.99154913, -0.1297325, 2.252277e-8), (0.991549, 0.12973304, 5.175545e-9), (0.8124199, -0.5830731, 1.6265119e-8), (0.99154913, -0.1297325, 2.252277e-8), (0.8124199, -0.5830731, 1.6265119e-8), (0.62431633, -0.7811717, -5.3800626e-8), (0.62431633, -0.7811717, -5.3800626e-8), (0.8124199, -0.5830731, 1.6265119e-8), (0.14417891, -0.98955166, -7.3958495e-10), (0.62431633, -0.7811717, -5.3800626e-8), (0.14417891, -0.98955166, -7.3958495e-10), (-0.14417984, -0.9895516, 1.7101173e-9), (-0.14417984, -0.9895516, 1.7101173e-9), (0.14417891, -0.98955166, -7.3958495e-10), (-0.6243196, -0.781169, 1.9824109e-8), (-0.14417984, -0.9895516, 1.7101173e-9), (-0.6243196, -0.781169, 1.9824109e-8), (-0.8124168, -0.5830771, 3.393653e-8), (-0.8124168, -0.5830771, 3.393653e-8), (-0.6243196, -0.781169, 1.9824109e-8), (-0.99154824, -0.1297384, 1.4415863e-8), (-0.8124168, -0.5830771, 3.393653e-8), (-0.99154824, -0.1297384, 1.4415863e-8), (-0.99154824, 0.12973897, 1.4415863e-8), (0.991549, 0.12973304, 5.175545e-9), (0.6243166, 0.78117144, -2.7779787e-8), (-0.1441799, 0.9895515, 7.118495e-9), (-0.1441799, 0.9895515, 7.118495e-9), (-0.81241685, 0.5830771, 5.772549e-9), (-0.99154824, -0.1297384, 1.4415863e-8), (-0.99154824, -0.1297384, 1.4415863e-8), (-0.6243196, -0.781169, 1.9824109e-8), (0.14417891, -0.98955166, -7.3958495e-10), (0.14417891, -0.98955166, -7.3958495e-10), (0.8124199, -0.5830731, 1.6265119e-8), (0.991549, 0.12973304, 5.175545e-9), (0.991549, 0.12973304, 5.175545e-9), (-0.1441799, 0.9895515, 7.118495e-9), (-0.99154824, -0.1297384, 1.4415863e-8), (-0.99154824, -0.1297384, 1.4415863e-8), (0.14417891, -0.98955166, -7.3958495e-10), (0.991549, 0.12973304, 5.175545e-9), (-0.99154824, 0.12973897, 1.4415863e-8), (-0.99154824, -0.1297384, 1.4415863e-8), (-0.81241685, 0.5830771, 5.772549e-9), (-0.99154824, 0.12973897, 1.4415863e-8), (-0.81241685, 0.5830771, 5.772549e-9), (-0.62431985, 0.7811688, 1.329364e-8), (-0.62431985, 0.7811688, 1.329364e-8), (-0.81241685, 0.5830771, 5.772549e-9), (-0.1441799, 0.9895515, 7.118495e-9), (-0.62431985, 0.7811688, 1.329364e-8), (-0.1441799, 0.9895515, 7.118495e-9), (0.14417891, 0.98955166, -4.2600825e-9), (-0.62431985, 0.7811688, 1.329364e-8), (0.14417891, 0.98955166, -4.2600825e-9), (0.81241953, 0.58307344, 1.0610379e-9), (0.81241953, 0.58307344, 1.0610379e-9), (0.99154913, -0.1297325, 2.252277e-8), (0.62431633, -0.7811717, -5.3800626e-8), (0.62431633, -0.7811717, -5.3800626e-8), (-0.14417984, -0.9895516, 1.7101173e-9), (-0.8124168, -0.5830771, 3.393653e-8), (-0.8124168, -0.5830771, 3.393653e-8), (-0.99154824, 0.12973897, 1.4415863e-8), (-0.62431985, 0.7811688, 1.329364e-8), (-0.62431985, 0.7811688, 1.329364e-8), (0.81241953, 0.58307344, 1.0610379e-9), (0.62431633, -0.7811717, -5.3800626e-8), (0.62431633, -0.7811717, -5.3800626e-8), (-0.8124168, -0.5830771, 3.393653e-8), (-0.62431985, 0.7811688, 1.329364e-8)] (
        interpolation = "faceVarying"
    )
    point3f[] points = [(-6.9592097e-9, 0.0020000052, -0.030801207), (-4.686485e-9, 0.0020000052, 0.030801218), (0.0013401756, 0.0014142107, 0.030801207), (0.0013401757, 0.0014142107, -0.03080121), (0.0018952735, 1.0892234e-9, 0.030801212), (0.0018952761, 1.0892234e-9, -0.030801198), (0.0013401756, -0.0014142086, 0.030801207), (0.0013401757, -0.0014142086, -0.03080121), (-4.686485e-9, -0.002000003, 0.030801218), (-6.9592097e-9, -0.002000003, -0.030801207), (-0.0013401592, -0.0014142086, 0.030801212), (-0.0013401615, -0.0014142086, -0.030801212), (-0.0018952853, 1.0892234e-9, 0.030801216), (-0.0018952851, 1.0892234e-9, -0.0308012), (-0.0013401592, 0.0014142107, 0.030801212), (-0.0013401615, 0.0014142107, -0.030801212)]
}

