#usda 1.0
(
    defaultPrim = "UCX_Dishwasher_Tray_01_006"
    upAxis = "Z"
)

def Mesh "UCX_Dishwasher_Tray_01_006"
{
    int[] faceVertexCounts = [3, 3, 3, 3, 3, 3, 3, 3, 3, 3, 3, 3]
    int[] faceVertexIndices = [0, 1, 2, 0, 2, 3, 3, 2, 4, 3, 4, 5, 1, 6, 4, 1, 4, 2, 6, 7, 5, 6, 5, 4, 7, 0, 3, 7, 3, 5, 0, 7, 6, 0, 6, 1]
    normal3f[] normals = [(1, -3.2687606e-7, -2.3429298e-7), (1, -2.7755576e-17, 0), (1, -3.2687606e-7, -2.3429298e-7), (1, -3.2687606e-7, -2.3429298e-7), (1, -3.2687606e-7, -2.3429298e-7), (-2.7145272e-17, 0.81429017, 0.58045816), (-2.7145272e-17, 0.81429017, 0.58045816), (1, -3.2687606e-7, -2.3429298e-7), (-6.9623585e-18, 0.88333887, -0.46873492), (-2.7145272e-17, 0.81429017, 0.58045816), (-6.9623585e-18, 0.88333887, -0.46873492), (-1, 7.0997504e-7, 2.3919366e-8), (1, -2.7755576e-17, 0), (-1, 7.176131e-7, 1.6925332e-8), (-6.9623585e-18, 0.88333887, -0.46873492), (1, -2.7755576e-17, 0), (-6.9623585e-18, 0.88333887, -0.46873492), (1, -3.2687606e-7, -2.3429298e-7), (-1, 7.176131e-7, 1.6925332e-8), (-1, 7.099842e-7, 3.1249954e-8), (-1, 7.0997504e-7, 2.3919366e-8), (-1, 7.176131e-7, 1.6925332e-8), (-1, 7.0997504e-7, 2.3919366e-8), (-6.9623585e-18, 0.88333887, -0.46873492), (-1, 7.099842e-7, 3.1249954e-8), (1, -3.2687606e-7, -2.3429298e-7), (-2.7145272e-17, 0.81429017, 0.58045816), (-1, 7.099842e-7, 3.1249954e-8), (-2.7145272e-17, 0.81429017, 0.58045816), (-1, 7.0997504e-7, 2.3919366e-8), (1, -3.2687606e-7, -2.3429298e-7), (-1, 7.099842e-7, 3.1249954e-8), (-1, 7.176131e-7, 1.6925332e-8), (1, -3.2687606e-7, -2.3429298e-7), (-1, 7.176131e-7, 1.6925332e-8), (1, -2.7755576e-17, 0)] (
        interpolation = "faceVarying"
    )
    point3f[] points = [(0.002155492, -0.004457061, 0.013491032), (0.002155492, -0.0036123893, -0.0145915365), (0.002155492, 0.0064930595, -0.0018702433), (0.0021554995, 0.006146148, 0.003798591), (-0.0021554884, 0.0064930595, -0.0018702433), (-0.0021554884, 0.006146148, 0.003798591), (-0.0021554958, -0.0036123893, -0.0145915365), (-0.0021554958, -0.004457061, 0.013491032)]
}

