#usda 1.0
(
    defaultPrim = "UCX_Kitchen_11_Base_Drawer_01_005"
    upAxis = "Z"
)

def Mesh "UCX_Kitchen_11_Base_Drawer_01_005"
{
    int[] faceVertexCounts = [3, 3, 3, 3, 3, 3, 3, 3, 3, 3, 3, 3]
    int[] faceVertexIndices = [0, 1, 2, 0, 2, 3, 1, 4, 5, 1, 5, 2, 4, 6, 7, 4, 7, 5, 6, 0, 3, 6, 3, 7, 5, 7, 3, 5, 3, 2, 1, 0, 6, 1, 6, 4]
    normal3f[] normals = [(0.9874473, 0.15794869, 2.8386651e-8), (0.9169243, -0.39906123, -5.1890677e-8), (0.9874473, 0.15794869, 2.6359032e-8), (0.9874473, 0.15794869, 2.8386651e-8), (0.9874473, 0.15794869, 2.6359032e-8), (0.9874473, 0.15794866, 2.4331415e-8), (0.9169243, -0.39906123, -5.1890677e-8), (-0.99971557, 0.023852237, 0), (-0.99971557, 0.023852225, 0), (0.9169243, -0.39906123, -5.1890677e-8), (-0.99971557, 0.023852225, 0), (0.9874473, 0.15794869, 2.6359032e-8), (-0.99971557, 0.023852237, 0), (0.023147397, 0.9997321, 0), (-0.99971557, 0.023852237, 0), (-0.99971557, 0.023852237, 0), (-0.99971557, 0.023852237, 0), (-0.99971557, 0.023852225, 0), (0.023147397, 0.9997321, 0), (0.9874473, 0.15794869, 2.8386651e-8), (0.9874473, 0.15794866, 2.4331415e-8), (0.023147397, 0.9997321, 0), (0.9874473, 0.15794866, 2.4331415e-8), (-0.99971557, 0.023852237, 0), (-0.99971557, 0.023852225, 0), (-0.99971557, 0.023852237, 0), (0.9874473, 0.15794866, 2.4331415e-8), (-0.99971557, 0.023852225, 0), (0.9874473, 0.15794866, 2.4331415e-8), (0.9874473, 0.15794869, 2.6359032e-8), (0.9169243, -0.39906123, -5.1890677e-8), (0.9874473, 0.15794869, 2.8386651e-8), (0.023147397, 0.9997321, 0), (0.9169243, -0.39906123, -5.1890677e-8), (0.023147397, 0.9997321, 0), (-0.99971557, 0.023852237, 0)] (
        interpolation = "faceVarying"
    )
    point3f[] points = [(0.015860029, -0.021205286, 0.23762636), (0.01586003, -0.021205217, -0.23762633), (0.0063192146, 0.03844107, -0.23762633), (0.0063192127, 0.038441, 0.23762636), (-0.011516028, -0.043323148, -0.23762633), (-0.009507587, 0.040856358, -0.23762633), (-0.01151603, -0.04332322, 0.23762634), (-0.009507589, 0.040856287, 0.23762636)]
}

