#usda 1.0
(
    defaultPrim = "UCX_Counter_Watertab_004"
    upAxis = "Z"
)

def Mesh "UCX_Counter_Watertab_004"
{
    int[] faceVertexCounts = [3, 3, 3, 3, 3, 3, 3, 3, 3, 3, 3, 3, 3, 3, 3, 3, 3, 3, 3, 3, 3, 3, 3, 3, 3, 3, 3, 3, 3, 3, 3, 3, 3, 3, 3, 3, 3, 3, 3, 3, 3, 3, 3, 3, 3, 3, 3, 3, 3, 3, 3, 3, 3, 3, 3, 3, 3, 3, 3, 3, 3, 3, 3, 3, 3, 3, 3, 3, 3, 3, 3, 3, 3, 3, 3, 3, 3, 3, 3, 3, 3, 3, 3, 3, 3, 3, 3, 3, 3, 3, 3, 3, 3, 3]
    int[] faceVertexIndices = [0, 1, 2, 0, 2, 3, 4, 5, 6, 6, 7, 8, 8, 9, 10, 10, 11, 12, 12, 13, 14, 14, 15, 16, 16, 17, 3, 3, 2, 18, 18, 19, 20, 20, 21, 22, 22, 23, 24, 24, 25, 26, 26, 27, 28, 28, 29, 30, 30, 31, 32, 32, 33, 4, 4, 6, 8, 8, 10, 12, 12, 14, 16, 16, 3, 18, 18, 20, 22, 22, 24, 26, 26, 28, 30, 30, 32, 4, 4, 8, 12, 12, 16, 18, 18, 22, 26, 26, 30, 4, 4, 12, 18, 18, 26, 4, 34, 35, 10, 34, 10, 9, 36, 37, 30, 36, 30, 29, 38, 39, 21, 38, 21, 20, 40, 41, 14, 40, 14, 13, 42, 43, 4, 42, 4, 33, 44, 45, 25, 44, 25, 24, 46, 0, 3, 46, 3, 17, 47, 34, 9, 47, 9, 8, 48, 36, 29, 48, 29, 28, 49, 38, 20, 49, 20, 19, 50, 40, 13, 50, 13, 12, 51, 42, 33, 51, 33, 32, 52, 44, 24, 52, 24, 23, 53, 46, 17, 53, 17, 16, 54, 47, 8, 54, 8, 7, 55, 48, 28, 55, 28, 27, 56, 49, 19, 56, 19, 18, 57, 50, 12, 57, 12, 11, 58, 51, 32, 58, 32, 31, 59, 52, 23, 59, 23, 22, 60, 53, 16, 60, 16, 15, 61, 62, 6, 61, 6, 5, 62, 54, 7, 62, 7, 6, 63, 55, 27, 63, 27, 26, 1, 56, 18, 1, 18, 2, 35, 57, 11, 35, 11, 10, 37, 58, 31, 37, 31, 30, 39, 59, 22, 39, 22, 21, 41, 60, 15, 41, 15, 14, 43, 61, 5, 43, 5, 4, 45, 63, 26, 45, 26, 25]
    normal3f[] normals = [(-0.6835231, -0.7299289, 5.4419004e-8), (-0.52798796, -0.849252, 7.4320525e-8), (-0.5825535, -0.8127924, 6.067113e-8), (-0.6835231, -0.7299289, 5.4419004e-8), (-0.5825535, -0.8127924, 6.067113e-8), (-0.7299277, -0.68352437, 6.6947486e-8), (0.41279227, 0.9108253, -1.14767e-7), (0.22716738, 0.9738558, -9.646107e-8), (0.032812376, 0.9994616, -7.531585e-8), (0.032812376, 0.9994616, -7.531585e-8), (-0.16280133, 0.98665893, -7.3522635e-8), (-0.35216275, 0.93593884, -1.14766955e-7), (-0.35216275, 0.93593884, -1.14766955e-7), (-0.5279887, 0.84925145, -1.2657242e-7), (-0.6835242, 0.7299279, -1.093873e-7), (-0.6835242, 0.7299279, -1.093873e-7), (-0.81279176, 0.58255434, -5.9251526e-8), (-0.91082543, 0.41279176, -3.825562e-8), (-0.91082543, 0.41279176, -3.825562e-8), (-0.9738556, 0.22716783, -3.3847293e-8), (-0.99946153, 0.03281288, -4.7819615e-9), (-0.99946153, 0.03281288, -4.7819615e-9), (-0.9866586, -0.1628031, 1.2179041e-8), (-0.9359389, -0.35216254, 2.8691764e-8), (-0.9359389, -0.35216254, 2.8691764e-8), (-0.8492524, -0.52798706, 6.694731e-8), (-0.7299277, -0.68352437, 6.6947486e-8), (-0.7299277, -0.68352437, 6.6947486e-8), (-0.5825535, -0.8127924, 6.067113e-8), (-0.41279224, -0.9108253, 1.1476699e-7), (-0.41279224, -0.9108253, 1.1476699e-7), (-0.2271674, -0.9738558, 1.0886428e-7), (-0.03281335, -0.99946153, 1.3628582e-7), (-0.03281335, -0.99946153, 1.3628582e-7), (0.16280323, -0.9866586, 1.2276183e-7), (0.3521619, -0.93593913, 1.0042112e-7), (0.3521619, -0.93593913, 1.0042112e-7), (0.52798796, -0.849252, 7.434452e-8), (0.6835241, -0.72992796, 5.3797024e-8), (0.6835241, -0.72992796, 5.3797024e-8), (0.8127916, -0.5825546, 7.105698e-8), (0.9108255, -0.4127919, 3.825562e-8), (0.9108255, -0.4127919, 3.825562e-8), (0.97385573, -0.22716762, 1.6961009e-8), (0.99946153, -0.032812815, 2.3909759e-9), (0.99946153, -0.032812815, 2.3909759e-9), (0.9866586, 0.16280328, -2.181771e-8), (0.9359389, 0.35216245, -5.2601568e-8), (0.9359389, 0.35216245, -5.2601568e-8), (0.8492523, 0.52798736, -5.110709e-8), (0.72992754, 0.68352455, -8.6075325e-8), (0.72992754, 0.68352455, -8.6075325e-8), (0.5825541, 0.81279194, -1.2111803e-7), (0.41279227, 0.9108253, -1.14767e-7), (0.41279227, 0.9108253, -1.14767e-7), (0.032812376, 0.9994616, -7.531585e-8), (-0.35216275, 0.93593884, -1.14766955e-7), (-0.35216275, 0.93593884, -1.14766955e-7), (-0.6835242, 0.7299279, -1.093873e-7), (-0.91082543, 0.41279176, -3.825562e-8), (-0.91082543, 0.41279176, -3.825562e-8), (-0.99946153, 0.03281288, -4.7819615e-9), (-0.9359389, -0.35216254, 2.8691764e-8), (-0.9359389, -0.35216254, 2.8691764e-8), (-0.7299277, -0.68352437, 6.6947486e-8), (-0.41279224, -0.9108253, 1.1476699e-7), (-0.41279224, -0.9108253, 1.1476699e-7), (-0.03281335, -0.99946153, 1.3628582e-7), (0.3521619, -0.93593913, 1.0042112e-7), (0.3521619, -0.93593913, 1.0042112e-7), (0.6835241, -0.72992796, 5.3797024e-8), (0.9108255, -0.4127919, 3.825562e-8), (0.9108255, -0.4127919, 3.825562e-8), (0.99946153, -0.032812815, 2.3909759e-9), (0.9359389, 0.35216245, -5.2601568e-8), (0.9359389, 0.35216245, -5.2601568e-8), (0.72992754, 0.68352455, -8.6075325e-8), (0.41279227, 0.9108253, -1.14767e-7), (0.41279227, 0.9108253, -1.14767e-7), (-0.35216275, 0.93593884, -1.14766955e-7), (-0.91082543, 0.41279176, -3.825562e-8), (-0.91082543, 0.41279176, -3.825562e-8), (-0.9359389, -0.35216254, 2.8691764e-8), (-0.41279224, -0.9108253, 1.1476699e-7), (-0.41279224, -0.9108253, 1.1476699e-7), (0.3521619, -0.93593913, 1.0042112e-7), (0.9108255, -0.4127919, 3.825562e-8), (0.9108255, -0.4127919, 3.825562e-8), (0.9359389, 0.35216245, -5.2601568e-8), (0.41279227, 0.9108253, -1.14767e-7), (0.41279227, 0.9108253, -1.14767e-7), (-0.91082543, 0.41279176, -3.825562e-8), (-0.41279224, -0.9108253, 1.1476699e-7), (-0.41279224, -0.9108253, 1.1476699e-7), (0.9108255, -0.4127919, 3.825562e-8), (0.41279227, 0.9108253, -1.14767e-7), (-0.5825541, 0.81279194, -1.2119351e-7), (-0.7299277, 0.68352437, -8.6085485e-8), (-0.6835242, 0.7299279, -1.093873e-7), (-0.5825541, 0.81279194, -1.2119351e-7), (-0.6835242, 0.7299279, -1.093873e-7), (-0.5279887, 0.84925145, -1.2657242e-7), (0.9738557, 0.22716805, -3.38725e-8), (0.9108255, 0.4127919, -4.97853e-8), (0.9359389, 0.35216245, -5.2601568e-8), (0.9738557, 0.22716805, -3.38725e-8), (0.9359389, 0.35216245, -5.2601568e-8), (0.9866586, 0.16280328, -2.181771e-8), (0.03281237, -0.9994616, 1.3660843e-7), (0.22716832, -0.97385556, 1.08907e-7), (0.16280323, -0.9866586, 1.2276183e-7), (0.03281237, -0.9994616, 1.3660843e-7), (0.16280323, -0.9866586, 1.2276183e-7), (-0.03281335, -0.99946153, 1.3628582e-7), (-0.9866586, 0.16280343, -2.1828912e-8), (-0.99946153, -0.032812882, 2.446326e-9), (-0.99946153, 0.03281288, -4.7819615e-9), (-0.9866586, 0.16280343, -2.1828912e-8), (-0.99946153, 0.03281288, -4.7819615e-9), (-0.9738556, 0.22716783, -3.3847293e-8), (0.5279887, 0.84925145, -1.2662991e-7), (0.35216275, 0.93593884, -1.1567228e-7), (0.41279227, 0.9108253, -1.14767e-7), (0.5279887, 0.84925145, -1.2662991e-7), (0.41279227, 0.9108253, -1.14767e-7), (0.5825541, 0.81279194, -1.2111803e-7), (0.72992754, -0.68352455, 6.679263e-8), (0.84925175, -0.52798826, 6.6961945e-8), (0.8127916, -0.5825546, 7.105698e-8), (0.72992754, -0.68352455, 6.679263e-8), (0.8127916, -0.5825546, 7.105698e-8), (0.6835241, -0.72992796, 5.3797024e-8), (-0.8127925, -0.5825535, 7.1029966e-8), (-0.6835231, -0.7299289, 5.4419004e-8), (-0.7299277, -0.68352437, 6.6947486e-8), (-0.8127925, -0.5825535, 7.1029966e-8), (-0.7299277, -0.68352437, 6.6947486e-8), (-0.8492524, -0.52798706, 6.694731e-8), (-0.41279384, 0.91082454, -1.3581094e-7), (-0.5825541, 0.81279194, -1.2119351e-7), (-0.5279887, 0.84925145, -1.2657242e-7), (-0.41279384, 0.91082454, -1.3581094e-7), (-0.5279887, 0.84925145, -1.2657242e-7), (-0.35216275, 0.93593884, -1.14766955e-7), (0.99946153, 0.03281288, -4.892652e-9), (0.9738557, 0.22716805, -3.38725e-8), (0.9866586, 0.16280328, -2.181771e-8), (0.99946153, 0.03281288, -4.892652e-9), (0.9866586, 0.16280328, -2.181771e-8), (0.99946153, -0.032812815, 2.3909759e-9), (-0.16280323, -0.9866586, 1.2275773e-7), (0.03281237, -0.9994616, 1.3660843e-7), (-0.03281335, -0.99946153, 1.3628582e-7), (-0.16280323, -0.9866586, 1.2275773e-7), (-0.03281335, -0.99946153, 1.3628582e-7), (-0.2271674, -0.9738558, 1.0886428e-7), (-0.9359392, 0.3521619, -5.2510046e-8), (-0.9866586, 0.16280343, -2.1828912e-8), (-0.9738556, 0.22716783, -3.3847293e-8), (-0.9359392, 0.3521619, -5.2510046e-8), (-0.9738556, 0.22716783, -3.3847293e-8), (-0.91082543, 0.41279176, -3.825562e-8), (0.683523, 0.729929, -1.0883801e-7), (0.5279887, 0.84925145, -1.2662991e-7), (0.5825541, 0.81279194, -1.2111803e-7), (0.683523, 0.729929, -1.0883801e-7), (0.5825541, 0.81279194, -1.2111803e-7), (0.72992754, 0.68352455, -8.6075325e-8), (0.5825541, -0.81279194, 6.0596754e-8), (0.72992754, -0.68352455, 6.679263e-8), (0.6835241, -0.72992796, 5.3797024e-8), (0.5825541, -0.81279194, 6.0596754e-8), (0.6835241, -0.72992796, 5.3797024e-8), (0.52798796, -0.849252, 7.434452e-8), (-0.9108255, -0.41279176, 4.254034e-8), (-0.8127925, -0.5825535, 7.1029966e-8), (-0.8492524, -0.52798706, 6.694731e-8), (-0.9108255, -0.41279176, 4.254034e-8), (-0.8492524, -0.52798706, 6.694731e-8), (-0.9359389, -0.35216254, 2.8691764e-8), (-0.22716737, 0.9738558, -9.648808e-8), (-0.41279384, 0.91082454, -1.3581094e-7), (-0.35216275, 0.93593884, -1.14766955e-7), (-0.22716737, 0.9738558, -9.648808e-8), (-0.35216275, 0.93593884, -1.14766955e-7), (-0.16280133, 0.98665893, -7.3522635e-8), (0.9866587, -0.16280298, 1.2137589e-8), (0.99946153, 0.03281288, -4.892652e-9), (0.99946153, -0.032812815, 2.3909759e-9), (0.9866587, -0.16280298, 1.2137589e-8), (0.99946153, -0.032812815, 2.3909759e-9), (0.97385573, -0.22716762, 1.6961009e-8), (-0.35216275, -0.93593884, 1.04666746e-7), (-0.16280323, -0.9866586, 1.2275773e-7), (-0.2271674, -0.9738558, 1.0886428e-7), (-0.35216275, -0.93593884, 1.04666746e-7), (-0.2271674, -0.9738558, 1.0886428e-7), (-0.41279224, -0.9108253, 1.1476699e-7), (-0.849252, 0.52798796, -5.112868e-8), (-0.9359392, 0.3521619, -5.2510046e-8), (-0.91082543, 0.41279176, -3.825562e-8), (-0.849252, 0.52798796, -5.112868e-8), (-0.91082543, 0.41279176, -3.825562e-8), (-0.81279176, 0.58255434, -5.9251526e-8), (0.81279224, 0.5825537, -5.9264845e-8), (0.683523, 0.729929, -1.0883801e-7), (0.72992754, 0.68352455, -8.6075325e-8), (0.81279224, 0.5825537, -5.9264845e-8), (0.72992754, 0.68352455, -8.6075325e-8), (0.8492523, 0.52798736, -5.110709e-8), (0.41279227, -0.9108253, 9.085276e-8), (0.5825541, -0.81279194, 6.0596754e-8), (0.52798796, -0.849252, 7.434452e-8), (0.41279227, -0.9108253, 9.085276e-8), (0.52798796, -0.849252, 7.434452e-8), (0.3521619, -0.93593913, 1.0042112e-7), (-0.9738556, -0.22716783, 1.6936234e-8), (-0.9108255, -0.41279176, 4.254034e-8), (-0.9359389, -0.35216254, 2.8691764e-8), (-0.9738556, -0.22716783, 1.6936234e-8), (-0.9359389, -0.35216254, 2.8691764e-8), (-0.9866586, -0.1628031, 1.2179041e-8), (0.16280323, 0.9866586, -7.3559185e-8), (-0.032812376, 0.9994616, -7.451369e-8), (0.032812376, 0.9994616, -7.531585e-8), (0.16280323, 0.9866586, -7.3559185e-8), (0.032812376, 0.9994616, -7.531585e-8), (0.22716738, 0.9738558, -9.646107e-8), (-0.032812376, 0.9994616, -7.451369e-8), (-0.22716737, 0.9738558, -9.648808e-8), (-0.16280133, 0.98665893, -7.3522635e-8), (-0.032812376, 0.9994616, -7.451369e-8), (-0.16280133, 0.98665893, -7.3522635e-8), (0.032812376, 0.9994616, -7.531585e-8), (0.93593913, -0.3521618, 2.6255012e-8), (0.9866587, -0.16280298, 1.2137589e-8), (0.97385573, -0.22716762, 1.6961009e-8), (0.93593913, -0.3521618, 2.6255012e-8), (0.97385573, -0.22716762, 1.6961009e-8), (0.9108255, -0.4127919, 3.825562e-8), (-0.52798796, -0.849252, 7.4320525e-8), (-0.35216275, -0.93593884, 1.04666746e-7), (-0.41279224, -0.9108253, 1.1476699e-7), (-0.52798796, -0.849252, 7.4320525e-8), (-0.41279224, -0.9108253, 1.1476699e-7), (-0.5825535, -0.8127924, 6.067113e-8), (-0.7299277, 0.68352437, -8.6085485e-8), (-0.849252, 0.52798796, -5.112868e-8), (-0.81279176, 0.58255434, -5.9251526e-8), (-0.7299277, 0.68352437, -8.6085485e-8), (-0.81279176, 0.58255434, -5.9251526e-8), (-0.6835242, 0.7299279, -1.093873e-7), (0.9108255, 0.4127919, -4.97853e-8), (0.81279224, 0.5825537, -5.9264845e-8), (0.8492523, 0.52798736, -5.110709e-8), (0.9108255, 0.4127919, -4.97853e-8), (0.8492523, 0.52798736, -5.110709e-8), (0.9359389, 0.35216245, -5.2601568e-8), (0.22716832, -0.97385556, 1.08907e-7), (0.41279227, -0.9108253, 9.085276e-8), (0.3521619, -0.93593913, 1.0042112e-7), (0.22716832, -0.97385556, 1.08907e-7), (0.3521619, -0.93593913, 1.0042112e-7), (0.16280323, -0.9866586, 1.2276183e-7), (-0.99946153, -0.032812882, 2.446326e-9), (-0.9738556, -0.22716783, 1.6936234e-8), (-0.9866586, -0.1628031, 1.2179041e-8), (-0.99946153, -0.032812882, 2.446326e-9), (-0.9866586, -0.1628031, 1.2179041e-8), (-0.99946153, 0.03281288, -4.7819615e-9), (0.35216275, 0.93593884, -1.1567228e-7), (0.16280323, 0.9866586, -7.3559185e-8), (0.22716738, 0.9738558, -9.646107e-8), (0.35216275, 0.93593884, -1.1567228e-7), (0.22716738, 0.9738558, -9.646107e-8), (0.41279227, 0.9108253, -1.14767e-7), (0.84925175, -0.52798826, 6.6961945e-8), (0.93593913, -0.3521618, 2.6255012e-8), (0.9108255, -0.4127919, 3.825562e-8), (0.84925175, -0.52798826, 6.6961945e-8), (0.9108255, -0.4127919, 3.825562e-8), (0.8127916, -0.5825546, 7.105698e-8)] (
        interpolation = "faceVarying"
    )
    point3f[] points = [(-0.0091923885, -0.009192399, -0.11533082), (-0.0072224145, -0.010809115, -0.11533082), (-0.0072224145, -0.0108091, 0.08454032), (-0.0091923885, -0.009192384, 0.08454032), (0.0049748844, 0.012010449, 0.08454032), (0.0025361734, 0.012750217, 0.08454032), (-4.2629839e-10, 0.013000005, 0.08454032), (-0.0025361744, 0.012750217, 0.08454032), (-0.0049748854, 0.012010449, 0.08454032), (-0.0072224145, 0.010809117, 0.08454032), (-0.0091923885, 0.009192401, 0.08454032), (-0.010809105, 0.007222422, 0.08454032), (-0.012010433, 0.0049748947, 0.08454032), (-0.012750208, 0.0025361856, 0.08454032), (-0.013, 7.98613e-9, 0.08454032), (-0.012750208, -0.0025361697, 0.08454032), (-0.012010433, -0.004974879, 0.08454032), (-0.010809105, -0.007222406, 0.08454032), (-0.0049748854, -0.012010424, 0.08454032), (-0.0025361744, -0.0127502, 0.08454032), (-4.2629839e-10, -0.012999988, 0.08454032), (0.0025361734, -0.0127502, 0.08454032), (0.0049748844, -0.012010424, 0.08454032), (0.0072224136, -0.0108091, 0.08454032), (0.0091923885, -0.009192384, 0.08454032), (0.010809106, -0.007222406, 0.08454032), (0.012010435, -0.004974879, 0.08454032), (0.012750209, -0.0025361697, 0.08454032), (0.013000001, 7.98613e-9, 0.08454032), (0.012750209, 0.0025361856, 0.08454032), (0.012010435, 0.0049748947, 0.08454032), (0.010809106, 0.007222422, 0.08454032), (0.0091923885, 0.009192401, 0.08454032), (0.0072224136, 0.010809117, 0.08454032), (-0.0072224145, 0.010809087, -0.11533082), (-0.0091923885, 0.009192371, -0.11533082), (0.012750209, 0.0025361557, -0.11533082), (0.012010435, 0.004974865, -0.11533082), (-4.2629839e-10, -0.013000018, -0.11533082), (0.0025361734, -0.012750222, -0.11533082), (-0.012750208, 0.0025361557, -0.11533082), (-0.013, -6.915031e-9, -0.11533082), (0.0072224136, 0.010809087, -0.11533082), (0.0049748844, 0.012010419, -0.11533082), (0.0091923885, -0.009192399, -0.11533082), (0.010809106, -0.007222436, -0.11533082), (-0.010809105, -0.007222436, -0.11533082), (-0.0049748854, 0.012010419, -0.11533082), (0.013000001, -6.915031e-9, -0.11533082), (-0.0025361744, -0.012750222, -0.11533082), (-0.012010433, 0.004974865, -0.11533082), (0.0091923885, 0.009192371, -0.11533082), (0.0072224136, -0.010809115, -0.11533082), (-0.012010433, -0.0049748938, -0.11533082), (-0.0025361744, 0.012750202, -0.11533082), (0.012750209, -0.0025361846, -0.11533082), (-0.0049748854, -0.012010447, -0.11533082), (-0.010809105, 0.007222407, -0.11533082), (0.010809106, 0.007222407, -0.11533082), (0.0049748844, -0.012010447, -0.11533082), (-0.012750208, -0.0025361846, -0.11533082), (0.0025361734, 0.012750202, -0.11533082), (-4.2629839e-10, 0.01299999, -0.11533082), (0.012010435, -0.0049748938, -0.11533082)]
}

