#usda 1.0
(
    defaultPrim = "UCX_Dishwasher_Tray_01_111"
    upAxis = "Z"
)

def Mesh "UCX_Dishwasher_Tray_01_111"
{
    int[] faceVertexCounts = [3, 3, 3, 3, 3, 3, 3, 3, 3, 3, 3, 3, 3, 3, 3, 3, 3, 3, 3, 3, 3, 3, 3, 3, 3, 3, 3, 3]
    int[] faceVertexIndices = [0, 1, 2, 0, 2, 3, 1, 4, 5, 1, 5, 2, 4, 6, 7, 4, 7, 5, 6, 8, 9, 6, 9, 7, 8, 10, 11, 8, 11, 9, 10, 12, 13, 10, 13, 11, 3, 2, 5, 5, 7, 9, 9, 11, 13, 13, 14, 3, 3, 5, 9, 9, 13, 3, 12, 15, 14, 12, 14, 13, 15, 0, 3, 15, 3, 14, 1, 0, 15, 15, 12, 10, 10, 8, 6, 6, 4, 1, 1, 15, 10, 10, 6, 1]
    normal3f[] normals = [(-0.1441794, 0.98955154, -5.8037535e-9), (-0.812418, 0.58307564, -2.919499e-8), (-0.62431824, 0.7811702, -1.29398945e-8), (-0.1441794, 0.98955154, -5.8037535e-9), (-0.62431824, 0.7811702, -1.29398945e-8), (0.1441794, 0.98955154, 2.283256e-9), (-0.812418, 0.58307564, -2.919499e-8), (-0.9915486, -0.12973574, 1.6059447e-8), (-0.9915486, 0.12973627, 1.6059447e-8), (-0.812418, 0.58307564, -2.919499e-8), (-0.9915486, 0.12973627, 1.6059447e-8), (-0.62431824, 0.7811702, -1.29398945e-8), (-0.9915486, -0.12973574, 1.6059447e-8), (-0.624318, -0.7811704, -3.355235e-8), (-0.8124182, -0.5830752, -2.2664524e-8), (-0.9915486, -0.12973574, 1.6059447e-8), (-0.8124182, -0.5830752, -2.2664524e-8), (-0.9915486, 0.12973627, 1.6059447e-8), (-0.624318, -0.7811704, -3.355235e-8), (0.14417934, -0.98955166, 3.9158725e-9), (-0.14417942, -0.98955154, -7.1558484e-9), (-0.624318, -0.7811704, -3.355235e-8), (-0.14417942, -0.98955154, -7.1558484e-9), (-0.8124182, -0.5830752, -2.2664524e-8), (0.14417934, -0.98955166, 3.9158725e-9), (0.8124184, -0.58307487, 2.480767e-8), (0.62431794, -0.78117037, 2.8143972e-8), (0.14417934, -0.98955166, 3.9158725e-9), (0.62431794, -0.78117037, 2.8143972e-8), (-0.14417942, -0.98955154, -7.1558484e-9), (0.8124184, -0.58307487, 2.480767e-8), (0.9915487, 0.12973574, 2.2921292e-8), (0.9915487, -0.12973516, 5.1085273e-8), (0.8124184, -0.58307487, 2.480767e-8), (0.9915487, -0.12973516, 5.1085273e-8), (0.62431794, -0.78117037, 2.8143972e-8), (0.1441794, 0.98955154, 2.283256e-9), (-0.62431824, 0.7811702, -1.29398945e-8), (-0.9915486, 0.12973627, 1.6059447e-8), (-0.9915486, 0.12973627, 1.6059447e-8), (-0.8124182, -0.5830752, -2.2664524e-8), (-0.14417942, -0.98955154, -7.1558484e-9), (-0.14417942, -0.98955154, -7.1558484e-9), (0.62431794, -0.78117037, 2.8143972e-8), (0.9915487, -0.12973516, 5.1085273e-8), (0.9915487, -0.12973516, 5.1085273e-8), (0.8124184, 0.58307487, 2.480767e-8), (0.1441794, 0.98955154, 2.283256e-9), (0.1441794, 0.98955154, 2.283256e-9), (-0.9915486, 0.12973627, 1.6059447e-8), (-0.14417942, -0.98955154, -7.1558484e-9), (-0.14417942, -0.98955154, -7.1558484e-9), (0.9915487, -0.12973516, 5.1085273e-8), (0.1441794, 0.98955154, 2.283256e-9), (0.9915487, 0.12973574, 2.2921292e-8), (0.62431824, 0.7811701, 2.7021885e-8), (0.8124184, 0.58307487, 2.480767e-8), (0.9915487, 0.12973574, 2.2921292e-8), (0.8124184, 0.58307487, 2.480767e-8), (0.9915487, -0.12973516, 5.1085273e-8), (0.62431824, 0.7811701, 2.7021885e-8), (-0.1441794, 0.98955154, -5.8037535e-9), (0.1441794, 0.98955154, 2.283256e-9), (0.62431824, 0.7811701, 2.7021885e-8), (0.1441794, 0.98955154, 2.283256e-9), (0.8124184, 0.58307487, 2.480767e-8), (-0.812418, 0.58307564, -2.919499e-8), (-0.1441794, 0.98955154, -5.8037535e-9), (0.62431824, 0.7811701, 2.7021885e-8), (0.62431824, 0.7811701, 2.7021885e-8), (0.9915487, 0.12973574, 2.2921292e-8), (0.8124184, -0.58307487, 2.480767e-8), (0.8124184, -0.58307487, 2.480767e-8), (0.14417934, -0.98955166, 3.9158725e-9), (-0.624318, -0.7811704, -3.355235e-8), (-0.624318, -0.7811704, -3.355235e-8), (-0.9915486, -0.12973574, 1.6059447e-8), (-0.812418, 0.58307564, -2.919499e-8), (-0.812418, 0.58307564, -2.919499e-8), (0.62431824, 0.7811701, 2.7021885e-8), (0.8124184, -0.58307487, 2.480767e-8), (0.8124184, -0.58307487, 2.480767e-8), (-0.624318, -0.7811704, -3.355235e-8), (-0.812418, 0.58307564, -2.919499e-8)] (
        interpolation = "faceVarying"
    )
    point3f[] points = [(2.0789603e-9, 0.002000004, -0.030801209), (-0.0013401665, 0.0014142097, -0.030801207), (-0.0013401672, 0.0014142097, 0.03080121), (-9.947588e-10, 0.002000004, 0.030801216), (-0.001895281, 1.1295388e-10, -0.0308012), (-0.0018952792, 1.1295388e-10, 0.03080121), (-0.0013401665, -0.0014142095, -0.030801207), (-0.0013401672, -0.0014142095, 0.03080121), (2.0789603e-9, -0.002000004, -0.030801209), (-9.947588e-10, -0.002000004, 0.030801216), (0.0013401707, -0.0014142095, -0.030801209), (0.0013401677, -0.0014142095, 0.030801214), (0.0018952802, 1.1295388e-10, -0.030801201), (0.0018952796, 1.1295388e-10, 0.030801214), (0.0013401677, 0.0014142097, 0.030801214), (0.0013401707, 0.0014142097, -0.030801209)]
}

