#usda 1.0
(
    defaultPrim = "UCX_Kitchen_06_Base_Drawer_02_003"
    upAxis = "Z"
)

def Mesh "UCX_Kitchen_06_Base_Drawer_02_003"
{
    int[] faceVertexCounts = [3, 3, 3, 3, 3, 3, 3, 3, 3, 3, 3, 3]
    int[] faceVertexIndices = [0, 1, 2, 0, 2, 3, 4, 5, 3, 4, 3, 2, 6, 7, 5, 6, 5, 4, 1, 6, 4, 1, 4, 2, 7, 0, 3, 7, 3, 5, 6, 1, 0, 6, 0, 7]
    normal3f[] normals = [(0.9941576, -0.10793783, 0), (0.9941578, -0.10793773, 0), (-0.9994191, -0.034078967, -0), (0.9941576, -0.10793783, 0), (-0.9994191, -0.034078967, -0), (-0.99941915, -0.034079, -0), (-0.9994192, -0.034079034, -0), (-0.99941915, -0.034079, -0), (-0.99941915, -0.034079, -0), (-0.9994192, -0.034079034, -0), (-0.99941915, -0.034079, -0), (-0.9994191, -0.034078967, -0), (0.99415773, -0.10793777, 0), (0.99415773, -0.10793777, 0), (-0.99941915, -0.034079, -0), (0.99415773, -0.10793777, 0), (-0.99941915, -0.034079, -0), (-0.9994192, -0.034079034, -0), (0.9941578, -0.10793773, 0), (0.99415773, -0.10793777, 0), (-0.9994192, -0.034079034, -0), (0.9941578, -0.10793773, 0), (-0.9994192, -0.034079034, -0), (-0.9994191, -0.034078967, -0), (0.99415773, -0.10793777, 0), (0.9941576, -0.10793783, 0), (-0.99941915, -0.034079, -0), (0.99415773, -0.10793777, 0), (-0.99941915, -0.034079, -0), (-0.99941915, -0.034079, -0), (0.99415773, -0.10793777, 0), (0.9941578, -0.10793773, 0), (0.9941576, -0.10793783, 0), (0.99415773, -0.10793777, 0), (0.9941576, -0.10793783, 0), (0.99415773, -0.10793777, 0)] (
        interpolation = "faceVarying"
    )
    point3f[] points = [(0.002470296, -0.021420421, 0.23762634), (0.0062691094, 0.013568442, 0.23762634), (-0.0052462416, 0.017658697, 0.23762634), (-0.004112908, -0.0155781135, 0.23762634), (-0.0052462416, 0.017658697, -0.23762634), (-0.004112908, -0.0155781135, -0.23762634), (0.0062691094, 0.013568442, -0.23762634), (0.002470296, -0.021420421, -0.23762634)]
}

