#usda 1.0
(
    defaultPrim = "UCX_Kitchen_11_Base_Drawer_03_004"
    upAxis = "Z"
)

def Mesh "UCX_Kitchen_11_Base_Drawer_03_004"
{
    int[] faceVertexCounts = [3, 3, 3, 3, 3, 3, 3, 3, 3, 3, 3, 3]
    int[] faceVertexIndices = [0, 1, 2, 0, 2, 3, 4, 2, 1, 4, 1, 5, 6, 4, 5, 6, 5, 7, 3, 2, 4, 3, 4, 6, 7, 5, 1, 7, 1, 0, 6, 7, 0, 6, 0, 3]
    normal3f[] normals = [(0.99415773, 0.10793762, 1.18320465e-7), (-0.99941915, 0.034079146, -1.3258263e-7), (-0.99941915, 0.03407918, -1.325826e-7), (0.99415773, 0.10793762, 1.18320465e-7), (-0.99941915, 0.03407918, -1.325826e-7), (0.99415773, 0.1079377, 1.2006046e-7), (-0.99941915, 0.034079146, -1.3258263e-7), (-0.99941915, 0.03407918, -1.325826e-7), (-0.99941915, 0.034079146, -1.3258263e-7), (-0.99941915, 0.034079146, -1.3258263e-7), (-0.99941915, 0.034079146, -1.3258263e-7), (-0.9994192, 0.03407913, -1.3258261e-7), (0.9941577, 0.10793766, 1.18320465e-7), (-0.99941915, 0.034079146, -1.3258263e-7), (-0.9994192, 0.03407913, -1.3258261e-7), (0.9941577, 0.10793766, 1.18320465e-7), (-0.9994192, 0.03407913, -1.3258261e-7), (0.99415773, 0.10793767, 1.2006046e-7), (0.99415773, 0.1079377, 1.2006046e-7), (-0.99941915, 0.03407918, -1.325826e-7), (-0.99941915, 0.034079146, -1.3258263e-7), (0.99415773, 0.1079377, 1.2006046e-7), (-0.99941915, 0.034079146, -1.3258263e-7), (0.9941577, 0.10793766, 1.18320465e-7), (0.99415773, 0.10793767, 1.2006046e-7), (-0.9994192, 0.03407913, -1.3258261e-7), (-0.99941915, 0.034079146, -1.3258263e-7), (0.99415773, 0.10793767, 1.2006046e-7), (-0.99941915, 0.034079146, -1.3258263e-7), (0.99415773, 0.10793762, 1.18320465e-7), (0.9941577, 0.10793766, 1.18320465e-7), (0.99415773, 0.10793767, 1.2006046e-7), (0.99415773, 0.10793762, 1.18320465e-7), (0.9941577, 0.10793766, 1.18320465e-7), (0.99415773, 0.10793762, 1.18320465e-7), (0.99415773, 0.1079377, 1.2006046e-7)] (
        interpolation = "faceVarying"
    )
    point3f[] points = [(0.002470256, 0.021420438, 0.23762637), (-0.004112943, 0.015578128, 0.23762637), (-0.0052462816, -0.017658668, 0.23762637), (0.006269068, -0.013568431, 0.23762637), (-0.00524622, -0.01765871, -0.23762634), (-0.004112881, 0.0155780865, -0.23762634), (0.0062691295, -0.013568473, -0.23762634), (0.0024703178, 0.021420395, -0.23762634)]
}

