#usda 1.0
(
    defaultPrim = "UCX_Kitchen_11_Base_Drawer_03_002"
    upAxis = "Z"
)

def Mesh "UCX_Kitchen_11_Base_Drawer_03_002"
{
    int[] faceVertexCounts = [3, 3, 3, 3, 3, 3, 3, 3, 3, 3, 3, 3]
    int[] faceVertexIndices = [0, 1, 2, 0, 2, 3, 4, 5, 3, 4, 3, 2, 6, 7, 5, 6, 5, 4, 1, 6, 4, 1, 4, 2, 7, 0, 3, 7, 3, 5, 6, 1, 0, 6, 0, 7]
    normal3f[] normals = [(0.99415773, -0.10793766, 0), (0.99415773, -0.10793774, 0), (-0.99941915, -0.034079146, -0), (0.99415773, -0.10793766, 0), (-0.99941915, -0.034079146, -0), (-0.99941915, -0.034079112, -0), (-0.99941915, -0.034079112, -0), (-0.9994192, -0.034079097, -0), (-0.99941915, -0.034079112, -0), (-0.99941915, -0.034079112, -0), (-0.99941915, -0.034079112, -0), (-0.99941915, -0.034079146, -0), (0.9941577, -0.107937686, 0), (0.99415773, -0.1079377, 0), (-0.9994192, -0.034079097, -0), (0.9941577, -0.107937686, 0), (-0.9994192, -0.034079097, -0), (-0.99941915, -0.034079112, -0), (0.99415773, -0.10793774, 0), (0.9941577, -0.107937686, 0), (-0.99941915, -0.034079112, -0), (0.99415773, -0.10793774, 0), (-0.99941915, -0.034079112, -0), (-0.99941915, -0.034079146, -0), (0.99415773, -0.1079377, 0), (0.99415773, -0.10793766, 0), (-0.99941915, -0.034079112, -0), (0.99415773, -0.1079377, 0), (-0.99941915, -0.034079112, -0), (-0.9994192, -0.034079097, -0), (0.9941577, -0.107937686, 0), (0.99415773, -0.10793774, 0), (0.99415773, -0.10793766, 0), (0.9941577, -0.107937686, 0), (0.99415773, -0.10793766, 0), (0.99415773, -0.1079377, 0)] (
        interpolation = "faceVarying"
    )
    point3f[] points = [(0.0024702875, -0.021420414, 0.23762639), (0.006269101, 0.0135684535, 0.23762639), (-0.005246249, 0.017658692, 0.23762639), (-0.0041129114, -0.015578104, 0.23762639), (-0.005246249, 0.017658692, -0.23762633), (-0.0041129114, -0.015578104, -0.23762633), (0.006269101, 0.0135684535, -0.23762633), (0.0024702875, -0.021420414, -0.23762633)]
}

