#usda 1.0
(
    defaultPrim = "UCX_Fridge_Drawer_01_003"
    upAxis = "Z"
)

def Mesh "UCX_Fridge_Drawer_01_003"
{
    int[] faceVertexCounts = [3, 3, 3, 3, 3, 3, 3, 3, 3, 3, 3, 3, 3, 3, 3, 3]
    int[] faceVertexIndices = [0, 1, 2, 0, 2, 3, 3, 2, 4, 3, 4, 5, 1, 6, 4, 1, 4, 2, 7, 8, 6, 7, 6, 1, 5, 4, 6, 5, 6, 9, 1, 0, 7, 7, 0, 9, 7, 9, 8, 6, 8, 9, 0, 3, 5, 0, 5, 9]
    normal3f[] normals = [(-0.99969995, -0.024495933, 0), (0.9996136, -0.027796995, 0), (0.9996136, -0.027796995, 0), (-0.99969995, -0.024495933, 0), (0.9996136, -0.027796995, 0), (-0.9996136, 0.027796995, 0), (-0.9996136, 0.027796995, 0), (0.9996136, -0.027796995, 0), (0.9996136, -0.027796995, 0), (-0.9996136, 0.027796995, 0), (0.9996136, -0.027796995, 0), (-0.9996136, 0.027796995, 0), (0.9996136, -0.027796995, 0), (0.9996136, -0.027796995, 0), (0.9996136, -0.027796995, 0), (0.9996136, -0.027796995, 0), (0.9996136, -0.027796995, 0), (0.9996136, -0.027796995, 0), (0.9996136, -0.027796995, 0), (0.9996136, -0.027796995, 0), (0.9996136, -0.027796995, 0), (0.9996136, -0.027796995, 0), (0.9996136, -0.027796995, 0), (0.9996136, -0.027796995, 0), (-0.9996136, 0.027796995, 0), (0.9996136, -0.027796995, 0), (0.9996136, -0.027796995, 0), (-0.9996136, 0.027796995, 0), (0.9996136, -0.027796995, 0), (-0.99707437, -0.07643817, 0), (0.9996136, -0.027796995, 0), (-0.99969995, -0.024495933, 0), (0.9996136, -0.027796995, 0), (0.9996136, -0.027796995, 0), (-0.99969995, -0.024495933, 0), (-0.99707437, -0.07643817, 0), (0.9996136, -0.027796995, 0), (-0.99707437, -0.07643817, 0), (0.9996136, -0.027796995, 0), (0.9996136, -0.027796995, 0), (0.9996136, -0.027796995, 0), (-0.99707437, -0.07643817, 0), (-0.99969995, -0.024495933, 0), (-0.9996136, 0.027796995, 0), (-0.9996136, 0.027796995, 0), (-0.99969995, -0.024495933, 0), (-0.9996136, 0.027796995, 0), (-0.99707437, -0.07643817, 0)] (
        interpolation = "faceVarying"
    )
    point3f[] points = [(-0.014554589, -0.034242205, 0.19733602), (0.009910798, -0.034922533, 0.19733602), (0.014242986, 0.12086819, 0.19733602), (-0.0102224015, 0.12154852, 0.19733602), (0.014242986, 0.12086819, -0.19733602), (-0.0102224015, 0.12154852, -0.19733602), (0.009910798, -0.034922533, -0.19733602), (0.00557861, -0.19071326, 0.19733602), (0.00557861, -0.19071326, -0.19733602), (-0.014554589, -0.034242205, -0.19733602)]
}

