#usda 1.0
(
    defaultPrim = "UCX_Dishwasher_Tray_02_023"
    upAxis = "Z"
)

def Mesh "UCX_Dishwasher_Tray_02_023"
{
    int[] faceVertexCounts = [3, 3, 3, 3, 3, 3, 3, 3, 3, 3, 3, 3, 3, 3, 3, 3, 3, 3, 3, 3, 3, 3, 3, 3, 3, 3, 3, 3]
    int[] faceVertexIndices = [0, 1, 2, 0, 2, 3, 3, 2, 4, 3, 4, 5, 5, 4, 6, 5, 6, 7, 7, 6, 8, 7, 8, 9, 9, 8, 10, 9, 10, 11, 11, 10, 12, 11, 12, 13, 4, 2, 1, 1, 14, 12, 12, 10, 8, 8, 6, 4, 4, 1, 12, 12, 8, 4, 13, 12, 14, 13, 14, 15, 15, 14, 1, 15, 1, 0, 15, 0, 3, 3, 5, 7, 7, 9, 11, 11, 13, 15, 15, 3, 7, 7, 11, 15]
    normal3f[] normals = [(0.13677426, 0.99060225, -5.867457e-8), (-0.13677426, 0.99060225, -7.3208966e-8), (0.6037477, 0.7971755, -4.096037e-8), (0.13677426, 0.99060225, -5.867457e-8), (0.6037477, 0.7971755, -4.096037e-8), (0.7971733, 0.6037507, -5.1849206e-8), (0.7971733, 0.6037507, -5.1849206e-8), (0.6037477, 0.7971755, -4.096037e-8), (0.990602, 0.13677566, -6.0171477e-9), (0.7971733, 0.6037507, -5.1849206e-8), (0.990602, 0.13677566, -6.0171477e-9), (0.990602, -0.13677566, -8.517248e-9), (0.990602, -0.13677566, -8.517248e-9), (0.990602, 0.13677566, -6.0171477e-9), (0.79717386, -0.60374993, -9.843873e-9), (0.990602, -0.13677566, -8.517248e-9), (0.79717386, -0.60374993, -9.843873e-9), (0.6037477, -0.79717547, -4.763754e-8), (0.6037477, -0.79717547, -4.763754e-8), (0.79717386, -0.60374993, -9.843873e-9), (0.13677426, -0.9906023, -7.074347e-8), (0.6037477, -0.79717547, -4.763754e-8), (0.13677426, -0.9906023, -7.074347e-8), (-0.13677426, -0.9906023, -5.620907e-8), (-0.13677426, -0.9906023, -5.620907e-8), (0.13677426, -0.9906023, -7.074347e-8), (-0.6037488, -0.79717463, -2.3515772e-8), (-0.13677426, -0.9906023, -5.620907e-8), (-0.6037488, -0.79717463, -2.3515772e-8), (-0.79717386, -0.60374993, -2.437827e-8), (-0.79717386, -0.60374993, -2.437827e-8), (-0.6037488, -0.79717463, -2.3515772e-8), (-0.990602, -0.13677563, 1.6877837e-9), (-0.79717386, -0.60374993, -2.437827e-8), (-0.990602, -0.13677563, 1.6877837e-9), (-0.990602, 0.13677588, -9.418587e-9), (0.990602, 0.13677566, -6.0171477e-9), (0.6037477, 0.7971755, -4.096037e-8), (-0.13677426, 0.99060225, -7.3208966e-8), (-0.13677426, 0.99060225, -7.3208966e-8), (-0.7971733, 0.6037507, -3.7314813e-8), (-0.990602, -0.13677563, 1.6877837e-9), (-0.990602, -0.13677563, 1.6877837e-9), (-0.6037488, -0.79717463, -2.3515772e-8), (0.13677426, -0.9906023, -7.074347e-8), (0.13677426, -0.9906023, -7.074347e-8), (0.79717386, -0.60374993, -9.843873e-9), (0.990602, 0.13677566, -6.0171477e-9), (0.990602, 0.13677566, -6.0171477e-9), (-0.13677426, 0.99060225, -7.3208966e-8), (-0.990602, -0.13677563, 1.6877837e-9), (-0.990602, -0.13677563, 1.6877837e-9), (0.13677426, -0.9906023, -7.074347e-8), (0.990602, 0.13677566, -6.0171477e-9), (-0.990602, 0.13677588, -9.418587e-9), (-0.990602, -0.13677563, 1.6877837e-9), (-0.7971733, 0.6037507, -3.7314813e-8), (-0.990602, 0.13677588, -9.418587e-9), (-0.7971733, 0.6037507, -3.7314813e-8), (-0.6037477, 0.7971755, -4.096037e-8), (-0.6037477, 0.7971755, -4.096037e-8), (-0.7971733, 0.6037507, -3.7314813e-8), (-0.13677426, 0.99060225, -7.3208966e-8), (-0.6037477, 0.7971755, -4.096037e-8), (-0.13677426, 0.99060225, -7.3208966e-8), (0.13677426, 0.99060225, -5.867457e-8), (-0.6037477, 0.7971755, -4.096037e-8), (0.13677426, 0.99060225, -5.867457e-8), (0.7971733, 0.6037507, -5.1849206e-8), (0.7971733, 0.6037507, -5.1849206e-8), (0.990602, -0.13677566, -8.517248e-9), (0.6037477, -0.79717547, -4.763754e-8), (0.6037477, -0.79717547, -4.763754e-8), (-0.13677426, -0.9906023, -5.620907e-8), (-0.79717386, -0.60374993, -2.437827e-8), (-0.79717386, -0.60374993, -2.437827e-8), (-0.990602, 0.13677588, -9.418587e-9), (-0.6037477, 0.7971755, -4.096037e-8), (-0.6037477, 0.7971755, -4.096037e-8), (0.7971733, 0.6037507, -5.1849206e-8), (0.6037477, -0.79717547, -4.763754e-8), (0.6037477, -0.79717547, -4.763754e-8), (-0.79717386, -0.60374993, -2.437827e-8), (-0.6037477, 0.7971755, -4.096037e-8)] (
        interpolation = "faceVarying"
    )
    point3f[] points = [(-5.960479e-11, 0.001999998, -0.03520003), (-5.960479e-11, 0.0020000022, 0.03520001), (0.0014142095, 0.0014142147, 0.035200007), (0.0014142095, 0.0014142105, -0.035200033), (0.002000004, 5.4489164e-9, 0.03520001), (0.002000004, 1.2964577e-9, -0.03520003), (0.0014142095, -0.0014142111, 0.03520001), (0.0014142095, -0.001414208, -0.03520003), (-5.960479e-11, -0.0019999985, 0.035200007), (-5.960479e-11, -0.0019999954, -0.035200033), (-0.0014142097, -0.0014142111, 0.03520001), (-0.0014142097, -0.001414208, -0.03520003), (-0.002000004, 5.4489164e-9, 0.03520001), (-0.002000004, 1.2964577e-9, -0.03520003), (-0.0014142097, 0.0014142147, 0.035200007), (-0.0014142097, 0.0014142105, -0.035200033)]
}

