#usda 1.0
(
    defaultPrim = "UCX_Dishwasher_Tray_02_015"
    upAxis = "Z"
)

def Mesh "UCX_Dishwasher_Tray_02_015"
{
    int[] faceVertexCounts = [3, 3, 3, 3, 3, 3, 3, 3, 3, 3, 3, 3, 3, 3, 3, 3, 3, 3, 3, 3, 3, 3, 3, 3, 3, 3, 3, 3]
    int[] faceVertexIndices = [0, 1, 2, 0, 2, 3, 3, 2, 4, 3, 4, 5, 5, 4, 6, 5, 6, 7, 7, 6, 8, 7, 8, 9, 9, 8, 10, 9, 10, 11, 11, 10, 12, 11, 12, 13, 4, 2, 1, 1, 14, 12, 12, 10, 8, 8, 6, 4, 4, 1, 12, 12, 8, 4, 13, 12, 14, 13, 14, 15, 15, 14, 1, 15, 1, 0, 15, 0, 3, 3, 5, 7, 7, 9, 11, 11, 13, 15, 15, 3, 7, 7, 11, 15]
    normal3f[] normals = [(0.13677272, 0.99060243, -5.401436e-8), (-0.13677356, 0.9906023, -6.57657e-8), (0.6037477, 0.7971755, -3.6688682e-8), (0.13677272, 0.99060243, -5.401436e-8), (0.6037477, 0.7971755, -3.6688682e-8), (0.797176, 0.60374695, -2.400339e-8), (0.797176, 0.60374695, -2.400339e-8), (0.6037477, 0.7971755, -3.6688682e-8), (0.9906026, 0.13677216, -1.0331845e-8), (0.797176, 0.60374695, -2.400339e-8), (0.9906026, 0.13677216, -1.0331845e-8), (0.9906026, -0.13677225, -7.565657e-9), (0.9906026, -0.13677225, -7.565657e-9), (0.9906026, 0.13677216, -1.0331845e-8), (0.79717636, -0.60374653, -2.7948973e-8), (0.9906026, -0.13677225, -7.565657e-9), (0.79717636, -0.60374653, -2.7948973e-8), (0.6037477, -0.79717547, -3.7374825e-8), (0.6037477, -0.79717547, -3.7374825e-8), (0.79717636, -0.60374653, -2.7948973e-8), (0.13677356, -0.99060243, -7.67952e-8), (0.6037477, -0.79717547, -3.7374825e-8), (0.13677356, -0.99060243, -7.67952e-8), (-0.13677356, -0.99060243, -4.7726413e-8), (-0.13677356, -0.99060243, -4.7726413e-8), (0.13677356, -0.99060243, -7.67952e-8), (-0.6037488, -0.79717463, -4.2321833e-8), (-0.13677356, -0.99060243, -4.7726413e-8), (-0.6037488, -0.79717463, -4.2321833e-8), (-0.79717636, -0.60374653, -2.7948973e-8), (-0.79717636, -0.60374653, -2.7948973e-8), (-0.6037488, -0.79717463, -4.2321833e-8), (-0.9906026, -0.13677216, -1.6920149e-8), (-0.79717636, -0.60374653, -2.7948973e-8), (-0.9906026, -0.13677216, -1.6920149e-8), (-0.9906025, 0.13677235, -1.4506431e-8), (0.9906026, 0.13677216, -1.0331845e-8), (0.6037477, 0.7971755, -3.6688682e-8), (-0.13677356, 0.9906023, -6.57657e-8), (-0.13677356, 0.9906023, -6.57657e-8), (-0.7971757, 0.60374737, -4.8278487e-8), (-0.9906026, -0.13677216, -1.6920149e-8), (-0.9906026, -0.13677216, -1.6920149e-8), (-0.6037488, -0.79717463, -4.2321833e-8), (0.13677356, -0.99060243, -7.67952e-8), (0.13677356, -0.99060243, -7.67952e-8), (0.79717636, -0.60374653, -2.7948973e-8), (0.9906026, 0.13677216, -1.0331845e-8), (0.9906026, 0.13677216, -1.0331845e-8), (-0.13677356, 0.9906023, -6.57657e-8), (-0.9906026, -0.13677216, -1.6920149e-8), (-0.9906026, -0.13677216, -1.6920149e-8), (0.13677356, -0.99060243, -7.67952e-8), (0.9906026, 0.13677216, -1.0331845e-8), (-0.9906025, 0.13677235, -1.4506431e-8), (-0.9906026, -0.13677216, -1.6920149e-8), (-0.7971757, 0.60374737, -4.8278487e-8), (-0.9906025, 0.13677235, -1.4506431e-8), (-0.7971757, 0.60374737, -4.8278487e-8), (-0.6037471, 0.79717594, -3.0503458e-8), (-0.6037471, 0.79717594, -3.0503458e-8), (-0.7971757, 0.60374737, -4.8278487e-8), (-0.13677356, 0.9906023, -6.57657e-8), (-0.6037471, 0.79717594, -3.0503458e-8), (-0.13677356, 0.9906023, -6.57657e-8), (0.13677272, 0.99060243, -5.401436e-8), (-0.6037471, 0.79717594, -3.0503458e-8), (0.13677272, 0.99060243, -5.401436e-8), (0.797176, 0.60374695, -2.400339e-8), (0.797176, 0.60374695, -2.400339e-8), (0.9906026, -0.13677225, -7.565657e-9), (0.6037477, -0.79717547, -3.7374825e-8), (0.6037477, -0.79717547, -3.7374825e-8), (-0.13677356, -0.99060243, -4.7726413e-8), (-0.79717636, -0.60374653, -2.7948973e-8), (-0.79717636, -0.60374653, -2.7948973e-8), (-0.9906025, 0.13677235, -1.4506431e-8), (-0.6037471, 0.79717594, -3.0503458e-8), (-0.6037471, 0.79717594, -3.0503458e-8), (0.797176, 0.60374695, -2.400339e-8), (0.6037477, -0.79717547, -3.7374825e-8), (0.6037477, -0.79717547, -3.7374825e-8), (-0.79717636, -0.60374653, -2.7948973e-8), (-0.6037471, 0.79717594, -3.0503458e-8)] (
        interpolation = "faceVarying"
    )
    point3f[] points = [(-6.4829975e-11, 0.0019999968, -0.035200033), (-6.4829975e-11, 0.0020000003, 0.035200004), (0.0014142169, 0.0014142164, 0.0352), (0.0014142169, 0.0014142095, -0.035200037), (0.0019999966, 3.536176e-9, 0.0352), (0.0019999966, 2.2308776e-10, -0.035200033), (0.0014142169, -0.001414213, 0.035200004), (0.0014142169, -0.001414209, -0.035200033), (-6.4829975e-11, -0.0020000006, 0.0352), (-6.4829975e-11, -0.0019999966, -0.035200037), (-0.0014142172, -0.001414213, 0.035200004), (-0.0014142172, -0.001414209, -0.035200033), (-0.0019999966, 3.536176e-9, 0.0352), (-0.0019999966, 2.2308776e-10, -0.035200033), (-0.0014142172, 0.0014142164, 0.0352), (-0.0014142172, 0.0014142095, -0.035200037)]
}

