#usda 1.0
(
    defaultPrim = "UCX_Fridge_Egg_Tray_002"
    upAxis = "Z"
)

def Mesh "UCX_Fridge_Egg_Tray_002"
{
    int[] faceVertexCounts = [3, 3, 3, 3, 3, 3, 3, 3, 3, 3, 3, 3]
    int[] faceVertexIndices = [0, 1, 2, 0, 2, 3, 4, 5, 6, 4, 6, 7, 5, 4, 1, 5, 1, 0, 6, 3, 2, 6, 2, 7, 3, 6, 5, 3, 5, 0, 2, 1, 4, 2, 4, 7]
    normal3f[] normals = [(-1.0000001, -0, 3.2335635e-8), (-1.0000001, -0, 1.7660167e-8), (1.0000001, 0, -1.7660167e-8), (-1.0000001, -0, 3.2335635e-8), (1.0000001, 0, -1.7660167e-8), (1, 0, 1.7684405e-8), (-1.0000001, -0, 3.2335635e-8), (-1.0000001, -0, 1.7660167e-8), (1, 0, 3.2359875e-8), (-1.0000001, -0, 3.2335635e-8), (1, 0, 3.2359875e-8), (1, 0, 1.7684405e-8), (-1.0000001, -0, 1.7660167e-8), (-1.0000001, -0, 3.2335635e-8), (-1.0000001, -0, 1.7660167e-8), (-1.0000001, -0, 1.7660167e-8), (-1.0000001, -0, 1.7660167e-8), (-1.0000001, -0, 3.2335635e-8), (1, 0, 3.2359875e-8), (1, 0, 1.7684405e-8), (1.0000001, 0, -1.7660167e-8), (1, 0, 3.2359875e-8), (1.0000001, 0, -1.7660167e-8), (1, 0, 1.7684405e-8), (1, 0, 1.7684405e-8), (1, 0, 3.2359875e-8), (-1.0000001, -0, 1.7660167e-8), (1, 0, 1.7684405e-8), (-1.0000001, -0, 1.7660167e-8), (-1.0000001, -0, 3.2335635e-8), (1.0000001, 0, -1.7660167e-8), (-1.0000001, -0, 1.7660167e-8), (-1.0000001, -0, 3.2335635e-8), (1.0000001, 0, -1.7660167e-8), (-1.0000001, -0, 3.2335635e-8), (1, 0, 1.7684405e-8)] (
        interpolation = "faceVarying"
    )
    point3f[] points = [(-0.00090000173, 0.0068433452, 0.051750027), (-0.00090000173, -0.0068433415, 0.051750027), (0.0009000024, -0.0068433452, 0.05175003), (0.0009000024, 0.0068433452, 0.05175003), (-0.00090000307, -0.0068433452, -0.051750008), (-0.00090000307, 0.0068433452, -0.051750008), (0.0009000029, 0.0068433452, -0.051750004), (0.0009000029, -0.0068433415, -0.051750004)]
}

